<?xml version="1.0" encoding="UTF-8" standalone="no"?>
<svg width="500" height ="200" version="1.1"
xmlns:svg ="http://www.w3.org/2000/svg"
xmlns:rdf="http://www.w3.org/1999/02/22-rdf-syntax-ns#"
xmlns:cc="http://web.resource.org/cc/"
xmlns:dc="http://purl.org/dc/elements/1.1/"
xmlns ="http://www.w3.org/2000/svg"
>
<!-- SVG plot written using Boost.Plot program (Creator Jacob Voytko) --> 
<!-- Use, modification and distribution of Boost.Plot subject to the --> 
<!-- Boost Software License, Version 1.0.--> 
<!-- (See accompanying file LICENSE_1_0.txt --> 
<!-- or copy at http://www.boost.org/LICENSE_1_0.txt) --> 

<!-- File ./1d_full_layout.svg --> 
<g id="imageBackground" stroke="rgb(255,255,0)" fill="rgb(128,128,128)" stroke-width="1">
	<rect x="0" y="0" width="500" height="200"/>
</g>
<g id="plotBackground" stroke="rgb(250,250,210)" fill="rgb(250,250,210)" stroke-width="1">
	<rect x="21" y="61.8" width="382" height="101"/>
</g>
<g id="xMinorGrid" stroke="rgb(200,220,255)" stroke-width="0.5">
</g>
<g id="xMajorGrid" stroke="rgb(200,220,255)" stroke-width="1">
</g>
<g id="xAxis" stroke="rgb(0,0,0)" stroke-width="1">
<line x1="109" y1="61.8" x2="109" y2="163"/><line x1="21" y1="119" x2="403" y2="119"/></g>
<g id="xMinorTicks" stroke="rgb(0,0,0)" stroke-width="1">
<path d="M124,119 L124,126 M138,119 L138,126 M153,119 L153,126 M182,119 L182,126 M197,119 L197,126 M212,119 L212,126 M241,119 L241,126 M256,119 L256,126 M271,119 L271,126 M300,119 L300,126 M315,119 L315,126 M329,119 L329,126 M359,119 L359,126 M373,119 L373,126 M388,119 L388,126 M94.4,119 L94.4,126 M79.7,119 L79.7,126 M65,119 L65,126 M35.7,119 L35.7,126 " fill="none"/></g>
<g id="xMajorTicks" stroke="rgb(0,0,0)" stroke-width="1">
<path d="M109,119 L109,133 M168,119 L168,133 M227,119 L227,133 M285,119 L285,133 M344,119 L344,133 M403,119 L403,133 M109,119 L109,133 M50.4,119 L50.4,133 " fill="none"/></g>
<g id="xTicksValues">
	<text x="168" y="112" text-anchor="middle" font-size="10" font-family="Verdana">2</text>
	<text x="227" y="112" text-anchor="middle" font-size="10" font-family="Verdana">4</text>
	<text x="285" y="112" text-anchor="middle" font-size="10" font-family="Verdana">6</text>
	<text x="344" y="112" text-anchor="middle" font-size="10" font-family="Verdana">8</text>
	<text x="403" y="112" text-anchor="middle" font-size="10" font-family="Verdana">10</text>
	<text x="50.4" y="112" text-anchor="middle" font-size="10" font-family="Verdana">-2</text>
</g>
<g id="xLabel" fill="rgb(255,255,255)">
	<text x="212" y="180" text-anchor="middle" font-size="10" font-family="Verdana">life-time (months)</text>
</g>
<g id="plotPoints">
<g stroke="rgb(0,0,255)">
<line x1="109" y1="114" x2="109" y2="104"/><line x1="138" y1="114" x2="138" y2="104"/><line x1="151" y1="114" x2="151" y2="104"/><line x1="160" y1="114" x2="160" y2="104"/><line x1="168" y1="114" x2="168" y2="104"/><line x1="175" y1="114" x2="175" y2="104"/><line x1="181" y1="114" x2="181" y2="104"/><line x1="187" y1="114" x2="187" y2="104"/><line x1="192" y1="114" x2="192" y2="104"/><line x1="197" y1="114" x2="197" y2="104"/></g>
<g stroke="rgb(255,165,0)">
<line x1="315" y1="114" x2="315" y2="104"/><line x1="168" y1="114" x2="168" y2="104"/><line x1="79.7" y1="114" x2="79.7" y2="104"/><line x1="50.4" y1="114" x2="50.4" y2="104"/></g>
<g stroke="rgb(255,0,0)">
<line x1="79.7" y1="114" x2="79.7" y2="104"/><line x1="138" y1="114" x2="138" y2="104"/><line x1="197" y1="114" x2="197" y2="104"/><line x1="256" y1="114" x2="256" y2="104"/><line x1="315" y1="114" x2="315" y2="104"/><line x1="373" y1="114" x2="373" y2="104"/></g>
</g>
<g id="legendBackground" stroke="rgb(255,215,0)" fill="rgb(240,255,255)" stroke-width="1">
	<rect x="409" y="61.8" width="82.3" height="83.3"/>
</g>
<g id="legendPoints">
<g stroke="rgb(0,0,255)">
<line x1="424" y1="111" x2="424" y2="101"/></g>
<g stroke="rgb(255,165,0)">
<line x1="424" y1="123" x2="424" y2="113"/></g>
<g stroke="rgb(255,0,0)">
<line x1="424" y1="136" x2="424" y2="126"/></g>
</g>
<g id="legendText">
	<text x="450" y="87.8" text-anchor="middle" font-size="15" font-family="Lucida Sans Unicode" textLength="55.8">Animal</text>
	<text x="431" y="107" font-size="10" font-family="Verdana" textLength="31.2">Lions</text>
	<text x="431" y="119" font-size="10" font-family="Verdana" textLength="37.2">Tigers</text>
	<text x="431" y="132" font-size="10" font-family="Verdana" textLength="31.2">Bears</text>
</g>
<g id="title" fill="rgb(255,255,255)">
	<text x="250" y="43.5" text-anchor="middle" font-size="29" font-family="Verdana">Animal Lives</text>
</g>
</svg>
