<?xml version="1.0" encoding="UTF-8" standalone="no"?>
<svg width="500" height ="200" version="1.1"
xmlns:svg ="http://www.w3.org/2000/svg"
xmlns:rdf="http://www.w3.org/1999/02/22-rdf-syntax-ns#"
xmlns:cc="http://web.resource.org/cc/"
xmlns:dc="http://purl.org/dc/elements/1.1/"
xmlns ="http://www.w3.org/2000/svg"
>
<!-- SVG plot written using Boost.Plot program (Creator Jacob Voytko) --> 
<!-- Use, modification and distribution of Boost.Plot subject to the --> 
<!-- Boost Software License, Version 1.0.--> 
<!-- (See accompanying file LICENSE_1_0.txt --> 
<!-- or copy at http://www.boost.org/LICENSE_1_0.txt) --> 

<!-- File ./1d_full_layout.svg --> 
<g id="imageBackground" stroke="rgb(255,255,0)" fill="rgb(128,128,128)" stroke-width="1"><rect x="0" y="0" width="500" height="200"/></g>
<g id="plotBackground" stroke="rgb(250,250,210)" fill="rgb(250,250,210)" stroke-width="1"><rect x="21" y="61.8" width="381" height="101"/></g>
<g id="xMinorGrid" stroke="rgb(200,220,255)" stroke-width="0.5"></g>
<g id="xMajorGrid" stroke="rgb(200,220,255)" stroke-width="1"></g>
<g id="xAxis" stroke="rgb(0,0,0)" stroke-width="1"><line x1="109" y1="61.8" x2="109" y2="162"/><line x1="21" y1="119" x2="402" y2="119"/></g>
<g id="xMinorTicks" stroke="rgb(0,0,0)" stroke-width="1"><path d="M124,119 L124,126 M138,119 L138,126 M153,119 L153,126 M182,119 L182,126 M197,119 L197,126 M212,119 L212,126 M241,119 L241,126 M256,119 L256,126 M270,119 L270,126 M300,119 L300,126 M314,119 L314,126 M329,119 L329,126 M358,119 L358,126 M373,119 L373,126 M387,119 L387,126 M94.3,119 L94.3,126 M79.6,119 L79.6,126 M65,119 L65,126 M35.7,119 L35.7,126 M21,119 L21,126 " fill="none"/></g>
<g id="xMajorTicks" stroke="rgb(0,0,0)" stroke-width="1"><path d="M109,119 L109,133 M168,119 L168,133 M226,119 L226,133 M285,119 L285,133 M343,119 L343,133 M402,119 L402,133 M109,119 L109,133 M50.3,119 L50.3,133 " fill="none"/></g>
<g id="xTicksValues">
<text x="168" y="112" text-anchor="middle" font-size="10" font-family="Verdana">2</text>
<text x="226" y="112" text-anchor="middle" font-size="10" font-family="Verdana">4</text>
<text x="285" y="112" text-anchor="middle" font-size="10" font-family="Verdana">6</text>
<text x="343" y="112" text-anchor="middle" font-size="10" font-family="Verdana">8</text>
<text x="402" y="112" text-anchor="middle" font-size="10" font-family="Verdana">10</text>
<text x="50.3" y="112" text-anchor="middle" font-size="10" font-family="Verdana">-2</text></g>
<g id="xLabel" fill="rgb(255,255,255)">
<text x="212" y="180" text-anchor="middle" font-size="10" font-family="Verdana">life-time (months)</text></g>
<g id="plotPoints"><g stroke="rgb(0,0,255)"><line x1="109" y1="114" x2="109" y2="104"/><line x1="138" y1="114" x2="138" y2="104"/><line x1="150" y1="114" x2="150" y2="104"/><line x1="160" y1="114" x2="160" y2="104"/><line x1="168" y1="114" x2="168" y2="104"/><line x1="175" y1="114" x2="175" y2="104"/><line x1="181" y1="114" x2="181" y2="104"/><line x1="187" y1="114" x2="187" y2="104"/><line x1="192" y1="114" x2="192" y2="104"/><line x1="197" y1="114" x2="197" y2="104"/></g>
<g stroke="rgb(255,165,0)"><line x1="314" y1="114" x2="314" y2="104"/><line x1="168" y1="114" x2="168" y2="104"/><line x1="79.6" y1="114" x2="79.6" y2="104"/><line x1="50.3" y1="114" x2="50.3" y2="104"/></g>
<g stroke="rgb(255,0,0)"><line x1="79.6" y1="114" x2="79.6" y2="104"/><line x1="138" y1="114" x2="138" y2="104"/><line x1="197" y1="114" x2="197" y2="104"/><line x1="256" y1="114" x2="256" y2="104"/><line x1="314" y1="114" x2="314" y2="104"/><line x1="373" y1="114" x2="373" y2="104"/></g>
</g>
<g id="legendBackground" stroke="rgb(255,215,0)" fill="rgb(240,255,255)" stroke-width="1"><rect x="408" y="61.8" width="82.4" height="83.2"/></g>
<g id="legendPoints"><g stroke="rgb(0,0,255)"><line x1="422" y1="110" x2="422" y2="100"/></g>
<g stroke="rgb(255,165,0)"><line x1="422" y1="123" x2="422" y2="113"/></g>
<g stroke="rgb(255,0,0)"><line x1="422" y1="136" x2="422" y2="126"/></g>
</g>
<g id="legendText">
<text x="449" y="87.8" text-anchor="middle" font-size="15" font-family="Lucida Sans Unicode" textLength="49.5">Animal</text>
<text x="430" y="106" font-size="10" font-family="Verdana">Lions</text>
<text x="430" y="119" font-size="10" font-family="Verdana">Tigers</text>
<text x="430" y="132" font-size="10" font-family="Verdana">Bears</text></g>
<g id="title" fill="rgb(255,255,255)">
<text x="250" y="43.5" text-anchor="middle" font-size="29" font-family="Verdana">Animal Lives</text></g>
</svg>
