<?xml version="1.0" encoding="UTF-8" standalone="no"?>
<svg width="500" height ="350" version="1.1"
xmlns:svg ="http://www.w3.org/2000/svg"
xmlns:rdf="http://www.w3.org/1999/02/22-rdf-syntax-ns#"
xmlns:cc="http://web.resource.org/cc/"
xmlns:dc="http://purl.org/dc/elements/1.1/"
xmlns ="http://www.w3.org/2000/svg"
>
<!-- SVG plot written using Boost.Plot program (Creator Jacob Voytko) --> 
<!-- Use, modification and distribution of Boost.Plot subject to the --> 
<!-- Boost Software License, Version 1.0.--> 
<!-- (See accompanying file LICENSE_1_0.txt --> 
<!-- or copy at http://www.boost.org/LICENSE_1_0.txt) --> 

<!-- File ./1d_full_layout.svg --> 
<g id="imageBackground" stroke="rgb(255,255,0)" fill="rgb(67,111,69)" stroke-width="1"><rect x="0" y="0" width="500" height="350"/></g>
<g id="plotBackground" stroke="rgb(250,250,210)" fill="rgb(136,188,126)" stroke-width="1"><rect x="11" y="83.5" width="362" height="214"/></g>
<g id="xMinorGrid" stroke="rgb(200,220,255)" stroke-width="0.5"></g>
<g id="xMajorGrid" stroke="rgb(200,220,255)" stroke-width="1"></g>
<g id="xAxis" stroke="rgb(0,0,0)" stroke-width="1"><line x1="94.6" y1="83.5" x2="94.6" y2="297"/><line x1="11" y1="197" x2="373" y2="197"/></g>
<g id="xMinorTicks" stroke="rgb(0,0,0)" stroke-width="1"><path d="M108,197 L108,204 M122,197 L122,204 M136,197 L136,204 M164,197 L164,204 M178,197 L178,204 M192,197 L192,204 M220,197 L220,204 M234,197 L234,204 M248,197 L248,204 M276,197 L276,204 M290,197 L290,204 M303,197 L303,204 M331,197 L331,204 M345,197 L345,204 M359,197 L359,204 M80.6,197 L80.6,204 M66.7,197 L66.7,204 M52.8,197 L52.8,204 M24.9,197 L24.9,204 M11,197 L11,204 " fill="none"/></g>
<g id="xMajorTicks" stroke="rgb(0,0,0)" stroke-width="1"><path d="M94.6,197 L94.6,211 M150,197 L150,211 M206,197 L206,211 M262,197 L262,211 M317,197 L317,211 M373,197 L373,211 M94.6,197 L94.6,211 M38.9,197 L38.9,211 " fill="none"/></g>
<g id="xTicksValues">
<text x="150" y="189" text-anchor="middle" font-size="12" font-family="Verdana">2</text>
<text x="206" y="189" text-anchor="middle" font-size="12" font-family="Verdana">4</text>
<text x="262" y="189" text-anchor="middle" font-size="12" font-family="Verdana">6</text>
<text x="317" y="189" text-anchor="middle" font-size="12" font-family="Verdana">8</text>
<text x="373" y="189" text-anchor="middle" font-size="12" font-family="Verdana">10</text>
<text x="38.9" y="189" text-anchor="middle" font-size="12" font-family="Verdana">-2</text></g>
<g id="xLabel">
<text x="192" y="321" text-anchor="middle" font-size="14" font-family="Verdana">Time in Months</text></g>
<g id="plotPoints"><g stroke="rgb(0,0,255)"><line x1="94.6" y1="195" x2="94.6" y2="185"/><line x1="122" y1="195" x2="122" y2="185"/><line x1="134" y1="195" x2="134" y2="185"/><line x1="143" y1="195" x2="143" y2="185"/><line x1="150" y1="195" x2="150" y2="185"/><line x1="157" y1="195" x2="157" y2="185"/><line x1="163" y1="195" x2="163" y2="185"/><line x1="168" y1="195" x2="168" y2="185"/><line x1="173" y1="195" x2="173" y2="185"/><line x1="178" y1="195" x2="178" y2="185"/></g>
<g stroke="rgb(255,165,0)"><line x1="290" y1="195" x2="290" y2="185"/><line x1="150" y1="195" x2="150" y2="185"/><line x1="66.7" y1="195" x2="66.7" y2="185"/><line x1="38.9" y1="195" x2="38.9" y2="185"/></g>
<g stroke="rgb(255,0,0)"><line x1="66.7" y1="195" x2="66.7" y2="185"/><line x1="122" y1="195" x2="122" y2="185"/><line x1="178" y1="195" x2="178" y2="185"/><line x1="234" y1="195" x2="234" y2="185"/><line x1="290" y1="195" x2="290" y2="185"/><line x1="345" y1="195" x2="345" y2="185"/></g>
</g>
<g id="legendBackground" stroke="rgb(102,102,84)" fill="rgb(207,202,167)" stroke-width="1"><rect x="385" y="83.5" width="104" height="135"/><rect x="385" y="83.5" width="104" height="135"/></g>
<g id="legendPoints"><g stroke="rgb(0,0,255)" stroke-width="2"><line x1="400" y1="149" x2="400" y2="139"/></g>
<g stroke="rgb(255,165,0)" stroke-width="2"><line x1="400" y1="179" x2="400" y2="169"/></g>
<g stroke="rgb(255,0,0)" stroke-width="2"><line x1="400" y1="209" x2="400" y2="199"/></g>
</g>
<g id="legendText">
<text x="437" y="114" text-anchor="middle" font-size="15" font-family="Verdana">Animals</text>
<text x="423" y="144" font-size="15" font-family="Verdana">Lions</text>
<text x="423" y="174" font-size="15" font-family="Verdana">Tigers</text>
<text x="423" y="204" font-size="15" font-family="Verdana">Bears</text></g>
<g id="title" fill="rgb(255,255,255)">
<text x="250" y="58" text-anchor="middle" font-size="29" font-family="Verdana">Animal Lives</text></g>
</svg>
