<?xml version="1.0" encoding="UTF-8" standalone="no"?>
<svg width="500" height ="200" version="1.1"
xmlns:svg ="http://www.w3.org/2000/svg"
xmlns:rdf="http://www.w3.org/1999/02/22-rdf-syntax-ns#"
xmlns:cc="http://web.resource.org/cc/"
xmlns:dc="http://purl.org/dc/elements/1.1/"
xmlns ="http://www.w3.org/2000/svg"
>
<!-- SVG plot written using Boost.Plot program (Creator Jacob Voytko) --> 
<!-- Use, modification and distribution of Boost.Plot subject to the --> 
<!-- Boost Software License, Version 1.0.--> 
<!-- (See accompanying file LICENSE_1_0.txt --> 
<!-- or copy at http://www.boost.org/LICENSE_1_0.txt) --> 

<!-- File ./1d_simple_style.svg --> 

<g id="imageBackground" stroke="rgb(0,0,0)" fill="rgb(255,255,255)" stroke-width="1">
	<rect x="0" y="0" width="500" height="200"/>
</g>

<g id="plotBackground" stroke="rgb(250,250,210)" fill="rgb(255,255,255)" stroke-width="1">
	<rect x="21" y="42.5" width="417" height="142"/>
</g>

<g id="xMinorGrid" stroke="rgb(200,220,255)" stroke-width="0.5">
</g>

<g id="xMajorGrid" stroke="rgb(200,220,255)" stroke-width="1">
</g>

<g id="xAxis" stroke="rgb(0,0,0)" stroke-width="1">
	<line x1="55.7" y1="42.5" x2="55.7" y2="184"/>
	<line x1="21" y1="116" x2="438" y2="116"/>
</g>

<g id="xMinorTicks" stroke="rgb(0,0,0)" stroke-width="1">
	<path d="M69.6,116 L69.6,118 
M83.5,116 L83.5,118 
M97.4,116 L97.4,118 
M111,116 L111,118 
M139,116 L139,118 
M153,116 L153,118 
M167,116 L167,118 
M181,116 L181,118 
M209,116 L209,118 
M222,116 L222,118 
M236,116 L236,118 
M250,116 L250,118 
M278,116 L278,118 
M292,116 L292,118 
M306,116 L306,118 
M320,116 L320,118 
M347,116 L347,118 
M361,116 L361,118 
M375,116 L375,118 
M389,116 L389,118 
M417,116 L417,118 
M431,116 L431,118 
M41.8,116 L41.8,118 
M27.9,116 L27.9,118 
" fill="none"/>
</g>

<g id="xMajorTicks" stroke="rgb(0,0,0)" stroke-width="2">
	<path d="M55.7,116 L55.7,121 
M125,116 L125,121 
M195,116 L195,121 
M264,116 L264,121 
M334,116 L334,121 
M403,116 L403,121 
M55.7,116 L55.7,121 
" fill="none"/>
</g>

<g id="xTicksValues">
	<text x="125" y="134" text-anchor="middle" font-size="10" font-family="Verdana">2
	</text>
	<text x="195" y="134" text-anchor="middle" font-size="10" font-family="Verdana">4
	</text>
	<text x="264" y="134" text-anchor="middle" font-size="10" font-family="Verdana">6
	</text>
	<text x="334" y="134" text-anchor="middle" font-size="10" font-family="Verdana">8
	</text>
	<text x="403" y="134" text-anchor="middle" font-size="10" font-family="Verdana">10
	</text>
</g>

<g id="xLabel">
	<text x="229" y="201" text-anchor="middle" font-size="10" font-family="Verdana">
	</text>
</g>

<g id="plotPoints">

<g stroke="rgb(255,0,0)">
	<line x1="163" y1="115" x2="163" y2="105"/>
	<line x1="202" y1="115" x2="202" y2="105"/>
</g>

<g stroke="rgb(0,0,255)">
	<line x1="129" y1="115" x2="129" y2="105"/>
	<line x1="327" y1="115" x2="327" y2="105"/>
</g>
</g>

<g id="legendBackground" stroke="rgb(255,255,0)" fill="rgb(255,255,255)" stroke-width="1">
	<rect x="444" y="42.5" width="47.2" height="27"/>
</g>

<g id="legendPoints">

<g stroke="rgb(255,0,0)">
	<line x1="450" y1="60" x2="450" y2="50"/>
</g>

<g stroke="rgb(0,0,255)">
	<line x1="450" y1="72.5" x2="450" y2="62.5"/>
</g>
</g>

<g id="legendText">
	<text x="467" y="43.5" text-anchor="middle">Teams
	</text>
	<text x="457" y="56" font-size="10" font-family="Verdana" textLength="25.2">Reds
	</text>
	<text x="457" y="68.5" font-size="10" font-family="Verdana" textLength="31.2">Blues
	</text>
</g>

<g id="title">
	<text x="250" y="27" text-anchor="middle" font-size="18" font-family="Verdana">Race Times
	</text>
</g>
</svg>
