<?xml version="1.0" encoding="UTF-8" standalone="no"?>
<svg width="500" height ="200" version="1.1"
xmlns:svg ="http://www.w3.org/2000/svg"
xmlns:rdf="http://www.w3.org/1999/02/22-rdf-syntax-ns#"
xmlns:cc="http://web.resource.org/cc/"
xmlns:dc="http://purl.org/dc/elements/1.1/"
xmlns ="http://www.w3.org/2000/svg"
>
<!-- SVG plot written using Boost.Plot program (Creator Jacob Voytko) --> 
<!-- Use, modification and distribution of Boost.Plot subject to the --> 
<!-- Boost Software License, Version 1.0.--> 
<!-- (See accompanying file LICENSE_1_0.txt --> 
<!-- or copy at http://www.boost.org/LICENSE_1_0.txt) --> 

<!-- File ./1d_simple_style.svg --> 
<g id="imageBackground" stroke="rgb(0,0,0)" fill="rgb(255,255,255)" stroke-width="1"><rect x="0" y="0" width="500" height="200"/></g>
<g id="plotBackground" stroke="rgb(250,250,210)" fill="rgb(255,255,255)" stroke-width="1"><rect x="21" y="42.5" width="413" height="142"/></g>
<g id="xMinorGrid" stroke="rgb(200,220,255)" stroke-width="0.5"></g>
<g id="xMajorGrid" stroke="rgb(200,220,255)" stroke-width="1"></g>
<g id="xAxis" stroke="rgb(0,0,0)" stroke-width="1"><line x1="55.4" y1="42.5" x2="55.4" y2="184"/><line x1="21" y1="116" x2="434" y2="116"/></g>
<g id="xMinorTicks" stroke="rgb(0,0,0)" stroke-width="1"><path d="M69.2,116 L69.2,118 M82.9,116 L82.9,118 M96.7,116 L96.7,118 M110,116 L110,118 M138,116 L138,118 M152,116 L152,118 M166,116 L166,118 M179,116 L179,118 M207,116 L207,118 M221,116 L221,118 M234,116 L234,118 M248,116 L248,118 M276,116 L276,118 M289,116 L289,118 M303,116 L303,118 M317,116 L317,118 M344,116 L344,118 M358,116 L358,118 M372,116 L372,118 M386,116 L386,118 M413,116 L413,118 M427,116 L427,118 M41.6,116 L41.6,118 M27.9,116 L27.9,118 " fill="none"/></g>
<g id="xMajorTicks" stroke="rgb(0,0,0)" stroke-width="2"><path d="M55.4,116 L55.4,121 M124,116 L124,121 M193,116 L193,121 M262,116 L262,121 M331,116 L331,121 M400,116 L400,121 M55.4,116 L55.4,121 " fill="none"/></g>
<g id="xTicksValues">
<text x="124" y="134" text-anchor="middle" font-size="10" font-family="Verdana">2</text>
<text x="193" y="134" text-anchor="middle" font-size="10" font-family="Verdana">4</text>
<text x="262" y="134" text-anchor="middle" font-size="10" font-family="Verdana">6</text>
<text x="331" y="134" text-anchor="middle" font-size="10" font-family="Verdana">8</text>
<text x="400" y="134" text-anchor="middle" font-size="10" font-family="Verdana">10</text></g>
<g id="xLabel">
<text x="227" y="201" text-anchor="middle" font-size="10" font-family="Verdana"></text></g>
<g id="plotPoints"><g stroke="rgb(255,0,0)"><line x1="162" y1="115" x2="162" y2="105"/><line x1="200" y1="115" x2="200" y2="105"/></g>
<g stroke="rgb(0,0,255)"><line x1="128" y1="115" x2="128" y2="105"/><line x1="324" y1="115" x2="324" y2="105"/></g>
</g>
<g id="legendBackground" stroke="rgb(255,255,0)" fill="rgb(255,255,255)" stroke-width="1"><rect x="440" y="42.5" width="51.1" height="62"/></g>
<g id="legendPoints"><g stroke="rgb(255,0,0)" stroke-width="2"><line x1="453" y1="85" x2="453" y2="75"/></g>
<g stroke="rgb(0,0,255)" stroke-width="2"><line x1="453" y1="97.5" x2="453" y2="87.5"/></g>
</g>
<g id="legendText">
<text x="465" y="63.5" text-anchor="middle" font-size="10" font-family="Verdana">Teams</text>
<text x="462" y="81" font-size="10" font-family="Verdana">Reds</text>
<text x="462" y="93.5" font-size="10" font-family="Verdana">Blues</text></g>
<g id="title">
<text x="250" y="22.5" text-anchor="middle" font-size="18" font-family="Verdana">Race Times</text></g>
</svg>
