<?xml version="1.0" encoding="UTF-8" standalone="no"?>
<svg width="500" height ="200" version="1.1"
xmlns:svg ="http://www.w3.org/2000/svg"
xmlns:rdf="http://www.w3.org/1999/02/22-rdf-syntax-ns#"
xmlns:cc="http://web.resource.org/cc/"
xmlns:dc="http://purl.org/dc/elements/1.1/"
xmlns ="http://www.w3.org/2000/svg"
>
<!-- SVG plot written using Boost.Plot program (Creator Jacob Voytko) --> 
<!-- Use, modification and distribution of Boost.Plot subject to the --> 
<!-- Boost Software License, Version 1.0.--> 
<!-- (See accompanying file LICENSE_1_0.txt --> 
<!-- or copy at http://www.boost.org/LICENSE_1_0.txt) --> 

<!-- File ./1d_simple_style.svg --> 
<g id="imageBackground" stroke="rgb(0,0,0)" fill="rgb(255,255,255)" stroke-width="1"><rect x="0" y="0" width="500" height="200"/></g>
<g id="plotBackground" stroke="rgb(250,250,210)" fill="rgb(255,255,255)" stroke-width="1"><rect x="21" y="42.5" width="403" height="142"/></g>
<g id="xMinorGrid" stroke="rgb(200,220,255)" stroke-width="0.5"></g>
<g id="xMajorGrid" stroke="rgb(200,220,255)" stroke-width="1"></g>
<g id="xAxis" stroke="rgb(0,0,0)" stroke-width="1"><line x1="54.6" y1="42.5" x2="54.6" y2="184"/><line x1="21" y1="116" x2="424" y2="116"/></g>
<g id="xMinorTicks" stroke="rgb(0,0,0)" stroke-width="1"><path d="M68.1,116 L68.1,118 M81.5,116 L81.5,118 M95,116 L95,118 M108,116 L108,118 M135,116 L135,118 M149,116 L149,118 M162,116 L162,118 M176,116 L176,118 M203,116 L203,118 M216,116 L216,118 M229,116 L229,118 M243,116 L243,118 M270,116 L270,118 M283,116 L283,118 M297,116 L297,118 M310,116 L310,118 M337,116 L337,118 M350,116 L350,118 M364,116 L364,118 M377,116 L377,118 M404,116 L404,118 M418,116 L418,118 M41.2,116 L41.2,118 M27.7,116 L27.7,118 " fill="none"/></g>
<g id="xMajorTicks" stroke="rgb(0,0,0)" stroke-width="2"><path d="M54.6,116 L54.6,121 M122,116 L122,121 M189,116 L189,121 M256,116 L256,121 M324,116 L324,121 M391,116 L391,121 M54.6,116 L54.6,121 " fill="none"/></g>
<g id="xTicksValues">
<text x="122" y="134" text-anchor="middle" font-size="10" font-family="Verdana">2</text>
<text x="189" y="134" text-anchor="middle" font-size="10" font-family="Verdana">4</text>
<text x="256" y="134" text-anchor="middle" font-size="10" font-family="Verdana">6</text>
<text x="324" y="134" text-anchor="middle" font-size="10" font-family="Verdana">8</text>
<text x="391" y="134" text-anchor="middle" font-size="10" font-family="Verdana">10</text></g>
<g id="xLabel">
<text x="223" y="201" text-anchor="middle" font-size="10" font-family="Verdana"></text></g>
<g id="plotPoints"><g stroke="rgb(255,0,0)"><line x1="159" y1="115" x2="159" y2="105"/><line x1="196" y1="115" x2="196" y2="105"/></g>
<g stroke="rgb(0,0,255)"><line x1="125" y1="115" x2="125" y2="105"/><line x1="317" y1="115" x2="317" y2="105"/></g>
</g>
<g id="legendBackground" stroke="rgb(255,255,0)" fill="rgb(255,255,255)" stroke-width="1"><rect x="430" y="42.5" width="60.1" height="62"/></g>
<g id="legendPoints"><g stroke="rgb(255,0,0)"><line x1="442" y1="85" x2="442" y2="75"/></g>
<g stroke="rgb(0,0,255)"><line x1="442" y1="97.5" x2="442" y2="87.5"/></g>
</g>
<g id="legendText">
<text x="460" y="63.5" text-anchor="middle" font-size="12" font-family="Lucida Sans Unicode" textLength="33">Teams</text>
<text x="450" y="81" font-size="10" font-family="Verdana">Reds</text>
<text x="450" y="93.5" font-size="10" font-family="Verdana">Blues</text></g>
<g id="title">
<text x="250" y="27" text-anchor="middle" font-size="18" font-family="Verdana">Race Times</text></g>
</svg>
