<?xml version="1.0" encoding="UTF-8" standalone="no"?>
<svg width="500" height ="200" version="1.1"
xmlns:svg ="http://www.w3.org/2000/svg"
xmlns:rdf="http://www.w3.org/1999/02/22-rdf-syntax-ns#"
xmlns:cc="http://web.resource.org/cc/"
xmlns:dc="http://purl.org/dc/elements/1.1/"
xmlns ="http://www.w3.org/2000/svg"
>
<!-- SVG plot written using Boost.Plot program (Creator Jacob Voytko) --> 
<!-- Use, modification and distribution of Boost.Plot subject to the --> 
<!-- Boost Software License, Version 1.0.--> 
<!-- (See accompanying file LICENSE_1_0.txt --> 
<!-- or copy at http://www.boost.org/LICENSE_1_0.txt) --> 

<!-- File ./1d_x_external.svg --> 

<g id="imageBackground" stroke="rgb(0,0,0)" fill="rgb(255,255,255)" stroke-width="1">
	<rect x="0" y="0" width="500" height="200"/>
</g>
<g id="plotBackground" stroke="rgb(250,250,210)" fill="rgb(255,255,255)" stroke-width="1">
	<rect x="21" y="42.5" width="393" height="130"/>
</g>
<g id="xMinorGrid" stroke="rgb(211,211,211)" stroke-width="0.5">
	<path d="M66.8,43.5 L66.8,171 
M79.9,43.5 L79.9,171 
M93,43.5 L93,171 
M106,43.5 L106,171 
M132,43.5 L132,171 
M145,43.5 L145,171 
M158,43.5 L158,171 
M172,43.5 L172,171 
M198,43.5 L198,171 
M211,43.5 L211,171 
M224,43.5 L224,171 
M237,43.5 L237,171 
M263,43.5 L263,171 
M276,43.5 L276,171 
M289,43.5 L289,171 
M303,43.5 L303,171 
M329,43.5 L329,171 
M342,43.5 L342,171 
M355,43.5 L355,171 
M368,43.5 L368,171 
M394,43.5 L394,171 
M407,43.5 L407,171 
M40.6,43.5 L40.6,171 
M27.5,43.5 L27.5,171 
" fill="none"/>
</g>
<g id="xMajorGrid" stroke="rgb(0,0,0)" stroke-width="1">
	<path d="M53.7,42.5 L53.7,172 
M119,42.5 L119,172 
M185,42.5 L185,172 
M250,42.5 L250,172 
M316,42.5 L316,172 
M381,42.5 L381,172 
M53.7,42.5 L53.7,172 
" fill="none"/>
</g>
<g id="xAxis" stroke="rgb(0,0,0)" stroke-width="1">
	<line x1="53.7" y1="42.5" x2="53.7" y2="172"/>
	<line x1="21" y1="116" x2="414" y2="116"/>
	<line x1="21" y1="172" x2="414" y2="172"/>
</g>
<g id="xMinorTicks" stroke="rgb(0,0,0)" stroke-width="1">
	<path d="M66.8,172 L66.8,174 
M79.9,172 L79.9,174 
M93,172 L93,174 
M106,172 L106,174 
M132,172 L132,174 
M145,172 L145,174 
M158,172 L158,174 
M172,172 L172,174 
M198,172 L198,174 
M211,172 L211,174 
M224,172 L224,174 
M237,172 L237,174 
M263,172 L263,174 
M276,172 L276,174 
M289,172 L289,174 
M303,172 L303,174 
M329,172 L329,174 
M342,172 L342,174 
M355,172 L355,174 
M368,172 L368,174 
M394,172 L394,174 
M407,172 L407,174 
M40.6,172 L40.6,174 
M27.5,172 L27.5,174 
" fill="none"/>
</g>
<g id="xMajorTicks" stroke="rgb(0,0,0)" stroke-width="2">
	<path d="M53.7,172 L53.7,177 
M119,172 L119,177 
M185,172 L185,177 
M250,172 L250,177 
M316,172 L316,177 
M381,172 L381,177 
M53.7,172 L53.7,177 
" fill="none"/>
</g>
<g id="xTicksValues">
	<text x="53.7" y="190" text-anchor="middle" font-size="10" font-family="Verdana">0	</text>
	<text x="119" y="190" text-anchor="middle" font-size="10" font-family="Verdana">2	</text>
	<text x="185" y="190" text-anchor="middle" font-size="10" font-family="Verdana">4	</text>
	<text x="250" y="190" text-anchor="middle" font-size="10" font-family="Verdana">6	</text>
	<text x="316" y="190" text-anchor="middle" font-size="10" font-family="Verdana">8	</text>
	<text x="381" y="190" text-anchor="middle" font-size="10" font-family="Verdana">10	</text>
	<text x="53.7" y="190" text-anchor="middle" font-size="10" font-family="Verdana">0	</text>
</g>
<g id="xLabel">
	<text x="217" y="200" text-anchor="middle" font-size="10" font-family="Verdana">	</text>
</g>
<g id="plotPoints">

<g stroke="rgb(0,0,255)">
	<line x1="155" y1="109" x2="155" y2="99.2"/>
	<line x1="191" y1="109" x2="191" y2="99.2"/>
</g>
<g stroke="rgb(255,165,0)">
	<line x1="122" y1="109" x2="122" y2="99.2"/>
	<line x1="309" y1="109" x2="309" y2="99.2"/>
</g></g>
<g id="legendBackground" stroke="rgb(255,255,0)" fill="rgb(255,255,255)" stroke-width="1">
	<rect x="420" y="42.5" width="71.2" height="47"/>
</g>
<g id="legendPoints">

<g stroke="rgb(0,0,255)">
	<line x1="433" y1="65" x2="433" y2="55"/>
</g>
<g stroke="rgb(255,165,0)">
	<line x1="433" y1="77.5" x2="433" y2="67.5"/>
</g></g>
<g id="legendText">
	<text x="440" y="61" font-size="10" font-family="Verdana" textLength="19.2">Dan	</text>
	<text x="440" y="73.5" font-size="10" font-family="Verdana" textLength="37.2">Elaine	</text>
</g>
<g id="title">
	<text x="250" y="27" text-anchor="middle" font-size="18" font-family="Verdana">Race Times	</text>
</g></svg>
