<?xml version="1.0" encoding="UTF-8" standalone="no"?>
<svg width="500" height ="200" version="1.1"
xmlns:svg ="http://www.w3.org/2000/svg"
xmlns:rdf="http://www.w3.org/1999/02/22-rdf-syntax-ns#"
xmlns:cc="http://web.resource.org/cc/"
xmlns:dc="http://purl.org/dc/elements/1.1/"
xmlns ="http://www.w3.org/2000/svg"
>
<!-- SVG plot written using Boost.Plot program (Creator Jacob Voytko) --> 
<!-- Use, modification and distribution of Boost.Plot subject to the --> 
<!-- Boost Software License, Version 1.0.--> 
<!-- (See accompanying file LICENSE_1_0.txt --> 
<!-- or copy at http://www.boost.org/LICENSE_1_0.txt) --> 

<!-- File ./1d_x_grid.svg --> 
<g id="imageBackground" stroke="rgb(0,0,0)" fill="rgb(255,255,255)" stroke-width="1"><rect x="0" y="0" width="500" height="200"/></g>
<g id="plotBackground" stroke="rgb(250,250,210)" fill="rgb(255,255,255)" stroke-width="1"><rect x="11" y="56" width="372" height="128"/></g>
<g id="xMinorGrid" stroke="rgb(211,211,211)" stroke-width="0.5"><path d="M54.5,57 L54.5,183 M66.9,57 L66.9,183 M79.3,57 L79.3,183 M91.7,57 L91.7,183 M117,57 L117,183 M129,57 L129,183 M141,57 L141,183 M154,57 L154,183 M179,57 L179,183 M191,57 L191,183 M203,57 L203,183 M216,57 L216,183 M241,57 L241,183 M253,57 L253,183 M266,57 L266,183 M278,57 L278,183 M303,57 L303,183 M315,57 L315,183 M328,57 L328,183 M340,57 L340,183 M365,57 L365,183 M377,57 L377,183 M29.6,57 L29.6,183 M17.2,57 L17.2,183 " fill="none"/></g>
<g id="xMajorGrid" stroke="rgb(0,0,255)" stroke-width="1"><path d="M42,56 L42,184 M104,56 L104,184 M166,56 L166,184 M228,56 L228,184 M290,56 L290,184 M352,56 L352,184 M42,56 L42,184 " fill="none"/></g>
<g id="xAxis" stroke="rgb(0,0,0)" stroke-width="1"><line x1="42" y1="56" x2="42" y2="184"/><line x1="11" y1="123" x2="383" y2="123"/></g>
<g id="xMinorTicks" stroke="rgb(0,0,0)" stroke-width="1"><path d="M54.5,123 L54.5,125 M66.9,123 L66.9,125 M79.3,123 L79.3,125 M91.7,123 L91.7,125 M117,123 L117,125 M129,123 L129,125 M141,123 L141,125 M154,123 L154,125 M179,123 L179,125 M191,123 L191,125 M203,123 L203,125 M216,123 L216,125 M241,123 L241,125 M253,123 L253,125 M266,123 L266,125 M278,123 L278,125 M303,123 L303,125 M315,123 L315,125 M328,123 L328,125 M340,123 L340,125 M365,123 L365,125 M377,123 L377,125 M29.6,123 L29.6,125 M17.2,123 L17.2,125 " fill="none"/></g>
<g id="xMajorTicks" stroke="rgb(0,0,0)" stroke-width="2"><path d="M42,123 L42,128 M104,123 L104,128 M166,123 L166,128 M228,123 L228,128 M290,123 L290,128 M352,123 L352,128 M42,123 L42,128 " fill="none"/></g>
<g id="xTicksValues">
<text x="104" y="143" text-anchor="middle" font-size="12" font-family="Verdana">2</text>
<text x="166" y="143" text-anchor="middle" font-size="12" font-family="Verdana">4</text>
<text x="228" y="143" text-anchor="middle" font-size="12" font-family="Verdana">6</text>
<text x="290" y="143" text-anchor="middle" font-size="12" font-family="Verdana">8</text>
<text x="352" y="143" text-anchor="middle" font-size="12" font-family="Verdana">10</text></g>
<g id="xLabel">
<text x="197" y="208" text-anchor="middle" font-size="14" font-family="Verdana"></text></g>
<g id="plotPoints"><g stroke="rgb(0,0,255)"><line x1="138" y1="125" x2="138" y2="115"/><line x1="172" y1="125" x2="172" y2="115"/></g>
<g stroke="rgb(255,165,0)"><line x1="107" y1="125" x2="107" y2="115"/><line x1="284" y1="125" x2="284" y2="115"/></g>
</g>
<g id="legendBackground" stroke="rgb(255,255,0)" fill="rgb(255,255,255)" stroke-width="1"><rect x="395" y="56" width="93.5" height="70"/><rect x="395" y="56" width="93.5" height="70"/></g>
<g id="legendPoints"><g stroke="rgb(0,0,255)" stroke-width="2"><line x1="409" y1="89" x2="409" y2="79"/></g>
<g stroke="rgb(255,165,0)" stroke-width="2"><line x1="409" y1="117" x2="409" y2="107"/></g>
</g>
<g id="legendText">
<text x="430" y="84" font-size="14" font-family="Verdana">Dan</text>
<text x="430" y="112" font-size="14" font-family="Verdana">Elaine</text></g>
<g id="title">
<text x="250" y="36" text-anchor="middle" font-size="18" font-family="Verdana">Race Times</text></g>
</svg>
