<?xml version="1.0" encoding="UTF-8" standalone="no"?>
<svg width="500" height ="200" version="1.1"
xmlns:svg ="http://www.w3.org/2000/svg"
xmlns:rdf="http://www.w3.org/1999/02/22-rdf-syntax-ns#"
xmlns:cc="http://web.resource.org/cc/"
xmlns:dc="http://purl.org/dc/elements/1.1/"
xmlns ="http://www.w3.org/2000/svg"
>
<!-- SVG plot written using Boost.Plot program (Creator Jacob Voytko) --> 
<!-- Use, modification and distribution of Boost.Plot subject to the --> 
<!-- Boost Software License, Version 1.0.--> 
<!-- (See accompanying file LICENSE_1_0.txt --> 
<!-- or copy at http://www.boost.org/LICENSE_1_0.txt) --> 

<!-- File ./1d_x_grid.svg --> 
	<g id="imageBackground" stroke="rgb(0,0,0)" fill="rgb(255,255,255)" stroke-width="1">
		<rect x="0" y="0" width="500" height="200"/>
	</g>
	<g id="plotBackground" stroke="rgb(250,250,210)" fill="rgb(255,255,255)" stroke-width="1">
		<rect x="21" y="42.5" width="411" height="142"/>
	</g>
	<g id="xMinorGrid" stroke="rgb(211,211,211)" stroke-width="0.5">
		<path d="
			M68.9,43.5 L68.9,183 
			M82.6,43.5 L82.6,183 
			M96.3,43.5 L96.3,183 
			M110,43.5 L110,183 
			M137,43.5 L137,183 
			M151,43.5 L151,183 
			M165,43.5 L165,183 
			M178,43.5 L178,183 
			M206,43.5 L206,183 
			M220,43.5 L220,183 
			M233,43.5 L233,183 
			M247,43.5 L247,183 
			M274,43.5 L274,183 
			M288,43.5 L288,183 
			M302,43.5 L302,183 
			M315,43.5 L315,183 
			M343,43.5 L343,183 
			M356,43.5 L356,183 
			M370,43.5 L370,183 
			M384,43.5 L384,183 
			M411,43.5 L411,183 
			M425,43.5 L425,183 
			M41.5,43.5 L41.5,183 
			M27.8,43.5 L27.8,183 
			" fill="none"/>
	</g>
	<g id="xMajorGrid" stroke="rgb(0,0,255)" stroke-width="1">
		<path d="
			M55.2,42.5 L55.2,184 
			M124,42.5 L124,184 
			M192,42.5 L192,184 
			M261,42.5 L261,184 
			M329,42.5 L329,184 
			M398,42.5 L398,184 
			M55.2,42.5 L55.2,184 
			" fill="none"/>
	</g>
	<g id="xAxis" stroke="rgb(0,0,0)" stroke-width="1">
		<line x1="55.2" y1="42.5" x2="55.2" y2="184"/>
		<line x1="21" y1="116" x2="432" y2="116"/>
	</g>
	<g id="xMinorTicks" stroke="rgb(0,0,0)" stroke-width="1">
		<path d="
			M68.9,116 L68.9,118 
			M82.6,116 L82.6,118 
			M96.3,116 L96.3,118 
			M110,116 L110,118 
			M137,116 L137,118 
			M151,116 L151,118 
			M165,116 L165,118 
			M178,116 L178,118 
			M206,116 L206,118 
			M220,116 L220,118 
			M233,116 L233,118 
			M247,116 L247,118 
			M274,116 L274,118 
			M288,116 L288,118 
			M302,116 L302,118 
			M315,116 L315,118 
			M343,116 L343,118 
			M356,116 L356,118 
			M370,116 L370,118 
			M384,116 L384,118 
			M411,116 L411,118 
			M425,116 L425,118 
			M41.5,116 L41.5,118 
			M27.8,116 L27.8,118 
			" fill="none"/>
	</g>
	<g id="xMajorTicks" stroke="rgb(0,0,0)" stroke-width="2">
		<path d="
			M55.2,116 L55.2,121 
			M124,116 L124,121 
			M192,116 L192,121 
			M261,116 L261,121 
			M329,116 L329,121 
			M398,116 L398,121 
			M55.2,116 L55.2,121 
			" fill="none"/>
	</g>
	<g id="xTicksValues" font-size="10" font-family="Verdana" text-anchor="middle">
		<text x="124" y="134">2
		</text>
		<text x="192" y="134">4
		</text>
		<text x="261" y="134">6
		</text>
		<text x="329" y="134">8
		</text>
		<text x="398" y="134">10
		</text>
	</g>
	<g id="xLabel">
		<text x="226" y="201" text-anchor="middle" font-size="10" font-family="Verdana">
		</text>
	</g>
	<g id="plotPoints">
	<g stroke="rgb(0,0,255)" font-size="5" font-family="Lucida Sans Unicode" text-anchor="middle">
		<line x1="161" y1="116" x2="161" y2="106"/>
		<line x1="199" y1="116" x2="199" y2="106"/>
	</g>
	<g stroke="rgb(255,165,0)" font-size="5" font-family="Lucida Sans Unicode" text-anchor="middle">
		<line x1="127" y1="116" x2="127" y2="106"/>
		<line x1="322" y1="116" x2="322" y2="106"/>
	</g>
	</g>
	<g id="legendBackground" stroke="rgb(255,255,0)" fill="rgb(255,255,255)" stroke-width="1">
		<rect x="438" y="42.5" width="53.2" height="27"/>
	</g>
	<g id="legendPoints">
	<g stroke="rgb(0,0,255)" font-size="5" font-family="Lucida Sans Unicode" text-anchor="middle">
		<line x1="444" y1="60" x2="444" y2="50"/>
	</g>
	<g stroke="rgb(255,165,0)" font-size="5" font-family="Lucida Sans Unicode" text-anchor="middle">
		<line x1="444" y1="72.5" x2="444" y2="62.5"/>
	</g>
	</g>
	<g id="legendText">
		<text x="451" y="56" font-size="10" font-family="Verdana" textLength="19.2">Dan
		</text>
		<text x="451" y="68.5" font-size="10" font-family="Verdana" textLength="37.2">Elaine
		</text>
	</g>
	<g id="title">
		<text x="250" y="27" text-anchor="middle" font-size="18" font-family="Verdana">Race Times
		</text>
	</g>
</svg>
