<?xml version="1.0" encoding="UTF-8" standalone="no"?>
<svg width="500" height ="200" version="1.1"
xmlns:svg ="http://www.w3.org/2000/svg"
xmlns:rdf="http://www.w3.org/1999/02/22-rdf-syntax-ns#"
xmlns:cc="http://web.resource.org/cc/"
xmlns:dc="http://purl.org/dc/elements/1.1/"
xmlns ="http://www.w3.org/2000/svg"
>
<!-- SVG plot written using Boost.Plot program (Creator Jacob Voytko) --> 
<!-- Use, modification and distribution of Boost.Plot subject to the --> 
<!-- Boost Software License, Version 1.0.--> 
<!-- (See accompanying file LICENSE_1_0.txt --> 
<!-- or copy at http://www.boost.org/LICENSE_1_0.txt) --> 

<!-- File ./1d_x_external.svg --> 

<g id="imageBackground" stroke="rgb(0,0,0)" fill="rgb(255,255,255)" stroke-width="1">
	<rect x="0" y="0" width="500" height="200"/>
</g>

<g id="plotBackground" stroke="rgb(250,250,210)" fill="rgb(255,255,255)" stroke-width="1">
	<rect x="21" y="42.5" width="411" height="130"/>
</g>

<g id="xMinorGrid" stroke="rgb(211,211,211)" stroke-width="0.5">
	<path d="M68.9,43.5 L68.9,171 
M82.6,43.5 L82.6,171 
M96.3,43.5 L96.3,171 
M110,43.5 L110,171 
M137,43.5 L137,171 
M151,43.5 L151,171 
M165,43.5 L165,171 
M178,43.5 L178,171 
M206,43.5 L206,171 
M220,43.5 L220,171 
M233,43.5 L233,171 
M247,43.5 L247,171 
M274,43.5 L274,171 
M288,43.5 L288,171 
M302,43.5 L302,171 
M315,43.5 L315,171 
M343,43.5 L343,171 
M356,43.5 L356,171 
M370,43.5 L370,171 
M384,43.5 L384,171 
M411,43.5 L411,171 
M425,43.5 L425,171 
M41.5,43.5 L41.5,171 
M27.8,43.5 L27.8,171 
" fill="none"/>
</g>

<g id="xMajorGrid" stroke="rgb(0,0,0)" stroke-width="1">
	<path d="M55.2,42.5 L55.2,172 
M124,42.5 L124,172 
M192,42.5 L192,172 
M261,42.5 L261,172 
M329,42.5 L329,172 
M398,42.5 L398,172 
M55.2,42.5 L55.2,172 
" fill="none"/>
</g>

<g id="xAxis" stroke="rgb(0,0,0)" stroke-width="1">
	<line x1="55.2" y1="42.5" x2="55.2" y2="172"/>
	<line x1="21" y1="116" x2="432" y2="116"/>
	<line x1="21" y1="172" x2="432" y2="172"/>
</g>

<g id="xMinorTicks" stroke="rgb(0,0,0)" stroke-width="1">
	<path d="M68.9,172 L68.9,174 
M82.6,172 L82.6,174 
M96.3,172 L96.3,174 
M110,172 L110,174 
M137,172 L137,174 
M151,172 L151,174 
M165,172 L165,174 
M178,172 L178,174 
M206,172 L206,174 
M220,172 L220,174 
M233,172 L233,174 
M247,172 L247,174 
M274,172 L274,174 
M288,172 L288,174 
M302,172 L302,174 
M315,172 L315,174 
M343,172 L343,174 
M356,172 L356,174 
M370,172 L370,174 
M384,172 L384,174 
M411,172 L411,174 
M425,172 L425,174 
M41.5,172 L41.5,174 
M27.8,172 L27.8,174 
" fill="none"/>
</g>

<g id="xMajorTicks" stroke="rgb(0,0,0)" stroke-width="2">
	<path d="M55.2,172 L55.2,177 
M124,172 L124,177 
M192,172 L192,177 
M261,172 L261,177 
M329,172 L329,177 
M398,172 L398,177 
M55.2,172 L55.2,177 
" fill="none"/>
</g>

<g id="xTicksValues" font-size="10" font-family="Verdana" text-anchor="middle">
	<text x="55.2" y="190">0
	</text>
	<text x="124" y="190">2
	</text>
	<text x="192" y="190">4
	</text>
	<text x="261" y="190">6
	</text>
	<text x="329" y="190">8
	</text>
	<text x="398" y="190">10
	</text>
	<text x="55.2" y="190">0
	</text>
</g>

<g id="xLabel">
	<text x="226" y="200" text-anchor="middle" font-size="10" font-family="Verdana">
	</text>
</g>

<g id="plotPoints">

<g stroke="rgb(0,0,255)">
	<line x1="161" y1="109" x2="161" y2="99.2"/>
	<line x1="199" y1="109" x2="199" y2="99.2"/>
</g>

<g stroke="rgb(255,165,0)">
	<line x1="127" y1="109" x2="127" y2="99.2"/>
	<line x1="322" y1="109" x2="322" y2="99.2"/>
</g>
</g>

<g id="legendBackground" stroke="rgb(255,255,0)" fill="rgb(255,255,255)" stroke-width="1">
	<rect x="438" y="42.5" width="53.2" height="27"/>
</g>

<g id="legendPoints">

<g stroke="rgb(0,0,255)">
	<line x1="444" y1="60" x2="444" y2="50"/>
</g>

<g stroke="rgb(255,165,0)">
	<line x1="444" y1="72.5" x2="444" y2="62.5"/>
</g>
</g>

<g id="legendText">
	<text x="451" y="56" font-size="10" font-family="Verdana" textLength="19.2">Dan
	</text>
	<text x="451" y="68.5" font-size="10" font-family="Verdana" textLength="37.2">Elaine
	</text>
</g>

<g id="title">
	<text x="250" y="27" text-anchor="middle" font-size="18" font-family="Verdana">Race Times
	</text>
</g>
</svg>
