<?xml version="1.0" encoding="UTF-8" standalone="no"?>
<svg width="500" height ="200" version="1.1"
xmlns:svg ="http://www.w3.org/2000/svg"
xmlns:rdf="http://www.w3.org/1999/02/22-rdf-syntax-ns#"
xmlns:cc="http://web.resource.org/cc/"
xmlns:dc="http://purl.org/dc/elements/1.1/"
xmlns ="http://www.w3.org/2000/svg"
>
<!-- SVG plot written using Boost.Plot program (Creator Jacob Voytko) --> 
<!-- Use, modification and distribution of Boost.Plot subject to the --> 
<!-- Boost Software License, Version 1.0.--> 
<!-- (See accompanying file LICENSE_1_0.txt --> 
<!-- or copy at http://www.boost.org/LICENSE_1_0.txt) --> 

<!-- File ./1d_x_external.svg --> 
<g id="imageBackground" stroke="rgb(0,0,0)" fill="rgb(255,255,255)" stroke-width="1"><rect x="0" y="0" width="500" height="200"/></g>
<g id="plotBackground" stroke="rgb(250,250,210)" fill="rgb(255,255,255)" stroke-width="1"><rect x="21" y="42.5" width="394" height="130"/></g>
<g id="xMinorGrid" stroke="rgb(211,211,211)" stroke-width="0.5"><path d="M67,43.5 L67,171 M80.1,43.5 L80.1,171 M93.2,43.5 L93.2,171 M106,43.5 L106,171 M133,43.5 L133,171 M146,43.5 L146,171 M159,43.5 L159,171 M172,43.5 L172,171 M198,43.5 L198,171 M211,43.5 L211,171 M225,43.5 L225,171 M238,43.5 L238,171 M264,43.5 L264,171 M277,43.5 L277,171 M290,43.5 L290,171 M303,43.5 L303,171 M330,43.5 L330,171 M343,43.5 L343,171 M356,43.5 L356,171 M369,43.5 L369,171 M395,43.5 L395,171 M408,43.5 L408,171 M40.7,43.5 L40.7,171 M27.6,43.5 L27.6,171 " fill="none"/></g>
<g id="xMajorGrid" stroke="rgb(0,0,0)" stroke-width="1"><path d="M53.8,42.5 L53.8,172 M120,42.5 L120,172 M185,42.5 L185,172 M251,42.5 L251,172 M316,42.5 L316,172 M382,42.5 L382,172 M53.8,42.5 L53.8,172 " fill="none"/></g>
<g id="xAxis" stroke="rgb(0,0,0)" stroke-width="1"><line x1="53.8" y1="42.5" x2="53.8" y2="172"/><line x1="21" y1="116" x2="415" y2="116"/><line x1="21" y1="172" x2="415" y2="172"/></g>
<g id="xMinorTicks" stroke="rgb(0,0,0)" stroke-width="1"><path d="M67,172 L67,174 M80.1,172 L80.1,174 M93.2,172 L93.2,174 M106,172 L106,174 M133,172 L133,174 M146,172 L146,174 M159,172 L159,174 M172,172 L172,174 M198,172 L198,174 M211,172 L211,174 M225,172 L225,174 M238,172 L238,174 M264,172 L264,174 M277,172 L277,174 M290,172 L290,174 M303,172 L303,174 M330,172 L330,174 M343,172 L343,174 M356,172 L356,174 M369,172 L369,174 M395,172 L395,174 M408,172 L408,174 M40.7,172 L40.7,174 M27.6,172 L27.6,174 " fill="none"/></g>
<g id="xMajorTicks" stroke="rgb(0,0,0)" stroke-width="2"><path d="M53.8,172 L53.8,177 M120,172 L120,177 M185,172 L185,177 M251,172 L251,177 M316,172 L316,177 M382,172 L382,177 M53.8,172 L53.8,177 " fill="none"/></g>
<g id="xTicksValues">
<text x="53.8" y="190" text-anchor="middle" font-size="10" font-family="Verdana">0</text>
<text x="120" y="190" text-anchor="middle" font-size="10" font-family="Verdana">2</text>
<text x="185" y="190" text-anchor="middle" font-size="10" font-family="Verdana">4</text>
<text x="251" y="190" text-anchor="middle" font-size="10" font-family="Verdana">6</text>
<text x="316" y="190" text-anchor="middle" font-size="10" font-family="Verdana">8</text>
<text x="382" y="190" text-anchor="middle" font-size="10" font-family="Verdana">10</text>
<text x="53.8" y="190" text-anchor="middle" font-size="10" font-family="Verdana">0</text></g>
<g id="xLabel">
<text x="218" y="200" text-anchor="middle" font-size="10" font-family="Verdana"></text></g>
<g id="plotPoints"><g stroke="rgb(0,0,255)"><line x1="156" y1="109" x2="156" y2="99.2"/><line x1="192" y1="109" x2="192" y2="99.2"/></g>
<g stroke="rgb(255,165,0)"><line x1="123" y1="109" x2="123" y2="99.2"/><line x1="310" y1="109" x2="310" y2="99.2"/></g>
</g>
<g id="legendBackground" stroke="rgb(255,255,0)" fill="rgb(255,255,255)" stroke-width="1"><rect x="421" y="42.5" width="70" height="47"/></g>
<g id="legendPoints"><g stroke="rgb(0,0,255)" stroke-width="2"><line x1="435" y1="65" x2="435" y2="55"/></g>
<g stroke="rgb(255,165,0)" stroke-width="2"><line x1="435" y1="77.5" x2="435" y2="67.5"/></g>
</g>
<g id="legendText">
<text x="443" y="61" font-size="10" font-family="Verdana">Dan</text>
<text x="443" y="73.5" font-size="10" font-family="Verdana">Elaine</text></g>
<g id="title">
<text x="250" y="22.5" text-anchor="middle" font-size="18" font-family="Verdana">Race Times</text></g>
</svg>
