<?xml version="1.0" encoding="UTF-8" standalone="no"?>
<svg width="500" height ="200" version="1.1"
xmlns:svg ="http://www.w3.org/2000/svg"
xmlns:rdf="http://www.w3.org/1999/02/22-rdf-syntax-ns#"
xmlns:cc="http://web.resource.org/cc/"
xmlns:dc="http://purl.org/dc/elements/1.1/"
xmlns ="http://www.w3.org/2000/svg"
>
<!-- SVG plot written using Boost.Plot program (Creator Jacob Voytko) --> 
<!-- Use, modification and distribution of Boost.Plot subject to the --> 
<!-- Boost Software License, Version 1.0.--> 
<!-- (See accompanying file LICENSE_1_0.txt --> 
<!-- or copy at http://www.boost.org/LICENSE_1_0.txt) --> 

<!-- File ./1d_x_external.svg --> 
<g id="imageBackground" stroke="rgb(0,0,0)" fill="rgb(255,255,255)" stroke-width="1"><rect x="0" y="0" width="500" height="200"/></g>
<g id="plotBackground" stroke="rgb(250,250,210)" fill="rgb(255,255,255)" stroke-width="1"><rect x="21" y="42.5" width="399" height="130"/></g>
<g id="xMinorGrid" stroke="rgb(211,211,211)" stroke-width="0.5"><path d="M67.5,43.5 L67.5,172 M80.8,43.5 L80.8,172 M94.2,43.5 L94.2,172 M107,43.5 L107,172 M134,43.5 L134,172 M147,43.5 L147,172 M161,43.5 L161,172 M174,43.5 L174,172 M201,43.5 L201,172 M214,43.5 L214,172 M227,43.5 L227,172 M240,43.5 L240,172 M267,43.5 L267,172 M280,43.5 L280,172 M294,43.5 L294,172 M307,43.5 L307,172 M334,43.5 L334,172 M347,43.5 L347,172 M360,43.5 L360,172 M373,43.5 L373,172 M400,43.5 L400,172 M413,43.5 L413,172 M41,43.5 L41,172 M27.6,43.5 L27.6,172 " fill="none"/></g>
<g id="xMajorGrid" stroke="rgb(0,0,0)" stroke-width="1"><path d="M54.2,42.5 L54.2,173 M121,42.5 L121,173 M187,42.5 L187,173 M254,42.5 L254,173 M320,42.5 L320,173 M387,42.5 L387,173 M54.2,42.5 L54.2,173 " fill="none"/></g>
<g id="xAxis" stroke="rgb(0,0,0)" stroke-width="1"><line x1="54.2" y1="42.5" x2="54.2" y2="173"/><line x1="21" y1="116" x2="420" y2="116"/><line x1="21" y1="173" x2="420" y2="173"/></g>
<g id="xMinorTicks" stroke="rgb(0,0,0)" stroke-width="1"><path d="M67.5,173 L67.5,175 M80.8,173 L80.8,175 M94.2,173 L94.2,175 M107,173 L107,175 M134,173 L134,175 M147,173 L147,175 M161,173 L161,175 M174,173 L174,175 M201,173 L201,175 M214,173 L214,175 M227,173 L227,175 M240,173 L240,175 M267,173 L267,175 M280,173 L280,175 M294,173 L294,175 M307,173 L307,175 M334,173 L334,175 M347,173 L347,175 M360,173 L360,175 M373,173 L373,175 M400,173 L400,175 M413,173 L413,175 M41,173 L41,175 M27.6,173 L27.6,175 " fill="none"/></g>
<g id="xMajorTicks" stroke="rgb(0,0,0)" stroke-width="2"><path d="M54.2,173 L54.2,178 M121,173 L121,178 M187,173 L187,178 M254,173 L254,178 M320,173 L320,178 M387,173 L387,178 M54.2,173 L54.2,178 " fill="none"/></g>
<g id="xTicksValues">
<text x="54.2" y="191" text-anchor="middle" font-size="10" font-family="Verdana">0</text>
<text x="121" y="191" text-anchor="middle" font-size="10" font-family="Verdana">2</text>
<text x="187" y="191" text-anchor="middle" font-size="10" font-family="Verdana">4</text>
<text x="254" y="191" text-anchor="middle" font-size="10" font-family="Verdana">6</text>
<text x="320" y="191" text-anchor="middle" font-size="10" font-family="Verdana">8</text>
<text x="387" y="191" text-anchor="middle" font-size="10" font-family="Verdana">10</text>
<text x="54.2" y="191" text-anchor="middle" font-size="10" font-family="Verdana">0</text></g>
<g id="xLabel">
<text x="220" y="202" text-anchor="middle" font-size="10" font-family="Verdana"></text></g>
<g id="plotPoints"><g stroke="rgb(0,0,255)"><line x1="157" y1="110" x2="157" y2="99.8"/><line x1="194" y1="110" x2="194" y2="99.8"/></g>
<g stroke="rgb(255,165,0)"><line x1="124" y1="110" x2="124" y2="99.8"/><line x1="314" y1="110" x2="314" y2="99.8"/></g>
</g>
<g id="legendBackground" stroke="rgb(255,255,0)" fill="rgb(255,255,255)" stroke-width="1"><rect x="426" y="42.5" width="64.5" height="47"/></g>
<g id="legendPoints"><g stroke="rgb(0,0,255)"><line x1="438" y1="65" x2="438" y2="55"/></g>
<g stroke="rgb(255,165,0)"><line x1="438" y1="77.5" x2="438" y2="67.5"/></g>
</g>
<g id="legendText">
<text x="446" y="61" font-size="10" font-family="Verdana">Dan</text>
<text x="446" y="73.5" font-size="10" font-family="Verdana">Elaine</text></g>
<g id="title">
<text x="250" y="27" text-anchor="middle" font-size="18" font-family="Verdana">Race Times</text></g>
</svg>
