<?xml version="1.0" encoding="UTF-8" standalone="no"?>
<svg width="700" height ="500" version="1.1"
xmlns:svg ="http://www.w3.org/2000/svg"
xmlns:rdf="http://www.w3.org/1999/02/22-rdf-syntax-ns#"
xmlns:cc="http://web.resource.org/cc/"
xmlns:dc="http://purl.org/dc/elements/1.1/"
xmlns ="http://www.w3.org/2000/svg"
>
<!-- SVG plot written using Boost.Plot program (Creator Jacob Voytko) --> 
<!-- Use, modification and distribution of Boost.Plot subject to the --> 
<!-- Boost Software License, Version 1.0.--> 
<!-- (See accompanying file LICENSE_1_0.txt --> 
<!-- or copy at http://www.boost.org/LICENSE_1_0.txt) --> 

<clipPath id="plot_window"><rect x="74.6" y="49" width="598" height="392"/></clipPath>
<g id="imageBackground" stroke="rgb(255,255,0)" fill="rgb(245,245,245)" stroke-width="2"><rect x="0" y="0" width="700" height="500"/></g>
<g id="plotBackground" stroke="rgb(119,136,153)" fill="rgb(248,248,255)" stroke-width="2"><rect x="73.6" y="48" width="600" height="394"/></g>
<g id="yMinorGrid" stroke="rgb(200,220,255)" stroke-width="0.5"></g>
<g id="yMajorGrid" stroke="rgb(0,255,255)" stroke-width="1"><path d="M75.6,245 L672,245 M75.6,179 L672,179 M75.6,114 L672,114 M75.6,48 L672,48 M75.6,245 L672,245 M75.6,311 L672,311 M75.6,376 L672,376 M75.6,442 L672,442 " fill="none"/></g>
<g id="xMinorGrid" stroke="rgb(200,220,255)" stroke-width="0.5"></g>
<g id="xMajorGrid" stroke="rgb(0,255,255)" stroke-width="1"><path d="M128,48 L128,442 M237,48 L237,442 M347,48 L347,442 M456,48 L456,442 M565,48 L565,442 M674,48 L674,442 M128,48 L128,442 " fill="none"/></g>
<g id="yAxis" stroke="rgb(0,0,0)" stroke-width="1"><line x1="128" y1="48" x2="128" y2="456"/><line x1="73.6" y1="48" x2="73.6" y2="442"/></g>
<g id="xAxis" stroke="rgb(0,0,0)" stroke-width="1"><line x1="68.6" y1="245" x2="674" y2="245"/><line x1="68.6" y1="442" x2="674" y2="442"/></g>
<g id="yMinorTicks" stroke="rgb(0,0,0)" stroke-width="1"><path d="M71.6,234 L73.6,234 M71.6,223 L73.6,223 M71.6,212 L73.6,212 M71.6,201 L73.6,201 M71.6,190 L73.6,190 M71.6,168 L73.6,168 M71.6,157 L73.6,157 M71.6,147 L73.6,147 M71.6,136 L73.6,136 M71.6,125 L73.6,125 M71.6,103 L73.6,103 M71.6,91.8 L73.6,91.8 M71.6,80.8 L73.6,80.8 M71.6,69.9 L73.6,69.9 M71.6,58.9 L73.6,58.9 M71.6,245 L73.6,245 M71.6,256 L73.6,256 M71.6,267 L73.6,267 M71.6,278 L73.6,278 M71.6,289 L73.6,289 M71.6,300 L73.6,300 M71.6,311 L73.6,311 M71.6,322 L73.6,322 M71.6,333 L73.6,333 M71.6,344 L73.6,344 M71.6,354 L73.6,354 M71.6,365 L73.6,365 M71.6,376 L73.6,376 M71.6,376 L73.6,376 M71.6,387 L73.6,387 M71.6,398 L73.6,398 M71.6,409 L73.6,409 M71.6,420 L73.6,420 M71.6,431 L73.6,431 M71.6,442 L73.6,442 " fill="none"/></g>
<g id="xMinorTicks" stroke="rgb(0,0,0)" stroke-width="1"><path d="M155,442 L155,449 M183,442 L183,449 M210,442 L210,449 M265,442 L265,449 M292,442 L292,449 M319,442 L319,449 M374,442 L374,449 M401,442 L401,449 M428,442 L428,449 M483,442 L483,449 M510,442 L510,449 M538,442 L538,449 M592,442 L592,449 M619,442 L619,449 M647,442 L647,449 M101,442 L101,449 M73.6,442 L73.6,449 " fill="none"/></g>
<g id="yMajorTicks" stroke="rgb(0,0,0)" stroke-width="2"><path d="M68.6,245 L73.6,245 M68.6,179 L73.6,179 M68.6,114 L73.6,114 M68.6,48 L73.6,48 M68.6,245 L73.6,245 M68.6,311 L73.6,311 M68.6,376 L73.6,376 M68.6,442 L73.6,442 " fill="none"/></g>
<g id="xMajorTicks" stroke="rgb(0,0,0)" stroke-width="1"><path d="M128,442 L128,456 M237,442 L237,456 M347,442 L347,456 M456,442 L456,456 M565,442 L565,456 M674,442 L674,456 M128,442 L128,456 " fill="none"/></g>
<g id="xTicksValues">
<text x="128" y="472" text-anchor="middle" font-size="12" font-family="Lucida Sans Unicode">0</text>
<text x="237" y="472" text-anchor="middle" font-size="12" font-family="Lucida Sans Unicode">2</text>
<text x="347" y="472" text-anchor="middle" font-size="12" font-family="Lucida Sans Unicode">4</text>
<text x="456" y="472" text-anchor="middle" font-size="12" font-family="Lucida Sans Unicode">6</text>
<text x="565" y="472" text-anchor="middle" font-size="12" font-family="Lucida Sans Unicode">8</text>
<text x="674" y="472" text-anchor="middle" font-size="12" font-family="Lucida Sans Unicode">10</text>
<text x="128" y="472" text-anchor="middle" font-size="12" font-family="Lucida Sans Unicode">0</text></g>
<g id="yTicksValues">
<text x="62.6" y="247" text-anchor="end" font-size="12" font-family="Lucida Sans Unicode">0</text>
<text x="62.6" y="182" text-anchor="end" font-size="12" font-family="Lucida Sans Unicode">25</text>
<text x="62.6" y="116" text-anchor="end" font-size="12" font-family="Lucida Sans Unicode">50</text>
<text x="62.6" y="50.4" text-anchor="end" font-size="12" font-family="Lucida Sans Unicode">75</text>
<text x="62.6" y="247" text-anchor="end" font-size="12" font-family="Lucida Sans Unicode">0</text>
<text x="62.6" y="313" text-anchor="end" font-size="12" font-family="Lucida Sans Unicode">-25</text>
<text x="62.6" y="379" text-anchor="end" font-size="12" font-family="Lucida Sans Unicode">-50</text>
<text x="62.6" y="444" text-anchor="end" font-size="12" font-family="Lucida Sans Unicode">-75</text></g>
<g id="yLabel">
<text x="35.9" y="245" text-anchor="middle" transform = "rotate(-90 35.9 245 )" font-size="14" font-family="Lucida Sans Unicode">50 * f(x)</text></g>
<g id="xLabel">
<text x="374" y="485" text-anchor="middle" font-size="12" font-family="Lucida Sans Unicode">x</text></g>
<g id="plotLines" stroke-width="2"><g clip-path="url(#plot_window)" stroke="rgb(0,0,0)" fill="rgb(255,0,0)" stroke-width="2"><path d="M128,245 L128,245 L128,245 L150,195 L171,152 L192,124 L214,114 L235,124 L257,152 L278,195 L300,245 L321,295 L343,338 L364,366 L385,376 L407,366 L428,338 L450,295 L471,245 L493,195 L514,152 L535,124 L557,114 L578,124 L600,152 L621,195 L643,245 L664,295 L664,245 Z" fill="rgb(255,0,0)"/></g>
<g clip-path="url(#plot_window)" stroke="rgb(0,0,0)" fill="rgb(0,0,255)" stroke-width="2"><path d="M128,245 L128,114 L128,114 L150,124 L171,152 L192,195 L214,245 L235,295 L257,338 L278,366 L300,376 L321,366 L343,338 L364,295 L385,245 L407,195 L428,152 L450,124 L471,114 L493,124 L514,152 L535,195 L557,245 L578,295 L600,338 L621,366 L643,376 L664,366 L664,245 Z" fill="rgb(0,0,255)"/></g>
<g clip-path="url(#plot_window)" stroke="rgb(0,0,0)" stroke-width="2"><path d="M128,245 L128,245 L150,191 L171,114 L257,376 L278,299 L300,245 L321,191 L343,114 L428,376 L450,299 L471,245 L493,191 L514,114 L600,376 L621,299 L643,245 L664,191 " fill="none"/></g>
</g>
<g id="plotPoints" clip-path="url(#plot_window)"><g stroke="rgb(0,0,0)" fill="rgb(255,255,255)">
<text x="128" y="248" text-anchor="middle" font-size="10" font-family="Lucida Sans Unicode">&#x25CB;</text>
<text x="150" y="198" text-anchor="middle" font-size="10" font-family="Lucida Sans Unicode">&#x25CB;</text>
<text x="171" y="155" text-anchor="middle" font-size="10" font-family="Lucida Sans Unicode">&#x25CB;</text>
<text x="192" y="127" text-anchor="middle" font-size="10" font-family="Lucida Sans Unicode">&#x25CB;</text>
<text x="214" y="117" text-anchor="middle" font-size="10" font-family="Lucida Sans Unicode">&#x25CB;</text>
<text x="235" y="127" text-anchor="middle" font-size="10" font-family="Lucida Sans Unicode">&#x25CB;</text>
<text x="257" y="155" text-anchor="middle" font-size="10" font-family="Lucida Sans Unicode">&#x25CB;</text>
<text x="278" y="198" text-anchor="middle" font-size="10" font-family="Lucida Sans Unicode">&#x25CB;</text>
<text x="300" y="248" text-anchor="middle" font-size="10" font-family="Lucida Sans Unicode">&#x25CB;</text>
<text x="321" y="298" text-anchor="middle" font-size="10" font-family="Lucida Sans Unicode">&#x25CB;</text>
<text x="343" y="341" text-anchor="middle" font-size="10" font-family="Lucida Sans Unicode">&#x25CB;</text>
<text x="364" y="370" text-anchor="middle" font-size="10" font-family="Lucida Sans Unicode">&#x25CB;</text>
<text x="385" y="380" text-anchor="middle" font-size="10" font-family="Lucida Sans Unicode">&#x25CB;</text>
<text x="407" y="370" text-anchor="middle" font-size="10" font-family="Lucida Sans Unicode">&#x25CB;</text>
<text x="428" y="341" text-anchor="middle" font-size="10" font-family="Lucida Sans Unicode">&#x25CB;</text>
<text x="450" y="298" text-anchor="middle" font-size="10" font-family="Lucida Sans Unicode">&#x25CB;</text>
<text x="471" y="248" text-anchor="middle" font-size="10" font-family="Lucida Sans Unicode">&#x25CB;</text>
<text x="493" y="198" text-anchor="middle" font-size="10" font-family="Lucida Sans Unicode">&#x25CB;</text>
<text x="514" y="155" text-anchor="middle" font-size="10" font-family="Lucida Sans Unicode">&#x25CB;</text>
<text x="535" y="127" text-anchor="middle" font-size="10" font-family="Lucida Sans Unicode">&#x25CB;</text>
<text x="557" y="117" text-anchor="middle" font-size="10" font-family="Lucida Sans Unicode">&#x25CB;</text>
<text x="578" y="127" text-anchor="middle" font-size="10" font-family="Lucida Sans Unicode">&#x25CB;</text>
<text x="600" y="155" text-anchor="middle" font-size="10" font-family="Lucida Sans Unicode">&#x25CB;</text>
<text x="621" y="198" text-anchor="middle" font-size="10" font-family="Lucida Sans Unicode">&#x25CB;</text>
<text x="643" y="248" text-anchor="middle" font-size="10" font-family="Lucida Sans Unicode">&#x25CB;</text>
<text x="664" y="298" text-anchor="middle" font-size="10" font-family="Lucida Sans Unicode">&#x25CB;</text></g>
<g stroke="rgb(0,0,0)" fill="rgb(255,255,255)">
<text x="128" y="117" text-anchor="middle" font-size="10" font-family="Lucida Sans Unicode">&#x25A1;</text>
<text x="150" y="127" text-anchor="middle" font-size="10" font-family="Lucida Sans Unicode">&#x25A1;</text>
<text x="171" y="155" text-anchor="middle" font-size="10" font-family="Lucida Sans Unicode">&#x25A1;</text>
<text x="192" y="198" text-anchor="middle" font-size="10" font-family="Lucida Sans Unicode">&#x25A1;</text>
<text x="214" y="248" text-anchor="middle" font-size="10" font-family="Lucida Sans Unicode">&#x25A1;</text>
<text x="235" y="298" text-anchor="middle" font-size="10" font-family="Lucida Sans Unicode">&#x25A1;</text>
<text x="257" y="341" text-anchor="middle" font-size="10" font-family="Lucida Sans Unicode">&#x25A1;</text>
<text x="278" y="370" text-anchor="middle" font-size="10" font-family="Lucida Sans Unicode">&#x25A1;</text>
<text x="300" y="380" text-anchor="middle" font-size="10" font-family="Lucida Sans Unicode">&#x25A1;</text>
<text x="321" y="370" text-anchor="middle" font-size="10" font-family="Lucida Sans Unicode">&#x25A1;</text>
<text x="343" y="341" text-anchor="middle" font-size="10" font-family="Lucida Sans Unicode">&#x25A1;</text>
<text x="364" y="298" text-anchor="middle" font-size="10" font-family="Lucida Sans Unicode">&#x25A1;</text>
<text x="385" y="248" text-anchor="middle" font-size="10" font-family="Lucida Sans Unicode">&#x25A1;</text>
<text x="407" y="198" text-anchor="middle" font-size="10" font-family="Lucida Sans Unicode">&#x25A1;</text>
<text x="428" y="155" text-anchor="middle" font-size="10" font-family="Lucida Sans Unicode">&#x25A1;</text>
<text x="450" y="127" text-anchor="middle" font-size="10" font-family="Lucida Sans Unicode">&#x25A1;</text>
<text x="471" y="117" text-anchor="middle" font-size="10" font-family="Lucida Sans Unicode">&#x25A1;</text>
<text x="493" y="127" text-anchor="middle" font-size="10" font-family="Lucida Sans Unicode">&#x25A1;</text>
<text x="514" y="155" text-anchor="middle" font-size="10" font-family="Lucida Sans Unicode">&#x25A1;</text>
<text x="535" y="198" text-anchor="middle" font-size="10" font-family="Lucida Sans Unicode">&#x25A1;</text>
<text x="557" y="248" text-anchor="middle" font-size="10" font-family="Lucida Sans Unicode">&#x25A1;</text>
<text x="578" y="298" text-anchor="middle" font-size="10" font-family="Lucida Sans Unicode">&#x25A1;</text>
<text x="600" y="341" text-anchor="middle" font-size="10" font-family="Lucida Sans Unicode">&#x25A1;</text>
<text x="621" y="370" text-anchor="middle" font-size="10" font-family="Lucida Sans Unicode">&#x25A1;</text>
<text x="643" y="380" text-anchor="middle" font-size="10" font-family="Lucida Sans Unicode">&#x25A1;</text>
<text x="664" y="370" text-anchor="middle" font-size="10" font-family="Lucida Sans Unicode">&#x25A1;</text></g>
<g stroke="rgb(0,0,0)" fill="rgb(255,255,255)">
<text x="128" y="248" text-anchor="middle" font-size="10" font-family="Lucida Sans Unicode">&#x25BD;</text>
<text x="150" y="194" text-anchor="middle" font-size="10" font-family="Lucida Sans Unicode">&#x25BD;</text>
<text x="171" y="117" text-anchor="middle" font-size="10" font-family="Lucida Sans Unicode">&#x25BD;</text>
<text x="257" y="380" text-anchor="middle" font-size="10" font-family="Lucida Sans Unicode">&#x25BD;</text>
<text x="278" y="303" text-anchor="middle" font-size="10" font-family="Lucida Sans Unicode">&#x25BD;</text>
<text x="300" y="248" text-anchor="middle" font-size="10" font-family="Lucida Sans Unicode">&#x25BD;</text>
<text x="321" y="194" text-anchor="middle" font-size="10" font-family="Lucida Sans Unicode">&#x25BD;</text>
<text x="343" y="117" text-anchor="middle" font-size="10" font-family="Lucida Sans Unicode">&#x25BD;</text>
<text x="428" y="380" text-anchor="middle" font-size="10" font-family="Lucida Sans Unicode">&#x25BD;</text>
<text x="450" y="303" text-anchor="middle" font-size="10" font-family="Lucida Sans Unicode">&#x25BD;</text>
<text x="471" y="248" text-anchor="middle" font-size="10" font-family="Lucida Sans Unicode">&#x25BD;</text>
<text x="493" y="194" text-anchor="middle" font-size="10" font-family="Lucida Sans Unicode">&#x25BD;</text>
<text x="514" y="117" text-anchor="middle" font-size="10" font-family="Lucida Sans Unicode">&#x25BD;</text>
<text x="600" y="380" text-anchor="middle" font-size="10" font-family="Lucida Sans Unicode">&#x25BD;</text>
<text x="621" y="303" text-anchor="middle" font-size="10" font-family="Lucida Sans Unicode">&#x25BD;</text>
<text x="643" y="248" text-anchor="middle" font-size="10" font-family="Lucida Sans Unicode">&#x25BD;</text>
<text x="664" y="194" text-anchor="middle" font-size="10" font-family="Lucida Sans Unicode">&#x25BD;</text></g>
</g>
<g id="title" fill="rgb(255,0,0)">
<text x="350" y="30" text-anchor="middle" font-size="20" font-family="Lucida Sans Unicode" font-weight="normal">Plot of 50 * sin(x), cos(x) and tan(x)</text></g>
<g id="plotXValues"></g>
<g id="plotYValues"></g>
</svg>
