<?xml version="1.0" encoding="UTF-8" standalone="no"?>
<svg width="700" height ="500" version="1.1"
xmlns:svg ="http://www.w3.org/2000/svg"
xmlns:rdf="http://www.w3.org/1999/02/22-rdf-syntax-ns#"
xmlns:cc="http://web.resource.org/cc/"
xmlns:dc="http://purl.org/dc/elements/1.1/"
xmlns ="http://www.w3.org/2000/svg"
>
<!-- SVG plot written using Boost.Plot program (Creator Jacob Voytko) --> 
<!-- Use, modification and distribution of Boost.Plot subject to the --> 
<!-- Boost Software License, Version 1.0.--> 
<!-- (See accompanying file LICENSE_1_0.txt --> 
<!-- or copy at http://www.boost.org/LICENSE_1_0.txt) --> 

<clipPath id="plot_window"><rect x="16.9" y="76" width="570" height="361"/></clipPath>
<g id="imageBackground" stroke="rgb(255,255,0)" fill="rgb(67,111,69)" stroke-width="2"><rect x="0" y="0" width="700" height="500"/></g>
<g id="plotBackground" stroke="rgb(119,136,153)" fill="rgb(136,188,126)" stroke-width="2"><rect x="15.9" y="75" width="572" height="363"/></g>
<g id="yMinorGrid" stroke="rgb(200,220,255)" stroke-width="0.5"></g>
<g id="yMajorGrid" stroke="rgb(0,0,0)" stroke-width="1"><path d="M17.9,256 L585,256 M17.9,256 L585,256 " fill="none"/></g>
<g id="xMinorGrid" stroke="rgb(200,220,255)" stroke-width="0.5"></g>
<g id="xMajorGrid" stroke="rgb(200,220,255)" stroke-width="1"></g>
<g id="yAxis" stroke="rgb(0,0,0)" stroke-width="1"><line x1="41.9" y1="75" x2="41.9" y2="452"/><line x1="15.9" y1="75" x2="15.9" y2="438"/></g>
<g id="xAxis" stroke="rgb(0,0,0)" stroke-width="1"><line x1="10.9" y1="256" x2="587" y2="256"/><line x1="10.9" y1="438" x2="587" y2="438"/></g>
<g id="yMinorTicks" stroke="rgb(0,0,0)" stroke-width="1"><path d="M13.9,256 L15.9,256 " fill="none"/></g>
<g id="xMinorTicks" stroke="rgb(0,0,0)" stroke-width="1"><path d="M67.9,438 L67.9,445 M93.8,438 L93.8,445 M120,438 L120,445 M172,438 L172,445 M198,438 L198,445 M224,438 L224,445 M276,438 L276,445 M302,438 L302,445 M328,438 L328,445 M380,438 L380,445 M406,438 L406,445 M432,438 L432,445 M484,438 L484,445 M510,438 L510,445 M536,438 L536,445 M587,438 L587,445 M15.9,438 L15.9,445 " fill="none"/></g>
<g id="yMajorTicks" stroke="rgb(0,0,0)" stroke-width="2"><path d="M10.9,256 L15.9,256 M10.9,256 L15.9,256 " fill="none"/></g>
<g id="xMajorTicks" stroke="rgb(0,0,0)" stroke-width="1"><path d="M41.9,438 L41.9,452 M146,438 L146,452 M250,438 L250,452 M354,438 L354,452 M458,438 L458,452 M561,438 L561,452 M41.9,438 L41.9,452 " fill="none"/></g>
<g id="xTicksValues">
<text x="41.9" y="467" text-anchor="middle" font-size="12" font-family="Lucida Sans Unicode">0</text>
<text x="146" y="467" text-anchor="middle" font-size="12" font-family="Lucida Sans Unicode">2</text>
<text x="250" y="467" text-anchor="middle" font-size="12" font-family="Lucida Sans Unicode">4</text>
<text x="354" y="467" text-anchor="middle" font-size="12" font-family="Lucida Sans Unicode">6</text>
<text x="458" y="467" text-anchor="middle" font-size="12" font-family="Lucida Sans Unicode">8</text>
<text x="561" y="467" text-anchor="middle" font-size="12" font-family="Lucida Sans Unicode">10</text>
<text x="41.9" y="467" text-anchor="middle" font-size="12" font-family="Lucida Sans Unicode">0</text></g>
<g id="yTicksValues">
<text x="4.9" y="259" text-anchor="end" font-size="12" font-family="Lucida Sans Unicode">0</text>
<text x="4.9" y="259" text-anchor="end" font-size="12" font-family="Lucida Sans Unicode">0</text></g>
<g id="yLabel">
<text x="-8.6" y="256" text-anchor="middle" transform = "rotate(-90 -8.6 256 )" font-size="14" font-family="Lucida Sans Unicode"></text></g>
<g id="xLabel">
<text x="302" y="483" text-anchor="middle" font-size="14" font-family="Lucida Sans Unicode">X Axis Units</text></g>
<g id="plotLines" stroke-width="2"><g clip-path="url(#plot_window)" stroke="rgb(0,0,0)" stroke-width="2"><path d="M41.9,256 L41.9,256 L62.3,193 L82.7,140 L103,104 L123,91.5 L144,104 L164,140 L185,193 L205,256 L226,319 L246,373 L266,408 L287,421 L307,408 L328,373 L348,319 L368,256 L389,193 L409,140 L430,104 L450,91.5 L470,104 L491,140 L511,193 L532,256 L552,319 " fill="none"/></g>
<g clip-path="url(#plot_window)" stroke="rgb(0,0,255)"><path d="M41.9,91.5 S58.2,99.2 62.3,104 S78.6,131 82.7,140 S99,182 103,193 S119,244 123,256 S140,308 144,319 S160,364 164,373 S181,404 185,408 S201,421 205,421 S221,413 226,408 S242,382 246,373 S262,331 266,319 S283,269 287,256 S303,205 307,193 S323,149 328,140 S344,109 348,104 S364,91.5 368,91.5 S385,99.2 389,104 S405,131 409,140 S425,182 430,193 S446,244 450,256 S466,308 470,319 S487,364 491,373 S507,404 511,408 S528,421 532,421 S552,407 552,408 " fill="none"/></g>
</g>
<g id="plotPoints" clip-path="url(#plot_window)"><g stroke="rgb(0,0,0)" fill="rgb(255,255,0)"><circle cx="41.9" cy="256" r="2"/><circle cx="62.3" cy="193" r="2"/><circle cx="82.7" cy="140" r="2"/><circle cx="103" cy="104" r="2"/><circle cx="123" cy="91.5" r="2"/><circle cx="144" cy="104" r="2"/><circle cx="164" cy="140" r="2"/><circle cx="185" cy="193" r="2"/><circle cx="205" cy="256" r="2"/><circle cx="226" cy="319" r="2"/><circle cx="246" cy="373" r="2"/><circle cx="266" cy="408" r="2"/><circle cx="287" cy="421" r="2"/><circle cx="307" cy="408" r="2"/><circle cx="328" cy="373" r="2"/><circle cx="348" cy="319" r="2"/><circle cx="368" cy="256" r="2"/><circle cx="389" cy="193" r="2"/><circle cx="409" cy="140" r="2"/><circle cx="430" cy="104" r="2"/><circle cx="450" cy="91.5" r="2"/><circle cx="470" cy="104" r="2"/><circle cx="491" cy="140" r="2"/><circle cx="511" cy="193" r="2"/><circle cx="532" cy="256" r="2"/><circle cx="552" cy="319" r="2"/></g>
<g stroke="rgb(0,0,0)" fill="rgb(255,0,0)"><rect x="39.4" y="89" width="5" height="5"/><rect x="59.8" y="102" width="5" height="5"/><rect x="80.2" y="137" width="5" height="5"/><rect x="101" y="191" width="5" height="5"/><rect x="121" y="254" width="5" height="5"/><rect x="141" y="317" width="5" height="5"/><rect x="162" y="370" width="5" height="5"/><rect x="182" y="406" width="5" height="5"/><rect x="203" y="419" width="5" height="5"/><rect x="223" y="406" width="5" height="5"/><rect x="243" y="370" width="5" height="5"/><rect x="264" y="317" width="5" height="5"/><rect x="284" y="254" width="5" height="5"/><rect x="305" y="191" width="5" height="5"/><rect x="325" y="137" width="5" height="5"/><rect x="345" y="102" width="5" height="5"/><rect x="366" y="89" width="5" height="5"/><rect x="386" y="102" width="5" height="5"/><rect x="407" y="137" width="5" height="5"/><rect x="427" y="191" width="5" height="5"/><rect x="447" y="254" width="5" height="5"/><rect x="468" y="317" width="5" height="5"/><rect x="488" y="370" width="5" height="5"/><rect x="509" y="406" width="5" height="5"/><rect x="529" y="419" width="5" height="5"/><rect x="549" y="406" width="5" height="5"/></g>
</g>
<g id="legendBackground" stroke="rgb(102,102,84)" fill="rgb(207,202,167)" stroke-width="1"><rect x="601" y="75" width="96" height="75"/><rect x="601" y="75" width="96" height="75"/></g>
<g id="legendPoints"><g stroke="rgb(0,0,0)" fill="rgb(255,255,0)" stroke-width="2"><circle cx="616" cy="105" r="2"/></g>
<g stroke="rgb(0,0,0)" fill="rgb(255,0,0)" stroke-width="2"><rect x="614" y="133" width="5" height="5"/></g>
</g>
<g id="legendText">
<text x="639" y="105" font-size="15" font-family="Lucida Sans Unicode">Sin(x)</text>
<text x="639" y="135" font-size="15" font-family="Lucida Sans Unicode">Cos(x)</text></g>
<g id="title" fill="rgb(255,255,255)">
<text x="350" y="58" text-anchor="middle" font-size="29" font-family="Lucida Sans Unicode">Plot of sin and cos functions</text></g>
<g id="plotXValues"></g>
<g id="plotYValues"></g>
</svg>
