<?xml version="1.0" encoding="UTF-8" standalone="no"?>
<svg width="700" height ="500" version="1.1"
xmlns:svg ="http://www.w3.org/2000/svg"
xmlns:rdf="http://www.w3.org/1999/02/22-rdf-syntax-ns#"
xmlns:cc="http://web.resource.org/cc/"
xmlns:dc="http://purl.org/dc/elements/1.1/"
xmlns ="http://www.w3.org/2000/svg"
>
<!-- SVG plot written using Boost.Plot program (Creator Jacob Voytko) --> 
<!-- Use, modification and distribution of Boost.Plot subject to the --> 
<!-- Boost Software License, Version 1.0.--> 
<!-- (See accompanying file LICENSE_1_0.txt --> 
<!-- or copy at http://www.boost.org/LICENSE_1_0.txt) --> 

<clipPath id="plot_window"><rect x="39.2" y="59.8" width="557" height="384"/></clipPath>
<g id="imageBackground" stroke="rgb(255,255,0)" fill="rgb(67,111,69)" stroke-width="2"><rect x="0" y="0" width="700" height="500"/></g>
<g id="plotBackground" stroke="rgb(119,136,153)" fill="rgb(136,188,126)" stroke-width="2"><rect x="38.2" y="58.8" width="559" height="386"/></g>
<g id="yMinorGrid" stroke="rgb(200,220,255)" stroke-width="0.5"></g>
<g id="yMajorGrid" stroke="rgb(0,0,0)" stroke-width="1"><path d="M40.2,252 L595,252 M40.2,252 L595,252 " fill="none"/></g>
<g id="xMinorGrid" stroke="rgb(200,220,255)" stroke-width="0.5"></g>
<g id="xMajorGrid" stroke="rgb(200,220,255)" stroke-width="1"></g>
<g id="yAxis" stroke="rgb(0,0,0)" stroke-width="1"><line x1="63.6" y1="58.8" x2="63.6" y2="459"/><line x1="38.2" y1="58.8" x2="38.2" y2="445"/></g>
<g id="xAxis" stroke="rgb(0,0,0)" stroke-width="1"><line x1="33.2" y1="252" x2="597" y2="252"/><line x1="33.2" y1="445" x2="597" y2="445"/></g>
<g id="yMinorTicks" stroke="rgb(0,0,0)" stroke-width="1"><path d="M36.2,252 L38.2,252 " fill="none"/></g>
<g id="xMinorTicks" stroke="rgb(0,0,0)" stroke-width="1"><path d="M89,445 L89,452 M114,445 L114,452 M140,445 L140,452 M191,445 L191,452 M216,445 L216,452 M241,445 L241,452 M292,445 L292,452 M318,445 L318,452 M343,445 L343,452 M394,445 L394,452 M419,445 L419,452 M444,445 L444,452 M495,445 L495,452 M521,445 L521,452 M546,445 L546,452 M597,445 L597,452 M38.2,445 L38.2,452 " fill="none"/></g>
<g id="yMajorTicks" stroke="rgb(0,0,0)" stroke-width="2"><path d="M33.2,252 L38.2,252 M33.2,252 L38.2,252 " fill="none"/></g>
<g id="xMajorTicks" stroke="rgb(0,0,0)" stroke-width="1"><path d="M63.6,445 L63.6,459 M165,445 L165,459 M267,445 L267,459 M368,445 L368,459 M470,445 L470,459 M571,445 L571,459 M63.6,445 L63.6,459 " fill="none"/></g>
<g id="xTicksValues">
<text x="63.6" y="475" text-anchor="middle" font-size="12" font-family="Lucida Sans Unicode">0</text>
<text x="165" y="475" text-anchor="middle" font-size="12" font-family="Lucida Sans Unicode">2</text>
<text x="267" y="475" text-anchor="middle" font-size="12" font-family="Lucida Sans Unicode">4</text>
<text x="368" y="475" text-anchor="middle" font-size="12" font-family="Lucida Sans Unicode">6</text>
<text x="470" y="475" text-anchor="middle" font-size="12" font-family="Lucida Sans Unicode">8</text>
<text x="571" y="475" text-anchor="middle" font-size="12" font-family="Lucida Sans Unicode">10</text>
<text x="63.6" y="475" text-anchor="middle" font-size="12" font-family="Lucida Sans Unicode">0</text></g>
<g id="yTicksValues">
<text x="27.2" y="254" text-anchor="end" font-size="12" font-family="Lucida Sans Unicode">0</text>
<text x="27.2" y="254" text-anchor="end" font-size="12" font-family="Lucida Sans Unicode">0</text></g>
<g id="yLabel">
<text x="14.9" y="252" text-anchor="middle" transform = "rotate(-90 14.9 252 )" font-size="14" font-family="Lucida Sans Unicode"></text></g>
<g id="xLabel">
<text x="318" y="488" text-anchor="middle" font-size="12" font-family="Lucida Sans Unicode">X Axis Units</text></g>
<g id="plotLines" stroke-width="2"><g clip-path="url(#plot_window)" stroke="rgb(0,0,0)" stroke-width="2"><path d="M63.6,252 L63.6,252 L83.5,185 L103,128 L123,89.7 L143,76.3 L163,89.7 L183,128 L203,185 L223,252 L243,319 L263,376 L283,414 L303,427 L323,414 L343,376 L363,319 L383,252 L403,185 L423,128 L443,89.7 L462,76.3 L482,89.7 L502,128 L522,185 L542,252 L562,319 " fill="none"/></g>
<g clip-path="url(#plot_window)" stroke="rgb(0,0,255)" stroke-width="2"><path d="M63.6,76.3 S79.5,84.5 83.5,89.7 S99.5,118 103,128 S119,172 123,185 S139,238 143,252 S159,307 163,319 S179,367 183,376 S199,409 203,414 S219,427 223,427 S239,419 243,414 S259,386 263,376 S279,331 283,319 S299,265 303,252 S319,197 323,185 S339,137 343,128 S359,94.8 363,89.7 S379,76.3 383,76.3 S399,84.5 403,89.7 S419,118 423,128 S439,172 443,185 S458,238 462,252 S478,307 482,319 S498,367 502,376 S518,409 522,414 S538,427 542,427 S562,413 562,414 " fill="none"/></g>
</g>
<g id="plotPoints" clip-path="url(#plot_window)"><g stroke="rgb(0,0,0)" fill="rgb(255,255,0)">
<text x="63.6" y="253" text-anchor="middle" font-size="5" font-family="Lucida Sans Unicode">&#x25CB;</text>
<text x="83.5" y="186" text-anchor="middle" font-size="5" font-family="Lucida Sans Unicode">&#x25CB;</text>
<text x="103" y="129" text-anchor="middle" font-size="5" font-family="Lucida Sans Unicode">&#x25CB;</text>
<text x="123" y="91.3" text-anchor="middle" font-size="5" font-family="Lucida Sans Unicode">&#x25CB;</text>
<text x="143" y="77.9" text-anchor="middle" font-size="5" font-family="Lucida Sans Unicode">&#x25CB;</text>
<text x="163" y="91.3" text-anchor="middle" font-size="5" font-family="Lucida Sans Unicode">&#x25CB;</text>
<text x="183" y="129" text-anchor="middle" font-size="5" font-family="Lucida Sans Unicode">&#x25CB;</text>
<text x="203" y="186" text-anchor="middle" font-size="5" font-family="Lucida Sans Unicode">&#x25CB;</text>
<text x="223" y="253" text-anchor="middle" font-size="5" font-family="Lucida Sans Unicode">&#x25CB;</text>
<text x="243" y="321" text-anchor="middle" font-size="5" font-family="Lucida Sans Unicode">&#x25CB;</text>
<text x="263" y="378" text-anchor="middle" font-size="5" font-family="Lucida Sans Unicode">&#x25CB;</text>
<text x="283" y="416" text-anchor="middle" font-size="5" font-family="Lucida Sans Unicode">&#x25CB;</text>
<text x="303" y="429" text-anchor="middle" font-size="5" font-family="Lucida Sans Unicode">&#x25CB;</text>
<text x="323" y="416" text-anchor="middle" font-size="5" font-family="Lucida Sans Unicode">&#x25CB;</text>
<text x="343" y="378" text-anchor="middle" font-size="5" font-family="Lucida Sans Unicode">&#x25CB;</text>
<text x="363" y="321" text-anchor="middle" font-size="5" font-family="Lucida Sans Unicode">&#x25CB;</text>
<text x="383" y="253" text-anchor="middle" font-size="5" font-family="Lucida Sans Unicode">&#x25CB;</text>
<text x="403" y="186" text-anchor="middle" font-size="5" font-family="Lucida Sans Unicode">&#x25CB;</text>
<text x="423" y="129" text-anchor="middle" font-size="5" font-family="Lucida Sans Unicode">&#x25CB;</text>
<text x="443" y="91.3" text-anchor="middle" font-size="5" font-family="Lucida Sans Unicode">&#x25CB;</text>
<text x="462" y="77.9" text-anchor="middle" font-size="5" font-family="Lucida Sans Unicode">&#x25CB;</text>
<text x="482" y="91.3" text-anchor="middle" font-size="5" font-family="Lucida Sans Unicode">&#x25CB;</text>
<text x="502" y="129" text-anchor="middle" font-size="5" font-family="Lucida Sans Unicode">&#x25CB;</text>
<text x="522" y="186" text-anchor="middle" font-size="5" font-family="Lucida Sans Unicode">&#x25CB;</text>
<text x="542" y="253" text-anchor="middle" font-size="5" font-family="Lucida Sans Unicode">&#x25CB;</text>
<text x="562" y="321" text-anchor="middle" font-size="5" font-family="Lucida Sans Unicode">&#x25CB;</text></g>
<g stroke="rgb(0,0,0)" fill="rgb(255,0,0)">
<text x="63.6" y="77.9" text-anchor="middle" font-size="5" font-family="Lucida Sans Unicode">&#x25A1;</text>
<text x="83.5" y="91.3" text-anchor="middle" font-size="5" font-family="Lucida Sans Unicode">&#x25A1;</text>
<text x="103" y="129" text-anchor="middle" font-size="5" font-family="Lucida Sans Unicode">&#x25A1;</text>
<text x="123" y="186" text-anchor="middle" font-size="5" font-family="Lucida Sans Unicode">&#x25A1;</text>
<text x="143" y="253" text-anchor="middle" font-size="5" font-family="Lucida Sans Unicode">&#x25A1;</text>
<text x="163" y="321" text-anchor="middle" font-size="5" font-family="Lucida Sans Unicode">&#x25A1;</text>
<text x="183" y="378" text-anchor="middle" font-size="5" font-family="Lucida Sans Unicode">&#x25A1;</text>
<text x="203" y="416" text-anchor="middle" font-size="5" font-family="Lucida Sans Unicode">&#x25A1;</text>
<text x="223" y="429" text-anchor="middle" font-size="5" font-family="Lucida Sans Unicode">&#x25A1;</text>
<text x="243" y="416" text-anchor="middle" font-size="5" font-family="Lucida Sans Unicode">&#x25A1;</text>
<text x="263" y="378" text-anchor="middle" font-size="5" font-family="Lucida Sans Unicode">&#x25A1;</text>
<text x="283" y="321" text-anchor="middle" font-size="5" font-family="Lucida Sans Unicode">&#x25A1;</text>
<text x="303" y="253" text-anchor="middle" font-size="5" font-family="Lucida Sans Unicode">&#x25A1;</text>
<text x="323" y="186" text-anchor="middle" font-size="5" font-family="Lucida Sans Unicode">&#x25A1;</text>
<text x="343" y="129" text-anchor="middle" font-size="5" font-family="Lucida Sans Unicode">&#x25A1;</text>
<text x="363" y="91.3" text-anchor="middle" font-size="5" font-family="Lucida Sans Unicode">&#x25A1;</text>
<text x="383" y="77.9" text-anchor="middle" font-size="5" font-family="Lucida Sans Unicode">&#x25A1;</text>
<text x="403" y="91.3" text-anchor="middle" font-size="5" font-family="Lucida Sans Unicode">&#x25A1;</text>
<text x="423" y="129" text-anchor="middle" font-size="5" font-family="Lucida Sans Unicode">&#x25A1;</text>
<text x="443" y="186" text-anchor="middle" font-size="5" font-family="Lucida Sans Unicode">&#x25A1;</text>
<text x="462" y="253" text-anchor="middle" font-size="5" font-family="Lucida Sans Unicode">&#x25A1;</text>
<text x="482" y="321" text-anchor="middle" font-size="5" font-family="Lucida Sans Unicode">&#x25A1;</text>
<text x="502" y="378" text-anchor="middle" font-size="5" font-family="Lucida Sans Unicode">&#x25A1;</text>
<text x="522" y="416" text-anchor="middle" font-size="5" font-family="Lucida Sans Unicode">&#x25A1;</text>
<text x="542" y="429" text-anchor="middle" font-size="5" font-family="Lucida Sans Unicode">&#x25A1;</text>
<text x="562" y="416" text-anchor="middle" font-size="5" font-family="Lucida Sans Unicode">&#x25A1;</text></g>
</g>
<g id="legendBackground" stroke="rgb(102,102,84)" fill="rgb(207,202,167)" stroke-width="1"><rect x="603" y="58.8" width="83.1" height="52"/></g>
<g id="legendPoints"><g stroke="rgb(0,0,0)" fill="rgb(255,255,0)" stroke-width="2">
<text x="618" y="79.1" text-anchor="middle" font-size="5" font-family="Lucida Sans Unicode">&#x25CB;</text><line x1="627" y1="78.5" x2="633" y2="78.5"/></g>
<g stroke="rgb(0,0,0)" fill="rgb(255,0,0)" stroke-width="2">
<text x="618" y="91.6" text-anchor="middle" font-size="5" font-family="Lucida Sans Unicode">&#x25A1;</text></g>
</g>
<g id="legendText">
<text x="642" y="78.5" font-size="10" font-family="Lucida Sans Unicode" font-weight="normal">Sin(x)</text>
<text x="642" y="91" font-size="10" font-family="Lucida Sans Unicode" font-weight="normal">Cos(x)</text></g>
<g id="title" fill="rgb(255,255,255)">
<text x="350" y="36.2" text-anchor="middle" font-size="29" font-family="Lucida Sans Unicode" font-weight="normal">Plot of sin and cos functions</text></g>
<g id="plotXValues"></g>
<g id="plotYValues"></g>
</svg>
