<?xml version="1.0" encoding="UTF-8" standalone="no"?>
<svg width="700" height ="500" version="1.1"
xmlns:svg ="http://www.w3.org/2000/svg"
xmlns:rdf="http://www.w3.org/1999/02/22-rdf-syntax-ns#"
xmlns:cc="http://web.resource.org/cc/"
xmlns:dc="http://purl.org/dc/elements/1.1/"
xmlns ="http://www.w3.org/2000/svg"
>
<!-- SVG plot written using Boost.Plot program (Creator Jacob Voytko) --> 
<!-- Use, modification and distribution of Boost.Plot subject to the --> 
<!-- Boost Software License, Version 1.0.--> 
<!-- (See accompanying file LICENSE_1_0.txt --> 
<!-- or copy at http://www.boost.org/LICENSE_1_0.txt) --> 

<clipPath id="plot_window">	<rect x="39.2" y="59.8" width="552" height="384"/>
</clipPath>

<g id="imageBackground" stroke="rgb(255,255,0)" fill="rgb(67,111,69)" stroke-width="2">
	<rect x="0" y="0" width="700" height="500"/>
</g>

<g id="plotBackground" stroke="rgb(119,136,153)" fill="rgb(136,188,126)" stroke-width="2">
	<rect x="38.2" y="58.8" width="554" height="386"/>
</g>

<g id="yMinorGrid" stroke="rgb(200,220,255)" stroke-width="0.5">
</g>

<g id="yMajorGrid" stroke="rgb(128,128,128)" stroke-width="1">
	<path d="M40.2,252 L590,252 
M40.2,252 L590,252 
" fill="none"/>
</g>

<g id="xMinorGrid" stroke="rgb(200,220,255)" stroke-width="0.5">
</g>

<g id="xMajorGrid" stroke="rgb(200,220,255)" stroke-width="1">
</g>

<g id="yAxis" stroke="rgb(0,0,0)" stroke-width="1">
	<line x1="63.4" y1="58.8" x2="63.4" y2="459"/>
	<line x1="38.2" y1="58.8" x2="38.2" y2="445"/>
</g>

<g id="xAxis" stroke="rgb(0,0,0)" stroke-width="1">
	<line x1="33.2" y1="252" x2="592" y2="252"/>
	<line x1="33.2" y1="445" x2="592" y2="445"/>
</g>

<g id="yMinorTicks" stroke="rgb(0,0,0)" stroke-width="1">
	<path d="M36.2,252 L38.2,252 
" fill="none"/>
</g>

<g id="xMinorTicks" stroke="rgb(0,0,0)" stroke-width="1">
	<path d="M88.6,445 L88.6,452 
M114,445 L114,452 
M139,445 L139,452 
M189,445 L189,452 
M215,445 L215,452 
M240,445 L240,452 
M290,445 L290,452 
M315,445 L315,452 
M340,445 L340,452 
M391,445 L391,452 
M416,445 L416,452 
M441,445 L441,452 
M492,445 L492,452 
M517,445 L517,452 
M542,445 L542,452 
M592,445 L592,452 
M38.2,445 L38.2,452 
" fill="none"/>
</g>

<g id="yMajorTicks" stroke="rgb(0,0,0)" stroke-width="2">
	<path d="M33.2,252 L38.2,252 
M33.2,252 L38.2,252 
" fill="none"/>
</g>

<g id="xMajorTicks" stroke="rgb(0,0,0)" stroke-width="1">
	<path d="M63.4,445 L63.4,459 
M164,445 L164,459 
M265,445 L265,459 
M366,445 L366,459 
M466,445 L466,459 
M567,445 L567,459 
M63.4,445 L63.4,459 
" fill="none"/>
</g>

<g id="xTicksValues" font-size="12" font-family="Lucida Sans Unicode" text-anchor="middle">
	<text x="63.4" y="475">0
	</text>
	<text x="164" y="475">2
	</text>
	<text x="265" y="475">4
	</text>
	<text x="366" y="475">6
	</text>
	<text x="466" y="475">8
	</text>
	<text x="567" y="475">10
	</text>
	<text x="63.4" y="475">0
	</text>
</g>

<g id="yTicksValues" font-size="12" font-family="Lucida Sans Unicode" text-anchor="end">
	<text x="27.2" y="254">0
	</text>
	<text x="27.2" y="254">0
	</text>
</g>

<g id="yLabel">
	<text x="14.9" y="252" text-anchor="middle" transform="rotate(-90 14.9 252)" font-size="14" font-family="Lucida Sans Unicode">
	</text>
</g>

<g id="xLabel">
	<text x="315" y="488" text-anchor="middle" font-size="12" font-family="Lucida Sans Unicode">X Axis Units
	</text>
</g>

<g id="plotLines" stroke-width="2">

<g clip-path="url(#plot_window)" stroke="rgb(0,0,0)" stroke-width="2">
	<path d="M63.4,252 L63.4,252 
L83.2,185 
L103,128 
L123,89.7 
L143,76.3 
L162,89.7 
L182,128 
L202,185 
L222,252 
L241,319 
L261,376 
L281,414 
L301,427 
L321,414 
L340,376 
L360,319 
L380,252 
L400,185 
L419,128 
L439,89.7 
L459,76.3 
L479,89.7 
L499,128 
L518,185 
L538,252 
L558,319 
" fill="none"/>
</g>

<g clip-path="url(#plot_window)" stroke="rgb(0,0,255)" stroke-width="2">
	<path d="M63.4,76.3 S79.2,84.5 83.2,89.7 S99,118 103,128 S119,172 123,185 S139,238 143,252 S158,307 162,319 S178,367 182,376 S198,409 202,414 S218,427 222,427 S237,419 241,414 S257,386 261,376 S277,331 281,319 S297,265 301,252 S317,197 321,185 S336,137 340,128 S356,94.8 360,89.7 S376,76.3 380,76.3 S396,84.5 400,89.7 S415,118 419,128 S435,172 439,185 S455,238 459,252 S475,307 479,319 S495,367 499,376 S514,409 518,414 S534,427 538,427 S558,413 558,414 " fill="none"/>
</g>
</g>

<g id="plotPoints" clip-path="url(#plot_window)">

<g stroke="rgb(0,0,0)" fill="rgb(255,255,0)">
	<text x="63.4" y="253" text-anchor="middle" font-size="5" font-family="Lucida Sans Unicode">&#x25CF;
	</text>
	<text x="83.2" y="186" text-anchor="middle" font-size="5" font-family="Lucida Sans Unicode">&#x25CF;
	</text>
	<text x="103" y="129" text-anchor="middle" font-size="5" font-family="Lucida Sans Unicode">&#x25CF;
	</text>
	<text x="123" y="91.2" text-anchor="middle" font-size="5" font-family="Lucida Sans Unicode">&#x25CF;
	</text>
	<text x="143" y="77.8" text-anchor="middle" font-size="5" font-family="Lucida Sans Unicode">&#x25CF;
	</text>
	<text x="162" y="91.2" text-anchor="middle" font-size="5" font-family="Lucida Sans Unicode">&#x25CF;
	</text>
	<text x="182" y="129" text-anchor="middle" font-size="5" font-family="Lucida Sans Unicode">&#x25CF;
	</text>
	<text x="202" y="186" text-anchor="middle" font-size="5" font-family="Lucida Sans Unicode">&#x25CF;
	</text>
	<text x="222" y="253" text-anchor="middle" font-size="5" font-family="Lucida Sans Unicode">&#x25CF;
	</text>
	<text x="241" y="321" text-anchor="middle" font-size="5" font-family="Lucida Sans Unicode">&#x25CF;
	</text>
	<text x="261" y="378" text-anchor="middle" font-size="5" font-family="Lucida Sans Unicode">&#x25CF;
	</text>
	<text x="281" y="416" text-anchor="middle" font-size="5" font-family="Lucida Sans Unicode">&#x25CF;
	</text>
	<text x="301" y="429" text-anchor="middle" font-size="5" font-family="Lucida Sans Unicode">&#x25CF;
	</text>
	<text x="321" y="416" text-anchor="middle" font-size="5" font-family="Lucida Sans Unicode">&#x25CF;
	</text>
	<text x="340" y="378" text-anchor="middle" font-size="5" font-family="Lucida Sans Unicode">&#x25CF;
	</text>
	<text x="360" y="321" text-anchor="middle" font-size="5" font-family="Lucida Sans Unicode">&#x25CF;
	</text>
	<text x="380" y="253" text-anchor="middle" font-size="5" font-family="Lucida Sans Unicode">&#x25CF;
	</text>
	<text x="400" y="186" text-anchor="middle" font-size="5" font-family="Lucida Sans Unicode">&#x25CF;
	</text>
	<text x="419" y="129" text-anchor="middle" font-size="5" font-family="Lucida Sans Unicode">&#x25CF;
	</text>
	<text x="439" y="91.2" text-anchor="middle" font-size="5" font-family="Lucida Sans Unicode">&#x25CF;
	</text>
	<text x="459" y="77.8" text-anchor="middle" font-size="5" font-family="Lucida Sans Unicode">&#x25CF;
	</text>
	<text x="479" y="91.2" text-anchor="middle" font-size="5" font-family="Lucida Sans Unicode">&#x25CF;
	</text>
	<text x="499" y="129" text-anchor="middle" font-size="5" font-family="Lucida Sans Unicode">&#x25CF;
	</text>
	<text x="518" y="186" text-anchor="middle" font-size="5" font-family="Lucida Sans Unicode">&#x25CF;
	</text>
	<text x="538" y="253" text-anchor="middle" font-size="5" font-family="Lucida Sans Unicode">&#x25CF;
	</text>
	<text x="558" y="321" text-anchor="middle" font-size="5" font-family="Lucida Sans Unicode">&#x25CF;
	</text>
</g>

<g stroke="rgb(0,0,0)" fill="rgb(255,0,0)">
	<text x="63.4" y="77.8" text-anchor="middle" font-size="5" font-family="Lucida Sans Unicode">&#x25A0;
	</text>
	<text x="83.2" y="91.2" text-anchor="middle" font-size="5" font-family="Lucida Sans Unicode">&#x25A0;
	</text>
	<text x="103" y="129" text-anchor="middle" font-size="5" font-family="Lucida Sans Unicode">&#x25A0;
	</text>
	<text x="123" y="186" text-anchor="middle" font-size="5" font-family="Lucida Sans Unicode">&#x25A0;
	</text>
	<text x="143" y="253" text-anchor="middle" font-size="5" font-family="Lucida Sans Unicode">&#x25A0;
	</text>
	<text x="162" y="321" text-anchor="middle" font-size="5" font-family="Lucida Sans Unicode">&#x25A0;
	</text>
	<text x="182" y="378" text-anchor="middle" font-size="5" font-family="Lucida Sans Unicode">&#x25A0;
	</text>
	<text x="202" y="416" text-anchor="middle" font-size="5" font-family="Lucida Sans Unicode">&#x25A0;
	</text>
	<text x="222" y="429" text-anchor="middle" font-size="5" font-family="Lucida Sans Unicode">&#x25A0;
	</text>
	<text x="241" y="416" text-anchor="middle" font-size="5" font-family="Lucida Sans Unicode">&#x25A0;
	</text>
	<text x="261" y="378" text-anchor="middle" font-size="5" font-family="Lucida Sans Unicode">&#x25A0;
	</text>
	<text x="281" y="321" text-anchor="middle" font-size="5" font-family="Lucida Sans Unicode">&#x25A0;
	</text>
	<text x="301" y="253" text-anchor="middle" font-size="5" font-family="Lucida Sans Unicode">&#x25A0;
	</text>
	<text x="321" y="186" text-anchor="middle" font-size="5" font-family="Lucida Sans Unicode">&#x25A0;
	</text>
	<text x="340" y="129" text-anchor="middle" font-size="5" font-family="Lucida Sans Unicode">&#x25A0;
	</text>
	<text x="360" y="91.2" text-anchor="middle" font-size="5" font-family="Lucida Sans Unicode">&#x25A0;
	</text>
	<text x="380" y="77.8" text-anchor="middle" font-size="5" font-family="Lucida Sans Unicode">&#x25A0;
	</text>
	<text x="400" y="91.2" text-anchor="middle" font-size="5" font-family="Lucida Sans Unicode">&#x25A0;
	</text>
	<text x="419" y="129" text-anchor="middle" font-size="5" font-family="Lucida Sans Unicode">&#x25A0;
	</text>
	<text x="439" y="186" text-anchor="middle" font-size="5" font-family="Lucida Sans Unicode">&#x25A0;
	</text>
	<text x="459" y="253" text-anchor="middle" font-size="5" font-family="Lucida Sans Unicode">&#x25A0;
	</text>
	<text x="479" y="321" text-anchor="middle" font-size="5" font-family="Lucida Sans Unicode">&#x25A0;
	</text>
	<text x="499" y="378" text-anchor="middle" font-size="5" font-family="Lucida Sans Unicode">&#x25A0;
	</text>
	<text x="518" y="416" text-anchor="middle" font-size="5" font-family="Lucida Sans Unicode">&#x25A0;
	</text>
	<text x="538" y="429" text-anchor="middle" font-size="5" font-family="Lucida Sans Unicode">&#x25A0;
	</text>
	<text x="558" y="416" text-anchor="middle" font-size="5" font-family="Lucida Sans Unicode">&#x25A0;
	</text>
</g>
</g>

<g id="legendBackground" stroke="rgb(102,102,84)" fill="rgb(207,202,167)" stroke-width="1">
	<rect x="598" y="58.8" width="87.7" height="52"/>
</g>

<g id="legendPoints">

<g stroke="rgb(0,0,0)" fill="rgb(255,255,0)">
	<text x="614" y="79" text-anchor="middle" font-size="5" font-family="Lucida Sans Unicode">&#x25CF;
	</text>
</g>

<g stroke="rgb(0,0,0)" fill="rgb(255,0,0)">
	<text x="614" y="91.5" text-anchor="middle" font-size="5" font-family="Lucida Sans Unicode">&#x25A0;
	</text>
</g>
</g>

<g id="legendLines">

<g stroke="rgb(0,0,0)" stroke-width="2">
	<line x1="620" y1="78.5" x2="626" y2="78.5"/>
</g>

<g stroke="rgb(0,0,255)" stroke-width="2">
	<line x1="620" y1="91" x2="626" y2="91"/>
</g>
</g>

<g id="legendText">
	<text x="635" y="78.5" font-size="10" font-family="Lucida Sans Unicode" font-weight="normal" textLength="37.2">Sin(x)
	</text>
	<text x="635" y="91" font-size="10" font-family="Lucida Sans Unicode" font-weight="normal" textLength="37.2">Cos(x)
	</text>
</g>

<g id="title" fill="rgb(255,255,255)">
	<text x="350" y="43.5" text-anchor="middle" font-size="29" font-family="Lucida Sans Unicode" font-weight="normal">Plot of sin and cos functions
	</text>
</g>

<g id="plotXValues">
</g>

<g id="plotYValues">
</g>
</svg>
