<?xml version="1.0" encoding="UTF-8" standalone="no"?>
<svg width="700" height ="500" version="1.1"
xmlns:svg ="http://www.w3.org/2000/svg"
xmlns:rdf="http://www.w3.org/1999/02/22-rdf-syntax-ns#"
xmlns:cc="http://web.resource.org/cc/"
xmlns:dc="http://purl.org/dc/elements/1.1/"
xmlns ="http://www.w3.org/2000/svg"
>
<!-- SVG plot written using Boost.Plot program (Creator Jacob Voytko) --> 
<!-- Use, modification and distribution of Boost.Plot subject to the --> 
<!-- Boost Software License, Version 1.0.--> 
<!-- (See accompanying file LICENSE_1_0.txt --> 
<!-- or copy at http://www.boost.org/LICENSE_1_0.txt) --> 

<clipPath id="plot_window"><rect x="39.2" y="67" width="569" height="374"/></clipPath>
<g id="imageBackground" stroke="rgb(255,255,0)" fill="rgb(67,111,69)" stroke-width="2"><rect x="0" y="0" width="700" height="500"/></g>
<g id="plotBackground" stroke="rgb(119,136,153)" fill="rgb(136,188,126)" stroke-width="2"><rect x="38.2" y="66" width="571" height="376"/></g>
<g id="yMinorGrid" stroke="rgb(200,220,255)" stroke-width="0.5"></g>
<g id="yMajorGrid" stroke="rgb(0,0,0)" stroke-width="1"><path d="M40.2,254 L608,254 M40.2,254 L608,254 " fill="none"/></g>
<g id="xMinorGrid" stroke="rgb(200,220,255)" stroke-width="0.5"></g>
<g id="xMajorGrid" stroke="rgb(200,220,255)" stroke-width="1"></g>
<g id="yAxis" stroke="rgb(0,0,0)" stroke-width="1"><line x1="64.2" y1="66" x2="64.2" y2="456"/><line x1="38.2" y1="66" x2="38.2" y2="442"/></g>
<g id="xAxis" stroke="rgb(0,0,0)" stroke-width="1"><line x1="33.2" y1="254" x2="610" y2="254"/><line x1="33.2" y1="442" x2="610" y2="442"/></g>
<g id="yMinorTicks" stroke="rgb(0,0,0)" stroke-width="1"><path d="M36.2,254 L38.2,254 " fill="none"/></g>
<g id="xMinorTicks" stroke="rgb(0,0,0)" stroke-width="1"><path d="M90.2,442 L90.2,449 M116,442 L116,449 M142,442 L142,449 M194,442 L194,449 M220,442 L220,449 M246,442 L246,449 M298,442 L298,449 M324,442 L324,449 M350,442 L350,449 M402,442 L402,449 M428,442 L428,449 M454,442 L454,449 M506,442 L506,449 M532,442 L532,449 M558,442 L558,449 M610,442 L610,449 M38.2,442 L38.2,449 " fill="none"/></g>
<g id="yMajorTicks" stroke="rgb(0,0,0)" stroke-width="2"><path d="M33.2,254 L38.2,254 M33.2,254 L38.2,254 " fill="none"/></g>
<g id="xMajorTicks" stroke="rgb(0,0,0)" stroke-width="1"><path d="M64.2,442 L64.2,456 M168,442 L168,456 M272,442 L272,456 M376,442 L376,456 M480,442 L480,456 M584,442 L584,456 M64.2,442 L64.2,456 " fill="none"/></g>
<g id="xTicksValues">
<text x="64.2" y="472" text-anchor="middle" font-size="12" font-family="Lucida Sans Unicode">0</text>
<text x="168" y="472" text-anchor="middle" font-size="12" font-family="Lucida Sans Unicode">2</text>
<text x="272" y="472" text-anchor="middle" font-size="12" font-family="Lucida Sans Unicode">4</text>
<text x="376" y="472" text-anchor="middle" font-size="12" font-family="Lucida Sans Unicode">6</text>
<text x="480" y="472" text-anchor="middle" font-size="12" font-family="Lucida Sans Unicode">8</text>
<text x="584" y="472" text-anchor="middle" font-size="12" font-family="Lucida Sans Unicode">10</text>
<text x="64.2" y="472" text-anchor="middle" font-size="12" font-family="Lucida Sans Unicode">0</text></g>
<g id="yTicksValues">
<text x="27.2" y="256" text-anchor="end" font-size="12" font-family="Lucida Sans Unicode">0</text>
<text x="27.2" y="256" text-anchor="end" font-size="12" font-family="Lucida Sans Unicode">0</text></g>
<g id="yLabel">
<text x="14.9" y="254" text-anchor="middle" transform = "rotate(-90 14.9 254 )" font-size="14" font-family="Lucida Sans Unicode"></text></g>
<g id="xLabel">
<text x="324" y="485" text-anchor="middle" font-size="12" font-family="Lucida Sans Unicode">X Axis Units</text></g>
<g id="plotLines" stroke-width="2"><g clip-path="url(#plot_window)" stroke="rgb(0,0,0)" stroke-width="2"><path d="M64.2,254 L64.2,254 L84.6,189 L105,133 L125,96.1 L146,83.1 L166,96.1 L187,133 L207,189 L227,254 L248,319 L268,375 L289,412 L309,425 L329,412 L350,375 L370,319 L391,254 L411,189 L431,133 L452,96.1 L472,83.1 L493,96.1 L513,133 L533,189 L554,254 L574,319 " fill="none"/></g>
<g clip-path="url(#plot_window)" stroke="rgb(0,0,255)" stroke-width="2"><path d="M64.2,83.1 S80.5,91.1 84.6,96.1 S101,124 105,133 S121,177 125,189 S142,241 146,254 S162,307 166,319 S183,366 187,375 S203,407 207,412 S223,425 227,425 S244,417 248,412 S264,384 268,375 S285,331 289,319 S305,267 309,254 S325,201 329,189 S346,142 350,133 S366,101 370,96.1 S387,83.1 391,83.1 S407,91.1 411,96.1 S427,124 431,133 S448,177 452,189 S468,241 472,254 S489,307 493,319 S509,366 513,375 S529,407 533,412 S550,425 554,425 S574,411 574,412 " fill="none"/></g>
</g>
<g id="plotPoints" clip-path="url(#plot_window)"><g stroke="rgb(0,0,0)" fill="rgb(255,255,0)">
<text x="64.2" y="256" text-anchor="middle" font-size="5" font-family="Lucida Sans Unicode">&#x25CB;</text>
<text x="84.6" y="190" text-anchor="middle" font-size="5" font-family="Lucida Sans Unicode">&#x25CB;</text>
<text x="105" y="135" text-anchor="middle" font-size="5" font-family="Lucida Sans Unicode">&#x25CB;</text>
<text x="125" y="97.7" text-anchor="middle" font-size="5" font-family="Lucida Sans Unicode">&#x25CB;</text>
<text x="146" y="84.7" text-anchor="middle" font-size="5" font-family="Lucida Sans Unicode">&#x25CB;</text>
<text x="166" y="97.7" text-anchor="middle" font-size="5" font-family="Lucida Sans Unicode">&#x25CB;</text>
<text x="187" y="135" text-anchor="middle" font-size="5" font-family="Lucida Sans Unicode">&#x25CB;</text>
<text x="207" y="190" text-anchor="middle" font-size="5" font-family="Lucida Sans Unicode">&#x25CB;</text>
<text x="227" y="256" text-anchor="middle" font-size="5" font-family="Lucida Sans Unicode">&#x25CB;</text>
<text x="248" y="321" text-anchor="middle" font-size="5" font-family="Lucida Sans Unicode">&#x25CB;</text>
<text x="268" y="376" text-anchor="middle" font-size="5" font-family="Lucida Sans Unicode">&#x25CB;</text>
<text x="289" y="414" text-anchor="middle" font-size="5" font-family="Lucida Sans Unicode">&#x25CB;</text>
<text x="309" y="427" text-anchor="middle" font-size="5" font-family="Lucida Sans Unicode">&#x25CB;</text>
<text x="329" y="414" text-anchor="middle" font-size="5" font-family="Lucida Sans Unicode">&#x25CB;</text>
<text x="350" y="376" text-anchor="middle" font-size="5" font-family="Lucida Sans Unicode">&#x25CB;</text>
<text x="370" y="321" text-anchor="middle" font-size="5" font-family="Lucida Sans Unicode">&#x25CB;</text>
<text x="391" y="256" text-anchor="middle" font-size="5" font-family="Lucida Sans Unicode">&#x25CB;</text>
<text x="411" y="190" text-anchor="middle" font-size="5" font-family="Lucida Sans Unicode">&#x25CB;</text>
<text x="431" y="135" text-anchor="middle" font-size="5" font-family="Lucida Sans Unicode">&#x25CB;</text>
<text x="452" y="97.7" text-anchor="middle" font-size="5" font-family="Lucida Sans Unicode">&#x25CB;</text>
<text x="472" y="84.7" text-anchor="middle" font-size="5" font-family="Lucida Sans Unicode">&#x25CB;</text>
<text x="493" y="97.7" text-anchor="middle" font-size="5" font-family="Lucida Sans Unicode">&#x25CB;</text>
<text x="513" y="135" text-anchor="middle" font-size="5" font-family="Lucida Sans Unicode">&#x25CB;</text>
<text x="533" y="190" text-anchor="middle" font-size="5" font-family="Lucida Sans Unicode">&#x25CB;</text>
<text x="554" y="256" text-anchor="middle" font-size="5" font-family="Lucida Sans Unicode">&#x25CB;</text>
<text x="574" y="321" text-anchor="middle" font-size="5" font-family="Lucida Sans Unicode">&#x25CB;</text></g>
<g stroke="rgb(0,0,0)" fill="rgb(255,0,0)">
<text x="64.2" y="84.7" text-anchor="middle" font-size="5" font-family="Lucida Sans Unicode">&#x25A1;</text>
<text x="84.6" y="97.7" text-anchor="middle" font-size="5" font-family="Lucida Sans Unicode">&#x25A1;</text>
<text x="105" y="135" text-anchor="middle" font-size="5" font-family="Lucida Sans Unicode">&#x25A1;</text>
<text x="125" y="190" text-anchor="middle" font-size="5" font-family="Lucida Sans Unicode">&#x25A1;</text>
<text x="146" y="256" text-anchor="middle" font-size="5" font-family="Lucida Sans Unicode">&#x25A1;</text>
<text x="166" y="321" text-anchor="middle" font-size="5" font-family="Lucida Sans Unicode">&#x25A1;</text>
<text x="187" y="376" text-anchor="middle" font-size="5" font-family="Lucida Sans Unicode">&#x25A1;</text>
<text x="207" y="414" text-anchor="middle" font-size="5" font-family="Lucida Sans Unicode">&#x25A1;</text>
<text x="227" y="427" text-anchor="middle" font-size="5" font-family="Lucida Sans Unicode">&#x25A1;</text>
<text x="248" y="414" text-anchor="middle" font-size="5" font-family="Lucida Sans Unicode">&#x25A1;</text>
<text x="268" y="376" text-anchor="middle" font-size="5" font-family="Lucida Sans Unicode">&#x25A1;</text>
<text x="289" y="321" text-anchor="middle" font-size="5" font-family="Lucida Sans Unicode">&#x25A1;</text>
<text x="309" y="256" text-anchor="middle" font-size="5" font-family="Lucida Sans Unicode">&#x25A1;</text>
<text x="329" y="190" text-anchor="middle" font-size="5" font-family="Lucida Sans Unicode">&#x25A1;</text>
<text x="350" y="135" text-anchor="middle" font-size="5" font-family="Lucida Sans Unicode">&#x25A1;</text>
<text x="370" y="97.7" text-anchor="middle" font-size="5" font-family="Lucida Sans Unicode">&#x25A1;</text>
<text x="391" y="84.7" text-anchor="middle" font-size="5" font-family="Lucida Sans Unicode">&#x25A1;</text>
<text x="411" y="97.7" text-anchor="middle" font-size="5" font-family="Lucida Sans Unicode">&#x25A1;</text>
<text x="431" y="135" text-anchor="middle" font-size="5" font-family="Lucida Sans Unicode">&#x25A1;</text>
<text x="452" y="190" text-anchor="middle" font-size="5" font-family="Lucida Sans Unicode">&#x25A1;</text>
<text x="472" y="256" text-anchor="middle" font-size="5" font-family="Lucida Sans Unicode">&#x25A1;</text>
<text x="493" y="321" text-anchor="middle" font-size="5" font-family="Lucida Sans Unicode">&#x25A1;</text>
<text x="513" y="376" text-anchor="middle" font-size="5" font-family="Lucida Sans Unicode">&#x25A1;</text>
<text x="533" y="414" text-anchor="middle" font-size="5" font-family="Lucida Sans Unicode">&#x25A1;</text>
<text x="554" y="427" text-anchor="middle" font-size="5" font-family="Lucida Sans Unicode">&#x25A1;</text>
<text x="574" y="414" text-anchor="middle" font-size="5" font-family="Lucida Sans Unicode">&#x25A1;</text></g>
</g>
<g id="legendBackground" stroke="rgb(102,102,84)" fill="rgb(207,202,167)" stroke-width="1"><rect x="616" y="66" width="70.3" height="33.2"/></g>
<g id="legendPoints"><g stroke="rgb(0,0,0)" fill="rgb(255,255,0)" stroke-width="2">
<text x="627" y="90.6" text-anchor="middle" font-size="5" font-family="Lucida Sans Unicode">&#x25CB;</text><line x1="629" y1="89" x2="635" y2="89"/></g>
<g stroke="rgb(0,0,0)" fill="rgb(255,0,0)" stroke-width="2">
<text x="627" y="97.8" text-anchor="middle" font-size="5" font-family="Lucida Sans Unicode">&#x25A1;</text></g>
</g>
<g id="legendText">
<text x="641" y="89" font-size="10" font-family="Lucida Sans Unicode" font-weight="normal">Sin(x)</text>
<text x="641" y="96.2" font-size="10" font-family="Lucida Sans Unicode" font-weight="normal">Cos(x)</text></g>
<g id="title" fill="rgb(255,255,255)">
<text x="350" y="43.5" text-anchor="middle" font-size="29" font-family="Lucida Sans Unicode" font-weight="normal">Plot of sin and cos functions</text></g>
<g id="plotXValues"></g>
<g id="plotYValues"></g>
</svg>
