<?xml version="1.0" encoding="UTF-8" standalone="no"?>
<svg width="700" height ="500" version="1.1"
xmlns:svg ="http://www.w3.org/2000/svg"
xmlns:rdf="http://www.w3.org/1999/02/22-rdf-syntax-ns#"
xmlns:cc="http://web.resource.org/cc/"
xmlns:dc="http://purl.org/dc/elements/1.1/"
xmlns ="http://www.w3.org/2000/svg"
>
<!-- SVG plot written using Boost.Plot program (Creator Jacob Voytko) --> 
<!-- Use, modification and distribution of Boost.Plot subject to the --> 
<!-- Boost Software License, Version 1.0.--> 
<!-- (See accompanying file LICENSE_1_0.txt --> 
<!-- or copy at http://www.boost.org/LICENSE_1_0.txt) --> 

<clipPath id="plot_window"><rect x="39.2" y="59.8" width="567" height="384"/></clipPath>
<g id="imageBackground" stroke="rgb(255,255,0)" fill="rgb(67,111,69)" stroke-width="2"><rect x="0" y="0" width="700" height="500"/></g>
<g id="plotBackground" stroke="rgb(119,136,153)" fill="rgb(136,188,126)" stroke-width="2"><rect x="38.2" y="58.8" width="569" height="386"/></g>
<g id="yMinorGrid" stroke="rgb(200,220,255)" stroke-width="0.5"></g>
<g id="yMajorGrid" stroke="rgb(0,0,0)" stroke-width="1"><path d="M40.2,252 L605,252 M40.2,252 L605,252 " fill="none"/></g>
<g id="xMinorGrid" stroke="rgb(200,220,255)" stroke-width="0.5"></g>
<g id="xMajorGrid" stroke="rgb(200,220,255)" stroke-width="1"></g>
<g id="yAxis" stroke="rgb(0,0,0)" stroke-width="1"><line x1="64.1" y1="58.8" x2="64.1" y2="459"/><line x1="38.2" y1="58.8" x2="38.2" y2="445"/></g>
<g id="xAxis" stroke="rgb(0,0,0)" stroke-width="1"><line x1="33.2" y1="252" x2="607" y2="252"/><line x1="33.2" y1="445" x2="607" y2="445"/></g>
<g id="yMinorTicks" stroke="rgb(0,0,0)" stroke-width="1"><path d="M36.2,252 L38.2,252 " fill="none"/></g>
<g id="xMinorTicks" stroke="rgb(0,0,0)" stroke-width="1"><path d="M89.9,445 L89.9,452 M116,445 L116,452 M142,445 L142,452 M193,445 L193,452 M219,445 L219,452 M245,445 L245,452 M297,445 L297,452 M323,445 L323,452 M349,445 L349,452 M400,445 L400,452 M426,445 L426,452 M452,445 L452,452 M504,445 L504,452 M530,445 L530,452 M555,445 L555,452 M607,445 L607,452 M38.2,445 L38.2,452 " fill="none"/></g>
<g id="yMajorTicks" stroke="rgb(0,0,0)" stroke-width="2"><path d="M33.2,252 L38.2,252 M33.2,252 L38.2,252 " fill="none"/></g>
<g id="xMajorTicks" stroke="rgb(0,0,0)" stroke-width="1"><path d="M64.1,445 L64.1,459 M168,445 L168,459 M271,445 L271,459 M374,445 L374,459 M478,445 L478,459 M581,445 L581,459 M64.1,445 L64.1,459 " fill="none"/></g>
<g id="xTicksValues">
<text x="64.1" y="475" text-anchor="middle" font-size="12" font-family="Lucida Sans Unicode">0</text>
<text x="168" y="475" text-anchor="middle" font-size="12" font-family="Lucida Sans Unicode">2</text>
<text x="271" y="475" text-anchor="middle" font-size="12" font-family="Lucida Sans Unicode">4</text>
<text x="374" y="475" text-anchor="middle" font-size="12" font-family="Lucida Sans Unicode">6</text>
<text x="478" y="475" text-anchor="middle" font-size="12" font-family="Lucida Sans Unicode">8</text>
<text x="581" y="475" text-anchor="middle" font-size="12" font-family="Lucida Sans Unicode">10</text>
<text x="64.1" y="475" text-anchor="middle" font-size="12" font-family="Lucida Sans Unicode">0</text></g>
<g id="yTicksValues">
<text x="27.2" y="254" text-anchor="end" font-size="12" font-family="Lucida Sans Unicode">0</text>
<text x="27.2" y="254" text-anchor="end" font-size="12" font-family="Lucida Sans Unicode">0</text></g>
<g id="yLabel">
<text x="14.9" y="252" text-anchor="middle" transform = "rotate(-90 14.9 252 )" font-size="14" font-family="Lucida Sans Unicode"></text></g>
<g id="xLabel">
<text x="323" y="488" text-anchor="middle" font-size="12" font-family="Lucida Sans Unicode">X Axis Units</text></g>
<g id="plotLines" stroke-width="2"><g clip-path="url(#plot_window)" stroke="rgb(0,0,0)" stroke-width="2"><path d="M64.1,252 L64.1,252 L84.4,185 L105,128 L125,89.7 L145,76.3 L166,89.7 L186,128 L206,185 L227,252 L247,319 L267,376 L288,414 L308,427 L328,414 L348,376 L369,319 L389,252 L409,185 L430,128 L450,89.7 L470,76.3 L491,89.7 L511,128 L531,185 L552,252 L572,319 " fill="none"/></g>
<g clip-path="url(#plot_window)" stroke="rgb(0,0,255)" stroke-width="2"><path d="M64.1,76.3 S80.3,84.5 84.4,89.7 S101,118 105,128 S121,172 125,185 S141,238 145,252 S162,307 166,319 S182,367 186,376 S202,409 206,414 S223,427 227,427 S243,419 247,414 S263,386 267,376 S283,331 288,319 S304,265 308,252 S324,197 328,185 S344,137 348,128 S365,94.8 369,89.7 S385,76.3 389,76.3 S405,84.5 409,89.7 S426,118 430,128 S446,172 450,185 S466,238 470,252 S487,307 491,319 S507,367 511,376 S527,409 531,414 S548,427 552,427 S572,413 572,414 " fill="none"/></g>
</g>
<g id="plotPoints" clip-path="url(#plot_window)"><g stroke="rgb(0,0,0)" fill="rgb(255,255,0)">
<text x="64.1" y="253" text-anchor="middle" font-size="5" font-family="Lucida Sans Unicode">&#x25CB;</text>
<text x="84.4" y="186" text-anchor="middle" font-size="5" font-family="Lucida Sans Unicode">&#x25CB;</text>
<text x="105" y="129" text-anchor="middle" font-size="5" font-family="Lucida Sans Unicode">&#x25CB;</text>
<text x="125" y="91.3" text-anchor="middle" font-size="5" font-family="Lucida Sans Unicode">&#x25CB;</text>
<text x="145" y="77.9" text-anchor="middle" font-size="5" font-family="Lucida Sans Unicode">&#x25CB;</text>
<text x="166" y="91.3" text-anchor="middle" font-size="5" font-family="Lucida Sans Unicode">&#x25CB;</text>
<text x="186" y="129" text-anchor="middle" font-size="5" font-family="Lucida Sans Unicode">&#x25CB;</text>
<text x="206" y="186" text-anchor="middle" font-size="5" font-family="Lucida Sans Unicode">&#x25CB;</text>
<text x="227" y="253" text-anchor="middle" font-size="5" font-family="Lucida Sans Unicode">&#x25CB;</text>
<text x="247" y="321" text-anchor="middle" font-size="5" font-family="Lucida Sans Unicode">&#x25CB;</text>
<text x="267" y="378" text-anchor="middle" font-size="5" font-family="Lucida Sans Unicode">&#x25CB;</text>
<text x="288" y="416" text-anchor="middle" font-size="5" font-family="Lucida Sans Unicode">&#x25CB;</text>
<text x="308" y="429" text-anchor="middle" font-size="5" font-family="Lucida Sans Unicode">&#x25CB;</text>
<text x="328" y="416" text-anchor="middle" font-size="5" font-family="Lucida Sans Unicode">&#x25CB;</text>
<text x="348" y="378" text-anchor="middle" font-size="5" font-family="Lucida Sans Unicode">&#x25CB;</text>
<text x="369" y="321" text-anchor="middle" font-size="5" font-family="Lucida Sans Unicode">&#x25CB;</text>
<text x="389" y="253" text-anchor="middle" font-size="5" font-family="Lucida Sans Unicode">&#x25CB;</text>
<text x="409" y="186" text-anchor="middle" font-size="5" font-family="Lucida Sans Unicode">&#x25CB;</text>
<text x="430" y="129" text-anchor="middle" font-size="5" font-family="Lucida Sans Unicode">&#x25CB;</text>
<text x="450" y="91.3" text-anchor="middle" font-size="5" font-family="Lucida Sans Unicode">&#x25CB;</text>
<text x="470" y="77.9" text-anchor="middle" font-size="5" font-family="Lucida Sans Unicode">&#x25CB;</text>
<text x="491" y="91.3" text-anchor="middle" font-size="5" font-family="Lucida Sans Unicode">&#x25CB;</text>
<text x="511" y="129" text-anchor="middle" font-size="5" font-family="Lucida Sans Unicode">&#x25CB;</text>
<text x="531" y="186" text-anchor="middle" font-size="5" font-family="Lucida Sans Unicode">&#x25CB;</text>
<text x="552" y="253" text-anchor="middle" font-size="5" font-family="Lucida Sans Unicode">&#x25CB;</text>
<text x="572" y="321" text-anchor="middle" font-size="5" font-family="Lucida Sans Unicode">&#x25CB;</text></g>
<g stroke="rgb(0,0,0)" fill="rgb(255,0,0)">
<text x="64.1" y="77.9" text-anchor="middle" font-size="5" font-family="Lucida Sans Unicode">&#x25A1;</text>
<text x="84.4" y="91.3" text-anchor="middle" font-size="5" font-family="Lucida Sans Unicode">&#x25A1;</text>
<text x="105" y="129" text-anchor="middle" font-size="5" font-family="Lucida Sans Unicode">&#x25A1;</text>
<text x="125" y="186" text-anchor="middle" font-size="5" font-family="Lucida Sans Unicode">&#x25A1;</text>
<text x="145" y="253" text-anchor="middle" font-size="5" font-family="Lucida Sans Unicode">&#x25A1;</text>
<text x="166" y="321" text-anchor="middle" font-size="5" font-family="Lucida Sans Unicode">&#x25A1;</text>
<text x="186" y="378" text-anchor="middle" font-size="5" font-family="Lucida Sans Unicode">&#x25A1;</text>
<text x="206" y="416" text-anchor="middle" font-size="5" font-family="Lucida Sans Unicode">&#x25A1;</text>
<text x="227" y="429" text-anchor="middle" font-size="5" font-family="Lucida Sans Unicode">&#x25A1;</text>
<text x="247" y="416" text-anchor="middle" font-size="5" font-family="Lucida Sans Unicode">&#x25A1;</text>
<text x="267" y="378" text-anchor="middle" font-size="5" font-family="Lucida Sans Unicode">&#x25A1;</text>
<text x="288" y="321" text-anchor="middle" font-size="5" font-family="Lucida Sans Unicode">&#x25A1;</text>
<text x="308" y="253" text-anchor="middle" font-size="5" font-family="Lucida Sans Unicode">&#x25A1;</text>
<text x="328" y="186" text-anchor="middle" font-size="5" font-family="Lucida Sans Unicode">&#x25A1;</text>
<text x="348" y="129" text-anchor="middle" font-size="5" font-family="Lucida Sans Unicode">&#x25A1;</text>
<text x="369" y="91.3" text-anchor="middle" font-size="5" font-family="Lucida Sans Unicode">&#x25A1;</text>
<text x="389" y="77.9" text-anchor="middle" font-size="5" font-family="Lucida Sans Unicode">&#x25A1;</text>
<text x="409" y="91.3" text-anchor="middle" font-size="5" font-family="Lucida Sans Unicode">&#x25A1;</text>
<text x="430" y="129" text-anchor="middle" font-size="5" font-family="Lucida Sans Unicode">&#x25A1;</text>
<text x="450" y="186" text-anchor="middle" font-size="5" font-family="Lucida Sans Unicode">&#x25A1;</text>
<text x="470" y="253" text-anchor="middle" font-size="5" font-family="Lucida Sans Unicode">&#x25A1;</text>
<text x="491" y="321" text-anchor="middle" font-size="5" font-family="Lucida Sans Unicode">&#x25A1;</text>
<text x="511" y="378" text-anchor="middle" font-size="5" font-family="Lucida Sans Unicode">&#x25A1;</text>
<text x="531" y="416" text-anchor="middle" font-size="5" font-family="Lucida Sans Unicode">&#x25A1;</text>
<text x="552" y="429" text-anchor="middle" font-size="5" font-family="Lucida Sans Unicode">&#x25A1;</text>
<text x="572" y="416" text-anchor="middle" font-size="5" font-family="Lucida Sans Unicode">&#x25A1;</text></g>
</g>
<g id="legendBackground" stroke="rgb(102,102,84)" fill="rgb(207,202,167)" stroke-width="1"><rect x="613" y="58.8" width="72.8" height="52"/></g>
<g id="legendPoints"><g stroke="rgb(0,0,0)" fill="rgb(255,255,0)" stroke-width="2">
<text x="626" y="79.1" text-anchor="middle" font-size="5" font-family="Lucida Sans Unicode">&#x25CB;</text><line x1="631" y1="78.5" x2="637" y2="78.5"/></g>
<g stroke="rgb(0,0,0)" fill="rgb(255,0,0)" stroke-width="2">
<text x="626" y="91.6" text-anchor="middle" font-size="5" font-family="Lucida Sans Unicode">&#x25A1;</text></g>
</g>
<g id="legendText">
<text x="646" y="78.5" font-size="10" font-family="Lucida Sans Unicode" font-weight="normal">Sin(x)</text>
<text x="646" y="91" font-size="10" font-family="Lucida Sans Unicode" font-weight="normal">Cos(x)</text></g>
<g id="title" fill="rgb(255,255,255)">
<text x="350" y="36.2" text-anchor="middle" font-size="29" font-family="Lucida Sans Unicode" font-weight="normal">Plot of sin and cos functions</text></g>
<g id="plotXValues"></g>
<g id="plotYValues"></g>
</svg>
