<?xml version="1.0" encoding="UTF-8" standalone="no"?>
<svg width="700" height ="500" version="1.1"
xmlns:svg ="http://www.w3.org/2000/svg"
xmlns:rdf="http://www.w3.org/1999/02/22-rdf-syntax-ns#"
xmlns:cc="http://web.resource.org/cc/"
xmlns:dc="http://purl.org/dc/elements/1.1/"
xmlns ="http://www.w3.org/2000/svg"
>
<!-- SVG plot written using Boost.Plot program (Creator Jacob Voytko) --> 
<!-- Use, modification and distribution of Boost.Plot subject to the --> 
<!-- Boost Software License, Version 1.0.--> 
<!-- (See accompanying file LICENSE_1_0.txt --> 
<!-- or copy at http://www.boost.org/LICENSE_1_0.txt) --> 

<clipPath id="plot_window"><rect x="53.6" y="59.8" width="537" height="402"/></clipPath>
<g id="imageBackground" stroke="rgb(255,255,0)" fill="rgb(67,111,69)" stroke-width="2"><rect x="0" y="0" width="700" height="500"/></g>
<g id="plotBackground" stroke="rgb(119,136,153)" fill="rgb(136,188,126)" stroke-width="2"><rect x="52.6" y="58.8" width="539" height="404"/></g>
<g id="yMinorGrid" stroke="rgb(200,220,255)" stroke-width="0.5"></g>
<g id="yMajorGrid" stroke="rgb(200,220,255)" stroke-width="1"></g>
<g id="xMinorGrid" stroke="rgb(200,220,255)" stroke-width="0.5"></g>
<g id="xMajorGrid" stroke="rgb(200,220,255)" stroke-width="1"></g>
<g id="yAxis" stroke="rgb(0,0,0)" stroke-width="1"><line x1="102" y1="58.8" x2="102" y2="477"/><line x1="52.6" y1="58.8" x2="52.6" y2="463"/></g>
<g id="xAxis" stroke="rgb(0,0,0)" stroke-width="1"><line x1="47.6" y1="444" x2="592" y2="444"/><line x1="47.6" y1="463" x2="592" y2="463"/></g>
<g id="yMinorTicks" stroke="rgb(0,0,0)" stroke-width="1"><path d="M50.6,434 L52.6,434 M50.6,424 L52.6,424 M50.6,415 L52.6,415 M50.6,396 L52.6,396 M50.6,386 L52.6,386 M50.6,376 L52.6,376 M50.6,357 L52.6,357 M50.6,348 L52.6,348 M50.6,338 L52.6,338 M50.6,319 L52.6,319 M50.6,309 L52.6,309 M50.6,299 L52.6,299 M50.6,280 L52.6,280 M50.6,270 L52.6,270 M50.6,261 L52.6,261 M50.6,242 L52.6,242 M50.6,232 L52.6,232 M50.6,222 L52.6,222 M50.6,203 L52.6,203 M50.6,194 L52.6,194 M50.6,184 L52.6,184 M50.6,165 L52.6,165 M50.6,155 L52.6,155 M50.6,145 L52.6,145 M50.6,126 L52.6,126 M50.6,116 L52.6,116 M50.6,107 L52.6,107 M50.6,87.6 L52.6,87.6 M50.6,78 L52.6,78 M50.6,68.4 L52.6,68.4 M50.6,444 L52.6,444 M50.6,453 L52.6,453 M50.6,463 L52.6,463 " fill="none"/></g>
<g id="xMinorTicks" stroke="rgb(0,0,0)" stroke-width="1"><path d="M126,463 L126,470 M151,463 L151,470 M175,463 L175,470 M224,463 L224,470 M249,463 L249,470 M273,463 L273,470 M322,463 L322,470 M347,463 L347,470 M371,463 L371,470 M420,463 L420,470 M445,463 L445,470 M469,463 L469,470 M518,463 L518,470 M543,463 L543,470 M567,463 L567,470 M77.1,463 L77.1,470 M52.6,463 L52.6,470 " fill="none"/></g>
<g id="yMajorTicks" stroke="rgb(0,0,0)" stroke-width="2"><path d="M47.6,444 L52.6,444 M47.6,405 L52.6,405 M47.6,367 L52.6,367 M47.6,328 L52.6,328 M47.6,290 L52.6,290 M47.6,251 L52.6,251 M47.6,213 L52.6,213 M47.6,174 L52.6,174 M47.6,136 L52.6,136 M47.6,97.2 L52.6,97.2 M47.6,58.8 L52.6,58.8 M47.6,444 L52.6,444 " fill="none"/></g>
<g id="xMajorTicks" stroke="rgb(0,0,0)" stroke-width="1"><path d="M102,463 L102,477 M200,463 L200,477 M298,463 L298,477 M396,463 L396,477 M494,463 L494,477 M592,463 L592,477 M102,463 L102,477 " fill="none"/></g>
<g id="xTicksValues">
<text x="102" y="455" text-anchor="middle" font-size="12" font-family="Lucida Sans Unicode">0</text>
<text x="200" y="455" text-anchor="middle" font-size="12" font-family="Lucida Sans Unicode">2</text>
<text x="298" y="455" text-anchor="middle" font-size="12" font-family="Lucida Sans Unicode">4</text>
<text x="396" y="455" text-anchor="middle" font-size="12" font-family="Lucida Sans Unicode">6</text>
<text x="494" y="455" text-anchor="middle" font-size="12" font-family="Lucida Sans Unicode">8</text>
<text x="592" y="455" text-anchor="middle" font-size="12" font-family="Lucida Sans Unicode">10</text>
<text x="102" y="455" text-anchor="middle" font-size="12" font-family="Lucida Sans Unicode">0</text></g>
<g id="yTicksValues">
<text x="41.6" y="446" text-anchor="end" font-size="12" font-family="Lucida Sans Unicode">0</text>
<text x="41.6" y="408" text-anchor="end" font-size="12" font-family="Lucida Sans Unicode">10</text>
<text x="41.6" y="369" text-anchor="end" font-size="12" font-family="Lucida Sans Unicode">20</text>
<text x="41.6" y="331" text-anchor="end" font-size="12" font-family="Lucida Sans Unicode">30</text>
<text x="41.6" y="292" text-anchor="end" font-size="12" font-family="Lucida Sans Unicode">40</text>
<text x="41.6" y="254" text-anchor="end" font-size="12" font-family="Lucida Sans Unicode">50</text>
<text x="41.6" y="215" text-anchor="end" font-size="12" font-family="Lucida Sans Unicode">60</text>
<text x="41.6" y="177" text-anchor="end" font-size="12" font-family="Lucida Sans Unicode">70</text>
<text x="41.6" y="138" text-anchor="end" font-size="12" font-family="Lucida Sans Unicode">80</text>
<text x="41.6" y="99.7" text-anchor="end" font-size="12" font-family="Lucida Sans Unicode">90</text>
<text x="41.6" y="61.1" text-anchor="end" font-size="12" font-family="Lucida Sans Unicode">100</text>
<text x="41.6" y="446" text-anchor="end" font-size="12" font-family="Lucida Sans Unicode">0</text></g>
<g id="yLabel">
<text x="14.9" y="261" text-anchor="middle" transform = "rotate(-90 14.9 261 )" font-size="14" font-family="Lucida Sans Unicode"></text></g>
<g id="xLabel">
<text x="322" y="494" text-anchor="middle" font-size="12" font-family="Lucida Sans Unicode">X Axis Units</text></g>
<g id="plotPoints" clip-path="url(#plot_window)"><g stroke="rgb(255,0,0)" fill="rgb(255,255,255)">
<text x="102" y="447" text-anchor="middle" font-size="10" font-family="Lucida Sans Unicode">&#x25CB;</text>
<text x="151" y="443" text-anchor="middle" font-size="10" font-family="Lucida Sans Unicode">&#x25CB;</text>
<text x="200" y="442" text-anchor="middle" font-size="10" font-family="Lucida Sans Unicode">&#x25CB;</text>
<text x="249" y="440" text-anchor="middle" font-size="10" font-family="Lucida Sans Unicode">&#x25CB;</text>
<text x="298" y="439" text-anchor="middle" font-size="10" font-family="Lucida Sans Unicode">&#x25CB;</text>
<text x="347" y="438" text-anchor="middle" font-size="10" font-family="Lucida Sans Unicode">&#x25CB;</text>
<text x="396" y="438" text-anchor="middle" font-size="10" font-family="Lucida Sans Unicode">&#x25CB;</text>
<text x="445" y="437" text-anchor="middle" font-size="10" font-family="Lucida Sans Unicode">&#x25CB;</text>
<text x="494" y="436" text-anchor="middle" font-size="10" font-family="Lucida Sans Unicode">&#x25CB;</text>
<text x="543" y="435" text-anchor="middle" font-size="10" font-family="Lucida Sans Unicode">&#x25CB;</text></g>
<g stroke="rgb(255,165,0)" fill="rgb(255,255,255)">
<text x="102" y="455" text-anchor="middle" font-size="10" font-family="Lucida Sans Unicode">&#x25CB;</text>
<text x="151" y="451" text-anchor="middle" font-size="10" font-family="Lucida Sans Unicode">&#x25CB;</text>
<text x="200" y="439" text-anchor="middle" font-size="10" font-family="Lucida Sans Unicode">&#x25CB;</text>
<text x="249" y="420" text-anchor="middle" font-size="10" font-family="Lucida Sans Unicode">&#x25CB;</text>
<text x="298" y="393" text-anchor="middle" font-size="10" font-family="Lucida Sans Unicode">&#x25CB;</text>
<text x="347" y="358" text-anchor="middle" font-size="10" font-family="Lucida Sans Unicode">&#x25CB;</text>
<text x="396" y="316" text-anchor="middle" font-size="10" font-family="Lucida Sans Unicode">&#x25CB;</text>
<text x="445" y="266" text-anchor="middle" font-size="10" font-family="Lucida Sans Unicode">&#x25CB;</text>
<text x="494" y="208" text-anchor="middle" font-size="10" font-family="Lucida Sans Unicode">&#x25CB;</text>
<text x="543" y="143" text-anchor="middle" font-size="10" font-family="Lucida Sans Unicode">&#x25CB;</text></g>
<g stroke="rgb(255,255,0)" fill="rgb(255,255,255)">
<text x="102" y="449" text-anchor="middle" font-size="5" font-family="Lucida Sans Unicode">&#x25A1;</text>
<text x="151" y="442" text-anchor="middle" font-size="5" font-family="Lucida Sans Unicode">&#x25A1;</text>
<text x="200" y="434" text-anchor="middle" font-size="5" font-family="Lucida Sans Unicode">&#x25A1;</text>
<text x="249" y="426" text-anchor="middle" font-size="5" font-family="Lucida Sans Unicode">&#x25A1;</text>
<text x="298" y="418" text-anchor="middle" font-size="5" font-family="Lucida Sans Unicode">&#x25A1;</text>
<text x="347" y="411" text-anchor="middle" font-size="5" font-family="Lucida Sans Unicode">&#x25A1;</text>
<text x="396" y="403" text-anchor="middle" font-size="5" font-family="Lucida Sans Unicode">&#x25A1;</text>
<text x="445" y="395" text-anchor="middle" font-size="5" font-family="Lucida Sans Unicode">&#x25A1;</text>
<text x="494" y="388" text-anchor="middle" font-size="5" font-family="Lucida Sans Unicode">&#x25A1;</text>
<text x="543" y="380" text-anchor="middle" font-size="5" font-family="Lucida Sans Unicode">&#x25A1;</text></g>
</g>
<g id="legendBackground" stroke="rgb(102,102,84)" fill="rgb(207,202,167)" stroke-width="1"><rect x="598" y="58.8" width="88.5" height="57"/></g>
<g id="legendPoints"><g stroke="rgb(255,0,0)" fill="rgb(255,255,255)" stroke-width="2">
<text x="614" y="77.2" text-anchor="middle" font-size="10" font-family="Lucida Sans Unicode">&#x25CB;</text></g>
<g stroke="rgb(255,165,0)" fill="rgb(255,255,255)" stroke-width="2">
<text x="614" y="87.2" text-anchor="middle" font-size="10" font-family="Lucida Sans Unicode">&#x25CB;</text></g>
<g stroke="rgb(255,255,0)" fill="rgb(255,255,255)" stroke-width="2">
<text x="614" y="96.6" text-anchor="middle" font-size="5" font-family="Lucida Sans Unicode">&#x25A1;</text></g>
</g>
<g id="legendText">
<text x="622" y="76" font-size="10" font-family="Lucida Sans Unicode" font-weight="normal">Sqrt(x)</text>
<text x="622" y="86" font-size="10" font-family="Lucida Sans Unicode" font-weight="normal">-2 + x^2</text>
<text x="622" y="96" font-size="10" font-family="Lucida Sans Unicode" font-weight="normal">-1 + 2x</text></g>
<g id="title" fill="rgb(255,255,255)">
<text x="350" y="36.2" text-anchor="middle" font-size="29" font-family="Lucida Sans Unicode" font-weight="normal">Plot of Mathematical Functions</text></g>
<g id="plotXValues"></g>
<g id="plotYValues"></g>
</svg>
