<?xml version="1.0" encoding="UTF-8" standalone="no"?>
<svg width="700" height ="500" version="1.1"
xmlns:svg ="http://www.w3.org/2000/svg"
xmlns:rdf="http://www.w3.org/1999/02/22-rdf-syntax-ns#"
xmlns:cc="http://web.resource.org/cc/"
xmlns:dc="http://purl.org/dc/elements/1.1/"
xmlns ="http://www.w3.org/2000/svg"
>
<!-- SVG plot written using Boost.Plot program (Creator Jacob Voytko) --> 
<!-- Use, modification and distribution of Boost.Plot subject to the --> 
<!-- Boost Software License, Version 1.0.--> 
<!-- (See accompanying file LICENSE_1_0.txt --> 
<!-- or copy at http://www.boost.org/LICENSE_1_0.txt) --> 

<clipPath id="plot_window"><rect x="53.6" y="67" width="541" height="392"/></clipPath>
<g id="imageBackground" stroke="rgb(255,255,0)" fill="rgb(67,111,69)" stroke-width="2"><rect x="0" y="0" width="700" height="500"/></g>
<g id="plotBackground" stroke="rgb(119,136,153)" fill="rgb(136,188,126)" stroke-width="2"><rect x="52.6" y="66" width="543" height="394"/></g>
<g id="yMinorGrid" stroke="rgb(200,220,255)" stroke-width="0.5"></g>
<g id="yMajorGrid" stroke="rgb(200,220,255)" stroke-width="1"></g>
<g id="xMinorGrid" stroke="rgb(200,220,255)" stroke-width="0.5"></g>
<g id="xMajorGrid" stroke="rgb(200,220,255)" stroke-width="1"></g>
<g id="yAxis" stroke="rgb(0,0,0)" stroke-width="1"><line x1="102" y1="66" x2="102" y2="474"/><line x1="52.6" y1="66" x2="52.6" y2="460"/></g>
<g id="xAxis" stroke="rgb(0,0,0)" stroke-width="1"><line x1="47.6" y1="441" x2="596" y2="441"/><line x1="47.6" y1="460" x2="596" y2="460"/></g>
<g id="yMinorTicks" stroke="rgb(0,0,0)" stroke-width="1"><path d="M50.6,432 L52.6,432 M50.6,422 L52.6,422 M50.6,413 L52.6,413 M50.6,394 L52.6,394 M50.6,385 L52.6,385 M50.6,376 L52.6,376 M50.6,357 L52.6,357 M50.6,347 L52.6,347 M50.6,338 L52.6,338 M50.6,319 L52.6,319 M50.6,310 L52.6,310 M50.6,301 L52.6,301 M50.6,282 L52.6,282 M50.6,272 L52.6,272 M50.6,263 L52.6,263 M50.6,244 L52.6,244 M50.6,235 L52.6,235 M50.6,225 L52.6,225 M50.6,207 L52.6,207 M50.6,197 L52.6,197 M50.6,188 L52.6,188 M50.6,169 L52.6,169 M50.6,160 L52.6,160 M50.6,150 L52.6,150 M50.6,132 L52.6,132 M50.6,122 L52.6,122 M50.6,113 L52.6,113 M50.6,94.1 L52.6,94.1 M50.6,84.8 L52.6,84.8 M50.6,75.4 L52.6,75.4 M50.6,441 L52.6,441 M50.6,451 L52.6,451 M50.6,460 L52.6,460 " fill="none"/></g>
<g id="xMinorTicks" stroke="rgb(0,0,0)" stroke-width="1"><path d="M127,460 L127,467 M151,460 L151,467 M176,460 L176,467 M226,460 L226,467 M250,460 L250,467 M275,460 L275,467 M324,460 L324,467 M349,460 L349,467 M374,460 L374,467 M423,460 L423,467 M448,460 L448,467 M473,460 L473,467 M522,460 L522,467 M547,460 L547,467 M571,460 L571,467 M77.3,460 L77.3,467 M52.6,460 L52.6,467 " fill="none"/></g>
<g id="yMajorTicks" stroke="rgb(0,0,0)" stroke-width="2"><path d="M47.6,441 L52.6,441 M47.6,404 L52.6,404 M47.6,366 L52.6,366 M47.6,329 L52.6,329 M47.6,291 L52.6,291 M47.6,254 L52.6,254 M47.6,216 L52.6,216 M47.6,179 L52.6,179 M47.6,141 L52.6,141 M47.6,104 L52.6,104 M47.6,66 L52.6,66 M47.6,441 L52.6,441 " fill="none"/></g>
<g id="xMajorTicks" stroke="rgb(0,0,0)" stroke-width="1"><path d="M102,460 L102,474 M201,460 L201,474 M300,460 L300,474 M398,460 L398,474 M497,460 L497,474 M596,460 L596,474 M102,460 L102,474 " fill="none"/></g>
<g id="xTicksValues">
<text x="102" y="452" text-anchor="middle" font-size="12" font-family="Lucida Sans Unicode">0</text>
<text x="201" y="452" text-anchor="middle" font-size="12" font-family="Lucida Sans Unicode">2</text>
<text x="300" y="452" text-anchor="middle" font-size="12" font-family="Lucida Sans Unicode">4</text>
<text x="398" y="452" text-anchor="middle" font-size="12" font-family="Lucida Sans Unicode">6</text>
<text x="497" y="452" text-anchor="middle" font-size="12" font-family="Lucida Sans Unicode">8</text>
<text x="596" y="452" text-anchor="middle" font-size="12" font-family="Lucida Sans Unicode">10</text>
<text x="102" y="452" text-anchor="middle" font-size="12" font-family="Lucida Sans Unicode">0</text></g>
<g id="yTicksValues">
<text x="41.6" y="444" text-anchor="end" font-size="12" font-family="Lucida Sans Unicode">0</text>
<text x="41.6" y="406" text-anchor="end" font-size="12" font-family="Lucida Sans Unicode">10</text>
<text x="41.6" y="369" text-anchor="end" font-size="12" font-family="Lucida Sans Unicode">20</text>
<text x="41.6" y="331" text-anchor="end" font-size="12" font-family="Lucida Sans Unicode">30</text>
<text x="41.6" y="294" text-anchor="end" font-size="12" font-family="Lucida Sans Unicode">40</text>
<text x="41.6" y="256" text-anchor="end" font-size="12" font-family="Lucida Sans Unicode">50</text>
<text x="41.6" y="218" text-anchor="end" font-size="12" font-family="Lucida Sans Unicode">60</text>
<text x="41.6" y="181" text-anchor="end" font-size="12" font-family="Lucida Sans Unicode">70</text>
<text x="41.6" y="143" text-anchor="end" font-size="12" font-family="Lucida Sans Unicode">80</text>
<text x="41.6" y="106" text-anchor="end" font-size="12" font-family="Lucida Sans Unicode">90</text>
<text x="41.6" y="68.4" text-anchor="end" font-size="12" font-family="Lucida Sans Unicode">100</text>
<text x="41.6" y="444" text-anchor="end" font-size="12" font-family="Lucida Sans Unicode">0</text></g>
<g id="yLabel">
<text x="14.9" y="263" text-anchor="middle" transform = "rotate(-90 14.9 263 )" font-size="14" font-family="Lucida Sans Unicode"></text></g>
<g id="xLabel">
<text x="324" y="491" text-anchor="middle" font-size="12" font-family="Lucida Sans Unicode">X Axis Units</text></g>
<g id="plotPoints" clip-path="url(#plot_window)"><g stroke="rgb(255,0,0)" fill="rgb(255,255,255)">
<text x="102" y="444" text-anchor="middle" font-size="10" font-family="Lucida Sans Unicode">&#x25CB;</text>
<text x="151" y="441" text-anchor="middle" font-size="10" font-family="Lucida Sans Unicode">&#x25CB;</text>
<text x="201" y="439" text-anchor="middle" font-size="10" font-family="Lucida Sans Unicode">&#x25CB;</text>
<text x="250" y="438" text-anchor="middle" font-size="10" font-family="Lucida Sans Unicode">&#x25CB;</text>
<text x="300" y="437" text-anchor="middle" font-size="10" font-family="Lucida Sans Unicode">&#x25CB;</text>
<text x="349" y="436" text-anchor="middle" font-size="10" font-family="Lucida Sans Unicode">&#x25CB;</text>
<text x="398" y="435" text-anchor="middle" font-size="10" font-family="Lucida Sans Unicode">&#x25CB;</text>
<text x="448" y="435" text-anchor="middle" font-size="10" font-family="Lucida Sans Unicode">&#x25CB;</text>
<text x="497" y="434" text-anchor="middle" font-size="10" font-family="Lucida Sans Unicode">&#x25CB;</text>
<text x="547" y="433" text-anchor="middle" font-size="10" font-family="Lucida Sans Unicode">&#x25CB;</text></g>
<g stroke="rgb(255,165,0)" fill="rgb(255,255,255)">
<text x="102" y="452" text-anchor="middle" font-size="10" font-family="Lucida Sans Unicode">&#x25CB;</text>
<text x="151" y="448" text-anchor="middle" font-size="10" font-family="Lucida Sans Unicode">&#x25CB;</text>
<text x="201" y="437" text-anchor="middle" font-size="10" font-family="Lucida Sans Unicode">&#x25CB;</text>
<text x="250" y="418" text-anchor="middle" font-size="10" font-family="Lucida Sans Unicode">&#x25CB;</text>
<text x="300" y="392" text-anchor="middle" font-size="10" font-family="Lucida Sans Unicode">&#x25CB;</text>
<text x="349" y="358" text-anchor="middle" font-size="10" font-family="Lucida Sans Unicode">&#x25CB;</text>
<text x="398" y="317" text-anchor="middle" font-size="10" font-family="Lucida Sans Unicode">&#x25CB;</text>
<text x="448" y="268" text-anchor="middle" font-size="10" font-family="Lucida Sans Unicode">&#x25CB;</text>
<text x="497" y="212" text-anchor="middle" font-size="10" font-family="Lucida Sans Unicode">&#x25CB;</text>
<text x="547" y="148" text-anchor="middle" font-size="10" font-family="Lucida Sans Unicode">&#x25CB;</text></g>
<g stroke="rgb(255,255,0)" fill="rgb(255,255,255)">
<text x="102" y="447" text-anchor="middle" font-size="5" font-family="Lucida Sans Unicode">&#x25A1;</text>
<text x="151" y="439" text-anchor="middle" font-size="5" font-family="Lucida Sans Unicode">&#x25A1;</text>
<text x="201" y="432" text-anchor="middle" font-size="5" font-family="Lucida Sans Unicode">&#x25A1;</text>
<text x="250" y="424" text-anchor="middle" font-size="5" font-family="Lucida Sans Unicode">&#x25A1;</text>
<text x="300" y="417" text-anchor="middle" font-size="5" font-family="Lucida Sans Unicode">&#x25A1;</text>
<text x="349" y="409" text-anchor="middle" font-size="5" font-family="Lucida Sans Unicode">&#x25A1;</text>
<text x="398" y="402" text-anchor="middle" font-size="5" font-family="Lucida Sans Unicode">&#x25A1;</text>
<text x="448" y="394" text-anchor="middle" font-size="5" font-family="Lucida Sans Unicode">&#x25A1;</text>
<text x="497" y="387" text-anchor="middle" font-size="5" font-family="Lucida Sans Unicode">&#x25A1;</text>
<text x="547" y="379" text-anchor="middle" font-size="5" font-family="Lucida Sans Unicode">&#x25A1;</text></g>
</g>
<g id="legendBackground" stroke="rgb(102,102,84)" fill="rgb(207,202,167)" stroke-width="1"><rect x="602" y="66" width="84" height="47.6"/></g>
<g id="legendPoints"><g stroke="rgb(255,0,0)" fill="rgb(255,255,255)" stroke-width="2">
<text x="615" y="92.2" text-anchor="middle" font-size="10" font-family="Lucida Sans Unicode">&#x25CB;</text></g>
<g stroke="rgb(255,165,0)" fill="rgb(255,255,255)" stroke-width="2">
<text x="615" y="107" text-anchor="middle" font-size="10" font-family="Lucida Sans Unicode">&#x25CB;</text></g>
<g stroke="rgb(255,255,0)" fill="rgb(255,255,255)" stroke-width="2">
<text x="615" y="119" text-anchor="middle" font-size="5" font-family="Lucida Sans Unicode">&#x25A1;</text></g>
</g>
<g id="legendText">
<text x="620" y="89" font-size="10" font-family="Lucida Sans Unicode" font-weight="normal">Sqrt(x)</text>
<text x="620" y="103" font-size="10" font-family="Lucida Sans Unicode" font-weight="normal">-2 + x^2</text>
<text x="620" y="118" font-size="10" font-family="Lucida Sans Unicode" font-weight="normal">-1 + 2x</text></g>
<g id="title" fill="rgb(255,255,255)">
<text x="350" y="43.5" text-anchor="middle" font-size="29" font-family="Lucida Sans Unicode" font-weight="normal">Plot of Mathematical Functions</text></g>
<g id="plotXValues"></g>
<g id="plotYValues"></g>
</svg>
