<?xml version="1.0" encoding="UTF-8" standalone="no"?>
<svg width="700" height ="500" version="1.1"
xmlns:svg ="http://www.w3.org/2000/svg"
xmlns:rdf="http://www.w3.org/1999/02/22-rdf-syntax-ns#"
xmlns:cc="http://web.resource.org/cc/"
xmlns:dc="http://purl.org/dc/elements/1.1/"
xmlns ="http://www.w3.org/2000/svg"
>
<!-- SVG plot written using Boost.Plot program (Creator Jacob Voytko) --> 
<!-- Use, modification and distribution of Boost.Plot subject to the --> 
<!-- Boost Software License, Version 1.0.--> 
<!-- (See accompanying file LICENSE_1_0.txt --> 
<!-- or copy at http://www.boost.org/LICENSE_1_0.txt) --> 

<clipPath id="plot_window"><rect x="51.8" y="59.8" width="543" height="402"/></clipPath>
<g id="imageBackground" stroke="rgb(255,255,0)" fill="rgb(67,111,69)" stroke-width="2"><rect x="0" y="0" width="700" height="500"/></g>
<g id="plotBackground" stroke="rgb(119,136,153)" fill="rgb(136,188,126)" stroke-width="2"><rect x="50.8" y="58.8" width="545" height="404"/></g>
<g id="yMinorGrid" stroke="rgb(200,220,255)" stroke-width="0.5"></g>
<g id="yMajorGrid" stroke="rgb(200,220,255)" stroke-width="1"></g>
<g id="xMinorGrid" stroke="rgb(200,220,255)" stroke-width="0.5"></g>
<g id="xMajorGrid" stroke="rgb(200,220,255)" stroke-width="1"></g>
<g id="yAxis" stroke="rgb(0,0,0)" stroke-width="1"><line x1="100" y1="58.8" x2="100" y2="477"/><line x1="50.8" y1="58.8" x2="50.8" y2="463"/></g>
<g id="xAxis" stroke="rgb(0,0,0)" stroke-width="1"><line x1="45.8" y1="444" x2="595" y2="444"/><line x1="45.8" y1="463" x2="595" y2="463"/></g>
<g id="yMinorTicks" stroke="rgb(0,0,0)" stroke-width="1"><path d="M48.8,434 L50.8,434 M48.8,424 L50.8,424 M48.8,415 L50.8,415 M48.8,396 L50.8,396 M48.8,386 L50.8,386 M48.8,376 L50.8,376 M48.8,357 L50.8,357 M48.8,348 L50.8,348 M48.8,338 L50.8,338 M48.8,319 L50.8,319 M48.8,309 L50.8,309 M48.8,299 L50.8,299 M48.8,280 L50.8,280 M48.8,270 L50.8,270 M48.8,261 L50.8,261 M48.8,242 L50.8,242 M48.8,232 L50.8,232 M48.8,222 L50.8,222 M48.8,203 L50.8,203 M48.8,194 L50.8,194 M48.8,184 L50.8,184 M48.8,165 L50.8,165 M48.8,155 L50.8,155 M48.8,145 L50.8,145 M48.8,126 L50.8,126 M48.8,116 L50.8,116 M48.8,107 L50.8,107 M48.8,87.6 L50.8,87.6 M48.8,78 L50.8,78 M48.8,68.4 L50.8,68.4 M48.8,444 L50.8,444 M48.8,453 L50.8,453 M48.8,463 L50.8,463 " fill="none"/></g>
<g id="xMinorTicks" stroke="rgb(0,0,0)" stroke-width="1"><path d="M125,463 L125,470 M150,463 L150,470 M175,463 L175,470 M224,463 L224,470 M249,463 L249,470 M274,463 L274,470 M323,463 L323,470 M348,463 L348,470 M373,463 L373,470 M422,463 L422,470 M447,463 L447,470 M472,463 L472,470 M521,463 L521,470 M546,463 L546,470 M571,463 L571,470 M75.6,463 L75.6,470 " fill="none"/></g>
<g id="yMajorTicks" stroke="rgb(0,0,0)" stroke-width="2"><path d="M45.8,444 L50.8,444 M45.8,405 L50.8,405 M45.8,367 L50.8,367 M45.8,328 L50.8,328 M45.8,290 L50.8,290 M45.8,251 L50.8,251 M45.8,213 L50.8,213 M45.8,174 L50.8,174 M45.8,136 L50.8,136 M45.8,97.2 L50.8,97.2 M45.8,58.8 L50.8,58.8 M45.8,444 L50.8,444 " fill="none"/></g>
<g id="xMajorTicks" stroke="rgb(0,0,0)" stroke-width="1"><path d="M100,463 L100,477 M199,463 L199,477 M298,463 L298,477 M397,463 L397,477 M496,463 L496,477 M595,463 L595,477 M100,463 L100,477 " fill="none"/></g>
<g id="xTicksValues">
<text x="100" y="455" text-anchor="middle" font-size="12" font-family="Lucida Sans Unicode">0</text>
<text x="199" y="455" text-anchor="middle" font-size="12" font-family="Lucida Sans Unicode">2</text>
<text x="298" y="455" text-anchor="middle" font-size="12" font-family="Lucida Sans Unicode">4</text>
<text x="397" y="455" text-anchor="middle" font-size="12" font-family="Lucida Sans Unicode">6</text>
<text x="496" y="455" text-anchor="middle" font-size="12" font-family="Lucida Sans Unicode">8</text>
<text x="595" y="455" text-anchor="middle" font-size="12" font-family="Lucida Sans Unicode">10</text>
<text x="100" y="455" text-anchor="middle" font-size="12" font-family="Lucida Sans Unicode">0</text></g>
<g id="yTicksValues">
<text x="39.8" y="446" text-anchor="end" font-size="12" font-family="Lucida Sans Unicode">0</text>
<text x="39.8" y="408" text-anchor="end" font-size="12" font-family="Lucida Sans Unicode">10</text>
<text x="39.8" y="369" text-anchor="end" font-size="12" font-family="Lucida Sans Unicode">20</text>
<text x="39.8" y="331" text-anchor="end" font-size="12" font-family="Lucida Sans Unicode">30</text>
<text x="39.8" y="292" text-anchor="end" font-size="12" font-family="Lucida Sans Unicode">40</text>
<text x="39.8" y="254" text-anchor="end" font-size="12" font-family="Lucida Sans Unicode">50</text>
<text x="39.8" y="215" text-anchor="end" font-size="12" font-family="Lucida Sans Unicode">60</text>
<text x="39.8" y="177" text-anchor="end" font-size="12" font-family="Lucida Sans Unicode">70</text>
<text x="39.8" y="138" text-anchor="end" font-size="12" font-family="Lucida Sans Unicode">80</text>
<text x="39.8" y="99.7" text-anchor="end" font-size="12" font-family="Lucida Sans Unicode">90</text>
<text x="39.8" y="61.1" text-anchor="end" font-size="12" font-family="Lucida Sans Unicode">100</text>
<text x="39.8" y="446" text-anchor="end" font-size="12" font-family="Lucida Sans Unicode">0</text></g>
<g id="yLabel">
<text x="14.9" y="261" text-anchor="middle" transform = "rotate(-90 14.9 261 )" font-size="14" font-family="Lucida Sans Unicode"></text></g>
<g id="xLabel">
<text x="323" y="494" text-anchor="middle" font-size="12" font-family="Lucida Sans Unicode">X Axis Units</text></g>
<g id="plotPoints" clip-path="url(#plot_window)"><g stroke="rgb(255,0,0)" fill="rgb(255,255,255)">
<text x="100" y="448" text-anchor="middle" font-size="14" font-family="Lucida Sans Unicode">&#x25CB;</text>
<text x="150" y="444" text-anchor="middle" font-size="14" font-family="Lucida Sans Unicode">&#x25CB;</text>
<text x="199" y="443" text-anchor="middle" font-size="14" font-family="Lucida Sans Unicode">&#x25CB;</text>
<text x="249" y="441" text-anchor="middle" font-size="14" font-family="Lucida Sans Unicode">&#x25CB;</text>
<text x="298" y="440" text-anchor="middle" font-size="14" font-family="Lucida Sans Unicode">&#x25CB;</text>
<text x="348" y="439" text-anchor="middle" font-size="14" font-family="Lucida Sans Unicode">&#x25CB;</text>
<text x="397" y="439" text-anchor="middle" font-size="14" font-family="Lucida Sans Unicode">&#x25CB;</text>
<text x="447" y="438" text-anchor="middle" font-size="14" font-family="Lucida Sans Unicode">&#x25CB;</text>
<text x="496" y="437" text-anchor="middle" font-size="14" font-family="Lucida Sans Unicode">&#x25CB;</text>
<text x="546" y="436" text-anchor="middle" font-size="14" font-family="Lucida Sans Unicode">&#x25CB;</text></g>
<g stroke="rgb(255,165,0)" fill="rgb(255,255,255)">
<text x="100" y="456" text-anchor="middle" font-size="14" font-family="Lucida Sans Unicode">&#x25CB;</text>
<text x="150" y="452" text-anchor="middle" font-size="14" font-family="Lucida Sans Unicode">&#x25CB;</text>
<text x="199" y="440" text-anchor="middle" font-size="14" font-family="Lucida Sans Unicode">&#x25CB;</text>
<text x="249" y="421" text-anchor="middle" font-size="14" font-family="Lucida Sans Unicode">&#x25CB;</text>
<text x="298" y="394" text-anchor="middle" font-size="14" font-family="Lucida Sans Unicode">&#x25CB;</text>
<text x="348" y="359" text-anchor="middle" font-size="14" font-family="Lucida Sans Unicode">&#x25CB;</text>
<text x="397" y="317" text-anchor="middle" font-size="14" font-family="Lucida Sans Unicode">&#x25CB;</text>
<text x="447" y="267" text-anchor="middle" font-size="14" font-family="Lucida Sans Unicode">&#x25CB;</text>
<text x="496" y="209" text-anchor="middle" font-size="14" font-family="Lucida Sans Unicode">&#x25CB;</text>
<text x="546" y="144" text-anchor="middle" font-size="14" font-family="Lucida Sans Unicode">&#x25CB;</text></g>
<g stroke="rgb(255,255,0)" fill="rgb(255,255,255)">
<text x="100" y="449" text-anchor="middle" font-size="5" font-family="Lucida Sans Unicode">&#x25A1;</text>
<text x="150" y="441" text-anchor="middle" font-size="5" font-family="Lucida Sans Unicode">&#x25A1;</text>
<text x="199" y="434" text-anchor="middle" font-size="5" font-family="Lucida Sans Unicode">&#x25A1;</text>
<text x="249" y="426" text-anchor="middle" font-size="5" font-family="Lucida Sans Unicode">&#x25A1;</text>
<text x="298" y="418" text-anchor="middle" font-size="5" font-family="Lucida Sans Unicode">&#x25A1;</text>
<text x="348" y="411" text-anchor="middle" font-size="5" font-family="Lucida Sans Unicode">&#x25A1;</text>
<text x="397" y="403" text-anchor="middle" font-size="5" font-family="Lucida Sans Unicode">&#x25A1;</text>
<text x="447" y="395" text-anchor="middle" font-size="5" font-family="Lucida Sans Unicode">&#x25A1;</text>
<text x="496" y="388" text-anchor="middle" font-size="5" font-family="Lucida Sans Unicode">&#x25A1;</text>
<text x="546" y="380" text-anchor="middle" font-size="5" font-family="Lucida Sans Unicode">&#x25A1;</text></g>
</g>
<g id="legendBackground" stroke="rgb(102,102,84)" fill="rgb(207,202,167)" stroke-width="1"><rect x="601" y="58.8" width="84" height="69"/></g>
<g id="legendPoints"><g stroke="rgb(255,0,0)" fill="rgb(255,255,255)">
<text x="617" y="82.2" text-anchor="middle" font-size="14" font-family="Lucida Sans Unicode">&#x25CB;</text></g>
<g stroke="rgb(255,165,0)" fill="rgb(255,255,255)">
<text x="617" y="96.2" text-anchor="middle" font-size="14" font-family="Lucida Sans Unicode">&#x25CB;</text></g>
<g stroke="rgb(255,255,0)" fill="rgb(255,255,255)">
<text x="617" y="109" text-anchor="middle" font-size="5" font-family="Lucida Sans Unicode">&#x25A1;</text></g>
</g>
<g id="legendText">
<text x="628" y="80" font-size="10" font-family="Lucida Sans Unicode" font-weight="normal">Sqrt(x)</text>
<text x="628" y="94" font-size="10" font-family="Lucida Sans Unicode" font-weight="normal">-2 + x^2</text>
<text x="628" y="108" font-size="10" font-family="Lucida Sans Unicode" font-weight="normal">-1 + 2x</text></g>
<g id="title" fill="rgb(255,255,255)">
<text x="350" y="43.5" text-anchor="middle" font-size="29" font-family="Lucida Sans Unicode" font-weight="normal">Plot of Mathematical Functions</text></g>
<g id="plotXValues"></g>
<g id="plotYValues"></g>
</svg>
