<?xml version="1.0" encoding="UTF-8" standalone="no"?>
<svg width="500" height ="350" version="1.1"
xmlns:svg ="http://www.w3.org/2000/svg"
xmlns:rdf="http://www.w3.org/1999/02/22-rdf-syntax-ns#"
xmlns:cc="http://web.resource.org/cc/"
xmlns:dc="http://purl.org/dc/elements/1.1/"
xmlns ="http://www.w3.org/2000/svg"
>
<!-- SVG plot written using Boost.Plot program (Creator Jacob Voytko) --> 
<!-- Use, modification and distribution of Boost.Plot subject to the --> 
<!-- Boost Software License, Version 1.0.--> 
<!-- (See accompanying file LICENSE_1_0.txt --> 
<!-- or copy at http://www.boost.org/LICENSE_1_0.txt) --> 

<clipPath id="plot_window"><rect x="36.5" y="48.5" width="460" height="256"/></clipPath>
<g id="imageBackground" stroke="rgb(255,255,0)" fill="rgb(255,255,255)" stroke-width="2"><rect x="0" y="0" width="500" height="350"/></g>
<g id="plotBackground" stroke="rgb(119,136,153)" fill="rgb(255,255,255)" stroke-width="2"><rect x="35.5" y="47.5" width="462" height="258"/></g>
<g id="yMinorGrid" stroke="rgb(200,220,255)" stroke-width="0.5"></g>
<g id="yMajorGrid" stroke="rgb(200,220,255)" stroke-width="1"><path d="M37.5,177 L496,177 M37.5,177 L496,177 " fill="none"/></g>
<g id="xMinorGrid" stroke="rgb(200,220,255)" stroke-width="0.5"></g>
<g id="xMajorGrid" stroke="rgb(200,220,255)" stroke-width="1"></g>
<g id="yAxis" stroke="rgb(0,0,0)" stroke-width="1"><line x1="267" y1="47.5" x2="267" y2="320"/><line x1="35.5" y1="47.5" x2="35.5" y2="306"/></g>
<g id="xAxis" stroke="rgb(0,0,0)" stroke-width="1"><line x1="30.5" y1="177" x2="498" y2="177"/><line x1="30.5" y1="306" x2="498" y2="306"/></g>
<g id="yMinorTicks" stroke="rgb(0,0,0)" stroke-width="1"><path d="M33.5,177 L35.5,177 " fill="none"/></g>
<g id="xMinorTicks" stroke="rgb(0,0,0)" stroke-width="1"><path d="M278,306 L278,313 M289,306 L289,313 M300,306 L300,313 M322,306 L322,313 M333,306 L333,313 M344,306 L344,313 M366,306 L366,313 M377,306 L377,313 M388,306 L388,313 M410,306 L410,313 M421,306 L421,313 M432,306 L432,313 M454,306 L454,313 M465,306 L465,313 M476,306 L476,313 M498,306 L498,313 M256,306 L256,313 M245,306 L245,313 M234,306 L234,313 M212,306 L212,313 M201,306 L201,313 M190,306 L190,313 M168,306 L168,313 M157,306 L157,313 M146,306 L146,313 M124,306 L124,313 M113,306 L113,313 M102,306 L102,313 M79.5,306 L79.5,313 M68.5,306 L68.5,313 M57.5,306 L57.5,313 M35.5,306 L35.5,313 " fill="none"/></g>
<g id="yMajorTicks" stroke="rgb(0,0,0)" stroke-width="2"><path d="M30.5,177 L35.5,177 M30.5,177 L35.5,177 " fill="none"/></g>
<g id="xMajorTicks" stroke="rgb(0,0,0)" stroke-width="1"><path d="M267,306 L267,320 M311,306 L311,320 M355,306 L355,320 M399,306 L399,320 M443,306 L443,320 M487,306 L487,320 M267,306 L267,320 M223,306 L223,320 M179,306 L179,320 M135,306 L135,320 M90.5,306 L90.5,320 M46.5,306 L46.5,320 " fill="none"/></g>
<g id="xTicksValues">
<text x="267" y="297" text-anchor="middle" font-size="12" font-family="Lucida Sans Unicode">0</text>
<text x="311" y="297" text-anchor="middle" font-size="12" font-family="Lucida Sans Unicode">2</text>
<text x="355" y="297" text-anchor="middle" font-size="12" font-family="Lucida Sans Unicode">4</text>
<text x="399" y="297" text-anchor="middle" font-size="12" font-family="Lucida Sans Unicode">6</text>
<text x="443" y="297" text-anchor="middle" font-size="12" font-family="Lucida Sans Unicode">8</text>
<text x="487" y="297" text-anchor="middle" font-size="12" font-family="Lucida Sans Unicode">10</text>
<text x="267" y="297" text-anchor="middle" font-size="12" font-family="Lucida Sans Unicode">0</text>
<text x="223" y="297" text-anchor="middle" font-size="12" font-family="Lucida Sans Unicode">-2</text>
<text x="179" y="297" text-anchor="middle" font-size="12" font-family="Lucida Sans Unicode">-4</text>
<text x="135" y="297" text-anchor="middle" font-size="12" font-family="Lucida Sans Unicode">-6</text>
<text x="90.5" y="297" text-anchor="middle" font-size="12" font-family="Lucida Sans Unicode">-8</text>
<text x="46.5" y="297" text-anchor="middle" font-size="12" font-family="Lucida Sans Unicode">-10</text></g>
<g id="yTicksValues">
<text x="41.5" y="179" font-size="12" font-family="Lucida Sans Unicode">0</text>
<text x="41.5" y="179" font-size="12" font-family="Lucida Sans Unicode">0</text></g>
<g id="yLabel">
<text x="16.7" y="177" text-anchor="middle" transform = "rotate(-90 16.7 177 )" font-size="14" font-family="Lucida Sans Unicode">F(x)</text></g>
<g id="xLabel">
<text x="267" y="339" text-anchor="middle" font-size="14" font-family="Lucida Sans Unicode">X Axis Units</text></g>
<g id="plotPoints" clip-path="url(#plot_window)"><g stroke="rgb(0,0,0)" fill="rgb(255,255,255)"><rect x="44" y="186" width="5" height="5"/><rect x="55" y="186" width="5" height="5"/><rect x="66" y="187" width="5" height="5"/><rect x="77" y="188" width="5" height="5"/><rect x="88" y="189" width="5" height="5"/><rect x="99" y="190" width="5" height="5"/><rect x="110" y="191" width="5" height="5"/><rect x="121" y="192" width="5" height="5"/><rect x="132" y="194" width="5" height="5"/><rect x="143" y="195" width="5" height="5"/><rect x="154" y="197" width="5" height="5"/><rect x="165" y="200" width="5" height="5"/><rect x="176" y="203" width="5" height="5"/><rect x="187" y="208" width="5" height="5"/><rect x="198" y="213" width="5" height="5"/><rect x="209" y="221" width="5" height="5"/><rect x="220" y="233" width="5" height="5"/><rect x="231" y="252" width="5" height="5"/><rect x="242" y="291" width="5" height="5"/><rect x="286" y="56.7" width="5" height="5"/><rect x="297" y="95.8" width="5" height="5"/><rect x="308" y="115" width="5" height="5"/><rect x="319" y="127" width="5" height="5"/><rect x="330" y="135" width="5" height="5"/><rect x="341" y="140" width="5" height="5"/><rect x="352" y="145" width="5" height="5"/><rect x="363" y="148" width="5" height="5"/><rect x="374" y="151" width="5" height="5"/><rect x="385" y="153" width="5" height="5"/><rect x="396" y="154" width="5" height="5"/><rect x="407" y="156" width="5" height="5"/><rect x="418" y="157" width="5" height="5"/><rect x="429" y="158" width="5" height="5"/><rect x="440" y="159" width="5" height="5"/><rect x="451" y="160" width="5" height="5"/><rect x="462" y="161" width="5" height="5"/><rect x="473" y="162" width="5" height="5"/><rect x="484" y="162" width="5" height="5"/></g>
</g>
<g id="limitPoints" stroke="rgb(255,0,0)" fill="rgb(255,192,203)"><polygon points=" 262,37.5 272,37.5 267,47.5"/></g>
<g id="title">
<text x="250" y="36" text-anchor="middle" font-size="18" font-family="Lucida Sans Unicode">Plot of 1 / x</text></g>
<g id="plotXValues"></g>
<g id="plotYValues"></g>
</svg>
