<?xml version="1.0" encoding="UTF-8" standalone="no"?>
<svg width="500" height ="350" version="1.1"
xmlns:svg ="http://www.w3.org/2000/svg"
xmlns:rdf="http://www.w3.org/1999/02/22-rdf-syntax-ns#"
xmlns:cc="http://web.resource.org/cc/"
xmlns:dc="http://purl.org/dc/elements/1.1/"
xmlns ="http://www.w3.org/2000/svg"
>
<!-- SVG plot written using Boost.Plot program (Creator Jacob Voytko) --> 
<!-- Use, modification and distribution of Boost.Plot subject to the --> 
<!-- Boost Software License, Version 1.0.--> 
<!-- (See accompanying file LICENSE_1_0.txt --> 
<!-- or copy at http://www.boost.org/LICENSE_1_0.txt) --> 

<clipPath id="plot_window"><rect x="53" y="45" width="420" height="264"/></clipPath>
<g id="imageBackground" stroke="rgb(255,255,0)" fill="rgb(255,255,255)" stroke-width="2"><rect x="0" y="0" width="500" height="350"/></g>
<g id="plotBackground" stroke="rgb(119,136,153)" fill="rgb(255,255,255)" stroke-width="2"><rect x="52" y="44" width="422" height="266"/></g>
<g id="yMinorGrid" stroke="rgb(200,220,255)" stroke-width="0.5"></g>
<g id="yMajorGrid" stroke="rgb(200,220,255)" stroke-width="1"><path d="M54,177 L472,177 M54,177 L472,177 " fill="none"/></g>
<g id="xMinorGrid" stroke="rgb(200,220,255)" stroke-width="0.5"></g>
<g id="xMajorGrid" stroke="rgb(200,220,255)" stroke-width="1"></g>
<g id="yAxis" stroke="rgb(0,0,0)" stroke-width="1"><line x1="263" y1="44" x2="263" y2="324"/><line x1="52" y1="44" x2="52" y2="310"/></g>
<g id="xAxis" stroke="rgb(0,0,0)" stroke-width="1"><line x1="47" y1="177" x2="474" y2="177"/><line x1="47" y1="310" x2="474" y2="310"/></g>
<g id="yMinorTicks" stroke="rgb(0,0,0)" stroke-width="1"><path d="M50,177 L52,177 " fill="none"/></g>
<g id="xMinorTicks" stroke="rgb(0,0,0)" stroke-width="1"><path d="M273,310 L273,317 M283,310 L283,317 M293,310 L293,317 M313,310 L313,317 M323,310 L323,317 M333,310 L333,317 M353,310 L353,317 M363,310 L363,317 M374,310 L374,317 M394,310 L394,317 M404,310 L404,317 M414,310 L414,317 M434,310 L434,317 M444,310 L444,317 M454,310 L454,317 M474,310 L474,317 M253,310 L253,317 M243,310 L243,317 M233,310 L233,317 M213,310 L213,317 M203,310 L203,317 M193,310 L193,317 M173,310 L173,317 M163,310 L163,317 M152,310 L152,317 M132,310 L132,317 M122,310 L122,317 M112,310 L112,317 M92.2,310 L92.2,317 M82.1,310 L82.1,317 M72.1,310 L72.1,317 M52,310 L52,317 " fill="none"/></g>
<g id="yMajorTicks" stroke="rgb(0,0,0)" stroke-width="2"><path d="M47,177 L52,177 M47,177 L52,177 " fill="none"/></g>
<g id="xMajorTicks" stroke="rgb(0,0,0)" stroke-width="1"><path d="M263,310 L263,324 M303,310 L303,324 M343,310 L343,324 M384,310 L384,324 M424,310 L424,324 M464,310 L464,324 M263,310 L263,324 M223,310 L223,324 M183,310 L183,324 M142,310 L142,324 M102,310 L102,324 M62,310 L62,324 " fill="none"/></g>
<g id="xTicksValues">
<text x="263" y="302" text-anchor="middle" font-size="12" font-family="Lucida Sans Unicode">0</text>
<text x="303" y="302" text-anchor="middle" font-size="12" font-family="Lucida Sans Unicode">2</text>
<text x="343" y="302" text-anchor="middle" font-size="12" font-family="Lucida Sans Unicode">4</text>
<text x="384" y="302" text-anchor="middle" font-size="12" font-family="Lucida Sans Unicode">6</text>
<text x="424" y="302" text-anchor="middle" font-size="12" font-family="Lucida Sans Unicode">8</text>
<text x="464" y="302" text-anchor="middle" font-size="12" font-family="Lucida Sans Unicode">10</text>
<text x="263" y="302" text-anchor="middle" font-size="12" font-family="Lucida Sans Unicode">0</text>
<text x="223" y="302" text-anchor="middle" font-size="12" font-family="Lucida Sans Unicode">-2</text>
<text x="183" y="302" text-anchor="middle" font-size="12" font-family="Lucida Sans Unicode">-4</text>
<text x="142" y="302" text-anchor="middle" font-size="12" font-family="Lucida Sans Unicode">-6</text>
<text x="102" y="302" text-anchor="middle" font-size="12" font-family="Lucida Sans Unicode">-8</text>
<text x="62" y="302" text-anchor="middle" font-size="12" font-family="Lucida Sans Unicode">-10</text></g>
<g id="yTicksValues">
<text x="58" y="179" font-size="12" font-family="Lucida Sans Unicode">0</text>
<text x="58" y="179" font-size="12" font-family="Lucida Sans Unicode">0</text></g>
<g id="yLabel">
<text x="33.2" y="177" text-anchor="middle" transform = "rotate(-90 33.2 177 )" font-size="14" font-family="Lucida Sans Unicode">F(x)</text></g>
<g id="xLabel">
<text x="263" y="341" text-anchor="middle" font-size="12" font-family="Lucida Sans Unicode">X Axis Units</text></g>
<g id="plotPoints" clip-path="url(#plot_window)"><g stroke="rgb(0,0,0)" fill="rgb(255,255,255)">
<text x="62" y="191" text-anchor="middle" font-size="5" font-family="Lucida Sans Unicode">&#x25A1;</text>
<text x="72.1" y="191" text-anchor="middle" font-size="5" font-family="Lucida Sans Unicode">&#x25A1;</text>
<text x="82.1" y="192" text-anchor="middle" font-size="5" font-family="Lucida Sans Unicode">&#x25A1;</text>
<text x="92.2" y="193" text-anchor="middle" font-size="5" font-family="Lucida Sans Unicode">&#x25A1;</text>
<text x="102" y="194" text-anchor="middle" font-size="5" font-family="Lucida Sans Unicode">&#x25A1;</text>
<text x="112" y="195" text-anchor="middle" font-size="5" font-family="Lucida Sans Unicode">&#x25A1;</text>
<text x="122" y="196" text-anchor="middle" font-size="5" font-family="Lucida Sans Unicode">&#x25A1;</text>
<text x="132" y="197" text-anchor="middle" font-size="5" font-family="Lucida Sans Unicode">&#x25A1;</text>
<text x="142" y="199" text-anchor="middle" font-size="5" font-family="Lucida Sans Unicode">&#x25A1;</text>
<text x="152" y="201" text-anchor="middle" font-size="5" font-family="Lucida Sans Unicode">&#x25A1;</text>
<text x="163" y="203" text-anchor="middle" font-size="5" font-family="Lucida Sans Unicode">&#x25A1;</text>
<text x="173" y="205" text-anchor="middle" font-size="5" font-family="Lucida Sans Unicode">&#x25A1;</text>
<text x="183" y="209" text-anchor="middle" font-size="5" font-family="Lucida Sans Unicode">&#x25A1;</text>
<text x="193" y="213" text-anchor="middle" font-size="5" font-family="Lucida Sans Unicode">&#x25A1;</text>
<text x="203" y="219" text-anchor="middle" font-size="5" font-family="Lucida Sans Unicode">&#x25A1;</text>
<text x="213" y="227" text-anchor="middle" font-size="5" font-family="Lucida Sans Unicode">&#x25A1;</text>
<text x="223" y="239" text-anchor="middle" font-size="5" font-family="Lucida Sans Unicode">&#x25A1;</text>
<text x="233" y="259" text-anchor="middle" font-size="5" font-family="Lucida Sans Unicode">&#x25A1;</text>
<text x="243" y="300" text-anchor="middle" font-size="5" font-family="Lucida Sans Unicode">&#x25A1;</text>
<text x="283" y="57.7" text-anchor="middle" font-size="5" font-family="Lucida Sans Unicode">&#x25A1;</text>
<text x="293" y="98" text-anchor="middle" font-size="5" font-family="Lucida Sans Unicode">&#x25A1;</text>
<text x="303" y="118" text-anchor="middle" font-size="5" font-family="Lucida Sans Unicode">&#x25A1;</text>
<text x="313" y="130" text-anchor="middle" font-size="5" font-family="Lucida Sans Unicode">&#x25A1;</text>
<text x="323" y="138" text-anchor="middle" font-size="5" font-family="Lucida Sans Unicode">&#x25A1;</text>
<text x="333" y="144" text-anchor="middle" font-size="5" font-family="Lucida Sans Unicode">&#x25A1;</text>
<text x="343" y="148" text-anchor="middle" font-size="5" font-family="Lucida Sans Unicode">&#x25A1;</text>
<text x="353" y="152" text-anchor="middle" font-size="5" font-family="Lucida Sans Unicode">&#x25A1;</text>
<text x="363" y="154" text-anchor="middle" font-size="5" font-family="Lucida Sans Unicode">&#x25A1;</text>
<text x="374" y="157" text-anchor="middle" font-size="5" font-family="Lucida Sans Unicode">&#x25A1;</text>
<text x="384" y="158" text-anchor="middle" font-size="5" font-family="Lucida Sans Unicode">&#x25A1;</text>
<text x="394" y="160" text-anchor="middle" font-size="5" font-family="Lucida Sans Unicode">&#x25A1;</text>
<text x="404" y="161" text-anchor="middle" font-size="5" font-family="Lucida Sans Unicode">&#x25A1;</text>
<text x="414" y="162" text-anchor="middle" font-size="5" font-family="Lucida Sans Unicode">&#x25A1;</text>
<text x="424" y="163" text-anchor="middle" font-size="5" font-family="Lucida Sans Unicode">&#x25A1;</text>
<text x="434" y="164" text-anchor="middle" font-size="5" font-family="Lucida Sans Unicode">&#x25A1;</text>
<text x="444" y="165" text-anchor="middle" font-size="5" font-family="Lucida Sans Unicode">&#x25A1;</text>
<text x="454" y="166" text-anchor="middle" font-size="5" font-family="Lucida Sans Unicode">&#x25A1;</text>
<text x="464" y="167" text-anchor="middle" font-size="5" font-family="Lucida Sans Unicode">&#x25A1;</text></g>
</g>
<g id="limitPoints" stroke="rgb(255,0,0)" fill="rgb(255,192,203)"><polygon points=" 258,34 268,34 263,44"/></g>
<g id="title">
<text x="250" y="27" text-anchor="middle" font-size="18" font-family="Lucida Sans Unicode" font-weight="normal">Plot of 1 / x</text></g>
<g id="plotXValues"></g>
<g id="plotYValues"></g>
</svg>
