<?xml version="1.0" encoding="UTF-8" standalone="no"?>
<svg width="500" height ="400" version="1.1"
xmlns:svg ="http://www.w3.org/2000/svg"
xmlns:rdf="http://www.w3.org/1999/02/22-rdf-syntax-ns#"
xmlns:cc="http://web.resource.org/cc/"
xmlns:dc="http://purl.org/dc/elements/1.1/"
xmlns ="http://www.w3.org/2000/svg"
>
<!-- SVG plot written using Boost.Plot program (Creator Jacob Voytko) --> 
<!-- Use, modification and distribution of Boost.Plot subject to the --> 
<!-- Boost Software License, Version 1.0.--> 
<!-- (See accompanying file LICENSE_1_0.txt --> 
<!-- or copy at http://www.boost.org/LICENSE_1_0.txt) --> 

<clipPath id="plot_window"><rect x="46.4" y="45" width="349" height="323"/></clipPath>
<g id="imageBackground" stroke="rgb(255,255,0)" fill="rgb(255,255,255)" stroke-width="2"><rect x="0" y="0" width="500" height="400"/></g>
<g id="plotBackground" stroke="rgb(119,136,153)" fill="rgb(255,255,255)" stroke-width="2"><rect x="45.4" y="44" width="351" height="325"/></g>
<g id="yMinorGrid" stroke="rgb(200,220,255)" stroke-width="0.5"></g>
<g id="yMajorGrid" stroke="rgb(200,220,255)" stroke-width="1"><path d="M47.4,369 L394,369 M47.4,304 L394,304 M47.4,239 L394,239 M47.4,174 L394,174 M47.4,109 L394,109 M47.4,44 L394,44 M47.4,369 L394,369 " fill="none"/></g>
<g id="xMinorGrid" stroke="rgb(200,220,255)" stroke-width="0.5"></g>
<g id="xMajorGrid" stroke="rgb(200,220,255)" stroke-width="1"><path d="M74.6,44 L74.6,369 M133,44 L133,369 M191,44 L191,369 M250,44 L250,369 M308,44 L308,369 M367,44 L367,369 M74.6,44 L74.6,369 " fill="none"/></g>
<g id="yAxis" stroke="rgb(0,0,0)" stroke-width="1"><line x1="74.6" y1="44" x2="74.6" y2="374"/><line x1="45.4" y1="44" x2="45.4" y2="369"/></g>
<g id="xAxis" stroke="rgb(0,0,0)" stroke-width="1"><line x1="40.4" y1="369" x2="396" y2="369"/><line x1="40.4" y1="369" x2="396" y2="369"/></g>
<g id="yMinorTicks" stroke="rgb(0,0,0)" stroke-width="1"><path d="M43.4,356 L45.4,356 M43.4,343 L45.4,343 M43.4,330 L45.4,330 M43.4,317 L45.4,317 M43.4,291 L45.4,291 M43.4,278 L45.4,278 M43.4,265 L45.4,265 M43.4,252 L45.4,252 M43.4,226 L45.4,226 M43.4,213 L45.4,213 M43.4,200 L45.4,200 M43.4,187 L45.4,187 M43.4,161 L45.4,161 M43.4,148 L45.4,148 M43.4,135 L45.4,135 M43.4,122 L45.4,122 M43.4,96 L45.4,96 M43.4,83 L45.4,83 M43.4,70 L45.4,70 M43.4,57 L45.4,57 M43.4,369 L45.4,369 " fill="none"/></g>
<g id="xMinorTicks" stroke="rgb(0,0,0)" stroke-width="1"><path d="M86.3,369 L86.3,371 M98,369 L98,371 M110,369 L110,371 M121,369 L121,371 M145,369 L145,371 M156,369 L156,371 M168,369 L168,371 M180,369 L180,371 M203,369 L203,371 M215,369 L215,371 M227,369 L227,371 M238,369 L238,371 M262,369 L262,371 M273,369 L273,371 M285,369 L285,371 M297,369 L297,371 M320,369 L320,371 M332,369 L332,371 M343,369 L343,371 M355,369 L355,371 M378,369 L378,371 M390,369 L390,371 M62.9,369 L62.9,371 M51.2,369 L51.2,371 " fill="none"/></g>
<g id="yMajorTicks" stroke="rgb(0,0,0)" stroke-width="2"><path d="M40.4,369 L45.4,369 M40.4,304 L45.4,304 M40.4,239 L45.4,239 M40.4,174 L45.4,174 M40.4,109 L45.4,109 M40.4,44 L45.4,44 M40.4,369 L45.4,369 " fill="none"/></g>
<g id="xMajorTicks" stroke="rgb(0,0,0)" stroke-width="2"><path d="M74.6,369 L74.6,374 M133,369 L133,374 M191,369 L191,374 M250,369 L250,374 M308,369 L308,374 M367,369 L367,374 M74.6,369 L74.6,374 " fill="none"/></g>
<g id="xTicksValues">
<text x="74.6" y="390" text-anchor="middle" font-size="12" font-family="Lucida Sans Unicode">0</text>
<text x="133" y="390" text-anchor="middle" font-size="12" font-family="Lucida Sans Unicode">2</text>
<text x="191" y="390" text-anchor="middle" font-size="12" font-family="Lucida Sans Unicode">4</text>
<text x="250" y="390" text-anchor="middle" font-size="12" font-family="Lucida Sans Unicode">6</text>
<text x="308" y="390" text-anchor="middle" font-size="12" font-family="Lucida Sans Unicode">8</text>
<text x="367" y="390" text-anchor="middle" font-size="12" font-family="Lucida Sans Unicode">10</text>
<text x="74.6" y="390" text-anchor="middle" font-size="12" font-family="Lucida Sans Unicode">0</text></g>
<g id="yTicksValues">
<text x="34.4" y="371" text-anchor="end" font-size="12" font-family="Lucida Sans Unicode">0</text>
<text x="34.4" y="306" text-anchor="end" font-size="12" font-family="Lucida Sans Unicode">2</text>
<text x="34.4" y="241" text-anchor="end" font-size="12" font-family="Lucida Sans Unicode">4</text>
<text x="34.4" y="176" text-anchor="end" font-size="12" font-family="Lucida Sans Unicode">6</text>
<text x="34.4" y="111" text-anchor="end" font-size="12" font-family="Lucida Sans Unicode">8</text>
<text x="34.4" y="46.4" text-anchor="end" font-size="12" font-family="Lucida Sans Unicode">10</text>
<text x="34.4" y="371" text-anchor="end" font-size="12" font-family="Lucida Sans Unicode">0</text></g>
<g id="yLabel">
<text x="14.9" y="207" text-anchor="middle" transform = "rotate(-90 14.9 207 )" font-size="14" font-family="Lucida Sans Unicode"></text></g>
<g id="xLabel">
<text x="221" y="402" text-anchor="middle" font-size="12" font-family="Lucida Sans Unicode"></text></g>
<g id="plotPoints" clip-path="url(#plot_window)"><g stroke="rgb(0,0,255)" fill="rgb(255,255,255)">
<text x="104" y="268" text-anchor="middle" font-size="10" font-family="Lucida Sans Unicode">&#x25CB;</text>
<text x="133" y="197" text-anchor="middle" font-size="10" font-family="Lucida Sans Unicode">&#x25CB;</text>
<text x="288" y="76.5" text-anchor="middle" font-size="10" font-family="Lucida Sans Unicode">&#x25CB;</text></g>
<g stroke="rgb(255,165,0)" fill="rgb(255,255,255)">
<text x="165" y="174" text-anchor="middle" font-size="10" font-family="Lucida Sans Unicode">&#x25CB;</text>
<text x="232" y="145" text-anchor="middle" font-size="10" font-family="Lucida Sans Unicode">&#x25CB;</text></g>
<g stroke="rgb(255,0,0)" fill="rgb(255,255,255)">
<text x="118" y="268" text-anchor="middle" font-size="10" font-family="Lucida Sans Unicode">&#x25CB;</text>
<text x="142" y="177" text-anchor="middle" font-size="10" font-family="Lucida Sans Unicode">&#x25CB;</text>
<text x="317" y="239" text-anchor="middle" font-size="10" font-family="Lucida Sans Unicode">&#x25CB;</text></g>
</g>
<g id="legendBackground" stroke="rgb(255,255,0)" fill="rgb(255,255,255)" stroke-width="1"><rect x="402" y="44" width="84" height="77.6"/></g>
<g id="legendPoints"><g stroke="rgb(0,0,255)" fill="rgb(255,255,255)" stroke-width="2">
<text x="415" y="80.2" text-anchor="middle" font-size="10" font-family="Lucida Sans Unicode">&#x25CB;</text></g>
<g stroke="rgb(255,165,0)" fill="rgb(255,255,255)" stroke-width="2">
<text x="415" y="94.6" text-anchor="middle" font-size="10" font-family="Lucida Sans Unicode">&#x25CB;</text></g>
<g stroke="rgb(255,0,0)" fill="rgb(255,255,255)" stroke-width="2">
<text x="415" y="109" text-anchor="middle" font-size="10" font-family="Lucida Sans Unicode">&#x25CB;</text></g>
</g>
<g id="legendText">
<text x="444" y="62" text-anchor="middle" font-family="Lucida Sans Unicode" font-weight="normal">Races</text>
<text x="420" y="77" font-size="10" font-family="Lucida Sans Unicode" font-weight="normal">Series 1</text>
<text x="420" y="91.4" font-size="10" font-family="Lucida Sans Unicode" font-weight="normal">Series 2</text>
<text x="420" y="106" font-size="10" font-family="Lucida Sans Unicode" font-weight="normal">Series 3</text></g>
<g id="title">
<text x="250" y="27" text-anchor="middle" font-size="18" font-family="Lucida Sans Unicode" font-weight="normal">Race Times</text></g>
<g id="plotXValues"></g>
<g id="plotYValues"></g>
</svg>
