<?xml version="1.0" encoding="UTF-8" standalone="no"?>
<svg width="500" height ="400" version="1.1"
xmlns:svg ="http://www.w3.org/2000/svg"
xmlns:rdf="http://www.w3.org/1999/02/22-rdf-syntax-ns#"
xmlns:cc="http://web.resource.org/cc/"
xmlns:dc="http://purl.org/dc/elements/1.1/"
xmlns ="http://www.w3.org/2000/svg"
>
<!-- SVG plot written using Boost.Plot program (Creator Jacob Voytko) --> 
<!-- Use, modification and distribution of Boost.Plot subject to the --> 
<!-- Boost Software License, Version 1.0.--> 
<!-- (See accompanying file LICENSE_1_0.txt --> 
<!-- or copy at http://www.boost.org/LICENSE_1_0.txt) --> 

<clipPath id="plot_window">	<rect x="53.6" y="40.5" width="340" height="328"/>
</clipPath>
<g id="imageBackground" stroke="rgb(0,0,0)" fill="rgb(255,255,255)" stroke-width="2">
	<rect x="0" y="0" width="500" height="400"/>
</g>
<g id="plotBackground" stroke="rgb(119,136,153)" fill="rgb(255,255,255)" stroke-width="2">
	<rect x="52.6" y="39.5" width="342" height="330"/>
</g>
<g id="yMinorGrid" stroke="rgb(211,211,211)" stroke-width="0.5">
<path d="M54.6,198 L393,198 M54.6,191 L393,191 M54.6,184 L393,184 M54.6,178 L393,178 M54.6,165 L393,165 M54.6,158 L393,158 M54.6,152 L393,152 M54.6,145 L393,145 M54.6,132 L393,132 M54.6,125 L393,125 M54.6,119 L393,119 M54.6,112 L393,112 M54.6,98.8 L393,98.8 M54.6,92.2 L393,92.2 M54.6,85.6 L393,85.6 M54.6,79 L393,79 M54.6,65.9 L393,65.9 M54.6,59.3 L393,59.3 M54.6,52.7 L393,52.7 M54.6,46.1 L393,46.1 M54.6,204 L393,204 M54.6,211 L393,211 M54.6,217 L393,217 M54.6,224 L393,224 M54.6,231 L393,231 M54.6,237 L393,237 M54.6,244 L393,244 M54.6,250 L393,250 M54.6,257 L393,257 M54.6,264 L393,264 M54.6,270 L393,270 M54.6,270 L393,270 M54.6,277 L393,277 M54.6,283 L393,283 M54.6,290 L393,290 M54.6,297 L393,297 M54.6,303 L393,303 M54.6,310 L393,310 M54.6,316 L393,316 M54.6,323 L393,323 M54.6,329 L393,329 M54.6,336 L393,336 M54.6,343 L393,343 M54.6,349 L393,349 M54.6,356 L393,356 M54.6,362 L393,362 M54.6,369 L393,369 " fill="none"/></g>
<g id="yMajorGrid" stroke="rgb(0,0,255)" stroke-width="1">
<path d="M54.6,204 L393,204 M54.6,171 L393,171 M54.6,138 L393,138 M54.6,105 L393,105 M54.6,72.4 L393,72.4 M54.6,39.5 L393,39.5 M54.6,204 L393,204 M54.6,237 L393,237 M54.6,270 L393,270 M54.6,303 L393,303 M54.6,336 L393,336 M54.6,369 L393,369 " fill="none"/></g>
<g id="xMinorGrid" stroke="rgb(200,220,255)" stroke-width="0.5">
</g>
<g id="xMajorGrid" stroke="rgb(200,220,255)" stroke-width="1">
</g>
<g id="yAxis" stroke="rgb(0,0,0)" stroke-width="1">
<line x1="81.1" y1="39.5" x2="81.1" y2="374"/><line x1="52.6" y1="39.5" x2="52.6" y2="369"/></g>
<g id="xAxis" stroke="rgb(0,0,0)" stroke-width="1">
<line x1="47.6" y1="204" x2="395" y2="204"/><line x1="47.6" y1="369" x2="395" y2="369"/></g>
<g id="yMinorTicks" stroke="rgb(0,0,0)" stroke-width="1">
<path d="M50.6,198 L52.6,198 M50.6,191 L52.6,191 M50.6,184 L52.6,184 M50.6,178 L52.6,178 M50.6,165 L52.6,165 M50.6,158 L52.6,158 M50.6,152 L52.6,152 M50.6,145 L52.6,145 M50.6,132 L52.6,132 M50.6,125 L52.6,125 M50.6,119 L52.6,119 M50.6,112 L52.6,112 M50.6,98.8 L52.6,98.8 M50.6,92.2 L52.6,92.2 M50.6,85.6 L52.6,85.6 M50.6,79 L52.6,79 M50.6,65.9 L52.6,65.9 M50.6,59.3 L52.6,59.3 M50.6,52.7 L52.6,52.7 M50.6,46.1 L52.6,46.1 M50.6,204 L52.6,204 M50.6,211 L52.6,211 M50.6,217 L52.6,217 M50.6,224 L52.6,224 M50.6,231 L52.6,231 M50.6,237 L52.6,237 M50.6,244 L52.6,244 M50.6,250 L52.6,250 M50.6,257 L52.6,257 M50.6,264 L52.6,264 M50.6,270 L52.6,270 M50.6,270 L52.6,270 M50.6,277 L52.6,277 M50.6,283 L52.6,283 M50.6,290 L52.6,290 M50.6,297 L52.6,297 M50.6,303 L52.6,303 M50.6,310 L52.6,310 M50.6,316 L52.6,316 M50.6,323 L52.6,323 M50.6,329 L52.6,329 M50.6,336 L52.6,336 M50.6,343 L52.6,343 M50.6,349 L52.6,349 M50.6,356 L52.6,356 M50.6,362 L52.6,362 M50.6,369 L52.6,369 " fill="none"/></g>
<g id="xMinorTicks" stroke="rgb(0,0,0)" stroke-width="1">
<path d="M92.5,369 L92.5,371 M104,369 L104,371 M115,369 L115,371 M127,369 L127,371 M150,369 L150,371 M161,369 L161,371 M172,369 L172,371 M184,369 L184,371 M207,369 L207,371 M218,369 L218,371 M230,369 L230,371 M241,369 L241,371 M264,369 L264,371 M275,369 L275,371 M287,369 L287,371 M298,369 L298,371 M321,369 L321,371 M332,369 L332,371 M344,369 L344,371 M355,369 L355,371 M378,369 L378,371 M389,369 L389,371 M69.7,369 L69.7,371 M58.3,369 L58.3,371 " fill="none"/></g>
<g id="yMajorTicks" stroke="rgb(0,0,0)" stroke-width="2">
<path d="M47.6,204 L52.6,204 M47.6,171 L52.6,171 M47.6,138 L52.6,138 M47.6,105 L52.6,105 M47.6,72.4 L52.6,72.4 M47.6,39.5 L52.6,39.5 M47.6,204 L52.6,204 M47.6,237 L52.6,237 M47.6,270 L52.6,270 M47.6,303 L52.6,303 M47.6,336 L52.6,336 M47.6,369 L52.6,369 " fill="none"/></g>
<g id="xMajorTicks" stroke="rgb(0,0,0)" stroke-width="2">
<path d="M81.1,369 L81.1,374 M138,369 L138,374 M195,369 L195,374 M252,369 L252,374 M309,369 L309,374 M366,369 L366,374 M81.1,369 L81.1,374 " fill="none"/></g>
<g id="xTicksValues">
	<text x="81.1" y="390" text-anchor="middle" font-size="12" font-family="Lucida Sans Unicode">0</text>
	<text x="138" y="390" text-anchor="middle" font-size="12" font-family="Lucida Sans Unicode">2</text>
	<text x="195" y="390" text-anchor="middle" font-size="12" font-family="Lucida Sans Unicode">4</text>
	<text x="252" y="390" text-anchor="middle" font-size="12" font-family="Lucida Sans Unicode">6</text>
	<text x="309" y="390" text-anchor="middle" font-size="12" font-family="Lucida Sans Unicode">8</text>
	<text x="366" y="390" text-anchor="middle" font-size="12" font-family="Lucida Sans Unicode">10</text>
	<text x="81.1" y="390" text-anchor="middle" font-size="12" font-family="Lucida Sans Unicode">0</text>
</g>
<g id="yTicksValues">
	<text x="41.6" y="207" text-anchor="end" font-size="12" font-family="Lucida Sans Unicode">0</text>
	<text x="41.6" y="174" text-anchor="end" font-size="12" font-family="Lucida Sans Unicode">2</text>
	<text x="41.6" y="141" text-anchor="end" font-size="12" font-family="Lucida Sans Unicode">4</text>
	<text x="41.6" y="108" text-anchor="end" font-size="12" font-family="Lucida Sans Unicode">6</text>
	<text x="41.6" y="74.8" text-anchor="end" font-size="12" font-family="Lucida Sans Unicode">8</text>
	<text x="41.6" y="41.9" text-anchor="end" font-size="12" font-family="Lucida Sans Unicode">10</text>
	<text x="41.6" y="207" text-anchor="end" font-size="12" font-family="Lucida Sans Unicode">0</text>
	<text x="41.6" y="240" text-anchor="end" font-size="12" font-family="Lucida Sans Unicode">-2</text>
	<text x="41.6" y="273" text-anchor="end" font-size="12" font-family="Lucida Sans Unicode">-4</text>
	<text x="41.6" y="306" text-anchor="end" font-size="12" font-family="Lucida Sans Unicode">-6</text>
	<text x="41.6" y="338" text-anchor="end" font-size="12" font-family="Lucida Sans Unicode">-8</text>
	<text x="41.6" y="371" text-anchor="end" font-size="12" font-family="Lucida Sans Unicode">-10</text>
</g>
<g id="yLabel">
	<text x="14.9" y="204" text-anchor="middle" transform="rotate(upward 14.9 204)" font-size="14" font-family="Lucida Sans Unicode"></text>
</g>
<g id="xLabel">
	<text x="224" y="402" text-anchor="middle" font-size="12" font-family="Lucida Sans Unicode"></text>
</g>
<g id="plotPoints" clip-path="url(#plot_window)">
<g stroke="rgb(0,0,255)" fill="rgb(255,0,0)">
	<text x="110" y="156" text-anchor="middle" font-size="14" font-family="Lucida Sans Unicode">&#x25CF;</text>
	<text x="138" y="120" text-anchor="middle" font-size="14" font-family="Lucida Sans Unicode">&#x25CF;</text>
	<text x="289" y="58.6" text-anchor="middle" font-size="14" font-family="Lucida Sans Unicode">&#x25CF;</text>
</g>
<g stroke="rgb(255,165,0)" fill="rgb(255,255,255)">
	<text x="170" y="108" text-anchor="middle" font-size="14" font-family="Lucida Sans Unicode">&#x25CF;</text>
	<text x="235" y="93.2" text-anchor="middle" font-size="14" font-family="Lucida Sans Unicode">&#x25CF;</text>
</g>
</g>
<g id="legendBackground" stroke="rgb(255,255,0)" fill="rgb(255,255,255)" stroke-width="1">
	<rect x="401" y="39.5" width="85" height="46.7"/>
</g>
<g id="legendPoints">
<g stroke="rgb(0,0,255)" fill="rgb(255,0,0)">
	<text x="415" y="60.9" text-anchor="middle" font-size="14" font-family="Lucida Sans Unicode">&#x25CF;</text>
</g>
<g stroke="rgb(255,165,0)" fill="rgb(255,255,255)">
	<text x="415" y="74.9" text-anchor="middle" font-size="14" font-family="Lucida Sans Unicode">&#x25CF;</text>
</g>
</g>
<g id="legendText">
	<text x="424" y="58.7" font-size="10" font-family="Lucida Sans Unicode" font-weight="normal" textLength="49.2">Series 1</text>
	<text x="424" y="72.7" font-size="10" font-family="Lucida Sans Unicode" font-weight="normal" textLength="49.2">Series 2</text>
</g>
<g id="title">
	<text x="250" y="27" text-anchor="middle" font-size="18" font-family="Lucida Sans Unicode" font-weight="normal">Race Times</text>
</g>
<g id="plotXValues">
</g>
<g id="plotYValues">
</g>
</svg>
