<?xml version="1.0" encoding="UTF-8" standalone="no"?>
<svg width="500" height ="400" version="1.1"
xmlns:svg ="http://www.w3.org/2000/svg"
xmlns:rdf="http://www.w3.org/1999/02/22-rdf-syntax-ns#"
xmlns:cc="http://web.resource.org/cc/"
xmlns:dc="http://purl.org/dc/elements/1.1/"
xmlns ="http://www.w3.org/2000/svg"
>
<!-- SVG plot written using Boost.Plot program (Creator Jacob Voytko) --> 
<!-- Use, modification and distribution of Boost.Plot subject to the --> 
<!-- Boost Software License, Version 1.0.--> 
<!-- (See accompanying file LICENSE_1_0.txt --> 
<!-- or copy at http://www.boost.org/LICENSE_1_0.txt) --> 

<clipPath id="plot_window"><rect x="53.6" y="45" width="341" height="323"/></clipPath>
<g id="imageBackground" stroke="rgb(0,0,0)" fill="rgb(255,255,255)" stroke-width="2"><rect x="0" y="0" width="500" height="400"/></g>
<g id="plotBackground" stroke="rgb(119,136,153)" fill="rgb(255,255,255)" stroke-width="2"><rect x="52.6" y="44" width="343" height="325"/></g>
<g id="yMinorGrid" stroke="rgb(211,211,211)" stroke-width="0.5"><path d="M54.6,200 L394,200 M54.6,194 L394,194 M54.6,187 L394,187 M54.6,181 L394,181 M54.6,168 L394,168 M54.6,161 L394,161 M54.6,155 L394,155 M54.6,148 L394,148 M54.6,135 L394,135 M54.6,129 L394,129 M54.6,122 L394,122 M54.6,115 L394,115 M54.6,103 L394,103 M54.6,96 L394,96 M54.6,89.5 L394,89.5 M54.6,83 L394,83 M54.6,70 L394,70 M54.6,63.5 L394,63.5 M54.6,57 L394,57 M54.6,50.5 L394,50.5 M54.6,207 L394,207 M54.6,213 L394,213 M54.6,220 L394,220 M54.6,226 L394,226 M54.6,233 L394,233 M54.6,239 L394,239 M54.6,246 L394,246 M54.6,252 L394,252 M54.6,259 L394,259 M54.6,265 L394,265 M54.6,272 L394,272 M54.6,272 L394,272 M54.6,278 L394,278 M54.6,285 L394,285 M54.6,291 L394,291 M54.6,298 L394,298 M54.6,304 L394,304 M54.6,311 L394,311 M54.6,317 L394,317 M54.6,324 L394,324 M54.6,330 L394,330 M54.6,337 L394,337 M54.6,343 L394,343 M54.6,350 L394,350 M54.6,356 L394,356 M54.6,363 L394,363 M54.6,369 L394,369 " fill="none"/></g>
<g id="yMajorGrid" stroke="rgb(0,0,255)" stroke-width="1"><path d="M54.6,207 L394,207 M54.6,174 L394,174 M54.6,142 L394,142 M54.6,109 L394,109 M54.6,76.5 L394,76.5 M54.6,44 L394,44 M54.6,207 L394,207 M54.6,239 L394,239 M54.6,272 L394,272 M54.6,304 L394,304 M54.6,337 L394,337 M54.6,369 L394,369 " fill="none"/></g>
<g id="xMinorGrid" stroke="rgb(200,220,255)" stroke-width="0.5"></g>
<g id="xMajorGrid" stroke="rgb(200,220,255)" stroke-width="1"></g>
<g id="yAxis" stroke="rgb(0,0,0)" stroke-width="1"><line x1="81.2" y1="44" x2="81.2" y2="374"/><line x1="52.6" y1="44" x2="52.6" y2="369"/></g>
<g id="xAxis" stroke="rgb(0,0,0)" stroke-width="1"><line x1="47.6" y1="207" x2="396" y2="207"/><line x1="47.6" y1="369" x2="396" y2="369"/></g>
<g id="yMinorTicks" stroke="rgb(0,0,0)" stroke-width="1"><path d="M50.6,200 L52.6,200 M50.6,194 L52.6,194 M50.6,187 L52.6,187 M50.6,181 L52.6,181 M50.6,168 L52.6,168 M50.6,161 L52.6,161 M50.6,155 L52.6,155 M50.6,148 L52.6,148 M50.6,135 L52.6,135 M50.6,129 L52.6,129 M50.6,122 L52.6,122 M50.6,115 L52.6,115 M50.6,103 L52.6,103 M50.6,96 L52.6,96 M50.6,89.5 L52.6,89.5 M50.6,83 L52.6,83 M50.6,70 L52.6,70 M50.6,63.5 L52.6,63.5 M50.6,57 L52.6,57 M50.6,50.5 L52.6,50.5 M50.6,207 L52.6,207 M50.6,213 L52.6,213 M50.6,220 L52.6,220 M50.6,226 L52.6,226 M50.6,233 L52.6,233 M50.6,239 L52.6,239 M50.6,246 L52.6,246 M50.6,252 L52.6,252 M50.6,259 L52.6,259 M50.6,265 L52.6,265 M50.6,272 L52.6,272 M50.6,272 L52.6,272 M50.6,278 L52.6,278 M50.6,285 L52.6,285 M50.6,291 L52.6,291 M50.6,298 L52.6,298 M50.6,304 L52.6,304 M50.6,311 L52.6,311 M50.6,317 L52.6,317 M50.6,324 L52.6,324 M50.6,330 L52.6,330 M50.6,337 L52.6,337 M50.6,343 L52.6,343 M50.6,350 L52.6,350 M50.6,356 L52.6,356 M50.6,363 L52.6,363 M50.6,369 L52.6,369 " fill="none"/></g>
<g id="xMinorTicks" stroke="rgb(0,0,0)" stroke-width="1"><path d="M92.7,369 L92.7,371 M104,369 L104,371 M116,369 L116,371 M127,369 L127,371 M150,369 L150,371 M161,369 L161,371 M173,369 L173,371 M184,369 L184,371 M207,369 L207,371 M219,369 L219,371 M230,369 L230,371 M241,369 L241,371 M264,369 L264,371 M276,369 L276,371 M287,369 L287,371 M299,369 L299,371 M322,369 L322,371 M333,369 L333,371 M344,369 L344,371 M356,369 L356,371 M379,369 L379,371 M390,369 L390,371 M69.8,369 L69.8,371 M58.3,369 L58.3,371 " fill="none"/></g>
<g id="yMajorTicks" stroke="rgb(0,0,0)" stroke-width="2"><path d="M47.6,207 L52.6,207 M47.6,174 L52.6,174 M47.6,142 L52.6,142 M47.6,109 L52.6,109 M47.6,76.5 L52.6,76.5 M47.6,44 L52.6,44 M47.6,207 L52.6,207 M47.6,239 L52.6,239 M47.6,272 L52.6,272 M47.6,304 L52.6,304 M47.6,337 L52.6,337 M47.6,369 L52.6,369 " fill="none"/></g>
<g id="xMajorTicks" stroke="rgb(0,0,0)" stroke-width="2"><path d="M81.2,369 L81.2,374 M138,369 L138,374 M196,369 L196,374 M253,369 L253,374 M310,369 L310,374 M367,369 L367,374 M81.2,369 L81.2,374 " fill="none"/></g>
<g id="xTicksValues">
<text x="81.2" y="390" text-anchor="middle" font-size="12" font-family="Lucida Sans Unicode">0</text>
<text x="138" y="390" text-anchor="middle" font-size="12" font-family="Lucida Sans Unicode">2</text>
<text x="196" y="390" text-anchor="middle" font-size="12" font-family="Lucida Sans Unicode">4</text>
<text x="253" y="390" text-anchor="middle" font-size="12" font-family="Lucida Sans Unicode">6</text>
<text x="310" y="390" text-anchor="middle" font-size="12" font-family="Lucida Sans Unicode">8</text>
<text x="367" y="390" text-anchor="middle" font-size="12" font-family="Lucida Sans Unicode">10</text>
<text x="81.2" y="390" text-anchor="middle" font-size="12" font-family="Lucida Sans Unicode">0</text></g>
<g id="yTicksValues">
<text x="41.6" y="209" text-anchor="end" font-size="12" font-family="Lucida Sans Unicode">0</text>
<text x="41.6" y="176" text-anchor="end" font-size="12" font-family="Lucida Sans Unicode">2</text>
<text x="41.6" y="144" text-anchor="end" font-size="12" font-family="Lucida Sans Unicode">4</text>
<text x="41.6" y="111" text-anchor="end" font-size="12" font-family="Lucida Sans Unicode">6</text>
<text x="41.6" y="78.9" text-anchor="end" font-size="12" font-family="Lucida Sans Unicode">8</text>
<text x="41.6" y="46.4" text-anchor="end" font-size="12" font-family="Lucida Sans Unicode">10</text>
<text x="41.6" y="209" text-anchor="end" font-size="12" font-family="Lucida Sans Unicode">0</text>
<text x="41.6" y="241" text-anchor="end" font-size="12" font-family="Lucida Sans Unicode">-2</text>
<text x="41.6" y="274" text-anchor="end" font-size="12" font-family="Lucida Sans Unicode">-4</text>
<text x="41.6" y="306" text-anchor="end" font-size="12" font-family="Lucida Sans Unicode">-6</text>
<text x="41.6" y="339" text-anchor="end" font-size="12" font-family="Lucida Sans Unicode">-8</text>
<text x="41.6" y="371" text-anchor="end" font-size="12" font-family="Lucida Sans Unicode">-10</text></g>
<g id="yLabel">
<text x="14.9" y="207" text-anchor="middle" transform = "rotate(-90 14.9 207 )" font-size="14" font-family="Lucida Sans Unicode"></text></g>
<g id="xLabel">
<text x="224" y="402" text-anchor="middle" font-size="12" font-family="Lucida Sans Unicode"></text></g>
<g id="plotPoints" clip-path="url(#plot_window)"><g stroke="rgb(0,0,255)" fill="rgb(255,0,0)">
<text x="110" y="158" text-anchor="middle" font-size="10" font-family="Lucida Sans Unicode">&#x25CB;</text>
<text x="138" y="122" text-anchor="middle" font-size="10" font-family="Lucida Sans Unicode">&#x25CB;</text>
<text x="290" y="61.9" text-anchor="middle" font-size="10" font-family="Lucida Sans Unicode">&#x25CB;</text></g>
<g stroke="rgb(255,165,0)" fill="rgb(255,255,255)">
<text x="170" y="111" text-anchor="middle" font-size="10" font-family="Lucida Sans Unicode">&#x25CB;</text>
<text x="236" y="96" text-anchor="middle" font-size="10" font-family="Lucida Sans Unicode">&#x25CB;</text></g>
</g>
<g id="legendBackground" stroke="rgb(255,255,0)" fill="rgb(255,255,255)" stroke-width="1"><rect x="402" y="44" width="84" height="40.4"/></g>
<g id="legendPoints"><g stroke="rgb(0,0,255)" fill="rgb(255,0,0)" stroke-width="2">
<text x="415" y="70.2" text-anchor="middle" font-size="10" font-family="Lucida Sans Unicode">&#x25CB;</text></g>
<g stroke="rgb(255,165,0)" fill="rgb(255,255,255)" stroke-width="2">
<text x="415" y="84.6" text-anchor="middle" font-size="10" font-family="Lucida Sans Unicode">&#x25CB;</text></g>
</g>
<g id="legendText">
<text x="420" y="67" font-size="10" font-family="Lucida Sans Unicode" font-weight="normal">Series 1</text>
<text x="420" y="81.4" font-size="10" font-family="Lucida Sans Unicode" font-weight="normal">Series 2</text></g>
<g id="title">
<text x="250" y="27" text-anchor="middle" font-size="18" font-family="Lucida Sans Unicode" font-weight="normal">Race Times</text></g>
<g id="plotXValues"></g>
<g id="plotYValues"></g>
</svg>
