<?xml version="1.0" encoding="UTF-8" standalone="no"?>
<svg width="500" height ="400" version="1.1"
xmlns:svg ="http://www.w3.org/2000/svg"
xmlns:rdf="http://www.w3.org/1999/02/22-rdf-syntax-ns#"
xmlns:cc="http://web.resource.org/cc/"
xmlns:dc="http://purl.org/dc/elements/1.1/"
xmlns ="http://www.w3.org/2000/svg"
>
<!-- SVG plot written using Boost.Plot program (Creator Jacob Voytko) --> 
<!-- Use, modification and distribution of Boost.Plot subject to the --> 
<!-- Boost Software License, Version 1.0.--> 
<!-- (See accompanying file LICENSE_1_0.txt --> 
<!-- or copy at http://www.boost.org/LICENSE_1_0.txt) --> 

<clipPath id="plot_window"><rect x="53.6" y="40.5" width="346" height="328"/></clipPath>
<g id="imageBackground" stroke="rgb(0,0,0)" fill="rgb(255,255,255)" stroke-width="2"><rect x="0" y="0" width="500" height="400"/></g>
<g id="plotBackground" stroke="rgb(119,136,153)" fill="rgb(255,255,255)" stroke-width="2"><rect x="52.6" y="39.5" width="348" height="330"/></g>
<g id="yMinorGrid" stroke="rgb(211,211,211)" stroke-width="0.5"><path d="M54.6,198 L399,198 M54.6,191 L399,191 M54.6,184 L399,184 M54.6,178 L399,178 M54.6,165 L399,165 M54.6,158 L399,158 M54.6,152 L399,152 M54.6,145 L399,145 M54.6,132 L399,132 M54.6,125 L399,125 M54.6,119 L399,119 M54.6,112 L399,112 M54.6,98.8 L399,98.8 M54.6,92.2 L399,92.2 M54.6,85.6 L399,85.6 M54.6,79 L399,79 M54.6,65.9 L399,65.9 M54.6,59.3 L399,59.3 M54.6,52.7 L399,52.7 M54.6,46.1 L399,46.1 M54.6,204 L399,204 M54.6,211 L399,211 M54.6,217 L399,217 M54.6,224 L399,224 M54.6,231 L399,231 M54.6,237 L399,237 M54.6,244 L399,244 M54.6,250 L399,250 M54.6,257 L399,257 M54.6,264 L399,264 M54.6,270 L399,270 M54.6,270 L399,270 M54.6,277 L399,277 M54.6,283 L399,283 M54.6,290 L399,290 M54.6,297 L399,297 M54.6,303 L399,303 M54.6,310 L399,310 M54.6,316 L399,316 M54.6,323 L399,323 M54.6,329 L399,329 M54.6,336 L399,336 M54.6,343 L399,343 M54.6,349 L399,349 M54.6,356 L399,356 M54.6,362 L399,362 M54.6,369 L399,369 " fill="none"/></g>
<g id="yMajorGrid" stroke="rgb(0,0,255)" stroke-width="1"><path d="M54.6,204 L399,204 M54.6,171 L399,171 M54.6,138 L399,138 M54.6,105 L399,105 M54.6,72.4 L399,72.4 M54.6,39.5 L399,39.5 M54.6,204 L399,204 M54.6,237 L399,237 M54.6,270 L399,270 M54.6,303 L399,303 M54.6,336 L399,336 M54.6,369 L399,369 " fill="none"/></g>
<g id="xMinorGrid" stroke="rgb(200,220,255)" stroke-width="0.5"></g>
<g id="xMajorGrid" stroke="rgb(200,220,255)" stroke-width="1"></g>
<g id="yAxis" stroke="rgb(0,0,0)" stroke-width="1"><line x1="81.6" y1="39.5" x2="81.6" y2="374"/><line x1="52.6" y1="39.5" x2="52.6" y2="369"/></g>
<g id="xAxis" stroke="rgb(0,0,0)" stroke-width="1"><line x1="47.6" y1="204" x2="401" y2="204"/><line x1="47.6" y1="369" x2="401" y2="369"/></g>
<g id="yMinorTicks" stroke="rgb(0,0,0)" stroke-width="1"><path d="M50.6,198 L52.6,198 M50.6,191 L52.6,191 M50.6,184 L52.6,184 M50.6,178 L52.6,178 M50.6,165 L52.6,165 M50.6,158 L52.6,158 M50.6,152 L52.6,152 M50.6,145 L52.6,145 M50.6,132 L52.6,132 M50.6,125 L52.6,125 M50.6,119 L52.6,119 M50.6,112 L52.6,112 M50.6,98.8 L52.6,98.8 M50.6,92.2 L52.6,92.2 M50.6,85.6 L52.6,85.6 M50.6,79 L52.6,79 M50.6,65.9 L52.6,65.9 M50.6,59.3 L52.6,59.3 M50.6,52.7 L52.6,52.7 M50.6,46.1 L52.6,46.1 M50.6,204 L52.6,204 M50.6,211 L52.6,211 M50.6,217 L52.6,217 M50.6,224 L52.6,224 M50.6,231 L52.6,231 M50.6,237 L52.6,237 M50.6,244 L52.6,244 M50.6,250 L52.6,250 M50.6,257 L52.6,257 M50.6,264 L52.6,264 M50.6,270 L52.6,270 M50.6,270 L52.6,270 M50.6,277 L52.6,277 M50.6,283 L52.6,283 M50.6,290 L52.6,290 M50.6,297 L52.6,297 M50.6,303 L52.6,303 M50.6,310 L52.6,310 M50.6,316 L52.6,316 M50.6,323 L52.6,323 M50.6,329 L52.6,329 M50.6,336 L52.6,336 M50.6,343 L52.6,343 M50.6,349 L52.6,349 M50.6,356 L52.6,356 M50.6,362 L52.6,362 M50.6,369 L52.6,369 " fill="none"/></g>
<g id="xMinorTicks" stroke="rgb(0,0,0)" stroke-width="1"><path d="M93.2,369 L93.2,371 M105,369 L105,371 M116,369 L116,371 M128,369 L128,371 M151,369 L151,371 M163,369 L163,371 M175,369 L175,371 M186,369 L186,371 M209,369 L209,371 M221,369 L221,371 M233,369 L233,371 M244,369 L244,371 M267,369 L267,371 M279,369 L279,371 M291,369 L291,371 M302,369 L302,371 M326,369 L326,371 M337,369 L337,371 M349,369 L349,371 M360,369 L360,371 M384,369 L384,371 M395,369 L395,371 M70,369 L70,371 M58.4,369 L58.4,371 " fill="none"/></g>
<g id="yMajorTicks" stroke="rgb(0,0,0)" stroke-width="2"><path d="M47.6,204 L52.6,204 M47.6,171 L52.6,171 M47.6,138 L52.6,138 M47.6,105 L52.6,105 M47.6,72.4 L52.6,72.4 M47.6,39.5 L52.6,39.5 M47.6,204 L52.6,204 M47.6,237 L52.6,237 M47.6,270 L52.6,270 M47.6,303 L52.6,303 M47.6,336 L52.6,336 M47.6,369 L52.6,369 " fill="none"/></g>
<g id="xMajorTicks" stroke="rgb(0,0,0)" stroke-width="2"><path d="M81.6,369 L81.6,374 M140,369 L140,374 M198,369 L198,374 M256,369 L256,374 M314,369 L314,374 M372,369 L372,374 M81.6,369 L81.6,374 " fill="none"/></g>
<g id="xTicksValues">
<text x="81.6" y="390" text-anchor="middle" font-size="12" font-family="Lucida Sans Unicode">0</text>
<text x="140" y="390" text-anchor="middle" font-size="12" font-family="Lucida Sans Unicode">2</text>
<text x="198" y="390" text-anchor="middle" font-size="12" font-family="Lucida Sans Unicode">4</text>
<text x="256" y="390" text-anchor="middle" font-size="12" font-family="Lucida Sans Unicode">6</text>
<text x="314" y="390" text-anchor="middle" font-size="12" font-family="Lucida Sans Unicode">8</text>
<text x="372" y="390" text-anchor="middle" font-size="12" font-family="Lucida Sans Unicode">10</text>
<text x="81.6" y="390" text-anchor="middle" font-size="12" font-family="Lucida Sans Unicode">0</text></g>
<g id="yTicksValues">
<text x="41.6" y="207" text-anchor="end" font-size="12" font-family="Lucida Sans Unicode">0</text>
<text x="41.6" y="174" text-anchor="end" font-size="12" font-family="Lucida Sans Unicode">2</text>
<text x="41.6" y="141" text-anchor="end" font-size="12" font-family="Lucida Sans Unicode">4</text>
<text x="41.6" y="108" text-anchor="end" font-size="12" font-family="Lucida Sans Unicode">6</text>
<text x="41.6" y="74.8" text-anchor="end" font-size="12" font-family="Lucida Sans Unicode">8</text>
<text x="41.6" y="41.9" text-anchor="end" font-size="12" font-family="Lucida Sans Unicode">10</text>
<text x="41.6" y="207" text-anchor="end" font-size="12" font-family="Lucida Sans Unicode">0</text>
<text x="41.6" y="240" text-anchor="end" font-size="12" font-family="Lucida Sans Unicode">-2</text>
<text x="41.6" y="273" text-anchor="end" font-size="12" font-family="Lucida Sans Unicode">-4</text>
<text x="41.6" y="306" text-anchor="end" font-size="12" font-family="Lucida Sans Unicode">-6</text>
<text x="41.6" y="338" text-anchor="end" font-size="12" font-family="Lucida Sans Unicode">-8</text>
<text x="41.6" y="371" text-anchor="end" font-size="12" font-family="Lucida Sans Unicode">-10</text></g>
<g id="yLabel">
<text x="14.9" y="204" text-anchor="middle" transform = "rotate(-90 14.9 204 )" font-size="14" font-family="Lucida Sans Unicode"></text></g>
<g id="xLabel">
<text x="227" y="402" text-anchor="middle" font-size="12" font-family="Lucida Sans Unicode"></text></g>
<g id="plotPoints" clip-path="url(#plot_window)"><g stroke="rgb(0,0,255)" fill="rgb(255,0,0)">
<text x="111" y="155" text-anchor="middle" font-size="10" font-family="Lucida Sans Unicode">&#x25CB;</text>
<text x="140" y="119" text-anchor="middle" font-size="10" font-family="Lucida Sans Unicode">&#x25CB;</text>
<text x="294" y="57.6" text-anchor="middle" font-size="10" font-family="Lucida Sans Unicode">&#x25CB;</text></g>
<g stroke="rgb(255,165,0)" fill="rgb(255,255,255)">
<text x="172" y="107" text-anchor="middle" font-size="10" font-family="Lucida Sans Unicode">&#x25CB;</text>
<text x="238" y="92.2" text-anchor="middle" font-size="10" font-family="Lucida Sans Unicode">&#x25CB;</text></g>
</g>
<g id="legendBackground" stroke="rgb(255,255,0)" fill="rgb(255,255,255)" stroke-width="1"><rect x="407" y="39.5" width="79" height="43.7"/></g>
<g id="legendPoints"><g stroke="rgb(0,0,255)" fill="rgb(255,0,0)" stroke-width="2">
<text x="419" y="58.4" text-anchor="middle" font-size="10" font-family="Lucida Sans Unicode">&#x25CB;</text></g>
<g stroke="rgb(255,165,0)" fill="rgb(255,255,255)" stroke-width="2">
<text x="419" y="70.9" text-anchor="middle" font-size="10" font-family="Lucida Sans Unicode">&#x25CB;</text></g>
</g>
<g id="legendText">
<text x="428" y="57.2" font-size="10" font-family="Lucida Sans Unicode" font-weight="normal">Series 1</text>
<text x="428" y="69.7" font-size="10" font-family="Lucida Sans Unicode" font-weight="normal">Series 2</text></g>
<g id="title">
<text x="250" y="22.5" text-anchor="middle" font-size="18" font-family="Lucida Sans Unicode" font-weight="normal">Race Times</text></g>
<g id="plotXValues"></g>
<g id="plotYValues"></g>
</svg>
