<?xml version="1.0" encoding="UTF-8" standalone="no"?>
<svg width="500" height ="350" version="1.1"
xmlns:svg ="http://www.w3.org/2000/svg"
xmlns:rdf="http://www.w3.org/1999/02/22-rdf-syntax-ns#"
xmlns:cc="http://web.resource.org/cc/"
xmlns:dc="http://purl.org/dc/elements/1.1/"
xmlns ="http://www.w3.org/2000/svg"
>
<!-- SVG plot written using Boost.Plot program (Creator Jacob Voytko) --> 
<!-- Use, modification and distribution of Boost.Plot subject to the --> 
<!-- Boost Software License, Version 1.0.--> 
<!-- (See accompanying file LICENSE_1_0.txt --> 
<!-- or copy at http://www.boost.org/LICENSE_1_0.txt) --> 

<!-- File auto_boxplot.svg --> 
<clipPath id="plot_window"><rect x="46.6" y="52" width="441" height="232"/></clipPath>
<g id="imageBackground" stroke="rgb(255,255,0)" fill="rgb(255,255,255)" stroke-width="2"><rect x="0" y="0" width="500" height="350"/></g>
<g id="plotBackground" stroke="rgb(255,255,0)" fill="rgb(255,255,255)" stroke-width="1"><rect x="51.6" y="57" width="436" height="227"/></g>
<g id="X-axis" stroke="rgb(0,0,0)" stroke-width="1"><line x1="51.6" y1="284" x2="488" y2="284"/></g>
<g id="Y-axis" stroke="rgb(0,0,0)" stroke-width="1"><line x1="51.6" y1="284" x2="51.6" y2="57"/></g>
<g id="xMajorTicks" stroke="rgb(0,0,0)" stroke-width="1"><path d="M270,284 L270,289 " fill="none"/></g>
<g id="yMajorTicks" stroke="rgb(0,0,0)" stroke-width="2"><path d="M46.6,284 L51.6,284 M46.6,258 L51.6,258 M46.6,233 L51.6,233 M46.6,208 L51.6,208 M46.6,183 L51.6,183 M46.6,158 L51.6,158 M46.6,133 L51.6,133 M46.6,107 L51.6,107 M46.6,82.2 L51.6,82.2 M46.6,57 L51.6,57 M46.6,284 L51.6,284 " fill="none"/></g>
<g id="yMinorTicks" stroke="rgb(0,0,0)" stroke-width="1"><path d="M49.6,279 L51.6,279 M49.6,274 L51.6,274 M49.6,268 L51.6,268 M49.6,263 L51.6,263 M49.6,253 L51.6,253 M49.6,248 L51.6,248 M49.6,243 L51.6,243 M49.6,238 L51.6,238 M49.6,228 L51.6,228 M49.6,223 L51.6,223 M49.6,218 L51.6,218 M49.6,213 L51.6,213 M49.6,203 L51.6,203 M49.6,198 L51.6,198 M49.6,193 L51.6,193 M49.6,188 L51.6,188 M49.6,178 L51.6,178 M49.6,173 L51.6,173 M49.6,168 L51.6,168 M49.6,163 L51.6,163 M49.6,153 L51.6,153 M49.6,148 L51.6,148 M49.6,143 L51.6,143 M49.6,138 L51.6,138 M49.6,127 L51.6,127 M49.6,122 L51.6,122 M49.6,117 L51.6,117 M49.6,112 L51.6,112 M49.6,102 L51.6,102 M49.6,97.3 L51.6,97.3 M49.6,92.2 L51.6,92.2 M49.6,87.2 L51.6,87.2 M49.6,77.1 L51.6,77.1 M49.6,72.1 L51.6,72.1 M49.6,67.1 L51.6,67.1 M49.6,62 L51.6,62 M49.6,284 L51.6,284 " fill="none"/></g>
<g id="YGrid" stroke="rgb(200,220,255)" stroke-width="1"></g>
<g id="yMinorGrid" stroke="rgb(200,220,255)" stroke-width="0.5"></g>
<g id="valueLabels" fill="rgb(0,0,0)">
<text x="270" y="308" text-anchor="middle" font-size="14" font-family="Lucida Sans Unicode">Auto boxplot</text>
<text x="40.6" y="286" text-anchor="end" font-size="12" font-family="Lucida Sans Unicode">0</text>
<text x="40.6" y="261" text-anchor="end" font-size="12" font-family="Lucida Sans Unicode">1</text>
<text x="40.6" y="236" text-anchor="end" font-size="12" font-family="Lucida Sans Unicode">2</text>
<text x="40.6" y="210" text-anchor="end" font-size="12" font-family="Lucida Sans Unicode">3</text>
<text x="40.6" y="185" text-anchor="end" font-size="12" font-family="Lucida Sans Unicode">4</text>
<text x="40.6" y="160" text-anchor="end" font-size="12" font-family="Lucida Sans Unicode">5</text>
<text x="40.6" y="135" text-anchor="end" font-size="12" font-family="Lucida Sans Unicode">6</text>
<text x="40.6" y="110" text-anchor="end" font-size="12" font-family="Lucida Sans Unicode">7</text>
<text x="40.6" y="84.6" text-anchor="end" font-size="12" font-family="Lucida Sans Unicode">8</text>
<text x="40.6" y="59.4" text-anchor="end" font-size="12" font-family="Lucida Sans Unicode">9</text>
<text x="40.6" y="286" text-anchor="end" font-size="12" font-family="Lucida Sans Unicode">0</text></g>
<g id="yLabel" fill="rgb(0,0,0)">
<text x="30.2" y="170" text-anchor="middle" transform = "rotate(-90 30.2 170 )" font-size="14" font-family="Lucida Sans Unicode">Values</text></g>
<g id="xLabel" fill="rgb(0,0,0)">
<text x="270" y="327" text-anchor="middle" font-size="14" font-family="Lucida Sans Unicode"></text></g>
<g id="boxAxis" stroke="rgb(0,0,0)"><g clip-path="url(#plot_window)" stroke="rgb(0,0,0)" stroke-width="1"><line x1="270" y1="279" x2="270" y2="69.6"/></g>
</g>
<g id="Median" stroke="rgb(255,0,0)" stroke-width="2"><g clip-path="url(#plot_window)" stroke="rgb(0,128,0)" fill="rgb(240,255,255)" stroke-width="1"><rect x="255" y="101" width="30" height="90.2"/></g>
<g clip-path="url(#plot_window)" stroke="rgb(0,0,255)" stroke-width="1"><line x1="255" y1="116" x2="284" y2="116"/></g>
</g>
<g id="whisker" stroke="rgb(0,0,0)"><g clip-path="url(#plot_window)"><g stroke="rgb(255,0,255)" fill="rgb(0,0,0)" stroke-width="1"><line x1="255" y1="279" x2="285" y2="279"/></g>
<g stroke="rgb(0,255,255)" fill="rgb(0,0,0)" stroke-width="1"><line x1="255" y1="69.6" x2="285" y2="69.6"/></g>
</g>
</g>
<g id="mild_outliers" stroke="rgb(255,192,203)" fill="rgb(0,0,0)"></g>
<g id="extreme_outliers" stroke="rgb(128,0,128)" fill="rgb(255,255,255)"></g>
<g id="title" fill="rgb(0,0,0)">
<text x="250" y="36" text-anchor="middle" font-size="18" font-family="Lucida Sans Unicode">Auto boxplot</text></g>
</svg>
