<?xml version="1.0" encoding="UTF-8" standalone="no"?>
<svg width="500" height ="200" version="1.1"
xmlns:svg ="http://www.w3.org/2000/svg"
xmlns:rdf="http://www.w3.org/1999/02/22-rdf-syntax-ns#"
xmlns:cc="http://web.resource.org/cc/"
xmlns:dc="http://purl.org/dc/elements/1.1/"
xmlns ="http://www.w3.org/2000/svg"
>
<!-- SVG plot written using Boost.Plot program (Creator Jacob Voytko) --> 
<!-- Use, modification and distribution of Boost.Plot subject to the --> 
<!-- Boost Software License, Version 1.0.--> 
<!-- (See accompanying file LICENSE_1_0.txt --> 
<!-- or copy at http://www.boost.org/LICENSE_1_0.txt) --> 

<!-- File auto_1d_containers.svg --> 
	<g id="imageBackground" stroke="rgb(255,255,0)" fill="rgb(255,255,255)" stroke-width="1">
	<rect x="0" y="0" width="500" height="200"/>
</g>
	<g id="plotBackground" stroke="rgb(250,250,210)" fill="rgb(255,255,255)" stroke-width="1">
	<rect x="21" y="11" width="458" height="173"/>
</g>
	<g id="xMinorGrid" stroke="rgb(200,220,255)" stroke-width="0.5">
</g>
	<g id="xMajorGrid" stroke="rgb(200,220,255)" stroke-width="1">
</g>
	<g id="xAxis" stroke="rgb(0,0,0)" stroke-width="1">
	<line x1="21" y1="11" x2="21" y2="184"/>
	<line x1="21" y1="100" x2="479" y2="100"/>
</g>
	<g id="xMinorTicks" stroke="rgb(0,0,0)" stroke-width="1">
	<path d="M32.5,100 L32.5,102 
M43.9,100 L43.9,102 
M55.3,100 L55.3,102 
M66.8,100 L66.8,102 
M89.7,100 L89.7,102 
M101,100 L101,102 
M113,100 L113,102 
M124,100 L124,102 
M147,100 L147,102 
M158,100 L158,102 
M170,100 L170,102 
M181,100 L181,102 
M204,100 L204,102 
M216,100 L216,102 
M227,100 L227,102 
M239,100 L239,102 
M261,100 L261,102 
M273,100 L273,102 
M284,100 L284,102 
M296,100 L296,102 
M319,100 L319,102 
M330,100 L330,102 
M342,100 L342,102 
M353,100 L353,102 
M376,100 L376,102 
M387,100 L387,102 
M399,100 L399,102 
M410,100 L410,102 
M433,100 L433,102 
M445,100 L445,102 
M456,100 L456,102 
M468,100 L468,102 
" fill="none"/>
</g>
	<g id="xMajorTicks" stroke="rgb(0,0,0)" stroke-width="2">
	<path d="M21,100 L21,105 
M78.3,100 L78.3,105 
M136,100 L136,105 
M193,100 L193,105 
M250,100 L250,105 
M307,100 L307,105 
M365,100 L365,105 
M422,100 L422,105 
M479,100 L479,105 
M21,100 L21,105 
" fill="none"/>
</g>
	<g id="xTicksValues" font-size="10" font-family="Verdana" text-anchor="middle">
	<text x="78.3" y="118">5
	</text>
	<text x="136" y="118">10
	</text>
	<text x="193" y="118">15
	</text>
	<text x="250" y="118">20
	</text>
	<text x="307" y="118">25
	</text>
	<text x="365" y="118">30
	</text>
	<text x="422" y="118">35
	</text>
	<text x="479" y="118">40
	</text>
</g>
	<g id="xLabel">
	<text x="250" y="201" text-anchor="middle" font-size="10" font-family="Verdana">
	</text>
</g>
	<g id="plotPoints">
	<g stroke="rgb(0,0,0)" font-size="5" font-family="Lucida Sans Unicode" text-anchor="middle">
	<line x1="23.3" y1="100" x2="23.3" y2="90"/>
	<line x1="33.6" y1="100" x2="33.6" y2="90"/>
	<line x1="69.1" y1="100" x2="69.1" y2="90"/>
	<line x1="58.8" y1="100" x2="58.8" y2="90"/>
	<line x1="82.8" y1="100" x2="82.8" y2="90"/>
	<line x1="95.4" y1="100" x2="95.4" y2="90"/>
</g>
	<g stroke="rgb(255,0,0)" font-size="5" font-family="Lucida Sans Unicode" text-anchor="middle">
	<line x1="33.6" y1="97.5" x2="33.6" y2="87.5"/>
	<line x1="90.3" y1="97.5" x2="90.3" y2="87.5"/>
	<line x1="286" y1="97.5" x2="286" y2="87.5"/>
	<line x1="229" y1="97.5" x2="229" y2="87.5"/>
	<line x1="361" y1="97.5" x2="361" y2="87.5"/>
	<line x1="430" y1="97.5" x2="430" y2="87.5"/>
</g>
</g>
	<g id="title">
	<text x="250" y="27" text-anchor="middle" font-size="18" font-family="Verdana">
	</text>
</g>
</svg>
