<?xml version="1.0" encoding="UTF-8" standalone="no"?>
<svg width="500" height ="400" version="1.1"
xmlns:svg ="http://www.w3.org/2000/svg"
xmlns:rdf="http://www.w3.org/1999/02/22-rdf-syntax-ns#"
xmlns:cc="http://web.resource.org/cc/"
xmlns:dc="http://purl.org/dc/elements/1.1/"
xmlns ="http://www.w3.org/2000/svg"
>
<!-- SVG plot written using Boost.Plot program (Creator Jacob Voytko) --> 
<!-- Use, modification and distribution of Boost.Plot subject to the --> 
<!-- Boost Software License, Version 1.0.--> 
<!-- (See accompanying file LICENSE_1_0.txt --> 
<!-- or copy at http://www.boost.org/LICENSE_1_0.txt) --> 

<clipPath id="plot_window"><rect x="25.3" y="48.5" width="471" height="325"/></clipPath>
<clipPath id="plot_window"><rect x="25.3" y="48.5" width="471" height="325"/></clipPath>
<g id="imageBackground" stroke="rgb(255,255,0)" fill="rgb(255,255,255)" stroke-width="2"><rect x="0" y="0" width="500" height="400"/></g>
<g id="plotBackground" stroke="rgb(119,136,153)" fill="rgb(255,255,255)" stroke-width="2"><rect x="24.3" y="47.5" width="473" height="327"/></g>
<g id="yMinorGrid" stroke="rgb(200,220,255)" stroke-width="0.5"></g>
<g id="yMajorGrid" stroke="rgb(200,220,255)" stroke-width="1"></g>
<g id="xMinorGrid" stroke="rgb(200,220,255)" stroke-width="0.5"></g>
<g id="xMajorGrid" stroke="rgb(200,220,255)" stroke-width="1"></g>
<g id="yAxis" stroke="rgb(0,0,0)" stroke-width="1"><line x1="24.3" y1="47.5" x2="24.3" y2="375"/></g>
<g id="xAxis" stroke="rgb(0,0,0)" stroke-width="1"><line x1="19.3" y1="375" x2="498" y2="375"/><line x1="19.3" y1="375" x2="498" y2="375"/></g>
<g id="yMinorTicks" stroke="rgb(0,0,0)" stroke-width="1"><path d="M22.3,368 L24.3,368 M22.3,361 L24.3,361 M22.3,355 L24.3,355 M22.3,348 L24.3,348 M22.3,335 L24.3,335 M22.3,329 L24.3,329 M22.3,322 L24.3,322 M22.3,316 L24.3,316 M22.3,303 L24.3,303 M22.3,296 L24.3,296 M22.3,289 L24.3,289 M22.3,283 L24.3,283 M22.3,270 L24.3,270 M22.3,263 L24.3,263 M22.3,257 L24.3,257 M22.3,250 L24.3,250 M22.3,237 L24.3,237 M22.3,231 L24.3,231 M22.3,224 L24.3,224 M22.3,218 L24.3,218 M22.3,204 L24.3,204 M22.3,198 L24.3,198 M22.3,191 L24.3,191 M22.3,185 L24.3,185 M22.3,172 L24.3,172 M22.3,165 L24.3,165 M22.3,159 L24.3,159 M22.3,152 L24.3,152 M22.3,139 L24.3,139 M22.3,133 L24.3,133 M22.3,126 L24.3,126 M22.3,119 L24.3,119 M22.3,106 L24.3,106 M22.3,99.8 L24.3,99.8 M22.3,93.3 L24.3,93.3 M22.3,86.7 L24.3,86.7 M22.3,73.7 L24.3,73.7 M22.3,67.1 L24.3,67.1 M22.3,60.6 L24.3,60.6 M22.3,54 L24.3,54 M22.3,375 L24.3,375 " fill="none"/></g>
<g id="xMinorTicks" stroke="rgb(0,0,0)" stroke-width="1"><path d="M37.8,375 L37.8,377 M51.3,375 L51.3,377 M64.9,375 L64.9,377 M78.4,375 L78.4,377 M105,375 L105,377 M119,375 L119,377 M132,375 L132,377 M146,375 L146,377 M173,375 L173,377 M187,375 L187,377 M200,375 L200,377 M214,375 L214,377 M241,375 L241,377 M254,375 L254,377 M268,375 L268,377 M281,375 L281,377 M308,375 L308,377 M322,375 L322,377 M335,375 L335,377 M349,375 L349,377 M376,375 L376,377 M389,375 L389,377 M403,375 L403,377 M416,375 L416,377 M443,375 L443,377 M457,375 L457,377 M470,375 L470,377 M484,375 L484,377 " fill="none"/></g>
<g id="yMajorTicks" stroke="rgb(0,0,0)" stroke-width="2"><path d="M19.3,375 L24.3,375 M19.3,342 L24.3,342 M19.3,309 L24.3,309 M19.3,276 L24.3,276 M19.3,244 L24.3,244 M19.3,211 L24.3,211 M19.3,178 L24.3,178 M19.3,146 L24.3,146 M19.3,113 L24.3,113 M19.3,80.2 L24.3,80.2 M19.3,47.5 L24.3,47.5 M19.3,375 L24.3,375 " fill="none"/></g>
<g id="xMajorTicks" stroke="rgb(0,0,0)" stroke-width="2"><path d="M24.3,375 L24.3,380 M91.9,375 L91.9,380 M160,375 L160,380 M227,375 L227,380 M295,375 L295,380 M362,375 L362,380 M430,375 L430,380 M497,375 L497,380 " fill="none"/></g>
<g id="xTicksValues">
<text x="24.3" y="395" text-anchor="middle" font-size="12" font-family="Lucida Sans Unicode">1</text>
<text x="91.9" y="395" text-anchor="middle" font-size="12" font-family="Lucida Sans Unicode">2</text>
<text x="160" y="395" text-anchor="middle" font-size="12" font-family="Lucida Sans Unicode">3</text>
<text x="227" y="395" text-anchor="middle" font-size="12" font-family="Lucida Sans Unicode">4</text>
<text x="295" y="395" text-anchor="middle" font-size="12" font-family="Lucida Sans Unicode">5</text>
<text x="362" y="395" text-anchor="middle" font-size="12" font-family="Lucida Sans Unicode">6</text>
<text x="430" y="395" text-anchor="middle" font-size="12" font-family="Lucida Sans Unicode">7</text>
<text x="497" y="395" text-anchor="middle" font-size="12" font-family="Lucida Sans Unicode">8</text></g>
<g id="yTicksValues">
<text x="13.3" y="377" text-anchor="end" font-size="12" font-family="Lucida Sans Unicode">3</text>
<text x="13.3" y="330" text-anchor="end" font-size="12" font-family="Lucida Sans Unicode">4</text>
<text x="13.3" y="283" text-anchor="end" font-size="12" font-family="Lucida Sans Unicode">5</text>
<text x="13.3" y="237" text-anchor="end" font-size="12" font-family="Lucida Sans Unicode">6</text>
<text x="13.3" y="190" text-anchor="end" font-size="12" font-family="Lucida Sans Unicode">7</text>
<text x="13.3" y="143" text-anchor="end" font-size="12" font-family="Lucida Sans Unicode">8</text>
<text x="13.3" y="96.6" text-anchor="end" font-size="12" font-family="Lucida Sans Unicode">9</text>
<text x="13.3" y="49.9" text-anchor="end" font-size="12" font-family="Lucida Sans Unicode">10</text>
<text x="13.3" y="377" text-anchor="end" font-size="12" font-family="Lucida Sans Unicode">0</text>
<text x="13.3" y="344" text-anchor="end" font-size="12" font-family="Lucida Sans Unicode">1</text>
<text x="13.3" y="312" text-anchor="end" font-size="12" font-family="Lucida Sans Unicode">2</text>
<text x="13.3" y="279" text-anchor="end" font-size="12" font-family="Lucida Sans Unicode">3</text>
<text x="13.3" y="246" text-anchor="end" font-size="12" font-family="Lucida Sans Unicode">4</text>
<text x="13.3" y="213" text-anchor="end" font-size="12" font-family="Lucida Sans Unicode">5</text>
<text x="13.3" y="181" text-anchor="end" font-size="12" font-family="Lucida Sans Unicode">6</text>
<text x="13.3" y="148" text-anchor="end" font-size="12" font-family="Lucida Sans Unicode">7</text>
<text x="13.3" y="115" text-anchor="end" font-size="12" font-family="Lucida Sans Unicode">8</text>
<text x="13.3" y="82.6" text-anchor="end" font-size="12" font-family="Lucida Sans Unicode">9</text>
<text x="13.3" y="49.9" text-anchor="end" font-size="12" font-family="Lucida Sans Unicode">10</text>
<text x="13.3" y="377" text-anchor="end" font-size="12" font-family="Lucida Sans Unicode">0</text></g>
<g id="yLabel">
<text x="-8.6" y="211" text-anchor="middle" transform = "rotate(-90 -8.6 211 )" font-size="14" font-family="Lucida Sans Unicode"></text></g>
<g id="xLabel">
<text x="261" y="410" text-anchor="middle" font-size="14" font-family="Lucida Sans Unicode"></text></g>
<g id="plotPoints" clip-path="url(#plot_window)"><g stroke="rgb(0,0,0)" fill="rgb(255,255,255)"><circle cx="31.1" cy="270" r="2"/><circle cx="98.7" cy="198" r="2"/><circle cx="450" cy="76.9" r="2"/></g>
</g>
<g id="limitPoints" stroke="rgb(119,136,153)" fill="rgb(250,235,215)"><polygon points=" 493,365 503,365 498,375"/><polygon points=" 493,37.5 503,37.5 498,47.5"/><polygon points=" 493,37.5 503,37.5 498,47.5"/><polygon points=" 493,365 503,365 498,375"/><polygon points=" 493,37.5 503,37.5 498,47.5"/><polygon points=" 493,37.5 503,37.5 498,47.5"/></g>
<g id="title">
<text x="250" y="36" text-anchor="middle" font-size="18" font-family="Lucida Sans Unicode"></text></g>
<g id="plotXValues"></g>
<g id="plotYValues"></g>
</svg>
