<?xml version="1.0" encoding="UTF-8" standalone="no"?>
<svg width="500" height ="400" version="1.1"
xmlns:svg ="http://www.w3.org/2000/svg"
xmlns:rdf="http://www.w3.org/1999/02/22-rdf-syntax-ns#"
xmlns:cc="http://web.resource.org/cc/"
xmlns:dc="http://purl.org/dc/elements/1.1/"
xmlns ="http://www.w3.org/2000/svg"
>
<!-- SVG plot written using Boost.Plot program (Creator Jacob Voytko) --> 
<!-- Use, modification and distribution of Boost.Plot subject to the --> 
<!-- Boost Software License, Version 1.0.--> 
<!-- (See accompanying file LICENSE_1_0.txt --> 
<!-- or copy at http://www.boost.org/LICENSE_1_0.txt) --> 

<clipPath id="plot_window"><rect x="45.2" y="40.5" width="428" height="328"/></clipPath>
<clipPath id="plot_window"><rect x="45.2" y="40.5" width="428" height="328"/></clipPath>
<g id="imageBackground" stroke="rgb(255,255,0)" fill="rgb(255,255,255)" stroke-width="2"><rect x="0" y="0" width="500" height="400"/></g>
<g id="plotBackground" stroke="rgb(119,136,153)" fill="rgb(255,255,255)" stroke-width="2"><rect x="44.2" y="39.5" width="430" height="330"/></g>
<g id="yMinorGrid" stroke="rgb(200,220,255)" stroke-width="0.5"></g>
<g id="yMajorGrid" stroke="rgb(200,220,255)" stroke-width="1"></g>
<g id="xMinorGrid" stroke="rgb(200,220,255)" stroke-width="0.5"></g>
<g id="xMajorGrid" stroke="rgb(200,220,255)" stroke-width="1"></g>
<g id="yAxis" stroke="rgb(0,0,0)" stroke-width="1"><line x1="44.2" y1="39.5" x2="44.2" y2="369"/></g>
<g id="xAxis" stroke="rgb(0,0,0)" stroke-width="1"><line x1="39.2" y1="369" x2="474" y2="369"/><line x1="39.2" y1="369" x2="474" y2="369"/></g>
<g id="yMinorTicks" stroke="rgb(0,0,0)" stroke-width="1"><path d="M42.2,362 L44.2,362 M42.2,356 L44.2,356 M42.2,349 L44.2,349 M42.2,343 L44.2,343 M42.2,329 L44.2,329 M42.2,323 L44.2,323 M42.2,316 L44.2,316 M42.2,310 L44.2,310 M42.2,297 L44.2,297 M42.2,290 L44.2,290 M42.2,283 L44.2,283 M42.2,277 L44.2,277 M42.2,264 L44.2,264 M42.2,257 L44.2,257 M42.2,250 L44.2,250 M42.2,244 L44.2,244 M42.2,231 L44.2,231 M42.2,224 L44.2,224 M42.2,217 L44.2,217 M42.2,211 L44.2,211 M42.2,198 L44.2,198 M42.2,191 L44.2,191 M42.2,184 L44.2,184 M42.2,178 L44.2,178 M42.2,165 L44.2,165 M42.2,158 L44.2,158 M42.2,152 L44.2,152 M42.2,145 L44.2,145 M42.2,132 L44.2,132 M42.2,125 L44.2,125 M42.2,119 L44.2,119 M42.2,112 L44.2,112 M42.2,98.8 L44.2,98.8 M42.2,92.2 L44.2,92.2 M42.2,85.6 L44.2,85.6 M42.2,79 L44.2,79 M42.2,65.9 L44.2,65.9 M42.2,59.3 L44.2,59.3 M42.2,52.7 L44.2,52.7 M42.2,46.1 L44.2,46.1 M42.2,369 L44.2,369 " fill="none"/></g>
<g id="xMinorTicks" stroke="rgb(0,0,0)" stroke-width="1"><path d="M56.5,369 L56.5,371 M68.8,369 L68.8,371 M81,369 L81,371 M93.3,369 L93.3,371 M118,369 L118,371 M130,369 L130,371 M142,369 L142,371 M155,369 L155,371 M179,369 L179,371 M192,369 L192,371 M204,369 L204,371 M216,369 L216,371 M241,369 L241,371 M253,369 L253,371 M265,369 L265,371 M278,369 L278,371 M302,369 L302,371 M314,369 L314,371 M327,369 L327,371 M339,369 L339,371 M363,369 L363,371 M376,369 L376,371 M388,369 L388,371 M400,369 L400,371 M425,369 L425,371 M437,369 L437,371 M449,369 L449,371 M462,369 L462,371 " fill="none"/></g>
<g id="yMajorTicks" stroke="rgb(0,0,0)" stroke-width="2"><path d="M39.2,369 L44.2,369 M39.2,336 L44.2,336 M39.2,303 L44.2,303 M39.2,270 L44.2,270 M39.2,237 L44.2,237 M39.2,204 L44.2,204 M39.2,171 L44.2,171 M39.2,138 L44.2,138 M39.2,105 L44.2,105 M39.2,72.4 L44.2,72.4 M39.2,39.5 L44.2,39.5 M39.2,369 L44.2,369 " fill="none"/></g>
<g id="xMajorTicks" stroke="rgb(0,0,0)" stroke-width="2"><path d="M44.2,369 L44.2,374 M106,369 L106,374 M167,369 L167,374 M228,369 L228,374 M290,369 L290,374 M351,369 L351,374 M413,369 L413,374 M474,369 L474,374 " fill="none"/></g>
<g id="xTicksValues">
<text x="44.2" y="390" text-anchor="middle" font-size="12" font-family="Lucida Sans Unicode">1</text>
<text x="106" y="390" text-anchor="middle" font-size="12" font-family="Lucida Sans Unicode">2</text>
<text x="167" y="390" text-anchor="middle" font-size="12" font-family="Lucida Sans Unicode">3</text>
<text x="228" y="390" text-anchor="middle" font-size="12" font-family="Lucida Sans Unicode">4</text>
<text x="290" y="390" text-anchor="middle" font-size="12" font-family="Lucida Sans Unicode">5</text>
<text x="351" y="390" text-anchor="middle" font-size="12" font-family="Lucida Sans Unicode">6</text>
<text x="413" y="390" text-anchor="middle" font-size="12" font-family="Lucida Sans Unicode">7</text>
<text x="474" y="390" text-anchor="middle" font-size="12" font-family="Lucida Sans Unicode">8</text></g>
<g id="yTicksValues">
<text x="33.2" y="371" text-anchor="end" font-size="12" font-family="Lucida Sans Unicode">3</text>
<text x="33.2" y="324" text-anchor="end" font-size="12" font-family="Lucida Sans Unicode">4</text>
<text x="33.2" y="277" text-anchor="end" font-size="12" font-family="Lucida Sans Unicode">5</text>
<text x="33.2" y="230" text-anchor="end" font-size="12" font-family="Lucida Sans Unicode">6</text>
<text x="33.2" y="183" text-anchor="end" font-size="12" font-family="Lucida Sans Unicode">7</text>
<text x="33.2" y="136" text-anchor="end" font-size="12" font-family="Lucida Sans Unicode">8</text>
<text x="33.2" y="89" text-anchor="end" font-size="12" font-family="Lucida Sans Unicode">9</text>
<text x="33.2" y="41.9" text-anchor="end" font-size="12" font-family="Lucida Sans Unicode">10</text>
<text x="33.2" y="371" text-anchor="end" font-size="12" font-family="Lucida Sans Unicode">0</text>
<text x="33.2" y="338" text-anchor="end" font-size="12" font-family="Lucida Sans Unicode">1</text>
<text x="33.2" y="306" text-anchor="end" font-size="12" font-family="Lucida Sans Unicode">2</text>
<text x="33.2" y="273" text-anchor="end" font-size="12" font-family="Lucida Sans Unicode">3</text>
<text x="33.2" y="240" text-anchor="end" font-size="12" font-family="Lucida Sans Unicode">4</text>
<text x="33.2" y="207" text-anchor="end" font-size="12" font-family="Lucida Sans Unicode">5</text>
<text x="33.2" y="174" text-anchor="end" font-size="12" font-family="Lucida Sans Unicode">6</text>
<text x="33.2" y="141" text-anchor="end" font-size="12" font-family="Lucida Sans Unicode">7</text>
<text x="33.2" y="108" text-anchor="end" font-size="12" font-family="Lucida Sans Unicode">8</text>
<text x="33.2" y="74.8" text-anchor="end" font-size="12" font-family="Lucida Sans Unicode">9</text>
<text x="33.2" y="41.9" text-anchor="end" font-size="12" font-family="Lucida Sans Unicode">10</text>
<text x="33.2" y="371" text-anchor="end" font-size="12" font-family="Lucida Sans Unicode">0</text></g>
<g id="yLabel">
<text x="14.9" y="204" text-anchor="middle" transform = "rotate(-90 14.9 204 )" font-size="14" font-family="Lucida Sans Unicode"></text></g>
<g id="xLabel">
<text x="259" y="402" text-anchor="middle" font-size="12" font-family="Lucida Sans Unicode"></text></g>
<g id="plotPoints" clip-path="url(#plot_window)"><g stroke="rgb(0,0,0)" fill="rgb(255,255,255)">
<text x="50.3" y="268" text-anchor="middle" font-size="14" font-family="Lucida Sans Unicode">&#x25CB;</text>
<text x="112" y="195" text-anchor="middle" font-size="14" font-family="Lucida Sans Unicode">&#x25CB;</text>
<text x="431" y="73.4" text-anchor="middle" font-size="14" font-family="Lucida Sans Unicode">&#x25CB;</text></g>
</g>
<g id="limitPoints" stroke="rgb(119,136,153)" fill="rgb(250,235,215)"><polygon points=" 469,359 479,359 474,369"/><polygon points=" 469,29.5 479,29.5 474,39.5"/><polygon points=" 469,29.5 479,29.5 474,39.5"/><polygon points=" 469,359 479,359 474,369"/><polygon points=" 469,29.5 479,29.5 474,39.5"/><polygon points=" 469,29.5 479,29.5 474,39.5"/></g>
<g id="title">
<text x="250" y="27" text-anchor="middle" font-size="18" font-family="Lucida Sans Unicode" font-weight="normal"></text></g>
<g id="plotXValues"></g>
<g id="plotYValues"></g>
</svg>
