<?xml version="1.0" encoding="UTF-8" standalone="no"?>
<svg width="500" height ="400" version="1.1"
xmlns:svg ="http://www.w3.org/2000/svg"
xmlns:rdf="http://www.w3.org/1999/02/22-rdf-syntax-ns#"
xmlns:cc="http://web.resource.org/cc/"
xmlns:dc="http://purl.org/dc/elements/1.1/"
xmlns ="http://www.w3.org/2000/svg"
>
<!-- SVG plot written using Boost.Plot program (Creator Jacob Voytko) --> 
<!-- Use, modification and distribution of Boost.Plot subject to the --> 
<!-- Boost Software License, Version 1.0.--> 
<!-- (See accompanying file LICENSE_1_0.txt --> 
<!-- or copy at http://www.boost.org/LICENSE_1_0.txt) --> 

<clipPath id="plot_window"><rect x="48.8" y="54" width="424" height="314"/></clipPath>
<clipPath id="plot_window"><rect x="48.8" y="54" width="424" height="314"/></clipPath>
<g id="imageBackground" stroke="rgb(255,255,0)" fill="rgb(255,255,255)" stroke-width="2"><rect x="0" y="0" width="500" height="400"/></g>
<g id="plotBackground" stroke="rgb(119,136,153)" fill="rgb(255,255,255)" stroke-width="2"><rect x="47.8" y="53" width="426" height="316"/></g>
<g id="yMinorGrid" stroke="rgb(200,220,255)" stroke-width="0.5"></g>
<g id="yMajorGrid" stroke="rgb(200,220,255)" stroke-width="1"></g>
<g id="xMinorGrid" stroke="rgb(200,220,255)" stroke-width="0.5"></g>
<g id="xMajorGrid" stroke="rgb(200,220,255)" stroke-width="1"></g>
<g id="yAxis" stroke="rgb(0,0,0)" stroke-width="1"><line x1="47.8" y1="53" x2="47.8" y2="369"/></g>
<g id="xAxis" stroke="rgb(0,0,0)" stroke-width="1"><line x1="42.8" y1="369" x2="474" y2="369"/><line x1="42.8" y1="369" x2="474" y2="369"/></g>
<g id="yMinorTicks" stroke="rgb(0,0,0)" stroke-width="1"><path d="M45.8,363 L47.8,363 M45.8,356 L47.8,356 M45.8,350 L47.8,350 M45.8,344 L47.8,344 M45.8,331 L47.8,331 M45.8,325 L47.8,325 M45.8,318 L47.8,318 M45.8,312 L47.8,312 M45.8,299 L47.8,299 M45.8,293 L47.8,293 M45.8,287 L47.8,287 M45.8,281 L47.8,281 M45.8,268 L47.8,268 M45.8,262 L47.8,262 M45.8,255 L47.8,255 M45.8,249 L47.8,249 M45.8,236 L47.8,236 M45.8,230 L47.8,230 M45.8,224 L47.8,224 M45.8,217 L47.8,217 M45.8,205 L47.8,205 M45.8,198 L47.8,198 M45.8,192 L47.8,192 M45.8,186 L47.8,186 M45.8,173 L47.8,173 M45.8,167 L47.8,167 M45.8,160 L47.8,160 M45.8,154 L47.8,154 M45.8,141 L47.8,141 M45.8,135 L47.8,135 M45.8,129 L47.8,129 M45.8,123 L47.8,123 M45.8,110 L47.8,110 M45.8,104 L47.8,104 M45.8,97.2 L47.8,97.2 M45.8,90.9 L47.8,90.9 M45.8,78.3 L47.8,78.3 M45.8,72 L47.8,72 M45.8,65.6 L47.8,65.6 M45.8,59.3 L47.8,59.3 M45.8,369 L47.8,369 " fill="none"/></g>
<g id="xMinorTicks" stroke="rgb(0,0,0)" stroke-width="1"><path d="M60,369 L60,371 M72.2,369 L72.2,371 M84.3,369 L84.3,371 M96.5,369 L96.5,371 M121,369 L121,371 M133,369 L133,371 M145,369 L145,371 M157,369 L157,371 M182,369 L182,371 M194,369 L194,371 M206,369 L206,371 M218,369 L218,371 M243,369 L243,371 M255,369 L255,371 M267,369 L267,371 M279,369 L279,371 M304,369 L304,371 M316,369 L316,371 M328,369 L328,371 M340,369 L340,371 M364,369 L364,371 M377,369 L377,371 M389,369 L389,371 M401,369 L401,371 M425,369 L425,371 M437,369 L437,371 M450,369 L450,371 M462,369 L462,371 " fill="none"/></g>
<g id="yMajorTicks" stroke="rgb(0,0,0)" stroke-width="2"><path d="M42.8,369 L47.8,369 M42.8,337 L47.8,337 M42.8,306 L47.8,306 M42.8,274 L47.8,274 M42.8,243 L47.8,243 M42.8,211 L47.8,211 M42.8,179 L47.8,179 M42.8,148 L47.8,148 M42.8,116 L47.8,116 M42.8,84.6 L47.8,84.6 M42.8,53 L47.8,53 M42.8,369 L47.8,369 " fill="none"/></g>
<g id="xMajorTicks" stroke="rgb(0,0,0)" stroke-width="2"><path d="M47.8,369 L47.8,374 M109,369 L109,374 M170,369 L170,374 M230,369 L230,374 M291,369 L291,374 M352,369 L352,374 M413,369 L413,374 M474,369 L474,374 " fill="none"/></g>
<g id="xTicksValues">
<text x="47.8" y="390" text-anchor="middle" font-size="12" font-family="Lucida Sans Unicode">1</text>
<text x="109" y="390" text-anchor="middle" font-size="12" font-family="Lucida Sans Unicode">2</text>
<text x="170" y="390" text-anchor="middle" font-size="12" font-family="Lucida Sans Unicode">3</text>
<text x="230" y="390" text-anchor="middle" font-size="12" font-family="Lucida Sans Unicode">4</text>
<text x="291" y="390" text-anchor="middle" font-size="12" font-family="Lucida Sans Unicode">5</text>
<text x="352" y="390" text-anchor="middle" font-size="12" font-family="Lucida Sans Unicode">6</text>
<text x="413" y="390" text-anchor="middle" font-size="12" font-family="Lucida Sans Unicode">7</text>
<text x="474" y="390" text-anchor="middle" font-size="12" font-family="Lucida Sans Unicode">8</text></g>
<g id="yTicksValues">
<text x="36.8" y="371" text-anchor="end" font-size="12" font-family="Lucida Sans Unicode">3</text>
<text x="36.8" y="326" text-anchor="end" font-size="12" font-family="Lucida Sans Unicode">4</text>
<text x="36.8" y="281" text-anchor="end" font-size="12" font-family="Lucida Sans Unicode">5</text>
<text x="36.8" y="236" text-anchor="end" font-size="12" font-family="Lucida Sans Unicode">6</text>
<text x="36.8" y="191" text-anchor="end" font-size="12" font-family="Lucida Sans Unicode">7</text>
<text x="36.8" y="146" text-anchor="end" font-size="12" font-family="Lucida Sans Unicode">8</text>
<text x="36.8" y="101" text-anchor="end" font-size="12" font-family="Lucida Sans Unicode">9</text>
<text x="36.8" y="55.4" text-anchor="end" font-size="12" font-family="Lucida Sans Unicode">10</text>
<text x="36.8" y="371" text-anchor="end" font-size="12" font-family="Lucida Sans Unicode">0</text>
<text x="36.8" y="340" text-anchor="end" font-size="12" font-family="Lucida Sans Unicode">1</text>
<text x="36.8" y="308" text-anchor="end" font-size="12" font-family="Lucida Sans Unicode">2</text>
<text x="36.8" y="277" text-anchor="end" font-size="12" font-family="Lucida Sans Unicode">3</text>
<text x="36.8" y="245" text-anchor="end" font-size="12" font-family="Lucida Sans Unicode">4</text>
<text x="36.8" y="213" text-anchor="end" font-size="12" font-family="Lucida Sans Unicode">5</text>
<text x="36.8" y="182" text-anchor="end" font-size="12" font-family="Lucida Sans Unicode">6</text>
<text x="36.8" y="150" text-anchor="end" font-size="12" font-family="Lucida Sans Unicode">7</text>
<text x="36.8" y="119" text-anchor="end" font-size="12" font-family="Lucida Sans Unicode">8</text>
<text x="36.8" y="87" text-anchor="end" font-size="12" font-family="Lucida Sans Unicode">9</text>
<text x="36.8" y="55.4" text-anchor="end" font-size="12" font-family="Lucida Sans Unicode">10</text>
<text x="36.8" y="371" text-anchor="end" font-size="12" font-family="Lucida Sans Unicode">0</text></g>
<g id="yLabel">
<text x="14.9" y="211" text-anchor="middle" transform = "rotate(-90 14.9 211 )" font-size="14" font-family="Lucida Sans Unicode"></text></g>
<g id="xLabel">
<text x="261" y="405" text-anchor="middle" font-size="14" font-family="Lucida Sans Unicode"></text></g>
<g id="plotPoints" clip-path="url(#plot_window)"><g stroke="rgb(0,0,0)" fill="rgb(255,255,255)"><circle cx="53.9" cy="268" r="2"/><circle cx="115" cy="198" r="2"/><circle cx="431" cy="81.4" r="2"/></g>
</g>
<g id="limitPoints" stroke="rgb(119,136,153)" fill="rgb(250,235,215)"><polygon points=" 469,359 479,359 474,369"/><polygon points=" 469,43 479,43 474,53"/><polygon points=" 469,43 479,43 474,53"/><polygon points=" 469,359 479,359 474,369"/><polygon points=" 469,43 479,43 474,53"/><polygon points=" 469,43 479,43 474,53"/></g>
<g id="title">
<text x="250" y="36" text-anchor="middle" font-size="18" font-family="Lucida Sans Unicode"></text></g>
<g id="plotXValues"></g>
<g id="plotYValues"></g>
</svg>
