<?xml version="1.0" encoding="UTF-8" standalone="no"?>
<svg width="500" height ="400" version="1.1"
xmlns:svg ="http://www.w3.org/2000/svg"
xmlns:rdf="http://www.w3.org/1999/02/22-rdf-syntax-ns#"
xmlns:cc="http://web.resource.org/cc/"
xmlns:dc="http://purl.org/dc/elements/1.1/"
xmlns ="http://www.w3.org/2000/svg"
>
<!-- SVG plot written using Boost.Plot program (Creator Jacob Voytko) --> 
<!-- Use, modification and distribution of Boost.Plot subject to the --> 
<!-- Boost Software License, Version 1.0.--> 
<!-- (See accompanying file LICENSE_1_0.txt --> 
<!-- or copy at http://www.boost.org/LICENSE_1_0.txt) --> 

<clipPath id="plot_window"><rect x="46.4" y="45" width="427" height="323"/></clipPath>
<g id="imageBackground" stroke="rgb(255,255,0)" fill="rgb(255,255,255)" stroke-width="2"><rect x="0" y="0" width="500" height="400"/></g>
<g id="plotBackground" stroke="rgb(119,136,153)" fill="rgb(255,255,255)" stroke-width="2"><rect x="45.4" y="44" width="429" height="325"/></g>
<g id="yMinorGrid" stroke="rgb(200,220,255)" stroke-width="0.5"></g>
<g id="yMajorGrid" stroke="rgb(200,220,255)" stroke-width="1"></g>
<g id="xMinorGrid" stroke="rgb(200,220,255)" stroke-width="0.5"></g>
<g id="xMajorGrid" stroke="rgb(200,220,255)" stroke-width="1"></g>
<g id="yAxis" stroke="rgb(0,0,0)" stroke-width="1"><line x1="45.4" y1="44" x2="45.4" y2="369"/></g>
<g id="xAxis" stroke="rgb(0,0,0)" stroke-width="1"><line x1="45.4" y1="369" x2="474" y2="369"/></g>
<g id="yMinorTicks" stroke="rgb(0,0,0)" stroke-width="1"><path d="M43.4,360 L45.4,360 M43.4,350 L45.4,350 M43.4,341 L45.4,341 M43.4,332 L45.4,332 M43.4,313 L45.4,313 M43.4,304 L45.4,304 M43.4,295 L45.4,295 M43.4,285 L45.4,285 M43.4,267 L45.4,267 M43.4,258 L45.4,258 M43.4,248 L45.4,248 M43.4,239 L45.4,239 M43.4,220 L45.4,220 M43.4,211 L45.4,211 M43.4,202 L45.4,202 M43.4,193 L45.4,193 M43.4,174 L45.4,174 M43.4,165 L45.4,165 M43.4,155 L45.4,155 M43.4,146 L45.4,146 M43.4,128 L45.4,128 M43.4,118 L45.4,118 M43.4,109 L45.4,109 M43.4,99.7 L45.4,99.7 M43.4,81.1 L45.4,81.1 M43.4,71.9 L45.4,71.9 M43.4,62.6 L45.4,62.6 M43.4,53.3 L45.4,53.3 " fill="none"/></g>
<g id="xMinorTicks" stroke="rgb(0,0,0)" stroke-width="1"><path d="M57.6,369 L57.6,371 M69.9,369 L69.9,371 M82.1,369 L82.1,371 M94.4,369 L94.4,371 M119,369 L119,371 M131,369 L131,371 M143,369 L143,371 M156,369 L156,371 M180,369 L180,371 M192,369 L192,371 M205,369 L205,371 M217,369 L217,371 M241,369 L241,371 M254,369 L254,371 M266,369 L266,371 M278,369 L278,371 M303,369 L303,371 M315,369 L315,371 M327,369 L327,371 M339,369 L339,371 M364,369 L364,371 M376,369 L376,371 M388,369 L388,371 M401,369 L401,371 M425,369 L425,371 M437,369 L437,371 M450,369 L450,371 M462,369 L462,371 " fill="none"/></g>
<g id="yMajorTicks" stroke="rgb(0,0,0)" stroke-width="2"><path d="M40.4,369 L45.4,369 M40.4,323 L45.4,323 M40.4,276 L45.4,276 M40.4,230 L45.4,230 M40.4,183 L45.4,183 M40.4,137 L45.4,137 M40.4,90.4 L45.4,90.4 M40.4,44 L45.4,44 " fill="none"/></g>
<g id="xMajorTicks" stroke="rgb(0,0,0)" stroke-width="2"><path d="M45.4,369 L45.4,374 M107,369 L107,374 M168,369 L168,374 M229,369 L229,374 M290,369 L290,374 M352,369 L352,374 M413,369 L413,374 M474,369 L474,374 " fill="none"/></g>
<g id="xTicksValues">
<text x="45.4" y="390" text-anchor="middle" font-size="12" font-family="Lucida Sans Unicode">1</text>
<text x="107" y="390" text-anchor="middle" font-size="12" font-family="Lucida Sans Unicode">2</text>
<text x="168" y="390" text-anchor="middle" font-size="12" font-family="Lucida Sans Unicode">3</text>
<text x="229" y="390" text-anchor="middle" font-size="12" font-family="Lucida Sans Unicode">4</text>
<text x="290" y="390" text-anchor="middle" font-size="12" font-family="Lucida Sans Unicode">5</text>
<text x="352" y="390" text-anchor="middle" font-size="12" font-family="Lucida Sans Unicode">6</text>
<text x="413" y="390" text-anchor="middle" font-size="12" font-family="Lucida Sans Unicode">7</text>
<text x="474" y="390" text-anchor="middle" font-size="12" font-family="Lucida Sans Unicode">8</text></g>
<g id="yTicksValues">
<text x="34.4" y="371" text-anchor="end" font-size="12" font-family="Lucida Sans Unicode">3</text>
<text x="34.4" y="325" text-anchor="end" font-size="12" font-family="Lucida Sans Unicode">4</text>
<text x="34.4" y="279" text-anchor="end" font-size="12" font-family="Lucida Sans Unicode">5</text>
<text x="34.4" y="232" text-anchor="end" font-size="12" font-family="Lucida Sans Unicode">6</text>
<text x="34.4" y="186" text-anchor="end" font-size="12" font-family="Lucida Sans Unicode">7</text>
<text x="34.4" y="139" text-anchor="end" font-size="12" font-family="Lucida Sans Unicode">8</text>
<text x="34.4" y="92.8" text-anchor="end" font-size="12" font-family="Lucida Sans Unicode">9</text>
<text x="34.4" y="46.4" text-anchor="end" font-size="12" font-family="Lucida Sans Unicode">10</text></g>
<g id="yLabel">
<text x="14.9" y="207" text-anchor="middle" transform = "rotate(-90 14.9 207 )" font-size="14" font-family="Lucida Sans Unicode"></text></g>
<g id="xLabel">
<text x="260" y="402" text-anchor="middle" font-size="12" font-family="Lucida Sans Unicode"></text></g>
<g id="plotPoints" clip-path="url(#plot_window)"><g stroke="rgb(0,0,0)" fill="rgb(255,255,255)">
<text x="51.5" y="363" text-anchor="middle" font-size="10" font-family="Lucida Sans Unicode">&#x25CB;</text>
<text x="113" y="261" text-anchor="middle" font-size="10" font-family="Lucida Sans Unicode">&#x25CB;</text>
<text x="431" y="89" text-anchor="middle" font-size="10" font-family="Lucida Sans Unicode">&#x25CB;</text></g>
</g>
<g id="limitPoints" stroke="rgb(119,136,153)" fill="rgb(250,235,215)"><polygon points=" 469,359 479,359 474,369"/><polygon points=" 469,34 479,34 474,44"/><polygon points=" 469,34 479,34 474,44"/></g>
<g id="title">
<text x="250" y="27" text-anchor="middle" font-size="18" font-family="Lucida Sans Unicode" font-weight="normal">Autoscale example</text></g>
<g id="plotXValues"></g>
<g id="plotYValues"></g>
</svg>
