<?xml version="1.0" encoding="UTF-8" standalone="no"?>
<svg width="750" height ="400" version="1.1"
xmlns:svg ="http://www.w3.org/2000/svg"
xmlns:rdf="http://www.w3.org/1999/02/22-rdf-syntax-ns#"
xmlns:cc="http://web.resource.org/cc/"
xmlns:dc="http://purl.org/dc/elements/1.1/"
xmlns ="http://www.w3.org/2000/svg"
>
<!-- SVG plot written using Boost.Plot program (Creator Jacob Voytko) --> 
<!-- Use, modification and distribution of Boost.Plot subject to the --> 
<!-- Boost Software License, Version 1.0.--> 
<!-- (See accompanying file LICENSE_1_0.txt --> 
<!-- or copy at http://www.boost.org/LICENSE_1_0.txt) --> 

<!-- SVG Plot Copyright John Maddock 2008 --> 
<meta name="copyright" content="John Maddock" />
<meta name="date" content="2008" />
<!-- Use, modification and distribution of this Scalable Vector Graphic file -->
<!-- are subject to the Boost Software License, Version 1.0. -->
<!-- (See accompanying file LICENSE_1_0.txt or copy at http://www.boost.org/LICENSE_1_0.txt) -->

<clipPath id="plot_window">	<rect x="71.1" y="44" width="583.4" height="309"/>
</clipPath>
	<g id="imageBackground" stroke="rgb(119,136,153)" fill="rgb(255,255,255)" stroke-width="2">
	<rect x="0" y="0" width="750" height="400"/>
</g>
	<g id="plotBackground" stroke="rgb(119,136,153)" fill="rgb(255,255,255)" stroke-width="2">
	<rect x="70.1" y="43" width="585.4" height="311"/>
</g>
	<g id="yMinorGrid" stroke="rgb(200,220,255)" stroke-width="0.5">
</g>
	<g id="yMajorGrid" stroke="rgb(200,220,255)" stroke-width="1">
</g>
	<g id="xMinorGrid" stroke="rgb(200,220,255)" stroke-width="0.5">
</g>
	<g id="xMajorGrid" stroke="rgb(200,220,255)" stroke-width="1">
</g>
	<g id="yAxis" stroke="rgb(0,0,0)" stroke-width="1">
	<line x1="216.4" y1="43" x2="216.4" y2="359"/>
	<line x1="70.1" y1="43" x2="70.1" y2="354"/>
</g>
	<g id="xAxis" stroke="rgb(0,0,0)" stroke-width="1">
	<line x1="65.1" y1="354" x2="655.5" y2="354"/>
	<line x1="65.1" y1="354" x2="655.5" y2="354"/>
</g>
	<g id="yMinorTicks" stroke="rgb(0,0,0)" stroke-width="1">
	<path d="M68.1,348.3 L70.1,348.3 
M68.1,342.7 L70.1,342.7 
M68.1,337 L70.1,337 
M68.1,331.4 L70.1,331.4 
M68.1,320.1 L70.1,320.1 
M68.1,314.4 L70.1,314.4 
M68.1,308.8 L70.1,308.8 
M68.1,303.1 L70.1,303.1 
M68.1,291.8 L70.1,291.8 
M68.1,286.1 L70.1,286.1 
M68.1,280.5 L70.1,280.5 
M68.1,274.8 L70.1,274.8 
M68.1,263.5 L70.1,263.5 
M68.1,257.9 L70.1,257.9 
M68.1,252.2 L70.1,252.2 
M68.1,246.6 L70.1,246.6 
M68.1,235.3 L70.1,235.3 
M68.1,229.6 L70.1,229.6 
M68.1,223.9 L70.1,223.9 
M68.1,218.3 L70.1,218.3 
M68.1,207 L70.1,207 
M68.1,201.3 L70.1,201.3 
M68.1,195.7 L70.1,195.7 
M68.1,190 L70.1,190 
M68.1,178.7 L70.1,178.7 
M68.1,173.1 L70.1,173.1 
M68.1,167.4 L70.1,167.4 
M68.1,161.7 L70.1,161.7 
M68.1,150.4 L70.1,150.4 
M68.1,144.8 L70.1,144.8 
M68.1,139.1 L70.1,139.1 
M68.1,133.5 L70.1,133.5 
M68.1,122.2 L70.1,122.2 
M68.1,116.5 L70.1,116.5 
M68.1,110.9 L70.1,110.9 
M68.1,105.2 L70.1,105.2 
M68.1,93.89 L70.1,93.89 
M68.1,88.24 L70.1,88.24 
M68.1,82.58 L70.1,82.58 
M68.1,76.93 L70.1,76.93 
M68.1,65.62 L70.1,65.62 
M68.1,59.96 L70.1,59.96 
M68.1,54.31 L70.1,54.31 
M68.1,48.65 L70.1,48.65 
M68.1,354 L70.1,354 
" fill="none"/>
</g>
	<g id="xMinorTicks" stroke="rgb(0,0,0)" stroke-width="1">
</g>
	<g id="yMajorTicks" stroke="rgb(0,0,0)" stroke-width="2">
	<path d="M65.1,354 L70.1,354 
M65.1,325.7 L70.1,325.7 
M65.1,297.5 L70.1,297.5 
M65.1,269.2 L70.1,269.2 
M65.1,240.9 L70.1,240.9 
M65.1,212.6 L70.1,212.6 
M65.1,184.4 L70.1,184.4 
M65.1,156.1 L70.1,156.1 
M65.1,127.8 L70.1,127.8 
M65.1,99.55 L70.1,99.55 
M65.1,71.27 L70.1,71.27 
M65.1,43 L70.1,43 
M65.1,354 L70.1,354 
" fill="none"/>
</g>
	<g id="xMajorTicks" stroke="rgb(0,0,0)" stroke-width="2">
	<path d="M216.4,354 L216.4,359 
M509.1,354 L509.1,359 
M216.4,354 L216.4,359 
" fill="none"/>
</g>
	<g id="xTicksValues" font-size="12" font-family="Lucida Sans Unicode" text-anchor="middle">
	<text x="216.4" y="374.6">0
	</text>
	<text x="509.1" y="374.6">1
	</text>
	<text x="216.4" y="374.6">0
	</text>
</g>
	<g id="yTicksValues" font-size="12" font-family="Lucida Sans Unicode" text-anchor="end">
	<text x="59.1" y="356.4">0
	</text>
	<text x="59.1" y="328.1">0.1
	</text>
	<text x="59.1" y="299.9">0.2
	</text>
	<text x="59.1" y="271.6">0.3
	</text>
	<text x="59.1" y="243.3">0.4
	</text>
	<text x="59.1" y="215">0.5
	</text>
	<text x="59.1" y="186.8">0.6
	</text>
	<text x="59.1" y="158.5">0.7
	</text>
	<text x="59.1" y="130.2">0.8
	</text>
	<text x="59.1" y="101.9">0.9
	</text>
	<text x="59.1" y="73.67">1
	</text>
	<text x="59.1" y="45.4">1.1
	</text>
	<text x="59.1" y="356.4">0
	</text>
</g>
	<g id="yLabel">
	<text x="32.4" y="198.5" text-anchor="middle" transform="rotate(-90 32.4 198.5)" font-size="14" font-family="Lucida Sans Unicode">Probability
	</text>
</g>
	<g id="xLabel">
	<text x="362.8" y="387.1" text-anchor="middle" font-size="12" font-family="Lucida Sans Unicode">Random Variable
	</text>
</g>
	<g id="plotLines" stroke-width="2">
	<g clip-path="url(#plot_window)" stroke="rgb(0,0,139)" fill="rgb(0,0,139)" stroke-width="1">
	<path d="M106.7,354 L106.7,354 
L106.7,354 
L106.7,142 
L179.9,142 
L179.9,354 
L399.4,354 
L399.4,71.27 
L472.6,71.27 
L472.6,354 
L472.6,354 
Z" fill="rgb(0,0,139)"/>
</g>
	<g clip-path="url(#plot_window)" stroke="rgb(139,0,0)" fill="rgb(139,0,0)" stroke-width="1">
	<path d="M179.9,354 L179.9,354 
L179.9,354 
L179.9,212.6 
L253,212.6 
L253,354 
L472.6,354 
L472.6,71.27 
L545.7,71.27 
L545.7,354 
L545.7,354 
Z" fill="rgb(139,0,0)"/>
</g>
	<g clip-path="url(#plot_window)" stroke="rgb(0,100,0)" fill="rgb(0,100,0)" stroke-width="1">
	<path d="M253,354 L253,354 
L253,354 
L253,283.3 
L326.2,283.3 
L326.2,354 
L545.7,354 
L545.7,71.27 
L618.9,71.27 
L618.9,354 
L618.9,354 
Z" fill="rgb(0,100,0)"/>
</g>
</g>
	<g id="plotPoints" clip-path="url(#plot_window)">
</g>
	<g id="legendBackground" stroke="rgb(119,136,153)" fill="rgb(255,255,255)" stroke-width="1">
	<rect x="661.5" y="43" width="74.5" height="64.5"/>
</g>
	<g id="legendPoints">
</g>
	<g id="legendLines">
	<g stroke="rgb(0,0,139)" stroke-width="1">
	<line x1="676.8" y1="62.75" x2="682.8" y2="62.75"/>
</g>
	<g stroke="rgb(139,0,0)" stroke-width="1">
	<line x1="676.8" y1="75.25" x2="682.8" y2="75.25"/>
</g>
	<g stroke="rgb(0,100,0)" stroke-width="1">
	<line x1="676.8" y1="87.75" x2="682.8" y2="87.75"/>
</g>
</g>
	<g id="legendText">
	<text x="691.8" y="62.75" font-size="10" font-family="Lucida Sans Unicode" font-weight="normal" textLength="36">p=0.25
	</text>
	<text x="691.8" y="75.25" font-size="10" font-family="Lucida Sans Unicode" font-weight="normal" textLength="30">p=0.5
	</text>
	<text x="691.8" y="87.75" font-size="10" font-family="Lucida Sans Unicode" font-weight="normal" textLength="36">p=0.75
	</text>
</g>
	<g id="title">
	<text x="375" y="30" text-anchor="middle" font-size="20" font-family="Lucida Sans Unicode" font-weight="normal">Bernoulli Distribution CDF
	</text>
</g>
	<g id="plotXValues">
</g>
	<g id="plotYValues">
</g>
</svg>
