<?xml version="1.0" encoding="UTF-8" standalone="no"?>
<svg width="750" height ="400" version="1.1"
xmlns:svg ="http://www.w3.org/2000/svg"
xmlns:rdf="http://www.w3.org/1999/02/22-rdf-syntax-ns#"
xmlns:cc="http://web.resource.org/cc/"
xmlns:dc="http://purl.org/dc/elements/1.1/"
xmlns ="http://www.w3.org/2000/svg"
>
<!-- SVG plot written using Boost.Plot program (Creator Jacob Voytko) --> 
<!-- Use, modification and distribution of Boost.Plot subject to the --> 
<!-- Boost Software License, Version 1.0.--> 
<!-- (See accompanying file LICENSE_1_0.txt --> 
<!-- or copy at http://www.boost.org/LICENSE_1_0.txt) --> 

<!-- SVG Plot Copyright John Maddock 2008 --> 
<meta name="copyright" content="John Maddock" />
<meta name="date" content="2008" />
<!-- Use, modification and distribution of this Scalable Vector Graphic file -->
<!-- are subject to the Boost Software License, Version 1.0. -->
<!-- (See accompanying file LICENSE_1_0.txt or copy at http://www.boost.org/LICENSE_1_0.txt) -->

<clipPath id="plot_window">	<rect x="71.1" y="44" width="505.4" height="309"/>
</clipPath>
	<g id="imageBackground" stroke="rgb(119,136,153)" fill="rgb(255,255,255)" stroke-width="2">
	<rect x="0" y="0" width="750" height="400"/>
</g>
	<g id="plotBackground" stroke="rgb(119,136,153)" fill="rgb(255,255,255)" stroke-width="2">
	<rect x="70.1" y="43" width="507.4" height="311"/>
</g>
	<g id="yMinorGrid" stroke="rgb(200,220,255)" stroke-width="0.5">
</g>
	<g id="yMajorGrid" stroke="rgb(200,220,255)" stroke-width="1">
</g>
	<g id="xMinorGrid" stroke="rgb(200,220,255)" stroke-width="0.5">
</g>
	<g id="xMajorGrid" stroke="rgb(200,220,255)" stroke-width="1">
</g>
	<g id="yAxis" stroke="rgb(0,0,0)" stroke-width="1">
	<line x1="70.1" y1="43" x2="70.1" y2="359"/>
	<line x1="70.1" y1="43" x2="70.1" y2="354"/>
</g>
	<g id="xAxis" stroke="rgb(0,0,0)" stroke-width="1">
	<line x1="65.1" y1="354" x2="577.5" y2="354"/>
	<line x1="65.1" y1="354" x2="577.5" y2="354"/>
</g>
	<g id="yMinorTicks" stroke="rgb(0,0,0)" stroke-width="1">
	<path d="M68.1,344.2 L70.1,344.2 
M68.1,334.4 L70.1,334.4 
M68.1,324.6 L70.1,324.6 
M68.1,314.7 L70.1,314.7 
M68.1,295.1 L70.1,295.1 
M68.1,285.3 L70.1,285.3 
M68.1,275.5 L70.1,275.5 
M68.1,265.7 L70.1,265.7 
M68.1,246.1 L70.1,246.1 
M68.1,236.2 L70.1,236.2 
M68.1,226.4 L70.1,226.4 
M68.1,216.6 L70.1,216.6 
M68.1,197 L70.1,197 
M68.1,187.2 L70.1,187.2 
M68.1,177.4 L70.1,177.4 
M68.1,167.6 L70.1,167.6 
M68.1,147.9 L70.1,147.9 
M68.1,138.1 L70.1,138.1 
M68.1,128.3 L70.1,128.3 
M68.1,118.5 L70.1,118.5 
M68.1,98.87 L70.1,98.87 
M68.1,89.05 L70.1,89.05 
M68.1,79.24 L70.1,79.24 
M68.1,69.43 L70.1,69.43 
M68.1,49.8 L70.1,49.8 
M68.1,354 L70.1,354 
" fill="none"/>
</g>
	<g id="xMinorTicks" stroke="rgb(0,0,0)" stroke-width="1">
	<path d="M80.25,354 L80.25,356 
M90.4,354 L90.4,356 
M100.5,354 L100.5,356 
M110.7,354 L110.7,356 
M131,354 L131,356 
M141.1,354 L141.1,356 
M151.3,354 L151.3,356 
M161.4,354 L161.4,356 
M181.7,354 L181.7,356 
M191.9,354 L191.9,356 
M202,354 L202,356 
M212.2,354 L212.2,356 
M232.5,354 L232.5,356 
M242.6,354 L242.6,356 
M252.8,354 L252.8,356 
M262.9,354 L262.9,356 
M283.2,354 L283.2,356 
M293.4,354 L293.4,356 
M303.5,354 L303.5,356 
M313.7,354 L313.7,356 
M333.9,354 L333.9,356 
M344.1,354 L344.1,356 
M354.2,354 L354.2,356 
M364.4,354 L364.4,356 
M384.7,354 L384.7,356 
M394.8,354 L394.8,356 
M405,354 L405,356 
M415.1,354 L415.1,356 
M435.4,354 L435.4,356 
M445.6,354 L445.6,356 
M455.7,354 L455.7,356 
M465.9,354 L465.9,356 
M486.2,354 L486.2,356 
M496.3,354 L496.3,356 
M506.5,354 L506.5,356 
M516.6,354 L516.6,356 
M536.9,354 L536.9,356 
M547.1,354 L547.1,356 
M557.2,354 L557.2,356 
M567.4,354 L567.4,356 
" fill="none"/>
</g>
	<g id="yMajorTicks" stroke="rgb(0,0,0)" stroke-width="2">
	<path d="M65.1,354 L70.1,354 
M65.1,304.9 L70.1,304.9 
M65.1,255.9 L70.1,255.9 
M65.1,206.8 L70.1,206.8 
M65.1,157.7 L70.1,157.7 
M65.1,108.7 L70.1,108.7 
M65.1,59.62 L70.1,59.62 
M65.1,354 L70.1,354 
" fill="none"/>
</g>
	<g id="xMajorTicks" stroke="rgb(0,0,0)" stroke-width="2">
	<path d="M70.1,354 L70.1,359 
M120.8,354 L120.8,359 
M171.6,354 L171.6,359 
M222.3,354 L222.3,359 
M273.1,354 L273.1,359 
M323.8,354 L323.8,359 
M374.5,354 L374.5,359 
M425.3,354 L425.3,359 
M476,354 L476,359 
M526.8,354 L526.8,359 
M577.5,354 L577.5,359 
M70.1,354 L70.1,359 
" fill="none"/>
</g>
	<g id="xTicksValues" font-size="12" font-family="Lucida Sans Unicode" text-anchor="middle">
	<text x="70.1" y="374.6">0
	</text>
	<text x="120.8" y="374.6">0.1
	</text>
	<text x="171.6" y="374.6">0.2
	</text>
	<text x="222.3" y="374.6">0.3
	</text>
	<text x="273.1" y="374.6">0.4
	</text>
	<text x="323.8" y="374.6">0.5
	</text>
	<text x="374.5" y="374.6">0.6
	</text>
	<text x="425.3" y="374.6">0.7
	</text>
	<text x="476" y="374.6">0.8
	</text>
	<text x="526.8" y="374.6">0.9
	</text>
	<text x="577.5" y="374.6">1
	</text>
	<text x="70.1" y="374.6">0
	</text>
</g>
	<g id="yTicksValues" font-size="12" font-family="Lucida Sans Unicode" text-anchor="end">
	<text x="59.1" y="356.4">0
	</text>
	<text x="59.1" y="307.3">0.5
	</text>
	<text x="59.1" y="258.3">1
	</text>
	<text x="59.1" y="209.2">1.5
	</text>
	<text x="59.1" y="160.1">2
	</text>
	<text x="59.1" y="111.1">2.5
	</text>
	<text x="59.1" y="62.02">3
	</text>
	<text x="59.1" y="356.4">0
	</text>
</g>
	<g id="yLabel">
	<text x="32.4" y="198.5" text-anchor="middle" transform="rotate(-90 32.4 198.5)" font-size="14" font-family="Lucida Sans Unicode">Probability
	</text>
</g>
	<g id="xLabel">
	<text x="323.8" y="387.1" text-anchor="middle" font-size="12" font-family="Lucida Sans Unicode">Random Variable
	</text>
</g>
	<g id="plotLines" stroke-width="2">
	<g clip-path="url(#plot_window)" stroke="rgb(0,0,139)" stroke-width="1">
	<path d="M77.71,97.03 L77.71,97.03 
L80.25,130.9 
L82.78,153.9 
L85.32,170.9 
L87.86,184 
L90.4,194.6 
L92.93,203.3 
L95.47,210.7 
L98.01,217 
L100.5,222.5 
L103.1,227.3 
L105.6,231.6 
L108.2,235.4 
L110.7,238.9 
L113.2,242 
L115.8,244.9 
L118.3,247.5 
L120.8,249.9 
L123.4,252.1 
L125.9,254.2 
L128.5,256.1 
L131,257.9 
L133.5,259.6 
L136.1,261.1 
L138.6,262.6 
L141.1,264 
L143.7,265.3 
L146.2,266.5 
L148.7,267.7 
L151.3,268.8 
L153.8,269.8 
L156.4,270.8 
L158.9,271.8 
L161.4,272.7 
L164,273.6 
L166.5,274.4 
L169,275.2 
L171.6,275.9 
L174.1,276.6 
L176.7,277.3 
L179.2,278 
L181.7,278.6 
L184.3,279.2 
L186.8,279.8 
L189.3,280.3 
L191.9,280.9 
L194.4,281.4 
L197,281.9 
L199.5,282.3 
L202,282.8 
L204.6,283.2 
L207.1,283.6 
L209.6,284 
L212.2,284.4 
L214.7,284.8 
L217.2,285.2 
L219.8,285.5 
L222.3,285.8 
L224.9,286.2 
L227.4,286.5 
L229.9,286.8 
L232.5,287 
L235,287.3 
L237.5,287.6 
L240.1,287.8 
L242.6,288.1 
L245.2,288.3 
L247.7,288.5 
L250.2,288.7 
L252.8,288.9 
L255.3,289.1 
L257.8,289.3 
L260.4,289.5 
L262.9,289.6 
L265.4,289.8 
L268,290 
L270.5,290.1 
L273.1,290.2 
L275.6,290.4 
L278.1,290.5 
L280.7,290.6 
L283.2,290.7 
L285.7,290.8 
L288.3,290.9 
L290.8,291 
L293.4,291.1 
L295.9,291.1 
L298.4,291.2 
L301,291.3 
L303.5,291.3 
L306,291.4 
L308.6,291.4 
L311.1,291.5 
L313.7,291.5 
L316.2,291.5 
L318.7,291.5 
L321.3,291.5 
L323.8,291.5 
L326.3,291.5 
L328.9,291.5 
L331.4,291.5 
L333.9,291.5 
L336.5,291.5 
L339,291.4 
L341.6,291.4 
L344.1,291.3 
L346.6,291.3 
L349.2,291.2 
L351.7,291.1 
L354.2,291.1 
L356.8,291 
L359.3,290.9 
L361.9,290.8 
L364.4,290.7 
L366.9,290.6 
L369.5,290.5 
L372,290.4 
L374.5,290.2 
L377.1,290.1 
L379.6,290 
L382.2,289.8 
L384.7,289.6 
L387.2,289.5 
L389.8,289.3 
L392.3,289.1 
L394.8,288.9 
L397.4,288.7 
L399.9,288.5 
L402.4,288.3 
L405,288.1 
L407.5,287.8 
L410.1,287.6 
L412.6,287.3 
L415.1,287 
L417.7,286.8 
L420.2,286.5 
L422.7,286.2 
L425.3,285.8 
L427.8,285.5 
L430.4,285.2 
L432.9,284.8 
L435.4,284.4 
L438,284 
L440.5,283.6 
L443,283.2 
L445.6,282.8 
L448.1,282.3 
L450.7,281.9 
L453.2,281.4 
L455.7,280.9 
L458.3,280.3 
L460.8,279.8 
L463.3,279.2 
L465.9,278.6 
L468.4,278 
L470.9,277.3 
L473.5,276.6 
L476,275.9 
L478.6,275.2 
L481.1,274.4 
L483.6,273.6 
L486.2,272.7 
L488.7,271.8 
L491.2,270.8 
L493.8,269.8 
L496.3,268.8 
L498.9,267.7 
L501.4,266.5 
L503.9,265.3 
L506.5,264 
L509,262.6 
L511.5,261.1 
L514.1,259.6 
L516.6,257.9 
L519.1,256.1 
L521.7,254.2 
L524.2,252.1 
L526.8,249.9 
L529.3,247.5 
L531.8,244.9 
L534.4,242 
L536.9,238.9 
L539.4,235.4 
L542,231.6 
L544.5,227.3 
L547.1,222.5 
L549.6,217 
L552.1,210.7 
L554.7,203.3 
L557.2,194.6 
L559.7,184 
L562.3,170.9 
L564.8,153.9 
L567.4,130.9 
L569.9,97.03 
" fill="none"/>
</g>
	<g clip-path="url(#plot_window)" stroke="rgb(139,0,0)" stroke-width="1">
	<path d="M70.1,354 L70.1,354 
L72.64,354 
L75.17,354 
L77.71,354 
L80.25,354 
L82.78,354 
L85.32,354 
L87.86,354 
L90.4,354 
L92.93,354 
L95.47,354 
L98.01,354 
L100.5,354 
L103.1,354 
L105.6,354 
L108.2,354 
L110.7,354 
L113.2,354 
L115.8,354 
L118.3,354 
L120.8,354 
L123.4,353.9 
L125.9,353.9 
L128.5,353.9 
L131,353.9 
L133.5,353.9 
L136.1,353.9 
L138.6,353.8 
L141.1,353.8 
L143.7,353.8 
L146.2,353.8 
L148.7,353.7 
L151.3,353.7 
L153.8,353.6 
L156.4,353.6 
L158.9,353.5 
L161.4,353.5 
L164,353.4 
L166.5,353.4 
L169,353.3 
L171.6,353.2 
L174.1,353.1 
L176.7,353 
L179.2,353 
L181.7,352.9 
L184.3,352.7 
L186.8,352.6 
L189.3,352.5 
L191.9,352.4 
L194.4,352.2 
L197,352.1 
L199.5,351.9 
L202,351.8 
L204.6,351.6 
L207.1,351.4 
L209.6,351.2 
L212.2,351 
L214.7,350.8 
L217.2,350.5 
L219.8,350.3 
L222.3,350 
L224.9,349.8 
L227.4,349.5 
L229.9,349.2 
L232.5,348.9 
L235,348.5 
L237.5,348.2 
L240.1,347.8 
L242.6,347.4 
L245.2,347 
L247.7,346.6 
L250.2,346.2 
L252.8,345.8 
L255.3,345.3 
L257.8,344.8 
L260.4,344.3 
L262.9,343.8 
L265.4,343.2 
L268,342.6 
L270.5,342.1 
L273.1,341.4 
L275.6,340.8 
L278.1,340.1 
L280.7,339.4 
L283.2,338.7 
L285.7,338 
L288.3,337.2 
L290.8,336.4 
L293.4,335.6 
L295.9,334.8 
L298.4,333.9 
L301,333 
L303.5,332 
L306,331.1 
L308.6,330.1 
L311.1,329 
L313.7,328 
L316.2,326.9 
L318.7,325.7 
L321.3,324.5 
L323.8,323.3 
L326.3,322.1 
L328.9,320.8 
L331.4,319.5 
L333.9,318.1 
L336.5,316.7 
L339,315.3 
L341.6,313.8 
L344.1,312.3 
L346.6,310.7 
L349.2,309.1 
L351.7,307.4 
L354.2,305.7 
L356.8,304 
L359.3,302.2 
L361.9,300.4 
L364.4,298.5 
L366.9,296.5 
L369.5,294.5 
L372,292.5 
L374.5,290.4 
L377.1,288.3 
L379.6,286.1 
L382.2,283.8 
L384.7,281.5 
L387.2,279.1 
L389.8,276.7 
L392.3,274.2 
L394.8,271.7 
L397.4,269.1 
L399.9,266.4 
L402.4,263.7 
L405,260.9 
L407.5,258 
L410.1,255.1 
L412.6,252.1 
L415.1,249.1 
L417.7,246 
L420.2,242.8 
L422.7,239.5 
L425.3,236.2 
L427.8,232.8 
L430.4,229.3 
L432.9,225.8 
L435.4,222.1 
L438,218.4 
L440.5,214.7 
L443,210.8 
L445.6,206.9 
L448.1,202.9 
L450.7,198.8 
L453.2,194.6 
L455.7,190.3 
L458.3,186 
L460.8,181.5 
L463.3,177 
L465.9,172.4 
L468.4,167.7 
L470.9,162.9 
L473.5,158 
L476,153 
L478.6,148 
L481.1,142.8 
L483.6,137.5 
L486.2,132.2 
L488.7,126.7 
L491.2,121.1 
L493.8,115.5 
L496.3,109.7 
L498.9,103.9 
L501.4,97.88 
L503.9,91.8 
L506.5,85.62 
L509,79.32 
L511.5,72.91 
L514.1,66.39 
L516.6,59.76 
L519.1,53.02 
L521.7,46.16 
" fill="none"/>
</g>
	<g clip-path="url(#plot_window)" stroke="rgb(0,100,0)" stroke-width="1">
	<path d="M70.1,59.62 L70.1,59.62 
L72.64,62.55 
L75.17,65.47 
L77.71,68.38 
L80.25,71.27 
L82.78,74.15 
L85.32,77.01 
L87.86,79.86 
L90.4,82.69 
L92.93,85.51 
L95.47,88.32 
L98.01,91.11 
L100.5,93.88 
L103.1,96.64 
L105.6,99.39 
L108.2,102.1 
L110.7,104.8 
L113.2,107.5 
L115.8,110.2 
L118.3,112.9 
L120.8,115.5 
L123.4,118.2 
L125.9,120.8 
L128.5,123.4 
L131,126 
L133.5,128.6 
L136.1,131.2 
L138.6,133.7 
L141.1,136.3 
L143.7,138.8 
L146.2,141.3 
L148.7,143.8 
L151.3,146.3 
L153.8,148.7 
L156.4,151.2 
L158.9,153.6 
L161.4,156.1 
L164,158.5 
L166.5,160.9 
L169,163.2 
L171.6,165.6 
L174.1,167.9 
L176.7,170.3 
L179.2,172.6 
L181.7,174.9 
L184.3,177.2 
L186.8,179.5 
L189.3,181.7 
L191.9,184 
L194.4,186.2 
L197,188.4 
L199.5,190.6 
L202,192.8 
L204.6,195 
L207.1,197.1 
L209.6,199.3 
L212.2,201.4 
L214.7,203.5 
L217.2,205.6 
L219.8,207.7 
L222.3,209.8 
L224.9,211.8 
L227.4,213.8 
L229.9,215.9 
L232.5,217.9 
L235,219.9 
L237.5,221.9 
L240.1,223.8 
L242.6,225.8 
L245.2,227.7 
L247.7,229.6 
L250.2,231.5 
L252.8,233.4 
L255.3,235.3 
L257.8,237.2 
L260.4,239 
L262.9,240.8 
L265.4,242.7 
L268,244.5 
L270.5,246.2 
L273.1,248 
L275.6,249.8 
L278.1,251.5 
L280.7,253.3 
L283.2,255 
L285.7,256.7 
L288.3,258.4 
L290.8,260 
L293.4,261.7 
L295.9,263.3 
L298.4,264.9 
L301,266.6 
L303.5,268.2 
L306,269.7 
L308.6,271.3 
L311.1,272.9 
L313.7,274.4 
L316.2,275.9 
L318.7,277.4 
L321.3,278.9 
L323.8,280.4 
L326.3,281.9 
L328.9,283.3 
L331.4,284.8 
L333.9,286.2 
L336.5,287.6 
L339,289 
L341.6,290.3 
L344.1,291.7 
L346.6,293.1 
L349.2,294.4 
L351.7,295.7 
L354.2,297 
L356.8,298.3 
L359.3,299.6 
L361.9,300.8 
L364.4,302.1 
L366.9,303.3 
L369.5,304.5 
L372,305.7 
L374.5,306.9 
L377.1,308.1 
L379.6,309.2 
L382.2,310.4 
L384.7,311.5 
L387.2,312.6 
L389.8,313.7 
L392.3,314.8 
L394.8,315.8 
L397.4,316.9 
L399.9,317.9 
L402.4,319 
L405,320 
L407.5,321 
L410.1,321.9 
L412.6,322.9 
L415.1,323.9 
L417.7,324.8 
L420.2,325.7 
L422.7,326.6 
L425.3,327.5 
L427.8,328.4 
L430.4,329.2 
L432.9,330.1 
L435.4,330.9 
L438,331.7 
L440.5,332.5 
L443,333.3 
L445.6,334.1 
L448.1,334.9 
L450.7,335.6 
L453.2,336.3 
L455.7,337 
L458.3,337.7 
L460.8,338.4 
L463.3,339.1 
L465.9,339.8 
L468.4,340.4 
L470.9,341 
L473.5,341.6 
L476,342.2 
L478.6,342.8 
L481.1,343.4 
L483.6,343.9 
L486.2,344.5 
L488.7,345 
L491.2,345.5 
L493.8,346 
L496.3,346.5 
L498.9,346.9 
L501.4,347.4 
L503.9,347.8 
L506.5,348.2 
L509,348.6 
L511.5,349 
L514.1,349.4 
L516.6,349.8 
L519.1,350.1 
L521.7,350.4 
L524.2,350.8 
L526.8,351.1 
L529.3,351.3 
L531.8,351.6 
L534.4,351.9 
L536.9,352.1 
L539.4,352.3 
L542,352.6 
L544.5,352.8 
L547.1,352.9 
L549.6,353.1 
L552.1,353.3 
L554.7,353.4 
L557.2,353.5 
L559.7,353.6 
L562.3,353.7 
L564.8,353.8 
L567.4,353.9 
L569.9,353.9 
L572.4,354 
L575,354 
" fill="none"/>
</g>
	<g clip-path="url(#plot_window)" stroke="rgb(255,140,0)" stroke-width="1">
	<path d="M70.1,354 L70.1,354 
L72.64,351.1 
L75.17,348.2 
L77.71,345.3 
L80.25,342.5 
L82.78,339.6 
L85.32,336.9 
L87.86,334.1 
L90.4,331.4 
L92.93,328.7 
L95.47,326 
L98.01,323.4 
L100.5,320.8 
L103.1,318.2 
L105.6,315.7 
L108.2,313.2 
L110.7,310.7 
L113.2,308.2 
L115.8,305.8 
L118.3,303.4 
L120.8,301 
L123.4,298.7 
L125.9,296.4 
L128.5,294.1 
L131,291.8 
L133.5,289.6 
L136.1,287.4 
L138.6,285.2 
L141.1,283.1 
L143.7,281 
L146.2,278.9 
L148.7,276.9 
L151.3,274.9 
L153.8,272.9 
L156.4,270.9 
L158.9,269 
L161.4,267.1 
L164,265.2 
L166.5,263.4 
L169,261.6 
L171.6,259.8 
L174.1,258 
L176.7,256.3 
L179.2,254.6 
L181.7,253 
L184.3,251.3 
L186.8,249.7 
L189.3,248.2 
L191.9,246.6 
L194.4,245.1 
L197,243.6 
L199.5,242.1 
L202,240.7 
L204.6,239.3 
L207.1,238 
L209.6,236.6 
L212.2,235.3 
L214.7,234 
L217.2,232.8 
L219.8,231.6 
L222.3,230.4 
L224.9,229.2 
L227.4,228.1 
L229.9,227 
L232.5,225.9 
L235,224.8 
L237.5,223.8 
L240.1,222.8 
L242.6,221.9 
L245.2,221 
L247.7,220.1 
L250.2,219.2 
L252.8,218.3 
L255.3,217.5 
L257.8,216.8 
L260.4,216 
L262.9,215.3 
L265.4,214.6 
L268,213.9 
L270.5,213.3 
L273.1,212.7 
L275.6,212.1 
L278.1,211.6 
L280.7,211.1 
L283.2,210.6 
L285.7,210.1 
L288.3,209.7 
L290.8,209.3 
L293.4,208.9 
L295.9,208.6 
L298.4,208.3 
L301,208 
L303.5,207.7 
L306,207.5 
L308.6,207.3 
L311.1,207.2 
L313.7,207 
L316.2,206.9 
L318.7,206.9 
L321.3,206.8 
L323.8,206.8 
L326.3,206.8 
L328.9,206.9 
L331.4,206.9 
L333.9,207 
L336.5,207.2 
L339,207.3 
L341.6,207.5 
L344.1,207.7 
L346.6,208 
L349.2,208.3 
L351.7,208.6 
L354.2,208.9 
L356.8,209.3 
L359.3,209.7 
L361.9,210.1 
L364.4,210.6 
L366.9,211.1 
L369.5,211.6 
L372,212.1 
L374.5,212.7 
L377.1,213.3 
L379.6,213.9 
L382.2,214.6 
L384.7,215.3 
L387.2,216 
L389.8,216.8 
L392.3,217.5 
L394.8,218.3 
L397.4,219.2 
L399.9,220.1 
L402.4,221 
L405,221.9 
L407.5,222.8 
L410.1,223.8 
L412.6,224.8 
L415.1,225.9 
L417.7,227 
L420.2,228.1 
L422.7,229.2 
L425.3,230.4 
L427.8,231.6 
L430.4,232.8 
L432.9,234 
L435.4,235.3 
L438,236.6 
L440.5,238 
L443,239.3 
L445.6,240.7 
L448.1,242.1 
L450.7,243.6 
L453.2,245.1 
L455.7,246.6 
L458.3,248.2 
L460.8,249.7 
L463.3,251.3 
L465.9,253 
L468.4,254.6 
L470.9,256.3 
L473.5,258 
L476,259.8 
L478.6,261.6 
L481.1,263.4 
L483.6,265.2 
L486.2,267.1 
L488.7,269 
L491.2,270.9 
L493.8,272.9 
L496.3,274.9 
L498.9,276.9 
L501.4,278.9 
L503.9,281 
L506.5,283.1 
L509,285.2 
L511.5,287.4 
L514.1,289.6 
L516.6,291.8 
L519.1,294.1 
L521.7,296.4 
L524.2,298.7 
L526.8,301 
L529.3,303.4 
L531.8,305.8 
L534.4,308.2 
L536.9,310.7 
L539.4,313.2 
L542,315.7 
L544.5,318.2 
L547.1,320.8 
L549.6,323.4 
L552.1,326 
L554.7,328.7 
L557.2,331.4 
L559.7,334.1 
L562.3,336.9 
L564.8,339.6 
L567.4,342.5 
L569.9,345.3 
L572.4,348.2 
L575,351.1 
" fill="none"/>
</g>
	<g clip-path="url(#plot_window)" stroke="rgb(127,255,0)" stroke-width="1">
	<path d="M70.1,354 L70.1,354 
L72.64,339.6 
L75.17,325.7 
L77.71,312.4 
L80.25,299.7 
L82.78,287.5 
L85.32,275.8 
L87.86,264.7 
L90.4,254 
L92.93,243.8 
L95.47,234.1 
L98.01,224.9 
L100.5,216.1 
L103.1,207.8 
L105.6,199.8 
L108.2,192.4 
L110.7,185.3 
L113.2,178.6 
L115.8,172.3 
L118.3,166.4 
L120.8,160.9 
L123.4,155.7 
L125.9,150.8 
L128.5,146.3 
L131,142.2 
L133.5,138.3 
L136.1,134.8 
L138.6,131.5 
L141.1,128.6 
L143.7,125.9 
L146.2,123.5 
L148.7,121.4 
L151.3,119.5 
L153.8,117.9 
L156.4,116.5 
L158.9,115.3 
L161.4,114.4 
L164,113.7 
L166.5,113.2 
L169,112.9 
L171.6,112.8 
L174.1,112.9 
L176.7,113.2 
L179.2,113.7 
L181.7,114.3 
L184.3,115.1 
L186.8,116 
L189.3,117.1 
L191.9,118.3 
L194.4,119.6 
L197,121.1 
L199.5,122.8 
L202,124.5 
L204.6,126.3 
L207.1,128.3 
L209.6,130.3 
L212.2,132.5 
L214.7,134.7 
L217.2,137.1 
L219.8,139.5 
L222.3,142 
L224.9,144.5 
L227.4,147.1 
L229.9,149.8 
L232.5,152.6 
L235,155.4 
L237.5,158.2 
L240.1,161.1 
L242.6,164.1 
L245.2,167.1 
L247.7,170.1 
L250.2,173.1 
L252.8,176.2 
L255.3,179.3 
L257.8,182.4 
L260.4,185.6 
L262.9,188.7 
L265.4,191.9 
L268,195 
L270.5,198.2 
L273.1,201.4 
L275.6,204.6 
L278.1,207.7 
L280.7,210.9 
L283.2,214.1 
L285.7,217.2 
L288.3,220.4 
L290.8,223.5 
L293.4,226.6 
L295.9,229.7 
L298.4,232.8 
L301,235.8 
L303.5,238.9 
L306,241.9 
L308.6,244.8 
L311.1,247.8 
L313.7,250.7 
L316.2,253.6 
L318.7,256.4 
L321.3,259.2 
L323.8,262 
L326.3,264.7 
L328.9,267.4 
L331.4,270.1 
L333.9,272.7 
L336.5,275.3 
L339,277.9 
L341.6,280.4 
L344.1,282.8 
L346.6,285.2 
L349.2,287.6 
L351.7,289.9 
L354.2,292.2 
L356.8,294.4 
L359.3,296.6 
L361.9,298.8 
L364.4,300.9 
L366.9,302.9 
L369.5,304.9 
L372,306.9 
L374.5,308.8 
L377.1,310.6 
L379.6,312.5 
L382.2,314.2 
L384.7,315.9 
L387.2,317.6 
L389.8,319.2 
L392.3,320.8 
L394.8,322.4 
L397.4,323.8 
L399.9,325.3 
L402.4,326.7 
L405,328 
L407.5,329.3 
L410.1,330.6 
L412.6,331.8 
L415.1,333 
L417.7,334.1 
L420.2,335.2 
L422.7,336.3 
L425.3,337.3 
L427.8,338.3 
L430.4,339.2 
L432.9,340.1 
L435.4,341 
L438,341.8 
L440.5,342.6 
L443,343.3 
L445.6,344 
L448.1,344.7 
L450.7,345.4 
L453.2,346 
L455.7,346.6 
L458.3,347.1 
L460.8,347.7 
L463.3,348.2 
L465.9,348.6 
L468.4,349.1 
L470.9,349.5 
L473.5,349.9 
L476,350.2 
L478.6,350.6 
L481.1,350.9 
L483.6,351.2 
L486.2,351.5 
L488.7,351.7 
L491.2,352 
L493.8,352.2 
L496.3,352.4 
L498.9,352.6 
L501.4,352.7 
L503.9,352.9 
L506.5,353 
L509,353.2 
L511.5,353.3 
L514.1,353.4 
L516.6,353.5 
L519.1,353.5 
L521.7,353.6 
L524.2,353.7 
L526.8,353.7 
L529.3,353.8 
L531.8,353.8 
L534.4,353.9 
L536.9,353.9 
L539.4,353.9 
L542,353.9 
L544.5,354 
L547.1,354 
L549.6,354 
L552.1,354 
L554.7,354 
L557.2,354 
L559.7,354 
L562.3,354 
L564.8,354 
L567.4,354 
L569.9,354 
L572.4,354 
L575,354 
" fill="none"/>
</g>
</g>
	<g id="plotPoints" clip-path="url(#plot_window)">
</g>
	<g id="limitPoints" stroke="rgb(119,136,153)" fill="rgb(250,235,215)">
	<polygon points=" 65.1,33 75.1,33 70.1,43"/>
</g>
	<g id="legendBackground" stroke="rgb(119,136,153)" fill="rgb(255,255,255)" stroke-width="1">
	<rect x="583.5" y="43" width="152.5" height="89.5"/>
</g>
	<g id="legendPoints">
</g>
	<g id="legendLines">
	<g stroke="rgb(0,0,139)" stroke-width="1">
	<line x1="598.8" y1="62.75" x2="604.8" y2="62.75"/>
</g>
	<g stroke="rgb(139,0,0)" stroke-width="1">
	<line x1="598.8" y1="75.25" x2="604.8" y2="75.25"/>
</g>
	<g stroke="rgb(0,100,0)" stroke-width="1">
	<line x1="598.8" y1="87.75" x2="604.8" y2="87.75"/>
</g>
	<g stroke="rgb(255,140,0)" stroke-width="1">
	<line x1="598.8" y1="100.3" x2="604.8" y2="100.3"/>
</g>
	<g stroke="rgb(127,255,0)" stroke-width="1">
	<line x1="598.8" y1="112.8" x2="604.8" y2="112.8"/>
</g>
</g>
	<g id="legendText">
	<text x="613.8" y="62.75" font-size="10" font-family="Lucida Sans Unicode" font-weight="normal" textLength="114">alpha=0.5, beta=0.5
	</text>
	<text x="613.8" y="75.25" font-size="10" font-family="Lucida Sans Unicode" font-weight="normal" textLength="90">alpha=5, beta=1
	</text>
	<text x="613.8" y="87.75" font-size="10" font-family="Lucida Sans Unicode" font-weight="normal" textLength="90">alpha=1, beta=3
	</text>
	<text x="613.8" y="100.3" font-size="10" font-family="Lucida Sans Unicode" font-weight="normal" textLength="90">alpha=2, beta=2
	</text>
	<text x="613.8" y="112.8" font-size="10" font-family="Lucida Sans Unicode" font-weight="normal" textLength="90">alpha=2, beta=5
	</text>
</g>
	<g id="title">
	<text x="375" y="30" text-anchor="middle" font-size="20" font-family="Lucida Sans Unicode" font-weight="normal">Beta Distribution PDF
	</text>
</g>
	<g id="plotXValues">
</g>
	<g id="plotYValues">
</g>
</svg>
