<?xml version="1.0" encoding="UTF-8" standalone="no"?>
<svg width="750" height ="400" version="1.1"
xmlns:svg ="http://www.w3.org/2000/svg"
xmlns:rdf="http://www.w3.org/1999/02/22-rdf-syntax-ns#"
xmlns:cc="http://web.resource.org/cc/"
xmlns:dc="http://purl.org/dc/elements/1.1/"
xmlns ="http://www.w3.org/2000/svg"
>
<!-- SVG plot written using Boost.Plot program (Creator Jacob Voytko) --> 
<!-- Use, modification and distribution of Boost.Plot subject to the --> 
<!-- Boost Software License, Version 1.0.--> 
<!-- (See accompanying file LICENSE_1_0.txt --> 
<!-- or copy at http://www.boost.org/LICENSE_1_0.txt) --> 

<!-- SVG Plot Copyright John Maddock 2008 --> 
<meta name="copyright" content="John Maddock" />
<meta name="date" content="2008" />
<!-- Use, modification and distribution of this Scalable Vector Graphic file -->
<!-- are subject to the Boost Software License, Version 1.0. -->
<!-- (See accompanying file LICENSE_1_0.txt or copy at http://www.boost.org/LICENSE_1_0.txt) -->

<clipPath id="plot_window">	<rect x="78.3" y="44" width="552.2" height="309"/>
</clipPath>
	<g id="imageBackground" stroke="rgb(119,136,153)" fill="rgb(255,255,255)" stroke-width="2">
	<rect x="0" y="0" width="750" height="400"/>
</g>
	<g id="plotBackground" stroke="rgb(119,136,153)" fill="rgb(255,255,255)" stroke-width="2">
	<rect x="77.3" y="43" width="554.2" height="311"/>
</g>
	<g id="yMinorGrid" stroke="rgb(200,220,255)" stroke-width="0.5">
</g>
	<g id="yMajorGrid" stroke="rgb(200,220,255)" stroke-width="1">
</g>
	<g id="xMinorGrid" stroke="rgb(200,220,255)" stroke-width="0.5">
</g>
	<g id="xMajorGrid" stroke="rgb(200,220,255)" stroke-width="1">
</g>
	<g id="yAxis" stroke="rgb(0,0,0)" stroke-width="1">
	<line x1="82.73" y1="43" x2="82.73" y2="359"/>
	<line x1="77.3" y1="43" x2="77.3" y2="354"/>
</g>
	<g id="xAxis" stroke="rgb(0,0,0)" stroke-width="1">
	<line x1="72.3" y1="354" x2="631.5" y2="354"/>
	<line x1="72.3" y1="354" x2="631.5" y2="354"/>
</g>
	<g id="yMinorTicks" stroke="rgb(0,0,0)" stroke-width="1">
	<path d="M75.3,345 L77.3,345 
M75.3,335.9 L77.3,335.9 
M75.3,326.9 L77.3,326.9 
M75.3,317.8 L77.3,317.8 
M75.3,299.7 L77.3,299.7 
M75.3,290.7 L77.3,290.7 
M75.3,281.6 L77.3,281.6 
M75.3,272.6 L77.3,272.6 
M75.3,254.5 L77.3,254.5 
M75.3,245.4 L77.3,245.4 
M75.3,236.4 L77.3,236.4 
M75.3,227.3 L77.3,227.3 
M75.3,209.2 L77.3,209.2 
M75.3,200.2 L77.3,200.2 
M75.3,191.1 L77.3,191.1 
M75.3,182.1 L77.3,182.1 
M75.3,164 L77.3,164 
M75.3,155 L77.3,155 
M75.3,145.9 L77.3,145.9 
M75.3,136.9 L77.3,136.9 
M75.3,118.8 L77.3,118.8 
M75.3,109.7 L77.3,109.7 
M75.3,100.7 L77.3,100.7 
M75.3,91.63 L77.3,91.63 
M75.3,73.53 L77.3,73.53 
M75.3,64.49 L77.3,64.49 
M75.3,55.44 L77.3,55.44 
M75.3,46.39 L77.3,46.39 
M75.3,354 L77.3,354 
" fill="none"/>
</g>
	<g id="xMinorTicks" stroke="rgb(0,0,0)" stroke-width="1">
</g>
	<g id="yMajorTicks" stroke="rgb(0,0,0)" stroke-width="2">
	<path d="M72.3,354 L77.3,354 
M72.3,308.8 L77.3,308.8 
M72.3,263.5 L77.3,263.5 
M72.3,218.3 L77.3,218.3 
M72.3,173.1 L77.3,173.1 
M72.3,127.8 L77.3,127.8 
M72.3,82.58 L77.3,82.58 
M72.3,354 L77.3,354 
" fill="none"/>
</g>
	<g id="xMajorTicks" stroke="rgb(0,0,0)" stroke-width="2">
	<path d="M82.73,354 L82.73,359 
M191.4,354 L191.4,359 
M300.1,354 L300.1,359 
M408.7,354 L408.7,359 
M517.4,354 L517.4,359 
M626.1,354 L626.1,359 
M82.73,354 L82.73,359 
" fill="none"/>
</g>
	<g id="xTicksValues" font-size="12" font-family="Lucida Sans Unicode" text-anchor="middle">
	<text x="82.73" y="374.6">0
	</text>
	<text x="191.4" y="374.6">10
	</text>
	<text x="300.1" y="374.6">20
	</text>
	<text x="408.7" y="374.6">30
	</text>
	<text x="517.4" y="374.6">40
	</text>
	<text x="626.1" y="374.6">50
	</text>
	<text x="82.73" y="374.6">0
	</text>
</g>
	<g id="yTicksValues" font-size="12" font-family="Lucida Sans Unicode" text-anchor="end">
	<text x="66.3" y="356.4">0
	</text>
	<text x="66.3" y="311.2">0.05
	</text>
	<text x="66.3" y="265.9">0.1
	</text>
	<text x="66.3" y="220.7">0.15
	</text>
	<text x="66.3" y="175.5">0.2
	</text>
	<text x="66.3" y="130.2">0.25
	</text>
	<text x="66.3" y="84.98">0.3
	</text>
	<text x="66.3" y="356.4">0
	</text>
</g>
	<g id="yLabel">
	<text x="32.4" y="198.5" text-anchor="middle" transform="rotate(-90 32.4 198.5)" font-size="14" font-family="Lucida Sans Unicode">Probability
	</text>
</g>
	<g id="xLabel">
	<text x="354.4" y="387.1" text-anchor="middle" font-size="12" font-family="Lucida Sans Unicode">Random Variable
	</text>
</g>
	<g id="plotLines" stroke-width="2">
	<g clip-path="url(#plot_window)" stroke="rgb(0,0,139)" fill="rgb(0,0,139)" stroke-width="1">
	<path d="M78.66,354 L78.66,354 
L78.66,354 
L78.66,325.7 
L81.38,325.7 
L81.38,354 
L89.53,354 
L89.53,212.6 
L92.24,212.6 
L92.24,354 
L100.4,354 
L100.4,71.27 
L103.1,71.27 
L103.1,354 
L111.3,354 
L111.3,71.27 
L114,71.27 
L114,354 
L122.1,354 
L122.1,212.6 
L124.8,212.6 
L124.8,354 
L133,354 
L133,325.7 
L135.7,325.7 
L135.7,354 
L143.9,354 
L143.9,354 
L146.6,354 
L146.6,354 
L154.7,354 
L154.7,354 
L157.4,354 
L157.4,354 
L165.6,354 
L165.6,354 
L168.3,354 
L168.3,354 
L176.5,354 
L176.5,354 
L179.2,354 
L179.2,354 
L187.3,354 
L187.3,354 
L190,354 
L190,354 
L198.2,354 
L198.2,354 
L200.9,354 
L200.9,354 
L209.1,354 
L209.1,354 
L211.8,354 
L211.8,354 
L219.9,354 
L219.9,354 
L222.6,354 
L222.6,354 
L230.8,354 
L230.8,354 
L233.5,354 
L233.5,354 
L241.7,354 
L241.7,354 
L244.4,354 
L244.4,354 
L252.5,354 
L252.5,354 
L255.2,354 
L255.2,354 
L263.4,354 
L263.4,354 
L266.1,354 
L266.1,354 
L274.3,354 
L274.3,354 
L277,354 
L277,354 
L285.1,354 
L285.1,354 
L287.8,354 
L287.8,354 
L296,354 
L296,354 
L298.7,354 
L298.7,354 
L306.9,354 
L306.9,354 
L309.6,354 
L309.6,354 
L317.7,354 
L317.7,354 
L320.4,354 
L320.4,354 
L328.6,354 
L328.6,354 
L331.3,354 
L331.3,354 
L339.5,354 
L339.5,354 
L342.2,354 
L342.2,354 
L350.3,354 
L350.3,354 
L353,354 
L353,354 
L361.2,354 
L361.2,354 
L363.9,354 
L363.9,354 
L372.1,354 
L372.1,354 
L374.8,354 
L374.8,354 
L382.9,354 
L382.9,354 
L385.6,354 
L385.6,354 
L393.8,354 
L393.8,354 
L396.5,354 
L396.5,354 
L404.7,354 
L404.7,354 
L407.4,354 
L407.4,354 
L415.5,354 
L415.5,354 
L418.2,354 
L418.2,354 
L426.4,354 
L426.4,354 
L429.1,354 
L429.1,354 
L437.3,354 
L437.3,354 
L440,354 
L440,354 
L448.1,354 
L448.1,354 
L450.8,354 
L450.8,354 
L459,354 
L459,354 
L461.7,354 
L461.7,354 
L469.9,354 
L469.9,354 
L472.6,354 
L472.6,354 
L480.7,354 
L480.7,354 
L483.4,354 
L483.4,354 
L491.6,354 
L491.6,354 
L494.3,354 
L494.3,354 
L502.5,354 
L502.5,354 
L505.2,354 
L505.2,354 
L513.3,354 
L513.3,354 
L516,354 
L516,354 
L524.2,354 
L524.2,354 
L526.9,354 
L526.9,354 
L535.1,354 
L535.1,354 
L537.8,354 
L537.8,354 
L545.9,354 
L545.9,354 
L548.6,354 
L548.6,354 
L556.8,354 
L556.8,354 
L559.5,354 
L559.5,354 
L567.7,354 
L567.7,354 
L570.4,354 
L570.4,354 
L578.5,354 
L578.5,354 
L581.2,354 
L581.2,354 
L589.4,354 
L589.4,354 
L592.1,354 
L592.1,354 
L600.3,354 
L600.3,354 
L603,354 
L603,354 
L611.1,354 
L611.1,354 
L613.8,354 
L613.8,354 
L622,354 
L622,354 
L624.7,354 
L624.7,354 
L624.7,354 
Z" fill="rgb(0,0,139)"/>
</g>
	<g clip-path="url(#plot_window)" stroke="rgb(139,0,0)" fill="rgb(139,0,0)" stroke-width="1">
	<path d="M81.38,354 L81.38,354 
L81.38,354 
L81.38,354 
L84.09,354 
L84.09,354 
L92.24,354 
L92.24,354 
L94.96,354 
L94.96,354 
L103.1,354 
L103.1,353.8 
L105.8,353.8 
L105.8,354 
L114,354 
L114,353 
L116.7,353 
L116.7,354 
L124.8,354 
L124.8,349.8 
L127.6,349.8 
L127.6,354 
L135.7,354 
L135.7,340.6 
L138.4,340.6 
L138.4,354 
L146.6,354 
L146.6,320.6 
L149.3,320.6 
L149.3,354 
L157.4,354 
L157.4,287.1 
L160.2,287.1 
L160.2,354 
L168.3,354 
L168.3,245.3 
L171,245.3 
L171,354 
L179.2,354 
L179.2,209.1 
L181.9,209.1 
L181.9,354 
L190,354 
L190,194.6 
L192.8,194.6 
L192.8,354 
L200.9,354 
L200.9,209.1 
L203.6,209.1 
L203.6,354 
L211.8,354 
L211.8,245.3 
L214.5,245.3 
L214.5,354 
L222.6,354 
L222.6,287.1 
L225.4,287.1 
L225.4,354 
L233.5,354 
L233.5,320.6 
L236.2,320.6 
L236.2,354 
L244.4,354 
L244.4,340.6 
L247.1,340.6 
L247.1,354 
L255.2,354 
L255.2,349.8 
L258,349.8 
L258,354 
L266.1,354 
L266.1,353 
L268.8,353 
L268.8,354 
L277,354 
L277,353.8 
L279.7,353.8 
L279.7,354 
L287.8,354 
L287.8,354 
L290.6,354 
L290.6,354 
L298.7,354 
L298.7,354 
L301.4,354 
L301.4,354 
L309.6,354 
L309.6,354 
L312.3,354 
L312.3,354 
L320.4,354 
L320.4,354 
L323.2,354 
L323.2,354 
L331.3,354 
L331.3,354 
L334,354 
L334,354 
L342.2,354 
L342.2,354 
L344.9,354 
L344.9,354 
L353,354 
L353,354 
L355.8,354 
L355.8,354 
L363.9,354 
L363.9,354 
L366.6,354 
L366.6,354 
L374.8,354 
L374.8,354 
L377.5,354 
L377.5,354 
L385.6,354 
L385.6,354 
L388.4,354 
L388.4,354 
L396.5,354 
L396.5,354 
L399.2,354 
L399.2,354 
L407.4,354 
L407.4,354 
L410.1,354 
L410.1,354 
L418.2,354 
L418.2,354 
L421,354 
L421,354 
L429.1,354 
L429.1,354 
L431.8,354 
L431.8,354 
L440,354 
L440,354 
L442.7,354 
L442.7,354 
L450.8,354 
L450.8,354 
L453.6,354 
L453.6,354 
L461.7,354 
L461.7,354 
L464.4,354 
L464.4,354 
L472.6,354 
L472.6,354 
L475.3,354 
L475.3,354 
L483.4,354 
L483.4,354 
L486.2,354 
L486.2,354 
L494.3,354 
L494.3,354 
L497,354 
L497,354 
L505.2,354 
L505.2,354 
L507.9,354 
L507.9,354 
L516,354 
L516,354 
L518.8,354 
L518.8,354 
L526.9,354 
L526.9,354 
L529.6,354 
L529.6,354 
L537.8,354 
L537.8,354 
L540.5,354 
L540.5,354 
L548.6,354 
L548.6,354 
L551.4,354 
L551.4,354 
L559.5,354 
L559.5,354 
L562.2,354 
L562.2,354 
L570.4,354 
L570.4,354 
L573.1,354 
L573.1,354 
L581.2,354 
L581.2,354 
L584,354 
L584,354 
L592.1,354 
L592.1,354 
L594.8,354 
L594.8,354 
L603,354 
L603,354 
L605.7,354 
L605.7,354 
L613.8,354 
L613.8,354 
L616.6,354 
L616.6,354 
L624.7,354 
L624.7,354 
L627.4,354 
L627.4,354 
L627.4,354 
Z" fill="rgb(139,0,0)"/>
</g>
	<g clip-path="url(#plot_window)" stroke="rgb(0,100,0)" fill="rgb(0,100,0)" stroke-width="1">
	<path d="M84.09,354 L84.09,354 
L84.09,354 
L84.09,354 
L86.81,354 
L86.81,354 
L94.96,354 
L94.96,354 
L97.67,354 
L97.68,354 
L105.8,354 
L105.8,354 
L108.5,354 
L108.5,354 
L116.7,354 
L116.7,354 
L119.4,354 
L119.4,354 
L127.6,354 
L127.6,354 
L130.3,354 
L130.3,354 
L138.4,354 
L138.4,354 
L141.1,354 
L141.1,354 
L149.3,354 
L149.3,354 
L152,354 
L152,354 
L160.2,354 
L160.2,354 
L162.9,354 
L162.9,354 
L171,354 
L171,354 
L173.7,354 
L173.7,354 
L181.9,354 
L181.9,354 
L184.6,354 
L184.6,354 
L192.8,354 
L192.8,354 
L195.5,354 
L195.5,354 
L203.6,354 
L203.6,354 
L206.3,354 
L206.3,354 
L214.5,354 
L214.5,353.9 
L217.2,353.9 
L217.2,354 
L225.4,354 
L225.4,353.7 
L228.1,353.7 
L228.1,354 
L236.2,354 
L236.2,353.2 
L238.9,353.2 
L238.9,354 
L247.1,354 
L247.1,352.2 
L249.8,352.2 
L249.8,354 
L258,354 
L258,350 
L260.7,350 
L260.7,354 
L268.8,354 
L268.8,346.1 
L271.5,346.1 
L271.5,354 
L279.7,354 
L279.7,339.5 
L282.4,339.5 
L282.4,354 
L290.6,354 
L290.6,329.6 
L293.3,329.6 
L293.3,354 
L301.4,354 
L301.4,316.1 
L304.1,316.1 
L304.1,354 
L312.3,354 
L312.3,299.9 
L315,299.9 
L315,354 
L323.2,354 
L323.2,282.7 
L325.9,282.7 
L325.9,354 
L334,354 
L334,267.2 
L336.7,267.2 
L336.7,354 
L344.9,354 
L344.9,256.3 
L347.6,256.3 
L347.6,354 
L355.8,354 
L355.8,252.4 
L358.5,252.4 
L358.5,354 
L366.6,354 
L366.6,256.3 
L369.3,256.3 
L369.3,354 
L377.5,354 
L377.5,267.2 
L380.2,267.2 
L380.2,354 
L388.4,354 
L388.4,282.7 
L391.1,282.7 
L391.1,354 
L399.2,354 
L399.2,299.9 
L401.9,299.9 
L401.9,354 
L410.1,354 
L410.1,316.1 
L412.8,316.1 
L412.8,354 
L421,354 
L421,329.6 
L423.7,329.6 
L423.7,354 
L431.8,354 
L431.8,339.5 
L434.5,339.5 
L434.5,354 
L442.7,354 
L442.7,346.1 
L445.4,346.1 
L445.4,354 
L453.6,354 
L453.6,350 
L456.3,350 
L456.3,354 
L464.4,354 
L464.4,352.2 
L467.1,352.2 
L467.1,354 
L475.3,354 
L475.3,353.2 
L478,353.2 
L478,354 
L486.2,354 
L486.2,353.7 
L488.9,353.7 
L488.9,354 
L497,354 
L497,353.9 
L499.7,353.9 
L499.7,354 
L507.9,354 
L507.9,354 
L510.6,354 
L510.6,354 
L518.8,354 
L518.8,354 
L521.5,354 
L521.5,354 
L529.6,354 
L529.6,354 
L532.3,354 
L532.3,354 
L540.5,354 
L540.5,354 
L543.2,354 
L543.2,354 
L551.4,354 
L551.4,354 
L554.1,354 
L554.1,354 
L562.2,354 
L562.2,354 
L564.9,354 
L564.9,354 
L573.1,354 
L573.1,354 
L575.8,354 
L575.8,354 
L584,354 
L584,354 
L586.7,354 
L586.7,354 
L594.8,354 
L594.8,354 
L597.5,354 
L597.5,354 
L605.7,354 
L605.7,354 
L608.4,354 
L608.4,354 
L616.6,354 
L616.6,354 
L619.3,354 
L619.3,354 
L627.4,354 
L627.4,354 
L630.1,354 
L630.1,354 
L630.1,354 
Z" fill="rgb(0,100,0)"/>
</g>
</g>
	<g id="plotPoints" clip-path="url(#plot_window)">
</g>
	<g id="legendBackground" stroke="rgb(119,136,153)" fill="rgb(255,255,255)" stroke-width="1">
	<rect x="637.5" y="43" width="98.5" height="64.5"/>
</g>
	<g id="legendPoints">
</g>
	<g id="legendLines">
	<g stroke="rgb(0,0,139)" stroke-width="1">
	<line x1="652.8" y1="62.75" x2="658.8" y2="62.75"/>
</g>
	<g stroke="rgb(139,0,0)" stroke-width="1">
	<line x1="652.8" y1="75.25" x2="658.8" y2="75.25"/>
</g>
	<g stroke="rgb(0,100,0)" stroke-width="1">
	<line x1="652.8" y1="87.75" x2="658.8" y2="87.75"/>
</g>
</g>
	<g id="legendText">
	<text x="667.8" y="62.75" font-size="10" font-family="Lucida Sans Unicode" font-weight="normal" textLength="54">n=5 p=0.5
	</text>
	<text x="667.8" y="75.25" font-size="10" font-family="Lucida Sans Unicode" font-weight="normal" textLength="60">n=20 p=0.5
	</text>
	<text x="667.8" y="87.75" font-size="10" font-family="Lucida Sans Unicode" font-weight="normal" textLength="60">n=50 p=0.5
	</text>
</g>
	<g id="title">
	<text x="375" y="30" text-anchor="middle" font-size="20" font-family="Lucida Sans Unicode" font-weight="normal">Binomial Distribution PDF
	</text>
</g>
	<g id="plotXValues">
</g>
	<g id="plotYValues">
</g>
</svg>
