<?xml version="1.0" encoding="UTF-8" standalone="no"?>
<svg width="750" height ="400" version="1.1"
xmlns:svg ="http://www.w3.org/2000/svg"
xmlns:rdf="http://www.w3.org/1999/02/22-rdf-syntax-ns#"
xmlns:cc="http://web.resource.org/cc/"
xmlns:dc="http://purl.org/dc/elements/1.1/"
xmlns ="http://www.w3.org/2000/svg"
>
<!-- SVG plot written using Boost.Plot program (Creator Jacob Voytko) --> 
<!-- Use, modification and distribution of Boost.Plot subject to the --> 
<!-- Boost Software License, Version 1.0.--> 
<!-- (See accompanying file LICENSE_1_0.txt --> 
<!-- or copy at http://www.boost.org/LICENSE_1_0.txt) --> 

<!-- SVG Plot Copyright John Maddock 2008 --> 
<meta name="copyright" content="John Maddock" />
<meta name="date" content="2008" />
<!-- Use, modification and distribution of this Scalable Vector Graphic file -->
<!-- are subject to the Boost Software License, Version 1.0. -->
<!-- (See accompanying file LICENSE_1_0.txt or copy at http://www.boost.org/LICENSE_1_0.txt) -->

<clipPath id="plot_window">	<rect x="78.3" y="44" width="552.2" height="309"/>
</clipPath>
	<g id="imageBackground" stroke="rgb(119,136,153)" fill="rgb(255,255,255)" stroke-width="2">
	<rect x="0" y="0" width="750" height="400"/>
</g>
	<g id="plotBackground" stroke="rgb(119,136,153)" fill="rgb(255,255,255)" stroke-width="2">
	<rect x="77.3" y="43" width="554.2" height="311"/>
</g>
	<g id="yMinorGrid" stroke="rgb(200,220,255)" stroke-width="0.5">
</g>
	<g id="yMajorGrid" stroke="rgb(200,220,255)" stroke-width="1">
</g>
	<g id="xMinorGrid" stroke="rgb(200,220,255)" stroke-width="0.5">
</g>
	<g id="xMajorGrid" stroke="rgb(200,220,255)" stroke-width="1">
</g>
	<g id="yAxis" stroke="rgb(0,0,0)" stroke-width="1">
	<line x1="90.5" y1="43" x2="90.5" y2="359"/>
	<line x1="77.3" y1="43" x2="77.3" y2="354"/>
</g>
	<g id="xAxis" stroke="rgb(0,0,0)" stroke-width="1">
	<line x1="72.3" y1="354" x2="631.5" y2="354"/>
	<line x1="72.3" y1="354" x2="631.5" y2="354"/>
</g>
	<g id="yMinorTicks" stroke="rgb(0,0,0)" stroke-width="1">
	<path d="M75.3,344.1 L77.3,344.1 
M75.3,334.2 L77.3,334.2 
M75.3,324.3 L77.3,324.3 
M75.3,314.3 L77.3,314.3 
M75.3,294.5 L77.3,294.5 
M75.3,284.6 L77.3,284.6 
M75.3,274.7 L77.3,274.7 
M75.3,264.8 L77.3,264.8 
M75.3,244.9 L77.3,244.9 
M75.3,235 L77.3,235 
M75.3,225.1 L77.3,225.1 
M75.3,215.2 L77.3,215.2 
M75.3,195.4 L77.3,195.4 
M75.3,185.5 L77.3,185.5 
M75.3,175.5 L77.3,175.5 
M75.3,165.6 L77.3,165.6 
M75.3,145.8 L77.3,145.8 
M75.3,135.9 L77.3,135.9 
M75.3,126 L77.3,126 
M75.3,116.1 L77.3,116.1 
M75.3,96.24 L77.3,96.24 
M75.3,86.32 L77.3,86.32 
M75.3,76.41 L77.3,76.41 
M75.3,66.49 L77.3,66.49 
M75.3,46.67 L77.3,46.67 
M75.3,354 L77.3,354 
" fill="none"/>
</g>
	<g id="xMinorTicks" stroke="rgb(0,0,0)" stroke-width="1">
</g>
	<g id="yMajorTicks" stroke="rgb(0,0,0)" stroke-width="2">
	<path d="M72.3,354 L77.3,354 
M72.3,304.4 L77.3,304.4 
M72.3,254.9 L77.3,254.9 
M72.3,205.3 L77.3,205.3 
M72.3,155.7 L77.3,155.7 
M72.3,106.1 L77.3,106.1 
M72.3,56.58 L77.3,56.58 
M72.3,354 L77.3,354 
" fill="none"/>
</g>
	<g id="xMajorTicks" stroke="rgb(0,0,0)" stroke-width="2">
	<path d="M90.5,354 L90.5,359 
M222.4,354 L222.4,359 
M354.4,354 L354.4,359 
M486.4,354 L486.4,359 
M618.3,354 L618.3,359 
M90.5,354 L90.5,359 
" fill="none"/>
</g>
	<g id="xTicksValues" font-size="12" font-family="Lucida Sans Unicode" text-anchor="middle">
	<text x="90.5" y="374.6">0
	</text>
	<text x="222.4" y="374.6">5
	</text>
	<text x="354.4" y="374.6">10
	</text>
	<text x="486.4" y="374.6">15
	</text>
	<text x="618.3" y="374.6">20
	</text>
	<text x="90.5" y="374.6">0
	</text>
</g>
	<g id="yTicksValues" font-size="12" font-family="Lucida Sans Unicode" text-anchor="end">
	<text x="66.3" y="356.4">0
	</text>
	<text x="66.3" y="306.8">0.05
	</text>
	<text x="66.3" y="257.3">0.1
	</text>
	<text x="66.3" y="207.7">0.15
	</text>
	<text x="66.3" y="158.1">0.2
	</text>
	<text x="66.3" y="108.5">0.25
	</text>
	<text x="66.3" y="58.98">0.3
	</text>
	<text x="66.3" y="356.4">0
	</text>
</g>
	<g id="yLabel">
	<text x="32.4" y="198.5" text-anchor="middle" transform="rotate(-90 32.4 198.5)" font-size="14" font-family="Lucida Sans Unicode">Probability
	</text>
</g>
	<g id="xLabel">
	<text x="354.4" y="387.1" text-anchor="middle" font-size="12" font-family="Lucida Sans Unicode">Random Variable
	</text>
</g>
	<g id="plotLines" stroke-width="2">
	<g clip-path="url(#plot_window)" stroke="rgb(0,0,139)" fill="rgb(0,0,139)" stroke-width="1">
	<path d="M80.6,354 L80.6,354 
L80.6,354 
L80.6,233.5 
L87.2,233.5 
L87.2,354 
L107,354 
L107,86.15 
L113.6,86.15 
L113.6,354 
L133.4,354 
L133.4,71.27 
L140,71.27 
L140,354 
L159.8,354 
L159.8,165.5 
L166.4,165.5 
L166.4,354 
L186.2,354 
L186.2,265 
L192.8,265 
L192.8,354 
L212.6,354 
L212.6,322.4 
L219.1,322.4 
L219.1,354 
L238.9,354 
L238.9,345.2 
L245.5,345.2 
L245.5,354 
L265.3,354 
L265.3,352 
L271.9,352 
L271.9,354 
L291.7,354 
L291.7,353.6 
L298.3,353.6 
L298.3,354 
L318.1,354 
L318.1,353.9 
L324.7,353.9 
L324.7,354 
L344.5,354 
L344.5,354 
L351.1,354 
L351.1,354 
L370.9,354 
L370.9,354 
L377.5,354 
L377.5,354 
L397.3,354 
L397.3,354 
L403.9,354 
L403.9,354 
L423.7,354 
L423.7,354 
L430.3,354 
L430.3,354 
L450.1,354 
L450.1,354 
L456.7,354 
L456.7,354 
L476.5,354 
L476.5,354 
L483.1,354 
L483.1,354 
L502.8,354 
L502.8,354 
L509.4,354 
L509.4,354 
L529.2,354 
L529.2,354 
L535.8,354 
L535.8,354 
L555.6,354 
L555.6,354 
L562.2,354 
L562.2,354 
L582,354 
L582,354 
L588.6,354 
L588.6,354 
L608.4,354 
L608.4,354 
L615,354 
L615,354 
L615,354 
Z" fill="rgb(0,0,139)"/>
</g>
	<g clip-path="url(#plot_window)" stroke="rgb(139,0,0)" fill="rgb(139,0,0)" stroke-width="1">
	<path d="M87.2,354 L87.2,354 
L87.2,354 
L87.2,354 
L93.79,354 
L93.79,354 
L113.6,354 
L113.6,354 
L120.2,354 
L120.2,354 
L140,354 
L140,353.8 
L146.6,353.8 
L146.6,354 
L166.4,354 
L166.4,352.9 
L173,352.9 
L173,354 
L192.8,354 
L192.8,349.4 
L199.4,349.4 
L199.4,354 
L219.1,354 
L219.1,339.3 
L225.7,339.3 
L225.7,354 
L245.5,354 
L245.5,317.4 
L252.1,317.4 
L252.1,354 
L271.9,354 
L271.9,280.7 
L278.5,280.7 
L278.5,354 
L298.3,354 
L298.3,234.9 
L304.9,234.9 
L304.9,354 
L324.7,354 
L324.7,195.2 
L331.3,195.2 
L331.3,354 
L351.1,354 
L351.1,179.3 
L357.7,179.3 
L357.7,354 
L377.5,354 
L377.5,195.2 
L384.1,195.2 
L384.1,354 
L403.9,354 
L403.9,234.9 
L410.5,234.9 
L410.5,354 
L430.3,354 
L430.3,280.7 
L436.9,280.7 
L436.9,354 
L456.7,354 
L456.7,317.4 
L463.3,317.4 
L463.3,354 
L483.1,354 
L483.1,339.3 
L489.7,339.3 
L489.7,354 
L509.4,354 
L509.4,349.4 
L516,349.4 
L516,354 
L535.8,354 
L535.8,352.9 
L542.4,352.9 
L542.4,354 
L562.2,354 
L562.2,353.8 
L568.8,353.8 
L568.8,354 
L588.6,354 
L588.6,354 
L595.2,354 
L595.2,354 
L615,354 
L615,354 
L621.6,354 
L621.6,354 
L621.6,354 
Z" fill="rgb(139,0,0)"/>
</g>
	<g clip-path="url(#plot_window)" stroke="rgb(0,100,0)" fill="rgb(0,100,0)" stroke-width="1">
	<path d="M93.79,354 L93.79,354 
L93.79,354 
L93.79,354 
L100.4,354 
L100.4,354 
L120.2,354 
L120.2,354 
L126.8,354 
L126.8,354 
L146.6,354 
L146.6,354 
L153.2,354 
L153.2,354 
L173,354 
L173,354 
L179.6,354 
L179.6,354 
L199.4,354 
L199.4,354 
L206,354 
L206,354 
L225.7,354 
L225.7,354 
L232.3,354 
L232.3,354 
L252.1,354 
L252.1,354 
L258.7,354 
L258.7,354 
L278.5,354 
L278.5,354 
L285.1,354 
L285.1,354 
L304.9,354 
L304.9,354 
L311.5,354 
L311.5,354 
L331.3,354 
L331.3,354 
L337.9,354 
L337.9,354 
L357.7,354 
L357.7,354 
L364.3,354 
L364.3,354 
L384.1,354 
L384.1,353.9 
L390.7,353.9 
L390.7,354 
L410.5,354 
L410.5,353.6 
L417.1,353.6 
L417.1,354 
L436.9,354 
L436.9,352 
L443.5,352 
L443.5,354 
L463.3,354 
L463.3,345.2 
L469.9,345.2 
L469.9,354 
L489.7,354 
L489.7,322.4 
L496.2,322.4 
L496.2,354 
L516,354 
L516,265 
L522.6,265 
L522.6,354 
L542.4,354 
L542.4,165.5 
L549,165.5 
L549,354 
L568.8,354 
L568.8,71.27 
L575.4,71.27 
L575.4,354 
L595.2,354 
L595.2,86.15 
L601.8,86.15 
L601.8,354 
L621.6,354 
L621.6,233.5 
L628.2,233.5 
L628.2,354 
L628.2,354 
Z" fill="rgb(0,100,0)"/>
</g>
</g>
	<g id="plotPoints" clip-path="url(#plot_window)">
</g>
	<g id="legendBackground" stroke="rgb(119,136,153)" fill="rgb(255,255,255)" stroke-width="1">
	<rect x="637.5" y="43" width="98.5" height="64.5"/>
</g>
	<g id="legendPoints">
</g>
	<g id="legendLines">
	<g stroke="rgb(0,0,139)" stroke-width="1">
	<line x1="652.8" y1="62.75" x2="658.8" y2="62.75"/>
</g>
	<g stroke="rgb(139,0,0)" stroke-width="1">
	<line x1="652.8" y1="75.25" x2="658.8" y2="75.25"/>
</g>
	<g stroke="rgb(0,100,0)" stroke-width="1">
	<line x1="652.8" y1="87.75" x2="658.8" y2="87.75"/>
</g>
</g>
	<g id="legendText">
	<text x="667.8" y="62.75" font-size="10" font-family="Lucida Sans Unicode" font-weight="normal" textLength="60">n=20 p=0.1
	</text>
	<text x="667.8" y="75.25" font-size="10" font-family="Lucida Sans Unicode" font-weight="normal" textLength="60">n=20 p=0.5
	</text>
	<text x="667.8" y="87.75" font-size="10" font-family="Lucida Sans Unicode" font-weight="normal" textLength="60">n=20 p=0.9
	</text>
</g>
	<g id="title">
	<text x="375" y="30" text-anchor="middle" font-size="20" font-family="Lucida Sans Unicode" font-weight="normal">Binomial Distribution PDF
	</text>
</g>
	<g id="plotXValues">
</g>
	<g id="plotYValues">
</g>
</svg>
