<?xml version="1.0" encoding="UTF-8" standalone="no"?>
<svg width="500" height ="350" version="1.1"
xmlns:svg ="http://www.w3.org/2000/svg"
xmlns:rdf="http://www.w3.org/1999/02/22-rdf-syntax-ns#"
xmlns:cc="http://web.resource.org/cc/"
xmlns:dc="http://purl.org/dc/elements/1.1/"
xmlns ="http://www.w3.org/2000/svg"
>
<!-- SVG plot written using Boost.Plot program (Creator Jacob Voytko) --> 
<!-- Use, modification and distribution of Boost.Plot subject to the --> 
<!-- Boost Software License, Version 1.0.--> 
<!-- (See accompanying file LICENSE_1_0.txt --> 
<!-- or copy at http://www.boost.org/LICENSE_1_0.txt) --> 

<!-- File boxplot_full.svg --> 
<clipPath id="plot_window">	<rect x="76.6" y="52" width="411" height="232"/>
</clipPath>

<g id="imageBackground" stroke="rgb(0,0,0)" fill="rgb(67,111,69)" stroke-width="2">
	<rect x="0" y="0" width="500" height="350"/>
</g>

<g id="plotBackground" stroke="rgb(255,255,0)" fill="rgb(136,188,126)" stroke-width="1">
	<rect x="81.6" y="57" width="406" height="227"/>
</g>

<g id="X-axis" stroke="rgb(0,0,0)" stroke-width="1">
	<line x1="81.6" y1="284" x2="488" y2="284"/>
</g>

<g id="Y-axis" stroke="rgb(0,0,0)" stroke-width="1">
	<line x1="81.6" y1="284" x2="81.6" y2="57"/>
</g>

<g id="xMajorTicks" stroke="rgb(0,0,0)" stroke-width="1">
	<path d="M217,284 L217,289 
M353,284 L353,289 
" fill="none"/>
</g>

<g id="yMajorTicks" stroke="rgb(0,0,0)" stroke-width="2">
	<path d="M76.6,284 L81.6,284 
M76.6,238 L81.6,238 
M76.6,193 L81.6,193 
M76.6,148 L81.6,148 
M76.6,102 L81.6,102 
M76.6,57 L81.6,57 
M76.6,284 L81.6,284 
" fill="none"/>
</g>

<g id="yMinorTicks" stroke="rgb(0,0,0)" stroke-width="1">
	<path d="M61.6,275 L81.6,275 
M61.6,265 L81.6,265 
M61.6,256 L81.6,256 
M61.6,247 L81.6,247 
M61.6,229 L81.6,229 
M61.6,220 L81.6,220 
M61.6,211 L81.6,211 
M61.6,202 L81.6,202 
M61.6,184 L81.6,184 
M61.6,175 L81.6,175 
M61.6,166 L81.6,166 
M61.6,157 L81.6,157 
M61.6,139 L81.6,139 
M61.6,130 L81.6,130 
M61.6,120 L81.6,120 
M61.6,111 L81.6,111 
M61.6,93.3 L81.6,93.3 
M61.6,84.2 L81.6,84.2 
M61.6,75.1 L81.6,75.1 
M61.6,66.1 L81.6,66.1 
M61.6,284 L81.6,284 
" fill="none"/>
</g>

<g id="YGrid" stroke="rgb(200,220,255)" stroke-width="1">
</g>

<g id="yMinorGrid" stroke="rgb(200,220,255)" stroke-width="0.5">
</g>

<g id="valueLabels" fill="rgb(0,0,0)">
	<text x="217" y="308" text-anchor="middle" font-size="14" font-family="Lucida Sans Unicode">[50 / x]
	</text>
	<text x="353" y="308" text-anchor="middle" font-size="14" font-family="Lucida Sans Unicode">[40 + 25 * sin(x * 50)]
	</text>
	<text x="70.6" y="286" text-anchor="end" font-size="12" font-family="Lucida Sans Unicode">0
	</text>
	<text x="70.6" y="241" text-anchor="end" font-size="12" font-family="Lucida Sans Unicode">20
	</text>
	<text x="70.6" y="195" text-anchor="end" font-size="12" font-family="Lucida Sans Unicode">40
	</text>
	<text x="70.6" y="150" text-anchor="end" font-size="12" font-family="Lucida Sans Unicode">60
	</text>
	<text x="70.6" y="105" text-anchor="end" font-size="12" font-family="Lucida Sans Unicode">80
	</text>
	<text x="70.6" y="59.4" text-anchor="end" font-size="12" font-family="Lucida Sans Unicode">100
	</text>
	<text x="70.6" y="286" text-anchor="end" font-size="12" font-family="Lucida Sans Unicode">0
	</text>
</g>

<g id="yLabel" fill="rgb(255,255,255)">
	<text x="30.2" y="170" text-anchor="middle" transform="rotate(-90 30.2 170)" font-size="14" font-family="Lucida Sans Unicode">Population Size
	</text>
</g>

<g id="xLabel" fill="rgb(255,255,255)">
	<text x="285" y="327" text-anchor="middle" font-size="14" font-family="Lucida Sans Unicode">Functions
	</text>
</g>

<g id="boxAxis" stroke="rgb(0,0,0)">

<g clip-path="url(#plot_window)" stroke="rgb(0,0,0)" stroke-width="1">
	<line x1="217" y1="272" x2="217" y2="196"/>
</g>

<g clip-path="url(#plot_window)" stroke="rgb(0,0,0)" stroke-width="1">
	<line x1="353" y1="250" x2="353" y2="136"/>
</g>
</g>

<g id="Median" stroke="rgb(255,0,0)" stroke-width="2">

<g clip-path="url(#plot_window)" stroke="rgb(0,128,0)" fill="rgb(240,255,255)" stroke-width="1">
	<rect x="202" y="239" width="30" height="29.6"/>
</g>

<g clip-path="url(#plot_window)" stroke="rgb(0,0,255)" stroke-width="1">
	<line x1="203" y1="261" x2="232" y2="261"/>
</g>

<g clip-path="url(#plot_window)" stroke="rgb(0,128,0)" fill="rgb(240,255,255)" stroke-width="1">
	<rect x="338" y="154" width="30" height="79.2"/>
</g>

<g clip-path="url(#plot_window)" stroke="rgb(0,0,255)" stroke-width="1">
	<line x1="338" y1="195" x2="367" y2="195"/>
</g>
</g>

<g id="whisker" stroke="rgb(0,0,0)">

<g clip-path="url(#plot_window)">

<g stroke="rgb(255,0,255)" fill="rgb(0,0,0)" stroke-width="1">
	<line x1="202" y1="272" x2="232" y2="272"/>
</g>

<g stroke="rgb(0,255,255)" fill="rgb(0,0,0)" stroke-width="1">
	<line x1="202" y1="196" x2="232" y2="196"/>
</g>
</g>

<g clip-path="url(#plot_window)">

<g stroke="rgb(255,0,255)" fill="rgb(0,0,0)" stroke-width="1">
	<line x1="338" y1="250" x2="368" y2="250"/>
</g>

<g stroke="rgb(0,255,255)" fill="rgb(0,0,0)" stroke-width="1">
	<line x1="338" y1="136" x2="368" y2="136"/>
</g>
</g>
</g>

<g id="mild_outliers" stroke="rgb(255,192,203)" fill="rgb(0,0,0)">

<g clip-path="url(#plot_window)" stroke="rgb(165,42,42)">
	<text x="217" y="159" text-anchor="middle" font-size="5" font-family="Lucida Sans Unicode">&#x25CF;
	</text>
	<text x="217" y="172" text-anchor="middle" font-size="5" font-family="Lucida Sans Unicode">&#x25CF;
	</text>
	<text x="217" y="182" text-anchor="middle" font-size="5" font-family="Lucida Sans Unicode">&#x25CF;
	</text>
	<text x="217" y="191" text-anchor="middle" font-size="5" font-family="Lucida Sans Unicode">&#x25CF;
	</text>
</g>
</g>

<g id="extreme_outliers" stroke="rgb(128,0,128)" fill="rgb(255,255,255)">

<g clip-path="url(#plot_window)" stroke="rgb(255,0,0)">
	<text x="217" y="58.5" text-anchor="middle" font-size="5" font-family="Lucida Sans Unicode">&#x25BD;
	</text>
	<text x="217" y="96.3" text-anchor="middle" font-size="5" font-family="Lucida Sans Unicode">&#x25BD;
	</text>
	<text x="217" y="123" text-anchor="middle" font-size="5" font-family="Lucida Sans Unicode">&#x25BD;
	</text>
	<text x="217" y="143" text-anchor="middle" font-size="5" font-family="Lucida Sans Unicode">&#x25BD;
	</text>
</g>
</g>

<g id="title" stroke="rgb(255,255,255)" fill="rgb(0,0,0)">
	<text x="250" y="36" text-anchor="middle" font-size="18" font-family="Lucida Sans Unicode">Boxplots of Common Functions
	</text>
</g>
</svg>
