<?xml version="1.0" encoding="UTF-8" standalone="no"?>
<svg width="750" height ="400" version="1.1"
xmlns:svg ="http://www.w3.org/2000/svg"
xmlns:rdf="http://www.w3.org/1999/02/22-rdf-syntax-ns#"
xmlns:cc="http://web.resource.org/cc/"
xmlns:dc="http://purl.org/dc/elements/1.1/"
xmlns ="http://www.w3.org/2000/svg"
>
<!-- SVG plot written using Boost.Plot program (Creator Jacob Voytko) --> 
<!-- Use, modification and distribution of Boost.Plot subject to the --> 
<!-- Boost Software License, Version 1.0.--> 
<!-- (See accompanying file LICENSE_1_0.txt --> 
<!-- or copy at http://www.boost.org/LICENSE_1_0.txt) --> 

<!-- SVG Plot Copyright John Maddock 2008 --> 
<meta name="copyright" content="John Maddock" />
<meta name="date" content="2008" />
<!-- Use, modification and distribution of this Scalable Vector Graphic file -->
<!-- are subject to the Boost Software License, Version 1.0. -->
<!-- (See accompanying file LICENSE_1_0.txt or copy at http://www.boost.org/LICENSE_1_0.txt) -->

<clipPath id="plot_window">	<rect x="71.1" y="44" width="553.4" height="309"/>
</clipPath>
	<g id="imageBackground" stroke="rgb(119,136,153)" fill="rgb(255,255,255)" stroke-width="2">
	<rect x="0" y="0" width="750" height="400"/>
</g>
	<g id="plotBackground" stroke="rgb(119,136,153)" fill="rgb(255,255,255)" stroke-width="2">
	<rect x="70.1" y="43" width="555.4" height="311"/>
</g>
	<g id="yMinorGrid" stroke="rgb(200,220,255)" stroke-width="0.5">
</g>
	<g id="yMajorGrid" stroke="rgb(200,220,255)" stroke-width="1">
</g>
	<g id="xMinorGrid" stroke="rgb(200,220,255)" stroke-width="0.5">
</g>
	<g id="xMajorGrid" stroke="rgb(200,220,255)" stroke-width="1">
</g>
	<g id="yAxis" stroke="rgb(0,0,0)" stroke-width="1">
	<line x1="347.8" y1="43" x2="347.8" y2="359"/>
	<line x1="70.1" y1="43" x2="70.1" y2="354"/>
</g>
	<g id="xAxis" stroke="rgb(0,0,0)" stroke-width="1">
	<line x1="65.1" y1="354" x2="625.5" y2="354"/>
	<line x1="65.1" y1="354" x2="625.5" y2="354"/>
</g>
	<g id="yMinorTicks" stroke="rgb(0,0,0)" stroke-width="1">
	<path d="M68.1,345.1 L70.1,345.1 
M68.1,336.2 L70.1,336.2 
M68.1,327.4 L70.1,327.4 
M68.1,318.5 L70.1,318.5 
M68.1,300.7 L70.1,300.7 
M68.1,291.8 L70.1,291.8 
M68.1,282.9 L70.1,282.9 
M68.1,274.1 L70.1,274.1 
M68.1,256.3 L70.1,256.3 
M68.1,247.4 L70.1,247.4 
M68.1,238.5 L70.1,238.5 
M68.1,229.7 L70.1,229.7 
M68.1,211.9 L70.1,211.9 
M68.1,203 L70.1,203 
M68.1,194.1 L70.1,194.1 
M68.1,185.2 L70.1,185.2 
M68.1,167.5 L70.1,167.5 
M68.1,158.6 L70.1,158.6 
M68.1,149.7 L70.1,149.7 
M68.1,140.8 L70.1,140.8 
M68.1,123.1 L70.1,123.1 
M68.1,114.2 L70.1,114.2 
M68.1,105.3 L70.1,105.3 
M68.1,96.42 L70.1,96.42 
M68.1,78.65 L70.1,78.65 
M68.1,69.77 L70.1,69.77 
M68.1,60.89 L70.1,60.89 
M68.1,52.01 L70.1,52.01 
M68.1,354 L70.1,354 
" fill="none"/>
</g>
	<g id="xMinorTicks" stroke="rgb(0,0,0)" stroke-width="1">
	<path d="M379.7,354 L379.7,356 
M411.5,354 L411.5,356 
M443.4,354 L443.4,356 
M475.2,354 L475.2,356 
M538.9,354 L538.9,356 
M570.8,354 L570.8,356 
M602.6,354 L602.6,356 
M316,354 L316,356 
M284.1,354 L284.1,356 
M252.2,354 L252.2,356 
M220.4,354 L220.4,356 
M156.7,354 L156.7,356 
M124.8,354 L124.8,356 
M92.98,354 L92.98,356 
" fill="none"/>
</g>
	<g id="yMajorTicks" stroke="rgb(0,0,0)" stroke-width="2">
	<path d="M65.1,354 L70.1,354 
M65.1,309.6 L70.1,309.6 
M65.1,265.2 L70.1,265.2 
M65.1,220.8 L70.1,220.8 
M65.1,176.4 L70.1,176.4 
M65.1,131.9 L70.1,131.9 
M65.1,87.54 L70.1,87.54 
M65.1,43.13 L70.1,43.13 
M65.1,354 L70.1,354 
" fill="none"/>
</g>
	<g id="xMajorTicks" stroke="rgb(0,0,0)" stroke-width="2">
	<path d="M347.8,354 L347.8,359 
M507.1,354 L507.1,359 
M347.8,354 L347.8,359 
M188.5,354 L188.5,359 
" fill="none"/>
</g>
	<g id="xTicksValues" font-size="12" font-family="Lucida Sans Unicode" text-anchor="middle">
	<text x="347.8" y="374.6">0
	</text>
	<text x="507.1" y="374.6">5
	</text>
	<text x="347.8" y="374.6">0
	</text>
	<text x="188.5" y="374.6">-5
	</text>
</g>
	<g id="yTicksValues" font-size="12" font-family="Lucida Sans Unicode" text-anchor="end">
	<text x="59.1" y="356.4">0
	</text>
	<text x="59.1" y="312">0.1
	</text>
	<text x="59.1" y="267.6">0.2
	</text>
	<text x="59.1" y="223.2">0.3
	</text>
	<text x="59.1" y="178.8">0.4
	</text>
	<text x="59.1" y="134.3">0.5
	</text>
	<text x="59.1" y="89.94">0.6
	</text>
	<text x="59.1" y="45.53">0.7
	</text>
	<text x="59.1" y="356.4">0
	</text>
</g>
	<g id="yLabel">
	<text x="32.4" y="198.5" text-anchor="middle" transform="rotate(-90 32.4 198.5)" font-size="14" font-family="Lucida Sans Unicode">Probability
	</text>
</g>
	<g id="xLabel">
	<text x="347.8" y="387.1" text-anchor="middle" font-size="12" font-family="Lucida Sans Unicode">Random Variable
	</text>
</g>
	<g id="plotLines" stroke-width="2">
	<g clip-path="url(#plot_window)" stroke="rgb(0,0,139)" stroke-width="1">
	<path d="M70.1,353.1 L70.1,353.1 
L72.88,353.1 
L75.65,353 
L78.43,353 
L81.21,353 
L83.99,353 
L86.76,353 
L89.54,352.9 
L92.32,352.9 
L95.09,352.9 
L97.87,352.9 
L100.6,352.8 
L103.4,352.8 
L106.2,352.8 
L109,352.7 
L111.8,352.7 
L114.5,352.7 
L117.3,352.7 
L120.1,352.6 
L122.9,352.6 
L125.6,352.6 
L128.4,352.5 
L131.2,352.5 
L134,352.4 
L136.7,352.4 
L139.5,352.4 
L142.3,352.3 
L145.1,352.3 
L147.9,352.2 
L150.6,352.2 
L153.4,352.1 
L156.2,352.1 
L159,352 
L161.7,351.9 
L164.5,351.9 
L167.3,351.8 
L170.1,351.7 
L172.8,351.7 
L175.6,351.6 
L178.4,351.5 
L181.2,351.4 
L184,351.4 
L186.7,351.3 
L189.5,351.2 
L192.3,351.1 
L195.1,351 
L197.8,350.8 
L200.6,350.7 
L203.4,350.6 
L206.2,350.5 
L209,350.3 
L211.7,350.2 
L214.5,350 
L217.3,349.9 
L220.1,349.7 
L222.8,349.5 
L225.6,349.3 
L228.4,349.1 
L231.2,348.8 
L233.9,348.6 
L236.7,348.3 
L239.5,348 
L242.3,347.7 
L245.1,347.4 
L247.8,347 
L250.6,346.6 
L253.4,346.2 
L256.2,345.7 
L258.9,345.2 
L261.7,344.6 
L264.5,344 
L267.3,343.4 
L270,342.6 
L272.8,341.8 
L275.6,340.9 
L278.4,339.9 
L281.2,338.7 
L283.9,337.5 
L286.7,336 
L289.5,334.4 
L292.3,332.5 
L295,330.4 
L297.8,327.9 
L300.6,325.1 
L303.4,321.8 
L306.1,317.9 
L308.9,313.4 
L311.7,308 
L314.5,301.4 
L317.3,293.6 
L320,284 
L322.8,272.4 
L325.6,258.1 
L328.4,240.5 
L331.1,219.1 
L333.9,193.4 
L336.7,163.9 
L339.5,132.1 
L342.2,102 
L345,79.65 
L347.8,71.27 
L350.6,79.58 
L353.4,101.9 
L356.1,131.9 
L358.9,163.7 
L361.7,193.3 
L364.5,219 
L367.2,240.4 
L370,258 
L372.8,272.3 
L375.6,284 
L378.3,293.6 
L381.1,301.4 
L383.9,307.9 
L386.7,313.4 
L389.5,317.9 
L392.2,321.8 
L395,325.1 
L397.8,327.9 
L400.6,330.4 
L403.3,332.5 
L406.1,334.4 
L408.9,336 
L411.7,337.4 
L414.4,338.7 
L417.2,339.9 
L420,340.9 
L422.8,341.8 
L425.6,342.6 
L428.3,343.4 
L431.1,344 
L433.9,344.6 
L436.7,345.2 
L439.4,345.7 
L442.2,346.2 
L445,346.6 
L447.8,347 
L450.5,347.4 
L453.3,347.7 
L456.1,348 
L458.9,348.3 
L461.7,348.6 
L464.4,348.8 
L467.2,349.1 
L470,349.3 
L472.8,349.5 
L475.5,349.7 
L478.3,349.9 
L481.1,350 
L483.9,350.2 
L486.7,350.3 
L489.4,350.5 
L492.2,350.6 
L495,350.7 
L497.8,350.8 
L500.5,351 
L503.3,351.1 
L506.1,351.2 
L508.9,351.3 
L511.6,351.4 
L514.4,351.4 
L517.2,351.5 
L520,351.6 
L522.8,351.7 
L525.5,351.7 
L528.3,351.8 
L531.1,351.9 
L533.9,351.9 
L536.6,352 
L539.4,352.1 
L542.2,352.1 
L545,352.2 
L547.7,352.2 
L550.5,352.3 
L553.3,352.3 
L556.1,352.4 
L558.9,352.4 
L561.6,352.4 
L564.4,352.5 
L567.2,352.5 
L570,352.6 
L572.7,352.6 
L575.5,352.6 
L578.3,352.7 
L581.1,352.7 
L583.8,352.7 
L586.6,352.7 
L589.4,352.8 
L592.2,352.8 
L595,352.8 
L597.7,352.9 
L600.5,352.9 
L603.3,352.9 
L606.1,352.9 
L608.8,353 
L611.6,353 
L614.4,353 
L617.2,353 
L619.9,353 
L622.7,353.1 
" fill="none"/>
</g>
	<g clip-path="url(#plot_window)" stroke="rgb(139,0,0)" stroke-width="1">
	<path d="M70.1,352.2 L70.1,352.2 
L72.88,352.1 
L75.65,352.1 
L78.43,352.1 
L81.21,352 
L83.99,352 
L86.76,351.9 
L89.54,351.9 
L92.32,351.8 
L95.09,351.8 
L97.87,351.7 
L100.6,351.7 
L103.4,351.6 
L106.2,351.6 
L109,351.5 
L111.8,351.5 
L114.5,351.4 
L117.3,351.4 
L120.1,351.3 
L122.9,351.2 
L125.6,351.2 
L128.4,351.1 
L131.2,351 
L134,350.9 
L136.7,350.9 
L139.5,350.8 
L142.3,350.7 
L145.1,350.6 
L147.9,350.5 
L150.6,350.4 
L153.4,350.3 
L156.2,350.2 
L159,350.1 
L161.7,350 
L164.5,349.9 
L167.3,349.7 
L170.1,349.6 
L172.8,349.5 
L175.6,349.3 
L178.4,349.2 
L181.2,349 
L184,348.9 
L186.7,348.7 
L189.5,348.5 
L192.3,348.3 
L195.1,348.1 
L197.8,347.9 
L200.6,347.7 
L203.4,347.4 
L206.2,347.2 
L209,346.9 
L211.7,346.7 
L214.5,346.4 
L217.3,346.1 
L220.1,345.7 
L222.8,345.4 
L225.6,345 
L228.4,344.6 
L231.2,344.2 
L233.9,343.7 
L236.7,343.3 
L239.5,342.7 
L242.3,342.2 
L245.1,341.6 
L247.8,341 
L250.6,340.3 
L253.4,339.6 
L256.2,338.8 
L258.9,337.9 
L261.7,337 
L264.5,336 
L267.3,334.9 
L270,333.7 
L272.8,332.4 
L275.6,331 
L278.4,329.4 
L281.2,327.7 
L283.9,325.8 
L286.7,323.8 
L289.5,321.5 
L292.3,319 
L295,316.2 
L297.8,313.2 
L300.6,309.8 
L303.4,306 
L306.1,301.8 
L308.9,297.2 
L311.7,292.1 
L314.5,286.5 
L317.3,280.4 
L320,273.7 
L322.8,266.5 
L325.6,258.9 
L328.4,251 
L331.1,243 
L333.9,235.2 
L336.7,228 
L339.5,221.7 
L342.2,216.8 
L345,213.7 
L347.8,212.6 
L350.6,213.7 
L353.4,216.8 
L356.1,221.7 
L358.9,227.9 
L361.7,235.2 
L364.5,243 
L367.2,251 
L370,258.9 
L372.8,266.5 
L375.6,273.7 
L378.3,280.3 
L381.1,286.5 
L383.9,292.1 
L386.7,297.2 
L389.5,301.8 
L392.2,306 
L395,309.8 
L397.8,313.2 
L400.6,316.2 
L403.3,319 
L406.1,321.5 
L408.9,323.8 
L411.7,325.8 
L414.4,327.7 
L417.2,329.4 
L420,331 
L422.8,332.4 
L425.6,333.7 
L428.3,334.9 
L431.1,336 
L433.9,337 
L436.7,337.9 
L439.4,338.8 
L442.2,339.6 
L445,340.3 
L447.8,341 
L450.5,341.6 
L453.3,342.2 
L456.1,342.7 
L458.9,343.3 
L461.7,343.7 
L464.4,344.2 
L467.2,344.6 
L470,345 
L472.8,345.4 
L475.5,345.7 
L478.3,346.1 
L481.1,346.4 
L483.9,346.7 
L486.7,346.9 
L489.4,347.2 
L492.2,347.4 
L495,347.7 
L497.8,347.9 
L500.5,348.1 
L503.3,348.3 
L506.1,348.5 
L508.9,348.7 
L511.6,348.9 
L514.4,349 
L517.2,349.2 
L520,349.3 
L522.8,349.5 
L525.5,349.6 
L528.3,349.7 
L531.1,349.9 
L533.9,350 
L536.6,350.1 
L539.4,350.2 
L542.2,350.3 
L545,350.4 
L547.7,350.5 
L550.5,350.6 
L553.3,350.7 
L556.1,350.8 
L558.9,350.9 
L561.6,350.9 
L564.4,351 
L567.2,351.1 
L570,351.2 
L572.7,351.2 
L575.5,351.3 
L578.3,351.4 
L581.1,351.4 
L583.8,351.5 
L586.6,351.5 
L589.4,351.6 
L592.2,351.6 
L595,351.7 
L597.7,351.7 
L600.5,351.8 
L603.3,351.8 
L606.1,351.9 
L608.8,351.9 
L611.6,352 
L614.4,352 
L617.2,352.1 
L619.9,352.1 
L622.7,352.1 
" fill="none"/>
</g>
	<g clip-path="url(#plot_window)" stroke="rgb(0,100,0)" stroke-width="1">
	<path d="M70.1,350.5 L70.1,350.5 
L72.88,350.4 
L75.65,350.3 
L78.43,350.3 
L81.21,350.2 
L83.99,350.1 
L86.76,350 
L89.54,349.9 
L92.32,349.9 
L95.09,349.8 
L97.87,349.7 
L100.6,349.6 
L103.4,349.5 
L106.2,349.4 
L109,349.3 
L111.8,349.2 
L114.5,349.1 
L117.3,349 
L120.1,348.9 
L122.9,348.8 
L125.6,348.6 
L128.4,348.5 
L131.2,348.4 
L134,348.2 
L136.7,348.1 
L139.5,348 
L142.3,347.8 
L145.1,347.6 
L147.9,347.5 
L150.6,347.3 
L153.4,347.1 
L156.2,347 
L159,346.8 
L161.7,346.6 
L164.5,346.4 
L167.3,346.2 
L170.1,346 
L172.8,345.7 
L175.6,345.5 
L178.4,345.2 
L181.2,345 
L184,344.7 
L186.7,344.4 
L189.5,344.1 
L192.3,343.8 
L195.1,343.5 
L197.8,343.2 
L200.6,342.8 
L203.4,342.5 
L206.2,342.1 
L209,341.7 
L211.7,341.3 
L214.5,340.9 
L217.3,340.4 
L220.1,339.9 
L222.8,339.4 
L225.6,338.9 
L228.4,338.3 
L231.2,337.8 
L233.9,337.1 
L236.7,336.5 
L239.5,335.8 
L242.3,335.1 
L245.1,334.4 
L247.8,333.6 
L250.6,332.8 
L253.4,331.9 
L256.2,331 
L258.9,330 
L261.7,329 
L264.5,327.9 
L267.3,326.8 
L270,325.6 
L272.8,324.4 
L275.6,323.1 
L278.4,321.7 
L281.2,320.3 
L283.9,318.8 
L286.7,317.2 
L289.5,315.5 
L292.3,313.8 
L295,312.1 
L297.8,310.3 
L300.6,308.4 
L303.4,306.5 
L306.1,304.5 
L308.9,302.5 
L311.7,300.5 
L314.5,298.5 
L317.3,296.5 
L320,294.6 
L322.8,292.7 
L325.6,291 
L328.4,289.3 
L331.1,287.8 
L333.9,286.5 
L336.7,285.4 
L339.5,284.5 
L342.2,283.9 
L345,283.5 
L347.8,283.3 
L350.6,283.5 
L353.4,283.9 
L356.1,284.5 
L358.9,285.4 
L361.7,286.5 
L364.5,287.8 
L367.2,289.3 
L370,291 
L372.8,292.7 
L375.6,294.6 
L378.3,296.5 
L381.1,298.5 
L383.9,300.5 
L386.7,302.5 
L389.5,304.5 
L392.2,306.4 
L395,308.4 
L397.8,310.2 
L400.6,312.1 
L403.3,313.8 
L406.1,315.5 
L408.9,317.2 
L411.7,318.7 
L414.4,320.2 
L417.2,321.7 
L420,323.1 
L422.8,324.4 
L425.6,325.6 
L428.3,326.8 
L431.1,327.9 
L433.9,329 
L436.7,330 
L439.4,331 
L442.2,331.9 
L445,332.8 
L447.8,333.6 
L450.5,334.4 
L453.3,335.1 
L456.1,335.8 
L458.9,336.5 
L461.7,337.1 
L464.4,337.8 
L467.2,338.3 
L470,338.9 
L472.8,339.4 
L475.5,339.9 
L478.3,340.4 
L481.1,340.9 
L483.9,341.3 
L486.7,341.7 
L489.4,342.1 
L492.2,342.5 
L495,342.8 
L497.8,343.2 
L500.5,343.5 
L503.3,343.8 
L506.1,344.1 
L508.9,344.4 
L511.6,344.7 
L514.4,345 
L517.2,345.2 
L520,345.5 
L522.8,345.7 
L525.5,346 
L528.3,346.2 
L531.1,346.4 
L533.9,346.6 
L536.6,346.8 
L539.4,347 
L542.2,347.1 
L545,347.3 
L547.7,347.5 
L550.5,347.6 
L553.3,347.8 
L556.1,348 
L558.9,348.1 
L561.6,348.2 
L564.4,348.4 
L567.2,348.5 
L570,348.6 
L572.7,348.8 
L575.5,348.9 
L578.3,349 
L581.1,349.1 
L583.8,349.2 
L586.6,349.3 
L589.4,349.4 
L592.2,349.5 
L595,349.6 
L597.7,349.7 
L600.5,349.8 
L603.3,349.9 
L606.1,349.9 
L608.8,350 
L611.6,350.1 
L614.4,350.2 
L617.2,350.3 
L619.9,350.3 
L622.7,350.4 
" fill="none"/>
</g>
</g>
	<g id="plotPoints" clip-path="url(#plot_window)">
</g>
	<g id="legendBackground" stroke="rgb(119,136,153)" fill="rgb(255,255,255)" stroke-width="1">
	<rect x="631.5" y="43" width="104.5" height="64.5"/>
</g>
	<g id="legendPoints">
</g>
	<g id="legendLines">
	<g stroke="rgb(0,0,139)" stroke-width="1">
	<line x1="646.8" y1="62.75" x2="652.8" y2="62.75"/>
</g>
	<g stroke="rgb(139,0,0)" stroke-width="1">
	<line x1="646.8" y1="75.25" x2="652.8" y2="75.25"/>
</g>
	<g stroke="rgb(0,100,0)" stroke-width="1">
	<line x1="646.8" y1="87.75" x2="652.8" y2="87.75"/>
</g>
</g>
	<g id="legendText">
	<text x="661.8" y="62.75" font-size="10" font-family="Lucida Sans Unicode" font-weight="normal" textLength="66">scale = 0.5
	</text>
	<text x="661.8" y="75.25" font-size="10" font-family="Lucida Sans Unicode" font-weight="normal" textLength="54">scale = 1
	</text>
	<text x="661.8" y="87.75" font-size="10" font-family="Lucida Sans Unicode" font-weight="normal" textLength="54">scale = 2
	</text>
</g>
	<g id="title">
	<text x="375" y="30" text-anchor="middle" font-size="20" font-family="Lucida Sans Unicode" font-weight="normal">Cauchy Distribution PDF (location = 0)
	</text>
</g>
	<g id="plotXValues">
</g>
	<g id="plotYValues">
</g>
</svg>
