<?xml version="1.0" encoding="UTF-8" standalone="no"?>
<svg width="750" height ="400" version="1.1"
xmlns:svg ="http://www.w3.org/2000/svg"
xmlns:rdf="http://www.w3.org/1999/02/22-rdf-syntax-ns#"
xmlns:cc="http://web.resource.org/cc/"
xmlns:dc="http://purl.org/dc/elements/1.1/"
xmlns ="http://www.w3.org/2000/svg"
>
<!-- SVG plot written using Boost.Plot program (Creator Jacob Voytko) --> 
<!-- Use, modification and distribution of Boost.Plot subject to the --> 
<!-- Boost Software License, Version 1.0.--> 
<!-- (See accompanying file LICENSE_1_0.txt --> 
<!-- or copy at http://www.boost.org/LICENSE_1_0.txt) --> 

<!-- SVG Plot Copyright John Maddock 2008 --> 
<meta name="copyright" content="John Maddock" />
<meta name="date" content="2008" />
<!-- Use, modification and distribution of this Scalable Vector Graphic file -->
<!-- are subject to the Boost Software License, Version 1.0. -->
<!-- (See accompanying file LICENSE_1_0.txt or copy at http://www.boost.org/LICENSE_1_0.txt) -->

<clipPath id="plot_window">	<rect x="71.1" y="44" width="541.4" height="309"/>
</clipPath>
	<g id="imageBackground" stroke="rgb(119,136,153)" fill="rgb(255,255,255)" stroke-width="2">
	<rect x="0" y="0" width="750" height="400"/>
</g>
	<g id="plotBackground" stroke="rgb(119,136,153)" fill="rgb(255,255,255)" stroke-width="2">
	<rect x="70.1" y="43" width="543.4" height="311"/>
</g>
	<g id="yMinorGrid" stroke="rgb(200,220,255)" stroke-width="0.5">
</g>
	<g id="yMajorGrid" stroke="rgb(200,220,255)" stroke-width="1">
</g>
	<g id="xMinorGrid" stroke="rgb(200,220,255)" stroke-width="0.5">
</g>
	<g id="xMajorGrid" stroke="rgb(200,220,255)" stroke-width="1">
</g>
	<g id="yAxis" stroke="rgb(0,0,0)" stroke-width="1">
	<line x1="341.8" y1="43" x2="341.8" y2="359"/>
	<line x1="70.1" y1="43" x2="70.1" y2="354"/>
</g>
	<g id="xAxis" stroke="rgb(0,0,0)" stroke-width="1">
	<line x1="65.1" y1="354" x2="613.5" y2="354"/>
	<line x1="65.1" y1="354" x2="613.5" y2="354"/>
</g>
	<g id="yMinorTicks" stroke="rgb(0,0,0)" stroke-width="1">
	<path d="M68.1,336.2 L70.1,336.2 
M68.1,318.5 L70.1,318.5 
M68.1,300.7 L70.1,300.7 
M68.1,282.9 L70.1,282.9 
M68.1,247.4 L70.1,247.4 
M68.1,229.7 L70.1,229.7 
M68.1,211.9 L70.1,211.9 
M68.1,194.1 L70.1,194.1 
M68.1,158.6 L70.1,158.6 
M68.1,140.8 L70.1,140.8 
M68.1,123.1 L70.1,123.1 
M68.1,105.3 L70.1,105.3 
M68.1,69.77 L70.1,69.77 
M68.1,52.01 L70.1,52.01 
M68.1,354 L70.1,354 
" fill="none"/>
</g>
	<g id="xMinorTicks" stroke="rgb(0,0,0)" stroke-width="1">
	<path d="M370.8,354 L370.8,356 
M399.9,354 L399.9,356 
M428.9,354 L428.9,356 
M457.9,354 L457.9,356 
M516,354 L516,356 
M545,354 L545,356 
M574.1,354 L574.1,356 
M603.1,354 L603.1,356 
M312.8,354 L312.8,356 
M283.7,354 L283.7,356 
M254.7,354 L254.7,356 
M225.7,354 L225.7,356 
M167.6,354 L167.6,356 
M138.6,354 L138.6,356 
M109.6,354 L109.6,356 
M80.52,354 L80.52,356 
" fill="none"/>
</g>
	<g id="yMajorTicks" stroke="rgb(0,0,0)" stroke-width="2">
	<path d="M65.1,354 L70.1,354 
M65.1,265.2 L70.1,265.2 
M65.1,176.4 L70.1,176.4 
M65.1,87.54 L70.1,87.54 
M65.1,354 L70.1,354 
" fill="none"/>
</g>
	<g id="xMajorTicks" stroke="rgb(0,0,0)" stroke-width="2">
	<path d="M341.8,354 L341.8,359 
M487,354 L487,359 
M341.8,354 L341.8,359 
M196.6,354 L196.6,359 
" fill="none"/>
</g>
	<g id="xTicksValues" font-size="12" font-family="Lucida Sans Unicode" text-anchor="middle">
	<text x="341.8" y="374.6">0
	</text>
	<text x="487" y="374.6">5
	</text>
	<text x="341.8" y="374.6">0
	</text>
	<text x="196.6" y="374.6">-5
	</text>
</g>
	<g id="yTicksValues" font-size="12" font-family="Lucida Sans Unicode" text-anchor="end">
	<text x="59.1" y="356.4">0
	</text>
	<text x="59.1" y="267.6">0.1
	</text>
	<text x="59.1" y="178.8">0.2
	</text>
	<text x="59.1" y="89.94">0.3
	</text>
	<text x="59.1" y="356.4">0
	</text>
</g>
	<g id="yLabel">
	<text x="32.4" y="198.5" text-anchor="middle" transform="rotate(-90 32.4 198.5)" font-size="14" font-family="Lucida Sans Unicode">Probability
	</text>
</g>
	<g id="xLabel">
	<text x="341.8" y="387.1" text-anchor="middle" font-size="12" font-family="Lucida Sans Unicode">Random Variable
	</text>
</g>
	<g id="plotLines" stroke-width="2">
	<g clip-path="url(#plot_window)" stroke="rgb(0,0,139)" stroke-width="1">
	<path d="M70.1,339.9 L70.1,339.9 
L72.82,339.3 
L75.53,338.6 
L78.25,338 
L80.97,337.2 
L83.69,336.5 
L86.4,335.7 
L89.12,334.8 
L91.84,333.9 
L94.55,332.8 
L97.27,331.8 
L99.99,330.6 
L102.7,329.4 
L105.4,328 
L108.1,326.5 
L110.9,325 
L113.6,323.2 
L116.3,321.4 
L119,319.3 
L121.7,317.1 
L124.4,314.7 
L127.2,312 
L129.9,309 
L132.6,305.8 
L135.3,302.3 
L138,298.3 
L140.7,293.9 
L143.5,289.1 
L146.2,283.7 
L148.9,277.7 
L151.6,271 
L154.3,263.5 
L157,255.2 
L159.8,245.8 
L162.5,235.5 
L165.2,223.9 
L167.9,211.2 
L170.6,197.2 
L173.3,182 
L176.1,165.8 
L178.8,148.9 
L181.5,131.8 
L184.2,115.1 
L186.9,99.74 
L189.6,86.79 
L192.4,77.29 
L195.1,72.09 
L197.8,71.72 
L200.5,76.21 
L203.2,85.12 
L206,97.61 
L208.7,112.7 
L211.4,129.2 
L214.1,146.3 
L216.8,163.3 
L219.5,179.7 
L222.3,195 
L225,209.2 
L227.7,222.1 
L230.4,233.8 
L233.1,244.4 
L235.8,253.8 
L238.6,262.3 
L241.3,269.9 
L244,276.7 
L246.7,282.8 
L249.4,288.3 
L252.1,293.3 
L254.9,297.7 
L257.6,301.7 
L260.3,305.3 
L263,308.6 
L265.7,311.6 
L268.4,314.3 
L271.2,316.7 
L273.9,319 
L276.6,321.1 
L279.3,323 
L282,324.7 
L284.7,326.3 
L287.5,327.8 
L290.2,329.2 
L292.9,330.4 
L295.6,331.6 
L298.3,332.7 
L301,333.7 
L303.8,334.7 
L306.5,335.5 
L309.2,336.4 
L311.9,337.1 
L314.6,337.9 
L317.3,338.5 
L320.1,339.2 
L322.8,339.8 
L325.5,340.3 
L328.2,340.9 
L330.9,341.4 
L333.6,341.9 
L336.4,342.3 
L339.1,342.7 
L341.8,343.1 
L344.5,343.5 
L347.2,343.9 
L350,344.2 
L352.7,344.5 
L355.4,344.8 
L358.1,345.1 
L360.8,345.4 
L363.5,345.7 
L366.3,346 
L369,346.2 
L371.7,346.4 
L374.4,346.7 
L377.1,346.9 
L379.8,347.1 
L382.6,347.3 
L385.3,347.5 
L388,347.6 
L390.7,347.8 
L393.4,348 
L396.1,348.1 
L398.9,348.3 
L401.6,348.4 
L404.3,348.6 
L407,348.7 
L409.7,348.8 
L412.4,349 
L415.2,349.1 
L417.9,349.2 
L420.6,349.3 
L423.3,349.4 
L426,349.5 
L428.7,349.6 
L431.5,349.7 
L434.2,349.8 
L436.9,349.9 
L439.6,350 
L442.3,350.1 
L445,350.2 
L447.8,350.3 
L450.5,350.3 
L453.2,350.4 
L455.9,350.5 
L458.6,350.6 
L461.3,350.6 
L464.1,350.7 
L466.8,350.8 
L469.5,350.8 
L472.2,350.9 
L474.9,351 
L477.7,351 
L480.4,351.1 
L483.1,351.1 
L485.8,351.2 
L488.5,351.2 
L491.2,351.3 
L494,351.3 
L496.7,351.4 
L499.4,351.4 
L502.1,351.5 
L504.8,351.5 
L507.5,351.6 
L510.3,351.6 
L513,351.6 
L515.7,351.7 
L518.4,351.7 
L521.1,351.8 
L523.8,351.8 
L526.6,351.8 
L529.3,351.9 
L532,351.9 
L534.7,351.9 
L537.4,352 
L540.1,352 
L542.9,352 
L545.6,352.1 
L548.3,352.1 
L551,352.1 
L553.7,352.1 
L556.4,352.2 
L559.2,352.2 
L561.9,352.2 
L564.6,352.3 
L567.3,352.3 
L570,352.3 
L572.7,352.3 
L575.5,352.3 
L578.2,352.4 
L580.9,352.4 
L583.6,352.4 
L586.3,352.4 
L589,352.5 
L591.8,352.5 
L594.5,352.5 
L597.2,352.5 
L599.9,352.5 
L602.6,352.6 
L605.3,352.6 
L608.1,352.6 
L610.8,352.6 
" fill="none"/>
</g>
	<g clip-path="url(#plot_window)" stroke="rgb(139,0,0)" stroke-width="1">
	<path d="M70.1,350.8 L70.1,350.8 
L72.82,350.7 
L75.53,350.7 
L78.25,350.6 
L80.97,350.5 
L83.69,350.5 
L86.4,350.4 
L89.12,350.3 
L91.84,350.2 
L94.55,350.2 
L97.27,350.1 
L99.99,350 
L102.7,349.9 
L105.4,349.8 
L108.1,349.7 
L110.9,349.6 
L113.6,349.5 
L116.3,349.4 
L119,349.3 
L121.7,349.2 
L124.4,349 
L127.2,348.9 
L129.9,348.8 
L132.6,348.7 
L135.3,348.5 
L138,348.4 
L140.7,348.2 
L143.5,348.1 
L146.2,347.9 
L148.9,347.7 
L151.6,347.6 
L154.3,347.4 
L157,347.2 
L159.8,347 
L162.5,346.8 
L165.2,346.6 
L167.9,346.3 
L170.6,346.1 
L173.3,345.8 
L176.1,345.6 
L178.8,345.3 
L181.5,345 
L184.2,344.7 
L186.9,344.4 
L189.6,344.1 
L192.4,343.7 
L195.1,343.3 
L197.8,343 
L200.5,342.5 
L203.2,342.1 
L206,341.7 
L208.7,341.2 
L211.4,340.7 
L214.1,340.1 
L216.8,339.5 
L219.5,338.9 
L222.3,338.3 
L225,337.6 
L227.7,336.8 
L230.4,336 
L233.1,335.2 
L235.8,334.3 
L238.6,333.3 
L241.3,332.2 
L244,331.1 
L246.7,329.9 
L249.4,328.6 
L252.1,327.2 
L254.9,325.6 
L257.6,324 
L260.3,322.2 
L263,320.2 
L265.7,318.1 
L268.4,315.7 
L271.2,313.2 
L273.9,310.3 
L276.6,307.2 
L279.3,303.8 
L282,300 
L284.7,295.9 
L287.5,291.2 
L290.2,286.1 
L292.9,280.3 
L295.6,273.9 
L298.3,266.8 
L301,258.8 
L303.8,249.9 
L306.5,240 
L309.2,229 
L311.9,216.7 
L314.6,203.3 
L317.3,188.6 
L320.1,172.8 
L322.8,156.2 
L325.5,139.1 
L328.2,122.1 
L330.9,106 
L333.6,91.94 
L336.4,80.85 
L339.1,73.73 
L341.8,71.27 
L344.5,73.73 
L347.2,80.84 
L350,91.92 
L352.7,106 
L355.4,122.1 
L358.1,139 
L360.8,156.2 
L363.5,172.8 
L366.3,188.6 
L369,203.3 
L371.7,216.7 
L374.4,229 
L377.1,240 
L379.8,249.9 
L382.6,258.8 
L385.3,266.8 
L388,273.9 
L390.7,280.3 
L393.4,286.1 
L396.1,291.2 
L398.9,295.9 
L401.6,300 
L404.3,303.8 
L407,307.2 
L409.7,310.3 
L412.4,313.1 
L415.2,315.7 
L417.9,318.1 
L420.6,320.2 
L423.3,322.2 
L426,324 
L428.7,325.6 
L431.5,327.2 
L434.2,328.6 
L436.9,329.9 
L439.6,331.1 
L442.3,332.2 
L445,333.3 
L447.8,334.3 
L450.5,335.2 
L453.2,336 
L455.9,336.8 
L458.6,337.6 
L461.3,338.3 
L464.1,338.9 
L466.8,339.5 
L469.5,340.1 
L472.2,340.7 
L474.9,341.2 
L477.7,341.7 
L480.4,342.1 
L483.1,342.5 
L485.8,343 
L488.5,343.3 
L491.2,343.7 
L494,344.1 
L496.7,344.4 
L499.4,344.7 
L502.1,345 
L504.8,345.3 
L507.5,345.6 
L510.3,345.8 
L513,346.1 
L515.7,346.3 
L518.4,346.6 
L521.1,346.8 
L523.8,347 
L526.6,347.2 
L529.3,347.4 
L532,347.6 
L534.7,347.7 
L537.4,347.9 
L540.1,348.1 
L542.9,348.2 
L545.6,348.4 
L548.3,348.5 
L551,348.7 
L553.7,348.8 
L556.4,348.9 
L559.2,349 
L561.9,349.2 
L564.6,349.3 
L567.3,349.4 
L570,349.5 
L572.7,349.6 
L575.5,349.7 
L578.2,349.8 
L580.9,349.9 
L583.6,350 
L586.3,350.1 
L589,350.2 
L591.8,350.2 
L594.5,350.3 
L597.2,350.4 
L599.9,350.5 
L602.6,350.5 
L605.3,350.6 
L608.1,350.7 
L610.8,350.7 
" fill="none"/>
</g>
	<g clip-path="url(#plot_window)" stroke="rgb(0,100,0)" stroke-width="1">
	<path d="M70.1,352.6 L70.1,352.6 
L72.82,352.6 
L75.53,352.6 
L78.25,352.6 
L80.97,352.6 
L83.69,352.5 
L86.4,352.5 
L89.12,352.5 
L91.84,352.5 
L94.55,352.5 
L97.27,352.4 
L99.99,352.4 
L102.7,352.4 
L105.4,352.4 
L108.1,352.3 
L110.9,352.3 
L113.6,352.3 
L116.3,352.3 
L119,352.3 
L121.7,352.2 
L124.4,352.2 
L127.2,352.2 
L129.9,352.1 
L132.6,352.1 
L135.3,352.1 
L138,352.1 
L140.7,352 
L143.5,352 
L146.2,352 
L148.9,351.9 
L151.6,351.9 
L154.3,351.9 
L157,351.8 
L159.8,351.8 
L162.5,351.8 
L165.2,351.7 
L167.9,351.7 
L170.6,351.6 
L173.3,351.6 
L176.1,351.6 
L178.8,351.5 
L181.5,351.5 
L184.2,351.4 
L186.9,351.4 
L189.6,351.3 
L192.4,351.3 
L195.1,351.2 
L197.8,351.2 
L200.5,351.1 
L203.2,351.1 
L206,351 
L208.7,351 
L211.4,350.9 
L214.1,350.8 
L216.8,350.8 
L219.5,350.7 
L222.3,350.6 
L225,350.6 
L227.7,350.5 
L230.4,350.4 
L233.1,350.3 
L235.8,350.3 
L238.6,350.2 
L241.3,350.1 
L244,350 
L246.7,349.9 
L249.4,349.8 
L252.1,349.7 
L254.9,349.6 
L257.6,349.5 
L260.3,349.4 
L263,349.3 
L265.7,349.2 
L268.4,349.1 
L271.2,349 
L273.9,348.8 
L276.6,348.7 
L279.3,348.6 
L282,348.4 
L284.7,348.3 
L287.5,348.1 
L290.2,348 
L292.9,347.8 
L295.6,347.6 
L298.3,347.5 
L301,347.3 
L303.8,347.1 
L306.5,346.9 
L309.2,346.7 
L311.9,346.4 
L314.6,346.2 
L317.3,346 
L320.1,345.7 
L322.8,345.4 
L325.5,345.1 
L328.2,344.8 
L330.9,344.5 
L333.6,344.2 
L336.4,343.9 
L339.1,343.5 
L341.8,343.1 
L344.5,342.7 
L347.2,342.3 
L350,341.9 
L352.7,341.4 
L355.4,340.9 
L358.1,340.3 
L360.8,339.8 
L363.5,339.2 
L366.3,338.5 
L369,337.9 
L371.7,337.1 
L374.4,336.4 
L377.1,335.5 
L379.8,334.7 
L382.6,333.7 
L385.3,332.7 
L388,331.6 
L390.7,330.4 
L393.4,329.2 
L396.1,327.8 
L398.9,326.3 
L401.6,324.7 
L404.3,323 
L407,321.1 
L409.7,319 
L412.4,316.7 
L415.2,314.3 
L417.9,311.6 
L420.6,308.6 
L423.3,305.3 
L426,301.7 
L428.7,297.7 
L431.5,293.3 
L434.2,288.3 
L436.9,282.9 
L439.6,276.7 
L442.3,269.9 
L445,262.3 
L447.8,253.8 
L450.5,244.4 
L453.2,233.8 
L455.9,222.1 
L458.6,209.2 
L461.3,195 
L464.1,179.7 
L466.8,163.4 
L469.5,146.4 
L472.2,129.2 
L474.9,112.7 
L477.7,97.63 
L480.4,85.13 
L483.1,76.22 
L485.8,71.72 
L488.5,72.09 
L491.2,77.28 
L494,86.78 
L496.7,99.72 
L499.4,115.1 
L502.1,131.8 
L504.8,148.9 
L507.5,165.8 
L510.3,182 
L513,197.2 
L515.7,211.2 
L518.4,223.9 
L521.1,235.4 
L523.8,245.8 
L526.6,255.2 
L529.3,263.5 
L532,271 
L534.7,277.7 
L537.4,283.7 
L540.1,289.1 
L542.9,293.9 
L545.6,298.3 
L548.3,302.3 
L551,305.8 
L553.7,309 
L556.4,312 
L559.2,314.7 
L561.9,317.1 
L564.6,319.3 
L567.3,321.4 
L570,323.2 
L572.7,324.9 
L575.5,326.5 
L578.2,328 
L580.9,329.4 
L583.6,330.6 
L586.3,331.8 
L589,332.8 
L591.8,333.9 
L594.5,334.8 
L597.2,335.7 
L599.9,336.5 
L602.6,337.2 
L605.3,338 
L608.1,338.6 
L610.8,339.3 
" fill="none"/>
</g>
</g>
	<g id="plotPoints" clip-path="url(#plot_window)">
</g>
	<g id="legendBackground" stroke="rgb(119,136,153)" fill="rgb(255,255,255)" stroke-width="1">
	<rect x="619.5" y="43" width="116.5" height="64.5"/>
</g>
	<g id="legendPoints">
</g>
	<g id="legendLines">
	<g stroke="rgb(0,0,139)" stroke-width="1">
	<line x1="634.8" y1="62.75" x2="640.8" y2="62.75"/>
</g>
	<g stroke="rgb(139,0,0)" stroke-width="1">
	<line x1="634.8" y1="75.25" x2="640.8" y2="75.25"/>
</g>
	<g stroke="rgb(0,100,0)" stroke-width="1">
	<line x1="634.8" y1="87.75" x2="640.8" y2="87.75"/>
</g>
</g>
	<g id="legendText">
	<text x="649.8" y="62.75" font-size="10" font-family="Lucida Sans Unicode" font-weight="normal" textLength="78">location = -5
	</text>
	<text x="649.8" y="75.25" font-size="10" font-family="Lucida Sans Unicode" font-weight="normal" textLength="72">location = 0
	</text>
	<text x="649.8" y="87.75" font-size="10" font-family="Lucida Sans Unicode" font-weight="normal" textLength="72">location = 5
	</text>
</g>
	<g id="title">
	<text x="375" y="30" text-anchor="middle" font-size="20" font-family="Lucida Sans Unicode" font-weight="normal">Cauchy Distribution PDF (scale = 1)
	</text>
</g>
	<g id="plotXValues">
</g>
	<g id="plotYValues">
</g>
</svg>
