<?xml version="1.0" encoding="UTF-8" standalone="no"?>
<svg width="750" height ="400" version="1.1"
xmlns:svg ="http://www.w3.org/2000/svg"
xmlns:rdf="http://www.w3.org/1999/02/22-rdf-syntax-ns#"
xmlns:cc="http://web.resource.org/cc/"
xmlns:dc="http://purl.org/dc/elements/1.1/"
xmlns ="http://www.w3.org/2000/svg"
>
<!-- SVG plot written using Boost.Plot program (Creator Jacob Voytko) --> 
<!-- Use, modification and distribution of Boost.Plot subject to the --> 
<!-- Boost Software License, Version 1.0.--> 
<!-- (See accompanying file LICENSE_1_0.txt --> 
<!-- or copy at http://www.boost.org/LICENSE_1_0.txt) --> 

<!-- SVG Plot Copyright John Maddock 2008 --> 
<meta name="copyright" content="John Maddock" />
<meta name="date" content="2008" />
<!-- Use, modification and distribution of this Scalable Vector Graphic file -->
<!-- are subject to the Boost Software License, Version 1.0. -->
<!-- (See accompanying file LICENSE_1_0.txt or copy at http://www.boost.org/LICENSE_1_0.txt) -->

<clipPath id="plot_window">	<rect x="71.1" y="44" width="595.4" height="309"/>
</clipPath>
	<g id="imageBackground" stroke="rgb(119,136,153)" fill="rgb(255,255,255)" stroke-width="2">
	<rect x="0" y="0" width="750" height="400"/>
</g>
	<g id="plotBackground" stroke="rgb(119,136,153)" fill="rgb(255,255,255)" stroke-width="2">
	<rect x="70.1" y="43" width="597.4" height="311"/>
</g>
	<g id="yMinorGrid" stroke="rgb(200,220,255)" stroke-width="0.5">
</g>
	<g id="yMajorGrid" stroke="rgb(200,220,255)" stroke-width="1">
</g>
	<g id="xMinorGrid" stroke="rgb(200,220,255)" stroke-width="0.5">
</g>
	<g id="xMajorGrid" stroke="rgb(200,220,255)" stroke-width="1">
</g>
	<g id="yAxis" stroke="rgb(0,0,0)" stroke-width="1">
	<line x1="70.1" y1="43" x2="70.1" y2="359"/>
	<line x1="70.1" y1="43" x2="70.1" y2="354"/>
</g>
	<g id="xAxis" stroke="rgb(0,0,0)" stroke-width="1">
	<line x1="65.1" y1="354" x2="667.5" y2="354"/>
	<line x1="65.1" y1="354" x2="667.5" y2="354"/>
</g>
	<g id="yMinorTicks" stroke="rgb(0,0,0)" stroke-width="1">
	<path d="M68.1,342 L70.1,342 
M68.1,330 L70.1,330 
M68.1,318 L70.1,318 
M68.1,306 L70.1,306 
M68.1,282 L70.1,282 
M68.1,269.9 L70.1,269.9 
M68.1,257.9 L70.1,257.9 
M68.1,245.9 L70.1,245.9 
M68.1,221.9 L70.1,221.9 
M68.1,209.9 L70.1,209.9 
M68.1,197.9 L70.1,197.9 
M68.1,185.9 L70.1,185.9 
M68.1,161.9 L70.1,161.9 
M68.1,149.9 L70.1,149.9 
M68.1,137.9 L70.1,137.9 
M68.1,125.9 L70.1,125.9 
M68.1,101.8 L70.1,101.8 
M68.1,89.83 L70.1,89.83 
M68.1,77.82 L70.1,77.82 
M68.1,65.82 L70.1,65.82 
M68.1,354 L70.1,354 
" fill="none"/>
</g>
	<g id="xMinorTicks" stroke="rgb(0,0,0)" stroke-width="1">
	<path d="M97.1,354 L97.1,356 
M124.1,354 L124.1,356 
M151.1,354 L151.1,356 
M178.1,354 L178.1,356 
M232.1,354 L232.1,356 
M259.1,354 L259.1,356 
M286.1,354 L286.1,356 
M313.1,354 L313.1,356 
M367.1,354 L367.1,356 
M394.1,354 L394.1,356 
M421.1,354 L421.1,356 
M448.2,354 L448.2,356 
M502.2,354 L502.2,356 
M529.2,354 L529.2,356 
M556.2,354 L556.2,356 
M583.2,354 L583.2,356 
M637.2,354 L637.2,356 
M664.2,354 L664.2,356 
" fill="none"/>
</g>
	<g id="yMajorTicks" stroke="rgb(0,0,0)" stroke-width="2">
	<path d="M65.1,354 L70.1,354 
M65.1,294 L70.1,294 
M65.1,233.9 L70.1,233.9 
M65.1,173.9 L70.1,173.9 
M65.1,113.8 L70.1,113.8 
M65.1,53.81 L70.1,53.81 
M65.1,354 L70.1,354 
" fill="none"/>
</g>
	<g id="xMajorTicks" stroke="rgb(0,0,0)" stroke-width="2">
	<path d="M70.1,354 L70.1,359 
M205.1,354 L205.1,359 
M340.1,354 L340.1,359 
M475.2,354 L475.2,359 
M610.2,354 L610.2,359 
M70.1,354 L70.1,359 
" fill="none"/>
</g>
	<g id="xTicksValues" font-size="12" font-family="Lucida Sans Unicode" text-anchor="middle">
	<text x="70.1" y="374.6">0
	</text>
	<text x="205.1" y="374.6">5
	</text>
	<text x="340.1" y="374.6">10
	</text>
	<text x="475.2" y="374.6">15
	</text>
	<text x="610.2" y="374.6">20
	</text>
	<text x="70.1" y="374.6">0
	</text>
</g>
	<g id="yTicksValues" font-size="12" font-family="Lucida Sans Unicode" text-anchor="end">
	<text x="59.1" y="356.4">0
	</text>
	<text x="59.1" y="296.4">0.1
	</text>
	<text x="59.1" y="236.3">0.2
	</text>
	<text x="59.1" y="176.3">0.3
	</text>
	<text x="59.1" y="116.2">0.4
	</text>
	<text x="59.1" y="56.21">0.5
	</text>
	<text x="59.1" y="356.4">0
	</text>
</g>
	<g id="yLabel">
	<text x="32.4" y="198.5" text-anchor="middle" transform="rotate(-90 32.4 198.5)" font-size="14" font-family="Lucida Sans Unicode">Probability
	</text>
</g>
	<g id="xLabel">
	<text x="368.8" y="387.1" text-anchor="middle" font-size="12" font-family="Lucida Sans Unicode">Random Variable
	</text>
</g>
	<g id="plotLines" stroke-width="2">
	<g clip-path="url(#plot_window)" stroke="rgb(0,0,139)" stroke-width="1">
	<path d="M70.1,53.81 L70.1,53.81 
L73.09,69.96 
L76.07,85.24 
L79.06,99.7 
L82.05,113.4 
L85.03,126.3 
L88.02,138.6 
L91.01,150.2 
L94,161.1 
L96.98,171.5 
L99.97,181.3 
L103,190.6 
L105.9,199.4 
L108.9,207.7 
L111.9,215.6 
L114.9,223 
L117.9,230.1 
L120.9,236.8 
L123.9,243.1 
L126.9,249 
L129.8,254.7 
L132.8,260 
L135.8,265.1 
L138.8,269.9 
L141.8,274.4 
L144.8,278.7 
L147.8,282.7 
L150.7,286.6 
L153.7,290.2 
L156.7,293.6 
L159.7,296.9 
L162.7,300 
L165.7,302.9 
L168.7,305.6 
L171.7,308.2 
L174.6,310.7 
L177.6,313 
L180.6,315.2 
L183.6,317.3 
L186.6,319.3 
L189.6,321.1 
L192.6,322.9 
L195.6,324.6 
L198.5,326.2 
L201.5,327.7 
L204.5,329.1 
L207.5,330.4 
L210.5,331.7 
L213.5,332.9 
L216.5,334 
L219.5,335.1 
L222.4,336.1 
L225.4,337.1 
L228.4,338 
L231.4,338.9 
L234.4,339.7 
L237.4,340.4 
L240.4,341.2 
L243.3,341.9 
L246.3,342.5 
L249.3,343.1 
L252.3,343.7 
L255.3,344.3 
L258.3,344.8 
L261.3,345.3 
L264.3,345.8 
L267.2,346.2 
L270.2,346.6 
L273.2,347 
L276.2,347.4 
L279.2,347.7 
L282.2,348.1 
L285.2,348.4 
L288.2,348.7 
L291.1,349 
L294.1,349.3 
L297.1,349.5 
L300.1,349.8 
L303.1,350 
L306.1,350.2 
L309.1,350.4 
L312,350.6 
L315,350.8 
L318,351 
L321,351.1 
L324,351.3 
L327,351.4 
L330,351.6 
L333,351.7 
L335.9,351.8 
L338.9,351.9 
L341.9,352 
L344.9,352.1 
L347.9,352.2 
L350.9,352.3 
L353.9,352.4 
L356.9,352.5 
L359.8,352.6 
L362.8,352.7 
L365.8,352.7 
L368.8,352.8 
L371.8,352.9 
L374.8,352.9 
L377.8,353 
L380.7,353 
L383.7,353.1 
L386.7,353.1 
L389.7,353.2 
L392.7,353.2 
L395.7,353.3 
L398.7,353.3 
L401.7,353.4 
L404.6,353.4 
L407.6,353.4 
L410.6,353.5 
L413.6,353.5 
L416.6,353.5 
L419.6,353.5 
L422.6,353.6 
L425.6,353.6 
L428.5,353.6 
L431.5,353.6 
L434.5,353.6 
L437.5,353.7 
L440.5,353.7 
L443.5,353.7 
L446.5,353.7 
L449.4,353.7 
L452.4,353.7 
L455.4,353.8 
L458.4,353.8 
L461.4,353.8 
L464.4,353.8 
L467.4,353.8 
L470.4,353.8 
L473.3,353.8 
L476.3,353.8 
L479.3,353.8 
L482.3,353.9 
L485.3,353.9 
L488.3,353.9 
L491.3,353.9 
L494.3,353.9 
L497.2,353.9 
L500.2,353.9 
L503.2,353.9 
L506.2,353.9 
L509.2,353.9 
L512.2,353.9 
L515.2,353.9 
L518.1,353.9 
L521.1,353.9 
L524.1,353.9 
L527.1,353.9 
L530.1,353.9 
L533.1,353.9 
L536.1,353.9 
L539.1,353.9 
L542,354 
L545,354 
L548,354 
L551,354 
L554,354 
L557,354 
L560,354 
L563,354 
L565.9,354 
L568.9,354 
L571.9,354 
L574.9,354 
L577.9,354 
L580.9,354 
L583.9,354 
L586.9,354 
L589.8,354 
L592.8,354 
L595.8,354 
L598.8,354 
L601.8,354 
L604.8,354 
L607.8,354 
L610.7,354 
L613.7,354 
L616.7,354 
L619.7,354 
L622.7,354 
L625.7,354 
L628.7,354 
L631.7,354 
L634.6,354 
L637.6,354 
L640.6,354 
L643.6,354 
L646.6,354 
L649.6,354 
L652.6,354 
L655.6,354 
L658.5,354 
L661.5,354 
L664.5,354 
" fill="none"/>
</g>
	<g clip-path="url(#plot_window)" stroke="rgb(139,0,0)" stroke-width="1">
	<path d="M70.1,354 L70.1,354 
L73.09,351.2 
L76.07,346.6 
L79.06,341.1 
L82.05,335.2 
L85.03,329.1 
L88.02,323 
L91.01,317.1 
L94,311.3 
L96.98,305.8 
L99.97,300.6 
L103,295.7 
L105.9,291.1 
L108.9,286.9 
L111.9,283.1 
L114.9,279.6 
L117.9,276.4 
L120.9,273.6 
L123.9,271.1 
L126.9,268.9 
L129.8,267.1 
L132.8,265.5 
L135.8,264.2 
L138.8,263.2 
L141.8,262.4 
L144.8,261.9 
L147.8,261.6 
L150.7,261.4 
L153.7,261.5 
L156.7,261.8 
L159.7,262.2 
L162.7,262.7 
L165.7,263.4 
L168.7,264.2 
L171.7,265.2 
L174.6,266.2 
L177.6,267.4 
L180.6,268.6 
L183.6,269.9 
L186.6,271.2 
L189.6,272.7 
L192.6,274.1 
L195.6,275.7 
L198.5,277.2 
L201.5,278.8 
L204.5,280.4 
L207.5,282 
L210.5,283.7 
L213.5,285.3 
L216.5,287 
L219.5,288.6 
L222.4,290.3 
L225.4,291.9 
L228.4,293.6 
L231.4,295.2 
L234.4,296.8 
L237.4,298.4 
L240.4,300 
L243.3,301.5 
L246.3,303.1 
L249.3,304.6 
L252.3,306.1 
L255.3,307.5 
L258.3,308.9 
L261.3,310.4 
L264.3,311.7 
L267.2,313.1 
L270.2,314.4 
L273.2,315.7 
L276.2,316.9 
L279.2,318.2 
L282.2,319.4 
L285.2,320.5 
L288.2,321.7 
L291.1,322.8 
L294.1,323.9 
L297.1,324.9 
L300.1,325.9 
L303.1,326.9 
L306.1,327.9 
L309.1,328.8 
L312,329.7 
L315,330.6 
L318,331.5 
L321,332.3 
L324,333.1 
L327,333.9 
L330,334.6 
L333,335.3 
L335.9,336 
L338.9,336.7 
L341.9,337.4 
L344.9,338 
L347.9,338.6 
L350.9,339.2 
L353.9,339.8 
L356.9,340.3 
L359.8,340.9 
L362.8,341.4 
L365.8,341.9 
L368.8,342.4 
L371.8,342.8 
L374.8,343.3 
L377.8,343.7 
L380.7,344.1 
L383.7,344.5 
L386.7,344.9 
L389.7,345.3 
L392.7,345.6 
L395.7,345.9 
L398.7,346.3 
L401.7,346.6 
L404.6,346.9 
L407.6,347.2 
L410.6,347.5 
L413.6,347.7 
L416.6,348 
L419.6,348.2 
L422.6,348.5 
L425.6,348.7 
L428.5,348.9 
L431.5,349.1 
L434.5,349.4 
L437.5,349.5 
L440.5,349.7 
L443.5,349.9 
L446.5,350.1 
L449.4,350.3 
L452.4,350.4 
L455.4,350.6 
L458.4,350.7 
L461.4,350.9 
L464.4,351 
L467.4,351.1 
L470.4,351.2 
L473.3,351.4 
L476.3,351.5 
L479.3,351.6 
L482.3,351.7 
L485.3,351.8 
L488.3,351.9 
L491.3,352 
L494.3,352.1 
L497.2,352.2 
L500.2,352.2 
L503.2,352.3 
L506.2,352.4 
L509.2,352.5 
L512.2,352.5 
L515.2,352.6 
L518.1,352.7 
L521.1,352.7 
L524.1,352.8 
L527.1,352.8 
L530.1,352.9 
L533.1,352.9 
L536.1,353 
L539.1,353 
L542,353.1 
L545,353.1 
L548,353.1 
L551,353.2 
L554,353.2 
L557,353.3 
L560,353.3 
L563,353.3 
L565.9,353.4 
L568.9,353.4 
L571.9,353.4 
L574.9,353.4 
L577.9,353.5 
L580.9,353.5 
L583.9,353.5 
L586.9,353.5 
L589.8,353.6 
L592.8,353.6 
L595.8,353.6 
L598.8,353.6 
L601.8,353.6 
L604.8,353.6 
L607.8,353.7 
L610.7,353.7 
L613.7,353.7 
L616.7,353.7 
L619.7,353.7 
L622.7,353.7 
L625.7,353.7 
L628.7,353.8 
L631.7,353.8 
L634.6,353.8 
L637.6,353.8 
L640.6,353.8 
L643.6,353.8 
L646.6,353.8 
L649.6,353.8 
L652.6,353.8 
L655.6,353.8 
L658.5,353.8 
L661.5,353.9 
L664.5,353.9 
" fill="none"/>
</g>
	<g clip-path="url(#plot_window)" stroke="rgb(0,100,0)" stroke-width="1">
	<path d="M70.1,354 L70.1,354 
L73.09,354 
L76.07,354 
L79.06,354 
L82.05,354 
L85.03,353.9 
L88.02,353.9 
L91.01,353.8 
L94,353.7 
L96.98,353.5 
L99.97,353.3 
L103,353.1 
L105.9,352.8 
L108.9,352.4 
L111.9,351.9 
L114.9,351.4 
L117.9,350.8 
L120.9,350.2 
L123.9,349.5 
L126.9,348.7 
L129.8,347.8 
L132.8,346.9 
L135.8,345.9 
L138.8,344.8 
L141.8,343.7 
L144.8,342.5 
L147.8,341.3 
L150.7,340 
L153.7,338.7 
L156.7,337.4 
L159.7,336 
L162.7,334.5 
L165.7,333.1 
L168.7,331.6 
L171.7,330.1 
L174.6,328.7 
L177.6,327.2 
L180.6,325.7 
L183.6,324.2 
L186.6,322.7 
L189.6,321.2 
L192.6,319.8 
L195.6,318.3 
L198.5,316.9 
L201.5,315.5 
L204.5,314.2 
L207.5,312.8 
L210.5,311.6 
L213.5,310.3 
L216.5,309.1 
L219.5,308 
L222.4,306.8 
L225.4,305.8 
L228.4,304.8 
L231.4,303.8 
L234.4,302.9 
L237.4,302 
L240.4,301.2 
L243.3,300.4 
L246.3,299.7 
L249.3,299.1 
L252.3,298.5 
L255.3,297.9 
L258.3,297.4 
L261.3,297 
L264.3,296.6 
L267.2,296.3 
L270.2,296 
L273.2,295.8 
L276.2,295.6 
L279.2,295.5 
L282.2,295.4 
L285.2,295.4 
L288.2,295.4 
L291.1,295.4 
L294.1,295.5 
L297.1,295.6 
L300.1,295.8 
L303.1,296 
L306.1,296.3 
L309.1,296.6 
L312,296.9 
L315,297.3 
L318,297.6 
L321,298.1 
L324,298.5 
L327,299 
L330,299.5 
L333,300 
L335.9,300.5 
L338.9,301.1 
L341.9,301.7 
L344.9,302.3 
L347.9,302.9 
L350.9,303.5 
L353.9,304.2 
L356.9,304.9 
L359.8,305.5 
L362.8,306.2 
L365.8,306.9 
L368.8,307.6 
L371.8,308.3 
L374.8,309.1 
L377.8,309.8 
L380.7,310.5 
L383.7,311.2 
L386.7,312 
L389.7,312.7 
L392.7,313.5 
L395.7,314.2 
L398.7,314.9 
L401.7,315.7 
L404.6,316.4 
L407.6,317.2 
L410.6,317.9 
L413.6,318.6 
L416.6,319.3 
L419.6,320.1 
L422.6,320.8 
L425.6,321.5 
L428.5,322.2 
L431.5,322.9 
L434.5,323.6 
L437.5,324.2 
L440.5,324.9 
L443.5,325.6 
L446.5,326.2 
L449.4,326.9 
L452.4,327.5 
L455.4,328.2 
L458.4,328.8 
L461.4,329.4 
L464.4,330 
L467.4,330.6 
L470.4,331.2 
L473.3,331.8 
L476.3,332.3 
L479.3,332.9 
L482.3,333.4 
L485.3,334 
L488.3,334.5 
L491.3,335 
L494.3,335.5 
L497.2,336 
L500.2,336.5 
L503.2,337 
L506.2,337.4 
L509.2,337.9 
L512.2,338.4 
L515.2,338.8 
L518.1,339.2 
L521.1,339.6 
L524.1,340 
L527.1,340.4 
L530.1,340.8 
L533.1,341.2 
L536.1,341.6 
L539.1,342 
L542,342.3 
L545,342.7 
L548,343 
L551,343.3 
L554,343.6 
L557,344 
L560,344.3 
L563,344.6 
L565.9,344.8 
L568.9,345.1 
L571.9,345.4 
L574.9,345.7 
L577.9,345.9 
L580.9,346.2 
L583.9,346.4 
L586.9,346.7 
L589.8,346.9 
L592.8,347.1 
L595.8,347.3 
L598.8,347.6 
L601.8,347.8 
L604.8,348 
L607.8,348.2 
L610.7,348.4 
L613.7,348.5 
L616.7,348.7 
L619.7,348.9 
L622.7,349.1 
L625.7,349.2 
L628.7,349.4 
L631.7,349.5 
L634.6,349.7 
L637.6,349.8 
L640.6,350 
L643.6,350.1 
L646.6,350.2 
L649.6,350.4 
L652.6,350.5 
L655.6,350.6 
L658.5,350.7 
L661.5,350.8 
L664.5,351 
" fill="none"/>
</g>
</g>
	<g id="plotPoints" clip-path="url(#plot_window)">
</g>
	<g id="legendBackground" stroke="rgb(119,136,153)" fill="rgb(255,255,255)" stroke-width="1">
	<rect x="673.5" y="43" width="62.5" height="64.5"/>
</g>
	<g id="legendPoints">
</g>
	<g id="legendLines">
	<g stroke="rgb(0,0,139)" stroke-width="1">
	<line x1="688.8" y1="62.75" x2="694.8" y2="62.75"/>
</g>
	<g stroke="rgb(139,0,0)" stroke-width="1">
	<line x1="688.8" y1="75.25" x2="694.8" y2="75.25"/>
</g>
	<g stroke="rgb(0,100,0)" stroke-width="1">
	<line x1="688.8" y1="87.75" x2="694.8" y2="87.75"/>
</g>
</g>
	<g id="legendText">
	<text x="703.8" y="62.75" font-size="10" font-family="Lucida Sans Unicode" font-weight="normal" textLength="18">v=2
	</text>
	<text x="703.8" y="75.25" font-size="10" font-family="Lucida Sans Unicode" font-weight="normal" textLength="18">v=5
	</text>
	<text x="703.8" y="87.75" font-size="10" font-family="Lucida Sans Unicode" font-weight="normal" textLength="24">v=10
	</text>
</g>
	<g id="title">
	<text x="375" y="30" text-anchor="middle" font-size="20" font-family="Lucida Sans Unicode" font-weight="normal">Chi Squared Distribution PDF
	</text>
</g>
	<g id="plotXValues">
</g>
	<g id="plotYValues">
</g>
</svg>
