<?xml version="1.0" encoding="UTF-8" standalone="no"?>
<svg width="500" height ="200" version="1.1"
xmlns:svg ="http://www.w3.org/2000/svg"
xmlns:rdf="http://www.w3.org/1999/02/22-rdf-syntax-ns#"
xmlns:cc="http://web.resource.org/cc/"
xmlns:dc="http://purl.org/dc/elements/1.1/"
xmlns ="http://www.w3.org/2000/svg"
>
<!-- SVG plot written using Boost.Plot program (Creator Jacob Voytko) --> 
<!-- Use, modification and distribution of Boost.Plot subject to the --> 
<!-- Boost Software License, Version 1.0.--> 
<!-- (See accompanying file LICENSE_1_0.txt --> 
<!-- or copy at http://www.boost.org/LICENSE_1_0.txt) --> 

<!-- File default_1d_plot_2.svg --> 
<g id="imageBackground" stroke="rgb(255,255,0)" fill="rgb(255,255,255)" stroke-width="1"><rect x="0" y="0" width="500" height="200"/></g>
<g id="plotBackground" stroke="rgb(250,250,210)" fill="rgb(255,255,255)" stroke-width="1"><rect x="11" y="56" width="478" height="100"/></g>
<g id="xMinorGrid" stroke="rgb(200,220,255)" stroke-width="0.5"></g>
<g id="xMajorGrid" stroke="rgb(200,220,255)" stroke-width="1"></g>
<g id="xAxis" stroke="rgb(0,0,0)" stroke-width="1"><line x1="170" y1="56" x2="170" y2="156"/><line x1="11" y1="109" x2="489" y2="109"/></g>
<g id="xMinorTicks" stroke="rgb(0,0,0)" stroke-width="1"><path d="M183,109 L183,111 M196,109 L196,111 M209,109 L209,111 M221,109 L221,111 M247,109 L247,111 M260,109 L260,111 M272,109 L272,111 M285,109 L285,111 M311,109 L311,111 M323,109 L323,111 M336,109 L336,111 M349,109 L349,111 M374,109 L374,111 M387,109 L387,111 M400,109 L400,111 M413,109 L413,111 M438,109 L438,111 M451,109 L451,111 M464,109 L464,111 M476,109 L476,111 M158,109 L158,111 M145,109 L145,111 M132,109 L132,111 M119,109 L119,111 M93.9,109 L93.9,111 M81.1,109 L81.1,111 M68.4,109 L68.4,111 M55.6,109 L55.6,111 M30.1,109 L30.1,111 M17.4,109 L17.4,111 " fill="none"/></g>
<g id="xMajorTicks" stroke="rgb(0,0,0)" stroke-width="2"><path d="M170,109 L170,114 M234,109 L234,114 M298,109 L298,114 M362,109 L362,114 M425,109 L425,114 M489,109 L489,114 M170,109 L170,114 M107,109 L107,114 M42.9,109 L42.9,114 " fill="none"/></g>
<g id="xTicksValues">
<text x="234" y="129" text-anchor="middle" font-size="12" font-family="Verdana">2</text>
<text x="298" y="129" text-anchor="middle" font-size="12" font-family="Verdana">4</text>
<text x="362" y="129" text-anchor="middle" font-size="12" font-family="Verdana">6</text>
<text x="425" y="129" text-anchor="middle" font-size="12" font-family="Verdana">8</text>
<text x="489" y="129" text-anchor="middle" font-size="12" font-family="Verdana">10</text>
<text x="107" y="129" text-anchor="middle" font-size="12" font-family="Verdana">-2</text>
<text x="42.9" y="129" text-anchor="middle" font-size="12" font-family="Verdana">-4</text></g>
<g id="xLabel">
<text x="250" y="180" text-anchor="middle" font-size="14" font-family="Verdana">time (min)</text></g>
<g id="plotPoints"><g stroke="rgb(0,0,0)"><line x1="119" y1="111" x2="119" y2="101"/><line x1="205" y1="111" x2="205" y2="101"/><line x1="304" y1="111" x2="304" y2="101"/><line x1="275" y1="111" x2="275" y2="101"/><line x1="342" y1="111" x2="342" y2="101"/><line x1="377" y1="111" x2="377" y2="101"/></g>
</g>
<g id="title">
<text x="250" y="36" text-anchor="middle" font-size="18" font-family="Verdana">Default 1D Demo</text></g>
</svg>
