<?xml version="1.0" encoding="UTF-8" standalone="no"?>
<svg width="500" height ="200" version="1.1"
xmlns:svg ="http://www.w3.org/2000/svg"
xmlns:rdf="http://www.w3.org/1999/02/22-rdf-syntax-ns#"
xmlns:cc="http://web.resource.org/cc/"
xmlns:dc="http://purl.org/dc/elements/1.1/"
xmlns ="http://www.w3.org/2000/svg"
>
<!-- SVG plot written using Boost.Plot program (Creator Jacob Voytko) --> 
<!-- Use, modification and distribution of Boost.Plot subject to the --> 
<!-- Boost Software License, Version 1.0.--> 
<!-- (See accompanying file LICENSE_1_0.txt --> 
<!-- or copy at http://www.boost.org/LICENSE_1_0.txt) --> 

<!-- File default_1d_plot.svg --> 
<g id="imageBackground" stroke="rgb(255,255,0)" fill="rgb(255,255,255)" stroke-width="1"><rect x="0" y="0" width="500" height="200"/></g>
<g id="plotBackground" stroke="rgb(250,250,210)" fill="rgb(255,255,255)" stroke-width="1"><rect x="11" y="11" width="478" height="173"/></g>
<g id="xMinorGrid" stroke="rgb(200,220,255)" stroke-width="0.5"></g>
<g id="xMajorGrid" stroke="rgb(200,220,255)" stroke-width="1"></g>
<g id="xAxis" stroke="rgb(0,0,0)" stroke-width="1"><line x1="250" y1="11" x2="250" y2="184"/><line x1="11" y1="100" x2="489" y2="100"/></g>
<g id="xMinorTicks" stroke="rgb(0,0,0)" stroke-width="1"><path d="M260,100 L260,102 M269,100 L269,102 M279,100 L279,102 M288,100 L288,102 M307,100 L307,102 M317,100 L317,102 M326,100 L326,102 M336,100 L336,102 M355,100 L355,102 M365,100 L365,102 M374,100 L374,102 M384,100 L384,102 M403,100 L403,102 M413,100 L413,102 M422,100 L422,102 M432,100 L432,102 M451,100 L451,102 M460,100 L460,102 M470,100 L470,102 M479,100 L479,102 M240,100 L240,102 M231,100 L231,102 M221,100 L221,102 M212,100 L212,102 M193,100 L193,102 M183,100 L183,102 M174,100 L174,102 M164,100 L164,102 M145,100 L145,102 M135,100 L135,102 M126,100 L126,102 M116,100 L116,102 M97,100 L97,102 M87.5,100 L87.5,102 M77.9,100 L77.9,102 M68.4,100 L68.4,102 M49.2,100 L49.2,102 M39.7,100 L39.7,102 M30.1,100 L30.1,102 M20.6,100 L20.6,102 " fill="none"/></g>
<g id="xMajorTicks" stroke="rgb(0,0,0)" stroke-width="2"><path d="M250,100 L250,105 M298,100 L298,105 M346,100 L346,105 M393,100 L393,105 M441,100 L441,105 M489,100 L489,105 M250,100 L250,105 M202,100 L202,105 M154,100 L154,105 M107,100 L107,105 M58.8,100 L58.8,105 M11,100 L11,105 " fill="none"/></g>
<g id="xTicksValues">
<text x="298" y="121" text-anchor="middle" font-size="12" font-family="Verdana">2</text>
<text x="346" y="121" text-anchor="middle" font-size="12" font-family="Verdana">4</text>
<text x="393" y="121" text-anchor="middle" font-size="12" font-family="Verdana">6</text>
<text x="441" y="121" text-anchor="middle" font-size="12" font-family="Verdana">8</text>
<text x="489" y="121" text-anchor="middle" font-size="12" font-family="Verdana">10</text>
<text x="202" y="121" text-anchor="middle" font-size="12" font-family="Verdana">-2</text>
<text x="154" y="121" text-anchor="middle" font-size="12" font-family="Verdana">-4</text>
<text x="107" y="121" text-anchor="middle" font-size="12" font-family="Verdana">-6</text>
<text x="58.8" y="121" text-anchor="middle" font-size="12" font-family="Verdana">-8</text>
<text x="11" y="121" text-anchor="middle" font-size="12" font-family="Verdana">-10</text></g>
<g id="xLabel">
<text x="250" y="208" text-anchor="middle" font-size="14" font-family="Verdana"></text></g>
<g id="plotPoints"><g stroke="rgb(0,0,0)"><line x1="212" y1="103" x2="212" y2="92.5"/><line x1="276" y1="103" x2="276" y2="92.5"/><line x1="350" y1="103" x2="350" y2="92.5"/><line x1="329" y1="103" x2="329" y2="92.5"/><line x1="379" y1="103" x2="379" y2="92.5"/><line x1="405" y1="103" x2="405" y2="92.5"/></g>
</g>
<g id="title">
<text x="250" y="36" text-anchor="middle" font-size="18" font-family="Verdana"></text></g>
</svg>
