<?xml version="1.0" encoding="UTF-8" standalone="no"?>
<svg width="500" height ="400" version="1.1"
xmlns:svg ="http://www.w3.org/2000/svg"
xmlns:rdf="http://www.w3.org/1999/02/22-rdf-syntax-ns#"
xmlns:cc="http://web.resource.org/cc/"
xmlns:dc="http://purl.org/dc/elements/1.1/"
xmlns ="http://www.w3.org/2000/svg"
>
<!-- SVG plot written using Boost.Plot program (Creator Jacob Voytko) --> 
<!-- Use, modification and distribution of Boost.Plot subject to the --> 
<!-- Boost Software License, Version 1.0.--> 
<!-- (See accompanying file LICENSE_1_0.txt --> 
<!-- or copy at http://www.boost.org/LICENSE_1_0.txt) --> 

<clipPath id="plot_window"><rect x="57.2" y="9" width="416" height="359"/></clipPath>
<g id="imageBackground" stroke="rgb(255,255,0)" fill="rgb(255,255,255)" stroke-width="2"><rect x="0" y="0" width="500" height="400"/></g>
<g id="plotBackground" stroke="rgb(119,136,153)" fill="rgb(255,255,255)" stroke-width="2"><rect x="56.2" y="8" width="418" height="361"/></g>
<g id="yMinorGrid" stroke="rgb(200,220,255)" stroke-width="0.5"></g>
<g id="yMajorGrid" stroke="rgb(200,220,255)" stroke-width="1"></g>
<g id="xMinorGrid" stroke="rgb(200,220,255)" stroke-width="0.5"></g>
<g id="xMajorGrid" stroke="rgb(200,220,255)" stroke-width="1"></g>
<g id="yAxis" stroke="rgb(0,0,0)" stroke-width="1"><line x1="265" y1="8" x2="265" y2="374"/><line x1="56.2" y1="8" x2="56.2" y2="369"/></g>
<g id="xAxis" stroke="rgb(0,0,0)" stroke-width="1"><line x1="51.2" y1="189" x2="474" y2="189"/><line x1="51.2" y1="369" x2="474" y2="369"/></g>
<g id="yMinorTicks" stroke="rgb(0,0,0)" stroke-width="1"><path d="M54.2,181 L56.2,181 M54.2,174 L56.2,174 M54.2,167 L56.2,167 M54.2,160 L56.2,160 M54.2,145 L56.2,145 M54.2,138 L56.2,138 M54.2,131 L56.2,131 M54.2,124 L56.2,124 M54.2,109 L56.2,109 M54.2,102 L56.2,102 M54.2,94.6 L56.2,94.6 M54.2,87.4 L56.2,87.4 M54.2,73 L56.2,73 M54.2,65.8 L56.2,65.8 M54.2,58.5 L56.2,58.5 M54.2,51.3 L56.2,51.3 M54.2,36.9 L56.2,36.9 M54.2,29.7 L56.2,29.7 M54.2,22.4 L56.2,22.4 M54.2,15.2 L56.2,15.2 M54.2,189 L56.2,189 M54.2,196 L56.2,196 M54.2,203 L56.2,203 M54.2,210 L56.2,210 M54.2,217 L56.2,217 M54.2,225 L56.2,225 M54.2,232 L56.2,232 M54.2,239 L56.2,239 M54.2,246 L56.2,246 M54.2,253 L56.2,253 M54.2,261 L56.2,261 M54.2,261 L56.2,261 M54.2,268 L56.2,268 M54.2,275 L56.2,275 M54.2,282 L56.2,282 M54.2,290 L56.2,290 M54.2,297 L56.2,297 M54.2,304 L56.2,304 M54.2,311 L56.2,311 M54.2,318 L56.2,318 M54.2,326 L56.2,326 M54.2,333 L56.2,333 M54.2,340 L56.2,340 M54.2,347 L56.2,347 M54.2,355 L56.2,355 M54.2,362 L56.2,362 M54.2,369 L56.2,369 " fill="none"/></g>
<g id="xMinorTicks" stroke="rgb(0,0,0)" stroke-width="1"><path d="M273,369 L273,371 M282,369 L282,371 M290,369 L290,371 M299,369 L299,371 M315,369 L315,371 M324,369 L324,371 M332,369 L332,371 M340,369 L340,371 M357,369 L357,371 M365,369 L365,371 M374,369 L374,371 M382,369 L382,371 M399,369 L399,371 M407,369 L407,371 M416,369 L416,371 M424,369 L424,371 M441,369 L441,371 M449,369 L449,371 M457,369 L457,371 M466,369 L466,371 M257,369 L257,371 M248,369 L248,371 M240,369 L240,371 M232,369 L232,371 M215,369 L215,371 M207,369 L207,371 M198,369 L198,371 M190,369 L190,371 M173,369 L173,371 M165,369 L165,371 M156,369 L156,371 M148,369 L148,371 M131,369 L131,371 M123,369 L123,371 M115,369 L115,371 M106,369 L106,371 M89.6,369 L89.6,371 M81.3,369 L81.3,371 M72.9,369 L72.9,371 M64.6,369 L64.6,371 " fill="none"/></g>
<g id="yMajorTicks" stroke="rgb(0,0,0)" stroke-width="2"><path d="M51.2,189 L56.2,189 M51.2,152 L56.2,152 M51.2,116 L56.2,116 M51.2,80.2 L56.2,80.2 M51.2,44.1 L56.2,44.1 M51.2,8 L56.2,8 M51.2,189 L56.2,189 M51.2,225 L56.2,225 M51.2,261 L56.2,261 M51.2,297 L56.2,297 M51.2,333 L56.2,333 M51.2,369 L56.2,369 " fill="none"/></g>
<g id="xMajorTicks" stroke="rgb(0,0,0)" stroke-width="2"><path d="M265,369 L265,374 M307,369 L307,374 M349,369 L349,374 M390,369 L390,374 M432,369 L432,374 M474,369 L474,374 M265,369 L265,374 M223,369 L223,374 M182,369 L182,374 M140,369 L140,374 M98,369 L98,374 M56.2,369 L56.2,374 " fill="none"/></g>
<g id="xTicksValues">
<text x="265" y="390" text-anchor="middle" font-size="12" font-family="Verdana">0</text>
<text x="307" y="390" text-anchor="middle" font-size="12" font-family="Verdana">2</text>
<text x="349" y="390" text-anchor="middle" font-size="12" font-family="Verdana">4</text>
<text x="390" y="390" text-anchor="middle" font-size="12" font-family="Verdana">6</text>
<text x="432" y="390" text-anchor="middle" font-size="12" font-family="Verdana">8</text>
<text x="474" y="390" text-anchor="middle" font-size="12" font-family="Verdana">10</text>
<text x="265" y="390" text-anchor="middle" font-size="12" font-family="Verdana">0</text>
<text x="223" y="390" text-anchor="middle" font-size="12" font-family="Verdana">-2</text>
<text x="182" y="390" text-anchor="middle" font-size="12" font-family="Verdana">-4</text>
<text x="140" y="390" text-anchor="middle" font-size="12" font-family="Verdana">-6</text>
<text x="98" y="390" text-anchor="middle" font-size="12" font-family="Verdana">-8</text>
<text x="56.2" y="390" text-anchor="middle" font-size="12" font-family="Verdana">-10</text></g>
<g id="yTicksValues">
<text x="45.2" y="191" text-anchor="end" font-size="12" font-family="Verdana">0</text>
<text x="45.2" y="155" text-anchor="end" font-size="12" font-family="Verdana">2</text>
<text x="45.2" y="119" text-anchor="end" font-size="12" font-family="Verdana">4</text>
<text x="45.2" y="82.6" text-anchor="end" font-size="12" font-family="Verdana">6</text>
<text x="45.2" y="46.5" text-anchor="end" font-size="12" font-family="Verdana">8</text>
<text x="45.2" y="10.4" text-anchor="end" font-size="12" font-family="Verdana">10</text>
<text x="45.2" y="191" text-anchor="end" font-size="12" font-family="Verdana">0</text>
<text x="45.2" y="227" text-anchor="end" font-size="12" font-family="Verdana">-2</text>
<text x="45.2" y="263" text-anchor="end" font-size="12" font-family="Verdana">-4</text>
<text x="45.2" y="299" text-anchor="end" font-size="12" font-family="Verdana">-6</text>
<text x="45.2" y="335" text-anchor="end" font-size="12" font-family="Verdana">-8</text>
<text x="45.2" y="371" text-anchor="end" font-size="12" font-family="Verdana">-10</text></g>
<g id="yLabel">
<text x="14.9" y="189" text-anchor="middle" transform = "rotate(-90 14.9 189 )" font-size="14" font-family="Verdana"></text></g>
<g id="xLabel">
<text x="265" y="405" text-anchor="middle" font-size="14" font-family="Verdana"></text></g>
<g id="plotPoints" clip-path="url(#plot_window)"><g stroke="rgb(0,0,0)" fill="rgb(255,255,255)"><circle cx="192" cy="57.6" r="2"/><circle cx="202" cy="116" r="2"/><circle cx="213" cy="166" r="2"/><circle cx="223" cy="207" r="2"/><circle cx="234" cy="238" r="2"/><circle cx="244" cy="261" r="2"/><circle cx="255" cy="274" r="2"/><circle cx="265" cy="279" r="2"/><circle cx="276" cy="274" r="2"/><circle cx="286" cy="261" r="2"/><circle cx="296" cy="238" r="2"/><circle cx="307" cy="207" r="2"/><circle cx="317" cy="166" r="2"/><circle cx="328" cy="116" r="2"/><circle cx="338" cy="57.6" r="2"/></g>
</g>
<g id="title">
<text x="250" y="36" text-anchor="middle" font-size="18" font-family="Verdana"></text></g>
<g id="plotXValues"></g>
<g id="plotYValues"></g>
</svg>
