<?xml version="1.0" encoding="UTF-8" standalone="no"?>
<svg width="500" height ="200" version="1.1"
xmlns:svg ="http://www.w3.org/2000/svg"
xmlns:rdf="http://www.w3.org/1999/02/22-rdf-syntax-ns#"
xmlns:cc="http://web.resource.org/cc/"
xmlns:dc="http://purl.org/dc/elements/1.1/"
xmlns ="http://www.w3.org/2000/svg"
>
<!-- SVG plot written using Boost.Plot program (Creator Jacob Voytko) --> 
<!-- Use, modification and distribution of Boost.Plot subject to the --> 
<!-- Boost Software License, Version 1.0.--> 
<!-- (See accompanying file LICENSE_1_0.txt --> 
<!-- or copy at http://www.boost.org/LICENSE_1_0.txt) --> 

<!-- File demo_point_markers.svg --> 
<g id="imageBackground" stroke="rgb(255,255,0)" fill="rgb(255,255,255)" stroke-width="1"><rect x="0" y="0" width="500" height="200"/></g>
<g id="plotBackground" stroke="rgb(250,250,210)" fill="rgb(255,255,255)" stroke-width="1"><rect x="21" y="42.5" width="458" height="129"/></g>
<g id="xMinorGrid" stroke="rgb(200,220,255)" stroke-width="0.5"></g>
<g id="xMajorGrid" stroke="rgb(200,220,255)" stroke-width="1"></g>
<g id="xAxis" stroke="rgb(0,0,0)" stroke-width="1"><line x1="250" y1="42.5" x2="250" y2="172"/><line x1="21" y1="110" x2="479" y2="110"/></g>
<g id="xMinorTicks" stroke="rgb(0,0,0)" stroke-width="1"><path d="M259,110 L259,112 M268,110 L268,112 M277,110 L277,112 M287,110 L287,112 M305,110 L305,112 M314,110 L314,112 M323,110 L323,112 M332,110 L332,112 M351,110 L351,112 M360,110 L360,112 M369,110 L369,112 M378,110 L378,112 M397,110 L397,112 M406,110 L406,112 M415,110 L415,112 M424,110 L424,112 M442,110 L442,112 M452,110 L452,112 M461,110 L461,112 M470,110 L470,112 M241,110 L241,112 M232,110 L232,112 M223,110 L223,112 M213,110 L213,112 M195,110 L195,112 M186,110 L186,112 M177,110 L177,112 M168,110 L168,112 M149,110 L149,112 M140,110 L140,112 M131,110 L131,112 M122,110 L122,112 M103,110 L103,112 M94.3,110 L94.3,112 M85.1,110 L85.1,112 M76,110 L76,112 M57.6,110 L57.6,112 M48.5,110 L48.5,112 M39.3,110 L39.3,112 M30.2,110 L30.2,112 " fill="none"/></g>
<g id="xMajorTicks" stroke="rgb(0,0,0)" stroke-width="2"><path d="M250,110 L250,114 M296,110 L296,114 M342,110 L342,114 M387,110 L387,114 M433,110 L433,114 M479,110 L479,114 M250,110 L250,114 M204,110 L204,114 M158,110 L158,114 M113,110 L113,114 M66.8,110 L66.8,114 M21,110 L21,114 " fill="none"/></g>
<g id="xTicksValues">
<text x="296" y="128" text-anchor="middle" font-size="10" font-family="Verdana">2</text>
<text x="342" y="128" text-anchor="middle" font-size="10" font-family="Verdana">4</text>
<text x="387" y="128" text-anchor="middle" font-size="10" font-family="Verdana">6</text>
<text x="433" y="128" text-anchor="middle" font-size="10" font-family="Verdana">8</text>
<text x="479" y="128" text-anchor="middle" font-size="10" font-family="Verdana">10</text>
<text x="204" y="128" text-anchor="middle" font-size="10" font-family="Verdana">-2</text>
<text x="158" y="128" text-anchor="middle" font-size="10" font-family="Verdana">-4</text>
<text x="113" y="128" text-anchor="middle" font-size="10" font-family="Verdana">-6</text>
<text x="66.8" y="128" text-anchor="middle" font-size="10" font-family="Verdana">-8</text>
<text x="21" y="128" text-anchor="middle" font-size="10" font-family="Verdana">-10</text></g>
<g id="xLabel">
<text x="250" y="188" text-anchor="middle" font-size="10" font-family="Verdana">length (m)</text></g>
<g id="plotPoints"><g stroke="rgb(255,0,0)" fill="rgb(0,0,255)">
<text x="21" y="107" text-anchor="middle" font-size="10" font-family="Lucida Sans Unicode">&#x2666;</text>
<text x="43.9" y="107" text-anchor="middle" font-size="10" font-family="Lucida Sans Unicode">&#x2666;</text>
<text x="227" y="107" text-anchor="middle" font-size="10" font-family="Lucida Sans Unicode">&#x2666;</text>
<text x="278" y="107" text-anchor="middle" font-size="10" font-family="Lucida Sans Unicode">&#x2666;</text>
<text x="296" y="107" text-anchor="middle" font-size="10" font-family="Lucida Sans Unicode">&#x2666;</text>
<text x="433" y="107" text-anchor="middle" font-size="10" font-family="Lucida Sans Unicode">&#x2666;</text></g>
<g stroke="rgb(0,0,255)" fill="rgb(255,0,0)">
<text x="113" y="107" text-anchor="middle" font-size="10" font-family="Lucida Sans Unicode">&#x25CB;</text>
<text x="158" y="107" text-anchor="middle" font-size="10" font-family="Lucida Sans Unicode">&#x25CB;</text>
<text x="342" y="107" text-anchor="middle" font-size="10" font-family="Lucida Sans Unicode">&#x25CB;</text>
<text x="387" y="107" text-anchor="middle" font-size="10" font-family="Lucida Sans Unicode">&#x25CB;</text></g>
</g>
<g id="limitPoints" stroke="rgb(0,128,0)" fill="rgb(255,255,255)">
<text x="16" y="113" text-anchor="middle" font-size="10" font-family="Lucida Sans Unicode">&#x25C3;</text>
<text x="484" y="113" text-anchor="middle" font-size="10" font-family="Lucida Sans Unicode">&#x25B9;</text>
<text x="250" y="116" text-anchor="middle" font-size="20" font-family="Lucida Sans Unicode">&#x25BD;</text></g>
<g id="title">
<text x="250" y="27" text-anchor="middle" font-size="18" font-family="Verdana">Demo point markers Demo</text></g>
<g id="plotXValues" fill="rgb(255,0,0)"><g>
<text x="25" y="98" transform = "rotate(-60 25 98 )" font-size="14" font-family="Times New Roman">-10</text></g>
<g>
<text x="47.9" y="98" transform = "rotate(-60 47.9 98 )" font-size="14" font-family="Times New Roman">-9</text></g>
<g>
<text x="231" y="98" transform = "rotate(-60 231 98 )" font-size="14" font-family="Times New Roman">-1</text></g>
<g>
<text x="282" y="98" transform = "rotate(-60 282 98 )" font-size="14" font-family="Times New Roman">1.23</text></g>
<g>
<text x="300" y="98" transform = "rotate(-60 300 98 )" font-size="14" font-family="Times New Roman">2</text></g>
<g>
<text x="437" y="98" transform = "rotate(-60 437 98 )" font-size="14" font-family="Times New Roman">8</text></g>
<g>
<text x="117" y="98" transform = "rotate(-60 117 98 )" font-size="14" font-family="Times New Roman">-6</text></g>
<g>
<text x="162" y="98" transform = "rotate(-60 162 98 )" font-size="14" font-family="Times New Roman">-4</text></g>
<g>
<text x="346" y="98" transform = "rotate(-60 346 98 )" font-size="14" font-family="Times New Roman">4</text></g>
<g>
<text x="391" y="98" transform = "rotate(-60 391 98 )" font-size="14" font-family="Times New Roman">6</text></g>
</g>
</svg>
