<?xml version="1.0" encoding="UTF-8" standalone="no"?>
<svg width="500" height ="400" version="1.1"
xmlns:svg ="http://www.w3.org/2000/svg"
xmlns:rdf="http://www.w3.org/1999/02/22-rdf-syntax-ns#"
xmlns:cc="http://web.resource.org/cc/"
xmlns:dc="http://purl.org/dc/elements/1.1/"
xmlns ="http://www.w3.org/2000/svg"
>
<!-- SVG plot written using Boost.Plot program (Creator Jacob Voytko) --> 
<!-- Use, modification and distribution of Boost.Plot subject to the --> 
<!-- Boost Software License, Version 1.0.--> 
<!-- (See accompanying file LICENSE_1_0.txt --> 
<!-- or copy at http://www.boost.org/LICENSE_1_0.txt) --> 

<clipPath id="plot_window"><rect x="33.7" y="48.5" width="347" height="325"/></clipPath>
<clipPath id="plot_window"><rect x="33.7" y="48.5" width="347" height="325"/></clipPath>
<g id="imageBackground" stroke="rgb(0,0,0)" fill="rgb(255,255,255)" stroke-width="2"><rect x="0" y="0" width="500" height="400"/></g>
<g id="plotBackground" stroke="rgb(119,136,153)" fill="rgb(255,255,255)" stroke-width="2"><rect x="32.7" y="47.5" width="349" height="327"/></g>
<g id="yMinorGrid" stroke="rgb(200,220,255)" stroke-width="0.5"></g>
<g id="yMajorGrid" stroke="rgb(200,220,255)" stroke-width="1"></g>
<g id="xMinorGrid" stroke="rgb(200,220,255)" stroke-width="0.5"></g>
<g id="xMajorGrid" stroke="rgb(200,220,255)" stroke-width="1"></g>
<g id="yAxis" stroke="rgb(0,0,0)" stroke-width="1"><line x1="61.8" y1="47.5" x2="61.8" y2="380"/><line x1="32.7" y1="47.5" x2="32.7" y2="375"/></g>
<g id="xAxis" stroke="rgb(0,0,0)" stroke-width="1"><line x1="27.7" y1="211" x2="382" y2="211"/><line x1="27.7" y1="375" x2="382" y2="375"/></g>
<g id="yMinorTicks" stroke="rgb(0,0,0)" stroke-width="1"><path d="M30.7,204 L32.7,204 M30.7,198 L32.7,198 M30.7,191 L32.7,191 M30.7,185 L32.7,185 M30.7,172 L32.7,172 M30.7,165 L32.7,165 M30.7,159 L32.7,159 M30.7,152 L32.7,152 M30.7,139 L32.7,139 M30.7,133 L32.7,133 M30.7,126 L32.7,126 M30.7,119 L32.7,119 M30.7,106 L32.7,106 M30.7,99.8 L32.7,99.8 M30.7,93.3 L32.7,93.3 M30.7,86.7 L32.7,86.7 M30.7,73.7 L32.7,73.7 M30.7,67.1 L32.7,67.1 M30.7,60.6 L32.7,60.6 M30.7,54 L32.7,54 M30.7,211 L32.7,211 M30.7,218 L32.7,218 M30.7,224 L32.7,224 M30.7,231 L32.7,231 M30.7,237 L32.7,237 M30.7,244 L32.7,244 M30.7,250 L32.7,250 M30.7,257 L32.7,257 M30.7,263 L32.7,263 M30.7,270 L32.7,270 M30.7,276 L32.7,276 M30.7,276 L32.7,276 M30.7,283 L32.7,283 M30.7,289 L32.7,289 M30.7,296 L32.7,296 M30.7,303 L32.7,303 M30.7,309 L32.7,309 M30.7,316 L32.7,316 M30.7,322 L32.7,322 M30.7,329 L32.7,329 M30.7,335 L32.7,335 M30.7,342 L32.7,342 M30.7,348 L32.7,348 M30.7,355 L32.7,355 M30.7,361 L32.7,361 M30.7,368 L32.7,368 M30.7,375 L32.7,375 " fill="none"/></g>
<g id="xMinorTicks" stroke="rgb(0,0,0)" stroke-width="1"><path d="M73.4,375 L73.4,377 M85.1,375 L85.1,377 M96.7,375 L96.7,377 M108,375 L108,377 M132,375 L132,377 M143,375 L143,377 M155,375 L155,377 M167,375 L167,377 M190,375 L190,377 M201,375 L201,377 M213,375 L213,377 M225,375 L225,377 M248,375 L248,377 M260,375 L260,377 M271,375 L271,377 M283,375 L283,377 M306,375 L306,377 M318,375 L318,377 M329,375 L329,377 M341,375 L341,377 M364,375 L364,377 M376,375 L376,377 M50.2,375 L50.2,377 M38.5,375 L38.5,377 " fill="none"/></g>
<g id="yMajorTicks" stroke="rgb(0,0,0)" stroke-width="2"><path d="M27.7,211 L32.7,211 M27.7,178 L32.7,178 M27.7,146 L32.7,146 M27.7,113 L32.7,113 M27.7,80.2 L32.7,80.2 M27.7,47.5 L32.7,47.5 M27.7,211 L32.7,211 M27.7,244 L32.7,244 M27.7,276 L32.7,276 M27.7,309 L32.7,309 M27.7,342 L32.7,342 M27.7,375 L32.7,375 " fill="none"/></g>
<g id="xMajorTicks" stroke="rgb(0,0,0)" stroke-width="2"><path d="M61.8,375 L61.8,380 M120,375 L120,380 M178,375 L178,380 M236,375 L236,380 M295,375 L295,380 M353,375 L353,380 M61.8,375 L61.8,380 " fill="none"/></g>
<g id="xTicksValues">
<text x="61.8" y="395" text-anchor="middle" font-size="12" font-family="Lucida Sans Unicode">0</text>
<text x="120" y="395" text-anchor="middle" font-size="12" font-family="Lucida Sans Unicode">2</text>
<text x="178" y="395" text-anchor="middle" font-size="12" font-family="Lucida Sans Unicode">4</text>
<text x="236" y="395" text-anchor="middle" font-size="12" font-family="Lucida Sans Unicode">6</text>
<text x="295" y="395" text-anchor="middle" font-size="12" font-family="Lucida Sans Unicode">8</text>
<text x="353" y="395" text-anchor="middle" font-size="12" font-family="Lucida Sans Unicode">10</text>
<text x="61.8" y="395" text-anchor="middle" font-size="12" font-family="Lucida Sans Unicode">0</text></g>
<g id="yTicksValues">
<text x="21.7" y="213" text-anchor="end" font-size="12" font-family="Lucida Sans Unicode">0</text>
<text x="21.7" y="181" text-anchor="end" font-size="12" font-family="Lucida Sans Unicode">2</text>
<text x="21.7" y="148" text-anchor="end" font-size="12" font-family="Lucida Sans Unicode">4</text>
<text x="21.7" y="115" text-anchor="end" font-size="12" font-family="Lucida Sans Unicode">6</text>
<text x="21.7" y="82.6" text-anchor="end" font-size="12" font-family="Lucida Sans Unicode">8</text>
<text x="21.7" y="49.9" text-anchor="end" font-size="12" font-family="Lucida Sans Unicode">10</text>
<text x="21.7" y="213" text-anchor="end" font-size="12" font-family="Lucida Sans Unicode">0</text>
<text x="21.7" y="246" text-anchor="end" font-size="12" font-family="Lucida Sans Unicode">-2</text>
<text x="21.7" y="279" text-anchor="end" font-size="12" font-family="Lucida Sans Unicode">-4</text>
<text x="21.7" y="312" text-anchor="end" font-size="12" font-family="Lucida Sans Unicode">-6</text>
<text x="21.7" y="344" text-anchor="end" font-size="12" font-family="Lucida Sans Unicode">-8</text>
<text x="21.7" y="377" text-anchor="end" font-size="12" font-family="Lucida Sans Unicode">-10</text>
<text x="21.7" y="213" text-anchor="end" font-size="12" font-family="Lucida Sans Unicode">0</text>
<text x="21.7" y="181" text-anchor="end" font-size="12" font-family="Lucida Sans Unicode">2</text>
<text x="21.7" y="148" text-anchor="end" font-size="12" font-family="Lucida Sans Unicode">4</text>
<text x="21.7" y="115" text-anchor="end" font-size="12" font-family="Lucida Sans Unicode">6</text>
<text x="21.7" y="82.6" text-anchor="end" font-size="12" font-family="Lucida Sans Unicode">8</text>
<text x="21.7" y="49.9" text-anchor="end" font-size="12" font-family="Lucida Sans Unicode">10</text>
<text x="21.7" y="213" text-anchor="end" font-size="12" font-family="Lucida Sans Unicode">0</text>
<text x="21.7" y="246" text-anchor="end" font-size="12" font-family="Lucida Sans Unicode">-2</text>
<text x="21.7" y="279" text-anchor="end" font-size="12" font-family="Lucida Sans Unicode">-4</text>
<text x="21.7" y="312" text-anchor="end" font-size="12" font-family="Lucida Sans Unicode">-6</text>
<text x="21.7" y="344" text-anchor="end" font-size="12" font-family="Lucida Sans Unicode">-8</text>
<text x="21.7" y="377" text-anchor="end" font-size="12" font-family="Lucida Sans Unicode">-10</text></g>
<g id="yLabel">
<text x="-8.6" y="211" text-anchor="middle" transform = "rotate(-90 -8.6 211 )" font-size="14" font-family="Lucida Sans Unicode"></text></g>
<g id="xLabel">
<text x="207" y="410" text-anchor="middle" font-size="14" font-family="Lucida Sans Unicode"></text></g>
<g id="plotPoints" clip-path="url(#plot_window)"><g stroke="rgb(0,0,0)" stroke-width="2"><path d="M90.9,159 L90.9,211 M120,123 L120,211 M222,123 L222,211 M274,62.2 L274,211 M295,91.6 L295,211 M332,49.1 L332,211 " stroke-width="5" fill="none"/><path d="M85.9,159 L95.9,159 L95.9,211 L85.9,211 ZM115,123 L125,123 L125,211 L115,211 ZM217,123 L227,123 L227,211 L217,211 ZM269,62.2 L279,62.2 L279,211 L269,211 ZM290,91.6 L300,91.6 L300,211 L290,211 ZM327,49.1 L337,49.1 L337,211 L327,211 Z" fill="none"/></g>
</g>
<g id="legendBackground" stroke="rgb(255,255,0)" fill="rgb(255,255,255)" stroke-width="1"><rect x="396" y="47.5" width="102" height="70"/><rect x="396" y="47.5" width="102" height="70"/></g>
<g id="legendPoints"></g>
<g id="legendText">
<text x="410" y="75.5" font-size="14" font-family="Lucida Sans Unicode">Series 1</text>
<text x="410" y="104" font-size="14" font-family="Lucida Sans Unicode">Series 1</text></g>
<g id="title">
<text x="250" y="36" text-anchor="middle" font-size="18" font-family="Lucida Sans Unicode"></text></g>
<g id="plotXValues"></g>
<g id="plotYValues"></g>
</svg>
