<?xml version="1.0" encoding="UTF-8" standalone="no"?>
<svg width="500" height ="200" version="1.1"
xmlns:svg ="http://www.w3.org/2000/svg"
xmlns:rdf="http://www.w3.org/1999/02/22-rdf-syntax-ns#"
xmlns:cc="http://web.resource.org/cc/"
xmlns:dc="http://purl.org/dc/elements/1.1/"
xmlns ="http://www.w3.org/2000/svg"
>
<!-- SVG plot written using Boost.Plot program (Creator Jacob Voytko) --> 
<!-- Use, modification and distribution of Boost.Plot subject to the --> 
<!-- Boost Software License, Version 1.0.--> 
<!-- (See accompanying file LICENSE_1_0.txt --> 
<!-- or copy at http://www.boost.org/LICENSE_1_0.txt) --> 

<!-- File ./demo_1d_vector.svg --> 
<g id="imageBackground" stroke="rgb(0,0,255)" fill="rgb(255,255,255)" stroke-width="1"><rect x="0" y="0" width="500" height="200"/></g>
<g id="plotBackground" stroke="rgb(250,250,210)" fill="rgb(255,255,255)" stroke-width="1"><rect x="21" y="42.5" width="399" height="142"/></g>
<g id="xMinorGrid" stroke="rgb(200,220,255)" stroke-width="0.5"></g>
<g id="xMajorGrid" stroke="rgb(200,220,255)" stroke-width="1"></g>
<g id="xAxis" stroke="rgb(0,0,0)" stroke-width="1"><line x1="54.2" y1="42.5" x2="54.2" y2="184"/><line x1="21" y1="116" x2="420" y2="116"/></g>
<g id="xMinorTicks" stroke="rgb(0,0,0)" stroke-width="1"><path d="M67.5,116 L67.5,118 M80.8,116 L80.8,118 M94.2,116 L94.2,118 M107,116 L107,118 M134,116 L134,118 M147,116 L147,118 M161,116 L161,118 M174,116 L174,118 M201,116 L201,118 M214,116 L214,118 M227,116 L227,118 M240,116 L240,118 M267,116 L267,118 M280,116 L280,118 M294,116 L294,118 M307,116 L307,118 M334,116 L334,118 M347,116 L347,118 M360,116 L360,118 M373,116 L373,118 M400,116 L400,118 M413,116 L413,118 M41,116 L41,118 M27.6,116 L27.6,118 " fill="none"/></g>
<g id="xMajorTicks" stroke="rgb(0,0,0)" stroke-width="2"><path d="M54.2,116 L54.2,121 M121,116 L121,121 M187,116 L187,121 M254,116 L254,121 M320,116 L320,121 M387,116 L387,121 M54.2,116 L54.2,121 " fill="none"/></g>
<g id="xTicksValues">
<text x="121" y="134" text-anchor="middle" font-size="10" font-family="Verdana">2</text>
<text x="187" y="134" text-anchor="middle" font-size="10" font-family="Verdana">4</text>
<text x="254" y="134" text-anchor="middle" font-size="10" font-family="Verdana">6</text>
<text x="320" y="134" text-anchor="middle" font-size="10" font-family="Verdana">8</text>
<text x="387" y="134" text-anchor="middle" font-size="10" font-family="Verdana">10</text></g>
<g id="xLabel">
<text x="220" y="201" text-anchor="middle" font-size="10" font-family="Verdana"></text></g>
<g id="plotPoints"><g stroke="rgb(255,0,0)" fill="rgb(0,128,0)">
<text x="157" y="113" text-anchor="middle" font-size="10" font-family="Lucida Sans Unicode">&#x25CB;</text>
<text x="194" y="113" text-anchor="middle" font-size="10" font-family="Lucida Sans Unicode">&#x25CB;</text></g>
<g stroke="rgb(0,0,255)"><line x1="124" y1="115" x2="124" y2="105"/><line x1="314" y1="115" x2="314" y2="105"/></g>
</g>
<g id="legendBackground" stroke="rgb(255,255,0)" fill="rgb(255,255,255)" stroke-width="1"><rect x="426" y="42.5" width="64.5" height="47"/></g>
<g id="legendPoints"><g stroke="rgb(255,0,0)" fill="rgb(0,128,0)">
<text x="438" y="62" text-anchor="middle" font-size="10" font-family="Lucida Sans Unicode">&#x25CB;</text></g>
<g stroke="rgb(0,0,255)"><line x1="438" y1="77.5" x2="438" y2="67.5"/></g>
</g>
<g id="legendText">
<text x="446" y="61" font-size="10" font-family="Verdana">Dan</text>
<text x="446" y="73.5" font-size="10" font-family="Verdana">Elaine</text></g>
<g id="title">
<text x="250" y="27" text-anchor="middle" font-size="18" font-family="Verdana">Race Times</text></g>
</svg>
