<?xml version="1.0" encoding="UTF-8" standalone="no"?>
<svg width="500" height ="200" version="1.1"
xmlns:svg ="http://www.w3.org/2000/svg"
xmlns:rdf="http://www.w3.org/1999/02/22-rdf-syntax-ns#"
xmlns:cc="http://web.resource.org/cc/"
xmlns:dc="http://purl.org/dc/elements/1.1/"
xmlns ="http://www.w3.org/2000/svg"
>
<!-- SVG plot written using Boost.Plot program (Creator Jacob Voytko) --> 
<!-- Use, modification and distribution of Boost.Plot subject to the --> 
<!-- Boost Software License, Version 1.0.--> 
<!-- (See accompanying file LICENSE_1_0.txt --> 
<!-- or copy at http://www.boost.org/LICENSE_1_0.txt) --> 

<!-- File ./demo_1d_x_external.svg --> 
<g id="imageBackground" stroke="rgb(0,0,0)" fill="rgb(255,255,255)" stroke-width="1">
	<rect x="0" y="0" width="500" height="200"/>
</g>
<g id="plotBackground" stroke="rgb(250,250,210)" fill="rgb(255,255,255)" stroke-width="1">
	<rect x="21" y="42.5" width="393" height="142"/>
</g>
<g id="xMinorGrid" stroke="rgb(211,211,211)" stroke-width="0.5">
<path d="M71,43.5 L71,183 M85.3,43.5 L85.3,183 M99.6,43.5 L99.6,183 M114,43.5 L114,183 M142,43.5 L142,183 M157,43.5 L157,183 M171,43.5 L171,183 M185,43.5 L185,183 M214,43.5 L214,183 M228,43.5 L228,183 M242,43.5 L242,183 M257,43.5 L257,183 M285,43.5 L285,183 M300,43.5 L300,183 M314,43.5 L314,183 M328,43.5 L328,183 M357,43.5 L357,183 M371,43.5 L371,183 M385,43.5 L385,183 M400,43.5 L400,183 M42.4,43.5 L42.4,183 M28.1,43.5 L28.1,183 " fill="none"/></g>
<g id="xMajorGrid" stroke="rgb(255,192,203)" stroke-width="1">
<path d="M56.7,42.5 L56.7,184 M128,42.5 L128,184 M200,42.5 L200,184 M271,42.5 L271,184 M342,42.5 L342,184 M414,42.5 L414,184 M56.7,42.5 L56.7,184 " fill="none"/></g>
<g id="xAxis" stroke="rgb(0,0,0)" stroke-width="1">
<line x1="56.7" y1="42.5" x2="56.7" y2="184"/><line x1="21" y1="116" x2="414" y2="116"/><line x1="21" y1="42.5" x2="414" y2="42.5"/></g>
<g id="xMinorTicks" stroke="rgb(0,0,0)" stroke-width="1">
<path d="M71,42.5 L71,44.5 M85.3,42.5 L85.3,44.5 M99.6,42.5 L99.6,44.5 M114,42.5 L114,44.5 M142,42.5 L142,44.5 M157,42.5 L157,44.5 M171,42.5 L171,44.5 M185,42.5 L185,44.5 M214,42.5 L214,44.5 M228,42.5 L228,44.5 M242,42.5 L242,44.5 M257,42.5 L257,44.5 M285,42.5 L285,44.5 M300,42.5 L300,44.5 M314,42.5 L314,44.5 M328,42.5 L328,44.5 M357,42.5 L357,44.5 M371,42.5 L371,44.5 M385,42.5 L385,44.5 M400,42.5 L400,44.5 M42.4,42.5 L42.4,44.5 M28.1,42.5 L28.1,44.5 " fill="none"/></g>
<g id="xMajorTicks" stroke="rgb(0,0,0)" stroke-width="2">
<path d="M56.7,42.5 L56.7,47.5 M128,42.5 L128,47.5 M200,42.5 L200,47.5 M271,42.5 L271,47.5 M342,42.5 L342,47.5 M414,42.5 L414,47.5 M56.7,42.5 L56.7,47.5 " fill="none"/></g>
<g id="xTicksValues">
	<text x="56.7" y="60.5" text-anchor="middle" font-size="10" font-family="Verdana">0</text>
	<text x="128" y="60.5" text-anchor="middle" font-size="10" font-family="Verdana">2</text>
	<text x="200" y="60.5" text-anchor="middle" font-size="10" font-family="Verdana">4</text>
	<text x="271" y="60.5" text-anchor="middle" font-size="10" font-family="Verdana">6</text>
	<text x="342" y="60.5" text-anchor="middle" font-size="10" font-family="Verdana">8</text>
	<text x="414" y="60.5" text-anchor="middle" font-size="10" font-family="Verdana">10</text>
	<text x="56.7" y="60.5" text-anchor="middle" font-size="10" font-family="Verdana">0</text>
</g>
<g id="xLabel">
	<text x="217" y="201" text-anchor="middle" font-size="10" font-family="Verdana"></text>
</g>
<g id="plotPoints">
<g stroke="rgb(0,0,255)">
<line x1="167" y1="115" x2="167" y2="105"/><line x1="207" y1="115" x2="207" y2="105"/></g>
<g stroke="rgb(255,165,0)">
<line x1="132" y1="115" x2="132" y2="105"/><line x1="335" y1="115" x2="335" y2="105"/></g>
</g>
<g id="legendBackground" stroke="rgb(255,255,0)" fill="rgb(255,255,255)" stroke-width="1">
	<rect x="420" y="42.5" width="71.2" height="47"/>
</g>
<g id="legendPoints">
<g stroke="rgb(0,0,255)">
<line x1="433" y1="65" x2="433" y2="55"/></g>
<g stroke="rgb(255,165,0)">
<line x1="433" y1="77.5" x2="433" y2="67.5"/></g>
</g>
<g id="legendText">
	<text x="440" y="61" font-size="10" font-family="Verdana" textLength="19.2">Dan</text>
	<text x="440" y="73.5" font-size="10" font-family="Verdana" textLength="37.2">Elaine</text>
</g>
<g id="title">
	<text x="250" y="27" text-anchor="middle" font-size="18" font-family="Verdana">Race Times</text>
</g>
</svg>
