<?xml version="1.0" encoding="UTF-8" standalone="no"?>
<svg width="500" height ="400" version="1.1"
xmlns:svg ="http://www.w3.org/2000/svg"
xmlns:rdf="http://www.w3.org/1999/02/22-rdf-syntax-ns#"
xmlns:cc="http://web.resource.org/cc/"
xmlns:dc="http://purl.org/dc/elements/1.1/"
xmlns ="http://www.w3.org/2000/svg"
>
<!-- SVG plot written using Boost.Plot program (Creator Jacob Voytko) --> 
<!-- Use, modification and distribution of Boost.Plot subject to the --> 
<!-- Boost Software License, Version 1.0.--> 
<!-- (See accompanying file LICENSE_1_0.txt --> 
<!-- or copy at http://www.boost.org/LICENSE_1_0.txt) --> 

<clipPath id="plot_window"><rect x="69.3" y="9" width="404" height="344"/></clipPath>
<g id="imageBackground" stroke="rgb(255,255,0)" fill="rgb(255,255,255)" stroke-width="2"><rect x="0" y="0" width="500" height="400"/></g>
<g id="plotBackground" stroke="rgb(119,136,153)" fill="rgb(255,255,255)" stroke-width="2"><rect x="68.3" y="8" width="406" height="346"/></g>
<g id="yMinorGrid" stroke="rgb(200,220,255)" stroke-width="0.5"></g>
<g id="yMajorGrid" stroke="rgb(200,220,255)" stroke-width="1"></g>
<g id="xMinorGrid" stroke="rgb(200,220,255)" stroke-width="0.5"></g>
<g id="xMajorGrid" stroke="rgb(200,220,255)" stroke-width="1"></g>
<g id="yAxis" stroke="rgb(0,0,0)" stroke-width="1"><line x1="162" y1="8" x2="162" y2="359"/><line x1="68.3" y1="8" x2="68.3" y2="354"/></g>
<g id="xAxis" stroke="rgb(0,0,0)" stroke-width="1"><line x1="63.3" y1="181" x2="474" y2="181"/><line x1="63.3" y1="354" x2="474" y2="354"/></g>
<g id="yMinorTicks" stroke="rgb(0,0,0)" stroke-width="1"><path d="M66.3,174 L68.3,174 M66.3,167 L68.3,167 M66.3,160 L68.3,160 M66.3,153 L68.3,153 M66.3,139 L68.3,139 M66.3,133 L68.3,133 M66.3,126 L68.3,126 M66.3,119 L68.3,119 M66.3,105 L68.3,105 M66.3,98 L68.3,98 M66.3,91 L68.3,91 M66.3,84.1 L68.3,84.1 M66.3,70.3 L68.3,70.3 M66.3,63.4 L68.3,63.4 M66.3,56.4 L68.3,56.4 M66.3,49.5 L68.3,49.5 M66.3,35.7 L68.3,35.7 M66.3,28.8 L68.3,28.8 M66.3,21.8 L68.3,21.8 M66.3,14.9 L68.3,14.9 M66.3,181 L68.3,181 M66.3,188 L68.3,188 M66.3,195 L68.3,195 M66.3,202 L68.3,202 M66.3,209 L68.3,209 M66.3,216 L68.3,216 M66.3,223 L68.3,223 M66.3,229 L68.3,229 M66.3,236 L68.3,236 M66.3,243 L68.3,243 M66.3,250 L68.3,250 M66.3,250 L68.3,250 M66.3,257 L68.3,257 M66.3,264 L68.3,264 M66.3,271 L68.3,271 M66.3,278 L68.3,278 M66.3,285 L68.3,285 M66.3,292 L68.3,292 M66.3,299 L68.3,299 M66.3,306 L68.3,306 M66.3,312 L68.3,312 M66.3,319 L68.3,319 M66.3,326 L68.3,326 M66.3,333 L68.3,333 M66.3,340 L68.3,340 M66.3,347 L68.3,347 M66.3,354 L68.3,354 " fill="none"/></g>
<g id="xMinorTicks" stroke="rgb(0,0,0)" stroke-width="1"><path d="M174,354 L174,356 M187,354 L187,356 M199,354 L199,356 M212,354 L212,356 M237,354 L237,356 M249,354 L249,356 M262,354 L262,356 M274,354 L274,356 M299,354 L299,356 M312,354 L312,356 M324,354 L324,356 M337,354 L337,356 M362,354 L362,356 M374,354 L374,356 M387,354 L387,356 M399,354 L399,356 M424,354 L424,356 M437,354 L437,356 M449,354 L449,356 M462,354 L462,356 M149,354 L149,356 M137,354 L137,356 M124,354 L124,356 M112,354 L112,356 M87,354 L87,356 M74.5,354 L74.5,356 " fill="none"/></g>
<g id="yMajorTicks" stroke="rgb(0,0,0)" stroke-width="2"><path d="M63.3,181 L68.3,181 M63.3,146 L68.3,146 M63.3,112 L68.3,112 M63.3,77.2 L68.3,77.2 M63.3,42.6 L68.3,42.6 M63.3,8 L68.3,8 M63.3,181 L68.3,181 M63.3,216 L68.3,216 M63.3,250 L68.3,250 M63.3,285 L68.3,285 M63.3,319 L68.3,319 M63.3,354 L68.3,354 " fill="none"/></g>
<g id="xMajorTicks" stroke="rgb(0,0,0)" stroke-width="2"><path d="M162,354 L162,359 M224,354 L224,359 M287,354 L287,359 M349,354 L349,359 M412,354 L412,359 M474,354 L474,359 M162,354 L162,359 M99.5,354 L99.5,359 " fill="none"/></g>
<g id="xTicksValues">
<text x="162" y="375" text-anchor="middle" font-size="12" font-family="Lucida Sans Unicode">0</text>
<text x="224" y="375" text-anchor="middle" font-size="12" font-family="Lucida Sans Unicode">2</text>
<text x="287" y="375" text-anchor="middle" font-size="12" font-family="Lucida Sans Unicode">4</text>
<text x="349" y="375" text-anchor="middle" font-size="12" font-family="Lucida Sans Unicode">6</text>
<text x="412" y="375" text-anchor="middle" font-size="12" font-family="Lucida Sans Unicode">8</text>
<text x="474" y="375" text-anchor="middle" font-size="12" font-family="Lucida Sans Unicode">10</text>
<text x="162" y="375" text-anchor="middle" font-size="12" font-family="Lucida Sans Unicode">0</text>
<text x="99.5" y="375" text-anchor="middle" font-size="12" font-family="Lucida Sans Unicode">-2</text></g>
<g id="yTicksValues">
<text x="57.3" y="183" text-anchor="end" font-size="12" font-family="Lucida Sans Unicode">0</text>
<text x="57.3" y="149" text-anchor="end" font-size="12" font-family="Lucida Sans Unicode">2</text>
<text x="57.3" y="114" text-anchor="end" font-size="12" font-family="Lucida Sans Unicode">4</text>
<text x="57.3" y="79.6" text-anchor="end" font-size="12" font-family="Lucida Sans Unicode">6</text>
<text x="57.3" y="45" text-anchor="end" font-size="12" font-family="Lucida Sans Unicode">8</text>
<text x="57.3" y="10.4" text-anchor="end" font-size="12" font-family="Lucida Sans Unicode">10</text>
<text x="57.3" y="183" text-anchor="end" font-size="12" font-family="Lucida Sans Unicode">0</text>
<text x="57.3" y="218" text-anchor="end" font-size="12" font-family="Lucida Sans Unicode">-2</text>
<text x="57.3" y="253" text-anchor="end" font-size="12" font-family="Lucida Sans Unicode">-4</text>
<text x="57.3" y="287" text-anchor="end" font-size="12" font-family="Lucida Sans Unicode">-6</text>
<text x="57.3" y="322" text-anchor="end" font-size="12" font-family="Lucida Sans Unicode">-8</text>
<text x="57.3" y="356" text-anchor="end" font-size="12" font-family="Lucida Sans Unicode">-10</text></g>
<g id="yLabel">
<text x="32.4" y="181" text-anchor="middle" transform = "rotate(-90 32.4 181 )" font-size="14" font-family="Lucida Sans Unicode">distance (km)</text></g>
<g id="xLabel">
<text x="271" y="387" text-anchor="middle" font-size="12" font-family="Lucida Sans Unicode">times (sec)</text></g>
<g id="plotUnc3" stroke="none" fill="rgb(230,240,255)" stroke-width="1"><ellipse cx="92.2" cy="333" rx="3" ry="3"/><ellipse cx="200" cy="121" rx="3" ry="3"/><ellipse cx="290" cy="127" rx="3" ry="3"/></g>
<g id="plotUnc2" stroke="none" fill="rgb(200,230,255)" stroke-width="1"><ellipse cx="92.2" cy="333" rx="2" ry="2"/><ellipse cx="200" cy="121" rx="2" ry="2"/><ellipse cx="290" cy="127" rx="2" ry="2"/></g>
<g id="plotUnc1" stroke="none" fill="rgb(173,216,230)" stroke-width="1"><ellipse cx="92.2" cy="333" rx="1" ry="1"/><ellipse cx="200" cy="121" rx="1" ry="1"/><ellipse cx="290" cy="127" rx="1" ry="1"/></g>
<g id="plotPoints" clip-path="url(#plot_window)"><g stroke="rgb(0,0,0)" fill="rgb(255,255,255)"><circle cx="92.2" cy="333" r="1"/><circle cx="200" cy="121" r="1"/><circle cx="290" cy="127" r="1"/></g>
</g>
<g id="title">
<text x="250" y="27" text-anchor="middle" font-size="18" font-family="Lucida Sans Unicode" font-weight="normal"></text></g>
<g id="plotXValues"><g>
<text x="97.2" y="324" transform = "rotate(-30 97.2 324 )" font-size="16" font-family="Times New Roman">-2.23<tspan fill="rgb(128,0,128)" font-size="14" font-family="Times New Roman"> &lt;-2.234, -2.234&gt;</tspan><tspan fill="rgb(255,0,255)" font-size="14" font-family="Times New Roman">&#x00A0;(0)</tspan><tspan fill="rgb(0,0,0)" font-size="16" font-family="Times New Roman"></tspan></text></g>
<g>
<text x="205" y="113" transform = "rotate(-30 205 113 )" font-size="16" font-family="Times New Roman">1.23<tspan fill="rgb(128,0,128)" font-size="14" font-family="Times New Roman"> &lt;1.23, 1.23&gt;</tspan><tspan fill="rgb(255,0,255)" font-size="14" font-family="Times New Roman">&#x00A0;(0)</tspan><tspan fill="rgb(0,0,0)" font-size="16" font-family="Times New Roman"></tspan></text></g>
<g>
<text x="295" y="119" transform = "rotate(-30 295 119 )" font-size="16" font-family="Times New Roman">4.1<tspan fill="rgb(128,0,128)" font-size="14" font-family="Times New Roman"> &lt;4.1, 4.1&gt;</tspan><tspan fill="rgb(255,0,255)" font-size="14" font-family="Times New Roman">&#x00A0;(0)</tspan><tspan fill="rgb(0,0,0)" font-size="16" font-family="Times New Roman"></tspan></text></g>
</g>
<g id="plotYValues"><g>
<text x="97.2" y="339" transform = "rotate(-30 97.2 339 )" font-size="12" font-family="Arial">&#x00A0;&#x00A0;&#x00A0;-8.76<tspan fill="rgb(0,100,0)" font-size="10" font-family="Arial"> &lt;-8.76, -8.76&gt;</tspan><tspan fill="rgb(0,128,0)" font-size="10" font-family="Arial">&#x00A0;(1)</tspan><tspan fill="rgb(0,0,0)" font-size="12" font-family="Arial">&#x00A0;sec</tspan></text></g>
<g>
<text x="205" y="127" transform = "rotate(-30 205 127 )" font-size="12" font-family="Arial">&#x00A0;&#x00A0;&#x00A0;3.45<tspan fill="rgb(0,100,0)" font-size="10" font-family="Arial"> &lt;3.45, 3.45&gt;</tspan><tspan fill="rgb(0,128,0)" font-size="10" font-family="Arial">&#x00A0;(1)</tspan><tspan fill="rgb(0,0,0)" font-size="12" font-family="Arial">&#x00A0;sec</tspan></text></g>
<g>
<text x="295" y="133" transform = "rotate(-30 295 133 )" font-size="12" font-family="Arial">&#x00A0;&#x00A0;&#x00A0;3.1<tspan fill="rgb(0,100,0)" font-size="10" font-family="Arial"> &lt;3.1, 3.1&gt;</tspan><tspan fill="rgb(0,128,0)" font-size="10" font-family="Arial">&#x00A0;(1)</tspan><tspan fill="rgb(0,0,0)" font-size="12" font-family="Arial">&#x00A0;sec</tspan></text></g>
</g>
</svg>
