<?xml version="1.0" encoding="UTF-8" standalone="no"?>
<svg width="500" height ="200" version="1.1"
xmlns:svg ="http://www.w3.org/2000/svg"
xmlns:rdf="http://www.w3.org/1999/02/22-rdf-syntax-ns#"
xmlns:cc="http://web.resource.org/cc/"
xmlns:dc="http://purl.org/dc/elements/1.1/"
xmlns ="http://www.w3.org/2000/svg"
>
<!-- SVG plot written using Boost.Plot program (Creator Jacob Voytko) --> 
<!-- Use, modification and distribution of Boost.Plot subject to the --> 
<!-- Boost Software License, Version 1.0.--> 
<!-- (See accompanying file LICENSE_1_0.txt --> 
<!-- or copy at http://www.boost.org/LICENSE_1_0.txt) --> 

<!-- File ./demo_weather3.svg --> 
<g id="imageBackground" stroke="rgb(255,255,0)" fill="rgb(255,255,255)" stroke-width="1"><rect x="0" y="0" width="500" height="200"/></g>
<g id="plotBackground" stroke="rgb(250,250,210)" fill="rgb(255,255,255)" stroke-width="1"><rect x="11" y="56" width="325" height="128"/></g>
<g id="xMinorGrid" stroke="rgb(200,220,255)" stroke-width="0.5"></g>
<g id="xMajorGrid" stroke="rgb(200,220,255)" stroke-width="1"></g>
<g id="xAxis" stroke="rgb(0,0,0)" stroke-width="1"><line x1="103" y1="56" x2="103" y2="184"/><line x1="11" y1="123" x2="336" y2="123"/></g>
<g id="xMinorTicks" stroke="rgb(0,0,0)" stroke-width="1"><path d="M108,123 L108,125 M113,123 L113,125 M118,123 L118,125 M122,123 L122,125 M132,123 L132,125 M136,123 L136,125 M141,123 L141,125 M146,123 L146,125 M155,123 L155,125 M160,123 L160,125 M165,123 L165,125 M170,123 L170,125 M179,123 L179,125 M184,123 L184,125 M189,123 L189,125 M193,123 L193,125 M203,123 L203,125 M207,123 L207,125 M212,123 L212,125 M217,123 L217,125 M226,123 L226,125 M231,123 L231,125 M236,123 L236,125 M241,123 L241,125 M250,123 L250,125 M255,123 L255,125 M260,123 L260,125 M264,123 L264,125 M274,123 L274,125 M278,123 L278,125 M283,123 L283,125 M288,123 L288,125 M297,123 L297,125 M302,123 L302,125 M307,123 L307,125 M312,123 L312,125 M321,123 L321,125 M326,123 L326,125 M331,123 L331,125 M335,123 L335,125 M98.6,123 L98.6,125 M93.8,123 L93.8,125 M89.1,123 L89.1,125 M84.4,123 L84.4,125 M74.9,123 L74.9,125 M70.2,123 L70.2,125 M65.4,123 L65.4,125 M60.7,123 L60.7,125 M51.2,123 L51.2,125 M46.5,123 L46.5,125 M41.8,123 L41.8,125 M37,123 L37,125 M27.6,123 L27.6,125 M22.8,123 L22.8,125 M18.1,123 L18.1,125 M13.4,123 L13.4,125 " fill="none"/></g>
<g id="xMajorTicks" stroke="rgb(0,0,0)" stroke-width="2"><path d="M103,123 L103,128 M127,123 L127,128 M151,123 L151,128 M174,123 L174,128 M198,123 L198,128 M222,123 L222,128 M245,123 L245,128 M269,123 L269,128 M293,123 L293,128 M316,123 L316,128 M103,123 L103,128 M79.6,123 L79.6,128 M56,123 L56,128 M32.3,123 L32.3,128 " fill="none"/></g>
<g id="xTicksValues">
<text x="127" y="143" text-anchor="middle" font-size="12" font-family="Verdana">2</text>
<text x="151" y="143" text-anchor="middle" font-size="12" font-family="Verdana">4</text>
<text x="174" y="143" text-anchor="middle" font-size="12" font-family="Verdana">6</text>
<text x="198" y="143" text-anchor="middle" font-size="12" font-family="Verdana">8</text>
<text x="222" y="143" text-anchor="middle" font-size="12" font-family="Verdana">10</text>
<text x="245" y="143" text-anchor="middle" font-size="12" font-family="Verdana">12</text>
<text x="269" y="143" text-anchor="middle" font-size="12" font-family="Verdana">14</text>
<text x="293" y="143" text-anchor="middle" font-size="12" font-family="Verdana">16</text>
<text x="316" y="143" text-anchor="middle" font-size="12" font-family="Verdana">18</text>
<text x="79.6" y="143" text-anchor="middle" font-size="12" font-family="Verdana">-2</text>
<text x="56" y="143" text-anchor="middle" font-size="12" font-family="Verdana">-4</text>
<text x="32.3" y="143" text-anchor="middle" font-size="12" font-family="Verdana">-6</text></g>
<g id="xLabel">
<text x="174" y="208" text-anchor="middle" font-size="14" font-family="Verdana"></text></g>
<g id="plotPoints"><g stroke="rgb(255,0,0)"><line x1="300" y1="125" x2="300" y2="115"/><line x1="306" y1="125" x2="306" y2="115"/><line x1="290" y1="125" x2="290" y2="115"/><line x1="299" y1="125" x2="299" y2="115"/><line x1="304" y1="125" x2="304" y2="115"/><line x1="304" y1="125" x2="304" y2="115"/><line x1="314" y1="125" x2="314" y2="115"/><line x1="294" y1="125" x2="294" y2="115"/><line x1="297" y1="125" x2="297" y2="115"/><line x1="304" y1="125" x2="304" y2="115"/><line x1="301" y1="125" x2="301" y2="115"/><line x1="291" y1="125" x2="291" y2="115"/><line x1="276" y1="125" x2="276" y2="115"/><line x1="282" y1="125" x2="282" y2="115"/><line x1="274" y1="125" x2="274" y2="115"/><line x1="301" y1="125" x2="301" y2="115"/><line x1="286" y1="125" x2="286" y2="115"/><line x1="273" y1="125" x2="273" y2="115"/><line x1="293" y1="125" x2="293" y2="115"/><line x1="297" y1="125" x2="297" y2="115"/><line x1="299" y1="125" x2="299" y2="115"/><line x1="290" y1="125" x2="290" y2="115"/><line x1="283" y1="125" x2="283" y2="115"/><line x1="283" y1="125" x2="283" y2="115"/><line x1="290" y1="125" x2="290" y2="115"/><line x1="299" y1="125" x2="299" y2="115"/><line x1="283" y1="125" x2="283" y2="115"/><line x1="288" y1="125" x2="288" y2="115"/><line x1="284" y1="125" x2="284" y2="115"/><line x1="296" y1="125" x2="296" y2="115"/><line x1="291" y1="125" x2="291" y2="115"/><line x1="273" y1="125" x2="273" y2="115"/><line x1="278" y1="125" x2="278" y2="115"/><line x1="273" y1="125" x2="273" y2="115"/><line x1="295" y1="125" x2="295" y2="115"/><line x1="288" y1="125" x2="288" y2="115"/><line x1="271" y1="125" x2="271" y2="115"/><line x1="290" y1="125" x2="290" y2="115"/><line x1="303" y1="125" x2="303" y2="115"/><line x1="301" y1="125" x2="301" y2="115"/><line x1="280" y1="125" x2="280" y2="115"/><line x1="261" y1="125" x2="261" y2="115"/><line x1="299" y1="125" x2="299" y2="115"/><line x1="307" y1="125" x2="307" y2="115"/><line x1="294" y1="125" x2="294" y2="115"/><line x1="275" y1="125" x2="275" y2="115"/><line x1="273" y1="125" x2="273" y2="115"/><line x1="286" y1="125" x2="286" y2="115"/><line x1="302" y1="125" x2="302" y2="115"/><line x1="295" y1="125" x2="295" y2="115"/><line x1="276" y1="125" x2="276" y2="115"/><line x1="284" y1="125" x2="284" y2="115"/><line x1="307" y1="125" x2="307" y2="115"/><line x1="331" y1="125" x2="331" y2="115"/><line x1="322" y1="125" x2="322" y2="115"/><line x1="295" y1="125" x2="295" y2="115"/><line x1="314" y1="125" x2="314" y2="115"/><line x1="319" y1="125" x2="319" y2="115"/><line x1="320" y1="125" x2="320" y2="115"/><line x1="304" y1="125" x2="304" y2="115"/><line x1="281" y1="125" x2="281" y2="115"/><line x1="280" y1="125" x2="280" y2="115"/><line x1="284" y1="125" x2="284" y2="115"/><line x1="307" y1="125" x2="307" y2="115"/><line x1="289" y1="125" x2="289" y2="115"/><line x1="275" y1="125" x2="275" y2="115"/><line x1="287" y1="125" x2="287" y2="115"/><line x1="293" y1="125" x2="293" y2="115"/><line x1="319" y1="125" x2="319" y2="115"/><line x1="302" y1="125" x2="302" y2="115"/><line x1="300" y1="125" x2="300" y2="115"/><line x1="312" y1="125" x2="312" y2="115"/><line x1="323" y1="125" x2="323" y2="115"/><line x1="319" y1="125" x2="319" y2="115"/><line x1="301" y1="125" x2="301" y2="115"/><line x1="308" y1="125" x2="308" y2="115"/><line x1="312" y1="125" x2="312" y2="115"/><line x1="327" y1="125" x2="327" y2="115"/><line x1="312" y1="125" x2="312" y2="115"/><line x1="293" y1="125" x2="293" y2="115"/><line x1="309" y1="125" x2="309" y2="115"/><line x1="319" y1="125" x2="319" y2="115"/><line x1="316" y1="125" x2="316" y2="115"/><line x1="306" y1="125" x2="306" y2="115"/><line x1="286" y1="125" x2="286" y2="115"/><line x1="306" y1="125" x2="306" y2="115"/><line x1="325" y1="125" x2="325" y2="115"/><line x1="319" y1="125" x2="319" y2="115"/><line x1="302" y1="125" x2="302" y2="115"/><line x1="287" y1="125" x2="287" y2="115"/><line x1="321" y1="125" x2="321" y2="115"/><line x1="322" y1="125" x2="322" y2="115"/><line x1="321" y1="125" x2="321" y2="115"/><line x1="303" y1="125" x2="303" y2="115"/><line x1="302" y1="125" x2="302" y2="115"/><line x1="310" y1="125" x2="310" y2="115"/><line x1="321" y1="125" x2="321" y2="115"/><line x1="321" y1="125" x2="321" y2="115"/><line x1="299" y1="125" x2="299" y2="115"/><line x1="304" y1="125" x2="304" y2="115"/><line x1="296" y1="125" x2="296" y2="115"/><line x1="310" y1="125" x2="310" y2="115"/><line x1="314" y1="125" x2="314" y2="115"/><line x1="289" y1="125" x2="289" y2="115"/><line x1="302" y1="125" x2="302" y2="115"/><line x1="293" y1="125" x2="293" y2="115"/><line x1="307" y1="125" x2="307" y2="115"/><line x1="300" y1="125" x2="300" y2="115"/><line x1="277" y1="125" x2="277" y2="115"/><line x1="295" y1="125" x2="295" y2="115"/><line x1="310" y1="125" x2="310" y2="115"/><line x1="321" y1="125" x2="321" y2="115"/><line x1="287" y1="125" x2="287" y2="115"/><line x1="271" y1="125" x2="271" y2="115"/><line x1="301" y1="125" x2="301" y2="115"/><line x1="309" y1="125" x2="309" y2="115"/><line x1="314" y1="125" x2="314" y2="115"/><line x1="290" y1="125" x2="290" y2="115"/><line x1="286" y1="125" x2="286" y2="115"/><line x1="308" y1="125" x2="308" y2="115"/><line x1="320" y1="125" x2="320" y2="115"/><line x1="317" y1="125" x2="317" y2="115"/><line x1="294" y1="125" x2="294" y2="115"/><line x1="304" y1="125" x2="304" y2="115"/><line x1="295" y1="125" x2="295" y2="115"/><line x1="273" y1="125" x2="273" y2="115"/><line x1="262" y1="125" x2="262" y2="115"/><line x1="254" y1="125" x2="254" y2="115"/><line x1="246" y1="125" x2="246" y2="115"/><line x1="246" y1="125" x2="246" y2="115"/><line x1="238" y1="125" x2="238" y2="115"/><line x1="232" y1="125" x2="232" y2="115"/><line x1="229" y1="125" x2="229" y2="115"/><line x1="235" y1="125" x2="235" y2="115"/><line x1="232" y1="125" x2="232" y2="115"/><line x1="228" y1="125" x2="228" y2="115"/><line x1="230" y1="125" x2="230" y2="115"/><line x1="224" y1="125" x2="224" y2="115"/><line x1="288" y1="125" x2="288" y2="115"/><line x1="283" y1="125" x2="283" y2="115"/><line x1="315" y1="125" x2="315" y2="115"/><line x1="293" y1="125" x2="293" y2="115"/><line x1="291" y1="125" x2="291" y2="115"/><line x1="313" y1="125" x2="313" y2="115"/><line x1="321" y1="125" x2="321" y2="115"/><line x1="317" y1="125" x2="317" y2="115"/><line x1="297" y1="125" x2="297" y2="115"/><line x1="310" y1="125" x2="310" y2="115"/><line x1="291" y1="125" x2="291" y2="115"/><line x1="335" y1="125" x2="335" y2="115"/><line x1="326" y1="125" x2="326" y2="115"/><line x1="296" y1="125" x2="296" y2="115"/><line x1="312" y1="125" x2="312" y2="115"/><line x1="320" y1="125" x2="320" y2="115"/><line x1="316" y1="125" x2="316" y2="115"/><line x1="303" y1="125" x2="303" y2="115"/><line x1="280" y1="125" x2="280" y2="115"/><line x1="315" y1="125" x2="315" y2="115"/><line x1="320" y1="125" x2="320" y2="115"/><line x1="335" y1="125" x2="335" y2="115"/><line x1="315" y1="125" x2="315" y2="115"/><line x1="291" y1="125" x2="291" y2="115"/><line x1="320" y1="125" x2="320" y2="115"/><line x1="304" y1="125" x2="304" y2="115"/><line x1="336" y1="125" x2="336" y2="115"/><line x1="303" y1="125" x2="303" y2="115"/><line x1="299" y1="125" x2="299" y2="115"/><line x1="326" y1="125" x2="326" y2="115"/><line x1="300" y1="125" x2="300" y2="115"/><line x1="336" y1="125" x2="336" y2="115"/><line x1="336" y1="125" x2="336" y2="115"/><line x1="333" y1="125" x2="333" y2="115"/><line x1="314" y1="125" x2="314" y2="115"/><line x1="309" y1="125" x2="309" y2="115"/><line x1="323" y1="125" x2="323" y2="115"/><line x1="327" y1="125" x2="327" y2="115"/><line x1="328" y1="125" x2="328" y2="115"/><line x1="307" y1="125" x2="307" y2="115"/><line x1="319" y1="125" x2="319" y2="115"/><line x1="328" y1="125" x2="328" y2="115"/><line x1="315" y1="125" x2="315" y2="115"/><line x1="295" y1="125" x2="295" y2="115"/><line x1="284" y1="125" x2="284" y2="115"/><line x1="277" y1="125" x2="277" y2="115"/><line x1="271" y1="125" x2="271" y2="115"/><line x1="267" y1="125" x2="267" y2="115"/><line x1="262" y1="125" x2="262" y2="115"/><line x1="257" y1="125" x2="257" y2="115"/><line x1="254" y1="125" x2="254" y2="115"/><line x1="254" y1="125" x2="254" y2="115"/><line x1="284" y1="125" x2="284" y2="115"/><line x1="293" y1="125" x2="293" y2="115"/><line x1="274" y1="125" x2="274" y2="115"/><line x1="300" y1="125" x2="300" y2="115"/><line x1="325" y1="125" x2="325" y2="115"/><line x1="327" y1="125" x2="327" y2="115"/><line x1="307" y1="125" x2="307" y2="115"/><line x1="300" y1="125" x2="300" y2="115"/><line x1="332" y1="125" x2="332" y2="115"/><line x1="334" y1="125" x2="334" y2="115"/><line x1="331" y1="125" x2="331" y2="115"/><line x1="301" y1="125" x2="301" y2="115"/><line x1="308" y1="125" x2="308" y2="115"/><line x1="315" y1="125" x2="315" y2="115"/><line x1="333" y1="125" x2="333" y2="115"/><line x1="322" y1="125" x2="322" y2="115"/><line x1="291" y1="125" x2="291" y2="115"/><line x1="315" y1="125" x2="315" y2="115"/><line x1="331" y1="125" x2="331" y2="115"/><line x1="331" y1="125" x2="331" y2="115"/><line x1="312" y1="125" x2="312" y2="115"/><line x1="284" y1="125" x2="284" y2="115"/><line x1="315" y1="125" x2="315" y2="115"/><line x1="314" y1="125" x2="314" y2="115"/><line x1="326" y1="125" x2="326" y2="115"/><line x1="307" y1="125" x2="307" y2="115"/><line x1="284" y1="125" x2="284" y2="115"/><line x1="313" y1="125" x2="313" y2="115"/></g>
<g stroke="rgb(0,0,255)"><line x1="109" y1="125" x2="109" y2="115"/><line x1="138" y1="125" x2="138" y2="115"/><line x1="114" y1="125" x2="114" y2="115"/><line x1="135" y1="125" x2="135" y2="115"/><line x1="153" y1="125" x2="153" y2="115"/><line x1="77.3" y1="125" x2="77.3" y2="115"/><line x1="47.7" y1="125" x2="47.7" y2="115"/><line x1="34.7" y1="125" x2="34.7" y2="115"/><line x1="90.3" y1="125" x2="90.3" y2="115"/><line x1="97.4" y1="125" x2="97.4" y2="115"/><line x1="76.1" y1="125" x2="76.1" y2="115"/><line x1="78.5" y1="125" x2="78.5" y2="115"/><line x1="63.1" y1="125" x2="63.1" y2="115"/><line x1="61.9" y1="125" x2="61.9" y2="115"/><line x1="58.3" y1="125" x2="58.3" y2="115"/><line x1="46.5" y1="125" x2="46.5" y2="115"/><line x1="14.6" y1="125" x2="14.6" y2="115"/><line x1="19.3" y1="125" x2="19.3" y2="115"/><line x1="119" y1="125" x2="119" y2="115"/><line x1="103" y1="125" x2="103" y2="115"/><line x1="64.3" y1="125" x2="64.3" y2="115"/><line x1="93.8" y1="125" x2="93.8" y2="115"/><line x1="129" y1="125" x2="129" y2="115"/><line x1="172" y1="125" x2="172" y2="115"/><line x1="126" y1="125" x2="126" y2="115"/><line x1="113" y1="125" x2="113" y2="115"/><line x1="89.1" y1="125" x2="89.1" y2="115"/><line x1="97.4" y1="125" x2="97.4" y2="115"/><line x1="116" y1="125" x2="116" y2="115"/><line x1="108" y1="125" x2="108" y2="115"/><line x1="106" y1="125" x2="106" y2="115"/><line x1="101" y1="125" x2="101" y2="115"/><line x1="112" y1="125" x2="112" y2="115"/><line x1="135" y1="125" x2="135" y2="115"/><line x1="95" y1="125" x2="95" y2="115"/><line x1="139" y1="125" x2="139" y2="115"/><line x1="122" y1="125" x2="122" y2="115"/><line x1="180" y1="125" x2="180" y2="115"/><line x1="103" y1="125" x2="103" y2="115"/><line x1="58.3" y1="125" x2="58.3" y2="115"/><line x1="25.2" y1="125" x2="25.2" y2="115"/><line x1="138" y1="125" x2="138" y2="115"/><line x1="87.9" y1="125" x2="87.9" y2="115"/><line x1="97.4" y1="125" x2="97.4" y2="115"/><line x1="98.6" y1="125" x2="98.6" y2="115"/><line x1="106" y1="125" x2="106" y2="115"/><line x1="131" y1="125" x2="131" y2="115"/><line x1="120" y1="125" x2="120" y2="115"/><line x1="123" y1="125" x2="123" y2="115"/><line x1="123" y1="125" x2="123" y2="115"/><line x1="126" y1="125" x2="126" y2="115"/><line x1="151" y1="125" x2="151" y2="115"/><line x1="129" y1="125" x2="129" y2="115"/><line x1="128" y1="125" x2="128" y2="115"/><line x1="125" y1="125" x2="125" y2="115"/><line x1="141" y1="125" x2="141" y2="115"/><line x1="122" y1="125" x2="122" y2="115"/><line x1="109" y1="125" x2="109" y2="115"/><line x1="69" y1="125" x2="69" y2="115"/><line x1="72.5" y1="125" x2="72.5" y2="115"/><line x1="112" y1="125" x2="112" y2="115"/><line x1="153" y1="125" x2="153" y2="115"/><line x1="168" y1="125" x2="168" y2="115"/><line x1="183" y1="125" x2="183" y2="115"/><line x1="180" y1="125" x2="180" y2="115"/><line x1="187" y1="125" x2="187" y2="115"/><line x1="210" y1="125" x2="210" y2="115"/><line x1="212" y1="125" x2="212" y2="115"/><line x1="210" y1="125" x2="210" y2="115"/><line x1="198" y1="125" x2="198" y2="115"/><line x1="202" y1="125" x2="202" y2="115"/><line x1="185" y1="125" x2="185" y2="115"/><line x1="180" y1="125" x2="180" y2="115"/><line x1="171" y1="125" x2="171" y2="115"/><line x1="168" y1="125" x2="168" y2="115"/><line x1="177" y1="125" x2="177" y2="115"/><line x1="142" y1="125" x2="142" y2="115"/><line x1="140" y1="125" x2="140" y2="115"/><line x1="144" y1="125" x2="144" y2="115"/><line x1="151" y1="125" x2="151" y2="115"/><line x1="164" y1="125" x2="164" y2="115"/><line x1="158" y1="125" x2="158" y2="115"/><line x1="178" y1="125" x2="178" y2="115"/><line x1="194" y1="125" x2="194" y2="115"/><line x1="202" y1="125" x2="202" y2="115"/><line x1="200" y1="125" x2="200" y2="115"/><line x1="190" y1="125" x2="190" y2="115"/><line x1="185" y1="125" x2="185" y2="115"/><line x1="187" y1="125" x2="187" y2="115"/><line x1="204" y1="125" x2="204" y2="115"/><line x1="189" y1="125" x2="189" y2="115"/><line x1="204" y1="125" x2="204" y2="115"/><line x1="198" y1="125" x2="198" y2="115"/><line x1="177" y1="125" x2="177" y2="115"/><line x1="199" y1="125" x2="199" y2="115"/><line x1="180" y1="125" x2="180" y2="115"/><line x1="177" y1="125" x2="177" y2="115"/><line x1="142" y1="125" x2="142" y2="115"/><line x1="158" y1="125" x2="158" y2="115"/><line x1="174" y1="125" x2="174" y2="115"/><line x1="166" y1="125" x2="166" y2="115"/><line x1="154" y1="125" x2="154" y2="115"/><line x1="147" y1="125" x2="147" y2="115"/><line x1="158" y1="125" x2="158" y2="115"/><line x1="131" y1="125" x2="131" y2="115"/><line x1="123" y1="125" x2="123" y2="115"/><line x1="158" y1="125" x2="158" y2="115"/><line x1="154" y1="125" x2="154" y2="115"/><line x1="185" y1="125" x2="185" y2="115"/><line x1="142" y1="125" x2="142" y2="115"/><line x1="152" y1="125" x2="152" y2="115"/><line x1="144" y1="125" x2="144" y2="115"/><line x1="110" y1="125" x2="110" y2="115"/><line x1="175" y1="125" x2="175" y2="115"/><line x1="154" y1="125" x2="154" y2="115"/><line x1="157" y1="125" x2="157" y2="115"/><line x1="184" y1="125" x2="184" y2="115"/><line x1="187" y1="125" x2="187" y2="115"/><line x1="192" y1="125" x2="192" y2="115"/><line x1="153" y1="125" x2="153" y2="115"/><line x1="141" y1="125" x2="141" y2="115"/><line x1="129" y1="125" x2="129" y2="115"/><line x1="125" y1="125" x2="125" y2="115"/><line x1="165" y1="125" x2="165" y2="115"/><line x1="161" y1="125" x2="161" y2="115"/><line x1="127" y1="125" x2="127" y2="115"/><line x1="113" y1="125" x2="113" y2="115"/><line x1="131" y1="125" x2="131" y2="115"/><line x1="174" y1="125" x2="174" y2="115"/><line x1="132" y1="125" x2="132" y2="115"/><line x1="140" y1="125" x2="140" y2="115"/><line x1="187" y1="125" x2="187" y2="115"/><line x1="204" y1="125" x2="204" y2="115"/><line x1="181" y1="125" x2="181" y2="115"/><line x1="164" y1="125" x2="164" y2="115"/><line x1="136" y1="125" x2="136" y2="115"/><line x1="145" y1="125" x2="145" y2="115"/><line x1="194" y1="125" x2="194" y2="115"/><line x1="171" y1="125" x2="171" y2="115"/><line x1="167" y1="125" x2="167" y2="115"/><line x1="144" y1="125" x2="144" y2="115"/><line x1="139" y1="125" x2="139" y2="115"/><line x1="172" y1="125" x2="172" y2="115"/><line x1="175" y1="125" x2="175" y2="115"/><line x1="175" y1="125" x2="175" y2="115"/><line x1="166" y1="125" x2="166" y2="115"/><line x1="155" y1="125" x2="155" y2="115"/><line x1="186" y1="125" x2="186" y2="115"/><line x1="152" y1="125" x2="152" y2="115"/><line x1="125" y1="125" x2="125" y2="115"/><line x1="175" y1="125" x2="175" y2="115"/><line x1="187" y1="125" x2="187" y2="115"/><line x1="171" y1="125" x2="171" y2="115"/><line x1="147" y1="125" x2="147" y2="115"/><line x1="159" y1="125" x2="159" y2="115"/><line x1="157" y1="125" x2="157" y2="115"/><line x1="157" y1="125" x2="157" y2="115"/><line x1="183" y1="125" x2="183" y2="115"/><line x1="184" y1="125" x2="184" y2="115"/><line x1="159" y1="125" x2="159" y2="115"/><line x1="175" y1="125" x2="175" y2="115"/><line x1="198" y1="125" x2="198" y2="115"/><line x1="183" y1="125" x2="183" y2="115"/><line x1="133" y1="125" x2="133" y2="115"/><line x1="126" y1="125" x2="126" y2="115"/><line x1="128" y1="125" x2="128" y2="115"/><line x1="144" y1="125" x2="144" y2="115"/><line x1="191" y1="125" x2="191" y2="115"/><line x1="199" y1="125" x2="199" y2="115"/><line x1="206" y1="125" x2="206" y2="115"/><line x1="191" y1="125" x2="191" y2="115"/><line x1="189" y1="125" x2="189" y2="115"/><line x1="186" y1="125" x2="186" y2="115"/><line x1="202" y1="125" x2="202" y2="115"/><line x1="187" y1="125" x2="187" y2="115"/><line x1="204" y1="125" x2="204" y2="115"/><line x1="202" y1="125" x2="202" y2="115"/><line x1="207" y1="125" x2="207" y2="115"/><line x1="218" y1="125" x2="218" y2="115"/><line x1="199" y1="125" x2="199" y2="115"/><line x1="190" y1="125" x2="190" y2="115"/><line x1="184" y1="125" x2="184" y2="115"/><line x1="190" y1="125" x2="190" y2="115"/><line x1="196" y1="125" x2="196" y2="115"/><line x1="187" y1="125" x2="187" y2="115"/><line x1="180" y1="125" x2="180" y2="115"/><line x1="177" y1="125" x2="177" y2="115"/><line x1="178" y1="125" x2="178" y2="115"/><line x1="192" y1="125" x2="192" y2="115"/><line x1="166" y1="125" x2="166" y2="115"/><line x1="158" y1="125" x2="158" y2="115"/><line x1="152" y1="125" x2="152" y2="115"/><line x1="200" y1="125" x2="200" y2="115"/><line x1="185" y1="125" x2="185" y2="115"/><line x1="193" y1="125" x2="193" y2="115"/><line x1="179" y1="125" x2="179" y2="115"/><line x1="168" y1="125" x2="168" y2="115"/><line x1="181" y1="125" x2="181" y2="115"/><line x1="170" y1="125" x2="170" y2="115"/><line x1="144" y1="125" x2="144" y2="115"/><line x1="120" y1="125" x2="120" y2="115"/><line x1="132" y1="125" x2="132" y2="115"/><line x1="173" y1="125" x2="173" y2="115"/><line x1="110" y1="125" x2="110" y2="115"/><line x1="86.7" y1="125" x2="86.7" y2="115"/><line x1="53.6" y1="125" x2="53.6" y2="115"/><line x1="125" y1="125" x2="125" y2="115"/><line x1="167" y1="125" x2="167" y2="115"/><line x1="113" y1="125" x2="113" y2="115"/><line x1="90.3" y1="125" x2="90.3" y2="115"/><line x1="72.5" y1="125" x2="72.5" y2="115"/><line x1="196" y1="125" x2="196" y2="115"/><line x1="202" y1="125" x2="202" y2="115"/><line x1="164" y1="125" x2="164" y2="115"/><line x1="153" y1="125" x2="153" y2="115"/><line x1="170" y1="125" x2="170" y2="115"/><line x1="211" y1="125" x2="211" y2="115"/></g>
</g>
<g id="legendBackground" stroke="rgb(255,255,0)" fill="rgb(255,255,255)" stroke-width="1"><rect x="348" y="56" width="141" height="70"/><rect x="348" y="56" width="141" height="70"/></g>
<g id="legendPoints"><g stroke="rgb(255,0,0)" stroke-width="2"><line x1="362" y1="89" x2="362" y2="79"/></g>
<g stroke="rgb(0,0,255)" stroke-width="2"><line x1="362" y1="117" x2="362" y2="107"/></g>
</g>
<g id="legendText">
<text x="383" y="84" font-size="14" font-family="Verdana">Inside (&#x00B0;C)</text>
<text x="383" y="112" font-size="14" font-family="Verdana">Outside (&#x00B0;C)</text></g>
<g id="title">
<text x="250" y="36" text-anchor="middle" font-size="18" font-family="Verdana">Temperatures at Long: 2:45:16.2W, Lat:54:17:47.1N</text></g>
</svg>
