<?xml version="1.0" encoding="UTF-8" standalone="no"?>
<svg width="600" height ="300" version="1.1"
xmlns:svg ="http://www.w3.org/2000/svg"
xmlns:rdf="http://www.w3.org/1999/02/22-rdf-syntax-ns#"
xmlns:cc="http://web.resource.org/cc/"
xmlns:dc="http://purl.org/dc/elements/1.1/"
xmlns ="http://www.w3.org/2000/svg"
>
<!-- SVG plot written using Boost.Plot program (Creator Jacob Voytko) --> 
<!-- Use, modification and distribution of Boost.Plot subject to the --> 
<!-- Boost Software License, Version 1.0.--> 
<!-- (See accompanying file LICENSE_1_0.txt --> 
<!-- or copy at http://www.boost.org/LICENSE_1_0.txt) --> 

<!-- File ./demo_1d_uncertainty.svg --> 
<g id="imageBackground" stroke="rgb(0,0,255)" fill="rgb(255,255,255)" stroke-width="1"><rect x="0" y="0" width="600" height="300"/></g>
<g id="plotBackground" stroke="rgb(255,255,0)" fill="rgb(255,255,255)" stroke-width="1"><rect x="11" y="56" width="578" height="200"/></g>
<g id="xMinorGrid" stroke="rgb(200,220,255)" stroke-width="0.5"></g>
<g id="xMajorGrid" stroke="rgb(200,220,255)" stroke-width="1"></g>
<g id="xAxis" stroke="rgb(0,0,0)" stroke-width="1"><line x1="11" y1="159" x2="589" y2="159"/></g>
<g id="xMinorTicks" stroke="rgb(0,0,0)" stroke-width="1"><path d="M30.3,159 L30.3,161 M49.5,159 L49.5,161 M68.8,159 L68.8,161 M88.1,159 L88.1,161 M127,159 L127,161 M146,159 L146,161 M165,159 L165,161 M184,159 L184,161 M223,159 L223,161 M242,159 L242,161 M261,159 L261,161 M281,159 L281,161 M319,159 L319,161 M339,159 L339,161 M358,159 L358,161 M377,159 L377,161 M416,159 L416,161 M435,159 L435,161 M454,159 L454,161 M473,159 L473,161 M512,159 L512,161 M531,159 L531,161 M550,159 L550,161 M570,159 L570,161 " fill="none"/></g>
<g id="xMajorTicks" stroke="rgb(0,0,0)" stroke-width="2"><path d="M11,159 L11,164 M107,159 L107,164 M204,159 L204,164 M300,159 L300,164 M396,159 L396,164 M493,159 L493,164 M589,159 L589,164 " fill="none"/></g>
<g id="xTicksValues">
<text x="11" y="179" text-anchor="middle" font-size="12" font-family="Verdana">2</text>
<text x="107" y="179" text-anchor="middle" font-size="12" font-family="Verdana">3</text>
<text x="204" y="179" text-anchor="middle" font-size="12" font-family="Verdana">4</text>
<text x="300" y="179" text-anchor="middle" font-size="12" font-family="Verdana">5</text>
<text x="396" y="179" text-anchor="middle" font-size="12" font-family="Verdana">6</text>
<text x="493" y="179" text-anchor="middle" font-size="12" font-family="Verdana">7</text>
<text x="589" y="179" text-anchor="middle" font-size="12" font-family="Verdana">8</text></g>
<g id="xLabel">
<text x="300" y="280" text-anchor="middle" font-size="14" font-family="Verdana">times (sec)</text></g>
<g id="plotUnc3" stroke="rgb(250,250,210)" fill="rgb(250,250,210)" stroke-width="1"><ellipse cx="68.8" cy="156" rx="28.9" ry="3"/><ellipse cx="339" cy="156" rx="57.8" ry="3"/></g>
<g id="plotUnc2" stroke="rgb(255,218,185)" fill="rgb(255,218,185)" stroke-width="1"><ellipse cx="68.8" cy="156" rx="19.3" ry="2"/><ellipse cx="339" cy="156" rx="38.5" ry="2"/></g>
<g id="plotUnc1" stroke="rgb(255,0,255)" fill="rgb(255,192,203)" stroke-width="1"><ellipse cx="68.8" cy="156" rx="9.63" ry="1"/><ellipse cx="339" cy="156" rx="19.3" ry="1"/></g>
<g id="plotPoints"><g stroke="rgb(255,0,0)" fill="rgb(0,128,0)">
<text x="117" y="159" text-anchor="middle" font-size="10" font-family="Lucida Sans Unicode">&#x25CB;</text>
<text x="223" y="159" text-anchor="middle" font-size="10" font-family="Lucida Sans Unicode">&#x25CB;</text></g>
<g stroke="rgb(0,0,255)"><line x1="20.6" y1="161" x2="20.6" y2="151"/><line x1="310" y1="161" x2="310" y2="151"/><line x1="570" y1="161" x2="570" y2="151"/><line x1="146" y1="161" x2="146" y2="151"/><line x1="387" y1="161" x2="387" y2="151"/></g>
<g stroke="rgb(255,0,255)" fill="rgb(255,255,224)"><circle cx="68.8" cy="156" r="1"/><circle cx="339" cy="156" r="1"/></g>
</g>
<g id="title">
<text x="300" y="36" text-anchor="middle" font-size="18" font-family="Verdana">A, B and C Times</text></g>
<g id="plotXValues"><g>
<text x="120" y="150" transform = "rotate(-30 120 150 )" font-size="10" font-family="Verdana">3.1<tspan fill="rgb(0,0,255)" font-size="10" font-family="Verdana">&#x00A0;&#x00B1;</tspan><tspan fill="rgb(0,0,255)" font-size="9" font-family="Verdana">0.02</tspan><tspan fill="rgb(128,0,128)" font-size="9" font-family="Verdana"> &lt;3.08, 3.12&gt;</tspan><tspan fill="rgb(0,128,0)" font-size="9" font-family="Verdana">&#x00A0;(8)</tspan></text></g>
<g>
<text x="226" y="150" transform = "rotate(-30 226 150 )" font-size="10" font-family="Verdana">4.2<tspan fill="rgb(0,0,255)" font-size="10" font-family="Verdana">&#x00A0;&#x00B1;</tspan><tspan fill="rgb(0,0,255)" font-size="9" font-family="Verdana">0.01</tspan><tspan fill="rgb(128,0,128)" font-size="9" font-family="Verdana"> &lt;4.193, 4.207&gt;</tspan><tspan fill="rgb(0,128,0)" font-size="9" font-family="Verdana">&#x00A0;(14)</tspan></text></g>
<g>
<text x="23.6" y="153" transform = "rotate(-30 23.6 153 )" font-size="10" font-family="Verdana">2.1<tspan fill="rgb(0,0,255)" font-size="10" font-family="Verdana">&#x00A0;&#x00B1;</tspan><tspan fill="rgb(0,0,255)" font-size="9" font-family="Verdana">0.001</tspan><tspan fill="rgb(128,0,128)" font-size="9" font-family="Verdana"> &lt;2.0995, 2.1005&gt;</tspan><tspan fill="rgb(0,128,0)" font-size="9" font-family="Verdana">&#x00A0;(30)</tspan></text></g>
<g>
<text x="313" y="153" transform = "rotate(-30 313 153 )" font-size="10" font-family="Verdana">5.1<tspan fill="rgb(0,0,255)" font-size="10" font-family="Verdana">&#x00A0;&#x00B1;</tspan><tspan fill="rgb(0,0,255)" font-size="9" font-family="Verdana">0.025</tspan><tspan fill="rgb(128,0,128)" font-size="9" font-family="Verdana"> &lt;5.09, 5.11&gt;</tspan><tspan fill="rgb(0,128,0)" font-size="9" font-family="Verdana">&#x00A0;(20)</tspan></text></g>
<g>
<text x="573" y="153" transform = "rotate(-30 573 153 )" font-size="10" font-family="Verdana">7.8<tspan fill="rgb(0,0,255)" font-size="10" font-family="Verdana">&#x00A0;&#x00B1;</tspan><tspan fill="rgb(0,0,255)" font-size="9" font-family="Verdana">0.0025</tspan><tspan fill="rgb(128,0,128)" font-size="9" font-family="Verdana"> &lt;7.794, 7.806&gt;</tspan><tspan fill="rgb(0,128,0)" font-size="9" font-family="Verdana">&#x00A0;(1)</tspan></text></g>
<g>
<text x="149" y="153" transform = "rotate(-30 149 153 )" font-size="10" font-family="Verdana">3.4<tspan fill="rgb(0,0,255)" font-size="10" font-family="Verdana">&#x00A0;&#x00B1;</tspan><tspan fill="rgb(0,0,255)" font-size="9" font-family="Verdana">0.03</tspan><tspan fill="rgb(128,0,128)" font-size="9" font-family="Verdana"> &lt;3.32, 3.48&gt;</tspan><tspan fill="rgb(0,128,0)" font-size="9" font-family="Verdana">&#x00A0;(1)</tspan></text></g>
<g>
<text x="390" y="153" transform = "rotate(-30 390 153 )" font-size="10" font-family="Verdana">5.9<tspan fill="rgb(128,0,128)" font-size="9" font-family="Verdana"> &lt;nan, nan&gt;</tspan><tspan fill="rgb(0,128,0)" font-size="9" font-family="Verdana">&#x00A0;(1)</tspan></text></g>
<g>
<text x="71.8" y="153" transform = "rotate(-30 71.8 153 )" font-size="10" font-family="Verdana">2.6<tspan fill="rgb(0,0,255)" font-size="10" font-family="Verdana">&#x00A0;&#x00B1;</tspan><tspan fill="rgb(0,0,255)" font-size="9" font-family="Verdana">0.1</tspan><tspan fill="rgb(128,0,128)" font-size="9" font-family="Verdana"> &lt;2.48, 2.72&gt;</tspan><tspan fill="rgb(0,128,0)" font-size="9" font-family="Verdana">&#x00A0;(5)</tspan></text></g>
<g>
<text x="342" y="153" transform = "rotate(-30 342 153 )" font-size="10" font-family="Verdana">5.4<tspan fill="rgb(0,0,255)" font-size="10" font-family="Verdana">&#x00A0;&#x00B1;</tspan><tspan fill="rgb(0,0,255)" font-size="9" font-family="Verdana">0.2</tspan><tspan fill="rgb(128,0,128)" font-size="9" font-family="Verdana"> &lt;5.2, 5.6&gt;</tspan><tspan fill="rgb(0,128,0)" font-size="9" font-family="Verdana">&#x00A0;(11)</tspan></text></g>
</g>
</svg>
