<?xml version="1.0" encoding="UTF-8" standalone="no"?>
<svg width="700" height ="500" version="1.1"
xmlns:svg ="http://www.w3.org/2000/svg"
xmlns:rdf="http://www.w3.org/1999/02/22-rdf-syntax-ns#"
xmlns:cc="http://web.resource.org/cc/"
xmlns:dc="http://purl.org/dc/elements/1.1/"
xmlns ="http://www.w3.org/2000/svg"
>
<!-- SVG plot written using Boost.Plot program (Creator Jacob Voytko) --> 
<!-- Use, modification and distribution of Boost.Plot subject to the --> 
<!-- Boost Software License, Version 1.0.--> 
<!-- (See accompanying file LICENSE_1_0.txt --> 
<!-- or copy at http://www.boost.org/LICENSE_1_0.txt) --> 

<clipPath id="plot_window"><rect x="65" y="59" width="464" height="394"/></clipPath>
<g id="imageBackground" stroke="rgb(255,255,0)" fill="rgb(248,248,255)" stroke-width="2"><rect x="0" y="0" width="700" height="500"/></g>
<g id="plotBackground" stroke="rgb(0,128,0)" fill="rgb(255,255,255)" stroke-width="1"><rect x="64" y="58" width="466" height="396"/></g>
<g id="yMinorGrid" stroke="rgb(240,240,255)" stroke-width="1"><path d="M65,243 L529,243 M65,230 L529,230 M65,203 L529,203 M65,190 L529,190 M65,164 L529,164 M65,150 L529,150 M65,124 L529,124 M65,111 L529,111 M65,84.4 L529,84.4 M65,71.2 L529,71.2 M65,256 L529,256 M65,269 L529,269 M65,282 L529,282 M65,296 L529,296 M65,309 L529,309 M65,322 L529,322 M65,335 L529,335 M65,335 L529,335 M65,348 L529,348 M65,362 L529,362 M65,375 L529,375 M65,388 L529,388 M65,401 L529,401 M65,414 L529,414 M65,428 L529,428 M65,441 L529,441 M65,454 L529,454 M65,454 L529,454 " fill="none"/></g>
<g id="yMajorGrid" stroke="rgb(200,220,255)" stroke-width="2"><path d="M65,256 L529,256 M65,216 L529,216 M65,177 L529,177 M65,137 L529,137 M65,97.6 L529,97.6 M65,58 L529,58 M65,256 L529,256 M65,296 L529,296 M65,335 L529,335 M65,375 L529,375 M65,414 L529,414 M65,454 L529,454 " fill="none"/></g>
<g id="xMinorGrid" stroke="rgb(240,240,255)" stroke-width="0.5"><path d="M513,59 L513,453 M444,59 L444,453 M409,59 L409,453 M340,59 L340,453 M306,59 L306,453 M237,59 L237,453 M202,59 L202,453 M133,59 L133,453 M98.5,59 L98.5,453 " fill="none"/></g>
<g id="xMajorGrid" stroke="rgb(200,220,255)" stroke-width="1"><path d="M478,58 L478,454 M375,58 L375,454 M271,58 L271,454 M168,58 L168,454 M64,58 L64,454 " fill="none"/></g>
<g id="yAxis" stroke="rgb(0,0,0)" stroke-width="1"><line x1="530" y1="58" x2="530" y2="454"/></g>
<g id="xAxis" stroke="rgb(0,0,0)" stroke-width="1"><line x1="64" y1="256" x2="530" y2="256"/></g>
<g id="yMinorTicks" stroke="rgb(0,0,0)" stroke-width="1"><path d="M525,243 L530,243 M525,230 L530,230 M525,203 L530,203 M525,190 L530,190 M525,164 L530,164 M525,150 L530,150 M525,124 L530,124 M525,111 L530,111 M525,84.4 L530,84.4 M525,71.2 L530,71.2 M525,256 L530,256 M525,269 L530,269 M525,282 L530,282 M525,296 L530,296 M525,309 L530,309 M525,322 L530,322 M525,335 L530,335 M525,335 L530,335 M525,348 L530,348 M525,362 L530,362 M525,375 L530,375 M525,388 L530,388 M525,401 L530,401 M525,414 L530,414 M525,428 L530,428 M525,441 L530,441 M525,454 L530,454 M525,454 L530,454 " fill="none"/></g>
<g id="xMinorTicks" stroke="rgb(0,0,0)" stroke-width="1"><path d="M513,256 L513,261 M444,256 L444,261 M409,256 L409,261 M340,256 L340,261 M306,256 L306,261 M237,256 L237,261 M202,256 L202,261 M133,256 L133,261 M98.5,256 L98.5,261 " fill="none"/></g>
<g id="yMajorTicks" stroke="rgb(0,0,0)" stroke-width="2"><path d="M520,256 L530,256 M520,216 L530,216 M520,177 L530,177 M520,137 L530,137 M520,97.6 L530,97.6 M520,58 L530,58 M520,256 L530,256 M520,296 L530,296 M520,335 L530,335 M520,375 L530,375 M520,414 L530,414 M520,454 L530,454 " fill="none"/></g>
<g id="xMajorTicks" stroke="rgb(0,0,0)" stroke-width="2"><path d="M478,256 L478,266 M375,256 L375,266 M271,256 L271,266 M168,256 L168,266 M64,256 L64,266 " fill="none"/></g>
<g id="xTicksValues">
<text x="478" y="282" text-anchor="middle" font-size="12" font-family="Lucida Sans Unicode">-2.00</text>
<text x="375" y="282" text-anchor="middle" font-size="12" font-family="Lucida Sans Unicode">-4.00</text>
<text x="271" y="282" text-anchor="middle" font-size="12" font-family="Lucida Sans Unicode">-6.00</text>
<text x="168" y="282" text-anchor="middle" font-size="12" font-family="Lucida Sans Unicode">-8.00</text>
<text x="64" y="282" text-anchor="middle" font-size="12" font-family="Lucida Sans Unicode">-1.00e1</text></g>
<g id="yTicksValues">
<text x="514" y="258" text-anchor="end" font-size="12" font-family="Lucida Sans Unicode">0.0</text>
<text x="514" y="219" text-anchor="end" font-size="12" font-family="Lucida Sans Unicode">2.0</text>
<text x="514" y="179" text-anchor="end" font-size="12" font-family="Lucida Sans Unicode">4.0</text>
<text x="514" y="140" text-anchor="end" font-size="12" font-family="Lucida Sans Unicode">6.0</text>
<text x="514" y="100" text-anchor="end" font-size="12" font-family="Lucida Sans Unicode">8.0</text>
<text x="514" y="60.4" text-anchor="end" font-size="12" font-family="Lucida Sans Unicode">10.0</text>
<text x="514" y="258" text-anchor="end" font-size="12" font-family="Lucida Sans Unicode">0.0</text>
<text x="514" y="298" text-anchor="end" font-size="12" font-family="Lucida Sans Unicode">-2.0</text>
<text x="514" y="338" text-anchor="end" font-size="12" font-family="Lucida Sans Unicode">-4.0</text>
<text x="514" y="377" text-anchor="end" font-size="12" font-family="Lucida Sans Unicode">-6.0</text>
<text x="514" y="417" text-anchor="end" font-size="12" font-family="Lucida Sans Unicode">-8.0</text>
<text x="514" y="456" text-anchor="end" font-size="12" font-family="Lucida Sans Unicode">-10.0</text></g>
<g id="yLabel">
<text x="19" y="256" text-anchor="middle" transform = "rotate(-90 19 256 )" font-size="14" font-family="Lucida Sans Unicode">Y-axis</text></g>
<g id="xLabel">
<text x="297" y="478" text-anchor="middle" font-size="14" font-family="Lucida Sans Unicode">X-axis</text></g>
<g id="plotLines" stroke-width="2"><g clip-path="url(#plot_window)" stroke="rgb(0,0,0)"><path d="M64,-1.68e+003 S105,-1.38e+003 116,-1.31e+003 S157,-1.03e+003 168,-972 S209,-730 219,-675 S261,-465 271,-417 S313,-239 323,-199 S364,-52.9 375,-21.2 S416,93.6 427,117 S468,201 478,216 S520,268 530,276 S572,296 582,296 S623,284 634,276 S675,232 685,216 S727,141 737,117 S779,10.5 789,-21.2 S830,-160 841,-199 S882,-370 893,-417 S934,-619 944,-675 S986,-908 996,-972 S1.04e+003,-1.24e+003 1.05e+003,-1.31e+003 S1.1e+003,-1.72e+003 1.1e+003,-1.68e+003 " fill="none"/></g>
</g>
<g id="plotPoints" clip-path="url(#plot_window)"><g stroke="rgb(0,0,0)" fill="rgb(255,165,0)"><circle cx="427" cy="117" r="2"/><circle cx="478" cy="216" r="2"/></g>
<g stroke="rgb(0,0,0)" fill="rgb(255,255,0)"><rect x="372" y="432" width="5" height="5"/><rect x="424" y="392" width="5" height="5"/><rect x="476" y="353" width="5" height="5"/></g>
</g>
<g id="limitPoints" stroke="rgb(119,136,153)" fill="rgb(250,235,215)"><polygon points=" 59,246 69,246 64,256"/><polygon points=" 111,246 121,246 116,256"/><polygon points=" 111,246 121,246 116,256"/><polygon points=" 163,246 173,246 168,256"/><polygon points=" 163,246 173,246 168,256"/><polygon points=" 214,246 224,246 219,256"/><polygon points=" 214,246 224,246 219,256"/><polygon points=" 266,246 276,246 271,256"/><polygon points=" 266,246 276,246 271,256"/><polygon points=" 318,246 328,246 323,256"/><polygon points=" 318,246 328,246 323,256"/><polygon points=" 370,246 380,246 375,256"/><polygon points=" 370,246 380,246 375,256"/><polygon points=" 422,246 432,246 427,256"/><polygon points=" 422,246 432,246 427,256"/><polygon points=" 473,246 483,246 478,256"/><polygon points=" 473,246 483,246 478,256"/><polygon points=" 525,246 535,246 530,256"/></g>
<g id="legendBackground" stroke="rgb(255,255,0)" fill="rgb(255,255,224)" stroke-width="1"><rect x="544" y="58" width="130" height="144"/><rect x="544" y="58" width="130" height="144"/></g>
<g id="legendPoints"><g stroke="rgb(0,0,0)" fill="rgb(255,0,0)" stroke-width="2"><circle cx="560" cy="122" r="2"/></g>
<g stroke="rgb(0,0,0)" fill="rgb(255,165,0)" stroke-width="2"><circle cx="560" cy="154" r="2"/></g>
<g stroke="rgb(0,0,0)" fill="rgb(255,255,0)" stroke-width="3"><rect x="558" y="184" width="5" height="5"/></g>
</g>
<g id="legendText">
<text x="609" y="90" text-anchor="middle" font-size="16" font-family="Lucida Sans Unicode">Unicode &#x3A9;&#x3A6;</text>
<text x="584" y="122" font-size="16" font-family="Lucida Sans Unicode">Sqrt(x)</text>
<text x="584" y="154" font-size="16" font-family="Lucida Sans Unicode">-2 + x^2</text>
<text x="584" y="186" font-size="16" font-family="Lucida Sans Unicode">-1 + 2x</text></g>
<g id="title" fill="rgb(255,0,0)">
<text x="350" y="40" text-anchor="middle" font-size="20" font-family="Lucida Sans Unicode">Plot of Mathematical Functions XN</text></g>
<g id="plotXValues"></g>
<g id="plotYValues"></g>
</svg>
