<?xml version="1.0" encoding="UTF-8" standalone="no"?>
<svg width="700" height ="500" version="1.1"
xmlns:svg ="http://www.w3.org/2000/svg"
xmlns:rdf="http://www.w3.org/1999/02/22-rdf-syntax-ns#"
xmlns:cc="http://web.resource.org/cc/"
xmlns:dc="http://purl.org/dc/elements/1.1/"
xmlns ="http://www.w3.org/2000/svg"
>
<!-- SVG plot written using Boost.Plot program (Creator Jacob Voytko) --> 
<!-- Use, modification and distribution of Boost.Plot subject to the --> 
<!-- Boost Software License, Version 1.0.--> 
<!-- (See accompanying file LICENSE_1_0.txt --> 
<!-- or copy at http://www.boost.org/LICENSE_1_0.txt) --> 

<clipPath id="plot_window"><rect x="58" y="49" width="525" height="414"/></clipPath>
<g id="imageBackground" stroke="rgb(255,255,0)" fill="rgb(248,248,255)" stroke-width="2"><rect x="0" y="0" width="700" height="500"/></g>
<g id="plotBackground" stroke="rgb(0,128,0)" fill="rgb(255,255,255)" stroke-width="1"><rect x="57" y="48" width="527" height="416"/></g>
<g id="yMinorGrid" stroke="rgb(240,240,255)" stroke-width="1"><path d="M58,63.4 L583,63.4 M58,94.2 L583,94.2 M58,125 L583,125 M58,156 L583,156 M58,187 L583,187 M58,187 L583,187 M58,217 L583,217 M58,248 L583,248 M58,279 L583,279 M58,310 L583,310 M58,341 L583,341 M58,372 L583,372 M58,402 L583,402 M58,433 L583,433 M58,464 L583,464 M58,464 L583,464 " fill="none"/></g>
<g id="yMajorGrid" stroke="rgb(200,220,255)" stroke-width="2"><path d="M58,94.2 L583,94.2 M58,187 L583,187 M58,279 L583,279 M58,372 L583,372 M58,464 L583,464 " fill="none"/></g>
<g id="xMinorGrid" stroke="rgb(240,240,255)" stroke-width="0.5"><path d="M137,49 L137,463 M169,49 L169,463 M233,49 L233,463 M265,49 L265,463 M329,49 L329,463 M361,49 L361,463 M424,49 L424,463 M456,49 L456,463 M520,49 L520,463 M552,49 L552,463 M73,49 L73,463 " fill="none"/></g>
<g id="xMajorGrid" stroke="rgb(200,220,255)" stroke-width="1"><path d="M105,48 L105,464 M201,48 L201,464 M297,48 L297,464 M393,48 L393,464 M488,48 L488,464 M584,48 L584,464 M105,48 L105,464 " fill="none"/></g>
<g id="yAxis" stroke="rgb(0,0,0)" stroke-width="1"><line x1="105" y1="48" x2="105" y2="464"/><line x1="584" y1="48" x2="584" y2="464"/></g>
<g id="xAxis" stroke="rgb(0,0,0)" stroke-width="1"><line x1="57" y1="48" x2="584" y2="48"/></g>
<g id="yMinorTicks" stroke="rgb(0,0,0)" stroke-width="1"><path d="M99.9,63.4 L105,63.4 M99.9,94.2 L105,94.2 M99.9,125 L105,125 M99.9,156 L105,156 M99.9,187 L105,187 M99.9,187 L105,187 M99.9,217 L105,217 M99.9,248 L105,248 M99.9,279 L105,279 M99.9,310 L105,310 M99.9,341 L105,341 M99.9,372 L105,372 M99.9,402 L105,402 M99.9,433 L105,433 M99.9,464 L105,464 M99.9,464 L105,464 " fill="none"/></g>
<g id="xMinorTicks" stroke="rgb(0,0,0)" stroke-width="1"><path d="M137,48 L137,53 M169,48 L169,53 M233,48 L233,53 M265,48 L265,53 M329,48 L329,53 M361,48 L361,53 M424,48 L424,53 M456,48 L456,53 M520,48 L520,53 M552,48 L552,53 M73,48 L73,53 " fill="none"/></g>
<g id="yMajorTicks" stroke="rgb(0,0,0)" stroke-width="2"><path d="M94.9,94.2 L105,94.2 M94.9,187 L105,187 M94.9,279 L105,279 M94.9,372 L105,372 M94.9,464 L105,464 " fill="none"/></g>
<g id="xMajorTicks" stroke="rgb(0,0,0)" stroke-width="2"><path d="M105,48 L105,58 M201,48 L201,58 M297,48 L297,58 M393,48 L393,58 M488,48 L488,58 M584,48 L584,58 M105,48 L105,58 " fill="none"/></g>
<g id="xTicksValues">
<text x="105" y="73.6" text-anchor="middle" font-size="12" font-family="Lucida Sans Unicode">0.00</text>
<text x="201" y="73.6" text-anchor="middle" font-size="12" font-family="Lucida Sans Unicode">2.00</text>
<text x="297" y="73.6" text-anchor="middle" font-size="12" font-family="Lucida Sans Unicode">4.00</text>
<text x="393" y="73.6" text-anchor="middle" font-size="12" font-family="Lucida Sans Unicode">6.00</text>
<text x="488" y="73.6" text-anchor="middle" font-size="12" font-family="Lucida Sans Unicode">8.00</text>
<text x="584" y="73.6" text-anchor="middle" font-size="12" font-family="Lucida Sans Unicode">1.00e1</text>
<text x="105" y="73.6" text-anchor="middle" font-size="12" font-family="Lucida Sans Unicode">0.00</text></g>
<g id="yTicksValues">
<text x="88.9" y="96.6" text-anchor="end" font-size="12" font-family="Lucida Sans Unicode">-2.0</text>
<text x="88.9" y="189" text-anchor="end" font-size="12" font-family="Lucida Sans Unicode">-4.0</text>
<text x="88.9" y="282" text-anchor="end" font-size="12" font-family="Lucida Sans Unicode">-6.0</text>
<text x="88.9" y="374" text-anchor="end" font-size="12" font-family="Lucida Sans Unicode">-8.0</text>
<text x="88.9" y="466" text-anchor="end" font-size="12" font-family="Lucida Sans Unicode">-10.0</text></g>
<g id="yLabel">
<text x="19" y="256" text-anchor="middle" transform = "rotate(-90 19 256 )" font-size="14" font-family="Lucida Sans Unicode">Y-axis</text></g>
<g id="xLabel">
<text x="321" y="484" text-anchor="middle" font-size="12" font-family="Lucida Sans Unicode">X-axis</text></g>
<g id="plotLines" stroke-width="2"><g clip-path="url(#plot_window)" stroke="rgb(0,0,0)" stroke-width="2"><path d="M-374,-4.53e+03 S-336,-3.82e+03 -326,-3.65e+03 S-288,-3.01e+03 -279,-2.86e+03 S-240,-2.3e+03 -231,-2.17e+03 S-192,-1.68e+03 -183,-1.57e+03 S-144,-1.15e+03 -135,-1.06e+03 S-96.4,-719 -86.8,-645 S-48.4,-377 -38.9,-322 S-0.517,-128 9.07,-90.7 S47.4,29.5 57,48 S95.3,94.2 105,94.2 S143,66.5 153,48 S191,-53.7 201,-90.7 S239,-266 249,-322 S287,-571 297,-645 S335,-969 345,-1.06e+03 S383,-1.46e+03 393,-1.57e+03 S431,-2.04e+03 440,-2.17e+03 S479,-2.72e+03 488,-2.86e+03 S527,-3.48e+03 536,-3.65e+03 S584,-4.62e+03 584,-4.53e+03 " fill="none"/></g>
</g>
<g id="plotPoints" clip-path="url(#plot_window)"><g stroke="rgb(0,0,0)" fill="rgb(255,165,0)">
<text x="105" y="95.8" text-anchor="middle" font-size="5" font-family="Lucida Sans Unicode">&#x25CB;</text></g>
<g stroke="rgb(0,0,0)" fill="rgb(255,255,0)">
<text x="57" y="144" text-anchor="middle" font-size="10" font-family="Lucida Sans Unicode">&#x25A1;</text></g>
</g>
<g id="limitPoints" stroke="rgb(119,136,153)" fill="rgb(250,235,215)"><polygon points=" 52,38 62,38 57,48"/><polygon points=" 52,38 62,38 57,48"/><polygon points=" 52,38 62,38 57,48"/><polygon points=" 52,38 62,38 57,48"/><polygon points=" 52,38 62,38 57,48"/><polygon points=" 52,38 62,38 57,48"/><polygon points=" 52,38 62,38 57,48"/><polygon points=" 52,38 62,38 57,48"/><polygon points=" 52,38 62,38 57,48"/><polygon points=" 52,38 62,38 57,48"/></g>
<g id="legendBackground" stroke="rgb(255,255,0)" fill="rgb(255,255,224)" stroke-width="1"><rect x="590" y="48" width="95.8" height="77.6"/></g>
<g id="legendPoints"><g stroke="rgb(0,0,0)" fill="rgb(255,0,0)" stroke-width="2">
<text x="604" y="84.2" text-anchor="middle" font-size="10" font-family="Lucida Sans Unicode">&#x25CB;</text></g>
<g stroke="rgb(0,0,0)" fill="rgb(255,165,0)" stroke-width="2">
<text x="604" y="97" text-anchor="middle" font-size="5" font-family="Lucida Sans Unicode">&#x25CB;</text></g>
<g stroke="rgb(0,0,0)" fill="rgb(255,255,0)" stroke-width="3">
<text x="604" y="113" text-anchor="middle" font-size="10" font-family="Lucida Sans Unicode">&#x25A1;</text></g>
</g>
<g id="legendText">
<text x="638" y="66" text-anchor="middle" font-family="Lucida Sans Unicode" font-weight="normal">Unicode &#x3A9;&#x3A6;</text>
<text x="608" y="81" font-size="10" font-family="Lucida Sans Unicode" font-weight="normal">Sqrt(x)</text>
<text x="608" y="95.4" font-size="10" font-family="Lucida Sans Unicode" font-weight="normal">-2 + x^2</text>
<text x="608" y="110" font-size="10" font-family="Lucida Sans Unicode" font-weight="normal">-1 + 2x</text></g>
<g id="title" fill="rgb(255,0,0)">
<text x="350" y="30" text-anchor="middle" font-size="20" font-family="Lucida Sans Unicode" font-weight="normal">Plot of Mathematical Functions YN</text></g>
<g id="plotXValues"></g>
<g id="plotYValues"></g>
</svg>
