<?xml version="1.0" encoding="UTF-8" standalone="no"?>
<svg width="500" height ="400" version="1.1"
xmlns:svg ="http://www.w3.org/2000/svg"
xmlns:rdf="http://www.w3.org/1999/02/22-rdf-syntax-ns#"
xmlns:cc="http://web.resource.org/cc/"
xmlns:dc="http://purl.org/dc/elements/1.1/"
xmlns ="http://www.w3.org/2000/svg"
>
<!-- SVG plot written using Boost.Plot program (Creator Jacob Voytko) --> 
<!-- Use, modification and distribution of Boost.Plot subject to the --> 
<!-- Boost Software License, Version 1.0.--> 
<!-- (See accompanying file LICENSE_1_0.txt --> 
<!-- or copy at http://www.boost.org/LICENSE_1_0.txt) --> 

<clipPath id="plot_window">	<rect x="36.6" y="9" width="454" height="352"/>
</clipPath>
	<g id="imageBackground" stroke="rgb(255,255,0)" fill="rgb(255,255,255)" stroke-width="2">
	<rect x="0" y="0" width="500" height="400"/>
</g>
	<g id="plotBackground" stroke="rgb(119,136,153)" fill="rgb(255,255,255)" stroke-width="2">
	<rect x="35.6" y="8" width="456" height="354"/>
</g>
	<g id="yMinorGrid" stroke="rgb(200,220,255)" stroke-width="0.5">
</g>
	<g id="yMajorGrid" stroke="rgb(200,220,255)" stroke-width="1">
</g>
	<g id="xMinorGrid" stroke="rgb(200,220,255)" stroke-width="0.5">
</g>
	<g id="xMajorGrid" stroke="rgb(200,220,255)" stroke-width="1">
</g>
	<g id="yAxis" stroke="rgb(0,0,0)" stroke-width="1">
	<line x1="35.6" y1="8" x2="35.6" y2="367"/>
	<line x1="35.6" y1="8" x2="35.6" y2="362"/>
</g>
	<g id="xAxis" stroke="rgb(0,0,0)" stroke-width="1">
	<line x1="30.6" y1="362" x2="492" y2="362"/>
	<line x1="30.6" y1="362" x2="492" y2="362"/>
</g>
	<g id="yMinorTicks" stroke="rgb(0,0,0)" stroke-width="1">
	<path d="M33.6,334 L35.6,334 
M33.6,305 L35.6,305 
M33.6,277 L35.6,277 
M33.6,249 L35.6,249 
M33.6,192 L35.6,192 
M33.6,164 L35.6,164 
M33.6,135 L35.6,135 
M33.6,107 L35.6,107 
M33.6,50.5 L35.6,50.5 
M33.6,22.2 L35.6,22.2 
M33.6,362 L35.6,362 
" fill="none"/>
</g>
	<g id="xMinorTicks" stroke="rgb(0,0,0)" stroke-width="1">
	<path d="M44.7,362 L44.7,364 
M53.8,362 L53.8,364 
M63,362 L63,364 
M72.1,362 L72.1,364 
M90.4,362 L90.4,364 
M99.5,362 L99.5,364 
M109,362 L109,364 
M118,362 L118,364 
M136,362 L136,364 
M145,362 L145,364 
M154,362 L154,364 
M163,362 L163,364 
M182,362 L182,364 
M191,362 L191,364 
M200,362 L200,364 
M209,362 L209,364 
M227,362 L227,364 
M236,362 L236,364 
M246,362 L246,364 
M255,362 L255,364 
M273,362 L273,364 
M282,362 L282,364 
M291,362 L291,364 
M300,362 L300,364 
M319,362 L319,364 
M328,362 L328,364 
M337,362 L337,364 
M346,362 L346,364 
M364,362 L364,364 
M373,362 L373,364 
M382,362 L382,364 
M392,362 L392,364 
M410,362 L410,364 
M419,362 L419,364 
M428,362 L428,364 
M437,362 L437,364 
M455,362 L455,364 
M465,362 L465,364 
M474,362 L474,364 
M483,362 L483,364 
" fill="none"/>
</g>
	<g id="yMajorTicks" stroke="rgb(0,0,0)" stroke-width="2">
	<path d="M30.6,362 L35.6,362 
M30.6,220 L35.6,220 
M30.6,78.8 L35.6,78.8 
M30.6,362 L35.6,362 
" fill="none"/>
</g>
	<g id="xMajorTicks" stroke="rgb(0,0,0)" stroke-width="2">
	<path d="M35.6,362 L35.6,367 
M81.2,362 L81.2,367 
M127,362 L127,367 
M173,362 L173,367 
M218,362 L218,367 
M264,362 L264,367 
M309,362 L309,367 
M355,362 L355,367 
M401,362 L401,367 
M446,362 L446,367 
M492,362 L492,367 
M35.6,362 L35.6,367 
" fill="none"/>
</g>
	<g id="xTicksValues" font-size="12" font-family="Lucida Sans Unicode" text-anchor="middle">
	<text x="41.6" y="375">0
	</text>
	<text x="87.2" y="375">2
	</text>
	<text x="133" y="375">4
	</text>
	<text x="179" y="375">6
	</text>
	<text x="224" y="375">8
	</text>
	<text x="270" y="375">10
	</text>
	<text x="315" y="375">12
	</text>
	<text x="361" y="375">14
	</text>
	<text x="407" y="375">16
	</text>
	<text x="452" y="375">18
	</text>
	<text x="498" y="375">20
	</text>
	<text x="41.6" y="375">0
	</text>
</g>
	<g id="yTicksValues" font-size="12" font-family="Lucida Sans Unicode" text-anchor="end">
	<text x="28.2" y="359">0
	</text>
	<text x="28.2" y="218">2
	</text>
	<text x="28.2" y="76.4">4
	</text>
	<text x="28.2" y="359">0
	</text>
</g>
	<g id="yLabel">
	<text x="13.3" y="185" text-anchor="middle" transform="rotate(-90 13.3 185)" font-size="14" font-family="Lucida Sans Unicode">Y axis label font default size 14
	</text>
</g>
	<g id="xLabel">
	<text x="264" y="397" text-anchor="middle" font-size="12" font-family="Lucida Sans Unicode">X axis label font default size 14
	</text>
</g>
	<g id="plotPoints" clip-path="url(#plot_window)">
	<g stroke="rgb(255,0,0)" fill="rgb(255,255,255)" font-size="10" font-family="Lucida Sans Unicode" text-anchor="middle">
	<text x="58.4" y="294" text-anchor="middle">&#x25CF;
	</text>
	<text x="81.2" y="265" text-anchor="middle">&#x25CF;
	</text>
	<text x="104" y="242" text-anchor="middle">&#x25CF;
	</text>
	<text x="127" y="223" text-anchor="middle">&#x25CF;
	</text>
	<text x="150" y="207" text-anchor="middle">&#x25CF;
	</text>
	<text x="173" y="191" text-anchor="middle">&#x25CF;
	</text>
	<text x="195" y="178" text-anchor="middle">&#x25CF;
	</text>
	<text x="218" y="165" text-anchor="middle">&#x25CF;
	</text>
	<text x="241" y="152" text-anchor="middle">&#x25CF;
	</text>
	<text x="264" y="141" text-anchor="middle">&#x25CF;
	</text>
	<text x="287" y="130" text-anchor="middle">&#x25CF;
	</text>
	<text x="309" y="120" text-anchor="middle">&#x25CF;
	</text>
	<text x="332" y="110" text-anchor="middle">&#x25CF;
	</text>
	<text x="355" y="100" text-anchor="middle">&#x25CF;
	</text>
	<text x="378" y="90.7" text-anchor="middle">&#x25CF;
	</text>
	<text x="401" y="81.7" text-anchor="middle">&#x25CF;
	</text>
	<text x="424" y="73" text-anchor="middle">&#x25CF;
	</text>
	<text x="446" y="64.5" text-anchor="middle">&#x25CF;
	</text>
	<text x="469" y="56.3" text-anchor="middle">&#x25CF;
	</text>
</g>
</g>
	<g id="title">
	<text x="250" y="27" text-anchor="middle" font-size="18" font-family="Lucida Sans Unicode" font-weight="normal">
	</text>
</g>
	<g id="plotXValues">
</g>
	<g id="plotYValues">
</g>
</svg>
