<?xml version="1.0" encoding="UTF-8" standalone="no"?>
<svg width="500" height ="200" version="1.1"
xmlns:svg ="http://www.w3.org/2000/svg"
xmlns:rdf="http://www.w3.org/1999/02/22-rdf-syntax-ns#"
xmlns:cc="http://web.resource.org/cc/"
xmlns:dc="http://purl.org/dc/elements/1.1/"
xmlns ="http://www.w3.org/2000/svg"
>
<!-- SVG plot written using Boost.Plot program (Creator Jacob Voytko) --> 
<!-- Use, modification and distribution of Boost.Plot subject to the --> 
<!-- Boost Software License, Version 1.0.--> 
<!-- (See accompanying file LICENSE_1_0.txt --> 
<!-- or copy at http://www.boost.org/LICENSE_1_0.txt) --> 

<!-- File ./demo_1d_vector.svg --> 
<g id="imageBackground" stroke="rgb(0,0,255)" fill="rgb(255,255,255)" stroke-width="1"><rect x="0" y="0" width="500" height="200"/></g>
<g id="plotBackground" stroke="rgb(250,250,210)" fill="rgb(255,255,255)" stroke-width="1"><rect x="21" y="42.5" width="385" height="142"/></g>
<g id="xMinorGrid" stroke="rgb(200,220,255)" stroke-width="0.5"></g>
<g id="xMajorGrid" stroke="rgb(200,220,255)" stroke-width="1"></g>
<g id="xAxis" stroke="rgb(0,0,0)" stroke-width="1"><line x1="53.1" y1="42.5" x2="53.1" y2="184"/><line x1="21" y1="116" x2="406" y2="116"/></g>
<g id="xMinorTicks" stroke="rgb(0,0,0)" stroke-width="1"><path d="M66,116 L66,118 M78.8,116 L78.8,118 M91.6,116 L91.6,118 M104,116 L104,118 M130,116 L130,118 M143,116 L143,118 M156,116 L156,118 M169,116 L169,118 M194,116 L194,118 M207,116 L207,118 M220,116 L220,118 M233,116 L233,118 M259,116 L259,118 M271,116 L271,118 M284,116 L284,118 M297,116 L297,118 M323,116 L323,118 M336,116 L336,118 M349,116 L349,118 M361,116 L361,118 M387,116 L387,118 M400,116 L400,118 M40.3,116 L40.3,118 M27.4,116 L27.4,118 " fill="none"/></g>
<g id="xMajorTicks" stroke="rgb(0,0,0)" stroke-width="2"><path d="M53.1,116 L53.1,121 M117,116 L117,121 M182,116 L182,121 M246,116 L246,121 M310,116 L310,121 M374,116 L374,121 M53.1,116 L53.1,121 " fill="none"/></g>
<g id="xTicksValues">
<text x="117" y="134" text-anchor="middle" font-size="10" font-family="Verdana">2</text>
<text x="182" y="134" text-anchor="middle" font-size="10" font-family="Verdana">4</text>
<text x="246" y="134" text-anchor="middle" font-size="10" font-family="Verdana">6</text>
<text x="310" y="134" text-anchor="middle" font-size="10" font-family="Verdana">8</text>
<text x="374" y="134" text-anchor="middle" font-size="10" font-family="Verdana">10</text></g>
<g id="xLabel">
<text x="214" y="201" text-anchor="middle" font-size="10" font-family="Verdana"></text></g>
<g id="plotPoints"><g stroke="rgb(255,0,0)" fill="rgb(0,128,0)">
<text x="153" y="113" text-anchor="middle" font-size="10" font-family="Lucida Sans Unicode">&#x25CB;</text>
<text x="188" y="113" text-anchor="middle" font-size="10" font-family="Lucida Sans Unicode">&#x25CB;</text></g>
<g stroke="rgb(0,0,255)"><line x1="121" y1="115" x2="121" y2="105"/><line x1="304" y1="115" x2="304" y2="105"/></g>
</g>
<g id="legendBackground" stroke="rgb(255,255,0)" fill="rgb(255,255,255)" stroke-width="1"><rect x="412" y="42.5" width="78.6" height="47"/></g>
<g id="legendPoints"><g stroke="rgb(255,0,0)" fill="rgb(0,128,0)" stroke-width="2">
<text x="426" y="62.2" text-anchor="middle" font-size="10" font-family="Lucida Sans Unicode">&#x25CB;</text></g>
<g stroke="rgb(0,0,255)" stroke-width="2"><line x1="426" y1="77.5" x2="426" y2="67.5"/></g>
</g>
<g id="legendText">
<text x="448" y="61" font-size="10" font-family="Verdana">Dan</text>
<text x="448" y="73.5" font-size="10" font-family="Verdana">Elaine</text></g>
<g id="title">
<text x="250" y="22.5" text-anchor="middle" font-size="18" font-family="Verdana">Race Times</text></g>
</svg>
