<?xml version="1.0" encoding="UTF-8" standalone="no"?>
<svg width="500" height ="350" version="1.1"
xmlns:svg ="http://www.w3.org/2000/svg"
xmlns:rdf="http://www.w3.org/1999/02/22-rdf-syntax-ns#"
xmlns:cc="http://web.resource.org/cc/"
xmlns:dc="http://purl.org/dc/elements/1.1/"
xmlns ="http://www.w3.org/2000/svg"
>
<!-- SVG plot written using Boost.Plot program (Creator Jacob Voytko) --> 
<!-- Use, modification and distribution of Boost.Plot subject to the --> 
<!-- Boost Software License, Version 1.0.--> 
<!-- (See accompanying file LICENSE_1_0.txt --> 
<!-- or copy at http://www.boost.org/LICENSE_1_0.txt) --> 

<!-- File demo_boxplot_full.svg --> 
<clipPath id="plot_window">	<rect x="61.6" y="52" width="426" height="232"/>
</clipPath>
	<g id="imageBackground" stroke="rgb(0,0,139)" fill="rgb(240,255,255)" stroke-width="2">
	<rect x="0" y="0" width="500" height="350"/>
</g>
	<g id="plotBackground" stroke="rgb(255,255,0)" fill="rgb(255,255,255)" stroke-width="1">
	<rect x="66.6" y="57" width="421" height="227"/>
</g>
	<g id="X-axis" stroke="rgb(0,0,0)" stroke-width="1">
	<line x1="66.6" y1="284" x2="488" y2="284"/>
</g>
	<g id="Y-axis" stroke="rgb(0,0,0)" stroke-width="1">
	<line x1="66.6" y1="284" x2="66.6" y2="57"/>
</g>
	<g id="xMajorTicks" stroke="rgb(0,0,0)" stroke-width="1">
	<path d="M172,284 L172,289 
M277,284 L277,289 
M383,284 L383,289 
" fill="none"/>
</g>
	<g id="yMajorTicks" stroke="rgb(0,0,0)" stroke-width="2">
	<path d="M61.6,284 L66.6,284 
M61.6,238 L66.6,238 
M61.6,193 L66.6,193 
M61.6,148 L66.6,148 
M61.6,102 L66.6,102 
M61.6,57 L66.6,57 
M61.6,284 L66.6,284 
" fill="none"/>
</g>
	<g id="yMinorTicks" stroke="rgb(0,0,0)" stroke-width="1">
	<path d="M64.6,275 L66.6,275 
M64.6,265 L66.6,265 
M64.6,256 L66.6,256 
M64.6,247 L66.6,247 
M64.6,229 L66.6,229 
M64.6,220 L66.6,220 
M64.6,211 L66.6,211 
M64.6,202 L66.6,202 
M64.6,184 L66.6,184 
M64.6,175 L66.6,175 
M64.6,166 L66.6,166 
M64.6,157 L66.6,157 
M64.6,139 L66.6,139 
M64.6,130 L66.6,130 
M64.6,120 L66.6,120 
M64.6,111 L66.6,111 
M64.6,93.3 L66.6,93.3 
M64.6,84.2 L66.6,84.2 
M64.6,75.1 L66.6,75.1 
M64.6,66.1 L66.6,66.1 
M64.6,284 L66.6,284 
" fill="none"/>
</g>
	<g id="YGrid" stroke="rgb(200,220,255)" stroke-width="1">
</g>
	<g id="yMinorGrid" stroke="rgb(200,220,255)" stroke-width="0.5">
</g>
	<g id="valueLabels" fill="rgb(0,0,0)">
	<text x="172" y="308" text-anchor="middle" font-size="14" font-family="Lucida Sans Unicode">data1
	</text>
	<text x="277" y="308" text-anchor="middle" font-size="14" font-family="Lucida Sans Unicode">[50/x]
	</text>
	<text x="383" y="308" text-anchor="middle" font-size="14" font-family="Lucida Sans Unicode">[sin(x*50)]
	</text>
	<text x="55.6" y="286" text-anchor="end" font-size="12" font-family="Lucida Sans Unicode">0
	</text>
	<text x="55.6" y="241" text-anchor="end" font-size="12" font-family="Lucida Sans Unicode">20
	</text>
	<text x="55.6" y="195" text-anchor="end" font-size="12" font-family="Lucida Sans Unicode">40
	</text>
	<text x="55.6" y="150" text-anchor="end" font-size="12" font-family="Lucida Sans Unicode">60
	</text>
	<text x="55.6" y="105" text-anchor="end" font-size="12" font-family="Lucida Sans Unicode">80
	</text>
	<text x="55.6" y="59.4" text-anchor="end" font-size="12" font-family="Lucida Sans Unicode">100
	</text>
	<text x="55.6" y="286" text-anchor="end" font-size="12" font-family="Lucida Sans Unicode">0
	</text>
</g>
	<g id="yLabel" fill="rgb(0,0,0)">
	<text x="30.2" y="170" text-anchor="middle" transform="rotate(-90 30.2 170)" font-size="14" font-family="Lucida Sans Unicode">Population Size
	</text>
</g>
	<g id="xLabel" fill="rgb(0,0,0)">
	<text x="277" y="327" text-anchor="middle" font-size="14" font-family="Lucida Sans Unicode">Functions
	</text>
</g>
	<g id="boxAxis" stroke="rgb(0,0,0)">
	<g clip-path="url(#plot_window)" stroke="rgb(0,255,0)" stroke-width="1">
	<line x1="172" y1="272" x2="172" y2="196"/>
</g>
	<g clip-path="url(#plot_window)" stroke="rgb(255,165,0)" stroke-width="1">
	<line x1="277" y1="272" x2="277" y2="196"/>
</g>
	<g clip-path="url(#plot_window)" stroke="rgb(255,165,0)" stroke-width="1">
	<line x1="383" y1="250" x2="383" y2="136"/>
</g>
</g>
	<g id="Median" stroke="rgb(255,0,0)" stroke-width="2">
	<g clip-path="url(#plot_window)" stroke="rgb(255,0,255)" fill="rgb(255,255,0)" stroke-width="1">
	<rect x="167" y="239" width="10" height="29.6"/>
</g>
	<g clip-path="url(#plot_window)" stroke="rgb(0,0,255)" stroke-width="5">
	<line x1="167" y1="261" x2="176" y2="261"/>
</g>
	<g clip-path="url(#plot_window)" stroke="rgb(0,0,255)" fill="rgb(173,216,230)" stroke-width="1">
	<rect x="272" y="239" width="10" height="29.6"/>
</g>
	<g clip-path="url(#plot_window)" stroke="rgb(255,0,0)" stroke-width="4">
	<line x1="273" y1="261" x2="282" y2="261"/>
</g>
	<g clip-path="url(#plot_window)" stroke="rgb(0,0,255)" fill="rgb(173,216,230)" stroke-width="1">
	<rect x="378" y="154" width="10" height="79.2"/>
</g>
	<g clip-path="url(#plot_window)" stroke="rgb(255,0,0)" stroke-width="4">
	<line x1="378" y1="195" x2="387" y2="195"/>
</g>
</g>
	<g id="whisker" stroke="rgb(0,0,0)">
	<g clip-path="url(#plot_window)">
	<g stroke="rgb(255,0,0)" fill="rgb(0,0,0)" stroke-width="4">
	<line x1="147" y1="272" x2="197" y2="272"/>
</g>
	<g stroke="rgb(0,128,0)" fill="rgb(0,0,0)" stroke-width="7">
	<line x1="147" y1="196" x2="197" y2="196"/>
</g>
</g>
	<g clip-path="url(#plot_window)">
	<g stroke="rgb(255,0,255)" fill="rgb(0,0,0)" stroke-width="1">
	<line x1="265" y1="272" x2="290" y2="272"/>
</g>
	<g stroke="rgb(0,255,255)" fill="rgb(0,0,0)" stroke-width="1">
	<line x1="265" y1="196" x2="290" y2="196"/>
</g>
</g>
	<g clip-path="url(#plot_window)">
	<g stroke="rgb(255,0,255)" fill="rgb(0,0,0)" stroke-width="1">
	<line x1="370" y1="250" x2="395" y2="250"/>
</g>
	<g stroke="rgb(0,255,255)" fill="rgb(0,0,0)" stroke-width="1">
	<line x1="370" y1="136" x2="395" y2="136"/>
</g>
</g>
</g>
	<g id="mild_outliers" stroke="rgb(255,192,203)" fill="rgb(0,0,0)">
	<g clip-path="url(#plot_window)" stroke="rgb(0,0,255)" fill="rgb(255,255,0)">
	<text x="172" y="161" text-anchor="middle" font-size="10" font-family="Lucida Sans Unicode">&#x25BD;
	</text>
	<text x="172" y="173" text-anchor="middle" font-size="10" font-family="Lucida Sans Unicode">&#x25BD;
	</text>
	<text x="172" y="184" text-anchor="middle" font-size="10" font-family="Lucida Sans Unicode">&#x25BD;
	</text>
	<text x="172" y="192" text-anchor="middle" font-size="10" font-family="Lucida Sans Unicode">&#x25BD;
	</text>
</g>
	<g clip-path="url(#plot_window)" stroke="rgb(255,0,0)" fill="rgb(255,255,0)">
	<text x="277" y="159" text-anchor="middle" font-size="5" font-family="Lucida Sans Unicode">&#x25A0;
	</text>
	<text x="277" y="172" text-anchor="middle" font-size="5" font-family="Lucida Sans Unicode">&#x25A0;
	</text>
	<text x="277" y="182" text-anchor="middle" font-size="5" font-family="Lucida Sans Unicode">&#x25A0;
	</text>
	<text x="277" y="191" text-anchor="middle" font-size="5" font-family="Lucida Sans Unicode">&#x25A0;
	</text>
</g>
</g>
	<g id="extreme_outliers" stroke="rgb(128,0,128)" fill="rgb(255,255,255)">
	<g clip-path="url(#plot_window)" stroke="rgb(255,0,0)" fill="rgb(0,128,0)">
	<text x="172" y="59.9" text-anchor="middle">&#x25CF;
	</text>
	<text x="172" y="97.7" text-anchor="middle">&#x25CF;
	</text>
	<text x="172" y="125" text-anchor="middle">&#x25CF;
	</text>
	<text x="172" y="145" text-anchor="middle">&#x25CF;
	</text>
</g>
	<g clip-path="url(#plot_window)" stroke="rgb(165,42,42)">
	<text x="277" y="59.9" text-anchor="middle" font-size="10" font-family="Lucida Sans Unicode">&#x2666;
	</text>
	<text x="277" y="97.7" text-anchor="middle" font-size="10" font-family="Lucida Sans Unicode">&#x2666;
	</text>
	<text x="277" y="125" text-anchor="middle" font-size="10" font-family="Lucida Sans Unicode">&#x2666;
	</text>
	<text x="277" y="145" text-anchor="middle" font-size="10" font-family="Lucida Sans Unicode">&#x2666;
	</text>
</g>
</g>
	<g id="Data Values" fill="rgb(0,0,0)">
	<g clip-path="url(#plot_window)">
	<text x="182" y="264" font-size="10" font-family="Lucida Sans Unicode">9.9
	</text>
</g>
	<g>
	<text x="177" y="161" font-size="10" font-family="Lucida Sans Unicode">55.6
	</text>
</g>
	<g>
	<text x="177" y="173" font-size="10" font-family="Lucida Sans Unicode">50
	</text>
</g>
	<g>
	<text x="177" y="184" font-size="10" font-family="Lucida Sans Unicode">45.5
	</text>
</g>
	<g>
	<text x="177" y="192" font-size="10" font-family="Lucida Sans Unicode">41.7
	</text>
</g>
	<g>
	<text x="183" y="60" font-size="10" font-family="Lucida Sans Unicode">100
	</text>
</g>
	<g>
	<text x="183" y="97.8" font-size="10" font-family="Lucida Sans Unicode">83.3
	</text>
</g>
	<g>
	<text x="183" y="125" font-size="10" font-family="Lucida Sans Unicode">71.4
	</text>
</g>
	<g>
	<text x="183" y="145" font-size="10" font-family="Lucida Sans Unicode">62.5
	</text>
</g>
	<g clip-path="url(#plot_window)">
	<text x="287" y="264" font-size="10" font-family="Lucida Sans Unicode">9.9
	</text>
</g>
	<g>
	<text x="283" y="161" font-size="10" font-family="Lucida Sans Unicode">55.6
	</text>
</g>
	<g>
	<text x="283" y="173" font-size="10" font-family="Lucida Sans Unicode">50
	</text>
</g>
	<g>
	<text x="283" y="184" font-size="10" font-family="Lucida Sans Unicode">45.5
	</text>
</g>
	<g>
	<text x="283" y="192" font-size="10" font-family="Lucida Sans Unicode">41.7
	</text>
</g>
	<g>
	<text x="288" y="60" font-size="10" font-family="Lucida Sans Unicode">100
	</text>
</g>
	<g>
	<text x="288" y="97.8" font-size="10" font-family="Lucida Sans Unicode">83.3
	</text>
</g>
	<g>
	<text x="288" y="125" font-size="10" font-family="Lucida Sans Unicode">71.4
	</text>
</g>
	<g>
	<text x="288" y="145" font-size="10" font-family="Lucida Sans Unicode">62.5
	</text>
</g>
	<g clip-path="url(#plot_window)">
	<text x="393" y="198" font-size="10" font-family="Lucida Sans Unicode">38.9
	</text>
</g>
</g>
	<g id="title" fill="rgb(0,0,0)">
	<text x="250" y="36" text-anchor="middle" font-size="18" font-family="Lucida Sans Unicode">Boxplots of 1/x and sin(x) Functions
	</text>
</g>
</svg>
