<?xml version="1.0" encoding="UTF-8" standalone="no"?>
<svg width="500" height ="400" version="1.1"
xmlns:svg ="http://www.w3.org/2000/svg"
xmlns:rdf="http://www.w3.org/1999/02/22-rdf-syntax-ns#"
xmlns:cc="http://web.resource.org/cc/"
xmlns:dc="http://purl.org/dc/elements/1.1/"
xmlns ="http://www.w3.org/2000/svg"
>
<!-- SVG plot written using Boost.Plot program (Creator Jacob Voytko) --> 
<!-- Use, modification and distribution of Boost.Plot subject to the --> 
<!-- Boost Software License, Version 1.0.--> 
<!-- (See accompanying file LICENSE_1_0.txt --> 
<!-- or copy at http://www.boost.org/LICENSE_1_0.txt) --> 

<clipPath id="plot_window"><rect x="61.7" y="3.5" width="435" height="342"/></clipPath>
<g id="imageBackground" stroke="rgb(255,255,0)" fill="rgb(255,255,255)" stroke-width="2"><rect x="0" y="0" width="500" height="400"/></g>
<g id="plotBackground" stroke="rgb(119,136,153)" fill="rgb(255,255,255)" stroke-width="2"><rect x="60.7" y="2.5" width="437" height="344"/></g>
<g id="yMinorGrid" stroke="rgb(200,220,255)" stroke-width="0.5"></g>
<g id="yMajorGrid" stroke="rgb(200,220,255)" stroke-width="1"></g>
<g id="xMinorGrid" stroke="rgb(200,220,255)" stroke-width="0.5"></g>
<g id="xMajorGrid" stroke="rgb(200,220,255)" stroke-width="1"></g>
<g id="yAxis" stroke="rgb(0,0,0)" stroke-width="1"><line x1="162" y1="2.5" x2="162" y2="352"/><line x1="60.7" y1="2.5" x2="60.7" y2="347"/></g>
<g id="xAxis" stroke="rgb(0,0,0)" stroke-width="1"><line x1="55.7" y1="175" x2="498" y2="175"/><line x1="55.7" y1="347" x2="498" y2="347"/></g>
<g id="yMinorTicks" stroke="rgb(0,0,0)" stroke-width="1"><path d="M58.7,168 L60.7,168 M58.7,161 L60.7,161 M58.7,154 L60.7,154 M58.7,147 L60.7,147 M58.7,133 L60.7,133 M58.7,126 L60.7,126 M58.7,119 L60.7,119 M58.7,113 L60.7,113 M58.7,98.8 L60.7,98.8 M58.7,91.9 L60.7,91.9 M58.7,85.1 L60.7,85.1 M58.7,78.2 L60.7,78.2 M58.7,64.4 L60.7,64.4 M58.7,57.5 L60.7,57.5 M58.7,50.7 L60.7,50.7 M58.7,43.8 L60.7,43.8 M58.7,30 L60.7,30 M58.7,23.1 L60.7,23.1 M58.7,16.3 L60.7,16.3 M58.7,9.38 L60.7,9.38 M58.7,175 L60.7,175 M58.7,181 L60.7,181 M58.7,188 L60.7,188 M58.7,195 L60.7,195 M58.7,202 L60.7,202 M58.7,209 L60.7,209 M58.7,216 L60.7,216 M58.7,223 L60.7,223 M58.7,230 L60.7,230 M58.7,236 L60.7,236 M58.7,243 L60.7,243 M58.7,243 L60.7,243 M58.7,250 L60.7,250 M58.7,257 L60.7,257 M58.7,264 L60.7,264 M58.7,271 L60.7,271 M58.7,278 L60.7,278 M58.7,285 L60.7,285 M58.7,291 L60.7,291 M58.7,298 L60.7,298 M58.7,305 L60.7,305 M58.7,312 L60.7,312 M58.7,319 L60.7,319 M58.7,326 L60.7,326 M58.7,333 L60.7,333 M58.7,340 L60.7,340 M58.7,347 L60.7,347 " fill="none"/></g>
<g id="xMinorTicks" stroke="rgb(0,0,0)" stroke-width="1"><path d="M175,347 L175,349 M188,347 L188,349 M202,347 L202,349 M215,347 L215,349 M242,347 L242,349 M256,347 L256,349 M269,347 L269,349 M282,347 L282,349 M309,347 L309,349 M323,347 L323,349 M336,347 L336,349 M350,347 L350,349 M377,347 L377,349 M390,347 L390,349 M403,347 L403,349 M417,347 L417,349 M444,347 L444,349 M457,347 L457,349 M471,347 L471,349 M484,347 L484,349 M148,347 L148,349 M135,347 L135,349 M121,347 L121,349 M108,347 L108,349 M80.9,347 L80.9,349 M67.4,347 L67.4,349 " fill="none"/></g>
<g id="yMajorTicks" stroke="rgb(0,0,0)" stroke-width="2"><path d="M55.7,175 L60.7,175 M55.7,140 L60.7,140 M55.7,106 L60.7,106 M55.7,71.3 L60.7,71.3 M55.7,36.9 L60.7,36.9 M55.7,2.5 L60.7,2.5 M55.7,175 L60.7,175 M55.7,209 L60.7,209 M55.7,243 L60.7,243 M55.7,278 L60.7,278 M55.7,312 L60.7,312 M55.7,347 L60.7,347 " fill="none"/></g>
<g id="xMajorTicks" stroke="rgb(0,0,0)" stroke-width="2"><path d="M162,347 L162,352 M229,347 L229,352 M296,347 L296,352 M363,347 L363,352 M430,347 L430,352 M498,347 L498,352 M162,347 L162,352 M94.3,347 L94.3,352 " fill="none"/></g>
<g id="xTicksValues">
<text x="162" y="367" text-anchor="middle" font-size="12" font-family="Lucida Sans Unicode">0</text>
<text x="229" y="367" text-anchor="middle" font-size="12" font-family="Lucida Sans Unicode">2</text>
<text x="296" y="367" text-anchor="middle" font-size="12" font-family="Lucida Sans Unicode">4</text>
<text x="363" y="367" text-anchor="middle" font-size="12" font-family="Lucida Sans Unicode">6</text>
<text x="430" y="367" text-anchor="middle" font-size="12" font-family="Lucida Sans Unicode">8</text>
<text x="498" y="367" text-anchor="middle" font-size="12" font-family="Lucida Sans Unicode">10</text>
<text x="162" y="367" text-anchor="middle" font-size="12" font-family="Lucida Sans Unicode">0</text>
<text x="94.3" y="367" text-anchor="middle" font-size="12" font-family="Lucida Sans Unicode">-2</text></g>
<g id="yTicksValues">
<text x="49.7" y="177" text-anchor="end" font-size="12" font-family="Lucida Sans Unicode">0</text>
<text x="49.7" y="143" text-anchor="end" font-size="12" font-family="Lucida Sans Unicode">2</text>
<text x="49.7" y="108" text-anchor="end" font-size="12" font-family="Lucida Sans Unicode">4</text>
<text x="49.7" y="73.7" text-anchor="end" font-size="12" font-family="Lucida Sans Unicode">6</text>
<text x="49.7" y="39.3" text-anchor="end" font-size="12" font-family="Lucida Sans Unicode">8</text>
<text x="49.7" y="4.9" text-anchor="end" font-size="12" font-family="Lucida Sans Unicode">10</text>
<text x="49.7" y="177" text-anchor="end" font-size="12" font-family="Lucida Sans Unicode">0</text>
<text x="49.7" y="211" text-anchor="end" font-size="12" font-family="Lucida Sans Unicode">-2</text>
<text x="49.7" y="246" text-anchor="end" font-size="12" font-family="Lucida Sans Unicode">-4</text>
<text x="49.7" y="280" text-anchor="end" font-size="12" font-family="Lucida Sans Unicode">-6</text>
<text x="49.7" y="315" text-anchor="end" font-size="12" font-family="Lucida Sans Unicode">-8</text>
<text x="49.7" y="349" text-anchor="end" font-size="12" font-family="Lucida Sans Unicode">-10</text></g>
<g id="yLabel">
<text x="19.4" y="175" text-anchor="middle" transform = "rotate(-90 19.4 175 )" font-size="14" font-family="Lucida Sans Unicode">distance (km)</text></g>
<g id="xLabel">
<text x="279" y="382" text-anchor="middle" font-size="14" font-family="Lucida Sans Unicode">times (sec)</text></g>
<g id="plotUnc3" stroke="none" fill="rgb(230,240,255)" stroke-width="1"><ellipse cx="86.4" cy="325" rx="3.02" ry="46.4"/><ellipse cx="203" cy="115" rx="56.4" ry="34.6"/><ellipse cx="299" cy="121" rx="40.3" ry="15.5"/></g>
<g id="plotUnc2" stroke="none" fill="rgb(200,230,255)" stroke-width="1"><ellipse cx="86.4" cy="325" rx="2.02" ry="31"/><ellipse cx="203" cy="115" rx="37.6" ry="23"/><ellipse cx="299" cy="121" rx="26.9" ry="10.3"/></g>
<g id="plotUnc1" stroke="none" fill="rgb(173,216,230)" stroke-width="1"><ellipse cx="86.4" cy="325" rx="1.01" ry="15.5"/><ellipse cx="203" cy="115" rx="18.8" ry="11.5"/><ellipse cx="299" cy="121" rx="13.4" ry="5.16"/></g>
<g id="plotPoints" clip-path="url(#plot_window)"><g stroke="rgb(0,0,0)" fill="rgb(255,255,255)"><circle cx="86.4" cy="325" r="1"/><circle cx="203" cy="115" r="1"/><circle cx="299" cy="121" r="1"/></g>
</g>
<g id="title">
<text x="250" y="36" text-anchor="middle" font-size="18" font-family="Lucida Sans Unicode"></text></g>
<g id="plotXValues"><g>
<text x="91.4" y="322" transform = "rotate(-30 91.4 322 )" font-size="16" font-family="Times New Roman">-2.23<tspan fill="rgb(0,255,255)" font-size="16" font-family="Times New Roman">&#x00A0;&#x00B1;</tspan><tspan fill="rgb(0,255,255)" font-size="14" font-family="Times New Roman">0.03</tspan><tspan fill="rgb(128,0,128)" font-size="14" font-family="Times New Roman"> &lt;-2.26, -2.2&gt;</tspan><tspan fill="rgb(255,0,255)" font-size="14" font-family="Times New Roman">&#x00A0;(7)</tspan><tspan fill="rgb(0,0,0)" font-size="16" font-family="Times New Roman"></tspan></text></g>
<g>
<text x="208" y="112" transform = "rotate(-30 208 112 )" font-size="16" font-family="Times New Roman">1.23<tspan fill="rgb(0,255,255)" font-size="16" font-family="Times New Roman">&#x00A0;&#x00B1;</tspan><tspan fill="rgb(0,255,255)" font-size="14" font-family="Times New Roman">0.56</tspan><tspan fill="rgb(128,0,128)" font-size="14" font-family="Times New Roman"> &lt;0.7, 1.8&gt;</tspan><tspan fill="rgb(255,0,255)" font-size="14" font-family="Times New Roman">&#x00A0;(7)</tspan><tspan fill="rgb(0,0,0)" font-size="16" font-family="Times New Roman"></tspan></text></g>
<g>
<text x="304" y="118" transform = "rotate(-30 304 118 )" font-size="16" font-family="Times New Roman">4.1<tspan fill="rgb(0,255,255)" font-size="16" font-family="Times New Roman">&#x00A0;&#x00B1;</tspan><tspan fill="rgb(0,255,255)" font-size="14" font-family="Times New Roman">0.4</tspan><tspan fill="rgb(128,0,128)" font-size="14" font-family="Times New Roman"> &lt;3.7, 4.5&gt;</tspan><tspan fill="rgb(255,0,255)" font-size="14" font-family="Times New Roman">&#x00A0;(7)</tspan><tspan fill="rgb(0,0,0)" font-size="16" font-family="Times New Roman"></tspan></text></g>
</g>
<g id="plotYValues"><g>
<text x="91.4" y="337" transform = "rotate(-30 91.4 337 )" font-size="12" font-family="Arial">&#x00A0;&#x00A0;&#x00A0;-8.76<tspan fill="rgb(255,0,0)" font-size="10" font-family="arial">&#x00A0;&#x00B1;</tspan><tspan fill="rgb(255,0,0)" font-size="10" font-family="Arial">&#x00A0;0.9</tspan><tspan fill="rgb(0,100,0)" font-size="10" font-family="Arial"> &lt;-9.5, -8&gt;</tspan><tspan fill="rgb(0,128,0)" font-size="10" font-family="Arial">&#x00A0;(9)</tspan><tspan fill="rgb(0,0,0)" font-size="12" font-family="Arial">&#x00A0;sec</tspan></text></g>
<g>
<text x="208" y="127" transform = "rotate(-30 208 127 )" font-size="12" font-family="Arial">&#x00A0;&#x00A0;&#x00A0;3.45<tspan fill="rgb(255,0,0)" font-size="10" font-family="arial">&#x00A0;&#x00B1;</tspan><tspan fill="rgb(255,0,0)" font-size="10" font-family="Arial">&#x00A0;0.67</tspan><tspan fill="rgb(0,100,0)" font-size="10" font-family="Arial"> &lt;2.9, 4&gt;</tspan><tspan fill="rgb(0,128,0)" font-size="10" font-family="Arial">&#x00A0;(9)</tspan><tspan fill="rgb(0,0,0)" font-size="12" font-family="Arial">&#x00A0;sec</tspan></text></g>
<g>
<text x="304" y="133" transform = "rotate(-30 304 133 )" font-size="12" font-family="Arial">&#x00A0;&#x00A0;&#x00A0;3.1<tspan fill="rgb(255,0,0)" font-size="10" font-family="arial">&#x00A0;&#x00B1;</tspan><tspan fill="rgb(255,0,0)" font-size="10" font-family="Arial">&#x00A0;0.3</tspan><tspan fill="rgb(0,100,0)" font-size="10" font-family="Arial"> &lt;2.9, 3.3&gt;</tspan><tspan fill="rgb(0,128,0)" font-size="10" font-family="Arial">&#x00A0;(18)</tspan><tspan fill="rgb(0,0,0)" font-size="12" font-family="Arial">&#x00A0;sec</tspan></text></g>
</g>
</svg>
