<?xml version="1.0" encoding="UTF-8" standalone="no"?>
<svg width="400" height ="300" version="1.1"
xmlns:svg ="http://www.w3.org/2000/svg"
xmlns:rdf="http://www.w3.org/1999/02/22-rdf-syntax-ns#"
xmlns:cc="http://web.resource.org/cc/"
xmlns:dc="http://purl.org/dc/elements/1.1/"
xmlns ="http://www.w3.org/2000/svg"
>
<!-- SVG plot written using Boost.Plot program (Creator Jacob Voytko) --> 
<!-- Use, modification and distribution of Boost.Plot subject to the --> 
<!-- Boost Software License, Version 1.0.--> 
<!-- (See accompanying file LICENSE_1_0.txt --> 
<!-- or copy at http://www.boost.org/LICENSE_1_0.txt) --> 

<clipPath id="plot_window"><rect x="57.2" y="9" width="316" height="259"/></clipPath>
<g id="imageBackground" stroke="rgb(255,255,0)" fill="rgb(255,255,255)" stroke-width="2"><rect x="0" y="0" width="400" height="300"/></g>
<g id="plotBackground" stroke="rgb(119,136,153)" fill="rgb(255,255,255)" stroke-width="2"><rect x="56.2" y="8" width="318" height="261"/></g>
<g id="yMinorGrid" stroke="rgb(200,220,255)" stroke-width="0.5"></g>
<g id="yMajorGrid" stroke="rgb(200,220,255)" stroke-width="1"></g>
<g id="xMinorGrid" stroke="rgb(200,220,255)" stroke-width="0.5"></g>
<g id="xMajorGrid" stroke="rgb(200,220,255)" stroke-width="1"></g>
<g id="yAxis" stroke="rgb(0,0,0)" stroke-width="1"><line x1="215" y1="8" x2="215" y2="274"/><line x1="56.2" y1="8" x2="56.2" y2="269"/></g>
<g id="xAxis" stroke="rgb(0,0,0)" stroke-width="1"><line x1="51.2" y1="139" x2="374" y2="139"/><line x1="51.2" y1="269" x2="374" y2="269"/></g>
<g id="yMinorTicks" stroke="rgb(0,0,0)" stroke-width="1"><path d="M54.2,133 L56.2,133 M54.2,128 L56.2,128 M54.2,123 L56.2,123 M54.2,118 L56.2,118 M54.2,107 L56.2,107 M54.2,102 L56.2,102 M54.2,96.7 L56.2,96.7 M54.2,91.5 L56.2,91.5 M54.2,81.1 L56.2,81.1 M54.2,75.9 L56.2,75.9 M54.2,70.6 L56.2,70.6 M54.2,65.4 L56.2,65.4 M54.2,55 L56.2,55 M54.2,49.8 L56.2,49.8 M54.2,44.5 L56.2,44.5 M54.2,39.3 L56.2,39.3 M54.2,28.9 L56.2,28.9 M54.2,23.7 L56.2,23.7 M54.2,18.4 L56.2,18.4 M54.2,13.2 L56.2,13.2 M54.2,139 L56.2,139 M54.2,144 L56.2,144 M54.2,149 L56.2,149 M54.2,154 L56.2,154 M54.2,159 L56.2,159 M54.2,165 L56.2,165 M54.2,170 L56.2,170 M54.2,175 L56.2,175 M54.2,180 L56.2,180 M54.2,185 L56.2,185 M54.2,191 L56.2,191 M54.2,191 L56.2,191 M54.2,196 L56.2,196 M54.2,201 L56.2,201 M54.2,206 L56.2,206 M54.2,212 L56.2,212 M54.2,217 L56.2,217 M54.2,222 L56.2,222 M54.2,227 L56.2,227 M54.2,232 L56.2,232 M54.2,238 L56.2,238 M54.2,243 L56.2,243 M54.2,248 L56.2,248 M54.2,253 L56.2,253 M54.2,259 L56.2,259 M54.2,264 L56.2,264 M54.2,269 L56.2,269 " fill="none"/></g>
<g id="xMinorTicks" stroke="rgb(0,0,0)" stroke-width="1"><path d="M221,269 L221,271 M228,269 L228,271 M234,269 L234,271 M241,269 L241,271 M253,269 L253,271 M260,269 L260,271 M266,269 L266,271 M272,269 L272,271 M285,269 L285,271 M291,269 L291,271 M298,269 L298,271 M304,269 L304,271 M317,269 L317,271 M323,269 L323,271 M330,269 L330,271 M336,269 L336,271 M349,269 L349,271 M355,269 L355,271 M361,269 L361,271 M368,269 L368,271 M209,269 L209,271 M202,269 L202,271 M196,269 L196,271 M190,269 L190,271 M177,269 L177,271 M171,269 L171,271 M164,269 L164,271 M158,269 L158,271 M145,269 L145,271 M139,269 L139,271 M132,269 L132,271 M126,269 L126,271 M113,269 L113,271 M107,269 L107,271 M101,269 L101,271 M94.3,269 L94.3,271 M81.6,269 L81.6,271 M75.3,269 L75.3,271 M68.9,269 L68.9,271 M62.6,269 L62.6,271 " fill="none"/></g>
<g id="yMajorTicks" stroke="rgb(0,0,0)" stroke-width="2"><path d="M51.2,139 L56.2,139 M51.2,112 L56.2,112 M51.2,86.3 L56.2,86.3 M51.2,60.2 L56.2,60.2 M51.2,34.1 L56.2,34.1 M51.2,8 L56.2,8 M51.2,139 L56.2,139 M51.2,165 L56.2,165 M51.2,191 L56.2,191 M51.2,217 L56.2,217 M51.2,243 L56.2,243 M51.2,269 L56.2,269 " fill="none"/></g>
<g id="xMajorTicks" stroke="rgb(0,0,0)" stroke-width="2"><path d="M215,269 L215,274 M247,269 L247,274 M279,269 L279,274 M310,269 L310,274 M342,269 L342,274 M374,269 L374,274 M215,269 L215,274 M183,269 L183,274 M152,269 L152,274 M120,269 L120,274 M88,269 L88,274 M56.2,269 L56.2,274 " fill="none"/></g>
<g id="xTicksValues">
<text x="215" y="290" text-anchor="middle" font-size="12" font-family="Lucida Sans Unicode">0</text>
<text x="247" y="290" text-anchor="middle" font-size="12" font-family="Lucida Sans Unicode">2</text>
<text x="279" y="290" text-anchor="middle" font-size="12" font-family="Lucida Sans Unicode">4</text>
<text x="310" y="290" text-anchor="middle" font-size="12" font-family="Lucida Sans Unicode">6</text>
<text x="342" y="290" text-anchor="middle" font-size="12" font-family="Lucida Sans Unicode">8</text>
<text x="374" y="290" text-anchor="middle" font-size="12" font-family="Lucida Sans Unicode">10</text>
<text x="215" y="290" text-anchor="middle" font-size="12" font-family="Lucida Sans Unicode">0</text>
<text x="183" y="290" text-anchor="middle" font-size="12" font-family="Lucida Sans Unicode">-2</text>
<text x="152" y="290" text-anchor="middle" font-size="12" font-family="Lucida Sans Unicode">-4</text>
<text x="120" y="290" text-anchor="middle" font-size="12" font-family="Lucida Sans Unicode">-6</text>
<text x="88" y="290" text-anchor="middle" font-size="12" font-family="Lucida Sans Unicode">-8</text>
<text x="56.2" y="290" text-anchor="middle" font-size="12" font-family="Lucida Sans Unicode">-10</text></g>
<g id="yTicksValues">
<text x="45.2" y="141" text-anchor="end" font-size="12" font-family="Lucida Sans Unicode">0</text>
<text x="45.2" y="115" text-anchor="end" font-size="12" font-family="Lucida Sans Unicode">2</text>
<text x="45.2" y="88.7" text-anchor="end" font-size="12" font-family="Lucida Sans Unicode">4</text>
<text x="45.2" y="62.6" text-anchor="end" font-size="12" font-family="Lucida Sans Unicode">6</text>
<text x="45.2" y="36.5" text-anchor="end" font-size="12" font-family="Lucida Sans Unicode">8</text>
<text x="45.2" y="10.4" text-anchor="end" font-size="12" font-family="Lucida Sans Unicode">10</text>
<text x="45.2" y="141" text-anchor="end" font-size="12" font-family="Lucida Sans Unicode">0</text>
<text x="45.2" y="167" text-anchor="end" font-size="12" font-family="Lucida Sans Unicode">-2</text>
<text x="45.2" y="193" text-anchor="end" font-size="12" font-family="Lucida Sans Unicode">-4</text>
<text x="45.2" y="219" text-anchor="end" font-size="12" font-family="Lucida Sans Unicode">-6</text>
<text x="45.2" y="245" text-anchor="end" font-size="12" font-family="Lucida Sans Unicode">-8</text>
<text x="45.2" y="271" text-anchor="end" font-size="12" font-family="Lucida Sans Unicode">-10</text></g>
<g id="yLabel">
<text x="14.9" y="139" text-anchor="middle" transform = "rotate(-90 14.9 139 )" font-size="14" font-family="Lucida Sans Unicode"></text></g>
<g id="xLabel">
<text x="215" y="305" text-anchor="middle" font-size="14" font-family="Lucida Sans Unicode"></text></g>
<g id="plotPoints" clip-path="url(#plot_window)"><g stroke="rgb(0,0,0)" fill="rgb(255,0,0)"><circle cx="219" cy="120" r="2"/><circle cx="233" cy="96.7" r="2"/><circle cx="283" cy="98" r="2"/></g>
</g>
<g id="title">
<text x="200" y="36" text-anchor="middle" font-size="18" font-family="Lucida Sans Unicode"></text></g>
<g id="plotXValues"></g>
<g id="plotYValues"></g>
<g fill="rgb(0,0,0)">
<text x="150" y="200" text-anchor="middle" font-size="12" font-family="Lucida Sans Unicode">My 1st Note</text></g>
<g fill="rgb(0,0,0)">
<text x="40" y="10" text-anchor="middle" font-size="12" font-family="Lucida Sans Unicode">top left (0, 0)</text></g>
<g fill="rgb(0,0,0)">
<text x="390" y="290" text-anchor="middle" font-size="12" font-family="Lucida Sans Unicode">bottom right(380, 280)</text></g>
<g fill="rgb(0,0,0)">
<text x="150" y="100" text-anchor="middle" font-size="12" font-family="Lucida Sans Unicode">Greek Unicode &#x3A9;&#x3A6;&#x221A;&#x00a0;&#x221E;&#x3B6; &#x00B1;</text></g>
<g fill="rgb(0,0,0)">
<text x="350" y="70" text-anchor="end" transform = "rotate(-30 350 70 )" font-size="16" font-family="verdana" font-style="bold" font-weight="italic">My 2nd Note</text></g>
<g fill="rgb(255,0,0)">
<text x="350" y="170" transform = "rotate(180 350 170 )" font-size="16" font-family="arial" font-style="bold" font-weight="italic">Red Note</text></g>
<g fill="rgb(0,0,255)">
<text x="300" y="210" text-anchor="middle" transform = "rotate(-60 300 210 )" font-size="12" font-family="Lucida Sans Unicode">Blue Note</text></g>
</svg>
