<?xml version="1.0" encoding="UTF-8" standalone="no"?>
<svg width="500" height ="200" version="1.1"
xmlns:svg ="http://www.w3.org/2000/svg"
xmlns:rdf="http://www.w3.org/1999/02/22-rdf-syntax-ns#"
xmlns:cc="http://web.resource.org/cc/"
xmlns:dc="http://purl.org/dc/elements/1.1/"
xmlns ="http://www.w3.org/2000/svg"
>
<!-- SVG plot written using Boost.Plot program (Creator Jacob Voytko) --> 
<!-- Use, modification and distribution of Boost.Plot subject to the --> 
<!-- Boost Software License, Version 1.0.--> 
<!-- (See accompanying file LICENSE_1_0.txt --> 
<!-- or copy at http://www.boost.org/LICENSE_1_0.txt) --> 

<!-- File ./demo_1d_x_external.svg --> 
<g id="imageBackground" stroke="rgb(0,0,0)" fill="rgb(255,255,255)" stroke-width="1"><rect x="0" y="0" width="500" height="200"/></g>
<g id="plotBackground" stroke="rgb(250,250,210)" fill="rgb(255,255,255)" stroke-width="1"><rect x="21" y="42.5" width="399" height="142"/></g>
<g id="xMinorGrid" stroke="rgb(211,211,211)" stroke-width="0.5"><path d="M71.8,43.5 L71.8,183 M86.3,43.5 L86.3,183 M101,43.5 L101,183 M115,43.5 L115,183 M144,43.5 L144,183 M159,43.5 L159,183 M173,43.5 L173,183 M188,43.5 L188,183 M217,43.5 L217,183 M231,43.5 L231,183 M246,43.5 L246,183 M260,43.5 L260,183 M289,43.5 L289,183 M304,43.5 L304,183 M318,43.5 L318,183 M333,43.5 L333,183 M362,43.5 L362,183 M376,43.5 L376,183 M391,43.5 L391,183 M405,43.5 L405,183 M42.8,43.5 L42.8,183 M28.3,43.5 L28.3,183 " fill="none"/></g>
<g id="xMajorGrid" stroke="rgb(255,192,203)" stroke-width="1"><path d="M57.3,42.5 L57.3,184 M130,42.5 L130,184 M202,42.5 L202,184 M275,42.5 L275,184 M347,42.5 L347,184 M420,42.5 L420,184 M57.3,42.5 L57.3,184 " fill="none"/></g>
<g id="xAxis" stroke="rgb(0,0,0)" stroke-width="1"><line x1="57.3" y1="42.5" x2="57.3" y2="184"/><line x1="21" y1="116" x2="420" y2="116"/><line x1="21" y1="42.5" x2="420" y2="42.5"/></g>
<g id="xMinorTicks" stroke="rgb(0,0,0)" stroke-width="1"><path d="M71.8,42.5 L71.8,44.5 M86.3,42.5 L86.3,44.5 M101,42.5 L101,44.5 M115,42.5 L115,44.5 M144,42.5 L144,44.5 M159,42.5 L159,44.5 M173,42.5 L173,44.5 M188,42.5 L188,44.5 M217,42.5 L217,44.5 M231,42.5 L231,44.5 M246,42.5 L246,44.5 M260,42.5 L260,44.5 M289,42.5 L289,44.5 M304,42.5 L304,44.5 M318,42.5 L318,44.5 M333,42.5 L333,44.5 M362,42.5 L362,44.5 M376,42.5 L376,44.5 M391,42.5 L391,44.5 M405,42.5 L405,44.5 M42.8,42.5 L42.8,44.5 M28.3,42.5 L28.3,44.5 " fill="none"/></g>
<g id="xMajorTicks" stroke="rgb(0,0,0)" stroke-width="2"><path d="M57.3,42.5 L57.3,47.5 M130,42.5 L130,47.5 M202,42.5 L202,47.5 M275,42.5 L275,47.5 M347,42.5 L347,47.5 M420,42.5 L420,47.5 M57.3,42.5 L57.3,47.5 " fill="none"/></g>
<g id="xTicksValues">
<text x="57.3" y="60.5" text-anchor="middle" font-size="10" font-family="Verdana">0</text>
<text x="130" y="60.5" text-anchor="middle" font-size="10" font-family="Verdana">2</text>
<text x="202" y="60.5" text-anchor="middle" font-size="10" font-family="Verdana">4</text>
<text x="275" y="60.5" text-anchor="middle" font-size="10" font-family="Verdana">6</text>
<text x="347" y="60.5" text-anchor="middle" font-size="10" font-family="Verdana">8</text>
<text x="420" y="60.5" text-anchor="middle" font-size="10" font-family="Verdana">10</text>
<text x="57.3" y="60.5" text-anchor="middle" font-size="10" font-family="Verdana">0</text></g>
<g id="xLabel">
<text x="220" y="201" text-anchor="middle" font-size="10" font-family="Verdana"></text></g>
<g id="plotPoints"><g stroke="rgb(0,0,255)"><line x1="170" y1="115" x2="170" y2="105"/><line x1="210" y1="115" x2="210" y2="105"/></g>
<g stroke="rgb(255,165,0)"><line x1="133" y1="115" x2="133" y2="105"/><line x1="340" y1="115" x2="340" y2="105"/></g>
</g>
<g id="legendBackground" stroke="rgb(255,255,0)" fill="rgb(255,255,255)" stroke-width="1"><rect x="426" y="42.5" width="64.5" height="47"/></g>
<g id="legendPoints"><g stroke="rgb(0,0,255)"><line x1="438" y1="65" x2="438" y2="55"/></g>
<g stroke="rgb(255,165,0)"><line x1="438" y1="77.5" x2="438" y2="67.5"/></g>
</g>
<g id="legendText">
<text x="446" y="61" font-size="10" font-family="Verdana">Dan</text>
<text x="446" y="73.5" font-size="10" font-family="Verdana">Elaine</text></g>
<g id="title">
<text x="250" y="27" text-anchor="middle" font-size="18" font-family="Verdana">Race Times</text></g>
</svg>
