<?xml version="1.0" encoding="UTF-8" standalone="no"?>
<svg width="700" height ="500" version="1.1"
xmlns:svg ="http://www.w3.org/2000/svg"
xmlns:rdf="http://www.w3.org/1999/02/22-rdf-syntax-ns#"
xmlns:cc="http://web.resource.org/cc/"
xmlns:dc="http://purl.org/dc/elements/1.1/"
xmlns ="http://www.w3.org/2000/svg"
>
<!-- SVG plot written using Boost.Plot program (Creator Jacob Voytko) --> 
<!-- Use, modification and distribution of Boost.Plot subject to the --> 
<!-- Boost Software License, Version 1.0.--> 
<!-- (See accompanying file LICENSE_1_0.txt --> 
<!-- or copy at http://www.boost.org/LICENSE_1_0.txt) --> 

<clipPath id="plot_window"><rect x="54.5" y="44" width="523" height="404"/></clipPath>
<g id="imageBackground" stroke="rgb(255,255,0)" fill="rgb(248,248,255)" stroke-width="2"><rect x="0" y="0" width="700" height="500"/></g>
<g id="plotBackground" stroke="rgb(0,128,0)" fill="rgb(255,255,255)" stroke-width="1"><rect x="53.5" y="43" width="525" height="406"/></g>
<g id="yMinorGrid" stroke="rgb(240,240,255)" stroke-width="1"><path d="M54.5,434 L578,434 M54.5,374 L578,374 M54.5,344 L578,344 M54.5,284 L578,284 M54.5,254 L578,254 M54.5,193 L578,193 M54.5,163 L578,163 M54.5,103 L578,103 M54.5,73.1 L578,73.1 " fill="none"/></g>
<g id="yMajorGrid" stroke="rgb(200,220,255)" stroke-width="2"><path d="M54.5,404 L578,404 M54.5,314 L578,314 M54.5,223 L578,223 M54.5,133 L578,133 M54.5,43 L578,43 " fill="none"/></g>
<g id="xMinorGrid" stroke="rgb(240,240,255)" stroke-width="0.5"><path d="M133,44 L133,448 M165,44 L165,448 M229,44 L229,448 M260,44 L260,448 M324,44 L324,448 M356,44 L356,448 M420,44 L420,448 M451,44 L451,448 M515,44 L515,448 M547,44 L547,448 M69.4,44 L69.4,448 " fill="none"/></g>
<g id="xMajorGrid" stroke="rgb(200,220,255)" stroke-width="1"><path d="M101,43 L101,449 M197,43 L197,449 M292,43 L292,449 M388,43 L388,449 M483,43 L483,449 M579,43 L579,449 M101,43 L101,449 " fill="none"/></g>
<g id="yAxis" stroke="rgb(0,0,0)" stroke-width="1"><line x1="101" y1="43" x2="101" y2="449"/><line x1="579" y1="43" x2="579" y2="449"/></g>
<g id="xAxis" stroke="rgb(0,0,0)" stroke-width="1"><line x1="53.5" y1="449" x2="579" y2="449"/></g>
<g id="yMinorTicks" stroke="rgb(0,0,0)" stroke-width="1"><path d="M96.2,434 L101,434 M96.2,374 L101,374 M96.2,344 L101,344 M96.2,284 L101,284 M96.2,254 L101,254 M96.2,193 L101,193 M96.2,163 L101,163 M96.2,103 L101,103 M96.2,73.1 L101,73.1 " fill="none"/></g>
<g id="xMinorTicks" stroke="rgb(0,0,0)" stroke-width="1"><path d="M133,449 L133,454 M165,449 L165,454 M229,449 L229,454 M260,449 L260,454 M324,449 L324,454 M356,449 L356,454 M420,449 L420,454 M451,449 L451,454 M515,449 L515,454 M547,449 L547,454 M69.4,449 L69.4,454 " fill="none"/></g>
<g id="yMajorTicks" stroke="rgb(0,0,0)" stroke-width="2"><path d="M91.2,404 L101,404 M91.2,314 L101,314 M91.2,223 L101,223 M91.2,133 L101,133 M91.2,43 L101,43 " fill="none"/></g>
<g id="xMajorTicks" stroke="rgb(0,0,0)" stroke-width="2"><path d="M101,449 L101,459 M197,449 L197,459 M292,449 L292,459 M388,449 L388,459 M483,449 L483,459 M579,449 L579,459 M101,449 L101,459 " fill="none"/></g>
<g id="xTicksValues">
<text x="101" y="475" text-anchor="middle" font-size="12" font-family="Lucida Sans Unicode">0.00</text>
<text x="197" y="475" text-anchor="middle" font-size="12" font-family="Lucida Sans Unicode">2.00</text>
<text x="292" y="475" text-anchor="middle" font-size="12" font-family="Lucida Sans Unicode">4.00</text>
<text x="388" y="475" text-anchor="middle" font-size="12" font-family="Lucida Sans Unicode">6.00</text>
<text x="483" y="475" text-anchor="middle" font-size="12" font-family="Lucida Sans Unicode">8.00</text>
<text x="579" y="475" text-anchor="middle" font-size="12" font-family="Lucida Sans Unicode">1.00e1</text>
<text x="101" y="475" text-anchor="middle" font-size="12" font-family="Lucida Sans Unicode">0.00</text></g>
<g id="yTicksValues">
<text x="85.2" y="406" text-anchor="end" font-size="12" font-family="Lucida Sans Unicode">2.0</text>
<text x="85.2" y="316" text-anchor="end" font-size="12" font-family="Lucida Sans Unicode">4.0</text>
<text x="85.2" y="226" text-anchor="end" font-size="12" font-family="Lucida Sans Unicode">6.0</text>
<text x="85.2" y="136" text-anchor="end" font-size="12" font-family="Lucida Sans Unicode">8.0</text>
<text x="85.2" y="45.4" text-anchor="end" font-size="12" font-family="Lucida Sans Unicode">10.0</text></g>
<g id="yLabel">
<text x="19" y="246" text-anchor="middle" transform = "rotate(-90 19 246 )" font-size="14" font-family="Lucida Sans Unicode">Y-axis</text></g>
<g id="xLabel">
<text x="316" y="488" text-anchor="middle" font-size="12" font-family="Lucida Sans Unicode">X-axis</text></g>
<g id="plotLines" stroke-width="2"><g clip-path="url(#plot_window)" stroke="rgb(0,0,0)" stroke-width="2"><path d="M-376,-3.93e+03 S-338,-3.23e+03 -328,-3.07e+03 S-290,-2.45e+03 -281,-2.3e+03 S-242,-1.75e+03 -233,-1.63e+03 S-195,-1.15e+03 -185,-1.04e+03 S-147,-634 -137,-543 S-99.3,-210 -89.7,-137 S-51.5,124 -42,178 S-3.79,368 5.76,404 S44,521 53.5,539 S91.7,584 101,584 S139,557 149,539 S187,440 197,404 S235,232 244,178 S283,-65.3 292,-137 S330,-453 340,-543 S378,-931 388,-1.04e+03 S426,-1.5e+03 435,-1.63e+03 S474,-2.16e+03 483,-2.3e+03 S521,-2.91e+03 531,-3.07e+03 S579,-4.01e+03 579,-3.93e+03 " fill="none"/></g>
</g>
<g id="plotPoints" clip-path="url(#plot_window)"><g stroke="rgb(0,0,0)" fill="rgb(255,0,0)">
<text x="197" y="434" text-anchor="middle" font-size="10" font-family="Lucida Sans Unicode">&#x25CB;</text>
<text x="244" y="419" text-anchor="middle" font-size="10" font-family="Lucida Sans Unicode">&#x25CB;</text>
<text x="292" y="407" text-anchor="middle" font-size="10" font-family="Lucida Sans Unicode">&#x25CB;</text>
<text x="340" y="396" text-anchor="middle" font-size="10" font-family="Lucida Sans Unicode">&#x25CB;</text>
<text x="388" y="387" text-anchor="middle" font-size="10" font-family="Lucida Sans Unicode">&#x25CB;</text>
<text x="435" y="378" text-anchor="middle" font-size="10" font-family="Lucida Sans Unicode">&#x25CB;</text>
<text x="483" y="370" text-anchor="middle" font-size="10" font-family="Lucida Sans Unicode">&#x25CB;</text>
<text x="531" y="362" text-anchor="middle" font-size="10" font-family="Lucida Sans Unicode">&#x25CB;</text></g>
<g stroke="rgb(0,0,0)" fill="rgb(255,165,0)">
<text x="197" y="406" text-anchor="middle" font-size="5" font-family="Lucida Sans Unicode">&#x25CB;</text>
<text x="244" y="180" text-anchor="middle" font-size="5" font-family="Lucida Sans Unicode">&#x25CB;</text></g>
<g stroke="rgb(0,0,0)" fill="rgb(255,255,0)">
<text x="197" y="362" text-anchor="middle" font-size="10" font-family="Lucida Sans Unicode">&#x25A1;</text>
<text x="244" y="272" text-anchor="middle" font-size="10" font-family="Lucida Sans Unicode">&#x25A1;</text>
<text x="292" y="182" text-anchor="middle" font-size="10" font-family="Lucida Sans Unicode">&#x25A1;</text>
<text x="340" y="91.3" text-anchor="middle" font-size="10" font-family="Lucida Sans Unicode">&#x25A1;</text></g>
</g>
<g id="limitPoints" stroke="rgb(119,136,153)" fill="rgb(250,235,215)"><polygon points=" 48.5,439 58.5,439 53.5,449"/><polygon points=" 48.5,439 58.5,439 53.5,449"/><polygon points=" 48.5,439 58.5,439 53.5,449"/><polygon points=" 48.5,439 58.5,439 53.5,449"/><polygon points=" 48.5,439 58.5,439 53.5,449"/><polygon points=" 48.5,439 58.5,439 53.5,449"/><polygon points=" 48.5,439 58.5,439 53.5,449"/><polygon points=" 48.5,439 58.5,439 53.5,449"/><polygon points=" 48.5,439 58.5,439 53.5,449"/><polygon points=" 48.5,439 58.5,439 53.5,449"/></g>
<g id="legendBackground" stroke="rgb(255,255,0)" fill="rgb(255,255,224)" stroke-width="1"><rect x="585" y="43" width="101" height="86.2"/></g>
<g id="legendPoints"><g stroke="rgb(0,0,0)" fill="rgb(255,0,0)" stroke-width="2">
<text x="601" y="91.1" text-anchor="middle" font-size="10" font-family="Lucida Sans Unicode">&#x25CB;</text></g>
<g stroke="rgb(0,0,0)" fill="rgb(255,165,0)" stroke-width="2">
<text x="601" y="103" text-anchor="middle" font-size="5" font-family="Lucida Sans Unicode">&#x25CB;</text></g>
<g stroke="rgb(0,0,0)" fill="rgb(255,255,0)" stroke-width="3">
<text x="601" y="116" text-anchor="middle" font-size="10" font-family="Lucida Sans Unicode">&#x25A1;</text></g>
</g>
<g id="legendText">
<text x="635" y="70.7" text-anchor="middle" font-size="10" font-family="Lucida Sans Unicode" font-weight="normal">Unicode &#x3A9;&#x3A6;</text>
<text x="609" y="89.8" font-size="10" font-family="Lucida Sans Unicode" font-weight="normal">Sqrt(x)</text>
<text x="609" y="102" font-size="10" font-family="Lucida Sans Unicode" font-weight="normal">-2 + x^2</text>
<text x="609" y="115" font-size="10" font-family="Lucida Sans Unicode" font-weight="normal">-1 + 2x</text></g>
<g id="title" fill="rgb(255,0,0)">
<text x="350" y="25" text-anchor="middle" font-size="20" font-family="Lucida Sans Unicode" font-weight="normal">Plot of Mathematical Functions YP</text></g>
<g id="plotXValues"></g>
<g id="plotYValues"></g>
</svg>
