<?xml version="1.0" encoding="UTF-8" standalone="no"?>
<svg width="500" height ="400" version="1.1"
xmlns:svg ="http://www.w3.org/2000/svg"
xmlns:rdf="http://www.w3.org/1999/02/22-rdf-syntax-ns#"
xmlns:cc="http://web.resource.org/cc/"
xmlns:dc="http://purl.org/dc/elements/1.1/"
xmlns ="http://www.w3.org/2000/svg"
>
<!-- SVG plot written using Boost.Plot program (Creator Jacob Voytko) --> 
<!-- Use, modification and distribution of Boost.Plot subject to the --> 
<!-- Boost Software License, Version 1.0.--> 
<!-- (See accompanying file LICENSE_1_0.txt --> 
<!-- or copy at http://www.boost.org/LICENSE_1_0.txt) --> 

<clipPath id="plot_window"><rect x="61.7" y="48.5" width="435" height="297"/></clipPath>
<g id="imageBackground" stroke="rgb(255,255,0)" fill="rgb(255,255,255)" stroke-width="2"><rect x="0" y="0" width="500" height="400"/></g>
<g id="plotBackground" stroke="rgb(119,136,153)" fill="rgb(255,255,255)" stroke-width="2"><rect x="60.7" y="47.5" width="437" height="299"/></g>
<g id="yMinorGrid" stroke="rgb(200,220,255)" stroke-width="0.5"></g>
<g id="yMajorGrid" stroke="rgb(200,220,255)" stroke-width="1"></g>
<g id="xMinorGrid" stroke="rgb(200,220,255)" stroke-width="0.5"></g>
<g id="xMajorGrid" stroke="rgb(200,220,255)" stroke-width="1"></g>
<g id="yAxis" stroke="rgb(0,0,0)" stroke-width="1"><line x1="279" y1="47.5" x2="279" y2="352"/><line x1="60.7" y1="47.5" x2="60.7" y2="347"/></g>
<g id="xAxis" stroke="rgb(0,0,0)" stroke-width="1"><line x1="55.7" y1="197" x2="498" y2="197"/><line x1="55.7" y1="347" x2="498" y2="347"/></g>
<g id="yMinorTicks" stroke="rgb(0,0,0)" stroke-width="1"><path d="M58.7,191 L60.7,191 M58.7,185 L60.7,185 M58.7,179 L60.7,179 M58.7,173 L60.7,173 M58.7,161 L60.7,161 M58.7,155 L60.7,155 M58.7,149 L60.7,149 M58.7,143 L60.7,143 M58.7,131 L60.7,131 M58.7,125 L60.7,125 M58.7,119 L60.7,119 M58.7,113 L60.7,113 M58.7,101 L60.7,101 M58.7,95.3 L60.7,95.3 M58.7,89.4 L60.7,89.4 M58.7,83.4 L60.7,83.4 M58.7,71.4 L60.7,71.4 M58.7,65.4 L60.7,65.4 M58.7,59.5 L60.7,59.5 M58.7,53.5 L60.7,53.5 M58.7,197 L60.7,197 M58.7,203 L60.7,203 M58.7,209 L60.7,209 M58.7,215 L60.7,215 M58.7,221 L60.7,221 M58.7,227 L60.7,227 M58.7,233 L60.7,233 M58.7,239 L60.7,239 M58.7,245 L60.7,245 M58.7,251 L60.7,251 M58.7,257 L60.7,257 M58.7,257 L60.7,257 M58.7,263 L60.7,263 M58.7,269 L60.7,269 M58.7,275 L60.7,275 M58.7,281 L60.7,281 M58.7,287 L60.7,287 M58.7,293 L60.7,293 M58.7,299 L60.7,299 M58.7,305 L60.7,305 M58.7,311 L60.7,311 M58.7,317 L60.7,317 M58.7,323 L60.7,323 M58.7,329 L60.7,329 M58.7,335 L60.7,335 M58.7,341 L60.7,341 M58.7,347 L60.7,347 " fill="none"/></g>
<g id="xMinorTicks" stroke="rgb(0,0,0)" stroke-width="1"><path d="M288,347 L288,349 M297,347 L297,349 M305,347 L305,349 M314,347 L314,349 M332,347 L332,349 M340,347 L340,349 M349,347 L349,349 M358,347 L358,349 M375,347 L375,349 M384,347 L384,349 M393,347 L393,349 M401,347 L401,349 M419,347 L419,349 M428,347 L428,349 M436,347 L436,349 M445,347 L445,349 M463,347 L463,349 M471,347 L471,349 M480,347 L480,349 M489,347 L489,349 M270,347 L270,349 M262,347 L262,349 M253,347 L253,349 M244,347 L244,349 M227,347 L227,349 M218,347 L218,349 M209,347 L209,349 M200,347 L200,349 M183,347 L183,349 M174,347 L174,349 M166,347 L166,349 M157,347 L157,349 M139,347 L139,349 M131,347 L131,349 M122,347 L122,349 M113,347 L113,349 M95.6,347 L95.6,349 M86.9,347 L86.9,349 M78.2,347 L78.2,349 M69.4,347 L69.4,349 " fill="none"/></g>
<g id="yMajorTicks" stroke="rgb(0,0,0)" stroke-width="2"><path d="M55.7,197 L60.7,197 M55.7,167 L60.7,167 M55.7,137 L60.7,137 M55.7,107 L60.7,107 M55.7,77.4 L60.7,77.4 M55.7,47.5 L60.7,47.5 M55.7,197 L60.7,197 M55.7,227 L60.7,227 M55.7,257 L60.7,257 M55.7,287 L60.7,287 M55.7,317 L60.7,317 M55.7,347 L60.7,347 " fill="none"/></g>
<g id="xMajorTicks" stroke="rgb(0,0,0)" stroke-width="2"><path d="M279,347 L279,352 M323,347 L323,352 M366,347 L366,352 M410,347 L410,352 M454,347 L454,352 M498,347 L498,352 M279,347 L279,352 M235,347 L235,352 M192,347 L192,352 M148,347 L148,352 M104,347 L104,352 M60.7,347 L60.7,352 " fill="none"/></g>
<g id="xTicksValues">
<text x="279" y="367" text-anchor="middle" font-size="12" font-family="Lucida Sans Unicode">0</text>
<text x="323" y="367" text-anchor="middle" font-size="12" font-family="Lucida Sans Unicode">2</text>
<text x="366" y="367" text-anchor="middle" font-size="12" font-family="Lucida Sans Unicode">4</text>
<text x="410" y="367" text-anchor="middle" font-size="12" font-family="Lucida Sans Unicode">6</text>
<text x="454" y="367" text-anchor="middle" font-size="12" font-family="Lucida Sans Unicode">8</text>
<text x="498" y="367" text-anchor="middle" font-size="12" font-family="Lucida Sans Unicode">10</text>
<text x="279" y="367" text-anchor="middle" font-size="12" font-family="Lucida Sans Unicode">0</text>
<text x="235" y="367" text-anchor="middle" font-size="12" font-family="Lucida Sans Unicode">-2</text>
<text x="192" y="367" text-anchor="middle" font-size="12" font-family="Lucida Sans Unicode">-4</text>
<text x="148" y="367" text-anchor="middle" font-size="12" font-family="Lucida Sans Unicode">-6</text>
<text x="104" y="367" text-anchor="middle" font-size="12" font-family="Lucida Sans Unicode">-8</text>
<text x="60.7" y="367" text-anchor="middle" font-size="12" font-family="Lucida Sans Unicode">-10</text></g>
<g id="yTicksValues">
<text x="49.7" y="199" text-anchor="end" font-size="12" font-family="Lucida Sans Unicode">0</text>
<text x="49.7" y="170" text-anchor="end" font-size="12" font-family="Lucida Sans Unicode">2</text>
<text x="49.7" y="140" text-anchor="end" font-size="12" font-family="Lucida Sans Unicode">4</text>
<text x="49.7" y="110" text-anchor="end" font-size="12" font-family="Lucida Sans Unicode">6</text>
<text x="49.7" y="79.8" text-anchor="end" font-size="12" font-family="Lucida Sans Unicode">8</text>
<text x="49.7" y="49.9" text-anchor="end" font-size="12" font-family="Lucida Sans Unicode">10</text>
<text x="49.7" y="199" text-anchor="end" font-size="12" font-family="Lucida Sans Unicode">0</text>
<text x="49.7" y="229" text-anchor="end" font-size="12" font-family="Lucida Sans Unicode">-2</text>
<text x="49.7" y="259" text-anchor="end" font-size="12" font-family="Lucida Sans Unicode">-4</text>
<text x="49.7" y="289" text-anchor="end" font-size="12" font-family="Lucida Sans Unicode">-6</text>
<text x="49.7" y="319" text-anchor="end" font-size="12" font-family="Lucida Sans Unicode">-8</text>
<text x="49.7" y="349" text-anchor="end" font-size="12" font-family="Lucida Sans Unicode">-10</text></g>
<g id="yLabel">
<text x="19.4" y="197" text-anchor="middle" transform = "rotate(-90 19.4 197 )" font-size="14" font-family="Lucida Sans Unicode">Y-axis</text></g>
<g id="xLabel">
<text x="279" y="382" text-anchor="middle" font-size="14" font-family="Lucida Sans Unicode">X-axis</text></g>
<g id="plotLines" stroke-width="2"><g clip-path="url(#plot_window)" stroke="rgb(0,0,255)"><path d="M170,361 S187,338 192,332 S209,308 214,302 S231,278 235,272 S253,248 257,242 S275,218 279,212 S297,188 301,182 S318,158 323,152 S340,128 345,122 S362,98.3 366,92.4 S384,68.4 388,62.5 S406,38.5 410,32.6 S428,8.63 432,2.65 S449,-21.3 454,-27.3 S471,-51.2 476,-57.1 S498,-90 498,-87.1 " fill="none"/></g>
</g>
<g id="plotPoints" clip-path="url(#plot_window)"><g stroke="rgb(0,0,0)" fill="rgb(255,0,0)"><circle cx="279" cy="197" r="2"/><circle cx="301" cy="182" r="2"/><circle cx="323" cy="176" r="2"/><circle cx="345" cy="171" r="2"/><circle cx="366" cy="167" r="2"/><circle cx="388" cy="164" r="2"/><circle cx="410" cy="160" r="2"/><circle cx="432" cy="157" r="2"/><circle cx="454" cy="155" r="2"/><circle cx="476" cy="152" r="2"/></g>
<g stroke="rgb(0,0,0)" fill="rgb(255,165,0)"><circle cx="214" cy="92.4" r="2"/><circle cx="235" cy="167" r="2"/><circle cx="257" cy="212" r="2"/><circle cx="279" cy="227" r="2"/><circle cx="301" cy="212" r="2"/><circle cx="323" cy="167" r="2"/><circle cx="345" cy="92.4" r="2"/></g>
<g stroke="rgb(0,0,0)" fill="rgb(255,255,0)"><rect x="189" y="329" width="5" height="5"/><rect x="211" y="299" width="5" height="5"/><rect x="233" y="269" width="5" height="5"/><rect x="255" y="239" width="5" height="5"/><rect x="277" y="209" width="5" height="5"/><rect x="298" y="180" width="5" height="5"/><rect x="320" y="150" width="5" height="5"/><rect x="342" y="120" width="5" height="5"/><rect x="364" y="89.9" width="5" height="5"/><rect x="386" y="60" width="5" height="5"/></g>
</g>
<g id="limitPoints" stroke="rgb(119,136,153)" fill="rgb(250,235,215)"><polygon points=" 165,187 175,187 170,197"/><polygon points=" 187,187 197,187 192,197"/><polygon points=" 209,187 219,187 214,197"/><polygon points=" 230,187 240,187 235,197"/><polygon points=" 252,187 262,187 257,197"/></g>
<g id="title">
<text x="250" y="36" text-anchor="middle" font-size="18" font-family="Lucida Sans Unicode">demo_2d_simple</text></g>
<g id="plotXValues"></g>
<g id="plotYValues"></g>
</svg>
