<?xml version="1.0" encoding="UTF-8" standalone="no"?>
<svg width="500" height ="400" version="1.1"
xmlns:svg ="http://www.w3.org/2000/svg"
xmlns:rdf="http://www.w3.org/1999/02/22-rdf-syntax-ns#"
xmlns:cc="http://web.resource.org/cc/"
xmlns:dc="http://purl.org/dc/elements/1.1/"
xmlns ="http://www.w3.org/2000/svg"
>
<!-- SVG plot written using Boost.Plot program (Creator Jacob Voytko) --> 
<!-- Use, modification and distribution of Boost.Plot subject to the --> 
<!-- Boost Software License, Version 1.0.--> 
<!-- (See accompanying file LICENSE_1_0.txt --> 
<!-- or copy at http://www.boost.org/LICENSE_1_0.txt) --> 

<clipPath id="plot_window"><rect x="102" y="54" width="203" height="286"/></clipPath>
<g id="imageBackground" stroke="rgb(255,255,0)" fill="rgb(255,255,255)" stroke-width="2"><rect x="0" y="0" width="500" height="400"/></g>
<g id="plotBackground" stroke="rgb(119,136,153)" fill="rgb(255,255,255)" stroke-width="2"><rect x="101" y="53" width="205" height="288"/></g>
<g id="yMinorGrid" stroke="rgb(200,220,255)" stroke-width="0.5"></g>
<g id="yMajorGrid" stroke="rgb(200,220,255)" stroke-width="1"></g>
<g id="xMinorGrid" stroke="rgb(200,220,255)" stroke-width="0.5"></g>
<g id="xMajorGrid" stroke="rgb(200,220,255)" stroke-width="1"></g>
<g id="yAxis" stroke="rgb(0,0,0)" stroke-width="1"><line x1="101" y1="53" x2="101" y2="346"/><line x1="101" y1="53" x2="101" y2="341"/></g>
<g id="xAxis" stroke="rgb(0,0,0)" stroke-width="1"><line x1="96" y1="341" x2="306" y2="341"/><line x1="96" y1="341" x2="306" y2="341"/></g>
<g id="yMinorTicks" stroke="rgb(0,0,0)" stroke-width="1"><path d="M99,335 L101,335 M99,329 L101,329 M99,324 L101,324 M99,318 L101,318 M99,306 L101,306 M99,301 L101,301 M99,295 L101,295 M99,289 L101,289 M99,278 L101,278 M99,272 L101,272 M99,266 L101,266 M99,260 L101,260 M99,249 L101,249 M99,243 L101,243 M99,237 L101,237 M99,232 L101,232 M99,220 L101,220 M99,214 L101,214 M99,209 L101,209 M99,203 L101,203 M99,191 L101,191 M99,185 L101,185 M99,180 L101,180 M99,174 L101,174 M99,162 L101,162 M99,157 L101,157 M99,151 L101,151 M99,145 L101,145 M99,134 L101,134 M99,128 L101,128 M99,122 L101,122 M99,116 L101,116 M99,105 L101,105 M99,99.1 L101,99.1 M99,93.3 L101,93.3 M99,87.6 L101,87.6 M99,76 L101,76 M99,70.3 L101,70.3 M99,64.5 L101,64.5 M99,58.8 L101,58.8 M99,341 L101,341 " fill="none"/></g>
<g id="xMinorTicks" stroke="rgb(0,0,0)" stroke-width="1"><path d="M111,341 L111,343 M121,341 L121,343 M132,341 L132,343 M142,341 L142,343 M162,341 L162,343 M173,341 L173,343 M183,341 L183,343 M193,341 L193,343 M214,341 L214,343 M224,341 L224,343 M234,341 L234,343 M244,341 L244,343 M265,341 L265,343 M275,341 L275,343 M285,341 L285,343 M296,341 L296,343 " fill="none"/></g>
<g id="yMajorTicks" stroke="rgb(0,0,0)" stroke-width="2"><path d="M96,341 L101,341 M96,312 L101,312 M96,283 L101,283 M96,255 L101,255 M96,226 L101,226 M96,197 L101,197 M96,168 L101,168 M96,139 L101,139 M96,111 L101,111 M96,81.8 L101,81.8 M96,53 L101,53 M96,341 L101,341 " fill="none"/></g>
<g id="xMajorTicks" stroke="rgb(0,0,0)" stroke-width="2"><path d="M101,341 L101,346 M152,341 L152,346 M203,341 L203,346 M255,341 L255,346 M306,341 L306,346 M101,341 L101,346 " fill="none"/></g>
<g id="xTicksValues" fill="rgb(255,0,0)">
<text x="101" y="362" text-anchor="middle" font-size="20" font-family="arial">0</text>
<text x="152" y="362" text-anchor="middle" font-size="20" font-family="arial">500</text>
<text x="203" y="362" text-anchor="middle" font-size="20" font-family="arial">1000</text>
<text x="255" y="362" text-anchor="middle" font-size="20" font-family="arial">1500</text>
<text x="306" y="362" text-anchor="middle" font-size="20" font-family="arial">2000</text>
<text x="101" y="362" text-anchor="middle" font-size="20" font-family="arial">0</text></g>
<g id="yTicksValues" fill="rgb(255,0,255)">
<text x="90" y="343" text-anchor="end" font-size="12" font-family="Verdana">0.0</text>
<text x="90" y="315" text-anchor="end" font-size="12" font-family="Verdana">2.0</text>
<text x="90" y="286" text-anchor="end" font-size="12" font-family="Verdana">4.0</text>
<text x="90" y="257" text-anchor="end" font-size="12" font-family="Verdana">6.0</text>
<text x="90" y="228" text-anchor="end" font-size="12" font-family="Verdana">8.0</text>
<text x="90" y="199" text-anchor="end" font-size="12" font-family="Verdana">1.0e1</text>
<text x="90" y="171" text-anchor="end" font-size="12" font-family="Verdana">1.2e1</text>
<text x="90" y="142" text-anchor="end" font-size="12" font-family="Verdana">1.4e1</text>
<text x="90" y="113" text-anchor="end" font-size="12" font-family="Verdana">1.6e1</text>
<text x="90" y="84.2" text-anchor="end" font-size="12" font-family="Verdana">1.8e1</text>
<text x="90" y="55.4" text-anchor="end" font-size="12" font-family="Verdana">2.0e1</text>
<text x="90" y="343" text-anchor="end" font-size="12" font-family="Verdana">0.0</text></g>
<g id="yLabel" fill="rgb(0,0,255)">
<text x="42.9" y="197" text-anchor="middle" transform = "rotate(-90 42.9 197 )" font-size="14" font-family="Verdana">temp (&#x00B0;C)</text></g>
<g id="xLabel" fill="rgb(0,128,0)">
<text x="203" y="385" text-anchor="middle" font-size="14" font-family="Verdana">time (hr)</text></g>
<g id="plotLines" stroke-width="2"><g clip-path="url(#plot_window)" stroke="rgb(255,0,0)"><path d="M101,96.2 S101,98.8 101,99.1 S101,99.1 101,99.1 S101,99.1 101,99.1 S101,98.9 102,99.1 S102,100 102,101 S102,102 102,102 S102,103 102,103 S102,105 102,105 S102,103 102,102 S102,98.2 102,97.6 S102,96.5 102,96.2 S102,95 102,94.8 S102,93.8 102,93.3 S103,90.6 103,90.4 S103,91.6 103,91.9 S103,93.2 103,93.3 S103,93.2 103,93.3 S103,94.6 103,94.8 S103,94.6 103,94.8 S103,95.8 103,96.2 S103,98.6 103,99.1 S103,100 103,101 S103,103 103,103 S104,105 104,105 S104,106 104,106 S104,107 104,108 S104,110 104,111 S104,112 104,112 S104,113 104,113 S104,115 104,115 S104,116 104,116 S104,119 104,119 S104,121 104,121 S105,121 105,121 S105,121 105,121 S105,117 105,116 S105,112 105,111 S105,107 105,106 S105,104 105,103 S105,103 105,103 S105,104 105,103 S105,97.4 105,96.2 S105,92.5 106,91.9 S106,90.6 106,90.4 S106,90.3 106,90.4 S106,91.6 106,91.9 S106,93 106,93.3 S106,94.5 106,94.8 S106,95.8 106,96.2 S106,98.5 106,99.1 S106,102 106,102 S106,103 106,103 S107,105 107,105 S107,104 107,103 S107,102 107,102 S107,101 107,101 S107,98.1 107,97.6 S107,96.3 107,96.2 S107,96.3 107,96.2 S107,94.9 107,94.8 S107,94.9 107,94.8 S107,93.5 107,93.3 S108,94.5 108,93.3 S108,83.1 108,81.8 S108,80.8 108,80.4 S108,77.6 108,77.5 S108,78.5 108,78.9 S108,81.2 108,81.8 S108,84.1 108,84.7 S108,86.8 108,87.6 S108,91.2 108,91.9 S108,94.3 108,94.8 S109,95.8 109,96.2 S109,98.5 109,99.1 S109,102 109,102 S109,103 109,103 S109,106 109,106 S109,107 109,108 S109,109 109,109 S109,111 109,112 S109,114 109,115 S109,117 110,118 S110,119 110,119 S110,117 110,116 S110,113 110,112 S110,108 110,108 S110,108 110,108 S110,108 110,108 S110,105 110,105 S110,105 110,105 S110,102 110,102 S111,103 111,103 S111,106 111,106 S111,110 111,111 S111,114 111,115 S111,116 111,115 S111,109 111,108 S111,102 111,101 S111,96.8 111,96.2 S111,94.9 111,94.8 S111,94.6 111,94.8 S112,96.1 112,96.2 S112,96.2 112,96.2 S112,96.2 112,96.2 S112,95.8 112,96.2 S112,99.9 112,101 S112,102 112,102 S112,102 112,102 S112,101 112,101 S112,99.2 112,99.1 S112,99.1 112,99.1 S113,98.9 113,99.1 S113,100 113,101 S113,100 113,101 S113,102 113,102 S113,104 113,105 S113,108 113,109 S113,112 113,112 S113,112 113,112 S113,111 113,111 S113,110 114,111 S114,112 114,112 S114,114 114,115 S114,117 114,118 S114,120 114,121 S114,122 114,122 S114,124 114,125 S114,127 114,128 S114,130 114,131 S114,132 114,132 S115,132 115,132 S115,130 115,129 S115,126 115,125 S115,121 115,121 S115,119 115,119 S115,120 115,121 S115,123 115,124 S115,125 115,125 S115,124 115,124 S115,125 115,125 S116,125 116,125 S116,124 116,124 S116,123 116,124 S116,126 116,126 S116,129 116,129 S116,132 116,132 S116,133 116,134 S116,134 116,134 S116,134 116,134 S116,134 116,134 S117,131 117,131 S117,128 117,126 S117,120 117,118 S117,111 117,109 S117,104 117,103 S117,101 117,101 S117,101 117,101 S117,101 117,101 S117,101 117,101 S117,101 117,101 S118,100 118,101 S118,103 118,103 S118,106 118,106 S118,107 118,108 S118,110 118,111 S118,112 118,112 S118,114 118,115 S118,116 118,116 S118,119 118,119 S119,120 119,121 S119,123 119,124 S119,125 119,125 S119,126 119,126 S119,128 119,128 S119,129 119,129 S119,132 119,132 S119,133 119,134 S119,135 119,135 S119,135 119,135 S120,134 120,134 S120,130 120,129 S120,126 120,125 S120,121 120,121 S120,119 120,118 S120,111 120,111 S120,109 120,109 S120,110 120,111 S120,112 120,112 S120,111 120,111 S121,112 121,112 S121,114 121,115 S121,118 121,118 S121,118 121,118 S121,117 121,116 S121,113 121,112 S121,110 121,109 S121,108 121,108 S121,105 121,105 S121,105 121,105 S122,104 122,103 S122,103 122,103 S122,103 122,103 S122,103 122,103 S122,103 122,103 S122,103 122,103 S122,103 122,103 S122,103 122,103 S122,103 122,103 S122,103 123,103 S123,103 123,103 S123,104 123,103 S123,102 123,102 S123,101 123,101 S123,102 123,102 S123,103 123,103 S123,106 123,106 S123,109 123,109 S123,110 123,111 S124,113 124,113 S124,116 124,116 S124,119 124,119 S124,120 124,121 S124,123 124,124 S124,126 124,126 S124,127 124,128 S124,130 124,131 S124,131 124,131 S124,127 124,126 S125,123 125,122 S125,118 125,118 S125,116 125,116 S125,118 125,118 S125,118 125,118 S125,119 125,119 S125,119 125,119 S125,119 125,119 S125,122 125,122 S125,124 125,124 S126,122 126,122 S126,121 126,121 S126,122 126,122 S126,121 126,121 S126,118 126,118 S126,115 126,115 S126,115 126,115 S126,116 126,116 S126,116 126,116 S126,117 127,116 S127,114 127,113 S127,110 127,109 S127,107 127,106 S127,105 127,105 S127,104 127,103 S127,103 127,103 S127,103 127,103 S127,104 127,103 S127,102 127,102 S128,103 128,103 S128,103 128,103 S128,104 128,105 S128,107 128,108 S128,109 128,109 S128,110 128,111 S128,113 128,113 S128,115 128,115 S128,116 128,116 S128,117 128,118 S129,120 129,121 S129,122 129,122 S129,123 129,124 S129,125 129,125 S129,126 129,126 S129,129 129,129 S129,131 129,131 S129,131 129,131 S129,129 129,128 S129,123 129,122 S130,118 130,118 S130,117 130,116 S130,117 130,116 S130,115 130,115 S130,114 130,113 S130,111 130,111 S130,109 130,109 S130,110 130,111 S130,112 130,112 S130,114 131,115 S131,117 131,118 S131,120 131,121 S131,121 131,121 S131,120 131,119 S131,117 131,116 S131,114 131,113 S131,114 131,113 S131,112 131,112 S131,111 131,111 S132,109 132,109 S132,108 132,108 S132,107 132,106 S132,105 132,105 S132,106 132,106 S132,106 132,106 S132,108 132,108 S132,108 132,108 S132,108 132,108 S132,108 132,108 S133,107 133,108 S133,110 133,111 S133,112 133,112 S133,114 133,115 S133,117 133,118 S133,120 133,121 S133,123 133,124 S133,125 133,125 S133,127 133,128 S133,129 133,129 S134,132 134,132 S134,133 134,134 S134,135 134,135 S134,136 134,137 S134,139 134,139 S134,141 134,141 S134,141 134,141 S134,138 134,137 S134,132 134,131 S134,127 135,126 S135,125 135,125 S135,125 135,125 S135,128 135,128 S135,128 135,128 S135,125 135,124 S135,118 135,118 S135,118 135,118 S135,119 135,119 S135,122 135,122 S136,124 136,125 S136,127 136,128 S136,131 136,132 S136,135 136,135 S136,136 136,137 S136,138 136,138 S136,136 136,135 S136,133 136,132 S136,129 136,128 S136,123 136,122 S137,119 137,118 S137,114 137,113 S137,111 137,111 S137,108 137,108 S137,108 137,108 S137,106 137,106 S137,106 137,106 S137,106 137,106 S137,106 137,106 S137,106 137,106 S138,109 138,109 S138,110 138,111 S138,113 138,113 S138,116 138,116 S138,119 138,119 S138,120 138,121 S138,123 138,124 S138,126 138,126 S138,128 138,128 S138,129 139,129 S139,132 139,132 S139,133 139,134 S139,136 139,137 S139,136 139,137 S139,139 139,139 S139,140 139,139 S139,137 139,137 S139,132 139,131 S139,127 139,126 S140,124 140,124 S140,122 140,121 S140,116 140,115 S140,114 140,113 S140,113 140,113 S140,115 140,115 S140,117 140,116 S140,114 140,113 S140,111 140,111 S140,109 140,109 S141,110 141,109 S141,104 141,103 S141,99.7 141,99.1 S141,97.8 141,97.6 S141,97.5 141,97.6 S141,99.5 141,99.1 S141,95 141,93.3 S141,83.8 141,81.8 S141,74.3 141,73.2 S141,69.8 141,70.3 S142,76 142,77.5 S142,83.2 142,84.7 S142,90.6 142,91.9 S142,96.8 142,97.6 S142,99.9 142,101 S142,103 142,103 S142,105 142,105 S142,106 142,106 S142,109 142,109 S142,111 142,112 S143,114 143,115 S143,117 143,118 S143,120 143,121 S143,123 143,124 S143,126 143,126 S143,129 143,129 S143,132 143,132 S143,135 143,135 S143,136 143,137 S144,139 144,139 S144,142 144,142 S144,143 144,144 S144,146 144,147 S144,148 144,148 S144,150 144,149 S144,147 144,147 S144,142 144,141 S144,138 144,137 S144,132 144,131 S145,124 145,122 S145,116 145,115 S145,109 145,108 S145,107 145,106 S145,105 145,105 S145,104 145,103 S145,102 145,102 S145,102 145,102 S145,103 145,103 S145,104 145,103 S146,102 146,102 S146,102 146,102 S146,105 146,105 S146,104 146,103 S146,100 146,99.1 S146,94.3 146,93.3 S146,89.1 146,89 S146,91 146,91.9 S146,96.6 146,97.6 S146,101 146,102 S147,104 147,105 S147,106 147,106 S147,107 147,108 S147,109 147,109 S147,109 147,109 S147,109 147,109 S147,109 147,109 S147,112 147,112 S147,113 147,113 S147,116 148,116 S148,119 148,119 S148,122 148,122 S148,125 148,125 S148,126 148,126 S148,129 148,129 S148,132 148,132 S148,133 148,134 S148,136 148,137 S148,138 148,138 S149,139 149,139 S149,142 149,142 S149,143 149,144 S149,145 149,145 S149,146 149,145 S149,142 149,141 S149,136 149,135 S149,130 149,129 S149,128 149,128 S149,128 149,128 S150,123 150,122 S150,121 150,121 S150,119 150,118 S150,113 150,112 S150,112 150,112 S150,114 150,115 S150,119 150,119 S150,121 150,121 S150,121 150,121 S150,121 150,121 S151,120 151,119 S151,117 151,116 S151,110 151,109 S151,106 151,105 S151,103 151,102 S151,99.4 151,99.1 S151,98.6 151,99.1 S151,103 151,103 S151,106 151,106 S151,107 152,108 S152,109 152,109 S152,109 152,109 S152,109 152,109 S152,109 152,109 S152,108 152,108 S152,108 152,108 S152,107 152,108 S152,110 152,111 S152,112 152,112 S153,114 153,115 S153,117 153,118 S153,120 153,121 S153,122 153,122 S153,125 153,125 S153,126 153,126 S153,129 153,129 S153,130 153,131 S153,132 153,132 S153,135 153,135 S154,136 154,137 S154,138 154,138 S154,139 154,139 S154,140 154,139 S154,136 154,135 S154,130 154,129 S154,124 154,124 S154,121 154,121 S154,120 154,119 S154,116 154,115 S155,113 155,112 S155,108 155,108 S155,105 155,105 S155,103 155,102 S155,97.1 155,96.2 S155,93.5 155,93.3 S155,94.8 155,94.8 S155,94.3 155,93.3 S155,86.3 155,84.7 S155,78.8 156,77.5 S156,72.4 156,71.7 S156,70.6 156,70.3 S156,69.3 156,68.8 S156,66.7 156,66 S156,62.5 156,61.6 S156,57.6 156,57.3 S156,58 156,58.8 S156,63.7 156,64.5 S156,67.1 156,67.4 S157,67.4 157,67.4 S157,67.5 157,67.4 S157,66.1 157,66 S157,66.1 157,66 S157,64.7 157,64.5 S157,64.4 157,64.5 S157,65.4 157,66 S157,69.4 157,70.3 S157,73.7 157,74.6 S157,78.1 157,78.9 S158,82.4 158,83.2 S158,86.8 158,87.6 S158,89.9 158,90.4 S158,92.7 158,93.3 S158,95.6 158,96.2 S158,98.5 158,99.1 S158,101 158,102 S158,104 158,105 S158,107 158,108 S158,110 158,111 S159,112 159,112 S159,113 159,113 S159,114 159,113 S159,111 159,111 S159,106 159,105 S159,102 159,101 S159,94.5 159,93.3 S159,89.9 159,89 S159,85.3 159,84.7 S159,83.1 160,83.2 S160,85.7 160,86.1 S160,87.3 160,87.6 S160,88.7 160,89 S160,90.3 160,90.4 S160,90.3 160,90.4 S160,92.3 160,91.9 S160,87.3 160,86.1 S160,81.1 160,80.4 S160,78.9 160,78.9 S161,80.1 161,80.4 S161,81.5 161,81.8 S161,83.1 161,83.2 S161,83.4 161,83.2 S161,82.4 161,81.8 S161,78.2 161,77.5 S161,74.9 161,74.6 S161,74.6 161,74.6 S161,74.3 161,74.6 S161,77 161,77.5 S162,78.8 162,78.9 S162,78.9 162,78.9 S162,78.9 162,78.9 S162,78.9 162,78.9 S162,78.8 162,78.9 S162,79.9 162,80.4 S162,82.5 162,83.2 S162,86.7 162,87.6 S162,91 162,91.9 S162,95.5 162,96.2 S163,98.4 163,99.1 S163,103 163,103 S163,106 163,106 S163,109 163,109 S163,111 163,112 S163,114 163,115 S163,117 163,118 S163,120 163,121 S163,123 163,124 S163,125 164,125 S164,128 164,128 S164,128 164,128 S164,124 164,124 S164,120 164,119 S164,114 164,113 S164,113 164,113 S164,114 164,115 S164,117 164,118 S164,121 164,122 S165,126 165,126 S165,129 165,129 S165,131 165,131 S165,131 165,131 S165,128 165,128 S165,125 165,125 S165,124 165,124 S165,124 165,124 S165,122 165,122 S165,121 165,121 S166,121 166,121 S166,122 166,122 S166,121 166,121 S166,116 166,115 S166,114 166,113 S166,111 166,111 S166,108 166,108 S166,106 166,105 S166,101 166,101 S166,98.4 166,97.6 S167,94 167,93.3 S167,90.9 167,90.4 S167,89 167,89 S167,90 167,90.4 S167,92.6 167,93.3 S167,96.8 167,97.6 S167,101 167,102 S167,104 167,105 S167,107 167,108 S167,111 167,112 S168,114 168,115 S168,117 168,118 S168,119 168,119 S168,122 168,122 S168,123 168,124 S168,126 168,126 S168,128 168,128 S168,129 168,129 S168,132 168,132 S169,134 169,134 S169,133 169,132 S169,130 169,129 S169,125 169,124 S169,119 169,118 S169,116 169,116 S169,118 169,118 S169,119 169,119 S169,120 169,121 S169,122 169,122 S170,121 170,121 S170,118 170,118 S170,115 170,115 S170,112 170,112 S170,113 170,113 S170,116 170,116 S170,117 170,116 S170,114 170,113 S170,111 170,111 S170,109 170,109 S171,109 171,109 S171,111 171,111 S171,109 171,108 S171,101 171,99.1 S171,92.2 171,90.4 S171,82.8 171,81.8 S171,80.5 171,80.4 S171,80.4 171,80.4 S171,80.4 171,80.4 S171,80.4 171,80.4 S172,80.5 172,80.4 S172,79.1 172,78.9 S172,78.9 172,78.9 S172,78.6 172,78.9 S172,81.2 172,81.8 S172,84.1 172,84.7 S172,87 172,87.6 S172,90 172,90.4 S172,91.4 172,91.9 S172,94.2 173,94.8 S173,97.2 173,97.6 S173,98.6 173,99.1 S173,102 173,102 S173,103 173,103 S173,104 173,105 S173,107 173,108 S173,109 173,109 S173,110 173,111 S173,112 173,112 S174,111 174,111 S174,107 174,106 S174,103 174,102 S174,96.9 174,96.2 S174,94.8 174,94.8 S174,96.2 174,96.2 S174,95 174,94.8 S174,93.5 174,93.3 S174,93.5 174,93.3 S174,92.3 174,91.9 S175,89.6 175,89 S175,86.3 175,86.1 S175,87.3 175,87.6 S175,88.9 175,89 S175,89.3 175,89 S175,86.6 175,86.1 S175,85 175,84.7 S175,83.7 175,83.2 S175,80.6 175,80.4 S175,80.4 175,80.4 S176,80.6 176,80.4 S176,78.2 176,77.5 S176,73.7 176,73.2 S176,72.2 176,71.7 S176,69.1 176,68.8 S176,68.7 176,68.8 S176,69.8 176,70.3 S176,72.7 176,73.2 S176,74.3 176,74.6 S176,75.8 177,76 S177,77.3 177,77.5 S177,77.3 177,77.5 S177,78.6 177,78.9 S177,79.9 177,80.4 S177,82.8 177,83.2 S177,84.2 177,84.7 S177,87 177,87.6 S177,90 177,90.4 S177,91.4 177,91.9 S178,94.3 178,94.8 S178,95.8 178,96.2 S178,98.6 178,99.1 S178,100 178,101 S178,102 178,102 S178,104 178,105 S178,106 178,106 S178,107 178,108 S178,109 178,109 S178,108 178,108 S179,104 179,103 S179,98.6 179,97.6 S179,93.9 179,93.3 S179,92 179,91.9 S179,92.2 179,91.9 S179,89.6 179,89 S179,86.6 179,86.1 S179,84.8 179,84.7 S179,84.7 179,84.7 S179,84.7 179,84.7 S180,84.7 180,84.7 S180,84.5 180,84.7 S180,85.8 180,86.1 S180,87.6 180,87.6 S180,86.4 180,86.1 S180,85 180,84.7 S180,83.2 180,83.2 S180,84.5 180,84.7 S180,85.1 180,84.7 S180,81.4 181,80.4 S181,75.5 181,74.6 S181,72.2 181,71.7 S181,70.6 181,70.3 S181,69.1 181,68.8 S181,67.1 181,67.4 S181,71 181,71.7 S181,74.2 181,74.6 S181,75.8 181,76 S181,77.2 181,77.5 S182,78.8 182,78.9 S182,78.6 182,78.9 S182,81.2 182,81.8 S182,84.1 182,84.7 S182,87 182,87.6 S182,90 182,90.4 S182,91.4 182,91.9 S182,94.2 182,94.8 S182,97.1 182,97.6 S182,100 182,101 S183,102 183,102 S183,104 183,105 S183,106 183,106 S183,107 183,108 S183,110 183,111 S183,112 183,112 S183,113 183,113 S183,115 183,115 S183,115 183,115 S183,112 183,111 S184,106 184,105 S184,101 184,101 S184,99.7 184,99.1 S184,95.6 184,94.8 S184,91.3 184,90.4 S184,86.7 184,86.1 S184,84.7 184,84.7 S184,85.8 184,86.1 S184,87.6 184,87.6 S184,86.3 185,86.1 S185,86.1 185,86.1 S185,86.6 185,86.1 S185,82.4 185,81.8 S185,80.6 185,80.4 S185,79.1 185,78.9 S185,78.6 185,78.9 S185,81.4 185,81.8 S185,83 185,83.2 S185,84.8 185,84.7 S186,82.5 186,81.8 S186,77.9 186,77.5 S186,77.3 186,77.5 S186,78.5 186,78.9 S186,81.5 186,81.8 S186,81.7 186,81.8 S186,83.2 186,83.2 S186,81.9 186,81.8 S186,81.9 186,81.8 S186,80.5 186,80.4 S187,80.2 187,80.4 S187,81.4 187,81.8 S187,84.1 187,84.7 S187,86.8 187,87.6 S187,91.2 187,91.9 S187,94.2 187,94.8 S187,97.1 187,97.6 S187,99.9 187,101 S187,103 187,103 S187,106 187,106 S188,109 188,109 S188,110 188,111 S188,113 188,113 S188,115 188,115 S188,116 188,116 S188,119 188,119 S188,121 188,121 S188,120 188,119 S188,116 188,115 S188,112 189,111 S189,106 189,105 S189,104 189,103 S189,101 189,101 S189,98.2 189,97.6 S189,95 189,94.8 S189,94.6 189,94.8 S189,96.2 189,96.2 S189,94.8 189,94.8 S189,96.1 189,96.2 S190,96.8 190,96.2 S190,91.6 190,90.4 S190,85.4 190,84.7 S190,84 190,83.2 S190,78.6 190,77.5 S190,72.3 190,71.7 S190,71.6 190,71.7 S190,73.3 190,73.2 S190,71 190,70.3 S190,66.7 190,66 S191,63.1 191,63.1 S191,65.2 191,66 S191,69.4 191,70.3 S191,74 191,74.6 S191,75.8 191,76 S191,77.2 191,77.5 S191,78.8 191,78.9 S191,79.1 191,78.9 S191,77.6 191,77.5 S191,77.3 191,77.5 S192,78.5 192,78.9 S192,81.1 192,81.8 S192,85.4 192,86.1 S192,88.3 192,89 S192,92.6 192,93.3 S192,95.6 192,96.2 S192,98.5 192,99.1 S192,101 192,102 S192,104 192,105 S192,107 192,108 S193,109 193,109 S193,112 193,112 S193,113 193,113 S193,116 193,116 S193,118 193,118 S193,119 193,119 S193,118 193,118 S193,114 193,113 S193,110 193,109 S194,104 194,103 S194,102 194,102 S194,99.8 194,99.1 S194,95.5 194,94.8 S194,92.3 194,91.9 S194,91.2 194,90.4 S194,86.1 194,84.7 S194,77.3 194,76 S194,72 194,71.7 S194,72.7 194,73.2 S195,75.6 195,76 S195,77.3 195,77.5 S195,77.6 195,77.5 S195,76.2 195,76 S195,76 195,76 S195,75.9 195,76 S195,77.6 195,77.5 S195,75.3 195,74.6 S195,71 195,70.3 S195,67.5 195,67.4 S196,68.6 196,68.8 S196,70 196,70.3 S196,71.4 196,71.7 S196,73 196,73.2 S196,73 196,73.2 S196,74.3 196,74.6 S196,75.9 196,76 S196,76 196,76 S196,75.9 196,76 S196,77 196,77.5 S197,79.8 197,80.4 S197,82.7 197,83.2 S197,85.7 197,86.1 S197,87.1 197,87.6 S197,89.9 197,90.4 S197,92.9 197,93.3 S197,94.3 197,94.8 S197,97.2 197,97.6 S197,98.8 197,99.1 S197,100 198,101 S198,103 198,103 S198,105 198,105 S198,106 198,106 S198,107 198,108 S198,109 198,109 S198,108 198,108 S198,106 198,105 S198,100 198,99.1 S198,94 198,93.3 S199,91.9 199,91.9 S199,93.2 199,93.3 S199,93.5 199,93.3 S199,92 199,91.9 S199,91.9 199,91.9 S199,92 199,91.9 S199,90.7 199,90.4 S199,89.1 199,89 S199,89 199,89 S199,88.7 199,89 S200,91.4 200,91.9 S200,93 200,93.3 S200,94.8 200,94.8 S200,93.6 200,93.3 S200,92.2 200,91.9 S200,91.3 200,90.4 S200,84.4 200,83.2 S200,79.6 200,78.9 S200,76.3 200,76 S200,75.8 200,76 S201,78.6 201,78.9 S201,78.9 201,78.9 S201,79.1 201,78.9 S201,77.6 201,77.5 S201,77.6 201,77.5 S201,76.2 201,76 S201,76 201,76 S201,76 201,76 S201,75.8 201,76 S201,78.3 202,78.9 S202,81.2 202,81.8 S202,84.1 202,84.7 S202,87 202,87.6 S202,89.9 202,90.4 S202,92.7 202,93.3 S202,95.6 202,96.2 S202,98.6 202,99.1 S202,100 202,101 S202,103 202,103 S203,104 203,105 S203,107 203,108 S203,109 203,109 S203,110 203,111 S203,112 203,112 S203,112 203,112 S203,109 203,108 S203,104 203,103 S203,98.4 203,97.6 S203,96.3 203,96.2 S204,96.1 204,96.2 S204,97.4 204,97.6 S204,98.6 204,99.1 S204,102 204,102 S204,103 204,103 S204,106 204,106 S204,109 204,109 S204,112 204,112 S204,113 204,112 S204,107 204,106 S205,104 205,103 S205,105 205,105 S205,104 205,103 S205,99.7 205,99.1 S205,97.9 205,97.6 S205,96.5 205,96.2 S205,94.9 205,94.8 S205,95 205,94.8 S205,92.5 205,91.9 S205,89.6 206,89 S206,86.6 206,86.1 S206,85.1 206,84.7 S206,82.2 206,81.8 S206,80.6 206,80.4 S206,79.2 206,78.9 S206,77.6 206,77.5 S206,77.5 206,77.5 S206,77.2 206,77.5 S206,79.6 206,80.4 S207,83.8 207,84.7 S207,88.3 207,89 S207,91.2 207,91.9 S207,95.5 207,96.2 S207,98.5 207,99.1 S207,101 207,102 S207,104 207,105 S207,107 207,108 S207,110 207,111 S207,113 207,113 S208,114 208,115 S208,117 208,118 S208,120 208,121 S208,122 208,122 S208,123 208,122 S208,119 208,118 S208,113 208,112 S208,108 208,108 S208,107 208,106 S208,104 208,103 S209,99.5 209,99.1 S209,98.9 209,99.1 S209,100 209,101 S209,101 209,101 S209,100 209,101 S209,103 209,103 S209,106 209,106 S209,107 209,108 S209,110 209,111 S209,109 210,109 S210,111 210,111 S210,108 210,108 S210,108 210,108 S210,108 210,108 S210,105 210,105 S210,104 210,103 S210,104 210,103 S210,101 210,101 S210,99.5 210,99.1 S211,96.8 211,96.2 S211,93.8 211,93.3 S211,92.3 211,91.9 S211,89.4 211,89 S211,87.8 211,87.6 S211,86.4 211,86.1 S211,84.7 211,84.7 S211,85.7 211,86.1 S211,88.3 211,89 S211,92.5 211,93.3 S212,96.8 212,97.6 S212,101 212,102 S212,106 212,106 S212,109 212,109 S212,111 212,112 S212,114 212,115 S212,117 212,118 S212,120 212,121 S212,123 212,124 S212,125 212,125 S213,127 213,128 S213,129 213,129 S213,131 213,131 S213,131 213,131 S213,127 213,126 S213,122 213,121 S213,117 213,116 S213,115 213,115 S213,114 213,113 S213,110 214,109 S214,108 214,108 S214,108 214,108 S214,108 214,108 S214,109 214,109 S214,113 214,113 S214,117 214,118 S214,120 214,121 S214,123 214,122 S214,117 214,115 S215,106 215,103 S215,94.8 215,93.3 S215,89.7 215,89 S215,86.4 215,86.1 S215,86.4 215,86.1 S215,84 215,83.2 S215,79.6 215,78.9 S215,76.6 215,76 S215,73.7 215,73.2 S215,70.6 215,70.3 S216,70.1 216,70.3 S216,71.1 216,71.7 S216,75 216,76 S216,80.5 216,81.8 S216,87.8 216,89 S216,92.3 216,93.3 S216,98.2 216,99.1 S216,101 216,102 S216,106 216,106 S216,109 216,109 S217,111 217,112 S217,114 217,115 S217,117 217,118 S217,119 217,119 S217,122 217,122 S217,123 217,124 S217,126 217,126 S217,128 217,128 S217,129 217,129 S217,132 217,132 S218,133 218,134 S218,135 218,135 S218,136 218,137 S218,137 218,137 S218,133 218,132 S218,129 218,128 S218,124 218,122 S218,114 218,112 S218,102 218,101 S219,96.6 219,96.2 S219,96.1 219,96.2 S219,97.2 219,97.6 S219,99.8 219,101 S219,104 219,105 S219,108 219,109 S219,111 219,112 S219,116 219,116 S219,119 219,119 S219,119 219,118 S220,109 220,108 S220,102 220,101 S220,97.2 220,96.2 S220,91.7 220,90.4 S220,84 220,83.2 S220,83.1 220,83.2 S220,84.4 220,84.7 S220,86 220,86.1 S220,86.1 220,86.1 S220,86.1 220,86.1 S221,86.1 221,86.1 S221,86.1 221,86.1 S221,86.3 221,86.1 S221,84.8 221,84.7 S221,84.5 221,84.7 S221,85.7 221,86.1 S221,88.3 221,89 S221,92.6 221,93.3 S221,95.5 221,96.2 S221,99.8 221,101 S222,103 222,103 S222,107 222,108 S222,110 222,111 S222,113 222,113 S222,117 222,118 S222,120 222,121 S222,122 222,122 S222,124 222,125 S222,127 222,128 S222,129 223,129 S223,131 223,131 S223,130 223,129 S223,126 223,125 S223,120 223,119 S223,116 223,115 S223,112 223,111 S223,106 223,105 S223,99.9 223,99.1 S223,96.5 223,96.2 S224,96.3 224,96.2 S224,95 224,94.8 S224,93.6 224,93.3 S224,92 224,91.9 S224,92 224,91.9 S224,90.9 224,90.4 S224,87.8 224,87.6 S224,87.6 224,87.6 S224,87.4 224,87.6 S224,88.9 224,89 S225,88.9 225,89 S225,90.3 225,90.4 S225,91 225,90.4 S225,86 225,84.7 S225,79.5 225,77.5 S225,66.1 225,64.5 S225,61.6 225,61.6 S225,63.7 225,64.5 S225,69.3 225,70.3 S225,74.2 225,74.6 S226,74.5 226,74.6 S226,75.8 226,76 S226,77.2 226,77.5 S226,78.6 226,78.9 S226,79.9 226,80.4 S226,82.7 226,83.2 S226,85.4 226,86.1 S226,89.7 226,90.4 S226,92.7 226,93.3 S226,95.6 227,96.2 S227,98.5 227,99.1 S227,102 227,102 S227,103 227,103 S227,106 227,106 S227,109 227,109 S227,112 227,112 S227,113 227,113 S227,116 227,116 S227,117 227,118 S228,121 228,121 S228,120 228,119 S228,116 228,115 S228,109 228,108 S228,102 228,101 S228,96.9 228,96.2 S228,93.9 228,93.3 S228,91.2 228,90.4 S228,86.8 228,86.1 S228,83.7 228,83.2 S229,81.5 229,81.8 S229,85.1 229,86.1 S229,90.7 229,91.9 S229,96.6 229,97.6 S229,101 229,102 S229,107 229,108 S229,110 229,111 S229,114 229,115 S229,117 229,118 S229,120 229,121 S230,123 230,124 S230,126 230,126 S230,129 230,129 S230,130 230,131 S230,132 230,132 S230,135 230,135 S230,136 230,137 S230,138 230,138 S230,139 230,139 S230,141 231,141 S231,142 231,142 S231,143 231,144 S231,145 231,145 S231,146 231,147 S231,148 231,148 S231,148 231,148 S231,149 231,149 S231,151 231,151 S231,152 231,152 S232,154 232,154 S232,155 232,155 S232,157 232,157 S232,157 232,157 S232,158 232,158 S232,158 232,158 S232,158 232,158 S232,158 232,158 S232,159 232,160 S232,159 232,160 S233,161 233,161 S233,162 233,162 S233,164 233,164 S233,164 233,164 S233,165 233,165 S233,165 233,165 S233,167 233,167 S233,167 233,167 S233,167 233,167 S233,167 233,167 S234,168 234,168 S234,168 234,168 S234,167 234,167 S234,167 234,167 S234,165 234,165 S234,167 234,167 S234,167 234,167 S234,168 234,168 S234,169 234,170 S234,171 235,171 S235,172 235,173 S235,174 235,174 S235,175 235,175 S235,175 235,175 S235,177 235,177 S235,177 235,177 S235,177 235,177 S235,177 235,177 S235,177 235,177 S236,177 236,177 S236,178 236,178 S236,180 236,180 S236,180 236,180 S236,181 236,181 S236,181 236,181 S236,182 236,183 S236,184 236,184 S236,184 236,184 S236,184 236,184 S237,184 237,184 S237,184 237,184 S237,184 237,184 S237,185 237,185 S237,185 237,185 S237,187 237,187 S237,188 237,188 S237,188 237,188 S237,188 237,188 S237,190 237,190 S238,190 238,190 S238,190 238,190 S238,189 238,188 S238,189 238,188 S238,186 238,185 S238,184 238,184 S238,183 238,183 S238,181 238,181 S238,180 238,180 S238,180 239,180 S239,181 239,181 S239,183 239,183 S239,181 239,181 S239,182 239,183 S239,183 239,183 S239,182 239,183 S239,184 239,184 S239,184 239,184 S239,185 239,185 S240,185 240,185 S240,187 240,187 S240,187 240,187 S240,188 240,188 S240,190 240,190 S240,190 240,190 S240,191 240,191 S240,191 240,191 S240,190 240,190 S240,189 240,188 S241,189 241,188 S241,187 241,187 S241,186 241,185 S241,184 241,184 S241,184 241,184 S241,184 241,184 S241,185 241,185 S241,185 241,185 S241,187 241,187 S241,188 241,188 S242,188 242,188 S242,190 242,190 S242,190 242,190 S242,191 242,191 S242,191 242,191 S242,192 242,193 S242,194 242,194 S242,194 242,194 S242,194 242,194 S242,193 242,193 S243,188 243,187 S243,180 243,178 S243,173 243,171 S243,164 243,162 S243,154 243,151 S243,139 243,137 S243,128 243,126 S243,122 243,121 S243,117 243,116 S244,114 244,113 S244,111 244,111 S244,109 244,109 S244,110 244,111 S244,114 244,115 S244,119 244,119 S244,121 244,121 S244,121 244,121 S244,121 244,121 S244,122 244,122 S245,126 245,126 S245,128 245,128 S245,124 245,122 S245,111 245,109 S245,103 245,102 S245,98.5 245,97.6 S245,94 245,93.3 S245,91.2 245,90.4 S245,86.8 245,86.1 S245,83.7 245,83.2 S246,81.8 246,81.8 S246,82.8 246,83.2 S246,85.4 246,86.1 S246,89.7 246,90.4 S246,92.6 246,93.3 S246,96.9 246,97.6 S246,99.8 246,101 S246,104 246,105 S246,107 246,108 S246,110 246,111 S247,113 247,113 S247,116 247,116 S247,119 247,119 S247,122 247,122 S247,123 247,124 S247,126 247,126 S247,129 247,129 S247,127 247,126 S247,121 247,119 S247,113 248,112 S248,107 248,106 S248,105 248,105 S248,105 248,105 S248,101 248,101 S248,99.2 248,99.1 S248,98.9 248,99.1 S248,100 248,101 S248,101 248,101 S248,96.2 248,94.8 S249,87.4 249,86.1 S249,82.5 249,81.8 S249,79.4 249,78.9 S249,77.9 249,77.5 S249,74.9 249,74.6 S249,74.6 249,74.6 S249,74.3 249,74.6 S249,77 249,77.5 S249,78.9 249,78.9 S249,77.8 249,77.5 S250,76.2 250,76 S250,76.3 250,76 S250,73.6 250,73.2 S250,71.7 250,71.7 S250,72.7 250,73.2 S250,75.5 250,76 S250,78.6 250,78.9 S250,78.9 250,78.9 S250,78.9 250,78.9 S250,78.8 250,78.9 S251,80.1 251,80.4 S251,81.4 251,81.8 S251,84.1 251,84.7 S251,87 251,87.6 S251,89.9 251,90.4 S251,92.7 251,93.3 S251,95.8 251,96.2 S251,97.2 251,97.6 S251,99.9 251,101 S251,103 252,103 S252,104 252,105 S252,107 252,108 S252,110 252,111 S252,112 252,112 S252,113 252,113 S252,116 252,116 S252,114 252,113 S252,109 252,108 S252,102 252,101 S253,95.9 253,94.8 S253,89.9 253,89 S253,86.6 253,86.1 S253,84.5 253,84.7 S253,87 253,87.6 S253,89.7 253,90.4 S253,93.9 253,94.8 S253,98.4 253,99.1 S253,101 253,102 S253,106 253,106 S254,109 254,109 S254,112 254,112 S254,108 254,106 S254,96.6 254,94.8 S254,88.9 254,87.6 S254,83 254,81.8 S254,76.9 254,76 S254,73.6 254,73.2 S254,72.4 254,71.7 S254,67 254,66 S255,62.4 255,61.6 S255,59.2 255,58.8 S255,57.5 255,57.3 S255,57.3 255,57.3 S255,57.3 255,57.3 S255,57.3 255,57.3 S255,57.3 255,57.3 S255,57.2 255,57.3 S255,58.3 255,58.8 S255,60.9 256,61.6 S256,65.1 256,66 S256,69.4 256,70.3 S256,73.7 256,74.6 S256,78.1 256,78.9 S256,82.4 256,83.2 S256,86.7 256,87.6 S256,91.2 256,91.9 S256,94.2 256,94.8 S256,97.1 256,97.6 S257,99.9 257,101 S257,103 257,103 S257,106 257,106 S257,107 257,108 S257,110 257,111 S257,112 257,112 S257,113 257,112 S257,108 257,106 S257,100 257,99.1 S257,95.3 257,94.8 S258,93.8 258,93.3 S258,91 258,90.4 S258,87.8 258,87.6 S258,87.4 258,87.6 S258,88.9 258,89 S258,89 258,89 S258,89.1 258,89 S258,87.8 258,87.6 S258,86.7 258,86.1 S258,82.5 258,81.8 S259,79.2 259,78.9 S259,79.1 259,78.9 S259,77.5 259,77.5 S259,78.6 259,78.9 S259,80.5 259,80.4 S259,78.1 259,77.5 S259,75.2 259,74.6 S259,71.7 259,71.7 S259,74 259,74.6 S259,76.9 260,77.5 S260,79.9 260,80.4 S260,81.7 260,81.8 S260,81.8 260,81.8 S260,81.8 260,81.8 S260,81.9 260,81.8 S260,80.5 260,80.4 S260,80.4 260,80.4 S260,80.2 260,80.4 S260,81.2 260,81.8 S261,85.3 261,86.1 S261,89.7 261,90.4 S261,92.6 261,93.3 S261,96.8 261,97.6 S261,101 261,102 S261,104 261,105 S261,107 261,108 S261,111 261,112 S261,113 261,113 S261,116 261,116 S262,119 262,119 S262,122 262,122 S262,123 262,124 S262,126 262,126 S262,128 262,128 S262,127 262,126 S262,122 262,121 S262,115 262,113 S262,108 262,106 S262,100 262,99.1 S263,95.5 263,94.8 S263,92.3 263,91.9 S263,91.3 263,90.4 S263,84.5 263,83.2 S263,78.1 263,77.5 S263,77.3 263,77.5 S263,78.6 263,78.9 S263,80.4 263,80.4 S263,79.2 263,78.9 S263,77.6 264,77.5 S264,77.5 264,77.5 S264,77.5 264,77.5 S264,77.5 264,77.5 S264,77.8 264,77.5 S264,75.2 264,74.6 S264,72.2 264,71.7 S264,70.7 264,70.3 S264,68 264,67.4 S264,64.7 264,64.5 S265,65.7 265,66 S265,67.4 265,67.4 S265,66.2 265,66 S265,65.2 265,64.5 S265,59.6 265,58.8 S265,56.3 265,55.9 S265,54.7 265,54.4 S265,53 265,53 S265,53.9 265,54.4 S265,57.8 265,58.8 S266,63.5 266,64.5 S266,67.8 266,68.8 S266,73.6 266,74.6 S266,78.1 266,78.9 S266,82.4 266,83.2 S266,86.7 266,87.6 S266,91.2 266,91.9 S266,94 266,94.8 S266,98.4 266,99.1 S266,101 266,102 S267,104 267,105 S267,107 267,108 S267,110 267,111 S267,113 267,113 S267,113 267,112 S267,107 267,106 S267,102 267,101 S267,95.8 267,94.8 S267,91.3 267,90.4 S267,87.3 267,86.1 S268,79.9 268,78.9 S268,76.3 268,76 S268,75.9 268,76 S268,77.3 268,77.5 S268,77.8 268,77.5 S268,75.3 268,74.6 S268,70.6 268,70.3 S268,71.3 268,71.7 S268,73.9 268,74.6 S269,78.1 269,78.9 S269,82.4 269,83.2 S269,86.6 269,87.6 S269,92.5 269,93.3 S269,95.9 269,96.2 S269,96.3 269,96.2 S269,95.9 269,94.8 S269,86.8 269,84.7 S269,75 269,73.2 S269,67 269,66 S270,63.5 270,63.1 S270,61.9 270,61.6 S270,60.5 270,60.2 S270,58.9 270,58.8 S270,58.9 270,58.8 S270,57.6 270,57.3 S270,55.7 270,55.9 S270,58 270,58.8 S270,62.1 270,63.1 S270,67.8 270,68.8 S271,72.2 271,73.2 S271,77.8 271,78.9 S271,83.7 271,84.7 S271,88.1 271,89 S271,92.5 271,93.3 S271,96.9 271,97.6 S271,99.8 271,101 S271,104 271,105 S271,107 271,108 S271,110 271,111 S272,113 272,113 S272,116 272,116 S272,118 272,118 S272,117 272,116 S272,113 272,112 S272,105 272,103 S272,98.4 272,97.6 S272,96.5 272,96.2 S272,95.3 272,94.8 S272,91.2 273,90.4 S273,88.3 273,87.6 S273,84.1 273,83.2 S273,79.6 273,78.9 S273,76.6 273,76 S273,73.7 273,73.2 S273,70.9 273,70.3 S273,67.8 273,67.4 S273,65.7 273,66 S273,69.6 273,70.3 S274,74 274,73.2 S274,63.8 274,61.6 S274,50.6 274,51.6 " fill="none"/></g>
</g>
<g id="plotPoints" clip-path="url(#plot_window)"><g stroke="rgb(0,0,255)" fill="rgb(255,255,255)"><circle cx="101" cy="272" r="1"/><circle cx="101" cy="270" r="1"/><circle cx="101" cy="281" r="1"/><circle cx="101" cy="292" r="1"/><circle cx="102" cy="309" r="1"/><circle cx="102" cy="305" r="1"/><circle cx="102" cy="321" r="1"/><circle cx="102" cy="325" r="1"/><circle cx="102" cy="328" r="1"/><circle cx="102" cy="334" r="1"/><circle cx="102" cy="328" r="1"/><circle cx="102" cy="312" r="1"/><circle cx="103" cy="305" r="1"/><circle cx="103" cy="301" r="1"/><circle cx="103" cy="301" r="1"/><circle cx="103" cy="298" r="1"/><circle cx="103" cy="301" r="1"/><circle cx="103" cy="299" r="1"/><circle cx="103" cy="291" r="1"/><circle cx="103" cy="296" r="1"/><circle cx="103" cy="298" r="1"/><circle cx="103" cy="304" r="1"/><circle cx="104" cy="309" r="1"/><circle cx="104" cy="304" r="1"/><circle cx="104" cy="317" r="1"/><circle cx="104" cy="324" r="1"/><circle cx="104" cy="322" r="1"/><circle cx="104" cy="328" r="1"/><circle cx="104" cy="332" r="1"/><circle cx="104" cy="332" r="1"/><circle cx="104" cy="328" r="1"/><circle cx="104" cy="322" r="1"/><circle cx="105" cy="321" r="1"/><circle cx="105" cy="329" r="1"/><circle cx="105" cy="331" r="1"/><circle cx="105" cy="322" r="1"/><circle cx="105" cy="324" r="1"/><circle cx="105" cy="302" r="1"/><circle cx="105" cy="265" r="1"/><circle cx="105" cy="247" r="1"/><circle cx="105" cy="243" r="1"/><circle cx="106" cy="236" r="1"/><circle cx="106" cy="227" r="1"/><circle cx="106" cy="227" r="1"/><circle cx="106" cy="262" r="1"/><circle cx="106" cy="272" r="1"/><circle cx="106" cy="282" r="1"/><circle cx="106" cy="281" r="1"/><circle cx="106" cy="293" r="1"/><circle cx="106" cy="312" r="1"/><circle cx="106" cy="321" r="1"/><circle cx="107" cy="325" r="1"/><circle cx="107" cy="329" r="1"/><circle cx="107" cy="335" r="1"/><circle cx="110" cy="334" r="1"/><circle cx="110" cy="315" r="1"/><circle cx="111" cy="302" r="1"/><circle cx="111" cy="309" r="1"/><circle cx="111" cy="317" r="1"/><circle cx="111" cy="324" r="1"/><circle cx="111" cy="321" r="1"/><circle cx="111" cy="328" r="1"/><circle cx="111" cy="335" r="1"/><circle cx="120" cy="335" r="1"/><circle cx="120" cy="312" r="1"/><circle cx="120" cy="322" r="1"/><circle cx="121" cy="335" r="1"/><circle cx="121" cy="340" r="1"/><circle cx="121" cy="340" r="1"/><circle cx="121" cy="340" r="1"/><circle cx="121" cy="335" r="1"/><circle cx="121" cy="340" r="1"/><circle cx="122" cy="335" r="1"/><circle cx="124" cy="332" r="1"/><circle cx="124" cy="321" r="1"/><circle cx="124" cy="314" r="1"/><circle cx="124" cy="317" r="1"/><circle cx="124" cy="322" r="1"/><circle cx="124" cy="327" r="1"/><circle cx="124" cy="325" r="1"/><circle cx="124" cy="324" r="1"/><circle cx="124" cy="302" r="1"/><circle cx="125" cy="309" r="1"/><circle cx="125" cy="295" r="1"/><circle cx="125" cy="301" r="1"/><circle cx="125" cy="291" r="1"/><circle cx="125" cy="243" r="1"/><circle cx="125" cy="232" r="1"/><circle cx="125" cy="211" r="1"/><circle cx="125" cy="255" r="1"/><circle cx="125" cy="247" r="1"/><circle cx="125" cy="252" r="1"/><circle cx="126" cy="257" r="1"/><circle cx="126" cy="283" r="1"/><circle cx="126" cy="295" r="1"/><circle cx="126" cy="296" r="1"/><circle cx="126" cy="299" r="1"/><circle cx="126" cy="298" r="1"/><circle cx="126" cy="304" r="1"/><circle cx="126" cy="304" r="1"/><circle cx="126" cy="306" r="1"/><circle cx="127" cy="309" r="1"/><circle cx="127" cy="314" r="1"/><circle cx="127" cy="312" r="1"/><circle cx="127" cy="311" r="1"/><circle cx="127" cy="314" r="1"/><circle cx="127" cy="317" r="1"/><circle cx="127" cy="319" r="1"/><circle cx="127" cy="319" r="1"/><circle cx="127" cy="321" r="1"/><circle cx="127" cy="322" r="1"/><circle cx="128" cy="325" r="1"/><circle cx="128" cy="329" r="1"/><circle cx="128" cy="331" r="1"/><circle cx="128" cy="332" r="1"/><circle cx="128" cy="331" r="1"/><circle cx="128" cy="332" r="1"/><circle cx="130" cy="338" r="1"/><circle cx="130" cy="331" r="1"/><circle cx="130" cy="325" r="1"/><circle cx="130" cy="324" r="1"/><circle cx="130" cy="322" r="1"/><circle cx="130" cy="321" r="1"/><circle cx="131" cy="318" r="1"/><circle cx="131" cy="321" r="1"/><circle cx="131" cy="325" r="1"/><circle cx="131" cy="327" r="1"/><circle cx="131" cy="328" r="1"/><circle cx="131" cy="332" r="1"/><circle cx="131" cy="335" r="1"/><circle cx="131" cy="334" r="1"/><circle cx="131" cy="337" r="1"/><circle cx="131" cy="340" r="1"/><circle cx="132" cy="335" r="1"/><circle cx="132" cy="335" r="1"/><circle cx="132" cy="335" r="1"/><circle cx="132" cy="340" r="1"/><circle cx="132" cy="337" r="1"/><circle cx="132" cy="340" r="1"/><circle cx="132" cy="338" r="1"/><circle cx="132" cy="338" r="1"/><circle cx="132" cy="340" r="1"/><circle cx="133" cy="340" r="1"/><circle cx="133" cy="340" r="1"/><circle cx="133" cy="338" r="1"/><circle cx="133" cy="340" r="1"/><circle cx="133" cy="340" r="1"/><circle cx="134" cy="340" r="1"/><circle cx="134" cy="338" r="1"/><circle cx="134" cy="338" r="1"/><circle cx="134" cy="338" r="1"/><circle cx="135" cy="340" r="1"/><circle cx="135" cy="337" r="1"/><circle cx="135" cy="340" r="1"/><circle cx="135" cy="331" r="1"/><circle cx="135" cy="322" r="1"/><circle cx="135" cy="311" r="1"/><circle cx="135" cy="308" r="1"/><circle cx="135" cy="295" r="1"/><circle cx="135" cy="282" r="1"/><circle cx="135" cy="275" r="1"/><circle cx="136" cy="283" r="1"/><circle cx="136" cy="286" r="1"/><circle cx="136" cy="272" r="1"/><circle cx="136" cy="302" r="1"/><circle cx="136" cy="318" r="1"/><circle cx="136" cy="331" r="1"/><circle cx="137" cy="338" r="1"/><circle cx="138" cy="338" r="1"/><circle cx="138" cy="338" r="1"/><circle cx="138" cy="305" r="1"/><circle cx="138" cy="298" r="1"/><circle cx="138" cy="304" r="1"/><circle cx="138" cy="309" r="1"/><circle cx="138" cy="308" r="1"/><circle cx="138" cy="321" r="1"/><circle cx="138" cy="318" r="1"/><circle cx="139" cy="338" r="1"/><circle cx="139" cy="338" r="1"/><circle cx="139" cy="322" r="1"/><circle cx="139" cy="318" r="1"/><circle cx="139" cy="322" r="1"/><circle cx="139" cy="319" r="1"/><circle cx="139" cy="327" r="1"/><circle cx="139" cy="325" r="1"/><circle cx="139" cy="328" r="1"/><circle cx="140" cy="321" r="1"/><circle cx="140" cy="298" r="1"/><circle cx="140" cy="278" r="1"/><circle cx="140" cy="237" r="1"/><circle cx="140" cy="247" r="1"/><circle cx="140" cy="263" r="1"/><circle cx="140" cy="273" r="1"/><circle cx="140" cy="291" r="1"/><circle cx="140" cy="283" r="1"/><circle cx="140" cy="291" r="1"/><circle cx="141" cy="282" r="1"/><circle cx="141" cy="288" r="1"/><circle cx="141" cy="309" r="1"/><circle cx="141" cy="322" r="1"/><circle cx="145" cy="319" r="1"/><circle cx="145" cy="299" r="1"/><circle cx="145" cy="329" r="1"/><circle cx="145" cy="337" r="1"/><circle cx="149" cy="340" r="1"/><circle cx="149" cy="340" r="1"/><circle cx="149" cy="338" r="1"/><circle cx="149" cy="335" r="1"/><circle cx="149" cy="334" r="1"/><circle cx="149" cy="329" r="1"/><circle cx="150" cy="328" r="1"/><circle cx="150" cy="322" r="1"/><circle cx="150" cy="319" r="1"/><circle cx="150" cy="312" r="1"/><circle cx="150" cy="314" r="1"/><circle cx="150" cy="306" r="1"/><circle cx="150" cy="308" r="1"/><circle cx="150" cy="309" r="1"/><circle cx="150" cy="308" r="1"/><circle cx="150" cy="311" r="1"/><circle cx="151" cy="315" r="1"/><circle cx="151" cy="317" r="1"/><circle cx="151" cy="318" r="1"/><circle cx="151" cy="321" r="1"/><circle cx="151" cy="318" r="1"/><circle cx="151" cy="319" r="1"/><circle cx="151" cy="321" r="1"/><circle cx="151" cy="319" r="1"/><circle cx="151" cy="321" r="1"/><circle cx="152" cy="317" r="1"/><circle cx="152" cy="318" r="1"/><circle cx="152" cy="318" r="1"/><circle cx="152" cy="319" r="1"/><circle cx="152" cy="318" r="1"/><circle cx="152" cy="321" r="1"/><circle cx="152" cy="319" r="1"/><circle cx="152" cy="317" r="1"/><circle cx="152" cy="318" r="1"/><circle cx="152" cy="318" r="1"/><circle cx="153" cy="318" r="1"/><circle cx="153" cy="317" r="1"/><circle cx="153" cy="317" r="1"/><circle cx="153" cy="317" r="1"/><circle cx="153" cy="317" r="1"/><circle cx="153" cy="318" r="1"/><circle cx="153" cy="317" r="1"/><circle cx="153" cy="317" r="1"/><circle cx="153" cy="317" r="1"/><circle cx="153" cy="318" r="1"/><circle cx="154" cy="317" r="1"/><circle cx="154" cy="317" r="1"/><circle cx="154" cy="317" r="1"/><circle cx="154" cy="315" r="1"/><circle cx="154" cy="317" r="1"/><circle cx="154" cy="317" r="1"/><circle cx="154" cy="312" r="1"/><circle cx="154" cy="314" r="1"/><circle cx="154" cy="302" r="1"/><circle cx="154" cy="298" r="1"/><circle cx="155" cy="298" r="1"/><circle cx="155" cy="292" r="1"/><circle cx="155" cy="291" r="1"/><circle cx="155" cy="289" r="1"/><circle cx="155" cy="289" r="1"/><circle cx="155" cy="286" r="1"/><circle cx="155" cy="285" r="1"/><circle cx="155" cy="283" r="1"/><circle cx="155" cy="283" r="1"/><circle cx="156" cy="282" r="1"/><circle cx="156" cy="293" r="1"/><circle cx="156" cy="301" r="1"/><circle cx="156" cy="315" r="1"/><circle cx="156" cy="314" r="1"/><circle cx="156" cy="309" r="1"/><circle cx="156" cy="308" r="1"/><circle cx="156" cy="305" r="1"/><circle cx="156" cy="309" r="1"/><circle cx="156" cy="308" r="1"/><circle cx="157" cy="308" r="1"/><circle cx="157" cy="311" r="1"/><circle cx="157" cy="312" r="1"/><circle cx="157" cy="312" r="1"/><circle cx="157" cy="311" r="1"/><circle cx="157" cy="312" r="1"/><circle cx="157" cy="312" r="1"/><circle cx="157" cy="312" r="1"/><circle cx="157" cy="311" r="1"/><circle cx="157" cy="309" r="1"/><circle cx="158" cy="309" r="1"/><circle cx="158" cy="309" r="1"/><circle cx="158" cy="312" r="1"/><circle cx="158" cy="312" r="1"/><circle cx="158" cy="315" r="1"/><circle cx="158" cy="312" r="1"/><circle cx="158" cy="312" r="1"/><circle cx="158" cy="314" r="1"/><circle cx="158" cy="315" r="1"/><circle cx="158" cy="314" r="1"/><circle cx="159" cy="314" r="1"/><circle cx="159" cy="315" r="1"/><circle cx="159" cy="315" r="1"/><circle cx="159" cy="315" r="1"/><circle cx="159" cy="317" r="1"/><circle cx="159" cy="315" r="1"/><circle cx="159" cy="312" r="1"/><circle cx="159" cy="306" r="1"/><circle cx="159" cy="295" r="1"/><circle cx="160" cy="266" r="1"/><circle cx="160" cy="279" r="1"/><circle cx="160" cy="283" r="1"/><circle cx="160" cy="289" r="1"/><circle cx="160" cy="295" r="1"/><circle cx="160" cy="296" r="1"/><circle cx="160" cy="301" r="1"/><circle cx="160" cy="306" r="1"/><circle cx="160" cy="314" r="1"/><circle cx="160" cy="318" r="1"/><circle cx="161" cy="322" r="1"/><circle cx="161" cy="327" r="1"/><circle cx="161" cy="328" r="1"/><circle cx="161" cy="329" r="1"/><circle cx="161" cy="329" r="1"/><circle cx="161" cy="331" r="1"/><circle cx="161" cy="332" r="1"/><circle cx="161" cy="334" r="1"/><circle cx="161" cy="334" r="1"/><circle cx="162" cy="334" r="1"/><circle cx="162" cy="334" r="1"/><circle cx="162" cy="337" r="1"/><circle cx="165" cy="331" r="1"/><circle cx="165" cy="309" r="1"/><circle cx="165" cy="298" r="1"/><circle cx="165" cy="299" r="1"/><circle cx="165" cy="286" r="1"/><circle cx="165" cy="283" r="1"/><circle cx="165" cy="288" r="1"/><circle cx="165" cy="283" r="1"/><circle cx="165" cy="285" r="1"/><circle cx="165" cy="291" r="1"/><circle cx="166" cy="281" r="1"/><circle cx="166" cy="279" r="1"/><circle cx="166" cy="282" r="1"/><circle cx="166" cy="279" r="1"/><circle cx="166" cy="273" r="1"/><circle cx="166" cy="268" r="1"/><circle cx="166" cy="266" r="1"/><circle cx="166" cy="270" r="1"/><circle cx="166" cy="263" r="1"/><circle cx="166" cy="263" r="1"/><circle cx="167" cy="262" r="1"/><circle cx="167" cy="257" r="1"/><circle cx="167" cy="256" r="1"/><circle cx="167" cy="250" r="1"/><circle cx="167" cy="252" r="1"/><circle cx="167" cy="255" r="1"/><circle cx="167" cy="250" r="1"/><circle cx="167" cy="249" r="1"/><circle cx="167" cy="249" r="1"/><circle cx="167" cy="247" r="1"/><circle cx="168" cy="245" r="1"/><circle cx="168" cy="243" r="1"/><circle cx="168" cy="243" r="1"/><circle cx="168" cy="243" r="1"/><circle cx="168" cy="246" r="1"/><circle cx="168" cy="246" r="1"/><circle cx="168" cy="245" r="1"/><circle cx="168" cy="246" r="1"/><circle cx="168" cy="247" r="1"/><circle cx="169" cy="250" r="1"/><circle cx="169" cy="247" r="1"/><circle cx="169" cy="242" r="1"/><circle cx="169" cy="242" r="1"/><circle cx="169" cy="236" r="1"/><circle cx="169" cy="240" r="1"/><circle cx="169" cy="237" r="1"/><circle cx="169" cy="245" r="1"/><circle cx="169" cy="245" r="1"/><circle cx="169" cy="239" r="1"/><circle cx="170" cy="239" r="1"/><circle cx="170" cy="239" r="1"/><circle cx="170" cy="234" r="1"/><circle cx="170" cy="234" r="1"/><circle cx="170" cy="233" r="1"/><circle cx="170" cy="227" r="1"/><circle cx="170" cy="224" r="1"/><circle cx="170" cy="220" r="1"/><circle cx="170" cy="219" r="1"/><circle cx="170" cy="216" r="1"/><circle cx="171" cy="211" r="1"/><circle cx="171" cy="211" r="1"/><circle cx="171" cy="211" r="1"/><circle cx="171" cy="213" r="1"/><circle cx="171" cy="214" r="1"/><circle cx="171" cy="214" r="1"/><circle cx="171" cy="214" r="1"/><circle cx="171" cy="211" r="1"/><circle cx="171" cy="210" r="1"/><circle cx="171" cy="211" r="1"/><circle cx="172" cy="207" r="1"/><circle cx="172" cy="209" r="1"/><circle cx="172" cy="209" r="1"/><circle cx="172" cy="206" r="1"/><circle cx="172" cy="204" r="1"/><circle cx="172" cy="206" r="1"/><circle cx="172" cy="204" r="1"/><circle cx="172" cy="204" r="1"/><circle cx="172" cy="201" r="1"/><circle cx="173" cy="204" r="1"/><circle cx="173" cy="203" r="1"/><circle cx="173" cy="211" r="1"/><circle cx="173" cy="220" r="1"/><circle cx="173" cy="216" r="1"/><circle cx="173" cy="220" r="1"/><circle cx="173" cy="217" r="1"/><circle cx="173" cy="220" r="1"/><circle cx="173" cy="221" r="1"/><circle cx="173" cy="226" r="1"/><circle cx="174" cy="229" r="1"/><circle cx="174" cy="227" r="1"/><circle cx="174" cy="226" r="1"/><circle cx="174" cy="224" r="1"/><circle cx="174" cy="224" r="1"/><circle cx="174" cy="227" r="1"/><circle cx="174" cy="226" r="1"/><circle cx="174" cy="226" r="1"/><circle cx="174" cy="224" r="1"/><circle cx="174" cy="224" r="1"/><circle cx="175" cy="221" r="1"/><circle cx="175" cy="223" r="1"/><circle cx="175" cy="221" r="1"/><circle cx="175" cy="224" r="1"/><circle cx="175" cy="221" r="1"/><circle cx="175" cy="227" r="1"/><circle cx="175" cy="233" r="1"/><circle cx="175" cy="233" r="1"/><circle cx="175" cy="234" r="1"/><circle cx="175" cy="239" r="1"/><circle cx="176" cy="243" r="1"/><circle cx="176" cy="243" r="1"/><circle cx="176" cy="242" r="1"/><circle cx="176" cy="245" r="1"/><circle cx="176" cy="249" r="1"/><circle cx="176" cy="247" r="1"/><circle cx="176" cy="250" r="1"/><circle cx="176" cy="249" r="1"/><circle cx="176" cy="247" r="1"/><circle cx="177" cy="247" r="1"/><circle cx="177" cy="249" r="1"/><circle cx="177" cy="247" r="1"/><circle cx="177" cy="247" r="1"/><circle cx="177" cy="247" r="1"/><circle cx="177" cy="249" r="1"/><circle cx="177" cy="249" r="1"/><circle cx="177" cy="250" r="1"/><circle cx="177" cy="249" r="1"/><circle cx="177" cy="252" r="1"/><circle cx="178" cy="255" r="1"/><circle cx="178" cy="256" r="1"/><circle cx="178" cy="259" r="1"/><circle cx="178" cy="259" r="1"/><circle cx="178" cy="260" r="1"/><circle cx="178" cy="262" r="1"/><circle cx="178" cy="265" r="1"/><circle cx="178" cy="266" r="1"/><circle cx="178" cy="268" r="1"/><circle cx="178" cy="268" r="1"/><circle cx="179" cy="269" r="1"/><circle cx="179" cy="268" r="1"/><circle cx="179" cy="266" r="1"/><circle cx="179" cy="262" r="1"/><circle cx="179" cy="259" r="1"/><circle cx="179" cy="256" r="1"/><circle cx="179" cy="253" r="1"/><circle cx="179" cy="252" r="1"/><circle cx="179" cy="252" r="1"/><circle cx="179" cy="253" r="1"/><circle cx="180" cy="249" r="1"/><circle cx="180" cy="237" r="1"/><circle cx="180" cy="243" r="1"/><circle cx="180" cy="252" r="1"/><circle cx="180" cy="256" r="1"/><circle cx="180" cy="259" r="1"/><circle cx="180" cy="262" r="1"/><circle cx="180" cy="268" r="1"/><circle cx="180" cy="275" r="1"/><circle cx="181" cy="278" r="1"/><circle cx="181" cy="278" r="1"/><circle cx="181" cy="285" r="1"/><circle cx="181" cy="292" r="1"/><circle cx="181" cy="293" r="1"/><circle cx="181" cy="291" r="1"/><circle cx="181" cy="286" r="1"/><circle cx="181" cy="288" r="1"/><circle cx="181" cy="283" r="1"/><circle cx="181" cy="285" r="1"/><circle cx="182" cy="282" r="1"/><circle cx="182" cy="283" r="1"/><circle cx="182" cy="283" r="1"/><circle cx="182" cy="286" r="1"/><circle cx="182" cy="296" r="1"/><circle cx="182" cy="298" r="1"/><circle cx="182" cy="304" r="1"/><circle cx="182" cy="302" r="1"/><circle cx="182" cy="299" r="1"/><circle cx="182" cy="296" r="1"/><circle cx="183" cy="293" r="1"/><circle cx="183" cy="293" r="1"/><circle cx="183" cy="295" r="1"/><circle cx="183" cy="295" r="1"/><circle cx="183" cy="292" r="1"/><circle cx="183" cy="292" r="1"/><circle cx="183" cy="292" r="1"/><circle cx="183" cy="289" r="1"/><circle cx="183" cy="291" r="1"/><circle cx="183" cy="292" r="1"/><circle cx="184" cy="291" r="1"/><circle cx="184" cy="289" r="1"/><circle cx="184" cy="288" r="1"/><circle cx="184" cy="288" r="1"/><circle cx="184" cy="283" r="1"/><circle cx="184" cy="281" r="1"/><circle cx="184" cy="269" r="1"/><circle cx="184" cy="262" r="1"/><circle cx="184" cy="259" r="1"/><circle cx="185" cy="262" r="1"/><circle cx="185" cy="263" r="1"/><circle cx="185" cy="265" r="1"/><circle cx="185" cy="263" r="1"/><circle cx="185" cy="265" r="1"/><circle cx="185" cy="268" r="1"/><circle cx="185" cy="269" r="1"/><circle cx="185" cy="269" r="1"/><circle cx="185" cy="268" r="1"/><circle cx="185" cy="265" r="1"/><circle cx="186" cy="265" r="1"/><circle cx="186" cy="268" r="1"/><circle cx="186" cy="275" r="1"/><circle cx="186" cy="276" r="1"/><circle cx="186" cy="276" r="1"/><circle cx="186" cy="275" r="1"/><circle cx="186" cy="270" r="1"/><circle cx="186" cy="272" r="1"/><circle cx="186" cy="270" r="1"/><circle cx="186" cy="266" r="1"/><circle cx="187" cy="265" r="1"/><circle cx="187" cy="260" r="1"/><circle cx="187" cy="259" r="1"/><circle cx="187" cy="256" r="1"/><circle cx="187" cy="252" r="1"/><circle cx="187" cy="250" r="1"/><circle cx="187" cy="250" r="1"/><circle cx="187" cy="246" r="1"/><circle cx="187" cy="243" r="1"/><circle cx="187" cy="240" r="1"/><circle cx="188" cy="237" r="1"/><circle cx="188" cy="233" r="1"/><circle cx="188" cy="230" r="1"/><circle cx="188" cy="232" r="1"/><circle cx="188" cy="230" r="1"/><circle cx="188" cy="230" r="1"/><circle cx="188" cy="229" r="1"/><circle cx="188" cy="227" r="1"/><circle cx="188" cy="226" r="1"/><circle cx="189" cy="224" r="1"/><circle cx="189" cy="226" r="1"/><circle cx="189" cy="224" r="1"/><circle cx="189" cy="226" r="1"/><circle cx="189" cy="226" r="1"/><circle cx="189" cy="221" r="1"/><circle cx="189" cy="221" r="1"/><circle cx="189" cy="221" r="1"/><circle cx="189" cy="221" r="1"/><circle cx="189" cy="223" r="1"/><circle cx="190" cy="224" r="1"/><circle cx="190" cy="223" r="1"/><circle cx="190" cy="224" r="1"/><circle cx="190" cy="224" r="1"/><circle cx="190" cy="230" r="1"/><circle cx="190" cy="226" r="1"/><circle cx="190" cy="223" r="1"/><circle cx="190" cy="223" r="1"/><circle cx="190" cy="224" r="1"/><circle cx="190" cy="232" r="1"/><circle cx="191" cy="232" r="1"/><circle cx="191" cy="234" r="1"/><circle cx="191" cy="237" r="1"/><circle cx="191" cy="237" r="1"/><circle cx="191" cy="237" r="1"/><circle cx="191" cy="236" r="1"/><circle cx="191" cy="236" r="1"/><circle cx="191" cy="233" r="1"/><circle cx="191" cy="234" r="1"/><circle cx="191" cy="234" r="1"/><circle cx="192" cy="234" r="1"/><circle cx="192" cy="234" r="1"/><circle cx="192" cy="234" r="1"/><circle cx="192" cy="236" r="1"/><circle cx="192" cy="237" r="1"/><circle cx="192" cy="242" r="1"/><circle cx="192" cy="242" r="1"/><circle cx="192" cy="247" r="1"/><circle cx="192" cy="252" r="1"/><circle cx="192" cy="253" r="1"/><circle cx="193" cy="253" r="1"/><circle cx="193" cy="250" r="1"/><circle cx="193" cy="246" r="1"/><circle cx="193" cy="245" r="1"/><circle cx="193" cy="245" r="1"/><circle cx="193" cy="240" r="1"/><circle cx="193" cy="239" r="1"/><circle cx="193" cy="240" r="1"/><circle cx="193" cy="243" r="1"/><circle cx="194" cy="242" r="1"/><circle cx="194" cy="239" r="1"/><circle cx="194" cy="232" r="1"/><circle cx="194" cy="232" r="1"/><circle cx="194" cy="214" r="1"/><circle cx="194" cy="220" r="1"/><circle cx="194" cy="220" r="1"/><circle cx="194" cy="219" r="1"/><circle cx="194" cy="213" r="1"/><circle cx="194" cy="211" r="1"/><circle cx="195" cy="217" r="1"/><circle cx="195" cy="219" r="1"/><circle cx="195" cy="221" r="1"/><circle cx="195" cy="233" r="1"/><circle cx="195" cy="237" r="1"/><circle cx="195" cy="234" r="1"/><circle cx="195" cy="236" r="1"/><circle cx="195" cy="237" r="1"/><circle cx="195" cy="234" r="1"/><circle cx="195" cy="226" r="1"/><circle cx="196" cy="226" r="1"/><circle cx="196" cy="223" r="1"/><circle cx="196" cy="227" r="1"/><circle cx="196" cy="229" r="1"/><circle cx="196" cy="229" r="1"/><circle cx="196" cy="232" r="1"/><circle cx="196" cy="224" r="1"/><circle cx="196" cy="219" r="1"/><circle cx="196" cy="219" r="1"/><circle cx="196" cy="221" r="1"/><circle cx="197" cy="220" r="1"/><circle cx="197" cy="224" r="1"/><circle cx="197" cy="226" r="1"/><circle cx="197" cy="232" r="1"/><circle cx="197" cy="230" r="1"/><circle cx="197" cy="232" r="1"/><circle cx="197" cy="224" r="1"/><circle cx="197" cy="226" r="1"/><circle cx="197" cy="223" r="1"/><circle cx="198" cy="219" r="1"/><circle cx="198" cy="221" r="1"/><circle cx="198" cy="224" r="1"/><circle cx="198" cy="229" r="1"/><circle cx="198" cy="245" r="1"/><circle cx="198" cy="246" r="1"/><circle cx="198" cy="253" r="1"/><circle cx="198" cy="255" r="1"/><circle cx="198" cy="252" r="1"/><circle cx="198" cy="253" r="1"/><circle cx="199" cy="255" r="1"/><circle cx="199" cy="252" r="1"/><circle cx="199" cy="243" r="1"/><circle cx="199" cy="221" r="1"/><circle cx="199" cy="211" r="1"/><circle cx="199" cy="207" r="1"/><circle cx="199" cy="234" r="1"/><circle cx="199" cy="223" r="1"/><circle cx="199" cy="224" r="1"/><circle cx="199" cy="233" r="1"/><circle cx="200" cy="245" r="1"/><circle cx="200" cy="242" r="1"/><circle cx="200" cy="242" r="1"/><circle cx="200" cy="243" r="1"/><circle cx="200" cy="236" r="1"/><circle cx="200" cy="234" r="1"/><circle cx="200" cy="239" r="1"/><circle cx="200" cy="242" r="1"/><circle cx="200" cy="247" r="1"/><circle cx="200" cy="246" r="1"/><circle cx="201" cy="246" r="1"/><circle cx="201" cy="247" r="1"/><circle cx="201" cy="245" r="1"/><circle cx="201" cy="240" r="1"/><circle cx="201" cy="243" r="1"/><circle cx="201" cy="243" r="1"/><circle cx="201" cy="245" r="1"/><circle cx="201" cy="249" r="1"/><circle cx="201" cy="252" r="1"/><circle cx="202" cy="256" r="1"/><circle cx="202" cy="263" r="1"/><circle cx="202" cy="266" r="1"/><circle cx="202" cy="269" r="1"/><circle cx="202" cy="266" r="1"/><circle cx="202" cy="272" r="1"/><circle cx="202" cy="289" r="1"/><circle cx="202" cy="295" r="1"/><circle cx="202" cy="292" r="1"/><circle cx="202" cy="293" r="1"/><circle cx="203" cy="299" r="1"/><circle cx="203" cy="295" r="1"/><circle cx="203" cy="288" r="1"/><circle cx="203" cy="289" r="1"/><circle cx="203" cy="293" r="1"/><circle cx="203" cy="298" r="1"/><circle cx="203" cy="296" r="1"/><circle cx="203" cy="298" r="1"/><circle cx="203" cy="293" r="1"/><circle cx="203" cy="275" r="1"/><circle cx="204" cy="286" r="1"/><circle cx="204" cy="245" r="1"/><circle cx="204" cy="270" r="1"/><circle cx="204" cy="245" r="1"/><circle cx="204" cy="250" r="1"/><circle cx="204" cy="262" r="1"/><circle cx="204" cy="259" r="1"/><circle cx="204" cy="260" r="1"/><circle cx="204" cy="257" r="1"/><circle cx="204" cy="255" r="1"/><circle cx="205" cy="269" r="1"/><circle cx="205" cy="272" r="1"/><circle cx="205" cy="276" r="1"/><circle cx="205" cy="272" r="1"/><circle cx="205" cy="272" r="1"/><circle cx="205" cy="262" r="1"/><circle cx="205" cy="260" r="1"/><circle cx="205" cy="263" r="1"/><circle cx="205" cy="263" r="1"/><circle cx="206" cy="265" r="1"/><circle cx="206" cy="268" r="1"/><circle cx="206" cy="266" r="1"/><circle cx="206" cy="269" r="1"/><circle cx="206" cy="269" r="1"/><circle cx="206" cy="270" r="1"/><circle cx="206" cy="282" r="1"/><circle cx="206" cy="278" r="1"/><circle cx="206" cy="272" r="1"/><circle cx="206" cy="275" r="1"/><circle cx="207" cy="279" r="1"/><circle cx="207" cy="285" r="1"/><circle cx="207" cy="285" r="1"/><circle cx="207" cy="288" r="1"/><circle cx="207" cy="282" r="1"/><circle cx="207" cy="286" r="1"/><circle cx="207" cy="279" r="1"/><circle cx="207" cy="282" r="1"/><circle cx="207" cy="283" r="1"/><circle cx="207" cy="281" r="1"/><circle cx="208" cy="288" r="1"/><circle cx="208" cy="289" r="1"/><circle cx="208" cy="282" r="1"/><circle cx="208" cy="279" r="1"/><circle cx="208" cy="275" r="1"/><circle cx="208" cy="269" r="1"/><circle cx="208" cy="268" r="1"/><circle cx="208" cy="268" r="1"/><circle cx="208" cy="269" r="1"/><circle cx="208" cy="273" r="1"/><circle cx="209" cy="275" r="1"/><circle cx="209" cy="278" r="1"/><circle cx="209" cy="291" r="1"/><circle cx="209" cy="295" r="1"/><circle cx="209" cy="286" r="1"/><circle cx="209" cy="292" r="1"/><circle cx="209" cy="291" r="1"/><circle cx="209" cy="292" r="1"/><circle cx="209" cy="295" r="1"/><circle cx="210" cy="302" r="1"/><circle cx="210" cy="308" r="1"/><circle cx="210" cy="304" r="1"/><circle cx="210" cy="305" r="1"/><circle cx="210" cy="302" r="1"/><circle cx="210" cy="315" r="1"/><circle cx="210" cy="309" r="1"/><circle cx="210" cy="309" r="1"/><circle cx="210" cy="311" r="1"/><circle cx="210" cy="321" r="1"/><circle cx="211" cy="324" r="1"/><circle cx="211" cy="317" r="1"/><circle cx="211" cy="322" r="1"/><circle cx="211" cy="299" r="1"/><circle cx="211" cy="309" r="1"/><circle cx="211" cy="312" r="1"/><circle cx="211" cy="319" r="1"/><circle cx="211" cy="304" r="1"/><circle cx="211" cy="293" r="1"/><circle cx="211" cy="292" r="1"/><circle cx="212" cy="285" r="1"/><circle cx="212" cy="275" r="1"/><circle cx="212" cy="272" r="1"/><circle cx="212" cy="266" r="1"/><circle cx="212" cy="266" r="1"/><circle cx="212" cy="268" r="1"/><circle cx="212" cy="272" r="1"/><circle cx="212" cy="276" r="1"/><circle cx="212" cy="278" r="1"/><circle cx="212" cy="285" r="1"/><circle cx="213" cy="283" r="1"/><circle cx="213" cy="279" r="1"/><circle cx="213" cy="279" r="1"/><circle cx="213" cy="282" r="1"/><circle cx="213" cy="283" r="1"/><circle cx="213" cy="282" r="1"/><circle cx="213" cy="283" r="1"/><circle cx="213" cy="278" r="1"/><circle cx="213" cy="270" r="1"/><circle cx="214" cy="293" r="1"/><circle cx="214" cy="272" r="1"/><circle cx="214" cy="242" r="1"/><circle cx="214" cy="257" r="1"/><circle cx="214" cy="243" r="1"/><circle cx="214" cy="250" r="1"/><circle cx="214" cy="255" r="1"/><circle cx="214" cy="257" r="1"/><circle cx="214" cy="259" r="1"/><circle cx="214" cy="260" r="1"/><circle cx="215" cy="263" r="1"/><circle cx="215" cy="262" r="1"/><circle cx="215" cy="293" r="1"/><circle cx="215" cy="293" r="1"/><circle cx="215" cy="288" r="1"/><circle cx="215" cy="288" r="1"/><circle cx="215" cy="285" r="1"/><circle cx="215" cy="286" r="1"/><circle cx="215" cy="285" r="1"/><circle cx="215" cy="282" r="1"/><circle cx="216" cy="281" r="1"/><circle cx="216" cy="281" r="1"/><circle cx="216" cy="282" r="1"/><circle cx="216" cy="288" r="1"/><circle cx="216" cy="286" r="1"/><circle cx="216" cy="286" r="1"/><circle cx="216" cy="285" r="1"/><circle cx="216" cy="285" r="1"/><circle cx="216" cy="285" r="1"/><circle cx="216" cy="285" r="1"/><circle cx="217" cy="288" r="1"/><circle cx="217" cy="289" r="1"/><circle cx="217" cy="292" r="1"/><circle cx="217" cy="293" r="1"/><circle cx="217" cy="299" r="1"/><circle cx="217" cy="301" r="1"/><circle cx="217" cy="304" r="1"/><circle cx="217" cy="309" r="1"/><circle cx="217" cy="314" r="1"/><circle cx="217" cy="319" r="1"/><circle cx="218" cy="325" r="1"/><circle cx="218" cy="327" r="1"/><circle cx="218" cy="332" r="1"/><circle cx="218" cy="329" r="1"/><circle cx="218" cy="328" r="1"/><circle cx="218" cy="324" r="1"/><circle cx="218" cy="296" r="1"/><circle cx="218" cy="266" r="1"/><circle cx="218" cy="262" r="1"/><circle cx="219" cy="272" r="1"/><circle cx="219" cy="273" r="1"/><circle cx="219" cy="245" r="1"/><circle cx="219" cy="253" r="1"/><circle cx="219" cy="260" r="1"/><circle cx="219" cy="263" r="1"/><circle cx="219" cy="268" r="1"/><circle cx="219" cy="270" r="1"/><circle cx="219" cy="273" r="1"/><circle cx="219" cy="276" r="1"/><circle cx="220" cy="276" r="1"/><circle cx="220" cy="279" r="1"/><circle cx="220" cy="281" r="1"/><circle cx="220" cy="279" r="1"/><circle cx="220" cy="281" r="1"/><circle cx="220" cy="285" r="1"/><circle cx="220" cy="289" r="1"/><circle cx="220" cy="291" r="1"/><circle cx="220" cy="295" r="1"/><circle cx="220" cy="296" r="1"/><circle cx="221" cy="296" r="1"/><circle cx="221" cy="291" r="1"/><circle cx="221" cy="285" r="1"/><circle cx="221" cy="276" r="1"/><circle cx="221" cy="270" r="1"/><circle cx="221" cy="265" r="1"/><circle cx="221" cy="263" r="1"/><circle cx="221" cy="263" r="1"/><circle cx="221" cy="260" r="1"/><circle cx="221" cy="257" r="1"/><circle cx="222" cy="255" r="1"/><circle cx="222" cy="252" r="1"/><circle cx="222" cy="249" r="1"/><circle cx="222" cy="243" r="1"/><circle cx="222" cy="243" r="1"/><circle cx="222" cy="240" r="1"/><circle cx="222" cy="233" r="1"/><circle cx="222" cy="224" r="1"/><circle cx="222" cy="220" r="1"/><circle cx="223" cy="217" r="1"/><circle cx="223" cy="216" r="1"/><circle cx="223" cy="224" r="1"/><circle cx="223" cy="232" r="1"/><circle cx="223" cy="239" r="1"/><circle cx="223" cy="237" r="1"/><circle cx="223" cy="237" r="1"/><circle cx="223" cy="236" r="1"/><circle cx="223" cy="237" r="1"/><circle cx="223" cy="233" r="1"/><circle cx="224" cy="224" r="1"/><circle cx="224" cy="210" r="1"/><circle cx="224" cy="221" r="1"/><circle cx="224" cy="227" r="1"/><circle cx="224" cy="233" r="1"/><circle cx="224" cy="240" r="1"/><circle cx="224" cy="232" r="1"/><circle cx="224" cy="239" r="1"/><circle cx="224" cy="247" r="1"/><circle cx="224" cy="255" r="1"/><circle cx="225" cy="266" r="1"/><circle cx="225" cy="265" r="1"/><circle cx="225" cy="266" r="1"/><circle cx="225" cy="279" r="1"/><circle cx="225" cy="281" r="1"/><circle cx="225" cy="281" r="1"/><circle cx="225" cy="283" r="1"/><circle cx="225" cy="281" r="1"/><circle cx="225" cy="276" r="1"/><circle cx="225" cy="275" r="1"/><circle cx="226" cy="281" r="1"/><circle cx="226" cy="283" r="1"/><circle cx="226" cy="285" r="1"/><circle cx="226" cy="291" r="1"/><circle cx="226" cy="295" r="1"/><circle cx="226" cy="299" r="1"/><circle cx="226" cy="302" r="1"/><circle cx="226" cy="306" r="1"/><circle cx="226" cy="312" r="1"/><circle cx="227" cy="315" r="1"/><circle cx="227" cy="315" r="1"/><circle cx="227" cy="314" r="1"/><circle cx="227" cy="308" r="1"/><circle cx="227" cy="308" r="1"/><circle cx="227" cy="309" r="1"/><circle cx="227" cy="306" r="1"/><circle cx="227" cy="304" r="1"/><circle cx="227" cy="306" r="1"/><circle cx="227" cy="306" r="1"/><circle cx="228" cy="306" r="1"/><circle cx="228" cy="305" r="1"/><circle cx="228" cy="305" r="1"/><circle cx="228" cy="304" r="1"/><circle cx="228" cy="308" r="1"/><circle cx="228" cy="315" r="1"/><circle cx="228" cy="317" r="1"/><circle cx="228" cy="299" r="1"/><circle cx="228" cy="223" r="1"/><circle cx="228" cy="252" r="1"/><circle cx="229" cy="234" r="1"/><circle cx="229" cy="243" r="1"/><circle cx="229" cy="262" r="1"/><circle cx="229" cy="257" r="1"/><circle cx="229" cy="257" r="1"/><circle cx="229" cy="266" r="1"/><circle cx="229" cy="273" r="1"/><circle cx="229" cy="281" r="1"/><circle cx="229" cy="279" r="1"/><circle cx="229" cy="281" r="1"/><circle cx="230" cy="282" r="1"/><circle cx="230" cy="275" r="1"/><circle cx="230" cy="270" r="1"/><circle cx="230" cy="276" r="1"/><circle cx="230" cy="270" r="1"/><circle cx="230" cy="270" r="1"/><circle cx="230" cy="272" r="1"/><circle cx="230" cy="275" r="1"/><circle cx="230" cy="285" r="1"/><circle cx="231" cy="304" r="1"/><circle cx="231" cy="311" r="1"/><circle cx="231" cy="308" r="1"/><circle cx="231" cy="309" r="1"/><circle cx="231" cy="314" r="1"/><circle cx="231" cy="322" r="1"/><circle cx="231" cy="312" r="1"/><circle cx="231" cy="308" r="1"/><circle cx="231" cy="317" r="1"/><circle cx="231" cy="322" r="1"/><circle cx="232" cy="338" r="1"/><circle cx="232" cy="319" r="1"/><circle cx="232" cy="335" r="1"/><circle cx="232" cy="325" r="1"/><circle cx="232" cy="331" r="1"/><circle cx="232" cy="332" r="1"/><circle cx="232" cy="329" r="1"/><circle cx="232" cy="328" r="1"/><circle cx="232" cy="335" r="1"/><circle cx="232" cy="331" r="1"/><circle cx="233" cy="327" r="1"/><circle cx="233" cy="332" r="1"/><circle cx="233" cy="334" r="1"/><circle cx="233" cy="325" r="1"/><circle cx="233" cy="308" r="1"/><circle cx="233" cy="285" r="1"/><circle cx="233" cy="257" r="1"/><circle cx="233" cy="252" r="1"/><circle cx="234" cy="253" r="1"/><circle cx="234" cy="240" r="1"/><circle cx="234" cy="236" r="1"/><circle cx="234" cy="245" r="1"/><circle cx="234" cy="239" r="1"/><circle cx="234" cy="249" r="1"/><circle cx="234" cy="255" r="1"/><circle cx="234" cy="265" r="1"/><circle cx="234" cy="275" r="1"/><circle cx="235" cy="286" r="1"/><circle cx="235" cy="289" r="1"/><circle cx="235" cy="302" r="1"/><circle cx="235" cy="299" r="1"/><circle cx="235" cy="308" r="1"/><circle cx="235" cy="302" r="1"/><circle cx="235" cy="305" r="1"/><circle cx="235" cy="306" r="1"/><circle cx="235" cy="299" r="1"/><circle cx="235" cy="295" r="1"/><circle cx="236" cy="293" r="1"/><circle cx="236" cy="288" r="1"/><circle cx="236" cy="282" r="1"/><circle cx="236" cy="278" r="1"/><circle cx="236" cy="279" r="1"/><circle cx="236" cy="289" r="1"/><circle cx="236" cy="304" r="1"/><circle cx="236" cy="296" r="1"/><circle cx="236" cy="298" r="1"/><circle cx="236" cy="291" r="1"/><circle cx="237" cy="275" r="1"/><circle cx="237" cy="268" r="1"/><circle cx="237" cy="266" r="1"/><circle cx="237" cy="262" r="1"/><circle cx="237" cy="259" r="1"/><circle cx="237" cy="252" r="1"/><circle cx="237" cy="237" r="1"/><circle cx="237" cy="239" r="1"/><circle cx="237" cy="237" r="1"/><circle cx="237" cy="242" r="1"/><circle cx="238" cy="252" r="1"/><circle cx="238" cy="247" r="1"/><circle cx="238" cy="247" r="1"/><circle cx="238" cy="252" r="1"/><circle cx="238" cy="232" r="1"/><circle cx="238" cy="217" r="1"/><circle cx="238" cy="211" r="1"/><circle cx="238" cy="219" r="1"/><circle cx="238" cy="211" r="1"/><circle cx="239" cy="230" r="1"/><circle cx="239" cy="230" r="1"/><circle cx="239" cy="226" r="1"/><circle cx="239" cy="209" r="1"/><circle cx="239" cy="209" r="1"/><circle cx="239" cy="217" r="1"/><circle cx="239" cy="229" r="1"/><circle cx="239" cy="237" r="1"/><circle cx="239" cy="246" r="1"/><circle cx="239" cy="255" r="1"/><circle cx="240" cy="268" r="1"/><circle cx="240" cy="276" r="1"/><circle cx="240" cy="269" r="1"/><circle cx="240" cy="268" r="1"/><circle cx="240" cy="270" r="1"/><circle cx="240" cy="273" r="1"/><circle cx="240" cy="281" r="1"/><circle cx="240" cy="266" r="1"/><circle cx="240" cy="268" r="1"/><circle cx="240" cy="266" r="1"/><circle cx="241" cy="281" r="1"/><circle cx="241" cy="286" r="1"/><circle cx="241" cy="288" r="1"/><circle cx="241" cy="282" r="1"/><circle cx="241" cy="291" r="1"/><circle cx="241" cy="296" r="1"/><circle cx="241" cy="295" r="1"/><circle cx="241" cy="302" r="1"/><circle cx="241" cy="301" r="1"/><circle cx="241" cy="306" r="1"/><circle cx="242" cy="305" r="1"/><circle cx="242" cy="312" r="1"/><circle cx="242" cy="302" r="1"/><circle cx="242" cy="301" r="1"/><circle cx="242" cy="306" r="1"/><circle cx="242" cy="306" r="1"/><circle cx="242" cy="296" r="1"/><circle cx="242" cy="292" r="1"/><circle cx="242" cy="291" r="1"/><circle cx="242" cy="292" r="1"/><circle cx="243" cy="291" r="1"/><circle cx="243" cy="275" r="1"/><circle cx="243" cy="282" r="1"/><circle cx="243" cy="219" r="1"/><circle cx="243" cy="236" r="1"/><circle cx="243" cy="236" r="1"/><circle cx="243" cy="221" r="1"/><circle cx="243" cy="226" r="1"/><circle cx="243" cy="230" r="1"/><circle cx="244" cy="233" r="1"/><circle cx="244" cy="237" r="1"/><circle cx="244" cy="237" r="1"/><circle cx="244" cy="239" r="1"/><circle cx="244" cy="245" r="1"/><circle cx="244" cy="250" r="1"/><circle cx="244" cy="253" r="1"/><circle cx="244" cy="256" r="1"/><circle cx="244" cy="257" r="1"/><circle cx="244" cy="259" r="1"/><circle cx="245" cy="262" r="1"/><circle cx="245" cy="262" r="1"/><circle cx="245" cy="262" r="1"/><circle cx="245" cy="262" r="1"/><circle cx="245" cy="260" r="1"/><circle cx="245" cy="262" r="1"/><circle cx="245" cy="260" r="1"/><circle cx="245" cy="259" r="1"/><circle cx="245" cy="262" r="1"/><circle cx="245" cy="263" r="1"/><circle cx="246" cy="266" r="1"/><circle cx="246" cy="263" r="1"/><circle cx="246" cy="265" r="1"/><circle cx="246" cy="263" r="1"/><circle cx="246" cy="266" r="1"/><circle cx="246" cy="273" r="1"/><circle cx="246" cy="282" r="1"/><circle cx="246" cy="285" r="1"/><circle cx="246" cy="291" r="1"/><circle cx="246" cy="292" r="1"/><circle cx="247" cy="298" r="1"/><circle cx="247" cy="301" r="1"/><circle cx="247" cy="305" r="1"/><circle cx="247" cy="302" r="1"/><circle cx="247" cy="301" r="1"/><circle cx="247" cy="305" r="1"/><circle cx="247" cy="302" r="1"/><circle cx="247" cy="305" r="1"/><circle cx="247" cy="302" r="1"/><circle cx="248" cy="298" r="1"/><circle cx="248" cy="295" r="1"/><circle cx="248" cy="285" r="1"/><circle cx="248" cy="279" r="1"/><circle cx="248" cy="275" r="1"/><circle cx="248" cy="270" r="1"/><circle cx="248" cy="266" r="1"/><circle cx="248" cy="265" r="1"/><circle cx="248" cy="260" r="1"/><circle cx="248" cy="257" r="1"/><circle cx="249" cy="257" r="1"/><circle cx="249" cy="256" r="1"/><circle cx="249" cy="253" r="1"/><circle cx="249" cy="255" r="1"/><circle cx="249" cy="256" r="1"/><circle cx="249" cy="257" r="1"/><circle cx="249" cy="257" r="1"/><circle cx="249" cy="259" r="1"/><circle cx="249" cy="260" r="1"/><circle cx="249" cy="257" r="1"/><circle cx="250" cy="253" r="1"/><circle cx="250" cy="252" r="1"/><circle cx="250" cy="252" r="1"/><circle cx="250" cy="250" r="1"/><circle cx="250" cy="252" r="1"/><circle cx="250" cy="252" r="1"/><circle cx="250" cy="252" r="1"/><circle cx="250" cy="253" r="1"/><circle cx="250" cy="253" r="1"/><circle cx="250" cy="253" r="1"/><circle cx="251" cy="253" r="1"/><circle cx="251" cy="253" r="1"/><circle cx="251" cy="253" r="1"/><circle cx="251" cy="253" r="1"/><circle cx="251" cy="255" r="1"/><circle cx="251" cy="256" r="1"/><circle cx="251" cy="257" r="1"/><circle cx="251" cy="259" r="1"/><circle cx="251" cy="257" r="1"/><circle cx="252" cy="262" r="1"/><circle cx="252" cy="265" r="1"/><circle cx="252" cy="269" r="1"/><circle cx="252" cy="273" r="1"/><circle cx="252" cy="272" r="1"/><circle cx="252" cy="275" r="1"/><circle cx="252" cy="273" r="1"/><circle cx="252" cy="275" r="1"/><circle cx="252" cy="283" r="1"/><circle cx="252" cy="285" r="1"/><circle cx="253" cy="289" r="1"/><circle cx="253" cy="278" r="1"/><circle cx="253" cy="275" r="1"/><circle cx="253" cy="273" r="1"/><circle cx="253" cy="259" r="1"/><circle cx="253" cy="263" r="1"/><circle cx="253" cy="253" r="1"/><circle cx="253" cy="232" r="1"/><circle cx="253" cy="237" r="1"/><circle cx="253" cy="242" r="1"/><circle cx="254" cy="242" r="1"/><circle cx="254" cy="240" r="1"/><circle cx="254" cy="245" r="1"/><circle cx="254" cy="252" r="1"/><circle cx="254" cy="256" r="1"/><circle cx="254" cy="262" r="1"/><circle cx="254" cy="266" r="1"/><circle cx="254" cy="265" r="1"/><circle cx="254" cy="266" r="1"/><circle cx="254" cy="270" r="1"/><circle cx="255" cy="275" r="1"/><circle cx="255" cy="282" r="1"/><circle cx="255" cy="288" r="1"/><circle cx="255" cy="286" r="1"/><circle cx="255" cy="289" r="1"/><circle cx="255" cy="299" r="1"/><circle cx="255" cy="301" r="1"/><circle cx="255" cy="305" r="1"/><circle cx="255" cy="312" r="1"/><circle cx="256" cy="311" r="1"/><circle cx="256" cy="319" r="1"/><circle cx="256" cy="315" r="1"/><circle cx="256" cy="311" r="1"/><circle cx="256" cy="306" r="1"/><circle cx="256" cy="308" r="1"/><circle cx="256" cy="305" r="1"/><circle cx="256" cy="296" r="1"/><circle cx="256" cy="296" r="1"/><circle cx="256" cy="285" r="1"/><circle cx="257" cy="260" r="1"/><circle cx="257" cy="255" r="1"/><circle cx="257" cy="253" r="1"/><circle cx="257" cy="250" r="1"/><circle cx="257" cy="247" r="1"/><circle cx="257" cy="246" r="1"/><circle cx="257" cy="246" r="1"/><circle cx="257" cy="247" r="1"/><circle cx="257" cy="246" r="1"/><circle cx="257" cy="246" r="1"/><circle cx="258" cy="245" r="1"/><circle cx="258" cy="243" r="1"/><circle cx="258" cy="239" r="1"/><circle cx="258" cy="236" r="1"/><circle cx="258" cy="233" r="1"/><circle cx="258" cy="224" r="1"/><circle cx="258" cy="229" r="1"/><circle cx="258" cy="227" r="1"/><circle cx="258" cy="223" r="1"/><circle cx="258" cy="232" r="1"/><circle cx="259" cy="243" r="1"/><circle cx="259" cy="245" r="1"/><circle cx="259" cy="259" r="1"/><circle cx="259" cy="270" r="1"/><circle cx="259" cy="285" r="1"/><circle cx="259" cy="296" r="1"/><circle cx="259" cy="299" r="1"/><circle cx="259" cy="306" r="1"/><circle cx="259" cy="312" r="1"/><circle cx="260" cy="317" r="1"/><circle cx="260" cy="312" r="1"/><circle cx="260" cy="301" r="1"/><circle cx="260" cy="288" r="1"/><circle cx="260" cy="283" r="1"/><circle cx="260" cy="285" r="1"/><circle cx="260" cy="281" r="1"/><circle cx="260" cy="278" r="1"/><circle cx="260" cy="283" r="1"/><circle cx="260" cy="283" r="1"/><circle cx="261" cy="283" r="1"/><circle cx="261" cy="286" r="1"/><circle cx="261" cy="281" r="1"/><circle cx="261" cy="273" r="1"/><circle cx="261" cy="272" r="1"/><circle cx="261" cy="273" r="1"/><circle cx="261" cy="272" r="1"/><circle cx="261" cy="279" r="1"/><circle cx="261" cy="286" r="1"/><circle cx="261" cy="288" r="1"/><circle cx="262" cy="283" r="1"/><circle cx="262" cy="282" r="1"/><circle cx="262" cy="281" r="1"/><circle cx="262" cy="276" r="1"/><circle cx="262" cy="278" r="1"/><circle cx="262" cy="276" r="1"/><circle cx="262" cy="269" r="1"/><circle cx="262" cy="270" r="1"/><circle cx="262" cy="278" r="1"/><circle cx="262" cy="279" r="1"/><circle cx="263" cy="276" r="1"/><circle cx="263" cy="281" r="1"/><circle cx="263" cy="276" r="1"/><circle cx="263" cy="276" r="1"/><circle cx="263" cy="272" r="1"/><circle cx="263" cy="270" r="1"/><circle cx="263" cy="265" r="1"/><circle cx="263" cy="257" r="1"/><circle cx="263" cy="256" r="1"/><circle cx="264" cy="249" r="1"/><circle cx="264" cy="246" r="1"/><circle cx="264" cy="249" r="1"/><circle cx="264" cy="246" r="1"/><circle cx="264" cy="245" r="1"/><circle cx="264" cy="239" r="1"/><circle cx="264" cy="240" r="1"/><circle cx="264" cy="242" r="1"/><circle cx="264" cy="246" r="1"/><circle cx="264" cy="245" r="1"/><circle cx="265" cy="246" r="1"/><circle cx="265" cy="246" r="1"/><circle cx="265" cy="247" r="1"/><circle cx="265" cy="246" r="1"/><circle cx="265" cy="243" r="1"/><circle cx="265" cy="245" r="1"/><circle cx="265" cy="246" r="1"/><circle cx="265" cy="257" r="1"/><circle cx="265" cy="262" r="1"/><circle cx="265" cy="266" r="1"/><circle cx="266" cy="269" r="1"/><circle cx="266" cy="276" r="1"/><circle cx="266" cy="276" r="1"/><circle cx="266" cy="272" r="1"/><circle cx="266" cy="273" r="1"/><circle cx="266" cy="269" r="1"/><circle cx="266" cy="263" r="1"/><circle cx="266" cy="260" r="1"/><circle cx="266" cy="257" r="1"/><circle cx="266" cy="257" r="1"/><circle cx="267" cy="253" r="1"/><circle cx="267" cy="256" r="1"/><circle cx="267" cy="260" r="1"/><circle cx="267" cy="256" r="1"/><circle cx="267" cy="253" r="1"/><circle cx="267" cy="253" r="1"/><circle cx="267" cy="257" r="1"/><circle cx="267" cy="256" r="1"/><circle cx="267" cy="250" r="1"/><circle cx="267" cy="245" r="1"/><circle cx="268" cy="239" r="1"/><circle cx="268" cy="236" r="1"/><circle cx="268" cy="239" r="1"/><circle cx="268" cy="229" r="1"/><circle cx="268" cy="226" r="1"/><circle cx="268" cy="210" r="1"/><circle cx="268" cy="206" r="1"/><circle cx="268" cy="214" r="1"/><circle cx="268" cy="217" r="1"/><circle cx="269" cy="219" r="1"/><circle cx="269" cy="223" r="1"/><circle cx="269" cy="226" r="1"/><circle cx="269" cy="243" r="1"/><circle cx="269" cy="243" r="1"/><circle cx="269" cy="245" r="1"/><circle cx="269" cy="266" r="1"/><circle cx="269" cy="278" r="1"/><circle cx="269" cy="282" r="1"/><circle cx="269" cy="270" r="1"/><circle cx="270" cy="282" r="1"/><circle cx="270" cy="302" r="1"/><circle cx="270" cy="305" r="1"/><circle cx="270" cy="305" r="1"/><circle cx="270" cy="305" r="1"/><circle cx="270" cy="305" r="1"/><circle cx="270" cy="305" r="1"/><circle cx="270" cy="308" r="1"/><circle cx="270" cy="308" r="1"/><circle cx="270" cy="315" r="1"/><circle cx="271" cy="308" r="1"/><circle cx="271" cy="311" r="1"/><circle cx="271" cy="308" r="1"/><circle cx="271" cy="311" r="1"/><circle cx="271" cy="311" r="1"/><circle cx="271" cy="314" r="1"/><circle cx="271" cy="312" r="1"/><circle cx="271" cy="311" r="1"/><circle cx="271" cy="309" r="1"/><circle cx="271" cy="311" r="1"/><circle cx="272" cy="312" r="1"/><circle cx="272" cy="312" r="1"/><circle cx="272" cy="311" r="1"/><circle cx="272" cy="311" r="1"/><circle cx="272" cy="311" r="1"/><circle cx="272" cy="311" r="1"/><circle cx="272" cy="314" r="1"/><circle cx="272" cy="312" r="1"/><circle cx="272" cy="309" r="1"/><circle cx="273" cy="306" r="1"/><circle cx="273" cy="260" r="1"/><circle cx="273" cy="269" r="1"/><circle cx="273" cy="299" r="1"/><circle cx="273" cy="299" r="1"/><circle cx="273" cy="291" r="1"/><circle cx="273" cy="292" r="1"/><circle cx="273" cy="289" r="1"/><circle cx="273" cy="288" r="1"/><circle cx="273" cy="292" r="1"/><circle cx="274" cy="296" r="1"/><circle cx="274" cy="298" r="1"/><circle cx="274" cy="304" r="1"/></g>
</g>
<g id="limitPoints" stroke="rgb(119,136,153)" fill="rgb(250,235,215)"><polygon points=" 156,331 166,331 161,341"/></g>
<g id="legendBackground" stroke="rgb(255,255,0)" fill="rgb(255,255,255)" stroke-width="1"><rect x="320" y="53" width="154" height="70"/><rect x="320" y="53" width="154" height="70"/></g>
<g id="legendPoints"><g stroke="rgb(255,0,0)" fill="rgb(255,255,255)" stroke-width="2"><line x1="334" y1="81" x2="348" y2="81"/></g>
<g stroke="rgb(0,0,255)" fill="rgb(255,255,255)" stroke-width="2"><circle cx="334" cy="109" r="1"/><line x1="355" y1="109" x2="369" y2="109"/></g>
</g>
<g id="legendText">
<text x="355" y="81" font-size="14" font-family="Verdana">Inside (&#x00B0;C)</text>
<text x="376" y="109" font-size="14" font-family="Verdana">Outside (&#x00B0;C)</text></g>
<g id="title">
<text x="250" y="36" text-anchor="middle" font-size="18" font-family="Verdana">Temperatures at Long: 2:45:16.2W, Lat:54:17:47.1N</text></g>
<g id="plotXValues"></g>
<g id="plotYValues"></g>
</svg>
