<?xml version="1.0" encoding="UTF-8" standalone="no"?>
<svg width="500" height ="200" version="1.1"
xmlns:svg ="http://www.w3.org/2000/svg"
xmlns:rdf="http://www.w3.org/1999/02/22-rdf-syntax-ns#"
xmlns:cc="http://web.resource.org/cc/"
xmlns:dc="http://purl.org/dc/elements/1.1/"
xmlns ="http://www.w3.org/2000/svg"
>
<!-- SVG plot written using Boost.Plot program (Creator Jacob Voytko) --> 
<!-- Use, modification and distribution of Boost.Plot subject to the --> 
<!-- Boost Software License, Version 1.0.--> 
<!-- (See accompanying file LICENSE_1_0.txt --> 
<!-- or copy at http://www.boost.org/LICENSE_1_0.txt) --> 

<!-- File demo_color.svg --> 

<g id="imageBackground" stroke="rgb(255,255,0)" fill="rgb(255,255,255)" stroke-width="1" font-size="12" font-family="Lucida Sans Unicode">
	<rect x="0" y="0" width="500" height="200"/>
</g>

<g id="plotBackground" stroke="rgb(250,250,210)" fill="rgb(255,255,255)" stroke-width="1" font-size="12" font-family="Lucida Sans Unicode">
	<rect x="21" y="11" width="386" height="160"/>
</g>

<g id="xMinorGrid" stroke="rgb(200,220,255)" stroke-width="0.5" font-size="12" font-family="Lucida Sans Unicode">
</g>

<g id="xMajorGrid" stroke="rgb(200,220,255)" stroke-width="1" font-size="12" font-family="Lucida Sans Unicode">
</g>

<g id="xAxis" stroke="rgb(0,0,255)" stroke-width="1" font-size="12" font-family="Lucida Sans Unicode">
	<line x1="21" y1="11" x2="21" y2="172"/>
	<line x1="21" y1="93.8" x2="407" y2="93.8"/>
</g>

<g id="xMinorTicks" stroke="rgb(0,0,0)" stroke-width="1" font-size="12" font-family="Lucida Sans Unicode">
	<path d="M43,93.8 L43,95.8 
M65.1,93.8 L65.1,95.8 
M87.1,93.8 L87.1,95.8 
M109,93.8 L109,95.8 
M153,93.8 L153,95.8 
M175,93.8 L175,95.8 
M197,93.8 L197,95.8 
M219,93.8 L219,95.8 
M263,93.8 L263,95.8 
M285,93.8 L285,95.8 
M307,93.8 L307,95.8 
M329,93.8 L329,95.8 
M374,93.8 L374,95.8 
M396,93.8 L396,95.8 
" fill="none"/>
</g>

<g id="xMajorTicks" stroke="rgb(0,0,0)" stroke-width="2" font-size="12" font-family="Lucida Sans Unicode">
	<path d="M21,93.8 L21,98.8 
M131,93.8 L131,98.8 
M241,93.8 L241,98.8 
M352,93.8 L352,98.8 
M21,93.8 L21,98.8 
" fill="none"/>
</g>

<g id="xTicksValues" font-size="12" font-family="Lucida Sans Unicode">
	<text x="131" y="112" text-anchor="middle" font-size="10" font-family="Verdana">2 </text>
	<text x="241" y="112" text-anchor="middle" font-size="10" font-family="Verdana">4 </text>
	<text x="352" y="112" text-anchor="middle" font-size="10" font-family="Verdana">6 </text>
</g>

<g id="xLabel" stroke="rgb(255,0,255)" fill="rgb(255,0,255)" font-size="12" font-family="Lucida Sans Unicode">
	<text x="214" y="188" text-anchor="middle" font-size="10" font-family="Verdana">axis </text>
</g>

<g id="plotPoints" font-size="12" font-family="Lucida Sans Unicode">

<g stroke="rgb(0,0,0)" font-size="12" font-family="Lucida Sans Unicode">
	<line x1="76.1" y1="93.2" x2="76.1" y2="83.2"/>
	<line x1="131" y1="93.2" x2="131" y2="83.2"/>
	<line x1="186" y1="93.2" x2="186" y2="83.2"/>
</g>
</g>

<g id="legendBackground" stroke="rgb(255,255,0)" fill="rgb(255,255,255)" stroke-width="1" font-size="12" font-family="Lucida Sans Unicode">
	<rect x="413" y="11" width="78.4" height="84"/>
</g>

<g id="legendPoints" font-size="12" font-family="Lucida Sans Unicode">

<g stroke="rgb(0,0,0)" font-size="12" font-family="Lucida Sans Unicode">
	<line x1="426" y1="33.5" x2="426" y2="23.5"/>
</g>
</g>

<g id="legendText" font-size="12" font-family="Lucida Sans Unicode">
	<text x="433" y="29.5" font-size="10" font-family="Verdana" textLength="44.4">My Data </text>
</g>

<g id="title" font-size="12" font-family="Lucida Sans Unicode">
	<text x="250" y="27" text-anchor="middle" font-size="18" font-family="Verdana"> </text>
</g>
</svg>
