<?xml version="1.0" encoding="UTF-8" standalone="no"?>
<svg width="500" height ="350" version="1.1"
xmlns:svg ="http://www.w3.org/2000/svg"
xmlns:rdf="http://www.w3.org/1999/02/22-rdf-syntax-ns#"
xmlns:cc="http://web.resource.org/cc/"
xmlns:dc="http://purl.org/dc/elements/1.1/"
xmlns ="http://www.w3.org/2000/svg"
>
<!-- SVG plot written using Boost.Plot program (Creator Jacob Voytko) --> 
<!-- Use, modification and distribution of Boost.Plot subject to the --> 
<!-- Boost Software License, Version 1.0.--> 
<!-- (See accompanying file LICENSE_1_0.txt --> 
<!-- or copy at http://www.boost.org/LICENSE_1_0.txt) --> 

<!-- File demo_Hoaglin.svg --> 
<clipPath id="plot_window"><rect x="59.8" y="52" width="428" height="232"/></clipPath>
<g id="imageBackground" stroke="rgb(255,255,0)" fill="rgb(255,255,255)" stroke-width="2"><rect x="0" y="0" width="500" height="350"/></g>
<g id="plotBackground" stroke="rgb(255,255,0)" fill="rgb(255,255,255)" stroke-width="1"><rect x="64.8" y="57" width="423" height="227"/></g>
<g id="X-axis" stroke="rgb(0,0,0)" stroke-width="1"><line x1="64.8" y1="284" x2="488" y2="284"/></g>
<g id="Y-axis" stroke="rgb(0,0,0)" stroke-width="1"><line x1="64.8" y1="284" x2="64.8" y2="57"/></g>
<g id="xMajorTicks" stroke="rgb(0,0,0)" stroke-width="1"><path d="M125,284 L125,289 M186,284 L186,289 M246,284 L246,289 M307,284 L307,289 M367,284 L367,289 M428,284 L428,289 " fill="none"/></g>
<g id="yMajorTicks" stroke="rgb(0,0,0)" stroke-width="2"><path d="M59.8,267 L64.8,267 M59.8,235 L64.8,235 M59.8,203 L64.8,203 M59.8,170 L64.8,170 M59.8,138 L64.8,138 M59.8,106 L64.8,106 M59.8,73.2 L64.8,73.2 " fill="none"/></g>
<g id="yMinorTicks" stroke="rgb(0,0,0)" stroke-width="1"><path d="M62.8,280 L64.8,280 M62.8,274 L64.8,274 M62.8,261 L64.8,261 M62.8,254 L64.8,254 M62.8,248 L64.8,248 M62.8,242 L64.8,242 M62.8,229 L64.8,229 M62.8,222 L64.8,222 M62.8,216 L64.8,216 M62.8,209 L64.8,209 M62.8,196 L64.8,196 M62.8,190 L64.8,190 M62.8,183 L64.8,183 M62.8,177 L64.8,177 M62.8,164 L64.8,164 M62.8,157 L64.8,157 M62.8,151 L64.8,151 M62.8,144 L64.8,144 M62.8,131 L64.8,131 M62.8,125 L64.8,125 M62.8,119 L64.8,119 M62.8,112 L64.8,112 M62.8,99.1 L64.8,99.1 M62.8,92.6 L64.8,92.6 M62.8,86.1 L64.8,86.1 M62.8,79.7 L64.8,79.7 M62.8,66.7 L64.8,66.7 M62.8,60.2 L64.8,60.2 " fill="none"/></g>
<g id="YGrid" stroke="rgb(200,220,255)" stroke-width="1"></g>
<g id="yMinorGrid" stroke="rgb(200,220,255)" stroke-width="0.5"></g>
<g id="valueLabels" fill="rgb(0,0,0)">
<text x="125" y="308" text-anchor="middle" font-size="14" font-family="Lucida Sans Unicode">default_8</text>
<text x="186" y="308" text-anchor="middle" font-size="14" font-family="Lucida Sans Unicode">def #4</text>
<text x="246" y="308" text-anchor="middle" font-size="14" font-family="Lucida Sans Unicode">def #5</text>
<text x="307" y="308" text-anchor="middle" font-size="14" font-family="Lucida Sans Unicode">def #6</text>
<text x="367" y="308" text-anchor="middle" font-size="14" font-family="Lucida Sans Unicode">def #7</text>
<text x="428" y="308" text-anchor="middle" font-size="14" font-family="Lucida Sans Unicode">def #8</text>
<text x="53.8" y="270" text-anchor="end" font-size="12" font-family="Lucida Sans Unicode">50</text>
<text x="53.8" y="237" text-anchor="end" font-size="12" font-family="Lucida Sans Unicode">60</text>
<text x="53.8" y="205" text-anchor="end" font-size="12" font-family="Lucida Sans Unicode">70</text>
<text x="53.8" y="173" text-anchor="end" font-size="12" font-family="Lucida Sans Unicode">80</text>
<text x="53.8" y="140" text-anchor="end" font-size="12" font-family="Lucida Sans Unicode">90</text>
<text x="53.8" y="108" text-anchor="end" font-size="12" font-family="Lucida Sans Unicode">100</text>
<text x="53.8" y="75.6" text-anchor="end" font-size="12" font-family="Lucida Sans Unicode">110</text></g>
<g id="yLabel" fill="rgb(0,0,0)">
<text x="30.2" y="170" text-anchor="middle" transform = "rotate(-90 30.2 170 )" font-size="14" font-family="Lucida Sans Unicode">Value</text></g>
<g id="xLabel" fill="rgb(0,0,0)">
<text x="276" y="327" text-anchor="middle" font-size="14" font-family="Lucida Sans Unicode">Boxplot</text></g>
<g id="boxAxis" stroke="rgb(0,0,0)"><g clip-path="url(#plot_window)" stroke="rgb(0,0,0)" stroke-width="1"><line x1="125" y1="258" x2="125" y2="106"/></g>
<g clip-path="url(#plot_window)" stroke="rgb(0,0,0)" stroke-width="1"><line x1="186" y1="258" x2="186" y2="106"/></g>
<g clip-path="url(#plot_window)" stroke="rgb(0,0,0)" stroke-width="1"><line x1="246" y1="258" x2="246" y2="106"/></g>
<g clip-path="url(#plot_window)" stroke="rgb(0,0,0)" stroke-width="1"><line x1="307" y1="258" x2="307" y2="106"/></g>
<g clip-path="url(#plot_window)" stroke="rgb(0,0,0)" stroke-width="1"><line x1="367" y1="186" x2="367" y2="106"/></g>
<g clip-path="url(#plot_window)" stroke="rgb(0,0,0)" stroke-width="1"><line x1="428" y1="258" x2="428" y2="106"/></g>
</g>
<g id="Median" stroke="rgb(255,0,0)" stroke-width="2"><g clip-path="url(#plot_window)" stroke="rgb(0,128,0)" fill="rgb(240,255,255)" stroke-width="1"><rect x="110" y="125" width="30" height="58.3"/></g>
<g clip-path="url(#plot_window)" stroke="rgb(0,0,255)" stroke-width="1"><line x1="111" y1="154" x2="140" y2="154"/></g>
<g clip-path="url(#plot_window)" stroke="rgb(0,128,0)" fill="rgb(240,255,255)" stroke-width="1"><rect x="171" y="136" width="30" height="65.6"/></g>
<g clip-path="url(#plot_window)" stroke="rgb(0,0,255)" stroke-width="1"><line x1="171" y1="154" x2="200" y2="154"/></g>
<g clip-path="url(#plot_window)" stroke="rgb(0,128,0)" fill="rgb(240,255,255)" stroke-width="1"><rect x="231" y="127" width="30" height="55"/></g>
<g clip-path="url(#plot_window)" stroke="rgb(0,0,255)" stroke-width="1"><line x1="232" y1="154" x2="261" y2="154"/></g>
<g clip-path="url(#plot_window)" stroke="rgb(0,128,0)" fill="rgb(240,255,255)" stroke-width="1"><rect x="292" y="122" width="30" height="64.7"/></g>
<g clip-path="url(#plot_window)" stroke="rgb(0,0,255)" stroke-width="1"><line x1="292" y1="154" x2="321" y2="154"/></g>
<g clip-path="url(#plot_window)" stroke="rgb(0,128,0)" fill="rgb(240,255,255)" stroke-width="1"><rect x="352" y="131" width="30" height="45.3"/></g>
<g clip-path="url(#plot_window)" stroke="rgb(0,0,255)" stroke-width="1"><line x1="353" y1="154" x2="382" y2="154"/></g>
<g clip-path="url(#plot_window)" stroke="rgb(0,128,0)" fill="rgb(240,255,255)" stroke-width="1"><rect x="413" y="125" width="30" height="58.3"/></g>
<g clip-path="url(#plot_window)" stroke="rgb(0,0,255)" stroke-width="1"><line x1="413" y1="154" x2="442" y2="154"/></g>
</g>
<g id="whisker" stroke="rgb(0,0,0)"><g clip-path="url(#plot_window)"><g stroke="rgb(255,0,255)" fill="rgb(0,0,0)" stroke-width="1"><line x1="110" y1="258" x2="140" y2="258"/></g>
<g stroke="rgb(0,255,255)" fill="rgb(0,0,0)" stroke-width="1"><line x1="110" y1="106" x2="140" y2="106"/></g>
</g>
<g clip-path="url(#plot_window)"><g stroke="rgb(255,0,255)" fill="rgb(0,0,0)" stroke-width="1"><line x1="184" y1="258" x2="188" y2="258"/></g>
<g stroke="rgb(0,255,255)" fill="rgb(0,0,0)" stroke-width="1"><line x1="184" y1="106" x2="188" y2="106"/></g>
</g>
<g clip-path="url(#plot_window)"><g stroke="rgb(255,0,255)" fill="rgb(0,0,0)" stroke-width="1"><line x1="244" y1="258" x2="249" y2="258"/></g>
<g stroke="rgb(0,255,255)" fill="rgb(0,0,0)" stroke-width="1"><line x1="244" y1="106" x2="249" y2="106"/></g>
</g>
<g clip-path="url(#plot_window)"><g stroke="rgb(255,0,255)" fill="rgb(0,0,0)" stroke-width="1"><line x1="304" y1="258" x2="310" y2="258"/></g>
<g stroke="rgb(0,255,255)" fill="rgb(0,0,0)" stroke-width="1"><line x1="304" y1="106" x2="310" y2="106"/></g>
</g>
<g clip-path="url(#plot_window)"><g stroke="rgb(255,0,255)" fill="rgb(0,0,0)" stroke-width="1"><line x1="364" y1="186" x2="371" y2="186"/></g>
<g stroke="rgb(0,255,255)" fill="rgb(0,0,0)" stroke-width="1"><line x1="364" y1="106" x2="371" y2="106"/></g>
</g>
<g clip-path="url(#plot_window)"><g stroke="rgb(255,0,255)" fill="rgb(0,0,0)" stroke-width="1"><line x1="424" y1="258" x2="432" y2="258"/></g>
<g stroke="rgb(0,255,255)" fill="rgb(0,0,0)" stroke-width="1"><line x1="424" y1="106" x2="432" y2="106"/></g>
</g>
</g>
<g id="mild_outliers" stroke="rgb(255,192,203)" fill="rgb(0,0,0)"><g clip-path="url(#plot_window)" stroke="rgb(165,42,42)">
<text x="367" y="259" text-anchor="middle" font-size="5" font-family="Lucida Sans Unicode">&#x25CB;</text>
<text x="367" y="250" text-anchor="middle" font-size="5" font-family="Lucida Sans Unicode">&#x25CB;</text></g>
</g>
<g id="extreme_outliers" stroke="rgb(128,0,128)" fill="rgb(255,255,255)"></g>
<g id="Data Values" fill="rgb(0,0,0)"><g clip-path="url(#plot_window)">
<text x="145" y="157" font-size="10" font-family="Lucida Sans Unicode">85</text></g>
<g clip-path="url(#plot_window)">
<text x="206" y="157" font-size="10" font-family="Lucida Sans Unicode">85</text></g>
<g clip-path="url(#plot_window)">
<text x="266" y="157" font-size="10" font-family="Lucida Sans Unicode">85</text></g>
<g clip-path="url(#plot_window)">
<text x="327" y="157" font-size="10" font-family="Lucida Sans Unicode">85</text></g>
<g clip-path="url(#plot_window)">
<text x="387" y="157" font-size="10" font-family="Lucida Sans Unicode">85</text></g>
<g>
<text x="373" y="261" font-size="10" font-family="Lucida Sans Unicode">53</text></g>
<g>
<text x="373" y="251" font-size="10" font-family="Lucida Sans Unicode">56</text></g>
<g clip-path="url(#plot_window)">
<text x="448" y="157" font-size="10" font-family="Lucida Sans Unicode">85</text></g>
</g>
<g id="title" fill="rgb(0,0,0)">
<text x="250" y="36" text-anchor="middle" font-size="18" font-family="Lucida Sans Unicode">Hoaglin Example Data</text></g>
</svg>
