<?xml version="1.0" encoding="UTF-8" standalone="no"?>
<svg width="500" height ="200" version="1.1"
xmlns:svg ="http://www.w3.org/2000/svg"
xmlns:rdf="http://www.w3.org/1999/02/22-rdf-syntax-ns#"
xmlns:cc="http://web.resource.org/cc/"
xmlns:dc="http://purl.org/dc/elements/1.1/"
xmlns ="http://www.w3.org/2000/svg"
>
<!-- SVG plot written using Boost.Plot program (Creator Jacob Voytko) --> 
<!-- Use, modification and distribution of Boost.Plot subject to the --> 
<!-- Boost Software License, Version 1.0.--> 
<!-- (See accompanying file LICENSE_1_0.txt --> 
<!-- or copy at http://www.boost.org/LICENSE_1_0.txt) --> 

<!-- File ./demo_1d_simple.svg --> 
<g id="imageBackground" stroke="rgb(255,255,0)" fill="rgb(255,255,255)" stroke-width="1"><rect x="0" y="0" width="500" height="200"/></g>
<g id="plotBackground" stroke="rgb(250,250,210)" fill="rgb(255,255,255)" stroke-width="1"><rect x="21" y="42.5" width="399" height="129"/></g>
<g id="xMinorGrid" stroke="rgb(200,220,255)" stroke-width="0.5"></g>
<g id="xMajorGrid" stroke="rgb(200,220,255)" stroke-width="1"></g>
<g id="xAxis" stroke="rgb(0,0,0)" stroke-width="1"><line x1="54.2" y1="42.5" x2="54.2" y2="172"/><line x1="21" y1="110" x2="420" y2="110"/></g>
<g id="xMinorTicks" stroke="rgb(0,0,0)" stroke-width="1"><path d="M67.5,110 L67.5,112 M80.8,110 L80.8,112 M94.2,110 L94.2,112 M107,110 L107,112 M134,110 L134,112 M147,110 L147,112 M161,110 L161,112 M174,110 L174,112 M201,110 L201,112 M214,110 L214,112 M227,110 L227,112 M240,110 L240,112 M267,110 L267,112 M280,110 L280,112 M294,110 L294,112 M307,110 L307,112 M334,110 L334,112 M347,110 L347,112 M360,110 L360,112 M373,110 L373,112 M400,110 L400,112 M413,110 L413,112 M41,110 L41,112 M27.6,110 L27.6,112 " fill="none"/></g>
<g id="xMajorTicks" stroke="rgb(0,0,0)" stroke-width="2"><path d="M54.2,110 L54.2,114 M121,110 L121,114 M187,110 L187,114 M254,110 L254,114 M320,110 L320,114 M387,110 L387,114 M54.2,110 L54.2,114 " fill="none"/></g>
<g id="xTicksValues">
<text x="121" y="128" text-anchor="middle" font-size="10" font-family="Verdana">2</text>
<text x="187" y="128" text-anchor="middle" font-size="10" font-family="Verdana">4</text>
<text x="254" y="128" text-anchor="middle" font-size="10" font-family="Verdana">6</text>
<text x="320" y="128" text-anchor="middle" font-size="10" font-family="Verdana">8</text>
<text x="387" y="128" text-anchor="middle" font-size="10" font-family="Verdana">10</text></g>
<g id="xLabel">
<text x="220" y="188" text-anchor="middle" font-size="10" font-family="Verdana">time (sec)</text></g>
<g id="plotPoints"><g stroke="rgb(0,0,255)"><line x1="157" y1="109" x2="157" y2="99"/><line x1="194" y1="109" x2="194" y2="99"/></g>
<g stroke="rgb(255,165,0)"><line x1="124" y1="109" x2="124" y2="99"/><line x1="314" y1="109" x2="314" y2="99"/></g>
</g>
<g id="legendBackground" stroke="rgb(255,255,0)" fill="rgb(255,255,255)" stroke-width="1"><rect x="426" y="42.5" width="64.5" height="47"/></g>
<g id="legendPoints"><g stroke="rgb(0,0,255)"><line x1="438" y1="65" x2="438" y2="55"/></g>
<g stroke="rgb(255,165,0)"><line x1="438" y1="77.5" x2="438" y2="67.5"/></g>
</g>
<g id="legendText">
<text x="446" y="61" font-size="10" font-family="Verdana">Dan</text>
<text x="446" y="73.5" font-size="10" font-family="Verdana">Elaine</text></g>
<g id="title">
<text x="250" y="27" text-anchor="middle" font-size="18" font-family="Verdana">Race Times</text></g>
</svg>
