<?xml version="1.0" encoding="UTF-8" standalone="no"?>
<svg width="500" height ="250" version="1.1"
xmlns:svg ="http://www.w3.org/2000/svg"
xmlns:rdf="http://www.w3.org/1999/02/22-rdf-syntax-ns#"
xmlns:cc="http://web.resource.org/cc/"
xmlns:dc="http://purl.org/dc/elements/1.1/"
xmlns ="http://www.w3.org/2000/svg"
>
<!-- SVG plot written using Boost.Plot program (Creator Jacob Voytko) --> 
<!-- Use, modification and distribution of Boost.Plot subject to the --> 
<!-- Boost Software License, Version 1.0.--> 
<!-- (See accompanying file LICENSE_1_0.txt --> 
<!-- or copy at http://www.boost.org/LICENSE_1_0.txt) --> 

<!-- SVG Plot Copyright Paul A. Bristow 2008-03-29 --> 
<meta name="copyright" content="Paul A. Bristow" />
<meta name="date" content="2008-03-29" />
<!-- My demo_1d_plot description --> 
<desc>My demo_1d_plot description</desc>
<title>Document title demo_1d_plot</title>
<!-- File demo_1d_plot.svg --> 
<metadata id = "id0">
<rdf:RDF>
<cc:Work rdf:about="demo_1d_plot.svg">
<dc:format>image/svg+xml</dc:format>
<dc:type rdf:resource="http://purl.org/dc/dcmitype/StillImage" />
<dc:title> Document title demo_1d_plot</dc:title>
<dc:creator> <cc:Agent> <dc:title>Boost.Plot</dc:title> </cc:Agent></dc:creator>
<dc:author><cc:Agent><dc:title>Paul A. Bristow </dc:title> </cc:Agent> </dc:author>
<dc:rights><cc:Agent><dc:title>Paul A. Bristow</dc:title></cc:Agent></dc:rights>
<dc:date>2008-03-29</dc:date>
<dc:identifier>demo_1d_plot.svg</dc:identifier>
<dc:source>Boost.plot 0.5</dc:source>
<dc:relation></dc:relation>
<dc:publisher><cc:Agent><dc:title>Paul A. Bristow</dc:title></cc:Agent></dc:publisher>
<dc:language>en_US</dc:language>
<dc:description>My demo_1d_plot description</dc:description>
<dc:contributor><cc:Agent><dc:title>Paul A. Bristow</dc:title></cc:Agent></dc:contributor>
<dc:subject><rdf:Bag><rdf:li>Boost svg plot keyword</rdf:li></rdf:Bag></dc:subject>
<cc:license rdf:resource="http://creativecommons.org/licenses/" />
</cc:Work>
<cc:License rdf:about="http://creativecommons.org/licenses/">
<cc:permits rdf:resource="http://web.resource.org/cc/Reproduction"/>
<cc:permits rdf:resource="http://web.resource.org/cc/Distribution"/>
<cc:requires rdf:resource="http://web.resource.org/cc/Notice"/>
<cc:requires rdf:resource="http://web.resource.org/cc/Attribution"/>
<cc:permits rdf:resource="http://web.resource.org/cc/CommercialUse"/>
<cc:permits rdf:resource="http://web.resource.org/cc/DerivativeWorks"/>
</cc:License>
</rdf:RDF>
</metadata>
<g id="imageBackground" stroke="rgb(0,255,255)" fill="rgb(248,248,255)" stroke-width="10"><rect x="0" y="0" width="500" height="250"/></g>
<g id="plotBackground" stroke="rgb(255,192,203)" fill="rgb(240,248,255)" stroke-width="5"><rect x="11" y="61" width="330.8" height="140"/></g>
<g id="xMinorGrid" stroke="rgb(255,192,203)" stroke-width="1"><path d="M68.88,66 L68.88,196 M85.42,66 L85.42,196 M102,66 L102,196 M118.5,66 L118.5,196 M151.6,66 L151.6,196 M168.1,66 L168.1,196 M184.6,66 L184.6,196 M201.2,66 L201.2,196 M234.3,66 L234.3,196 M250.8,66 L250.8,196 M267.3,66 L267.3,196 M283.9,66 L283.9,196 M317,66 L317,196 M333.5,66 L333.5,196 M35.81,66 L35.81,196 M19.27,66 L19.27,196 " fill="none"/></g>
<g id="xMajorGrid" stroke="rgb(173,216,230)" stroke-width="2"><path d="M52.34,61 L52.34,201 M135,61 L135,201 M217.7,61 L217.7,201 M300.4,61 L300.4,201 M52.34,61 L52.34,201 " fill="none"/></g>
<g id="xAxis" stroke="rgb(0,0,255)" stroke-width="1"><line x1="52.34" y1="61" x2="52.34" y2="201"/><line x1="11" y1="136" x2="341.8" y2="136"/></g>
<g id="xMinorTicks" stroke="rgb(0,0,0)" stroke-width="1"><path d="M68.88,129 L68.88,143 M85.42,129 L85.42,143 M102,129 L102,143 M118.5,129 L118.5,143 M151.6,129 L151.6,143 M168.1,129 L168.1,143 M184.6,129 L184.6,143 M201.2,129 L201.2,143 M234.3,129 L234.3,143 M250.8,129 L250.8,143 M267.3,129 L267.3,143 M283.9,129 L283.9,143 M317,129 L317,143 M333.5,129 L333.5,143 M35.81,129 L35.81,143 M19.27,129 L19.27,143 " fill="none"/></g>
<g id="xMajorTicks" stroke="rgb(0,0,0)" stroke-width="3"><path d="M52.34,126 L52.34,146 M135,126 L135,146 M217.7,126 L217.7,146 M300.4,126 L300.4,146 M52.34,126 L52.34,146 " fill="none"/></g>
<g id="xTicksValues">
<text x="135" y="161.6" text-anchor="middle" font-size="12" font-family="Verdana">2</text>
<text x="217.7" y="161.6" text-anchor="middle" font-size="12" font-family="Verdana">4</text>
<text x="300.4" y="161.6" text-anchor="middle" font-size="12" font-family="Verdana">6</text></g>
<g id="xLabel" stroke="rgb(0,0,255)" fill="rgb(0,0,255)">
<text x="176.4" y="221.4" text-anchor="middle" font-size="12" font-family="Lucida sans unicode">volume (meter&#179; or m&#179;)</text></g>
<g id="plotPoints"><g stroke="rgb(255,0,0)" fill="rgb(0,0,255)">
<text x="81.29" y="131" text-anchor="middle" font-size="10" font-family="Lucida Sans Unicode">&#x2666;</text>
<text x="155.7" y="131" text-anchor="middle" font-size="10" font-family="Lucida Sans Unicode">&#x2666;</text>
<text x="292.1" y="131" text-anchor="middle" font-size="10" font-family="Lucida Sans Unicode">&#x2666;</text></g>
<g stroke="rgb(0,0,0)">
<text x="93.69" y="141" text-anchor="middle" font-size="20" font-family="Lucida Sans Unicode">X</text>
<text x="135" y="141" text-anchor="middle" font-size="20" font-family="Lucida Sans Unicode">X</text>
<text x="176.4" y="141" text-anchor="middle" font-size="20" font-family="Lucida Sans Unicode">X</text>
<text x="300.4" y="141" text-anchor="middle" font-size="20" font-family="Lucida Sans Unicode">X</text>
<text x="341.8" y="141" text-anchor="middle" font-size="20" font-family="Lucida Sans Unicode">X</text></g>
<g stroke="rgb(255,0,255)" fill="rgb(0,255,255)"><polygon points=" 49.84,126 54.84,126 52.34,131"/><polygon points=" 8.5,126 13.5,126 11,131"/><polygon points=" 91.19,126 96.19,126 93.69,131"/><polygon points=" 49.84,126 54.84,126 52.34,131"/></g>
</g>
<g id="limitPoints" stroke="rgb(255,0,0)" fill="rgb(0,128,0)"><polygon points=" 336.8,121 346.8,121 341.8,131"/><polygon points=" 47.34,121 57.34,121 52.34,131"/><polygon points=" 336.8,121 346.8,121 341.8,131"/></g>
<g id="legendBackground" stroke="rgb(210,105,30)" fill="rgb(245,245,220)" stroke-width="1"><rect x="353.8" y="61" width="135.2" height="108"/><rect x="353.8" y="61" width="135.2" height="108"/></g>
<g id="legendPoints"><g stroke="rgb(255,0,0)" fill="rgb(0,0,255)" stroke-width="2">
<text x="365.8" y="109" text-anchor="middle" font-size="10" font-family="Lucida Sans Unicode">&#x2666;</text></g>
<g stroke="rgb(0,0,0)" stroke-width="2">
<text x="365.8" y="143" text-anchor="middle" font-size="20" font-family="Lucida Sans Unicode">X</text></g>
<g stroke="rgb(255,0,255)" fill="rgb(0,255,255)" stroke-width="2"><polygon points=" 363.3,152 368.3,152 365.8,157"/></g>
</g>
<g id="legendText" fill="rgb(0,100,0)">
<text x="421.4" y="85" text-anchor="middle" font-size="12" font-family="arial" font-weight="bold">My Legend &#956;</text>
<text x="383.8" y="109" font-size="12" font-family="arial" font-weight="bold">data3</text>
<text x="383.8" y="133" font-size="12" font-family="arial" font-weight="bold">data4</text>
<text x="383.8" y="157" font-size="12" font-family="arial" font-weight="bold">data5</text></g>
<g id="title" fill="rgb(255,0,255)">
<text x="250" y="40" text-anchor="middle" font-size="20" font-family="Times New Roman">Demo 1D plot <sup>-&#945; </sup> &#x3A9; &#x3A6; &#x221A; &#x221E; &#x3B6; &#x00B1;</text></g>
</svg>
