<?xml version="1.0" encoding="UTF-8" standalone="no"?>
<svg width="500" height ="400" version="1.1"
xmlns:svg ="http://www.w3.org/2000/svg"
xmlns:rdf="http://www.w3.org/1999/02/22-rdf-syntax-ns#"
xmlns:cc="http://web.resource.org/cc/"
xmlns:dc="http://purl.org/dc/elements/1.1/"
xmlns ="http://www.w3.org/2000/svg"
>
<!-- SVG plot written using Boost.Plot program (Creator Jacob Voytko) --> 
<!-- Use, modification and distribution of Boost.Plot subject to the --> 
<!-- Boost Software License, Version 1.0.--> 
<!-- (See accompanying file LICENSE_1_0.txt --> 
<!-- or copy at http://www.boost.org/LICENSE_1_0.txt) --> 

	<clipPath id="plot_window">		<rect x="71.1" y="9" width="402" height="344"/>
	</clipPath>
	<g id="imageBackground" stroke="rgb(255,255,0)" fill="rgb(255,255,255)" stroke-width="2">
		<rect x="0" y="0" width="500" height="400"/>
	</g>
	<g id="plotBackground" stroke="rgb(119,136,153)" fill="rgb(255,255,255)" stroke-width="2">
		<rect x="70.1" y="8" width="404" height="346"/>
	</g>
	<g id="yMinorGrid" stroke="rgb(200,220,255)" stroke-width="0.5">
	</g>
	<g id="yMajorGrid" stroke="rgb(200,220,255)" stroke-width="1">
		<path d="
			M72.1,181 L472,181 
			M72.1,164 L472,164 
			M72.1,146 L472,146 
			M72.1,129 L472,129 
			M72.1,112 L472,112 
			M72.1,94.5 L472,94.5 
			M72.1,77.2 L472,77.2 
			M72.1,59.9 L472,59.9 
			M72.1,42.6 L472,42.6 
			M72.1,25.3 L472,25.3 
			M72.1,8 L472,8 
			M72.1,181 L472,181 
			M72.1,198 L472,198 
			M72.1,216 L472,216 
			M72.1,233 L472,233 
			M72.1,250 L472,250 
			M72.1,268 L472,268 
			M72.1,285 L472,285 
			M72.1,302 L472,302 
			M72.1,319 L472,319 
			M72.1,337 L472,337 
			M72.1,354 L472,354 
			" fill="none"/>
	</g>
	<g id="xMinorGrid" stroke="rgb(200,220,255)" stroke-width="0.5">
	</g>
	<g id="xMajorGrid" stroke="rgb(200,220,255)" stroke-width="1">
		<path d="
			M163,8 L163,354 
			M194,8 L194,354 
			M225,8 L225,354 
			M257,8 L257,354 
			M288,8 L288,354 
			M319,8 L319,354 
			M350,8 L350,354 
			M381,8 L381,354 
			M412,8 L412,354 
			M443,8 L443,354 
			M474,8 L474,354 
			M163,8 L163,354 
			M132,8 L132,354 
			M101,8 L101,354 
			M70.1,8 L70.1,354 
			" fill="none"/>
	</g>
	<g id="yAxis" stroke="rgb(0,0,0)" stroke-width="1">
		<line x1="163" y1="8" x2="163" y2="359"/>
		<line x1="70.1" y1="8" x2="70.1" y2="354"/>
	</g>
	<g id="xAxis" stroke="rgb(0,0,0)" stroke-width="1">
		<line x1="65.1" y1="181" x2="474" y2="181"/>
		<line x1="65.1" y1="354" x2="474" y2="354"/>
	</g>
	<g id="yMinorTicks" stroke="rgb(0,0,0)" stroke-width="1">
		<path d="
			M68.1,178 L70.1,178 
			M68.1,174 L70.1,174 
			M68.1,171 L70.1,171 
			M68.1,167 L70.1,167 
			M68.1,160 L70.1,160 
			M68.1,157 L70.1,157 
			M68.1,153 L70.1,153 
			M68.1,150 L70.1,150 
			M68.1,143 L70.1,143 
			M68.1,139 L70.1,139 
			M68.1,136 L70.1,136 
			M68.1,133 L70.1,133 
			M68.1,126 L70.1,126 
			M68.1,122 L70.1,122 
			M68.1,119 L70.1,119 
			M68.1,115 L70.1,115 
			M68.1,108 L70.1,108 
			M68.1,105 L70.1,105 
			M68.1,101 L70.1,101 
			M68.1,98 L70.1,98 
			M68.1,91 L70.1,91 
			M68.1,87.6 L70.1,87.6 
			M68.1,84.1 L70.1,84.1 
			M68.1,80.7 L70.1,80.7 
			M68.1,73.7 L70.1,73.7 
			M68.1,70.3 L70.1,70.3 
			M68.1,66.8 L70.1,66.8 
			M68.1,63.4 L70.1,63.4 
			M68.1,56.4 L70.1,56.4 
			M68.1,53 L70.1,53 
			M68.1,49.5 L70.1,49.5 
			M68.1,46.1 L70.1,46.1 
			M68.1,39.1 L70.1,39.1 
			M68.1,35.7 L70.1,35.7 
			M68.1,32.2 L70.1,32.2 
			M68.1,28.8 L70.1,28.8 
			M68.1,21.8 L70.1,21.8 
			M68.1,18.4 L70.1,18.4 
			M68.1,14.9 L70.1,14.9 
			M68.1,11.5 L70.1,11.5 
			M68.1,181 L70.1,181 
			M68.1,184 L70.1,184 
			M68.1,188 L70.1,188 
			M68.1,191 L70.1,191 
			M68.1,195 L70.1,195 
			M68.1,198 L70.1,198 
			M68.1,202 L70.1,202 
			M68.1,205 L70.1,205 
			M68.1,209 L70.1,209 
			M68.1,212 L70.1,212 
			M68.1,216 L70.1,216 
			M68.1,216 L70.1,216 
			M68.1,219 L70.1,219 
			M68.1,223 L70.1,223 
			M68.1,226 L70.1,226 
			M68.1,229 L70.1,229 
			M68.1,233 L70.1,233 
			M68.1,236 L70.1,236 
			M68.1,240 L70.1,240 
			M68.1,243 L70.1,243 
			M68.1,247 L70.1,247 
			M68.1,250 L70.1,250 
			M68.1,254 L70.1,254 
			M68.1,257 L70.1,257 
			M68.1,261 L70.1,261 
			M68.1,264 L70.1,264 
			M68.1,268 L70.1,268 
			M68.1,271 L70.1,271 
			M68.1,274 L70.1,274 
			M68.1,278 L70.1,278 
			M68.1,281 L70.1,281 
			M68.1,285 L70.1,285 
			M68.1,288 L70.1,288 
			M68.1,292 L70.1,292 
			M68.1,295 L70.1,295 
			M68.1,299 L70.1,299 
			M68.1,302 L70.1,302 
			M68.1,306 L70.1,306 
			M68.1,309 L70.1,309 
			M68.1,312 L70.1,312 
			M68.1,316 L70.1,316 
			M68.1,319 L70.1,319 
			M68.1,323 L70.1,323 
			M68.1,326 L70.1,326 
			M68.1,330 L70.1,330 
			M68.1,333 L70.1,333 
			M68.1,337 L70.1,337 
			M68.1,337 L70.1,337 
			M68.1,340 L70.1,340 
			M68.1,344 L70.1,344 
			M68.1,347 L70.1,347 
			M68.1,351 L70.1,351 
			M68.1,354 L70.1,354 
			M68.1,354 L70.1,354 
			" fill="none"/>
	</g>
	<g id="xMinorTicks" stroke="rgb(0,0,0)" stroke-width="1">
		<path d="
			M170,354 L170,356 
			M176,354 L176,356 
			M182,354 L182,356 
			M188,354 L188,356 
			M201,354 L201,356 
			M207,354 L207,356 
			M213,354 L213,356 
			M219,354 L219,356 
			M232,354 L232,356 
			M238,354 L238,356 
			M244,354 L244,356 
			M250,354 L250,356 
			M263,354 L263,356 
			M269,354 L269,356 
			M275,354 L275,356 
			M281,354 L281,356 
			M294,354 L294,356 
			M300,354 L300,356 
			M306,354 L306,356 
			M312,354 L312,356 
			M325,354 L325,356 
			M331,354 L331,356 
			M337,354 L337,356 
			M344,354 L344,356 
			M356,354 L356,356 
			M362,354 L362,356 
			M368,354 L368,356 
			M375,354 L375,356 
			M387,354 L387,356 
			M393,354 L393,356 
			M399,354 L399,356 
			M406,354 L406,356 
			M418,354 L418,356 
			M424,354 L424,356 
			M431,354 L431,356 
			M437,354 L437,356 
			M449,354 L449,356 
			M455,354 L455,356 
			M462,354 L462,356 
			M468,354 L468,356 
			M157,354 L157,356 
			M151,354 L151,356 
			M145,354 L145,356 
			M138,354 L138,356 
			M126,354 L126,356 
			M120,354 L120,356 
			M114,354 L114,356 
			M107,354 L107,356 
			M95,354 L95,356 
			M88.7,354 L88.7,356 
			M82.5,354 L82.5,356 
			M76.3,354 L76.3,356 
			" fill="none"/>
	</g>
	<g id="yMajorTicks" stroke="rgb(0,0,0)" stroke-width="2">
		<path d="
			M65.1,181 L70.1,181 
			M65.1,164 L70.1,164 
			M65.1,146 L70.1,146 
			M65.1,129 L70.1,129 
			M65.1,112 L70.1,112 
			M65.1,94.5 L70.1,94.5 
			M65.1,77.2 L70.1,77.2 
			M65.1,59.9 L70.1,59.9 
			M65.1,42.6 L70.1,42.6 
			M65.1,25.3 L70.1,25.3 
			M65.1,8 L70.1,8 
			M65.1,181 L70.1,181 
			M65.1,198 L70.1,198 
			M65.1,216 L70.1,216 
			M65.1,233 L70.1,233 
			M65.1,250 L70.1,250 
			M65.1,268 L70.1,268 
			M65.1,285 L70.1,285 
			M65.1,302 L70.1,302 
			M65.1,319 L70.1,319 
			M65.1,337 L70.1,337 
			M65.1,354 L70.1,354 
			" fill="none"/>
	</g>
	<g id="xMajorTicks" stroke="rgb(0,0,0)" stroke-width="2">
		<path d="
			M163,354 L163,359 
			M194,354 L194,359 
			M225,354 L225,359 
			M257,354 L257,359 
			M288,354 L288,359 
			M319,354 L319,359 
			M350,354 L350,359 
			M381,354 L381,359 
			M412,354 L412,359 
			M443,354 L443,359 
			M474,354 L474,359 
			M163,354 L163,359 
			M132,354 L132,359 
			M101,354 L101,359 
			M70.1,354 L70.1,359 
			" fill="none"/>
	</g>
	<g id="xTicksValues" font-size="12" font-family="Lucida Sans Unicode" text-anchor="middle">
		<text x="163" y="375">0
		</text>
		<text x="194" y="375">1
		</text>
		<text x="225" y="375">2
		</text>
		<text x="257" y="375">3
		</text>
		<text x="288" y="375">4
		</text>
		<text x="319" y="375">5
		</text>
		<text x="350" y="375">6
		</text>
		<text x="381" y="375">7
		</text>
		<text x="412" y="375">8
		</text>
		<text x="443" y="375">9
		</text>
		<text x="474" y="375">10
		</text>
		<text x="163" y="375">0
		</text>
		<text x="132" y="375">-1
		</text>
		<text x="101" y="375">-2
		</text>
		<text x="70.1" y="375">-3
		</text>
	</g>
	<g id="yTicksValues" font-size="12" font-family="Lucida Sans Unicode" text-anchor="end">
		<text x="59.1" y="183">0
		</text>
		<text x="59.1" y="166">1
		</text>
		<text x="59.1" y="149">2
		</text>
		<text x="59.1" y="132">3
		</text>
		<text x="59.1" y="114">4
		</text>
		<text x="59.1" y="96.9">5
		</text>
		<text x="59.1" y="79.6">6
		</text>
		<text x="59.1" y="62.3">7
		</text>
		<text x="59.1" y="45">8
		</text>
		<text x="59.1" y="27.7">9
		</text>
		<text x="59.1" y="10.4">10
		</text>
		<text x="59.1" y="183">0
		</text>
		<text x="59.1" y="201">-1
		</text>
		<text x="59.1" y="218">-2
		</text>
		<text x="59.1" y="235">-3
		</text>
		<text x="59.1" y="253">-4
		</text>
		<text x="59.1" y="270">-5
		</text>
		<text x="59.1" y="287">-6
		</text>
		<text x="59.1" y="305">-7
		</text>
		<text x="59.1" y="322">-8
		</text>
		<text x="59.1" y="339">-9
		</text>
		<text x="59.1" y="356">-10
		</text>
	</g>
	<g id="yLabel">
		<text x="32.4" y="181" text-anchor="middle" transform="rotate(-90 32.4 181)" font-size="14" font-family="Lucida Sans Unicode">distance (km)
		</text>
	</g>
	<g id="xLabel">
		<text x="272" y="387" text-anchor="middle" font-size="12" font-family="Lucida Sans Unicode">times (sec)
		</text>
	</g>
	<g id="plotUnc3" stroke="none" fill="rgb(230,240,255)" stroke-width="1">
		<ellipse cx="93.9" cy="281" rx="9.32" ry="20.8"/>
		<ellipse cx="225" cy="112" rx="46.6" ry="26"/>
		<ellipse cx="284" cy="162" rx="0.932" ry="10.4"/>
	</g>
	<g id="plotUnc2" stroke="none" fill="rgb(200,230,255)" stroke-width="1">
		<ellipse cx="93.9" cy="281" rx="6.21" ry="13.8"/>
		<ellipse cx="225" cy="112" rx="31.1" ry="17.3"/>
		<ellipse cx="284" cy="162" rx="0.621" ry="6.92"/>
	</g>
	<g id="plotUnc1" stroke="none" fill="rgb(173,216,230)" stroke-width="1">
		<ellipse cx="93.9" cy="281" rx="3.11" ry="6.92"/>
		<ellipse cx="225" cy="112" rx="15.5" ry="8.65"/>
		<ellipse cx="284" cy="162" rx="0.311" ry="3.46"/>
	</g>
	<g id="plotPoints" clip-path="url(#plot_window)">
	<g stroke="rgb(255,0,255)" fill="rgb(0,0,255)" font-size="14" font-family="Lucida Sans Unicode" text-anchor="middle">
		<circle cx="93.9" cy="281" r="0.5"/>
		<circle cx="225" cy="112" r="0.5"/>
		<circle cx="284" cy="162" r="0.5"/>
	</g>
	</g>
	<g id="title">
		<text x="250" y="27" text-anchor="middle" font-size="18" font-family="Lucida Sans Unicode" font-weight="normal">
		</text>
	</g>
	<g id="plotXValues">
	<g>
		<text x="104" y="274" transform="rotate(-45 104 274)" font-size="10" font-family="Times New Roman">g -2.2
		<tspan fill="rgb(255,0,0)" font-size="8" font-family="Times New Roman">&#x00B1;</tspan>
		<tspan fill="rgb(255,0,0)" font-size="8" font-family="Times New Roman">0.1</tspan>
		<tspan fill="rgb(0,0,0)" font-size="10" font-family="Times New Roman">sec</tspan>
		<tspan fill="rgb(0,0,0)" font-size="10" font-family="Times New Roman"></tspan>
		</text>
	</g>
	<g>
		<text x="235" y="105" transform="rotate(-45 235 105)" font-size="10" font-family="Times New Roman">g 2
		<tspan fill="rgb(255,0,0)" font-size="8" font-family="Times New Roman">&#x00B1;</tspan>
		<tspan fill="rgb(255,0,0)" font-size="8" font-family="Times New Roman">0.5</tspan>
		<tspan fill="rgb(0,0,0)" font-size="10" font-family="Times New Roman">sec</tspan>
		<tspan fill="rgb(0,0,0)" font-size="10" font-family="Times New Roman"></tspan>
		</text>
	</g>
	<g>
		<text x="294" y="155" transform="rotate(-45 294 155)" font-size="10" font-family="Times New Roman">g 3.9
		<tspan fill="rgb(255,0,0)" font-size="8" font-family="Times New Roman">&#x00B1;</tspan>
		<tspan fill="rgb(255,0,0)" font-size="8" font-family="Times New Roman">0.01</tspan>
		<tspan fill="rgb(0,0,0)" font-size="10" font-family="Times New Roman">sec</tspan>
		<tspan fill="rgb(0,0,0)" font-size="10" font-family="Times New Roman"></tspan>
		</text>
	</g>
	</g>
	<g id="plotYValues">
	<g>
		<text x="104" y="285" transform="rotate(-45 104 285)" font-size="8" font-family="Arial">y=-5.8
		<tspan fill="rgb(255,0,255)" font-size="6" font-family="arial">&#x00B1;</tspan>
		<tspan fill="rgb(255,0,255)" font-size="6" font-family="Arial">&#x2009;0.4</tspan>
		<tspan fill="rgb(0,100,0)" font-size="6" font-family="Arial"> &lt;-6, -5.5&gt;</tspan>
		<tspan fill="rgb(0,128,0)" font-size="6" font-family="Arial">&#x00A0;(9)</tspan>
		<tspan fill="rgb(0,0,0)" font-size="8" font-family="Arial">&#x2009;km</tspan>
		</text>
	</g>
	<g>
		<text x="235" y="117" transform="rotate(-45 235 117)" font-size="8" font-family="Arial">y=4
		<tspan fill="rgb(255,0,255)" font-size="6" font-family="arial">&#x00B1;</tspan>
		<tspan fill="rgb(255,0,255)" font-size="6" font-family="Arial">&#x2009;0.5</tspan>
		<tspan fill="rgb(0,100,0)" font-size="6" font-family="Arial"> &lt;3.7, 4.3&gt;</tspan>
		<tspan fill="rgb(0,128,0)" font-size="6" font-family="Arial">&#x00A0;(9)</tspan>
		<tspan fill="rgb(0,0,0)" font-size="8" font-family="Arial">&#x2009;km</tspan>
		</text>
	</g>
	<g>
		<text x="294" y="167" transform="rotate(-45 294 167)" font-size="8" font-family="Arial">y=1.1
		<tspan fill="rgb(255,0,255)" font-size="6" font-family="arial">&#x00B1;</tspan>
		<tspan fill="rgb(255,0,255)" font-size="6" font-family="Arial">&#x2009;0.2</tspan>
		<tspan fill="rgb(0,100,0)" font-size="6" font-family="Arial"> &lt;1, 1.2&gt;</tspan>
		<tspan fill="rgb(0,128,0)" font-size="6" font-family="Arial">&#x00A0;(18)</tspan>
		<tspan fill="rgb(0,0,0)" font-size="8" font-family="Arial">&#x2009;km</tspan>
		</text>
	</g>
	</g>
</svg>
