<?xml version="1.0" encoding="UTF-8" standalone="no"?>
<svg width="500" height ="250" version="1.1"
xmlns:svg ="http://www.w3.org/2000/svg"
xmlns:rdf="http://www.w3.org/1999/02/22-rdf-syntax-ns#"
xmlns:cc="http://web.resource.org/cc/"
xmlns:dc="http://purl.org/dc/elements/1.1/"
xmlns ="http://www.w3.org/2000/svg"
>
<!-- SVG plot written using Boost.Plot program (Creator Jacob Voytko) --> 
<!-- Use, modification and distribution of Boost.Plot subject to the --> 
<!-- Boost Software License, Version 1.0.--> 
<!-- (See accompanying file LICENSE_1_0.txt --> 
<!-- or copy at http://www.boost.org/LICENSE_1_0.txt) --> 

<!-- SVG Plot Copyright Paul A. Bristow 2008-03-29 --> 
<meta name="copyright" content="Paul A. Bristow" />
<meta name="date" content="2008-03-29" />
<!-- My demo_1d_plot description --> 
<desc>My demo_1d_plot description</desc>
<title>Document title demo_1d_plot</title>
<!-- File demo_1d_plot.svg --> 
<metadata id = "id0">
<rdf:RDF>
<cc:Work rdf:about="demo_1d_plot.svg">
<dc:format>image/svg+xml</dc:format>
<dc:type rdf:resource="http://purl.org/dc/dcmitype/StillImage" />
<dc:title> Document title demo_1d_plot</dc:title>
<dc:creator> <cc:Agent> <dc:title>Boost.Plot</dc:title> </cc:Agent></dc:creator>
<dc:author><cc:Agent><dc:title>Paul A. Bristow </dc:title> </cc:Agent> </dc:author>
<dc:rights><cc:Agent><dc:title>Paul A. Bristow</dc:title></cc:Agent></dc:rights>
<dc:date>2008-03-29</dc:date>
<dc:identifier>demo_1d_plot.svg</dc:identifier>
<dc:source>Boost.plot 0.5</dc:source>
<dc:relation></dc:relation>
<dc:publisher><cc:Agent><dc:title>Paul A. Bristow</dc:title></cc:Agent></dc:publisher>
<dc:language>en_US</dc:language>
<dc:description>My demo_1d_plot description</dc:description>
<dc:contributor><cc:Agent><dc:title>Paul A. Bristow</dc:title></cc:Agent></dc:contributor>
<dc:subject><rdf:Bag><rdf:li>Boost svg plot keyword</rdf:li></rdf:Bag></dc:subject>
<cc:license rdf:resource="http://creativecommons.org/licenses/" />
</cc:Work>
<cc:License rdf:about="http://creativecommons.org/licenses/">
<cc:permits rdf:resource="http://web.resource.org/cc/Reproduction"/>
<cc:permits rdf:resource="http://web.resource.org/cc/Distribution"/>
<cc:requires rdf:resource="http://web.resource.org/cc/Notice"/>
<cc:requires rdf:resource="http://web.resource.org/cc/Attribution"/>
<cc:permits rdf:resource="http://web.resource.org/cc/CommercialUse"/>
<cc:permits rdf:resource="http://web.resource.org/cc/DerivativeWorks"/>
</cc:License>
</rdf:RDF>
</metadata>
<g id="imageBackground" stroke="rgb(0,255,255)" fill="rgb(248,248,255)" stroke-width="10"><rect x="0" y="0" width="500" height="250"/></g>
<g id="plotBackground" stroke="rgb(255,192,203)" fill="rgb(240,248,255)" stroke-width="5"><rect x="21" y="46" width="381.8" height="170.5"/></g>
<g id="xMinorGrid" stroke="rgb(255,192,203)" stroke-width="1"><path d="M87.82,51 L87.82,211.5 M106.9,51 L106.9,211.5 M126,51 L126,211.5 M145.1,51 L145.1,211.5 M183.3,51 L183.3,211.5 M202.4,51 L202.4,211.5 M221.4,51 L221.4,211.5 M240.5,51 L240.5,211.5 M278.7,51 L278.7,211.5 M297.8,51 L297.8,211.5 M316.9,51 L316.9,211.5 M336,51 L336,211.5 M374.2,51 L374.2,211.5 M393.3,51 L393.3,211.5 M49.64,51 L49.64,211.5 M30.55,51 L30.55,211.5 " fill="none"/></g>
<g id="xMajorGrid" stroke="rgb(173,216,230)" stroke-width="2"><path d="M68.73,46 L68.73,216.5 M164.2,46 L164.2,216.5 M259.6,46 L259.6,216.5 M355.1,46 L355.1,216.5 M68.73,46 L68.73,216.5 " fill="none"/></g>
<g id="xAxis" stroke="rgb(0,0,255)" stroke-width="1"><line x1="68.73" y1="46" x2="68.73" y2="216.5"/><line x1="21" y1="136.2" x2="402.8" y2="136.2"/></g>
<g id="xMinorTicks" stroke="rgb(0,0,0)" stroke-width="1"><path d="M87.82,129.2 L87.82,143.2 M106.9,129.2 L106.9,143.2 M126,129.2 L126,143.2 M145.1,129.2 L145.1,143.2 M183.3,129.2 L183.3,143.2 M202.4,129.2 L202.4,143.2 M221.4,129.2 L221.4,143.2 M240.5,129.2 L240.5,143.2 M278.7,129.2 L278.7,143.2 M297.8,129.2 L297.8,143.2 M316.9,129.2 L316.9,143.2 M336,129.2 L336,143.2 M374.2,129.2 L374.2,143.2 M393.3,129.2 L393.3,143.2 M49.64,129.2 L49.64,143.2 M30.55,129.2 L30.55,143.2 " fill="none"/></g>
<g id="xMajorTicks" stroke="rgb(0,0,0)" stroke-width="3"><path d="M68.73,126.2 L68.73,146.2 M164.2,126.2 L164.2,146.2 M259.6,126.2 L259.6,146.2 M355.1,126.2 L355.1,146.2 M68.73,126.2 L68.73,146.2 " fill="none"/></g>
<g id="xTicksValues">
<text x="164.2" y="159.2" text-anchor="middle" font-size="10" font-family="Verdana">2</text>
<text x="259.6" y="159.2" text-anchor="middle" font-size="10" font-family="Verdana">4</text>
<text x="355.1" y="159.2" text-anchor="middle" font-size="10" font-family="Verdana">6</text></g>
<g id="xLabel" stroke="rgb(0,0,255)" fill="rgb(0,0,255)">
<text x="211.9" y="236.9" text-anchor="middle" font-size="12" font-family="Lucida sans unicode">volume (meter&#179; or m&#179;)</text></g>
<g id="plotPoints"><g stroke="rgb(255,0,0)" fill="rgb(0,0,255)">
<text x="102.1" y="131.5" text-anchor="middle" font-size="10" font-family="Lucida Sans Unicode">&#x2666;</text>
<text x="188" y="131.5" text-anchor="middle" font-size="10" font-family="Lucida Sans Unicode">&#x2666;</text>
<text x="345.5" y="131.5" text-anchor="middle" font-size="10" font-family="Lucida Sans Unicode">&#x2666;</text></g>
<g stroke="rgb(0,0,0)">
<text x="116.5" y="134.7" text-anchor="middle" font-size="20" font-family="Lucida Sans Unicode"></text>
<text x="164.2" y="134.7" text-anchor="middle" font-size="20" font-family="Lucida Sans Unicode"></text>
<text x="211.9" y="134.7" text-anchor="middle" font-size="20" font-family="Lucida Sans Unicode"></text>
<text x="355.1" y="134.7" text-anchor="middle" font-size="20" font-family="Lucida Sans Unicode"></text>
<text x="402.8" y="134.7" text-anchor="middle" font-size="20" font-family="Lucida Sans Unicode"></text></g>
<g stroke="rgb(255,0,255)" fill="rgb(0,255,255)">
<text x="68.73" y="129.9" text-anchor="middle" font-size="5" font-family="Lucida Sans Unicode">&#x25BD;</text>
<text x="21" y="129.9" text-anchor="middle" font-size="5" font-family="Lucida Sans Unicode">&#x25BD;</text>
<text x="116.5" y="129.9" text-anchor="middle" font-size="5" font-family="Lucida Sans Unicode">&#x25BD;</text>
<text x="68.73" y="129.9" text-anchor="middle" font-size="5" font-family="Lucida Sans Unicode">&#x25BD;</text></g>
</g>
<g id="limitPoints" stroke="rgb(255,0,0)" fill="rgb(255,255,255)">
<text x="407.8" y="149.5" text-anchor="middle" font-size="10" font-family="Lucida Sans Unicode">&#x25B9;</text>
<text x="68.73" y="152.7" text-anchor="middle" font-size="20" font-family="Lucida Sans Unicode">&#x25BD;</text>
<text x="407.8" y="149.5" text-anchor="middle" font-size="10" font-family="Lucida Sans Unicode">&#x25B9;</text></g>
<g id="legendBackground" stroke="rgb(210,105,30)" fill="rgb(245,245,220)" stroke-width="1"><rect x="408.8" y="46" width="82.19" height="97"/></g>
<g id="legendPoints"><g stroke="rgb(255,0,0)" fill="rgb(0,0,255)" stroke-width="2">
<text x="426.6" y="93.23" text-anchor="middle" font-size="10" font-family="Lucida Sans Unicode">&#x2666;</text></g>
<g stroke="rgb(0,0,0)" stroke-width="2">
<text x="426.6" y="114.5" text-anchor="middle" font-size="20" font-family="Lucida Sans Unicode"></text></g>
<g stroke="rgb(255,0,255)" fill="rgb(0,255,255)" stroke-width="2">
<text x="426.6" y="132.6" text-anchor="middle" font-size="5" font-family="Lucida Sans Unicode">&#x25BD;</text></g>
</g>
<g id="legendText" fill="rgb(0,100,0)">
<text x="449.9" y="67" text-anchor="middle" font-size="10" font-family="Verdana">My Legend &#956;</text>
<text x="443.9" y="92" font-size="10" font-family="Verdana">data3</text>
<text x="443.9" y="112" font-size="10" font-family="Verdana">data4</text>
<text x="443.9" y="132" font-size="10" font-family="Verdana">data5</text></g>
<g id="title" fill="rgb(255,0,255)">
<text x="250" y="25" text-anchor="middle" font-size="20" font-family="Times New Roman">Demo 1D plot <sup>-&#945; </sup> &#x3A9; &#x3A6; &#x221A; &#x221E; &#x3B6; &#x00B1;</text></g>
</svg>
