<?xml version="1.0" encoding="UTF-8" standalone="no"?>
<svg width="500" height ="400" version="1.1"
xmlns:svg ="http://www.w3.org/2000/svg"
xmlns:rdf="http://www.w3.org/1999/02/22-rdf-syntax-ns#"
xmlns:cc="http://web.resource.org/cc/"
xmlns:dc="http://purl.org/dc/elements/1.1/"
xmlns ="http://www.w3.org/2000/svg"
>
<!-- SVG plot written using Boost.Plot program (Creator Jacob Voytko) --> 
<!-- Use, modification and distribution of Boost.Plot subject to the --> 
<!-- Boost Software License, Version 1.0.--> 
<!-- (See accompanying file LICENSE_1_0.txt --> 
<!-- or copy at http://www.boost.org/LICENSE_1_0.txt) --> 

<clipPath id="plot_window">	<rect x="51.7" y="9" width="421" height="346"/>
</clipPath>
	<g id="imageBackground" stroke="rgb(255,255,0)" fill="rgb(255,255,255)" stroke-width="2">
	<rect x="0" y="0" width="500" height="400"/>
</g>
	<g id="plotBackground" stroke="rgb(119,136,153)" fill="rgb(255,255,255)" stroke-width="2">
	<rect x="50.7" y="8" width="423" height="348"/>
</g>
	<g id="yMinorGrid" stroke="rgb(200,220,255)" stroke-width="0.5">
</g>
	<g id="yMajorGrid" stroke="rgb(200,220,255)" stroke-width="1">
</g>
	<g id="xMinorGrid" stroke="rgb(200,220,255)" stroke-width="0.5">
</g>
	<g id="xMajorGrid" stroke="rgb(200,220,255)" stroke-width="1">
</g>
	<g id="yAxis" stroke="rgb(0,0,0)" stroke-width="1">
	<line x1="50.7" y1="8" x2="50.7" y2="362"/>
	<line x1="50.7" y1="8" x2="50.7" y2="356"/>
</g>
	<g id="xAxis" stroke="rgb(0,0,0)" stroke-width="1">
	<line x1="45.7" y1="356" x2="474" y2="356"/>
	<line x1="45.7" y1="356" x2="474" y2="356"/>
</g>
	<g id="yMinorTicks" stroke="rgb(0,0,0)" stroke-width="1">
	<path d="M48.7,329 L50.7,329 
M48.7,301 L50.7,301 
M48.7,273 L50.7,273 
M48.7,245 L50.7,245 
M48.7,189 L50.7,189 
M48.7,161 L50.7,161 
M48.7,133 L50.7,133 
M48.7,106 L50.7,106 
M48.7,49.8 L50.7,49.8 
M48.7,21.9 L50.7,21.9 
M48.7,356 L50.7,356 
" fill="none"/>
</g>
	<g id="xMinorTicks" stroke="rgb(0,0,0)" stroke-width="1">
	<path d="M59.2,356 L59.2,358 
M67.6,356 L67.6,358 
M76.1,356 L76.1,358 
M84.6,356 L84.6,358 
M101,356 L101,358 
M110,356 L110,358 
M118,356 L118,358 
M127,356 L127,358 
M144,356 L144,358 
M152,356 L152,358 
M161,356 L161,358 
M169,356 L169,358 
M186,356 L186,358 
M195,356 L195,358 
M203,356 L203,358 
M212,356 L212,358 
M228,356 L228,358 
M237,356 L237,358 
M245,356 L245,358 
M254,356 L254,358 
M271,356 L271,358 
M279,356 L279,358 
M288,356 L288,358 
M296,356 L296,358 
M313,356 L313,358 
M322,356 L322,358 
M330,356 L330,358 
M339,356 L339,358 
M355,356 L355,358 
M364,356 L364,358 
M372,356 L372,358 
M381,356 L381,358 
M398,356 L398,358 
M406,356 L406,358 
M415,356 L415,358 
M423,356 L423,358 
M440,356 L440,358 
M449,356 L449,358 
M457,356 L457,358 
M466,356 L466,358 
" fill="none"/>
</g>
	<g id="yMajorTicks" stroke="rgb(0,0,0)" stroke-width="2">
	<path d="M45.7,356 L50.7,356 
M45.7,217 L50.7,217 
M45.7,77.7 L50.7,77.7 
M45.7,356 L50.7,356 
" fill="none"/>
</g>
	<g id="xMajorTicks" stroke="rgb(0,0,0)" stroke-width="2">
	<path d="M50.7,356 L50.7,362 
M93,356 L93,362 
M135,356 L135,362 
M178,356 L178,362 
M220,356 L220,362 
M262,356 L262,362 
M305,356 L305,362 
M347,356 L347,362 
M389,356 L389,362 
M432,356 L432,362 
M474,356 L474,362 
M50.7,356 L50.7,362 
" fill="none"/>
</g>
	<g id="xTicksValues" font-size="12" font-family="Lucida Sans Unicode" text-anchor="middle">
	<text x="50.7" y="377">0
	</text>
	<text x="93" y="377">2
	</text>
	<text x="135" y="377">4
	</text>
	<text x="178" y="377">6
	</text>
	<text x="220" y="377">8
	</text>
	<text x="262" y="377">10
	</text>
	<text x="305" y="377">12
	</text>
	<text x="347" y="377">14
	</text>
	<text x="389" y="377">16
	</text>
	<text x="432" y="377">18
	</text>
	<text x="474" y="377">20
	</text>
	<text x="50.7" y="377">0
	</text>
</g>
	<g id="yTicksValues" font-size="12" font-family="Lucida Sans Unicode" text-anchor="end">
	<text x="39.7" y="359">0
	</text>
	<text x="39.7" y="220">2
	</text>
	<text x="39.7" y="80.1">4
	</text>
	<text x="39.7" y="359">0
	</text>
</g>
	<g id="yLabel">
	<text x="29.8" y="182" text-anchor="middle" transform="rotate(-90 29.8 182)" font-size="10" font-family="Lucida Sans Unicode">y (small X axis label font size 10)
	</text>
</g>
	<g id="xLabel">
	<text x="262" y="387" text-anchor="middle" font-size="10" font-family="Lucida Sans Unicode">x (small X axis label font size 10)
	</text>
</g>
	<g id="plotPoints" clip-path="url(#plot_window)">
	<g stroke="rgb(255,0,0)" fill="rgb(255,255,255)" font-size="10" font-family="Lucida Sans Unicode" text-anchor="middle">
	<text x="71.9" y="290" text-anchor="middle">&#x25CF;
	</text>
	<text x="93" y="261" text-anchor="middle">&#x25CF;
	</text>
	<text x="114" y="239" text-anchor="middle">&#x25CF;
	</text>
	<text x="135" y="220" text-anchor="middle">&#x25CF;
	</text>
	<text x="157" y="204" text-anchor="middle">&#x25CF;
	</text>
	<text x="178" y="189" text-anchor="middle">&#x25CF;
	</text>
	<text x="199" y="175" text-anchor="middle">&#x25CF;
	</text>
	<text x="220" y="162" text-anchor="middle">&#x25CF;
	</text>
	<text x="241" y="150" text-anchor="middle">&#x25CF;
	</text>
	<text x="262" y="139" text-anchor="middle">&#x25CF;
	</text>
	<text x="284" y="128" text-anchor="middle">&#x25CF;
	</text>
	<text x="305" y="118" text-anchor="middle">&#x25CF;
	</text>
	<text x="326" y="108" text-anchor="middle">&#x25CF;
	</text>
	<text x="347" y="98.6" text-anchor="middle">&#x25CF;
	</text>
	<text x="368" y="89.5" text-anchor="middle">&#x25CF;
	</text>
	<text x="389" y="80.6" text-anchor="middle">&#x25CF;
	</text>
	<text x="411" y="72.1" text-anchor="middle">&#x25CF;
	</text>
	<text x="432" y="63.7" text-anchor="middle">&#x25CF;
	</text>
	<text x="453" y="55.6" text-anchor="middle">&#x25CF;
	</text>
	<text x="474" y="47.7" text-anchor="middle">&#x25CF;
	</text>
</g>
</g>
	<g id="title">
	<text x="250" y="27" text-anchor="middle" font-size="18" font-family="Lucida Sans Unicode" font-weight="normal">
	</text>
</g>
	<g id="plotXValues">
</g>
	<g id="plotYValues">
</g>
</svg>
