<?xml version="1.0" encoding="UTF-8" standalone="no"?>
<svg width="500" height ="350" version="1.1"
xmlns:svg ="http://www.w3.org/2000/svg"
xmlns:rdf="http://www.w3.org/1999/02/22-rdf-syntax-ns#"
xmlns:cc="http://web.resource.org/cc/"
xmlns:dc="http://purl.org/dc/elements/1.1/"
xmlns ="http://www.w3.org/2000/svg"
>
<!-- SVG plot written using Boost.Plot program (Creator Jacob Voytko) --> 
<!-- Use, modification and distribution of Boost.Plot subject to the --> 
<!-- Boost Software License, Version 1.0.--> 
<!-- (See accompanying file LICENSE_1_0.txt --> 
<!-- or copy at http://www.boost.org/LICENSE_1_0.txt) --> 

<!-- File demo_boxplot.svg --> 
<clipPath id="plot_window"><rect x="70.2" y="52" width="418" height="229"/></clipPath>
<g id="imageBackground" stroke="rgb(0,0,139)" fill="rgb(240,255,255)" stroke-width="2"><rect x="0" y="0" width="500" height="350"/></g>
<g id="plotBackground" stroke="rgb(255,255,0)" fill="rgb(255,255,255)" stroke-width="1"><rect x="75.2" y="57" width="413" height="224"/></g>
<g id="X-axis" stroke="rgb(0,0,0)" stroke-width="1"><line x1="75.2" y1="281" x2="488" y2="281"/></g>
<g id="Y-axis" stroke="rgb(0,0,0)" stroke-width="1"><line x1="75.2" y1="281" x2="75.2" y2="57"/></g>
<g id="xMajorTicks" stroke="rgb(0,0,0)" stroke-width="1"><path d="M178,281 L178,286 M282,281 L282,286 M385,281 L385,286 " fill="none"/></g>
<g id="yMajorTicks" stroke="rgb(0,0,0)" stroke-width="2"><path d="M70.2,281 L75.2,281 M70.2,236 L75.2,236 M70.2,192 L75.2,192 M70.2,147 L75.2,147 M70.2,102 L75.2,102 M70.2,57 L75.2,57 M70.2,281 L75.2,281 " fill="none"/></g>
<g id="yMinorTicks" stroke="rgb(0,0,0)" stroke-width="1"><path d="M65.2,272 L75.2,272 M65.2,263 L75.2,263 M65.2,254 L75.2,254 M65.2,245 L75.2,245 M65.2,227 L75.2,227 M65.2,218 L75.2,218 M65.2,209 L75.2,209 M65.2,200 L75.2,200 M65.2,183 L75.2,183 M65.2,174 L75.2,174 M65.2,165 L75.2,165 M65.2,156 L75.2,156 M65.2,138 L75.2,138 M65.2,129 L75.2,129 M65.2,120 L75.2,120 M65.2,111 L75.2,111 M65.2,92.9 L75.2,92.9 M65.2,83.9 L75.2,83.9 M65.2,74.9 L75.2,74.9 M65.2,66 L75.2,66 M65.2,281 L75.2,281 " fill="none"/></g>
<g id="YGrid" stroke="rgb(200,220,255)" stroke-width="1"></g>
<g id="yMinorGrid" stroke="rgb(200,220,255)" stroke-width="0.5"></g>
<g id="valueLabels" fill="rgb(0,0,0)">
<text x="178" y="306" text-anchor="middle" font-size="14" font-family="Lucida Sans Unicode">test</text>
<text x="282" y="306" text-anchor="middle" font-size="14" font-family="Lucida Sans Unicode">[50 / x]</text>
<text x="385" y="306" text-anchor="middle" font-size="14" font-family="Lucida Sans Unicode">[40+25*sin(x*50)]</text>
<text x="64.2" y="284" text-anchor="end" font-size="12" font-family="Lucida Sans Unicode">0</text>
<text x="64.2" y="239" text-anchor="end" font-size="12" font-family="Lucida Sans Unicode">20</text>
<text x="64.2" y="194" text-anchor="end" font-size="12" font-family="Lucida Sans Unicode">40</text>
<text x="64.2" y="149" text-anchor="end" font-size="12" font-family="Lucida Sans Unicode">60</text>
<text x="64.2" y="104" text-anchor="end" font-size="12" font-family="Lucida Sans Unicode">80</text>
<text x="64.2" y="59.4" text-anchor="end" font-size="12" font-family="Lucida Sans Unicode">100</text>
<text x="64.2" y="284" text-anchor="end" font-size="12" font-family="Lucida Sans Unicode">0</text></g>
<g id="yLabel" fill="rgb(0,0,0)">
<text x="30.2" y="169" text-anchor="middle" transform = "rotate(-90 30.2 169 )" font-size="14" font-family="Lucida Sans Unicode">Population Size</text></g>
<g id="xLabel" fill="rgb(0,0,0)">
<text x="282" y="327" text-anchor="middle" font-size="14" font-family="Lucida Sans Unicode">Functions</text></g>
<g id="boxAxis" stroke="rgb(0,0,0)"><g clip-path="url(#plot_window)" stroke="rgb(0,0,0)" stroke-width="1"><line x1="178" y1="270" x2="178" y2="195"/></g>
<g clip-path="url(#plot_window)" stroke="rgb(0,0,0)" stroke-width="1"><line x1="282" y1="270" x2="282" y2="195"/></g>
<g clip-path="url(#plot_window)" stroke="rgb(0,0,0)" stroke-width="1"><line x1="385" y1="248" x2="385" y2="135"/></g>
</g>
<g id="Median" stroke="rgb(255,0,0)" stroke-width="2"><g clip-path="url(#plot_window)" stroke="rgb(0,128,0)" fill="rgb(255,192,203)" stroke-width="1"><rect x="173" y="237" width="10" height="29.3"/></g>
<g clip-path="url(#plot_window)" stroke="rgb(0,0,255)" stroke-width="1"><line x1="174" y1="259" x2="183" y2="259"/></g>
<g clip-path="url(#plot_window)" stroke="rgb(0,128,0)" fill="rgb(240,255,255)" stroke-width="1"><rect x="267" y="237" width="30" height="29.3"/></g>
<g clip-path="url(#plot_window)" stroke="rgb(0,0,255)" stroke-width="1"><line x1="267" y1="259" x2="296" y2="259"/></g>
<g clip-path="url(#plot_window)" stroke="rgb(0,128,0)" fill="rgb(240,255,255)" stroke-width="1"><rect x="370" y="153" width="30" height="78.4"/></g>
<g clip-path="url(#plot_window)" stroke="rgb(0,0,255)" stroke-width="1"><line x1="370" y1="194" x2="399" y2="194"/></g>
</g>
<g id="whisker" stroke="rgb(0,0,0)"><g clip-path="url(#plot_window)"><g stroke="rgb(255,0,255)" fill="rgb(0,0,0)" stroke-width="1"><line x1="176" y1="270" x2="181" y2="270"/></g>
<g stroke="rgb(0,255,255)" fill="rgb(0,0,0)" stroke-width="1"><line x1="176" y1="195" x2="181" y2="195"/></g>
</g>
<g clip-path="url(#plot_window)"><g stroke="rgb(255,0,255)" fill="rgb(0,0,0)" stroke-width="1"><line x1="267" y1="270" x2="297" y2="270"/></g>
<g stroke="rgb(0,255,255)" fill="rgb(0,0,0)" stroke-width="1"><line x1="267" y1="195" x2="297" y2="195"/></g>
</g>
<g clip-path="url(#plot_window)"><g stroke="rgb(255,0,255)" fill="rgb(0,0,0)" stroke-width="1"><line x1="370" y1="248" x2="400" y2="248"/></g>
<g stroke="rgb(0,255,255)" fill="rgb(0,0,0)" stroke-width="1"><line x1="370" y1="135" x2="400" y2="135"/></g>
</g>
</g>
<g id="mild_outliers" stroke="rgb(255,192,203)" fill="rgb(0,0,0)"><g clip-path="url(#plot_window)" stroke="rgb(165,42,42)"><circle cx="178" cy="157" r="2"/><circle cx="178" cy="169" r="2"/><circle cx="178" cy="179" r="2"/><circle cx="178" cy="188" r="2"/></g>
<g clip-path="url(#plot_window)" stroke="rgb(165,42,42)"><circle cx="282" cy="157" r="2"/><circle cx="282" cy="169" r="2"/><circle cx="282" cy="179" r="2"/><circle cx="282" cy="188" r="2"/></g>
</g>
<g id="extreme_outliers" stroke="rgb(128,0,128)" fill="rgb(255,255,255)"><g clip-path="url(#plot_window)" stroke="rgb(255,0,0)"><polygon points=" 176,52 181,52 178,57"/><polygon points=" 176,89.4 181,89.4 178,94.4"/><polygon points=" 176,116 181,116 178,121"/><polygon points=" 176,136 181,136 178,141"/></g>
<g clip-path="url(#plot_window)" stroke="rgb(255,0,0)"><polygon points=" 279,52 284,52 282,57"/><polygon points=" 279,89.4 284,89.4 282,94.4"/><polygon points=" 279,116 284,116 282,121"/><polygon points=" 279,136 284,136 282,141"/></g>
</g>
<g id="title" fill="rgb(0,0,0)">
<text x="250" y="36" text-anchor="middle" font-size="18" font-family="Lucida Sans Unicode">Boxplots of 1/x and sin(x) Functions</text></g>
</svg>
