<?xml version="1.0" encoding="UTF-8" standalone="no"?>
<svg width="500" height ="400" version="1.1"
xmlns:svg ="http://www.w3.org/2000/svg"
xmlns:rdf="http://www.w3.org/1999/02/22-rdf-syntax-ns#"
xmlns:cc="http://web.resource.org/cc/"
xmlns:dc="http://purl.org/dc/elements/1.1/"
xmlns ="http://www.w3.org/2000/svg"
>
<!-- SVG plot written using Boost.Plot program (Creator Jacob Voytko) --> 
<!-- Use, modification and distribution of Boost.Plot subject to the --> 
<!-- Boost Software License, Version 1.0.--> 
<!-- (See accompanying file LICENSE_1_0.txt --> 
<!-- or copy at http://www.boost.org/LICENSE_1_0.txt) --> 

<clipPath id="plot_window"><rect x="78.3" y="40.5" width="310" height="312"/></clipPath>
<g id="imageBackground" stroke="rgb(0,0,0)" fill="rgb(255,255,255)" stroke-width="2"><rect x="0" y="0" width="500" height="400"/></g>
<g id="plotBackground" stroke="rgb(119,136,153)" fill="rgb(255,255,255)" stroke-width="2"><rect x="77.3" y="39.5" width="312" height="314"/></g>
<g id="yMinorGrid" stroke="rgb(200,220,255)" stroke-width="0.5"></g>
<g id="yMajorGrid" stroke="rgb(200,220,255)" stroke-width="1"></g>
<g id="xMinorGrid" stroke="rgb(200,220,255)" stroke-width="0.5"></g>
<g id="xMajorGrid" stroke="rgb(200,220,255)" stroke-width="1"></g>
<g id="yAxis" stroke="rgb(0,0,0)" stroke-width="1"><line x1="77.3" y1="39.5" x2="77.3" y2="359"/><line x1="77.3" y1="39.5" x2="77.3" y2="354"/></g>
<g id="xAxis" stroke="rgb(0,0,0)" stroke-width="1"><line x1="72.3" y1="354" x2="389" y2="354"/><line x1="72.3" y1="354" x2="389" y2="354"/></g>
<g id="yMinorTicks" stroke="rgb(0,0,0)" stroke-width="1"><path d="M75.3,341 L77.3,341 M75.3,329 L77.3,329 M75.3,316 L77.3,316 M75.3,304 L77.3,304 M75.3,279 L77.3,279 M75.3,266 L77.3,266 M75.3,253 L77.3,253 M75.3,241 L77.3,241 M75.3,216 L77.3,216 M75.3,203 L77.3,203 M75.3,190 L77.3,190 M75.3,178 L77.3,178 M75.3,153 L77.3,153 M75.3,140 L77.3,140 M75.3,128 L77.3,128 M75.3,115 L77.3,115 M75.3,89.8 L77.3,89.8 M75.3,77.2 L77.3,77.2 M75.3,64.7 L77.3,64.7 M75.3,52.1 L77.3,52.1 M75.3,354 L77.3,354 " fill="none"/></g>
<g id="xMinorTicks" stroke="rgb(0,0,0)" stroke-width="1"><path d="M96.8,354 L96.8,356 M116,354 L116,356 M136,354 L136,356 M155,354 L155,356 M194,354 L194,356 M214,354 L214,356 M233,354 L233,356 M253,354 L253,356 M292,354 L292,356 M311,354 L311,356 M331,354 L331,356 M350,354 L350,356 M389,354 L389,356 " fill="none"/></g>
<g id="yMajorTicks" stroke="rgb(0,0,0)" stroke-width="2"><path d="M72.3,354 L77.3,354 M72.3,291 L77.3,291 M72.3,228 L77.3,228 M72.3,165 L77.3,165 M72.3,102 L77.3,102 M72.3,39.5 L77.3,39.5 M72.3,354 L77.3,354 " fill="none"/></g>
<g id="xMajorTicks" stroke="rgb(0,0,0)" stroke-width="2"><path d="M77.3,354 L77.3,359 M175,354 L175,359 M272,354 L272,359 M370,354 L370,359 M77.3,354 L77.3,359 " fill="none"/></g>
<g id="xTicksValues">
<text x="77.3" y="375" text-anchor="middle" font-size="12" font-family="Lucida Sans Unicode">0</text>
<text x="175" y="375" text-anchor="middle" font-size="12" font-family="Lucida Sans Unicode">50</text>
<text x="272" y="375" text-anchor="middle" font-size="12" font-family="Lucida Sans Unicode">100</text>
<text x="370" y="375" text-anchor="middle" font-size="12" font-family="Lucida Sans Unicode">150</text>
<text x="77.3" y="375" text-anchor="middle" font-size="12" font-family="Lucida Sans Unicode">0</text></g>
<g id="yTicksValues">
<text x="66.3" y="356" text-anchor="end" font-size="12" font-family="Lucida Sans Unicode">0</text>
<text x="66.3" y="294" text-anchor="end" font-size="12" font-family="Lucida Sans Unicode">1000</text>
<text x="66.3" y="231" text-anchor="end" font-size="12" font-family="Lucida Sans Unicode">2000</text>
<text x="66.3" y="168" text-anchor="end" font-size="12" font-family="Lucida Sans Unicode">3000</text>
<text x="66.3" y="105" text-anchor="end" font-size="12" font-family="Lucida Sans Unicode">4000</text>
<text x="66.3" y="41.9" text-anchor="end" font-size="12" font-family="Lucida Sans Unicode">5000</text>
<text x="66.3" y="356" text-anchor="end" font-size="12" font-family="Lucida Sans Unicode">0</text></g>
<g id="yLabel">
<text x="32.4" y="197" text-anchor="middle" transform = "rotate(-90 32.4 197 )" font-size="14" font-family="Lucida Sans Unicode">thousands of people per one minute interval</text></g>
<g id="xLabel">
<text x="233" y="387" text-anchor="middle" font-size="12" font-family="Lucida Sans Unicode">journey time (min)</text></g>
<g id="plotPoints" clip-path="url(#plot_window)"><g stroke="rgb(0,0,255)" fill="rgb(173,216,230)" stroke-width="2"><path d="M77.3,354 L77.3,329 L87,329 L87,354 ZM87,354 L87,291 L96.8,291 L96.8,354 ZM96.8,354 L96.8,228 L107,228 L107,354 ZM107,354 L107,216 L116,216 L116,354 ZM116,354 L116,203 L126,203 L126,354 ZM126,354 L126,190 L136,190 L136,354 ZM136,354 L136,165 L145,165 L145,354 ZM145,354 L145,153 L155,153 L155,354 ZM155,354 L155,128 L165,128 L165,354 ZM165,354 L165,304 L194,304 L194,354 ZM194,354 L194,331 L253,331 L253,354 ZM253,354 L253,344 L370,344 L370,354 Z" fill="rgb(173,216,230)"/></g>
</g>
<g id="legendBackground" stroke="rgb(255,255,0)" fill="rgb(255,255,255)" stroke-width="1"><rect x="395" y="39.5" width="91" height="31.2"/></g>
<g id="legendPoints"></g>
<g id="legendText">
<text x="403" y="57.2" font-size="10" font-family="Lucida Sans Unicode" font-weight="normal">2050 times? </text></g>
<g id="title">
<text x="250" y="22.5" text-anchor="middle" font-size="18" font-family="Lucida Sans Unicode" font-weight="normal">US 2000 Census Journey Times</text></g>
</svg>
