<?xml version="1.0" encoding="UTF-8" standalone="no"?>
<svg width="500" height ="400" version="1.1"
xmlns:svg ="http://www.w3.org/2000/svg"
xmlns:rdf="http://www.w3.org/1999/02/22-rdf-syntax-ns#"
xmlns:cc="http://web.resource.org/cc/"
xmlns:dc="http://purl.org/dc/elements/1.1/"
xmlns ="http://www.w3.org/2000/svg"
>
<!-- SVG plot written using Boost.Plot program (Creator Jacob Voytko) --> 
<!-- Use, modification and distribution of Boost.Plot subject to the --> 
<!-- Boost Software License, Version 1.0.--> 
<!-- (See accompanying file LICENSE_1_0.txt --> 
<!-- or copy at http://www.boost.org/LICENSE_1_0.txt) --> 

<clipPath id="plot_window"><rect x="66" y="9" width="407" height="339"/></clipPath>
<g id="imageBackground" stroke="rgb(255,255,0)" fill="rgb(255,255,255)" stroke-width="2"><rect x="0" y="0" width="500" height="400"/></g>
<g id="plotBackground" stroke="rgb(119,136,153)" fill="rgb(255,255,255)" stroke-width="2"><rect x="65" y="8" width="409" height="341"/></g>
<g id="yMinorGrid" stroke="rgb(200,220,255)" stroke-width="0.5"></g>
<g id="yMajorGrid" stroke="rgb(200,220,255)" stroke-width="1"></g>
<g id="xMinorGrid" stroke="rgb(200,220,255)" stroke-width="0.5"></g>
<g id="xMajorGrid" stroke="rgb(200,220,255)" stroke-width="1"></g>
<g id="yAxis" stroke="rgb(0,0,0)" stroke-width="1"><line x1="65" y1="8" x2="65" y2="354"/><line x1="65" y1="8" x2="65" y2="349"/></g>
<g id="xAxis" stroke="rgb(0,0,0)" stroke-width="1"><line x1="60" y1="349" x2="474" y2="349"/><line x1="60" y1="349" x2="474" y2="349"/></g>
<g id="yMinorTicks" stroke="rgb(0,0,0)" stroke-width="1"><path d="M63,322 L65,322 M63,294 L65,294 M63,267 L65,267 M63,240 L65,240 M63,185 L65,185 M63,158 L65,158 M63,131 L65,131 M63,103 L65,103 M63,48.9 L65,48.9 M63,21.6 L65,21.6 M63,349 L65,349 " fill="none"/></g>
<g id="xMinorTicks" stroke="rgb(0,0,0)" stroke-width="1"><path d="M73.2,349 L73.2,351 M81.4,349 L81.4,351 M89.5,349 L89.5,351 M97.7,349 L97.7,351 M114,349 L114,351 M122,349 L122,351 M130,349 L130,351 M139,349 L139,351 M155,349 L155,351 M163,349 L163,351 M171,349 L171,351 M180,349 L180,351 M196,349 L196,351 M204,349 L204,351 M212,349 L212,351 M220,349 L220,351 M237,349 L237,351 M245,349 L245,351 M253,349 L253,351 M261,349 L261,351 M278,349 L278,351 M286,349 L286,351 M294,349 L294,351 M302,349 L302,351 M319,349 L319,351 M327,349 L327,351 M335,349 L335,351 M343,349 L343,351 M359,349 L359,351 M368,349 L368,351 M376,349 L376,351 M384,349 L384,351 M400,349 L400,351 M409,349 L409,351 M417,349 L417,351 M425,349 L425,351 M441,349 L441,351 M449,349 L449,351 M458,349 L458,351 M466,349 L466,351 " fill="none"/></g>
<g id="yMajorTicks" stroke="rgb(0,0,0)" stroke-width="2"><path d="M60,349 L65,349 M60,213 L65,213 M60,76.2 L65,76.2 M60,349 L65,349 " fill="none"/></g>
<g id="xMajorTicks" stroke="rgb(0,0,0)" stroke-width="2"><path d="M65,349 L65,354 M106,349 L106,354 M147,349 L147,354 M188,349 L188,354 M229,349 L229,354 M270,349 L270,354 M310,349 L310,354 M351,349 L351,354 M392,349 L392,354 M433,349 L433,354 M474,349 L474,354 M65,349 L65,354 " fill="none"/></g>
<g id="xTicksValues">
<text x="65" y="370" text-anchor="middle" font-size="20" font-family="Verdana">0</text>
<text x="106" y="370" text-anchor="middle" font-size="20" font-family="Verdana">2</text>
<text x="147" y="370" text-anchor="middle" font-size="20" font-family="Verdana">4</text>
<text x="188" y="370" text-anchor="middle" font-size="20" font-family="Verdana">6</text>
<text x="229" y="370" text-anchor="middle" font-size="20" font-family="Verdana">8</text>
<text x="270" y="370" text-anchor="middle" font-size="20" font-family="Verdana">10</text>
<text x="310" y="370" text-anchor="middle" font-size="20" font-family="Verdana">12</text>
<text x="351" y="370" text-anchor="middle" font-size="20" font-family="Verdana">14</text>
<text x="392" y="370" text-anchor="middle" font-size="20" font-family="Verdana">16</text>
<text x="433" y="370" text-anchor="middle" font-size="20" font-family="Verdana">18</text>
<text x="474" y="370" text-anchor="middle" font-size="20" font-family="Verdana">20</text>
<text x="65" y="370" text-anchor="middle" font-size="20" font-family="Verdana">0</text></g>
<g id="yTicksValues">
<text x="54" y="351" text-anchor="end" font-size="20" font-family="Verdana">0</text>
<text x="54" y="215" text-anchor="end" font-size="20" font-family="Verdana">2</text>
<text x="54" y="78.6" text-anchor="end" font-size="20" font-family="Verdana">4</text>
<text x="54" y="351" text-anchor="end" font-size="20" font-family="Verdana">0</text></g>
<g id="yLabel">
<text x="37.3" y="179" text-anchor="middle" transform = "rotate(-90 37.3 179 )" font-size="10" font-family="Verdana">y (large tick font size 20)</text></g>
<g id="xLabel">
<text x="270" y="388" text-anchor="middle" font-size="10" font-family="Verdana">x (large tick font size 20)</text></g>
<g id="plotPoints" clip-path="url(#plot_window)"><g stroke="rgb(255,0,0)" fill="rgb(255,255,255)"><circle cx="85.5" cy="281" r="5"/><circle cx="106" cy="253" r="5"/><circle cx="126" cy="231" r="5"/><circle cx="147" cy="213" r="5"/><circle cx="167" cy="197" r="5"/><circle cx="188" cy="182" r="5"/><circle cx="208" cy="169" r="5"/><circle cx="229" cy="156" r="5"/><circle cx="249" cy="144" r="5"/><circle cx="270" cy="133" r="5"/><circle cx="290" cy="123" r="5"/><circle cx="310" cy="113" r="5"/><circle cx="331" cy="103" r="5"/><circle cx="351" cy="93.8" r="5"/><circle cx="372" cy="84.9" r="5"/><circle cx="392" cy="76.2" r="5"/><circle cx="413" cy="67.8" r="5"/><circle cx="433" cy="59.7" r="5"/><circle cx="454" cy="51.7" r="5"/></g>
</g>
<g id="title">
<text x="250" y="36" text-anchor="middle" font-size="18" font-family="Verdana"></text></g>
<g id="plotXValues"></g>
<g id="plotYValues"></g>
</svg>
