<?xml version="1.0" encoding="UTF-8" standalone="no"?>
<svg width="500" height ="400" version="1.1"
xmlns:svg ="http://www.w3.org/2000/svg"
xmlns:rdf="http://www.w3.org/1999/02/22-rdf-syntax-ns#"
xmlns:cc="http://web.resource.org/cc/"
xmlns:dc="http://purl.org/dc/elements/1.1/"
xmlns ="http://www.w3.org/2000/svg"
>
<!-- SVG plot written using Boost.Plot program (Creator Jacob Voytko) --> 
<!-- Use, modification and distribution of Boost.Plot subject to the --> 
<!-- Boost Software License, Version 1.0.--> 
<!-- (See accompanying file LICENSE_1_0.txt --> 
<!-- or copy at http://www.boost.org/LICENSE_1_0.txt) --> 

<clipPath id="plot_window"><rect x="71.1" y="40.5" width="402" height="312"/></clipPath>
<g id="imageBackground" stroke="rgb(255,255,0)" fill="rgb(255,255,255)" stroke-width="2"><rect x="0" y="0" width="500" height="400"/></g>
<g id="plotBackground" stroke="rgb(119,136,153)" fill="rgb(255,255,255)" stroke-width="2"><rect x="70.1" y="39.5" width="404" height="314"/></g>
<g id="yMinorGrid" stroke="rgb(200,220,255)" stroke-width="0.5"></g>
<g id="yMajorGrid" stroke="rgb(200,220,255)" stroke-width="1"></g>
<g id="xMinorGrid" stroke="rgb(200,220,255)" stroke-width="0.5"></g>
<g id="xMajorGrid" stroke="rgb(200,220,255)" stroke-width="1"></g>
<g id="yAxis" stroke="rgb(0,0,0)" stroke-width="1"><line x1="272" y1="39.5" x2="272" y2="359"/><line x1="70.1" y1="39.5" x2="70.1" y2="354"/></g>
<g id="xAxis" stroke="rgb(0,0,0)" stroke-width="1"><line x1="65.1" y1="197" x2="474" y2="197"/><line x1="65.1" y1="354" x2="474" y2="354"/></g>
<g id="yMinorTicks" stroke="rgb(0,0,0)" stroke-width="1"><path d="M68.1,190 L70.1,190 M68.1,184 L70.1,184 M68.1,178 L70.1,178 M68.1,172 L70.1,172 M68.1,159 L70.1,159 M68.1,153 L70.1,153 M68.1,146 L70.1,146 M68.1,140 L70.1,140 M68.1,128 L70.1,128 M68.1,121 L70.1,121 M68.1,115 L70.1,115 M68.1,109 L70.1,109 M68.1,96.1 L70.1,96.1 M68.1,89.8 L70.1,89.8 M68.1,83.5 L70.1,83.5 M68.1,77.2 L70.1,77.2 M68.1,64.7 L70.1,64.7 M68.1,58.4 L70.1,58.4 M68.1,52.1 L70.1,52.1 M68.1,45.8 L70.1,45.8 M68.1,197 L70.1,197 M68.1,203 L70.1,203 M68.1,209 L70.1,209 M68.1,216 L70.1,216 M68.1,222 L70.1,222 M68.1,228 L70.1,228 M68.1,234 L70.1,234 M68.1,241 L70.1,241 M68.1,247 L70.1,247 M68.1,253 L70.1,253 M68.1,260 L70.1,260 M68.1,260 L70.1,260 M68.1,266 L70.1,266 M68.1,272 L70.1,272 M68.1,279 L70.1,279 M68.1,285 L70.1,285 M68.1,291 L70.1,291 M68.1,297 L70.1,297 M68.1,304 L70.1,304 M68.1,310 L70.1,310 M68.1,316 L70.1,316 M68.1,323 L70.1,323 M68.1,329 L70.1,329 M68.1,335 L70.1,335 M68.1,341 L70.1,341 M68.1,348 L70.1,348 M68.1,354 L70.1,354 " fill="none"/></g>
<g id="xMinorTicks" stroke="rgb(0,0,0)" stroke-width="1"><path d="M280,354 L280,356 M288,354 L288,356 M296,354 L296,356 M304,354 L304,356 M321,354 L321,356 M329,354 L329,356 M337,354 L337,356 M345,354 L345,356 M361,354 L361,356 M369,354 L369,356 M377,354 L377,356 M385,354 L385,356 M401,354 L401,356 M409,354 L409,356 M417,354 L417,356 M426,354 L426,356 M442,354 L442,356 M450,354 L450,356 M458,354 L458,356 M466,354 L466,356 M264,354 L264,356 M256,354 L256,356 M248,354 L248,356 M240,354 L240,356 M224,354 L224,356 M216,354 L216,356 M207,354 L207,356 M199,354 L199,356 M183,354 L183,356 M175,354 L175,356 M167,354 L167,356 M159,354 L159,356 M143,354 L143,356 M135,354 L135,356 M127,354 L127,356 M119,354 L119,356 M102,354 L102,356 M94.3,354 L94.3,356 M86.3,354 L86.3,356 M78.2,354 L78.2,356 " fill="none"/></g>
<g id="yMajorTicks" stroke="rgb(0,0,0)" stroke-width="2"><path d="M65.1,197 L70.1,197 M65.1,165 L70.1,165 M65.1,134 L70.1,134 M65.1,102 L70.1,102 M65.1,71 L70.1,71 M65.1,39.5 L70.1,39.5 M65.1,197 L70.1,197 M65.1,228 L70.1,228 M65.1,260 L70.1,260 M65.1,291 L70.1,291 M65.1,323 L70.1,323 M65.1,354 L70.1,354 " fill="none"/></g>
<g id="xMajorTicks" stroke="rgb(0,0,0)" stroke-width="2"><path d="M272,354 L272,359 M312,354 L312,359 M353,354 L353,359 M393,354 L393,359 M434,354 L434,359 M474,354 L474,359 M272,354 L272,359 M232,354 L232,359 M191,354 L191,359 M151,354 L151,359 M110,354 L110,359 M70.1,354 L70.1,359 " fill="none"/></g>
<g id="xTicksValues">
<text x="272" y="375" text-anchor="middle" font-size="12" font-family="Lucida Sans Unicode">0</text>
<text x="312" y="375" text-anchor="middle" font-size="12" font-family="Lucida Sans Unicode">2</text>
<text x="353" y="375" text-anchor="middle" font-size="12" font-family="Lucida Sans Unicode">4</text>
<text x="393" y="375" text-anchor="middle" font-size="12" font-family="Lucida Sans Unicode">6</text>
<text x="434" y="375" text-anchor="middle" font-size="12" font-family="Lucida Sans Unicode">8</text>
<text x="474" y="375" text-anchor="middle" font-size="12" font-family="Lucida Sans Unicode">10</text>
<text x="272" y="375" text-anchor="middle" font-size="12" font-family="Lucida Sans Unicode">0</text>
<text x="232" y="375" text-anchor="middle" font-size="12" font-family="Lucida Sans Unicode">-2</text>
<text x="191" y="375" text-anchor="middle" font-size="12" font-family="Lucida Sans Unicode">-4</text>
<text x="151" y="375" text-anchor="middle" font-size="12" font-family="Lucida Sans Unicode">-6</text>
<text x="110" y="375" text-anchor="middle" font-size="12" font-family="Lucida Sans Unicode">-8</text>
<text x="70.1" y="375" text-anchor="middle" font-size="12" font-family="Lucida Sans Unicode">-10</text></g>
<g id="yTicksValues">
<text x="59.1" y="199" text-anchor="end" font-size="12" font-family="Lucida Sans Unicode">0</text>
<text x="59.1" y="168" text-anchor="end" font-size="12" font-family="Lucida Sans Unicode">2</text>
<text x="59.1" y="136" text-anchor="end" font-size="12" font-family="Lucida Sans Unicode">4</text>
<text x="59.1" y="105" text-anchor="end" font-size="12" font-family="Lucida Sans Unicode">6</text>
<text x="59.1" y="73.4" text-anchor="end" font-size="12" font-family="Lucida Sans Unicode">8</text>
<text x="59.1" y="41.9" text-anchor="end" font-size="12" font-family="Lucida Sans Unicode">10</text>
<text x="59.1" y="199" text-anchor="end" font-size="12" font-family="Lucida Sans Unicode">0</text>
<text x="59.1" y="231" text-anchor="end" font-size="12" font-family="Lucida Sans Unicode">-2</text>
<text x="59.1" y="262" text-anchor="end" font-size="12" font-family="Lucida Sans Unicode">-4</text>
<text x="59.1" y="294" text-anchor="end" font-size="12" font-family="Lucida Sans Unicode">-6</text>
<text x="59.1" y="325" text-anchor="end" font-size="12" font-family="Lucida Sans Unicode">-8</text>
<text x="59.1" y="356" text-anchor="end" font-size="12" font-family="Lucida Sans Unicode">-10</text></g>
<g id="yLabel">
<text x="32.4" y="197" text-anchor="middle" transform = "rotate(-90 32.4 197 )" font-size="14" font-family="Lucida Sans Unicode">Y-axis</text></g>
<g id="xLabel">
<text x="272" y="387" text-anchor="middle" font-size="12" font-family="Lucida Sans Unicode">X-axis</text></g>
<g id="plotLines" stroke-width="2"><g clip-path="url(#plot_window)" stroke="rgb(0,0,255)" stroke-width="2"><path d="M171,370 S187,345 191,338 S207,313 211,307 S228,282 232,275 S248,250 252,244 S268,219 272,212 S288,187 292,181 S308,156 312,150 S329,124 333,118 S349,93 353,86.7 S369,61.5 373,55.2 S389,30.1 393,23.8 S409,-1.38 413,-7.67 S430,-32.8 434,-39.1 S450,-64.3 454,-70.6 S474,-105 474,-102 " fill="none"/></g>
</g>
<g id="plotPoints" clip-path="url(#plot_window)"><g stroke="rgb(0,0,0)" fill="rgb(255,0,0)">
<text x="272" y="200" text-anchor="middle" font-size="10" font-family="Lucida Sans Unicode">&#x25CB;</text>
<text x="292" y="184" text-anchor="middle" font-size="10" font-family="Lucida Sans Unicode">&#x25CB;</text>
<text x="312" y="178" text-anchor="middle" font-size="10" font-family="Lucida Sans Unicode">&#x25CB;</text>
<text x="333" y="173" text-anchor="middle" font-size="10" font-family="Lucida Sans Unicode">&#x25CB;</text>
<text x="353" y="169" text-anchor="middle" font-size="10" font-family="Lucida Sans Unicode">&#x25CB;</text>
<text x="373" y="165" text-anchor="middle" font-size="10" font-family="Lucida Sans Unicode">&#x25CB;</text>
<text x="393" y="161" text-anchor="middle" font-size="10" font-family="Lucida Sans Unicode">&#x25CB;</text>
<text x="413" y="158" text-anchor="middle" font-size="10" font-family="Lucida Sans Unicode">&#x25CB;</text>
<text x="434" y="155" text-anchor="middle" font-size="10" font-family="Lucida Sans Unicode">&#x25CB;</text>
<text x="454" y="153" text-anchor="middle" font-size="10" font-family="Lucida Sans Unicode">&#x25CB;</text>
<text x="474" y="150" text-anchor="middle" font-size="10" font-family="Lucida Sans Unicode">&#x25CB;</text></g>
<g stroke="rgb(0,0,0)" fill="rgb(255,165,0)">
<text x="211" y="88.3" text-anchor="middle" font-size="5" font-family="Lucida Sans Unicode">&#x25CB;</text>
<text x="232" y="167" text-anchor="middle" font-size="5" font-family="Lucida Sans Unicode">&#x25CB;</text>
<text x="252" y="214" text-anchor="middle" font-size="5" font-family="Lucida Sans Unicode">&#x25CB;</text>
<text x="272" y="230" text-anchor="middle" font-size="5" font-family="Lucida Sans Unicode">&#x25CB;</text>
<text x="292" y="214" text-anchor="middle" font-size="5" font-family="Lucida Sans Unicode">&#x25CB;</text>
<text x="312" y="167" text-anchor="middle" font-size="5" font-family="Lucida Sans Unicode">&#x25CB;</text>
<text x="333" y="88.3" text-anchor="middle" font-size="5" font-family="Lucida Sans Unicode">&#x25CB;</text></g>
<g stroke="rgb(0,0,0)" fill="rgb(255,255,0)">
<text x="191" y="342" text-anchor="middle" font-size="10" font-family="Lucida Sans Unicode">&#x25A1;</text>
<text x="211" y="310" text-anchor="middle" font-size="10" font-family="Lucida Sans Unicode">&#x25A1;</text>
<text x="232" y="279" text-anchor="middle" font-size="10" font-family="Lucida Sans Unicode">&#x25A1;</text>
<text x="252" y="247" text-anchor="middle" font-size="10" font-family="Lucida Sans Unicode">&#x25A1;</text>
<text x="272" y="216" text-anchor="middle" font-size="10" font-family="Lucida Sans Unicode">&#x25A1;</text>
<text x="292" y="184" text-anchor="middle" font-size="10" font-family="Lucida Sans Unicode">&#x25A1;</text>
<text x="312" y="153" text-anchor="middle" font-size="10" font-family="Lucida Sans Unicode">&#x25A1;</text>
<text x="333" y="121" text-anchor="middle" font-size="10" font-family="Lucida Sans Unicode">&#x25A1;</text>
<text x="353" y="89.9" text-anchor="middle" font-size="10" font-family="Lucida Sans Unicode">&#x25A1;</text>
<text x="373" y="58.5" text-anchor="middle" font-size="10" font-family="Lucida Sans Unicode">&#x25A1;</text></g>
</g>
<g id="limitPoints" stroke="rgb(119,136,153)" fill="rgb(250,235,215)"><polygon points=" 166,187 176,187 171,197"/><polygon points=" 186,187 196,187 191,197"/><polygon points=" 206,187 216,187 211,197"/><polygon points=" 227,187 237,187 232,197"/><polygon points=" 247,187 257,187 252,197"/></g>
<g id="title">
<text x="250" y="22.5" text-anchor="middle" font-size="18" font-family="Lucida Sans Unicode" font-weight="normal">demo_2d_simple</text></g>
<g id="plotXValues"></g>
<g id="plotYValues"></g>
</svg>
