<?xml version="1.0" encoding="UTF-8" standalone="no"?>
<svg width="500" height ="200" version="1.1"
xmlns:svg ="http://www.w3.org/2000/svg"
xmlns:rdf="http://www.w3.org/1999/02/22-rdf-syntax-ns#"
xmlns:cc="http://web.resource.org/cc/"
xmlns:dc="http://purl.org/dc/elements/1.1/"
xmlns ="http://www.w3.org/2000/svg"
>
<!-- SVG plot written using Boost.Plot program (Creator Jacob Voytko) --> 
<!-- Use, modification and distribution of Boost.Plot subject to the --> 
<!-- Boost Software License, Version 1.0.--> 
<!-- (See accompanying file LICENSE_1_0.txt --> 
<!-- or copy at http://www.boost.org/LICENSE_1_0.txt) --> 

<!-- File ./demo_1d_deque_double.svg --> 
<g id="imageBackground" stroke="rgb(255,255,0)" fill="rgb(255,255,255)" stroke-width="1"><rect x="0" y="0" width="500" height="200"/></g>
<g id="plotBackground" stroke="rgb(250,250,210)" fill="rgb(255,255,255)" stroke-width="1"><rect x="21" y="56" width="458" height="100"/></g>
<g id="xMinorGrid" stroke="rgb(200,220,255)" stroke-width="0.5"></g>
<g id="xMajorGrid" stroke="rgb(200,220,255)" stroke-width="1"></g>
<g id="xAxis" stroke="rgb(0,0,0)" stroke-width="1"><line x1="250" y1="56" x2="250" y2="156"/><line x1="21" y1="108" x2="479" y2="108"/></g>
<g id="xMinorTicks" stroke="rgb(0,0,0)" stroke-width="1"><path d="M259,108 L259,110 M268,108 L268,110 M277,108 L277,110 M287,108 L287,110 M305,108 L305,110 M314,108 L314,110 M323,108 L323,110 M332,108 L332,110 M351,108 L351,110 M360,108 L360,110 M369,108 L369,110 M378,108 L378,110 M397,108 L397,110 M406,108 L406,110 M415,108 L415,110 M424,108 L424,110 M442,108 L442,110 M452,108 L452,110 M461,108 L461,110 M470,108 L470,110 M241,108 L241,110 M232,108 L232,110 M223,108 L223,110 M213,108 L213,110 M195,108 L195,110 M186,108 L186,110 M177,108 L177,110 M168,108 L168,110 M149,108 L149,110 M140,108 L140,110 M131,108 L131,110 M122,108 L122,110 M103,108 L103,110 M94.3,108 L94.3,110 M85.1,108 L85.1,110 M76,108 L76,110 M57.6,108 L57.6,110 M48.5,108 L48.5,110 M39.3,108 L39.3,110 M30.2,108 L30.2,110 " fill="none"/></g>
<g id="xMajorTicks" stroke="rgb(0,0,0)" stroke-width="2"><path d="M250,108 L250,114 M296,108 L296,114 M342,108 L342,114 M387,108 L387,114 M433,108 L433,114 M479,108 L479,114 M250,108 L250,114 M204,108 L204,114 M158,108 L158,114 M113,108 L113,114 M66.8,108 L66.8,114 M21,108 L21,114 " fill="none"/></g>
<g id="xTicksValues">
<text x="296" y="129" text-anchor="middle" font-size="12" font-family="Verdana">2</text>
<text x="342" y="129" text-anchor="middle" font-size="12" font-family="Verdana">4</text>
<text x="387" y="129" text-anchor="middle" font-size="12" font-family="Verdana">6</text>
<text x="433" y="129" text-anchor="middle" font-size="12" font-family="Verdana">8</text>
<text x="479" y="129" text-anchor="middle" font-size="12" font-family="Verdana">10</text>
<text x="204" y="129" text-anchor="middle" font-size="12" font-family="Verdana">-2</text>
<text x="158" y="129" text-anchor="middle" font-size="12" font-family="Verdana">-4</text>
<text x="113" y="129" text-anchor="middle" font-size="12" font-family="Verdana">-6</text>
<text x="66.8" y="129" text-anchor="middle" font-size="12" font-family="Verdana">-8</text>
<text x="21" y="129" text-anchor="middle" font-size="12" font-family="Verdana">-10</text></g>
<g id="xLabel">
<text x="250" y="180" text-anchor="middle" font-size="14" font-family="Verdana">X values as doubles</text></g>
<g id="plotPoints"><g stroke="rgb(0,0,0)"><line x1="429" y1="108" x2="429" y2="98"/><line x1="378" y1="108" x2="378" y2="98"/><line x1="252" y1="108" x2="252" y2="98"/><line x1="197" y1="108" x2="197" y2="98"/><line x1="57.6" y1="108" x2="57.6" y2="98"/></g>
</g>
<g id="title">
<text x="250" y="36" text-anchor="middle" font-size="18" font-family="Verdana">deque&lt;double&gt; example</text></g>
</svg>
