<?xml version="1.0" encoding="UTF-8" standalone="no"?>
<svg width="500" height ="350" version="1.1"
xmlns:svg ="http://www.w3.org/2000/svg"
xmlns:rdf="http://www.w3.org/1999/02/22-rdf-syntax-ns#"
xmlns:cc="http://web.resource.org/cc/"
xmlns:dc="http://purl.org/dc/elements/1.1/"
xmlns ="http://www.w3.org/2000/svg"
>
<!-- SVG plot written using Boost.Plot program (Creator Jacob Voytko) --> 
<!-- Use, modification and distribution of Boost.Plot subject to the --> 
<!-- Boost Software License, Version 1.0.--> 
<!-- (See accompanying file LICENSE_1_0.txt --> 
<!-- or copy at http://www.boost.org/LICENSE_1_0.txt) --> 

<!-- File demo_1d_values.svg --> 

<g id="imageBackground" stroke="rgb(255,255,0)" fill="rgb(255,255,255)" stroke-width="1">
	<rect x="0" y="0" width="500" height="350"/>
</g>

<g id="plotBackground" stroke="rgb(250,250,210)" fill="rgb(255,255,255)" stroke-width="1">
	<rect x="21" y="42.5" width="458" height="279"/>
</g>

<g id="xMinorGrid" stroke="rgb(200,220,255)" stroke-width="0.5">
</g>

<g id="xMajorGrid" stroke="rgb(200,220,255)" stroke-width="1">
</g>

<g id="xAxis" stroke="rgb(0,0,0)" stroke-width="1">
	<line x1="174" y1="42.5" x2="174" y2="322"/>
	<line x1="21" y1="185" x2="479" y2="185"/>
</g>

<g id="xMinorTicks" stroke="rgb(0,0,0)" stroke-width="1">
	<path d="M186,185 L186,187 
M198,185 L198,187 
M210,185 L210,187 
M223,185 L223,187 
M247,185 L247,187 
M259,185 L259,187 
M271,185 L271,187 
M284,185 L284,187 
M308,185 L308,187 
M320,185 L320,187 
M332,185 L332,187 
M345,185 L345,187 
M369,185 L369,187 
M381,185 L381,187 
M394,185 L394,187 
M406,185 L406,187 
M430,185 L430,187 
M442,185 L442,187 
M455,185 L455,187 
M467,185 L467,187 
M161,185 L161,187 
M149,185 L149,187 
M137,185 L137,187 
M125,185 L125,187 
M100,185 L100,187 
M88.2,185 L88.2,187 
M76,185 L76,187 
M63.7,185 L63.7,187 
M39.3,185 L39.3,187 
M27.1,185 L27.1,187 
" fill="none"/>
</g>

<g id="xMajorTicks" stroke="rgb(0,0,0)" stroke-width="2">
	<path d="M174,185 L174,190 
M235,185 L235,190 
M296,185 L296,190 
M357,185 L357,190 
M418,185 L418,190 
M479,185 L479,190 
M174,185 L174,190 
M113,185 L113,190 
M51.5,185 L51.5,190 
" fill="none"/>
</g>

<g id="xTicksValues">
	<text x="235" y="203" text-anchor="middle" font-size="10" font-family="Verdana">2	</text>
	<text x="296" y="203" text-anchor="middle" font-size="10" font-family="Verdana">4	</text>
	<text x="357" y="203" text-anchor="middle" font-size="10" font-family="Verdana">6	</text>
	<text x="418" y="203" text-anchor="middle" font-size="10" font-family="Verdana">8	</text>
	<text x="479" y="203" text-anchor="middle" font-size="10" font-family="Verdana">10	</text>
	<text x="113" y="203" text-anchor="middle" font-size="10" font-family="Verdana">-2	</text>
	<text x="51.5" y="203" text-anchor="middle" font-size="10" font-family="Verdana">-4	</text>
</g>

<g id="xLabel">
	<text x="250" y="339" text-anchor="middle" font-size="10" font-family="Verdana">length (m)	</text>
</g>

<g id="plotPoints">

<g stroke="rgb(0,0,0)">
	<text x="125" y="181" text-anchor="middle" font-size="5" font-family="Lucida Sans Unicode">&#x25CF;	</text>
	<text x="235" y="181" text-anchor="middle" font-size="5" font-family="Lucida Sans Unicode">&#x25CF;	</text>
	<text x="304" y="181" text-anchor="middle" font-size="5" font-family="Lucida Sans Unicode">&#x25CF;	</text>
	<text x="174" y="181" text-anchor="middle" font-size="5" font-family="Lucida Sans Unicode">&#x25CF;	</text>
	<text x="339" y="181" text-anchor="middle" font-size="5" font-family="Lucida Sans Unicode">&#x25CF;	</text>
	<text x="374" y="181" text-anchor="middle" font-size="5" font-family="Lucida Sans Unicode">&#x25CF;	</text>
</g>
</g>

<g id="title">
	<text x="250" y="27" text-anchor="middle" font-size="18" font-family="Verdana">Default 1D Values Demo	</text>
</g>

<g id="plotXValues" fill="rgb(255,0,0)">

<g>
	<text x="129" y="176" transform="rotate(-60 129 176)" font-size="14" font-family="Times New Roman">[ x = -1.60	<tspan font-size="14" font-family="Times New Roman">&#x00A0;sec]</tspan>
	</text>
</g>

<g>
	<text x="239" y="176" transform="rotate(-60 239 176)" font-size="14" font-family="Times New Roman">[ x = +2.00	<tspan font-size="14" font-family="Times New Roman">&#x00A0;sec]</tspan>
	</text>
</g>

<g>
	<text x="308" y="176" transform="rotate(-60 308 176)" font-size="14" font-family="Times New Roman">[ x = +4.26	<tspan font-size="14" font-family="Times New Roman">&#x00A0;sec]</tspan>
	</text>
</g>

<g>
	<text x="178" y="176" transform="rotate(-60 178 176)" font-size="14" font-family="Times New Roman">[ x = +3.34e-3	<tspan font-size="14" font-family="Times New Roman">&#x00A0;sec]</tspan>
	</text>
</g>

<g>
	<text x="343" y="176" transform="rotate(-60 343 176)" font-size="14" font-family="Times New Roman">[ x = +5.40	<tspan font-size="14" font-family="Times New Roman">&#x00A0;sec]</tspan>
	</text>
</g>

<g>
	<text x="378" y="176" transform="rotate(-60 378 176)" font-size="14" font-family="Times New Roman">[ x = +6.56	<tspan font-size="14" font-family="Times New Roman">&#x00A0;sec]</tspan>
	</text>
</g>
</g>
</svg>
