<?xml version="1.0" encoding="UTF-8" standalone="no"?>
<svg width="500" height ="200" version="1.1"
xmlns:svg ="http://www.w3.org/2000/svg"
xmlns:rdf="http://www.w3.org/1999/02/22-rdf-syntax-ns#"
xmlns:cc="http://web.resource.org/cc/"
xmlns:dc="http://purl.org/dc/elements/1.1/"
xmlns ="http://www.w3.org/2000/svg"
>
<!-- SVG plot written using Boost.Plot program (Creator Jacob Voytko) --> 
<!-- Use, modification and distribution of Boost.Plot subject to the --> 
<!-- Boost Software License, Version 1.0.--> 
<!-- (See accompanying file LICENSE_1_0.txt --> 
<!-- or copy at http://www.boost.org/LICENSE_1_0.txt) --> 

<!-- File demo_1d_limits.svg --> 
	<g id="imageBackground" stroke="rgb(255,255,0)" fill="rgb(255,255,255)" stroke-width="1">
	<rect x="0" y="0" width="500" height="200"/>
</g>
	<g id="plotBackground" stroke="rgb(250,250,210)" fill="rgb(255,255,255)" stroke-width="1">
	<rect x="21" y="42.5" width="458" height="129"/>
</g>
	<g id="xMinorGrid" stroke="rgb(200,220,255)" stroke-width="0.5">
</g>
	<g id="xMajorGrid" stroke="rgb(200,220,255)" stroke-width="1">
</g>
	<g id="xAxis" stroke="rgb(0,0,0)" stroke-width="1">
	<line x1="250" y1="42.5" x2="250" y2="172"/>
	<line x1="21" y1="110" x2="479" y2="110"/>
</g>
	<g id="xMinorTicks" stroke="rgb(0,0,0)" stroke-width="1">
	<path d="M268,110 L268,112 
M287,110 L287,112 
M305,110 L305,112 
M323,110 L323,112 
M360,110 L360,112 
M378,110 L378,112 
M397,110 L397,112 
M415,110 L415,112 
M452,110 L452,112 
M470,110 L470,112 
M232,110 L232,112 
M213,110 L213,112 
M195,110 L195,112 
M177,110 L177,112 
M140,110 L140,112 
M122,110 L122,112 
M103,110 L103,112 
M85.1,110 L85.1,112 
M48.5,110 L48.5,112 
M30.2,110 L30.2,112 
" fill="none"/>
</g>
	<g id="xMajorTicks" stroke="rgb(0,0,0)" stroke-width="2">
	<path d="M250,110 L250,115 
M342,110 L342,115 
M433,110 L433,115 
M250,110 L250,115 
M158,110 L158,115 
M66.8,110 L66.8,115 
" fill="none"/>
</g>
	<g id="xTicksValues" font-size="10" font-family="Verdana" text-anchor="middle">
	<text x="342" y="128">2
	</text>
	<text x="433" y="128">4
	</text>
	<text x="158" y="128">-2
	</text>
	<text x="66.8" y="128">-4
	</text>
</g>
	<g id="xLabel">
	<text x="250" y="189" text-anchor="middle" font-size="10" font-family="Verdana">length (m)
	</text>
</g>
	<g id="plotPoints">
	<g stroke="rgb(0,0,0)" font-size="5" font-family="Lucida Sans Unicode" text-anchor="middle">
	<text x="177" y="106">&#x25CF;
	</text>
	<text x="342" y="106">&#x25CF;
	</text>
	<text x="445" y="106">&#x25CF;
	</text>
	<text x="66.8" y="106">&#x25CF;
	</text>
</g>
</g>
	<g id="limitPoints" stroke="rgb(0,128,0)" fill="rgb(255,255,255)">
	<text x="484" y="113" text-anchor="middle" font-size="10" font-family="Lucida Sans Unicode">&#x25B9;
	</text>
	<text x="16" y="113" text-anchor="middle" font-size="10" font-family="Lucida Sans Unicode">&#x25C3;
	</text>
	<text x="250" y="116" text-anchor="middle" font-size="20" font-family="Lucida Sans Unicode">&#x25BF;
	</text>
</g>
	<g id="title">
	<text x="250" y="27" text-anchor="middle" font-size="18" font-family="Verdana">Default 1D NaN and infinities Demo
	</text>
</g>
	<g id="plotXValues">
	<g>
	<text x="177" y="100" text-anchor="middle" font-size="10" font-family="Verdana">-1.6
	</text>
</g>
	<g>
	<text x="342" y="100" text-anchor="middle" font-size="10" font-family="Verdana">2
	</text>
</g>
	<g>
	<text x="445" y="100" text-anchor="middle" font-size="10" font-family="Verdana">4.26
	</text>
</g>
	<g>
	<text x="66.8" y="100" text-anchor="middle" font-size="10" font-family="Verdana">-4
	</text>
</g>
</g>
</svg>
