<?xml version="1.0" encoding="UTF-8" standalone="no"?>
<svg width="500" height ="200" version="1.1"
xmlns:svg ="http://www.w3.org/2000/svg"
xmlns:rdf="http://www.w3.org/1999/02/22-rdf-syntax-ns#"
xmlns:cc="http://web.resource.org/cc/"
xmlns:dc="http://purl.org/dc/elements/1.1/"
xmlns ="http://www.w3.org/2000/svg"
>
<!-- SVG plot written using Boost.Plot program (Creator Jacob Voytko) --> 
<!-- Use, modification and distribution of Boost.Plot subject to the --> 
<!-- Boost Software License, Version 1.0.--> 
<!-- (See accompanying file LICENSE_1_0.txt --> 
<!-- or copy at http://www.boost.org/LICENSE_1_0.txt) --> 

<!-- File ./demo_functions_1d_plot.svg --> 
	<g id="imageBackground" stroke="rgb(0,255,255)" fill="rgb(255,255,255)" stroke-width="1">
	<rect x="0" y="0" width="500" height="200"/>
</g>
	<g id="plotBackground" stroke="rgb(250,250,210)" fill="rgb(255,255,255)" stroke-width="1">
	<rect x="21" y="42.5" width="458" height="142"/>
</g>
	<g id="xMinorGrid" stroke="rgb(200,220,255)" stroke-width="0.5">
</g>
	<g id="xMajorGrid" stroke="rgb(200,220,255)" stroke-width="1">
</g>
	<g id="xAxis" stroke="rgb(0,0,0)" stroke-width="1">
	<line x1="21" y1="42.5" x2="21" y2="184"/>
	<line x1="21" y1="116" x2="479" y2="116"/>
</g>
	<g id="xMinorTicks" stroke="rgb(0,0,0)" stroke-width="1">
	<path d="M22.8,116 L22.8,118 
M24.7,116 L24.7,118 
M26.5,116 L26.5,118 
M28.3,116 L28.3,118 
M32,116 L32,118 
M33.8,116 L33.8,118 
M35.7,116 L35.7,118 
M37.5,116 L37.5,118 
M41.2,116 L41.2,118 
M43,116 L43,118 
M44.8,116 L44.8,118 
M46.6,116 L46.6,118 
M50.3,116 L50.3,118 
M52.1,116 L52.1,118 
M54,116 L54,118 
M55.8,116 L55.8,118 
M59.5,116 L59.5,118 
M61.3,116 L61.3,118 
M63.1,116 L63.1,118 
M65,116 L65,118 
M68.6,116 L68.6,118 
M70.5,116 L70.5,118 
M72.3,116 L72.3,118 
M74.1,116 L74.1,118 
M77.8,116 L77.8,118 
M79.6,116 L79.6,118 
M81.5,116 L81.5,118 
M83.3,116 L83.3,118 
M87,116 L87,118 
M88.8,116 L88.8,118 
M90.6,116 L90.6,118 
M92.4,116 L92.4,118 
M96.1,116 L96.1,118 
M97.9,116 L97.9,118 
M99.8,116 L99.8,118 
M102,116 L102,118 
M105,116 L105,118 
M107,116 L107,118 
M109,116 L109,118 
M111,116 L111,118 
M114,116 L114,118 
M116,116 L116,118 
M118,116 L118,118 
M120,116 L120,118 
M124,116 L124,118 
M125,116 L125,118 
M127,116 L127,118 
M129,116 L129,118 
M133,116 L133,118 
M135,116 L135,118 
M136,116 L136,118 
M138,116 L138,118 
M142,116 L142,118 
M144,116 L144,118 
M146,116 L146,118 
M147,116 L147,118 
M151,116 L151,118 
M153,116 L153,118 
M155,116 L155,118 
M157,116 L157,118 
M160,116 L160,118 
M162,116 L162,118 
M164,116 L164,118 
M166,116 L166,118 
M169,116 L169,118 
M171,116 L171,118 
M173,116 L173,118 
M175,116 L175,118 
M179,116 L179,118 
M180,116 L180,118 
M182,116 L182,118 
M184,116 L184,118 
M188,116 L188,118 
M190,116 L190,118 
M191,116 L191,118 
M193,116 L193,118 
M197,116 L197,118 
M199,116 L199,118 
M201,116 L201,118 
M202,116 L202,118 
M206,116 L206,118 
M208,116 L208,118 
M210,116 L210,118 
M212,116 L212,118 
M215,116 L215,118 
M217,116 L217,118 
M219,116 L219,118 
M221,116 L221,118 
M224,116 L224,118 
M226,116 L226,118 
M228,116 L228,118 
M230,116 L230,118 
M234,116 L234,118 
M235,116 L235,118 
M237,116 L237,118 
M239,116 L239,118 
M243,116 L243,118 
M245,116 L245,118 
M246,116 L246,118 
M248,116 L248,118 
M252,116 L252,118 
M254,116 L254,118 
M255,116 L255,118 
M257,116 L257,118 
M261,116 L261,118 
M263,116 L263,118 
M265,116 L265,118 
M266,116 L266,118 
M270,116 L270,118 
M272,116 L272,118 
M274,116 L274,118 
M276,116 L276,118 
M279,116 L279,118 
M281,116 L281,118 
M283,116 L283,118 
M285,116 L285,118 
M288,116 L288,118 
M290,116 L290,118 
M292,116 L292,118 
M294,116 L294,118 
M298,116 L298,118 
M299,116 L299,118 
M301,116 L301,118 
M303,116 L303,118 
M307,116 L307,118 
M309,116 L309,118 
M310,116 L310,118 
M312,116 L312,118 
M316,116 L316,118 
M318,116 L318,118 
M320,116 L320,118 
M321,116 L321,118 
M325,116 L325,118 
M327,116 L327,118 
M329,116 L329,118 
M331,116 L331,118 
M334,116 L334,118 
M336,116 L336,118 
M338,116 L338,118 
M340,116 L340,118 
M343,116 L343,118 
M345,116 L345,118 
M347,116 L347,118 
M349,116 L349,118 
M353,116 L353,118 
M354,116 L354,118 
M356,116 L356,118 
M358,116 L358,118 
M362,116 L362,118 
M364,116 L364,118 
M365,116 L365,118 
M367,116 L367,118 
M371,116 L371,118 
M373,116 L373,118 
M375,116 L375,118 
M376,116 L376,118 
M380,116 L380,118 
M382,116 L382,118 
M384,116 L384,118 
M386,116 L386,118 
M389,116 L389,118 
M391,116 L391,118 
M393,116 L393,118 
M395,116 L395,118 
M398,116 L398,118 
M400,116 L400,118 
M402,116 L402,118 
M404,116 L404,118 
M408,116 L408,118 
M409,116 L409,118 
M411,116 L411,118 
M413,116 L413,118 
M417,116 L417,118 
M419,116 L419,118 
M420,116 L420,118 
M422,116 L422,118 
M426,116 L426,118 
M428,116 L428,118 
M430,116 L430,118 
M431,116 L431,118 
M435,116 L435,118 
M437,116 L437,118 
M439,116 L439,118 
M441,116 L441,118 
M444,116 L444,118 
M446,116 L446,118 
M448,116 L448,118 
M450,116 L450,118 
M453,116 L453,118 
M455,116 L455,118 
M457,116 L457,118 
M459,116 L459,118 
M463,116 L463,118 
M464,116 L464,118 
M466,116 L466,118 
M468,116 L468,118 
M472,116 L472,118 
M474,116 L474,118 
M475,116 L475,118 
M477,116 L477,118 
" fill="none"/>
</g>
	<g id="xMajorTicks" stroke="rgb(0,0,0)" stroke-width="2">
	<path d="M21,116 L21,121 
M30.2,116 L30.2,121 
M39.3,116 L39.3,121 
M48.5,116 L48.5,121 
M57.6,116 L57.6,121 
M66.8,116 L66.8,121 
M76,116 L76,121 
M85.1,116 L85.1,121 
M94.3,116 L94.3,121 
M103,116 L103,121 
M113,116 L113,121 
M122,116 L122,121 
M131,116 L131,121 
M140,116 L140,121 
M149,116 L149,121 
M158,116 L158,121 
M168,116 L168,121 
M177,116 L177,121 
M186,116 L186,121 
M195,116 L195,121 
M204,116 L204,121 
M213,116 L213,121 
M223,116 L223,121 
M232,116 L232,121 
M241,116 L241,121 
M250,116 L250,121 
M259,116 L259,121 
M268,116 L268,121 
M277,116 L277,121 
M287,116 L287,121 
M296,116 L296,121 
M305,116 L305,121 
M314,116 L314,121 
M323,116 L323,121 
M332,116 L332,121 
M342,116 L342,121 
M351,116 L351,121 
M360,116 L360,121 
M369,116 L369,121 
M378,116 L378,121 
M387,116 L387,121 
M397,116 L397,121 
M406,116 L406,121 
M415,116 L415,121 
M424,116 L424,121 
M433,116 L433,121 
M442,116 L442,121 
M452,116 L452,121 
M461,116 L461,121 
M470,116 L470,121 
M479,116 L479,121 
M21,116 L21,121 
" fill="none"/>
</g>
	<g id="xTicksValues">
	<text x="30.2" y="134" text-anchor="middle" font-size="10" font-family="Verdana">2
	</text>
	<text x="39.3" y="134" text-anchor="middle" font-size="10" font-family="Verdana">4
	</text>
	<text x="48.5" y="134" text-anchor="middle" font-size="10" font-family="Verdana">6
	</text>
	<text x="57.6" y="134" text-anchor="middle" font-size="10" font-family="Verdana">8
	</text>
	<text x="66.8" y="134" text-anchor="middle" font-size="10" font-family="Verdana">10
	</text>
	<text x="76" y="134" text-anchor="middle" font-size="10" font-family="Verdana">12
	</text>
	<text x="85.1" y="134" text-anchor="middle" font-size="10" font-family="Verdana">14
	</text>
	<text x="94.3" y="134" text-anchor="middle" font-size="10" font-family="Verdana">16
	</text>
	<text x="103" y="134" text-anchor="middle" font-size="10" font-family="Verdana">18
	</text>
	<text x="113" y="134" text-anchor="middle" font-size="10" font-family="Verdana">20
	</text>
	<text x="122" y="134" text-anchor="middle" font-size="10" font-family="Verdana">22
	</text>
	<text x="131" y="134" text-anchor="middle" font-size="10" font-family="Verdana">24
	</text>
	<text x="140" y="134" text-anchor="middle" font-size="10" font-family="Verdana">26
	</text>
	<text x="149" y="134" text-anchor="middle" font-size="10" font-family="Verdana">28
	</text>
	<text x="158" y="134" text-anchor="middle" font-size="10" font-family="Verdana">30
	</text>
	<text x="168" y="134" text-anchor="middle" font-size="10" font-family="Verdana">32
	</text>
	<text x="177" y="134" text-anchor="middle" font-size="10" font-family="Verdana">34
	</text>
	<text x="186" y="134" text-anchor="middle" font-size="10" font-family="Verdana">36
	</text>
	<text x="195" y="134" text-anchor="middle" font-size="10" font-family="Verdana">38
	</text>
	<text x="204" y="134" text-anchor="middle" font-size="10" font-family="Verdana">40
	</text>
	<text x="213" y="134" text-anchor="middle" font-size="10" font-family="Verdana">42
	</text>
	<text x="223" y="134" text-anchor="middle" font-size="10" font-family="Verdana">44
	</text>
	<text x="232" y="134" text-anchor="middle" font-size="10" font-family="Verdana">46
	</text>
	<text x="241" y="134" text-anchor="middle" font-size="10" font-family="Verdana">48
	</text>
	<text x="250" y="134" text-anchor="middle" font-size="10" font-family="Verdana">50
	</text>
	<text x="259" y="134" text-anchor="middle" font-size="10" font-family="Verdana">52
	</text>
	<text x="268" y="134" text-anchor="middle" font-size="10" font-family="Verdana">54
	</text>
	<text x="277" y="134" text-anchor="middle" font-size="10" font-family="Verdana">56
	</text>
	<text x="287" y="134" text-anchor="middle" font-size="10" font-family="Verdana">58
	</text>
	<text x="296" y="134" text-anchor="middle" font-size="10" font-family="Verdana">60
	</text>
	<text x="305" y="134" text-anchor="middle" font-size="10" font-family="Verdana">62
	</text>
	<text x="314" y="134" text-anchor="middle" font-size="10" font-family="Verdana">64
	</text>
	<text x="323" y="134" text-anchor="middle" font-size="10" font-family="Verdana">66
	</text>
	<text x="332" y="134" text-anchor="middle" font-size="10" font-family="Verdana">68
	</text>
	<text x="342" y="134" text-anchor="middle" font-size="10" font-family="Verdana">70
	</text>
	<text x="351" y="134" text-anchor="middle" font-size="10" font-family="Verdana">72
	</text>
	<text x="360" y="134" text-anchor="middle" font-size="10" font-family="Verdana">74
	</text>
	<text x="369" y="134" text-anchor="middle" font-size="10" font-family="Verdana">76
	</text>
	<text x="378" y="134" text-anchor="middle" font-size="10" font-family="Verdana">78
	</text>
	<text x="387" y="134" text-anchor="middle" font-size="10" font-family="Verdana">80
	</text>
	<text x="397" y="134" text-anchor="middle" font-size="10" font-family="Verdana">82
	</text>
	<text x="406" y="134" text-anchor="middle" font-size="10" font-family="Verdana">84
	</text>
	<text x="415" y="134" text-anchor="middle" font-size="10" font-family="Verdana">86
	</text>
	<text x="424" y="134" text-anchor="middle" font-size="10" font-family="Verdana">88
	</text>
	<text x="433" y="134" text-anchor="middle" font-size="10" font-family="Verdana">90
	</text>
	<text x="442" y="134" text-anchor="middle" font-size="10" font-family="Verdana">92
	</text>
	<text x="452" y="134" text-anchor="middle" font-size="10" font-family="Verdana">94
	</text>
	<text x="461" y="134" text-anchor="middle" font-size="10" font-family="Verdana">96
	</text>
	<text x="470" y="134" text-anchor="middle" font-size="10" font-family="Verdana">98
	</text>
	<text x="479" y="134" text-anchor="middle" font-size="10" font-family="Verdana">100
	</text>
</g>
	<g id="xLabel">
	<text x="250" y="201" text-anchor="middle" font-size="10" font-family="Verdana">
	</text>
</g>
	<g id="plotPoints">
	<g stroke="rgb(0,0,255)">
	<line x1="479" y1="115" x2="479" y2="105"/>
	<line x1="403" y1="115" x2="403" y2="105"/>
	<line x1="348" y1="115" x2="348" y2="105"/>
	<line x1="307" y1="115" x2="307" y2="105"/>
	<line x1="275" y1="115" x2="275" y2="105"/>
	<line x1="250" y1="115" x2="250" y2="105"/>
	<line x1="229" y1="115" x2="229" y2="105"/>
	<line x1="212" y1="115" x2="212" y2="105"/>
	<line x1="197" y1="115" x2="197" y2="105"/>
	<line x1="185" y1="115" x2="185" y2="105"/>
	<line x1="174" y1="115" x2="174" y2="105"/>
	<line x1="164" y1="115" x2="164" y2="105"/>
	<line x1="156" y1="115" x2="156" y2="105"/>
	<line x1="148" y1="115" x2="148" y2="105"/>
	<line x1="142" y1="115" x2="142" y2="105"/>
	<line x1="135" y1="115" x2="135" y2="105"/>
	<line x1="130" y1="115" x2="130" y2="105"/>
	<line x1="125" y1="115" x2="125" y2="105"/>
	<line x1="121" y1="115" x2="121" y2="105"/>
	<line x1="116" y1="115" x2="116" y2="105"/>
	<line x1="113" y1="115" x2="113" y2="105"/>
	<line x1="109" y1="115" x2="109" y2="105"/>
	<line x1="106" y1="115" x2="106" y2="105"/>
	<line x1="103" y1="115" x2="103" y2="105"/>
	<line x1="100" y1="115" x2="100" y2="105"/>
	<line x1="97.3" y1="115" x2="97.3" y2="105"/>
	<line x1="94.9" y1="115" x2="94.9" y2="105"/>
	<line x1="92.6" y1="115" x2="92.6" y2="105"/>
	<line x1="90.4" y1="115" x2="90.4" y2="105"/>
	<line x1="88.4" y1="115" x2="88.4" y2="105"/>
	<line x1="86.4" y1="115" x2="86.4" y2="105"/>
	<line x1="84.6" y1="115" x2="84.6" y2="105"/>
	<line x1="82.9" y1="115" x2="82.9" y2="105"/>
	<line x1="81.3" y1="115" x2="81.3" y2="105"/>
	<line x1="79.7" y1="115" x2="79.7" y2="105"/>
	<line x1="78.2" y1="115" x2="78.2" y2="105"/>
	<line x1="76.9" y1="115" x2="76.9" y2="105"/>
	<line x1="75.5" y1="115" x2="75.5" y2="105"/>
	<line x1="74.3" y1="115" x2="74.3" y2="105"/>
	<line x1="73" y1="115" x2="73" y2="105"/>
	<line x1="71.9" y1="115" x2="71.9" y2="105"/>
	<line x1="70.8" y1="115" x2="70.8" y2="105"/>
	<line x1="69.7" y1="115" x2="69.7" y2="105"/>
	<line x1="68.7" y1="115" x2="68.7" y2="105"/>
	<line x1="67.7" y1="115" x2="67.7" y2="105"/>
	<line x1="66.8" y1="115" x2="66.8" y2="105"/>
	<line x1="65.9" y1="115" x2="65.9" y2="105"/>
	<line x1="65" y1="115" x2="65" y2="105"/>
	<line x1="64.2" y1="115" x2="64.2" y2="105"/>
	<line x1="63.4" y1="115" x2="63.4" y2="105"/>
	<line x1="62.6" y1="115" x2="62.6" y2="105"/>
	<line x1="61.9" y1="115" x2="61.9" y2="105"/>
	<line x1="61.2" y1="115" x2="61.2" y2="105"/>
	<line x1="60.5" y1="115" x2="60.5" y2="105"/>
	<line x1="59.8" y1="115" x2="59.8" y2="105"/>
	<line x1="59.2" y1="115" x2="59.2" y2="105"/>
	<line x1="58.5" y1="115" x2="58.5" y2="105"/>
	<line x1="57.9" y1="115" x2="57.9" y2="105"/>
	<line x1="57.3" y1="115" x2="57.3" y2="105"/>
	<line x1="56.8" y1="115" x2="56.8" y2="105"/>
	<line x1="56.2" y1="115" x2="56.2" y2="105"/>
	<line x1="55.7" y1="115" x2="55.7" y2="105"/>
	<line x1="55.2" y1="115" x2="55.2" y2="105"/>
	<line x1="54.7" y1="115" x2="54.7" y2="105"/>
	<line x1="54.2" y1="115" x2="54.2" y2="105"/>
	<line x1="53.7" y1="115" x2="53.7" y2="105"/>
	<line x1="53.3" y1="115" x2="53.3" y2="105"/>
	<line x1="52.8" y1="115" x2="52.8" y2="105"/>
	<line x1="52.4" y1="115" x2="52.4" y2="105"/>
	<line x1="51.9" y1="115" x2="51.9" y2="105"/>
	<line x1="51.5" y1="115" x2="51.5" y2="105"/>
	<line x1="51.1" y1="115" x2="51.1" y2="105"/>
	<line x1="50.7" y1="115" x2="50.7" y2="105"/>
	<line x1="50.4" y1="115" x2="50.4" y2="105"/>
	<line x1="50" y1="115" x2="50" y2="105"/>
	<line x1="49.6" y1="115" x2="49.6" y2="105"/>
	<line x1="49.3" y1="115" x2="49.3" y2="105"/>
	<line x1="48.9" y1="115" x2="48.9" y2="105"/>
	<line x1="48.6" y1="115" x2="48.6" y2="105"/>
	<line x1="48.3" y1="115" x2="48.3" y2="105"/>
	<line x1="47.9" y1="115" x2="47.9" y2="105"/>
	<line x1="47.6" y1="115" x2="47.6" y2="105"/>
	<line x1="47.3" y1="115" x2="47.3" y2="105"/>
	<line x1="47" y1="115" x2="47" y2="105"/>
	<line x1="46.7" y1="115" x2="46.7" y2="105"/>
	<line x1="46.4" y1="115" x2="46.4" y2="105"/>
	<line x1="46.2" y1="115" x2="46.2" y2="105"/>
	<line x1="45.9" y1="115" x2="45.9" y2="105"/>
	<line x1="45.6" y1="115" x2="45.6" y2="105"/>
	<line x1="45.4" y1="115" x2="45.4" y2="105"/>
	<line x1="45.1" y1="115" x2="45.1" y2="105"/>
	<line x1="44.9" y1="115" x2="44.9" y2="105"/>
	<line x1="44.6" y1="115" x2="44.6" y2="105"/>
	<line x1="44.4" y1="115" x2="44.4" y2="105"/>
	<line x1="44.1" y1="115" x2="44.1" y2="105"/>
	<line x1="43.9" y1="115" x2="43.9" y2="105"/>
</g>
	<g stroke="rgb(255,0,0)">
	<line x1="94.4" y1="115" x2="94.4" y2="105"/>
	<line x1="142" y1="115" x2="142" y2="105"/>
	<line x1="279" y1="115" x2="279" y2="105"/>
	<line x1="309" y1="115" x2="309" y2="105"/>
	<line x1="189" y1="115" x2="189" y2="105"/>
	<line x1="91.1" y1="115" x2="91.1" y2="105"/>
	<line x1="155" y1="115" x2="155" y2="105"/>
	<line x1="290" y1="115" x2="290" y2="105"/>
	<line x1="302" y1="115" x2="302" y2="105"/>
	<line x1="174" y1="115" x2="174" y2="105"/>
	<line x1="89.7" y1="115" x2="89.7" y2="105"/>
	<line x1="169" y1="115" x2="169" y2="105"/>
	<line x1="299" y1="115" x2="299" y2="105"/>
	<line x1="293" y1="115" x2="293" y2="105"/>
	<line x1="160" y1="115" x2="160" y2="105"/>
	<line x1="90.4" y1="115" x2="90.4" y2="105"/>
	<line x1="184" y1="115" x2="184" y2="105"/>
	<line x1="307" y1="115" x2="307" y2="105"/>
	<line x1="282" y1="115" x2="282" y2="105"/>
	<line x1="146" y1="115" x2="146" y2="105"/>
	<line x1="93.1" y1="115" x2="93.1" y2="105"/>
	<line x1="199" y1="115" x2="199" y2="105"/>
	<line x1="312" y1="115" x2="312" y2="105"/>
	<line x1="271" y1="115" x2="271" y2="105"/>
	<line x1="134" y1="115" x2="134" y2="105"/>
	<line x1="97.7" y1="115" x2="97.7" y2="105"/>
	<line x1="214" y1="115" x2="214" y2="105"/>
	<line x1="316" y1="115" x2="316" y2="105"/>
	<line x1="258" y1="115" x2="258" y2="105"/>
	<line x1="122" y1="115" x2="122" y2="105"/>
	<line x1="104" y1="115" x2="104" y2="105"/>
	<line x1="229" y1="115" x2="229" y2="105"/>
	<line x1="318" y1="115" x2="318" y2="105"/>
	<line x1="244" y1="115" x2="244" y2="105"/>
	<line x1="112" y1="115" x2="112" y2="105"/>
	<line x1="112" y1="115" x2="112" y2="105"/>
	<line x1="244" y1="115" x2="244" y2="105"/>
	<line x1="318" y1="115" x2="318" y2="105"/>
	<line x1="229" y1="115" x2="229" y2="105"/>
	<line x1="104" y1="115" x2="104" y2="105"/>
	<line x1="122" y1="115" x2="122" y2="105"/>
	<line x1="258" y1="115" x2="258" y2="105"/>
	<line x1="316" y1="115" x2="316" y2="105"/>
	<line x1="214" y1="115" x2="214" y2="105"/>
	<line x1="97.7" y1="115" x2="97.7" y2="105"/>
	<line x1="134" y1="115" x2="134" y2="105"/>
	<line x1="271" y1="115" x2="271" y2="105"/>
	<line x1="312" y1="115" x2="312" y2="105"/>
	<line x1="199" y1="115" x2="199" y2="105"/>
	<line x1="93.1" y1="115" x2="93.1" y2="105"/>
	<line x1="146" y1="115" x2="146" y2="105"/>
	<line x1="282" y1="115" x2="282" y2="105"/>
	<line x1="307" y1="115" x2="307" y2="105"/>
	<line x1="184" y1="115" x2="184" y2="105"/>
	<line x1="90.4" y1="115" x2="90.4" y2="105"/>
	<line x1="160" y1="115" x2="160" y2="105"/>
	<line x1="293" y1="115" x2="293" y2="105"/>
	<line x1="299" y1="115" x2="299" y2="105"/>
	<line x1="169" y1="115" x2="169" y2="105"/>
	<line x1="89.7" y1="115" x2="89.7" y2="105"/>
	<line x1="174" y1="115" x2="174" y2="105"/>
	<line x1="302" y1="115" x2="302" y2="105"/>
	<line x1="290" y1="115" x2="290" y2="105"/>
	<line x1="155" y1="115" x2="155" y2="105"/>
	<line x1="91.1" y1="115" x2="91.1" y2="105"/>
	<line x1="189" y1="115" x2="189" y2="105"/>
	<line x1="309" y1="115" x2="309" y2="105"/>
	<line x1="279" y1="115" x2="279" y2="105"/>
	<line x1="142" y1="115" x2="142" y2="105"/>
	<line x1="94.4" y1="115" x2="94.4" y2="105"/>
	<line x1="204" y1="115" x2="204" y2="105"/>
	<line x1="314" y1="115" x2="314" y2="105"/>
	<line x1="266" y1="115" x2="266" y2="105"/>
	<line x1="130" y1="115" x2="130" y2="105"/>
	<line x1="99.7" y1="115" x2="99.7" y2="105"/>
	<line x1="219" y1="115" x2="219" y2="105"/>
	<line x1="317" y1="115" x2="317" y2="105"/>
	<line x1="253" y1="115" x2="253" y2="105"/>
	<line x1="119" y1="115" x2="119" y2="105"/>
	<line x1="107" y1="115" x2="107" y2="105"/>
	<line x1="234" y1="115" x2="234" y2="105"/>
	<line x1="319" y1="115" x2="319" y2="105"/>
	<line x1="239" y1="115" x2="239" y2="105"/>
	<line x1="110" y1="115" x2="110" y2="105"/>
	<line x1="116" y1="115" x2="116" y2="105"/>
	<line x1="249" y1="115" x2="249" y2="105"/>
	<line x1="318" y1="115" x2="318" y2="105"/>
	<line x1="224" y1="115" x2="224" y2="105"/>
	<line x1="102" y1="115" x2="102" y2="105"/>
	<line x1="126" y1="115" x2="126" y2="105"/>
	<line x1="262" y1="115" x2="262" y2="105"/>
	<line x1="315" y1="115" x2="315" y2="105"/>
	<line x1="209" y1="115" x2="209" y2="105"/>
	<line x1="95.9" y1="115" x2="95.9" y2="105"/>
	<line x1="138" y1="115" x2="138" y2="105"/>
	<line x1="275" y1="115" x2="275" y2="105"/>
	<line x1="311" y1="115" x2="311" y2="105"/>
	<line x1="194" y1="115" x2="194" y2="105"/>
	<line x1="92" y1="115" x2="92" y2="105"/>
	<line x1="151" y1="115" x2="151" y2="105"/>
</g>
</g>
	<g id="title">
	<text x="250" y="27" text-anchor="middle" font-size="18" font-family="Verdana"> 1D plots of example sin functions
	</text>
</g>
</svg>
