<?xml version="1.0" encoding="UTF-8" standalone="no"?>
<svg width="500" height ="200" version="1.1"
xmlns:svg ="http://www.w3.org/2000/svg"
xmlns:rdf="http://www.w3.org/1999/02/22-rdf-syntax-ns#"
xmlns:cc="http://web.resource.org/cc/"
xmlns:dc="http://purl.org/dc/elements/1.1/"
xmlns ="http://www.w3.org/2000/svg"
>
<!-- SVG plot written using Boost.Plot program (Creator Jacob Voytko) --> 
<!-- Use, modification and distribution of Boost.Plot subject to the --> 
<!-- Boost Software License, Version 1.0.--> 
<!-- (See accompanying file LICENSE_1_0.txt --> 
<!-- or copy at http://www.boost.org/LICENSE_1_0.txt) --> 

<!-- File ./demo_weather1.svg --> 
<g id="imageBackground" stroke="rgb(255,255,0)" fill="rgb(255,255,255)" stroke-width="1"><rect x="0" y="0" width="500" height="200"/></g>
<g id="plotBackground" stroke="rgb(250,250,210)" fill="rgb(255,255,255)" stroke-width="1"><rect x="11" y="56" width="365" height="128"/></g>
<g id="xMinorGrid" stroke="rgb(200,220,255)" stroke-width="0.5"></g>
<g id="xMajorGrid" stroke="rgb(200,220,255)" stroke-width="1"></g>
<g id="xAxis" stroke="rgb(0,0,0)" stroke-width="1"><line x1="133" y1="56" x2="133" y2="184"/><line x1="11" y1="123" x2="376" y2="123"/></g>
<g id="xMinorTicks" stroke="rgb(0,0,0)" stroke-width="1"><path d="M137,123 L137,125 M142,123 L142,125 M147,123 L147,125 M152,123 L152,125 M162,123 L162,125 M167,123 L167,125 M171,123 L171,125 M176,123 L176,125 M186,123 L186,125 M191,123 L191,125 M196,123 L196,125 M201,123 L201,125 M210,123 L210,125 M215,123 L215,125 M220,123 L220,125 M225,123 L225,125 M235,123 L235,125 M239,123 L239,125 M244,123 L244,125 M249,123 L249,125 M259,123 L259,125 M264,123 L264,125 M269,123 L269,125 M274,123 L274,125 M283,123 L283,125 M288,123 L288,125 M293,123 L293,125 M298,123 L298,125 M308,123 L308,125 M312,123 L312,125 M317,123 L317,125 M322,123 L322,125 M332,123 L332,125 M337,123 L337,125 M342,123 L342,125 M346,123 L346,125 M356,123 L356,125 M361,123 L361,125 M366,123 L366,125 M371,123 L371,125 M128,123 L128,125 M123,123 L123,125 M118,123 L118,125 M113,123 L113,125 M103,123 L103,125 M98.5,123 L98.5,125 M93.6,123 L93.6,125 M88.8,123 L88.8,125 M79.1,123 L79.1,125 M74.2,123 L74.2,125 M69.3,123 L69.3,125 M64.5,123 L64.5,125 M54.8,123 L54.8,125 M49.9,123 L49.9,125 M45,123 L45,125 M40.2,123 L40.2,125 M30.4,123 L30.4,125 M25.6,123 L25.6,125 M20.7,123 L20.7,125 M15.9,123 L15.9,125 " fill="none"/></g>
<g id="xMajorTicks" stroke="rgb(0,0,0)" stroke-width="2"><path d="M133,123 L133,128 M157,123 L157,128 M181,123 L181,128 M205,123 L205,128 M230,123 L230,128 M254,123 L254,128 M278,123 L278,128 M303,123 L303,128 M327,123 L327,128 M351,123 L351,128 M376,123 L376,128 M133,123 L133,128 M108,123 L108,128 M83.9,123 L83.9,128 M59.6,123 L59.6,128 M35.3,123 L35.3,128 M11,123 L11,128 " fill="none"/></g>
<g id="xTicksValues">
<text x="157" y="143" text-anchor="middle" font-size="12" font-family="Verdana">2</text>
<text x="181" y="143" text-anchor="middle" font-size="12" font-family="Verdana">4</text>
<text x="205" y="143" text-anchor="middle" font-size="12" font-family="Verdana">6</text>
<text x="230" y="143" text-anchor="middle" font-size="12" font-family="Verdana">8</text>
<text x="254" y="143" text-anchor="middle" font-size="12" font-family="Verdana">10</text>
<text x="278" y="143" text-anchor="middle" font-size="12" font-family="Verdana">12</text>
<text x="303" y="143" text-anchor="middle" font-size="12" font-family="Verdana">14</text>
<text x="327" y="143" text-anchor="middle" font-size="12" font-family="Verdana">16</text>
<text x="351" y="143" text-anchor="middle" font-size="12" font-family="Verdana">18</text>
<text x="376" y="143" text-anchor="middle" font-size="12" font-family="Verdana">20</text>
<text x="108" y="143" text-anchor="middle" font-size="12" font-family="Verdana">-2</text>
<text x="83.9" y="143" text-anchor="middle" font-size="12" font-family="Verdana">-4</text>
<text x="59.6" y="143" text-anchor="middle" font-size="12" font-family="Verdana">-6</text>
<text x="35.3" y="143" text-anchor="middle" font-size="12" font-family="Verdana">-8</text>
<text x="11" y="143" text-anchor="middle" font-size="12" font-family="Verdana">-10</text></g>
<g id="xLabel">
<text x="193" y="208" text-anchor="middle" font-size="14" font-family="Verdana"></text></g>
<g id="plotPoints"><g stroke="rgb(255,0,0)"><line x1="334" y1="125" x2="334" y2="115"/><line x1="340" y1="125" x2="340" y2="115"/><line x1="325" y1="125" x2="325" y2="115"/><line x1="333" y1="125" x2="333" y2="115"/><line x1="339" y1="125" x2="339" y2="115"/><line x1="339" y1="125" x2="339" y2="115"/><line x1="349" y1="125" x2="349" y2="115"/><line x1="328" y1="125" x2="328" y2="115"/><line x1="332" y1="125" x2="332" y2="115"/><line x1="339" y1="125" x2="339" y2="115"/><line x1="336" y1="125" x2="336" y2="115"/><line x1="326" y1="125" x2="326" y2="115"/><line x1="310" y1="125" x2="310" y2="115"/><line x1="316" y1="125" x2="316" y2="115"/><line x1="308" y1="125" x2="308" y2="115"/><line x1="336" y1="125" x2="336" y2="115"/><line x1="320" y1="125" x2="320" y2="115"/><line x1="306" y1="125" x2="306" y2="115"/><line x1="327" y1="125" x2="327" y2="115"/><line x1="332" y1="125" x2="332" y2="115"/><line x1="333" y1="125" x2="333" y2="115"/><line x1="325" y1="125" x2="325" y2="115"/><line x1="317" y1="125" x2="317" y2="115"/><line x1="317" y1="125" x2="317" y2="115"/><line x1="325" y1="125" x2="325" y2="115"/><line x1="333" y1="125" x2="333" y2="115"/><line x1="317" y1="125" x2="317" y2="115"/><line x1="322" y1="125" x2="322" y2="115"/><line x1="318" y1="125" x2="318" y2="115"/><line x1="331" y1="125" x2="331" y2="115"/><line x1="326" y1="125" x2="326" y2="115"/><line x1="306" y1="125" x2="306" y2="115"/><line x1="312" y1="125" x2="312" y2="115"/><line x1="306" y1="125" x2="306" y2="115"/><line x1="329" y1="125" x2="329" y2="115"/><line x1="322" y1="125" x2="322" y2="115"/><line x1="305" y1="125" x2="305" y2="115"/><line x1="325" y1="125" x2="325" y2="115"/><line x1="338" y1="125" x2="338" y2="115"/><line x1="336" y1="125" x2="336" y2="115"/><line x1="314" y1="125" x2="314" y2="115"/><line x1="294" y1="125" x2="294" y2="115"/><line x1="333" y1="125" x2="333" y2="115"/><line x1="342" y1="125" x2="342" y2="115"/><line x1="328" y1="125" x2="328" y2="115"/><line x1="309" y1="125" x2="309" y2="115"/><line x1="306" y1="125" x2="306" y2="115"/><line x1="320" y1="125" x2="320" y2="115"/><line x1="337" y1="125" x2="337" y2="115"/><line x1="329" y1="125" x2="329" y2="115"/><line x1="310" y1="125" x2="310" y2="115"/><line x1="318" y1="125" x2="318" y2="115"/><line x1="342" y1="125" x2="342" y2="115"/><line x1="366" y1="125" x2="366" y2="115"/><line x1="357" y1="125" x2="357" y2="115"/><line x1="329" y1="125" x2="329" y2="115"/><line x1="349" y1="125" x2="349" y2="115"/><line x1="354" y1="125" x2="354" y2="115"/><line x1="355" y1="125" x2="355" y2="115"/><line x1="339" y1="125" x2="339" y2="115"/><line x1="315" y1="125" x2="315" y2="115"/><line x1="314" y1="125" x2="314" y2="115"/><line x1="318" y1="125" x2="318" y2="115"/><line x1="342" y1="125" x2="342" y2="115"/><line x1="323" y1="125" x2="323" y2="115"/><line x1="309" y1="125" x2="309" y2="115"/><line x1="321" y1="125" x2="321" y2="115"/><line x1="327" y1="125" x2="327" y2="115"/><line x1="354" y1="125" x2="354" y2="115"/><line x1="337" y1="125" x2="337" y2="115"/><line x1="334" y1="125" x2="334" y2="115"/><line x1="346" y1="125" x2="346" y2="115"/><line x1="359" y1="125" x2="359" y2="115"/><line x1="354" y1="125" x2="354" y2="115"/><line x1="336" y1="125" x2="336" y2="115"/><line x1="343" y1="125" x2="343" y2="115"/><line x1="346" y1="125" x2="346" y2="115"/><line x1="362" y1="125" x2="362" y2="115"/><line x1="346" y1="125" x2="346" y2="115"/><line x1="327" y1="125" x2="327" y2="115"/><line x1="344" y1="125" x2="344" y2="115"/><line x1="354" y1="125" x2="354" y2="115"/><line x1="351" y1="125" x2="351" y2="115"/><line x1="340" y1="125" x2="340" y2="115"/><line x1="320" y1="125" x2="320" y2="115"/><line x1="340" y1="125" x2="340" y2="115"/><line x1="360" y1="125" x2="360" y2="115"/><line x1="354" y1="125" x2="354" y2="115"/><line x1="337" y1="125" x2="337" y2="115"/><line x1="321" y1="125" x2="321" y2="115"/><line x1="356" y1="125" x2="356" y2="115"/><line x1="357" y1="125" x2="357" y2="115"/><line x1="356" y1="125" x2="356" y2="115"/><line x1="338" y1="125" x2="338" y2="115"/><line x1="337" y1="125" x2="337" y2="115"/><line x1="345" y1="125" x2="345" y2="115"/><line x1="356" y1="125" x2="356" y2="115"/><line x1="356" y1="125" x2="356" y2="115"/><line x1="333" y1="125" x2="333" y2="115"/><line x1="339" y1="125" x2="339" y2="115"/><line x1="331" y1="125" x2="331" y2="115"/><line x1="345" y1="125" x2="345" y2="115"/><line x1="349" y1="125" x2="349" y2="115"/><line x1="323" y1="125" x2="323" y2="115"/><line x1="337" y1="125" x2="337" y2="115"/><line x1="327" y1="125" x2="327" y2="115"/><line x1="342" y1="125" x2="342" y2="115"/><line x1="334" y1="125" x2="334" y2="115"/><line x1="311" y1="125" x2="311" y2="115"/><line x1="329" y1="125" x2="329" y2="115"/><line x1="345" y1="125" x2="345" y2="115"/><line x1="356" y1="125" x2="356" y2="115"/><line x1="321" y1="125" x2="321" y2="115"/><line x1="305" y1="125" x2="305" y2="115"/><line x1="336" y1="125" x2="336" y2="115"/><line x1="344" y1="125" x2="344" y2="115"/><line x1="349" y1="125" x2="349" y2="115"/><line x1="325" y1="125" x2="325" y2="115"/><line x1="320" y1="125" x2="320" y2="115"/><line x1="343" y1="125" x2="343" y2="115"/><line x1="355" y1="125" x2="355" y2="115"/><line x1="353" y1="125" x2="353" y2="115"/><line x1="328" y1="125" x2="328" y2="115"/><line x1="339" y1="125" x2="339" y2="115"/><line x1="329" y1="125" x2="329" y2="115"/><line x1="306" y1="125" x2="306" y2="115"/><line x1="295" y1="125" x2="295" y2="115"/><line x1="287" y1="125" x2="287" y2="115"/><line x1="280" y1="125" x2="280" y2="115"/><line x1="280" y1="125" x2="280" y2="115"/><line x1="271" y1="125" x2="271" y2="115"/><line x1="265" y1="125" x2="265" y2="115"/><line x1="261" y1="125" x2="261" y2="115"/><line x1="267" y1="125" x2="267" y2="115"/><line x1="265" y1="125" x2="265" y2="115"/><line x1="260" y1="125" x2="260" y2="115"/><line x1="263" y1="125" x2="263" y2="115"/><line x1="257" y1="125" x2="257" y2="115"/><line x1="322" y1="125" x2="322" y2="115"/><line x1="317" y1="125" x2="317" y2="115"/><line x1="350" y1="125" x2="350" y2="115"/><line x1="327" y1="125" x2="327" y2="115"/><line x1="326" y1="125" x2="326" y2="115"/><line x1="348" y1="125" x2="348" y2="115"/><line x1="356" y1="125" x2="356" y2="115"/><line x1="353" y1="125" x2="353" y2="115"/><line x1="332" y1="125" x2="332" y2="115"/><line x1="345" y1="125" x2="345" y2="115"/><line x1="326" y1="125" x2="326" y2="115"/><line x1="371" y1="125" x2="371" y2="115"/><line x1="361" y1="125" x2="361" y2="115"/><line x1="331" y1="125" x2="331" y2="115"/><line x1="346" y1="125" x2="346" y2="115"/><line x1="355" y1="125" x2="355" y2="115"/><line x1="351" y1="125" x2="351" y2="115"/><line x1="338" y1="125" x2="338" y2="115"/><line x1="314" y1="125" x2="314" y2="115"/><line x1="350" y1="125" x2="350" y2="115"/><line x1="355" y1="125" x2="355" y2="115"/><line x1="371" y1="125" x2="371" y2="115"/><line x1="350" y1="125" x2="350" y2="115"/><line x1="326" y1="125" x2="326" y2="115"/><line x1="355" y1="125" x2="355" y2="115"/><line x1="339" y1="125" x2="339" y2="115"/><line x1="372" y1="125" x2="372" y2="115"/><line x1="338" y1="125" x2="338" y2="115"/><line x1="333" y1="125" x2="333" y2="115"/><line x1="361" y1="125" x2="361" y2="115"/><line x1="334" y1="125" x2="334" y2="115"/><line x1="372" y1="125" x2="372" y2="115"/><line x1="372" y1="125" x2="372" y2="115"/><line x1="368" y1="125" x2="368" y2="115"/><line x1="349" y1="125" x2="349" y2="115"/><line x1="344" y1="125" x2="344" y2="115"/><line x1="359" y1="125" x2="359" y2="115"/><line x1="362" y1="125" x2="362" y2="115"/><line x1="363" y1="125" x2="363" y2="115"/><line x1="342" y1="125" x2="342" y2="115"/><line x1="354" y1="125" x2="354" y2="115"/><line x1="363" y1="125" x2="363" y2="115"/><line x1="350" y1="125" x2="350" y2="115"/><line x1="329" y1="125" x2="329" y2="115"/><line x1="318" y1="125" x2="318" y2="115"/><line x1="311" y1="125" x2="311" y2="115"/><line x1="305" y1="125" x2="305" y2="115"/><line x1="300" y1="125" x2="300" y2="115"/><line x1="295" y1="125" x2="295" y2="115"/><line x1="291" y1="125" x2="291" y2="115"/><line x1="287" y1="125" x2="287" y2="115"/><line x1="287" y1="125" x2="287" y2="115"/><line x1="318" y1="125" x2="318" y2="115"/><line x1="327" y1="125" x2="327" y2="115"/><line x1="308" y1="125" x2="308" y2="115"/><line x1="334" y1="125" x2="334" y2="115"/><line x1="360" y1="125" x2="360" y2="115"/><line x1="362" y1="125" x2="362" y2="115"/><line x1="342" y1="125" x2="342" y2="115"/><line x1="334" y1="125" x2="334" y2="115"/><line x1="367" y1="125" x2="367" y2="115"/><line x1="370" y1="125" x2="370" y2="115"/><line x1="366" y1="125" x2="366" y2="115"/><line x1="336" y1="125" x2="336" y2="115"/><line x1="343" y1="125" x2="343" y2="115"/><line x1="350" y1="125" x2="350" y2="115"/><line x1="368" y1="125" x2="368" y2="115"/><line x1="357" y1="125" x2="357" y2="115"/><line x1="326" y1="125" x2="326" y2="115"/><line x1="350" y1="125" x2="350" y2="115"/><line x1="366" y1="125" x2="366" y2="115"/><line x1="366" y1="125" x2="366" y2="115"/><line x1="346" y1="125" x2="346" y2="115"/><line x1="318" y1="125" x2="318" y2="115"/><line x1="350" y1="125" x2="350" y2="115"/><line x1="349" y1="125" x2="349" y2="115"/><line x1="361" y1="125" x2="361" y2="115"/><line x1="342" y1="125" x2="342" y2="115"/><line x1="318" y1="125" x2="318" y2="115"/><line x1="348" y1="125" x2="348" y2="115"/></g>
<g stroke="rgb(0,0,255)"><line x1="139" y1="125" x2="139" y2="115"/><line x1="168" y1="125" x2="168" y2="115"/><line x1="143" y1="125" x2="143" y2="115"/><line x1="165" y1="125" x2="165" y2="115"/><line x1="184" y1="125" x2="184" y2="115"/><line x1="106" y1="125" x2="106" y2="115"/><line x1="75.4" y1="125" x2="75.4" y2="115"/><line x1="62" y1="125" x2="62" y2="115"/><line x1="119" y1="125" x2="119" y2="115"/><line x1="126" y1="125" x2="126" y2="115"/><line x1="105" y1="125" x2="105" y2="115"/><line x1="107" y1="125" x2="107" y2="115"/><line x1="91.2" y1="125" x2="91.2" y2="115"/><line x1="90" y1="125" x2="90" y2="115"/><line x1="86.4" y1="125" x2="86.4" y2="115"/><line x1="74.2" y1="125" x2="74.2" y2="115"/><line x1="41.4" y1="125" x2="41.4" y2="115"/><line x1="46.2" y1="125" x2="46.2" y2="115"/><line x1="148" y1="125" x2="148" y2="115"/><line x1="133" y1="125" x2="133" y2="115"/><line x1="92.4" y1="125" x2="92.4" y2="115"/><line x1="123" y1="125" x2="123" y2="115"/><line x1="159" y1="125" x2="159" y2="115"/><line x1="203" y1="125" x2="203" y2="115"/><line x1="156" y1="125" x2="156" y2="115"/><line x1="142" y1="125" x2="142" y2="115"/><line x1="118" y1="125" x2="118" y2="115"/><line x1="126" y1="125" x2="126" y2="115"/><line x1="146" y1="125" x2="146" y2="115"/><line x1="137" y1="125" x2="137" y2="115"/><line x1="135" y1="125" x2="135" y2="115"/><line x1="130" y1="125" x2="130" y2="115"/><line x1="141" y1="125" x2="141" y2="115"/><line x1="165" y1="125" x2="165" y2="115"/><line x1="124" y1="125" x2="124" y2="115"/><line x1="169" y1="125" x2="169" y2="115"/><line x1="152" y1="125" x2="152" y2="115"/><line x1="212" y1="125" x2="212" y2="115"/><line x1="133" y1="125" x2="133" y2="115"/><line x1="86.4" y1="125" x2="86.4" y2="115"/><line x1="52.3" y1="125" x2="52.3" y2="115"/><line x1="37.7" y1="125" x2="37.7" y2="115"/><line x1="168" y1="125" x2="168" y2="115"/><line x1="117" y1="125" x2="117" y2="115"/><line x1="126" y1="125" x2="126" y2="115"/><line x1="128" y1="125" x2="128" y2="115"/><line x1="135" y1="125" x2="135" y2="115"/><line x1="160" y1="125" x2="160" y2="115"/><line x1="150" y1="125" x2="150" y2="115"/><line x1="153" y1="125" x2="153" y2="115"/><line x1="153" y1="125" x2="153" y2="115"/><line x1="156" y1="125" x2="156" y2="115"/><line x1="181" y1="125" x2="181" y2="115"/><line x1="159" y1="125" x2="159" y2="115"/><line x1="158" y1="125" x2="158" y2="115"/><line x1="154" y1="125" x2="154" y2="115"/><line x1="171" y1="125" x2="171" y2="115"/><line x1="152" y1="125" x2="152" y2="115"/><line x1="139" y1="125" x2="139" y2="115"/><line x1="97.3" y1="125" x2="97.3" y2="115"/><line x1="101" y1="125" x2="101" y2="115"/><line x1="141" y1="125" x2="141" y2="115"/><line x1="184" y1="125" x2="184" y2="115"/><line x1="199" y1="125" x2="199" y2="115"/><line x1="214" y1="125" x2="214" y2="115"/><line x1="212" y1="125" x2="212" y2="115"/><line x1="219" y1="125" x2="219" y2="115"/><line x1="242" y1="125" x2="242" y2="115"/><line x1="244" y1="125" x2="244" y2="115"/><line x1="242" y1="125" x2="242" y2="115"/><line x1="230" y1="125" x2="230" y2="115"/><line x1="233" y1="125" x2="233" y2="115"/><line x1="216" y1="125" x2="216" y2="115"/><line x1="212" y1="125" x2="212" y2="115"/><line x1="202" y1="125" x2="202" y2="115"/><line x1="199" y1="125" x2="199" y2="115"/><line x1="208" y1="125" x2="208" y2="115"/><line x1="173" y1="125" x2="173" y2="115"/><line x1="170" y1="125" x2="170" y2="115"/><line x1="174" y1="125" x2="174" y2="115"/><line x1="181" y1="125" x2="181" y2="115"/><line x1="195" y1="125" x2="195" y2="115"/><line x1="188" y1="125" x2="188" y2="115"/><line x1="209" y1="125" x2="209" y2="115"/><line x1="226" y1="125" x2="226" y2="115"/><line x1="233" y1="125" x2="233" y2="115"/><line x1="232" y1="125" x2="232" y2="115"/><line x1="221" y1="125" x2="221" y2="115"/><line x1="216" y1="125" x2="216" y2="115"/><line x1="219" y1="125" x2="219" y2="115"/><line x1="236" y1="125" x2="236" y2="115"/><line x1="220" y1="125" x2="220" y2="115"/><line x1="236" y1="125" x2="236" y2="115"/><line x1="230" y1="125" x2="230" y2="115"/><line x1="208" y1="125" x2="208" y2="115"/><line x1="231" y1="125" x2="231" y2="115"/><line x1="212" y1="125" x2="212" y2="115"/><line x1="208" y1="125" x2="208" y2="115"/><line x1="173" y1="125" x2="173" y2="115"/><line x1="188" y1="125" x2="188" y2="115"/><line x1="205" y1="125" x2="205" y2="115"/><line x1="197" y1="125" x2="197" y2="115"/><line x1="185" y1="125" x2="185" y2="115"/><line x1="178" y1="125" x2="178" y2="115"/><line x1="188" y1="125" x2="188" y2="115"/><line x1="160" y1="125" x2="160" y2="115"/><line x1="153" y1="125" x2="153" y2="115"/><line x1="188" y1="125" x2="188" y2="115"/><line x1="185" y1="125" x2="185" y2="115"/><line x1="216" y1="125" x2="216" y2="115"/><line x1="173" y1="125" x2="173" y2="115"/><line x1="182" y1="125" x2="182" y2="115"/><line x1="174" y1="125" x2="174" y2="115"/><line x1="140" y1="125" x2="140" y2="115"/><line x1="207" y1="125" x2="207" y2="115"/><line x1="185" y1="125" x2="185" y2="115"/><line x1="187" y1="125" x2="187" y2="115"/><line x1="215" y1="125" x2="215" y2="115"/><line x1="219" y1="125" x2="219" y2="115"/><line x1="224" y1="125" x2="224" y2="115"/><line x1="184" y1="125" x2="184" y2="115"/><line x1="171" y1="125" x2="171" y2="115"/><line x1="159" y1="125" x2="159" y2="115"/><line x1="154" y1="125" x2="154" y2="115"/><line x1="196" y1="125" x2="196" y2="115"/><line x1="192" y1="125" x2="192" y2="115"/><line x1="157" y1="125" x2="157" y2="115"/><line x1="142" y1="125" x2="142" y2="115"/><line x1="160" y1="125" x2="160" y2="115"/><line x1="205" y1="125" x2="205" y2="115"/><line x1="162" y1="125" x2="162" y2="115"/><line x1="170" y1="125" x2="170" y2="115"/><line x1="219" y1="125" x2="219" y2="115"/><line x1="236" y1="125" x2="236" y2="115"/><line x1="213" y1="125" x2="213" y2="115"/><line x1="195" y1="125" x2="195" y2="115"/><line x1="167" y1="125" x2="167" y2="115"/><line x1="175" y1="125" x2="175" y2="115"/><line x1="226" y1="125" x2="226" y2="115"/><line x1="202" y1="125" x2="202" y2="115"/><line x1="198" y1="125" x2="198" y2="115"/><line x1="174" y1="125" x2="174" y2="115"/><line x1="169" y1="125" x2="169" y2="115"/><line x1="203" y1="125" x2="203" y2="115"/><line x1="207" y1="125" x2="207" y2="115"/><line x1="207" y1="125" x2="207" y2="115"/><line x1="197" y1="125" x2="197" y2="115"/><line x1="186" y1="125" x2="186" y2="115"/><line x1="218" y1="125" x2="218" y2="115"/><line x1="182" y1="125" x2="182" y2="115"/><line x1="154" y1="125" x2="154" y2="115"/><line x1="207" y1="125" x2="207" y2="115"/><line x1="219" y1="125" x2="219" y2="115"/><line x1="202" y1="125" x2="202" y2="115"/><line x1="178" y1="125" x2="178" y2="115"/><line x1="190" y1="125" x2="190" y2="115"/><line x1="187" y1="125" x2="187" y2="115"/><line x1="187" y1="125" x2="187" y2="115"/><line x1="214" y1="125" x2="214" y2="115"/><line x1="215" y1="125" x2="215" y2="115"/><line x1="190" y1="125" x2="190" y2="115"/><line x1="207" y1="125" x2="207" y2="115"/><line x1="230" y1="125" x2="230" y2="115"/><line x1="214" y1="125" x2="214" y2="115"/><line x1="163" y1="125" x2="163" y2="115"/><line x1="156" y1="125" x2="156" y2="115"/><line x1="158" y1="125" x2="158" y2="115"/><line x1="174" y1="125" x2="174" y2="115"/><line x1="222" y1="125" x2="222" y2="115"/><line x1="231" y1="125" x2="231" y2="115"/><line x1="238" y1="125" x2="238" y2="115"/><line x1="222" y1="125" x2="222" y2="115"/><line x1="220" y1="125" x2="220" y2="115"/><line x1="218" y1="125" x2="218" y2="115"/><line x1="233" y1="125" x2="233" y2="115"/><line x1="219" y1="125" x2="219" y2="115"/><line x1="236" y1="125" x2="236" y2="115"/><line x1="233" y1="125" x2="233" y2="115"/><line x1="239" y1="125" x2="239" y2="115"/><line x1="250" y1="125" x2="250" y2="115"/><line x1="231" y1="125" x2="231" y2="115"/><line x1="221" y1="125" x2="221" y2="115"/><line x1="215" y1="125" x2="215" y2="115"/><line x1="221" y1="125" x2="221" y2="115"/><line x1="227" y1="125" x2="227" y2="115"/><line x1="219" y1="125" x2="219" y2="115"/><line x1="212" y1="125" x2="212" y2="115"/><line x1="208" y1="125" x2="208" y2="115"/><line x1="209" y1="125" x2="209" y2="115"/><line x1="224" y1="125" x2="224" y2="115"/><line x1="197" y1="125" x2="197" y2="115"/><line x1="188" y1="125" x2="188" y2="115"/><line x1="182" y1="125" x2="182" y2="115"/><line x1="232" y1="125" x2="232" y2="115"/><line x1="216" y1="125" x2="216" y2="115"/><line x1="225" y1="125" x2="225" y2="115"/><line x1="210" y1="125" x2="210" y2="115"/><line x1="199" y1="125" x2="199" y2="115"/><line x1="213" y1="125" x2="213" y2="115"/><line x1="201" y1="125" x2="201" y2="115"/><line x1="174" y1="125" x2="174" y2="115"/><line x1="150" y1="125" x2="150" y2="115"/><line x1="162" y1="125" x2="162" y2="115"/><line x1="204" y1="125" x2="204" y2="115"/><line x1="140" y1="125" x2="140" y2="115"/><line x1="116" y1="125" x2="116" y2="115"/><line x1="81.5" y1="125" x2="81.5" y2="115"/><line x1="154" y1="125" x2="154" y2="115"/><line x1="198" y1="125" x2="198" y2="115"/><line x1="142" y1="125" x2="142" y2="115"/><line x1="119" y1="125" x2="119" y2="115"/><line x1="101" y1="125" x2="101" y2="115"/><line x1="227" y1="125" x2="227" y2="115"/><line x1="233" y1="125" x2="233" y2="115"/><line x1="195" y1="125" x2="195" y2="115"/><line x1="184" y1="125" x2="184" y2="115"/><line x1="201" y1="125" x2="201" y2="115"/><line x1="243" y1="125" x2="243" y2="115"/></g>
</g>
<g id="legendBackground" stroke="rgb(255,255,0)" fill="rgb(255,255,255)" stroke-width="1"><rect x="388" y="56" width="101" height="70"/><rect x="388" y="56" width="101" height="70"/></g>
<g id="legendPoints"><g stroke="rgb(255,0,0)" stroke-width="2"><line x1="402" y1="89" x2="402" y2="79"/></g>
<g stroke="rgb(0,0,255)" stroke-width="2"><line x1="402" y1="117" x2="402" y2="107"/></g>
</g>
<g id="legendText">
<text x="423" y="84" font-size="14" font-family="Verdana">Inside</text>
<text x="423" y="112" font-size="14" font-family="Verdana">Outside</text></g>
<g id="title">
<text x="250" y="36" text-anchor="middle" font-size="18" font-family="Verdana">Temperatures at Long: 2:45:16.2W, Lat:54:17:47.1N</text></g>
</svg>
