<?xml version="1.0" encoding="UTF-8" standalone="no"?>
<svg width="500" height ="200" version="1.1"
xmlns:svg ="http://www.w3.org/2000/svg"
xmlns:rdf="http://www.w3.org/1999/02/22-rdf-syntax-ns#"
xmlns:cc="http://web.resource.org/cc/"
xmlns:dc="http://purl.org/dc/elements/1.1/"
xmlns ="http://www.w3.org/2000/svg"
>
<!-- SVG plot written using Boost.Plot program (Creator Jacob Voytko) --> 
<!-- Use, modification and distribution of Boost.Plot subject to the --> 
<!-- Boost Software License, Version 1.0.--> 
<!-- (See accompanying file LICENSE_1_0.txt --> 
<!-- or copy at http://www.boost.org/LICENSE_1_0.txt) --> 

<!-- File ./demo_weather2.svg --> 
<g id="imageBackground" stroke="rgb(255,255,0)" fill="rgb(255,255,255)" stroke-width="1"><rect x="0" y="0" width="500" height="200"/></g>
<g id="plotBackground" stroke="rgb(250,250,210)" fill="rgb(255,255,255)" stroke-width="1"><rect x="11" y="56" width="372" height="128"/></g>
<g id="xMinorGrid" stroke="rgb(200,220,255)" stroke-width="0.5"></g>
<g id="xMajorGrid" stroke="rgb(200,220,255)" stroke-width="1"></g>
<g id="xAxis" stroke="rgb(0,0,0)" stroke-width="1"><line x1="11" y1="123" x2="383" y2="123"/></g>
<g id="xMinorTicks" stroke="rgb(0,0,0)" stroke-width="1"><path d="M18.4,123 L18.4,125 M25.9,123 L25.9,125 M33.3,123 L33.3,125 M40.8,123 L40.8,125 M55.7,123 L55.7,125 M63.1,123 L63.1,125 M70.6,123 L70.6,125 M78,123 L78,125 M92.9,123 L92.9,125 M100,123 L100,125 M108,123 L108,125 M115,123 L115,125 M130,123 L130,125 M138,123 L138,125 M145,123 L145,125 M153,123 L153,125 M167,123 L167,125 M175,123 L175,125 M182,123 L182,125 M190,123 L190,125 M205,123 L205,125 M212,123 L212,125 M220,123 L220,125 M227,123 L227,125 M242,123 L242,125 M249,123 L249,125 M257,123 L257,125 M264,123 L264,125 M279,123 L279,125 M287,123 L287,125 M294,123 L294,125 M302,123 L302,125 M316,123 L316,125 M324,123 L324,125 M331,123 L331,125 M339,123 L339,125 M354,123 L354,125 M361,123 L361,125 M369,123 L369,125 M376,123 L376,125 " fill="none"/></g>
<g id="xMajorTicks" stroke="rgb(0,0,0)" stroke-width="2"><path d="M11,123 L11,128 M48.2,123 L48.2,128 M85.5,123 L85.5,128 M123,123 L123,128 M160,123 L160,128 M197,123 L197,128 M234,123 L234,128 M272,123 L272,128 M309,123 L309,128 M346,123 L346,128 M383,123 L383,128 " fill="none"/></g>
<g id="xTicksValues">
<text x="11" y="143" text-anchor="middle" font-size="12" font-family="Verdana">10</text>
<text x="48.2" y="143" text-anchor="middle" font-size="12" font-family="Verdana">11</text>
<text x="85.5" y="143" text-anchor="middle" font-size="12" font-family="Verdana">12</text>
<text x="123" y="143" text-anchor="middle" font-size="12" font-family="Verdana">13</text>
<text x="160" y="143" text-anchor="middle" font-size="12" font-family="Verdana">14</text>
<text x="197" y="143" text-anchor="middle" font-size="12" font-family="Verdana">15</text>
<text x="234" y="143" text-anchor="middle" font-size="12" font-family="Verdana">16</text>
<text x="272" y="143" text-anchor="middle" font-size="12" font-family="Verdana">17</text>
<text x="309" y="143" text-anchor="middle" font-size="12" font-family="Verdana">18</text>
<text x="346" y="143" text-anchor="middle" font-size="12" font-family="Verdana">19</text>
<text x="383" y="143" text-anchor="middle" font-size="12" font-family="Verdana">20</text></g>
<g id="xLabel">
<text x="197" y="208" text-anchor="middle" font-size="14" font-family="Verdana"></text></g>
<g id="plotPoints"><g stroke="rgb(255,0,0)"><line x1="257" y1="125" x2="257" y2="115"/><line x1="275" y1="125" x2="275" y2="115"/><line x1="227" y1="125" x2="227" y2="115"/><line x1="253" y1="125" x2="253" y2="115"/><line x1="272" y1="125" x2="272" y2="115"/><line x1="272" y1="125" x2="272" y2="115"/><line x1="302" y1="125" x2="302" y2="115"/><line x1="238" y1="125" x2="238" y2="115"/><line x1="249" y1="125" x2="249" y2="115"/><line x1="272" y1="125" x2="272" y2="115"/><line x1="261" y1="125" x2="261" y2="115"/><line x1="231" y1="125" x2="231" y2="115"/><line x1="182" y1="125" x2="182" y2="115"/><line x1="201" y1="125" x2="201" y2="115"/><line x1="175" y1="125" x2="175" y2="115"/><line x1="261" y1="125" x2="261" y2="115"/><line x1="212" y1="125" x2="212" y2="115"/><line x1="171" y1="125" x2="171" y2="115"/><line x1="234" y1="125" x2="234" y2="115"/><line x1="249" y1="125" x2="249" y2="115"/><line x1="253" y1="125" x2="253" y2="115"/><line x1="227" y1="125" x2="227" y2="115"/><line x1="205" y1="125" x2="205" y2="115"/><line x1="205" y1="125" x2="205" y2="115"/><line x1="227" y1="125" x2="227" y2="115"/><line x1="253" y1="125" x2="253" y2="115"/><line x1="205" y1="125" x2="205" y2="115"/><line x1="220" y1="125" x2="220" y2="115"/><line x1="208" y1="125" x2="208" y2="115"/><line x1="246" y1="125" x2="246" y2="115"/><line x1="231" y1="125" x2="231" y2="115"/><line x1="171" y1="125" x2="171" y2="115"/><line x1="190" y1="125" x2="190" y2="115"/><line x1="171" y1="125" x2="171" y2="115"/><line x1="242" y1="125" x2="242" y2="115"/><line x1="220" y1="125" x2="220" y2="115"/><line x1="167" y1="125" x2="167" y2="115"/><line x1="227" y1="125" x2="227" y2="115"/><line x1="268" y1="125" x2="268" y2="115"/><line x1="261" y1="125" x2="261" y2="115"/><line x1="194" y1="125" x2="194" y2="115"/><line x1="134" y1="125" x2="134" y2="115"/><line x1="253" y1="125" x2="253" y2="115"/><line x1="279" y1="125" x2="279" y2="115"/><line x1="238" y1="125" x2="238" y2="115"/><line x1="179" y1="125" x2="179" y2="115"/><line x1="171" y1="125" x2="171" y2="115"/><line x1="212" y1="125" x2="212" y2="115"/><line x1="264" y1="125" x2="264" y2="115"/><line x1="242" y1="125" x2="242" y2="115"/><line x1="182" y1="125" x2="182" y2="115"/><line x1="208" y1="125" x2="208" y2="115"/><line x1="279" y1="125" x2="279" y2="115"/><line x1="354" y1="125" x2="354" y2="115"/><line x1="328" y1="125" x2="328" y2="115"/><line x1="242" y1="125" x2="242" y2="115"/><line x1="302" y1="125" x2="302" y2="115"/><line x1="316" y1="125" x2="316" y2="115"/><line x1="320" y1="125" x2="320" y2="115"/><line x1="272" y1="125" x2="272" y2="115"/><line x1="197" y1="125" x2="197" y2="115"/><line x1="194" y1="125" x2="194" y2="115"/><line x1="208" y1="125" x2="208" y2="115"/><line x1="279" y1="125" x2="279" y2="115"/><line x1="223" y1="125" x2="223" y2="115"/><line x1="179" y1="125" x2="179" y2="115"/><line x1="216" y1="125" x2="216" y2="115"/><line x1="234" y1="125" x2="234" y2="115"/><line x1="316" y1="125" x2="316" y2="115"/><line x1="264" y1="125" x2="264" y2="115"/><line x1="257" y1="125" x2="257" y2="115"/><line x1="294" y1="125" x2="294" y2="115"/><line x1="331" y1="125" x2="331" y2="115"/><line x1="316" y1="125" x2="316" y2="115"/><line x1="261" y1="125" x2="261" y2="115"/><line x1="283" y1="125" x2="283" y2="115"/><line x1="294" y1="125" x2="294" y2="115"/><line x1="342" y1="125" x2="342" y2="115"/><line x1="294" y1="125" x2="294" y2="115"/><line x1="234" y1="125" x2="234" y2="115"/><line x1="287" y1="125" x2="287" y2="115"/><line x1="316" y1="125" x2="316" y2="115"/><line x1="309" y1="125" x2="309" y2="115"/><line x1="275" y1="125" x2="275" y2="115"/><line x1="212" y1="125" x2="212" y2="115"/><line x1="275" y1="125" x2="275" y2="115"/><line x1="335" y1="125" x2="335" y2="115"/><line x1="316" y1="125" x2="316" y2="115"/><line x1="264" y1="125" x2="264" y2="115"/><line x1="216" y1="125" x2="216" y2="115"/><line x1="324" y1="125" x2="324" y2="115"/><line x1="328" y1="125" x2="328" y2="115"/><line x1="324" y1="125" x2="324" y2="115"/><line x1="268" y1="125" x2="268" y2="115"/><line x1="264" y1="125" x2="264" y2="115"/><line x1="290" y1="125" x2="290" y2="115"/><line x1="324" y1="125" x2="324" y2="115"/><line x1="324" y1="125" x2="324" y2="115"/><line x1="253" y1="125" x2="253" y2="115"/><line x1="272" y1="125" x2="272" y2="115"/><line x1="246" y1="125" x2="246" y2="115"/><line x1="290" y1="125" x2="290" y2="115"/><line x1="302" y1="125" x2="302" y2="115"/><line x1="223" y1="125" x2="223" y2="115"/><line x1="264" y1="125" x2="264" y2="115"/><line x1="234" y1="125" x2="234" y2="115"/><line x1="279" y1="125" x2="279" y2="115"/><line x1="257" y1="125" x2="257" y2="115"/><line x1="186" y1="125" x2="186" y2="115"/><line x1="242" y1="125" x2="242" y2="115"/><line x1="290" y1="125" x2="290" y2="115"/><line x1="324" y1="125" x2="324" y2="115"/><line x1="216" y1="125" x2="216" y2="115"/><line x1="167" y1="125" x2="167" y2="115"/><line x1="261" y1="125" x2="261" y2="115"/><line x1="287" y1="125" x2="287" y2="115"/><line x1="302" y1="125" x2="302" y2="115"/><line x1="227" y1="125" x2="227" y2="115"/><line x1="212" y1="125" x2="212" y2="115"/><line x1="283" y1="125" x2="283" y2="115"/><line x1="320" y1="125" x2="320" y2="115"/><line x1="313" y1="125" x2="313" y2="115"/><line x1="238" y1="125" x2="238" y2="115"/><line x1="272" y1="125" x2="272" y2="115"/><line x1="242" y1="125" x2="242" y2="115"/><line x1="171" y1="125" x2="171" y2="115"/><line x1="138" y1="125" x2="138" y2="115"/><line x1="112" y1="125" x2="112" y2="115"/><line x1="89.2" y1="125" x2="89.2" y2="115"/><line x1="89.2" y1="125" x2="89.2" y2="115"/><line x1="63.1" y1="125" x2="63.1" y2="115"/><line x1="44.5" y1="125" x2="44.5" y2="115"/><line x1="33.3" y1="125" x2="33.3" y2="115"/><line x1="52" y1="125" x2="52" y2="115"/><line x1="44.5" y1="125" x2="44.5" y2="115"/><line x1="29.6" y1="125" x2="29.6" y2="115"/><line x1="37.1" y1="125" x2="37.1" y2="115"/><line x1="18.4" y1="125" x2="18.4" y2="115"/><line x1="220" y1="125" x2="220" y2="115"/><line x1="205" y1="125" x2="205" y2="115"/><line x1="305" y1="125" x2="305" y2="115"/><line x1="234" y1="125" x2="234" y2="115"/><line x1="231" y1="125" x2="231" y2="115"/><line x1="298" y1="125" x2="298" y2="115"/><line x1="324" y1="125" x2="324" y2="115"/><line x1="313" y1="125" x2="313" y2="115"/><line x1="249" y1="125" x2="249" y2="115"/><line x1="290" y1="125" x2="290" y2="115"/><line x1="231" y1="125" x2="231" y2="115"/><line x1="369" y1="125" x2="369" y2="115"/><line x1="339" y1="125" x2="339" y2="115"/><line x1="246" y1="125" x2="246" y2="115"/><line x1="294" y1="125" x2="294" y2="115"/><line x1="320" y1="125" x2="320" y2="115"/><line x1="309" y1="125" x2="309" y2="115"/><line x1="268" y1="125" x2="268" y2="115"/><line x1="194" y1="125" x2="194" y2="115"/><line x1="305" y1="125" x2="305" y2="115"/><line x1="320" y1="125" x2="320" y2="115"/><line x1="369" y1="125" x2="369" y2="115"/><line x1="305" y1="125" x2="305" y2="115"/><line x1="231" y1="125" x2="231" y2="115"/><line x1="320" y1="125" x2="320" y2="115"/><line x1="272" y1="125" x2="272" y2="115"/><line x1="372" y1="125" x2="372" y2="115"/><line x1="268" y1="125" x2="268" y2="115"/><line x1="253" y1="125" x2="253" y2="115"/><line x1="339" y1="125" x2="339" y2="115"/><line x1="257" y1="125" x2="257" y2="115"/><line x1="372" y1="125" x2="372" y2="115"/><line x1="372" y1="125" x2="372" y2="115"/><line x1="361" y1="125" x2="361" y2="115"/><line x1="302" y1="125" x2="302" y2="115"/><line x1="287" y1="125" x2="287" y2="115"/><line x1="331" y1="125" x2="331" y2="115"/><line x1="342" y1="125" x2="342" y2="115"/><line x1="346" y1="125" x2="346" y2="115"/><line x1="279" y1="125" x2="279" y2="115"/><line x1="316" y1="125" x2="316" y2="115"/><line x1="346" y1="125" x2="346" y2="115"/><line x1="305" y1="125" x2="305" y2="115"/><line x1="242" y1="125" x2="242" y2="115"/><line x1="208" y1="125" x2="208" y2="115"/><line x1="186" y1="125" x2="186" y2="115"/><line x1="167" y1="125" x2="167" y2="115"/><line x1="153" y1="125" x2="153" y2="115"/><line x1="138" y1="125" x2="138" y2="115"/><line x1="123" y1="125" x2="123" y2="115"/><line x1="112" y1="125" x2="112" y2="115"/><line x1="112" y1="125" x2="112" y2="115"/><line x1="208" y1="125" x2="208" y2="115"/><line x1="234" y1="125" x2="234" y2="115"/><line x1="175" y1="125" x2="175" y2="115"/><line x1="257" y1="125" x2="257" y2="115"/><line x1="335" y1="125" x2="335" y2="115"/><line x1="342" y1="125" x2="342" y2="115"/><line x1="279" y1="125" x2="279" y2="115"/><line x1="257" y1="125" x2="257" y2="115"/><line x1="357" y1="125" x2="357" y2="115"/><line x1="365" y1="125" x2="365" y2="115"/><line x1="354" y1="125" x2="354" y2="115"/><line x1="261" y1="125" x2="261" y2="115"/><line x1="283" y1="125" x2="283" y2="115"/><line x1="305" y1="125" x2="305" y2="115"/><line x1="361" y1="125" x2="361" y2="115"/><line x1="328" y1="125" x2="328" y2="115"/><line x1="231" y1="125" x2="231" y2="115"/><line x1="305" y1="125" x2="305" y2="115"/><line x1="354" y1="125" x2="354" y2="115"/><line x1="354" y1="125" x2="354" y2="115"/><line x1="294" y1="125" x2="294" y2="115"/><line x1="208" y1="125" x2="208" y2="115"/><line x1="305" y1="125" x2="305" y2="115"/><line x1="302" y1="125" x2="302" y2="115"/><line x1="339" y1="125" x2="339" y2="115"/><line x1="279" y1="125" x2="279" y2="115"/><line x1="208" y1="125" x2="208" y2="115"/><line x1="298" y1="125" x2="298" y2="115"/></g>
</g>
<g id="legendBackground" stroke="rgb(255,255,0)" fill="rgb(255,255,255)" stroke-width="1"><rect x="395" y="56" width="93.5" height="42"/><rect x="395" y="56" width="93.5" height="42"/></g>
<g id="legendPoints"><g stroke="rgb(255,0,0)" stroke-width="2"><line x1="409" y1="89" x2="409" y2="79"/></g>
</g>
<g id="legendText">
<text x="430" y="84" font-size="14" font-family="Verdana">Inside</text></g>
<g id="title">
<text x="250" y="36" text-anchor="middle" font-size="18" font-family="Verdana">Inside temp at Long: 2:45:16.2W, Lat:54:17:47.1N</text></g>
</svg>
