<?xml version="1.0" encoding="UTF-8" standalone="no"?>
<svg width="500" height ="400" version="1.1"
xmlns:svg ="http://www.w3.org/2000/svg"
xmlns:rdf="http://www.w3.org/1999/02/22-rdf-syntax-ns#"
xmlns:cc="http://web.resource.org/cc/"
xmlns:dc="http://purl.org/dc/elements/1.1/"
xmlns ="http://www.w3.org/2000/svg"
>
<!-- SVG plot written using Boost.Plot program (Creator Jacob Voytko) --> 
<!-- Use, modification and distribution of Boost.Plot subject to the --> 
<!-- Boost Software License, Version 1.0.--> 
<!-- (See accompanying file LICENSE_1_0.txt --> 
<!-- or copy at http://www.boost.org/LICENSE_1_0.txt) --> 

	<clipPath id="plot_window">		<rect x="53.6" y="40.5" width="357" height="328"/>
	</clipPath>
	<g id="imageBackground" stroke="rgb(0,0,255)" fill="rgb(255,255,255)" stroke-width="2">
		<rect x="0" y="0" width="500" height="400"/>
	</g>
	<g id="plotBackground" stroke="rgb(119,136,153)" fill="rgb(255,255,255)" stroke-width="2">
		<rect x="52.6" y="39.5" width="359" height="330"/>
	</g>
	<g id="yMinorGrid" stroke="rgb(200,220,255)" stroke-width="0.5">
	</g>
	<g id="yMajorGrid" stroke="rgb(200,220,255)" stroke-width="1">
	</g>
	<g id="xMinorGrid" stroke="rgb(200,220,255)" stroke-width="0.5">
	</g>
	<g id="xMajorGrid" stroke="rgb(200,220,255)" stroke-width="1">
	</g>
	<g id="yAxis" stroke="rgb(0,0,0)" stroke-width="1">
		<line x1="232" y1="39.5" x2="232" y2="374"/>
		<line x1="52.6" y1="39.5" x2="52.6" y2="369"/>
	</g>
	<g id="xAxis" stroke="rgb(0,0,0)" stroke-width="1">
		<line x1="47.6" y1="204" x2="412" y2="204"/>
		<line x1="47.6" y1="369" x2="412" y2="369"/>
	</g>
	<g id="yMinorTicks" stroke="rgb(0,0,0)" stroke-width="1">
		<path d="
			M50.6,198 L52.6,198 
			M50.6,191 L52.6,191 
			M50.6,184 L52.6,184 
			M50.6,178 L52.6,178 
			M50.6,165 L52.6,165 
			M50.6,158 L52.6,158 
			M50.6,152 L52.6,152 
			M50.6,145 L52.6,145 
			M50.6,132 L52.6,132 
			M50.6,125 L52.6,125 
			M50.6,119 L52.6,119 
			M50.6,112 L52.6,112 
			M50.6,98.8 L52.6,98.8 
			M50.6,92.2 L52.6,92.2 
			M50.6,85.6 L52.6,85.6 
			M50.6,79 L52.6,79 
			M50.6,65.9 L52.6,65.9 
			M50.6,59.3 L52.6,59.3 
			M50.6,52.7 L52.6,52.7 
			M50.6,46.1 L52.6,46.1 
			M50.6,204 L52.6,204 
			M50.6,211 L52.6,211 
			M50.6,217 L52.6,217 
			M50.6,224 L52.6,224 
			M50.6,231 L52.6,231 
			M50.6,237 L52.6,237 
			M50.6,244 L52.6,244 
			M50.6,250 L52.6,250 
			M50.6,257 L52.6,257 
			M50.6,264 L52.6,264 
			M50.6,270 L52.6,270 
			M50.6,270 L52.6,270 
			M50.6,277 L52.6,277 
			M50.6,283 L52.6,283 
			M50.6,290 L52.6,290 
			M50.6,297 L52.6,297 
			M50.6,303 L52.6,303 
			M50.6,310 L52.6,310 
			M50.6,316 L52.6,316 
			M50.6,323 L52.6,323 
			M50.6,329 L52.6,329 
			M50.6,336 L52.6,336 
			M50.6,343 L52.6,343 
			M50.6,349 L52.6,349 
			M50.6,356 L52.6,356 
			M50.6,362 L52.6,362 
			M50.6,369 L52.6,369 
			" fill="none"/>
	</g>
	<g id="xMinorTicks" stroke="rgb(0,0,0)" stroke-width="1">
		<path d="
			M239,369 L239,371 
			M247,369 L247,371 
			M254,369 L254,371 
			M261,369 L261,371 
			M275,369 L275,371 
			M282,369 L282,371 
			M290,369 L290,371 
			M297,369 L297,371 
			M311,369 L311,371 
			M318,369 L318,371 
			M326,369 L326,371 
			M333,369 L333,371 
			M347,369 L347,371 
			M354,369 L354,371 
			M362,369 L362,371 
			M369,369 L369,371 
			M383,369 L383,371 
			M390,369 L390,371 
			M397,369 L397,371 
			M405,369 L405,371 
			M225,369 L225,371 
			M218,369 L218,371 
			M211,369 L211,371 
			M203,369 L203,371 
			M189,369 L189,371 
			M182,369 L182,371 
			M175,369 L175,371 
			M168,369 L168,371 
			M153,369 L153,371 
			M146,369 L146,371 
			M139,369 L139,371 
			M132,369 L132,371 
			M117,369 L117,371 
			M110,369 L110,371 
			M103,369 L103,371 
			M95.7,369 L95.7,371 
			M81.3,369 L81.3,371 
			M74.2,369 L74.2,371 
			M67,369 L67,371 
			M59.8,369 L59.8,371 
			" fill="none"/>
	</g>
	<g id="yMajorTicks" stroke="rgb(0,0,0)" stroke-width="2">
		<path d="
			M47.6,204 L52.6,204 
			M47.6,171 L52.6,171 
			M47.6,138 L52.6,138 
			M47.6,105 L52.6,105 
			M47.6,72.4 L52.6,72.4 
			M47.6,39.5 L52.6,39.5 
			M47.6,204 L52.6,204 
			M47.6,237 L52.6,237 
			M47.6,270 L52.6,270 
			M47.6,303 L52.6,303 
			M47.6,336 L52.6,336 
			M47.6,369 L52.6,369 
			" fill="none"/>
	</g>
	<g id="xMajorTicks" stroke="rgb(0,0,0)" stroke-width="2">
		<path d="
			M232,369 L232,374 
			M268,369 L268,374 
			M304,369 L304,374 
			M340,369 L340,374 
			M376,369 L376,374 
			M412,369 L412,374 
			M232,369 L232,374 
			M196,369 L196,374 
			M160,369 L160,374 
			M124,369 L124,374 
			M88.5,369 L88.5,374 
			M52.6,369 L52.6,374 
			" fill="none"/>
	</g>
	<g id="xTicksValues" font-size="12" font-family="Lucida Sans Unicode" text-anchor="middle">
		<text x="232" y="390">0
		</text>
		<text x="268" y="390">2
		</text>
		<text x="304" y="390">4
		</text>
		<text x="340" y="390">6
		</text>
		<text x="376" y="390">8
		</text>
		<text x="412" y="390">10
		</text>
		<text x="232" y="390">0
		</text>
		<text x="196" y="390">-2
		</text>
		<text x="160" y="390">-4
		</text>
		<text x="124" y="390">-6
		</text>
		<text x="88.5" y="390">-8
		</text>
		<text x="52.6" y="390">-10
		</text>
	</g>
	<g id="yTicksValues" font-size="12" font-family="Lucida Sans Unicode" text-anchor="end">
		<text x="41.6" y="207">0
		</text>
		<text x="41.6" y="174">2
		</text>
		<text x="41.6" y="141">4
		</text>
		<text x="41.6" y="108">6
		</text>
		<text x="41.6" y="74.8">8
		</text>
		<text x="41.6" y="41.9">10
		</text>
		<text x="41.6" y="207">0
		</text>
		<text x="41.6" y="240">-2
		</text>
		<text x="41.6" y="273">-4
		</text>
		<text x="41.6" y="306">-6
		</text>
		<text x="41.6" y="338">-8
		</text>
		<text x="41.6" y="371">-10
		</text>
	</g>
	<g id="yLabel">
		<text x="14.9" y="204" text-anchor="middle" transform="rotate(-90 14.9 204)" font-size="14" font-family="Lucida Sans Unicode">
		</text>
	</g>
	<g id="xLabel">
		<text x="232" y="402" text-anchor="middle" font-size="12" font-family="Lucida Sans Unicode">
		</text>
	</g>
	<g id="plotPoints" clip-path="url(#plot_window)">
	<g stroke="rgb(0,255,255)">
		<path d="
			M177,305 L232,305 
			M329,127 L232,127 
			" stroke-width="5" fill="none"/>
	</g>
	</g>
	<g id="legendBackground" stroke="rgb(255,255,0)" fill="rgb(255,255,255)" stroke-width="1">
		<rect x="418" y="39.5" width="68.2" height="31.2"/>
	</g>
	<g id="legendPoints">
	</g>
	<g id="legendText">
		<text x="430" y="57.2" font-size="10" font-family="Lucida Sans Unicode" font-weight="normal" textLength="49.2">Series 2
		</text>
	</g>
	<g id="title">
		<text x="250" y="27" text-anchor="middle" font-size="18" font-family="Lucida Sans Unicode" font-weight="normal">Y Times
		</text>
	</g>
	<g id="plotXValues">
	</g>
	<g id="plotYValues">
	</g>
</svg>
