<?xml version="1.0" encoding="UTF-8" standalone="no"?>
<svg width="500" height ="200" version="1.1"
xmlns:svg ="http://www.w3.org/2000/svg"
xmlns:rdf="http://www.w3.org/1999/02/22-rdf-syntax-ns#"
xmlns:cc="http://web.resource.org/cc/"
xmlns:dc="http://purl.org/dc/elements/1.1/"
xmlns ="http://www.w3.org/2000/svg"
>
<!-- SVG plot written using Boost.Plot program (Creator Jacob Voytko) --> 
<!-- Use, modification and distribution of Boost.Plot subject to the --> 
<!-- Boost Software License, Version 1.0.--> 
<!-- (See accompanying file LICENSE_1_0.txt --> 
<!-- or copy at http://www.boost.org/LICENSE_1_0.txt) --> 

<!-- File demo_1d_autoscaling_1.svg --> 
<g id="imageBackground" stroke="rgb(255,255,0)" fill="rgb(255,255,255)" stroke-width="1"><rect x="0" y="0" width="500" height="200"/></g>
<g id="plotBackground" stroke="rgb(250,250,210)" fill="rgb(255,255,255)" stroke-width="1"><rect x="21" y="56" width="458" height="100"/></g>
<g id="xMinorGrid" stroke="rgb(200,220,255)" stroke-width="0.5"></g>
<g id="xMajorGrid" stroke="rgb(200,220,255)" stroke-width="1"></g>
<g id="xAxis" stroke="rgb(0,0,0)" stroke-width="1"><line x1="21" y1="56" x2="21" y2="156"/><line x1="21" y1="108" x2="479" y2="108"/></g>
<g id="xMinorTicks" stroke="rgb(0,0,0)" stroke-width="1"><path d="M34.1,108 L34.1,110 M47.2,108 L47.2,110 M60.3,108 L60.3,110 M73.3,108 L73.3,110 M99.5,108 L99.5,110 M113,108 L113,110 M126,108 L126,110 M139,108 L139,110 M165,108 L165,110 M178,108 L178,110 M191,108 L191,110 M204,108 L204,110 M230,108 L230,110 M243,108 L243,110 M257,108 L257,110 M270,108 L270,110 M296,108 L296,110 M309,108 L309,110 M322,108 L322,110 M335,108 L335,110 M361,108 L361,110 M374,108 L374,110 M387,108 L387,110 M400,108 L400,110 M427,108 L427,110 M440,108 L440,110 M453,108 L453,110 M466,108 L466,110 " fill="none"/></g>
<g id="xMajorTicks" stroke="rgb(0,0,0)" stroke-width="2"><path d="M21,108 L21,114 M86.4,108 L86.4,114 M152,108 L152,114 M217,108 L217,114 M283,108 L283,114 M348,108 L348,114 M414,108 L414,114 M479,108 L479,114 M21,108 L21,114 " fill="none"/></g>
<g id="xTicksValues">
<text x="86.4" y="129" text-anchor="middle" font-size="12" font-family="Verdana">1</text>
<text x="152" y="129" text-anchor="middle" font-size="12" font-family="Verdana">2</text>
<text x="217" y="129" text-anchor="middle" font-size="12" font-family="Verdana">3</text>
<text x="283" y="129" text-anchor="middle" font-size="12" font-family="Verdana">4</text>
<text x="348" y="129" text-anchor="middle" font-size="12" font-family="Verdana">5</text>
<text x="414" y="129" text-anchor="middle" font-size="12" font-family="Verdana">6</text>
<text x="479" y="129" text-anchor="middle" font-size="12" font-family="Verdana">7</text></g>
<g id="xLabel">
<text x="250" y="180" text-anchor="middle" font-size="14" font-family="Verdana">X values</text></g>
<g id="plotPoints"><g stroke="rgb(0,0,0)"><line x1="34.1" y1="108" x2="34.1" y2="98"/><line x1="93" y1="108" x2="93" y2="98"/><line x1="296" y1="108" x2="296" y2="98"/><line x1="237" y1="108" x2="237" y2="98"/><line x1="374" y1="108" x2="374" y2="98"/><line x1="446" y1="108" x2="446" y2="98"/></g>
</g>
<g id="title">
<text x="250" y="36" text-anchor="middle" font-size="18" font-family="Verdana">Demo 1D autoscaling</text></g>
</svg>
