<?xml version="1.0" encoding="UTF-8" standalone="no"?>
<svg width="500" height ="200" version="1.1"
xmlns:svg ="http://www.w3.org/2000/svg"
xmlns:rdf="http://www.w3.org/1999/02/22-rdf-syntax-ns#"
xmlns:cc="http://web.resource.org/cc/"
xmlns:dc="http://purl.org/dc/elements/1.1/"
xmlns ="http://www.w3.org/2000/svg"
>
<!-- SVG plot written using Boost.Plot program (Creator Jacob Voytko) --> 
<!-- Use, modification and distribution of Boost.Plot subject to the --> 
<!-- Boost Software License, Version 1.0.--> 
<!-- (See accompanying file LICENSE_1_0.txt --> 
<!-- or copy at http://www.boost.org/LICENSE_1_0.txt) --> 

<!-- File demo_colors.svg --> 
<g id="imageBackground" stroke="rgb(255,255,0)" fill="rgb(255,255,255)" stroke-width="1"><rect x="0" y="0" width="500" height="200"/></g>
<g id="plotBackground" stroke="rgb(250,250,210)" fill="rgb(255,255,255)" stroke-width="1"><rect x="21" y="42.5" width="357" height="129"/></g>
<g id="xMinorGrid" stroke="rgb(200,220,255)" stroke-width="0.5"></g>
<g id="xMajorGrid" stroke="rgb(200,220,255)" stroke-width="1"></g>
<g id="xAxis" stroke="rgb(0,0,255)" stroke-width="1"><line x1="21" y1="42.5" x2="21" y2="172"/><line x1="21" y1="110" x2="378" y2="110"/></g>
<g id="xMinorTicks" stroke="rgb(0,0,0)" stroke-width="1"><path d="M41.4,110 L41.4,112 M61.8,110 L61.8,112 M82.2,110 L82.2,112 M103,110 L103,112 M143,110 L143,112 M164,110 L164,112 M184,110 L184,112 M205,110 L205,112 M246,110 L246,112 M266,110 L266,112 M286,110 L286,112 M307,110 L307,112 M348,110 L348,112 M368,110 L368,112 " fill="none"/></g>
<g id="xMajorTicks" stroke="rgb(0,0,0)" stroke-width="2"><path d="M21,110 L21,114 M123,110 L123,114 M225,110 L225,114 M327,110 L327,114 M21,110 L21,114 " fill="none"/></g>
<g id="xTicksValues">
<text x="123" y="128" text-anchor="middle" font-size="10" font-family="Verdana">2</text>
<text x="225" y="128" text-anchor="middle" font-size="10" font-family="Verdana">4</text>
<text x="327" y="128" text-anchor="middle" font-size="10" font-family="Verdana">6</text></g>
<g id="xLabel" stroke="rgb(255,0,255)" fill="rgb(255,0,255)">
<text x="200" y="188" text-anchor="middle" font-size="10" font-family="Verdana">axis</text></g>
<g id="plotPoints"><g stroke="rgb(0,0,0)"><line x1="72" y1="109" x2="72" y2="99"/><line x1="123" y1="109" x2="123" y2="99"/><line x1="174" y1="109" x2="174" y2="99"/></g>
</g>
<g id="legendBackground" stroke="rgb(255,255,0)" fill="rgb(255,255,255)" stroke-width="1"><rect x="384" y="42.5" width="106" height="49.5"/></g>
<g id="legendPoints"><g stroke="rgb(0,0,0)"><line x1="396" y1="85" x2="396" y2="75"/></g>
</g>
<g id="legendText">
<text x="437" y="63.5" text-anchor="middle" font-size="12" font-family="Lucida Sans Unicode" textLength="79.2">Legend title</text>
<text x="404" y="81" font-size="10" font-family="Verdana">My Data</text></g>
<g id="title">
<text x="250" y="27" text-anchor="middle" font-size="18" font-family="Verdana">Demo SVG colors</text></g>
</svg>
