<?xml version="1.0" encoding="UTF-8" standalone="no"?>
<svg width="500" height ="200" version="1.1"
xmlns:svg ="http://www.w3.org/2000/svg"
xmlns:rdf="http://www.w3.org/1999/02/22-rdf-syntax-ns#"
xmlns:cc="http://web.resource.org/cc/"
xmlns:dc="http://purl.org/dc/elements/1.1/"
xmlns ="http://www.w3.org/2000/svg"
>
<!-- SVG plot written using Boost.Plot program (Creator Jacob Voytko) --> 
<!-- Use, modification and distribution of Boost.Plot subject to the --> 
<!-- Boost Software License, Version 1.0.--> 
<!-- (See accompanying file LICENSE_1_0.txt --> 
<!-- or copy at http://www.boost.org/LICENSE_1_0.txt) --> 

<!-- File demo_1d_limits.svg --> 
<g id="imageBackground" stroke="rgb(255,255,0)" fill="rgb(255,255,255)" stroke-width="1"><rect x="0" y="0" width="500" height="200"/></g>
<g id="plotBackground" stroke="rgb(250,250,210)" fill="rgb(255,255,255)" stroke-width="1"><rect x="21" y="56" width="458" height="100"/></g>
<g id="xMinorGrid" stroke="rgb(200,220,255)" stroke-width="0.5"></g>
<g id="xMajorGrid" stroke="rgb(200,220,255)" stroke-width="1"></g>
<g id="xAxis" stroke="rgb(0,0,0)" stroke-width="1"><line x1="250" y1="56" x2="250" y2="156"/><line x1="21" y1="108" x2="479" y2="108"/></g>
<g id="xMinorTicks" stroke="rgb(0,0,0)" stroke-width="1"><path d="M268,108 L268,110 M287,108 L287,110 M305,108 L305,110 M323,108 L323,110 M360,108 L360,110 M378,108 L378,110 M397,108 L397,110 M415,108 L415,110 M452,108 L452,110 M470,108 L470,110 M232,108 L232,110 M213,108 L213,110 M195,108 L195,110 M177,108 L177,110 M140,108 L140,110 M122,108 L122,110 M103,108 L103,110 M85.1,108 L85.1,110 M48.5,108 L48.5,110 M30.2,108 L30.2,110 " fill="none"/></g>
<g id="xMajorTicks" stroke="rgb(0,0,0)" stroke-width="2"><path d="M250,108 L250,114 M342,108 L342,114 M433,108 L433,114 M250,108 L250,114 M158,108 L158,114 M66.8,108 L66.8,114 " fill="none"/></g>
<g id="xTicksValues">
<text x="342" y="129" text-anchor="middle" font-size="12" font-family="Verdana">2</text>
<text x="433" y="129" text-anchor="middle" font-size="12" font-family="Verdana">4</text>
<text x="158" y="129" text-anchor="middle" font-size="12" font-family="Verdana">-2</text>
<text x="66.8" y="129" text-anchor="middle" font-size="12" font-family="Verdana">-4</text></g>
<g id="xLabel">
<text x="250" y="180" text-anchor="middle" font-size="14" font-family="Verdana">length (m)</text></g>
<g id="plotPoints"><g stroke="rgb(0,0,0)">
<text x="177" y="105" text-anchor="middle" font-size="5" font-family="Lucida Sans Unicode">&#x25CB;</text>
<text x="342" y="105" text-anchor="middle" font-size="5" font-family="Lucida Sans Unicode">&#x25CB;</text>
<text x="445" y="105" text-anchor="middle" font-size="5" font-family="Lucida Sans Unicode">&#x25CB;</text>
<text x="66.8" y="105" text-anchor="middle" font-size="5" font-family="Lucida Sans Unicode">&#x25CB;</text></g>
</g>
<g id="limitPoints" stroke="rgb(0,128,0)" fill="rgb(255,255,255)">
<text x="484" y="112" text-anchor="middle" font-size="10" font-family="Lucida Sans Unicode">&#x25B9;</text>
<text x="16" y="112" text-anchor="middle" font-size="10" font-family="Lucida Sans Unicode">&#x25C3;</text>
<text x="250" y="115" text-anchor="middle" font-size="20" font-family="Lucida Sans Unicode">&#x25BD;</text></g>
<g id="title">
<text x="250" y="36" text-anchor="middle" font-size="18" font-family="Verdana">Default 1D NaN and infinities Demo</text></g>
<g id="plotXValues"><g>
<text x="177" y="93" text-anchor="middle" font-size="10" font-family="Verdana">-1.6</text></g>
<g>
<text x="342" y="93" text-anchor="middle" font-size="10" font-family="Verdana">2</text></g>
<g>
<text x="445" y="93" text-anchor="middle" font-size="10" font-family="Verdana">4.26</text></g>
<g>
<text x="66.8" y="93" text-anchor="middle" font-size="10" font-family="Verdana">-4</text></g>
</g>
</svg>
