<?xml version="1.0" encoding="UTF-8" standalone="no"?>
<svg width="500" height ="400" version="1.1"
xmlns:svg ="http://www.w3.org/2000/svg"
xmlns:rdf="http://www.w3.org/1999/02/22-rdf-syntax-ns#"
xmlns:cc="http://web.resource.org/cc/"
xmlns:dc="http://purl.org/dc/elements/1.1/"
xmlns ="http://www.w3.org/2000/svg"
>
<!-- SVG plot written using Boost.Plot program (Creator Jacob Voytko) --> 
<!-- Use, modification and distribution of Boost.Plot subject to the --> 
<!-- Boost Software License, Version 1.0.--> 
<!-- (See accompanying file LICENSE_1_0.txt --> 
<!-- or copy at http://www.boost.org/LICENSE_1_0.txt) --> 

<clipPath id="plot_window">	<rect x="56.7" y="9" width="416" height="344"/>
</clipPath>
	<g id="imageBackground" stroke="rgb(255,255,0)" fill="rgb(255,255,255)" stroke-width="2">
	<rect x="0" y="0" width="500" height="400"/>
</g>
	<g id="plotBackground" stroke="rgb(119,136,153)" fill="rgb(255,255,255)" stroke-width="2">
	<rect x="55.7" y="8" width="418" height="346"/>
</g>
	<g id="yMinorGrid" stroke="rgb(200,220,255)" stroke-width="0.5">
</g>
	<g id="yMajorGrid" stroke="rgb(200,220,255)" stroke-width="1">
</g>
	<g id="xMinorGrid" stroke="rgb(200,220,255)" stroke-width="0.5">
</g>
	<g id="xMajorGrid" stroke="rgb(200,220,255)" stroke-width="1">
</g>
	<g id="yAxis" stroke="rgb(0,0,0)" stroke-width="1">
	<line x1="55.7" y1="8" x2="55.7" y2="359"/>
	<line x1="55.7" y1="8" x2="55.7" y2="354"/>
</g>
	<g id="xAxis" stroke="rgb(0,0,0)" stroke-width="1">
	<line x1="50.7" y1="354" x2="474" y2="354"/>
	<line x1="50.7" y1="354" x2="474" y2="354"/>
</g>
	<g id="yMinorTicks" stroke="rgb(0,0,0)" stroke-width="1">
	<path d="M53.7,326 L55.7,326 
M53.7,299 L55.7,299 
M53.7,271 L55.7,271 
M53.7,243 L55.7,243 
M53.7,188 L55.7,188 
M53.7,160 L55.7,160 
M53.7,133 L55.7,133 
M53.7,105 L55.7,105 
M53.7,49.5 L55.7,49.5 
M53.7,21.8 L55.7,21.8 
M53.7,354 L55.7,354 
" fill="none"/>
</g>
	<g id="xMinorTicks" stroke="rgb(0,0,0)" stroke-width="1">
	<path d="M64.1,354 L64.1,356 
M72.4,354 L72.4,356 
M80.8,354 L80.8,356 
M89.2,354 L89.2,356 
M106,354 L106,356 
M114,354 L114,356 
M123,354 L123,356 
M131,354 L131,356 
M148,354 L148,356 
M156,354 L156,356 
M164,354 L164,356 
M173,354 L173,356 
M190,354 L190,356 
M198,354 L198,356 
M206,354 L206,356 
M215,354 L215,356 
M231,354 L231,356 
M240,354 L240,356 
M248,354 L248,356 
M256,354 L256,356 
M273,354 L273,356 
M282,354 L282,356 
M290,354 L290,356 
M298,354 L298,356 
M315,354 L315,356 
M323,354 L323,356 
M332,354 L332,356 
M340,354 L340,356 
M357,354 L357,356 
M365,354 L365,356 
M374,354 L374,356 
M382,354 L382,356 
M399,354 L399,356 
M407,354 L407,356 
M415,354 L415,356 
M424,354 L424,356 
M441,354 L441,356 
M449,354 L449,356 
M457,354 L457,356 
M466,354 L466,356 
" fill="none"/>
</g>
	<g id="yMajorTicks" stroke="rgb(0,0,0)" stroke-width="2">
	<path d="M50.7,354 L55.7,354 
M50.7,216 L55.7,216 
M50.7,77.2 L55.7,77.2 
M50.7,354 L55.7,354 
" fill="none"/>
</g>
	<g id="xMajorTicks" stroke="rgb(0,0,0)" stroke-width="2">
	<path d="M55.7,354 L55.7,359 
M97.5,354 L97.5,359 
M139,354 L139,359 
M181,354 L181,359 
M223,354 L223,359 
M265,354 L265,359 
M307,354 L307,359 
M349,354 L349,359 
M390,354 L390,359 
M432,354 L432,359 
M474,354 L474,359 
M55.7,354 L55.7,359 
" fill="none"/>
</g>
	<g id="xTicksValues" font-size="12" font-family="Lucida Sans Unicode" text-anchor="middle">
	<text x="55.7" y="375">0
	</text>
	<text x="97.5" y="375">2
	</text>
	<text x="139" y="375">4
	</text>
	<text x="181" y="375">6
	</text>
	<text x="223" y="375">8
	</text>
	<text x="265" y="375">10
	</text>
	<text x="307" y="375">12
	</text>
	<text x="349" y="375">14
	</text>
	<text x="390" y="375">16
	</text>
	<text x="432" y="375">18
	</text>
	<text x="474" y="375">20
	</text>
	<text x="55.7" y="375">0
	</text>
</g>
	<g id="yTicksValues" font-size="12" font-family="Lucida Sans Unicode" text-anchor="end">
	<text x="44.7" y="356">0
	</text>
	<text x="44.7" y="218">2
	</text>
	<text x="44.7" y="79.6">4
	</text>
	<text x="44.7" y="356">0
	</text>
</g>
	<g id="yLabel">
	<text x="32.4" y="181" text-anchor="middle" transform="rotate(-90 32.4 181)" font-size="14" font-family="Lucida Sans Unicode">Y axis label font default size 14
	</text>
</g>
	<g id="xLabel">
	<text x="265" y="387" text-anchor="middle" font-size="12" font-family="Lucida Sans Unicode">X axis label font default size 14
	</text>
</g>
	<g id="plotPoints" clip-path="url(#plot_window)">
	<g stroke="rgb(255,0,0)" fill="rgb(255,255,255)" font-size="10" font-family="Lucida Sans Unicode" text-anchor="middle">
	<text x="76.6" y="288" text-anchor="middle">&#x25CF;
	</text>
	<text x="97.5" y="259" text-anchor="middle">&#x25CF;
	</text>
	<text x="118" y="237" text-anchor="middle">&#x25CF;
	</text>
	<text x="139" y="219" text-anchor="middle">&#x25CF;
	</text>
	<text x="160" y="202" text-anchor="middle">&#x25CF;
	</text>
	<text x="181" y="187" text-anchor="middle">&#x25CF;
	</text>
	<text x="202" y="174" text-anchor="middle">&#x25CF;
	</text>
	<text x="223" y="161" text-anchor="middle">&#x25CF;
	</text>
	<text x="244" y="149" text-anchor="middle">&#x25CF;
	</text>
	<text x="265" y="138" text-anchor="middle">&#x25CF;
	</text>
	<text x="286" y="127" text-anchor="middle">&#x25CF;
	</text>
	<text x="307" y="117" text-anchor="middle">&#x25CF;
	</text>
	<text x="328" y="107" text-anchor="middle">&#x25CF;
	</text>
	<text x="349" y="98" text-anchor="middle">&#x25CF;
	</text>
	<text x="369" y="88.9" text-anchor="middle">&#x25CF;
	</text>
	<text x="390" y="80.1" text-anchor="middle">&#x25CF;
	</text>
	<text x="411" y="71.6" text-anchor="middle">&#x25CF;
	</text>
	<text x="432" y="63.4" text-anchor="middle">&#x25CF;
	</text>
	<text x="453" y="55.3" text-anchor="middle">&#x25CF;
	</text>
	<text x="474" y="47.5" text-anchor="middle">&#x25CF;
	</text>
</g>
</g>
	<g id="title">
	<text x="250" y="27" text-anchor="middle" font-size="18" font-family="Lucida Sans Unicode" font-weight="normal">
	</text>
</g>
	<g id="plotXValues">
</g>
	<g id="plotYValues">
</g>
</svg>
