<?xml version="1.0" encoding="UTF-8" standalone="no"?>
<svg width="500" height ="200" version="1.1"
xmlns:svg ="http://www.w3.org/2000/svg"
xmlns:rdf="http://www.w3.org/1999/02/22-rdf-syntax-ns#"
xmlns:cc="http://web.resource.org/cc/"
xmlns:dc="http://purl.org/dc/elements/1.1/"
xmlns ="http://www.w3.org/2000/svg"
>
<!-- SVG plot written using Boost.Plot program (Creator Jacob Voytko) --> 
<!-- Use, modification and distribution of Boost.Plot subject to the --> 
<!-- Boost Software License, Version 1.0.--> 
<!-- (See accompanying file LICENSE_1_0.txt --> 
<!-- or copy at http://www.boost.org/LICENSE_1_0.txt) --> 

<!-- File ./demo_1d_x_external.svg --> 

<g id="imageBackground" stroke="rgb(0,0,0)" fill="rgb(255,255,255)" stroke-width="1">
	<rect x="0" y="0" width="500" height="200"/>
</g>

<g id="plotBackground" stroke="rgb(250,250,210)" fill="rgb(255,255,255)" stroke-width="1">
	<rect x="21" y="42.5" width="411" height="142"/>
</g>

<g id="xMinorGrid" stroke="rgb(211,211,211)" stroke-width="0.5">
	<path d="M73.3,43.5 L73.3,183 
M88.2,43.5 L88.2,183 
M103,43.5 L103,183 
M118,43.5 L118,183 
M148,43.5 L148,183 
M163,43.5 L163,183 
M178,43.5 L178,183 
M193,43.5 L193,183 
M223,43.5 L223,183 
M238,43.5 L238,183 
M253,43.5 L253,183 
M267,43.5 L267,183 
M297,43.5 L297,183 
M312,43.5 L312,183 
M327,43.5 L327,183 
M342,43.5 L342,183 
M372,43.5 L372,183 
M387,43.5 L387,183 
M402,43.5 L402,183 
M417,43.5 L417,183 
M43.4,43.5 L43.4,183 
M28.5,43.5 L28.5,183 
" fill="none"/>
</g>

<g id="xMajorGrid" stroke="rgb(255,192,203)" stroke-width="1">
	<path d="M58.3,42.5 L58.3,184 
M133,42.5 L133,184 
M208,42.5 L208,184 
M282,42.5 L282,184 
M357,42.5 L357,184 
M432,42.5 L432,184 
M58.3,42.5 L58.3,184 
" fill="none"/>
</g>

<g id="xAxis" stroke="rgb(0,0,0)" stroke-width="1">
	<line x1="58.3" y1="42.5" x2="58.3" y2="184"/>
	<line x1="21" y1="116" x2="432" y2="116"/>
	<line x1="21" y1="42.5" x2="432" y2="42.5"/>
</g>

<g id="xMinorTicks" stroke="rgb(0,0,0)" stroke-width="1">
	<path d="M73.3,42.5 L73.3,44.5 
M88.2,42.5 L88.2,44.5 
M103,42.5 L103,44.5 
M118,42.5 L118,44.5 
M148,42.5 L148,44.5 
M163,42.5 L163,44.5 
M178,42.5 L178,44.5 
M193,42.5 L193,44.5 
M223,42.5 L223,44.5 
M238,42.5 L238,44.5 
M253,42.5 L253,44.5 
M267,42.5 L267,44.5 
M297,42.5 L297,44.5 
M312,42.5 L312,44.5 
M327,42.5 L327,44.5 
M342,42.5 L342,44.5 
M372,42.5 L372,44.5 
M387,42.5 L387,44.5 
M402,42.5 L402,44.5 
M417,42.5 L417,44.5 
M43.4,42.5 L43.4,44.5 
M28.5,42.5 L28.5,44.5 
" fill="none"/>
</g>

<g id="xMajorTicks" stroke="rgb(0,0,0)" stroke-width="2">
	<path d="M58.3,42.5 L58.3,47.5 
M133,42.5 L133,47.5 
M208,42.5 L208,47.5 
M282,42.5 L282,47.5 
M357,42.5 L357,47.5 
M432,42.5 L432,47.5 
M58.3,42.5 L58.3,47.5 
" fill="none"/>
</g>

<g id="xTicksValues" font-size="10" font-family="Verdana" text-anchor="middle">
	<text x="58.3" y="60.5">0
	</text>
	<text x="133" y="60.5">2
	</text>
	<text x="208" y="60.5">4
	</text>
	<text x="282" y="60.5">6
	</text>
	<text x="357" y="60.5">8
	</text>
	<text x="432" y="60.5">10
	</text>
	<text x="58.3" y="60.5">0
	</text>
</g>

<g id="xLabel">
	<text x="226" y="201" text-anchor="middle" font-size="10" font-family="Verdana">
	</text>
</g>

<g id="plotPoints">

<g stroke="rgb(0,0,255)">
	<line x1="174" y1="115" x2="174" y2="105"/>
	<line x1="215" y1="115" x2="215" y2="105"/>
</g>

<g stroke="rgb(255,165,0)">
	<line x1="137" y1="115" x2="137" y2="105"/>
	<line x1="350" y1="115" x2="350" y2="105"/>
</g>
</g>

<g id="legendBackground" stroke="rgb(255,255,0)" fill="rgb(255,255,255)" stroke-width="1">
	<rect x="438" y="42.5" width="53.2" height="27"/>
</g>

<g id="legendPoints">

<g stroke="rgb(0,0,255)">
	<line x1="444" y1="60" x2="444" y2="50"/>
</g>

<g stroke="rgb(255,165,0)">
	<line x1="444" y1="72.5" x2="444" y2="62.5"/>
</g>
</g>

<g id="legendText">
	<text x="451" y="56" font-size="10" font-family="Verdana" textLength="19.2">Dan
	</text>
	<text x="451" y="68.5" font-size="10" font-family="Verdana" textLength="37.2">Elaine
	</text>
</g>

<g id="title">
	<text x="250" y="27" text-anchor="middle" font-size="18" font-family="Verdana">Race Times
	</text>
</g>
</svg>
