<?xml version="1.0" encoding="UTF-8" standalone="no"?>
<svg width="700" height ="500" version="1.1"
xmlns:svg ="http://www.w3.org/2000/svg"
xmlns:rdf="http://www.w3.org/1999/02/22-rdf-syntax-ns#"
xmlns:cc="http://web.resource.org/cc/"
xmlns:dc="http://purl.org/dc/elements/1.1/"
xmlns ="http://www.w3.org/2000/svg"
>
<!-- SVG plot written using Boost.Plot program (Creator Jacob Voytko) --> 
<!-- Use, modification and distribution of Boost.Plot subject to the --> 
<!-- Boost Software License, Version 1.0.--> 
<!-- (See accompanying file LICENSE_1_0.txt --> 
<!-- or copy at http://www.boost.org/LICENSE_1_0.txt) --> 

<clipPath id="plot_window"><rect x="58" y="49" width="525" height="414"/></clipPath>
<g id="imageBackground" stroke="rgb(255,255,0)" fill="rgb(248,248,255)" stroke-width="2"><rect x="0" y="0" width="700" height="500"/></g>
<g id="plotBackground" stroke="rgb(0,128,0)" fill="rgb(255,255,255)" stroke-width="1"><rect x="57" y="48" width="527" height="416"/></g>
<g id="yMinorGrid" stroke="rgb(240,240,255)" stroke-width="1"><path d="M58,242 L583,242 M58,228 L583,228 M58,201 L583,201 M58,187 L583,187 M58,159 L583,159 M58,145 L583,145 M58,117 L583,117 M58,103 L583,103 M58,75.7 L583,75.7 M58,61.9 L583,61.9 M58,256 L583,256 M58,270 L583,270 M58,284 L583,284 M58,298 L583,298 M58,311 L583,311 M58,325 L583,325 M58,339 L583,339 M58,339 L583,339 M58,353 L583,353 M58,367 L583,367 M58,381 L583,381 M58,395 L583,395 M58,409 L583,409 M58,422 L583,422 M58,436 L583,436 M58,450 L583,450 M58,464 L583,464 M58,464 L583,464 " fill="none"/></g>
<g id="yMajorGrid" stroke="rgb(200,220,255)" stroke-width="2"><path d="M58,256 L583,256 M58,214 L583,214 M58,173 L583,173 M58,131 L583,131 M58,89.6 L583,89.6 M58,48 L583,48 M58,256 L583,256 M58,298 L583,298 M58,339 L583,339 M58,381 L583,381 M58,422 L583,422 M58,464 L583,464 " fill="none"/></g>
<g id="xMinorGrid" stroke="rgb(240,240,255)" stroke-width="0.5"><path d="M565,49 L565,463 M487,49 L487,463 M448,49 L448,463 M369,49 L369,463 M330,49 L330,463 M252,49 L252,463 M213,49 L213,463 M135,49 L135,463 M96.1,49 L96.1,463 " fill="none"/></g>
<g id="xMajorGrid" stroke="rgb(200,220,255)" stroke-width="1"><path d="M526,48 L526,464 M408,48 L408,464 M291,48 L291,464 M174,48 L174,464 M57,48 L57,464 " fill="none"/></g>
<g id="yAxis" stroke="rgb(0,0,0)" stroke-width="1"><line x1="57" y1="48" x2="584" y2="464"/></g>
<g id="xAxis" stroke="rgb(0,0,0)" stroke-width="1"><line x1="57" y1="256" x2="584" y2="256"/></g>
<g id="yMinorTicks" stroke="rgb(0,0,0)" stroke-width="1"><path d="M579,242 L584,242 M579,228 L584,228 M579,201 L584,201 M579,187 L584,187 M579,159 L584,159 M579,145 L584,145 M579,117 L584,117 M579,103 L584,103 M579,75.7 L584,75.7 M579,61.9 L584,61.9 M579,256 L584,256 M579,270 L584,270 M579,284 L584,284 M579,298 L584,298 M579,311 L584,311 M579,325 L584,325 M579,339 L584,339 M579,339 L584,339 M579,353 L584,353 M579,367 L584,367 M579,381 L584,381 M579,395 L584,395 M579,409 L584,409 M579,422 L584,422 M579,436 L584,436 M579,450 L584,450 M579,464 L584,464 M579,464 L584,464 " fill="none"/></g>
<g id="xMinorTicks" stroke="rgb(0,0,0)" stroke-width="1"><path d="M565,256 L565,261 M487,256 L487,261 M448,256 L448,261 M369,256 L369,261 M330,256 L330,261 M252,256 L252,261 M213,256 L213,261 M135,256 L135,261 M96.1,256 L96.1,261 " fill="none"/></g>
<g id="yMajorTicks" stroke="rgb(0,0,0)" stroke-width="2"><path d="M574,256 L584,256 M574,214 L584,214 M574,173 L584,173 M574,131 L584,131 M574,89.6 L584,89.6 M574,48 L584,48 M574,256 L584,256 M574,298 L584,298 M574,339 L584,339 M574,381 L584,381 M574,422 L584,422 M574,464 L584,464 " fill="none"/></g>
<g id="xMajorTicks" stroke="rgb(0,0,0)" stroke-width="2"><path d="M526,256 L526,266 M408,256 L408,266 M291,256 L291,266 M174,256 L174,266 M57,256 L57,266 " fill="none"/></g>
<g id="xTicksValues">
<text x="526" y="282" text-anchor="middle" font-size="12" font-family="Lucida Sans Unicode">-2.00</text>
<text x="408" y="282" text-anchor="middle" font-size="12" font-family="Lucida Sans Unicode">-4.00</text>
<text x="291" y="282" text-anchor="middle" font-size="12" font-family="Lucida Sans Unicode">-6.00</text>
<text x="174" y="282" text-anchor="middle" font-size="12" font-family="Lucida Sans Unicode">-8.00</text>
<text x="57" y="282" text-anchor="middle" font-size="12" font-family="Lucida Sans Unicode">-1.00e1</text></g>
<g id="yTicksValues">
<text x="568" y="258" text-anchor="end" font-size="12" font-family="Lucida Sans Unicode">0.0</text>
<text x="568" y="217" text-anchor="end" font-size="12" font-family="Lucida Sans Unicode">2.0</text>
<text x="568" y="175" text-anchor="end" font-size="12" font-family="Lucida Sans Unicode">4.0</text>
<text x="568" y="134" text-anchor="end" font-size="12" font-family="Lucida Sans Unicode">6.0</text>
<text x="568" y="92" text-anchor="end" font-size="12" font-family="Lucida Sans Unicode">8.0</text>
<text x="568" y="50.4" text-anchor="end" font-size="12" font-family="Lucida Sans Unicode">10.0</text>
<text x="568" y="258" text-anchor="end" font-size="12" font-family="Lucida Sans Unicode">0.0</text>
<text x="568" y="300" text-anchor="end" font-size="12" font-family="Lucida Sans Unicode">-2.0</text>
<text x="568" y="342" text-anchor="end" font-size="12" font-family="Lucida Sans Unicode">-4.0</text>
<text x="568" y="383" text-anchor="end" font-size="12" font-family="Lucida Sans Unicode">-6.0</text>
<text x="568" y="425" text-anchor="end" font-size="12" font-family="Lucida Sans Unicode">-8.0</text>
<text x="568" y="466" text-anchor="end" font-size="12" font-family="Lucida Sans Unicode">-10.0</text></g>
<g id="yLabel">
<text x="19" y="256" text-anchor="middle" transform = "rotate(-90 19 256 )" font-size="14" font-family="Lucida Sans Unicode">Y-axis</text></g>
<g id="xLabel">
<text x="321" y="484" text-anchor="middle" font-size="12" font-family="Lucida Sans Unicode">X-axis</text></g>
<g id="plotLines" stroke-width="2"><g clip-path="url(#plot_window)" stroke="rgb(0,0,0)" stroke-width="2"><path d="M57,-1.78e+03 S104,-1.46e+03 116,-1.39e+03 S162,-1.1e+03 174,-1.03e+03 S221,-780 233,-722 S280,-501 291,-451 S338,-264 350,-222 S397,-68.5 408,-35.2 S455,85.4 467,110 S514,198 526,214 S573,268 584,277 S631,298 643,298 S690,285 701,277 S748,231 760,214 S807,135 819,110 S865,-1.92 877,-35.2 S924,-181 936,-222 S983,-401 994,-451 S1.04e+03,-663 1.05e+03,-722 S1.1e+03,-967 1.11e+03,-1.03e+03 S1.16e+03,-1.31e+03 1.17e+03,-1.39e+03 S1.23e+03,-1.82e+03 1.23e+03,-1.78e+03 " fill="none"/></g>
</g>
<g id="plotPoints" clip-path="url(#plot_window)"><g stroke="rgb(0,0,0)" fill="rgb(255,165,0)">
<text x="467" y="112" text-anchor="middle" font-size="5" font-family="Lucida Sans Unicode">&#x25CB;</text>
<text x="526" y="216" text-anchor="middle" font-size="5" font-family="Lucida Sans Unicode">&#x25CB;</text></g>
<g stroke="rgb(0,0,0)" fill="rgb(255,255,0)">
<text x="408" y="446" text-anchor="middle" font-size="10" font-family="Lucida Sans Unicode">&#x25A1;</text>
<text x="467" y="405" text-anchor="middle" font-size="10" font-family="Lucida Sans Unicode">&#x25A1;</text>
<text x="526" y="363" text-anchor="middle" font-size="10" font-family="Lucida Sans Unicode">&#x25A1;</text></g>
</g>
<g id="limitPoints" stroke="rgb(119,136,153)" fill="rgb(250,235,215)"><polygon points=" 52,246 62,246 57,256"/><polygon points=" 111,246 121,246 116,256"/><polygon points=" 169,246 179,246 174,256"/><polygon points=" 228,246 238,246 233,256"/><polygon points=" 286,246 296,246 291,256"/><polygon points=" 345,246 355,246 350,256"/><polygon points=" 403,246 413,246 408,256"/><polygon points=" 462,246 472,246 467,256"/><polygon points=" 521,246 531,246 526,256"/><polygon points=" 579,246 589,246 584,256"/></g>
<g id="legendBackground" stroke="rgb(255,255,0)" fill="rgb(255,255,224)" stroke-width="1"><rect x="590" y="48" width="95.8" height="77.6"/></g>
<g id="legendPoints"><g stroke="rgb(0,0,0)" fill="rgb(255,0,0)" stroke-width="2">
<text x="604" y="84.2" text-anchor="middle" font-size="10" font-family="Lucida Sans Unicode">&#x25CB;</text></g>
<g stroke="rgb(0,0,0)" fill="rgb(255,165,0)" stroke-width="2">
<text x="604" y="97" text-anchor="middle" font-size="5" font-family="Lucida Sans Unicode">&#x25CB;</text></g>
<g stroke="rgb(0,0,0)" fill="rgb(255,255,0)" stroke-width="3">
<text x="604" y="113" text-anchor="middle" font-size="10" font-family="Lucida Sans Unicode">&#x25A1;</text></g>
</g>
<g id="legendText">
<text x="638" y="66" text-anchor="middle" font-family="Lucida Sans Unicode" font-weight="normal">Unicode &#x3A9;&#x3A6;</text>
<text x="608" y="81" font-size="10" font-family="Lucida Sans Unicode" font-weight="normal">Sqrt(x)</text>
<text x="608" y="95.4" font-size="10" font-family="Lucida Sans Unicode" font-weight="normal">-2 + x^2</text>
<text x="608" y="110" font-size="10" font-family="Lucida Sans Unicode" font-weight="normal">-1 + 2x</text></g>
<g id="title" fill="rgb(255,0,0)">
<text x="350" y="30" text-anchor="middle" font-size="20" font-family="Lucida Sans Unicode" font-weight="normal">Plot of Mathematical Functions XN</text></g>
<g id="plotXValues"></g>
<g id="plotYValues"></g>
</svg>
