<?xml version="1.0" encoding="UTF-8" standalone="no"?>
<svg width="700" height ="500" version="1.1"
xmlns:svg ="http://www.w3.org/2000/svg"
xmlns:rdf="http://www.w3.org/1999/02/22-rdf-syntax-ns#"
xmlns:cc="http://web.resource.org/cc/"
xmlns:dc="http://purl.org/dc/elements/1.1/"
xmlns ="http://www.w3.org/2000/svg"
>
<!-- SVG plot written using Boost.Plot program (Creator Jacob Voytko) --> 
<!-- Use, modification and distribution of Boost.Plot subject to the --> 
<!-- Boost Software License, Version 1.0.--> 
<!-- (See accompanying file LICENSE_1_0.txt --> 
<!-- or copy at http://www.boost.org/LICENSE_1_0.txt) --> 

<clipPath id="plot_window"><rect x="94" y="49" width="489" height="414"/></clipPath>
<g id="imageBackground" stroke="rgb(255,255,0)" fill="rgb(248,248,255)" stroke-width="2"><rect x="0" y="0" width="700" height="500"/></g>
<g id="plotBackground" stroke="rgb(0,128,0)" fill="rgb(255,255,255)" stroke-width="1"><rect x="93" y="48" width="491" height="416"/></g>
<g id="yMinorGrid" stroke="rgb(240,240,255)" stroke-width="1"><path d="M94,242 L583,242 M94,228 L583,228 M94,201 L583,201 M94,187 L583,187 M94,159 L583,159 M94,145 L583,145 M94,117 L583,117 M94,103 L583,103 M94,75.7 L583,75.7 M94,61.9 L583,61.9 M94,256 L583,256 M94,270 L583,270 M94,284 L583,284 M94,298 L583,298 M94,311 L583,311 M94,325 L583,325 M94,339 L583,339 M94,339 L583,339 M94,353 L583,353 M94,367 L583,367 M94,381 L583,381 M94,395 L583,395 M94,409 L583,409 M94,422 L583,422 M94,436 L583,436 M94,450 L583,450 M94,464 L583,464 M94,464 L583,464 " fill="none"/></g>
<g id="yMajorGrid" stroke="rgb(200,220,255)" stroke-width="2"><path d="M94,256 L583,256 M94,214 L583,214 M94,173 L583,173 M94,131 L583,131 M94,89.6 L583,89.6 M94,48 L583,48 M94,256 L583,256 M94,298 L583,298 M94,339 L583,339 M94,381 L583,381 M94,422 L583,422 M94,464 L583,464 " fill="none"/></g>
<g id="xMinorGrid" stroke="rgb(240,240,255)" stroke-width="0.5"><path d="M111,49 L111,463 M184,49 L184,463 M220,49 L220,463 M293,49 L293,463 M330,49 L330,463 M402,49 L402,463 M439,49 L439,463 M511,49 L511,463 M548,49 L548,463 " fill="none"/></g>
<g id="xMajorGrid" stroke="rgb(200,220,255)" stroke-width="1"><path d="M148,48 L148,464 M257,48 L257,464 M366,48 L366,464 M475,48 L475,464 M584,48 L584,464 " fill="none"/></g>
<g id="yAxis" stroke="rgb(0,0,0)" stroke-width="1"><line x1="93" y1="48" x2="93" y2="464"/></g>
<g id="xAxis" stroke="rgb(0,0,0)" stroke-width="1"><line x1="83" y1="256" x2="584" y2="256"/></g>
<g id="yMinorTicks" stroke="rgb(0,0,0)" stroke-width="1"><path d="M88,242 L93,242 M88,228 L93,228 M88,201 L93,201 M88,187 L93,187 M88,159 L93,159 M88,145 L93,145 M88,117 L93,117 M88,103 L93,103 M88,75.7 L93,75.7 M88,61.9 L93,61.9 M88,256 L93,256 M88,270 L93,270 M88,284 L93,284 M88,298 L93,298 M88,311 L93,311 M88,325 L93,325 M88,339 L93,339 M88,339 L93,339 M88,353 L93,353 M88,367 L93,367 M88,381 L93,381 M88,395 L93,395 M88,409 L93,409 M88,422 L93,422 M88,436 L93,436 M88,450 L93,450 M88,464 L93,464 M88,464 L93,464 " fill="none"/></g>
<g id="xMinorTicks" stroke="rgb(0,0,0)" stroke-width="1"><path d="M111,256 L111,261 M184,256 L184,261 M220,256 L220,261 M293,256 L293,261 M330,256 L330,261 M402,256 L402,261 M439,256 L439,261 M511,256 L511,261 M548,256 L548,261 " fill="none"/></g>
<g id="yMajorTicks" stroke="rgb(0,0,0)" stroke-width="2"><path d="M83,256 L93,256 M83,214 L93,214 M83,173 L93,173 M83,131 L93,131 M83,89.6 L93,89.6 M83,48 L93,48 M83,256 L93,256 M83,298 L93,298 M83,339 L93,339 M83,381 L93,381 M83,422 L93,422 M83,464 L93,464 " fill="none"/></g>
<g id="xMajorTicks" stroke="rgb(0,0,0)" stroke-width="2"><path d="M148,256 L148,266 M257,256 L257,266 M366,256 L366,266 M475,256 L475,266 M584,256 L584,266 " fill="none"/></g>
<g id="xTicksValues">
<text x="148" y="282" text-anchor="middle" font-size="12" font-family="Lucida Sans Unicode">2.00</text>
<text x="257" y="282" text-anchor="middle" font-size="12" font-family="Lucida Sans Unicode">4.00</text>
<text x="366" y="282" text-anchor="middle" font-size="12" font-family="Lucida Sans Unicode">6.00</text>
<text x="475" y="282" text-anchor="middle" font-size="12" font-family="Lucida Sans Unicode">8.00</text>
<text x="584" y="282" text-anchor="middle" font-size="12" font-family="Lucida Sans Unicode">1.00e1</text></g>
<g id="yTicksValues">
<text x="77" y="258" text-anchor="end" font-size="12" font-family="Lucida Sans Unicode">0.0</text>
<text x="77" y="217" text-anchor="end" font-size="12" font-family="Lucida Sans Unicode">2.0</text>
<text x="77" y="175" text-anchor="end" font-size="12" font-family="Lucida Sans Unicode">4.0</text>
<text x="77" y="134" text-anchor="end" font-size="12" font-family="Lucida Sans Unicode">6.0</text>
<text x="77" y="92" text-anchor="end" font-size="12" font-family="Lucida Sans Unicode">8.0</text>
<text x="77" y="50.4" text-anchor="end" font-size="12" font-family="Lucida Sans Unicode">10.0</text>
<text x="77" y="258" text-anchor="end" font-size="12" font-family="Lucida Sans Unicode">0.0</text>
<text x="77" y="300" text-anchor="end" font-size="12" font-family="Lucida Sans Unicode">-2.0</text>
<text x="77" y="342" text-anchor="end" font-size="12" font-family="Lucida Sans Unicode">-4.0</text>
<text x="77" y="383" text-anchor="end" font-size="12" font-family="Lucida Sans Unicode">-6.0</text>
<text x="77" y="425" text-anchor="end" font-size="12" font-family="Lucida Sans Unicode">-8.0</text>
<text x="77" y="466" text-anchor="end" font-size="12" font-family="Lucida Sans Unicode">-10.0</text></g>
<g id="yLabel">
<text x="40.4" y="256" text-anchor="middle" transform = "rotate(-90 40.4 256 )" font-size="14" font-family="Lucida Sans Unicode">Y-axis</text></g>
<g id="xLabel">
<text x="339" y="484" text-anchor="middle" font-size="12" font-family="Lucida Sans Unicode">X-axis</text></g>
<g id="plotLines" stroke-width="2"><g clip-path="url(#plot_window)" stroke="rgb(0,0,0)" stroke-width="2"><path d="M-507,-1.78e+03 S-464,-1.46e+03 -453,-1.39e+03 S-409,-1.1e+03 -398,-1.03e+03 S-355,-780 -344,-722 S-300,-501 -289,-451 S-245,-264 -234,-222 S-191,-68.5 -180,-35.2 S-136,85.4 -125,110 S-81.7,198 -70.7,214 S-27.1,268 -16.2,277 S27.5,298 38.4,298 S82.1,285 93,277 S137,231 148,214 S191,135 202,110 S246,-1.92 257,-35.2 S300,-181 311,-222 S355,-401 366,-451 S410,-663 420,-722 S464,-967 475,-1.03e+03 S519,-1.31e+03 530,-1.39e+03 S584,-1.82e+03 584,-1.78e+03 " fill="none"/></g>
</g>
<g id="plotPoints" clip-path="url(#plot_window)"><g stroke="rgb(0,0,0)" fill="rgb(255,0,0)">
<text x="148" y="230" text-anchor="middle" font-size="10" font-family="Lucida Sans Unicode">&#x25CB;</text>
<text x="202" y="223" text-anchor="middle" font-size="10" font-family="Lucida Sans Unicode">&#x25CB;</text>
<text x="257" y="218" text-anchor="middle" font-size="10" font-family="Lucida Sans Unicode">&#x25CB;</text>
<text x="311" y="213" text-anchor="middle" font-size="10" font-family="Lucida Sans Unicode">&#x25CB;</text>
<text x="366" y="208" text-anchor="middle" font-size="10" font-family="Lucida Sans Unicode">&#x25CB;</text>
<text x="420" y="204" text-anchor="middle" font-size="10" font-family="Lucida Sans Unicode">&#x25CB;</text>
<text x="475" y="200" text-anchor="middle" font-size="10" font-family="Lucida Sans Unicode">&#x25CB;</text>
<text x="530" y="197" text-anchor="middle" font-size="10" font-family="Lucida Sans Unicode">&#x25CB;</text></g>
<g stroke="rgb(0,0,0)" fill="rgb(255,165,0)">
<text x="148" y="216" text-anchor="middle" font-size="5" font-family="Lucida Sans Unicode">&#x25CB;</text>
<text x="202" y="112" text-anchor="middle" font-size="5" font-family="Lucida Sans Unicode">&#x25CB;</text></g>
<g stroke="rgb(0,0,0)" fill="rgb(255,255,0)">
<text x="148" y="197" text-anchor="middle" font-size="10" font-family="Lucida Sans Unicode">&#x25A1;</text>
<text x="202" y="155" text-anchor="middle" font-size="10" font-family="Lucida Sans Unicode">&#x25A1;</text>
<text x="257" y="114" text-anchor="middle" font-size="10" font-family="Lucida Sans Unicode">&#x25A1;</text>
<text x="311" y="72" text-anchor="middle" font-size="10" font-family="Lucida Sans Unicode">&#x25A1;</text></g>
</g>
<g id="limitPoints" stroke="rgb(119,136,153)" fill="rgb(250,235,215)"><polygon points=" 88,246 98,246 93,256"/><polygon points=" 88,246 98,246 93,256"/><polygon points=" 88,246 98,246 93,256"/><polygon points=" 88,246 98,246 93,256"/><polygon points=" 88,246 98,246 93,256"/><polygon points=" 88,246 98,246 93,256"/><polygon points=" 88,246 98,246 93,256"/><polygon points=" 88,246 98,246 93,256"/><polygon points=" 88,246 98,246 93,256"/><polygon points=" 88,246 98,246 93,256"/></g>
<g id="legendBackground" stroke="rgb(255,255,0)" fill="rgb(255,255,224)" stroke-width="1"><rect x="590" y="48" width="95.8" height="77.6"/></g>
<g id="legendPoints"><g stroke="rgb(0,0,0)" fill="rgb(255,0,0)" stroke-width="2">
<text x="604" y="84.2" text-anchor="middle" font-size="10" font-family="Lucida Sans Unicode">&#x25CB;</text></g>
<g stroke="rgb(0,0,0)" fill="rgb(255,165,0)" stroke-width="2">
<text x="604" y="97" text-anchor="middle" font-size="5" font-family="Lucida Sans Unicode">&#x25CB;</text></g>
<g stroke="rgb(0,0,0)" fill="rgb(255,255,0)" stroke-width="3">
<text x="604" y="113" text-anchor="middle" font-size="10" font-family="Lucida Sans Unicode">&#x25A1;</text></g>
</g>
<g id="legendText">
<text x="638" y="66" text-anchor="middle" font-family="Lucida Sans Unicode" font-weight="normal">Unicode &#x3A9;&#x3A6;</text>
<text x="608" y="81" font-size="10" font-family="Lucida Sans Unicode" font-weight="normal">Sqrt(x)</text>
<text x="608" y="95.4" font-size="10" font-family="Lucida Sans Unicode" font-weight="normal">-2 + x^2</text>
<text x="608" y="110" font-size="10" font-family="Lucida Sans Unicode" font-weight="normal">-1 + 2x</text></g>
<g id="title" fill="rgb(255,0,0)">
<text x="350" y="30" text-anchor="middle" font-size="20" font-family="Lucida Sans Unicode" font-weight="normal">Plot of Mathematical Functions XP</text></g>
<g id="plotXValues"></g>
<g id="plotYValues"></g>
</svg>
