<?xml version="1.0" encoding="UTF-8" standalone="no"?>
<svg width="500" height ="400" version="1.1"
xmlns:svg ="http://www.w3.org/2000/svg"
xmlns:rdf="http://www.w3.org/1999/02/22-rdf-syntax-ns#"
xmlns:cc="http://web.resource.org/cc/"
xmlns:dc="http://purl.org/dc/elements/1.1/"
xmlns ="http://www.w3.org/2000/svg"
>
<!-- SVG plot written using Boost.Plot program (Creator Jacob Voytko) --> 
<!-- Use, modification and distribution of Boost.Plot subject to the --> 
<!-- Boost Software License, Version 1.0.--> 
<!-- (See accompanying file LICENSE_1_0.txt --> 
<!-- or copy at http://www.boost.org/LICENSE_1_0.txt) --> 

<clipPath id="plot_window"><rect x="74.6" y="9" width="398" height="341"/></clipPath>
<g id="imageBackground" stroke="rgb(255,255,0)" fill="rgb(255,255,255)" stroke-width="2"><rect x="0" y="0" width="500" height="400"/></g>
<g id="plotBackground" stroke="rgb(119,136,153)" fill="rgb(255,255,255)" stroke-width="2"><rect x="73.6" y="8" width="400" height="343"/></g>
<g id="yMinorGrid" stroke="rgb(200,220,255)" stroke-width="0.5"></g>
<g id="yMajorGrid" stroke="rgb(200,220,255)" stroke-width="1"></g>
<g id="xMinorGrid" stroke="rgb(200,220,255)" stroke-width="0.5"></g>
<g id="xMajorGrid" stroke="rgb(200,220,255)" stroke-width="1"></g>
<g id="yAxis" stroke="rgb(0,0,0)" stroke-width="1"><line x1="166" y1="8" x2="166" y2="356"/><line x1="73.6" y1="8" x2="73.6" y2="351"/></g>
<g id="xAxis" stroke="rgb(0,0,0)" stroke-width="1"><line x1="68.6" y1="180" x2="474" y2="180"/><line x1="68.6" y1="351" x2="474" y2="351"/></g>
<g id="yMinorTicks" stroke="rgb(0,0,0)" stroke-width="1"><path d="M71.6,173 L73.6,173 M71.6,166 L73.6,166 M71.6,159 L73.6,159 M71.6,152 L73.6,152 M71.6,138 L73.6,138 M71.6,131 L73.6,131 M71.6,125 L73.6,125 M71.6,118 L73.6,118 M71.6,104 L73.6,104 M71.6,97.2 L73.6,97.2 M71.6,90.3 L73.6,90.3 M71.6,83.5 L73.6,83.5 M71.6,69.7 L73.6,69.7 M71.6,62.9 L73.6,62.9 M71.6,56 L73.6,56 M71.6,49.2 L73.6,49.2 M71.6,35.4 L73.6,35.4 M71.6,28.6 L73.6,28.6 M71.6,21.7 L73.6,21.7 M71.6,14.9 L73.6,14.9 M71.6,180 L73.6,180 M71.6,186 L73.6,186 M71.6,193 L73.6,193 M71.6,200 L73.6,200 M71.6,207 L73.6,207 M71.6,214 L73.6,214 M71.6,221 L73.6,221 M71.6,228 L73.6,228 M71.6,234 L73.6,234 M71.6,241 L73.6,241 M71.6,248 L73.6,248 M71.6,248 L73.6,248 M71.6,255 L73.6,255 M71.6,262 L73.6,262 M71.6,269 L73.6,269 M71.6,276 L73.6,276 M71.6,282 L73.6,282 M71.6,289 L73.6,289 M71.6,296 L73.6,296 M71.6,303 L73.6,303 M71.6,310 L73.6,310 M71.6,317 L73.6,317 M71.6,324 L73.6,324 M71.6,330 L73.6,330 M71.6,337 L73.6,337 M71.6,344 L73.6,344 M71.6,351 L73.6,351 " fill="none"/></g>
<g id="xMinorTicks" stroke="rgb(0,0,0)" stroke-width="1"><path d="M178,351 L178,353 M191,351 L191,353 M203,351 L203,353 M215,351 L215,353 M240,351 L240,353 M252,351 L252,353 M265,351 L265,353 M277,351 L277,353 M302,351 L302,353 M314,351 L314,353 M326,351 L326,353 M338,351 L338,353 M363,351 L363,353 M375,351 L375,353 M388,351 L388,353 M400,351 L400,353 M425,351 L425,353 M437,351 L437,353 M449,351 L449,353 M462,351 L462,353 M154,351 L154,353 M141,351 L141,353 M129,351 L129,353 M117,351 L117,353 M92.1,351 L92.1,353 M79.8,351 L79.8,353 " fill="none"/></g>
<g id="yMajorTicks" stroke="rgb(0,0,0)" stroke-width="2"><path d="M68.6,180 L73.6,180 M68.6,145 L73.6,145 M68.6,111 L73.6,111 M68.6,76.6 L73.6,76.6 M68.6,42.3 L73.6,42.3 M68.6,8 L73.6,8 M68.6,180 L73.6,180 M68.6,214 L73.6,214 M68.6,248 L73.6,248 M68.6,282 L73.6,282 M68.6,317 L73.6,317 M68.6,351 L73.6,351 " fill="none"/></g>
<g id="xMajorTicks" stroke="rgb(0,0,0)" stroke-width="2"><path d="M166,351 L166,356 M228,351 L228,356 M289,351 L289,356 M351,351 L351,356 M412,351 L412,356 M474,351 L474,356 M166,351 L166,356 M104,351 L104,356 " fill="none"/></g>
<g id="xTicksValues">
<text x="166" y="372" text-anchor="middle" font-size="12" font-family="Lucida Sans Unicode">0</text>
<text x="228" y="372" text-anchor="middle" font-size="12" font-family="Lucida Sans Unicode">2</text>
<text x="289" y="372" text-anchor="middle" font-size="12" font-family="Lucida Sans Unicode">4</text>
<text x="351" y="372" text-anchor="middle" font-size="12" font-family="Lucida Sans Unicode">6</text>
<text x="412" y="372" text-anchor="middle" font-size="12" font-family="Lucida Sans Unicode">8</text>
<text x="474" y="372" text-anchor="middle" font-size="12" font-family="Lucida Sans Unicode">10</text>
<text x="166" y="372" text-anchor="middle" font-size="12" font-family="Lucida Sans Unicode">0</text>
<text x="104" y="372" text-anchor="middle" font-size="12" font-family="Lucida Sans Unicode">-2</text></g>
<g id="yTicksValues">
<text x="62.6" y="182" text-anchor="end" font-size="12" font-family="Lucida Sans Unicode">0</text>
<text x="62.6" y="148" text-anchor="end" font-size="12" font-family="Lucida Sans Unicode">2</text>
<text x="62.6" y="113" text-anchor="end" font-size="12" font-family="Lucida Sans Unicode">4</text>
<text x="62.6" y="79" text-anchor="end" font-size="12" font-family="Lucida Sans Unicode">6</text>
<text x="62.6" y="44.7" text-anchor="end" font-size="12" font-family="Lucida Sans Unicode">8</text>
<text x="62.6" y="10.4" text-anchor="end" font-size="12" font-family="Lucida Sans Unicode">10</text>
<text x="62.6" y="182" text-anchor="end" font-size="12" font-family="Lucida Sans Unicode">0</text>
<text x="62.6" y="216" text-anchor="end" font-size="12" font-family="Lucida Sans Unicode">-2</text>
<text x="62.6" y="251" text-anchor="end" font-size="12" font-family="Lucida Sans Unicode">-4</text>
<text x="62.6" y="285" text-anchor="end" font-size="12" font-family="Lucida Sans Unicode">-6</text>
<text x="62.6" y="319" text-anchor="end" font-size="12" font-family="Lucida Sans Unicode">-8</text>
<text x="62.6" y="353" text-anchor="end" font-size="12" font-family="Lucida Sans Unicode">-10</text></g>
<g id="yLabel">
<text x="35.9" y="180" text-anchor="middle" transform = "rotate(-90 35.9 180 )" font-size="14" font-family="Lucida Sans Unicode">distance (km)</text></g>
<g id="xLabel">
<text x="274" y="384" text-anchor="middle" font-size="12" font-family="Lucida Sans Unicode">times (sec)</text></g>
<g id="plotUnc3" stroke="none" fill="rgb(230,240,255)" stroke-width="1"><ellipse cx="97.2" cy="330" rx="3" ry="3"/><ellipse cx="204" cy="120" rx="3" ry="3"/><ellipse cx="292" cy="126" rx="3" ry="3"/></g>
<g id="plotUnc2" stroke="none" fill="rgb(200,230,255)" stroke-width="1"><ellipse cx="97.2" cy="330" rx="2" ry="2"/><ellipse cx="204" cy="120" rx="2" ry="2"/><ellipse cx="292" cy="126" rx="2" ry="2"/></g>
<g id="plotUnc1" stroke="none" fill="rgb(173,216,230)" stroke-width="1"><ellipse cx="97.2" cy="330" rx="1" ry="1"/><ellipse cx="204" cy="120" rx="1" ry="1"/><ellipse cx="292" cy="126" rx="1" ry="1"/></g>
<g id="plotPoints" clip-path="url(#plot_window)"><g stroke="rgb(0,0,0)" fill="rgb(255,255,255)"><circle cx="97.2" cy="330" r="1"/><circle cx="204" cy="120" r="1"/><circle cx="292" cy="126" r="1"/></g>
</g>
<g id="title">
<text x="250" y="27" text-anchor="middle" font-size="18" font-family="Lucida Sans Unicode" font-weight="normal"></text></g>
<g id="plotXValues"><g>
<text x="102" y="324" transform = "rotate(-30 102 324 )" font-size="16" font-family="Times New Roman">-2.23<tspan fill="rgb(128,0,128)" font-size="14" font-family="Times New Roman"> &lt;-2.234, -2.234&gt;</tspan><tspan fill="rgb(255,0,255)" font-size="14" font-family="Times New Roman">&#x00A0;(0)</tspan><tspan fill="rgb(0,0,0)" font-size="16" font-family="Times New Roman"></tspan></text></g>
<g>
<text x="209" y="114" transform = "rotate(-30 209 114 )" font-size="16" font-family="Times New Roman">1.23<tspan fill="rgb(128,0,128)" font-size="14" font-family="Times New Roman"> &lt;1.23, 1.23&gt;</tspan><tspan fill="rgb(255,0,255)" font-size="14" font-family="Times New Roman">&#x00A0;(0)</tspan><tspan fill="rgb(0,0,0)" font-size="16" font-family="Times New Roman"></tspan></text></g>
<g>
<text x="297" y="120" transform = "rotate(-30 297 120 )" font-size="16" font-family="Times New Roman">4.1<tspan fill="rgb(128,0,128)" font-size="14" font-family="Times New Roman"> &lt;4.1, 4.1&gt;</tspan><tspan fill="rgb(255,0,255)" font-size="14" font-family="Times New Roman">&#x00A0;(0)</tspan><tspan fill="rgb(0,0,0)" font-size="16" font-family="Times New Roman"></tspan></text></g>
</g>
<g id="plotYValues"><g>
<text x="102" y="338" transform = "rotate(-30 102 338 )" font-size="12" font-family="Arial">&#x00A0;&#x00A0;&#x00A0;-8.76<tspan fill="rgb(0,100,0)" font-size="10" font-family="Arial"> &lt;-8.76, -8.76&gt;</tspan><tspan fill="rgb(0,128,0)" font-size="10" font-family="Arial">&#x00A0;(1)</tspan><tspan fill="rgb(0,0,0)" font-size="12" font-family="Arial">&#x00A0;sec</tspan></text></g>
<g>
<text x="209" y="129" transform = "rotate(-30 209 129 )" font-size="12" font-family="Arial">&#x00A0;&#x00A0;&#x00A0;3.45<tspan fill="rgb(0,100,0)" font-size="10" font-family="Arial"> &lt;3.45, 3.45&gt;</tspan><tspan fill="rgb(0,128,0)" font-size="10" font-family="Arial">&#x00A0;(1)</tspan><tspan fill="rgb(0,0,0)" font-size="12" font-family="Arial">&#x00A0;sec</tspan></text></g>
<g>
<text x="297" y="135" transform = "rotate(-30 297 135 )" font-size="12" font-family="Arial">&#x00A0;&#x00A0;&#x00A0;3.1<tspan fill="rgb(0,100,0)" font-size="10" font-family="Arial"> &lt;3.1, 3.1&gt;</tspan><tspan fill="rgb(0,128,0)" font-size="10" font-family="Arial">&#x00A0;(1)</tspan><tspan fill="rgb(0,0,0)" font-size="12" font-family="Arial">&#x00A0;sec</tspan></text></g>
</g>
</svg>
