<?xml version="1.0" encoding="UTF-8" standalone="no"?>
<svg width="500" height ="400" version="1.1"
xmlns:svg ="http://www.w3.org/2000/svg"
xmlns:rdf="http://www.w3.org/1999/02/22-rdf-syntax-ns#"
xmlns:cc="http://web.resource.org/cc/"
xmlns:dc="http://purl.org/dc/elements/1.1/"
xmlns ="http://www.w3.org/2000/svg"
>
<!-- SVG plot written using Boost.Plot program (Creator Jacob Voytko) --> 
<!-- Use, modification and distribution of Boost.Plot subject to the --> 
<!-- Boost Software License, Version 1.0.--> 
<!-- (See accompanying file LICENSE_1_0.txt --> 
<!-- or copy at http://www.boost.org/LICENSE_1_0.txt) --> 

<clipPath id="plot_window"><rect x="51.8" y="40.5" width="365" height="328"/></clipPath>
<g id="imageBackground" stroke="rgb(0,0,255)" fill="rgb(255,255,255)" stroke-width="2"><rect x="0" y="0" width="500" height="400"/></g>
<g id="plotBackground" stroke="rgb(119,136,153)" fill="rgb(255,255,255)" stroke-width="2"><rect x="50.8" y="39.5" width="367" height="330"/></g>
<g id="yMinorGrid" stroke="rgb(200,220,255)" stroke-width="0.5"></g>
<g id="yMajorGrid" stroke="rgb(200,220,255)" stroke-width="1"></g>
<g id="xMinorGrid" stroke="rgb(200,220,255)" stroke-width="0.5"></g>
<g id="xMajorGrid" stroke="rgb(200,220,255)" stroke-width="1"></g>
<g id="yAxis" stroke="rgb(0,0,0)" stroke-width="1"><line x1="234" y1="39.5" x2="234" y2="374"/><line x1="50.8" y1="39.5" x2="50.8" y2="369"/></g>
<g id="xAxis" stroke="rgb(0,0,0)" stroke-width="1"><line x1="45.8" y1="204" x2="418" y2="204"/><line x1="45.8" y1="369" x2="418" y2="369"/></g>
<g id="yMinorTicks" stroke="rgb(0,0,0)" stroke-width="1"><path d="M48.8,198 L50.8,198 M48.8,191 L50.8,191 M48.8,184 L50.8,184 M48.8,178 L50.8,178 M48.8,165 L50.8,165 M48.8,158 L50.8,158 M48.8,152 L50.8,152 M48.8,145 L50.8,145 M48.8,132 L50.8,132 M48.8,125 L50.8,125 M48.8,119 L50.8,119 M48.8,112 L50.8,112 M48.8,98.8 L50.8,98.8 M48.8,92.2 L50.8,92.2 M48.8,85.6 L50.8,85.6 M48.8,79 L50.8,79 M48.8,65.9 L50.8,65.9 M48.8,59.3 L50.8,59.3 M48.8,52.7 L50.8,52.7 M48.8,46.1 L50.8,46.1 M48.8,204 L50.8,204 M48.8,211 L50.8,211 M48.8,217 L50.8,217 M48.8,224 L50.8,224 M48.8,231 L50.8,231 M48.8,237 L50.8,237 M48.8,244 L50.8,244 M48.8,250 L50.8,250 M48.8,257 L50.8,257 M48.8,264 L50.8,264 M48.8,270 L50.8,270 M48.8,270 L50.8,270 M48.8,277 L50.8,277 M48.8,283 L50.8,283 M48.8,290 L50.8,290 M48.8,297 L50.8,297 M48.8,303 L50.8,303 M48.8,310 L50.8,310 M48.8,316 L50.8,316 M48.8,323 L50.8,323 M48.8,329 L50.8,329 M48.8,336 L50.8,336 M48.8,343 L50.8,343 M48.8,349 L50.8,349 M48.8,356 L50.8,356 M48.8,362 L50.8,362 M48.8,369 L50.8,369 " fill="none"/></g>
<g id="xMinorTicks" stroke="rgb(0,0,0)" stroke-width="1"><path d="M242,369 L242,371 M249,369 L249,371 M256,369 L256,371 M264,369 L264,371 M278,369 L278,371 M286,369 L286,371 M293,369 L293,371 M300,369 L300,371 M315,369 L315,371 M322,369 L322,371 M330,369 L330,371 M337,369 L337,371 M352,369 L352,371 M359,369 L359,371 M366,369 L366,371 M374,369 L374,371 M388,369 L388,371 M396,369 L396,371 M403,369 L403,371 M410,369 L410,371 M227,369 L227,371 M220,369 L220,371 M212,369 L212,371 M205,369 L205,371 M190,369 L190,371 M183,369 L183,371 M176,369 L176,371 M168,369 L168,371 M154,369 L154,371 M146,369 L146,371 M139,369 L139,371 M132,369 L132,371 M117,369 L117,371 M110,369 L110,371 M102,369 L102,371 M94.8,369 L94.8,371 M80.2,369 L80.2,371 M72.8,369 L72.8,371 M65.5,369 L65.5,371 M58.1,369 L58.1,371 " fill="none"/></g>
<g id="yMajorTicks" stroke="rgb(0,0,0)" stroke-width="2"><path d="M45.8,204 L50.8,204 M45.8,171 L50.8,171 M45.8,138 L50.8,138 M45.8,105 L50.8,105 M45.8,72.4 L50.8,72.4 M45.8,39.5 L50.8,39.5 M45.8,204 L50.8,204 M45.8,237 L50.8,237 M45.8,270 L50.8,270 M45.8,303 L50.8,303 M45.8,336 L50.8,336 M45.8,369 L50.8,369 " fill="none"/></g>
<g id="xMajorTicks" stroke="rgb(0,0,0)" stroke-width="2"><path d="M234,369 L234,374 M271,369 L271,374 M308,369 L308,374 M344,369 L344,374 M381,369 L381,374 M418,369 L418,374 M234,369 L234,374 M198,369 L198,374 M161,369 L161,374 M124,369 L124,374 M87.5,369 L87.5,374 M50.8,369 L50.8,374 " fill="none"/></g>
<g id="xTicksValues">
<text x="234" y="390" text-anchor="middle" font-size="12" font-family="Lucida Sans Unicode">0</text>
<text x="271" y="390" text-anchor="middle" font-size="12" font-family="Lucida Sans Unicode">2</text>
<text x="308" y="390" text-anchor="middle" font-size="12" font-family="Lucida Sans Unicode">4</text>
<text x="344" y="390" text-anchor="middle" font-size="12" font-family="Lucida Sans Unicode">6</text>
<text x="381" y="390" text-anchor="middle" font-size="12" font-family="Lucida Sans Unicode">8</text>
<text x="418" y="390" text-anchor="middle" font-size="12" font-family="Lucida Sans Unicode">10</text>
<text x="234" y="390" text-anchor="middle" font-size="12" font-family="Lucida Sans Unicode">0</text>
<text x="198" y="390" text-anchor="middle" font-size="12" font-family="Lucida Sans Unicode">-2</text>
<text x="161" y="390" text-anchor="middle" font-size="12" font-family="Lucida Sans Unicode">-4</text>
<text x="124" y="390" text-anchor="middle" font-size="12" font-family="Lucida Sans Unicode">-6</text>
<text x="87.5" y="390" text-anchor="middle" font-size="12" font-family="Lucida Sans Unicode">-8</text>
<text x="50.8" y="390" text-anchor="middle" font-size="12" font-family="Lucida Sans Unicode">-10</text></g>
<g id="yTicksValues">
<text x="39.8" y="207" text-anchor="end" font-size="12" font-family="Lucida Sans Unicode">0</text>
<text x="39.8" y="174" text-anchor="end" font-size="12" font-family="Lucida Sans Unicode">2</text>
<text x="39.8" y="141" text-anchor="end" font-size="12" font-family="Lucida Sans Unicode">4</text>
<text x="39.8" y="108" text-anchor="end" font-size="12" font-family="Lucida Sans Unicode">6</text>
<text x="39.8" y="74.8" text-anchor="end" font-size="12" font-family="Lucida Sans Unicode">8</text>
<text x="39.8" y="41.9" text-anchor="end" font-size="12" font-family="Lucida Sans Unicode">10</text>
<text x="39.8" y="207" text-anchor="end" font-size="12" font-family="Lucida Sans Unicode">0</text>
<text x="39.8" y="240" text-anchor="end" font-size="12" font-family="Lucida Sans Unicode">-2</text>
<text x="39.8" y="273" text-anchor="end" font-size="12" font-family="Lucida Sans Unicode">-4</text>
<text x="39.8" y="306" text-anchor="end" font-size="12" font-family="Lucida Sans Unicode">-6</text>
<text x="39.8" y="338" text-anchor="end" font-size="12" font-family="Lucida Sans Unicode">-8</text>
<text x="39.8" y="371" text-anchor="end" font-size="12" font-family="Lucida Sans Unicode">-10</text></g>
<g id="yLabel">
<text x="14.9" y="204" text-anchor="middle" transform = "rotate(-90 14.9 204 )" font-size="14" font-family="Lucida Sans Unicode"></text></g>
<g id="xLabel">
<text x="234" y="402" text-anchor="middle" font-size="12" font-family="Lucida Sans Unicode"></text></g>
<g id="plotPoints" clip-path="url(#plot_window)"><g stroke="rgb(0,255,255)"><path d="M177,305 L234,305 M333,127 L234,127 " stroke-width="5" fill="none"/></g>
</g>
<g id="legendBackground" stroke="rgb(255,255,0)" fill="rgb(255,255,255)" stroke-width="1"><rect x="423" y="39.5" width="61.8" height="31.2"/></g>
<g id="legendPoints"></g>
<g id="legendText">
<text x="435" y="57.2" font-size="10" font-family="Lucida Sans Unicode" font-weight="normal">Series 2</text></g>
<g id="title">
<text x="250" y="27" text-anchor="middle" font-size="18" font-family="Lucida Sans Unicode" font-weight="normal">Y Times</text></g>
<g id="plotXValues"></g>
<g id="plotYValues"></g>
</svg>
