<?xml version="1.0" encoding="UTF-8" standalone="no"?>
<svg width="600" height ="300" version="1.1"
xmlns:svg ="http://www.w3.org/2000/svg"
xmlns:rdf="http://www.w3.org/1999/02/22-rdf-syntax-ns#"
xmlns:cc="http://web.resource.org/cc/"
xmlns:dc="http://purl.org/dc/elements/1.1/"
xmlns ="http://www.w3.org/2000/svg"
>
<!-- SVG plot written using Boost.Plot program (Creator Jacob Voytko) --> 
<!-- Use, modification and distribution of Boost.Plot subject to the --> 
<!-- Boost Software License, Version 1.0.--> 
<!-- (See accompanying file LICENSE_1_0.txt --> 
<!-- or copy at http://www.boost.org/LICENSE_1_0.txt) --> 

<!-- File ./demo_1d_uncertainty.svg --> 
	<g id="imageBackground" stroke="rgb(0,0,255)" fill="rgb(255,255,255)" stroke-width="1">
		<rect x="0" y="0" width="600" height="300"/>
	</g>
	<g id="plotBackground" stroke="rgb(255,255,0)" fill="rgb(255,255,255)" stroke-width="1">
		<rect x="21" y="42.5" width="558" height="229"/>
	</g>
	<g id="xMinorGrid" stroke="rgb(200,220,255)" stroke-width="0.5">
	</g>
	<g id="xMajorGrid" stroke="rgb(200,220,255)" stroke-width="1">
	</g>
	<g id="xAxis" stroke="rgb(0,0,0)" stroke-width="1">
		<line x1="21" y1="160" x2="579" y2="160"/>
	</g>
	<g id="xMinorTicks" stroke="rgb(0,0,0)" stroke-width="1">
		<path d="
			M39.6,160 L39.6,162 
			M58.2,160 L58.2,162 
			M76.8,160 L76.8,162 
			M95.4,160 L95.4,162 
			M133,160 L133,162 
			M151,160 L151,162 
			M170,160 L170,162 
			M188,160 L188,162 
			M226,160 L226,162 
			M244,160 L244,162 
			M263,160 L263,162 
			M281,160 L281,162 
			M319,160 L319,162 
			M337,160 L337,162 
			M356,160 L356,162 
			M374,160 L374,162 
			M412,160 L412,162 
			M430,160 L430,162 
			M449,160 L449,162 
			M467,160 L467,162 
			M505,160 L505,162 
			M523,160 L523,162 
			M542,160 L542,162 
			M560,160 L560,162 
			" fill="none"/>
	</g>
	<g id="xMajorTicks" stroke="rgb(0,0,0)" stroke-width="2">
		<path d="
			M21,160 L21,165 
			M114,160 L114,165 
			M207,160 L207,165 
			M300,160 L300,165 
			M393,160 L393,165 
			M486,160 L486,165 
			M579,160 L579,165 
			" fill="none"/>
	</g>
	<g id="xTicksValues" font-size="10" font-family="Verdana" text-anchor="middle">
		<text x="21" y="178">2
		</text>
		<text x="114" y="178">3
		</text>
		<text x="207" y="178">4
		</text>
		<text x="300" y="178">5
		</text>
		<text x="393" y="178">6
		</text>
		<text x="486" y="178">7
		</text>
		<text x="579" y="178">8
		</text>
	</g>
	<g id="xLabel">
		<text x="300" y="289" text-anchor="middle" font-size="10" font-family="Verdana">times (sec)
		</text>
	</g>
	<g id="plotUnc3" stroke="none" fill="rgb(255,255,0)" stroke-width="1">
		<ellipse cx="76.8" cy="152" rx="27.9" ry="3"/>
		<ellipse cx="337" cy="152" rx="55.8" ry="3"/>
	</g>
	<g id="plotUnc2" stroke="none" fill="rgb(255,0,255)" stroke-width="1">
		<ellipse cx="76.8" cy="152" rx="18.6" ry="2"/>
		<ellipse cx="337" cy="152" rx="37.2" ry="2"/>
	</g>
	<g id="plotUnc1" stroke="none" fill="rgb(255,192,203)" stroke-width="1">
		<ellipse cx="76.8" cy="152" rx="9.3" ry="1"/>
		<ellipse cx="337" cy="152" rx="18.6" ry="1"/>
	</g>
	<g id="plotPoints">
	<g stroke="rgb(255,0,0)" fill="rgb(0,128,0)" font-size="10" font-family="Lucida Sans Unicode" text-anchor="middle">
		<text x="123" y="155">&#x25CF;
		</text>
		<text x="226" y="155">&#x25CF;
		</text>
	</g>
	<g stroke="rgb(0,0,255)" font-size="5" font-family="Lucida Sans Unicode" text-anchor="middle">
		<line x1="30.3" y1="157" x2="30.3" y2="147"/>
		<line x1="309" y1="157" x2="309" y2="147"/>
		<line x1="560" y1="157" x2="560" y2="147"/>
		<line x1="151" y1="157" x2="151" y2="147"/>
		<line x1="384" y1="157" x2="384" y2="147"/>
	</g>
	<g stroke="rgb(0,0,0)" fill="rgb(0,0,0)" font-size="5" font-family="Lucida Sans Unicode" text-anchor="middle">
		<circle cx="76.8" cy="152" r="0.5"/>
		<circle cx="337" cy="152" r="0.5"/>
	</g>
	</g>
	<g id="title">
		<text x="300" y="27" text-anchor="middle" font-size="18" font-family="Verdana">A, B and C Times
		</text>
	</g>
	<g id="plotXValues">
	<g>
		<text x="133" y="149" transform="rotate(-30 133 149)" font-size="10" font-family="Verdana">3.1
		<tspan fill="rgb(0,0,255)" font-size="10" font-family="Verdana">&#x00A0;&#x00B1;</tspan>
		<tspan fill="rgb(0,0,255)" font-size="8" font-family="Verdana">0.02</tspan>
		<tspan fill="rgb(128,0,128)" font-size="8" font-family="Verdana"> &lt;3.09, 3.11&gt;</tspan>
		<tspan fill="rgb(0,128,0)" font-size="8" font-family="Verdana">&#x00A0;(8)</tspan>
		</text>
	</g>
	<g>
		<text x="236" y="149" transform="rotate(-30 236 149)" font-size="10" font-family="Verdana">4.2
		<tspan fill="rgb(0,0,255)" font-size="10" font-family="Verdana">&#x00A0;&#x00B1;</tspan>
		<tspan fill="rgb(0,0,255)" font-size="8" font-family="Verdana">0.01</tspan>
		<tspan fill="rgb(128,0,128)" font-size="8" font-family="Verdana"> &lt;4.195, 4.205&gt;</tspan>
		<tspan fill="rgb(0,128,0)" font-size="8" font-family="Verdana">&#x00A0;(14)</tspan>
		</text>
	</g>
	<g>
		<text x="40.3" y="151" transform="rotate(-30 40.3 151)" font-size="10" font-family="Verdana">2.1
		<tspan fill="rgb(0,0,255)" font-size="10" font-family="Verdana">&#x00A0;&#x00B1;</tspan>
		<tspan fill="rgb(0,0,255)" font-size="8" font-family="Verdana">0.001</tspan>
		<tspan fill="rgb(128,0,128)" font-size="8" font-family="Verdana"> &lt;2.0996, 2.1004&gt;</tspan>
		<tspan fill="rgb(0,128,0)" font-size="8" font-family="Verdana">&#x00A0;(30)</tspan>
		</text>
	</g>
	<g>
		<text x="319" y="151" transform="rotate(-30 319 151)" font-size="10" font-family="Verdana">5.1
		<tspan fill="rgb(0,0,255)" font-size="10" font-family="Verdana">&#x00A0;&#x00B1;</tspan>
		<tspan fill="rgb(0,0,255)" font-size="8" font-family="Verdana">0.025</tspan>
		<tspan fill="rgb(128,0,128)" font-size="8" font-family="Verdana"> &lt;5.09, 5.11&gt;</tspan>
		<tspan fill="rgb(0,128,0)" font-size="8" font-family="Verdana">&#x00A0;(20)</tspan>
		</text>
	</g>
	<g>
		<text x="570" y="151" transform="rotate(-30 570 151)" font-size="10" font-family="Verdana">7.8
		<tspan fill="rgb(0,0,255)" font-size="10" font-family="Verdana">&#x00A0;&#x00B1;</tspan>
		<tspan fill="rgb(0,0,255)" font-size="8" font-family="Verdana">0.0025</tspan>
		<tspan fill="rgb(128,0,128)" font-size="8" font-family="Verdana"> &lt;7.795, 7.805&gt;</tspan>
		<tspan fill="rgb(0,128,0)" font-size="8" font-family="Verdana">&#x00A0;(1)</tspan>
		</text>
	</g>
	<g>
		<text x="161" y="151" transform="rotate(-30 161 151)" font-size="10" font-family="Verdana">3.4
		<tspan fill="rgb(0,0,255)" font-size="10" font-family="Verdana">&#x00A0;&#x00B1;</tspan>
		<tspan fill="rgb(0,0,255)" font-size="8" font-family="Verdana">0.03</tspan>
		<tspan fill="rgb(128,0,128)" font-size="8" font-family="Verdana"> &lt;3.34, 3.46&gt;</tspan>
		<tspan fill="rgb(0,128,0)" font-size="8" font-family="Verdana">&#x00A0;(1)</tspan>
		</text>
	</g>
	<g>
		<text x="394" y="151" transform="rotate(-30 394 151)" font-size="10" font-family="Verdana">5.9
		<tspan fill="rgb(128,0,128)" font-size="8" font-family="Verdana"> &lt;nan, nan&gt;</tspan>
		<tspan fill="rgb(0,128,0)" font-size="8" font-family="Verdana">&#x00A0;(1)</tspan>
		</text>
	</g>
	<g>
		<text x="86.8" y="151" transform="rotate(-30 86.8 151)" font-size="10" font-family="Verdana">2.6
		<tspan fill="rgb(0,0,255)" font-size="10" font-family="Verdana">&#x00A0;&#x00B1;</tspan>
		<tspan fill="rgb(0,0,255)" font-size="8" font-family="Verdana">0.1</tspan>
		<tspan fill="rgb(128,0,128)" font-size="8" font-family="Verdana"> &lt;2.51, 2.69&gt;</tspan>
		<tspan fill="rgb(0,128,0)" font-size="8" font-family="Verdana">&#x00A0;(5)</tspan>
		</text>
	</g>
	<g>
		<text x="347" y="151" transform="rotate(-30 347 151)" font-size="10" font-family="Verdana">5.4
		<tspan fill="rgb(0,0,255)" font-size="10" font-family="Verdana">&#x00A0;&#x00B1;</tspan>
		<tspan fill="rgb(0,0,255)" font-size="8" font-family="Verdana">0.2</tspan>
		<tspan fill="rgb(128,0,128)" font-size="8" font-family="Verdana"> &lt;5.3, 5.5&gt;</tspan>
		<tspan fill="rgb(0,128,0)" font-size="8" font-family="Verdana">&#x00A0;(11)</tspan>
		</text>
	</g>
	</g>
</svg>
