<?xml version="1.0" encoding="UTF-8" standalone="no"?>
<svg width="500" height ="400" version="1.1"
xmlns:svg ="http://www.w3.org/2000/svg"
xmlns:rdf="http://www.w3.org/1999/02/22-rdf-syntax-ns#"
xmlns:cc="http://web.resource.org/cc/"
xmlns:dc="http://purl.org/dc/elements/1.1/"
xmlns ="http://www.w3.org/2000/svg"
>
<!-- SVG plot written using Boost.Plot program (Creator Jacob Voytko) --> 
<!-- Use, modification and distribution of Boost.Plot subject to the --> 
<!-- Boost Software License, Version 1.0.--> 
<!-- (See accompanying file LICENSE_1_0.txt --> 
<!-- or copy at http://www.boost.org/LICENSE_1_0.txt) --> 

<clipPath id="plot_window">	<rect x="36.6" y="9" width="454" height="349"/>
</clipPath>
	<g id="imageBackground" stroke="rgb(255,255,0)" fill="rgb(255,255,255)" stroke-width="2">
	<rect x="0" y="0" width="500" height="400"/>
</g>
	<g id="plotBackground" stroke="rgb(119,136,153)" fill="rgb(255,255,255)" stroke-width="2">
	<rect x="35.6" y="8" width="456" height="351"/>
</g>
	<g id="yMinorGrid" stroke="rgb(200,220,255)" stroke-width="0.5">
</g>
	<g id="yMajorGrid" stroke="rgb(200,220,255)" stroke-width="1">
</g>
	<g id="xMinorGrid" stroke="rgb(200,220,255)" stroke-width="0.5">
</g>
	<g id="xMajorGrid" stroke="rgb(200,220,255)" stroke-width="1">
</g>
	<g id="yAxis" stroke="rgb(0,0,0)" stroke-width="1">
	<line x1="35.6" y1="8" x2="35.6" y2="364"/>
	<line x1="35.6" y1="8" x2="35.6" y2="359"/>
</g>
	<g id="xAxis" stroke="rgb(0,0,0)" stroke-width="1">
	<line x1="30.6" y1="359" x2="492" y2="359"/>
	<line x1="30.6" y1="359" x2="492" y2="359"/>
</g>
	<g id="yMinorTicks" stroke="rgb(0,0,0)" stroke-width="1">
	<path d="M33.6,331 L35.6,331 
M33.6,303 L35.6,303 
M33.6,275 L35.6,275 
M33.6,247 L35.6,247 
M33.6,191 L35.6,191 
M33.6,163 L35.6,163 
M33.6,134 L35.6,134 
M33.6,106 L35.6,106 
M33.6,50.2 L35.6,50.2 
M33.6,22.1 L35.6,22.1 
M33.6,359 L35.6,359 
" fill="none"/>
</g>
	<g id="xMinorTicks" stroke="rgb(0,0,0)" stroke-width="1">
	<path d="M44.7,359 L44.7,361 
M53.8,359 L53.8,361 
M63,359 L63,361 
M72.1,359 L72.1,361 
M90.4,359 L90.4,361 
M99.5,359 L99.5,361 
M109,359 L109,361 
M118,359 L118,361 
M136,359 L136,361 
M145,359 L145,361 
M154,359 L154,361 
M163,359 L163,361 
M182,359 L182,361 
M191,359 L191,361 
M200,359 L200,361 
M209,359 L209,361 
M227,359 L227,361 
M236,359 L236,361 
M246,359 L246,361 
M255,359 L255,361 
M273,359 L273,361 
M282,359 L282,361 
M291,359 L291,361 
M300,359 L300,361 
M319,359 L319,361 
M328,359 L328,361 
M337,359 L337,361 
M346,359 L346,361 
M364,359 L364,361 
M373,359 L373,361 
M382,359 L382,361 
M392,359 L392,361 
M410,359 L410,361 
M419,359 L419,361 
M428,359 L428,361 
M437,359 L437,361 
M455,359 L455,361 
M465,359 L465,361 
M474,359 L474,361 
M483,359 L483,361 
" fill="none"/>
</g>
	<g id="yMajorTicks" stroke="rgb(0,0,0)" stroke-width="2">
	<path d="M30.6,359 L35.6,359 
M30.6,219 L35.6,219 
M30.6,78.3 L35.6,78.3 
M30.6,359 L35.6,359 
" fill="none"/>
</g>
	<g id="xMajorTicks" stroke="rgb(0,0,0)" stroke-width="2">
	<path d="M35.6,359 L35.6,364 
M81.2,359 L81.2,364 
M127,359 L127,364 
M173,359 L173,364 
M218,359 L218,364 
M264,359 L264,364 
M309,359 L309,364 
M355,359 L355,364 
M401,359 L401,364 
M446,359 L446,364 
M492,359 L492,364 
M35.6,359 L35.6,364 
" fill="none"/>
</g>
	<g id="xTicksValues" font-size="12" font-family="Lucida Sans Unicode" text-anchor="middle">
	<text x="32" y="373">0
	</text>
	<text x="77.6" y="373">2
	</text>
	<text x="123" y="373">4
	</text>
	<text x="169" y="373">6
	</text>
	<text x="215" y="373">8
	</text>
	<text x="260" y="373">10
	</text>
	<text x="306" y="373">12
	</text>
	<text x="351" y="373">14
	</text>
	<text x="397" y="373">16
	</text>
	<text x="443" y="373">18
	</text>
	<text x="488" y="373">20
	</text>
	<text x="32" y="373">0
	</text>
</g>
	<g id="yTicksValues" font-size="12" font-family="Lucida Sans Unicode" text-anchor="end">
	<text x="28.2" y="357">0
	</text>
	<text x="28.2" y="216">2
	</text>
	<text x="28.2" y="75.9">4
	</text>
	<text x="28.2" y="357">0
	</text>
</g>
	<g id="yLabel">
	<text x="13.3" y="184" text-anchor="middle" transform="rotate(-90 13.3 184)" font-size="14" font-family="Lucida Sans Unicode">y tick size 12, label 14
	</text>
</g>
	<g id="xLabel">
	<text x="264" y="391" text-anchor="middle" font-size="14" font-family="Lucida Sans Unicode">x tick size 12, label 14
	</text>
</g>
	<g id="plotPoints" clip-path="url(#plot_window)">
	<g stroke="rgb(255,0,0)" fill="rgb(255,255,255)" font-size="10" font-family="Lucida Sans Unicode" text-anchor="middle">
	<text x="58.4" y="292" text-anchor="middle">&#x25CF;
	</text>
	<text x="81.2" y="263" text-anchor="middle">&#x25CF;
	</text>
	<text x="104" y="241" text-anchor="middle">&#x25CF;
	</text>
	<text x="127" y="222" text-anchor="middle">&#x25CF;
	</text>
	<text x="150" y="205" text-anchor="middle">&#x25CF;
	</text>
	<text x="173" y="190" text-anchor="middle">&#x25CF;
	</text>
	<text x="195" y="176" text-anchor="middle">&#x25CF;
	</text>
	<text x="218" y="164" text-anchor="middle">&#x25CF;
	</text>
	<text x="241" y="151" text-anchor="middle">&#x25CF;
	</text>
	<text x="264" y="140" text-anchor="middle">&#x25CF;
	</text>
	<text x="287" y="129" text-anchor="middle">&#x25CF;
	</text>
	<text x="309" y="119" text-anchor="middle">&#x25CF;
	</text>
	<text x="332" y="109" text-anchor="middle">&#x25CF;
	</text>
	<text x="355" y="99.4" text-anchor="middle">&#x25CF;
	</text>
	<text x="378" y="90.1" text-anchor="middle">&#x25CF;
	</text>
	<text x="401" y="81.2" text-anchor="middle">&#x25CF;
	</text>
	<text x="424" y="72.6" text-anchor="middle">&#x25CF;
	</text>
	<text x="446" y="64.2" text-anchor="middle">&#x25CF;
	</text>
	<text x="469" y="56" text-anchor="middle">&#x25CF;
	</text>
</g>
</g>
	<g id="title">
	<text x="250" y="27" text-anchor="middle" font-size="18" font-family="Lucida Sans Unicode" font-weight="normal">
	</text>
</g>
	<g id="plotXValues">
</g>
	<g id="plotYValues">
</g>
</svg>
