<?xml version="1.0" encoding="UTF-8" standalone="no"?>
<svg width="500" height ="400" version="1.1"
xmlns:svg ="http://www.w3.org/2000/svg"
xmlns:rdf="http://www.w3.org/1999/02/22-rdf-syntax-ns#"
xmlns:cc="http://web.resource.org/cc/"
xmlns:dc="http://purl.org/dc/elements/1.1/"
xmlns ="http://www.w3.org/2000/svg"
>
<!-- SVG plot written using Boost.Plot program (Creator Jacob Voytko) --> 
<!-- Use, modification and distribution of Boost.Plot subject to the --> 
<!-- Boost Software License, Version 1.0.--> 
<!-- (See accompanying file LICENSE_1_0.txt --> 
<!-- or copy at http://www.boost.org/LICENSE_1_0.txt) --> 

<clipPath id="plot_window"><rect x="45.2" y="40.5" width="428" height="312"/></clipPath>
<g id="imageBackground" stroke="rgb(255,255,0)" fill="rgb(255,255,255)" stroke-width="2"><rect x="0" y="0" width="500" height="400"/></g>
<g id="plotBackground" stroke="rgb(119,136,153)" fill="rgb(255,255,255)" stroke-width="2"><rect x="44.2" y="39.5" width="430" height="314"/></g>
<g id="yMinorGrid" stroke="rgb(200,220,255)" stroke-width="0.5"></g>
<g id="yMajorGrid" stroke="rgb(200,220,255)" stroke-width="1"></g>
<g id="xMinorGrid" stroke="rgb(200,220,255)" stroke-width="0.5"></g>
<g id="xMajorGrid" stroke="rgb(200,220,255)" stroke-width="1"></g>
<g id="yAxis" stroke="rgb(0,0,0)" stroke-width="1"><line x1="259" y1="39.5" x2="259" y2="359"/><line x1="44.2" y1="39.5" x2="44.2" y2="354"/></g>
<g id="xAxis" stroke="rgb(0,0,0)" stroke-width="1"><line x1="39.2" y1="197" x2="474" y2="197"/><line x1="39.2" y1="354" x2="474" y2="354"/></g>
<g id="yMinorTicks" stroke="rgb(0,0,0)" stroke-width="1"><path d="M42.2,184 L44.2,184 M42.2,172 L44.2,172 M42.2,159 L44.2,159 M42.2,146 L44.2,146 M42.2,121 L44.2,121 M42.2,109 L44.2,109 M42.2,96.1 L44.2,96.1 M42.2,83.5 L44.2,83.5 M42.2,58.4 L44.2,58.4 M42.2,45.8 L44.2,45.8 M42.2,197 L44.2,197 M42.2,209 L44.2,209 M42.2,222 L44.2,222 M42.2,234 L44.2,234 M42.2,247 L44.2,247 M42.2,260 L44.2,260 M42.2,272 L44.2,272 M42.2,285 L44.2,285 M42.2,297 L44.2,297 M42.2,310 L44.2,310 M42.2,323 L44.2,323 M42.2,323 L44.2,323 M42.2,335 L44.2,335 M42.2,348 L44.2,348 " fill="none"/></g>
<g id="xMinorTicks" stroke="rgb(0,0,0)" stroke-width="1"><path d="M276,354 L276,356 M293,354 L293,356 M311,354 L311,356 M328,354 L328,356 M362,354 L362,356 M379,354 L379,356 M397,354 L397,356 M414,354 L414,356 M448,354 L448,356 M465,354 L465,356 M242,354 L242,356 M225,354 L225,356 M208,354 L208,356 M190,354 L190,356 M156,354 L156,356 M139,354 L139,356 M122,354 L122,356 M104,354 L104,356 M70,354 L70,356 M52.8,354 L52.8,356 " fill="none"/></g>
<g id="yMajorTicks" stroke="rgb(0,0,0)" stroke-width="2"><path d="M39.2,197 L44.2,197 M39.2,134 L44.2,134 M39.2,71 L44.2,71 M39.2,197 L44.2,197 M39.2,260 L44.2,260 M39.2,323 L44.2,323 " fill="none"/></g>
<g id="xMajorTicks" stroke="rgb(0,0,0)" stroke-width="2"><path d="M259,354 L259,359 M345,354 L345,359 M431,354 L431,359 M259,354 L259,359 M173,354 L173,359 M87.2,354 L87.2,359 " fill="none"/></g>
<g id="xTicksValues">
<text x="259" y="375" text-anchor="middle" font-size="12" font-family="Lucida Sans Unicode">0</text>
<text x="345" y="375" text-anchor="middle" font-size="12" font-family="Lucida Sans Unicode">2</text>
<text x="431" y="375" text-anchor="middle" font-size="12" font-family="Lucida Sans Unicode">4</text>
<text x="259" y="375" text-anchor="middle" font-size="12" font-family="Lucida Sans Unicode">0</text>
<text x="173" y="375" text-anchor="middle" font-size="12" font-family="Lucida Sans Unicode">-2</text>
<text x="87.2" y="375" text-anchor="middle" font-size="12" font-family="Lucida Sans Unicode">-4</text></g>
<g id="yTicksValues">
<text x="33.2" y="199" text-anchor="end" font-size="12" font-family="Lucida Sans Unicode">0</text>
<text x="33.2" y="136" text-anchor="end" font-size="12" font-family="Lucida Sans Unicode">2</text>
<text x="33.2" y="73.4" text-anchor="end" font-size="12" font-family="Lucida Sans Unicode">4</text>
<text x="33.2" y="199" text-anchor="end" font-size="12" font-family="Lucida Sans Unicode">0</text>
<text x="33.2" y="262" text-anchor="end" font-size="12" font-family="Lucida Sans Unicode">-2</text>
<text x="33.2" y="325" text-anchor="end" font-size="12" font-family="Lucida Sans Unicode">-4</text></g>
<g id="yLabel">
<text x="14.9" y="197" text-anchor="middle" transform = "rotate(-90 14.9 197 )" font-size="14" font-family="Lucida Sans Unicode"></text></g>
<g id="xLabel">
<text x="259" y="387" text-anchor="middle" font-size="12" font-family="Lucida Sans Unicode">time (s)</text></g>
<g id="plotPoints" clip-path="url(#plot_window)"><g stroke="rgb(0,0,0)" fill="rgb(255,255,255)">
<text x="270" y="154" text-anchor="middle" font-size="5" font-family="Lucida Sans Unicode">&#x25CB;</text>
<text x="306" y="97.6" text-anchor="middle" font-size="5" font-family="Lucida Sans Unicode">&#x25CB;</text>
<text x="444" y="101" text-anchor="middle" font-size="5" font-family="Lucida Sans Unicode">&#x25CB;</text></g>
</g>
<g id="limitPoints" stroke="rgb(119,136,153)" fill="rgb(250,235,215)"><polygon points=" 39.2,344 49.2,344 44.2,354"/><polygon points=" 39.2,124 49.2,124 44.2,134"/><polygon points=" 39.2,92.4 49.2,92.4 44.2,102"/><polygon points=" 211,344 221,344 216,354"/><polygon points=" 254,187 264,187 259,197"/><polygon points=" 297,29.5 307,29.5 302,39.5"/><polygon points=" 383,187 393,187 388,197"/><polygon points=" 469,124 479,124 474,134"/><polygon points=" 469,29.5 479,29.5 474,39.5"/></g>
<g id="title">
<text x="250" y="27" text-anchor="middle" font-size="18" font-family="Lucida Sans Unicode" font-weight="normal">Default 2D 'at limits' NaN and infinities Demo</text></g>
<g id="plotXValues"><g>
<text x="270" y="143" text-anchor="middle" font-size="12" font-family="Lucida Sans Unicode">0.25<tspan fill="rgb(0,0,0)" font-size="12" font-family="Lucida Sans Unicode"></tspan><tspan fill="rgb(0,0,0)" font-size="12" font-family="Lucida Sans Unicode"></tspan><tspan font-size="12" font-family="Lucida Sans Unicode">1.4</tspan></text></g>
<g>
<text x="306" y="86.1" text-anchor="middle" font-size="12" font-family="Lucida Sans Unicode">1.1<tspan fill="rgb(0,0,0)" font-size="12" font-family="Lucida Sans Unicode"></tspan><tspan fill="rgb(0,0,0)" font-size="12" font-family="Lucida Sans Unicode"></tspan><tspan font-size="12" font-family="Lucida Sans Unicode">3.2</tspan></text></g>
<g>
<text x="444" y="89.3" text-anchor="middle" font-size="12" font-family="Lucida Sans Unicode">4.3<tspan fill="rgb(0,0,0)" font-size="12" font-family="Lucida Sans Unicode"></tspan><tspan fill="rgb(0,0,0)" font-size="12" font-family="Lucida Sans Unicode"></tspan><tspan font-size="12" font-family="Lucida Sans Unicode">3.1</tspan></text></g>
</g>
<g id="plotYValues"></g>
</svg>
