<?xml version="1.0" encoding="UTF-8" standalone="no"?>
<svg width="500" height ="400" version="1.1"
xmlns:svg ="http://www.w3.org/2000/svg"
xmlns:rdf="http://www.w3.org/1999/02/22-rdf-syntax-ns#"
xmlns:cc="http://web.resource.org/cc/"
xmlns:dc="http://purl.org/dc/elements/1.1/"
xmlns ="http://www.w3.org/2000/svg"
>
<!-- SVG plot written using Boost.Plot program (Creator Jacob Voytko) --> 
<!-- Use, modification and distribution of Boost.Plot subject to the --> 
<!-- Boost Software License, Version 1.0.--> 
<!-- (See accompanying file LICENSE_1_0.txt --> 
<!-- or copy at http://www.boost.org/LICENSE_1_0.txt) --> 

<clipPath id="plot_window"><rect x="33.7" y="48.5" width="347" height="325"/></clipPath>
<g id="imageBackground" stroke="rgb(0,0,255)" fill="rgb(255,255,255)" stroke-width="2"><rect x="0" y="0" width="500" height="400"/></g>
<g id="plotBackground" stroke="rgb(119,136,153)" fill="rgb(255,255,255)" stroke-width="2"><rect x="32.7" y="47.5" width="349" height="327"/></g>
<g id="yMinorGrid" stroke="rgb(200,220,255)" stroke-width="0.5"></g>
<g id="yMajorGrid" stroke="rgb(200,220,255)" stroke-width="1"></g>
<g id="xMinorGrid" stroke="rgb(200,220,255)" stroke-width="0.5"></g>
<g id="xMajorGrid" stroke="rgb(200,220,255)" stroke-width="1"></g>
<g id="yAxis" stroke="rgb(0,0,0)" stroke-width="1"><line x1="207" y1="47.5" x2="207" y2="380"/><line x1="32.7" y1="47.5" x2="32.7" y2="375"/></g>
<g id="xAxis" stroke="rgb(0,0,0)" stroke-width="1"><line x1="27.7" y1="211" x2="382" y2="211"/><line x1="27.7" y1="375" x2="382" y2="375"/></g>
<g id="yMinorTicks" stroke="rgb(0,0,0)" stroke-width="1"><path d="M30.7,204 L32.7,204 M30.7,198 L32.7,198 M30.7,191 L32.7,191 M30.7,185 L32.7,185 M30.7,172 L32.7,172 M30.7,165 L32.7,165 M30.7,159 L32.7,159 M30.7,152 L32.7,152 M30.7,139 L32.7,139 M30.7,133 L32.7,133 M30.7,126 L32.7,126 M30.7,119 L32.7,119 M30.7,106 L32.7,106 M30.7,99.8 L32.7,99.8 M30.7,93.3 L32.7,93.3 M30.7,86.7 L32.7,86.7 M30.7,73.7 L32.7,73.7 M30.7,67.1 L32.7,67.1 M30.7,60.6 L32.7,60.6 M30.7,54 L32.7,54 M30.7,211 L32.7,211 M30.7,218 L32.7,218 M30.7,224 L32.7,224 M30.7,231 L32.7,231 M30.7,237 L32.7,237 M30.7,244 L32.7,244 M30.7,250 L32.7,250 M30.7,257 L32.7,257 M30.7,263 L32.7,263 M30.7,270 L32.7,270 M30.7,276 L32.7,276 M30.7,276 L32.7,276 M30.7,283 L32.7,283 M30.7,289 L32.7,289 M30.7,296 L32.7,296 M30.7,303 L32.7,303 M30.7,309 L32.7,309 M30.7,316 L32.7,316 M30.7,322 L32.7,322 M30.7,329 L32.7,329 M30.7,335 L32.7,335 M30.7,342 L32.7,342 M30.7,348 L32.7,348 M30.7,355 L32.7,355 M30.7,361 L32.7,361 M30.7,368 L32.7,368 M30.7,375 L32.7,375 " fill="none"/></g>
<g id="xMinorTicks" stroke="rgb(0,0,0)" stroke-width="1"><path d="M214,375 L214,377 M221,375 L221,377 M228,375 L228,377 M235,375 L235,377 M249,375 L249,377 M256,375 L256,377 M263,375 L263,377 M270,375 L270,377 M284,375 L284,377 M291,375 L291,377 M298,375 L298,377 M305,375 L305,377 M319,375 L319,377 M326,375 L326,377 M333,375 L333,377 M340,375 L340,377 M354,375 L354,377 M361,375 L361,377 M368,375 L368,377 M375,375 L375,377 M200,375 L200,377 M193,375 L193,377 M186,375 L186,377 M179,375 L179,377 M165,375 L165,377 M158,375 L158,377 M151,375 L151,377 M144,375 L144,377 M130,375 L130,377 M123,375 L123,377 M116,375 L116,377 M109,375 L109,377 M95.5,375 L95.5,377 M88.6,375 L88.6,377 M81.6,375 L81.6,377 M74.6,375 L74.6,377 M60.6,375 L60.6,377 M53.6,375 L53.6,377 M46.7,375 L46.7,377 M39.7,375 L39.7,377 " fill="none"/></g>
<g id="yMajorTicks" stroke="rgb(0,0,0)" stroke-width="2"><path d="M27.7,211 L32.7,211 M27.7,178 L32.7,178 M27.7,146 L32.7,146 M27.7,113 L32.7,113 M27.7,80.2 L32.7,80.2 M27.7,47.5 L32.7,47.5 M27.7,211 L32.7,211 M27.7,244 L32.7,244 M27.7,276 L32.7,276 M27.7,309 L32.7,309 M27.7,342 L32.7,342 M27.7,375 L32.7,375 " fill="none"/></g>
<g id="xMajorTicks" stroke="rgb(0,0,0)" stroke-width="2"><path d="M207,375 L207,380 M242,375 L242,380 M277,375 L277,380 M312,375 L312,380 M347,375 L347,380 M382,375 L382,380 M207,375 L207,380 M172,375 L172,380 M137,375 L137,380 M103,375 L103,380 M67.6,375 L67.6,380 M32.7,375 L32.7,380 " fill="none"/></g>
<g id="xTicksValues">
<text x="207" y="395" text-anchor="middle" font-size="12" font-family="Lucida Sans Unicode">0</text>
<text x="242" y="395" text-anchor="middle" font-size="12" font-family="Lucida Sans Unicode">2</text>
<text x="277" y="395" text-anchor="middle" font-size="12" font-family="Lucida Sans Unicode">4</text>
<text x="312" y="395" text-anchor="middle" font-size="12" font-family="Lucida Sans Unicode">6</text>
<text x="347" y="395" text-anchor="middle" font-size="12" font-family="Lucida Sans Unicode">8</text>
<text x="382" y="395" text-anchor="middle" font-size="12" font-family="Lucida Sans Unicode">10</text>
<text x="207" y="395" text-anchor="middle" font-size="12" font-family="Lucida Sans Unicode">0</text>
<text x="172" y="395" text-anchor="middle" font-size="12" font-family="Lucida Sans Unicode">-2</text>
<text x="137" y="395" text-anchor="middle" font-size="12" font-family="Lucida Sans Unicode">-4</text>
<text x="103" y="395" text-anchor="middle" font-size="12" font-family="Lucida Sans Unicode">-6</text>
<text x="67.6" y="395" text-anchor="middle" font-size="12" font-family="Lucida Sans Unicode">-8</text>
<text x="32.7" y="395" text-anchor="middle" font-size="12" font-family="Lucida Sans Unicode">-10</text></g>
<g id="yTicksValues">
<text x="21.7" y="213" text-anchor="end" font-size="12" font-family="Lucida Sans Unicode">0</text>
<text x="21.7" y="181" text-anchor="end" font-size="12" font-family="Lucida Sans Unicode">2</text>
<text x="21.7" y="148" text-anchor="end" font-size="12" font-family="Lucida Sans Unicode">4</text>
<text x="21.7" y="115" text-anchor="end" font-size="12" font-family="Lucida Sans Unicode">6</text>
<text x="21.7" y="82.6" text-anchor="end" font-size="12" font-family="Lucida Sans Unicode">8</text>
<text x="21.7" y="49.9" text-anchor="end" font-size="12" font-family="Lucida Sans Unicode">10</text>
<text x="21.7" y="213" text-anchor="end" font-size="12" font-family="Lucida Sans Unicode">0</text>
<text x="21.7" y="246" text-anchor="end" font-size="12" font-family="Lucida Sans Unicode">-2</text>
<text x="21.7" y="279" text-anchor="end" font-size="12" font-family="Lucida Sans Unicode">-4</text>
<text x="21.7" y="312" text-anchor="end" font-size="12" font-family="Lucida Sans Unicode">-6</text>
<text x="21.7" y="344" text-anchor="end" font-size="12" font-family="Lucida Sans Unicode">-8</text>
<text x="21.7" y="377" text-anchor="end" font-size="12" font-family="Lucida Sans Unicode">-10</text></g>
<g id="yLabel">
<text x="-8.6" y="211" text-anchor="middle" transform = "rotate(-90 -8.6 211 )" font-size="14" font-family="Lucida Sans Unicode"></text></g>
<g id="xLabel">
<text x="207" y="410" text-anchor="middle" font-size="14" font-family="Lucida Sans Unicode"></text></g>
<g id="plotPoints" clip-path="url(#plot_window)"><g stroke="rgb(0,255,255)"><path d="M153,311 L207,311 M301,134 L207,134 " stroke-width="5" fill="none"/></g>
</g>
<g id="legendBackground" stroke="rgb(255,255,0)" fill="rgb(255,255,255)" stroke-width="1"><rect x="396" y="47.5" width="102" height="42"/><rect x="396" y="47.5" width="102" height="42"/></g>
<g id="legendPoints"></g>
<g id="legendText">
<text x="410" y="75.5" font-size="14" font-family="Lucida Sans Unicode">Series 2</text></g>
<g id="title">
<text x="250" y="36" text-anchor="middle" font-size="18" font-family="Lucida Sans Unicode">Y Times</text></g>
<g id="plotXValues"></g>
<g id="plotYValues"></g>
</svg>
