<?xml version="1.0" encoding="UTF-8" standalone="no"?>
<svg width="700" height ="500" version="1.1"
xmlns:svg ="http://www.w3.org/2000/svg"
xmlns:rdf="http://www.w3.org/1999/02/22-rdf-syntax-ns#"
xmlns:cc="http://web.resource.org/cc/"
xmlns:dc="http://purl.org/dc/elements/1.1/"
xmlns ="http://www.w3.org/2000/svg"
>
<!-- SVG plot written using Boost.Plot program (Creator Jacob Voytko) --> 
<!-- Use, modification and distribution of Boost.Plot subject to the --> 
<!-- Boost Software License, Version 1.0.--> 
<!-- (See accompanying file LICENSE_1_0.txt --> 
<!-- or copy at http://www.boost.org/LICENSE_1_0.txt) --> 

<clipPath id="plot_window"><rect x="54.5" y="44" width="521" height="404"/></clipPath>
<g id="imageBackground" stroke="rgb(255,255,0)" fill="rgb(248,248,255)" stroke-width="2"><rect x="0" y="0" width="700" height="500"/></g>
<g id="plotBackground" stroke="rgb(0,128,0)" fill="rgb(255,255,255)" stroke-width="1"><rect x="53.5" y="43" width="523" height="406"/></g>
<g id="yMinorGrid" stroke="rgb(240,240,255)" stroke-width="1"><path d="M54.5,434 L576,434 M54.5,374 L576,374 M54.5,344 L576,344 M54.5,284 L576,284 M54.5,254 L576,254 M54.5,193 L576,193 M54.5,163 L576,163 M54.5,103 L576,103 M54.5,73.1 L576,73.1 " fill="none"/></g>
<g id="yMajorGrid" stroke="rgb(200,220,255)" stroke-width="2"><path d="M54.5,404 L576,404 M54.5,314 L576,314 M54.5,223 L576,223 M54.5,133 L576,133 M54.5,43 L576,43 " fill="none"/></g>
<g id="xMinorGrid" stroke="rgb(240,240,255)" stroke-width="0.5"><path d="M133,44 L133,448 M164,44 L164,448 M228,44 L228,448 M260,44 L260,448 M323,44 L323,448 M355,44 L355,448 M418,44 L418,448 M450,44 L450,448 M513,44 L513,448 M545,44 L545,448 M69.4,44 L69.4,448 " fill="none"/></g>
<g id="xMajorGrid" stroke="rgb(200,220,255)" stroke-width="1"><path d="M101,43 L101,449 M196,43 L196,449 M291,43 L291,449 M386,43 L386,449 M482,43 L482,449 M577,43 L577,449 M101,43 L101,449 " fill="none"/></g>
<g id="yAxis" stroke="rgb(0,0,0)" stroke-width="1"><line x1="101" y1="43" x2="101" y2="449"/><line x1="577" y1="43" x2="577" y2="449"/></g>
<g id="xAxis" stroke="rgb(0,0,0)" stroke-width="1"><line x1="53.5" y1="449" x2="577" y2="449"/></g>
<g id="yMinorTicks" stroke="rgb(0,0,0)" stroke-width="1"><path d="M96.1,434 L101,434 M96.1,374 L101,374 M96.1,344 L101,344 M96.1,284 L101,284 M96.1,254 L101,254 M96.1,193 L101,193 M96.1,163 L101,163 M96.1,103 L101,103 M96.1,73.1 L101,73.1 " fill="none"/></g>
<g id="xMinorTicks" stroke="rgb(0,0,0)" stroke-width="1"><path d="M133,449 L133,454 M164,449 L164,454 M228,449 L228,454 M260,449 L260,454 M323,449 L323,454 M355,449 L355,454 M418,449 L418,454 M450,449 L450,454 M513,449 L513,454 M545,449 L545,454 M69.4,449 L69.4,454 " fill="none"/></g>
<g id="yMajorTicks" stroke="rgb(0,0,0)" stroke-width="2"><path d="M91.1,404 L101,404 M91.1,314 L101,314 M91.1,223 L101,223 M91.1,133 L101,133 M91.1,43 L101,43 " fill="none"/></g>
<g id="xMajorTicks" stroke="rgb(0,0,0)" stroke-width="2"><path d="M101,449 L101,459 M196,449 L196,459 M291,449 L291,459 M386,449 L386,459 M482,449 L482,459 M577,449 L577,459 M101,449 L101,459 " fill="none"/></g>
<g id="xTicksValues">
<text x="101" y="475" text-anchor="middle" font-size="12" font-family="Lucida Sans Unicode">0.00</text>
<text x="196" y="475" text-anchor="middle" font-size="12" font-family="Lucida Sans Unicode">2.00</text>
<text x="291" y="475" text-anchor="middle" font-size="12" font-family="Lucida Sans Unicode">4.00</text>
<text x="386" y="475" text-anchor="middle" font-size="12" font-family="Lucida Sans Unicode">6.00</text>
<text x="482" y="475" text-anchor="middle" font-size="12" font-family="Lucida Sans Unicode">8.00</text>
<text x="577" y="475" text-anchor="middle" font-size="12" font-family="Lucida Sans Unicode">1.00e1</text>
<text x="101" y="475" text-anchor="middle" font-size="12" font-family="Lucida Sans Unicode">0.00</text></g>
<g id="yTicksValues">
<text x="85.1" y="406" text-anchor="end" font-size="12" font-family="Lucida Sans Unicode">2.0</text>
<text x="85.1" y="316" text-anchor="end" font-size="12" font-family="Lucida Sans Unicode">4.0</text>
<text x="85.1" y="226" text-anchor="end" font-size="12" font-family="Lucida Sans Unicode">6.0</text>
<text x="85.1" y="136" text-anchor="end" font-size="12" font-family="Lucida Sans Unicode">8.0</text>
<text x="85.1" y="45.4" text-anchor="end" font-size="12" font-family="Lucida Sans Unicode">10.0</text></g>
<g id="yLabel">
<text x="19" y="246" text-anchor="middle" transform = "rotate(-90 19 246 )" font-size="14" font-family="Lucida Sans Unicode">Y-axis</text></g>
<g id="xLabel">
<text x="315" y="488" text-anchor="middle" font-size="12" font-family="Lucida Sans Unicode">X-axis</text></g>
<g id="plotLines" stroke-width="2"><g clip-path="url(#plot_window)" stroke="rgb(0,0,0)" stroke-width="2"><path d="M-375,-3.93e+03 S-336,-3.23e+03 -327,-3.07e+03 S-289,-2.45e+03 -279,-2.3e+03 S-241,-1.75e+03 -232,-1.63e+03 S-194,-1.15e+03 -184,-1.04e+03 S-146,-634 -137,-543 S-98.7,-210 -89.2,-137 S-51.1,124 -41.6,178 S-3.57,368 5.94,404 S44,521 53.5,539 S91.5,584 101,584 S139,557 149,539 S187,440 196,404 S234,232 244,178 S282,-65.3 291,-137 S329,-453 339,-543 S377,-931 386,-1.04e+03 S424,-1.5e+03 434,-1.63e+03 S472,-2.16e+03 482,-2.3e+03 S520,-2.91e+03 529,-3.07e+03 S577,-4.01e+03 577,-3.93e+03 " fill="none"/></g>
</g>
<g id="plotPoints" clip-path="url(#plot_window)"><g stroke="rgb(0,0,0)" fill="rgb(255,0,0)">
<text x="196" y="434" text-anchor="middle" font-size="10" font-family="Lucida Sans Unicode">&#x25CB;</text>
<text x="244" y="419" text-anchor="middle" font-size="10" font-family="Lucida Sans Unicode">&#x25CB;</text>
<text x="291" y="407" text-anchor="middle" font-size="10" font-family="Lucida Sans Unicode">&#x25CB;</text>
<text x="339" y="396" text-anchor="middle" font-size="10" font-family="Lucida Sans Unicode">&#x25CB;</text>
<text x="386" y="387" text-anchor="middle" font-size="10" font-family="Lucida Sans Unicode">&#x25CB;</text>
<text x="434" y="378" text-anchor="middle" font-size="10" font-family="Lucida Sans Unicode">&#x25CB;</text>
<text x="482" y="370" text-anchor="middle" font-size="10" font-family="Lucida Sans Unicode">&#x25CB;</text>
<text x="529" y="362" text-anchor="middle" font-size="10" font-family="Lucida Sans Unicode">&#x25CB;</text></g>
<g stroke="rgb(0,0,0)" fill="rgb(255,165,0)">
<text x="196" y="406" text-anchor="middle" font-size="5" font-family="Lucida Sans Unicode">&#x25CB;</text>
<text x="244" y="180" text-anchor="middle" font-size="5" font-family="Lucida Sans Unicode">&#x25CB;</text></g>
<g stroke="rgb(0,0,0)" fill="rgb(255,255,0)">
<text x="196" y="362" text-anchor="middle" font-size="10" font-family="Lucida Sans Unicode">&#x25A1;</text>
<text x="244" y="272" text-anchor="middle" font-size="10" font-family="Lucida Sans Unicode">&#x25A1;</text>
<text x="291" y="182" text-anchor="middle" font-size="10" font-family="Lucida Sans Unicode">&#x25A1;</text>
<text x="339" y="91.3" text-anchor="middle" font-size="10" font-family="Lucida Sans Unicode">&#x25A1;</text></g>
</g>
<g id="limitPoints" stroke="rgb(119,136,153)" fill="rgb(250,235,215)"><polygon points=" 48.5,439 58.5,439 53.5,449"/><polygon points=" 48.5,439 58.5,439 53.5,449"/><polygon points=" 48.5,439 58.5,439 53.5,449"/><polygon points=" 48.5,439 58.5,439 53.5,449"/><polygon points=" 48.5,439 58.5,439 53.5,449"/><polygon points=" 48.5,439 58.5,439 53.5,449"/><polygon points=" 48.5,439 58.5,439 53.5,449"/><polygon points=" 48.5,439 58.5,439 53.5,449"/><polygon points=" 48.5,439 58.5,439 53.5,449"/><polygon points=" 48.5,439 58.5,439 53.5,449"/></g>
<g id="legendBackground" stroke="rgb(255,255,0)" fill="rgb(255,255,224)" stroke-width="1"><rect x="583" y="43" width="103" height="78.7"/></g>
<g id="legendPoints"><g stroke="rgb(0,0,0)" fill="rgb(255,0,0)" stroke-width="2">
<text x="600" y="88.6" text-anchor="middle" font-size="10" font-family="Lucida Sans Unicode">&#x25CB;</text></g>
<g stroke="rgb(0,0,0)" fill="rgb(255,165,0)" stroke-width="2">
<text x="600" y="97.9" text-anchor="middle" font-size="5" font-family="Lucida Sans Unicode">&#x25CB;</text></g>
<g stroke="rgb(0,0,0)" fill="rgb(255,255,0)" stroke-width="3">
<text x="600" y="109" text-anchor="middle" font-size="10" font-family="Lucida Sans Unicode">&#x25A1;</text></g>
</g>
<g id="legendText">
<text x="634" y="70.7" text-anchor="middle" font-size="10" font-family="Lucida Sans Unicode" font-weight="normal">Unicode &#x3A9;&#x3A6;</text>
<text x="608" y="87.3" font-size="10" font-family="Lucida Sans Unicode" font-weight="normal">Sqrt(x)</text>
<text x="608" y="97.3" font-size="10" font-family="Lucida Sans Unicode" font-weight="normal">-2 + x^2</text>
<text x="608" y="107" font-size="10" font-family="Lucida Sans Unicode" font-weight="normal">-1 + 2x</text></g>
<g id="title" fill="rgb(255,0,0)">
<text x="350" y="25" text-anchor="middle" font-size="20" font-family="Lucida Sans Unicode" font-weight="normal">Plot of Mathematical Functions YP</text></g>
<g id="plotXValues"></g>
<g id="plotYValues"></g>
</svg>
