<?xml version="1.0" encoding="UTF-8" standalone="no"?>
<svg width="500" height ="400" version="1.1"
xmlns:svg ="http://www.w3.org/2000/svg"
xmlns:rdf="http://www.w3.org/1999/02/22-rdf-syntax-ns#"
xmlns:cc="http://web.resource.org/cc/"
xmlns:dc="http://purl.org/dc/elements/1.1/"
xmlns ="http://www.w3.org/2000/svg"
>
<!-- SVG plot written using Boost.Plot program (Creator Jacob Voytko) --> 
<!-- Use, modification and distribution of Boost.Plot subject to the --> 
<!-- Boost Software License, Version 1.0.--> 
<!-- (See accompanying file LICENSE_1_0.txt --> 
<!-- or copy at http://www.boost.org/LICENSE_1_0.txt) --> 

<clipPath id="plot_window"><rect x="60.4" y="9" width="413" height="339"/></clipPath>
<g id="imageBackground" stroke="rgb(255,255,0)" fill="rgb(255,255,255)" stroke-width="2"><rect x="0" y="0" width="500" height="400"/></g>
<g id="plotBackground" stroke="rgb(119,136,153)" fill="rgb(255,255,255)" stroke-width="2"><rect x="59.4" y="8" width="415" height="341"/></g>
<g id="yMinorGrid" stroke="rgb(200,220,255)" stroke-width="0.5"></g>
<g id="yMajorGrid" stroke="rgb(200,220,255)" stroke-width="1"></g>
<g id="xMinorGrid" stroke="rgb(200,220,255)" stroke-width="0.5"></g>
<g id="xMajorGrid" stroke="rgb(200,220,255)" stroke-width="1"></g>
<g id="yAxis" stroke="rgb(0,0,0)" stroke-width="1"><line x1="59.4" y1="8" x2="59.4" y2="354"/><line x1="59.4" y1="8" x2="59.4" y2="349"/></g>
<g id="xAxis" stroke="rgb(0,0,0)" stroke-width="1"><line x1="54.4" y1="349" x2="474" y2="349"/><line x1="54.4" y1="349" x2="474" y2="349"/></g>
<g id="yMinorTicks" stroke="rgb(0,0,0)" stroke-width="1"><path d="M57.4,322 L59.4,322 M57.4,294 L59.4,294 M57.4,267 L59.4,267 M57.4,240 L59.4,240 M57.4,185 L59.4,185 M57.4,158 L59.4,158 M57.4,131 L59.4,131 M57.4,103 L59.4,103 M57.4,48.9 L59.4,48.9 M57.4,21.6 L59.4,21.6 M57.4,349 L59.4,349 " fill="none"/></g>
<g id="xMinorTicks" stroke="rgb(0,0,0)" stroke-width="1"><path d="M67.7,349 L67.7,351 M76,349 L76,351 M84.3,349 L84.3,351 M92.6,349 L92.6,351 M109,349 L109,351 M117,349 L117,351 M126,349 L126,351 M134,349 L134,351 M151,349 L151,351 M159,349 L159,351 M167,349 L167,351 M175,349 L175,351 M192,349 L192,351 M200,349 L200,351 M209,349 L209,351 M217,349 L217,351 M234,349 L234,351 M242,349 L242,351 M250,349 L250,351 M258,349 L258,351 M275,349 L275,351 M283,349 L283,351 M292,349 L292,351 M300,349 L300,351 M316,349 L316,351 M325,349 L325,351 M333,349 L333,351 M341,349 L341,351 M358,349 L358,351 M366,349 L366,351 M374,349 L374,351 M383,349 L383,351 M399,349 L399,351 M408,349 L408,351 M416,349 L416,351 M424,349 L424,351 M441,349 L441,351 M449,349 L449,351 M457,349 L457,351 M466,349 L466,351 " fill="none"/></g>
<g id="yMajorTicks" stroke="rgb(0,0,0)" stroke-width="2"><path d="M54.4,349 L59.4,349 M54.4,213 L59.4,213 M54.4,76.2 L59.4,76.2 M54.4,349 L59.4,349 " fill="none"/></g>
<g id="xMajorTicks" stroke="rgb(0,0,0)" stroke-width="2"><path d="M59.4,349 L59.4,354 M101,349 L101,354 M142,349 L142,354 M184,349 L184,354 M225,349 L225,354 M267,349 L267,354 M308,349 L308,354 M350,349 L350,354 M391,349 L391,354 M433,349 L433,354 M474,349 L474,354 M59.4,349 L59.4,354 " fill="none"/></g>
<g id="xTicksValues">
<text x="59.4" y="370" text-anchor="middle" font-size="12" font-family="Verdana">0</text>
<text x="101" y="370" text-anchor="middle" font-size="12" font-family="Verdana">2</text>
<text x="142" y="370" text-anchor="middle" font-size="12" font-family="Verdana">4</text>
<text x="184" y="370" text-anchor="middle" font-size="12" font-family="Verdana">6</text>
<text x="225" y="370" text-anchor="middle" font-size="12" font-family="Verdana">8</text>
<text x="267" y="370" text-anchor="middle" font-size="12" font-family="Verdana">10</text>
<text x="308" y="370" text-anchor="middle" font-size="12" font-family="Verdana">12</text>
<text x="350" y="370" text-anchor="middle" font-size="12" font-family="Verdana">14</text>
<text x="391" y="370" text-anchor="middle" font-size="12" font-family="Verdana">16</text>
<text x="433" y="370" text-anchor="middle" font-size="12" font-family="Verdana">18</text>
<text x="474" y="370" text-anchor="middle" font-size="12" font-family="Verdana">20</text>
<text x="59.4" y="370" text-anchor="middle" font-size="12" font-family="Verdana">0</text></g>
<g id="yTicksValues">
<text x="48.4" y="351" text-anchor="end" font-size="12" font-family="Verdana">0</text>
<text x="48.4" y="215" text-anchor="end" font-size="12" font-family="Verdana">2</text>
<text x="48.4" y="78.6" text-anchor="end" font-size="12" font-family="Verdana">4</text>
<text x="48.4" y="351" text-anchor="end" font-size="12" font-family="Verdana">0</text></g>
<g id="yLabel">
<text x="37.3" y="179" text-anchor="middle" transform = "rotate(-90 37.3 179 )" font-size="10" font-family="Verdana">y (small X axis label font size 10)</text></g>
<g id="xLabel">
<text x="267" y="380" text-anchor="middle" font-size="10" font-family="Verdana">x (small X axis label font size 10)</text></g>
<g id="plotPoints" clip-path="url(#plot_window)"><g stroke="rgb(255,0,0)" fill="rgb(255,255,255)"><circle cx="80.1" cy="281" r="5"/><circle cx="101" cy="253" r="5"/><circle cx="122" cy="231" r="5"/><circle cx="142" cy="213" r="5"/><circle cx="163" cy="197" r="5"/><circle cx="184" cy="182" r="5"/><circle cx="205" cy="169" r="5"/><circle cx="225" cy="156" r="5"/><circle cx="246" cy="144" r="5"/><circle cx="267" cy="133" r="5"/><circle cx="287" cy="123" r="5"/><circle cx="308" cy="113" r="5"/><circle cx="329" cy="103" r="5"/><circle cx="350" cy="93.8" r="5"/><circle cx="370" cy="84.9" r="5"/><circle cx="391" cy="76.2" r="5"/><circle cx="412" cy="67.8" r="5"/><circle cx="433" cy="59.7" r="5"/><circle cx="453" cy="51.7" r="5"/></g>
</g>
<g id="title">
<text x="250" y="36" text-anchor="middle" font-size="18" font-family="Verdana"></text></g>
<g id="plotXValues"></g>
<g id="plotYValues"></g>
</svg>
