<?xml version="1.0" encoding="UTF-8" standalone="no"?>
<svg width="500" height ="200" version="1.1"
xmlns:svg ="http://www.w3.org/2000/svg"
xmlns:rdf="http://www.w3.org/1999/02/22-rdf-syntax-ns#"
xmlns:cc="http://web.resource.org/cc/"
xmlns:dc="http://purl.org/dc/elements/1.1/"
xmlns ="http://www.w3.org/2000/svg"
>
<!-- SVG plot written using Boost.Plot program (Creator Jacob Voytko) --> 
<!-- Use, modification and distribution of Boost.Plot subject to the --> 
<!-- Boost Software License, Version 1.0.--> 
<!-- (See accompanying file LICENSE_1_0.txt --> 
<!-- or copy at http://www.boost.org/LICENSE_1_0.txt) --> 

<!-- File demo_color.svg --> 
<g id="imageBackground" stroke="rgb(255,255,0)" fill="rgb(255,255,255)" stroke-width="1"><rect x="0" y="0" width="500" height="200"/></g>
<g id="plotBackground" stroke="rgb(250,250,210)" fill="rgb(255,255,255)" stroke-width="1"><rect x="11" y="11" width="386" height="145"/></g>
<g id="xMinorGrid" stroke="rgb(200,220,255)" stroke-width="0.5"></g>
<g id="xMajorGrid" stroke="rgb(200,220,255)" stroke-width="1"></g>
<g id="xAxis" stroke="rgb(0,0,255)" stroke-width="1"><line x1="11" y1="11" x2="11" y2="156"/><line x1="11" y1="86" x2="397" y2="86"/></g>
<g id="xMinorTicks" stroke="rgb(0,0,0)" stroke-width="1"><path d="M33.1,86 L33.1,88 M55.1,86 L55.1,88 M77.2,86 L77.2,88 M99.2,86 L99.2,88 M143,86 L143,88 M165,86 L165,88 M187,86 L187,88 M210,86 L210,88 M254,86 L254,88 M276,86 L276,88 M298,86 L298,88 M320,86 L320,88 M364,86 L364,88 M386,86 L386,88 " fill="none"/></g>
<g id="xMajorTicks" stroke="rgb(0,0,0)" stroke-width="2"><path d="M11,86 L11,91 M121,86 L121,91 M232,86 L232,91 M342,86 L342,91 M11,86 L11,91 " fill="none"/></g>
<g id="xTicksValues">
<text x="121" y="107" text-anchor="middle" font-size="12" font-family="Verdana">2</text>
<text x="232" y="107" text-anchor="middle" font-size="12" font-family="Verdana">4</text>
<text x="342" y="107" text-anchor="middle" font-size="12" font-family="Verdana">6</text></g>
<g id="xLabel" stroke="rgb(255,0,255)" fill="rgb(255,0,255)">
<text x="204" y="180" text-anchor="middle" font-size="14" font-family="Verdana">axis</text></g>
<g id="plotPoints"><g stroke="rgb(0,0,0)"><line x1="66.2" y1="88.5" x2="66.2" y2="78.5"/><line x1="121" y1="88.5" x2="121" y2="78.5"/><line x1="176" y1="88.5" x2="176" y2="78.5"/></g>
</g>
<g id="legendBackground" stroke="rgb(255,255,0)" fill="rgb(255,255,255)" stroke-width="1"><rect x="405" y="11" width="100" height="37.6"/></g>
<g id="legendPoints"><g stroke="rgb(0,0,0)" stroke-width="2"><line x1="419" y1="54" x2="419" y2="44"/></g>
</g>
<g id="legendText">
<text x="438" y="49" font-size="14" font-family="Verdana">My Data</text></g>
<g id="title">
<text x="250" y="36" text-anchor="middle" font-size="18" font-family="Verdana"></text></g>
</svg>
