<?xml version="1.0" encoding="UTF-8" standalone="no"?>
<svg width="500" height ="200" version="1.1"
xmlns:svg ="http://www.w3.org/2000/svg"
xmlns:rdf="http://www.w3.org/1999/02/22-rdf-syntax-ns#"
xmlns:cc="http://web.resource.org/cc/"
xmlns:dc="http://purl.org/dc/elements/1.1/"
xmlns ="http://www.w3.org/2000/svg"
>
<!-- SVG plot written using Boost.Plot program (Creator Jacob Voytko) --> 
<!-- Use, modification and distribution of Boost.Plot subject to the --> 
<!-- Boost Software License, Version 1.0.--> 
<!-- (See accompanying file LICENSE_1_0.txt --> 
<!-- or copy at http://www.boost.org/LICENSE_1_0.txt) --> 

<!-- File ./demo_1d_x_external.svg --> 
<g id="imageBackground" stroke="rgb(0,0,0)" fill="rgb(255,255,255)" stroke-width="1"><rect x="0" y="0" width="500" height="200"/></g>
<g id="plotBackground" stroke="rgb(250,250,210)" fill="rgb(255,255,255)" stroke-width="1"><rect x="21" y="42.5" width="400" height="142"/></g>
<g id="xMinorGrid" stroke="rgb(211,211,211)" stroke-width="0.5"><path d="M71.9,43.5 L71.9,183 M86.5,43.5 L86.5,183 M101,43.5 L101,183 M116,43.5 L116,183 M145,43.5 L145,183 M159,43.5 L159,183 M174,43.5 L174,183 M188,43.5 L188,183 M217,43.5 L217,183 M232,43.5 L232,183 M246,43.5 L246,183 M261,43.5 L261,183 M290,43.5 L290,183 M305,43.5 L305,183 M319,43.5 L319,183 M334,43.5 L334,183 M363,43.5 L363,183 M377,43.5 L377,183 M392,43.5 L392,183 M406,43.5 L406,183 M42.8,43.5 L42.8,183 M28.3,43.5 L28.3,183 " fill="none"/></g>
<g id="xMajorGrid" stroke="rgb(255,192,203)" stroke-width="1"><path d="M57.4,42.5 L57.4,184 M130,42.5 L130,184 M203,42.5 L203,184 M276,42.5 L276,184 M348,42.5 L348,184 M421,42.5 L421,184 M57.4,42.5 L57.4,184 " fill="none"/></g>
<g id="xAxis" stroke="rgb(0,0,0)" stroke-width="1"><line x1="57.4" y1="42.5" x2="57.4" y2="184"/><line x1="21" y1="116" x2="421" y2="116"/><line x1="21" y1="42.5" x2="421" y2="42.5"/></g>
<g id="xMinorTicks" stroke="rgb(0,0,0)" stroke-width="1"><path d="M71.9,42.5 L71.9,44.5 M86.5,42.5 L86.5,44.5 M101,42.5 L101,44.5 M116,42.5 L116,44.5 M145,42.5 L145,44.5 M159,42.5 L159,44.5 M174,42.5 L174,44.5 M188,42.5 L188,44.5 M217,42.5 L217,44.5 M232,42.5 L232,44.5 M246,42.5 L246,44.5 M261,42.5 L261,44.5 M290,42.5 L290,44.5 M305,42.5 L305,44.5 M319,42.5 L319,44.5 M334,42.5 L334,44.5 M363,42.5 L363,44.5 M377,42.5 L377,44.5 M392,42.5 L392,44.5 M406,42.5 L406,44.5 M42.8,42.5 L42.8,44.5 M28.3,42.5 L28.3,44.5 " fill="none"/></g>
<g id="xMajorTicks" stroke="rgb(0,0,0)" stroke-width="2"><path d="M57.4,42.5 L57.4,47.5 M130,42.5 L130,47.5 M203,42.5 L203,47.5 M276,42.5 L276,47.5 M348,42.5 L348,47.5 M421,42.5 L421,47.5 M57.4,42.5 L57.4,47.5 " fill="none"/></g>
<g id="xTicksValues">
<text x="57.4" y="60.5" text-anchor="middle" font-size="10" font-family="Verdana">0</text>
<text x="130" y="60.5" text-anchor="middle" font-size="10" font-family="Verdana">2</text>
<text x="203" y="60.5" text-anchor="middle" font-size="10" font-family="Verdana">4</text>
<text x="276" y="60.5" text-anchor="middle" font-size="10" font-family="Verdana">6</text>
<text x="348" y="60.5" text-anchor="middle" font-size="10" font-family="Verdana">8</text>
<text x="421" y="60.5" text-anchor="middle" font-size="10" font-family="Verdana">10</text>
<text x="57.4" y="60.5" text-anchor="middle" font-size="10" font-family="Verdana">0</text></g>
<g id="xLabel">
<text x="221" y="201" text-anchor="middle" font-size="10" font-family="Verdana"></text></g>
<g id="plotPoints"><g stroke="rgb(0,0,255)"><line x1="170" y1="115" x2="170" y2="105"/><line x1="210" y1="115" x2="210" y2="105"/></g>
<g stroke="rgb(255,165,0)"><line x1="134" y1="115" x2="134" y2="105"/><line x1="341" y1="115" x2="341" y2="105"/></g>
</g>
<g id="legendBackground" stroke="rgb(255,255,0)" fill="rgb(255,255,255)" stroke-width="1"><rect x="427" y="42.5" width="64" height="47"/></g>
<g id="legendPoints"><g stroke="rgb(0,0,255)" stroke-width="2"><line x1="438" y1="65" x2="438" y2="55"/></g>
<g stroke="rgb(255,165,0)" stroke-width="2"><line x1="438" y1="77.5" x2="438" y2="67.5"/></g>
</g>
<g id="legendText">
<text x="443" y="61" font-size="10" font-family="Verdana">Dan</text>
<text x="443" y="73.5" font-size="10" font-family="Verdana">Elaine</text></g>
<g id="title">
<text x="250" y="22.5" text-anchor="middle" font-size="18" font-family="Verdana">Race Times</text></g>
</svg>
