<?xml version="1.0" encoding="UTF-8" standalone="no"?>
<svg width="500" height ="400" version="1.1"
xmlns:svg ="http://www.w3.org/2000/svg"
xmlns:rdf="http://www.w3.org/1999/02/22-rdf-syntax-ns#"
xmlns:cc="http://web.resource.org/cc/"
xmlns:dc="http://purl.org/dc/elements/1.1/"
xmlns ="http://www.w3.org/2000/svg"
>
<!-- SVG plot written using Boost.Plot program (Creator Jacob Voytko) --> 
<!-- Use, modification and distribution of Boost.Plot subject to the --> 
<!-- Boost Software License, Version 1.0.--> 
<!-- (See accompanying file LICENSE_1_0.txt --> 
<!-- or copy at http://www.boost.org/LICENSE_1_0.txt) --> 

<clipPath id="plot_window"><rect x="45.2" y="40.5" width="428" height="328"/></clipPath>
<g id="imageBackground" stroke="rgb(255,255,0)" fill="rgb(255,255,255)" stroke-width="2"><rect x="0" y="0" width="500" height="400"/></g>
<g id="plotBackground" stroke="rgb(119,136,153)" fill="rgb(255,255,255)" stroke-width="2"><rect x="44.2" y="39.5" width="430" height="330"/></g>
<g id="yMinorGrid" stroke="rgb(200,220,255)" stroke-width="0.5"></g>
<g id="yMajorGrid" stroke="rgb(200,220,255)" stroke-width="1"></g>
<g id="xMinorGrid" stroke="rgb(200,220,255)" stroke-width="0.5"></g>
<g id="xMajorGrid" stroke="rgb(200,220,255)" stroke-width="1"></g>
<g id="yAxis" stroke="rgb(0,0,0)" stroke-width="1"><line x1="44.2" y1="39.5" x2="44.2" y2="369"/></g>
<g id="xAxis" stroke="rgb(0,0,0)" stroke-width="1"><line x1="44.2" y1="369" x2="474" y2="369"/></g>
<g id="yMinorTicks" stroke="rgb(0,0,0)" stroke-width="1"><path d="M42.2,361 L44.2,361 M42.2,353 L44.2,353 M42.2,344 L44.2,344 M42.2,336 L44.2,336 M42.2,320 L44.2,320 M42.2,311 L44.2,311 M42.2,303 L44.2,303 M42.2,295 L44.2,295 M42.2,278 L44.2,278 M42.2,270 L44.2,270 M42.2,262 L44.2,262 M42.2,254 L44.2,254 M42.2,237 L44.2,237 M42.2,229 L44.2,229 M42.2,221 L44.2,221 M42.2,212 L44.2,212 M42.2,196 L44.2,196 M42.2,188 L44.2,188 M42.2,180 L44.2,180 M42.2,171 L44.2,171 M42.2,155 L44.2,155 M42.2,147 L44.2,147 M42.2,138 L44.2,138 M42.2,130 L44.2,130 M42.2,114 L44.2,114 M42.2,105 L44.2,105 M42.2,97.2 L44.2,97.2 M42.2,88.9 L44.2,88.9 M42.2,72.5 L44.2,72.5 M42.2,64.2 L44.2,64.2 M42.2,56 L44.2,56 M42.2,47.7 L44.2,47.7 " fill="none"/></g>
<g id="xMinorTicks" stroke="rgb(0,0,0)" stroke-width="1"><path d="M56.5,369 L56.5,371 M68.8,369 L68.8,371 M81,369 L81,371 M93.3,369 L93.3,371 M118,369 L118,371 M130,369 L130,371 M142,369 L142,371 M155,369 L155,371 M179,369 L179,371 M192,369 L192,371 M204,369 L204,371 M216,369 L216,371 M241,369 L241,371 M253,369 L253,371 M265,369 L265,371 M278,369 L278,371 M302,369 L302,371 M314,369 L314,371 M327,369 L327,371 M339,369 L339,371 M363,369 L363,371 M376,369 L376,371 M388,369 L388,371 M400,369 L400,371 M425,369 L425,371 M437,369 L437,371 M449,369 L449,371 M462,369 L462,371 " fill="none"/></g>
<g id="yMajorTicks" stroke="rgb(0,0,0)" stroke-width="2"><path d="M39.2,369 L44.2,369 M39.2,328 L44.2,328 M39.2,287 L44.2,287 M39.2,245 L44.2,245 M39.2,204 L44.2,204 M39.2,163 L44.2,163 M39.2,122 L44.2,122 M39.2,80.7 L44.2,80.7 M39.2,39.5 L44.2,39.5 " fill="none"/></g>
<g id="xMajorTicks" stroke="rgb(0,0,0)" stroke-width="2"><path d="M44.2,369 L44.2,374 M106,369 L106,374 M167,369 L167,374 M228,369 L228,374 M290,369 L290,374 M351,369 L351,374 M413,369 L413,374 M474,369 L474,374 " fill="none"/></g>
<g id="xTicksValues">
<text x="44.2" y="390" text-anchor="middle" font-size="12" font-family="Lucida Sans Unicode">1</text>
<text x="106" y="390" text-anchor="middle" font-size="12" font-family="Lucida Sans Unicode">2</text>
<text x="167" y="390" text-anchor="middle" font-size="12" font-family="Lucida Sans Unicode">3</text>
<text x="228" y="390" text-anchor="middle" font-size="12" font-family="Lucida Sans Unicode">4</text>
<text x="290" y="390" text-anchor="middle" font-size="12" font-family="Lucida Sans Unicode">5</text>
<text x="351" y="390" text-anchor="middle" font-size="12" font-family="Lucida Sans Unicode">6</text>
<text x="413" y="390" text-anchor="middle" font-size="12" font-family="Lucida Sans Unicode">7</text>
<text x="474" y="390" text-anchor="middle" font-size="12" font-family="Lucida Sans Unicode">8</text></g>
<g id="yTicksValues">
<text x="33.2" y="371" text-anchor="end" font-size="12" font-family="Lucida Sans Unicode">2</text>
<text x="33.2" y="330" text-anchor="end" font-size="12" font-family="Lucida Sans Unicode">3</text>
<text x="33.2" y="289" text-anchor="end" font-size="12" font-family="Lucida Sans Unicode">4</text>
<text x="33.2" y="248" text-anchor="end" font-size="12" font-family="Lucida Sans Unicode">5</text>
<text x="33.2" y="207" text-anchor="end" font-size="12" font-family="Lucida Sans Unicode">6</text>
<text x="33.2" y="165" text-anchor="end" font-size="12" font-family="Lucida Sans Unicode">7</text>
<text x="33.2" y="124" text-anchor="end" font-size="12" font-family="Lucida Sans Unicode">8</text>
<text x="33.2" y="83.1" text-anchor="end" font-size="12" font-family="Lucida Sans Unicode">9</text>
<text x="33.2" y="41.9" text-anchor="end" font-size="12" font-family="Lucida Sans Unicode">10</text></g>
<g id="yLabel">
<text x="14.9" y="204" text-anchor="middle" transform = "rotate(-90 14.9 204 )" font-size="14" font-family="Lucida Sans Unicode"></text></g>
<g id="xLabel">
<text x="259" y="402" text-anchor="middle" font-size="12" font-family="Lucida Sans Unicode"></text></g>
<g id="plotPoints" clip-path="url(#plot_window)"><g stroke="rgb(0,0,0)" fill="rgb(255,255,255)">
<text x="50.3" y="321" text-anchor="middle" font-size="6" font-family="Lucida Sans Unicode">&#x25CB;</text>
<text x="113" y="353" text-anchor="middle" font-size="6" font-family="Lucida Sans Unicode">&#x25CB;</text>
<text x="319" y="231" text-anchor="middle" font-size="6" font-family="Lucida Sans Unicode">&#x25CB;</text>
<text x="431" y="78.4" text-anchor="middle" font-size="6" font-family="Lucida Sans Unicode">&#x25CB;</text></g>
</g>
<g id="title">
<text x="250" y="27" text-anchor="middle" font-size="18" font-family="Lucida Sans Unicode" font-weight="normal">Autoscaling 2d Values</text></g>
<g id="plotXValues"></g>
<g id="plotYValues"></g>
</svg>
