<?xml version="1.0" encoding="UTF-8" standalone="no"?>
<svg width="500" height ="400" version="1.1"
xmlns:svg ="http://www.w3.org/2000/svg"
xmlns:rdf="http://www.w3.org/1999/02/22-rdf-syntax-ns#"
xmlns:cc="http://web.resource.org/cc/"
xmlns:dc="http://purl.org/dc/elements/1.1/"
xmlns ="http://www.w3.org/2000/svg"
>
<!-- SVG plot written using Boost.Plot program (Creator Jacob Voytko) --> 
<!-- Use, modification and distribution of Boost.Plot subject to the --> 
<!-- Boost Software License, Version 1.0.--> 
<!-- (See accompanying file LICENSE_1_0.txt --> 
<!-- or copy at http://www.boost.org/LICENSE_1_0.txt) --> 

<clipPath id="plot_window"><rect x="25.3" y="48.5" width="471" height="297"/></clipPath>
<g id="imageBackground" stroke="rgb(255,255,0)" fill="rgb(255,255,255)" stroke-width="2"><rect x="0" y="0" width="500" height="400"/></g>
<g id="plotBackground" stroke="rgb(119,136,153)" fill="rgb(255,255,255)" stroke-width="2"><rect x="24.3" y="47.5" width="473" height="299"/></g>
<g id="yMinorGrid" stroke="rgb(200,220,255)" stroke-width="0.5"></g>
<g id="yMajorGrid" stroke="rgb(200,220,255)" stroke-width="1"></g>
<g id="xMinorGrid" stroke="rgb(200,220,255)" stroke-width="0.5"></g>
<g id="xMajorGrid" stroke="rgb(200,220,255)" stroke-width="1"></g>
<g id="yAxis" stroke="rgb(0,0,0)" stroke-width="1"><line x1="261" y1="47.5" x2="261" y2="352"/><line x1="24.3" y1="47.5" x2="24.3" y2="347"/></g>
<g id="xAxis" stroke="rgb(0,0,0)" stroke-width="1"><line x1="19.3" y1="197" x2="498" y2="197"/><line x1="19.3" y1="347" x2="498" y2="347"/></g>
<g id="yMinorTicks" stroke="rgb(0,0,0)" stroke-width="1"><path d="M22.3,185 L24.3,185 M22.3,173 L24.3,173 M22.3,161 L24.3,161 M22.3,149 L24.3,149 M22.3,125 L24.3,125 M22.3,113 L24.3,113 M22.3,101 L24.3,101 M22.3,89.4 L24.3,89.4 M22.3,65.4 L24.3,65.4 M22.3,53.5 L24.3,53.5 M22.3,197 L24.3,197 M22.3,209 L24.3,209 M22.3,221 L24.3,221 M22.3,233 L24.3,233 M22.3,245 L24.3,245 M22.3,257 L24.3,257 M22.3,269 L24.3,269 M22.3,281 L24.3,281 M22.3,293 L24.3,293 M22.3,305 L24.3,305 M22.3,317 L24.3,317 M22.3,317 L24.3,317 M22.3,329 L24.3,329 M22.3,341 L24.3,341 " fill="none"/></g>
<g id="xMinorTicks" stroke="rgb(0,0,0)" stroke-width="1"><path d="M280,347 L280,349 M299,347 L299,349 M318,347 L318,349 M337,347 L337,349 M374,347 L374,349 M393,347 L393,349 M412,347 L412,349 M431,347 L431,349 M469,347 L469,349 M488,347 L488,349 M242,347 L242,349 M223,347 L223,349 M204,347 L204,349 M185,347 L185,349 M147,347 L147,349 M128,347 L128,349 M109,347 L109,349 M90.5,347 L90.5,349 M52.7,347 L52.7,349 M33.8,347 L33.8,349 " fill="none"/></g>
<g id="yMajorTicks" stroke="rgb(0,0,0)" stroke-width="2"><path d="M19.3,197 L24.3,197 M19.3,137 L24.3,137 M19.3,77.4 L24.3,77.4 M19.3,197 L24.3,197 M19.3,257 L24.3,257 M19.3,317 L24.3,317 " fill="none"/></g>
<g id="xMajorTicks" stroke="rgb(0,0,0)" stroke-width="2"><path d="M261,347 L261,352 M356,347 L356,352 M450,347 L450,352 M261,347 L261,352 M166,347 L166,352 M71.6,347 L71.6,352 " fill="none"/></g>
<g id="xTicksValues">
<text x="261" y="367" text-anchor="middle" font-size="12" font-family="Lucida Sans Unicode">0</text>
<text x="356" y="367" text-anchor="middle" font-size="12" font-family="Lucida Sans Unicode">2</text>
<text x="450" y="367" text-anchor="middle" font-size="12" font-family="Lucida Sans Unicode">4</text>
<text x="261" y="367" text-anchor="middle" font-size="12" font-family="Lucida Sans Unicode">0</text>
<text x="166" y="367" text-anchor="middle" font-size="12" font-family="Lucida Sans Unicode">-2</text>
<text x="71.6" y="367" text-anchor="middle" font-size="12" font-family="Lucida Sans Unicode">-4</text></g>
<g id="yTicksValues">
<text x="13.3" y="199" text-anchor="end" font-size="12" font-family="Lucida Sans Unicode">0</text>
<text x="13.3" y="140" text-anchor="end" font-size="12" font-family="Lucida Sans Unicode">2</text>
<text x="13.3" y="79.8" text-anchor="end" font-size="12" font-family="Lucida Sans Unicode">4</text>
<text x="13.3" y="199" text-anchor="end" font-size="12" font-family="Lucida Sans Unicode">0</text>
<text x="13.3" y="259" text-anchor="end" font-size="12" font-family="Lucida Sans Unicode">-2</text>
<text x="13.3" y="319" text-anchor="end" font-size="12" font-family="Lucida Sans Unicode">-4</text></g>
<g id="yLabel">
<text x="-8.6" y="197" text-anchor="middle" transform = "rotate(-90 -8.6 197 )" font-size="14" font-family="Lucida Sans Unicode"></text></g>
<g id="xLabel">
<text x="261" y="382" text-anchor="middle" font-size="14" font-family="Lucida Sans Unicode">time (s)</text></g>
<g id="plotPoints" clip-path="url(#plot_window)"><g stroke="rgb(0,0,0)" fill="rgb(255,255,255)"><circle cx="273" cy="155" r="2"/><circle cx="313" cy="101" r="2"/><circle cx="464" cy="104" r="2"/></g>
</g>
<g id="limitPoints" stroke="rgb(0,0,255)" fill="rgb(255,192,203)"><polygon points=" 19.3,337 29.3,337 24.3,347"/><polygon points=" 19.3,127 29.3,127 24.3,137"/><polygon points=" 19.3,97.3 29.3,97.3 24.3,107"/><polygon points=" 209,337 219,337 214,347"/><polygon points=" 256,187 266,187 261,197"/><polygon points=" 303,37.5 313,37.5 308,47.5"/><polygon points=" 398,187 408,187 403,197"/><polygon points=" 493,127 503,127 498,137"/><polygon points=" 493,37.5 503,37.5 498,47.5"/></g>
<g id="title">
<text x="250" y="36" text-anchor="middle" font-size="18" font-family="Lucida Sans Unicode">Default 2D 'at limits' NaN and infinities Demo</text></g>
<g id="plotXValues"><g>
<text x="273" y="145" text-anchor="middle" font-size="12" font-family="Lucida Sans Unicode">0.25<tspan fill="rgb(0,0,0)" font-size="12" font-family="Lucida Sans Unicode"></tspan><tspan fill="rgb(0,0,0)" font-size="12" font-family="Lucida Sans Unicode"></tspan><tspan font-size="12" font-family="Lucida Sans Unicode">1.4</tspan></text></g>
<g>
<text x="313" y="91.3" text-anchor="middle" font-size="12" font-family="Lucida Sans Unicode">1.1<tspan fill="rgb(0,0,0)" font-size="12" font-family="Lucida Sans Unicode"></tspan><tspan fill="rgb(0,0,0)" font-size="12" font-family="Lucida Sans Unicode"></tspan><tspan font-size="12" font-family="Lucida Sans Unicode">3.2</tspan></text></g>
<g>
<text x="464" y="94.3" text-anchor="middle" font-size="12" font-family="Lucida Sans Unicode">4.3<tspan fill="rgb(0,0,0)" font-size="12" font-family="Lucida Sans Unicode"></tspan><tspan fill="rgb(0,0,0)" font-size="12" font-family="Lucida Sans Unicode"></tspan><tspan font-size="12" font-family="Lucida Sans Unicode">3.1</tspan></text></g>
</g>
<g id="plotYValues"></g>
</svg>
