<?xml version="1.0" encoding="UTF-8" standalone="no"?>
<svg width="500" height ="200" version="1.1"
xmlns:svg ="http://www.w3.org/2000/svg"
xmlns:rdf="http://www.w3.org/1999/02/22-rdf-syntax-ns#"
xmlns:cc="http://web.resource.org/cc/"
xmlns:dc="http://purl.org/dc/elements/1.1/"
xmlns ="http://www.w3.org/2000/svg"
>
<!-- SVG plot written using Boost.Plot program (Creator Jacob Voytko) --> 
<!-- Use, modification and distribution of Boost.Plot subject to the --> 
<!-- Boost Software License, Version 1.0.--> 
<!-- (See accompanying file LICENSE_1_0.txt --> 
<!-- or copy at http://www.boost.org/LICENSE_1_0.txt) --> 

<!-- File ./demo_1d_array_long_double.svg --> 
<g id="imageBackground" stroke="rgb(255,255,0)" fill="rgb(255,255,255)" stroke-width="1"><rect x="0" y="0" width="500" height="200"/></g>
<g id="plotBackground" stroke="rgb(250,250,210)" fill="rgb(255,255,255)" stroke-width="1"><rect x="11" y="56" width="478" height="128"/></g>
<g id="xMinorGrid" stroke="rgb(200,220,255)" stroke-width="0.5"></g>
<g id="xMajorGrid" stroke="rgb(200,220,255)" stroke-width="1"></g>
<g id="xAxis" stroke="rgb(0,0,0)" stroke-width="1"><line x1="250" y1="56" x2="250" y2="184"/><line x1="11" y1="123" x2="489" y2="123"/></g>
<g id="xMinorTicks" stroke="rgb(0,0,0)" stroke-width="1"><path d="M260,123 L260,125 M269,123 L269,125 M279,123 L279,125 M288,123 L288,125 M307,123 L307,125 M317,123 L317,125 M326,123 L326,125 M336,123 L336,125 M355,123 L355,125 M365,123 L365,125 M374,123 L374,125 M384,123 L384,125 M403,123 L403,125 M413,123 L413,125 M422,123 L422,125 M432,123 L432,125 M451,123 L451,125 M460,123 L460,125 M470,123 L470,125 M479,123 L479,125 M240,123 L240,125 M231,123 L231,125 M221,123 L221,125 M212,123 L212,125 M193,123 L193,125 M183,123 L183,125 M174,123 L174,125 M164,123 L164,125 M145,123 L145,125 M135,123 L135,125 M126,123 L126,125 M116,123 L116,125 M97,123 L97,125 M87.5,123 L87.5,125 M77.9,123 L77.9,125 M68.4,123 L68.4,125 M49.2,123 L49.2,125 M39.7,123 L39.7,125 M30.1,123 L30.1,125 M20.6,123 L20.6,125 " fill="none"/></g>
<g id="xMajorTicks" stroke="rgb(0,0,0)" stroke-width="2"><path d="M250,123 L250,128 M298,123 L298,128 M346,123 L346,128 M393,123 L393,128 M441,123 L441,128 M489,123 L489,128 M250,123 L250,128 M202,123 L202,128 M154,123 L154,128 M107,123 L107,128 M58.8,123 L58.8,128 M11,123 L11,128 " fill="none"/></g>
<g id="xTicksValues">
<text x="298" y="143" text-anchor="middle" font-size="12" font-family="Verdana">2</text>
<text x="346" y="143" text-anchor="middle" font-size="12" font-family="Verdana">4</text>
<text x="393" y="143" text-anchor="middle" font-size="12" font-family="Verdana">6</text>
<text x="441" y="143" text-anchor="middle" font-size="12" font-family="Verdana">8</text>
<text x="489" y="143" text-anchor="middle" font-size="12" font-family="Verdana">10</text>
<text x="202" y="143" text-anchor="middle" font-size="12" font-family="Verdana">-2</text>
<text x="154" y="143" text-anchor="middle" font-size="12" font-family="Verdana">-4</text>
<text x="107" y="143" text-anchor="middle" font-size="12" font-family="Verdana">-6</text>
<text x="58.8" y="143" text-anchor="middle" font-size="12" font-family="Verdana">-8</text>
<text x="11" y="143" text-anchor="middle" font-size="12" font-family="Verdana">-10</text></g>
<g id="xLabel">
<text x="250" y="208" text-anchor="middle" font-size="14" font-family="Verdana"></text></g>
<g id="plotPoints"><g stroke="rgb(0,0,0)"><line x1="324" y1="125" x2="324" y2="115"/><line x1="119" y1="125" x2="119" y2="115"/><line x1="458" y1="125" x2="458" y2="115"/><line x1="262" y1="125" x2="262" y2="115"/></g>
</g>
<g id="title">
<text x="250" y="36" text-anchor="middle" font-size="18" font-family="Verdana">array&lt;long double&gt; example</text></g>
</svg>
