<?xml version="1.0" encoding="UTF-8" standalone="no"?>
<svg width="500" height ="200" version="1.1"
xmlns:svg ="http://www.w3.org/2000/svg"
xmlns:rdf="http://www.w3.org/1999/02/22-rdf-syntax-ns#"
xmlns:cc="http://web.resource.org/cc/"
xmlns:dc="http://purl.org/dc/elements/1.1/"
xmlns ="http://www.w3.org/2000/svg"
>
<!-- SVG plot written using Boost.Plot program (Creator Jacob Voytko) --> 
<!-- Use, modification and distribution of Boost.Plot subject to the --> 
<!-- Boost Software License, Version 1.0.--> 
<!-- (See accompanying file LICENSE_1_0.txt --> 
<!-- or copy at http://www.boost.org/LICENSE_1_0.txt) --> 

<!-- File ./demo_1d_vector_float.svg --> 
<g id="imageBackground" stroke="rgb(255,255,0)" fill="rgb(255,255,255)" stroke-width="1"><rect x="0" y="0" width="500" height="200"/></g>
<g id="plotBackground" stroke="rgb(250,250,210)" fill="rgb(255,255,255)" stroke-width="1"><rect x="21" y="56" width="458" height="128"/></g>
<g id="xMinorGrid" stroke="rgb(200,220,255)" stroke-width="0.5"></g>
<g id="xMajorGrid" stroke="rgb(200,220,255)" stroke-width="1"></g>
<g id="xAxis" stroke="rgb(0,0,0)" stroke-width="1"><line x1="250" y1="56" x2="250" y2="184"/><line x1="21" y1="122" x2="479" y2="122"/></g>
<g id="xMinorTicks" stroke="rgb(0,0,0)" stroke-width="1"><path d="M259,122 L259,124 M268,122 L268,124 M277,122 L277,124 M287,122 L287,124 M305,122 L305,124 M314,122 L314,124 M323,122 L323,124 M332,122 L332,124 M351,122 L351,124 M360,122 L360,124 M369,122 L369,124 M378,122 L378,124 M397,122 L397,124 M406,122 L406,124 M415,122 L415,124 M424,122 L424,124 M442,122 L442,124 M452,122 L452,124 M461,122 L461,124 M470,122 L470,124 M241,122 L241,124 M232,122 L232,124 M223,122 L223,124 M213,122 L213,124 M195,122 L195,124 M186,122 L186,124 M177,122 L177,124 M168,122 L168,124 M149,122 L149,124 M140,122 L140,124 M131,122 L131,124 M122,122 L122,124 M103,122 L103,124 M94.3,122 L94.3,124 M85.1,122 L85.1,124 M76,122 L76,124 M57.6,122 L57.6,124 M48.5,122 L48.5,124 M39.3,122 L39.3,124 M30.2,122 L30.2,124 " fill="none"/></g>
<g id="xMajorTicks" stroke="rgb(0,0,0)" stroke-width="2"><path d="M250,122 L250,128 M296,122 L296,128 M342,122 L342,128 M387,122 L387,128 M433,122 L433,128 M479,122 L479,128 M250,122 L250,128 M204,122 L204,128 M158,122 L158,128 M113,122 L113,128 M66.8,122 L66.8,128 M21,122 L21,128 " fill="none"/></g>
<g id="xTicksValues">
<text x="296" y="143" text-anchor="middle" font-size="12" font-family="Verdana">2</text>
<text x="342" y="143" text-anchor="middle" font-size="12" font-family="Verdana">4</text>
<text x="387" y="143" text-anchor="middle" font-size="12" font-family="Verdana">6</text>
<text x="433" y="143" text-anchor="middle" font-size="12" font-family="Verdana">8</text>
<text x="479" y="143" text-anchor="middle" font-size="12" font-family="Verdana">10</text>
<text x="204" y="143" text-anchor="middle" font-size="12" font-family="Verdana">-2</text>
<text x="158" y="143" text-anchor="middle" font-size="12" font-family="Verdana">-4</text>
<text x="113" y="143" text-anchor="middle" font-size="12" font-family="Verdana">-6</text>
<text x="66.8" y="143" text-anchor="middle" font-size="12" font-family="Verdana">-8</text>
<text x="21" y="143" text-anchor="middle" font-size="12" font-family="Verdana">-10</text></g>
<g id="xLabel">
<text x="250" y="208" text-anchor="middle" font-size="14" font-family="Verdana"></text></g>
<g id="plotPoints"><g stroke="rgb(0,0,0)"><line x1="321" y1="122" x2="321" y2="112"/><line x1="124" y1="122" x2="124" y2="112"/><line x1="449" y1="122" x2="449" y2="112"/><line x1="261" y1="122" x2="261" y2="112"/></g>
</g>
<g id="title">
<text x="250" y="36" text-anchor="middle" font-size="18" font-family="Verdana">vector&lt;float&gt; example</text></g>
</svg>
