<?xml version="1.0" encoding="UTF-8" standalone="no"?>
<svg width="500" height ="200" version="1.1"
xmlns:svg ="http://www.w3.org/2000/svg"
xmlns:rdf="http://www.w3.org/1999/02/22-rdf-syntax-ns#"
xmlns:cc="http://web.resource.org/cc/"
xmlns:dc="http://purl.org/dc/elements/1.1/"
xmlns ="http://www.w3.org/2000/svg"
>
<!-- SVG plot written using Boost.Plot program (Creator Jacob Voytko) --> 
<!-- Use, modification and distribution of Boost.Plot subject to the --> 
<!-- Boost Software License, Version 1.0.--> 
<!-- (See accompanying file LICENSE_1_0.txt --> 
<!-- or copy at http://www.boost.org/LICENSE_1_0.txt) --> 

<!-- File demo_color.svg --> 

<g id="imageBackground" stroke="rgb(255,255,0)" fill="rgb(255,255,255)" stroke-width="1">
	<rect x="0" y="0" width="500" height="200"/>
</g>

<g id="plotBackground" stroke="rgb(250,250,210)" fill="rgb(255,255,255)" stroke-width="1">
	<rect x="21" y="11" width="404" height="161"/>
</g>

<g id="xMinorGrid" stroke="rgb(200,220,255)" stroke-width="0.5">
</g>

<g id="xMajorGrid" stroke="rgb(200,220,255)" stroke-width="1">
</g>

<g id="xAxis" stroke="rgb(0,0,255)" stroke-width="1">
	<line x1="21" y1="11" x2="21" y2="172"/>
	<line x1="21" y1="93.8" x2="425" y2="93.8"/>
</g>

<g id="xMinorTicks" stroke="rgb(0,0,0)" stroke-width="1">
	<path d="M44.1,93.8 L44.1,95.8 
M67.1,93.8 L67.1,95.8 
M90.2,93.8 L90.2,95.8 
M113,93.8 L113,95.8 
M159,93.8 L159,95.8 
M182,93.8 L182,95.8 
M206,93.8 L206,95.8 
M229,93.8 L229,95.8 
M275,93.8 L275,95.8 
M298,93.8 L298,95.8 
M321,93.8 L321,95.8 
M344,93.8 L344,95.8 
M390,93.8 L390,95.8 
M413,93.8 L413,95.8 
" fill="none"/>
</g>

<g id="xMajorTicks" stroke="rgb(0,0,0)" stroke-width="2">
	<path d="M21,93.8 L21,98.8 
M136,93.8 L136,98.8 
M252,93.8 L252,98.8 
M367,93.8 L367,98.8 
M21,93.8 L21,98.8 
" fill="none"/>
</g>

<g id="xTicksValues">
	<text x="136" y="112" text-anchor="middle" font-size="10" font-family="Verdana">2
	</text>
	<text x="252" y="112" text-anchor="middle" font-size="10" font-family="Verdana">4
	</text>
	<text x="367" y="112" text-anchor="middle" font-size="10" font-family="Verdana">6
	</text>
</g>

<g id="xLabel" stroke="rgb(255,0,255)" fill="rgb(255,0,255)">
	<text x="223" y="189" text-anchor="middle" font-size="10" font-family="Verdana">axis
	</text>
</g>

<g id="plotPoints">

<g stroke="rgb(0,0,0)">
	<line x1="78.7" y1="93.3" x2="78.7" y2="83.3"/>
	<line x1="136" y1="93.3" x2="136" y2="83.3"/>
	<line x1="194" y1="93.3" x2="194" y2="83.3"/>
</g>
</g>

<g id="legendBackground" stroke="rgb(255,255,0)" fill="rgb(255,255,255)" stroke-width="1">
	<rect x="431" y="11" width="60.4" height="29"/>
</g>

<g id="legendPoints">

<g stroke="rgb(0,0,0)">
	<line x1="437" y1="28.5" x2="437" y2="18.5"/>
</g>
</g>

<g id="legendText">
	<text x="443" y="24.5" font-size="10" font-family="Verdana" textLength="44.4">My Data
	</text>
</g>

<g id="title">
	<text x="250" y="27" text-anchor="middle" font-size="18" font-family="Verdana">
	</text>
</g>
</svg>
