<?xml version="1.0" encoding="UTF-8" standalone="no"?>
<svg width="500" height ="250" version="1.1"
xmlns:svg ="http://www.w3.org/2000/svg"
xmlns:rdf="http://www.w3.org/1999/02/22-rdf-syntax-ns#"
xmlns:cc="http://web.resource.org/cc/"
xmlns:dc="http://purl.org/dc/elements/1.1/"
xmlns ="http://www.w3.org/2000/svg"
>
<!-- SVG plot written using Boost.Plot program (Creator Jacob Voytko) --> 
<!-- Use, modification and distribution of Boost.Plot subject to the --> 
<!-- Boost Software License, Version 1.0.--> 
<!-- (See accompanying file LICENSE_1_0.txt --> 
<!-- or copy at http://www.boost.org/LICENSE_1_0.txt) --> 

<!-- SVG Plot Copyright Paul A. Bristow 2008-03-29 --> 
<meta name="copyright" content="Paul A. Bristow" />
<meta name="date" content="2008-03-29" />
<!-- My demo_1d_plot description --> 
<desc>My demo_1d_plot description</desc>
<title>Document title demo_1d_plot</title>
<!-- File demo_1d_plot.svg --> 
<metadata id = "id0">
<rdf:RDF>
<cc:Work rdf:about="demo_1d_plot.svg">
<dc:format>image/svg+xml</dc:format>
<dc:type rdf:resource="http://purl.org/dc/dcmitype/StillImage" />
<dc:title> Document title demo_1d_plot</dc:title>
<dc:creator> <cc:Agent> <dc:title>Boost.Plot</dc:title> </cc:Agent></dc:creator>
<dc:author><cc:Agent><dc:title>Paul A. Bristow </dc:title> </cc:Agent> </dc:author>
<dc:rights><cc:Agent><dc:title>Paul A. Bristow</dc:title></cc:Agent></dc:rights>
<dc:date>2008-03-29</dc:date>
<dc:identifier>demo_1d_plot.svg</dc:identifier>
<dc:source>Boost.plot 0.5</dc:source>
<dc:relation></dc:relation>
<dc:publisher><cc:Agent><dc:title>Paul A. Bristow</dc:title></cc:Agent></dc:publisher>
<dc:language>en_US</dc:language>
<dc:description>My demo_1d_plot description</dc:description>
<dc:contributor><cc:Agent><dc:title>Paul A. Bristow</dc:title></cc:Agent></dc:contributor>
<dc:subject><rdf:Bag><rdf:li>Boost svg plot keyword</rdf:li></rdf:Bag></dc:subject>
<cc:license rdf:resource="http://creativecommons.org/licenses/" />
</cc:Work>
<cc:License rdf:about="http://creativecommons.org/licenses/">
<cc:permits rdf:resource="http://web.resource.org/cc/Reproduction"/>
<cc:permits rdf:resource="http://web.resource.org/cc/Distribution"/>
<cc:requires rdf:resource="http://web.resource.org/cc/Notice"/>
<cc:requires rdf:resource="http://web.resource.org/cc/Attribution"/>
<cc:permits rdf:resource="http://web.resource.org/cc/CommercialUse"/>
<cc:permits rdf:resource="http://web.resource.org/cc/DerivativeWorks"/>
</cc:License>
</rdf:RDF>
</metadata>

<g id="imageBackground" stroke="rgb(0,255,255)" fill="rgb(248,248,255)" stroke-width="10">
	<rect x="0" y="0" width="500" height="250"/>
</g>
<g id="plotBackground" stroke="rgb(255,192,203)" fill="rgb(240,248,255)" stroke-width="5">
	<rect x="21" y="46" width="357.8" height="170.5"/>
</g>
<g id="xMinorGrid" stroke="rgb(255,192,203)" stroke-width="1">
	<path d="M83.61,51 L83.61,211.5 
M101.5,51 L101.5,211.5 
M119.4,51 L119.4,211.5 
M137.3,51 L137.3,211.5 
M173,51 L173,211.5 
M190.9,51 L190.9,211.5 
M208.8,51 L208.8,211.5 
M226.7,51 L226.7,211.5 
M262.5,51 L262.5,211.5 
M280.4,51 L280.4,211.5 
M298.3,51 L298.3,211.5 
M316.2,51 L316.2,211.5 
M351.9,51 L351.9,211.5 
M369.8,51 L369.8,211.5 
M47.83,51 L47.83,211.5 
M29.94,51 L29.94,211.5 
" fill="none"/>
</g>
<g id="xMajorGrid" stroke="rgb(173,216,230)" stroke-width="2">
	<path d="M65.72,46 L65.72,216.5 
M155.2,46 L155.2,216.5 
M244.6,46 L244.6,216.5 
M334,46 L334,216.5 
M65.72,46 L65.72,216.5 
" fill="none"/>
</g>
<g id="xAxis" stroke="rgb(0,0,255)" stroke-width="1">
	<line x1="65.72" y1="46" x2="65.72" y2="216.5"/>
	<line x1="21" y1="136.2" x2="378.8" y2="136.2"/>
</g>
<g id="xMinorTicks" stroke="rgb(0,0,0)" stroke-width="1">
	<path d="M83.61,129.2 L83.61,143.2 
M101.5,129.2 L101.5,143.2 
M119.4,129.2 L119.4,143.2 
M137.3,129.2 L137.3,143.2 
M173,129.2 L173,143.2 
M190.9,129.2 L190.9,143.2 
M208.8,129.2 L208.8,143.2 
M226.7,129.2 L226.7,143.2 
M262.5,129.2 L262.5,143.2 
M280.4,129.2 L280.4,143.2 
M298.3,129.2 L298.3,143.2 
M316.2,129.2 L316.2,143.2 
M351.9,129.2 L351.9,143.2 
M369.8,129.2 L369.8,143.2 
M47.83,129.2 L47.83,143.2 
M29.94,129.2 L29.94,143.2 
" fill="none"/>
</g>
<g id="xMajorTicks" stroke="rgb(0,0,0)" stroke-width="3">
	<path d="M65.72,126.2 L65.72,146.2 
M155.2,126.2 L155.2,146.2 
M244.6,126.2 L244.6,146.2 
M334,126.2 L334,146.2 
M65.72,126.2 L65.72,146.2 
" fill="none"/>
</g>
<g id="xTicksValues">
	<text x="155.2" y="159.2" text-anchor="middle" font-size="10" font-family="Verdana">2	</text>
	<text x="244.6" y="159.2" text-anchor="middle" font-size="10" font-family="Verdana">4	</text>
	<text x="334" y="159.2" text-anchor="middle" font-size="10" font-family="Verdana">6	</text>
</g>
<g id="xLabel" stroke="rgb(0,0,255)" fill="rgb(0,0,255)">
	<text x="199.9" y="236.9" text-anchor="middle" font-size="12" font-family="Lucida sans unicode">volume (meter&#179; or m&#179;)	</text>
</g>
<g id="plotPoints">

<g stroke="rgb(255,0,0)" fill="rgb(0,0,255)">
	<text x="97.02" y="131.3" text-anchor="middle" font-size="10" font-family="Lucida Sans Unicode">&#x2666;	</text>
	<text x="177.5" y="131.3" text-anchor="middle" font-size="10" font-family="Lucida Sans Unicode">&#x2666;	</text>
	<text x="325.1" y="131.3" text-anchor="middle" font-size="10" font-family="Lucida Sans Unicode">&#x2666;	</text>
</g>
<g stroke="rgb(0,0,0)">
	<text x="110.4" y="134.3" text-anchor="middle" font-size="20" font-family="Lucida Sans Unicode">	</text>
	<text x="155.2" y="134.3" text-anchor="middle" font-size="20" font-family="Lucida Sans Unicode">	</text>
	<text x="199.9" y="134.3" text-anchor="middle" font-size="20" font-family="Lucida Sans Unicode">	</text>
	<text x="334" y="134.3" text-anchor="middle" font-size="20" font-family="Lucida Sans Unicode">	</text>
	<text x="378.8" y="134.3" text-anchor="middle" font-size="20" font-family="Lucida Sans Unicode">	</text>
</g>
<g stroke="rgb(255,0,255)" fill="rgb(0,255,255)">
	<text x="65.72" y="129.8" text-anchor="middle" font-size="5" font-family="Lucida Sans Unicode">&#x25BD;	</text>
	<text x="21" y="129.8" text-anchor="middle" font-size="5" font-family="Lucida Sans Unicode">&#x25BD;	</text>
	<text x="110.4" y="129.8" text-anchor="middle" font-size="5" font-family="Lucida Sans Unicode">&#x25BD;	</text>
	<text x="65.72" y="129.8" text-anchor="middle" font-size="5" font-family="Lucida Sans Unicode">&#x25BD;	</text>
</g></g>
<g id="limitPoints" stroke="rgb(255,0,0)" fill="rgb(255,255,255)">
	<text x="383.8" y="149.3" text-anchor="middle" font-size="10" font-family="Lucida Sans Unicode">&#x25B9;	</text>
	<text x="65.72" y="152.3" text-anchor="middle" font-size="20" font-family="Lucida Sans Unicode">&#x25BF;	</text>
	<text x="383.8" y="149.3" text-anchor="middle" font-size="10" font-family="Lucida Sans Unicode">&#x25B9;	</text>
</g>
<g id="legendBackground" stroke="rgb(210,105,30)" fill="rgb(245,245,220)" stroke-width="1">
	<rect x="384.8" y="46" width="106.2" height="97"/>
</g>
<g id="legendPoints">

<g stroke="rgb(255,0,0)" fill="rgb(0,0,255)">
	<text x="402.6" y="93.03" text-anchor="middle" font-size="10" font-family="Lucida Sans Unicode">&#x2666;	</text>
</g>
<g stroke="rgb(0,0,0)">
	<text x="402.6" y="114.1" text-anchor="middle" font-size="20" font-family="Lucida Sans Unicode">	</text>
</g>
<g stroke="rgb(255,0,255)" fill="rgb(0,255,255)">
	<text x="402.6" y="132.5" text-anchor="middle" font-size="5" font-family="Lucida Sans Unicode">&#x25BD;	</text>
</g></g>
<g id="legendText" fill="rgb(0,100,0)">
	<text x="437.9" y="67" text-anchor="middle" font-size="12" font-family="arial" font-weight="bold" textLength="84.24">My Legend &#956;	</text>
	<text x="415.6" y="92" font-size="10" font-family="Verdana" textLength="30">data3	</text>
	<text x="415.6" y="112" font-size="10" font-family="Verdana" textLength="30">data4	</text>
	<text x="415.6" y="132" font-size="10" font-family="Verdana" textLength="30">data5	</text>
</g>
<g id="title" fill="rgb(255,0,255)">
	<text x="250" y="30" text-anchor="middle" font-size="20" font-family="Times New Roman">Demo 1D plot <sup>-&#945; </sup> &#x3A9; &#x3A6; &#x221A; &#x221E; &#x3B6; &#x00B1;	</text>
</g></svg>
