<?xml version="1.0" encoding="UTF-8" standalone="no"?>
<svg width="2000" height ="400" version="1.1"
xmlns:svg ="http://www.w3.org/2000/svg"
xmlns:rdf="http://www.w3.org/1999/02/22-rdf-syntax-ns#"
xmlns:cc="http://web.resource.org/cc/"
xmlns:dc="http://purl.org/dc/elements/1.1/"
xmlns ="http://www.w3.org/2000/svg"
>
<!-- SVG plot written using Boost.Plot program (Creator Jacob Voytko) --> 
<!-- Use, modification and distribution of Boost.Plot subject to the --> 
<!-- Boost Software License, Version 1.0.--> 
<!-- (See accompanying file LICENSE_1_0.txt --> 
<!-- or copy at http://www.boost.org/LICENSE_1_0.txt) --> 

<clipPath id="plot_window">	<rect x="102" y="40.5" width="1.75e+03" height="312"/>
</clipPath>
	<g id="imageBackground" stroke="rgb(255,255,0)" fill="rgb(255,255,255)" stroke-width="2">
	<rect x="0" y="0" width="2e+03" height="400"/>
</g>
	<g id="plotBackground" stroke="rgb(119,136,153)" fill="rgb(255,255,255)" stroke-width="2">
	<rect x="100" y="39.5" width="1.75e+03" height="314"/>
</g>
	<g id="yMinorGrid" stroke="rgb(200,220,255)" stroke-width="0.5">
</g>
	<g id="yMajorGrid" stroke="rgb(200,220,255)" stroke-width="1">
</g>
	<g id="xMinorGrid" stroke="rgb(200,220,255)" stroke-width="0.5">
</g>
	<g id="xMajorGrid" stroke="rgb(200,220,255)" stroke-width="1">
</g>
	<g id="yAxis" stroke="rgb(0,0,0)" stroke-width="1">
	<line x1="100" y1="39.5" x2="100" y2="359"/>
	<line x1="100" y1="39.5" x2="100" y2="354"/>
</g>
	<g id="xAxis" stroke="rgb(0,0,0)" stroke-width="1">
	<line x1="95.5" y1="354" x2="1.85e+03" y2="354"/>
	<line x1="95.5" y1="354" x2="1.85e+03" y2="354"/>
</g>
	<g id="yMinorTicks" stroke="rgb(0,0,0)" stroke-width="1">
	<path d="M98.5,348 L100,348 
M98.5,341 L100,341 
M98.5,335 L100,335 
M98.5,329 L100,329 
M98.5,316 L100,316 
M98.5,310 L100,310 
M98.5,304 L100,304 
M98.5,297 L100,297 
M98.5,285 L100,285 
M98.5,279 L100,279 
M98.5,272 L100,272 
M98.5,266 L100,266 
M98.5,253 L100,253 
M98.5,247 L100,247 
M98.5,241 L100,241 
M98.5,234 L100,234 
M98.5,222 L100,222 
M98.5,216 L100,216 
M98.5,209 L100,209 
M98.5,203 L100,203 
M98.5,190 L100,190 
M98.5,184 L100,184 
M98.5,178 L100,178 
M98.5,172 L100,172 
M98.5,159 L100,159 
M98.5,153 L100,153 
M98.5,146 L100,146 
M98.5,140 L100,140 
M98.5,128 L100,128 
M98.5,121 L100,121 
M98.5,115 L100,115 
M98.5,109 L100,109 
M98.5,96.1 L100,96.1 
M98.5,89.8 L100,89.8 
M98.5,83.5 L100,83.5 
M98.5,77.2 L100,77.2 
M98.5,64.7 L100,64.7 
M98.5,58.4 L100,58.4 
M98.5,52.1 L100,52.1 
M98.5,45.8 L100,45.8 
M98.5,354 L100,354 
" fill="none"/>
</g>
	<g id="xMinorTicks" stroke="rgb(0,0,0)" stroke-width="1">
	<path d="M188,354 L188,356 
M276,354 L276,356 
M363,354 L363,356 
M451,354 L451,356 
M626,354 L626,356 
M714,354 L714,356 
M801,354 L801,356 
M889,354 L889,356 
M1.06e+03,354 L1.06e+03,356 
M1.15e+03,354 L1.15e+03,356 
M1.24e+03,354 L1.24e+03,356 
M1.33e+03,354 L1.33e+03,356 
M1.5e+03,354 L1.5e+03,356 
M1.59e+03,354 L1.59e+03,356 
M1.68e+03,354 L1.68e+03,356 
M1.76e+03,354 L1.76e+03,356 
" fill="none"/>
</g>
	<g id="yMajorTicks" stroke="rgb(0,0,0)" stroke-width="2">
	<path d="M95.5,354 L100,354 
M95.5,323 L100,323 
M95.5,291 L100,291 
M95.5,260 L100,260 
M95.5,228 L100,228 
M95.5,197 L100,197 
M95.5,165 L100,165 
M95.5,134 L100,134 
M95.5,102 L100,102 
M95.5,70.9 L100,70.9 
M95.5,39.5 L100,39.5 
M95.5,354 L100,354 
" fill="none"/>
</g>
	<g id="xMajorTicks" stroke="rgb(0,0,0)" stroke-width="2">
	<path d="M100,354 L100,359 
M538,354 L538,359 
M976,354 L976,359 
M1.41e+03,354 L1.41e+03,359 
M1.85e+03,354 L1.85e+03,359 
M100,354 L100,359 
" fill="none"/>
</g>
	<g id="xTicksValues" fill="rgb(255,0,0)" font-size="20" font-family="arial" text-anchor="middle">
	<text x="100" y="375">0
	</text>
	<text x="538" y="375">500
	</text>
	<text x="976" y="375">1000
	</text>
	<text x="1.41e+03" y="375">1500
	</text>
	<text x="1.85e+03" y="375">2000
	</text>
	<text x="100" y="375">0
	</text>
</g>
	<g id="yTicksValues" fill="rgb(255,0,255)" font-size="12" font-family="Lucida Sans Unicode" text-anchor="end">
	<text x="89.5" y="356">0.0
	</text>
	<text x="89.5" y="325">2.0
	</text>
	<text x="89.5" y="294">4.0
	</text>
	<text x="89.5" y="262">6.0
	</text>
	<text x="89.5" y="231">8.0
	</text>
	<text x="89.5" y="199">1.0e1
	</text>
	<text x="89.5" y="168">1.2e1
	</text>
	<text x="89.5" y="136">1.4e1
	</text>
	<text x="89.5" y="105">1.6e1
	</text>
	<text x="89.5" y="73.3">1.8e1
	</text>
	<text x="89.5" y="41.9">2.0e1
	</text>
	<text x="89.5" y="356">0.0
	</text>
</g>
	<g id="yLabel" fill="rgb(0,0,255)">
	<text x="48.4" y="197" text-anchor="middle" transform="rotate(-90 48.4 197)" font-size="14" font-family="Lucida Sans Unicode">temp (&#x00B0;C)
	</text>
</g>
	<g id="xLabel" fill="rgb(0,128,0)">
	<text x="976" y="395" text-anchor="middle" font-size="12" font-family="Lucida Sans Unicode">time (hr)
	</text>
</g>
	<g id="plotLines" stroke-width="2">
	<g clip-path="url(#plot_window)" stroke="rgb(255,0,0)" stroke-width="2">
	<path d="M101,86.7 S102,89.5 102,89.8 S103,89.8 103,89.8 S104,89.8 104,89.8 S105,89.7 105,89.8 S106,91.1 106,91.4 S106,92.7 107,93 S107,94.2 108,94.5 S108,96.3 108,96.1 S109,93.8 109,93 S110,88.9 110,88.2 S111,87 111,86.7 S112,85.4 112,85.1 S113,84 113,83.5 S113,80.5 114,80.4 S114,81.6 115,82 S115,83.4 115,83.5 S116,83.4 116,83.5 S117,84.9 117,85.1 S118,84.9 118,85.1 S119,86.2 119,86.7 S120,89.3 120,89.8 S120,90.9 121,91.4 S121,94.1 122,94.5 S122,95.8 122,96.1 S123,97.4 123,97.7 S124,98.8 124,99.3 S125,102 125,102 S126,104 126,104 S127,105 127,106 S127,107 128,107 S128,108 129,109 S129,111 129,112 S130,113 130,113 S131,113 131,113 S132,114 132,113 S133,110 133,109 S134,104 134,102 S134,98.5 135,97.7 S135,94.9 136,94.5 S136,94.5 136,94.5 S137,95.3 137,94.5 S138,87.9 138,86.7 S139,82.6 139,82 S140,80.5 140,80.4 S141,80.2 141,80.4 S141,81.6 142,82 S142,83.2 143,83.5 S143,84.8 143,85.1 S144,86.2 144,86.7 S145,89.2 145,89.8 S146,92.5 146,93 S147,94.2 147,94.5 S148,96.1 148,96.1 S148,94.9 149,94.5 S149,93.3 150,93 S150,91.9 150,91.4 S151,88.7 151,88.2 S152,86.8 152,86.7 S153,86.8 153,86.7 S154,85.3 154,85.1 S155,85.3 155,85.1 S155,83.7 156,83.5 S156,84.8 157,83.5 S157,72.4 157,70.9 S158,69.8 158,69.4 S159,66.4 159,66.2 S160,67.3 160,67.8 S161,70.3 161,70.9 S162,73.5 162,74.1 S163,76.5 163,77.2 S163,81.2 164,82 S164,84.6 164,85.1 S165,86.2 165,86.7 S166,89.2 166,89.8 S167,92.5 167,93 S168,94.1 168,94.5 S169,97.2 169,97.7 S170,98.9 170,99.3 S170,100 171,101 S171,103 171,104 S172,106 172,107 S173,110 173,110 S174,112 174,112 S175,109 175,109 S176,105 176,104 S177,99.7 177,99.3 S177,99.3 178,99.3 S178,99.6 178,99.3 S179,96.4 179,96.1 S180,96.4 180,96.1 S181,93.1 181,93 S182,94.1 182,94.5 S183,96.9 183,97.7 S184,101 184,102 S184,107 185,107 S185,108 185,107 S186,101 186,99.3 S187,92.7 187,91.4 S188,87.3 188,86.7 S189,85.3 189,85.1 S190,84.9 190,85.1 S191,86.5 191,86.7 S191,86.7 192,86.7 S192,86.7 192,86.7 S193,86.2 193,86.7 S194,90.8 194,91.4 S195,92.8 195,93 S196,93.1 196,93 S197,91.7 197,91.4 S198,90 198,89.8 S198,89.8 199,89.8 S199,89.7 199,89.8 S200,91.2 200,91.4 S201,91.2 201,91.4 S202,92.5 202,93 S203,95.3 203,96.1 S204,100 204,101 S205,104 205,104 S205,104 206,104 S206,103 206,102 S207,102 207,102 S208,104 208,104 S209,106 209,107 S210,110 210,110 S211,113 211,113 S212,115 212,115 S212,117 213,118 S213,121 213,121 S214,124 214,124 S215,126 215,126 S216,126 216,126 S217,124 217,123 S218,119 218,118 S219,114 219,113 S219,112 220,112 S220,113 220,113 S221,116 221,117 S222,118 222,118 S223,117 223,117 S224,118 224,118 S225,118 225,118 S226,117 226,117 S226,116 227,117 S227,119 227,120 S228,122 228,123 S229,126 229,126 S230,127 230,128 S231,128 231,128 S232,128 232,128 S233,128 233,128 S233,125 234,124 S234,121 234,120 S235,112 235,110 S236,102 236,101 S237,95.5 237,94.5 S238,91.7 238,91.4 S239,91.4 239,91.4 S240,91.4 240,91.4 S240,91.4 241,91.4 S241,91.4 241,91.4 S242,91.1 242,91.4 S243,93.9 243,94.5 S244,97.2 244,97.7 S245,98.8 245,99.3 S246,102 246,102 S247,104 247,104 S247,107 248,107 S248,108 249,109 S249,111 249,112 S250,113 250,113 S251,116 251,117 S252,118 252,118 S253,119 253,120 S254,121 254,121 S254,122 255,123 S255,126 256,126 S256,127 256,128 S257,129 257,129 S258,129 258,129 S259,128 259,128 S260,124 260,123 S261,119 261,118 S261,114 262,113 S262,111 263,110 S263,103 263,102 S264,101 264,101 S265,102 265,102 S266,104 266,104 S267,102 267,102 S268,104 268,104 S268,106 269,107 S269,110 270,110 S270,110 270,110 S271,109 271,109 S272,105 272,104 S273,101 273,101 S274,99.7 274,99.3 S275,96.4 275,96.1 S275,96.3 276,96.1 S276,94.7 277,94.5 S277,94.5 277,94.5 S278,94.5 278,94.5 S279,94.5 279,94.5 S280,94.5 280,94.5 S281,94.5 281,94.5 S282,94.5 282,94.5 S282,94.5 283,94.5 S283,94.5 284,94.5 S284,94.5 284,94.5 S285,94.5 285,94.5 S286,94.7 286,94.5 S287,93.3 287,93 S288,91.4 288,91.4 S289,92.7 289,93 S289,94.1 290,94.5 S290,97.1 291,97.7 S291,100 291,101 S292,102 292,102 S293,105 293,106 S294,108 294,109 S295,111 295,112 S296,113 296,113 S296,116 297,117 S297,119 298,120 S298,121 298,121 S299,124 299,124 S300,125 300,124 S301,121 301,120 S302,116 302,115 S303,111 303,110 S303,109 304,109 S304,110 305,110 S305,110 305,110 S306,112 306,112 S307,112 307,112 S308,112 308,112 S309,115 309,115 S310,117 310,117 S311,115 311,115 S311,113 312,113 S312,115 312,115 S313,114 313,113 S314,111 314,110 S315,107 315,107 S316,107 316,107 S317,109 317,109 S318,109 318,109 S318,109 319,109 S319,106 319,106 S320,102 320,101 S321,98.2 321,97.7 S322,96.4 322,96.1 S323,94.7 323,94.5 S324,94.5 324,94.5 S325,94.5 325,94.5 S325,94.7 326,94.5 S326,93 326,93 S327,94.4 327,94.5 S328,94.4 328,94.5 S329,95.6 329,96.1 S330,98.8 330,99.3 S331,101 331,101 S332,102 332,102 S332,105 333,106 S333,107 333,107 S334,108 334,109 S335,110 335,110 S336,113 336,113 S337,115 337,115 S338,116 338,117 S339,118 339,118 S339,119 340,120 S340,122 340,123 S341,124 341,124 S342,125 342,124 S343,122 343,121 S344,116 344,115 S345,111 345,110 S346,109 346,109 S346,109 347,109 S347,107 347,107 S348,106 348,106 S349,103 349,102 S350,101 350,101 S351,102 351,102 S352,104 352,104 S353,106 353,107 S353,110 354,110 S354,113 354,113 S355,114 355,113 S356,112 356,112 S357,109 357,109 S358,106 358,106 S359,106 359,106 S360,104 360,104 S360,103 361,102 S361,101 361,101 S362,99.6 362,99.3 S363,98 363,97.7 S364,96.1 364,96.1 S365,97.5 365,97.7 S366,97.5 366,97.7 S367,99.1 367,99.3 S367,99.3 368,99.3 S368,99.3 368,99.3 S369,99.3 369,99.3 S370,98.9 370,99.3 S371,102 371,102 S372,104 372,104 S373,106 373,107 S374,110 374,110 S374,113 375,113 S375,116 375,117 S376,118 376,118 S377,121 377,121 S378,122 378,123 S379,126 379,126 S380,127 380,128 S381,129 381,129 S381,130 382,131 S382,133 382,134 S383,135 383,135 S384,136 384,135 S385,132 385,131 S386,126 386,124 S387,120 387,120 S388,118 388,118 S388,118 389,118 S389,121 389,121 S390,122 390,121 S391,118 391,117 S392,111 392,110 S393,110 393,110 S394,111 394,112 S395,114 395,115 S395,117 396,118 S396,120 397,121 S397,125 397,126 S398,129 398,129 S399,130 399,131 S400,132 400,132 S401,130 401,129 S402,127 402,126 S402,122 403,121 S403,116 404,115 S404,111 404,110 S405,106 405,106 S406,103 406,102 S407,99.6 407,99.3 S408,99.4 408,99.3 S409,97.8 409,97.7 S409,97.7 410,97.7 S410,97.7 411,97.7 S411,97.7 411,97.7 S412,97.4 412,97.7 S413,100 413,101 S414,102 414,102 S415,105 415,106 S416,108 416,109 S416,111 417,112 S417,113 418,113 S418,116 418,117 S419,119 419,120 S420,121 420,121 S421,122 421,123 S422,126 422,126 S423,127 423,128 S423,130 424,131 S424,130 425,131 S425,134 425,134 S426,134 426,134 S427,132 427,131 S428,126 428,124 S429,120 429,120 S430,117 430,117 S430,114 431,113 S431,108 432,107 S432,106 432,106 S433,105 433,106 S434,107 434,107 S435,109 435,109 S436,106 436,106 S437,103 437,102 S437,101 438,101 S438,101 439,101 S439,95.6 439,94.5 S440,90.4 440,89.8 S441,88.4 441,88.2 S442,88.1 442,88.2 S443,90.3 443,89.8 S444,85.4 444,83.5 S444,73.2 445,70.9 S445,62.8 446,61.5 S446,57.9 446,58.4 S447,64.7 447,66.2 S448,72.5 448,74.1 S449,80.5 449,82 S450,87.3 450,88.2 S451,90.8 451,91.4 S452,94.1 452,94.5 S452,95.8 453,96.1 S453,97.2 453,97.7 S454,100 454,101 S455,103 455,104 S456,106 456,107 S457,110 457,110 S458,113 458,113 S459,116 459,117 S459,119 460,120 S460,122 460,123 S461,125 461,126 S462,129 462,129 S463,130 463,131 S464,133 464,134 S465,137 465,137 S466,138 466,139 S466,141 467,142 S467,143 467,143 S468,145 468,145 S469,143 469,142 S470,137 470,135 S471,132 471,131 S472,126 472,124 S473,117 473,115 S473,109 474,107 S474,100 474,99.3 S475,98 475,97.7 S476,96.4 476,96.1 S477,94.9 477,94.5 S478,93.1 478,93 S479,92.8 479,93 S480,94.4 480,94.5 S480,94.7 481,94.5 S481,93.1 481,93 S482,92.7 482,93 S483,96 483,96.1 S484,95.2 484,94.5 S485,90.9 485,89.8 S486,84.6 486,83.5 S487,79 487,78.8 S487,81 488,82 S488,87.1 488,88.2 S489,92.2 489,93 S490,95.6 490,96.1 S491,97.4 491,97.7 S492,98.9 492,99.3 S493,101 493,101 S494,101 494,101 S494,101 495,101 S495,101 495,101 S496,104 496,104 S497,105 497,106 S498,108 498,109 S499,111 499,112 S500,114 500,115 S501,118 501,118 S501,119 502,120 S502,122 502,123 S503,126 503,126 S504,127 504,128 S505,130 505,131 S506,132 506,132 S507,133 507,134 S508,137 508,137 S508,138 509,139 S509,140 509,140 S510,141 510,140 S511,137 511,135 S512,130 512,129 S513,124 513,123 S514,121 514,121 S515,122 515,121 S515,116 516,115 S516,114 516,113 S517,111 517,110 S518,105 518,104 S519,104 519,104 S520,106 520,107 S521,111 521,112 S522,113 522,113 S522,113 523,113 S523,114 523,113 S524,112 524,112 S525,110 525,109 S526,102 526,101 S527,96.9 527,96.1 S528,93.6 528,93 S529,90.1 529,89.8 S529,89.3 530,89.8 S530,93.8 530,94.5 S531,97.2 531,97.7 S532,98.9 532,99.3 S533,101 533,101 S534,101 534,101 S535,101 535,101 S536,101 536,101 S536,99.4 537,99.3 S537,99.3 537,99.3 S538,98.9 538,99.3 S539,102 539,102 S540,104 540,104 S541,106 541,107 S542,110 542,110 S543,113 543,113 S543,115 544,115 S544,118 545,118 S545,119 545,120 S546,122 546,123 S547,124 547,124 S548,126 548,126 S549,129 549,129 S550,130 550,131 S550,132 551,132 S551,134 552,134 S552,134 552,134 S553,130 553,129 S554,124 554,123 S555,117 555,117 S556,114 556,113 S557,112 557,112 S557,108 558,107 S558,105 559,104 S559,100 559,99.3 S560,96.7 560,96.1 S561,93.9 561,93 S562,87.6 562,86.7 S563,83.7 563,83.5 S564,85.1 564,85.1 S564,84.6 565,83.5 S565,75.8 566,74.1 S566,67.6 566,66.2 S567,60.7 567,59.9 S568,58.7 568,58.4 S569,57.3 569,56.8 S570,54.4 570,53.7 S571,49.9 571,48.9 S571,44.5 572,44.2 S572,45 573,45.8 S573,51.1 573,52.1 S574,54.9 574,55.2 S575,55.2 575,55.2 S576,55.4 576,55.2 S577,53.8 577,53.7 S578,53.8 578,53.7 S578,52.2 579,52.1 S579,51.9 580,52.1 S580,53 580,53.7 S581,57.4 581,58.4 S582,62.1 582,63.1 S583,66.9 583,67.8 S584,71.6 584,72.5 S585,76.5 585,77.2 S585,79.8 586,80.4 S586,82.9 587,83.5 S587,86 587,86.7 S588,89.2 588,89.8 S589,92.3 589,93 S590,95.5 590,96.1 S591,98.6 591,99.3 S592,102 592,102 S592,104 593,104 S593,105 594,106 S594,106 594,106 S595,103 595,102 S596,97.2 596,96.1 S597,92.7 597,91.4 S598,84.8 598,83.5 S599,79.8 599,78.8 S600,74.7 600,74.1 S600,72.4 601,72.5 S601,75.2 601,75.7 S602,76.9 602,77.2 S603,78.5 603,78.8 S604,80.2 604,80.4 S605,80.2 605,80.4 S606,82.4 606,82 S607,76.9 607,75.7 S607,70.2 608,69.4 S608,67.8 608,67.8 S609,69.1 609,69.4 S610,70.6 610,70.9 S611,72.4 611,72.5 S612,72.7 612,72.5 S613,71.6 613,70.9 S614,67 614,66.2 S614,63.4 615,63.1 S615,63.1 615,63.1 S616,62.8 616,63.1 S617,65.8 617,66.2 S618,67.6 618,67.8 S619,67.8 619,67.8 S620,67.8 620,67.8 S621,67.8 621,67.8 S621,67.6 622,67.8 S622,68.9 622,69.4 S623,71.7 623,72.5 S624,76.3 624,77.2 S625,81 625,82 S626,85.9 626,86.7 S627,89 627,89.8 S628,93.8 628,94.5 S628,97.1 629,97.7 S629,100 629,101 S630,103 630,104 S631,106 631,107 S632,110 632,110 S633,113 633,113 S634,116 634,117 S635,118 635,118 S635,121 636,121 S636,122 636,121 S637,117 637,117 S638,113 638,112 S639,106 639,106 S640,105 640,106 S641,107 641,107 S642,109 642,110 S642,114 643,115 S643,119 643,120 S644,122 644,123 S645,124 645,124 S646,125 646,124 S647,122 647,121 S648,119 648,118 S649,117 649,117 S649,117 650,117 S650,115 650,115 S651,114 651,113 S652,113 652,113 S653,115 653,115 S654,114 654,113 S655,108 655,107 S656,106 656,106 S656,103 657,102 S657,99.9 657,99.3 S658,96.9 658,96.1 S659,92.2 659,91.4 S660,89 660,88.2 S661,84.3 661,83.5 S662,80.9 662,80.4 S663,78.8 663,78.8 S663,79.9 664,80.4 S664,82.7 664,83.5 S665,87.3 665,88.2 S666,92.2 666,93 S667,95.5 667,96.1 S668,98.5 668,99.3 S669,103 669,104 S670,106 670,107 S670,110 671,110 S671,111 671,112 S672,115 672,115 S673,116 673,117 S674,119 674,120 S675,121 675,121 S676,122 676,123 S677,126 677,126 S677,128 678,128 S678,126 678,126 S679,124 679,123 S680,118 680,117 S681,111 681,110 S682,109 682,109 S683,110 683,110 S684,112 684,112 S684,113 685,113 S685,115 686,115 S686,114 686,113 S687,111 687,110 S688,108 688,107 S689,104 689,104 S690,105 690,106 S691,108 691,109 S691,109 692,109 S692,106 693,106 S693,103 693,102 S694,101 694,101 S695,101 695,101 S696,103 696,102 S697,101 697,99.3 S698,91.7 698,89.8 S698,82.3 699,80.4 S699,72.1 700,70.9 S700,69.5 700,69.4 S701,69.4 701,69.4 S702,69.4 702,69.4 S703,69.4 703,69.4 S704,69.5 704,69.4 S705,68 705,67.8 S705,67.8 706,67.8 S706,67.5 707,67.8 S707,70.3 707,70.9 S708,73.5 708,74.1 S709,76.6 709,77.2 S710,79.9 710,80.4 S711,81.5 711,82 S712,84.5 712,85.1 S712,87.8 713,88.2 S713,89.3 714,89.8 S714,92.5 714,93 S715,94.2 715,94.5 S716,95.6 716,96.1 S717,98.8 717,99.3 S718,101 718,101 S719,102 719,102 S719,104 720,104 S720,103 721,102 S721,98.6 721,97.7 S722,94.1 722,93 S723,87.5 723,86.7 S724,85.1 724,85.1 S725,86.7 725,86.7 S726,85.4 726,85.1 S726,83.7 727,83.5 S727,83.7 728,83.5 S728,82.4 728,82 S729,79.4 729,78.8 S730,75.8 730,75.7 S731,76.9 731,77.2 S732,78.7 732,78.8 S733,79.1 733,78.8 S733,76.1 734,75.7 S734,74.4 735,74.1 S735,73 735,72.5 S736,69.7 736,69.4 S737,69.4 737,69.4 S738,69.7 738,69.4 S739,67 739,66.2 S740,62.1 740,61.5 S740,60.4 741,59.9 S741,57.1 742,56.8 S742,56.6 742,56.8 S743,57.9 743,58.4 S744,61 744,61.5 S745,62.8 745,63.1 S746,64.3 746,64.7 S747,66.1 747,66.2 S748,66.1 748,66.2 S748,67.5 749,67.8 S749,68.9 749,69.4 S750,72.1 750,72.5 S751,73.6 751,74.1 S752,76.6 752,77.2 S753,79.9 753,80.4 S754,81.5 754,82 S755,84.6 755,85.1 S755,86.2 756,86.7 S756,89.3 756,89.8 S757,91.1 757,91.4 S758,92.5 758,93 S759,95.6 759,96.1 S760,97.4 760,97.7 S761,98.9 761,99.3 S762,101 762,101 S762,99.9 763,99.3 S763,95.6 763,94.5 S764,89.3 764,88.2 S765,84.2 765,83.5 S766,82.1 766,82 S767,82.3 767,82 S768,79.4 768,78.8 S769,76.1 769,75.7 S769,74.3 770,74.1 S770,74.1 770,74.1 S771,74.1 771,74.1 S772,74.1 772,74.1 S773,73.9 773,74.1 S774,75.4 774,75.7 S775,77.2 775,77.2 S776,76 776,75.7 S776,74.4 777,74.1 S777,72.5 777,72.5 S778,73.9 778,74.1 S779,74.6 779,74.1 S780,70.5 780,69.4 S781,64 781,63.1 S782,60.4 782,59.9 S783,58.7 783,58.4 S783,57.1 784,56.8 S784,54.9 784,55.2 S785,59.2 785,59.9 S786,62.6 786,63.1 S787,64.3 787,64.7 S788,65.9 788,66.2 S789,67.6 789,67.8 S790,67.5 790,67.8 S790,70.3 791,70.9 S791,73.5 791,74.1 S792,76.6 792,77.2 S793,79.9 793,80.4 S794,81.5 794,82 S795,84.5 795,85.1 S796,87.6 796,88.2 S797,90.9 797,91.4 S797,92.5 798,93 S798,95.6 798,96.1 S799,97.4 799,97.7 S800,98.8 800,99.3 S801,102 801,102 S802,104 802,104 S803,105 803,106 S804,107 804,107 S804,108 805,107 S805,104 805,102 S806,97.2 806,96.1 S807,92 807,91.4 S808,90.4 808,89.8 S809,86 809,85.1 S810,81.3 810,80.4 S811,76.3 811,75.7 S811,74.1 812,74.1 S812,75.4 812,75.7 S813,77.2 813,77.2 S814,75.8 814,75.7 S815,75.7 815,75.7 S816,76.1 816,75.7 S817,71.6 817,70.9 S818,69.7 818,69.4 S818,68 819,67.8 S819,67.5 819,67.8 S820,70.5 820,70.9 S821,72.2 821,72.5 S822,74.3 822,74.1 S823,71.7 823,70.9 S824,66.7 824,66.2 S825,66.1 825,66.2 S825,67.3 826,67.8 S826,70.6 826,70.9 S827,70.8 827,70.9 S828,72.5 828,72.5 S829,71.1 829,70.9 S830,71.1 830,70.9 S831,69.5 831,69.4 S832,69.2 832,69.4 S832,70.5 833,70.9 S833,73.5 834,74.1 S834,76.5 834,77.2 S835,81.2 835,82 S836,84.5 836,85.1 S837,87.6 837,88.2 S838,90.8 838,91.4 S839,93.9 839,94.5 S839,97.1 840,97.7 S840,100 841,101 S841,102 841,102 S842,105 842,106 S843,107 843,107 S844,108 844,109 S845,111 845,112 S846,113 846,113 S846,112 847,112 S847,108 848,107 S848,104 848,102 S849,96.9 849,96.1 S850,95 850,94.5 S851,92 851,91.4 S852,88.9 852,88.2 S853,85.4 853,85.1 S853,84.9 854,85.1 S854,86.7 855,86.7 S855,85.1 855,85.1 S856,86.5 856,86.7 S857,87.3 857,86.7 S858,81.6 858,80.4 S859,74.9 859,74.1 S860,73.3 860,72.5 S860,67.5 861,66.2 S861,60.6 862,59.9 S862,59.8 862,59.9 S863,61.7 863,61.5 S864,59.2 864,58.4 S865,54.4 865,53.7 S866,50.5 866,50.5 S867,52.9 867,53.7 S867,57.4 868,58.4 S868,62.5 869,63.1 S869,64.3 869,64.7 S870,65.9 870,66.2 S871,67.6 871,67.8 S872,68 872,67.8 S873,66.4 873,66.2 S874,66.1 874,66.2 S874,67.3 875,67.8 S875,70.2 876,70.9 S876,74.9 876,75.7 S877,78 877,78.8 S878,82.7 878,83.5 S879,86 879,86.7 S880,89.2 880,89.8 S881,92.3 881,93 S881,95.5 882,96.1 S882,98.8 883,99.3 S883,100 883,101 S884,104 884,104 S885,105 885,106 S886,108 886,109 S887,110 887,110 S888,112 888,112 S888,111 889,110 S889,106 890,106 S890,102 890,101 S891,95.3 891,94.5 S892,93.4 892,93 S893,90.6 893,89.8 S894,85.9 894,85.1 S895,82.4 895,82 S896,81.2 896,80.4 S896,75.7 897,74.1 S897,66.1 897,64.7 S898,60.3 898,59.9 S899,61 899,61.5 S900,64.2 900,64.7 S901,66.1 901,66.2 S902,66.4 902,66.2 S903,64.8 903,64.7 S903,64.7 904,64.7 S904,64.5 904,64.7 S905,66.4 905,66.2 S906,63.9 906,63.1 S907,59.2 907,58.4 S908,55.4 908,55.2 S909,56.5 909,56.8 S910,58.1 910,58.4 S910,59.6 911,59.9 S911,61.4 911,61.5 S912,61.4 912,61.5 S913,62.8 913,63.1 S914,64.5 914,64.7 S915,64.7 915,64.7 S916,64.5 916,64.7 S917,65.8 917,66.2 S917,68.7 918,69.4 S918,71.9 918,72.5 S919,75.2 919,75.7 S920,76.8 920,77.2 S921,79.8 921,80.4 S922,83.1 922,83.5 S923,84.6 923,85.1 S924,87.8 924,88.2 S924,89.5 925,89.8 S925,90.9 925,91.4 S926,94.1 926,94.5 S927,95.8 927,96.1 S928,97.4 928,97.7 S929,98.9 929,99.3 S930,101 930,101 S931,99.7 931,99.3 S931,97.1 932,96.1 S932,91.1 932,89.8 S933,84.3 933,83.5 S934,82 934,82 S935,83.4 935,83.5 S936,83.7 936,83.5 S937,82.1 937,82 S938,82 938,82 S938,82.1 939,82 S939,80.7 939,80.4 S940,79 940,78.8 S941,78.8 941,78.8 S942,78.5 942,78.8 S943,81.5 943,82 S944,83.2 944,83.5 S945,85.1 945,85.1 S945,83.8 946,83.5 S946,82.3 946,82 S947,81.3 947,80.4 S948,73.8 948,72.5 S949,68.6 949,67.8 S950,65 950,64.7 S951,64.3 951,64.7 S952,67.5 952,67.8 S952,67.8 953,67.8 S953,68 953,67.8 S954,66.4 954,66.2 S955,66.4 955,66.2 S956,64.8 956,64.7 S957,64.7 957,64.7 S958,64.7 958,64.7 S959,64.3 959,64.7 S959,67.2 960,67.8 S960,70.3 960,70.9 S961,73.5 961,74.1 S962,76.6 962,77.2 S963,79.8 963,80.4 S964,82.9 964,83.5 S965,86 965,86.7 S966,89.3 966,89.8 S966,90.9 967,91.4 S967,94.1 967,94.5 S968,95.6 968,96.1 S969,98.8 969,99.3 S970,101 970,101 S971,102 971,102 S972,104 972,104 S973,104 973,104 S973,100 974,99.3 S974,95.6 974,94.5 S975,89 975,88.2 S976,86.8 976,86.7 S977,86.5 977,86.7 S978,87.9 978,88.2 S979,89.3 979,89.8 S980,92.5 980,93 S980,94.1 981,94.5 S981,97.1 982,97.7 S982,100 982,101 S983,104 983,104 S984,105 984,104 S985,98.6 985,97.7 S986,94.7 986,94.5 S987,96.1 987,96.1 S987,95.2 988,94.5 S988,90.4 989,89.8 S989,88.6 989,88.2 S990,87 990,86.7 S991,85.3 991,85.1 S992,85.4 992,85.1 S993,82.6 993,82 S994,79.4 994,78.8 S994,76.1 995,75.7 S995,74.6 996,74.1 S996,71.4 996,70.9 S997,69.7 997,69.4 S998,68.1 998,67.8 S999,66.4 999,66.2 S1e+03,66.2 1e+03,66.2 S1e+03,65.9 1e+03,66.2 S1e+03,68.6 1e+03,69.4 S1e+03,73.2 1e+03,74.1 S1e+03,78 1e+03,78.8 S1e+03,81.2 1e+03,82 S1e+03,85.9 1.01e+03,86.7 S1.01e+03,89.2 1.01e+03,89.8 S1.01e+03,92.3 1.01e+03,93 S1.01e+03,95.5 1.01e+03,96.1 S1.01e+03,98.6 1.01e+03,99.3 S1.01e+03,102 1.01e+03,102 S1.01e+03,105 1.01e+03,106 S1.01e+03,107 1.01e+03,107 S1.01e+03,110 1.01e+03,110 S1.01e+03,113 1.01e+03,113 S1.01e+03,115 1.01e+03,115 S1.01e+03,115 1.01e+03,115 S1.02e+03,111 1.02e+03,110 S1.02e+03,105 1.02e+03,104 S1.02e+03,99.9 1.02e+03,99.3 S1.02e+03,98.2 1.02e+03,97.7 S1.02e+03,95.3 1.02e+03,94.5 S1.02e+03,90.3 1.02e+03,89.8 S1.02e+03,89.7 1.02e+03,89.8 S1.02e+03,91.2 1.02e+03,91.4 S1.02e+03,91.4 1.02e+03,91.4 S1.02e+03,91.1 1.02e+03,91.4 S1.02e+03,93.9 1.02e+03,94.5 S1.03e+03,97.2 1.03e+03,97.7 S1.03e+03,98.8 1.03e+03,99.3 S1.03e+03,102 1.03e+03,102 S1.03e+03,101 1.03e+03,101 S1.03e+03,103 1.03e+03,102 S1.03e+03,99.6 1.03e+03,99.3 S1.03e+03,99.3 1.03e+03,99.3 S1.03e+03,99.6 1.03e+03,99.3 S1.03e+03,96.6 1.03e+03,96.1 S1.03e+03,94.7 1.03e+03,94.5 S1.03e+03,94.9 1.03e+03,94.5 S1.03e+03,91.9 1.03e+03,91.4 S1.04e+03,90.3 1.04e+03,89.8 S1.04e+03,87.3 1.04e+03,86.7 S1.04e+03,84 1.04e+03,83.5 S1.04e+03,82.4 1.04e+03,82 S1.04e+03,79.3 1.04e+03,78.8 S1.04e+03,77.6 1.04e+03,77.2 S1.04e+03,76 1.04e+03,75.7 S1.04e+03,74.1 1.04e+03,74.1 S1.04e+03,75.2 1.04e+03,75.7 S1.04e+03,78 1.04e+03,78.8 S1.04e+03,82.6 1.04e+03,83.5 S1.05e+03,87.3 1.05e+03,88.2 S1.05e+03,92 1.05e+03,93 S1.05e+03,96.9 1.05e+03,97.7 S1.05e+03,100 1.05e+03,101 S1.05e+03,103 1.05e+03,104 S1.05e+03,106 1.05e+03,107 S1.05e+03,110 1.05e+03,110 S1.05e+03,113 1.05e+03,113 S1.05e+03,116 1.05e+03,117 S1.05e+03,118 1.05e+03,118 S1.05e+03,121 1.05e+03,121 S1.05e+03,123 1.06e+03,123 S1.06e+03,124 1.06e+03,124 S1.06e+03,125 1.06e+03,124 S1.06e+03,121 1.06e+03,120 S1.06e+03,115 1.06e+03,113 S1.06e+03,109 1.06e+03,109 S1.06e+03,107 1.06e+03,107 S1.06e+03,106 1.06e+03,106 S1.06e+03,101 1.06e+03,101 S1.06e+03,99.4 1.06e+03,99.3 S1.06e+03,99.3 1.06e+03,99.3 S1.06e+03,99.1 1.06e+03,99.3 S1.07e+03,100 1.07e+03,101 S1.07e+03,105 1.07e+03,106 S1.07e+03,109 1.07e+03,110 S1.07e+03,113 1.07e+03,113 S1.07e+03,116 1.07e+03,115 S1.07e+03,109 1.07e+03,107 S1.07e+03,96.9 1.07e+03,94.5 S1.07e+03,85.1 1.07e+03,83.5 S1.07e+03,79.6 1.07e+03,78.8 S1.07e+03,76 1.07e+03,75.7 S1.07e+03,76 1.07e+03,75.7 S1.08e+03,73.3 1.08e+03,72.5 S1.08e+03,68.6 1.08e+03,67.8 S1.08e+03,65.3 1.08e+03,64.7 S1.08e+03,62.1 1.08e+03,61.5 S1.08e+03,58.7 1.08e+03,58.4 S1.08e+03,58.2 1.08e+03,58.4 S1.08e+03,59.3 1.08e+03,59.9 S1.08e+03,63.6 1.08e+03,64.7 S1.08e+03,69.5 1.08e+03,70.9 S1.08e+03,77.6 1.08e+03,78.8 S1.08e+03,82.4 1.08e+03,83.5 S1.08e+03,88.9 1.08e+03,89.8 S1.09e+03,92.2 1.09e+03,93 S1.09e+03,96.9 1.09e+03,97.7 S1.09e+03,100 1.09e+03,101 S1.09e+03,103 1.09e+03,104 S1.09e+03,106 1.09e+03,107 S1.09e+03,110 1.09e+03,110 S1.09e+03,111 1.09e+03,112 S1.09e+03,115 1.09e+03,115 S1.09e+03,116 1.09e+03,117 S1.09e+03,119 1.09e+03,120 S1.09e+03,121 1.09e+03,121 S1.1e+03,122 1.1e+03,123 S1.1e+03,126 1.1e+03,126 S1.1e+03,127 1.1e+03,128 S1.1e+03,129 1.1e+03,129 S1.1e+03,131 1.1e+03,131 S1.1e+03,131 1.1e+03,131 S1.1e+03,127 1.1e+03,126 S1.1e+03,122 1.1e+03,121 S1.1e+03,117 1.1e+03,115 S1.1e+03,106 1.1e+03,104 S1.1e+03,93.1 1.1e+03,91.4 S1.1e+03,87.1 1.1e+03,86.7 S1.11e+03,86.5 1.11e+03,86.7 S1.11e+03,87.8 1.11e+03,88.2 S1.11e+03,90.6 1.11e+03,91.4 S1.11e+03,95.2 1.11e+03,96.1 S1.11e+03,100 1.11e+03,101 S1.11e+03,103 1.11e+03,104 S1.11e+03,108 1.11e+03,109 S1.11e+03,112 1.11e+03,112 S1.11e+03,112 1.11e+03,110 S1.11e+03,101 1.11e+03,99.3 S1.11e+03,92.7 1.11e+03,91.4 S1.12e+03,87.8 1.12e+03,86.7 S1.12e+03,81.8 1.12e+03,80.4 S1.12e+03,73.3 1.12e+03,72.5 S1.12e+03,72.4 1.12e+03,72.5 S1.12e+03,73.8 1.12e+03,74.1 S1.12e+03,75.5 1.12e+03,75.7 S1.12e+03,75.7 1.12e+03,75.7 S1.12e+03,75.7 1.12e+03,75.7 S1.12e+03,75.7 1.12e+03,75.7 S1.12e+03,75.7 1.12e+03,75.7 S1.12e+03,75.8 1.12e+03,75.7 S1.12e+03,74.3 1.13e+03,74.1 S1.13e+03,73.9 1.13e+03,74.1 S1.13e+03,75.2 1.13e+03,75.7 S1.13e+03,78 1.13e+03,78.8 S1.13e+03,82.7 1.13e+03,83.5 S1.13e+03,85.9 1.13e+03,86.7 S1.13e+03,90.6 1.13e+03,91.4 S1.13e+03,93.8 1.13e+03,94.5 S1.13e+03,98.5 1.13e+03,99.3 S1.13e+03,102 1.13e+03,102 S1.13e+03,105 1.13e+03,106 S1.13e+03,109 1.13e+03,110 S1.14e+03,113 1.14e+03,113 S1.14e+03,115 1.14e+03,115 S1.14e+03,117 1.14e+03,118 S1.14e+03,121 1.14e+03,121 S1.14e+03,123 1.14e+03,123 S1.14e+03,124 1.14e+03,124 S1.14e+03,123 1.14e+03,123 S1.14e+03,119 1.14e+03,118 S1.14e+03,113 1.14e+03,112 S1.14e+03,108 1.14e+03,107 S1.14e+03,104 1.14e+03,102 S1.15e+03,97.4 1.15e+03,96.1 S1.15e+03,90.8 1.15e+03,89.8 S1.15e+03,87 1.15e+03,86.7 S1.15e+03,86.8 1.15e+03,86.7 S1.15e+03,85.4 1.15e+03,85.1 S1.15e+03,83.8 1.15e+03,83.5 S1.15e+03,82.1 1.15e+03,82 S1.15e+03,82.1 1.15e+03,82 S1.15e+03,80.9 1.15e+03,80.4 S1.15e+03,77.6 1.15e+03,77.2 S1.15e+03,77.2 1.15e+03,77.2 S1.15e+03,77.1 1.15e+03,77.2 S1.16e+03,78.7 1.16e+03,78.8 S1.16e+03,78.7 1.16e+03,78.8 S1.16e+03,80.2 1.16e+03,80.4 S1.16e+03,81 1.16e+03,80.4 S1.16e+03,75.5 1.16e+03,74.1 S1.16e+03,68.4 1.16e+03,66.2 S1.16e+03,53.8 1.16e+03,52.1 S1.16e+03,48.9 1.16e+03,48.9 S1.16e+03,51.1 1.16e+03,52.1 S1.16e+03,57.3 1.16e+03,58.4 S1.16e+03,62.6 1.16e+03,63.1 S1.17e+03,62.9 1.17e+03,63.1 S1.17e+03,64.3 1.17e+03,64.7 S1.17e+03,65.9 1.17e+03,66.2 S1.17e+03,67.5 1.17e+03,67.8 S1.17e+03,68.9 1.17e+03,69.4 S1.17e+03,71.9 1.17e+03,72.5 S1.17e+03,74.9 1.17e+03,75.7 S1.17e+03,79.6 1.17e+03,80.4 S1.17e+03,82.9 1.17e+03,83.5 S1.17e+03,86 1.17e+03,86.7 S1.17e+03,89.2 1.17e+03,89.8 S1.17e+03,92.5 1.18e+03,93 S1.18e+03,94.1 1.18e+03,94.5 S1.18e+03,97.1 1.18e+03,97.7 S1.18e+03,100 1.18e+03,101 S1.18e+03,104 1.18e+03,104 S1.18e+03,105 1.18e+03,106 S1.18e+03,108 1.18e+03,109 S1.18e+03,110 1.18e+03,110 S1.18e+03,113 1.18e+03,113 S1.18e+03,112 1.18e+03,112 S1.18e+03,108 1.18e+03,107 S1.18e+03,101 1.18e+03,99.3 S1.19e+03,92.7 1.19e+03,91.4 S1.19e+03,87.5 1.19e+03,86.7 S1.19e+03,84.2 1.19e+03,83.5 S1.19e+03,81.2 1.19e+03,80.4 S1.19e+03,76.5 1.19e+03,75.7 S1.19e+03,73 1.19e+03,72.5 S1.19e+03,70.6 1.19e+03,70.9 S1.19e+03,74.6 1.19e+03,75.7 S1.19e+03,80.7 1.19e+03,82 S1.19e+03,87.1 1.19e+03,88.2 S1.19e+03,91.9 1.19e+03,93 S1.2e+03,98.3 1.2e+03,99.3 S1.2e+03,102 1.2e+03,102 S1.2e+03,106 1.2e+03,107 S1.2e+03,110 1.2e+03,110 S1.2e+03,113 1.2e+03,113 S1.2e+03,116 1.2e+03,117 S1.2e+03,119 1.2e+03,120 S1.2e+03,122 1.2e+03,123 S1.2e+03,124 1.2e+03,124 S1.2e+03,126 1.2e+03,126 S1.2e+03,129 1.2e+03,129 S1.2e+03,130 1.2e+03,131 S1.21e+03,132 1.21e+03,132 S1.21e+03,134 1.21e+03,134 S1.21e+03,135 1.21e+03,135 S1.21e+03,137 1.21e+03,137 S1.21e+03,138 1.21e+03,139 S1.21e+03,140 1.21e+03,140 S1.21e+03,141 1.21e+03,142 S1.21e+03,143 1.21e+03,143 S1.21e+03,143 1.21e+03,143 S1.21e+03,145 1.21e+03,145 S1.21e+03,146 1.21e+03,146 S1.22e+03,148 1.22e+03,148 S1.22e+03,149 1.22e+03,150 S1.22e+03,151 1.22e+03,151 S1.22e+03,153 1.22e+03,153 S1.22e+03,153 1.22e+03,153 S1.22e+03,154 1.22e+03,154 S1.22e+03,154 1.22e+03,154 S1.22e+03,154 1.22e+03,154 S1.22e+03,154 1.22e+03,154 S1.22e+03,156 1.22e+03,156 S1.22e+03,156 1.22e+03,156 S1.22e+03,157 1.22e+03,157 S1.23e+03,159 1.23e+03,159 S1.23e+03,160 1.23e+03,161 S1.23e+03,160 1.23e+03,161 S1.23e+03,162 1.23e+03,162 S1.23e+03,162 1.23e+03,162 S1.23e+03,164 1.23e+03,164 S1.23e+03,164 1.23e+03,164 S1.23e+03,164 1.23e+03,164 S1.23e+03,164 1.23e+03,164 S1.23e+03,165 1.23e+03,165 S1.23e+03,165 1.23e+03,165 S1.24e+03,164 1.24e+03,164 S1.24e+03,164 1.24e+03,164 S1.24e+03,162 1.24e+03,162 S1.24e+03,164 1.24e+03,164 S1.24e+03,164 1.24e+03,164 S1.24e+03,165 1.24e+03,165 S1.24e+03,167 1.24e+03,167 S1.24e+03,168 1.24e+03,168 S1.24e+03,170 1.24e+03,170 S1.24e+03,171 1.24e+03,172 S1.24e+03,173 1.24e+03,173 S1.24e+03,173 1.25e+03,173 S1.25e+03,175 1.25e+03,175 S1.25e+03,175 1.25e+03,175 S1.25e+03,175 1.25e+03,175 S1.25e+03,175 1.25e+03,175 S1.25e+03,175 1.25e+03,175 S1.25e+03,175 1.25e+03,175 S1.25e+03,176 1.25e+03,176 S1.25e+03,178 1.25e+03,178 S1.25e+03,178 1.25e+03,178 S1.25e+03,179 1.25e+03,179 S1.25e+03,179 1.25e+03,179 S1.26e+03,181 1.26e+03,181 S1.26e+03,182 1.26e+03,183 S1.26e+03,183 1.26e+03,183 S1.26e+03,183 1.26e+03,183 S1.26e+03,183 1.26e+03,183 S1.26e+03,183 1.26e+03,183 S1.26e+03,182 1.26e+03,183 S1.26e+03,184 1.26e+03,184 S1.26e+03,184 1.26e+03,184 S1.26e+03,185 1.26e+03,186 S1.26e+03,187 1.26e+03,187 S1.27e+03,187 1.27e+03,187 S1.27e+03,187 1.27e+03,187 S1.27e+03,189 1.27e+03,189 S1.27e+03,189 1.27e+03,189 S1.27e+03,189 1.27e+03,189 S1.27e+03,187 1.27e+03,187 S1.27e+03,188 1.27e+03,187 S1.27e+03,185 1.27e+03,184 S1.27e+03,183 1.27e+03,183 S1.27e+03,181 1.27e+03,181 S1.27e+03,180 1.27e+03,179 S1.27e+03,178 1.27e+03,178 S1.28e+03,178 1.28e+03,178 S1.28e+03,179 1.28e+03,179 S1.28e+03,181 1.28e+03,181 S1.28e+03,179 1.28e+03,179 S1.28e+03,181 1.28e+03,181 S1.28e+03,181 1.28e+03,181 S1.28e+03,181 1.28e+03,181 S1.28e+03,182 1.28e+03,183 S1.28e+03,182 1.28e+03,183 S1.28e+03,184 1.28e+03,184 S1.28e+03,184 1.28e+03,184 S1.29e+03,186 1.29e+03,186 S1.29e+03,186 1.29e+03,186 S1.29e+03,187 1.29e+03,187 S1.29e+03,189 1.29e+03,189 S1.29e+03,189 1.29e+03,189 S1.29e+03,190 1.29e+03,190 S1.29e+03,191 1.29e+03,190 S1.29e+03,189 1.29e+03,189 S1.29e+03,187 1.29e+03,187 S1.29e+03,187 1.29e+03,187 S1.29e+03,186 1.29e+03,186 S1.29e+03,184 1.3e+03,184 S1.3e+03,183 1.3e+03,183 S1.3e+03,183 1.3e+03,183 S1.3e+03,182 1.3e+03,183 S1.3e+03,184 1.3e+03,184 S1.3e+03,184 1.3e+03,184 S1.3e+03,185 1.3e+03,186 S1.3e+03,187 1.3e+03,187 S1.3e+03,187 1.3e+03,187 S1.3e+03,189 1.3e+03,189 S1.3e+03,189 1.3e+03,189 S1.3e+03,190 1.3e+03,190 S1.31e+03,190 1.31e+03,190 S1.31e+03,192 1.31e+03,192 S1.31e+03,193 1.31e+03,194 S1.31e+03,194 1.31e+03,194 S1.31e+03,194 1.31e+03,194 S1.31e+03,193 1.31e+03,192 S1.31e+03,187 1.31e+03,186 S1.31e+03,178 1.31e+03,176 S1.31e+03,170 1.31e+03,168 S1.31e+03,161 1.31e+03,159 S1.31e+03,149 1.31e+03,146 S1.31e+03,133 1.32e+03,131 S1.32e+03,121 1.32e+03,120 S1.32e+03,115 1.32e+03,113 S1.32e+03,109 1.32e+03,109 S1.32e+03,106 1.32e+03,106 S1.32e+03,103 1.32e+03,102 S1.32e+03,101 1.32e+03,101 S1.32e+03,102 1.32e+03,102 S1.32e+03,106 1.32e+03,107 S1.32e+03,111 1.32e+03,112 S1.32e+03,113 1.32e+03,113 S1.32e+03,113 1.32e+03,113 S1.33e+03,113 1.33e+03,113 S1.33e+03,114 1.33e+03,115 S1.33e+03,119 1.33e+03,120 S1.33e+03,122 1.33e+03,121 S1.33e+03,117 1.33e+03,115 S1.33e+03,103 1.33e+03,101 S1.33e+03,94.2 1.33e+03,93 S1.33e+03,89.2 1.33e+03,88.2 S1.33e+03,84.3 1.33e+03,83.5 S1.33e+03,81.2 1.33e+03,80.4 S1.33e+03,76.5 1.33e+03,75.7 S1.34e+03,73 1.34e+03,72.5 S1.34e+03,70.9 1.34e+03,70.9 S1.34e+03,72.1 1.34e+03,72.5 S1.34e+03,74.9 1.34e+03,75.7 S1.34e+03,79.6 1.34e+03,80.4 S1.34e+03,82.7 1.34e+03,83.5 S1.34e+03,87.5 1.34e+03,88.2 S1.34e+03,90.6 1.34e+03,91.4 S1.34e+03,95.3 1.34e+03,96.1 S1.34e+03,98.6 1.34e+03,99.3 S1.34e+03,102 1.34e+03,102 S1.34e+03,105 1.34e+03,106 S1.35e+03,108 1.35e+03,109 S1.35e+03,111 1.35e+03,112 S1.35e+03,115 1.35e+03,115 S1.35e+03,116 1.35e+03,117 S1.35e+03,119 1.35e+03,120 S1.35e+03,123 1.35e+03,123 S1.35e+03,121 1.35e+03,120 S1.35e+03,113 1.35e+03,112 S1.35e+03,105 1.35e+03,104 S1.35e+03,98.5 1.35e+03,97.7 S1.35e+03,96.3 1.35e+03,96.1 S1.36e+03,96.6 1.36e+03,96.1 S1.36e+03,92 1.36e+03,91.4 S1.36e+03,90 1.36e+03,89.8 S1.36e+03,89.7 1.36e+03,89.8 S1.36e+03,91.2 1.36e+03,91.4 S1.36e+03,92 1.36e+03,91.4 S1.36e+03,86.7 1.36e+03,85.1 S1.36e+03,77.1 1.36e+03,75.7 S1.36e+03,71.7 1.36e+03,70.9 S1.36e+03,68.3 1.36e+03,67.8 S1.36e+03,66.7 1.36e+03,66.2 S1.36e+03,63.4 1.37e+03,63.1 S1.37e+03,63.1 1.37e+03,63.1 S1.37e+03,62.8 1.37e+03,63.1 S1.37e+03,65.8 1.37e+03,66.2 S1.37e+03,67.8 1.37e+03,67.8 S1.37e+03,66.5 1.37e+03,66.2 S1.37e+03,64.8 1.37e+03,64.7 S1.37e+03,65 1.37e+03,64.7 S1.37e+03,62 1.37e+03,61.5 S1.37e+03,59.9 1.37e+03,59.9 S1.37e+03,61 1.37e+03,61.5 S1.37e+03,64 1.37e+03,64.7 S1.38e+03,67.5 1.38e+03,67.8 S1.38e+03,67.8 1.38e+03,67.8 S1.38e+03,67.8 1.38e+03,67.8 S1.38e+03,67.6 1.38e+03,67.8 S1.38e+03,69.1 1.38e+03,69.4 S1.38e+03,70.5 1.38e+03,70.9 S1.38e+03,73.5 1.38e+03,74.1 S1.38e+03,76.6 1.38e+03,77.2 S1.38e+03,79.8 1.38e+03,80.4 S1.38e+03,82.9 1.38e+03,83.5 S1.38e+03,86.2 1.38e+03,86.7 S1.39e+03,87.8 1.39e+03,88.2 S1.39e+03,90.8 1.39e+03,91.4 S1.39e+03,94.1 1.39e+03,94.5 S1.39e+03,95.6 1.39e+03,96.1 S1.39e+03,98.6 1.39e+03,99.3 S1.39e+03,102 1.39e+03,102 S1.39e+03,104 1.39e+03,104 S1.39e+03,105 1.39e+03,106 S1.39e+03,109 1.39e+03,109 S1.39e+03,106 1.39e+03,106 S1.39e+03,101 1.39e+03,99.3 S1.39e+03,92.8 1.39e+03,91.4 S1.4e+03,86.4 1.4e+03,85.1 S1.4e+03,79.8 1.4e+03,78.8 S1.4e+03,76.1 1.4e+03,75.7 S1.4e+03,73.9 1.4e+03,74.1 S1.4e+03,76.6 1.4e+03,77.2 S1.4e+03,79.6 1.4e+03,80.4 S1.4e+03,84.2 1.4e+03,85.1 S1.4e+03,89 1.4e+03,89.8 S1.4e+03,92.2 1.4e+03,93 S1.4e+03,96.9 1.4e+03,97.7 S1.4e+03,100 1.4e+03,101 S1.41e+03,104 1.41e+03,104 S1.41e+03,99.6 1.41e+03,97.7 S1.41e+03,87.1 1.41e+03,85.1 S1.41e+03,78.7 1.41e+03,77.2 S1.41e+03,72.2 1.41e+03,70.9 S1.41e+03,65.6 1.41e+03,64.7 S1.41e+03,62 1.41e+03,61.5 S1.41e+03,60.7 1.41e+03,59.9 S1.41e+03,54.8 1.41e+03,53.7 S1.41e+03,49.7 1.41e+03,48.9 S1.41e+03,46.3 1.41e+03,45.8 S1.41e+03,44.4 1.42e+03,44.2 S1.42e+03,44.2 1.42e+03,44.2 S1.42e+03,44.2 1.42e+03,44.2 S1.42e+03,44.2 1.42e+03,44.2 S1.42e+03,44.2 1.42e+03,44.2 S1.42e+03,44.1 1.42e+03,44.2 S1.42e+03,45.3 1.42e+03,45.8 S1.42e+03,48.1 1.42e+03,48.9 S1.42e+03,52.7 1.42e+03,53.7 S1.42e+03,57.4 1.42e+03,58.4 S1.42e+03,62.1 1.42e+03,63.1 S1.42e+03,66.9 1.42e+03,67.8 S1.43e+03,71.6 1.43e+03,72.5 S1.43e+03,76.3 1.43e+03,77.2 S1.43e+03,81.2 1.43e+03,82 S1.43e+03,84.5 1.43e+03,85.1 S1.43e+03,87.6 1.43e+03,88.2 S1.43e+03,90.8 1.43e+03,91.4 S1.43e+03,93.9 1.43e+03,94.5 S1.43e+03,97.2 1.43e+03,97.7 S1.43e+03,98.8 1.43e+03,99.3 S1.43e+03,102 1.43e+03,102 S1.43e+03,104 1.43e+03,104 S1.43e+03,105 1.44e+03,104 S1.44e+03,99.1 1.44e+03,97.7 S1.44e+03,91.1 1.44e+03,89.8 S1.44e+03,85.7 1.44e+03,85.1 S1.44e+03,84 1.44e+03,83.5 S1.44e+03,81 1.44e+03,80.4 S1.44e+03,77.6 1.44e+03,77.2 S1.44e+03,77.1 1.44e+03,77.2 S1.44e+03,78.7 1.44e+03,78.8 S1.44e+03,78.8 1.44e+03,78.8 S1.44e+03,79 1.44e+03,78.8 S1.44e+03,77.6 1.44e+03,77.2 S1.45e+03,76.3 1.45e+03,75.7 S1.45e+03,71.7 1.45e+03,70.9 S1.45e+03,68.1 1.45e+03,67.8 S1.45e+03,68 1.45e+03,67.8 S1.45e+03,66.2 1.45e+03,66.2 S1.45e+03,67.5 1.45e+03,67.8 S1.45e+03,69.5 1.45e+03,69.4 S1.45e+03,66.9 1.45e+03,66.2 S1.45e+03,63.7 1.45e+03,63.1 S1.45e+03,59.9 1.45e+03,59.9 S1.45e+03,62.5 1.45e+03,63.1 S1.46e+03,65.6 1.46e+03,66.2 S1.46e+03,68.9 1.46e+03,69.4 S1.46e+03,70.8 1.46e+03,70.9 S1.46e+03,70.9 1.46e+03,70.9 S1.46e+03,70.9 1.46e+03,70.9 S1.46e+03,71.1 1.46e+03,70.9 S1.46e+03,69.5 1.46e+03,69.4 S1.46e+03,69.4 1.46e+03,69.4 S1.46e+03,69.2 1.46e+03,69.4 S1.46e+03,70.3 1.46e+03,70.9 S1.46e+03,74.7 1.46e+03,75.7 S1.46e+03,79.6 1.46e+03,80.4 S1.47e+03,82.7 1.47e+03,83.5 S1.47e+03,87.3 1.47e+03,88.2 S1.47e+03,92.2 1.47e+03,93 S1.47e+03,95.5 1.47e+03,96.1 S1.47e+03,98.5 1.47e+03,99.3 S1.47e+03,103 1.47e+03,104 S1.47e+03,105 1.47e+03,106 S1.47e+03,108 1.47e+03,109 S1.47e+03,111 1.47e+03,112 S1.47e+03,115 1.47e+03,115 S1.47e+03,116 1.47e+03,117 S1.48e+03,119 1.48e+03,120 S1.48e+03,121 1.48e+03,121 S1.48e+03,120 1.48e+03,120 S1.48e+03,115 1.48e+03,113 S1.48e+03,107 1.48e+03,106 S1.48e+03,99.3 1.48e+03,97.7 S1.48e+03,91.1 1.48e+03,89.8 S1.48e+03,85.9 1.48e+03,85.1 S1.48e+03,82.4 1.48e+03,82 S1.48e+03,81.3 1.48e+03,80.4 S1.48e+03,73.9 1.48e+03,72.5 S1.48e+03,66.9 1.49e+03,66.2 S1.49e+03,66.1 1.49e+03,66.2 S1.49e+03,67.5 1.49e+03,67.8 S1.49e+03,69.4 1.49e+03,69.4 S1.49e+03,68.1 1.49e+03,67.8 S1.49e+03,66.4 1.49e+03,66.2 S1.49e+03,66.2 1.49e+03,66.2 S1.49e+03,66.2 1.49e+03,66.2 S1.49e+03,66.2 1.49e+03,66.2 S1.49e+03,66.5 1.49e+03,66.2 S1.49e+03,63.7 1.49e+03,63.1 S1.49e+03,60.4 1.49e+03,59.9 S1.5e+03,58.8 1.5e+03,58.4 S1.5e+03,55.9 1.5e+03,55.2 S1.5e+03,52.2 1.5e+03,52.1 S1.5e+03,53.3 1.5e+03,53.7 S1.5e+03,55.2 1.5e+03,55.2 S1.5e+03,54 1.5e+03,53.7 S1.5e+03,52.9 1.5e+03,52.1 S1.5e+03,46.7 1.5e+03,45.8 S1.5e+03,43.1 1.5e+03,42.6 S1.5e+03,41.4 1.5e+03,41.1 S1.5e+03,39.5 1.5e+03,39.5 S1.51e+03,40.4 1.51e+03,41.1 S1.51e+03,44.7 1.51e+03,45.8 S1.51e+03,51 1.51e+03,52.1 S1.51e+03,55.7 1.51e+03,56.8 S1.51e+03,62 1.51e+03,63.1 S1.51e+03,66.9 1.51e+03,67.8 S1.51e+03,71.6 1.51e+03,72.5 S1.51e+03,76.3 1.51e+03,77.2 S1.51e+03,81.2 1.51e+03,82 S1.51e+03,84.3 1.51e+03,85.1 S1.51e+03,89 1.51e+03,89.8 S1.51e+03,92.3 1.51e+03,93 S1.52e+03,95.5 1.52e+03,96.1 S1.52e+03,98.6 1.52e+03,99.3 S1.52e+03,102 1.52e+03,102 S1.52e+03,105 1.52e+03,106 S1.52e+03,105 1.52e+03,104 S1.52e+03,98.9 1.52e+03,97.7 S1.52e+03,92.7 1.52e+03,91.4 S1.52e+03,86.2 1.52e+03,85.1 S1.52e+03,81.3 1.52e+03,80.4 S1.52e+03,76.9 1.52e+03,75.7 S1.52e+03,68.9 1.52e+03,67.8 S1.53e+03,65 1.53e+03,64.7 S1.53e+03,64.5 1.53e+03,64.7 S1.53e+03,66.1 1.53e+03,66.2 S1.53e+03,66.5 1.53e+03,66.2 S1.53e+03,63.9 1.53e+03,63.1 S1.53e+03,58.7 1.53e+03,58.4 S1.53e+03,59.5 1.53e+03,59.9 S1.53e+03,62.3 1.53e+03,63.1 S1.53e+03,66.9 1.53e+03,67.8 S1.53e+03,71.6 1.53e+03,72.5 S1.53e+03,76.1 1.53e+03,77.2 S1.53e+03,82.6 1.53e+03,83.5 S1.54e+03,86.4 1.54e+03,86.7 S1.54e+03,86.8 1.54e+03,86.7 S1.54e+03,86.4 1.54e+03,85.1 S1.54e+03,76.5 1.54e+03,74.1 S1.54e+03,63.6 1.54e+03,61.5 S1.54e+03,54.8 1.54e+03,53.7 S1.54e+03,51 1.54e+03,50.5 S1.54e+03,49.2 1.54e+03,48.9 S1.54e+03,47.7 1.54e+03,47.4 S1.54e+03,45.9 1.54e+03,45.8 S1.54e+03,45.9 1.54e+03,45.8 S1.55e+03,44.5 1.55e+03,44.2 S1.55e+03,42.5 1.55e+03,42.6 S1.55e+03,45 1.55e+03,45.8 S1.55e+03,49.4 1.55e+03,50.5 S1.55e+03,55.7 1.55e+03,56.8 S1.55e+03,60.4 1.55e+03,61.5 S1.55e+03,66.5 1.55e+03,67.8 S1.55e+03,73 1.55e+03,74.1 S1.55e+03,77.9 1.55e+03,78.8 S1.55e+03,82.6 1.55e+03,83.5 S1.55e+03,87.5 1.55e+03,88.2 S1.55e+03,90.6 1.56e+03,91.4 S1.56e+03,95.3 1.56e+03,96.1 S1.56e+03,98.6 1.56e+03,99.3 S1.56e+03,102 1.56e+03,102 S1.56e+03,105 1.56e+03,106 S1.56e+03,108 1.56e+03,109 S1.56e+03,110 1.56e+03,110 S1.56e+03,109 1.56e+03,109 S1.56e+03,105 1.56e+03,104 S1.56e+03,96.1 1.56e+03,94.5 S1.56e+03,89 1.56e+03,88.2 S1.56e+03,87 1.56e+03,86.7 S1.57e+03,85.7 1.57e+03,85.1 S1.57e+03,81.2 1.57e+03,80.4 S1.57e+03,78 1.57e+03,77.2 S1.57e+03,73.5 1.57e+03,72.5 S1.57e+03,68.6 1.57e+03,67.8 S1.57e+03,65.3 1.57e+03,64.7 S1.57e+03,62.1 1.57e+03,61.5 S1.57e+03,59 1.57e+03,58.4 S1.57e+03,55.7 1.57e+03,55.2 S1.57e+03,53.3 1.57e+03,53.7 S1.57e+03,57.6 1.57e+03,58.4 S1.58e+03,62.5 1.58e+03,61.5 S1.58e+03,51.3 1.58e+03,48.9 S1.58e+03,36.8 1.58e+03,37.9 " fill="none"/>
</g>
</g>
	<g id="plotPoints" clip-path="url(#plot_window)">
	<g stroke="rgb(0,0,255)" fill="rgb(255,255,255)" font-size="14" font-family="Lucida Sans Unicode" text-anchor="middle">
	<circle cx="101" cy="279" r="1"/>
	<circle cx="102" cy="277" r="1"/>
	<circle cx="103" cy="288" r="1"/>
	<circle cx="104" cy="301" r="1"/>
	<circle cx="105" cy="319" r="1"/>
	<circle cx="106" cy="315" r="1"/>
	<circle cx="107" cy="332" r="1"/>
	<circle cx="108" cy="337" r="1"/>
	<circle cx="108" cy="340" r="1"/>
	<circle cx="109" cy="346" r="1"/>
	<circle cx="112" cy="340" r="1"/>
	<circle cx="113" cy="323" r="1"/>
	<circle cx="114" cy="315" r="1"/>
	<circle cx="115" cy="310" r="1"/>
	<circle cx="115" cy="310" r="1"/>
	<circle cx="116" cy="307" r="1"/>
	<circle cx="117" cy="310" r="1"/>
	<circle cx="118" cy="308" r="1"/>
	<circle cx="119" cy="299" r="1"/>
	<circle cx="120" cy="305" r="1"/>
	<circle cx="121" cy="307" r="1"/>
	<circle cx="122" cy="313" r="1"/>
	<circle cx="122" cy="319" r="1"/>
	<circle cx="123" cy="313" r="1"/>
	<circle cx="124" cy="327" r="1"/>
	<circle cx="125" cy="335" r="1"/>
	<circle cx="126" cy="334" r="1"/>
	<circle cx="127" cy="340" r="1"/>
	<circle cx="128" cy="345" r="1"/>
	<circle cx="129" cy="345" r="1"/>
	<circle cx="129" cy="340" r="1"/>
	<circle cx="130" cy="334" r="1"/>
	<circle cx="131" cy="332" r="1"/>
	<circle cx="132" cy="341" r="1"/>
	<circle cx="133" cy="343" r="1"/>
	<circle cx="134" cy="334" r="1"/>
	<circle cx="135" cy="335" r="1"/>
	<circle cx="136" cy="312" r="1"/>
	<circle cx="136" cy="271" r="1"/>
	<circle cx="137" cy="252" r="1"/>
	<circle cx="138" cy="247" r="1"/>
	<circle cx="139" cy="239" r="1"/>
	<circle cx="140" cy="230" r="1"/>
	<circle cx="141" cy="230" r="1"/>
	<circle cx="142" cy="268" r="1"/>
	<circle cx="143" cy="279" r="1"/>
	<circle cx="143" cy="290" r="1"/>
	<circle cx="144" cy="288" r="1"/>
	<circle cx="145" cy="302" r="1"/>
	<circle cx="146" cy="323" r="1"/>
	<circle cx="147" cy="332" r="1"/>
	<circle cx="148" cy="337" r="1"/>
	<circle cx="149" cy="341" r="1"/>
	<circle cx="150" cy="348" r="1"/>
	<circle cx="180" cy="346" r="1"/>
	<circle cx="181" cy="326" r="1"/>
	<circle cx="182" cy="312" r="1"/>
	<circle cx="183" cy="319" r="1"/>
	<circle cx="184" cy="327" r="1"/>
	<circle cx="185" cy="335" r="1"/>
	<circle cx="185" cy="332" r="1"/>
	<circle cx="186" cy="340" r="1"/>
	<circle cx="187" cy="348" r="1"/>
	<circle cx="265" cy="348" r="1"/>
	<circle cx="266" cy="323" r="1"/>
	<circle cx="267" cy="334" r="1"/>
	<circle cx="268" cy="348" r="1"/>
	<circle cx="270" cy="352" r="1"/>
	<circle cx="272" cy="352" r="1"/>
	<circle cx="273" cy="352" r="1"/>
	<circle cx="274" cy="348" r="1"/>
	<circle cx="275" cy="352" r="1"/>
	<circle cx="277" cy="348" r="1"/>
	<circle cx="294" cy="345" r="1"/>
	<circle cx="295" cy="332" r="1"/>
	<circle cx="296" cy="324" r="1"/>
	<circle cx="297" cy="327" r="1"/>
	<circle cx="298" cy="334" r="1"/>
	<circle cx="298" cy="338" r="1"/>
	<circle cx="299" cy="337" r="1"/>
	<circle cx="300" cy="335" r="1"/>
	<circle cx="301" cy="312" r="1"/>
	<circle cx="302" cy="319" r="1"/>
	<circle cx="303" cy="304" r="1"/>
	<circle cx="304" cy="310" r="1"/>
	<circle cx="305" cy="299" r="1"/>
	<circle cx="305" cy="247" r="1"/>
	<circle cx="306" cy="234" r="1"/>
	<circle cx="307" cy="212" r="1"/>
	<circle cx="308" cy="260" r="1"/>
	<circle cx="309" cy="252" r="1"/>
	<circle cx="310" cy="257" r="1"/>
	<circle cx="311" cy="263" r="1"/>
	<circle cx="312" cy="291" r="1"/>
	<circle cx="312" cy="304" r="1"/>
	<circle cx="313" cy="305" r="1"/>
	<circle cx="314" cy="308" r="1"/>
	<circle cx="315" cy="307" r="1"/>
	<circle cx="316" cy="313" r="1"/>
	<circle cx="317" cy="313" r="1"/>
	<circle cx="318" cy="316" r="1"/>
	<circle cx="319" cy="319" r="1"/>
	<circle cx="319" cy="324" r="1"/>
	<circle cx="320" cy="323" r="1"/>
	<circle cx="321" cy="321" r="1"/>
	<circle cx="322" cy="324" r="1"/>
	<circle cx="323" cy="327" r="1"/>
	<circle cx="324" cy="330" r="1"/>
	<circle cx="325" cy="330" r="1"/>
	<circle cx="326" cy="332" r="1"/>
	<circle cx="326" cy="334" r="1"/>
	<circle cx="327" cy="337" r="1"/>
	<circle cx="328" cy="341" r="1"/>
	<circle cx="329" cy="343" r="1"/>
	<circle cx="330" cy="345" r="1"/>
	<circle cx="331" cy="343" r="1"/>
	<circle cx="332" cy="345" r="1"/>
	<circle cx="347" cy="351" r="1"/>
	<circle cx="348" cy="343" r="1"/>
	<circle cx="349" cy="337" r="1"/>
	<circle cx="350" cy="335" r="1"/>
	<circle cx="351" cy="334" r="1"/>
	<circle cx="352" cy="332" r="1"/>
	<circle cx="353" cy="329" r="1"/>
	<circle cx="354" cy="332" r="1"/>
	<circle cx="354" cy="337" r="1"/>
	<circle cx="355" cy="338" r="1"/>
	<circle cx="356" cy="340" r="1"/>
	<circle cx="357" cy="345" r="1"/>
	<circle cx="358" cy="348" r="1"/>
	<circle cx="359" cy="346" r="1"/>
	<circle cx="360" cy="349" r="1"/>
	<circle cx="361" cy="352" r="1"/>
	<circle cx="361" cy="348" r="1"/>
	<circle cx="362" cy="348" r="1"/>
	<circle cx="363" cy="348" r="1"/>
	<circle cx="364" cy="352" r="1"/>
	<circle cx="365" cy="349" r="1"/>
	<circle cx="367" cy="352" r="1"/>
	<circle cx="368" cy="351" r="1"/>
	<circle cx="368" cy="351" r="1"/>
	<circle cx="369" cy="352" r="1"/>
	<circle cx="370" cy="352" r="1"/>
	<circle cx="371" cy="352" r="1"/>
	<circle cx="372" cy="351" r="1"/>
	<circle cx="375" cy="352" r="1"/>
	<circle cx="376" cy="352" r="1"/>
	<circle cx="382" cy="352" r="1"/>
	<circle cx="384" cy="351" r="1"/>
	<circle cx="385" cy="351" r="1"/>
	<circle cx="386" cy="351" r="1"/>
	<circle cx="387" cy="352" r="1"/>
	<circle cx="388" cy="349" r="1"/>
	<circle cx="389" cy="352" r="1"/>
	<circle cx="389" cy="343" r="1"/>
	<circle cx="390" cy="334" r="1"/>
	<circle cx="391" cy="321" r="1"/>
	<circle cx="392" cy="318" r="1"/>
	<circle cx="393" cy="304" r="1"/>
	<circle cx="394" cy="290" r="1"/>
	<circle cx="395" cy="282" r="1"/>
	<circle cx="396" cy="291" r="1"/>
	<circle cx="397" cy="294" r="1"/>
	<circle cx="397" cy="279" r="1"/>
	<circle cx="398" cy="312" r="1"/>
	<circle cx="399" cy="329" r="1"/>
	<circle cx="400" cy="343" r="1"/>
	<circle cx="412" cy="351" r="1"/>
	<circle cx="413" cy="351" r="1"/>
	<circle cx="414" cy="351" r="1"/>
	<circle cx="415" cy="315" r="1"/>
	<circle cx="416" cy="307" r="1"/>
	<circle cx="417" cy="313" r="1"/>
	<circle cx="418" cy="319" r="1"/>
	<circle cx="418" cy="318" r="1"/>
	<circle cx="419" cy="332" r="1"/>
	<circle cx="420" cy="329" r="1"/>
	<circle cx="421" cy="351" r="1"/>
	<circle cx="423" cy="351" r="1"/>
	<circle cx="424" cy="334" r="1"/>
	<circle cx="425" cy="329" r="1"/>
	<circle cx="425" cy="334" r="1"/>
	<circle cx="426" cy="330" r="1"/>
	<circle cx="427" cy="338" r="1"/>
	<circle cx="428" cy="337" r="1"/>
	<circle cx="429" cy="340" r="1"/>
	<circle cx="430" cy="332" r="1"/>
	<circle cx="431" cy="307" r="1"/>
	<circle cx="432" cy="285" r="1"/>
	<circle cx="432" cy="241" r="1"/>
	<circle cx="433" cy="252" r="1"/>
	<circle cx="434" cy="269" r="1"/>
	<circle cx="435" cy="280" r="1"/>
	<circle cx="436" cy="299" r="1"/>
	<circle cx="437" cy="291" r="1"/>
	<circle cx="438" cy="299" r="1"/>
	<circle cx="439" cy="290" r="1"/>
	<circle cx="439" cy="296" r="1"/>
	<circle cx="440" cy="319" r="1"/>
	<circle cx="441" cy="334" r="1"/>
	<circle cx="476" cy="330" r="1"/>
	<circle cx="477" cy="308" r="1"/>
	<circle cx="478" cy="341" r="1"/>
	<circle cx="481" cy="349" r="1"/>
	<circle cx="510" cy="352" r="1"/>
	<circle cx="511" cy="352" r="1"/>
	<circle cx="512" cy="351" r="1"/>
	<circle cx="513" cy="348" r="1"/>
	<circle cx="514" cy="346" r="1"/>
	<circle cx="515" cy="341" r="1"/>
	<circle cx="516" cy="340" r="1"/>
	<circle cx="516" cy="334" r="1"/>
	<circle cx="517" cy="330" r="1"/>
	<circle cx="518" cy="323" r="1"/>
	<circle cx="519" cy="324" r="1"/>
	<circle cx="520" cy="316" r="1"/>
	<circle cx="521" cy="318" r="1"/>
	<circle cx="522" cy="319" r="1"/>
	<circle cx="523" cy="318" r="1"/>
	<circle cx="523" cy="321" r="1"/>
	<circle cx="524" cy="326" r="1"/>
	<circle cx="525" cy="327" r="1"/>
	<circle cx="526" cy="329" r="1"/>
	<circle cx="527" cy="332" r="1"/>
	<circle cx="528" cy="329" r="1"/>
	<circle cx="529" cy="330" r="1"/>
	<circle cx="530" cy="332" r="1"/>
	<circle cx="530" cy="330" r="1"/>
	<circle cx="531" cy="332" r="1"/>
	<circle cx="532" cy="327" r="1"/>
	<circle cx="533" cy="329" r="1"/>
	<circle cx="534" cy="329" r="1"/>
	<circle cx="535" cy="330" r="1"/>
	<circle cx="536" cy="329" r="1"/>
	<circle cx="537" cy="332" r="1"/>
	<circle cx="537" cy="330" r="1"/>
	<circle cx="538" cy="327" r="1"/>
	<circle cx="539" cy="329" r="1"/>
	<circle cx="540" cy="329" r="1"/>
	<circle cx="541" cy="329" r="1"/>
	<circle cx="542" cy="327" r="1"/>
	<circle cx="543" cy="327" r="1"/>
	<circle cx="544" cy="327" r="1"/>
	<circle cx="545" cy="327" r="1"/>
	<circle cx="545" cy="329" r="1"/>
	<circle cx="546" cy="327" r="1"/>
	<circle cx="547" cy="327" r="1"/>
	<circle cx="548" cy="327" r="1"/>
	<circle cx="549" cy="329" r="1"/>
	<circle cx="550" cy="327" r="1"/>
	<circle cx="551" cy="327" r="1"/>
	<circle cx="552" cy="327" r="1"/>
	<circle cx="552" cy="326" r="1"/>
	<circle cx="553" cy="327" r="1"/>
	<circle cx="554" cy="327" r="1"/>
	<circle cx="555" cy="323" r="1"/>
	<circle cx="556" cy="324" r="1"/>
	<circle cx="557" cy="312" r="1"/>
	<circle cx="558" cy="307" r="1"/>
	<circle cx="559" cy="307" r="1"/>
	<circle cx="559" cy="301" r="1"/>
	<circle cx="560" cy="299" r="1"/>
	<circle cx="561" cy="297" r="1"/>
	<circle cx="562" cy="297" r="1"/>
	<circle cx="563" cy="294" r="1"/>
	<circle cx="564" cy="293" r="1"/>
	<circle cx="565" cy="291" r="1"/>
	<circle cx="566" cy="291" r="1"/>
	<circle cx="566" cy="290" r="1"/>
	<circle cx="567" cy="302" r="1"/>
	<circle cx="568" cy="310" r="1"/>
	<circle cx="569" cy="326" r="1"/>
	<circle cx="570" cy="324" r="1"/>
	<circle cx="571" cy="319" r="1"/>
	<circle cx="572" cy="318" r="1"/>
	<circle cx="573" cy="315" r="1"/>
	<circle cx="573" cy="319" r="1"/>
	<circle cx="574" cy="318" r="1"/>
	<circle cx="575" cy="318" r="1"/>
	<circle cx="576" cy="321" r="1"/>
	<circle cx="577" cy="323" r="1"/>
	<circle cx="578" cy="323" r="1"/>
	<circle cx="579" cy="321" r="1"/>
	<circle cx="580" cy="323" r="1"/>
	<circle cx="580" cy="323" r="1"/>
	<circle cx="581" cy="323" r="1"/>
	<circle cx="582" cy="321" r="1"/>
	<circle cx="583" cy="319" r="1"/>
	<circle cx="584" cy="319" r="1"/>
	<circle cx="585" cy="319" r="1"/>
	<circle cx="586" cy="323" r="1"/>
	<circle cx="587" cy="323" r="1"/>
	<circle cx="587" cy="326" r="1"/>
	<circle cx="588" cy="323" r="1"/>
	<circle cx="589" cy="323" r="1"/>
	<circle cx="590" cy="324" r="1"/>
	<circle cx="591" cy="326" r="1"/>
	<circle cx="592" cy="324" r="1"/>
	<circle cx="593" cy="324" r="1"/>
	<circle cx="594" cy="326" r="1"/>
	<circle cx="594" cy="326" r="1"/>
	<circle cx="595" cy="326" r="1"/>
	<circle cx="596" cy="327" r="1"/>
	<circle cx="597" cy="326" r="1"/>
	<circle cx="598" cy="323" r="1"/>
	<circle cx="599" cy="316" r="1"/>
	<circle cx="600" cy="304" r="1"/>
	<circle cx="601" cy="272" r="1"/>
	<circle cx="601" cy="286" r="1"/>
	<circle cx="602" cy="291" r="1"/>
	<circle cx="603" cy="297" r="1"/>
	<circle cx="604" cy="304" r="1"/>
	<circle cx="605" cy="305" r="1"/>
	<circle cx="606" cy="310" r="1"/>
	<circle cx="607" cy="316" r="1"/>
	<circle cx="608" cy="324" r="1"/>
	<circle cx="608" cy="329" r="1"/>
	<circle cx="609" cy="334" r="1"/>
	<circle cx="610" cy="338" r="1"/>
	<circle cx="611" cy="340" r="1"/>
	<circle cx="612" cy="341" r="1"/>
	<circle cx="614" cy="341" r="1"/>
	<circle cx="615" cy="343" r="1"/>
	<circle cx="615" cy="345" r="1"/>
	<circle cx="616" cy="346" r="1"/>
	<circle cx="617" cy="346" r="1"/>
	<circle cx="618" cy="346" r="1"/>
	<circle cx="619" cy="346" r="1"/>
	<circle cx="620" cy="349" r="1"/>
	<circle cx="643" cy="343" r="1"/>
	<circle cx="644" cy="319" r="1"/>
	<circle cx="645" cy="307" r="1"/>
	<circle cx="646" cy="308" r="1"/>
	<circle cx="647" cy="294" r="1"/>
	<circle cx="648" cy="291" r="1"/>
	<circle cx="649" cy="296" r="1"/>
	<circle cx="650" cy="291" r="1"/>
	<circle cx="650" cy="293" r="1"/>
	<circle cx="651" cy="299" r="1"/>
	<circle cx="652" cy="288" r="1"/>
	<circle cx="653" cy="286" r="1"/>
	<circle cx="654" cy="290" r="1"/>
	<circle cx="655" cy="286" r="1"/>
	<circle cx="656" cy="280" r="1"/>
	<circle cx="657" cy="274" r="1"/>
	<circle cx="657" cy="272" r="1"/>
	<circle cx="658" cy="277" r="1"/>
	<circle cx="659" cy="269" r="1"/>
	<circle cx="660" cy="269" r="1"/>
	<circle cx="661" cy="268" r="1"/>
	<circle cx="662" cy="263" r="1"/>
	<circle cx="663" cy="261" r="1"/>
	<circle cx="664" cy="255" r="1"/>
	<circle cx="664" cy="257" r="1"/>
	<circle cx="665" cy="260" r="1"/>
	<circle cx="666" cy="255" r="1"/>
	<circle cx="667" cy="253" r="1"/>
	<circle cx="668" cy="253" r="1"/>
	<circle cx="669" cy="252" r="1"/>
	<circle cx="670" cy="249" r="1"/>
	<circle cx="671" cy="247" r="1"/>
	<circle cx="671" cy="247" r="1"/>
	<circle cx="672" cy="247" r="1"/>
	<circle cx="673" cy="250" r="1"/>
	<circle cx="674" cy="250" r="1"/>
	<circle cx="675" cy="249" r="1"/>
	<circle cx="676" cy="250" r="1"/>
	<circle cx="677" cy="252" r="1"/>
	<circle cx="678" cy="255" r="1"/>
	<circle cx="678" cy="252" r="1"/>
	<circle cx="679" cy="245" r="1"/>
	<circle cx="680" cy="245" r="1"/>
	<circle cx="681" cy="239" r="1"/>
	<circle cx="682" cy="244" r="1"/>
	<circle cx="683" cy="241" r="1"/>
	<circle cx="684" cy="249" r="1"/>
	<circle cx="685" cy="249" r="1"/>
	<circle cx="686" cy="242" r="1"/>
	<circle cx="686" cy="242" r="1"/>
	<circle cx="687" cy="242" r="1"/>
	<circle cx="688" cy="238" r="1"/>
	<circle cx="689" cy="238" r="1"/>
	<circle cx="690" cy="236" r="1"/>
	<circle cx="691" cy="230" r="1"/>
	<circle cx="692" cy="227" r="1"/>
	<circle cx="693" cy="222" r="1"/>
	<circle cx="693" cy="220" r="1"/>
	<circle cx="694" cy="217" r="1"/>
	<circle cx="695" cy="212" r="1"/>
	<circle cx="696" cy="212" r="1"/>
	<circle cx="697" cy="212" r="1"/>
	<circle cx="698" cy="214" r="1"/>
	<circle cx="699" cy="216" r="1"/>
	<circle cx="700" cy="216" r="1"/>
	<circle cx="700" cy="216" r="1"/>
	<circle cx="701" cy="212" r="1"/>
	<circle cx="702" cy="211" r="1"/>
	<circle cx="703" cy="212" r="1"/>
	<circle cx="704" cy="208" r="1"/>
	<circle cx="705" cy="209" r="1"/>
	<circle cx="706" cy="209" r="1"/>
	<circle cx="707" cy="206" r="1"/>
	<circle cx="707" cy="205" r="1"/>
	<circle cx="708" cy="206" r="1"/>
	<circle cx="709" cy="205" r="1"/>
	<circle cx="710" cy="205" r="1"/>
	<circle cx="711" cy="201" r="1"/>
	<circle cx="712" cy="205" r="1"/>
	<circle cx="713" cy="203" r="1"/>
	<circle cx="714" cy="212" r="1"/>
	<circle cx="714" cy="222" r="1"/>
	<circle cx="715" cy="217" r="1"/>
	<circle cx="716" cy="222" r="1"/>
	<circle cx="717" cy="219" r="1"/>
	<circle cx="718" cy="222" r="1"/>
	<circle cx="719" cy="223" r="1"/>
	<circle cx="720" cy="228" r="1"/>
	<circle cx="721" cy="231" r="1"/>
	<circle cx="721" cy="230" r="1"/>
	<circle cx="722" cy="228" r="1"/>
	<circle cx="723" cy="227" r="1"/>
	<circle cx="724" cy="227" r="1"/>
	<circle cx="725" cy="230" r="1"/>
	<circle cx="726" cy="228" r="1"/>
	<circle cx="727" cy="228" r="1"/>
	<circle cx="728" cy="227" r="1"/>
	<circle cx="728" cy="227" r="1"/>
	<circle cx="729" cy="223" r="1"/>
	<circle cx="730" cy="225" r="1"/>
	<circle cx="731" cy="223" r="1"/>
	<circle cx="732" cy="227" r="1"/>
	<circle cx="733" cy="223" r="1"/>
	<circle cx="734" cy="230" r="1"/>
	<circle cx="735" cy="236" r="1"/>
	<circle cx="735" cy="236" r="1"/>
	<circle cx="736" cy="238" r="1"/>
	<circle cx="737" cy="242" r="1"/>
	<circle cx="738" cy="247" r="1"/>
	<circle cx="739" cy="247" r="1"/>
	<circle cx="740" cy="245" r="1"/>
	<circle cx="741" cy="249" r="1"/>
	<circle cx="742" cy="253" r="1"/>
	<circle cx="742" cy="252" r="1"/>
	<circle cx="743" cy="255" r="1"/>
	<circle cx="744" cy="253" r="1"/>
	<circle cx="745" cy="252" r="1"/>
	<circle cx="746" cy="252" r="1"/>
	<circle cx="747" cy="253" r="1"/>
	<circle cx="748" cy="252" r="1"/>
	<circle cx="749" cy="252" r="1"/>
	<circle cx="749" cy="252" r="1"/>
	<circle cx="750" cy="253" r="1"/>
	<circle cx="751" cy="253" r="1"/>
	<circle cx="752" cy="255" r="1"/>
	<circle cx="753" cy="253" r="1"/>
	<circle cx="754" cy="257" r="1"/>
	<circle cx="755" cy="260" r="1"/>
	<circle cx="756" cy="261" r="1"/>
	<circle cx="756" cy="264" r="1"/>
	<circle cx="757" cy="264" r="1"/>
	<circle cx="758" cy="266" r="1"/>
	<circle cx="759" cy="268" r="1"/>
	<circle cx="760" cy="271" r="1"/>
	<circle cx="761" cy="272" r="1"/>
	<circle cx="762" cy="274" r="1"/>
	<circle cx="763" cy="274" r="1"/>
	<circle cx="763" cy="275" r="1"/>
	<circle cx="764" cy="274" r="1"/>
	<circle cx="765" cy="272" r="1"/>
	<circle cx="766" cy="268" r="1"/>
	<circle cx="767" cy="264" r="1"/>
	<circle cx="768" cy="261" r="1"/>
	<circle cx="769" cy="258" r="1"/>
	<circle cx="770" cy="257" r="1"/>
	<circle cx="770" cy="257" r="1"/>
	<circle cx="771" cy="258" r="1"/>
	<circle cx="772" cy="253" r="1"/>
	<circle cx="773" cy="241" r="1"/>
	<circle cx="774" cy="247" r="1"/>
	<circle cx="775" cy="257" r="1"/>
	<circle cx="776" cy="261" r="1"/>
	<circle cx="777" cy="264" r="1"/>
	<circle cx="777" cy="268" r="1"/>
	<circle cx="778" cy="274" r="1"/>
	<circle cx="779" cy="282" r="1"/>
	<circle cx="780" cy="285" r="1"/>
	<circle cx="781" cy="285" r="1"/>
	<circle cx="782" cy="293" r="1"/>
	<circle cx="783" cy="301" r="1"/>
	<circle cx="784" cy="302" r="1"/>
	<circle cx="784" cy="299" r="1"/>
	<circle cx="785" cy="294" r="1"/>
	<circle cx="786" cy="296" r="1"/>
	<circle cx="787" cy="291" r="1"/>
	<circle cx="788" cy="293" r="1"/>
	<circle cx="789" cy="290" r="1"/>
	<circle cx="790" cy="291" r="1"/>
	<circle cx="791" cy="291" r="1"/>
	<circle cx="791" cy="294" r="1"/>
	<circle cx="792" cy="305" r="1"/>
	<circle cx="793" cy="307" r="1"/>
	<circle cx="794" cy="313" r="1"/>
	<circle cx="795" cy="312" r="1"/>
	<circle cx="796" cy="308" r="1"/>
	<circle cx="797" cy="305" r="1"/>
	<circle cx="798" cy="302" r="1"/>
	<circle cx="798" cy="302" r="1"/>
	<circle cx="799" cy="304" r="1"/>
	<circle cx="800" cy="304" r="1"/>
	<circle cx="801" cy="301" r="1"/>
	<circle cx="802" cy="301" r="1"/>
	<circle cx="803" cy="301" r="1"/>
	<circle cx="804" cy="297" r="1"/>
	<circle cx="805" cy="299" r="1"/>
	<circle cx="805" cy="301" r="1"/>
	<circle cx="806" cy="299" r="1"/>
	<circle cx="807" cy="297" r="1"/>
	<circle cx="808" cy="296" r="1"/>
	<circle cx="809" cy="296" r="1"/>
	<circle cx="810" cy="291" r="1"/>
	<circle cx="811" cy="288" r="1"/>
	<circle cx="812" cy="275" r="1"/>
	<circle cx="812" cy="268" r="1"/>
	<circle cx="813" cy="264" r="1"/>
	<circle cx="814" cy="268" r="1"/>
	<circle cx="815" cy="269" r="1"/>
	<circle cx="816" cy="271" r="1"/>
	<circle cx="817" cy="269" r="1"/>
	<circle cx="818" cy="271" r="1"/>
	<circle cx="819" cy="274" r="1"/>
	<circle cx="819" cy="275" r="1"/>
	<circle cx="820" cy="275" r="1"/>
	<circle cx="821" cy="274" r="1"/>
	<circle cx="822" cy="271" r="1"/>
	<circle cx="823" cy="271" r="1"/>
	<circle cx="824" cy="274" r="1"/>
	<circle cx="825" cy="282" r="1"/>
	<circle cx="826" cy="283" r="1"/>
	<circle cx="826" cy="283" r="1"/>
	<circle cx="827" cy="282" r="1"/>
	<circle cx="828" cy="277" r="1"/>
	<circle cx="829" cy="279" r="1"/>
	<circle cx="830" cy="277" r="1"/>
	<circle cx="831" cy="272" r="1"/>
	<circle cx="832" cy="271" r="1"/>
	<circle cx="833" cy="266" r="1"/>
	<circle cx="834" cy="264" r="1"/>
	<circle cx="834" cy="261" r="1"/>
	<circle cx="835" cy="257" r="1"/>
	<circle cx="836" cy="255" r="1"/>
	<circle cx="837" cy="255" r="1"/>
	<circle cx="838" cy="250" r="1"/>
	<circle cx="839" cy="247" r="1"/>
	<circle cx="840" cy="244" r="1"/>
	<circle cx="841" cy="241" r="1"/>
	<circle cx="841" cy="236" r="1"/>
	<circle cx="842" cy="233" r="1"/>
	<circle cx="843" cy="234" r="1"/>
	<circle cx="844" cy="233" r="1"/>
	<circle cx="845" cy="233" r="1"/>
	<circle cx="846" cy="231" r="1"/>
	<circle cx="847" cy="230" r="1"/>
	<circle cx="848" cy="228" r="1"/>
	<circle cx="848" cy="227" r="1"/>
	<circle cx="849" cy="228" r="1"/>
	<circle cx="850" cy="227" r="1"/>
	<circle cx="851" cy="228" r="1"/>
	<circle cx="852" cy="228" r="1"/>
	<circle cx="853" cy="223" r="1"/>
	<circle cx="854" cy="223" r="1"/>
	<circle cx="855" cy="223" r="1"/>
	<circle cx="855" cy="223" r="1"/>
	<circle cx="856" cy="225" r="1"/>
	<circle cx="857" cy="227" r="1"/>
	<circle cx="858" cy="225" r="1"/>
	<circle cx="859" cy="227" r="1"/>
	<circle cx="860" cy="227" r="1"/>
	<circle cx="861" cy="233" r="1"/>
	<circle cx="862" cy="228" r="1"/>
	<circle cx="862" cy="225" r="1"/>
	<circle cx="863" cy="225" r="1"/>
	<circle cx="864" cy="227" r="1"/>
	<circle cx="865" cy="234" r="1"/>
	<circle cx="866" cy="234" r="1"/>
	<circle cx="867" cy="238" r="1"/>
	<circle cx="868" cy="241" r="1"/>
	<circle cx="869" cy="241" r="1"/>
	<circle cx="869" cy="241" r="1"/>
	<circle cx="870" cy="239" r="1"/>
	<circle cx="871" cy="239" r="1"/>
	<circle cx="872" cy="236" r="1"/>
	<circle cx="873" cy="238" r="1"/>
	<circle cx="874" cy="238" r="1"/>
	<circle cx="875" cy="238" r="1"/>
	<circle cx="876" cy="238" r="1"/>
	<circle cx="876" cy="238" r="1"/>
	<circle cx="877" cy="239" r="1"/>
	<circle cx="878" cy="241" r="1"/>
	<circle cx="879" cy="245" r="1"/>
	<circle cx="880" cy="245" r="1"/>
	<circle cx="881" cy="252" r="1"/>
	<circle cx="882" cy="257" r="1"/>
	<circle cx="883" cy="258" r="1"/>
	<circle cx="883" cy="258" r="1"/>
	<circle cx="884" cy="255" r="1"/>
	<circle cx="885" cy="250" r="1"/>
	<circle cx="886" cy="249" r="1"/>
	<circle cx="887" cy="249" r="1"/>
	<circle cx="888" cy="244" r="1"/>
	<circle cx="889" cy="242" r="1"/>
	<circle cx="890" cy="244" r="1"/>
	<circle cx="890" cy="247" r="1"/>
	<circle cx="891" cy="245" r="1"/>
	<circle cx="892" cy="242" r="1"/>
	<circle cx="893" cy="234" r="1"/>
	<circle cx="894" cy="234" r="1"/>
	<circle cx="895" cy="216" r="1"/>
	<circle cx="896" cy="222" r="1"/>
	<circle cx="897" cy="222" r="1"/>
	<circle cx="897" cy="220" r="1"/>
	<circle cx="898" cy="214" r="1"/>
	<circle cx="899" cy="212" r="1"/>
	<circle cx="900" cy="219" r="1"/>
	<circle cx="901" cy="220" r="1"/>
	<circle cx="902" cy="223" r="1"/>
	<circle cx="903" cy="236" r="1"/>
	<circle cx="904" cy="241" r="1"/>
	<circle cx="904" cy="238" r="1"/>
	<circle cx="905" cy="239" r="1"/>
	<circle cx="906" cy="241" r="1"/>
	<circle cx="907" cy="238" r="1"/>
	<circle cx="908" cy="228" r="1"/>
	<circle cx="909" cy="228" r="1"/>
	<circle cx="910" cy="225" r="1"/>
	<circle cx="911" cy="230" r="1"/>
	<circle cx="911" cy="231" r="1"/>
	<circle cx="912" cy="231" r="1"/>
	<circle cx="913" cy="234" r="1"/>
	<circle cx="914" cy="227" r="1"/>
	<circle cx="915" cy="220" r="1"/>
	<circle cx="916" cy="220" r="1"/>
	<circle cx="917" cy="223" r="1"/>
	<circle cx="918" cy="222" r="1"/>
	<circle cx="918" cy="227" r="1"/>
	<circle cx="919" cy="228" r="1"/>
	<circle cx="920" cy="234" r="1"/>
	<circle cx="921" cy="233" r="1"/>
	<circle cx="922" cy="234" r="1"/>
	<circle cx="923" cy="227" r="1"/>
	<circle cx="924" cy="228" r="1"/>
	<circle cx="925" cy="225" r="1"/>
	<circle cx="925" cy="220" r="1"/>
	<circle cx="926" cy="223" r="1"/>
	<circle cx="927" cy="227" r="1"/>
	<circle cx="928" cy="231" r="1"/>
	<circle cx="929" cy="249" r="1"/>
	<circle cx="930" cy="250" r="1"/>
	<circle cx="931" cy="258" r="1"/>
	<circle cx="932" cy="260" r="1"/>
	<circle cx="932" cy="257" r="1"/>
	<circle cx="933" cy="258" r="1"/>
	<circle cx="934" cy="260" r="1"/>
	<circle cx="935" cy="257" r="1"/>
	<circle cx="936" cy="247" r="1"/>
	<circle cx="937" cy="223" r="1"/>
	<circle cx="938" cy="212" r="1"/>
	<circle cx="939" cy="208" r="1"/>
	<circle cx="939" cy="238" r="1"/>
	<circle cx="940" cy="225" r="1"/>
	<circle cx="941" cy="227" r="1"/>
	<circle cx="942" cy="236" r="1"/>
	<circle cx="943" cy="249" r="1"/>
	<circle cx="944" cy="245" r="1"/>
	<circle cx="945" cy="245" r="1"/>
	<circle cx="946" cy="247" r="1"/>
	<circle cx="946" cy="239" r="1"/>
	<circle cx="947" cy="238" r="1"/>
	<circle cx="948" cy="242" r="1"/>
	<circle cx="949" cy="245" r="1"/>
	<circle cx="950" cy="252" r="1"/>
	<circle cx="951" cy="250" r="1"/>
	<circle cx="952" cy="250" r="1"/>
	<circle cx="953" cy="252" r="1"/>
	<circle cx="953" cy="249" r="1"/>
	<circle cx="954" cy="244" r="1"/>
	<circle cx="955" cy="247" r="1"/>
	<circle cx="956" cy="247" r="1"/>
	<circle cx="957" cy="249" r="1"/>
	<circle cx="958" cy="253" r="1"/>
	<circle cx="959" cy="257" r="1"/>
	<circle cx="960" cy="261" r="1"/>
	<circle cx="960" cy="269" r="1"/>
	<circle cx="961" cy="272" r="1"/>
	<circle cx="962" cy="275" r="1"/>
	<circle cx="963" cy="272" r="1"/>
	<circle cx="964" cy="279" r="1"/>
	<circle cx="965" cy="297" r="1"/>
	<circle cx="966" cy="304" r="1"/>
	<circle cx="967" cy="301" r="1"/>
	<circle cx="967" cy="302" r="1"/>
	<circle cx="968" cy="308" r="1"/>
	<circle cx="969" cy="304" r="1"/>
	<circle cx="970" cy="296" r="1"/>
	<circle cx="971" cy="297" r="1"/>
	<circle cx="972" cy="302" r="1"/>
	<circle cx="973" cy="307" r="1"/>
	<circle cx="974" cy="305" r="1"/>
	<circle cx="974" cy="307" r="1"/>
	<circle cx="975" cy="302" r="1"/>
	<circle cx="976" cy="282" r="1"/>
	<circle cx="977" cy="294" r="1"/>
	<circle cx="978" cy="249" r="1"/>
	<circle cx="979" cy="277" r="1"/>
	<circle cx="980" cy="249" r="1"/>
	<circle cx="981" cy="255" r="1"/>
	<circle cx="982" cy="268" r="1"/>
	<circle cx="982" cy="264" r="1"/>
	<circle cx="983" cy="266" r="1"/>
	<circle cx="984" cy="263" r="1"/>
	<circle cx="985" cy="260" r="1"/>
	<circle cx="986" cy="275" r="1"/>
	<circle cx="987" cy="279" r="1"/>
	<circle cx="988" cy="283" r="1"/>
	<circle cx="989" cy="279" r="1"/>
	<circle cx="989" cy="279" r="1"/>
	<circle cx="990" cy="268" r="1"/>
	<circle cx="991" cy="266" r="1"/>
	<circle cx="992" cy="269" r="1"/>
	<circle cx="993" cy="269" r="1"/>
	<circle cx="994" cy="271" r="1"/>
	<circle cx="995" cy="274" r="1"/>
	<circle cx="996" cy="272" r="1"/>
	<circle cx="996" cy="275" r="1"/>
	<circle cx="997" cy="275" r="1"/>
	<circle cx="998" cy="277" r="1"/>
	<circle cx="999" cy="290" r="1"/>
	<circle cx="1e+03" cy="285" r="1"/>
	<circle cx="1e+03" cy="279" r="1"/>
	<circle cx="1e+03" cy="282" r="1"/>
	<circle cx="1e+03" cy="286" r="1"/>
	<circle cx="1e+03" cy="293" r="1"/>
	<circle cx="1e+03" cy="293" r="1"/>
	<circle cx="1.01e+03" cy="296" r="1"/>
	<circle cx="1.01e+03" cy="290" r="1"/>
	<circle cx="1.01e+03" cy="294" r="1"/>
	<circle cx="1.01e+03" cy="286" r="1"/>
	<circle cx="1.01e+03" cy="290" r="1"/>
	<circle cx="1.01e+03" cy="291" r="1"/>
	<circle cx="1.01e+03" cy="288" r="1"/>
	<circle cx="1.01e+03" cy="296" r="1"/>
	<circle cx="1.01e+03" cy="297" r="1"/>
	<circle cx="1.01e+03" cy="290" r="1"/>
	<circle cx="1.01e+03" cy="286" r="1"/>
	<circle cx="1.01e+03" cy="282" r="1"/>
	<circle cx="1.02e+03" cy="275" r="1"/>
	<circle cx="1.02e+03" cy="274" r="1"/>
	<circle cx="1.02e+03" cy="274" r="1"/>
	<circle cx="1.02e+03" cy="275" r="1"/>
	<circle cx="1.02e+03" cy="280" r="1"/>
	<circle cx="1.02e+03" cy="282" r="1"/>
	<circle cx="1.02e+03" cy="285" r="1"/>
	<circle cx="1.02e+03" cy="299" r="1"/>
	<circle cx="1.02e+03" cy="304" r="1"/>
	<circle cx="1.02e+03" cy="294" r="1"/>
	<circle cx="1.02e+03" cy="301" r="1"/>
	<circle cx="1.03e+03" cy="299" r="1"/>
	<circle cx="1.03e+03" cy="301" r="1"/>
	<circle cx="1.03e+03" cy="304" r="1"/>
	<circle cx="1.03e+03" cy="312" r="1"/>
	<circle cx="1.03e+03" cy="318" r="1"/>
	<circle cx="1.03e+03" cy="313" r="1"/>
	<circle cx="1.03e+03" cy="315" r="1"/>
	<circle cx="1.03e+03" cy="312" r="1"/>
	<circle cx="1.03e+03" cy="326" r="1"/>
	<circle cx="1.03e+03" cy="319" r="1"/>
	<circle cx="1.03e+03" cy="319" r="1"/>
	<circle cx="1.03e+03" cy="321" r="1"/>
	<circle cx="1.04e+03" cy="332" r="1"/>
	<circle cx="1.04e+03" cy="335" r="1"/>
	<circle cx="1.04e+03" cy="327" r="1"/>
	<circle cx="1.04e+03" cy="334" r="1"/>
	<circle cx="1.04e+03" cy="308" r="1"/>
	<circle cx="1.04e+03" cy="319" r="1"/>
	<circle cx="1.04e+03" cy="323" r="1"/>
	<circle cx="1.04e+03" cy="330" r="1"/>
	<circle cx="1.04e+03" cy="313" r="1"/>
	<circle cx="1.04e+03" cy="302" r="1"/>
	<circle cx="1.04e+03" cy="301" r="1"/>
	<circle cx="1.05e+03" cy="293" r="1"/>
	<circle cx="1.05e+03" cy="282" r="1"/>
	<circle cx="1.05e+03" cy="279" r="1"/>
	<circle cx="1.05e+03" cy="272" r="1"/>
	<circle cx="1.05e+03" cy="272" r="1"/>
	<circle cx="1.05e+03" cy="274" r="1"/>
	<circle cx="1.05e+03" cy="279" r="1"/>
	<circle cx="1.05e+03" cy="283" r="1"/>
	<circle cx="1.05e+03" cy="285" r="1"/>
	<circle cx="1.05e+03" cy="293" r="1"/>
	<circle cx="1.05e+03" cy="291" r="1"/>
	<circle cx="1.06e+03" cy="286" r="1"/>
	<circle cx="1.06e+03" cy="286" r="1"/>
	<circle cx="1.06e+03" cy="290" r="1"/>
	<circle cx="1.06e+03" cy="291" r="1"/>
	<circle cx="1.06e+03" cy="290" r="1"/>
	<circle cx="1.06e+03" cy="291" r="1"/>
	<circle cx="1.06e+03" cy="285" r="1"/>
	<circle cx="1.06e+03" cy="277" r="1"/>
	<circle cx="1.06e+03" cy="302" r="1"/>
	<circle cx="1.06e+03" cy="279" r="1"/>
	<circle cx="1.06e+03" cy="245" r="1"/>
	<circle cx="1.06e+03" cy="263" r="1"/>
	<circle cx="1.07e+03" cy="247" r="1"/>
	<circle cx="1.07e+03" cy="255" r="1"/>
	<circle cx="1.07e+03" cy="260" r="1"/>
	<circle cx="1.07e+03" cy="263" r="1"/>
	<circle cx="1.07e+03" cy="264" r="1"/>
	<circle cx="1.07e+03" cy="266" r="1"/>
	<circle cx="1.07e+03" cy="269" r="1"/>
	<circle cx="1.07e+03" cy="268" r="1"/>
	<circle cx="1.07e+03" cy="302" r="1"/>
	<circle cx="1.07e+03" cy="302" r="1"/>
	<circle cx="1.07e+03" cy="296" r="1"/>
	<circle cx="1.08e+03" cy="296" r="1"/>
	<circle cx="1.08e+03" cy="293" r="1"/>
	<circle cx="1.08e+03" cy="294" r="1"/>
	<circle cx="1.08e+03" cy="293" r="1"/>
	<circle cx="1.08e+03" cy="290" r="1"/>
	<circle cx="1.08e+03" cy="288" r="1"/>
	<circle cx="1.08e+03" cy="288" r="1"/>
	<circle cx="1.08e+03" cy="290" r="1"/>
	<circle cx="1.08e+03" cy="296" r="1"/>
	<circle cx="1.08e+03" cy="294" r="1"/>
	<circle cx="1.08e+03" cy="294" r="1"/>
	<circle cx="1.08e+03" cy="293" r="1"/>
	<circle cx="1.09e+03" cy="293" r="1"/>
	<circle cx="1.09e+03" cy="293" r="1"/>
	<circle cx="1.09e+03" cy="293" r="1"/>
	<circle cx="1.09e+03" cy="296" r="1"/>
	<circle cx="1.09e+03" cy="297" r="1"/>
	<circle cx="1.09e+03" cy="301" r="1"/>
	<circle cx="1.09e+03" cy="302" r="1"/>
	<circle cx="1.09e+03" cy="308" r="1"/>
	<circle cx="1.09e+03" cy="310" r="1"/>
	<circle cx="1.09e+03" cy="313" r="1"/>
	<circle cx="1.09e+03" cy="319" r="1"/>
	<circle cx="1.1e+03" cy="324" r="1"/>
	<circle cx="1.1e+03" cy="330" r="1"/>
	<circle cx="1.1e+03" cy="337" r="1"/>
	<circle cx="1.1e+03" cy="338" r="1"/>
	<circle cx="1.1e+03" cy="345" r="1"/>
	<circle cx="1.1e+03" cy="341" r="1"/>
	<circle cx="1.1e+03" cy="340" r="1"/>
	<circle cx="1.1e+03" cy="335" r="1"/>
	<circle cx="1.1e+03" cy="305" r="1"/>
	<circle cx="1.1e+03" cy="272" r="1"/>
	<circle cx="1.1e+03" cy="268" r="1"/>
	<circle cx="1.1e+03" cy="279" r="1"/>
	<circle cx="1.11e+03" cy="280" r="1"/>
	<circle cx="1.11e+03" cy="249" r="1"/>
	<circle cx="1.11e+03" cy="258" r="1"/>
	<circle cx="1.11e+03" cy="266" r="1"/>
	<circle cx="1.11e+03" cy="269" r="1"/>
	<circle cx="1.11e+03" cy="274" r="1"/>
	<circle cx="1.11e+03" cy="277" r="1"/>
	<circle cx="1.11e+03" cy="280" r="1"/>
	<circle cx="1.11e+03" cy="283" r="1"/>
	<circle cx="1.11e+03" cy="283" r="1"/>
	<circle cx="1.11e+03" cy="286" r="1"/>
	<circle cx="1.12e+03" cy="288" r="1"/>
	<circle cx="1.12e+03" cy="286" r="1"/>
	<circle cx="1.12e+03" cy="288" r="1"/>
	<circle cx="1.12e+03" cy="293" r="1"/>
	<circle cx="1.12e+03" cy="297" r="1"/>
	<circle cx="1.12e+03" cy="299" r="1"/>
	<circle cx="1.12e+03" cy="304" r="1"/>
	<circle cx="1.12e+03" cy="305" r="1"/>
	<circle cx="1.12e+03" cy="305" r="1"/>
	<circle cx="1.12e+03" cy="299" r="1"/>
	<circle cx="1.12e+03" cy="293" r="1"/>
	<circle cx="1.13e+03" cy="283" r="1"/>
	<circle cx="1.13e+03" cy="277" r="1"/>
	<circle cx="1.13e+03" cy="271" r="1"/>
	<circle cx="1.13e+03" cy="269" r="1"/>
	<circle cx="1.13e+03" cy="269" r="1"/>
	<circle cx="1.13e+03" cy="266" r="1"/>
	<circle cx="1.13e+03" cy="263" r="1"/>
	<circle cx="1.13e+03" cy="260" r="1"/>
	<circle cx="1.13e+03" cy="257" r="1"/>
	<circle cx="1.13e+03" cy="253" r="1"/>
	<circle cx="1.13e+03" cy="247" r="1"/>
	<circle cx="1.13e+03" cy="247" r="1"/>
	<circle cx="1.14e+03" cy="244" r="1"/>
	<circle cx="1.14e+03" cy="236" r="1"/>
	<circle cx="1.14e+03" cy="227" r="1"/>
	<circle cx="1.14e+03" cy="222" r="1"/>
	<circle cx="1.14e+03" cy="219" r="1"/>
	<circle cx="1.14e+03" cy="217" r="1"/>
	<circle cx="1.14e+03" cy="227" r="1"/>
	<circle cx="1.14e+03" cy="234" r="1"/>
	<circle cx="1.14e+03" cy="242" r="1"/>
	<circle cx="1.14e+03" cy="241" r="1"/>
	<circle cx="1.14e+03" cy="241" r="1"/>
	<circle cx="1.15e+03" cy="239" r="1"/>
	<circle cx="1.15e+03" cy="241" r="1"/>
	<circle cx="1.15e+03" cy="236" r="1"/>
	<circle cx="1.15e+03" cy="227" r="1"/>
	<circle cx="1.15e+03" cy="211" r="1"/>
	<circle cx="1.15e+03" cy="223" r="1"/>
	<circle cx="1.15e+03" cy="230" r="1"/>
	<circle cx="1.15e+03" cy="236" r="1"/>
	<circle cx="1.15e+03" cy="244" r="1"/>
	<circle cx="1.15e+03" cy="234" r="1"/>
	<circle cx="1.15e+03" cy="242" r="1"/>
	<circle cx="1.15e+03" cy="252" r="1"/>
	<circle cx="1.16e+03" cy="260" r="1"/>
	<circle cx="1.16e+03" cy="272" r="1"/>
	<circle cx="1.16e+03" cy="271" r="1"/>
	<circle cx="1.16e+03" cy="272" r="1"/>
	<circle cx="1.16e+03" cy="286" r="1"/>
	<circle cx="1.16e+03" cy="288" r="1"/>
	<circle cx="1.16e+03" cy="288" r="1"/>
	<circle cx="1.16e+03" cy="291" r="1"/>
	<circle cx="1.16e+03" cy="288" r="1"/>
	<circle cx="1.16e+03" cy="283" r="1"/>
	<circle cx="1.16e+03" cy="282" r="1"/>
	<circle cx="1.17e+03" cy="288" r="1"/>
	<circle cx="1.17e+03" cy="291" r="1"/>
	<circle cx="1.17e+03" cy="293" r="1"/>
	<circle cx="1.17e+03" cy="299" r="1"/>
	<circle cx="1.17e+03" cy="304" r="1"/>
	<circle cx="1.17e+03" cy="308" r="1"/>
	<circle cx="1.17e+03" cy="312" r="1"/>
	<circle cx="1.17e+03" cy="316" r="1"/>
	<circle cx="1.17e+03" cy="323" r="1"/>
	<circle cx="1.17e+03" cy="326" r="1"/>
	<circle cx="1.17e+03" cy="326" r="1"/>
	<circle cx="1.18e+03" cy="324" r="1"/>
	<circle cx="1.18e+03" cy="318" r="1"/>
	<circle cx="1.18e+03" cy="318" r="1"/>
	<circle cx="1.18e+03" cy="319" r="1"/>
	<circle cx="1.18e+03" cy="316" r="1"/>
	<circle cx="1.18e+03" cy="313" r="1"/>
	<circle cx="1.18e+03" cy="316" r="1"/>
	<circle cx="1.18e+03" cy="316" r="1"/>
	<circle cx="1.18e+03" cy="316" r="1"/>
	<circle cx="1.18e+03" cy="315" r="1"/>
	<circle cx="1.18e+03" cy="315" r="1"/>
	<circle cx="1.18e+03" cy="313" r="1"/>
	<circle cx="1.19e+03" cy="318" r="1"/>
	<circle cx="1.19e+03" cy="326" r="1"/>
	<circle cx="1.19e+03" cy="327" r="1"/>
	<circle cx="1.19e+03" cy="308" r="1"/>
	<circle cx="1.19e+03" cy="225" r="1"/>
	<circle cx="1.19e+03" cy="257" r="1"/>
	<circle cx="1.19e+03" cy="238" r="1"/>
	<circle cx="1.19e+03" cy="247" r="1"/>
	<circle cx="1.19e+03" cy="268" r="1"/>
	<circle cx="1.19e+03" cy="263" r="1"/>
	<circle cx="1.19e+03" cy="263" r="1"/>
	<circle cx="1.2e+03" cy="272" r="1"/>
	<circle cx="1.2e+03" cy="280" r="1"/>
	<circle cx="1.2e+03" cy="288" r="1"/>
	<circle cx="1.2e+03" cy="286" r="1"/>
	<circle cx="1.2e+03" cy="288" r="1"/>
	<circle cx="1.2e+03" cy="290" r="1"/>
	<circle cx="1.2e+03" cy="282" r="1"/>
	<circle cx="1.2e+03" cy="277" r="1"/>
	<circle cx="1.2e+03" cy="283" r="1"/>
	<circle cx="1.2e+03" cy="277" r="1"/>
	<circle cx="1.2e+03" cy="277" r="1"/>
	<circle cx="1.2e+03" cy="279" r="1"/>
	<circle cx="1.21e+03" cy="282" r="1"/>
	<circle cx="1.21e+03" cy="293" r="1"/>
	<circle cx="1.21e+03" cy="313" r="1"/>
	<circle cx="1.21e+03" cy="321" r="1"/>
	<circle cx="1.21e+03" cy="318" r="1"/>
	<circle cx="1.21e+03" cy="319" r="1"/>
	<circle cx="1.21e+03" cy="324" r="1"/>
	<circle cx="1.21e+03" cy="334" r="1"/>
	<circle cx="1.21e+03" cy="323" r="1"/>
	<circle cx="1.21e+03" cy="318" r="1"/>
	<circle cx="1.21e+03" cy="327" r="1"/>
	<circle cx="1.22e+03" cy="334" r="1"/>
	<circle cx="1.22e+03" cy="351" r="1"/>
	<circle cx="1.22e+03" cy="330" r="1"/>
	<circle cx="1.22e+03" cy="348" r="1"/>
	<circle cx="1.22e+03" cy="337" r="1"/>
	<circle cx="1.22e+03" cy="343" r="1"/>
	<circle cx="1.22e+03" cy="345" r="1"/>
	<circle cx="1.22e+03" cy="341" r="1"/>
	<circle cx="1.22e+03" cy="340" r="1"/>
	<circle cx="1.22e+03" cy="348" r="1"/>
	<circle cx="1.22e+03" cy="343" r="1"/>
	<circle cx="1.22e+03" cy="338" r="1"/>
	<circle cx="1.23e+03" cy="345" r="1"/>
	<circle cx="1.23e+03" cy="346" r="1"/>
	<circle cx="1.23e+03" cy="337" r="1"/>
	<circle cx="1.23e+03" cy="318" r="1"/>
	<circle cx="1.23e+03" cy="293" r="1"/>
	<circle cx="1.23e+03" cy="263" r="1"/>
	<circle cx="1.23e+03" cy="257" r="1"/>
	<circle cx="1.23e+03" cy="258" r="1"/>
	<circle cx="1.23e+03" cy="244" r="1"/>
	<circle cx="1.24e+03" cy="239" r="1"/>
	<circle cx="1.24e+03" cy="249" r="1"/>
	<circle cx="1.24e+03" cy="242" r="1"/>
	<circle cx="1.24e+03" cy="253" r="1"/>
	<circle cx="1.24e+03" cy="260" r="1"/>
	<circle cx="1.24e+03" cy="271" r="1"/>
	<circle cx="1.24e+03" cy="282" r="1"/>
	<circle cx="1.24e+03" cy="294" r="1"/>
	<circle cx="1.24e+03" cy="297" r="1"/>
	<circle cx="1.24e+03" cy="312" r="1"/>
	<circle cx="1.24e+03" cy="308" r="1"/>
	<circle cx="1.25e+03" cy="318" r="1"/>
	<circle cx="1.25e+03" cy="312" r="1"/>
	<circle cx="1.25e+03" cy="315" r="1"/>
	<circle cx="1.25e+03" cy="316" r="1"/>
	<circle cx="1.25e+03" cy="308" r="1"/>
	<circle cx="1.25e+03" cy="304" r="1"/>
	<circle cx="1.25e+03" cy="302" r="1"/>
	<circle cx="1.25e+03" cy="296" r="1"/>
	<circle cx="1.25e+03" cy="290" r="1"/>
	<circle cx="1.25e+03" cy="285" r="1"/>
	<circle cx="1.25e+03" cy="286" r="1"/>
	<circle cx="1.25e+03" cy="297" r="1"/>
	<circle cx="1.26e+03" cy="313" r="1"/>
	<circle cx="1.26e+03" cy="305" r="1"/>
	<circle cx="1.26e+03" cy="307" r="1"/>
	<circle cx="1.26e+03" cy="299" r="1"/>
	<circle cx="1.26e+03" cy="282" r="1"/>
	<circle cx="1.26e+03" cy="274" r="1"/>
	<circle cx="1.26e+03" cy="272" r="1"/>
	<circle cx="1.26e+03" cy="268" r="1"/>
	<circle cx="1.26e+03" cy="264" r="1"/>
	<circle cx="1.26e+03" cy="257" r="1"/>
	<circle cx="1.26e+03" cy="241" r="1"/>
	<circle cx="1.27e+03" cy="242" r="1"/>
	<circle cx="1.27e+03" cy="241" r="1"/>
	<circle cx="1.27e+03" cy="245" r="1"/>
	<circle cx="1.27e+03" cy="257" r="1"/>
	<circle cx="1.27e+03" cy="252" r="1"/>
	<circle cx="1.27e+03" cy="252" r="1"/>
	<circle cx="1.27e+03" cy="257" r="1"/>
	<circle cx="1.27e+03" cy="234" r="1"/>
	<circle cx="1.27e+03" cy="219" r="1"/>
	<circle cx="1.27e+03" cy="212" r="1"/>
	<circle cx="1.27e+03" cy="220" r="1"/>
	<circle cx="1.27e+03" cy="212" r="1"/>
	<circle cx="1.28e+03" cy="233" r="1"/>
	<circle cx="1.28e+03" cy="233" r="1"/>
	<circle cx="1.28e+03" cy="228" r="1"/>
	<circle cx="1.28e+03" cy="209" r="1"/>
	<circle cx="1.28e+03" cy="209" r="1"/>
	<circle cx="1.28e+03" cy="219" r="1"/>
	<circle cx="1.28e+03" cy="231" r="1"/>
	<circle cx="1.28e+03" cy="241" r="1"/>
	<circle cx="1.28e+03" cy="250" r="1"/>
	<circle cx="1.28e+03" cy="260" r="1"/>
	<circle cx="1.28e+03" cy="274" r="1"/>
	<circle cx="1.29e+03" cy="283" r="1"/>
	<circle cx="1.29e+03" cy="275" r="1"/>
	<circle cx="1.29e+03" cy="274" r="1"/>
	<circle cx="1.29e+03" cy="277" r="1"/>
	<circle cx="1.29e+03" cy="280" r="1"/>
	<circle cx="1.29e+03" cy="288" r="1"/>
	<circle cx="1.29e+03" cy="272" r="1"/>
	<circle cx="1.29e+03" cy="274" r="1"/>
	<circle cx="1.29e+03" cy="272" r="1"/>
	<circle cx="1.29e+03" cy="288" r="1"/>
	<circle cx="1.29e+03" cy="294" r="1"/>
	<circle cx="1.3e+03" cy="296" r="1"/>
	<circle cx="1.3e+03" cy="290" r="1"/>
	<circle cx="1.3e+03" cy="299" r="1"/>
	<circle cx="1.3e+03" cy="305" r="1"/>
	<circle cx="1.3e+03" cy="304" r="1"/>
	<circle cx="1.3e+03" cy="312" r="1"/>
	<circle cx="1.3e+03" cy="310" r="1"/>
	<circle cx="1.3e+03" cy="316" r="1"/>
	<circle cx="1.3e+03" cy="315" r="1"/>
	<circle cx="1.3e+03" cy="323" r="1"/>
	<circle cx="1.3e+03" cy="312" r="1"/>
	<circle cx="1.3e+03" cy="310" r="1"/>
	<circle cx="1.31e+03" cy="316" r="1"/>
	<circle cx="1.31e+03" cy="316" r="1"/>
	<circle cx="1.31e+03" cy="305" r="1"/>
	<circle cx="1.31e+03" cy="301" r="1"/>
	<circle cx="1.31e+03" cy="299" r="1"/>
	<circle cx="1.31e+03" cy="301" r="1"/>
	<circle cx="1.31e+03" cy="299" r="1"/>
	<circle cx="1.31e+03" cy="282" r="1"/>
	<circle cx="1.31e+03" cy="290" r="1"/>
	<circle cx="1.31e+03" cy="220" r="1"/>
	<circle cx="1.31e+03" cy="239" r="1"/>
	<circle cx="1.32e+03" cy="239" r="1"/>
	<circle cx="1.32e+03" cy="223" r="1"/>
	<circle cx="1.32e+03" cy="228" r="1"/>
	<circle cx="1.32e+03" cy="233" r="1"/>
	<circle cx="1.32e+03" cy="236" r="1"/>
	<circle cx="1.32e+03" cy="241" r="1"/>
	<circle cx="1.32e+03" cy="241" r="1"/>
	<circle cx="1.32e+03" cy="242" r="1"/>
	<circle cx="1.32e+03" cy="249" r="1"/>
	<circle cx="1.32e+03" cy="255" r="1"/>
	<circle cx="1.32e+03" cy="258" r="1"/>
	<circle cx="1.32e+03" cy="261" r="1"/>
	<circle cx="1.33e+03" cy="263" r="1"/>
	<circle cx="1.33e+03" cy="264" r="1"/>
	<circle cx="1.33e+03" cy="268" r="1"/>
	<circle cx="1.33e+03" cy="268" r="1"/>
	<circle cx="1.33e+03" cy="268" r="1"/>
	<circle cx="1.33e+03" cy="268" r="1"/>
	<circle cx="1.33e+03" cy="266" r="1"/>
	<circle cx="1.33e+03" cy="268" r="1"/>
	<circle cx="1.33e+03" cy="266" r="1"/>
	<circle cx="1.33e+03" cy="264" r="1"/>
	<circle cx="1.33e+03" cy="268" r="1"/>
	<circle cx="1.34e+03" cy="269" r="1"/>
	<circle cx="1.34e+03" cy="272" r="1"/>
	<circle cx="1.34e+03" cy="269" r="1"/>
	<circle cx="1.34e+03" cy="271" r="1"/>
	<circle cx="1.34e+03" cy="269" r="1"/>
	<circle cx="1.34e+03" cy="272" r="1"/>
	<circle cx="1.34e+03" cy="280" r="1"/>
	<circle cx="1.34e+03" cy="290" r="1"/>
	<circle cx="1.34e+03" cy="293" r="1"/>
	<circle cx="1.34e+03" cy="299" r="1"/>
	<circle cx="1.34e+03" cy="301" r="1"/>
	<circle cx="1.34e+03" cy="307" r="1"/>
	<circle cx="1.35e+03" cy="310" r="1"/>
	<circle cx="1.35e+03" cy="315" r="1"/>
	<circle cx="1.35e+03" cy="312" r="1"/>
	<circle cx="1.35e+03" cy="310" r="1"/>
	<circle cx="1.35e+03" cy="315" r="1"/>
	<circle cx="1.35e+03" cy="312" r="1"/>
	<circle cx="1.35e+03" cy="315" r="1"/>
	<circle cx="1.35e+03" cy="312" r="1"/>
	<circle cx="1.35e+03" cy="307" r="1"/>
	<circle cx="1.35e+03" cy="304" r="1"/>
	<circle cx="1.35e+03" cy="293" r="1"/>
	<circle cx="1.36e+03" cy="286" r="1"/>
	<circle cx="1.36e+03" cy="282" r="1"/>
	<circle cx="1.36e+03" cy="277" r="1"/>
	<circle cx="1.36e+03" cy="272" r="1"/>
	<circle cx="1.36e+03" cy="271" r="1"/>
	<circle cx="1.36e+03" cy="266" r="1"/>
	<circle cx="1.36e+03" cy="263" r="1"/>
	<circle cx="1.36e+03" cy="263" r="1"/>
	<circle cx="1.36e+03" cy="261" r="1"/>
	<circle cx="1.36e+03" cy="258" r="1"/>
	<circle cx="1.36e+03" cy="260" r="1"/>
	<circle cx="1.37e+03" cy="261" r="1"/>
	<circle cx="1.37e+03" cy="263" r="1"/>
	<circle cx="1.37e+03" cy="263" r="1"/>
	<circle cx="1.37e+03" cy="264" r="1"/>
	<circle cx="1.37e+03" cy="266" r="1"/>
	<circle cx="1.37e+03" cy="263" r="1"/>
	<circle cx="1.37e+03" cy="258" r="1"/>
	<circle cx="1.37e+03" cy="257" r="1"/>
	<circle cx="1.37e+03" cy="257" r="1"/>
	<circle cx="1.37e+03" cy="255" r="1"/>
	<circle cx="1.37e+03" cy="257" r="1"/>
	<circle cx="1.37e+03" cy="257" r="1"/>
	<circle cx="1.38e+03" cy="257" r="1"/>
	<circle cx="1.38e+03" cy="258" r="1"/>
	<circle cx="1.38e+03" cy="258" r="1"/>
	<circle cx="1.38e+03" cy="258" r="1"/>
	<circle cx="1.38e+03" cy="258" r="1"/>
	<circle cx="1.38e+03" cy="258" r="1"/>
	<circle cx="1.38e+03" cy="258" r="1"/>
	<circle cx="1.38e+03" cy="258" r="1"/>
	<circle cx="1.38e+03" cy="260" r="1"/>
	<circle cx="1.38e+03" cy="261" r="1"/>
	<circle cx="1.38e+03" cy="263" r="1"/>
	<circle cx="1.39e+03" cy="264" r="1"/>
	<circle cx="1.39e+03" cy="263" r="1"/>
	<circle cx="1.39e+03" cy="268" r="1"/>
	<circle cx="1.39e+03" cy="271" r="1"/>
	<circle cx="1.39e+03" cy="275" r="1"/>
	<circle cx="1.39e+03" cy="280" r="1"/>
	<circle cx="1.39e+03" cy="279" r="1"/>
	<circle cx="1.39e+03" cy="282" r="1"/>
	<circle cx="1.39e+03" cy="280" r="1"/>
	<circle cx="1.39e+03" cy="282" r="1"/>
	<circle cx="1.39e+03" cy="291" r="1"/>
	<circle cx="1.39e+03" cy="293" r="1"/>
	<circle cx="1.4e+03" cy="297" r="1"/>
	<circle cx="1.4e+03" cy="285" r="1"/>
	<circle cx="1.4e+03" cy="282" r="1"/>
	<circle cx="1.4e+03" cy="280" r="1"/>
	<circle cx="1.4e+03" cy="264" r="1"/>
	<circle cx="1.4e+03" cy="269" r="1"/>
	<circle cx="1.4e+03" cy="258" r="1"/>
	<circle cx="1.4e+03" cy="234" r="1"/>
	<circle cx="1.4e+03" cy="241" r="1"/>
	<circle cx="1.4e+03" cy="245" r="1"/>
	<circle cx="1.4e+03" cy="245" r="1"/>
	<circle cx="1.41e+03" cy="244" r="1"/>
	<circle cx="1.41e+03" cy="249" r="1"/>
	<circle cx="1.41e+03" cy="257" r="1"/>
	<circle cx="1.41e+03" cy="261" r="1"/>
	<circle cx="1.41e+03" cy="268" r="1"/>
	<circle cx="1.41e+03" cy="272" r="1"/>
	<circle cx="1.41e+03" cy="271" r="1"/>
	<circle cx="1.41e+03" cy="272" r="1"/>
	<circle cx="1.41e+03" cy="277" r="1"/>
	<circle cx="1.41e+03" cy="282" r="1"/>
	<circle cx="1.41e+03" cy="290" r="1"/>
	<circle cx="1.42e+03" cy="296" r="1"/>
	<circle cx="1.42e+03" cy="294" r="1"/>
	<circle cx="1.42e+03" cy="297" r="1"/>
	<circle cx="1.42e+03" cy="308" r="1"/>
	<circle cx="1.42e+03" cy="310" r="1"/>
	<circle cx="1.42e+03" cy="315" r="1"/>
	<circle cx="1.42e+03" cy="323" r="1"/>
	<circle cx="1.42e+03" cy="321" r="1"/>
	<circle cx="1.42e+03" cy="330" r="1"/>
	<circle cx="1.42e+03" cy="326" r="1"/>
	<circle cx="1.42e+03" cy="321" r="1"/>
	<circle cx="1.42e+03" cy="316" r="1"/>
	<circle cx="1.43e+03" cy="318" r="1"/>
	<circle cx="1.43e+03" cy="315" r="1"/>
	<circle cx="1.43e+03" cy="305" r="1"/>
	<circle cx="1.43e+03" cy="305" r="1"/>
	<circle cx="1.43e+03" cy="293" r="1"/>
	<circle cx="1.43e+03" cy="266" r="1"/>
	<circle cx="1.43e+03" cy="260" r="1"/>
	<circle cx="1.43e+03" cy="258" r="1"/>
	<circle cx="1.43e+03" cy="255" r="1"/>
	<circle cx="1.43e+03" cy="252" r="1"/>
	<circle cx="1.43e+03" cy="250" r="1"/>
	<circle cx="1.44e+03" cy="250" r="1"/>
	<circle cx="1.44e+03" cy="252" r="1"/>
	<circle cx="1.44e+03" cy="250" r="1"/>
	<circle cx="1.44e+03" cy="250" r="1"/>
	<circle cx="1.44e+03" cy="249" r="1"/>
	<circle cx="1.44e+03" cy="247" r="1"/>
	<circle cx="1.44e+03" cy="242" r="1"/>
	<circle cx="1.44e+03" cy="239" r="1"/>
	<circle cx="1.44e+03" cy="236" r="1"/>
	<circle cx="1.44e+03" cy="227" r="1"/>
	<circle cx="1.44e+03" cy="231" r="1"/>
	<circle cx="1.44e+03" cy="230" r="1"/>
	<circle cx="1.45e+03" cy="225" r="1"/>
	<circle cx="1.45e+03" cy="234" r="1"/>
	<circle cx="1.45e+03" cy="247" r="1"/>
	<circle cx="1.45e+03" cy="249" r="1"/>
	<circle cx="1.45e+03" cy="264" r="1"/>
	<circle cx="1.45e+03" cy="277" r="1"/>
	<circle cx="1.45e+03" cy="293" r="1"/>
	<circle cx="1.45e+03" cy="305" r="1"/>
	<circle cx="1.45e+03" cy="308" r="1"/>
	<circle cx="1.45e+03" cy="316" r="1"/>
	<circle cx="1.45e+03" cy="323" r="1"/>
	<circle cx="1.46e+03" cy="327" r="1"/>
	<circle cx="1.46e+03" cy="323" r="1"/>
	<circle cx="1.46e+03" cy="310" r="1"/>
	<circle cx="1.46e+03" cy="296" r="1"/>
	<circle cx="1.46e+03" cy="291" r="1"/>
	<circle cx="1.46e+03" cy="293" r="1"/>
	<circle cx="1.46e+03" cy="288" r="1"/>
	<circle cx="1.46e+03" cy="285" r="1"/>
	<circle cx="1.46e+03" cy="291" r="1"/>
	<circle cx="1.46e+03" cy="291" r="1"/>
	<circle cx="1.46e+03" cy="291" r="1"/>
	<circle cx="1.46e+03" cy="294" r="1"/>
	<circle cx="1.47e+03" cy="288" r="1"/>
	<circle cx="1.47e+03" cy="280" r="1"/>
	<circle cx="1.47e+03" cy="279" r="1"/>
	<circle cx="1.47e+03" cy="280" r="1"/>
	<circle cx="1.47e+03" cy="279" r="1"/>
	<circle cx="1.47e+03" cy="286" r="1"/>
	<circle cx="1.47e+03" cy="294" r="1"/>
	<circle cx="1.47e+03" cy="296" r="1"/>
	<circle cx="1.47e+03" cy="291" r="1"/>
	<circle cx="1.47e+03" cy="290" r="1"/>
	<circle cx="1.47e+03" cy="288" r="1"/>
	<circle cx="1.48e+03" cy="283" r="1"/>
	<circle cx="1.48e+03" cy="285" r="1"/>
	<circle cx="1.48e+03" cy="283" r="1"/>
	<circle cx="1.48e+03" cy="275" r="1"/>
	<circle cx="1.48e+03" cy="277" r="1"/>
	<circle cx="1.48e+03" cy="285" r="1"/>
	<circle cx="1.48e+03" cy="286" r="1"/>
	<circle cx="1.48e+03" cy="283" r="1"/>
	<circle cx="1.48e+03" cy="288" r="1"/>
	<circle cx="1.48e+03" cy="283" r="1"/>
	<circle cx="1.48e+03" cy="283" r="1"/>
	<circle cx="1.49e+03" cy="279" r="1"/>
	<circle cx="1.49e+03" cy="277" r="1"/>
	<circle cx="1.49e+03" cy="271" r="1"/>
	<circle cx="1.49e+03" cy="263" r="1"/>
	<circle cx="1.49e+03" cy="261" r="1"/>
	<circle cx="1.49e+03" cy="253" r="1"/>
	<circle cx="1.49e+03" cy="250" r="1"/>
	<circle cx="1.49e+03" cy="253" r="1"/>
	<circle cx="1.49e+03" cy="250" r="1"/>
	<circle cx="1.49e+03" cy="249" r="1"/>
	<circle cx="1.49e+03" cy="242" r="1"/>
	<circle cx="1.49e+03" cy="244" r="1"/>
	<circle cx="1.5e+03" cy="245" r="1"/>
	<circle cx="1.5e+03" cy="250" r="1"/>
	<circle cx="1.5e+03" cy="249" r="1"/>
	<circle cx="1.5e+03" cy="250" r="1"/>
	<circle cx="1.5e+03" cy="250" r="1"/>
	<circle cx="1.5e+03" cy="252" r="1"/>
	<circle cx="1.5e+03" cy="250" r="1"/>
	<circle cx="1.5e+03" cy="247" r="1"/>
	<circle cx="1.5e+03" cy="249" r="1"/>
	<circle cx="1.5e+03" cy="250" r="1"/>
	<circle cx="1.5e+03" cy="263" r="1"/>
	<circle cx="1.51e+03" cy="268" r="1"/>
	<circle cx="1.51e+03" cy="272" r="1"/>
	<circle cx="1.51e+03" cy="275" r="1"/>
	<circle cx="1.51e+03" cy="283" r="1"/>
	<circle cx="1.51e+03" cy="283" r="1"/>
	<circle cx="1.51e+03" cy="279" r="1"/>
	<circle cx="1.51e+03" cy="280" r="1"/>
	<circle cx="1.51e+03" cy="275" r="1"/>
	<circle cx="1.51e+03" cy="269" r="1"/>
	<circle cx="1.51e+03" cy="266" r="1"/>
	<circle cx="1.51e+03" cy="263" r="1"/>
	<circle cx="1.51e+03" cy="263" r="1"/>
	<circle cx="1.52e+03" cy="258" r="1"/>
	<circle cx="1.52e+03" cy="261" r="1"/>
	<circle cx="1.52e+03" cy="266" r="1"/>
	<circle cx="1.52e+03" cy="261" r="1"/>
	<circle cx="1.52e+03" cy="258" r="1"/>
	<circle cx="1.52e+03" cy="258" r="1"/>
	<circle cx="1.52e+03" cy="263" r="1"/>
	<circle cx="1.52e+03" cy="261" r="1"/>
	<circle cx="1.52e+03" cy="255" r="1"/>
	<circle cx="1.52e+03" cy="249" r="1"/>
	<circle cx="1.52e+03" cy="242" r="1"/>
	<circle cx="1.53e+03" cy="239" r="1"/>
	<circle cx="1.53e+03" cy="242" r="1"/>
	<circle cx="1.53e+03" cy="231" r="1"/>
	<circle cx="1.53e+03" cy="228" r="1"/>
	<circle cx="1.53e+03" cy="211" r="1"/>
	<circle cx="1.53e+03" cy="206" r="1"/>
	<circle cx="1.53e+03" cy="216" r="1"/>
	<circle cx="1.53e+03" cy="219" r="1"/>
	<circle cx="1.53e+03" cy="220" r="1"/>
	<circle cx="1.53e+03" cy="225" r="1"/>
	<circle cx="1.53e+03" cy="228" r="1"/>
	<circle cx="1.53e+03" cy="247" r="1"/>
	<circle cx="1.54e+03" cy="247" r="1"/>
	<circle cx="1.54e+03" cy="249" r="1"/>
	<circle cx="1.54e+03" cy="272" r="1"/>
	<circle cx="1.54e+03" cy="285" r="1"/>
	<circle cx="1.54e+03" cy="290" r="1"/>
	<circle cx="1.54e+03" cy="277" r="1"/>
	<circle cx="1.54e+03" cy="290" r="1"/>
	<circle cx="1.54e+03" cy="312" r="1"/>
	<circle cx="1.54e+03" cy="315" r="1"/>
	<circle cx="1.54e+03" cy="315" r="1"/>
	<circle cx="1.54e+03" cy="315" r="1"/>
	<circle cx="1.55e+03" cy="315" r="1"/>
	<circle cx="1.55e+03" cy="315" r="1"/>
	<circle cx="1.55e+03" cy="318" r="1"/>
	<circle cx="1.55e+03" cy="318" r="1"/>
	<circle cx="1.55e+03" cy="326" r="1"/>
	<circle cx="1.55e+03" cy="318" r="1"/>
	<circle cx="1.55e+03" cy="321" r="1"/>
	<circle cx="1.55e+03" cy="318" r="1"/>
	<circle cx="1.55e+03" cy="321" r="1"/>
	<circle cx="1.55e+03" cy="321" r="1"/>
	<circle cx="1.55e+03" cy="324" r="1"/>
	<circle cx="1.56e+03" cy="323" r="1"/>
	<circle cx="1.56e+03" cy="321" r="1"/>
	<circle cx="1.56e+03" cy="319" r="1"/>
	<circle cx="1.56e+03" cy="321" r="1"/>
	<circle cx="1.56e+03" cy="323" r="1"/>
	<circle cx="1.56e+03" cy="323" r="1"/>
	<circle cx="1.56e+03" cy="321" r="1"/>
	<circle cx="1.56e+03" cy="321" r="1"/>
	<circle cx="1.56e+03" cy="321" r="1"/>
	<circle cx="1.56e+03" cy="321" r="1"/>
	<circle cx="1.56e+03" cy="324" r="1"/>
	<circle cx="1.56e+03" cy="323" r="1"/>
	<circle cx="1.57e+03" cy="319" r="1"/>
	<circle cx="1.57e+03" cy="316" r="1"/>
	<circle cx="1.57e+03" cy="266" r="1"/>
	<circle cx="1.57e+03" cy="275" r="1"/>
	<circle cx="1.57e+03" cy="308" r="1"/>
	<circle cx="1.57e+03" cy="308" r="1"/>
	<circle cx="1.57e+03" cy="299" r="1"/>
	<circle cx="1.57e+03" cy="301" r="1"/>
	<circle cx="1.57e+03" cy="297" r="1"/>
	<circle cx="1.57e+03" cy="296" r="1"/>
	<circle cx="1.57e+03" cy="301" r="1"/>
	<circle cx="1.58e+03" cy="305" r="1"/>
	<circle cx="1.58e+03" cy="307" r="1"/>
	<circle cx="1.58e+03" cy="313" r="1"/>
</g>
</g>
	<g id="limitPoints" stroke="rgb(119,136,153)" fill="rgb(250,235,215)">
	<polygon points=" 608,344 618,344 613,354"/>
</g>
	<g id="legendBackground" stroke="rgb(255,255,0)" fill="rgb(255,255,255)" stroke-width="1">
	<rect x="1.86e+03" y="39.5" width="112" height="46.7"/>
</g>
	<g id="legendPoints">
	<g stroke="rgb(0,0,255)" fill="rgb(255,255,255)">
	<circle cx="1.87e+03" cy="70.7" r="1"/>
</g>
</g>
	<g id="legendLines">
	<g stroke="rgb(255,0,0)" stroke-width="2">
	<line x1="1.88e+03" y1="58.7" x2="1.89e+03" y2="58.7"/>
</g>
</g>
	<g id="legendText">
	<text x="1.89e+03" y="58.7" font-size="10" font-family="Lucida Sans Unicode" font-weight="normal" textLength="70.2">Inside (&#x00B0;C)
	</text>
	<text x="1.88e+03" y="72.7" font-size="10" font-family="Lucida Sans Unicode" font-weight="normal" textLength="76.2">Outside (&#x00B0;C)
	</text>
</g>
	<g id="title">
	<text x="1e+03" y="27" text-anchor="middle" font-size="18" font-family="Lucida Sans Unicode" font-weight="normal">Temperatures at Long: 2:45:16.2W, Lat:54:17:47.1N
	</text>
</g>
	<g id="plotXValues">
</g>
	<g id="plotYValues">
</g>
</svg>
