<?xml version="1.0" encoding="UTF-8" standalone="no"?>
<svg width="500" height ="350" version="1.1"
xmlns:svg ="http://www.w3.org/2000/svg"
xmlns:rdf="http://www.w3.org/1999/02/22-rdf-syntax-ns#"
xmlns:cc="http://web.resource.org/cc/"
xmlns:dc="http://purl.org/dc/elements/1.1/"
xmlns ="http://www.w3.org/2000/svg"
>
<!-- SVG plot written using Boost.Plot program (Creator Jacob Voytko) --> 
<!-- Use, modification and distribution of Boost.Plot subject to the --> 
<!-- Boost Software License, Version 1.0.--> 
<!-- (See accompanying file LICENSE_1_0.txt --> 
<!-- or copy at http://www.boost.org/LICENSE_1_0.txt) --> 

<!-- File demo_boxplot_full.svg --> 
<clipPath id="plot_window"><rect x="59.8" y="52" width="428" height="232"/></clipPath>
<g id="imageBackground" stroke="rgb(0,0,139)" fill="rgb(240,255,255)" stroke-width="2"><rect x="0" y="0" width="500" height="350"/></g>
<g id="plotBackground" stroke="rgb(255,255,0)" fill="rgb(255,255,255)" stroke-width="1"><rect x="64.8" y="57" width="423" height="227"/></g>
<g id="X-axis" stroke="rgb(0,0,0)" stroke-width="1"><line x1="64.8" y1="284" x2="488" y2="284"/></g>
<g id="Y-axis" stroke="rgb(0,0,0)" stroke-width="1"><line x1="64.8" y1="284" x2="64.8" y2="57"/></g>
<g id="xMajorTicks" stroke="rgb(0,0,0)" stroke-width="1"><path d="M171,284 L171,289 M276,284 L276,289 M382,284 L382,289 " fill="none"/></g>
<g id="yMajorTicks" stroke="rgb(0,0,0)" stroke-width="2"><path d="M59.8,284 L64.8,284 M59.8,238 L64.8,238 M59.8,193 L64.8,193 M59.8,148 L64.8,148 M59.8,102 L64.8,102 M59.8,57 L64.8,57 M59.8,284 L64.8,284 " fill="none"/></g>
<g id="yMinorTicks" stroke="rgb(0,0,0)" stroke-width="1"><path d="M62.8,275 L64.8,275 M62.8,265 L64.8,265 M62.8,256 L64.8,256 M62.8,247 L64.8,247 M62.8,229 L64.8,229 M62.8,220 L64.8,220 M62.8,211 L64.8,211 M62.8,202 L64.8,202 M62.8,184 L64.8,184 M62.8,175 L64.8,175 M62.8,166 L64.8,166 M62.8,157 L64.8,157 M62.8,139 L64.8,139 M62.8,130 L64.8,130 M62.8,120 L64.8,120 M62.8,111 L64.8,111 M62.8,93.3 L64.8,93.3 M62.8,84.2 L64.8,84.2 M62.8,75.1 L64.8,75.1 M62.8,66.1 L64.8,66.1 M62.8,284 L64.8,284 " fill="none"/></g>
<g id="YGrid" stroke="rgb(200,220,255)" stroke-width="1"></g>
<g id="yMinorGrid" stroke="rgb(200,220,255)" stroke-width="0.5"></g>
<g id="valueLabels" fill="rgb(0,0,0)">
<text x="171" y="308" text-anchor="middle" font-size="14" font-family="Lucida Sans Unicode">data1</text>
<text x="276" y="308" text-anchor="middle" font-size="14" font-family="Lucida Sans Unicode">[50/x]</text>
<text x="382" y="308" text-anchor="middle" font-size="14" font-family="Lucida Sans Unicode">[sin(x*50)]</text>
<text x="53.8" y="286" text-anchor="end" font-size="12" font-family="Lucida Sans Unicode">0</text>
<text x="53.8" y="241" text-anchor="end" font-size="12" font-family="Lucida Sans Unicode">20</text>
<text x="53.8" y="195" text-anchor="end" font-size="12" font-family="Lucida Sans Unicode">40</text>
<text x="53.8" y="150" text-anchor="end" font-size="12" font-family="Lucida Sans Unicode">60</text>
<text x="53.8" y="105" text-anchor="end" font-size="12" font-family="Lucida Sans Unicode">80</text>
<text x="53.8" y="59.4" text-anchor="end" font-size="12" font-family="Lucida Sans Unicode">100</text>
<text x="53.8" y="286" text-anchor="end" font-size="12" font-family="Lucida Sans Unicode">0</text></g>
<g id="yLabel" fill="rgb(0,0,0)">
<text x="30.2" y="170" text-anchor="middle" transform = "rotate(-90 30.2 170 )" font-size="14" font-family="Lucida Sans Unicode">Population Size</text></g>
<g id="xLabel" fill="rgb(0,0,0)">
<text x="276" y="327" text-anchor="middle" font-size="14" font-family="Lucida Sans Unicode">Functions</text></g>
<g id="boxAxis" stroke="rgb(0,0,0)"><g clip-path="url(#plot_window)" stroke="rgb(0,255,0)" stroke-width="1"><line x1="171" y1="272" x2="171" y2="196"/></g>
<g clip-path="url(#plot_window)" stroke="rgb(255,165,0)" stroke-width="1"><line x1="276" y1="272" x2="276" y2="196"/></g>
<g clip-path="url(#plot_window)" stroke="rgb(255,165,0)" stroke-width="1"><line x1="382" y1="250" x2="382" y2="136"/></g>
</g>
<g id="Median" stroke="rgb(255,0,0)" stroke-width="2"><g clip-path="url(#plot_window)" stroke="rgb(255,0,255)" fill="rgb(255,255,0)" stroke-width="1"><rect x="166" y="239" width="10" height="29.6"/></g>
<g clip-path="url(#plot_window)" stroke="rgb(0,0,255)" stroke-width="5"><line x1="166" y1="261" x2="175" y2="261"/></g>
<g clip-path="url(#plot_window)" stroke="rgb(0,0,255)" fill="rgb(173,216,230)" stroke-width="1"><rect x="271" y="239" width="10" height="29.6"/></g>
<g clip-path="url(#plot_window)" stroke="rgb(255,0,0)" stroke-width="4"><line x1="272" y1="261" x2="281" y2="261"/></g>
<g clip-path="url(#plot_window)" stroke="rgb(0,0,255)" fill="rgb(173,216,230)" stroke-width="1"><rect x="377" y="154" width="10" height="79.2"/></g>
<g clip-path="url(#plot_window)" stroke="rgb(255,0,0)" stroke-width="4"><line x1="378" y1="195" x2="387" y2="195"/></g>
</g>
<g id="whisker" stroke="rgb(0,0,0)"><g clip-path="url(#plot_window)"><g stroke="rgb(255,0,0)" fill="rgb(0,0,0)" stroke-width="4"><line x1="146" y1="272" x2="196" y2="272"/></g>
<g stroke="rgb(0,128,0)" fill="rgb(0,0,0)" stroke-width="7"><line x1="146" y1="196" x2="196" y2="196"/></g>
</g>
<g clip-path="url(#plot_window)"><g stroke="rgb(255,0,255)" fill="rgb(0,0,0)" stroke-width="1"><line x1="264" y1="272" x2="289" y2="272"/></g>
<g stroke="rgb(0,255,255)" fill="rgb(0,0,0)" stroke-width="1"><line x1="264" y1="196" x2="289" y2="196"/></g>
</g>
<g clip-path="url(#plot_window)"><g stroke="rgb(255,0,255)" fill="rgb(0,0,0)" stroke-width="1"><line x1="370" y1="250" x2="395" y2="250"/></g>
<g stroke="rgb(0,255,255)" fill="rgb(0,0,0)" stroke-width="1"><line x1="370" y1="136" x2="395" y2="136"/></g>
</g>
</g>
<g id="mild_outliers" stroke="rgb(255,192,203)" fill="rgb(0,0,0)"><g clip-path="url(#plot_window)" stroke="rgb(0,0,255)" fill="rgb(255,255,0)">
<text x="171" y="161" text-anchor="middle" font-size="10" font-family="Lucida Sans Unicode">&#x25BD;</text>
<text x="171" y="173" text-anchor="middle" font-size="10" font-family="Lucida Sans Unicode">&#x25BD;</text>
<text x="171" y="184" text-anchor="middle" font-size="10" font-family="Lucida Sans Unicode">&#x25BD;</text>
<text x="171" y="192" text-anchor="middle" font-size="10" font-family="Lucida Sans Unicode">&#x25BD;</text></g>
<g clip-path="url(#plot_window)" stroke="rgb(255,0,0)" fill="rgb(255,255,0)">
<text x="276" y="159" text-anchor="middle" font-size="5" font-family="Lucida Sans Unicode">&#x25A1;</text>
<text x="276" y="172" text-anchor="middle" font-size="5" font-family="Lucida Sans Unicode">&#x25A1;</text>
<text x="276" y="182" text-anchor="middle" font-size="5" font-family="Lucida Sans Unicode">&#x25A1;</text>
<text x="276" y="191" text-anchor="middle" font-size="5" font-family="Lucida Sans Unicode">&#x25A1;</text></g>
</g>
<g id="extreme_outliers" stroke="rgb(128,0,128)" fill="rgb(255,255,255)"><g clip-path="url(#plot_window)" stroke="rgb(255,0,0)" fill="rgb(0,128,0)">
<text x="171" y="60" text-anchor="middle" font-size="10" font-family="Lucida Sans Unicode">&#x25CB;</text>
<text x="171" y="97.8" text-anchor="middle" font-size="10" font-family="Lucida Sans Unicode">&#x25CB;</text>
<text x="171" y="125" text-anchor="middle" font-size="10" font-family="Lucida Sans Unicode">&#x25CB;</text>
<text x="171" y="145" text-anchor="middle" font-size="10" font-family="Lucida Sans Unicode">&#x25CB;</text></g>
<g clip-path="url(#plot_window)" stroke="rgb(165,42,42)">
<text x="276" y="60" text-anchor="middle" font-size="10" font-family="Lucida Sans Unicode">&#x2666;</text>
<text x="276" y="97.8" text-anchor="middle" font-size="10" font-family="Lucida Sans Unicode">&#x2666;</text>
<text x="276" y="125" text-anchor="middle" font-size="10" font-family="Lucida Sans Unicode">&#x2666;</text>
<text x="276" y="145" text-anchor="middle" font-size="10" font-family="Lucida Sans Unicode">&#x2666;</text></g>
</g>
<g id="Data Values" fill="rgb(0,0,0)"><g clip-path="url(#plot_window)">
<text x="181" y="264" font-size="10" font-family="Lucida Sans Unicode">9.9</text></g>
<g>
<text x="176" y="161" font-size="10" font-family="Lucida Sans Unicode">55.6</text></g>
<g>
<text x="176" y="173" font-size="10" font-family="Lucida Sans Unicode">50</text></g>
<g>
<text x="176" y="184" font-size="10" font-family="Lucida Sans Unicode">45.5</text></g>
<g>
<text x="176" y="192" font-size="10" font-family="Lucida Sans Unicode">41.7</text></g>
<g>
<text x="182" y="60" font-size="10" font-family="Lucida Sans Unicode">100</text></g>
<g>
<text x="182" y="97.8" font-size="10" font-family="Lucida Sans Unicode">83.3</text></g>
<g>
<text x="182" y="125" font-size="10" font-family="Lucida Sans Unicode">71.4</text></g>
<g>
<text x="182" y="145" font-size="10" font-family="Lucida Sans Unicode">62.5</text></g>
<g clip-path="url(#plot_window)">
<text x="286" y="264" font-size="10" font-family="Lucida Sans Unicode">9.9</text></g>
<g>
<text x="282" y="161" font-size="10" font-family="Lucida Sans Unicode">55.6</text></g>
<g>
<text x="282" y="173" font-size="10" font-family="Lucida Sans Unicode">50</text></g>
<g>
<text x="282" y="184" font-size="10" font-family="Lucida Sans Unicode">45.5</text></g>
<g>
<text x="282" y="192" font-size="10" font-family="Lucida Sans Unicode">41.7</text></g>
<g>
<text x="287" y="60" font-size="10" font-family="Lucida Sans Unicode">100</text></g>
<g>
<text x="287" y="97.8" font-size="10" font-family="Lucida Sans Unicode">83.3</text></g>
<g>
<text x="287" y="125" font-size="10" font-family="Lucida Sans Unicode">71.4</text></g>
<g>
<text x="287" y="145" font-size="10" font-family="Lucida Sans Unicode">62.5</text></g>
<g clip-path="url(#plot_window)">
<text x="392" y="198" font-size="10" font-family="Lucida Sans Unicode">38.9</text></g>
</g>
<g id="title" fill="rgb(0,0,0)">
<text x="250" y="36" text-anchor="middle" font-size="18" font-family="Lucida Sans Unicode">Boxplots of 1/x and sin(x) Functions</text></g>
</svg>
