<?xml version="1.0" encoding="UTF-8" standalone="no"?>
<svg width="700" height ="500" version="1.1"
xmlns:svg ="http://www.w3.org/2000/svg"
xmlns:rdf="http://www.w3.org/1999/02/22-rdf-syntax-ns#"
xmlns:cc="http://web.resource.org/cc/"
xmlns:dc="http://purl.org/dc/elements/1.1/"
xmlns ="http://www.w3.org/2000/svg"
>
<!-- SVG plot written using Boost.Plot program (Creator Jacob Voytko) --> 
<!-- Use, modification and distribution of Boost.Plot subject to the --> 
<!-- Boost Software License, Version 1.0.--> 
<!-- (See accompanying file LICENSE_1_0.txt --> 
<!-- or copy at http://www.boost.org/LICENSE_1_0.txt) --> 

<clipPath id="plot_window"><rect x="58" y="49" width="525" height="414"/></clipPath>
<g id="imageBackground" stroke="rgb(255,255,0)" fill="rgb(248,248,255)" stroke-width="2"><rect x="0" y="0" width="700" height="500"/></g>
<g id="plotBackground" stroke="rgb(0,128,0)" fill="rgb(255,255,255)" stroke-width="1"><rect x="57" y="48" width="527" height="416"/></g>
<g id="yMinorGrid" stroke="rgb(240,240,255)" stroke-width="1"><path d="M58,242 L583,242 M58,228 L583,228 M58,201 L583,201 M58,187 L583,187 M58,159 L583,159 M58,145 L583,145 M58,117 L583,117 M58,103 L583,103 M58,75.7 L583,75.7 M58,61.9 L583,61.9 M58,270 L583,270 M58,284 L583,284 M58,298 L583,298 M58,311 L583,311 M58,325 L583,325 M58,339 L583,339 M58,339 L583,339 M58,353 L583,353 M58,367 L583,367 M58,381 L583,381 M58,395 L583,395 M58,409 L583,409 M58,422 L583,422 M58,436 L583,436 M58,450 L583,450 M58,464 L583,464 M58,464 L583,464 " fill="none"/></g>
<g id="yMajorGrid" stroke="rgb(200,220,255)" stroke-width="2"><path d="M58,214 L583,214 M58,173 L583,173 M58,131 L583,131 M58,89.6 L583,89.6 M58,48 L583,48 M58,298 L583,298 M58,339 L583,339 M58,381 L583,381 M58,422 L583,422 M58,464 L583,464 " fill="none"/></g>
<g id="xMinorGrid" stroke="rgb(240,240,255)" stroke-width="0.5"><path d="M338,49 L338,463 M356,49 L356,463 M391,49 L391,463 M408,49 L408,463 M444,49 L444,463 M461,49 L461,463 M496,49 L496,463 M514,49 L514,463 M549,49 L549,463 M567,49 L567,463 M303,49 L303,463 M285,49 L285,463 M250,49 L250,463 M233,49 L233,463 M198,49 L198,463 M180,49 L180,463 M145,49 L145,463 M127,49 L127,463 M92.1,49 L92.1,463 M74.6,49 L74.6,463 " fill="none"/></g>
<g id="xMajorGrid" stroke="rgb(200,220,255)" stroke-width="1"><path d="M373,48 L373,464 M426,48 L426,464 M479,48 L479,464 M532,48 L532,464 M584,48 L584,464 M268,48 L268,464 M215,48 L215,464 M162,48 L162,464 M110,48 L110,464 M57,48 L57,464 " fill="none"/></g>
<g id="yAxis" stroke="rgb(0,0,0)" stroke-width="1"><line x1="321" y1="48" x2="321" y2="464"/><line x1="584" y1="48" x2="584" y2="464"/></g>
<g id="xAxis" stroke="rgb(0,0,0)" stroke-width="1"><line x1="57" y1="256" x2="584" y2="256"/></g>
<g id="yMinorTicks" stroke="rgb(0,0,0)" stroke-width="1"><path d="M316,242 L321,242 M316,228 L321,228 M316,201 L321,201 M316,187 L321,187 M316,159 L321,159 M316,145 L321,145 M316,117 L321,117 M316,103 L321,103 M316,75.7 L321,75.7 M316,61.9 L321,61.9 M316,270 L321,270 M316,284 L321,284 M316,298 L321,298 M316,311 L321,311 M316,325 L321,325 M316,339 L321,339 M316,339 L321,339 M316,353 L321,353 M316,367 L321,367 M316,381 L321,381 M316,395 L321,395 M316,409 L321,409 M316,422 L321,422 M316,436 L321,436 M316,450 L321,450 M316,464 L321,464 M316,464 L321,464 " fill="none"/></g>
<g id="xMinorTicks" stroke="rgb(0,0,0)" stroke-width="1"><path d="M338,256 L338,261 M356,256 L356,261 M391,256 L391,261 M408,256 L408,261 M444,256 L444,261 M461,256 L461,261 M496,256 L496,261 M514,256 L514,261 M549,256 L549,261 M567,256 L567,261 M303,256 L303,261 M285,256 L285,261 M250,256 L250,261 M233,256 L233,261 M198,256 L198,261 M180,256 L180,261 M145,256 L145,261 M127,256 L127,261 M92.1,256 L92.1,261 M74.6,256 L74.6,261 " fill="none"/></g>
<g id="yMajorTicks" stroke="rgb(0,0,0)" stroke-width="2"><path d="M311,214 L321,214 M311,173 L321,173 M311,131 L321,131 M311,89.6 L321,89.6 M311,48 L321,48 M311,298 L321,298 M311,339 L321,339 M311,381 L321,381 M311,422 L321,422 M311,464 L321,464 " fill="none"/></g>
<g id="xMajorTicks" stroke="rgb(0,0,0)" stroke-width="2"><path d="M373,256 L373,266 M426,256 L426,266 M479,256 L479,266 M532,256 L532,266 M584,256 L584,266 M268,256 L268,266 M215,256 L215,266 M162,256 L162,266 M110,256 L110,266 M57,256 L57,266 " fill="none"/></g>
<g id="xTicksValues">
<text x="373" y="282" text-anchor="middle" font-size="12" font-family="Lucida Sans Unicode">2.00</text>
<text x="426" y="282" text-anchor="middle" font-size="12" font-family="Lucida Sans Unicode">4.00</text>
<text x="479" y="282" text-anchor="middle" font-size="12" font-family="Lucida Sans Unicode">6.00</text>
<text x="532" y="282" text-anchor="middle" font-size="12" font-family="Lucida Sans Unicode">8.00</text>
<text x="584" y="282" text-anchor="middle" font-size="12" font-family="Lucida Sans Unicode">1.00e1</text>
<text x="268" y="282" text-anchor="middle" font-size="12" font-family="Lucida Sans Unicode">-2.00</text>
<text x="215" y="282" text-anchor="middle" font-size="12" font-family="Lucida Sans Unicode">-4.00</text>
<text x="162" y="282" text-anchor="middle" font-size="12" font-family="Lucida Sans Unicode">-6.00</text>
<text x="110" y="282" text-anchor="middle" font-size="12" font-family="Lucida Sans Unicode">-8.00</text>
<text x="57" y="282" text-anchor="middle" font-size="12" font-family="Lucida Sans Unicode">-1.00e1</text></g>
<g id="yTicksValues">
<text x="305" y="217" text-anchor="end" font-size="12" font-family="Lucida Sans Unicode">2.0</text>
<text x="305" y="175" text-anchor="end" font-size="12" font-family="Lucida Sans Unicode">4.0</text>
<text x="305" y="134" text-anchor="end" font-size="12" font-family="Lucida Sans Unicode">6.0</text>
<text x="305" y="92" text-anchor="end" font-size="12" font-family="Lucida Sans Unicode">8.0</text>
<text x="305" y="50.4" text-anchor="end" font-size="12" font-family="Lucida Sans Unicode">10.0</text>
<text x="305" y="300" text-anchor="end" font-size="12" font-family="Lucida Sans Unicode">-2.0</text>
<text x="305" y="342" text-anchor="end" font-size="12" font-family="Lucida Sans Unicode">-4.0</text>
<text x="305" y="383" text-anchor="end" font-size="12" font-family="Lucida Sans Unicode">-6.0</text>
<text x="305" y="425" text-anchor="end" font-size="12" font-family="Lucida Sans Unicode">-8.0</text>
<text x="305" y="466" text-anchor="end" font-size="12" font-family="Lucida Sans Unicode">-10.0</text></g>
<g id="yLabel">
<text x="19" y="256" text-anchor="middle" transform = "rotate(-90 19 256 )" font-size="14" font-family="Lucida Sans Unicode">Y-axis &#x221E;&#x221A;</text></g>
<g id="xLabel">
<text x="321" y="484" text-anchor="middle" font-size="12" font-family="Lucida Sans Unicode">X-axis &#x00B1;&#x3A9;</text></g>
<g id="plotLines" stroke-width="2"><g clip-path="url(#plot_window)" stroke="rgb(0,0,0)" stroke-width="2"><path d="M57,-1.78e+03 S78.1,-1.46e+03 83.4,-1.39e+03 S104,-1.1e+03 110,-1.03e+03 S131,-780 136,-722 S157,-501 162,-451 S184,-264 189,-222 S210,-68.5 215,-35.2 S236,85.4 242,110 S263,198 268,214 S289,268 294,277 S315,298 321,298 S342,285 347,277 S368,231 373,214 S394,135 400,110 S421,-1.92 426,-35.2 S447,-181 452,-222 S474,-401 479,-451 S500,-663 505,-722 S526,-967 532,-1.03e+03 S553,-1.31e+03 558,-1.39e+03 S584,-1.82e+03 584,-1.78e+03 " fill="none"/></g>
</g>
<g id="plotPoints" clip-path="url(#plot_window)"><g stroke="rgb(0,0,0)" fill="rgb(255,0,0)">
<text x="321" y="259" text-anchor="middle" font-size="10" font-family="Lucida Sans Unicode">&#x25CB;</text>
<text x="347" y="238" text-anchor="middle" font-size="10" font-family="Lucida Sans Unicode">&#x25CB;</text>
<text x="373" y="230" text-anchor="middle" font-size="10" font-family="Lucida Sans Unicode">&#x25CB;</text>
<text x="400" y="223" text-anchor="middle" font-size="10" font-family="Lucida Sans Unicode">&#x25CB;</text>
<text x="426" y="218" text-anchor="middle" font-size="10" font-family="Lucida Sans Unicode">&#x25CB;</text>
<text x="452" y="213" text-anchor="middle" font-size="10" font-family="Lucida Sans Unicode">&#x25CB;</text>
<text x="479" y="208" text-anchor="middle" font-size="10" font-family="Lucida Sans Unicode">&#x25CB;</text>
<text x="505" y="204" text-anchor="middle" font-size="10" font-family="Lucida Sans Unicode">&#x25CB;</text>
<text x="532" y="200" text-anchor="middle" font-size="10" font-family="Lucida Sans Unicode">&#x25CB;</text>
<text x="558" y="197" text-anchor="middle" font-size="10" font-family="Lucida Sans Unicode">&#x25CB;</text></g>
<g stroke="rgb(0,0,0)" fill="rgb(255,165,0)">
<text x="242" y="112" text-anchor="middle" font-size="5" font-family="Lucida Sans Unicode">&#x25CB;</text>
<text x="268" y="216" text-anchor="middle" font-size="5" font-family="Lucida Sans Unicode">&#x25CB;</text>
<text x="294" y="278" text-anchor="middle" font-size="5" font-family="Lucida Sans Unicode">&#x25CB;</text>
<text x="321" y="299" text-anchor="middle" font-size="5" font-family="Lucida Sans Unicode">&#x25CB;</text>
<text x="347" y="278" text-anchor="middle" font-size="5" font-family="Lucida Sans Unicode">&#x25CB;</text>
<text x="373" y="216" text-anchor="middle" font-size="5" font-family="Lucida Sans Unicode">&#x25CB;</text>
<text x="400" y="112" text-anchor="middle" font-size="5" font-family="Lucida Sans Unicode">&#x25CB;</text></g>
<g stroke="rgb(0,0,0)" fill="rgb(255,255,0)">
<text x="215" y="446" text-anchor="middle" font-size="10" font-family="Lucida Sans Unicode">&#x25A1;</text>
<text x="242" y="405" text-anchor="middle" font-size="10" font-family="Lucida Sans Unicode">&#x25A1;</text>
<text x="268" y="363" text-anchor="middle" font-size="10" font-family="Lucida Sans Unicode">&#x25A1;</text>
<text x="294" y="322" text-anchor="middle" font-size="10" font-family="Lucida Sans Unicode">&#x25A1;</text>
<text x="321" y="280" text-anchor="middle" font-size="10" font-family="Lucida Sans Unicode">&#x25A1;</text>
<text x="347" y="238" text-anchor="middle" font-size="10" font-family="Lucida Sans Unicode">&#x25A1;</text>
<text x="373" y="197" text-anchor="middle" font-size="10" font-family="Lucida Sans Unicode">&#x25A1;</text>
<text x="400" y="155" text-anchor="middle" font-size="10" font-family="Lucida Sans Unicode">&#x25A1;</text>
<text x="426" y="114" text-anchor="middle" font-size="10" font-family="Lucida Sans Unicode">&#x25A1;</text>
<text x="452" y="72" text-anchor="middle" font-size="10" font-family="Lucida Sans Unicode">&#x25A1;</text></g>
</g>
<g id="limitPoints" stroke="rgb(119,136,153)" fill="rgb(250,235,215)"><polygon points=" 52,246 62,246 57,256"/><polygon points=" 78.4,246 88.4,246 83.4,256"/><polygon points=" 105,246 115,246 110,256"/><polygon points=" 131,246 141,246 136,256"/><polygon points=" 157,246 167,246 162,256"/><polygon points=" 184,246 194,246 189,256"/><polygon points=" 210,246 220,246 215,256"/><polygon points=" 237,246 247,246 242,256"/><polygon points=" 263,246 273,246 268,256"/><polygon points=" 289,246 299,246 294,256"/></g>
<g id="legendBackground" stroke="rgb(255,255,0)" fill="rgb(255,255,224)" stroke-width="1"><rect x="590" y="48" width="95.8" height="77.6"/></g>
<g id="legendPoints"><g stroke="rgb(0,0,0)" fill="rgb(255,0,0)" stroke-width="2">
<text x="604" y="84.2" text-anchor="middle" font-size="10" font-family="Lucida Sans Unicode">&#x25CB;</text></g>
<g stroke="rgb(0,0,0)" fill="rgb(255,165,0)" stroke-width="2">
<text x="604" y="97" text-anchor="middle" font-size="5" font-family="Lucida Sans Unicode">&#x25CB;</text></g>
<g stroke="rgb(0,0,0)" fill="rgb(255,255,0)" stroke-width="3">
<text x="604" y="113" text-anchor="middle" font-size="10" font-family="Lucida Sans Unicode">&#x25A1;</text></g>
</g>
<g id="legendText">
<text x="638" y="66" text-anchor="middle" font-family="Lucida Sans Unicode" font-weight="normal">Unicode &#x3A9;&#x3A6;</text>
<text x="608" y="81" font-size="10" font-family="Lucida Sans Unicode" font-weight="normal">Sqrt(x)</text>
<text x="608" y="95.4" font-size="10" font-family="Lucida Sans Unicode" font-weight="normal">-2 + x^2</text>
<text x="608" y="110" font-size="10" font-family="Lucida Sans Unicode" font-weight="normal">-1 + 2x</text></g>
<g id="title" fill="rgb(255,0,0)">
<text x="350" y="30" text-anchor="middle" font-size="20" font-family="Lucida Sans Unicode" font-weight="normal">Title with Unicode <sup>-&#945; </sup> &#x3A9; &#x3A6; &#x221A; &#x221E; &#x3B6; &#x00B1; &#x2080; &#x2081; &#x2082;&#x2083;</text></g>
<g id="plotXValues"></g>
<g id="plotYValues"></g>
</svg>
