<?xml version="1.0" encoding="UTF-8" standalone="no"?>
<svg width="700" height ="500" version="1.1"
xmlns:svg ="http://www.w3.org/2000/svg"
xmlns:rdf="http://www.w3.org/1999/02/22-rdf-syntax-ns#"
xmlns:cc="http://web.resource.org/cc/"
xmlns:dc="http://purl.org/dc/elements/1.1/"
xmlns ="http://www.w3.org/2000/svg"
>
<!-- SVG plot written using Boost.Plot program (Creator Jacob Voytko) --> 
<!-- Use, modification and distribution of Boost.Plot subject to the --> 
<!-- Boost Software License, Version 1.0.--> 
<!-- (See accompanying file LICENSE_1_0.txt --> 
<!-- or copy at http://www.boost.org/LICENSE_1_0.txt) --> 

<clipPath id="plot_window"><rect x="87.5" y="44" width="468" height="422"/></clipPath>
<g id="imageBackground" stroke="rgb(255,255,0)" fill="rgb(248,248,255)" stroke-width="2"><rect x="0" y="0" width="700" height="500"/></g>
<g id="plotBackground" stroke="rgb(0,128,0)" fill="rgb(255,255,255)" stroke-width="1"><rect x="86.5" y="43" width="470" height="424"/></g>
<g id="yMinorGrid" stroke="rgb(240,240,255)" stroke-width="1"><path d="M87.5,241 L556,241 M87.5,227 L556,227 M87.5,198 L556,198 M87.5,184 L556,184 M87.5,156 L556,156 M87.5,142 L556,142 M87.5,114 L556,114 M87.5,99.5 L556,99.5 M87.5,71.3 L556,71.3 M87.5,57.1 L556,57.1 M87.5,255 L556,255 M87.5,269 L556,269 M87.5,283 L556,283 M87.5,297 L556,297 M87.5,312 L556,312 M87.5,326 L556,326 M87.5,340 L556,340 M87.5,340 L556,340 M87.5,354 L556,354 M87.5,368 L556,368 M87.5,382 L556,382 M87.5,396 L556,396 M87.5,410 L556,410 M87.5,425 L556,425 M87.5,439 L556,439 M87.5,453 L556,453 M87.5,467 L556,467 M87.5,467 L556,467 " fill="none"/></g>
<g id="yMajorGrid" stroke="rgb(200,220,255)" stroke-width="2"><path d="M87.5,255 L556,255 M87.5,213 L556,213 M87.5,170 L556,170 M87.5,128 L556,128 M87.5,85.4 L556,85.4 M87.5,43 L556,43 M87.5,255 L556,255 M87.5,297 L556,297 M87.5,340 L556,340 M87.5,382 L556,382 M87.5,425 L556,425 M87.5,467 L556,467 " fill="none"/></g>
<g id="xMinorGrid" stroke="rgb(240,240,255)" stroke-width="0.5"><path d="M104,44 L104,466 M174,44 L174,466 M208,44 L208,466 M278,44 L278,466 M313,44 L313,466 M383,44 L383,466 M417,44 L417,466 M487,44 L487,466 M522,44 L522,466 " fill="none"/></g>
<g id="xMajorGrid" stroke="rgb(200,220,255)" stroke-width="1"><path d="M139,43 L139,467 M243,43 L243,467 M348,43 L348,467 M452,43 L452,467 M557,43 L557,467 " fill="none"/></g>
<g id="yAxis" stroke="rgb(0,0,0)" stroke-width="1"><line x1="86.5" y1="43" x2="86.5" y2="467"/></g>
<g id="xAxis" stroke="rgb(0,0,0)" stroke-width="1"><line x1="76.5" y1="255" x2="557" y2="255"/></g>
<g id="yMinorTicks" stroke="rgb(0,0,0)" stroke-width="1"><path d="M81.5,241 L86.5,241 M81.5,227 L86.5,227 M81.5,198 L86.5,198 M81.5,184 L86.5,184 M81.5,156 L86.5,156 M81.5,142 L86.5,142 M81.5,114 L86.5,114 M81.5,99.5 L86.5,99.5 M81.5,71.3 L86.5,71.3 M81.5,57.1 L86.5,57.1 M81.5,255 L86.5,255 M81.5,269 L86.5,269 M81.5,283 L86.5,283 M81.5,297 L86.5,297 M81.5,312 L86.5,312 M81.5,326 L86.5,326 M81.5,340 L86.5,340 M81.5,340 L86.5,340 M81.5,354 L86.5,354 M81.5,368 L86.5,368 M81.5,382 L86.5,382 M81.5,396 L86.5,396 M81.5,410 L86.5,410 M81.5,425 L86.5,425 M81.5,439 L86.5,439 M81.5,453 L86.5,453 M81.5,467 L86.5,467 M81.5,467 L86.5,467 " fill="none"/></g>
<g id="xMinorTicks" stroke="rgb(0,0,0)" stroke-width="1"><path d="M104,255 L104,260 M174,255 L174,260 M208,255 L208,260 M278,255 L278,260 M313,255 L313,260 M383,255 L383,260 M417,255 L417,260 M487,255 L487,260 M522,255 L522,260 " fill="none"/></g>
<g id="yMajorTicks" stroke="rgb(0,0,0)" stroke-width="2"><path d="M76.5,255 L86.5,255 M76.5,213 L86.5,213 M76.5,170 L86.5,170 M76.5,128 L86.5,128 M76.5,85.4 L86.5,85.4 M76.5,43 L86.5,43 M76.5,255 L86.5,255 M76.5,297 L86.5,297 M76.5,340 L86.5,340 M76.5,382 L86.5,382 M76.5,425 L86.5,425 M76.5,467 L86.5,467 " fill="none"/></g>
<g id="xMajorTicks" stroke="rgb(0,0,0)" stroke-width="2"><path d="M139,255 L139,265 M243,255 L243,265 M348,255 L348,265 M452,255 L452,265 M557,255 L557,265 " fill="none"/></g>
<g id="xTicksValues">
<text x="139" y="281" text-anchor="middle" font-size="12" font-family="Lucida Sans Unicode">2.00</text>
<text x="243" y="281" text-anchor="middle" font-size="12" font-family="Lucida Sans Unicode">4.00</text>
<text x="348" y="281" text-anchor="middle" font-size="12" font-family="Lucida Sans Unicode">6.00</text>
<text x="452" y="281" text-anchor="middle" font-size="12" font-family="Lucida Sans Unicode">8.00</text>
<text x="557" y="281" text-anchor="middle" font-size="12" font-family="Lucida Sans Unicode">1.00e1</text></g>
<g id="yTicksValues">
<text x="70.5" y="257" text-anchor="end" font-size="12" font-family="Lucida Sans Unicode">0.0</text>
<text x="70.5" y="215" text-anchor="end" font-size="12" font-family="Lucida Sans Unicode">2.0</text>
<text x="70.5" y="173" text-anchor="end" font-size="12" font-family="Lucida Sans Unicode">4.0</text>
<text x="70.5" y="130" text-anchor="end" font-size="12" font-family="Lucida Sans Unicode">6.0</text>
<text x="70.5" y="87.8" text-anchor="end" font-size="12" font-family="Lucida Sans Unicode">8.0</text>
<text x="70.5" y="45.4" text-anchor="end" font-size="12" font-family="Lucida Sans Unicode">10.0</text>
<text x="70.5" y="257" text-anchor="end" font-size="12" font-family="Lucida Sans Unicode">0.0</text>
<text x="70.5" y="300" text-anchor="end" font-size="12" font-family="Lucida Sans Unicode">-2.0</text>
<text x="70.5" y="342" text-anchor="end" font-size="12" font-family="Lucida Sans Unicode">-4.0</text>
<text x="70.5" y="385" text-anchor="end" font-size="12" font-family="Lucida Sans Unicode">-6.0</text>
<text x="70.5" y="427" text-anchor="end" font-size="12" font-family="Lucida Sans Unicode">-8.0</text>
<text x="70.5" y="469" text-anchor="end" font-size="12" font-family="Lucida Sans Unicode">-10.0</text></g>
<g id="yLabel">
<text x="36.9" y="255" text-anchor="middle" transform = "rotate(-90 36.9 255 )" font-size="14" font-family="Lucida Sans Unicode">Y-axis</text></g>
<g id="xLabel">
<text x="322" y="487" text-anchor="middle" font-size="12" font-family="Lucida Sans Unicode">X-axis</text></g>
<g id="plotLines" stroke-width="2"><g clip-path="url(#plot_window)" stroke="rgb(0,0,0)" stroke-width="2"><path d="M-488,-1.82e+03 S-446,-1.5e+03 -436,-1.42e+03 S-394,-1.13e+03 -384,-1.06e+03 S-342,-801 -331,-741 S-290,-517 -279,-466 S-237,-275 -227,-233 S-185,-75.7 -175,-41.8 S-133,81.2 -122,107 S-80.7,196 -70.2,213 S-28.4,268 -18,276 S23.8,297 34.3,297 S76.1,285 86.5,276 S128,230 139,213 S181,132 191,107 S233,-7.88 243,-41.8 S285,-190 295,-233 S337,-415 348,-466 S390,-682 400,-741 S442,-992 452,-1.06e+03 S494,-1.34e+03 504,-1.42e+03 S557,-1.86e+03 557,-1.82e+03 " fill="none"/></g>
</g>
<g id="plotPoints" clip-path="url(#plot_window)"><g stroke="rgb(0,0,0)" fill="rgb(255,0,0)">
<text x="139" y="229" text-anchor="middle" font-size="14" font-family="Lucida Sans Unicode">&#x25CB;</text>
<text x="191" y="223" text-anchor="middle" font-size="14" font-family="Lucida Sans Unicode">&#x25CB;</text>
<text x="243" y="217" text-anchor="middle" font-size="14" font-family="Lucida Sans Unicode">&#x25CB;</text>
<text x="295" y="212" text-anchor="middle" font-size="14" font-family="Lucida Sans Unicode">&#x25CB;</text>
<text x="348" y="207" text-anchor="middle" font-size="14" font-family="Lucida Sans Unicode">&#x25CB;</text>
<text x="400" y="203" text-anchor="middle" font-size="14" font-family="Lucida Sans Unicode">&#x25CB;</text>
<text x="452" y="199" text-anchor="middle" font-size="14" font-family="Lucida Sans Unicode">&#x25CB;</text>
<text x="504" y="196" text-anchor="middle" font-size="14" font-family="Lucida Sans Unicode">&#x25CB;</text></g>
<g stroke="rgb(0,0,0)" fill="rgb(255,165,0)">
<text x="139" y="214" text-anchor="middle" font-size="5" font-family="Lucida Sans Unicode">&#x25CB;</text>
<text x="191" y="108" text-anchor="middle" font-size="5" font-family="Lucida Sans Unicode">&#x25CB;</text></g>
<g stroke="rgb(0,0,0)" fill="rgb(255,255,0)">
<text x="139" y="196" text-anchor="middle" font-size="14" font-family="Lucida Sans Unicode">&#x25A1;</text>
<text x="191" y="153" text-anchor="middle" font-size="14" font-family="Lucida Sans Unicode">&#x25A1;</text>
<text x="243" y="111" text-anchor="middle" font-size="14" font-family="Lucida Sans Unicode">&#x25A1;</text>
<text x="295" y="68.4" text-anchor="middle" font-size="14" font-family="Lucida Sans Unicode">&#x25A1;</text></g>
</g>
<g id="limitPoints" stroke="rgb(119,136,153)" fill="rgb(250,235,215)"><polygon points=" 81.5,245 91.5,245 86.5,255"/><polygon points=" 81.5,245 91.5,245 86.5,255"/><polygon points=" 81.5,245 91.5,245 86.5,255"/><polygon points=" 81.5,245 91.5,245 86.5,255"/><polygon points=" 81.5,245 91.5,245 86.5,255"/><polygon points=" 81.5,245 91.5,245 86.5,255"/><polygon points=" 81.5,245 91.5,245 86.5,255"/><polygon points=" 81.5,245 91.5,245 86.5,255"/><polygon points=" 81.5,245 91.5,245 86.5,255"/><polygon points=" 81.5,245 91.5,245 86.5,255"/></g>
<g id="legendBackground" stroke="rgb(255,255,0)" fill="rgb(255,255,224)" stroke-width="1"><rect x="562" y="43" width="123" height="90.7"/></g>
<g id="legendPoints"><g stroke="rgb(0,0,0)" fill="rgb(255,0,0)">
<text x="579" y="93.6" text-anchor="middle" font-size="14" font-family="Lucida Sans Unicode">&#x25CB;</text></g>
<g stroke="rgb(0,0,0)" fill="rgb(255,165,0)">
<text x="579" y="106" text-anchor="middle" font-size="5" font-family="Lucida Sans Unicode">&#x25CB;</text></g>
<g stroke="rgb(0,0,0)" fill="rgb(255,255,0)">
<text x="579" y="122" text-anchor="middle" font-size="14" font-family="Lucida Sans Unicode">&#x25A1;</text></g>
</g>
<g id="legendText">
<text x="624" y="70.7" text-anchor="middle" font-size="16" font-family="Lucida Sans Unicode" font-weight="normal" textLength="88">Unicode &#x3A9;&#x3A6;</text>
<text x="590" y="91.3" font-size="10" font-family="Lucida Sans Unicode" font-weight="normal">Sqrt(x)</text>
<text x="590" y="105" font-size="10" font-family="Lucida Sans Unicode" font-weight="normal">-2 + x^2</text>
<text x="590" y="119" font-size="10" font-family="Lucida Sans Unicode" font-weight="normal">-1 + 2x</text></g>
<g id="title" fill="rgb(255,0,0)">
<text x="350" y="30" text-anchor="middle" font-size="20" font-family="Lucida Sans Unicode" font-weight="normal">Plot of Mathematical Functions XP</text></g>
<g id="plotXValues"></g>
<g id="plotYValues"></g>
</svg>
