<?xml version="1.0" encoding="UTF-8" standalone="no"?>
<svg width="500" height ="200" version="1.1"
xmlns:svg ="http://www.w3.org/2000/svg"
xmlns:rdf="http://www.w3.org/1999/02/22-rdf-syntax-ns#"
xmlns:cc="http://web.resource.org/cc/"
xmlns:dc="http://purl.org/dc/elements/1.1/"
xmlns ="http://www.w3.org/2000/svg"
>
<!-- SVG plot written using Boost.Plot program (Creator Jacob Voytko) --> 
<!-- Use, modification and distribution of Boost.Plot subject to the --> 
<!-- Boost Software License, Version 1.0.--> 
<!-- (See accompanying file LICENSE_1_0.txt --> 
<!-- or copy at http://www.boost.org/LICENSE_1_0.txt) --> 

<!-- File demo_colors.svg --> 

<g id="imageBackground" stroke="rgb(255,255,0)" fill="rgb(255,255,255)" stroke-width="1">
	<rect x="0" y="0" width="500" height="200"/>
</g>

<g id="plotBackground" stroke="rgb(250,250,210)" fill="rgb(255,255,255)" stroke-width="1">
	<rect x="21" y="42.5" width="404" height="129"/>
</g>

<g id="xMinorGrid" stroke="rgb(200,220,255)" stroke-width="0.5">
</g>

<g id="xMajorGrid" stroke="rgb(200,220,255)" stroke-width="1">
</g>

<g id="xAxis" stroke="rgb(0,0,255)" stroke-width="1">
	<line x1="21" y1="42.5" x2="21" y2="172"/>
	<line x1="21" y1="110" x2="425" y2="110"/>
</g>

<g id="xMinorTicks" stroke="rgb(0,0,0)" stroke-width="1">
	<path d="M44.1,110 L44.1,112 
M67.1,110 L67.1,112 
M90.2,110 L90.2,112 
M113,110 L113,112 
M159,110 L159,112 
M182,110 L182,112 
M206,110 L206,112 
M229,110 L229,112 
M275,110 L275,112 
M298,110 L298,112 
M321,110 L321,112 
M344,110 L344,112 
M390,110 L390,112 
M413,110 L413,112 
" fill="none"/>
</g>

<g id="xMajorTicks" stroke="rgb(0,0,0)" stroke-width="2">
	<path d="M21,110 L21,114 
M136,110 L136,114 
M252,110 L252,114 
M367,110 L367,114 
M21,110 L21,114 
" fill="none"/>
</g>

<g id="xTicksValues">
	<text x="136" y="128" text-anchor="middle" font-size="10" font-family="Verdana">2
	</text>
	<text x="252" y="128" text-anchor="middle" font-size="10" font-family="Verdana">4
	</text>
	<text x="367" y="128" text-anchor="middle" font-size="10" font-family="Verdana">6
	</text>
</g>

<g id="xLabel" stroke="rgb(255,0,255)" fill="rgb(255,0,255)">
	<text x="223" y="188" text-anchor="middle" font-size="10" font-family="Verdana">axis
	</text>
</g>

<g id="plotPoints">

<g stroke="rgb(0,0,0)">
	<line x1="78.7" y1="109" x2="78.7" y2="99"/>
	<line x1="136" y1="109" x2="136" y2="99"/>
	<line x1="194" y1="109" x2="194" y2="99"/>
</g>
</g>

<g id="legendBackground" stroke="rgb(255,255,0)" fill="rgb(255,255,255)" stroke-width="1">
	<rect x="431" y="42.5" width="60.4" height="14.5"/>
</g>

<g id="legendPoints">

<g stroke="rgb(0,0,0)">
	<line x1="437" y1="60" x2="437" y2="50"/>
</g>
</g>

<g id="legendText">
	<text x="461" y="43.5" text-anchor="middle">Legend title
	</text>
	<text x="443" y="56" font-size="10" font-family="Verdana" textLength="44.4">My Data
	</text>
</g>

<g id="title">
	<text x="250" y="27" text-anchor="middle" font-size="18" font-family="Verdana">Demo SVG colors
	</text>
</g>
</svg>
