<?xml version="1.0" encoding="UTF-8" standalone="no"?>
<svg width="400" height ="300" version="1.1"
xmlns:svg ="http://www.w3.org/2000/svg"
xmlns:rdf="http://www.w3.org/1999/02/22-rdf-syntax-ns#"
xmlns:cc="http://web.resource.org/cc/"
xmlns:dc="http://purl.org/dc/elements/1.1/"
xmlns ="http://www.w3.org/2000/svg"
>
<!-- SVG plot written using Boost.Plot program (Creator Jacob Voytko) --> 
<!-- Use, modification and distribution of Boost.Plot subject to the --> 
<!-- Boost Software License, Version 1.0.--> 
<!-- (See accompanying file LICENSE_1_0.txt --> 
<!-- or copy at http://www.boost.org/LICENSE_1_0.txt) --> 

<clipPath id="plot_window"><rect x="33.7" y="3.5" width="363" height="270"/></clipPath>
<g id="imageBackground" stroke="rgb(255,255,0)" fill="rgb(255,255,255)" stroke-width="2"><rect x="0" y="0" width="400" height="300"/></g>
<g id="plotBackground" stroke="rgb(119,136,153)" fill="rgb(255,255,255)" stroke-width="2"><rect x="32.7" y="2.5" width="365" height="272"/></g>
<g id="yMinorGrid" stroke="rgb(200,220,255)" stroke-width="0.5"></g>
<g id="yMajorGrid" stroke="rgb(200,220,255)" stroke-width="1"></g>
<g id="xMinorGrid" stroke="rgb(200,220,255)" stroke-width="0.5"></g>
<g id="xMajorGrid" stroke="rgb(200,220,255)" stroke-width="1"></g>
<g id="yAxis" stroke="rgb(0,0,0)" stroke-width="1"><line x1="215" y1="2.5" x2="215" y2="280"/><line x1="32.7" y1="2.5" x2="32.7" y2="275"/></g>
<g id="xAxis" stroke="rgb(0,0,0)" stroke-width="1"><line x1="27.7" y1="139" x2="398" y2="139"/><line x1="27.7" y1="275" x2="398" y2="275"/></g>
<g id="yMinorTicks" stroke="rgb(0,0,0)" stroke-width="1"><path d="M30.7,133 L32.7,133 M30.7,128 L32.7,128 M30.7,122 L32.7,122 M30.7,117 L32.7,117 M30.7,106 L32.7,106 M30.7,100 L32.7,100 M30.7,95 L32.7,95 M30.7,89.5 L32.7,89.5 M30.7,78.7 L32.7,78.7 M30.7,73.2 L32.7,73.2 M30.7,67.8 L32.7,67.8 M30.7,62.3 L32.7,62.3 M30.7,51.5 L32.7,51.5 M30.7,46 L32.7,46 M30.7,40.6 L32.7,40.6 M30.7,35.1 L32.7,35.1 M30.7,24.3 L32.7,24.3 M30.7,18.8 L32.7,18.8 M30.7,13.4 L32.7,13.4 M30.7,7.94 L32.7,7.94 M30.7,139 L32.7,139 M30.7,144 L32.7,144 M30.7,149 L32.7,149 M30.7,155 L32.7,155 M30.7,160 L32.7,160 M30.7,166 L32.7,166 M30.7,171 L32.7,171 M30.7,177 L32.7,177 M30.7,182 L32.7,182 M30.7,187 L32.7,187 M30.7,193 L32.7,193 M30.7,193 L32.7,193 M30.7,198 L32.7,198 M30.7,204 L32.7,204 M30.7,209 L32.7,209 M30.7,215 L32.7,215 M30.7,220 L32.7,220 M30.7,226 L32.7,226 M30.7,231 L32.7,231 M30.7,236 L32.7,236 M30.7,242 L32.7,242 M30.7,247 L32.7,247 M30.7,253 L32.7,253 M30.7,258 L32.7,258 M30.7,264 L32.7,264 M30.7,269 L32.7,269 M30.7,275 L32.7,275 " fill="none"/></g>
<g id="xMinorTicks" stroke="rgb(0,0,0)" stroke-width="1"><path d="M222,275 L222,277 M230,275 L230,277 M237,275 L237,277 M244,275 L244,277 M259,275 L259,277 M266,275 L266,277 M273,275 L273,277 M281,275 L281,277 M295,275 L295,277 M303,275 L303,277 M310,275 L310,277 M317,275 L317,277 M332,275 L332,277 M339,275 L339,277 M346,275 L346,277 M354,275 L354,277 M368,275 L368,277 M376,275 L376,277 M383,275 L383,277 M390,275 L390,277 M208,275 L208,277 M201,275 L201,277 M193,275 L193,277 M186,275 L186,277 M171,275 L171,277 M164,275 L164,277 M157,275 L157,277 M149,275 L149,277 M135,275 L135,277 M128,275 L128,277 M120,275 L120,277 M113,275 L113,277 M98.4,275 L98.4,277 M91.1,275 L91.1,277 M83.8,275 L83.8,277 M76.5,275 L76.5,277 M61.9,275 L61.9,277 M54.6,275 L54.6,277 M47.3,275 L47.3,277 M40,275 L40,277 " fill="none"/></g>
<g id="yMajorTicks" stroke="rgb(0,0,0)" stroke-width="2"><path d="M27.7,139 L32.7,139 M27.7,111 L32.7,111 M27.7,84.1 L32.7,84.1 M27.7,56.9 L32.7,56.9 M27.7,29.7 L32.7,29.7 M27.7,2.5 L32.7,2.5 M27.7,139 L32.7,139 M27.7,166 L32.7,166 M27.7,193 L32.7,193 M27.7,220 L32.7,220 M27.7,247 L32.7,247 M27.7,275 L32.7,275 " fill="none"/></g>
<g id="xMajorTicks" stroke="rgb(0,0,0)" stroke-width="2"><path d="M215,275 L215,280 M252,275 L252,280 M288,275 L288,280 M325,275 L325,280 M361,275 L361,280 M398,275 L398,280 M215,275 L215,280 M179,275 L179,280 M142,275 L142,280 M106,275 L106,280 M69.2,275 L69.2,280 M32.7,275 L32.7,280 " fill="none"/></g>
<g id="xTicksValues">
<text x="215" y="295" text-anchor="middle" font-size="12" font-family="Lucida Sans Unicode">0</text>
<text x="252" y="295" text-anchor="middle" font-size="12" font-family="Lucida Sans Unicode">2</text>
<text x="288" y="295" text-anchor="middle" font-size="12" font-family="Lucida Sans Unicode">4</text>
<text x="325" y="295" text-anchor="middle" font-size="12" font-family="Lucida Sans Unicode">6</text>
<text x="361" y="295" text-anchor="middle" font-size="12" font-family="Lucida Sans Unicode">8</text>
<text x="398" y="295" text-anchor="middle" font-size="12" font-family="Lucida Sans Unicode">10</text>
<text x="215" y="295" text-anchor="middle" font-size="12" font-family="Lucida Sans Unicode">0</text>
<text x="179" y="295" text-anchor="middle" font-size="12" font-family="Lucida Sans Unicode">-2</text>
<text x="142" y="295" text-anchor="middle" font-size="12" font-family="Lucida Sans Unicode">-4</text>
<text x="106" y="295" text-anchor="middle" font-size="12" font-family="Lucida Sans Unicode">-6</text>
<text x="69.2" y="295" text-anchor="middle" font-size="12" font-family="Lucida Sans Unicode">-8</text>
<text x="32.7" y="295" text-anchor="middle" font-size="12" font-family="Lucida Sans Unicode">-10</text></g>
<g id="yTicksValues">
<text x="21.7" y="141" text-anchor="end" font-size="12" font-family="Lucida Sans Unicode">0</text>
<text x="21.7" y="114" text-anchor="end" font-size="12" font-family="Lucida Sans Unicode">2</text>
<text x="21.7" y="86.5" text-anchor="end" font-size="12" font-family="Lucida Sans Unicode">4</text>
<text x="21.7" y="59.3" text-anchor="end" font-size="12" font-family="Lucida Sans Unicode">6</text>
<text x="21.7" y="32.1" text-anchor="end" font-size="12" font-family="Lucida Sans Unicode">8</text>
<text x="21.7" y="4.9" text-anchor="end" font-size="12" font-family="Lucida Sans Unicode">10</text>
<text x="21.7" y="141" text-anchor="end" font-size="12" font-family="Lucida Sans Unicode">0</text>
<text x="21.7" y="168" text-anchor="end" font-size="12" font-family="Lucida Sans Unicode">-2</text>
<text x="21.7" y="195" text-anchor="end" font-size="12" font-family="Lucida Sans Unicode">-4</text>
<text x="21.7" y="223" text-anchor="end" font-size="12" font-family="Lucida Sans Unicode">-6</text>
<text x="21.7" y="250" text-anchor="end" font-size="12" font-family="Lucida Sans Unicode">-8</text>
<text x="21.7" y="277" text-anchor="end" font-size="12" font-family="Lucida Sans Unicode">-10</text></g>
<g id="yLabel">
<text x="-8.6" y="139" text-anchor="middle" transform = "rotate(-90 -8.6 139 )" font-size="14" font-family="Lucida Sans Unicode"></text></g>
<g id="xLabel">
<text x="215" y="310" text-anchor="middle" font-size="14" font-family="Lucida Sans Unicode"></text></g>
<g id="plotPoints" clip-path="url(#plot_window)"><g stroke="rgb(0,0,0)" fill="rgb(255,0,0)"><circle cx="220" cy="119" r="2"/><circle cx="235" cy="95" r="2"/><circle cx="294" cy="96.3" r="2"/></g>
</g>
<g id="title">
<text x="200" y="36" text-anchor="middle" font-size="18" font-family="Lucida Sans Unicode"></text></g>
<g id="plotXValues"></g>
<g id="plotYValues"></g>
<g fill="rgb(0,0,0)">
<text x="150" y="200" text-anchor="middle" font-size="12" font-family="Lucida Sans Unicode">My 1st Note</text></g>
<g fill="rgb(0,0,0)">
<text x="40" y="10" text-anchor="middle" font-size="12" font-family="Lucida Sans Unicode">top left (0, 0)</text></g>
<g fill="rgb(0,0,0)">
<text x="390" y="290" text-anchor="middle" font-size="12" font-family="Lucida Sans Unicode">bottom right(380, 280)</text></g>
<g fill="rgb(0,0,0)">
<text x="150" y="100" text-anchor="middle" font-size="12" font-family="Lucida Sans Unicode">Greek Unicode &#x3A9;&#x3A6;&#x221A;&#x00a0;&#x221E;&#x3B6; &#x00B1;</text></g>
<g fill="rgb(0,0,0)">
<text x="350" y="70" text-anchor="end" transform = "rotate(-30 350 70 )" font-size="16" font-family="verdana" font-style="bold" font-weight="italic">My 2nd Note</text></g>
<g fill="rgb(255,0,0)">
<text x="350" y="170" transform = "rotate(180 350 170 )" font-size="16" font-family="arial" font-style="bold" font-weight="italic">Red Note</text></g>
<g fill="rgb(0,0,255)">
<text x="300" y="210" text-anchor="middle" transform = "rotate(-60 300 210 )" font-size="12" font-family="Lucida Sans Unicode">Blue Note</text></g>
</svg>
