<?xml version="1.0" encoding="UTF-8" standalone="no"?>
<svg width="500" height ="400" version="1.1"
xmlns:svg ="http://www.w3.org/2000/svg"
xmlns:rdf="http://www.w3.org/1999/02/22-rdf-syntax-ns#"
xmlns:cc="http://web.resource.org/cc/"
xmlns:dc="http://purl.org/dc/elements/1.1/"
xmlns ="http://www.w3.org/2000/svg"
>
<!-- SVG plot written using Boost.Plot program (Creator Jacob Voytko) --> 
<!-- Use, modification and distribution of Boost.Plot subject to the --> 
<!-- Boost Software License, Version 1.0.--> 
<!-- (See accompanying file LICENSE_1_0.txt --> 
<!-- or copy at http://www.boost.org/LICENSE_1_0.txt) --> 

<clipPath id="plot_window">	<rect x="31.6" y="9" width="459" height="354"/>
</clipPath>
	<g id="imageBackground" stroke="rgb(255,255,0)" fill="rgb(255,255,255)" stroke-width="2">
	<rect x="0" y="0" width="500" height="400"/>
</g>
	<g id="plotBackground" stroke="rgb(119,136,153)" fill="rgb(255,255,255)" stroke-width="2">
	<rect x="30.6" y="8" width="461" height="356"/>
</g>
	<g id="yMinorGrid" stroke="rgb(200,220,255)" stroke-width="0.5">
</g>
	<g id="yMajorGrid" stroke="rgb(200,220,255)" stroke-width="1">
</g>
	<g id="xMinorGrid" stroke="rgb(200,220,255)" stroke-width="0.5">
</g>
	<g id="xMajorGrid" stroke="rgb(200,220,255)" stroke-width="1">
</g>
	<g id="yAxis" stroke="rgb(0,0,0)" stroke-width="1">
	<line x1="30.6" y1="8" x2="30.6" y2="369"/>
	<line x1="30.6" y1="8" x2="30.6" y2="364"/>
</g>
	<g id="xAxis" stroke="rgb(0,0,0)" stroke-width="1">
	<line x1="25.6" y1="364" x2="492" y2="364"/>
	<line x1="25.6" y1="364" x2="492" y2="364"/>
</g>
	<g id="yMinorTicks" stroke="rgb(0,0,0)" stroke-width="1">
	<path d="M28.6,336 L30.6,336 
M28.6,307 L30.6,307 
M28.6,279 L30.6,279 
M28.6,250 L30.6,250 
M28.6,193 L30.6,193 
M28.6,165 L30.6,165 
M28.6,136 L30.6,136 
M28.6,108 L30.6,108 
M28.6,50.8 L30.6,50.8 
M28.6,22.3 L30.6,22.3 
M28.6,364 L30.6,364 
" fill="none"/>
</g>
	<g id="xMinorTicks" stroke="rgb(0,0,0)" stroke-width="1">
	<path d="M39.8,364 L39.8,366 
M49,364 L49,366 
M58.3,364 L58.3,366 
M67.5,364 L67.5,366 
M86,364 L86,366 
M95.2,364 L95.2,366 
M104,364 L104,366 
M114,364 L114,366 
M132,364 L132,366 
M141,364 L141,366 
M151,364 L151,366 
M160,364 L160,366 
M178,364 L178,366 
M187,364 L187,366 
M197,364 L197,366 
M206,364 L206,366 
M224,364 L224,366 
M234,364 L234,366 
M243,364 L243,366 
M252,364 L252,366 
M271,364 L271,366 
M280,364 L280,366 
M289,364 L289,366 
M298,364 L298,366 
M317,364 L317,366 
M326,364 L326,366 
M335,364 L335,366 
M344,364 L344,366 
M363,364 L363,366 
M372,364 L372,366 
M381,364 L381,366 
M390,364 L390,366 
M409,364 L409,366 
M418,364 L418,366 
M427,364 L427,366 
M437,364 L437,366 
M455,364 L455,366 
M464,364 L464,366 
M474,364 L474,366 
M483,364 L483,366 
" fill="none"/>
</g>
	<g id="yMajorTicks" stroke="rgb(0,0,0)" stroke-width="2">
	<path d="M25.6,364 L30.6,364 
M25.6,222 L30.6,222 
M25.6,79.3 L30.6,79.3 
M25.6,364 L30.6,364 
" fill="none"/>
</g>
	<g id="xMajorTicks" stroke="rgb(0,0,0)" stroke-width="2">
	<path d="M30.6,364 L30.6,369 
M76.7,364 L76.7,369 
M123,364 L123,369 
M169,364 L169,369 
M215,364 L215,369 
M261,364 L261,369 
M307,364 L307,369 
M354,364 L354,369 
M400,364 L400,369 
M446,364 L446,369 
M492,364 L492,369 
M30.6,364 L30.6,369 
" fill="none"/>
</g>
	<g id="xTicksValues" font-size="12" font-family="Lucida Sans Unicode" text-anchor="middle">
	<text x="36.6" y="378">0
	</text>
	<text x="82.7" y="378">2
	</text>
	<text x="129" y="378">4
	</text>
	<text x="175" y="378">6
	</text>
	<text x="221" y="378">8
	</text>
	<text x="267" y="378">10
	</text>
	<text x="313" y="378">12
	</text>
	<text x="360" y="378">14
	</text>
	<text x="406" y="378">16
	</text>
	<text x="452" y="378">18
	</text>
	<text x="498" y="378">20
	</text>
	<text x="36.6" y="378">0
	</text>
</g>
	<g id="yTicksValues" font-size="12" font-family="Lucida Sans Unicode" text-anchor="end">
	<text x="23.2" y="362">0
	</text>
	<text x="23.2" y="219">2
	</text>
	<text x="23.2" y="76.9">4
	</text>
	<text x="23.2" y="362">0
	</text>
</g>
	<g id="yLabel">
	<text x="11.1" y="186" text-anchor="middle" transform="rotate(-90 11.1 186)" font-size="10" font-family="Lucida Sans Unicode">y (small X axis label font size 10)
	</text>
</g>
	<g id="xLabel">
	<text x="261" y="398" text-anchor="middle" font-size="10" font-family="Lucida Sans Unicode">x (small X axis label font size 10)
	</text>
</g>
	<g id="plotPoints" clip-path="url(#plot_window)">
	<g stroke="rgb(255,0,0)" fill="rgb(255,255,255)" font-size="10" font-family="Lucida Sans Unicode" text-anchor="middle">
	<text x="53.7" y="296" text-anchor="middle">&#x25CF;
	</text>
	<text x="76.7" y="266" text-anchor="middle">&#x25CF;
	</text>
	<text x="99.8" y="244" text-anchor="middle">&#x25CF;
	</text>
	<text x="123" y="225" text-anchor="middle">&#x25CF;
	</text>
	<text x="146" y="208" text-anchor="middle">&#x25CF;
	</text>
	<text x="169" y="193" text-anchor="middle">&#x25CF;
	</text>
	<text x="192" y="179" text-anchor="middle">&#x25CF;
	</text>
	<text x="215" y="166" text-anchor="middle">&#x25CF;
	</text>
	<text x="238" y="153" text-anchor="middle">&#x25CF;
	</text>
	<text x="261" y="142" text-anchor="middle">&#x25CF;
	</text>
	<text x="284" y="131" text-anchor="middle">&#x25CF;
	</text>
	<text x="307" y="120" text-anchor="middle">&#x25CF;
	</text>
	<text x="331" y="110" text-anchor="middle">&#x25CF;
	</text>
	<text x="354" y="101" text-anchor="middle">&#x25CF;
	</text>
	<text x="377" y="91.3" text-anchor="middle">&#x25CF;
	</text>
	<text x="400" y="82.2" text-anchor="middle">&#x25CF;
	</text>
	<text x="423" y="73.4" text-anchor="middle">&#x25CF;
	</text>
	<text x="446" y="64.9" text-anchor="middle">&#x25CF;
	</text>
	<text x="469" y="56.6" text-anchor="middle">&#x25CF;
	</text>
</g>
</g>
	<g id="title">
	<text x="250" y="27" text-anchor="middle" font-size="18" font-family="Lucida Sans Unicode" font-weight="normal">
	</text>
</g>
	<g id="plotXValues">
</g>
	<g id="plotYValues">
</g>
</svg>
