<?xml version="1.0" encoding="UTF-8" standalone="no"?>
<svg width="500" height ="200" version="1.1"
xmlns:svg ="http://www.w3.org/2000/svg"
xmlns:rdf="http://www.w3.org/1999/02/22-rdf-syntax-ns#"
xmlns:cc="http://web.resource.org/cc/"
xmlns:dc="http://purl.org/dc/elements/1.1/"
xmlns ="http://www.w3.org/2000/svg"
>
<!-- SVG plot written using Boost.Plot program (Creator Jacob Voytko) --> 
<!-- Use, modification and distribution of Boost.Plot subject to the --> 
<!-- Boost Software License, Version 1.0.--> 
<!-- (See accompanying file LICENSE_1_0.txt --> 
<!-- or copy at http://www.boost.org/LICENSE_1_0.txt) --> 

<!-- File ./demo_functions_1d_plot.svg --> 
	<g id="imageBackground" stroke="rgb(0,255,255)" fill="rgb(255,255,255)" stroke-width="1">
	<rect x="0" y="0" width="500" height="200"/>
</g>
	<g id="plotBackground" stroke="rgb(250,250,210)" fill="rgb(255,255,255)" stroke-width="1">
	<rect x="21" y="42.5" width="458" height="142"/>
</g>
	<g id="xMinorGrid" stroke="rgb(200,220,255)" stroke-width="0.5">
</g>
	<g id="xMajorGrid" stroke="rgb(200,220,255)" stroke-width="1">
</g>
	<g id="xAxis" stroke="rgb(0,0,0)" stroke-width="1">
	<line x1="21" y1="42.5" x2="21" y2="184"/>
	<line x1="21" y1="116" x2="479" y2="116"/>
</g>
	<g id="xMinorTicks" stroke="rgb(0,0,0)" stroke-width="1">
	<path d="M30.2,116 L30.2,118 
M39.3,116 L39.3,118 
M48.5,116 L48.5,118 
M57.6,116 L57.6,118 
M76,116 L76,118 
M85.1,116 L85.1,118 
M94.3,116 L94.3,118 
M103,116 L103,118 
M122,116 L122,118 
M131,116 L131,118 
M140,116 L140,118 
M149,116 L149,118 
M168,116 L168,118 
M177,116 L177,118 
M186,116 L186,118 
M195,116 L195,118 
M213,116 L213,118 
M223,116 L223,118 
M232,116 L232,118 
M241,116 L241,118 
M259,116 L259,118 
M268,116 L268,118 
M277,116 L277,118 
M287,116 L287,118 
M305,116 L305,118 
M314,116 L314,118 
M323,116 L323,118 
M332,116 L332,118 
M351,116 L351,118 
M360,116 L360,118 
M369,116 L369,118 
M378,116 L378,118 
M397,116 L397,118 
M406,116 L406,118 
M415,116 L415,118 
M424,116 L424,118 
M442,116 L442,118 
M452,116 L452,118 
M461,116 L461,118 
M470,116 L470,118 
" fill="none"/>
</g>
	<g id="xMajorTicks" stroke="rgb(0,0,0)" stroke-width="2">
	<path d="M21,116 L21,121 
M66.8,116 L66.8,121 
M113,116 L113,121 
M158,116 L158,121 
M204,116 L204,121 
M250,116 L250,121 
M296,116 L296,121 
M342,116 L342,121 
M387,116 L387,121 
M433,116 L433,121 
M479,116 L479,121 
M21,116 L21,121 
" fill="none"/>
</g>
	<g id="xTicksValues">
	<text x="66.8" y="134" text-anchor="middle" font-size="10" font-family="Verdana">10
	</text>
	<text x="113" y="134" text-anchor="middle" font-size="10" font-family="Verdana">20
	</text>
	<text x="158" y="134" text-anchor="middle" font-size="10" font-family="Verdana">30
	</text>
	<text x="204" y="134" text-anchor="middle" font-size="10" font-family="Verdana">40
	</text>
	<text x="250" y="134" text-anchor="middle" font-size="10" font-family="Verdana">50
	</text>
	<text x="296" y="134" text-anchor="middle" font-size="10" font-family="Verdana">60
	</text>
	<text x="342" y="134" text-anchor="middle" font-size="10" font-family="Verdana">70
	</text>
	<text x="387" y="134" text-anchor="middle" font-size="10" font-family="Verdana">80
	</text>
	<text x="433" y="134" text-anchor="middle" font-size="10" font-family="Verdana">90
	</text>
	<text x="479" y="134" text-anchor="middle" font-size="10" font-family="Verdana">100
	</text>
</g>
	<g id="xLabel">
	<text x="250" y="201" text-anchor="middle" font-size="10" font-family="Verdana">
	</text>
</g>
	<g id="plotPoints">
	<g stroke="rgb(0,0,255)">
	<line x1="479" y1="115" x2="479" y2="105"/>
	<line x1="403" y1="115" x2="403" y2="105"/>
	<line x1="348" y1="115" x2="348" y2="105"/>
	<line x1="307" y1="115" x2="307" y2="105"/>
	<line x1="275" y1="115" x2="275" y2="105"/>
	<line x1="250" y1="115" x2="250" y2="105"/>
	<line x1="229" y1="115" x2="229" y2="105"/>
	<line x1="212" y1="115" x2="212" y2="105"/>
	<line x1="197" y1="115" x2="197" y2="105"/>
	<line x1="185" y1="115" x2="185" y2="105"/>
	<line x1="174" y1="115" x2="174" y2="105"/>
	<line x1="164" y1="115" x2="164" y2="105"/>
	<line x1="156" y1="115" x2="156" y2="105"/>
	<line x1="148" y1="115" x2="148" y2="105"/>
	<line x1="142" y1="115" x2="142" y2="105"/>
	<line x1="135" y1="115" x2="135" y2="105"/>
	<line x1="130" y1="115" x2="130" y2="105"/>
	<line x1="125" y1="115" x2="125" y2="105"/>
	<line x1="121" y1="115" x2="121" y2="105"/>
	<line x1="116" y1="115" x2="116" y2="105"/>
	<line x1="113" y1="115" x2="113" y2="105"/>
	<line x1="109" y1="115" x2="109" y2="105"/>
	<line x1="106" y1="115" x2="106" y2="105"/>
	<line x1="103" y1="115" x2="103" y2="105"/>
	<line x1="100" y1="115" x2="100" y2="105"/>
	<line x1="97.3" y1="115" x2="97.3" y2="105"/>
	<line x1="94.9" y1="115" x2="94.9" y2="105"/>
	<line x1="92.6" y1="115" x2="92.6" y2="105"/>
	<line x1="90.4" y1="115" x2="90.4" y2="105"/>
	<line x1="88.4" y1="115" x2="88.4" y2="105"/>
	<line x1="86.4" y1="115" x2="86.4" y2="105"/>
	<line x1="84.6" y1="115" x2="84.6" y2="105"/>
	<line x1="82.9" y1="115" x2="82.9" y2="105"/>
	<line x1="81.3" y1="115" x2="81.3" y2="105"/>
	<line x1="79.7" y1="115" x2="79.7" y2="105"/>
	<line x1="78.2" y1="115" x2="78.2" y2="105"/>
	<line x1="76.9" y1="115" x2="76.9" y2="105"/>
	<line x1="75.5" y1="115" x2="75.5" y2="105"/>
	<line x1="74.3" y1="115" x2="74.3" y2="105"/>
	<line x1="73" y1="115" x2="73" y2="105"/>
	<line x1="71.9" y1="115" x2="71.9" y2="105"/>
	<line x1="70.8" y1="115" x2="70.8" y2="105"/>
	<line x1="69.7" y1="115" x2="69.7" y2="105"/>
	<line x1="68.7" y1="115" x2="68.7" y2="105"/>
	<line x1="67.7" y1="115" x2="67.7" y2="105"/>
	<line x1="66.8" y1="115" x2="66.8" y2="105"/>
	<line x1="65.9" y1="115" x2="65.9" y2="105"/>
	<line x1="65" y1="115" x2="65" y2="105"/>
	<line x1="64.2" y1="115" x2="64.2" y2="105"/>
	<line x1="63.4" y1="115" x2="63.4" y2="105"/>
	<line x1="62.6" y1="115" x2="62.6" y2="105"/>
	<line x1="61.9" y1="115" x2="61.9" y2="105"/>
	<line x1="61.2" y1="115" x2="61.2" y2="105"/>
	<line x1="60.5" y1="115" x2="60.5" y2="105"/>
	<line x1="59.8" y1="115" x2="59.8" y2="105"/>
	<line x1="59.2" y1="115" x2="59.2" y2="105"/>
	<line x1="58.5" y1="115" x2="58.5" y2="105"/>
	<line x1="57.9" y1="115" x2="57.9" y2="105"/>
	<line x1="57.3" y1="115" x2="57.3" y2="105"/>
	<line x1="56.8" y1="115" x2="56.8" y2="105"/>
	<line x1="56.2" y1="115" x2="56.2" y2="105"/>
	<line x1="55.7" y1="115" x2="55.7" y2="105"/>
	<line x1="55.2" y1="115" x2="55.2" y2="105"/>
	<line x1="54.7" y1="115" x2="54.7" y2="105"/>
	<line x1="54.2" y1="115" x2="54.2" y2="105"/>
	<line x1="53.7" y1="115" x2="53.7" y2="105"/>
	<line x1="53.3" y1="115" x2="53.3" y2="105"/>
	<line x1="52.8" y1="115" x2="52.8" y2="105"/>
	<line x1="52.4" y1="115" x2="52.4" y2="105"/>
	<line x1="51.9" y1="115" x2="51.9" y2="105"/>
	<line x1="51.5" y1="115" x2="51.5" y2="105"/>
	<line x1="51.1" y1="115" x2="51.1" y2="105"/>
	<line x1="50.7" y1="115" x2="50.7" y2="105"/>
	<line x1="50.4" y1="115" x2="50.4" y2="105"/>
	<line x1="50" y1="115" x2="50" y2="105"/>
	<line x1="49.6" y1="115" x2="49.6" y2="105"/>
	<line x1="49.3" y1="115" x2="49.3" y2="105"/>
	<line x1="48.9" y1="115" x2="48.9" y2="105"/>
	<line x1="48.6" y1="115" x2="48.6" y2="105"/>
	<line x1="48.3" y1="115" x2="48.3" y2="105"/>
	<line x1="47.9" y1="115" x2="47.9" y2="105"/>
	<line x1="47.6" y1="115" x2="47.6" y2="105"/>
	<line x1="47.3" y1="115" x2="47.3" y2="105"/>
	<line x1="47" y1="115" x2="47" y2="105"/>
	<line x1="46.7" y1="115" x2="46.7" y2="105"/>
	<line x1="46.4" y1="115" x2="46.4" y2="105"/>
	<line x1="46.2" y1="115" x2="46.2" y2="105"/>
	<line x1="45.9" y1="115" x2="45.9" y2="105"/>
	<line x1="45.6" y1="115" x2="45.6" y2="105"/>
	<line x1="45.4" y1="115" x2="45.4" y2="105"/>
	<line x1="45.1" y1="115" x2="45.1" y2="105"/>
	<line x1="44.9" y1="115" x2="44.9" y2="105"/>
	<line x1="44.6" y1="115" x2="44.6" y2="105"/>
	<line x1="44.4" y1="115" x2="44.4" y2="105"/>
	<line x1="44.1" y1="115" x2="44.1" y2="105"/>
	<line x1="43.9" y1="115" x2="43.9" y2="105"/>
</g>
	<g stroke="rgb(255,0,0)">
	<line x1="186" y1="115" x2="186" y2="105"/>
	<line x1="234" y1="115" x2="234" y2="105"/>
	<line x1="370" y1="115" x2="370" y2="105"/>
	<line x1="400" y1="115" x2="400" y2="105"/>
	<line x1="281" y1="115" x2="281" y2="105"/>
	<line x1="183" y1="115" x2="183" y2="105"/>
	<line x1="247" y1="115" x2="247" y2="105"/>
	<line x1="381" y1="115" x2="381" y2="105"/>
	<line x1="393" y1="115" x2="393" y2="105"/>
	<line x1="266" y1="115" x2="266" y2="105"/>
	<line x1="181" y1="115" x2="181" y2="105"/>
	<line x1="261" y1="115" x2="261" y2="105"/>
	<line x1="390" y1="115" x2="390" y2="105"/>
	<line x1="384" y1="115" x2="384" y2="105"/>
	<line x1="251" y1="115" x2="251" y2="105"/>
	<line x1="182" y1="115" x2="182" y2="105"/>
	<line x1="276" y1="115" x2="276" y2="105"/>
	<line x1="398" y1="115" x2="398" y2="105"/>
	<line x1="374" y1="115" x2="374" y2="105"/>
	<line x1="238" y1="115" x2="238" y2="105"/>
	<line x1="185" y1="115" x2="185" y2="105"/>
	<line x1="291" y1="115" x2="291" y2="105"/>
	<line x1="404" y1="115" x2="404" y2="105"/>
	<line x1="362" y1="115" x2="362" y2="105"/>
	<line x1="225" y1="115" x2="225" y2="105"/>
	<line x1="189" y1="115" x2="189" y2="105"/>
	<line x1="306" y1="115" x2="306" y2="105"/>
	<line x1="408" y1="115" x2="408" y2="105"/>
	<line x1="349" y1="115" x2="349" y2="105"/>
	<line x1="214" y1="115" x2="214" y2="105"/>
	<line x1="196" y1="115" x2="196" y2="105"/>
	<line x1="321" y1="115" x2="321" y2="105"/>
	<line x1="410" y1="115" x2="410" y2="105"/>
	<line x1="335" y1="115" x2="335" y2="105"/>
	<line x1="204" y1="115" x2="204" y2="105"/>
	<line x1="204" y1="115" x2="204" y2="105"/>
	<line x1="335" y1="115" x2="335" y2="105"/>
	<line x1="410" y1="115" x2="410" y2="105"/>
	<line x1="321" y1="115" x2="321" y2="105"/>
	<line x1="196" y1="115" x2="196" y2="105"/>
	<line x1="214" y1="115" x2="214" y2="105"/>
	<line x1="349" y1="115" x2="349" y2="105"/>
	<line x1="408" y1="115" x2="408" y2="105"/>
	<line x1="306" y1="115" x2="306" y2="105"/>
	<line x1="189" y1="115" x2="189" y2="105"/>
	<line x1="225" y1="115" x2="225" y2="105"/>
	<line x1="362" y1="115" x2="362" y2="105"/>
	<line x1="404" y1="115" x2="404" y2="105"/>
	<line x1="291" y1="115" x2="291" y2="105"/>
	<line x1="185" y1="115" x2="185" y2="105"/>
	<line x1="238" y1="115" x2="238" y2="105"/>
	<line x1="374" y1="115" x2="374" y2="105"/>
	<line x1="398" y1="115" x2="398" y2="105"/>
	<line x1="276" y1="115" x2="276" y2="105"/>
	<line x1="182" y1="115" x2="182" y2="105"/>
	<line x1="251" y1="115" x2="251" y2="105"/>
	<line x1="384" y1="115" x2="384" y2="105"/>
	<line x1="390" y1="115" x2="390" y2="105"/>
	<line x1="261" y1="115" x2="261" y2="105"/>
	<line x1="181" y1="115" x2="181" y2="105"/>
	<line x1="266" y1="115" x2="266" y2="105"/>
	<line x1="393" y1="115" x2="393" y2="105"/>
	<line x1="381" y1="115" x2="381" y2="105"/>
	<line x1="247" y1="115" x2="247" y2="105"/>
	<line x1="183" y1="115" x2="183" y2="105"/>
	<line x1="281" y1="115" x2="281" y2="105"/>
	<line x1="400" y1="115" x2="400" y2="105"/>
	<line x1="370" y1="115" x2="370" y2="105"/>
	<line x1="234" y1="115" x2="234" y2="105"/>
	<line x1="186" y1="115" x2="186" y2="105"/>
	<line x1="296" y1="115" x2="296" y2="105"/>
	<line x1="406" y1="115" x2="406" y2="105"/>
	<line x1="358" y1="115" x2="358" y2="105"/>
	<line x1="221" y1="115" x2="221" y2="105"/>
	<line x1="191" y1="115" x2="191" y2="105"/>
	<line x1="311" y1="115" x2="311" y2="105"/>
	<line x1="409" y1="115" x2="409" y2="105"/>
	<line x1="345" y1="115" x2="345" y2="105"/>
	<line x1="210" y1="115" x2="210" y2="105"/>
	<line x1="198" y1="115" x2="198" y2="105"/>
	<line x1="326" y1="115" x2="326" y2="105"/>
	<line x1="410" y1="115" x2="410" y2="105"/>
	<line x1="331" y1="115" x2="331" y2="105"/>
	<line x1="201" y1="115" x2="201" y2="105"/>
	<line x1="207" y1="115" x2="207" y2="105"/>
	<line x1="340" y1="115" x2="340" y2="105"/>
	<line x1="410" y1="115" x2="410" y2="105"/>
	<line x1="316" y1="115" x2="316" y2="105"/>
	<line x1="193" y1="115" x2="193" y2="105"/>
	<line x1="218" y1="115" x2="218" y2="105"/>
	<line x1="354" y1="115" x2="354" y2="105"/>
	<line x1="407" y1="115" x2="407" y2="105"/>
	<line x1="301" y1="115" x2="301" y2="105"/>
	<line x1="188" y1="115" x2="188" y2="105"/>
	<line x1="229" y1="115" x2="229" y2="105"/>
	<line x1="366" y1="115" x2="366" y2="105"/>
	<line x1="402" y1="115" x2="402" y2="105"/>
	<line x1="286" y1="115" x2="286" y2="105"/>
	<line x1="184" y1="115" x2="184" y2="105"/>
	<line x1="242" y1="115" x2="242" y2="105"/>
</g>
</g>
	<g id="title">
	<text x="250" y="27" text-anchor="middle" font-size="18" font-family="Verdana"> 1D plots of example sin functions
	</text>
</g>
</svg>
