<?xml version="1.0" encoding="UTF-8" standalone="no"?>
<svg width="500" height ="200" version="1.1"
xmlns:svg ="http://www.w3.org/2000/svg"
xmlns:rdf="http://www.w3.org/1999/02/22-rdf-syntax-ns#"
xmlns:cc="http://web.resource.org/cc/"
xmlns:dc="http://purl.org/dc/elements/1.1/"
xmlns ="http://www.w3.org/2000/svg"
>
<!-- SVG plot written using Boost.Plot program (Creator Jacob Voytko) --> 
<!-- Use, modification and distribution of Boost.Plot subject to the --> 
<!-- Boost Software License, Version 1.0.--> 
<!-- (See accompanying file LICENSE_1_0.txt --> 
<!-- or copy at http://www.boost.org/LICENSE_1_0.txt) --> 

<!-- File ./demo_1d_array_long_double.svg --> 
<g id="imageBackground" stroke="rgb(255,255,0)" fill="rgb(255,255,255)" stroke-width="1">
	<rect x="0" y="0" width="500" height="200"/>
</g>
<g id="plotBackground" stroke="rgb(250,250,210)" fill="rgb(255,255,255)" stroke-width="1">
	<rect x="21" y="42.5" width="458" height="142"/>
</g>
<g id="xMinorGrid" stroke="rgb(200,220,255)" stroke-width="0.5">
</g>
<g id="xMajorGrid" stroke="rgb(200,220,255)" stroke-width="1">
</g>
<g id="xAxis" stroke="rgb(0,0,0)" stroke-width="1">
<line x1="250" y1="42.5" x2="250" y2="184"/><line x1="21" y1="116" x2="479" y2="116"/></g>
<g id="xMinorTicks" stroke="rgb(0,0,0)" stroke-width="1">
<path d="M259,116 L259,118 M268,116 L268,118 M277,116 L277,118 M287,116 L287,118 M305,116 L305,118 M314,116 L314,118 M323,116 L323,118 M332,116 L332,118 M351,116 L351,118 M360,116 L360,118 M369,116 L369,118 M378,116 L378,118 M397,116 L397,118 M406,116 L406,118 M415,116 L415,118 M424,116 L424,118 M442,116 L442,118 M452,116 L452,118 M461,116 L461,118 M470,116 L470,118 M241,116 L241,118 M232,116 L232,118 M223,116 L223,118 M213,116 L213,118 M195,116 L195,118 M186,116 L186,118 M177,116 L177,118 M168,116 L168,118 M149,116 L149,118 M140,116 L140,118 M131,116 L131,118 M122,116 L122,118 M103,116 L103,118 M94.3,116 L94.3,118 M85.1,116 L85.1,118 M76,116 L76,118 M57.6,116 L57.6,118 M48.5,116 L48.5,118 M39.3,116 L39.3,118 M30.2,116 L30.2,118 " fill="none"/></g>
<g id="xMajorTicks" stroke="rgb(0,0,0)" stroke-width="2">
<path d="M250,116 L250,121 M296,116 L296,121 M342,116 L342,121 M387,116 L387,121 M433,116 L433,121 M479,116 L479,121 M250,116 L250,121 M204,116 L204,121 M158,116 L158,121 M113,116 L113,121 M66.8,116 L66.8,121 M21,116 L21,121 " fill="none"/></g>
<g id="xTicksValues">
	<text x="296" y="134" text-anchor="middle" font-size="10" font-family="Verdana">2</text>
	<text x="342" y="134" text-anchor="middle" font-size="10" font-family="Verdana">4</text>
	<text x="387" y="134" text-anchor="middle" font-size="10" font-family="Verdana">6</text>
	<text x="433" y="134" text-anchor="middle" font-size="10" font-family="Verdana">8</text>
	<text x="479" y="134" text-anchor="middle" font-size="10" font-family="Verdana">10</text>
	<text x="204" y="134" text-anchor="middle" font-size="10" font-family="Verdana">-2</text>
	<text x="158" y="134" text-anchor="middle" font-size="10" font-family="Verdana">-4</text>
	<text x="113" y="134" text-anchor="middle" font-size="10" font-family="Verdana">-6</text>
	<text x="66.8" y="134" text-anchor="middle" font-size="10" font-family="Verdana">-8</text>
	<text x="21" y="134" text-anchor="middle" font-size="10" font-family="Verdana">-10</text>
</g>
<g id="xLabel">
	<text x="250" y="201" text-anchor="middle" font-size="10" font-family="Verdana"></text>
</g>
<g id="plotPoints">
<g stroke="rgb(0,0,0)">
<line x1="321" y1="115" x2="321" y2="105"/><line x1="124" y1="115" x2="124" y2="105"/><line x1="449" y1="115" x2="449" y2="105"/><line x1="261" y1="115" x2="261" y2="105"/></g>
</g>
<g id="title">
	<text x="250" y="27" text-anchor="middle" font-size="18" font-family="Verdana">array&lt;long double&gt; example</text>
</g>
</svg>
