<?xml version="1.0" encoding="UTF-8" standalone="no"?>
<svg width="500" height ="250" version="1.1"
xmlns:svg ="http://www.w3.org/2000/svg"
xmlns:rdf="http://www.w3.org/1999/02/22-rdf-syntax-ns#"
xmlns:cc="http://web.resource.org/cc/"
xmlns:dc="http://purl.org/dc/elements/1.1/"
xmlns ="http://www.w3.org/2000/svg"
>
<!-- SVG plot written using Boost.Plot program (Creator Jacob Voytko) --> 
<!-- Use, modification and distribution of Boost.Plot subject to the --> 
<!-- Boost Software License, Version 1.0.--> 
<!-- (See accompanying file LICENSE_1_0.txt --> 
<!-- or copy at http://www.boost.org/LICENSE_1_0.txt) --> 

<!-- SVG Plot Copyright Paul A. Bristow 2008-03-29 --> 
<meta name="copyright" content="Paul A. Bristow" />
<meta name="date" content="2008-03-29" />
<!-- My demo_1d_plot description --> 
<desc>My demo_1d_plot description</desc>
<title>Document title demo_1d_plot</title>
<!-- File demo_1d_plot.svg --> 
<metadata id = "id0">
<rdf:RDF>
<cc:Work rdf:about="demo_1d_plot.svg">
<dc:format>image/svg+xml</dc:format>
<dc:type rdf:resource="http://purl.org/dc/dcmitype/StillImage" />
<dc:title> Document title demo_1d_plot</dc:title>
<dc:creator> <cc:Agent> <dc:title>Boost.Plot</dc:title> </cc:Agent></dc:creator>
<dc:author><cc:Agent><dc:title>Paul A. Bristow </dc:title> </cc:Agent> </dc:author>
<dc:rights><cc:Agent><dc:title>Paul A. Bristow</dc:title></cc:Agent></dc:rights>
<dc:date>2008-03-29</dc:date>
<dc:identifier>demo_1d_plot.svg</dc:identifier>
<dc:source>Boost.plot 0.5</dc:source>
<dc:relation></dc:relation>
<dc:publisher><cc:Agent><dc:title>Paul A. Bristow</dc:title></cc:Agent></dc:publisher>
<dc:language>en_US</dc:language>
<dc:description>My demo_1d_plot description</dc:description>
<dc:contributor><cc:Agent><dc:title>Paul A. Bristow</dc:title></cc:Agent></dc:contributor>
<dc:subject><rdf:Bag><rdf:li>Boost svg plot keyword</rdf:li></rdf:Bag></dc:subject>
<cc:license rdf:resource="http://creativecommons.org/licenses/" />
</cc:Work>
<cc:License rdf:about="http://creativecommons.org/licenses/">
<cc:permits rdf:resource="http://web.resource.org/cc/Reproduction"/>
<cc:permits rdf:resource="http://web.resource.org/cc/Distribution"/>
<cc:requires rdf:resource="http://web.resource.org/cc/Notice"/>
<cc:requires rdf:resource="http://web.resource.org/cc/Attribution"/>
<cc:permits rdf:resource="http://web.resource.org/cc/CommercialUse"/>
<cc:permits rdf:resource="http://web.resource.org/cc/DerivativeWorks"/>
</cc:License>
</rdf:RDF>
</metadata>
<g id="imageBackground" stroke="rgb(0,255,255)" fill="rgb(248,248,255)" stroke-width="10"><rect x="0" y="0" width="500" height="250"/></g>
<g id="plotBackground" stroke="rgb(255,192,203)" fill="rgb(240,248,255)" stroke-width="5"><rect x="21" y="46" width="363.8" height="170.5"/></g>
<g id="xMinorGrid" stroke="rgb(255,192,203)" stroke-width="1"><path d="M84.66,51 L84.66,211.5 M102.9,51 L102.9,211.5 M121,51 L121,211.5 M139.2,51 L139.2,211.5 M175.6,51 L175.6,211.5 M193.8,51 L193.8,211.5 M212,51 L212,211.5 M230.2,51 L230.2,211.5 M266.6,51 L266.6,211.5 M284.8,51 L284.8,211.5 M302.9,51 L302.9,211.5 M321.1,51 L321.1,211.5 M357.5,51 L357.5,211.5 M375.7,51 L375.7,211.5 M48.28,51 L48.28,211.5 M30.09,51 L30.09,211.5 " fill="none"/></g>
<g id="xMajorGrid" stroke="rgb(173,216,230)" stroke-width="2"><path d="M66.47,46 L66.47,216.5 M157.4,46 L157.4,216.5 M248.4,46 L248.4,216.5 M339.3,46 L339.3,216.5 M66.47,46 L66.47,216.5 " fill="none"/></g>
<g id="xAxis" stroke="rgb(0,0,255)" stroke-width="1"><line x1="66.47" y1="46" x2="66.47" y2="216.5"/><line x1="21" y1="136.2" x2="384.8" y2="136.2"/></g>
<g id="xMinorTicks" stroke="rgb(0,0,0)" stroke-width="1"><path d="M84.66,129.2 L84.66,143.2 M102.9,129.2 L102.9,143.2 M121,129.2 L121,143.2 M139.2,129.2 L139.2,143.2 M175.6,129.2 L175.6,143.2 M193.8,129.2 L193.8,143.2 M212,129.2 L212,143.2 M230.2,129.2 L230.2,143.2 M266.6,129.2 L266.6,143.2 M284.8,129.2 L284.8,143.2 M302.9,129.2 L302.9,143.2 M321.1,129.2 L321.1,143.2 M357.5,129.2 L357.5,143.2 M375.7,129.2 L375.7,143.2 M48.28,129.2 L48.28,143.2 M30.09,129.2 L30.09,143.2 " fill="none"/></g>
<g id="xMajorTicks" stroke="rgb(0,0,0)" stroke-width="3"><path d="M66.47,126.2 L66.47,146.2 M157.4,126.2 L157.4,146.2 M248.4,126.2 L248.4,146.2 M339.3,126.2 L339.3,146.2 M66.47,126.2 L66.47,146.2 " fill="none"/></g>
<g id="xTicksValues">
<text x="157.4" y="159.2" text-anchor="middle" font-size="10" font-family="Verdana">2</text>
<text x="248.4" y="159.2" text-anchor="middle" font-size="10" font-family="Verdana">4</text>
<text x="339.3" y="159.2" text-anchor="middle" font-size="10" font-family="Verdana">6</text></g>
<g id="xLabel" stroke="rgb(0,0,255)" fill="rgb(0,0,255)">
<text x="202.9" y="236.9" text-anchor="middle" font-size="12" font-family="Lucida sans unicode">volume (meter&#179; or m&#179;)</text></g>
<g id="plotPoints"><g stroke="rgb(255,0,0)" fill="rgb(0,0,255)">
<text x="98.31" y="131.3" text-anchor="middle" font-size="10" font-family="Lucida Sans Unicode">&#x2666;</text>
<text x="180.2" y="131.3" text-anchor="middle" font-size="10" font-family="Lucida Sans Unicode">&#x2666;</text>
<text x="330.2" y="131.3" text-anchor="middle" font-size="10" font-family="Lucida Sans Unicode">&#x2666;</text></g>
<g stroke="rgb(0,0,0)">
<text x="111.9" y="134.3" text-anchor="middle" font-size="20" font-family="Lucida Sans Unicode"></text>
<text x="157.4" y="134.3" text-anchor="middle" font-size="20" font-family="Lucida Sans Unicode"></text>
<text x="202.9" y="134.3" text-anchor="middle" font-size="20" font-family="Lucida Sans Unicode"></text>
<text x="339.3" y="134.3" text-anchor="middle" font-size="20" font-family="Lucida Sans Unicode"></text>
<text x="384.8" y="134.3" text-anchor="middle" font-size="20" font-family="Lucida Sans Unicode"></text></g>
<g stroke="rgb(255,0,255)" fill="rgb(0,255,255)">
<text x="66.47" y="129.8" text-anchor="middle" font-size="5" font-family="Lucida Sans Unicode">&#x25BD;</text>
<text x="111.9" y="129.8" text-anchor="middle" font-size="5" font-family="Lucida Sans Unicode">&#x25BD;</text>
<text x="66.47" y="129.8" text-anchor="middle" font-size="5" font-family="Lucida Sans Unicode">&#x25BD;</text></g>
</g>
<g id="limitPoints" stroke="rgb(255,0,0)" fill="rgb(255,255,255)">
<text x="389.8" y="149.3" text-anchor="middle" font-size="10" font-family="Lucida Sans Unicode">&#x25B9;</text>
<text x="66.47" y="152.3" text-anchor="middle" font-size="20" font-family="Lucida Sans Unicode">&#x25BD;</text>
<text x="389.8" y="149.3" text-anchor="middle" font-size="10" font-family="Lucida Sans Unicode">&#x25B9;</text></g>
<g id="legendBackground" stroke="rgb(210,105,30)" fill="rgb(245,245,220)" stroke-width="1"><rect x="390.3" y="46" width="99.7" height="97"/></g>
<g id="legendPoints"><g stroke="rgb(255,0,0)" fill="rgb(0,0,255)">
<text x="406.8" y="93.03" text-anchor="middle" font-size="10" font-family="Lucida Sans Unicode">&#x2666;</text></g>
<g stroke="rgb(0,0,0)">
<text x="406.8" y="114.1" text-anchor="middle" font-size="20" font-family="Lucida Sans Unicode"></text></g>
<g stroke="rgb(255,0,255)" fill="rgb(0,255,255)">
<text x="406.8" y="132.5" text-anchor="middle" font-size="5" font-family="Lucida Sans Unicode">&#x25BD;</text></g>
</g>
<g id="legendText" fill="rgb(0,100,0)">
<text x="440.2" y="67" text-anchor="middle" font-size="12" font-family="arial" font-weight="bold" textLength="72.6">My Legend &#956;</text>
<text x="422.7" y="92" font-size="10" font-family="Verdana">data3</text>
<text x="422.7" y="112" font-size="10" font-family="Verdana">data4</text>
<text x="422.7" y="132" font-size="10" font-family="Verdana">data5</text></g>
<g id="title" fill="rgb(255,0,255)">
<text x="250" y="30" text-anchor="middle" font-size="20" font-family="Times New Roman">Demo 1D plot <sup>-&#945; </sup> &#x3A9; &#x3A6; &#x221A; &#x221E; &#x3B6; &#x00B1;</text></g>
</svg>
