<?xml version="1.0" encoding="UTF-8" standalone="no"?>
<svg width="500" height ="400" version="1.1"
xmlns:svg ="http://www.w3.org/2000/svg"
xmlns:rdf="http://www.w3.org/1999/02/22-rdf-syntax-ns#"
xmlns:cc="http://web.resource.org/cc/"
xmlns:dc="http://purl.org/dc/elements/1.1/"
xmlns ="http://www.w3.org/2000/svg"
>
<!-- SVG plot written using Boost.Plot program (Creator Jacob Voytko) --> 
<!-- Use, modification and distribution of Boost.Plot subject to the --> 
<!-- Boost Software License, Version 1.0.--> 
<!-- (See accompanying file LICENSE_1_0.txt --> 
<!-- or copy at http://www.boost.org/LICENSE_1_0.txt) --> 

<clipPath id="plot_window"><rect x="46.4" y="45" width="427" height="305"/></clipPath>
<g id="imageBackground" stroke="rgb(255,255,0)" fill="rgb(255,255,255)" stroke-width="2"><rect x="0" y="0" width="500" height="400"/></g>
<g id="plotBackground" stroke="rgb(119,136,153)" fill="rgb(255,255,255)" stroke-width="2"><rect x="45.4" y="44" width="429" height="307"/></g>
<g id="yMinorGrid" stroke="rgb(200,220,255)" stroke-width="0.5"></g>
<g id="yMajorGrid" stroke="rgb(200,220,255)" stroke-width="1"></g>
<g id="xMinorGrid" stroke="rgb(200,220,255)" stroke-width="0.5"></g>
<g id="xMajorGrid" stroke="rgb(200,220,255)" stroke-width="1"></g>
<g id="yAxis" stroke="rgb(0,0,0)" stroke-width="1"><line x1="260" y1="44" x2="260" y2="356"/><line x1="45.4" y1="44" x2="45.4" y2="351"/></g>
<g id="xAxis" stroke="rgb(0,0,0)" stroke-width="1"><line x1="40.4" y1="198" x2="474" y2="198"/><line x1="40.4" y1="351" x2="474" y2="351"/></g>
<g id="yMinorTicks" stroke="rgb(0,0,0)" stroke-width="1"><path d="M43.4,185 L45.4,185 M43.4,173 L45.4,173 M43.4,161 L45.4,161 M43.4,148 L45.4,148 M43.4,124 L45.4,124 M43.4,112 L45.4,112 M43.4,99.3 L45.4,99.3 M43.4,87 L45.4,87 M43.4,62.4 L45.4,62.4 M43.4,50.1 L45.4,50.1 M43.4,198 L45.4,198 M43.4,210 L45.4,210 M43.4,222 L45.4,222 M43.4,234 L45.4,234 M43.4,247 L45.4,247 M43.4,259 L45.4,259 M43.4,271 L45.4,271 M43.4,283 L45.4,283 M43.4,296 L45.4,296 M43.4,308 L45.4,308 M43.4,320 L45.4,320 M43.4,320 L45.4,320 M43.4,333 L45.4,333 M43.4,345 L45.4,345 " fill="none"/></g>
<g id="xMinorTicks" stroke="rgb(0,0,0)" stroke-width="1"><path d="M277,351 L277,353 M294,351 L294,353 M311,351 L311,353 M328,351 L328,353 M363,351 L363,353 M380,351 L380,353 M397,351 L397,353 M414,351 L414,353 M448,351 L448,353 M465,351 L465,353 M243,351 L243,353 M225,351 L225,353 M208,351 L208,353 M191,351 L191,353 M157,351 L157,353 M140,351 L140,353 M123,351 L123,353 M105,351 L105,353 M71.1,351 L71.1,353 M54,351 L54,353 " fill="none"/></g>
<g id="yMajorTicks" stroke="rgb(0,0,0)" stroke-width="2"><path d="M40.4,198 L45.4,198 M40.4,136 L45.4,136 M40.4,74.7 L45.4,74.7 M40.4,198 L45.4,198 M40.4,259 L45.4,259 M40.4,320 L45.4,320 " fill="none"/></g>
<g id="xMajorTicks" stroke="rgb(0,0,0)" stroke-width="2"><path d="M260,351 L260,356 M345,351 L345,356 M431,351 L431,356 M260,351 L260,356 M174,351 L174,356 M88.3,351 L88.3,356 " fill="none"/></g>
<g id="xTicksValues">
<text x="260" y="372" text-anchor="middle" font-size="12" font-family="Lucida Sans Unicode">0</text>
<text x="345" y="372" text-anchor="middle" font-size="12" font-family="Lucida Sans Unicode">2</text>
<text x="431" y="372" text-anchor="middle" font-size="12" font-family="Lucida Sans Unicode">4</text>
<text x="260" y="372" text-anchor="middle" font-size="12" font-family="Lucida Sans Unicode">0</text>
<text x="174" y="372" text-anchor="middle" font-size="12" font-family="Lucida Sans Unicode">-2</text>
<text x="88.3" y="372" text-anchor="middle" font-size="12" font-family="Lucida Sans Unicode">-4</text></g>
<g id="yTicksValues">
<text x="34.4" y="200" text-anchor="end" font-size="12" font-family="Lucida Sans Unicode">0</text>
<text x="34.4" y="139" text-anchor="end" font-size="12" font-family="Lucida Sans Unicode">2</text>
<text x="34.4" y="77.1" text-anchor="end" font-size="12" font-family="Lucida Sans Unicode">4</text>
<text x="34.4" y="200" text-anchor="end" font-size="12" font-family="Lucida Sans Unicode">0</text>
<text x="34.4" y="261" text-anchor="end" font-size="12" font-family="Lucida Sans Unicode">-2</text>
<text x="34.4" y="323" text-anchor="end" font-size="12" font-family="Lucida Sans Unicode">-4</text></g>
<g id="yLabel">
<text x="14.9" y="198" text-anchor="middle" transform = "rotate(-90 14.9 198 )" font-size="14" font-family="Lucida Sans Unicode"></text></g>
<g id="xLabel">
<text x="260" y="384" text-anchor="middle" font-size="12" font-family="Lucida Sans Unicode">time (s)</text></g>
<g id="plotPoints" clip-path="url(#plot_window)"><g stroke="rgb(0,0,0)" fill="rgb(255,255,255)">
<text x="270" y="156" text-anchor="middle" font-size="5" font-family="Lucida Sans Unicode">&#x25CB;</text>
<text x="307" y="101" text-anchor="middle" font-size="5" font-family="Lucida Sans Unicode">&#x25CB;</text>
<text x="444" y="104" text-anchor="middle" font-size="5" font-family="Lucida Sans Unicode">&#x25CB;</text></g>
</g>
<g id="limitPoints" stroke="rgb(0,0,255)" fill="rgb(255,192,203)"><polygon points=" 40.4,341 50.4,341 45.4,351"/><polygon points=" 40.4,126 50.4,126 45.4,136"/><polygon points=" 40.4,95.4 50.4,95.4 45.4,105"/><polygon points=" 212,341 222,341 217,351"/><polygon points=" 255,188 265,188 260,198"/><polygon points=" 298,34 308,34 303,44"/><polygon points=" 383,188 393,188 388,198"/><polygon points=" 469,126 479,126 474,136"/><polygon points=" 469,34 479,34 474,44"/></g>
<g id="title">
<text x="250" y="27" text-anchor="middle" font-size="18" font-family="Lucida Sans Unicode" font-weight="normal">Default 2D 'at limits' NaN and infinities Demo</text></g>
<g id="plotXValues"><g>
<text x="270" y="145" text-anchor="middle" font-size="12" font-family="Lucida Sans Unicode">0.25<tspan fill="rgb(0,0,0)" font-size="12" font-family="Lucida Sans Unicode"></tspan><tspan fill="rgb(0,0,0)" font-size="12" font-family="Lucida Sans Unicode"></tspan><tspan font-size="12" font-family="Lucida Sans Unicode">1.4</tspan></text></g>
<g>
<text x="307" y="89.3" text-anchor="middle" font-size="12" font-family="Lucida Sans Unicode">1.1<tspan fill="rgb(0,0,0)" font-size="12" font-family="Lucida Sans Unicode"></tspan><tspan fill="rgb(0,0,0)" font-size="12" font-family="Lucida Sans Unicode"></tspan><tspan font-size="12" font-family="Lucida Sans Unicode">3.2</tspan></text></g>
<g>
<text x="444" y="92.3" text-anchor="middle" font-size="12" font-family="Lucida Sans Unicode">4.3<tspan fill="rgb(0,0,0)" font-size="12" font-family="Lucida Sans Unicode"></tspan><tspan fill="rgb(0,0,0)" font-size="12" font-family="Lucida Sans Unicode"></tspan><tspan font-size="12" font-family="Lucida Sans Unicode">3.1</tspan></text></g>
</g>
<g id="plotYValues"></g>
</svg>
