<?xml version="1.0" encoding="UTF-8" standalone="no"?>
<svg width="500" height ="200" version="1.1"
xmlns:svg ="http://www.w3.org/2000/svg"
xmlns:rdf="http://www.w3.org/1999/02/22-rdf-syntax-ns#"
xmlns:cc="http://web.resource.org/cc/"
xmlns:dc="http://purl.org/dc/elements/1.1/"
xmlns ="http://www.w3.org/2000/svg"
>
<!-- SVG plot written using Boost.Plot program (Creator Jacob Voytko) --> 
<!-- Use, modification and distribution of Boost.Plot subject to the --> 
<!-- Boost Software License, Version 1.0.--> 
<!-- (See accompanying file LICENSE_1_0.txt --> 
<!-- or copy at http://www.boost.org/LICENSE_1_0.txt) --> 

<!-- File demo_color.svg --> 
<g id="imageBackground" stroke="rgb(255,255,0)" fill="rgb(255,255,255)" stroke-width="1"><rect x="0" y="0" width="500" height="200"/></g>
<g id="plotBackground" stroke="rgb(250,250,210)" fill="rgb(255,255,255)" stroke-width="1"><rect x="21" y="11" width="394" height="160"/></g>
<g id="xMinorGrid" stroke="rgb(200,220,255)" stroke-width="0.5"></g>
<g id="xMajorGrid" stroke="rgb(200,220,255)" stroke-width="1"></g>
<g id="xAxis" stroke="rgb(0,0,255)" stroke-width="1"><line x1="21" y1="11" x2="21" y2="172"/><line x1="21" y1="93.8" x2="415" y2="93.8"/></g>
<g id="xMinorTicks" stroke="rgb(0,0,0)" stroke-width="1"><path d="M43.5,93.8 L43.5,95.8 M66,93.8 L66,95.8 M88.5,93.8 L88.5,95.8 M111,93.8 L111,95.8 M156,93.8 L156,95.8 M179,93.8 L179,95.8 M201,93.8 L201,95.8 M224,93.8 L224,95.8 M269,93.8 L269,95.8 M291,93.8 L291,95.8 M314,93.8 L314,95.8 M336,93.8 L336,95.8 M381,93.8 L381,95.8 M404,93.8 L404,95.8 " fill="none"/></g>
<g id="xMajorTicks" stroke="rgb(0,0,0)" stroke-width="2"><path d="M21,93.8 L21,98.8 M134,93.8 L134,98.8 M246,93.8 L246,98.8 M359,93.8 L359,98.8 M21,93.8 L21,98.8 " fill="none"/></g>
<g id="xTicksValues">
<text x="134" y="112" text-anchor="middle" font-size="10" font-family="Verdana">2</text>
<text x="246" y="112" text-anchor="middle" font-size="10" font-family="Verdana">4</text>
<text x="359" y="112" text-anchor="middle" font-size="10" font-family="Verdana">6</text></g>
<g id="xLabel" stroke="rgb(255,0,255)" fill="rgb(255,0,255)">
<text x="218" y="188" text-anchor="middle" font-size="10" font-family="Verdana">axis</text></g>
<g id="plotPoints"><g stroke="rgb(0,0,0)"><line x1="77.3" y1="93.2" x2="77.3" y2="83.2"/><line x1="134" y1="93.2" x2="134" y2="83.2"/><line x1="190" y1="93.2" x2="190" y2="83.2"/></g>
</g>
<g id="legendBackground" stroke="rgb(255,255,0)" fill="rgb(255,255,255)" stroke-width="1"><rect x="421" y="11" width="70" height="84"/></g>
<g id="legendPoints"><g stroke="rgb(0,0,0)" stroke-width="2"><line x1="432" y1="33.5" x2="432" y2="23.5"/></g>
</g>
<g id="legendText">
<text x="437" y="29.5" font-size="10" font-family="Verdana">My Data</text></g>
<g id="title">
<text x="250" y="22.5" text-anchor="middle" font-size="18" font-family="Verdana"></text></g>
</svg>
