<?xml version="1.0" encoding="UTF-8" standalone="no"?>
<svg width="500" height ="400" version="1.1"
xmlns:svg ="http://www.w3.org/2000/svg"
xmlns:rdf="http://www.w3.org/1999/02/22-rdf-syntax-ns#"
xmlns:cc="http://web.resource.org/cc/"
xmlns:dc="http://purl.org/dc/elements/1.1/"
xmlns ="http://www.w3.org/2000/svg"
>
<!-- SVG plot written using Boost.Plot program (Creator Jacob Voytko) --> 
<!-- Use, modification and distribution of Boost.Plot subject to the --> 
<!-- Boost Software License, Version 1.0.--> 
<!-- (See accompanying file LICENSE_1_0.txt --> 
<!-- or copy at http://www.boost.org/LICENSE_1_0.txt) --> 

<clipPath id="plot_window"><rect x="53.6" y="40.5" width="358" height="328"/></clipPath>
<clipPath id="plot_window"><rect x="53.6" y="40.5" width="358" height="328"/></clipPath>
<g id="imageBackground" stroke="rgb(0,0,255)" fill="rgb(255,255,255)" stroke-width="2"><rect x="0" y="0" width="500" height="400"/></g>
<g id="plotBackground" stroke="rgb(119,136,153)" fill="rgb(255,255,255)" stroke-width="2"><rect x="52.6" y="39.5" width="360" height="330"/></g>
<g id="yMinorGrid" stroke="rgb(200,220,255)" stroke-width="0.5"></g>
<g id="yMajorGrid" stroke="rgb(200,220,255)" stroke-width="1"></g>
<g id="xMinorGrid" stroke="rgb(200,220,255)" stroke-width="0.5"></g>
<g id="xMajorGrid" stroke="rgb(200,220,255)" stroke-width="1"></g>
<g id="yAxis" stroke="rgb(0,0,0)" stroke-width="1"><line x1="233" y1="39.5" x2="233" y2="374"/><line x1="52.6" y1="39.5" x2="52.6" y2="369"/></g>
<g id="xAxis" stroke="rgb(0,0,0)" stroke-width="1"><line x1="47.6" y1="204" x2="413" y2="204"/><line x1="47.6" y1="369" x2="413" y2="369"/></g>
<g id="yMinorTicks" stroke="rgb(0,0,0)" stroke-width="1"><path d="M50.6,198 L52.6,198 M50.6,191 L52.6,191 M50.6,184 L52.6,184 M50.6,178 L52.6,178 M50.6,165 L52.6,165 M50.6,158 L52.6,158 M50.6,152 L52.6,152 M50.6,145 L52.6,145 M50.6,132 L52.6,132 M50.6,125 L52.6,125 M50.6,119 L52.6,119 M50.6,112 L52.6,112 M50.6,98.8 L52.6,98.8 M50.6,92.2 L52.6,92.2 M50.6,85.6 L52.6,85.6 M50.6,79 L52.6,79 M50.6,65.9 L52.6,65.9 M50.6,59.3 L52.6,59.3 M50.6,52.7 L52.6,52.7 M50.6,46.1 L52.6,46.1 M50.6,204 L52.6,204 M50.6,211 L52.6,211 M50.6,217 L52.6,217 M50.6,224 L52.6,224 M50.6,231 L52.6,231 M50.6,237 L52.6,237 M50.6,244 L52.6,244 M50.6,250 L52.6,250 M50.6,257 L52.6,257 M50.6,264 L52.6,264 M50.6,270 L52.6,270 M50.6,270 L52.6,270 M50.6,277 L52.6,277 M50.6,283 L52.6,283 M50.6,290 L52.6,290 M50.6,297 L52.6,297 M50.6,303 L52.6,303 M50.6,310 L52.6,310 M50.6,316 L52.6,316 M50.6,323 L52.6,323 M50.6,329 L52.6,329 M50.6,336 L52.6,336 M50.6,343 L52.6,343 M50.6,349 L52.6,349 M50.6,356 L52.6,356 M50.6,362 L52.6,362 M50.6,369 L52.6,369 " fill="none"/></g>
<g id="xMinorTicks" stroke="rgb(0,0,0)" stroke-width="1"><path d="M240,369 L240,371 M247,369 L247,371 M254,369 L254,371 M262,369 L262,371 M276,369 L276,371 M283,369 L283,371 M290,369 L290,371 M298,369 L298,371 M312,369 L312,371 M319,369 L319,371 M327,369 L327,371 M334,369 L334,371 M348,369 L348,371 M355,369 L355,371 M363,369 L363,371 M370,369 L370,371 M384,369 L384,371 M391,369 L391,371 M399,369 L399,371 M406,369 L406,371 M226,369 L226,371 M218,369 L218,371 M211,369 L211,371 M204,369 L204,371 M190,369 L190,371 M182,369 L182,371 M175,369 L175,371 M168,369 L168,371 M154,369 L154,371 M146,369 L146,371 M139,369 L139,371 M132,369 L132,371 M117,369 L117,371 M110,369 L110,371 M103,369 L103,371 M95.8,369 L95.8,371 M81.4,369 L81.4,371 M74.2,369 L74.2,371 M67,369 L67,371 M59.8,369 L59.8,371 " fill="none"/></g>
<g id="yMajorTicks" stroke="rgb(0,0,0)" stroke-width="2"><path d="M47.6,204 L52.6,204 M47.6,171 L52.6,171 M47.6,138 L52.6,138 M47.6,105 L52.6,105 M47.6,72.4 L52.6,72.4 M47.6,39.5 L52.6,39.5 M47.6,204 L52.6,204 M47.6,237 L52.6,237 M47.6,270 L52.6,270 M47.6,303 L52.6,303 M47.6,336 L52.6,336 M47.6,369 L52.6,369 " fill="none"/></g>
<g id="xMajorTicks" stroke="rgb(0,0,0)" stroke-width="2"><path d="M233,369 L233,374 M269,369 L269,374 M305,369 L305,374 M341,369 L341,374 M377,369 L377,374 M413,369 L413,374 M233,369 L233,374 M197,369 L197,374 M161,369 L161,374 M125,369 L125,374 M88.6,369 L88.6,374 M52.6,369 L52.6,374 " fill="none"/></g>
<g id="xTicksValues">
<text x="233" y="390" text-anchor="middle" font-size="12" font-family="Lucida Sans Unicode">0</text>
<text x="269" y="390" text-anchor="middle" font-size="12" font-family="Lucida Sans Unicode">2</text>
<text x="305" y="390" text-anchor="middle" font-size="12" font-family="Lucida Sans Unicode">4</text>
<text x="341" y="390" text-anchor="middle" font-size="12" font-family="Lucida Sans Unicode">6</text>
<text x="377" y="390" text-anchor="middle" font-size="12" font-family="Lucida Sans Unicode">8</text>
<text x="413" y="390" text-anchor="middle" font-size="12" font-family="Lucida Sans Unicode">10</text>
<text x="233" y="390" text-anchor="middle" font-size="12" font-family="Lucida Sans Unicode">0</text>
<text x="197" y="390" text-anchor="middle" font-size="12" font-family="Lucida Sans Unicode">-2</text>
<text x="161" y="390" text-anchor="middle" font-size="12" font-family="Lucida Sans Unicode">-4</text>
<text x="125" y="390" text-anchor="middle" font-size="12" font-family="Lucida Sans Unicode">-6</text>
<text x="88.6" y="390" text-anchor="middle" font-size="12" font-family="Lucida Sans Unicode">-8</text>
<text x="52.6" y="390" text-anchor="middle" font-size="12" font-family="Lucida Sans Unicode">-10</text></g>
<g id="yTicksValues">
<text x="41.6" y="207" text-anchor="end" font-size="12" font-family="Lucida Sans Unicode">0</text>
<text x="41.6" y="174" text-anchor="end" font-size="12" font-family="Lucida Sans Unicode">2</text>
<text x="41.6" y="141" text-anchor="end" font-size="12" font-family="Lucida Sans Unicode">4</text>
<text x="41.6" y="108" text-anchor="end" font-size="12" font-family="Lucida Sans Unicode">6</text>
<text x="41.6" y="74.8" text-anchor="end" font-size="12" font-family="Lucida Sans Unicode">8</text>
<text x="41.6" y="41.9" text-anchor="end" font-size="12" font-family="Lucida Sans Unicode">10</text>
<text x="41.6" y="207" text-anchor="end" font-size="12" font-family="Lucida Sans Unicode">0</text>
<text x="41.6" y="240" text-anchor="end" font-size="12" font-family="Lucida Sans Unicode">-2</text>
<text x="41.6" y="273" text-anchor="end" font-size="12" font-family="Lucida Sans Unicode">-4</text>
<text x="41.6" y="306" text-anchor="end" font-size="12" font-family="Lucida Sans Unicode">-6</text>
<text x="41.6" y="338" text-anchor="end" font-size="12" font-family="Lucida Sans Unicode">-8</text>
<text x="41.6" y="371" text-anchor="end" font-size="12" font-family="Lucida Sans Unicode">-10</text>
<text x="41.6" y="207" text-anchor="end" font-size="12" font-family="Lucida Sans Unicode">0</text>
<text x="41.6" y="174" text-anchor="end" font-size="12" font-family="Lucida Sans Unicode">2</text>
<text x="41.6" y="141" text-anchor="end" font-size="12" font-family="Lucida Sans Unicode">4</text>
<text x="41.6" y="108" text-anchor="end" font-size="12" font-family="Lucida Sans Unicode">6</text>
<text x="41.6" y="74.8" text-anchor="end" font-size="12" font-family="Lucida Sans Unicode">8</text>
<text x="41.6" y="41.9" text-anchor="end" font-size="12" font-family="Lucida Sans Unicode">10</text>
<text x="41.6" y="207" text-anchor="end" font-size="12" font-family="Lucida Sans Unicode">0</text>
<text x="41.6" y="240" text-anchor="end" font-size="12" font-family="Lucida Sans Unicode">-2</text>
<text x="41.6" y="273" text-anchor="end" font-size="12" font-family="Lucida Sans Unicode">-4</text>
<text x="41.6" y="306" text-anchor="end" font-size="12" font-family="Lucida Sans Unicode">-6</text>
<text x="41.6" y="338" text-anchor="end" font-size="12" font-family="Lucida Sans Unicode">-8</text>
<text x="41.6" y="371" text-anchor="end" font-size="12" font-family="Lucida Sans Unicode">-10</text></g>
<g id="yLabel">
<text x="14.9" y="204" text-anchor="middle" transform = "rotate(-90 14.9 204 )" font-size="14" font-family="Lucida Sans Unicode"></text></g>
<g id="xLabel">
<text x="233" y="402" text-anchor="middle" font-size="12" font-family="Lucida Sans Unicode"></text></g>
<g id="plotPoints" clip-path="url(#plot_window)"><g stroke="rgb(0,128,0)" fill="rgb(255,0,255)" stroke-width="2"><path d="M177,305 L233,305 M330,127 L233,127 " stroke-width="5" fill="none"/><path d="M177,300 L177,310 L233,310 L233,300 ZM330,122 L330,132 L233,132 L233,122 Z" fill="none"/></g>
</g>
<g id="legendBackground" stroke="rgb(255,255,0)" fill="rgb(255,255,255)" stroke-width="1"><rect x="419" y="39.5" width="67" height="74.8"/></g>
<g id="legendPoints"></g>
<g id="legendText">
<text x="431" y="57.2" font-size="10" font-family="Lucida Sans Unicode" font-weight="normal">Series 2</text>
<text x="431" y="69.7" font-size="10" font-family="Lucida Sans Unicode" font-weight="normal">Series 2</text></g>
<g id="title">
<text x="250" y="22.5" text-anchor="middle" font-size="18" font-family="Lucida Sans Unicode" font-weight="normal"></text></g>
<g id="plotXValues"></g>
<g id="plotYValues"></g>
</svg>
