<?xml version="1.0" encoding="UTF-8" standalone="no"?>
<svg width="400" height ="400" version="1.1"
xmlns:svg ="http://www.w3.org/2000/svg"
xmlns:rdf="http://www.w3.org/1999/02/22-rdf-syntax-ns#"
xmlns:cc="http://web.resource.org/cc/"
xmlns:dc="http://purl.org/dc/elements/1.1/"
xmlns ="http://www.w3.org/2000/svg"
>
<!-- SVG plot written using Boost.Plot program (Creator Jacob Voytko) --> 
<!-- Use, modification and distribution of Boost.Plot subject to the --> 
<!-- Boost Software License, Version 1.0.--> 
<!-- (See accompanying file LICENSE_1_0.txt --> 
<!-- or copy at http://www.boost.org/LICENSE_1_0.txt) --> 

<clipPath id="plot_window"><rect x="51.8" y="9" width="321" height="359"/></clipPath>
<g id="imageBackground" stroke="rgb(255,255,0)" fill="rgb(255,255,255)" stroke-width="2"><rect x="0" y="0" width="400" height="400"/></g>
<g id="plotBackground" stroke="rgb(119,136,153)" fill="rgb(255,255,255)" stroke-width="2"><rect x="50.8" y="8" width="323" height="361"/></g>
<g id="yMinorGrid" stroke="rgb(200,220,255)" stroke-width="0.5"></g>
<g id="yMajorGrid" stroke="rgb(200,220,255)" stroke-width="1"></g>
<g id="xMinorGrid" stroke="rgb(200,220,255)" stroke-width="0.5"></g>
<g id="xMajorGrid" stroke="rgb(200,220,255)" stroke-width="1"></g>
<g id="yAxis" stroke="rgb(0,0,0)" stroke-width="1"><line x1="212" y1="8" x2="212" y2="374"/><line x1="50.8" y1="8" x2="50.8" y2="369"/></g>
<g id="xAxis" stroke="rgb(0,0,0)" stroke-width="1"><line x1="45.8" y1="188" x2="374" y2="188"/><line x1="45.8" y1="369" x2="374" y2="369"/></g>
<g id="yMinorTicks" stroke="rgb(0,0,0)" stroke-width="1"><path d="M48.8,181 L50.8,181 M48.8,174 L50.8,174 M48.8,167 L50.8,167 M48.8,160 L50.8,160 M48.8,145 L50.8,145 M48.8,138 L50.8,138 M48.8,131 L50.8,131 M48.8,124 L50.8,124 M48.8,109 L50.8,109 M48.8,102 L50.8,102 M48.8,94.6 L50.8,94.6 M48.8,87.4 L50.8,87.4 M48.8,73 L50.8,73 M48.8,65.8 L50.8,65.8 M48.8,58.5 L50.8,58.5 M48.8,51.3 L50.8,51.3 M48.8,36.9 L50.8,36.9 M48.8,29.7 L50.8,29.7 M48.8,22.4 L50.8,22.4 M48.8,15.2 L50.8,15.2 M48.8,188 L50.8,188 M48.8,196 L50.8,196 M48.8,203 L50.8,203 M48.8,210 L50.8,210 M48.8,217 L50.8,217 M48.8,225 L50.8,225 M48.8,232 L50.8,232 M48.8,239 L50.8,239 M48.8,246 L50.8,246 M48.8,253 L50.8,253 M48.8,261 L50.8,261 M48.8,261 L50.8,261 M48.8,268 L50.8,268 M48.8,275 L50.8,275 M48.8,282 L50.8,282 M48.8,290 L50.8,290 M48.8,297 L50.8,297 M48.8,304 L50.8,304 M48.8,311 L50.8,311 M48.8,318 L50.8,318 M48.8,326 L50.8,326 M48.8,333 L50.8,333 M48.8,340 L50.8,340 M48.8,347 L50.8,347 M48.8,355 L50.8,355 M48.8,362 L50.8,362 M48.8,369 L50.8,369 " fill="none"/></g>
<g id="xMinorTicks" stroke="rgb(0,0,0)" stroke-width="1"><path d="M219,369 L219,371 M225,369 L225,371 M232,369 L232,371 M238,369 L238,371 M251,369 L251,371 M258,369 L258,371 M264,369 L264,371 M271,369 L271,371 M284,369 L284,371 M290,369 L290,371 M296,369 L296,371 M303,369 L303,371 M316,369 L316,371 M322,369 L322,371 M329,369 L329,371 M335,369 L335,371 M348,369 L348,371 M355,369 L355,371 M361,369 L361,371 M368,369 L368,371 M206,369 L206,371 M199,369 L199,371 M193,369 L193,371 M187,369 L187,371 M174,369 L174,371 M167,369 L167,371 M161,369 L161,371 M154,369 L154,371 M141,369 L141,371 M135,369 L135,371 M128,369 L128,371 M122,369 L122,371 M109,369 L109,371 M103,369 L103,371 M96,369 L96,371 M89.6,369 L89.6,371 M76.7,369 L76.7,371 M70.2,369 L70.2,371 M63.7,369 L63.7,371 M57.3,369 L57.3,371 " fill="none"/></g>
<g id="yMajorTicks" stroke="rgb(0,0,0)" stroke-width="2"><path d="M45.8,188 L50.8,188 M45.8,152 L50.8,152 M45.8,116 L50.8,116 M45.8,80.2 L50.8,80.2 M45.8,44.1 L50.8,44.1 M45.8,8 L50.8,8 M45.8,188 L50.8,188 M45.8,225 L50.8,225 M45.8,261 L50.8,261 M45.8,297 L50.8,297 M45.8,333 L50.8,333 M45.8,369 L50.8,369 " fill="none"/></g>
<g id="xMajorTicks" stroke="rgb(0,0,0)" stroke-width="2"><path d="M212,369 L212,374 M245,369 L245,374 M277,369 L277,374 M309,369 L309,374 M342,369 L342,374 M374,369 L374,374 M212,369 L212,374 M180,369 L180,374 M148,369 L148,374 M115,369 L115,374 M83.1,369 L83.1,374 M50.8,369 L50.8,374 " fill="none"/></g>
<g id="xTicksValues">
<text x="212" y="390" text-anchor="middle" font-size="12" font-family="Lucida Sans Unicode">0</text>
<text x="245" y="390" text-anchor="middle" font-size="12" font-family="Lucida Sans Unicode">2</text>
<text x="277" y="390" text-anchor="middle" font-size="12" font-family="Lucida Sans Unicode">4</text>
<text x="309" y="390" text-anchor="middle" font-size="12" font-family="Lucida Sans Unicode">6</text>
<text x="342" y="390" text-anchor="middle" font-size="12" font-family="Lucida Sans Unicode">8</text>
<text x="374" y="390" text-anchor="middle" font-size="12" font-family="Lucida Sans Unicode">10</text>
<text x="212" y="390" text-anchor="middle" font-size="12" font-family="Lucida Sans Unicode">0</text>
<text x="180" y="390" text-anchor="middle" font-size="12" font-family="Lucida Sans Unicode">-2</text>
<text x="148" y="390" text-anchor="middle" font-size="12" font-family="Lucida Sans Unicode">-4</text>
<text x="115" y="390" text-anchor="middle" font-size="12" font-family="Lucida Sans Unicode">-6</text>
<text x="83.1" y="390" text-anchor="middle" font-size="12" font-family="Lucida Sans Unicode">-8</text>
<text x="50.8" y="390" text-anchor="middle" font-size="12" font-family="Lucida Sans Unicode">-10</text></g>
<g id="yTicksValues">
<text x="39.8" y="191" text-anchor="end" font-size="12" font-family="Lucida Sans Unicode">0</text>
<text x="39.8" y="155" text-anchor="end" font-size="12" font-family="Lucida Sans Unicode">2</text>
<text x="39.8" y="119" text-anchor="end" font-size="12" font-family="Lucida Sans Unicode">4</text>
<text x="39.8" y="82.6" text-anchor="end" font-size="12" font-family="Lucida Sans Unicode">6</text>
<text x="39.8" y="46.5" text-anchor="end" font-size="12" font-family="Lucida Sans Unicode">8</text>
<text x="39.8" y="10.4" text-anchor="end" font-size="12" font-family="Lucida Sans Unicode">10</text>
<text x="39.8" y="191" text-anchor="end" font-size="12" font-family="Lucida Sans Unicode">0</text>
<text x="39.8" y="227" text-anchor="end" font-size="12" font-family="Lucida Sans Unicode">-2</text>
<text x="39.8" y="263" text-anchor="end" font-size="12" font-family="Lucida Sans Unicode">-4</text>
<text x="39.8" y="299" text-anchor="end" font-size="12" font-family="Lucida Sans Unicode">-6</text>
<text x="39.8" y="335" text-anchor="end" font-size="12" font-family="Lucida Sans Unicode">-8</text>
<text x="39.8" y="371" text-anchor="end" font-size="12" font-family="Lucida Sans Unicode">-10</text></g>
<g id="yLabel">
<text x="14.9" y="188" text-anchor="middle" transform = "rotate(-90 14.9 188 )" font-size="14" font-family="Lucida Sans Unicode"></text></g>
<g id="xLabel">
<text x="212" y="402" text-anchor="middle" font-size="12" font-family="Lucida Sans Unicode"></text></g>
<g id="plotPoints" clip-path="url(#plot_window)"><g stroke="rgb(0,0,0)" fill="rgb(255,0,0)">
<text x="114" y="299" text-anchor="middle" font-size="14" font-family="Lucida Sans Unicode">&#x25CB;</text>
<text x="132" y="288" text-anchor="middle" font-size="14" font-family="Lucida Sans Unicode">&#x25CB;</text>
<text x="146" y="270" text-anchor="middle" font-size="14" font-family="Lucida Sans Unicode">&#x25CB;</text>
<text x="166" y="252" text-anchor="middle" font-size="14" font-family="Lucida Sans Unicode">&#x25CB;</text>
<text x="175" y="231" text-anchor="middle" font-size="14" font-family="Lucida Sans Unicode">&#x25CB;</text>
<text x="195" y="214" text-anchor="middle" font-size="14" font-family="Lucida Sans Unicode">&#x25CB;</text>
<text x="212" y="193" text-anchor="middle" font-size="14" font-family="Lucida Sans Unicode">&#x25CB;</text>
<text x="230" y="171" text-anchor="middle" font-size="14" font-family="Lucida Sans Unicode">&#x25CB;</text>
<text x="250" y="155" text-anchor="middle" font-size="14" font-family="Lucida Sans Unicode">&#x25CB;</text>
<text x="259" y="133" text-anchor="middle" font-size="14" font-family="Lucida Sans Unicode">&#x25CB;</text>
<text x="279" y="115" text-anchor="middle" font-size="14" font-family="Lucida Sans Unicode">&#x25CB;</text>
<text x="293" y="97.1" text-anchor="middle" font-size="14" font-family="Lucida Sans Unicode">&#x25CB;</text>
<text x="311" y="86.2" text-anchor="middle" font-size="14" font-family="Lucida Sans Unicode">&#x25CB;</text></g>
</g>
<g id="title">
<text x="200" y="27" text-anchor="middle" font-size="18" font-family="Lucida Sans Unicode" font-weight="normal"></text></g>
<g id="plotXValues"></g>
<g id="plotYValues"></g>
<g stroke="rgb(0,0,0)"><line x1="10" y1="390" x2="390" y2="10"/></g>
<g stroke="rgb(0,0,255)"><line x1="50.8" y1="369" x2="374" y2="8"/></g>
<g stroke="rgb(255,0,0)"><path d="M115,333 Q212,170 342,80.2" fill = "none"/></g>
</svg>
