<?xml version="1.0" encoding="UTF-8" standalone="no"?>
<svg width="700" height ="500" version="1.1"
xmlns:svg ="http://www.w3.org/2000/svg"
xmlns:rdf="http://www.w3.org/1999/02/22-rdf-syntax-ns#"
xmlns:cc="http://web.resource.org/cc/"
xmlns:dc="http://purl.org/dc/elements/1.1/"
xmlns ="http://www.w3.org/2000/svg"
>
<!-- SVG plot written using Boost.Plot program (Creator Jacob Voytko) --> 
<!-- Use, modification and distribution of Boost.Plot subject to the --> 
<!-- Boost Software License, Version 1.0.--> 
<!-- (See accompanying file LICENSE_1_0.txt --> 
<!-- or copy at http://www.boost.org/LICENSE_1_0.txt) --> 

<clipPath id="plot_window"><rect x="41.5" y="53.5" width="511" height="405"/></clipPath>
<g id="imageBackground" stroke="rgb(255,255,0)" fill="rgb(248,248,255)" stroke-width="2"><rect x="0" y="0" width="700" height="500"/></g>
<g id="plotBackground" stroke="rgb(0,128,0)" fill="rgb(255,255,255)" stroke-width="1"><rect x="40.5" y="52.5" width="513" height="407"/></g>
<g id="yMinorGrid" stroke="rgb(240,240,255)" stroke-width="1"><path d="M41.5,242 L553,242 M41.5,229 L553,229 M41.5,202 L553,202 M41.5,188 L553,188 M41.5,161 L553,161 M41.5,147 L553,147 M41.5,120 L553,120 M41.5,107 L553,107 M41.5,79.6 L553,79.6 M41.5,66.1 L553,66.1 M41.5,270 L553,270 M41.5,283 L553,283 M41.5,297 L553,297 M41.5,310 L553,310 M41.5,324 L553,324 M41.5,337 L553,337 M41.5,337 L553,337 M41.5,351 L553,351 M41.5,365 L553,365 M41.5,378 L553,378 M41.5,392 L553,392 M41.5,405 L553,405 M41.5,419 L553,419 M41.5,432 L553,432 M41.5,446 L553,446 M41.5,460 L553,460 M41.5,460 L553,460 " fill="none"/></g>
<g id="yMajorGrid" stroke="rgb(200,220,255)" stroke-width="2"><path d="M41.5,215 L553,215 M41.5,175 L553,175 M41.5,134 L553,134 M41.5,93.2 L553,93.2 M41.5,52.5 L553,52.5 M41.5,297 L553,297 M41.5,337 L553,337 M41.5,378 L553,378 M41.5,419 L553,419 M41.5,460 L553,460 " fill="none"/></g>
<g id="xMinorGrid" stroke="rgb(240,240,255)" stroke-width="0.5"><path d="M314,53.5 L314,459 M331,53.5 L331,459 M365,53.5 L365,459 M383,53.5 L383,459 M417,53.5 L417,459 M434,53.5 L434,459 M468,53.5 L468,459 M485,53.5 L485,459 M519,53.5 L519,459 M536,53.5 L536,459 M280,53.5 L280,459 M263,53.5 L263,459 M229,53.5 L229,459 M212,53.5 L212,459 M177,53.5 L177,459 M160,53.5 L160,459 M126,53.5 L126,459 M109,53.5 L109,459 M74.7,53.5 L74.7,459 M57.6,53.5 L57.6,459 " fill="none"/></g>
<g id="xMajorGrid" stroke="rgb(200,220,255)" stroke-width="1"><path d="M348,52.5 L348,460 M400,52.5 L400,460 M451,52.5 L451,460 M502,52.5 L502,460 M554,52.5 L554,460 M246,52.5 L246,460 M194,52.5 L194,460 M143,52.5 L143,460 M91.8,52.5 L91.8,460 M40.5,52.5 L40.5,460 " fill="none"/></g>
<g id="yAxis" stroke="rgb(0,0,0)" stroke-width="1"><line x1="297" y1="52.5" x2="297" y2="460"/><line x1="554" y1="52.5" x2="554" y2="460"/></g>
<g id="xAxis" stroke="rgb(0,0,0)" stroke-width="1"><line x1="40.5" y1="256" x2="554" y2="256"/></g>
<g id="yMinorTicks" stroke="rgb(0,0,0)" stroke-width="1"><path d="M292,242 L297,242 M292,229 L297,229 M292,202 L297,202 M292,188 L297,188 M292,161 L297,161 M292,147 L297,147 M292,120 L297,120 M292,107 L297,107 M292,79.6 L297,79.6 M292,66.1 L297,66.1 M292,270 L297,270 M292,283 L297,283 M292,297 L297,297 M292,310 L297,310 M292,324 L297,324 M292,337 L297,337 M292,337 L297,337 M292,351 L297,351 M292,365 L297,365 M292,378 L297,378 M292,392 L297,392 M292,405 L297,405 M292,419 L297,419 M292,432 L297,432 M292,446 L297,446 M292,460 L297,460 M292,460 L297,460 " fill="none"/></g>
<g id="xMinorTicks" stroke="rgb(0,0,0)" stroke-width="1"><path d="M314,256 L314,261 M331,256 L331,261 M365,256 L365,261 M383,256 L383,261 M417,256 L417,261 M434,256 L434,261 M468,256 L468,261 M485,256 L485,261 M519,256 L519,261 M536,256 L536,261 M280,256 L280,261 M263,256 L263,261 M229,256 L229,261 M212,256 L212,261 M177,256 L177,261 M160,256 L160,261 M126,256 L126,261 M109,256 L109,261 M74.7,256 L74.7,261 M57.6,256 L57.6,261 " fill="none"/></g>
<g id="yMajorTicks" stroke="rgb(0,0,0)" stroke-width="2"><path d="M287,215 L297,215 M287,175 L297,175 M287,134 L297,134 M287,93.2 L297,93.2 M287,52.5 L297,52.5 M287,297 L297,297 M287,337 L297,337 M287,378 L297,378 M287,419 L297,419 M287,460 L297,460 " fill="none"/></g>
<g id="xMajorTicks" stroke="rgb(0,0,0)" stroke-width="2"><path d="M348,256 L348,266 M400,256 L400,266 M451,256 L451,266 M502,256 L502,266 M554,256 L554,266 M246,256 L246,266 M194,256 L194,266 M143,256 L143,266 M91.8,256 L91.8,266 M40.5,256 L40.5,266 " fill="none"/></g>
<g id="xTicksValues">
<text x="348" y="282" text-anchor="middle" font-size="12" font-family="Lucida Sans Unicode">2.00</text>
<text x="400" y="282" text-anchor="middle" font-size="12" font-family="Lucida Sans Unicode">4.00</text>
<text x="451" y="282" text-anchor="middle" font-size="12" font-family="Lucida Sans Unicode">6.00</text>
<text x="502" y="282" text-anchor="middle" font-size="12" font-family="Lucida Sans Unicode">8.00</text>
<text x="554" y="282" text-anchor="middle" font-size="12" font-family="Lucida Sans Unicode">1.00e1</text>
<text x="246" y="282" text-anchor="middle" font-size="12" font-family="Lucida Sans Unicode">-2.00</text>
<text x="194" y="282" text-anchor="middle" font-size="12" font-family="Lucida Sans Unicode">-4.00</text>
<text x="143" y="282" text-anchor="middle" font-size="12" font-family="Lucida Sans Unicode">-6.00</text>
<text x="91.8" y="282" text-anchor="middle" font-size="12" font-family="Lucida Sans Unicode">-8.00</text>
<text x="40.5" y="282" text-anchor="middle" font-size="12" font-family="Lucida Sans Unicode">-1.00e1</text></g>
<g id="yTicksValues">
<text x="281" y="218" text-anchor="end" font-size="12" font-family="Lucida Sans Unicode">2.0</text>
<text x="281" y="177" text-anchor="end" font-size="12" font-family="Lucida Sans Unicode">4.0</text>
<text x="281" y="136" text-anchor="end" font-size="12" font-family="Lucida Sans Unicode">6.0</text>
<text x="281" y="95.6" text-anchor="end" font-size="12" font-family="Lucida Sans Unicode">8.0</text>
<text x="281" y="54.9" text-anchor="end" font-size="12" font-family="Lucida Sans Unicode">10.0</text>
<text x="281" y="299" text-anchor="end" font-size="12" font-family="Lucida Sans Unicode">-2.0</text>
<text x="281" y="340" text-anchor="end" font-size="12" font-family="Lucida Sans Unicode">-4.0</text>
<text x="281" y="381" text-anchor="end" font-size="12" font-family="Lucida Sans Unicode">-6.0</text>
<text x="281" y="421" text-anchor="end" font-size="12" font-family="Lucida Sans Unicode">-8.0</text>
<text x="281" y="462" text-anchor="end" font-size="12" font-family="Lucida Sans Unicode">-10.0</text></g>
<g id="yLabel">
<text x="19" y="256" text-anchor="middle" transform = "rotate(-90 19 256 )" font-size="14" font-family="Lucida Sans Unicode">Y-axis &#x221E;&#x221A;</text></g>
<g id="xLabel">
<text x="297" y="483" text-anchor="middle" font-size="14" font-family="Lucida Sans Unicode">X-axis &#x00B1;&#x3A9;</text></g>
<g id="plotLines" stroke-width="2"><g clip-path="url(#plot_window)" stroke="rgb(0,0,0)"><path d="M40.5,-1.74e+03 S61,-1.42e+03 66.2,-1.35e+03 S86.7,-1.07e+03 91.8,-1.01e+03 S112,-757 117,-700 S138,-485 143,-436 S164,-253 169,-212 S189,-61.5 194,-28.9 S215,89.1 220,114 S241,199 246,215 S266,268 271,276 S292,297 297,297 S318,284 323,276 S343,232 348,215 S369,138 374,114 S395,3.66 400,-28.9 S420,-171 425,-212 S446,-387 451,-436 S472,-643 477,-700 S497,-941 502,-1.01e+03 S523,-1.28e+03 528,-1.35e+03 S554,-1.78e+03 554,-1.74e+03 " fill="none"/></g>
</g>
<g id="plotPoints" clip-path="url(#plot_window)"><g stroke="rgb(0,0,0)" fill="rgb(255,0,0)"><circle cx="297" cy="256" r="2"/><circle cx="323" cy="236" r="2"/><circle cx="348" cy="227" r="2"/><circle cx="374" cy="221" r="2"/><circle cx="400" cy="215" r="2"/><circle cx="425" cy="210" r="2"/><circle cx="451" cy="206" r="2"/><circle cx="477" cy="202" r="2"/><circle cx="502" cy="198" r="2"/><circle cx="528" cy="195" r="2"/></g>
<g stroke="rgb(0,0,0)" fill="rgb(255,165,0)"><circle cx="220" cy="114" r="2"/><circle cx="246" cy="215" r="2"/><circle cx="271" cy="276" r="2"/><circle cx="297" cy="297" r="2"/><circle cx="323" cy="276" r="2"/><circle cx="348" cy="215" r="2"/><circle cx="374" cy="114" r="2"/></g>
<g stroke="rgb(0,0,0)" fill="rgb(255,255,0)"><rect x="192" y="437" width="5" height="5"/><rect x="218" y="396" width="5" height="5"/><rect x="243" y="355" width="5" height="5"/><rect x="269" y="315" width="5" height="5"/><rect x="295" y="274" width="5" height="5"/><rect x="320" y="233" width="5" height="5"/><rect x="346" y="192" width="5" height="5"/><rect x="372" y="152" width="5" height="5"/><rect x="397" y="111" width="5" height="5"/><rect x="423" y="70.3" width="5" height="5"/></g>
</g>
<g id="limitPoints" stroke="rgb(119,136,153)" fill="rgb(250,235,215)"><polygon points=" 35.5,246 45.5,246 40.5,256"/><polygon points=" 61.2,246 71.2,246 66.2,256"/><polygon points=" 86.8,246 96.8,246 91.8,256"/><polygon points=" 112,246 122,246 117,256"/><polygon points=" 138,246 148,246 143,256"/><polygon points=" 164,246 174,246 169,256"/><polygon points=" 189,246 199,246 194,256"/><polygon points=" 215,246 225,246 220,256"/><polygon points=" 241,246 251,246 246,256"/><polygon points=" 266,246 276,246 271,256"/></g>
<g id="legendBackground" stroke="rgb(255,255,0)" fill="rgb(255,255,224)" stroke-width="1"><rect x="568" y="52.5" width="130" height="144"/><rect x="568" y="52.5" width="130" height="144"/></g>
<g id="legendPoints"><g stroke="rgb(0,0,0)" fill="rgb(255,0,0)" stroke-width="2"><circle cx="584" cy="117" r="2"/></g>
<g stroke="rgb(0,0,0)" fill="rgb(255,165,0)" stroke-width="2"><circle cx="584" cy="149" r="2"/></g>
<g stroke="rgb(0,0,0)" fill="rgb(255,255,0)" stroke-width="3"><rect x="581" y="178" width="5" height="5"/></g>
</g>
<g id="legendText">
<text x="633" y="84.5" text-anchor="middle" font-size="16" font-family="Lucida Sans Unicode">Unicode &#x3A9;&#x3A6;</text>
<text x="608" y="117" font-size="16" font-family="Lucida Sans Unicode">Sqrt(x)</text>
<text x="608" y="149" font-size="16" font-family="Lucida Sans Unicode">-2 + x^2</text>
<text x="608" y="181" font-size="16" font-family="Lucida Sans Unicode">-1 + 2x</text></g>
<g id="title" fill="rgb(255,0,0)">
<text x="350" y="40" text-anchor="middle" font-size="20" font-family="Lucida Sans Unicode">Title with Unicode <sup>-&#945; </sup> &#x3A9; &#x3A6; &#x221A; &#x221E; &#x3B6; &#x00B1; &#x2080; &#x2081; &#x2082;&#x2083;</text></g>
<g id="plotXValues"></g>
<g id="plotYValues"></g>
</svg>
