<?xml version="1.0" encoding="UTF-8" standalone="no"?>
<svg width="500" height ="200" version="1.1"
xmlns:svg ="http://www.w3.org/2000/svg"
xmlns:rdf="http://www.w3.org/1999/02/22-rdf-syntax-ns#"
xmlns:cc="http://web.resource.org/cc/"
xmlns:dc="http://purl.org/dc/elements/1.1/"
xmlns ="http://www.w3.org/2000/svg"
>
<!-- SVG plot written using Boost.Plot program (Creator Jacob Voytko) --> 
<!-- Use, modification and distribution of Boost.Plot subject to the --> 
<!-- Boost Software License, Version 1.0.--> 
<!-- (See accompanying file LICENSE_1_0.txt --> 
<!-- or copy at http://www.boost.org/LICENSE_1_0.txt) --> 

<!-- File ./demo_1d_x_external.svg --> 
<g id="imageBackground" stroke="rgb(0,0,0)" fill="rgb(255,255,255)" stroke-width="1"><rect x="0" y="0" width="500" height="200"/></g>
<g id="plotBackground" stroke="rgb(250,250,210)" fill="rgb(255,255,255)" stroke-width="1"><rect x="21" y="42.5" width="394" height="142"/></g>
<g id="xMinorGrid" stroke="rgb(211,211,211)" stroke-width="0.5"><path d="M71.1,43.5 L71.1,183 M85.5,43.5 L85.5,183 M99.8,43.5 L99.8,183 M114,43.5 L114,183 M143,43.5 L143,183 M157,43.5 L157,183 M171,43.5 L171,183 M186,43.5 L186,183 M214,43.5 L214,183 M229,43.5 L229,183 M243,43.5 L243,183 M257,43.5 L257,183 M286,43.5 L286,183 M300,43.5 L300,183 M315,43.5 L315,183 M329,43.5 L329,183 M358,43.5 L358,183 M372,43.5 L372,183 M386,43.5 L386,183 M401,43.5 L401,183 M42.5,43.5 L42.5,183 M28.2,43.5 L28.2,183 " fill="none"/></g>
<g id="xMajorGrid" stroke="rgb(255,192,203)" stroke-width="1"><path d="M56.8,42.5 L56.8,184 M128,42.5 L128,184 M200,42.5 L200,184 M272,42.5 L272,184 M343,42.5 L343,184 M415,42.5 L415,184 M56.8,42.5 L56.8,184 " fill="none"/></g>
<g id="xAxis" stroke="rgb(0,0,0)" stroke-width="1"><line x1="56.8" y1="42.5" x2="56.8" y2="184"/><line x1="21" y1="116" x2="415" y2="116"/><line x1="21" y1="42.5" x2="415" y2="42.5"/></g>
<g id="xMinorTicks" stroke="rgb(0,0,0)" stroke-width="1"><path d="M71.1,42.5 L71.1,44.5 M85.5,42.5 L85.5,44.5 M99.8,42.5 L99.8,44.5 M114,42.5 L114,44.5 M143,42.5 L143,44.5 M157,42.5 L157,44.5 M171,42.5 L171,44.5 M186,42.5 L186,44.5 M214,42.5 L214,44.5 M229,42.5 L229,44.5 M243,42.5 L243,44.5 M257,42.5 L257,44.5 M286,42.5 L286,44.5 M300,42.5 L300,44.5 M315,42.5 L315,44.5 M329,42.5 L329,44.5 M358,42.5 L358,44.5 M372,42.5 L372,44.5 M386,42.5 L386,44.5 M401,42.5 L401,44.5 M42.5,42.5 L42.5,44.5 M28.2,42.5 L28.2,44.5 " fill="none"/></g>
<g id="xMajorTicks" stroke="rgb(0,0,0)" stroke-width="2"><path d="M56.8,42.5 L56.8,47.5 M128,42.5 L128,47.5 M200,42.5 L200,47.5 M272,42.5 L272,47.5 M343,42.5 L343,47.5 M415,42.5 L415,47.5 M56.8,42.5 L56.8,47.5 " fill="none"/></g>
<g id="xTicksValues">
<text x="56.8" y="60.5" text-anchor="middle" font-size="10" font-family="Verdana">0</text>
<text x="128" y="60.5" text-anchor="middle" font-size="10" font-family="Verdana">2</text>
<text x="200" y="60.5" text-anchor="middle" font-size="10" font-family="Verdana">4</text>
<text x="272" y="60.5" text-anchor="middle" font-size="10" font-family="Verdana">6</text>
<text x="343" y="60.5" text-anchor="middle" font-size="10" font-family="Verdana">8</text>
<text x="415" y="60.5" text-anchor="middle" font-size="10" font-family="Verdana">10</text>
<text x="56.8" y="60.5" text-anchor="middle" font-size="10" font-family="Verdana">0</text></g>
<g id="xLabel">
<text x="218" y="201" text-anchor="middle" font-size="10" font-family="Verdana"></text></g>
<g id="plotPoints"><g stroke="rgb(0,0,255)"><line x1="168" y1="115" x2="168" y2="105"/><line x1="207" y1="115" x2="207" y2="105"/></g>
<g stroke="rgb(255,165,0)"><line x1="132" y1="115" x2="132" y2="105"/><line x1="336" y1="115" x2="336" y2="105"/></g>
</g>
<g id="legendBackground" stroke="rgb(255,255,0)" fill="rgb(255,255,255)" stroke-width="1"><rect x="421" y="42.5" width="70" height="47"/></g>
<g id="legendPoints"><g stroke="rgb(0,0,255)" stroke-width="2"><line x1="435" y1="65" x2="435" y2="55"/></g>
<g stroke="rgb(255,165,0)" stroke-width="2"><line x1="435" y1="77.5" x2="435" y2="67.5"/></g>
</g>
<g id="legendText">
<text x="443" y="61" font-size="10" font-family="Verdana">Dan</text>
<text x="443" y="73.5" font-size="10" font-family="Verdana">Elaine</text></g>
<g id="title">
<text x="250" y="22.5" text-anchor="middle" font-size="18" font-family="Verdana">Race Times</text></g>
</svg>
