<?xml version="1.0" encoding="UTF-8" standalone="no"?>
<svg width="700" height ="500" version="1.1"
xmlns:svg ="http://www.w3.org/2000/svg"
xmlns:rdf="http://www.w3.org/1999/02/22-rdf-syntax-ns#"
xmlns:cc="http://web.resource.org/cc/"
xmlns:dc="http://purl.org/dc/elements/1.1/"
xmlns ="http://www.w3.org/2000/svg"
>
<!-- SVG plot written using Boost.Plot program (Creator Jacob Voytko) --> 
<!-- Use, modification and distribution of Boost.Plot subject to the --> 
<!-- Boost Software License, Version 1.0.--> 
<!-- (See accompanying file LICENSE_1_0.txt --> 
<!-- or copy at http://www.boost.org/LICENSE_1_0.txt) --> 

<clipPath id="plot_window"><rect x="54.5" y="44" width="501" height="422"/></clipPath>
<g id="imageBackground" stroke="rgb(255,255,0)" fill="rgb(248,248,255)" stroke-width="2"><rect x="0" y="0" width="700" height="500"/></g>
<g id="plotBackground" stroke="rgb(0,128,0)" fill="rgb(255,255,255)" stroke-width="1"><rect x="53.5" y="43" width="503" height="424"/></g>
<g id="yMinorGrid" stroke="rgb(240,240,255)" stroke-width="1"><path d="M54.5,58.7 L556,58.7 M54.5,90.1 L556,90.1 M54.5,122 L556,122 M54.5,153 L556,153 M54.5,184 L556,184 M54.5,184 L556,184 M54.5,216 L556,216 M54.5,247 L556,247 M54.5,279 L556,279 M54.5,310 L556,310 M54.5,341 L556,341 M54.5,373 L556,373 M54.5,404 L556,404 M54.5,436 L556,436 M54.5,467 L556,467 M54.5,467 L556,467 " fill="none"/></g>
<g id="yMajorGrid" stroke="rgb(200,220,255)" stroke-width="2"><path d="M54.5,90.1 L556,90.1 M54.5,184 L556,184 M54.5,279 L556,279 M54.5,373 L556,373 M54.5,467 L556,467 " fill="none"/></g>
<g id="xMinorGrid" stroke="rgb(240,240,255)" stroke-width="0.5"><path d="M130,44 L130,466 M160,44 L160,466 M221,44 L221,466 M252,44 L252,466 M313,44 L313,466 M343,44 L343,466 M404,44 L404,466 M435,44 L435,466 M496,44 L496,466 M526,44 L526,466 M68.7,44 L68.7,466 " fill="none"/></g>
<g id="xMajorGrid" stroke="rgb(200,220,255)" stroke-width="1"><path d="M99.2,43 L99.2,467 M191,43 L191,467 M282,43 L282,467 M374,43 L374,467 M465,43 L465,467 M557,43 L557,467 M99.2,43 L99.2,467 " fill="none"/></g>
<g id="yAxis" stroke="rgb(0,0,0)" stroke-width="1"><line x1="99.2" y1="43" x2="99.2" y2="467"/><line x1="557" y1="43" x2="557" y2="467"/></g>
<g id="xAxis" stroke="rgb(0,0,0)" stroke-width="1"><line x1="53.5" y1="43" x2="557" y2="43"/></g>
<g id="yMinorTicks" stroke="rgb(0,0,0)" stroke-width="1"><path d="M94.2,58.7 L99.2,58.7 M94.2,90.1 L99.2,90.1 M94.2,122 L99.2,122 M94.2,153 L99.2,153 M94.2,184 L99.2,184 M94.2,184 L99.2,184 M94.2,216 L99.2,216 M94.2,247 L99.2,247 M94.2,279 L99.2,279 M94.2,310 L99.2,310 M94.2,341 L99.2,341 M94.2,373 L99.2,373 M94.2,404 L99.2,404 M94.2,436 L99.2,436 M94.2,467 L99.2,467 M94.2,467 L99.2,467 " fill="none"/></g>
<g id="xMinorTicks" stroke="rgb(0,0,0)" stroke-width="1"><path d="M130,43 L130,48 M160,43 L160,48 M221,43 L221,48 M252,43 L252,48 M313,43 L313,48 M343,43 L343,48 M404,43 L404,48 M435,43 L435,48 M496,43 L496,48 M526,43 L526,48 M68.7,43 L68.7,48 " fill="none"/></g>
<g id="yMajorTicks" stroke="rgb(0,0,0)" stroke-width="2"><path d="M89.2,90.1 L99.2,90.1 M89.2,184 L99.2,184 M89.2,279 L99.2,279 M89.2,373 L99.2,373 M89.2,467 L99.2,467 " fill="none"/></g>
<g id="xMajorTicks" stroke="rgb(0,0,0)" stroke-width="2"><path d="M99.2,43 L99.2,53 M191,43 L191,53 M282,43 L282,53 M374,43 L374,53 M465,43 L465,53 M557,43 L557,53 M99.2,43 L99.2,53 " fill="none"/></g>
<g id="xTicksValues">
<text x="99.2" y="68.6" text-anchor="middle" font-size="12" font-family="Lucida Sans Unicode">0.00</text>
<text x="191" y="68.6" text-anchor="middle" font-size="12" font-family="Lucida Sans Unicode">2.00</text>
<text x="282" y="68.6" text-anchor="middle" font-size="12" font-family="Lucida Sans Unicode">4.00</text>
<text x="374" y="68.6" text-anchor="middle" font-size="12" font-family="Lucida Sans Unicode">6.00</text>
<text x="465" y="68.6" text-anchor="middle" font-size="12" font-family="Lucida Sans Unicode">8.00</text>
<text x="557" y="68.6" text-anchor="middle" font-size="12" font-family="Lucida Sans Unicode">1.00e1</text>
<text x="99.2" y="68.6" text-anchor="middle" font-size="12" font-family="Lucida Sans Unicode">0.00</text></g>
<g id="yTicksValues">
<text x="83.2" y="92.5" text-anchor="end" font-size="12" font-family="Lucida Sans Unicode">-2.0</text>
<text x="83.2" y="187" text-anchor="end" font-size="12" font-family="Lucida Sans Unicode">-4.0</text>
<text x="83.2" y="281" text-anchor="end" font-size="12" font-family="Lucida Sans Unicode">-6.0</text>
<text x="83.2" y="375" text-anchor="end" font-size="12" font-family="Lucida Sans Unicode">-8.0</text>
<text x="83.2" y="469" text-anchor="end" font-size="12" font-family="Lucida Sans Unicode">-10.0</text></g>
<g id="yLabel">
<text x="19" y="255" text-anchor="middle" transform = "rotate(-90 19 255 )" font-size="14" font-family="Lucida Sans Unicode">Y-axis</text></g>
<g id="xLabel">
<text x="305" y="487" text-anchor="middle" font-size="12" font-family="Lucida Sans Unicode">X-axis</text></g>
<g id="plotLines" stroke-width="2"><g clip-path="url(#plot_window)" stroke="rgb(0,0,0)" stroke-width="2"><path d="M-358,-4.62e+03 S-322,-3.9e+03 -312,-3.73e+03 S-276,-3.08e+03 -267,-2.93e+03 S-230,-2.35e+03 -221,-2.22e+03 S-184,-1.72e+03 -175,-1.61e+03 S-139,-1.18e+03 -129,-1.09e+03 S-92.9,-739 -83.7,-664 S-47.1,-390 -38,-334 S-1.39,-136 7.75,-98.3 S44.4,24.2 53.5,43 S90.1,90.1 99.2,90.1 S136,61.8 145,43 S182,-60.6 191,-98.3 S227,-277 236,-334 S273,-588 282,-664 S319,-993 328,-1.09e+03 S365,-1.49e+03 374,-1.61e+03 S410,-2.09e+03 419,-2.22e+03 S456,-2.77e+03 465,-2.93e+03 S502,-3.56e+03 511,-3.73e+03 S557,-4.71e+03 557,-4.62e+03 " fill="none"/></g>
</g>
<g id="plotPoints" clip-path="url(#plot_window)"><g stroke="rgb(0,0,0)" fill="rgb(255,165,0)">
<text x="99.2" y="91.6" text-anchor="middle" font-size="5" font-family="Lucida Sans Unicode">&#x25CB;</text></g>
</g>
<g id="limitPoints" stroke="rgb(119,136,153)" fill="rgb(250,235,215)"><polygon points=" 48.5,33 58.5,33 53.5,43"/><polygon points=" 48.5,33 58.5,33 53.5,43"/><polygon points=" 48.5,33 58.5,33 53.5,43"/><polygon points=" 48.5,33 58.5,33 53.5,43"/><polygon points=" 48.5,33 58.5,33 53.5,43"/><polygon points=" 48.5,33 58.5,33 53.5,43"/><polygon points=" 48.5,33 58.5,33 53.5,43"/><polygon points=" 48.5,33 58.5,33 53.5,43"/><polygon points=" 48.5,33 58.5,33 53.5,43"/><polygon points=" 48.5,33 58.5,33 53.5,43"/></g>
<g id="legendBackground" stroke="rgb(255,255,0)" fill="rgb(255,255,224)" stroke-width="1"><rect x="562" y="43" width="123" height="90.7"/></g>
<g id="legendPoints"><g stroke="rgb(0,0,0)" fill="rgb(255,0,0)">
<text x="579" y="93.6" text-anchor="middle" font-size="14" font-family="Lucida Sans Unicode">&#x25CB;</text></g>
<g stroke="rgb(0,0,0)" fill="rgb(255,165,0)">
<text x="579" y="106" text-anchor="middle" font-size="5" font-family="Lucida Sans Unicode">&#x25CB;</text></g>
<g stroke="rgb(0,0,0)" fill="rgb(255,255,0)">
<text x="579" y="122" text-anchor="middle" font-size="14" font-family="Lucida Sans Unicode">&#x25A1;</text></g>
</g>
<g id="legendText">
<text x="624" y="70.7" text-anchor="middle" font-size="16" font-family="Lucida Sans Unicode" font-weight="normal" textLength="88">Unicode &#x3A9;&#x3A6;</text>
<text x="590" y="91.3" font-size="10" font-family="Lucida Sans Unicode" font-weight="normal">Sqrt(x)</text>
<text x="590" y="105" font-size="10" font-family="Lucida Sans Unicode" font-weight="normal">-2 + x^2</text>
<text x="590" y="119" font-size="10" font-family="Lucida Sans Unicode" font-weight="normal">-1 + 2x</text></g>
<g id="title" fill="rgb(255,0,0)">
<text x="350" y="30" text-anchor="middle" font-size="20" font-family="Lucida Sans Unicode" font-weight="normal">Plot of Mathematical Functions YN</text></g>
<g id="plotXValues"></g>
<g id="plotYValues"></g>
</svg>
