<?xml version="1.0" encoding="UTF-8" standalone="no"?>
<svg width="500" height ="400" version="1.1"
xmlns:svg ="http://www.w3.org/2000/svg"
xmlns:rdf="http://www.w3.org/1999/02/22-rdf-syntax-ns#"
xmlns:cc="http://web.resource.org/cc/"
xmlns:dc="http://purl.org/dc/elements/1.1/"
xmlns ="http://www.w3.org/2000/svg"
>
<!-- SVG plot written using Boost.Plot program (Creator Jacob Voytko) --> 
<!-- Use, modification and distribution of Boost.Plot subject to the --> 
<!-- Boost Software License, Version 1.0.--> 
<!-- (See accompanying file LICENSE_1_0.txt --> 
<!-- or copy at http://www.boost.org/LICENSE_1_0.txt) --> 

<clipPath id="plot_window"><rect x="39.9" y="9" width="451" height="345"/></clipPath>
<g id="imageBackground" stroke="rgb(255,255,0)" fill="rgb(255,255,255)" stroke-width="2"><rect x="0" y="0" width="500" height="400"/></g>
<g id="plotBackground" stroke="rgb(119,136,153)" fill="rgb(255,255,255)" stroke-width="2"><rect x="38.9" y="8" width="453" height="347"/></g>
<g id="yMinorGrid" stroke="rgb(200,220,255)" stroke-width="0.5"></g>
<g id="yMajorGrid" stroke="rgb(200,220,255)" stroke-width="1"></g>
<g id="xMinorGrid" stroke="rgb(200,220,255)" stroke-width="0.5"></g>
<g id="xMajorGrid" stroke="rgb(200,220,255)" stroke-width="1"></g>
<g id="yAxis" stroke="rgb(0,0,0)" stroke-width="1"><line x1="38.9" y1="8" x2="38.9" y2="360"/><line x1="38.9" y1="8" x2="38.9" y2="355"/></g>
<g id="xAxis" stroke="rgb(0,0,0)" stroke-width="1"><line x1="33.9" y1="355" x2="492" y2="355"/><line x1="33.9" y1="355" x2="492" y2="355"/></g>
<g id="yMinorTicks" stroke="rgb(0,0,0)" stroke-width="1"><path d="M36.9,327 L38.9,327 M36.9,300 L38.9,300 M36.9,272 L38.9,272 M36.9,244 L38.9,244 M36.9,189 L38.9,189 M36.9,161 L38.9,161 M36.9,133 L38.9,133 M36.9,105 L38.9,105 M36.9,49.7 L38.9,49.7 M36.9,21.9 L38.9,21.9 M36.9,355 L38.9,355 " fill="none"/></g>
<g id="xMinorTicks" stroke="rgb(0,0,0)" stroke-width="1"><path d="M48,355 L48,357 M57.1,355 L57.1,357 M66.1,355 L66.1,357 M75.2,355 L75.2,357 M93.3,355 L93.3,357 M102,355 L102,357 M111,355 L111,357 M120,355 L120,357 M139,355 L139,357 M148,355 L148,357 M157,355 L157,357 M166,355 L166,357 M184,355 L184,357 M193,355 L193,357 M202,355 L202,357 M211,355 L211,357 M229,355 L229,357 M238,355 L238,357 M247,355 L247,357 M256,355 L256,357 M275,355 L275,357 M284,355 L284,357 M293,355 L293,357 M302,355 L302,357 M320,355 L320,357 M329,355 L329,357 M338,355 L338,357 M347,355 L347,357 M365,355 L365,357 M374,355 L374,357 M383,355 L383,357 M392,355 L392,357 M410,355 L410,357 M420,355 L420,357 M429,355 L429,357 M438,355 L438,357 M456,355 L456,357 M465,355 L465,357 M474,355 L474,357 M483,355 L483,357 " fill="none"/></g>
<g id="yMajorTicks" stroke="rgb(0,0,0)" stroke-width="2"><path d="M33.9,355 L38.9,355 M33.9,216 L38.9,216 M33.9,77.4 L38.9,77.4 M33.9,355 L38.9,355 " fill="none"/></g>
<g id="xMajorTicks" stroke="rgb(0,0,0)" stroke-width="2"><path d="M38.9,355 L38.9,360 M84.2,355 L84.2,360 M130,355 L130,360 M175,355 L175,360 M220,355 L220,360 M265,355 L265,360 M311,355 L311,360 M356,355 L356,360 M401,355 L401,360 M447,355 L447,360 M492,355 L492,360 M38.9,355 L38.9,360 " fill="none"/></g>
<g id="xTicksValues">
<text x="35.3" y="366" transform = "rotate(60 35.3 366 )" font-size="12" font-family="Verdana">0</text>
<text x="80.6" y="366" transform = "rotate(60 80.6 366 )" font-size="12" font-family="Verdana">2</text>
<text x="126" y="366" transform = "rotate(60 126 366 )" font-size="12" font-family="Verdana">4</text>
<text x="171" y="366" transform = "rotate(60 171 366 )" font-size="12" font-family="Verdana">6</text>
<text x="217" y="366" transform = "rotate(60 217 366 )" font-size="12" font-family="Verdana">8</text>
<text x="262" y="366" transform = "rotate(60 262 366 )" font-size="12" font-family="Verdana">10</text>
<text x="307" y="366" transform = "rotate(60 307 366 )" font-size="12" font-family="Verdana">12</text>
<text x="352" y="366" transform = "rotate(60 352 366 )" font-size="12" font-family="Verdana">14</text>
<text x="398" y="366" transform = "rotate(60 398 366 )" font-size="12" font-family="Verdana">16</text>
<text x="443" y="366" transform = "rotate(60 443 366 )" font-size="12" font-family="Verdana">18</text>
<text x="488" y="366" transform = "rotate(60 488 366 )" font-size="12" font-family="Verdana">20</text>
<text x="35.3" y="366" transform = "rotate(60 35.3 366 )" font-size="12" font-family="Verdana">0</text></g>
<g id="yTicksValues">
<text x="27.9" y="354" text-anchor="middle" transform = "rotate(-60 27.9 354 )" font-size="12" font-family="Verdana">0</text>
<text x="27.9" y="215" text-anchor="middle" transform = "rotate(-60 27.9 215 )" font-size="12" font-family="Verdana">2</text>
<text x="27.9" y="76.2" text-anchor="middle" transform = "rotate(-60 27.9 76.2 )" font-size="12" font-family="Verdana">4</text>
<text x="27.9" y="354" text-anchor="middle" transform = "rotate(-60 27.9 354 )" font-size="12" font-family="Verdana">0</text></g>
<g id="yLabel">
<text x="14" y="182" text-anchor="middle" transform = "rotate(-90 14 182 )" font-size="10" font-family="Verdana">y (small X axis label font size 10)</text></g>
<g id="xLabel">
<text x="265" y="389" text-anchor="middle" font-size="10" font-family="Verdana">x (small X axis label font size 10)</text></g>
<g id="plotPoints" clip-path="url(#plot_window)"><g stroke="rgb(255,0,0)" fill="rgb(255,255,255)"><circle cx="61.6" cy="286" r="5"/><circle cx="84.2" cy="257" r="5"/><circle cx="107" cy="235" r="5"/><circle cx="130" cy="216" r="5"/><circle cx="152" cy="200" r="5"/><circle cx="175" cy="185" r="5"/><circle cx="198" cy="171" r="5"/><circle cx="220" cy="159" r="5"/><circle cx="243" cy="147" r="5"/><circle cx="265" cy="136" r="5"/><circle cx="288" cy="125" r="5"/><circle cx="311" cy="115" r="5"/><circle cx="333" cy="105" r="5"/><circle cx="356" cy="95.4" r="5"/><circle cx="379" cy="86.2" r="5"/><circle cx="401" cy="77.4" r="5"/><circle cx="424" cy="68.9" r="5"/><circle cx="447" cy="60.6" r="5"/><circle cx="469" cy="52.5" r="5"/></g>
</g>
<g id="title">
<text x="250" y="36" text-anchor="middle" font-size="18" font-family="Verdana"></text></g>
<g id="plotXValues"></g>
<g id="plotYValues"></g>
</svg>
