<?xml version="1.0" encoding="UTF-8" standalone="no"?>
<svg width="700" height ="500" version="1.1"
xmlns:svg ="http://www.w3.org/2000/svg"
xmlns:rdf="http://www.w3.org/1999/02/22-rdf-syntax-ns#"
xmlns:cc="http://web.resource.org/cc/"
xmlns:dc="http://purl.org/dc/elements/1.1/"
xmlns ="http://www.w3.org/2000/svg"
>
<!-- SVG plot written using Boost.Plot program (Creator Jacob Voytko) --> 
<!-- Use, modification and distribution of Boost.Plot subject to the --> 
<!-- Boost Software License, Version 1.0.--> 
<!-- (See accompanying file LICENSE_1_0.txt --> 
<!-- or copy at http://www.boost.org/LICENSE_1_0.txt) --> 

<clipPath id="plot_window">	<rect x="39.2" y="58" width="535" height="386"/>
</clipPath>
	<g id="imageBackground" stroke="rgb(255,255,0)" fill="rgb(0,100,0)" stroke-width="2">
	<rect x="0" y="0" width="700" height="500"/>
</g>
	<g id="plotBackground" stroke="rgb(119,136,153)" fill="rgb(250,250,210)" stroke-width="2">
	<rect x="38.2" y="57" width="537" height="388"/>
</g>
	<g id="yMinorGrid" stroke="rgb(200,220,255)" stroke-width="0.5">
</g>
	<g id="yMajorGrid" stroke="rgb(0,0,0)" stroke-width="1">
	<path d="M40.2,251 L574,251 
M40.2,251 L574,251 
" fill="none"/>
</g>
	<g id="xMinorGrid" stroke="rgb(200,220,255)" stroke-width="0.5">
</g>
	<g id="xMajorGrid" stroke="rgb(200,220,255)" stroke-width="1">
</g>
	<g id="yAxis" stroke="rgb(0,0,0)" stroke-width="1">
	<line x1="62.6" y1="57" x2="62.6" y2="459"/>
	<line x1="38.2" y1="57" x2="38.2" y2="445"/>
</g>
	<g id="xAxis" stroke="rgb(0,0,0)" stroke-width="1">
	<line x1="33.2" y1="251" x2="576" y2="251"/>
	<line x1="33.2" y1="445" x2="576" y2="445"/>
</g>
	<g id="yMinorTicks" stroke="rgb(0,0,0)" stroke-width="1">
	<path d="M36.2,251 L38.2,251 
" fill="none"/>
</g>
	<g id="xMinorTicks" stroke="rgb(0,0,0)" stroke-width="1">
	<path d="M87,445 L87,452 
M111,445 L111,452 
M136,445 L136,452 
M185,445 L185,452 
M209,445 L209,452 
M234,445 L234,452 
M282,445 L282,452 
M307,445 L307,452 
M331,445 L331,452 
M380,445 L380,452 
M405,445 L405,452 
M429,445 L429,452 
M478,445 L478,452 
M502,445 L502,452 
M527,445 L527,452 
M576,445 L576,452 
M38.2,445 L38.2,452 
" fill="none"/>
</g>
	<g id="yMajorTicks" stroke="rgb(0,0,0)" stroke-width="2">
	<path d="M33.2,251 L38.2,251 
M33.2,251 L38.2,251 
" fill="none"/>
</g>
	<g id="xMajorTicks" stroke="rgb(0,0,0)" stroke-width="1">
	<path d="M62.6,445 L62.6,459 
M160,445 L160,459 
M258,445 L258,459 
M356,445 L356,459 
M453,445 L453,459 
M551,445 L551,459 
M62.6,445 L62.6,459 
" fill="none"/>
</g>
	<g id="xTicksValues" font-size="12" font-family="Lucida Sans Unicode" text-anchor="middle">
	<text x="62.6" y="475">0
	</text>
	<text x="160" y="475">2
	</text>
	<text x="258" y="475">4
	</text>
	<text x="356" y="475">6
	</text>
	<text x="453" y="475">8
	</text>
	<text x="551" y="475">10
	</text>
	<text x="62.6" y="475">0
	</text>
</g>
	<g id="yTicksValues" font-size="12" font-family="Lucida Sans Unicode" text-anchor="end">
	<text x="27.2" y="253">0
	</text>
	<text x="27.2" y="253">0
	</text>
</g>
	<g id="yLabel">
	<text x="14.9" y="251" text-anchor="middle" transform="rotate(-90 14.9 251)" font-size="14" font-family="Lucida Sans Unicode">
	</text>
</g>
	<g id="xLabel">
	<text x="307" y="488" text-anchor="middle" font-size="12" font-family="Lucida Sans Unicode">x Axis Units
	</text>
</g>
	<g id="plotLines" stroke-width="2">
	<g clip-path="url(#plot_window)" stroke="rgb(0,0,0)" stroke-width="2">
	<path d="M62.6,251 L62.6,251 
L81.8,184 
L101,126 
L120,88.1 
L139,74.6 
L159,88.1 
L178,126 
L197,184 
L216,251 
L235,318 
L254,376 
L274,414 
L293,427 
L312,414 
L331,376 
L350,318 
L370,251 
L389,184 
L408,126 
L427,88.1 
L446,74.6 
L465,88.1 
L485,126 
L504,184 
L523,251 
L542,318 
" fill="none"/>
</g>
	<g clip-path="url(#plot_window)" stroke="rgb(0,0,255)" stroke-width="1">
	<path d="M62.6,74.6 L62.6,74.6 
L81.8,88.1 
L101,126 
L120,184 
L139,251 
L159,318 
L178,376 
L197,414 
L216,427 
L235,414 
L254,376 
L274,318 
L293,251 
L312,184 
L331,126 
L350,88.1 
L370,74.6 
L389,88.1 
L408,126 
L427,184 
L446,251 
L465,318 
L485,376 
L504,414 
L523,427 
L542,414 
" fill="none"/>
</g>
	<g clip-path="url(#plot_window)" stroke="rgb(128,0,128)" stroke-width="0.5">
	<path d="M62.6,103 S78,107 81.8,110 S97.1,129 101,136 S116,174 120,185 S136,238 139,251 S155,305 159,317 S174,358 178,366 S193,388 197,392 S212,399 216,399 S231,395 235,392 S251,373 254,366 S270,328 274,317 S289,264 293,251 S308,197 312,185 S327,144 331,136 S347,114 350,110 S366,103 370,103 S385,107 389,110 S404,129 408,136 S423,174 427,185 S442,238 446,251 S462,305 465,317 S481,358 485,366 S500,388 504,392 S519,399 523,399 S542,391 542,392 " fill="none"/>
</g>
</g>
	<g id="plotPoints" clip-path="url(#plot_window)">
	<g stroke="rgb(0,0,0)" fill="rgb(255,255,0)" font-size="10" font-family="Lucida Sans Unicode" text-anchor="middle">
	<text x="62.6" y="254" text-anchor="middle">&#x25CF;
	</text>
	<text x="81.8" y="186" text-anchor="middle">&#x25CF;
	</text>
	<text x="101" y="129" text-anchor="middle">&#x25CF;
	</text>
	<text x="120" y="91" text-anchor="middle">&#x25CF;
	</text>
	<text x="139" y="77.6" text-anchor="middle">&#x25CF;
	</text>
	<text x="159" y="91" text-anchor="middle">&#x25CF;
	</text>
	<text x="178" y="129" text-anchor="middle">&#x25CF;
	</text>
	<text x="197" y="186" text-anchor="middle">&#x25CF;
	</text>
	<text x="216" y="254" text-anchor="middle">&#x25CF;
	</text>
	<text x="235" y="321" text-anchor="middle">&#x25CF;
	</text>
	<text x="254" y="379" text-anchor="middle">&#x25CF;
	</text>
	<text x="274" y="417" text-anchor="middle">&#x25CF;
	</text>
	<text x="293" y="430" text-anchor="middle">&#x25CF;
	</text>
	<text x="312" y="417" text-anchor="middle">&#x25CF;
	</text>
	<text x="331" y="379" text-anchor="middle">&#x25CF;
	</text>
	<text x="350" y="321" text-anchor="middle">&#x25CF;
	</text>
	<text x="370" y="254" text-anchor="middle">&#x25CF;
	</text>
	<text x="389" y="186" text-anchor="middle">&#x25CF;
	</text>
	<text x="408" y="129" text-anchor="middle">&#x25CF;
	</text>
	<text x="427" y="91" text-anchor="middle">&#x25CF;
	</text>
	<text x="446" y="77.6" text-anchor="middle">&#x25CF;
	</text>
	<text x="465" y="91" text-anchor="middle">&#x25CF;
	</text>
	<text x="485" y="129" text-anchor="middle">&#x25CF;
	</text>
	<text x="504" y="186" text-anchor="middle">&#x25CF;
	</text>
	<text x="523" y="254" text-anchor="middle">&#x25CF;
	</text>
	<text x="542" y="321" text-anchor="middle">&#x25CF;
	</text>
</g>
	<g stroke="rgb(0,0,0)" fill="rgb(255,0,0)" font-size="5" font-family="Lucida Sans Unicode" text-anchor="middle">
	<text x="62.6" y="76.1" text-anchor="middle" font-size="5" font-family="Lucida Sans Unicode">&#x25A0;
	</text>
	<text x="81.8" y="89.5" text-anchor="middle" font-size="5" font-family="Lucida Sans Unicode">&#x25A0;
	</text>
	<text x="101" y="128" text-anchor="middle" font-size="5" font-family="Lucida Sans Unicode">&#x25A0;
	</text>
	<text x="120" y="185" text-anchor="middle" font-size="5" font-family="Lucida Sans Unicode">&#x25A0;
	</text>
	<text x="139" y="252" text-anchor="middle" font-size="5" font-family="Lucida Sans Unicode">&#x25A0;
	</text>
	<text x="159" y="320" text-anchor="middle" font-size="5" font-family="Lucida Sans Unicode">&#x25A0;
	</text>
	<text x="178" y="377" text-anchor="middle" font-size="5" font-family="Lucida Sans Unicode">&#x25A0;
	</text>
	<text x="197" y="415" text-anchor="middle" font-size="5" font-family="Lucida Sans Unicode">&#x25A0;
	</text>
	<text x="216" y="429" text-anchor="middle" font-size="5" font-family="Lucida Sans Unicode">&#x25A0;
	</text>
	<text x="235" y="415" text-anchor="middle" font-size="5" font-family="Lucida Sans Unicode">&#x25A0;
	</text>
	<text x="254" y="377" text-anchor="middle" font-size="5" font-family="Lucida Sans Unicode">&#x25A0;
	</text>
	<text x="274" y="320" text-anchor="middle" font-size="5" font-family="Lucida Sans Unicode">&#x25A0;
	</text>
	<text x="293" y="252" text-anchor="middle" font-size="5" font-family="Lucida Sans Unicode">&#x25A0;
	</text>
	<text x="312" y="185" text-anchor="middle" font-size="5" font-family="Lucida Sans Unicode">&#x25A0;
	</text>
	<text x="331" y="128" text-anchor="middle" font-size="5" font-family="Lucida Sans Unicode">&#x25A0;
	</text>
	<text x="350" y="89.5" text-anchor="middle" font-size="5" font-family="Lucida Sans Unicode">&#x25A0;
	</text>
	<text x="370" y="76.1" text-anchor="middle" font-size="5" font-family="Lucida Sans Unicode">&#x25A0;
	</text>
	<text x="389" y="89.5" text-anchor="middle" font-size="5" font-family="Lucida Sans Unicode">&#x25A0;
	</text>
	<text x="408" y="128" text-anchor="middle" font-size="5" font-family="Lucida Sans Unicode">&#x25A0;
	</text>
	<text x="427" y="185" text-anchor="middle" font-size="5" font-family="Lucida Sans Unicode">&#x25A0;
	</text>
	<text x="446" y="252" text-anchor="middle" font-size="5" font-family="Lucida Sans Unicode">&#x25A0;
	</text>
	<text x="465" y="320" text-anchor="middle" font-size="5" font-family="Lucida Sans Unicode">&#x25A0;
	</text>
	<text x="485" y="377" text-anchor="middle" font-size="5" font-family="Lucida Sans Unicode">&#x25A0;
	</text>
	<text x="504" y="415" text-anchor="middle" font-size="5" font-family="Lucida Sans Unicode">&#x25A0;
	</text>
	<text x="523" y="429" text-anchor="middle" font-size="5" font-family="Lucida Sans Unicode">&#x25A0;
	</text>
	<text x="542" y="415" text-anchor="middle" font-size="5" font-family="Lucida Sans Unicode">&#x25A0;
	</text>
</g>
	<g stroke="rgb(0,0,0)" fill="rgb(0,0,255)" font-size="5" font-family="Lucida Sans Unicode" text-anchor="middle">
	<text x="62.6" y="252" text-anchor="middle" font-size="5" font-family="Lucida Sans Unicode">&#x25BD;
	</text>
	<text x="81.8" y="179" text-anchor="middle" font-size="5" font-family="Lucida Sans Unicode">&#x25BD;
	</text>
	<text x="101" y="76.1" text-anchor="middle" font-size="5" font-family="Lucida Sans Unicode">&#x25BD;
	</text>
	<text x="178" y="429" text-anchor="middle" font-size="5" font-family="Lucida Sans Unicode">&#x25BD;
	</text>
	<text x="197" y="326" text-anchor="middle" font-size="5" font-family="Lucida Sans Unicode">&#x25BD;
	</text>
	<text x="216" y="252" text-anchor="middle" font-size="5" font-family="Lucida Sans Unicode">&#x25BD;
	</text>
	<text x="235" y="179" text-anchor="middle" font-size="5" font-family="Lucida Sans Unicode">&#x25BD;
	</text>
	<text x="254" y="76.1" text-anchor="middle" font-size="5" font-family="Lucida Sans Unicode">&#x25BD;
	</text>
	<text x="331" y="429" text-anchor="middle" font-size="5" font-family="Lucida Sans Unicode">&#x25BD;
	</text>
	<text x="350" y="326" text-anchor="middle" font-size="5" font-family="Lucida Sans Unicode">&#x25BD;
	</text>
	<text x="370" y="252" text-anchor="middle" font-size="5" font-family="Lucida Sans Unicode">&#x25BD;
	</text>
	<text x="389" y="179" text-anchor="middle" font-size="5" font-family="Lucida Sans Unicode">&#x25BD;
	</text>
	<text x="408" y="76.1" text-anchor="middle" font-size="5" font-family="Lucida Sans Unicode">&#x25BD;
	</text>
	<text x="485" y="429" text-anchor="middle" font-size="5" font-family="Lucida Sans Unicode">&#x25BD;
	</text>
	<text x="504" y="326" text-anchor="middle" font-size="5" font-family="Lucida Sans Unicode">&#x25BD;
	</text>
	<text x="523" y="252" text-anchor="middle" font-size="5" font-family="Lucida Sans Unicode">&#x25BD;
	</text>
	<text x="542" y="179" text-anchor="middle" font-size="5" font-family="Lucida Sans Unicode">&#x25BD;
	</text>
</g>
</g>
	<g id="legendBackground" stroke="rgb(0,0,0)" fill="rgb(211,211,211)" stroke-width="1">
	<rect x="582" y="57" width="104" height="95.8"/>
</g>
	<g id="legendPoints">
	<g stroke="rgb(0,0,0)" fill="rgb(255,255,0)">
	<text x="597" y="103" text-anchor="middle">&#x25CF;
	</text>
</g>
	<g stroke="rgb(0,0,0)" fill="rgb(255,0,0)">
	<text x="597" y="115" text-anchor="middle" font-size="5" font-family="Lucida Sans Unicode">&#x25A0;
	</text>
</g>
	<g stroke="rgb(0,0,0)" fill="rgb(0,0,255)">
	<text x="597" y="127" text-anchor="middle" font-size="5" font-family="Lucida Sans Unicode">&#x25BD;
	</text>
</g>
</g>
	<g id="legendLines">
	<g stroke="rgb(0,0,0)" stroke-width="2">
	<line x1="603" y1="102" x2="609" y2="102"/>
</g>
	<g stroke="rgb(0,0,255)" stroke-width="1">
	<line x1="603" y1="114" x2="609" y2="114"/>
</g>
	<g stroke="rgb(128,0,128)" stroke-width="0.5">
	<line x1="603" y1="139" x2="609" y2="139"/>
</g>
</g>
	<g id="legendText">
	<text x="634" y="83" text-anchor="middle" font-size="15" font-family="Lucida Sans Unicode" font-weight="normal" textLength="55.8">Legend
	</text>
	<text x="618" y="102" font-size="10" font-family="Lucida Sans Unicode" font-weight="normal" textLength="36">sin(x)
	</text>
	<text x="618" y="114" font-size="10" font-family="Lucida Sans Unicode" font-weight="normal" textLength="36">cos(x)
	</text>
	<text x="618" y="127" font-size="10" font-family="Lucida Sans Unicode" font-weight="normal" textLength="36">tan(x)
	</text>
	<text x="618" y="139" font-size="10" font-family="Lucida Sans Unicode" font-weight="normal" textLength="54">sincos(x)
	</text>
</g>
	<g id="title" fill="rgb(255,255,255)">
	<text x="350" y="42" text-anchor="middle" font-size="28" font-family="Lucida Sans Unicode" font-weight="normal">Plot of sin, cos &#x26; tan and sincos functions
	</text>
</g>
	<g id="plotXValues">
</g>
	<g id="plotYValues">
</g>
</svg>
