<?xml version="1.0" encoding="UTF-8" standalone="no"?>
<svg width="500" height ="200" version="1.1"
xmlns:svg ="http://www.w3.org/2000/svg"
xmlns:rdf="http://www.w3.org/1999/02/22-rdf-syntax-ns#"
xmlns:cc="http://web.resource.org/cc/"
xmlns:dc="http://purl.org/dc/elements/1.1/"
xmlns ="http://www.w3.org/2000/svg"
>
<!-- SVG plot written using Boost.Plot program (Creator Jacob Voytko) --> 
<!-- Use, modification and distribution of Boost.Plot subject to the --> 
<!-- Boost Software License, Version 1.0.--> 
<!-- (See accompanying file LICENSE_1_0.txt --> 
<!-- or copy at http://www.boost.org/LICENSE_1_0.txt) --> 

<!-- File demo_1d_axis_scaling.svg --> 
<g id="imageBackground" stroke="rgb(255,255,0)" fill="rgb(255,255,255)" stroke-width="1">
	<rect x="0" y="0" width="500" height="200"/>
</g>
<g id="plotBackground" stroke="rgb(250,250,210)" fill="rgb(255,255,255)" stroke-width="1">
	<rect x="21" y="11" width="458" height="173"/>
</g>
<g id="xMinorGrid" stroke="rgb(200,220,255)" stroke-width="0.5">
</g>
<g id="xMajorGrid" stroke="rgb(200,220,255)" stroke-width="1">
</g>
<g id="xAxis" stroke="rgb(0,0,0)" stroke-width="1">
<line x1="21" y1="100" x2="479" y2="100"/></g>
<g id="xMinorTicks" stroke="rgb(0,0,0)" stroke-width="1">
<path d="M31.2,100 L31.2,102 M41.4,100 L41.4,102 M51.5,100 L51.5,102 M61.7,100 L61.7,102 M82.1,100 L82.1,102 M92.2,100 L92.2,102 M102,100 L102,102 M113,100 L113,102 M133,100 L133,102 M143,100 L143,102 M153,100 L153,102 M163,100 L163,102 M184,100 L184,102 M194,100 L194,102 M204,100 L204,102 M214,100 L214,102 M235,100 L235,102 M245,100 L245,102 M255,100 L255,102 M265,100 L265,102 M286,100 L286,102 M296,100 L296,102 M306,100 L306,102 M316,100 L316,102 M337,100 L337,102 M347,100 L347,102 M357,100 L357,102 M367,100 L367,102 M387,100 L387,102 M398,100 L398,102 M408,100 L408,102 M418,100 L418,102 M438,100 L438,102 M448,100 L448,102 M459,100 L459,102 M469,100 L469,102 " fill="none"/></g>
<g id="xMajorTicks" stroke="rgb(0,0,0)" stroke-width="2">
<path d="M21,100 L21,105 M71.9,100 L71.9,105 M123,100 L123,105 M174,100 L174,105 M225,100 L225,105 M275,100 L275,105 M326,100 L326,105 M377,100 L377,105 M428,100 L428,105 M479,100 L479,105 " fill="none"/></g>
<g id="xTicksValues">
	<text x="21" y="118" text-anchor="middle" font-size="10" font-family="Verdana">1</text>
	<text x="71.9" y="118" text-anchor="middle" font-size="10" font-family="Verdana">1.5</text>
	<text x="123" y="118" text-anchor="middle" font-size="10" font-family="Verdana">2</text>
	<text x="174" y="118" text-anchor="middle" font-size="10" font-family="Verdana">2.5</text>
	<text x="225" y="118" text-anchor="middle" font-size="10" font-family="Verdana">3</text>
	<text x="275" y="118" text-anchor="middle" font-size="10" font-family="Verdana">3.5</text>
	<text x="326" y="118" text-anchor="middle" font-size="10" font-family="Verdana">4</text>
	<text x="377" y="118" text-anchor="middle" font-size="10" font-family="Verdana">4.5</text>
	<text x="428" y="118" text-anchor="middle" font-size="10" font-family="Verdana">5</text>
	<text x="479" y="118" text-anchor="middle" font-size="10" font-family="Verdana">5.5</text>
</g>
<g id="xLabel">
	<text x="250" y="201" text-anchor="middle" font-size="10" font-family="Verdana"></text>
</g>
<g id="plotPoints">
<g stroke="rgb(0,0,0)">
<line x1="31.2" y1="99.5" x2="31.2" y2="89.5"/><line x1="347" y1="99.5" x2="347" y2="89.5"/><line x1="255" y1="99.5" x2="255" y2="89.5"/><line x1="469" y1="99.5" x2="469" y2="89.5"/></g>
<g stroke="rgb(0,0,0)">
<line x1="41.4" y1="99.5" x2="41.4" y2="89.5"/><line x1="153" y1="99.5" x2="153" y2="89.5"/><line x1="265" y1="99.5" x2="265" y2="89.5"/><line x1="377" y1="99.5" x2="377" y2="89.5"/></g>
<g stroke="rgb(0,0,0)">
<line x1="41.4" y1="99.5" x2="41.4" y2="89.5"/><line x1="153" y1="99.5" x2="153" y2="89.5"/><line x1="265" y1="99.5" x2="265" y2="89.5"/><line x1="377" y1="99.5" x2="377" y2="89.5"/></g>
<g stroke="rgb(0,0,0)">
<line x1="31.2" y1="99.5" x2="31.2" y2="89.5"/><line x1="347" y1="99.5" x2="347" y2="89.5"/><line x1="255" y1="99.5" x2="255" y2="89.5"/></g>
</g>
<g id="title">
	<text x="250" y="27" text-anchor="middle" font-size="18" font-family="Verdana"></text>
</g>
</svg>
