<?xml version="1.0" encoding="UTF-8" standalone="no"?>
<svg width="600" height ="400" version="1.1"
xmlns:svg ="http://www.w3.org/2000/svg"
xmlns:rdf="http://www.w3.org/1999/02/22-rdf-syntax-ns#"
xmlns:cc="http://web.resource.org/cc/"
xmlns:dc="http://purl.org/dc/elements/1.1/"
xmlns ="http://www.w3.org/2000/svg"
>
<!-- SVG plot written using Boost.Plot program (Creator Jacob Voytko) --> 
<!-- Use, modification and distribution of Boost.Plot subject to the --> 
<!-- Boost Software License, Version 1.0.--> 
<!-- (See accompanying file LICENSE_1_0.txt --> 
<!-- or copy at http://www.boost.org/LICENSE_1_0.txt) --> 

<!-- File ./demo_1d_meas.svg --> 
	<g id="imageBackground" stroke="rgb(255,0,0)" fill="rgb(255,255,255)" stroke-width="1">
	<rect x="0" y="0" width="600" height="400"/>
</g>
	<g id="plotBackground" stroke="rgb(255,255,0)" fill="rgb(255,255,255)" stroke-width="1">
	<rect x="21" y="42.5" width="558" height="329"/>
</g>
	<g id="xMinorGrid" stroke="rgb(200,220,255)" stroke-width="0.5">
</g>
	<g id="xMajorGrid" stroke="rgb(200,220,255)" stroke-width="1">
</g>
	<g id="xAxis" stroke="rgb(0,0,0)" stroke-width="1">
	<line x1="21" y1="293" x2="579" y2="293"/>
</g>
	<g id="xMinorTicks" stroke="rgb(0,0,0)" stroke-width="1">
	<path d="M39.6,293 L39.6,295 
M58.2,293 L58.2,295 
M76.8,293 L76.8,295 
M95.4,293 L95.4,295 
M133,293 L133,295 
M151,293 L151,295 
M170,293 L170,295 
M188,293 L188,295 
M226,293 L226,295 
M244,293 L244,295 
M263,293 L263,295 
M281,293 L281,295 
M319,293 L319,295 
M337,293 L337,295 
M356,293 L356,295 
M374,293 L374,295 
M412,293 L412,295 
M430,293 L430,295 
M449,293 L449,295 
M467,293 L467,295 
M505,293 L505,295 
M523,293 L523,295 
M542,293 L542,295 
M560,293 L560,295 
" fill="none"/>
</g>
	<g id="xMajorTicks" stroke="rgb(0,0,0)" stroke-width="2">
	<path d="M21,293 L21,298 
M114,293 L114,298 
M207,293 L207,298 
M300,293 L300,298 
M393,293 L393,298 
M486,293 L486,298 
M579,293 L579,298 
" fill="none"/>
</g>
	<g id="xTicksValues">
	<text x="21" y="311" text-anchor="middle" font-size="10" font-family="Verdana">2
	</text>
	<text x="114" y="311" text-anchor="middle" font-size="10" font-family="Verdana">3
	</text>
	<text x="207" y="311" text-anchor="middle" font-size="10" font-family="Verdana">4
	</text>
	<text x="300" y="311" text-anchor="middle" font-size="10" font-family="Verdana">5
	</text>
	<text x="393" y="311" text-anchor="middle" font-size="10" font-family="Verdana">6
	</text>
	<text x="486" y="311" text-anchor="middle" font-size="10" font-family="Verdana">7
	</text>
	<text x="579" y="311" text-anchor="middle" font-size="10" font-family="Verdana">8
	</text>
</g>
	<g id="xLabel">
	<text x="300" y="388" text-anchor="middle" font-size="10" font-family="Verdana">times (sec)
	</text>
</g>
	<g id="plotUnc3" stroke="rgb(250,250,210)" fill="rgb(250,250,210)" stroke-width="1">
	<ellipse cx="76.8" cy="286" rx="27.9" ry="9"/>
	<ellipse cx="337" cy="286" rx="55.8" ry="9"/>
</g>
	<g id="plotUnc2" stroke="rgb(255,218,185)" fill="rgb(255,218,185)" stroke-width="1">
	<ellipse cx="76.8" cy="286" rx="18.6" ry="6"/>
	<ellipse cx="337" cy="286" rx="37.2" ry="6"/>
</g>
	<g id="plotUnc1" stroke="rgb(255,0,255)" fill="rgb(255,192,203)" stroke-width="1">
	<ellipse cx="76.8" cy="286" rx="9.3" ry="3"/>
	<ellipse cx="337" cy="286" rx="18.6" ry="3"/>
</g>
	<g id="plotPoints">
	<g stroke="rgb(0,0,0)">
	<line x1="202" y1="291" x2="202" y2="281"/>
	<line x1="402" y1="291" x2="402" y2="281"/>
</g>
	<g stroke="rgb(255,0,0)" fill="rgb(0,128,0)">
	<text x="123" y="289" text-anchor="middle">&#x25CF;
	</text>
	<text x="226" y="289" text-anchor="middle">&#x25CF;
	</text>
</g>
	<g stroke="rgb(0,0,255)">
	<line x1="30.3" y1="291" x2="30.3" y2="281"/>
	<line x1="309" y1="291" x2="309" y2="281"/>
	<line x1="505" y1="291" x2="505" y2="281"/>
	<line x1="151" y1="291" x2="151" y2="281"/>
	<line x1="477" y1="291" x2="477" y2="281"/>
</g>
	<g stroke="rgb(255,0,255)" fill="rgb(255,255,224)">
	<circle cx="76.8" cy="286" r="1"/>
	<circle cx="337" cy="286" r="1"/>
</g>
	<g stroke="rgb(128,0,128)" fill="rgb(255,165,0)">
	<text x="142" y="289" text-anchor="middle">&#x25CF;
	</text>
	<text x="254" y="289" text-anchor="middle">&#x25CF;
	</text>
</g>
</g>
	<g id="title">
	<text x="300" y="27" text-anchor="middle" font-size="18" font-family="Verdana">A, B and C Times
	</text>
</g>
	<g id="plotXValues">
	<g>
	<text x="205" y="283" transform="rotate(-30 205 283)" font-size="10" font-family="Verdana">4
		<tspan fill="rgb(0,128,0)" font-size="9" font-family="Verdana">&#x00A0;(0)</tspan>
		<tspan fill="rgb(165,42,42)" font-size="9" font-family="Verdana"> #-1</tspan>
	</text>
</g>
	<g>
	<text x="405" y="283" transform="rotate(-30 405 283)" font-size="10" font-family="Verdana">6.1
		<tspan fill="rgb(0,128,0)" font-size="9" font-family="Verdana">&#x00A0;(0)</tspan>
		<tspan fill="rgb(165,42,42)" font-size="9" font-family="Verdana"> #-1</tspan>
	</text>
</g>
	<g>
	<text x="126" y="280" transform="rotate(-30 126 280)" font-size="10" font-family="Verdana">3.1
		<tspan fill="rgb(0,0,255)" font-size="10" font-family="Verdana">&#x00A0;&#x00B1;</tspan>
		<tspan fill="rgb(0,0,255)" font-size="9" font-family="Verdana">0.02</tspan>
		<tspan fill="rgb(0,128,0)" font-size="9" font-family="Verdana">&#x00A0;(8)</tspan>
		<tspan fill="rgb(165,42,42)" font-size="9" font-family="Verdana"> #-1</tspan>
	</text>
</g>
	<g>
	<text x="229" y="280" transform="rotate(-30 229 280)" font-size="10" font-family="Verdana">4.2
		<tspan fill="rgb(0,0,255)" font-size="10" font-family="Verdana">&#x00A0;&#x00B1;</tspan>
		<tspan fill="rgb(0,0,255)" font-size="9" font-family="Verdana">0.01</tspan>
		<tspan fill="rgb(0,128,0)" font-size="9" font-family="Verdana">&#x00A0;(14)</tspan>
		<tspan fill="rgb(165,42,42)" font-size="9" font-family="Verdana"> #-1</tspan>
	</text>
</g>
	<g>
	<text x="33.3" y="283" transform="rotate(-30 33.3 283)" font-size="10" font-family="Verdana">2.1
		<tspan fill="rgb(0,0,255)" font-size="10" font-family="Verdana">&#x00A0;&#x00B1;</tspan>
		<tspan fill="rgb(0,0,255)" font-size="9" font-family="Verdana">0.001</tspan>
		<tspan fill="rgb(0,128,0)" font-size="9" font-family="Verdana">&#x00A0;(29)</tspan>
		<tspan fill="rgb(165,42,42)" font-size="9" font-family="Verdana"> #-1</tspan>
	</text>
</g>
	<g>
	<text x="312" y="283" transform="rotate(-30 312 283)" font-size="10" font-family="Verdana">5.1
		<tspan fill="rgb(0,0,255)" font-size="10" font-family="Verdana">&#x00A0;&#x00B1;</tspan>
		<tspan fill="rgb(0,0,255)" font-size="9" font-family="Verdana">0.025</tspan>
		<tspan fill="rgb(0,128,0)" font-size="9" font-family="Verdana">&#x00A0;(20)</tspan>
		<tspan fill="rgb(165,42,42)" font-size="9" font-family="Verdana"> #-1</tspan>
	</text>
</g>
	<g>
	<text x="508" y="283" transform="rotate(-30 508 283)" font-size="10" font-family="Verdana">7.2
		<tspan fill="rgb(0,0,255)" font-size="10" font-family="Verdana">&#x00A0;&#x00B1;</tspan>
		<tspan fill="rgb(0,0,255)" font-size="9" font-family="Verdana">0.0025</tspan>
		<tspan fill="rgb(0,128,0)" font-size="9" font-family="Verdana">&#x00A0;(0)</tspan>
		<tspan fill="rgb(165,42,42)" font-size="9" font-family="Verdana"> #-1</tspan>
	</text>
</g>
	<g>
	<text x="154" y="283" transform="rotate(-30 154 283)" font-size="10" font-family="Verdana">3.4
		<tspan fill="rgb(0,0,255)" font-size="10" font-family="Verdana">&#x00A0;&#x00B1;</tspan>
		<tspan fill="rgb(0,0,255)" font-size="9" font-family="Verdana">0.03</tspan>
		<tspan fill="rgb(0,128,0)" font-size="9" font-family="Verdana">&#x00A0;(0)</tspan>
		<tspan fill="rgb(165,42,42)" font-size="9" font-family="Verdana"> #-1</tspan>
	</text>
</g>
	<g>
	<text x="480" y="283" transform="rotate(-30 480 283)" font-size="10" font-family="Verdana">6.9
		<tspan fill="rgb(0,128,0)" font-size="9" font-family="Verdana">&#x00A0;(0)</tspan>
		<tspan fill="rgb(165,42,42)" font-size="9" font-family="Verdana"> #-1</tspan>
	</text>
</g>
	<g>
	<text x="79.8" y="283" transform="rotate(-30 79.8 283)" font-size="10" font-family="Verdana">2.6
		<tspan fill="rgb(0,0,255)" font-size="10" font-family="Verdana">&#x00A0;&#x00B1;</tspan>
		<tspan fill="rgb(0,0,255)" font-size="9" font-family="Verdana">0.1</tspan>
		<tspan fill="rgb(0,128,0)" font-size="9" font-family="Verdana">&#x00A0;(5)</tspan>
		<tspan fill="rgb(165,42,42)" font-size="9" font-family="Verdana"> #-1</tspan>
	</text>
</g>
	<g>
	<text x="340" y="283" transform="rotate(-30 340 283)" font-size="10" font-family="Verdana">5.4
		<tspan fill="rgb(0,0,255)" font-size="10" font-family="Verdana">&#x00A0;&#x00B1;</tspan>
		<tspan fill="rgb(0,0,255)" font-size="9" font-family="Verdana">0.2</tspan>
		<tspan fill="rgb(0,128,0)" font-size="9" font-family="Verdana">&#x00A0;(11)</tspan>
		<tspan fill="rgb(165,42,42)" font-size="9" font-family="Verdana"> #-1</tspan>
	</text>
</g>
	<g>
	<text x="145" y="280" transform="rotate(-30 145 280)" font-size="10" font-family="Verdana">3.3
		<tspan fill="rgb(0,0,255)" font-size="10" font-family="Verdana">&#x00A0;&#x00B1;</tspan>
		<tspan fill="rgb(0,0,255)" font-size="9" font-family="Verdana">0.1</tspan>
		<tspan fill="rgb(0,128,0)" font-size="9" font-family="Verdana">&#x00A0;(5)</tspan>
		<tspan fill="rgb(255,0,0)" font-size="9" font-family="Verdana"> "first" </tspan>
		<tspan fill="rgb(255,0,255)" font-size="9" font-family="Verdana">13:01:00</tspan>
		<tspan fill="rgb(165,42,42)" font-size="9" font-family="Verdana"> #1</tspan>
	</text>
</g>
	<g>
	<text x="256" y="280" transform="rotate(-30 256 280)" font-size="10" font-family="Verdana">4.5
		<tspan fill="rgb(0,0,255)" font-size="10" font-family="Verdana">&#x00A0;&#x00B1;</tspan>
		<tspan fill="rgb(0,0,255)" font-size="9" font-family="Verdana">0.2</tspan>
		<tspan fill="rgb(0,128,0)" font-size="9" font-family="Verdana">&#x00A0;(3)</tspan>
		<tspan fill="rgb(255,0,0)" font-size="9" font-family="Verdana"> "2nd" </tspan>
		<tspan fill="rgb(255,0,255)" font-size="9" font-family="Verdana">09:12:00</tspan>
		<tspan fill="rgb(165,42,42)" font-size="9" font-family="Verdana"> #2</tspan>
	</text>
</g>
</g>
</svg>
