<?xml version="1.0" encoding="UTF-8" standalone="no"?>
<svg width="500" height ="200" version="1.1"
xmlns:svg ="http://www.w3.org/2000/svg"
xmlns:rdf="http://www.w3.org/1999/02/22-rdf-syntax-ns#"
xmlns:cc="http://web.resource.org/cc/"
xmlns:dc="http://purl.org/dc/elements/1.1/"
xmlns ="http://www.w3.org/2000/svg"
>
<!-- SVG plot written using Boost.Plot program (Creator Jacob Voytko) --> 
<!-- Use, modification and distribution of Boost.Plot subject to the --> 
<!-- Boost Software License, Version 1.0.--> 
<!-- (See accompanying file LICENSE_1_0.txt --> 
<!-- or copy at http://www.boost.org/LICENSE_1_0.txt) --> 

<!-- File ./demo_1d_simple.svg --> 

<g id="imageBackground" stroke="rgb(255,255,0)" fill="rgb(255,255,255)" stroke-width="1">
	<rect x="0" y="0" width="500" height="200"/>
</g>

<g id="plotBackground" stroke="rgb(250,250,210)" fill="rgb(255,255,255)" stroke-width="1">
	<rect x="21" y="42.5" width="411" height="129"/>
</g>

<g id="xMinorGrid" stroke="rgb(200,220,255)" stroke-width="0.5">
</g>

<g id="xMajorGrid" stroke="rgb(200,220,255)" stroke-width="1">
</g>

<g id="xAxis" stroke="rgb(0,0,0)" stroke-width="1">
	<line x1="55.2" y1="42.5" x2="55.2" y2="172"/>
	<line x1="21" y1="110" x2="432" y2="110"/>
</g>

<g id="xMinorTicks" stroke="rgb(0,0,0)" stroke-width="1">
	<path d="M68.9,110 L68.9,112 
M82.6,110 L82.6,112 
M96.3,110 L96.3,112 
M110,110 L110,112 
M137,110 L137,112 
M151,110 L151,112 
M165,110 L165,112 
M178,110 L178,112 
M206,110 L206,112 
M220,110 L220,112 
M233,110 L233,112 
M247,110 L247,112 
M274,110 L274,112 
M288,110 L288,112 
M302,110 L302,112 
M315,110 L315,112 
M343,110 L343,112 
M356,110 L356,112 
M370,110 L370,112 
M384,110 L384,112 
M411,110 L411,112 
M425,110 L425,112 
M41.5,110 L41.5,112 
M27.8,110 L27.8,112 
" fill="none"/>
</g>

<g id="xMajorTicks" stroke="rgb(0,0,0)" stroke-width="2">
	<path d="M55.2,110 L55.2,115 
M124,110 L124,115 
M192,110 L192,115 
M261,110 L261,115 
M329,110 L329,115 
M398,110 L398,115 
M55.2,110 L55.2,115 
" fill="none"/>
</g>

<g id="xTicksValues">
	<text x="124" y="128" text-anchor="middle" font-size="10" font-family="Verdana">2
	</text>
	<text x="192" y="128" text-anchor="middle" font-size="10" font-family="Verdana">4
	</text>
	<text x="261" y="128" text-anchor="middle" font-size="10" font-family="Verdana">6
	</text>
	<text x="329" y="128" text-anchor="middle" font-size="10" font-family="Verdana">8
	</text>
	<text x="398" y="128" text-anchor="middle" font-size="10" font-family="Verdana">10
	</text>
</g>

<g id="xLabel">
	<text x="226" y="189" text-anchor="middle" font-size="10" font-family="Verdana">time (sec)
	</text>
</g>

<g id="plotPoints">

<g stroke="rgb(0,0,255)">
	<line x1="161" y1="109" x2="161" y2="99"/>
	<line x1="199" y1="109" x2="199" y2="99"/>
</g>

<g stroke="rgb(255,165,0)">
	<line x1="127" y1="109" x2="127" y2="99"/>
	<line x1="322" y1="109" x2="322" y2="99"/>
</g>
</g>

<g id="legendBackground" stroke="rgb(255,255,0)" fill="rgb(255,255,255)" stroke-width="1">
	<rect x="438" y="42.5" width="53.2" height="27"/>
</g>

<g id="legendPoints">

<g stroke="rgb(0,0,255)">
	<line x1="444" y1="60" x2="444" y2="50"/>
</g>

<g stroke="rgb(255,165,0)">
	<line x1="444" y1="72.5" x2="444" y2="62.5"/>
</g>
</g>

<g id="legendText">
	<text x="451" y="56" font-size="10" font-family="Verdana" textLength="19.2">Dan
	</text>
	<text x="451" y="68.5" font-size="10" font-family="Verdana" textLength="37.2">Elaine
	</text>
</g>

<g id="title">
	<text x="250" y="27" text-anchor="middle" font-size="18" font-family="Verdana">Race Times
	</text>
</g>
</svg>
