<?xml version="1.0" encoding="UTF-8" standalone="no"?>
<svg width="500" height ="200" version="1.1"
xmlns:svg ="http://www.w3.org/2000/svg"
xmlns:rdf="http://www.w3.org/1999/02/22-rdf-syntax-ns#"
xmlns:cc="http://web.resource.org/cc/"
xmlns:dc="http://purl.org/dc/elements/1.1/"
xmlns ="http://www.w3.org/2000/svg"
>
<!-- SVG plot written using Boost.Plot program (Creator Jacob Voytko) --> 
<!-- Use, modification and distribution of Boost.Plot subject to the --> 
<!-- Boost Software License, Version 1.0.--> 
<!-- (See accompanying file LICENSE_1_0.txt --> 
<!-- or copy at http://www.boost.org/LICENSE_1_0.txt) --> 

<!-- File demo_color.svg --> 
<g id="imageBackground" stroke="rgb(255,255,0)" fill="rgb(255,255,255)" stroke-width="1"><rect x="0" y="0" width="500" height="200"/></g>
<g id="plotBackground" stroke="rgb(250,250,210)" fill="rgb(255,255,255)" stroke-width="1"><rect x="11" y="11" width="390" height="145"/></g>
<g id="xMinorGrid" stroke="rgb(200,220,255)" stroke-width="0.5"></g>
<g id="xMajorGrid" stroke="rgb(200,220,255)" stroke-width="1"></g>
<g id="xAxis" stroke="rgb(0,0,255)" stroke-width="1"><line x1="11" y1="11" x2="11" y2="156"/><line x1="11" y1="86" x2="401" y2="86"/></g>
<g id="xMinorTicks" stroke="rgb(0,0,0)" stroke-width="1"><path d="M33.3,86 L33.3,88 M55.6,86 L55.6,88 M77.9,86 L77.9,88 M100,86 L100,88 M145,86 L145,88 M167,86 L167,88 M189,86 L189,88 M212,86 L212,88 M256,86 L256,88 M279,86 L279,88 M301,86 L301,88 M323,86 L323,88 M368,86 L368,88 M390,86 L390,88 " fill="none"/></g>
<g id="xMajorTicks" stroke="rgb(0,0,0)" stroke-width="2"><path d="M11,86 L11,91 M123,86 L123,91 M234,86 L234,91 M346,86 L346,91 M11,86 L11,91 " fill="none"/></g>
<g id="xTicksValues">
<text x="123" y="107" text-anchor="middle" font-size="12" font-family="Verdana">2</text>
<text x="234" y="107" text-anchor="middle" font-size="12" font-family="Verdana">4</text>
<text x="346" y="107" text-anchor="middle" font-size="12" font-family="Verdana">6</text></g>
<g id="xLabel" stroke="rgb(255,0,255)" fill="rgb(255,0,255)">
<text x="206" y="180" text-anchor="middle" font-size="14" font-family="Verdana">axis</text></g>
<g id="plotPoints"><g stroke="rgb(0,0,0)"><line x1="66.8" y1="88.5" x2="66.8" y2="78.5"/><line x1="123" y1="88.5" x2="123" y2="78.5"/><line x1="178" y1="88.5" x2="178" y2="78.5"/></g>
</g>
<g id="legendBackground" stroke="rgb(255,255,0)" fill="rgb(255,255,255)" stroke-width="1"><rect x="410" y="11" width="96" height="37.6"/></g>
<g id="legendPoints"><g stroke="rgb(0,0,0)" stroke-width="2"><line x1="423" y1="54" x2="423" y2="44"/></g>
</g>
<g id="legendText">
<text x="426" y="49" font-size="14" font-family="Verdana">My Data</text></g>
<g id="title">
<text x="250" y="36" text-anchor="middle" font-size="18" font-family="Verdana"></text></g>
</svg>
