<?xml version="1.0" encoding="UTF-8" standalone="no"?>
<svg width="400" height ="400" version="1.1"
xmlns:svg ="http://www.w3.org/2000/svg"
xmlns:rdf="http://www.w3.org/1999/02/22-rdf-syntax-ns#"
xmlns:cc="http://web.resource.org/cc/"
xmlns:dc="http://purl.org/dc/elements/1.1/"
xmlns ="http://www.w3.org/2000/svg"
>
<!-- SVG plot written using Boost.Plot program (Creator Jacob Voytko) --> 
<!-- Use, modification and distribution of Boost.Plot subject to the --> 
<!-- Boost Software License, Version 1.0.--> 
<!-- (See accompanying file LICENSE_1_0.txt --> 
<!-- or copy at http://www.boost.org/LICENSE_1_0.txt) --> 

<clipPath id="plot_window">	<rect x="53.6" y="9" width="319" height="359"/>
</clipPath>
	<g id="imageBackground" stroke="rgb(255,255,0)" fill="rgb(255,255,255)" stroke-width="2">
	<rect x="0" y="0" width="400" height="400"/>
</g>
	<g id="plotBackground" stroke="rgb(119,136,153)" fill="rgb(255,255,255)" stroke-width="2">
	<rect x="52.6" y="8" width="321" height="361"/>
</g>
	<g id="yMinorGrid" stroke="rgb(200,220,255)" stroke-width="0.5">
</g>
	<g id="yMajorGrid" stroke="rgb(200,220,255)" stroke-width="1">
</g>
	<g id="xMinorGrid" stroke="rgb(200,220,255)" stroke-width="0.5">
</g>
	<g id="xMajorGrid" stroke="rgb(200,220,255)" stroke-width="1">
</g>
	<g id="yAxis" stroke="rgb(0,0,0)" stroke-width="1">
	<line x1="213" y1="8" x2="213" y2="374"/>
	<line x1="52.6" y1="8" x2="52.6" y2="369"/>
</g>
	<g id="xAxis" stroke="rgb(0,0,0)" stroke-width="1">
	<line x1="47.6" y1="189" x2="374" y2="189"/>
	<line x1="47.6" y1="369" x2="374" y2="369"/>
</g>
	<g id="yMinorTicks" stroke="rgb(0,0,0)" stroke-width="1">
	<path d="M50.6,181 L52.6,181 
M50.6,174 L52.6,174 
M50.6,167 L52.6,167 
M50.6,160 L52.6,160 
M50.6,145 L52.6,145 
M50.6,138 L52.6,138 
M50.6,131 L52.6,131 
M50.6,124 L52.6,124 
M50.6,109 L52.6,109 
M50.6,102 L52.6,102 
M50.6,94.6 L52.6,94.6 
M50.6,87.4 L52.6,87.4 
M50.6,73 L52.6,73 
M50.6,65.8 L52.6,65.8 
M50.6,58.5 L52.6,58.5 
M50.6,51.3 L52.6,51.3 
M50.6,36.9 L52.6,36.9 
M50.6,29.7 L52.6,29.7 
M50.6,22.4 L52.6,22.4 
M50.6,15.2 L52.6,15.2 
M50.6,189 L52.6,189 
M50.6,196 L52.6,196 
M50.6,203 L52.6,203 
M50.6,210 L52.6,210 
M50.6,217 L52.6,217 
M50.6,225 L52.6,225 
M50.6,232 L52.6,232 
M50.6,239 L52.6,239 
M50.6,246 L52.6,246 
M50.6,253 L52.6,253 
M50.6,261 L52.6,261 
M50.6,261 L52.6,261 
M50.6,268 L52.6,268 
M50.6,275 L52.6,275 
M50.6,282 L52.6,282 
M50.6,290 L52.6,290 
M50.6,297 L52.6,297 
M50.6,304 L52.6,304 
M50.6,311 L52.6,311 
M50.6,318 L52.6,318 
M50.6,326 L52.6,326 
M50.6,333 L52.6,333 
M50.6,340 L52.6,340 
M50.6,347 L52.6,347 
M50.6,355 L52.6,355 
M50.6,362 L52.6,362 
M50.6,369 L52.6,369 
" fill="none"/>
</g>
	<g id="xMinorTicks" stroke="rgb(0,0,0)" stroke-width="1">
	<path d="M220,369 L220,371 
M226,369 L226,371 
M233,369 L233,371 
M239,369 L239,371 
M252,369 L252,371 
M258,369 L258,371 
M265,369 L265,371 
M271,369 L271,371 
M284,369 L284,371 
M290,369 L290,371 
M297,369 L297,371 
M303,369 L303,371 
M316,369 L316,371 
M323,369 L323,371 
M329,369 L329,371 
M335,369 L335,371 
M348,369 L348,371 
M355,369 L355,371 
M361,369 L361,371 
M368,369 L368,371 
M207,369 L207,371 
M200,369 L200,371 
M194,369 L194,371 
M188,369 L188,371 
M175,369 L175,371 
M168,369 L168,371 
M162,369 L162,371 
M155,369 L155,371 
M143,369 L143,371 
M136,369 L136,371 
M130,369 L130,371 
M123,369 L123,371 
M110,369 L110,371 
M104,369 L104,371 
M97.6,369 L97.6,371 
M91.2,369 L91.2,371 
M78.3,369 L78.3,371 
M71.9,369 L71.9,371 
M65.5,369 L65.5,371 
M59,369 L59,371 
" fill="none"/>
</g>
	<g id="yMajorTicks" stroke="rgb(0,0,0)" stroke-width="2">
	<path d="M47.6,189 L52.6,189 
M47.6,152 L52.6,152 
M47.6,116 L52.6,116 
M47.6,80.2 L52.6,80.2 
M47.6,44.1 L52.6,44.1 
M47.6,8 L52.6,8 
M47.6,189 L52.6,189 
M47.6,225 L52.6,225 
M47.6,261 L52.6,261 
M47.6,297 L52.6,297 
M47.6,333 L52.6,333 
M47.6,369 L52.6,369 
" fill="none"/>
</g>
	<g id="xMajorTicks" stroke="rgb(0,0,0)" stroke-width="2">
	<path d="M213,369 L213,374 
M245,369 L245,374 
M278,369 L278,374 
M310,369 L310,374 
M342,369 L342,374 
M374,369 L374,374 
M213,369 L213,374 
M181,369 L181,374 
M149,369 L149,374 
M117,369 L117,374 
M84.7,369 L84.7,374 
M52.6,369 L52.6,374 
" fill="none"/>
</g>
	<g id="xTicksValues" font-size="12" font-family="Lucida Sans Unicode" text-anchor="middle">
	<text x="213" y="390">0
	</text>
	<text x="245" y="390">2
	</text>
	<text x="278" y="390">4
	</text>
	<text x="310" y="390">6
	</text>
	<text x="342" y="390">8
	</text>
	<text x="374" y="390">10
	</text>
	<text x="213" y="390">0
	</text>
	<text x="181" y="390">-2
	</text>
	<text x="149" y="390">-4
	</text>
	<text x="117" y="390">-6
	</text>
	<text x="84.7" y="390">-8
	</text>
	<text x="52.6" y="390">-10
	</text>
</g>
	<g id="yTicksValues" font-size="12" font-family="Lucida Sans Unicode" text-anchor="end">
	<text x="41.6" y="191">0
	</text>
	<text x="41.6" y="155">2
	</text>
	<text x="41.6" y="119">4
	</text>
	<text x="41.6" y="82.6">6
	</text>
	<text x="41.6" y="46.5">8
	</text>
	<text x="41.6" y="10.4">10
	</text>
	<text x="41.6" y="191">0
	</text>
	<text x="41.6" y="227">-2
	</text>
	<text x="41.6" y="263">-4
	</text>
	<text x="41.6" y="299">-6
	</text>
	<text x="41.6" y="335">-8
	</text>
	<text x="41.6" y="371">-10
	</text>
</g>
	<g id="yLabel">
	<text x="14.9" y="189" text-anchor="middle" transform="rotate(-90 14.9 189)" font-size="14" font-family="Lucida Sans Unicode">
	</text>
</g>
	<g id="xLabel">
	<text x="213" y="402" text-anchor="middle" font-size="12" font-family="Lucida Sans Unicode">
	</text>
</g>
	<g id="plotPoints" clip-path="url(#plot_window)">
	<g stroke="rgb(0,0,0)" fill="rgb(255,0,0)" font-size="14" font-family="Lucida Sans Unicode" text-anchor="middle">
	<text x="115" y="299">&#x25CF;
	</text>
	<text x="133" y="288">&#x25CF;
	</text>
	<text x="147" y="270">&#x25CF;
	</text>
	<text x="167" y="252">&#x25CF;
	</text>
	<text x="176" y="231">&#x25CF;
	</text>
	<text x="196" y="214">&#x25CF;
	</text>
	<text x="213" y="193">&#x25CF;
	</text>
	<text x="231" y="171">&#x25CF;
	</text>
	<text x="250" y="155">&#x25CF;
	</text>
	<text x="260" y="133">&#x25CF;
	</text>
	<text x="279" y="115">&#x25CF;
	</text>
	<text x="294" y="97">&#x25CF;
	</text>
	<text x="311" y="86.1">&#x25CF;
	</text>
</g>
</g>
	<g id="title">
	<text x="200" y="27" text-anchor="middle" font-size="18" font-family="Lucida Sans Unicode" font-weight="normal">
	</text>
</g>
	<g id="plotXValues">
</g>
	<g id="plotYValues">
</g>
	<g stroke="rgb(0,0,0)">
	<line x1="10" y1="390" x2="390" y2="10"/>
</g>
	<g stroke="rgb(0,0,255)">
	<line x1="52.6" y1="369" x2="374" y2="8"/>
</g>
	<g stroke="rgb(255,0,0)">
<path d="M117,333 Q213,170 342,80.2" fill = "none"/></g>
</svg>
