<?xml version="1.0" encoding="UTF-8" standalone="no"?>
<svg width="500" height ="200" version="1.1"
xmlns:svg ="http://www.w3.org/2000/svg"
xmlns:rdf="http://www.w3.org/1999/02/22-rdf-syntax-ns#"
xmlns:cc="http://web.resource.org/cc/"
xmlns:dc="http://purl.org/dc/elements/1.1/"
xmlns ="http://www.w3.org/2000/svg"
>
<!-- SVG plot written using Boost.Plot program (Creator Jacob Voytko) --> 
<!-- Use, modification and distribution of Boost.Plot subject to the --> 
<!-- Boost Software License, Version 1.0.--> 
<!-- (See accompanying file LICENSE_1_0.txt --> 
<!-- or copy at http://www.boost.org/LICENSE_1_0.txt) --> 

<!-- File demo_colors.svg --> 
<g id="imageBackground" stroke="rgb(255,255,0)" fill="rgb(255,255,255)" stroke-width="1"><rect x="0" y="0" width="500" height="200"/></g>
<g id="plotBackground" stroke="rgb(250,250,210)" fill="rgb(255,255,255)" stroke-width="1"><rect x="11" y="56" width="325" height="100"/></g>
<g id="xMinorGrid" stroke="rgb(200,220,255)" stroke-width="0.5"></g>
<g id="xMajorGrid" stroke="rgb(200,220,255)" stroke-width="1"></g>
<g id="xAxis" stroke="rgb(0,0,255)" stroke-width="1"><line x1="11" y1="56" x2="11" y2="156"/><line x1="11" y1="109" x2="336" y2="109"/></g>
<g id="xMinorTicks" stroke="rgb(0,0,0)" stroke-width="1"><path d="M29.6,109 L29.6,111 M48.2,109 L48.2,111 M66.8,109 L66.8,111 M85.4,109 L85.4,111 M123,109 L123,111 M141,109 L141,111 M160,109 L160,111 M178,109 L178,111 M216,109 L216,111 M234,109 L234,111 M253,109 L253,111 M271,109 L271,111 M309,109 L309,111 M327,109 L327,111 " fill="none"/></g>
<g id="xMajorTicks" stroke="rgb(0,0,0)" stroke-width="2"><path d="M11,109 L11,114 M104,109 L104,114 M197,109 L197,114 M290,109 L290,114 M11,109 L11,114 " fill="none"/></g>
<g id="xTicksValues">
<text x="104" y="129" text-anchor="middle" font-size="12" font-family="Verdana">2</text>
<text x="197" y="129" text-anchor="middle" font-size="12" font-family="Verdana">4</text>
<text x="290" y="129" text-anchor="middle" font-size="12" font-family="Verdana">6</text></g>
<g id="xLabel" stroke="rgb(255,0,255)" fill="rgb(255,0,255)">
<text x="174" y="180" text-anchor="middle" font-size="14" font-family="Verdana">axis</text></g>
<g id="plotPoints"><g stroke="rgb(0,0,0)"><line x1="57.5" y1="111" x2="57.5" y2="101"/><line x1="104" y1="111" x2="104" y2="101"/><line x1="150" y1="111" x2="150" y2="101"/></g>
</g>
<g id="legendBackground" stroke="rgb(255,255,0)" fill="rgb(255,255,255)" stroke-width="1"><rect x="348" y="56" width="141" height="70"/><rect x="348" y="56" width="141" height="70"/></g>
<g id="legendPoints"><g stroke="rgb(0,0,0)" stroke-width="2"><line x1="362" y1="117" x2="362" y2="107"/></g>
</g>
<g id="legendText">
<text x="419" y="84" text-anchor="middle" font-size="14" font-family="Verdana">Legend title</text>
<text x="383" y="112" font-size="14" font-family="Verdana">My Data</text></g>
<g id="title">
<text x="250" y="36" text-anchor="middle" font-size="18" font-family="Verdana">Demo SVG colors</text></g>
</svg>
