<?xml version="1.0" encoding="UTF-8" standalone="no"?>
<svg width="500" height ="400" version="1.1"
xmlns:svg ="http://www.w3.org/2000/svg"
xmlns:rdf="http://www.w3.org/1999/02/22-rdf-syntax-ns#"
xmlns:cc="http://web.resource.org/cc/"
xmlns:dc="http://purl.org/dc/elements/1.1/"
xmlns ="http://www.w3.org/2000/svg"
>
<!-- SVG plot written using Boost.Plot program (Creator Jacob Voytko) --> 
<!-- Use, modification and distribution of Boost.Plot subject to the --> 
<!-- Boost Software License, Version 1.0.--> 
<!-- (See accompanying file LICENSE_1_0.txt --> 
<!-- or copy at http://www.boost.org/LICENSE_1_0.txt) --> 

<clipPath id="plot_window">	<rect x="76.7" y="9" width="396" height="322"/>
</clipPath>
	<g id="imageBackground" stroke="rgb(255,255,0)" fill="rgb(255,255,255)" stroke-width="2">
	<rect x="0" y="0" width="500" height="400"/>
</g>
	<g id="plotBackground" stroke="rgb(119,136,153)" fill="rgb(255,255,255)" stroke-width="2">
	<rect x="75.7" y="8" width="398" height="324"/>
</g>
	<g id="yMinorGrid" stroke="rgb(200,220,255)" stroke-width="0.5">
</g>
	<g id="yMajorGrid" stroke="rgb(200,220,255)" stroke-width="1">
</g>
	<g id="xMinorGrid" stroke="rgb(200,220,255)" stroke-width="0.5">
</g>
	<g id="xMajorGrid" stroke="rgb(200,220,255)" stroke-width="1">
</g>
	<g id="yAxis" stroke="rgb(0,0,0)" stroke-width="1">
	<line x1="75.7" y1="8" x2="75.7" y2="336"/>
	<line x1="75.7" y1="8" x2="75.7" y2="332"/>
</g>
	<g id="xAxis" stroke="rgb(0,0,0)" stroke-width="1">
	<line x1="70.7" y1="332" x2="474" y2="332"/>
	<line x1="70.7" y1="332" x2="474" y2="332"/>
</g>
	<g id="yMinorTicks" stroke="rgb(0,0,0)" stroke-width="1">
	<path d="M73.7,306 L75.7,306 
M73.7,280 L75.7,280 
M73.7,254 L75.7,254 
M73.7,228 L75.7,228 
M73.7,176 L75.7,176 
M73.7,150 L75.7,150 
M73.7,124 L75.7,124 
M73.7,98.6 L75.7,98.6 
M73.7,46.8 L75.7,46.8 
M73.7,20.9 L75.7,20.9 
M73.7,332 L75.7,332 
" fill="none"/>
</g>
	<g id="xMinorTicks" stroke="rgb(0,0,0)" stroke-width="1">
	<path d="M83.7,332 L83.7,334 
M91.6,332 L91.6,334 
M99.6,332 L99.6,334 
M108,332 L108,334 
M123,332 L123,334 
M131,332 L131,334 
M139,332 L139,334 
M147,332 L147,334 
M163,332 L163,334 
M171,332 L171,334 
M179,332 L179,334 
M187,332 L187,334 
M203,332 L203,334 
M211,332 L211,334 
M219,332 L219,334 
M227,332 L227,334 
M243,332 L243,334 
M251,332 L251,334 
M259,332 L259,334 
M267,332 L267,334 
M283,332 L283,334 
M291,332 L291,334 
M299,332 L299,334 
M307,332 L307,334 
M323,332 L323,334 
M331,332 L331,334 
M339,332 L339,334 
M347,332 L347,334 
M362,332 L362,334 
M370,332 L370,334 
M378,332 L378,334 
M386,332 L386,334 
M402,332 L402,334 
M410,332 L410,334 
M418,332 L418,334 
M426,332 L426,334 
M442,332 L442,334 
M450,332 L450,334 
M458,332 L458,334 
M466,332 L466,334 
" fill="none"/>
</g>
	<g id="yMajorTicks" stroke="rgb(0,0,0)" stroke-width="2">
	<path d="M70.7,332 L75.7,332 
M70.7,202 L75.7,202 
M70.7,72.7 L75.7,72.7 
M70.7,332 L75.7,332 
" fill="none"/>
</g>
	<g id="xMajorTicks" stroke="rgb(0,0,0)" stroke-width="2">
	<path d="M75.7,332 L75.7,336 
M116,332 L116,336 
M155,332 L155,336 
M195,332 L195,336 
M235,332 L235,336 
M275,332 L275,336 
M315,332 L315,336 
M355,332 L355,336 
M394,332 L394,336 
M434,332 L434,336 
M474,332 L474,336 
M75.7,332 L75.7,336 
" fill="none"/>
</g>
	<g id="xTicksValues" font-size="12" font-family="Lucida Sans Unicode" text-anchor="middle">
	<text x="75.7" y="352">0
	</text>
	<text x="116" y="352">2
	</text>
	<text x="155" y="352">4
	</text>
	<text x="195" y="352">6
	</text>
	<text x="235" y="352">8
	</text>
	<text x="275" y="352">10
	</text>
	<text x="315" y="352">12
	</text>
	<text x="355" y="352">14
	</text>
	<text x="394" y="352">16
	</text>
	<text x="434" y="352">18
	</text>
	<text x="474" y="352">20
	</text>
	<text x="75.7" y="352">0
	</text>
</g>
	<g id="yTicksValues" font-size="12" font-family="Lucida Sans Unicode" text-anchor="end">
	<text x="64.7" y="334">0
	</text>
	<text x="64.7" y="204">2
	</text>
	<text x="64.7" y="75.1">4
	</text>
	<text x="64.7" y="334">0
	</text>
</g>
	<g id="yLabel">
	<text x="42.8" y="170" text-anchor="middle" transform="rotate(-90 42.8 170)" font-size="30" font-family="Lucida Sans Unicode">Y axis label 30
	</text>
</g>
	<g id="xLabel">
	<text x="275" y="388" text-anchor="middle" font-size="30" font-family="Lucida Sans Unicode">X axis label 30
	</text>
</g>
	<g id="plotPoints" clip-path="url(#plot_window)">
	<g stroke="rgb(255,0,0)" fill="rgb(255,255,255)" font-size="10" font-family="Lucida Sans Unicode" text-anchor="middle">
	<text x="95.6" y="270" text-anchor="middle">&#x25CF;
	</text>
	<text x="116" y="243" text-anchor="middle">&#x25CF;
	</text>
	<text x="135" y="222" text-anchor="middle">&#x25CF;
	</text>
	<text x="155" y="205" text-anchor="middle">&#x25CF;
	</text>
	<text x="175" y="190" text-anchor="middle">&#x25CF;
	</text>
	<text x="195" y="176" text-anchor="middle">&#x25CF;
	</text>
	<text x="215" y="163" text-anchor="middle">&#x25CF;
	</text>
	<text x="235" y="151" text-anchor="middle">&#x25CF;
	</text>
	<text x="255" y="140" text-anchor="middle">&#x25CF;
	</text>
	<text x="275" y="130" text-anchor="middle">&#x25CF;
	</text>
	<text x="295" y="120" text-anchor="middle">&#x25CF;
	</text>
	<text x="315" y="110" text-anchor="middle">&#x25CF;
	</text>
	<text x="335" y="101" text-anchor="middle">&#x25CF;
	</text>
	<text x="355" y="92.4" text-anchor="middle">&#x25CF;
	</text>
	<text x="374" y="83.9" text-anchor="middle">&#x25CF;
	</text>
	<text x="394" y="75.6" text-anchor="middle">&#x25CF;
	</text>
	<text x="414" y="67.7" text-anchor="middle">&#x25CF;
	</text>
	<text x="434" y="59.9" text-anchor="middle">&#x25CF;
	</text>
	<text x="454" y="52.4" text-anchor="middle">&#x25CF;
	</text>
	<text x="474" y="45.1" text-anchor="middle">&#x25CF;
	</text>
</g>
</g>
	<g id="title">
	<text x="250" y="27" text-anchor="middle" font-size="18" font-family="Lucida Sans Unicode" font-weight="normal">
	</text>
</g>
	<g id="plotXValues">
</g>
	<g id="plotYValues">
</g>
</svg>
