<?xml version="1.0" encoding="UTF-8" standalone="no"?>
<svg width="700" height ="500" version="1.1"
xmlns:svg ="http://www.w3.org/2000/svg"
xmlns:rdf="http://www.w3.org/1999/02/22-rdf-syntax-ns#"
xmlns:cc="http://web.resource.org/cc/"
xmlns:dc="http://purl.org/dc/elements/1.1/"
xmlns ="http://www.w3.org/2000/svg"
>
<!-- SVG plot written using Boost.Plot program (Creator Jacob Voytko) --> 
<!-- Use, modification and distribution of Boost.Plot subject to the --> 
<!-- Boost Software License, Version 1.0.--> 
<!-- (See accompanying file LICENSE_1_0.txt --> 
<!-- or copy at http://www.boost.org/LICENSE_1_0.txt) --> 

<clipPath id="plot_window">	<rect x="71.1" y="44" width="602" height="400"/>
</clipPath>
	<g id="imageBackground" stroke="rgb(255,255,0)" fill="rgb(245,245,245)" stroke-width="2">
	<rect x="0" y="0" width="700" height="500"/>
</g>
	<g id="plotBackground" stroke="rgb(119,136,153)" fill="rgb(248,248,255)" stroke-width="2">
	<rect x="70.1" y="43" width="604" height="402"/>
</g>
	<g id="yMinorGrid" stroke="rgb(200,220,255)" stroke-width="0.5">
</g>
	<g id="yMajorGrid" stroke="rgb(0,255,255)" stroke-width="1">
	<path d="M72.1,244 L672,244 
M72.1,177 L672,177 
M72.1,110 L672,110 
M72.1,43 L672,43 
M72.1,244 L672,244 
M72.1,311 L672,311 
M72.1,378 L672,378 
M72.1,445 L672,445 
" fill="none"/>
</g>
	<g id="xMinorGrid" stroke="rgb(200,220,255)" stroke-width="0.5">
</g>
	<g id="xMajorGrid" stroke="rgb(0,255,255)" stroke-width="1">
	<path d="M125,43 L125,445 
M235,43 L235,445 
M345,43 L345,445 
M454,43 L454,445 
M564,43 L564,445 
M674,43 L674,445 
M125,43 L125,445 
" fill="none"/>
</g>
	<g id="yAxis" stroke="rgb(0,0,0)" stroke-width="1">
	<line x1="125" y1="43" x2="125" y2="459"/>
	<line x1="70.1" y1="43" x2="70.1" y2="445"/>
</g>
	<g id="xAxis" stroke="rgb(0,0,0)" stroke-width="1">
	<line x1="65.1" y1="244" x2="674" y2="244"/>
	<line x1="65.1" y1="445" x2="674" y2="445"/>
</g>
	<g id="yMinorTicks" stroke="rgb(0,0,0)" stroke-width="1">
	<path d="M68.1,231 L70.1,231 
M68.1,217 L70.1,217 
M68.1,204 L70.1,204 
M68.1,190 L70.1,190 
M68.1,164 L70.1,164 
M68.1,150 L70.1,150 
M68.1,137 L70.1,137 
M68.1,123 L70.1,123 
M68.1,96.6 L70.1,96.6 
M68.1,83.2 L70.1,83.2 
M68.1,69.8 L70.1,69.8 
M68.1,56.4 L70.1,56.4 
M68.1,244 L70.1,244 
M68.1,257 L70.1,257 
M68.1,271 L70.1,271 
M68.1,284 L70.1,284 
M68.1,298 L70.1,298 
M68.1,311 L70.1,311 
M68.1,324 L70.1,324 
M68.1,338 L70.1,338 
M68.1,351 L70.1,351 
M68.1,365 L70.1,365 
M68.1,378 L70.1,378 
M68.1,391 L70.1,391 
M68.1,405 L70.1,405 
M68.1,418 L70.1,418 
M68.1,432 L70.1,432 
M68.1,445 L70.1,445 
" fill="none"/>
</g>
	<g id="xMinorTicks" stroke="rgb(0,0,0)" stroke-width="1">
	<path d="M152,445 L152,452 
M180,445 L180,452 
M207,445 L207,452 
M262,445 L262,452 
M290,445 L290,452 
M317,445 L317,452 
M372,445 L372,452 
M400,445 L400,452 
M427,445 L427,452 
M482,445 L482,452 
M509,445 L509,452 
M537,445 L537,452 
M592,445 L592,452 
M619,445 L619,452 
M647,445 L647,452 
M97.5,445 L97.5,452 
M70.1,445 L70.1,452 
" fill="none"/>
</g>
	<g id="yMajorTicks" stroke="rgb(0,0,0)" stroke-width="2">
	<path d="M65.1,244 L70.1,244 
M65.1,177 L70.1,177 
M65.1,110 L70.1,110 
M65.1,43 L70.1,43 
M65.1,244 L70.1,244 
M65.1,311 L70.1,311 
M65.1,378 L70.1,378 
M65.1,445 L70.1,445 
" fill="none"/>
</g>
	<g id="xMajorTicks" stroke="rgb(0,0,0)" stroke-width="1">
	<path d="M125,445 L125,459 
M235,445 L235,459 
M345,445 L345,459 
M454,445 L454,459 
M564,445 L564,459 
M674,445 L674,459 
M125,445 L125,459 
" fill="none"/>
</g>
	<g id="xTicksValues" font-size="12" font-family="Lucida Sans Unicode" text-anchor="middle">
	<text x="125" y="475">0
	</text>
	<text x="235" y="475">2
	</text>
	<text x="345" y="475">4
	</text>
	<text x="454" y="475">6
	</text>
	<text x="564" y="475">8
	</text>
	<text x="674" y="475">10
	</text>
	<text x="125" y="475">0
	</text>
</g>
	<g id="yTicksValues" font-size="12" font-family="Lucida Sans Unicode" text-anchor="end">
	<text x="59.1" y="246">0
	</text>
	<text x="59.1" y="179">25
	</text>
	<text x="59.1" y="112">50
	</text>
	<text x="59.1" y="45.4">75
	</text>
	<text x="59.1" y="246">0
	</text>
	<text x="59.1" y="313">-25
	</text>
	<text x="59.1" y="380">-50
	</text>
	<text x="59.1" y="447">-75
	</text>
</g>
	<g id="yLabel">
	<text x="32.4" y="244" text-anchor="middle" transform="rotate(-90 32.4 244)" font-size="14" font-family="Lucida Sans Unicode">50 * f(x)
	</text>
</g>
	<g id="xLabel">
	<text x="372" y="488" text-anchor="middle" font-size="12" font-family="Lucida Sans Unicode">x
	</text>
</g>
	<g id="plotLines" stroke-width="2">
	<g clip-path="url(#plot_window)" stroke="rgb(255,0,0)" stroke-width="2">
	<path d="M125,244 L125,244 
L147,188 
L168,110 
L254,378 
L276,300 
L297,244 
L319,188 
L341,110 
L427,378 
L448,300 
L470,244 
L492,188 
L513,110 
L599,378 
L621,300 
L642,244 
L664,188 
" fill="none"/>
</g>
</g>
	<g id="plotPoints" clip-path="url(#plot_window)">
	<g stroke="rgb(0,0,0)" fill="rgb(255,255,255)" font-size="14" font-family="Lucida Sans Unicode" text-anchor="middle">
	<text x="125" y="248" text-anchor="middle" font-size="14" font-family="Lucida Sans Unicode">&#x25BD;
	</text>
	<text x="147" y="193" text-anchor="middle" font-size="14" font-family="Lucida Sans Unicode">&#x25BD;
	</text>
	<text x="168" y="114" text-anchor="middle" font-size="14" font-family="Lucida Sans Unicode">&#x25BD;
	</text>
	<text x="254" y="382" text-anchor="middle" font-size="14" font-family="Lucida Sans Unicode">&#x25BD;
	</text>
	<text x="276" y="304" text-anchor="middle" font-size="14" font-family="Lucida Sans Unicode">&#x25BD;
	</text>
	<text x="297" y="248" text-anchor="middle" font-size="14" font-family="Lucida Sans Unicode">&#x25BD;
	</text>
	<text x="319" y="193" text-anchor="middle" font-size="14" font-family="Lucida Sans Unicode">&#x25BD;
	</text>
	<text x="341" y="114" text-anchor="middle" font-size="14" font-family="Lucida Sans Unicode">&#x25BD;
	</text>
	<text x="427" y="382" text-anchor="middle" font-size="14" font-family="Lucida Sans Unicode">&#x25BD;
	</text>
	<text x="448" y="304" text-anchor="middle" font-size="14" font-family="Lucida Sans Unicode">&#x25BD;
	</text>
	<text x="470" y="248" text-anchor="middle" font-size="14" font-family="Lucida Sans Unicode">&#x25BD;
	</text>
	<text x="492" y="193" text-anchor="middle" font-size="14" font-family="Lucida Sans Unicode">&#x25BD;
	</text>
	<text x="513" y="114" text-anchor="middle" font-size="14" font-family="Lucida Sans Unicode">&#x25BD;
	</text>
	<text x="599" y="382" text-anchor="middle" font-size="14" font-family="Lucida Sans Unicode">&#x25BD;
	</text>
	<text x="621" y="304" text-anchor="middle" font-size="14" font-family="Lucida Sans Unicode">&#x25BD;
	</text>
	<text x="642" y="248" text-anchor="middle" font-size="14" font-family="Lucida Sans Unicode">&#x25BD;
	</text>
	<text x="664" y="193" text-anchor="middle" font-size="14" font-family="Lucida Sans Unicode">&#x25BD;
	</text>
</g>
</g>
	<g id="title" fill="rgb(255,0,0)">
	<text x="350" y="30" text-anchor="middle" font-size="20" font-family="Lucida Sans Unicode" font-weight="normal">Plot of 50 * tan(x)
	</text>
</g>
	<g id="plotXValues">
</g>
	<g id="plotYValues">
</g>
</svg>
