<?xml version="1.0" encoding="UTF-8" standalone="no"?>
<svg width="500" height ="200" version="1.1"
xmlns:svg ="http://www.w3.org/2000/svg"
xmlns:rdf="http://www.w3.org/1999/02/22-rdf-syntax-ns#"
xmlns:cc="http://web.resource.org/cc/"
xmlns:dc="http://purl.org/dc/elements/1.1/"
xmlns ="http://www.w3.org/2000/svg"
>
<!-- SVG plot written using Boost.Plot program (Creator Jacob Voytko) --> 
<!-- Use, modification and distribution of Boost.Plot subject to the --> 
<!-- Boost Software License, Version 1.0.--> 
<!-- (See accompanying file LICENSE_1_0.txt --> 
<!-- or copy at http://www.boost.org/LICENSE_1_0.txt) --> 

<!-- File demo_color.svg --> 
<g id="imageBackground" stroke="rgb(255,255,0)" fill="rgb(255,255,255)" stroke-width="1"><rect x="0" y="0" width="500" height="200"/></g>
<g id="plotBackground" stroke="rgb(250,250,210)" fill="rgb(255,255,255)" stroke-width="1"><rect x="21" y="11" width="388" height="160"/></g>
<g id="xMinorGrid" stroke="rgb(200,220,255)" stroke-width="0.5"></g>
<g id="xMajorGrid" stroke="rgb(200,220,255)" stroke-width="1"></g>
<g id="xAxis" stroke="rgb(0,0,255)" stroke-width="1"><line x1="21" y1="11" x2="21" y2="172"/><line x1="21" y1="93.8" x2="409" y2="93.8"/></g>
<g id="xMinorTicks" stroke="rgb(0,0,0)" stroke-width="1"><path d="M43.2,93.8 L43.2,95.8 M65.3,93.8 L65.3,95.8 M87.5,93.8 L87.5,95.8 M110,93.8 L110,95.8 M154,93.8 L154,95.8 M176,93.8 L176,95.8 M198,93.8 L198,95.8 M221,93.8 L221,95.8 M265,93.8 L265,95.8 M287,93.8 L287,95.8 M309,93.8 L309,95.8 M331,93.8 L331,95.8 M376,93.8 L376,95.8 M398,93.8 L398,95.8 " fill="none"/></g>
<g id="xMajorTicks" stroke="rgb(0,0,0)" stroke-width="2"><path d="M21,93.8 L21,98.8 M132,93.8 L132,98.8 M243,93.8 L243,98.8 M354,93.8 L354,98.8 M21,93.8 L21,98.8 " fill="none"/></g>
<g id="xTicksValues">
<text x="132" y="112" text-anchor="middle" font-size="10" font-family="Verdana">2</text>
<text x="243" y="112" text-anchor="middle" font-size="10" font-family="Verdana">4</text>
<text x="354" y="112" text-anchor="middle" font-size="10" font-family="Verdana">6</text></g>
<g id="xLabel" stroke="rgb(255,0,255)" fill="rgb(255,0,255)">
<text x="215" y="188" text-anchor="middle" font-size="10" font-family="Verdana">axis</text></g>
<g id="plotPoints"><g stroke="rgb(0,0,0)"><line x1="76.4" y1="93.2" x2="76.4" y2="83.2"/><line x1="132" y1="93.2" x2="132" y2="83.2"/><line x1="187" y1="93.2" x2="187" y2="83.2"/></g>
</g>
<g id="legendBackground" stroke="rgb(255,255,0)" fill="rgb(255,255,255)" stroke-width="1"><rect x="415" y="11" width="76" height="84"/></g>
<g id="legendPoints"><g stroke="rgb(0,0,0)" stroke-width="2"><line x1="429" y1="33.5" x2="429" y2="23.5"/></g>
</g>
<g id="legendText">
<text x="437" y="29.5" font-size="10" font-family="Verdana">My Data</text></g>
<g id="title">
<text x="250" y="22.5" text-anchor="middle" font-size="18" font-family="Verdana"></text></g>
</svg>
