<?xml version="1.0" encoding="UTF-8" standalone="no"?>
<svg width="700" height ="500" version="1.1"
xmlns:svg ="http://www.w3.org/2000/svg"
xmlns:rdf="http://www.w3.org/1999/02/22-rdf-syntax-ns#"
xmlns:cc="http://web.resource.org/cc/"
xmlns:dc="http://purl.org/dc/elements/1.1/"
xmlns ="http://www.w3.org/2000/svg"
>
<!-- SVG plot written using Boost.Plot program (Creator Jacob Voytko) --> 
<!-- Use, modification and distribution of Boost.Plot subject to the --> 
<!-- Boost Software License, Version 1.0.--> 
<!-- (See accompanying file LICENSE_1_0.txt --> 
<!-- or copy at http://www.boost.org/LICENSE_1_0.txt) --> 

<clipPath id="plot_window"><rect x="83.5" y="53.5" width="469" height="405"/></clipPath>
<g id="imageBackground" stroke="rgb(255,255,0)" fill="rgb(248,248,255)" stroke-width="2"><rect x="0" y="0" width="700" height="500"/></g>
<g id="plotBackground" stroke="rgb(0,128,0)" fill="rgb(255,255,255)" stroke-width="1"><rect x="82.5" y="52.5" width="471" height="407"/></g>
<g id="yMinorGrid" stroke="rgb(240,240,255)" stroke-width="1"><path d="M83.5,242 L553,242 M83.5,229 L553,229 M83.5,202 L553,202 M83.5,188 L553,188 M83.5,161 L553,161 M83.5,147 L553,147 M83.5,120 L553,120 M83.5,107 L553,107 M83.5,79.6 L553,79.6 M83.5,66.1 L553,66.1 M83.5,256 L553,256 M83.5,270 L553,270 M83.5,283 L553,283 M83.5,297 L553,297 M83.5,310 L553,310 M83.5,324 L553,324 M83.5,337 L553,337 M83.5,337 L553,337 M83.5,351 L553,351 M83.5,365 L553,365 M83.5,378 L553,378 M83.5,392 L553,392 M83.5,405 L553,405 M83.5,419 L553,419 M83.5,432 L553,432 M83.5,446 L553,446 M83.5,460 L553,460 M83.5,460 L553,460 " fill="none"/></g>
<g id="yMajorGrid" stroke="rgb(200,220,255)" stroke-width="2"><path d="M83.5,256 L553,256 M83.5,215 L553,215 M83.5,175 L553,175 M83.5,134 L553,134 M83.5,93.2 L553,93.2 M83.5,52.5 L553,52.5 M83.5,256 L553,256 M83.5,297 L553,297 M83.5,337 L553,337 M83.5,378 L553,378 M83.5,419 L553,419 M83.5,460 L553,460 " fill="none"/></g>
<g id="xMinorGrid" stroke="rgb(240,240,255)" stroke-width="0.5"><path d="M99.9,53.5 L99.9,459 M170,53.5 L170,459 M205,53.5 L205,459 M274,53.5 L274,459 M309,53.5 L309,459 M379,53.5 L379,459 M414,53.5 L414,459 M484,53.5 L484,459 M519,53.5 L519,459 " fill="none"/></g>
<g id="xMajorGrid" stroke="rgb(200,220,255)" stroke-width="1"><path d="M135,52.5 L135,460 M240,52.5 L240,460 M344,52.5 L344,460 M449,52.5 L449,460 M554,52.5 L554,460 " fill="none"/></g>
<g id="yAxis" stroke="rgb(0,0,0)" stroke-width="1"><line x1="82.5" y1="52.5" x2="82.5" y2="460"/></g>
<g id="xAxis" stroke="rgb(0,0,0)" stroke-width="1"><line x1="72.5" y1="256" x2="554" y2="256"/></g>
<g id="yMinorTicks" stroke="rgb(0,0,0)" stroke-width="1"><path d="M77.5,242 L82.5,242 M77.5,229 L82.5,229 M77.5,202 L82.5,202 M77.5,188 L82.5,188 M77.5,161 L82.5,161 M77.5,147 L82.5,147 M77.5,120 L82.5,120 M77.5,107 L82.5,107 M77.5,79.6 L82.5,79.6 M77.5,66.1 L82.5,66.1 M77.5,256 L82.5,256 M77.5,270 L82.5,270 M77.5,283 L82.5,283 M77.5,297 L82.5,297 M77.5,310 L82.5,310 M77.5,324 L82.5,324 M77.5,337 L82.5,337 M77.5,337 L82.5,337 M77.5,351 L82.5,351 M77.5,365 L82.5,365 M77.5,378 L82.5,378 M77.5,392 L82.5,392 M77.5,405 L82.5,405 M77.5,419 L82.5,419 M77.5,432 L82.5,432 M77.5,446 L82.5,446 M77.5,460 L82.5,460 M77.5,460 L82.5,460 " fill="none"/></g>
<g id="xMinorTicks" stroke="rgb(0,0,0)" stroke-width="1"><path d="M99.9,256 L99.9,261 M170,256 L170,261 M205,256 L205,261 M274,256 L274,261 M309,256 L309,261 M379,256 L379,261 M414,256 L414,261 M484,256 L484,261 M519,256 L519,261 " fill="none"/></g>
<g id="yMajorTicks" stroke="rgb(0,0,0)" stroke-width="2"><path d="M72.5,256 L82.5,256 M72.5,215 L82.5,215 M72.5,175 L82.5,175 M72.5,134 L82.5,134 M72.5,93.2 L82.5,93.2 M72.5,52.5 L82.5,52.5 M72.5,256 L82.5,256 M72.5,297 L82.5,297 M72.5,337 L82.5,337 M72.5,378 L82.5,378 M72.5,419 L82.5,419 M72.5,460 L82.5,460 " fill="none"/></g>
<g id="xMajorTicks" stroke="rgb(0,0,0)" stroke-width="2"><path d="M135,256 L135,266 M240,256 L240,266 M344,256 L344,266 M449,256 L449,266 M554,256 L554,266 " fill="none"/></g>
<g id="xTicksValues">
<text x="135" y="282" text-anchor="middle" font-size="12" font-family="Lucida Sans Unicode">2.00</text>
<text x="240" y="282" text-anchor="middle" font-size="12" font-family="Lucida Sans Unicode">4.00</text>
<text x="344" y="282" text-anchor="middle" font-size="12" font-family="Lucida Sans Unicode">6.00</text>
<text x="449" y="282" text-anchor="middle" font-size="12" font-family="Lucida Sans Unicode">8.00</text>
<text x="554" y="282" text-anchor="middle" font-size="12" font-family="Lucida Sans Unicode">1.00e1</text></g>
<g id="yTicksValues">
<text x="66.5" y="258" text-anchor="end" font-size="12" font-family="Lucida Sans Unicode">0.0</text>
<text x="66.5" y="218" text-anchor="end" font-size="12" font-family="Lucida Sans Unicode">2.0</text>
<text x="66.5" y="177" text-anchor="end" font-size="12" font-family="Lucida Sans Unicode">4.0</text>
<text x="66.5" y="136" text-anchor="end" font-size="12" font-family="Lucida Sans Unicode">6.0</text>
<text x="66.5" y="95.6" text-anchor="end" font-size="12" font-family="Lucida Sans Unicode">8.0</text>
<text x="66.5" y="54.9" text-anchor="end" font-size="12" font-family="Lucida Sans Unicode">10.0</text>
<text x="66.5" y="258" text-anchor="end" font-size="12" font-family="Lucida Sans Unicode">0.0</text>
<text x="66.5" y="299" text-anchor="end" font-size="12" font-family="Lucida Sans Unicode">-2.0</text>
<text x="66.5" y="340" text-anchor="end" font-size="12" font-family="Lucida Sans Unicode">-4.0</text>
<text x="66.5" y="381" text-anchor="end" font-size="12" font-family="Lucida Sans Unicode">-6.0</text>
<text x="66.5" y="421" text-anchor="end" font-size="12" font-family="Lucida Sans Unicode">-8.0</text>
<text x="66.5" y="462" text-anchor="end" font-size="12" font-family="Lucida Sans Unicode">-10.0</text></g>
<g id="yLabel">
<text x="23.9" y="256" text-anchor="middle" transform = "rotate(-90 23.9 256 )" font-size="14" font-family="Lucida Sans Unicode">Y-axis</text></g>
<g id="xLabel">
<text x="318" y="483" text-anchor="middle" font-size="14" font-family="Lucida Sans Unicode">X-axis</text></g>
<g id="plotLines" stroke-width="2"><g clip-path="url(#plot_window)" stroke="rgb(0,0,0)"><path d="M-493,-1.74e+03 S-451,-1.42e+03 -441,-1.35e+03 S-399,-1.07e+03 -389,-1.01e+03 S-347,-757 -336,-700 S-294,-485 -284,-436 S-242,-253 -232,-212 S-190,-61.5 -179,-28.9 S-137,89.1 -127,114 S-85,199 -74.5,215 S-32.7,268 -22.2,276 S19.7,297 30.2,297 S72,284 82.5,276 S124,232 135,215 S177,138 187,114 S229,3.66 240,-28.9 S281,-171 292,-212 S334,-387 344,-436 S386,-643 397,-700 S438,-941 449,-1.01e+03 S491,-1.28e+03 501,-1.35e+03 S554,-1.78e+03 554,-1.74e+03 " fill="none"/></g>
</g>
<g id="plotPoints" clip-path="url(#plot_window)"><g stroke="rgb(0,0,0)" fill="rgb(255,0,0)"><circle cx="135" cy="227" r="2"/><circle cx="187" cy="221" r="2"/><circle cx="240" cy="215" r="2"/><circle cx="292" cy="210" r="2"/><circle cx="344" cy="206" r="2"/><circle cx="397" cy="202" r="2"/><circle cx="449" cy="198" r="2"/><circle cx="501" cy="195" r="2"/></g>
<g stroke="rgb(0,0,0)" fill="rgb(255,165,0)"><circle cx="135" cy="215" r="2"/><circle cx="187" cy="114" r="2"/></g>
<g stroke="rgb(0,0,0)" fill="rgb(255,255,0)"><rect x="132" y="192" width="5" height="5"/><rect x="185" y="152" width="5" height="5"/><rect x="237" y="111" width="5" height="5"/><rect x="289" y="70.3" width="5" height="5"/></g>
</g>
<g id="limitPoints" stroke="rgb(119,136,153)" fill="rgb(250,235,215)"><polygon points=" 77.5,246 87.5,246 82.5,256"/><polygon points=" 77.5,246 87.5,246 82.5,256"/><polygon points=" 77.5,246 87.5,246 82.5,256"/><polygon points=" 77.5,246 87.5,246 82.5,256"/><polygon points=" 77.5,246 87.5,246 82.5,256"/><polygon points=" 77.5,246 87.5,246 82.5,256"/><polygon points=" 77.5,246 87.5,246 82.5,256"/><polygon points=" 77.5,246 87.5,246 82.5,256"/><polygon points=" 77.5,246 87.5,246 82.5,256"/><polygon points=" 77.5,246 87.5,246 82.5,256"/></g>
<g id="legendBackground" stroke="rgb(255,255,0)" fill="rgb(255,255,224)" stroke-width="1"><rect x="568" y="52.5" width="130" height="144"/><rect x="568" y="52.5" width="130" height="144"/></g>
<g id="legendPoints"><g stroke="rgb(0,0,0)" fill="rgb(255,0,0)" stroke-width="2"><circle cx="584" cy="117" r="2"/></g>
<g stroke="rgb(0,0,0)" fill="rgb(255,165,0)" stroke-width="2"><circle cx="584" cy="149" r="2"/></g>
<g stroke="rgb(0,0,0)" fill="rgb(255,255,0)" stroke-width="3"><rect x="581" y="178" width="5" height="5"/></g>
</g>
<g id="legendText">
<text x="633" y="84.5" text-anchor="middle" font-size="16" font-family="Lucida Sans Unicode">Unicode &#x3A9;&#x3A6;</text>
<text x="608" y="117" font-size="16" font-family="Lucida Sans Unicode">Sqrt(x)</text>
<text x="608" y="149" font-size="16" font-family="Lucida Sans Unicode">-2 + x^2</text>
<text x="608" y="181" font-size="16" font-family="Lucida Sans Unicode">-1 + 2x</text></g>
<g id="title" fill="rgb(255,0,0)">
<text x="350" y="40" text-anchor="middle" font-size="20" font-family="Lucida Sans Unicode">Plot of Mathematical Functions XP</text></g>
<g id="plotXValues"></g>
<g id="plotYValues"></g>
</svg>
