<?xml version="1.0" encoding="UTF-8" standalone="no"?>
<svg width="2000" height ="400" version="1.1"
xmlns:svg ="http://www.w3.org/2000/svg"
xmlns:rdf="http://www.w3.org/1999/02/22-rdf-syntax-ns#"
xmlns:cc="http://web.resource.org/cc/"
xmlns:dc="http://purl.org/dc/elements/1.1/"
xmlns ="http://www.w3.org/2000/svg"
>
<!-- SVG plot written using Boost.Plot program (Creator Jacob Voytko) --> 
<!-- Use, modification and distribution of Boost.Plot subject to the --> 
<!-- Boost Software License, Version 1.0.--> 
<!-- (See accompanying file LICENSE_1_0.txt --> 
<!-- or copy at http://www.boost.org/LICENSE_1_0.txt) --> 

<clipPath id="plot_window">	<rect x="87.1" y="40.5" width="1.76e+03" height="312"/>
</clipPath>
	<g id="imageBackground" stroke="rgb(255,255,0)" fill="rgb(255,255,255)" stroke-width="2">
	<rect x="0" y="0" width="2e+03" height="400"/>
</g>
	<g id="plotBackground" stroke="rgb(119,136,153)" fill="rgb(255,255,255)" stroke-width="2">
	<rect x="86.1" y="39.5" width="1.76e+03" height="314"/>
</g>
	<g id="yMinorGrid" stroke="rgb(200,220,255)" stroke-width="0.5">
</g>
	<g id="yMajorGrid" stroke="rgb(200,220,255)" stroke-width="1">
</g>
	<g id="xMinorGrid" stroke="rgb(200,220,255)" stroke-width="0.5">
</g>
	<g id="xMajorGrid" stroke="rgb(200,220,255)" stroke-width="1">
</g>
	<g id="yAxis" stroke="rgb(0,0,0)" stroke-width="1">
	<line x1="86.1" y1="39.5" x2="86.1" y2="359"/>
	<line x1="86.1" y1="39.5" x2="86.1" y2="354"/>
</g>
	<g id="xAxis" stroke="rgb(0,0,0)" stroke-width="1">
	<line x1="81.1" y1="354" x2="1.84e+03" y2="354"/>
	<line x1="81.1" y1="354" x2="1.84e+03" y2="354"/>
</g>
	<g id="yMinorTicks" stroke="rgb(0,0,0)" stroke-width="1">
	<path d="M84.1,341 L86.1,341 
M84.1,329 L86.1,329 
M84.1,316 L86.1,316 
M84.1,304 L86.1,304 
M84.1,279 L86.1,279 
M84.1,266 L86.1,266 
M84.1,253 L86.1,253 
M84.1,241 L86.1,241 
M84.1,216 L86.1,216 
M84.1,203 L86.1,203 
M84.1,190 L86.1,190 
M84.1,178 L86.1,178 
M84.1,153 L86.1,153 
M84.1,140 L86.1,140 
M84.1,128 L86.1,128 
M84.1,115 L86.1,115 
M84.1,89.8 L86.1,89.8 
M84.1,77.2 L86.1,77.2 
M84.1,64.7 L86.1,64.7 
M84.1,52.1 L86.1,52.1 
M84.1,354 L86.1,354 
" fill="none"/>
</g>
	<g id="xMinorTicks" stroke="rgb(0,0,0)" stroke-width="1">
	<path d="M174,354 L174,356 
M262,354 L262,356 
M350,354 L350,356 
M438,354 L438,356 
M614,354 L614,356 
M701,354 L701,356 
M789,354 L789,356 
M877,354 L877,356 
M1.05e+03,354 L1.05e+03,356 
M1.14e+03,354 L1.14e+03,356 
M1.23e+03,354 L1.23e+03,356 
M1.32e+03,354 L1.32e+03,356 
M1.49e+03,354 L1.49e+03,356 
M1.58e+03,354 L1.58e+03,356 
M1.67e+03,354 L1.67e+03,356 
M1.76e+03,354 L1.76e+03,356 
" fill="none"/>
</g>
	<g id="yMajorTicks" stroke="rgb(0,0,0)" stroke-width="2">
	<path d="M81.1,354 L86.1,354 
M81.1,291 L86.1,291 
M81.1,228 L86.1,228 
M81.1,165 L86.1,165 
M81.1,102 L86.1,102 
M81.1,39.5 L86.1,39.5 
M81.1,354 L86.1,354 
" fill="none"/>
</g>
	<g id="xMajorTicks" stroke="rgb(0,0,0)" stroke-width="2">
	<path d="M86.1,354 L86.1,359 
M526,354 L526,359 
M965,354 L965,359 
M1.4e+03,354 L1.4e+03,359 
M1.84e+03,354 L1.84e+03,359 
M86.1,354 L86.1,359 
" fill="none"/>
</g>
	<g id="xTicksValues" fill="rgb(255,0,0)" font-size="20" font-family="arial" text-anchor="middle">
	<text x="86.1" y="375">0
	</text>
	<text x="526" y="375">500
	</text>
	<text x="965" y="375">1000
	</text>
	<text x="1.4e+03" y="375">1500
	</text>
	<text x="1.84e+03" y="375">2000
	</text>
	<text x="86.1" y="375">0
	</text>
</g>
	<g id="yTicksValues" fill="rgb(255,0,255)" font-size="12" font-family="Lucida Sans Unicode" text-anchor="end">
	<text x="75.1" y="356">0
	</text>
	<text x="75.1" y="294">2
	</text>
	<text x="75.1" y="231">4
	</text>
	<text x="75.1" y="168">6
	</text>
	<text x="75.1" y="105">8
	</text>
	<text x="75.1" y="41.9">1e1
	</text>
	<text x="75.1" y="356">0
	</text>
</g>
	<g id="yLabel" fill="rgb(0,0,255)">
	<text x="48.4" y="197" text-anchor="middle" transform="rotate(-90 48.4 197)" font-size="14" font-family="Lucida Sans Unicode">rain (mm/hr)
	</text>
</g>
	<g id="xLabel" fill="rgb(0,128,0)">
	<text x="965" y="395" text-anchor="middle" font-size="12" font-family="Lucida Sans Unicode">time (hr)
	</text>
</g>
	<g id="plotLines" stroke-width="2">
	<g clip-path="url(#plot_window)" stroke="rgb(255,0,0)" stroke-width="2">
	<path d="M87,354 L87,354 
L87.9,354 
L88.7,354 
L89.6,354 
L90.5,354 
L91.4,354 
L92.3,354 
L93.1,354 
L94,354 
L94.9,354 
L95.8,354 
L96.6,354 
L97.5,354 
L98.4,354 
L99.3,354 
L100,354 
L101,354 
L102,354 
L103,354 
L104,354 
L105,354 
L105,354 
L106,354 
L107,354 
L108,354 
L109,354 
L110,354 
L111,354 
L112,354 
L112,354 
L113,354 
L114,354 
L115,354 
L116,354 
L117,354 
L118,354 
L119,354 
L120,354 
L120,354 
L121,354 
L122,354 
L123,354 
L124,354 
L125,354 
L126,354 
L127,354 
L127,354 
L128,354 
L129,354 
L130,354 
L131,354 
L132,354 
L133,354 
L134,354 
L134,354 
L135,354 
L136,354 
L137,354 
L138,354 
L139,354 
L140,354 
L141,354 
L141,354 
L142,354 
L143,354 
L144,354 
L145,354 
L146,354 
L147,354 
L148,354 
L149,354 
L149,354 
L150,354 
L151,354 
L152,354 
L153,354 
L154,354 
L155,354 
L156,354 
L156,354 
L157,354 
L158,354 
L159,354 
L160,354 
L161,354 
L162,354 
L163,354 
L163,354 
L164,354 
L165,354 
L166,354 
L167,354 
L168,354 
L169,354 
L170,354 
L170,354 
L171,354 
L172,354 
L173,354 
L174,354 
L175,354 
L176,354 
L177,354 
L178,354 
L178,354 
L179,354 
L180,354 
L181,354 
L182,354 
L183,354 
L184,354 
L185,354 
L185,354 
L186,354 
L187,354 
L188,354 
L189,354 
L190,354 
L191,354 
L192,354 
L192,354 
L193,354 
L194,354 
L195,354 
L196,354 
L197,354 
L198,354 
L199,354 
L199,354 
L200,354 
L201,354 
L202,354 
L203,354 
L204,354 
L205,354 
L206,354 
L207,354 
L207,354 
L208,354 
L209,354 
L210,354 
L211,354 
L212,354 
L213,354 
L214,354 
L214,354 
L215,354 
L216,354 
L217,354 
L218,354 
L219,354 
L220,354 
L221,354 
L221,354 
L222,354 
L223,354 
L224,354 
L225,354 
L226,354 
L227,354 
L228,354 
L229,354 
L229,354 
L230,354 
L231,354 
L232,354 
L233,354 
L234,354 
L235,354 
L236,354 
L236,354 
L237,354 
L238,354 
L239,354 
L240,354 
L241,354 
L242,354 
L243,354 
L243,354 
L244,354 
L245,354 
L246,354 
L247,354 
L248,354 
L249,354 
L250,354 
L250,354 
L251,354 
L252,354 
L253,354 
L254,354 
L255,354 
L256,354 
L257,354 
L258,354 
L258,354 
L259,354 
L260,354 
L261,354 
L262,354 
L263,354 
L264,354 
L265,354 
L265,354 
L266,354 
L267,354 
L268,354 
L269,354 
L270,354 
L271,354 
L272,354 
L272,354 
L273,354 
L274,354 
L275,354 
L276,354 
L277,354 
L278,354 
L279,354 
L279,354 
L280,354 
L281,354 
L282,354 
L283,354 
L284,354 
L285,354 
L286,354 
L287,354 
L287,354 
L288,354 
L289,354 
L290,354 
L291,354 
L292,354 
L293,354 
L294,354 
L294,354 
L295,354 
L296,354 
L297,354 
L298,354 
L299,354 
L300,354 
L301,354 
L301,354 
L302,354 
L303,354 
L304,354 
L305,354 
L306,354 
L307,354 
L308,354 
L308,354 
L309,354 
L310,354 
L311,354 
L312,354 
L313,354 
L314,354 
L315,354 
L316,354 
L316,354 
L317,354 
L318,354 
L319,354 
L320,354 
L321,354 
L322,354 
L323,354 
L323,354 
L324,354 
L325,354 
L326,354 
L327,354 
L328,354 
L329,354 
L330,354 
L330,354 
L331,354 
L332,354 
L333,354 
L334,354 
L335,354 
L336,354 
L337,354 
L338,354 
L338,354 
L339,354 
L340,354 
L341,354 
L342,354 
L343,354 
L344,354 
L345,354 
L345,354 
L346,354 
L347,354 
L348,354 
L349,354 
L350,354 
L351,354 
L352,354 
L352,354 
L353,354 
L354,354 
L355,354 
L356,354 
L357,354 
L358,354 
L359,354 
L359,354 
L360,354 
L361,354 
L362,354 
L363,354 
L364,354 
L365,354 
L366,354 
L367,354 
L367,354 
L368,354 
L369,354 
L370,354 
L371,354 
L372,354 
L373,354 
L374,354 
L374,354 
L375,354 
L376,354 
L377,354 
L378,354 
L379,354 
L380,354 
L381,354 
L381,354 
L382,354 
L383,354 
L384,354 
L385,354 
L386,354 
L387,354 
L388,354 
L388,354 
L389,354 
L390,354 
L391,354 
L392,354 
L393,354 
L394,354 
L395,354 
L396,354 
L396,354 
L397,354 
L398,354 
L399,354 
L400,354 
L401,354 
L402,354 
L403,354 
L403,354 
L404,354 
L405,354 
L406,354 
L407,354 
L408,354 
L409,354 
L410,354 
L410,354 
L411,354 
L412,354 
L413,354 
L414,354 
L415,354 
L416,354 
L417,354 
L418,354 
L418,354 
L419,354 
L420,354 
L421,354 
L422,354 
L423,354 
L424,354 
L425,354 
L425,354 
L426,354 
L427,354 
L428,354 
L429,354 
L430,354 
L431,354 
L432,354 
L432,354 
L433,354 
L434,354 
L435,354 
L436,354 
L437,354 
L438,354 
L439,354 
L439,354 
L440,354 
L441,354 
L442,354 
L443,354 
L444,354 
L445,354 
L446,354 
L447,354 
L447,354 
L448,354 
L449,354 
L450,354 
L451,354 
L452,354 
L453,354 
L454,354 
L454,354 
L455,354 
L456,354 
L457,354 
L458,354 
L459,354 
L460,354 
L461,354 
L461,354 
L462,354 
L463,354 
L464,354 
L465,354 
L466,354 
L467,354 
L468,354 
L468,354 
L469,354 
L470,354 
L471,354 
L472,354 
L473,354 
L474,354 
L475,354 
L476,354 
L476,354 
L477,354 
L478,354 
L479,354 
L480,354 
L481,354 
L482,354 
L483,354 
L483,354 
L484,354 
L485,354 
L486,354 
L487,354 
L488,354 
L489,354 
L490,354 
L490,354 
L491,354 
L492,354 
L493,354 
L494,354 
L495,354 
L496,354 
L497,354 
L497,354 
L498,354 
L499,354 
L500,354 
L501,354 
L502,354 
L503,354 
L504,354 
L505,354 
L505,345 
L506,335 
L507,335 
L508,335 
L509,345 
L510,345 
L511,345 
L512,354 
L512,354 
L513,354 
L514,354 
L515,354 
L516,354 
L517,354 
L518,354 
L519,354 
L519,354 
L520,354 
L521,354 
L522,354 
L523,354 
L524,354 
L525,354 
L526,345 
L527,345 
L527,354 
L528,354 
L529,354 
L530,354 
L531,354 
L532,354 
L533,354 
L534,354 
L534,354 
L535,354 
L536,345 
L537,345 
L538,354 
L539,354 
L540,354 
L541,354 
L541,354 
L542,354 
L543,354 
L544,354 
L545,354 
L546,354 
L547,354 
L548,354 
L548,354 
L549,354 
L550,354 
L551,354 
L552,354 
L553,354 
L554,354 
L555,354 
L556,354 
L556,354 
L557,354 
L558,354 
L559,354 
L560,354 
L561,354 
L562,354 
L563,354 
L563,354 
L564,354 
L565,354 
L566,354 
L567,354 
L568,354 
L569,354 
L570,354 
L570,354 
L571,354 
L572,354 
L573,354 
L574,354 
L575,354 
L576,354 
L577,354 
L577,354 
L578,354 
L579,354 
L580,354 
L581,354 
L582,354 
L583,354 
L584,354 
L585,354 
L585,354 
L586,354 
L587,354 
L588,354 
L589,354 
L590,354 
L591,354 
L592,354 
L592,354 
L593,354 
L594,354 
L595,354 
L596,354 
L597,354 
L598,354 
L599,354 
L599,354 
L600,354 
L601,354 
L602,354 
L603,354 
L604,354 
L605,354 
L606,354 
L606,354 
L607,354 
L608,354 
L609,354 
L610,354 
L611,354 
L612,354 
L613,354 
L614,354 
L614,354 
L615,354 
L616,354 
L617,354 
L618,354 
L619,354 
L620,354 
L621,354 
L621,354 
L622,354 
L623,354 
L624,354 
L625,354 
L626,354 
L627,354 
L628,354 
L628,354 
L629,354 
L630,354 
L631,354 
L632,354 
L633,354 
L634,354 
L635,354 
L636,354 
L636,345 
L637,345 
L638,354 
L639,354 
L640,354 
L641,354 
L642,354 
L643,354 
L643,354 
L644,354 
L645,354 
L646,354 
L647,335 
L648,316 
L649,316 
L650,316 
L650,307 
L651,316 
L652,335 
L653,326 
L654,307 
L655,307 
L656,326 
L657,335 
L657,326 
L658,297 
L659,250 
L660,260 
L661,288 
L662,297 
L663,326 
L664,345 
L665,335 
L665,269 
L666,231 
L667,250 
L668,269 
L669,316 
L670,345 
L671,335 
L672,335 
L672,345 
L673,354 
L674,345 
L675,335 
L676,326 
L677,326 
L678,335 
L679,345 
L679,345 
L680,335 
L681,345 
L682,354 
L683,345 
L684,307 
L685,269 
L686,222 
L686,194 
L687,165 
L688,156 
L689,156 
L690,146 
L691,146 
L692,137 
L693,156 
L694,156 
L694,194 
L695,269 
L696,241 
L697,194 
L698,250 
L699,326 
L700,307 
L701,307 
L701,316 
L702,288 
L703,316 
L704,335 
L705,326 
L706,326 
L707,345 
L708,354 
L708,354 
L709,354 
L710,354 
L711,354 
L712,345 
L713,345 
L714,354 
L715,354 
L715,354 
L716,354 
L717,354 
L718,354 
L719,354 
L720,354 
L721,354 
L722,354 
L723,354 
L723,354 
L724,354 
L725,354 
L726,354 
L727,354 
L728,354 
L729,354 
L730,354 
L730,354 
L731,354 
L732,354 
L733,354 
L734,354 
L735,354 
L736,354 
L737,354 
L737,354 
L738,354 
L739,354 
L740,354 
L741,354 
L742,354 
L743,354 
L744,335 
L745,335 
L745,354 
L746,345 
L747,335 
L748,345 
L749,354 
L750,354 
L751,354 
L752,345 
L752,345 
L753,354 
L754,354 
L755,354 
L756,335 
L757,326 
L758,345 
L759,354 
L759,354 
L760,335 
L761,335 
L762,354 
L763,354 
L764,354 
L765,354 
L766,354 
L766,354 
L767,354 
L768,354 
L769,354 
L770,354 
L771,354 
L772,354 
L773,354 
L774,354 
L774,354 
L775,354 
L776,354 
L777,354 
L778,354 
L779,354 
L780,345 
L781,345 
L781,354 
L782,354 
L783,354 
L784,354 
L785,354 
L786,354 
L787,354 
L788,354 
L788,354 
L789,354 
L790,354 
L791,354 
L792,354 
L793,354 
L794,354 
L795,354 
L795,354 
L796,354 
L797,354 
L798,354 
L799,354 
L800,354 
L801,354 
L802,354 
L803,354 
L803,354 
L804,354 
L805,354 
L806,354 
L807,354 
L808,354 
L809,354 
L810,345 
L810,345 
L811,354 
L812,354 
L813,345 
L814,326 
L815,316 
L816,297 
L817,288 
L817,288 
L818,288 
L819,288 
L820,297 
L821,307 
L822,307 
L823,316 
L824,335 
L825,354 
L825,354 
L826,354 
L827,354 
L828,354 
L829,354 
L830,354 
L831,354 
L832,354 
L832,354 
L833,354 
L834,354 
L835,354 
L836,354 
L837,354 
L838,354 
L839,354 
L839,354 
L840,345 
L841,345 
L842,345 
L843,345 
L844,345 
L845,335 
L846,345 
L846,354 
L847,354 
L848,354 
L849,345 
L850,345 
L851,354 
L852,354 
L853,354 
L854,354 
L854,354 
L855,345 
L856,335 
L857,335 
L858,345 
L859,354 
L860,354 
L861,354 
L861,354 
L862,354 
L863,354 
L864,354 
L865,354 
L866,354 
L867,354 
L868,354 
L868,354 
L869,354 
L870,354 
L871,354 
L872,354 
L873,354 
L874,354 
L875,354 
L875,354 
L876,354 
L877,354 
L878,354 
L879,354 
L880,354 
L881,354 
L882,354 
L883,354 
L883,354 
L884,354 
L885,354 
L886,354 
L887,354 
L888,354 
L889,354 
L890,354 
L890,354 
L891,345 
L892,335 
L893,335 
L894,345 
L895,354 
L896,354 
L897,345 
L897,345 
L898,354 
L899,345 
L900,326 
L901,316 
L902,326 
L903,335 
L904,345 
L904,354 
L905,354 
L906,354 
L907,354 
L908,335 
L909,326 
L910,335 
L911,345 
L912,354 
L912,354 
L913,354 
L914,354 
L915,345 
L916,345 
L917,354 
L918,279 
L919,269 
L919,316 
L920,307 
L921,335 
L922,354 
L923,354 
L924,354 
L925,354 
L926,345 
L926,212 
L928,165 
L929,354 
L930,354 
L931,354 
L932,42.6 
L933,42.6 
L934,354 
L934,354 
L935,354 
L936,354 
L937,335 
L938,316 
L939,307 
L940,260 
L941,241 
L941,297 
L942,345 
L943,354 
L944,354 
L945,354 
L946,354 
L947,354 
L948,354 
L948,354 
L949,354 
L950,354 
L951,354 
L952,354 
L953,354 
L954,335 
L955,335 
L955,354 
L956,354 
L957,354 
L958,354 
L959,345 
L960,345 
L961,354 
L962,335 
L963,326 
L963,345 
L964,354 
L965,354 
L966,354 
L967,354 
L968,354 
L969,354 
L970,354 
L970,354 
L971,345 
L972,345 
L973,354 
L974,354 
L975,345 
L976,316 
L977,269 
L977,288 
L978,345 
L979,354 
L980,354 
L981,354 
L982,345 
L983,345 
L984,345 
L984,345 
L985,354 
L986,354 
L987,354 
L988,354 
L989,354 
L990,354 
L991,354 
L992,354 
L992,354 
L993,354 
L994,354 
L995,354 
L996,354 
L997,354 
L998,345 
L999,335 
L999,345 
L1e+03,345 
L1e+03,326 
L1e+03,335 
L1e+03,335 
L1e+03,335 
L1e+03,354 
L1.01e+03,354 
L1.01e+03,354 
L1.01e+03,354 
L1.01e+03,345 
L1.01e+03,335 
L1.01e+03,345 
L1.01e+03,335 
L1.01e+03,326 
L1.01e+03,345 
L1.01e+03,354 
L1.01e+03,354 
L1.02e+03,354 
L1.02e+03,345 
L1.02e+03,345 
L1.02e+03,345 
L1.02e+03,345 
L1.02e+03,354 
L1.02e+03,354 
L1.02e+03,354 
L1.02e+03,354 
L1.02e+03,354 
L1.02e+03,354 
L1.02e+03,335 
L1.03e+03,335 
L1.03e+03,345 
L1.03e+03,345 
L1.03e+03,354 
L1.03e+03,326 
L1.03e+03,307 
L1.03e+03,326 
L1.03e+03,335 
L1.03e+03,345 
L1.03e+03,345 
L1.03e+03,335 
L1.04e+03,335 
L1.04e+03,335 
L1.04e+03,345 
L1.04e+03,354 
L1.04e+03,354 
L1.04e+03,354 
L1.04e+03,354 
L1.04e+03,354 
L1.04e+03,354 
L1.04e+03,354 
L1.04e+03,354 
L1.05e+03,354 
L1.05e+03,354 
L1.05e+03,354 
L1.05e+03,354 
L1.05e+03,354 
L1.05e+03,354 
L1.05e+03,354 
L1.05e+03,316 
L1.05e+03,297 
L1.05e+03,335 
L1.05e+03,354 
L1.05e+03,354 
L1.06e+03,354 
L1.06e+03,354 
L1.06e+03,354 
L1.06e+03,354 
L1.06e+03,354 
L1.06e+03,354 
L1.06e+03,354 
L1.06e+03,335 
L1.06e+03,297 
L1.06e+03,297 
L1.06e+03,335 
L1.07e+03,345 
L1.07e+03,345 
L1.07e+03,354 
L1.07e+03,345 
L1.07e+03,326 
L1.07e+03,335 
L1.07e+03,354 
L1.07e+03,354 
L1.07e+03,354 
L1.07e+03,354 
L1.07e+03,354 
L1.08e+03,354 
L1.08e+03,354 
L1.08e+03,354 
L1.08e+03,354 
L1.08e+03,354 
L1.08e+03,354 
L1.08e+03,354 
L1.08e+03,354 
L1.08e+03,354 
L1.08e+03,354 
L1.08e+03,354 
L1.08e+03,354 
L1.09e+03,354 
L1.09e+03,354 
L1.09e+03,354 
L1.09e+03,354 
L1.09e+03,354 
L1.09e+03,354 
L1.09e+03,335 
L1.09e+03,335 
L1.09e+03,354 
L1.09e+03,354 
L1.09e+03,354 
L1.1e+03,354 
L1.1e+03,354 
L1.1e+03,354 
L1.1e+03,354 
L1.1e+03,354 
L1.1e+03,354 
L1.1e+03,354 
L1.1e+03,354 
L1.1e+03,354 
L1.1e+03,354 
L1.1e+03,354 
L1.1e+03,354 
L1.11e+03,354 
L1.11e+03,345 
L1.11e+03,335 
L1.11e+03,326 
L1.11e+03,316 
L1.11e+03,316 
L1.11e+03,316 
L1.11e+03,326 
L1.11e+03,345 
L1.11e+03,354 
L1.11e+03,345 
L1.12e+03,345 
L1.12e+03,354 
L1.12e+03,345 
L1.12e+03,316 
L1.12e+03,297 
L1.12e+03,279 
L1.12e+03,279 
L1.12e+03,297 
L1.12e+03,307 
L1.12e+03,316 
L1.12e+03,307 
L1.13e+03,297 
L1.13e+03,288 
L1.13e+03,307 
L1.13e+03,326 
L1.13e+03,335 
L1.13e+03,335 
L1.13e+03,316 
L1.13e+03,335 
L1.13e+03,354 
L1.13e+03,354 
L1.13e+03,354 
L1.13e+03,354 
L1.14e+03,354 
L1.14e+03,354 
L1.14e+03,354 
L1.14e+03,354 
L1.14e+03,354 
L1.14e+03,354 
L1.14e+03,354 
L1.14e+03,354 
L1.14e+03,354 
L1.14e+03,354 
L1.14e+03,354 
L1.15e+03,354 
L1.15e+03,354 
L1.15e+03,354 
L1.15e+03,354 
L1.15e+03,354 
L1.15e+03,354 
L1.15e+03,354 
L1.15e+03,354 
L1.15e+03,354 
L1.15e+03,354 
L1.15e+03,354 
L1.16e+03,345 
L1.16e+03,345 
L1.16e+03,354 
L1.16e+03,335 
L1.16e+03,316 
L1.16e+03,297 
L1.16e+03,279 
L1.16e+03,288 
L1.16e+03,288 
L1.16e+03,307 
L1.16e+03,326 
L1.16e+03,335 
L1.17e+03,354 
L1.17e+03,354 
L1.17e+03,354 
L1.17e+03,354 
L1.17e+03,354 
L1.17e+03,354 
L1.17e+03,354 
L1.17e+03,354 
L1.17e+03,354 
L1.17e+03,354 
L1.17e+03,354 
L1.18e+03,354 
L1.18e+03,354 
L1.18e+03,354 
L1.18e+03,354 
L1.18e+03,354 
L1.18e+03,354 
L1.18e+03,354 
L1.18e+03,354 
L1.18e+03,354 
L1.18e+03,354 
L1.18e+03,354 
L1.18e+03,345 
L1.19e+03,345 
L1.19e+03,345 
L1.19e+03,345 
L1.19e+03,354 
L1.19e+03,354 
L1.19e+03,354 
L1.19e+03,354 
L1.19e+03,354 
L1.19e+03,354 
L1.19e+03,354 
L1.19e+03,354 
L1.2e+03,354 
L1.2e+03,354 
L1.2e+03,354 
L1.2e+03,354 
L1.2e+03,354 
L1.2e+03,354 
L1.2e+03,354 
L1.2e+03,354 
L1.2e+03,354 
L1.2e+03,354 
L1.2e+03,354 
L1.21e+03,354 
L1.21e+03,354 
L1.21e+03,354 
L1.21e+03,354 
L1.21e+03,354 
L1.21e+03,354 
L1.21e+03,354 
L1.21e+03,354 
L1.21e+03,354 
L1.21e+03,354 
L1.21e+03,354 
L1.21e+03,354 
L1.22e+03,354 
L1.22e+03,354 
L1.22e+03,354 
L1.22e+03,354 
L1.22e+03,354 
L1.22e+03,354 
L1.22e+03,354 
L1.22e+03,354 
L1.22e+03,354 
L1.22e+03,354 
L1.22e+03,354 
L1.23e+03,354 
L1.23e+03,354 
L1.23e+03,354 
L1.23e+03,354 
L1.23e+03,354 
L1.23e+03,354 
L1.23e+03,354 
L1.23e+03,354 
L1.23e+03,354 
L1.23e+03,354 
L1.23e+03,354 
L1.24e+03,354 
L1.24e+03,354 
L1.24e+03,354 
L1.24e+03,354 
L1.24e+03,354 
L1.24e+03,354 
L1.24e+03,354 
L1.24e+03,354 
L1.24e+03,345 
L1.24e+03,345 
L1.24e+03,354 
L1.24e+03,345 
L1.25e+03,307 
L1.25e+03,288 
L1.25e+03,279 
L1.25e+03,297 
L1.25e+03,335 
L1.25e+03,345 
L1.25e+03,335 
L1.25e+03,316 
L1.25e+03,335 
L1.25e+03,354 
L1.25e+03,354 
L1.26e+03,354 
L1.26e+03,354 
L1.26e+03,354 
L1.26e+03,354 
L1.26e+03,354 
L1.26e+03,354 
L1.26e+03,354 
L1.26e+03,354 
L1.26e+03,354 
L1.26e+03,354 
L1.26e+03,354 
L1.26e+03,354 
L1.27e+03,354 
L1.27e+03,354 
L1.27e+03,354 
L1.27e+03,354 
L1.27e+03,354 
L1.27e+03,354 
L1.27e+03,354 
L1.27e+03,354 
L1.27e+03,354 
L1.27e+03,354 
L1.27e+03,354 
L1.28e+03,354 
L1.28e+03,354 
L1.28e+03,354 
L1.28e+03,354 
L1.28e+03,354 
L1.28e+03,354 
L1.28e+03,354 
L1.28e+03,354 
L1.28e+03,354 
L1.28e+03,354 
L1.28e+03,354 
L1.29e+03,354 
L1.29e+03,354 
L1.29e+03,354 
L1.29e+03,354 
L1.29e+03,354 
L1.29e+03,354 
L1.29e+03,354 
L1.29e+03,354 
L1.29e+03,354 
L1.29e+03,354 
L1.29e+03,354 
L1.29e+03,354 
L1.3e+03,354 
L1.3e+03,354 
L1.3e+03,354 
L1.3e+03,354 
L1.3e+03,354 
L1.3e+03,354 
L1.3e+03,354 
L1.3e+03,354 
L1.3e+03,354 
L1.3e+03,354 
L1.3e+03,354 
L1.31e+03,354 
L1.31e+03,354 
L1.31e+03,354 
L1.31e+03,354 
L1.31e+03,354 
L1.31e+03,354 
L1.31e+03,354 
L1.31e+03,354 
L1.31e+03,354 
L1.31e+03,354 
L1.31e+03,354 
L1.32e+03,354 
L1.32e+03,354 
L1.32e+03,354 
L1.32e+03,354 
L1.32e+03,354 
L1.32e+03,354 
L1.32e+03,354 
L1.32e+03,354 
L1.32e+03,354 
L1.32e+03,354 
L1.32e+03,354 
L1.32e+03,354 
L1.33e+03,354 
L1.33e+03,354 
L1.33e+03,354 
L1.33e+03,354 
L1.33e+03,354 
L1.33e+03,354 
L1.33e+03,354 
L1.33e+03,354 
L1.33e+03,354 
L1.33e+03,354 
L1.33e+03,354 
L1.34e+03,354 
L1.34e+03,354 
L1.34e+03,354 
L1.34e+03,354 
L1.34e+03,354 
L1.34e+03,354 
L1.34e+03,354 
L1.34e+03,354 
L1.34e+03,354 
L1.34e+03,345 
L1.34e+03,345 
L1.34e+03,345 
L1.35e+03,335 
L1.35e+03,335 
L1.35e+03,345 
L1.35e+03,354 
L1.35e+03,354 
L1.35e+03,354 
L1.35e+03,345 
L1.35e+03,335 
L1.35e+03,345 
L1.35e+03,345 
L1.35e+03,345 
L1.36e+03,335 
L1.36e+03,326 
L1.36e+03,345 
L1.36e+03,354 
L1.36e+03,345 
L1.36e+03,345 
L1.36e+03,354 
L1.36e+03,354 
L1.36e+03,345 
L1.36e+03,335 
L1.36e+03,345 
L1.37e+03,354 
L1.37e+03,354 
L1.37e+03,354 
L1.37e+03,354 
L1.37e+03,345 
L1.37e+03,316 
L1.37e+03,307 
L1.37e+03,316 
L1.37e+03,316 
L1.37e+03,307 
L1.37e+03,307 
L1.37e+03,307 
L1.38e+03,307 
L1.38e+03,335 
L1.38e+03,354 
L1.38e+03,354 
L1.38e+03,354 
L1.38e+03,354 
L1.38e+03,354 
L1.38e+03,354 
L1.38e+03,354 
L1.38e+03,354 
L1.38e+03,354 
L1.39e+03,354 
L1.39e+03,354 
L1.39e+03,354 
L1.39e+03,354 
L1.39e+03,354 
L1.39e+03,354 
L1.39e+03,354 
L1.39e+03,354 
L1.39e+03,354 
L1.39e+03,354 
L1.39e+03,354 
L1.4e+03,354 
L1.4e+03,354 
L1.4e+03,354 
L1.4e+03,354 
L1.4e+03,354 
L1.4e+03,354 
L1.4e+03,354 
L1.4e+03,354 
L1.4e+03,354 
L1.4e+03,354 
L1.4e+03,354 
L1.4e+03,354 
L1.41e+03,354 
L1.41e+03,354 
L1.41e+03,354 
L1.41e+03,354 
L1.41e+03,354 
L1.41e+03,354 
L1.41e+03,354 
L1.41e+03,354 
L1.41e+03,354 
L1.41e+03,354 
L1.41e+03,354 
L1.42e+03,354 
L1.42e+03,354 
L1.42e+03,354 
L1.42e+03,354 
L1.42e+03,354 
L1.42e+03,354 
L1.42e+03,354 
L1.42e+03,354 
L1.42e+03,354 
L1.42e+03,354 
L1.42e+03,354 
L1.42e+03,354 
L1.43e+03,354 
L1.43e+03,354 
L1.43e+03,354 
L1.43e+03,354 
L1.43e+03,354 
L1.43e+03,354 
L1.43e+03,354 
L1.43e+03,354 
L1.43e+03,354 
L1.43e+03,354 
L1.43e+03,354 
L1.44e+03,354 
L1.44e+03,354 
L1.44e+03,354 
L1.44e+03,354 
L1.44e+03,354 
L1.44e+03,354 
L1.44e+03,354 
L1.44e+03,354 
L1.44e+03,354 
L1.44e+03,354 
L1.44e+03,354 
L1.45e+03,345 
L1.45e+03,345 
L1.45e+03,354 
L1.45e+03,354 
L1.45e+03,354 
L1.45e+03,354 
L1.45e+03,354 
L1.45e+03,354 
L1.45e+03,354 
L1.45e+03,354 
L1.45e+03,354 
L1.45e+03,354 
L1.46e+03,354 
L1.46e+03,354 
L1.46e+03,354 
L1.46e+03,354 
L1.46e+03,354 
L1.46e+03,354 
L1.46e+03,354 
L1.46e+03,354 
L1.46e+03,335 
L1.46e+03,316 
L1.46e+03,326 
L1.47e+03,345 
L1.47e+03,345 
L1.47e+03,345 
L1.47e+03,345 
L1.47e+03,345 
L1.47e+03,354 
L1.47e+03,335 
L1.47e+03,316 
L1.47e+03,326 
L1.47e+03,326 
L1.47e+03,326 
L1.47e+03,335 
L1.48e+03,335 
L1.48e+03,345 
L1.48e+03,354 
L1.48e+03,354 
L1.48e+03,345 
L1.48e+03,345 
L1.48e+03,345 
L1.48e+03,326 
L1.48e+03,335 
L1.48e+03,354 
L1.48e+03,354 
L1.49e+03,354 
L1.49e+03,354 
L1.49e+03,354 
L1.49e+03,354 
L1.49e+03,354 
L1.49e+03,354 
L1.49e+03,345 
L1.49e+03,345 
L1.49e+03,354 
L1.49e+03,354 
L1.49e+03,354 
L1.5e+03,354 
L1.5e+03,354 
L1.5e+03,354 
L1.5e+03,354 
L1.5e+03,354 
L1.5e+03,354 
L1.5e+03,354 
L1.5e+03,354 
L1.5e+03,354 
L1.5e+03,354 
L1.5e+03,354 
L1.5e+03,354 
L1.51e+03,354 
L1.51e+03,354 
L1.51e+03,354 
L1.51e+03,354 
L1.51e+03,354 
L1.51e+03,354 
L1.51e+03,345 
L1.51e+03,345 
L1.51e+03,354 
L1.51e+03,354 
L1.51e+03,354 
L1.52e+03,354 
L1.52e+03,354 
L1.52e+03,354 
L1.52e+03,354 
L1.52e+03,354 
L1.52e+03,354 
L1.52e+03,354 
L1.52e+03,354 
L1.52e+03,354 
L1.52e+03,354 
L1.52e+03,354 
L1.53e+03,354 
L1.53e+03,354 
L1.53e+03,354 
L1.53e+03,354 
L1.53e+03,354 
L1.53e+03,354 
L1.53e+03,354 
L1.53e+03,354 
L1.53e+03,354 
L1.53e+03,345 
L1.53e+03,316 
L1.53e+03,326 
L1.54e+03,288 
L1.54e+03,269 
L1.54e+03,335 
L1.54e+03,354 
L1.54e+03,354 
L1.54e+03,354 
L1.54e+03,345 
L1.54e+03,345 
L1.54e+03,184 
L1.54e+03,184 
L1.54e+03,354 
L1.55e+03,354 
L1.55e+03,354 
L1.55e+03,354 
L1.55e+03,354 
L1.55e+03,354 
L1.55e+03,354 
L1.55e+03,354 
L1.55e+03,354 
L1.55e+03,354 
L1.55e+03,354 
L1.55e+03,354 
L1.55e+03,354 
L1.56e+03,345 
L1.56e+03,307 
L1.56e+03,297 
L1.56e+03,335 
L1.56e+03,354 
L1.56e+03,354 
L1.56e+03,354 
L1.56e+03,354 
L1.56e+03,354 
L1.56e+03,354 
L1.56e+03,354 
L1.57e+03,354 
L1.57e+03,354 
L1.57e+03,354 
L1.57e+03,354 
" fill="none"/>
</g>
</g>
	<g id="plotPoints" clip-path="url(#plot_window)">
	<g stroke="rgb(255,0,0)" fill="rgb(255,255,255)" font-size="14" font-family="Lucida Sans Unicode" text-anchor="middle">
	<text x="505" y="349" text-anchor="middle">&#x25CF;
	</text>
	<text x="506" y="339" text-anchor="middle">&#x25CF;
	</text>
	<text x="507" y="339" text-anchor="middle">&#x25CF;
	</text>
	<text x="508" y="339" text-anchor="middle">&#x25CF;
	</text>
	<text x="509" y="349" text-anchor="middle">&#x25CF;
	</text>
	<text x="510" y="349" text-anchor="middle">&#x25CF;
	</text>
	<text x="511" y="349" text-anchor="middle">&#x25CF;
	</text>
	<text x="526" y="349" text-anchor="middle">&#x25CF;
	</text>
	<text x="527" y="349" text-anchor="middle">&#x25CF;
	</text>
	<text x="536" y="349" text-anchor="middle">&#x25CF;
	</text>
	<text x="537" y="349" text-anchor="middle">&#x25CF;
	</text>
	<text x="636" y="349" text-anchor="middle">&#x25CF;
	</text>
	<text x="637" y="349" text-anchor="middle">&#x25CF;
	</text>
	<text x="647" y="339" text-anchor="middle">&#x25CF;
	</text>
	<text x="648" y="320" text-anchor="middle">&#x25CF;
	</text>
	<text x="649" y="320" text-anchor="middle">&#x25CF;
	</text>
	<text x="650" y="320" text-anchor="middle">&#x25CF;
	</text>
	<text x="650" y="311" text-anchor="middle">&#x25CF;
	</text>
	<text x="651" y="320" text-anchor="middle">&#x25CF;
	</text>
	<text x="652" y="339" text-anchor="middle">&#x25CF;
	</text>
	<text x="653" y="330" text-anchor="middle">&#x25CF;
	</text>
	<text x="654" y="311" text-anchor="middle">&#x25CF;
	</text>
	<text x="655" y="311" text-anchor="middle">&#x25CF;
	</text>
	<text x="656" y="330" text-anchor="middle">&#x25CF;
	</text>
	<text x="657" y="339" text-anchor="middle">&#x25CF;
	</text>
	<text x="657" y="330" text-anchor="middle">&#x25CF;
	</text>
	<text x="658" y="302" text-anchor="middle">&#x25CF;
	</text>
	<text x="659" y="254" text-anchor="middle">&#x25CF;
	</text>
	<text x="660" y="264" text-anchor="middle">&#x25CF;
	</text>
	<text x="661" y="292" text-anchor="middle">&#x25CF;
	</text>
	<text x="662" y="302" text-anchor="middle">&#x25CF;
	</text>
	<text x="663" y="330" text-anchor="middle">&#x25CF;
	</text>
	<text x="664" y="349" text-anchor="middle">&#x25CF;
	</text>
	<text x="665" y="339" text-anchor="middle">&#x25CF;
	</text>
	<text x="665" y="273" text-anchor="middle">&#x25CF;
	</text>
	<text x="666" y="235" text-anchor="middle">&#x25CF;
	</text>
	<text x="667" y="254" text-anchor="middle">&#x25CF;
	</text>
	<text x="668" y="273" text-anchor="middle">&#x25CF;
	</text>
	<text x="669" y="320" text-anchor="middle">&#x25CF;
	</text>
	<text x="670" y="349" text-anchor="middle">&#x25CF;
	</text>
	<text x="671" y="339" text-anchor="middle">&#x25CF;
	</text>
	<text x="672" y="339" text-anchor="middle">&#x25CF;
	</text>
	<text x="672" y="349" text-anchor="middle">&#x25CF;
	</text>
	<text x="674" y="349" text-anchor="middle">&#x25CF;
	</text>
	<text x="675" y="339" text-anchor="middle">&#x25CF;
	</text>
	<text x="676" y="330" text-anchor="middle">&#x25CF;
	</text>
	<text x="677" y="330" text-anchor="middle">&#x25CF;
	</text>
	<text x="678" y="339" text-anchor="middle">&#x25CF;
	</text>
	<text x="679" y="349" text-anchor="middle">&#x25CF;
	</text>
	<text x="679" y="349" text-anchor="middle">&#x25CF;
	</text>
	<text x="680" y="339" text-anchor="middle">&#x25CF;
	</text>
	<text x="681" y="349" text-anchor="middle">&#x25CF;
	</text>
	<text x="683" y="349" text-anchor="middle">&#x25CF;
	</text>
	<text x="684" y="311" text-anchor="middle">&#x25CF;
	</text>
	<text x="685" y="273" text-anchor="middle">&#x25CF;
	</text>
	<text x="686" y="226" text-anchor="middle">&#x25CF;
	</text>
	<text x="686" y="198" text-anchor="middle">&#x25CF;
	</text>
	<text x="687" y="169" text-anchor="middle">&#x25CF;
	</text>
	<text x="688" y="160" text-anchor="middle">&#x25CF;
	</text>
	<text x="689" y="160" text-anchor="middle">&#x25CF;
	</text>
	<text x="690" y="151" text-anchor="middle">&#x25CF;
	</text>
	<text x="691" y="151" text-anchor="middle">&#x25CF;
	</text>
	<text x="692" y="141" text-anchor="middle">&#x25CF;
	</text>
	<text x="693" y="160" text-anchor="middle">&#x25CF;
	</text>
	<text x="694" y="160" text-anchor="middle">&#x25CF;
	</text>
	<text x="694" y="198" text-anchor="middle">&#x25CF;
	</text>
	<text x="695" y="273" text-anchor="middle">&#x25CF;
	</text>
	<text x="696" y="245" text-anchor="middle">&#x25CF;
	</text>
	<text x="697" y="198" text-anchor="middle">&#x25CF;
	</text>
	<text x="698" y="254" text-anchor="middle">&#x25CF;
	</text>
	<text x="699" y="330" text-anchor="middle">&#x25CF;
	</text>
	<text x="700" y="311" text-anchor="middle">&#x25CF;
	</text>
	<text x="701" y="311" text-anchor="middle">&#x25CF;
	</text>
	<text x="701" y="320" text-anchor="middle">&#x25CF;
	</text>
	<text x="702" y="292" text-anchor="middle">&#x25CF;
	</text>
	<text x="703" y="320" text-anchor="middle">&#x25CF;
	</text>
	<text x="704" y="339" text-anchor="middle">&#x25CF;
	</text>
	<text x="705" y="330" text-anchor="middle">&#x25CF;
	</text>
	<text x="706" y="330" text-anchor="middle">&#x25CF;
	</text>
	<text x="707" y="349" text-anchor="middle">&#x25CF;
	</text>
	<text x="712" y="349" text-anchor="middle">&#x25CF;
	</text>
	<text x="713" y="349" text-anchor="middle">&#x25CF;
	</text>
	<text x="744" y="339" text-anchor="middle">&#x25CF;
	</text>
	<text x="745" y="339" text-anchor="middle">&#x25CF;
	</text>
	<text x="746" y="349" text-anchor="middle">&#x25CF;
	</text>
	<text x="747" y="339" text-anchor="middle">&#x25CF;
	</text>
	<text x="748" y="349" text-anchor="middle">&#x25CF;
	</text>
	<text x="752" y="349" text-anchor="middle">&#x25CF;
	</text>
	<text x="752" y="349" text-anchor="middle">&#x25CF;
	</text>
	<text x="756" y="339" text-anchor="middle">&#x25CF;
	</text>
	<text x="757" y="330" text-anchor="middle">&#x25CF;
	</text>
	<text x="758" y="349" text-anchor="middle">&#x25CF;
	</text>
	<text x="760" y="339" text-anchor="middle">&#x25CF;
	</text>
	<text x="761" y="339" text-anchor="middle">&#x25CF;
	</text>
	<text x="780" y="349" text-anchor="middle">&#x25CF;
	</text>
	<text x="781" y="349" text-anchor="middle">&#x25CF;
	</text>
	<text x="810" y="349" text-anchor="middle">&#x25CF;
	</text>
	<text x="810" y="349" text-anchor="middle">&#x25CF;
	</text>
	<text x="813" y="349" text-anchor="middle">&#x25CF;
	</text>
	<text x="814" y="330" text-anchor="middle">&#x25CF;
	</text>
	<text x="815" y="320" text-anchor="middle">&#x25CF;
	</text>
	<text x="816" y="302" text-anchor="middle">&#x25CF;
	</text>
	<text x="817" y="292" text-anchor="middle">&#x25CF;
	</text>
	<text x="817" y="292" text-anchor="middle">&#x25CF;
	</text>
	<text x="818" y="292" text-anchor="middle">&#x25CF;
	</text>
	<text x="819" y="292" text-anchor="middle">&#x25CF;
	</text>
	<text x="820" y="302" text-anchor="middle">&#x25CF;
	</text>
	<text x="821" y="311" text-anchor="middle">&#x25CF;
	</text>
	<text x="822" y="311" text-anchor="middle">&#x25CF;
	</text>
	<text x="823" y="320" text-anchor="middle">&#x25CF;
	</text>
	<text x="824" y="339" text-anchor="middle">&#x25CF;
	</text>
	<text x="840" y="349" text-anchor="middle">&#x25CF;
	</text>
	<text x="841" y="349" text-anchor="middle">&#x25CF;
	</text>
	<text x="842" y="349" text-anchor="middle">&#x25CF;
	</text>
	<text x="843" y="349" text-anchor="middle">&#x25CF;
	</text>
	<text x="844" y="349" text-anchor="middle">&#x25CF;
	</text>
	<text x="845" y="339" text-anchor="middle">&#x25CF;
	</text>
	<text x="846" y="349" text-anchor="middle">&#x25CF;
	</text>
	<text x="849" y="349" text-anchor="middle">&#x25CF;
	</text>
	<text x="850" y="349" text-anchor="middle">&#x25CF;
	</text>
	<text x="855" y="349" text-anchor="middle">&#x25CF;
	</text>
	<text x="856" y="339" text-anchor="middle">&#x25CF;
	</text>
	<text x="857" y="339" text-anchor="middle">&#x25CF;
	</text>
	<text x="858" y="349" text-anchor="middle">&#x25CF;
	</text>
	<text x="891" y="349" text-anchor="middle">&#x25CF;
	</text>
	<text x="892" y="339" text-anchor="middle">&#x25CF;
	</text>
	<text x="893" y="339" text-anchor="middle">&#x25CF;
	</text>
	<text x="894" y="349" text-anchor="middle">&#x25CF;
	</text>
	<text x="897" y="349" text-anchor="middle">&#x25CF;
	</text>
	<text x="897" y="349" text-anchor="middle">&#x25CF;
	</text>
	<text x="899" y="349" text-anchor="middle">&#x25CF;
	</text>
	<text x="900" y="330" text-anchor="middle">&#x25CF;
	</text>
	<text x="901" y="320" text-anchor="middle">&#x25CF;
	</text>
	<text x="902" y="330" text-anchor="middle">&#x25CF;
	</text>
	<text x="903" y="339" text-anchor="middle">&#x25CF;
	</text>
	<text x="904" y="349" text-anchor="middle">&#x25CF;
	</text>
	<text x="908" y="339" text-anchor="middle">&#x25CF;
	</text>
	<text x="909" y="330" text-anchor="middle">&#x25CF;
	</text>
	<text x="910" y="339" text-anchor="middle">&#x25CF;
	</text>
	<text x="911" y="349" text-anchor="middle">&#x25CF;
	</text>
	<text x="915" y="349" text-anchor="middle">&#x25CF;
	</text>
	<text x="916" y="349" text-anchor="middle">&#x25CF;
	</text>
	<text x="918" y="283" text-anchor="middle">&#x25CF;
	</text>
	<text x="919" y="273" text-anchor="middle">&#x25CF;
	</text>
	<text x="919" y="320" text-anchor="middle">&#x25CF;
	</text>
	<text x="920" y="311" text-anchor="middle">&#x25CF;
	</text>
	<text x="921" y="339" text-anchor="middle">&#x25CF;
	</text>
	<text x="926" y="349" text-anchor="middle">&#x25CF;
	</text>
	<text x="926" y="217" text-anchor="middle">&#x25CF;
	</text>
	<text x="928" y="169" text-anchor="middle">&#x25CF;
	</text>
	<text x="932" y="46.8" text-anchor="middle">&#x25CF;
	</text>
	<text x="933" y="46.8" text-anchor="middle">&#x25CF;
	</text>
	<text x="937" y="339" text-anchor="middle">&#x25CF;
	</text>
	<text x="938" y="320" text-anchor="middle">&#x25CF;
	</text>
	<text x="939" y="311" text-anchor="middle">&#x25CF;
	</text>
	<text x="940" y="264" text-anchor="middle">&#x25CF;
	</text>
	<text x="941" y="245" text-anchor="middle">&#x25CF;
	</text>
	<text x="941" y="302" text-anchor="middle">&#x25CF;
	</text>
	<text x="942" y="349" text-anchor="middle">&#x25CF;
	</text>
	<text x="954" y="339" text-anchor="middle">&#x25CF;
	</text>
	<text x="955" y="339" text-anchor="middle">&#x25CF;
	</text>
	<text x="959" y="349" text-anchor="middle">&#x25CF;
	</text>
	<text x="960" y="349" text-anchor="middle">&#x25CF;
	</text>
	<text x="962" y="339" text-anchor="middle">&#x25CF;
	</text>
	<text x="963" y="330" text-anchor="middle">&#x25CF;
	</text>
	<text x="963" y="349" text-anchor="middle">&#x25CF;
	</text>
	<text x="971" y="349" text-anchor="middle">&#x25CF;
	</text>
	<text x="972" y="349" text-anchor="middle">&#x25CF;
	</text>
	<text x="975" y="349" text-anchor="middle">&#x25CF;
	</text>
	<text x="976" y="320" text-anchor="middle">&#x25CF;
	</text>
	<text x="977" y="273" text-anchor="middle">&#x25CF;
	</text>
	<text x="977" y="292" text-anchor="middle">&#x25CF;
	</text>
	<text x="978" y="349" text-anchor="middle">&#x25CF;
	</text>
	<text x="982" y="349" text-anchor="middle">&#x25CF;
	</text>
	<text x="983" y="349" text-anchor="middle">&#x25CF;
	</text>
	<text x="984" y="349" text-anchor="middle">&#x25CF;
	</text>
	<text x="984" y="349" text-anchor="middle">&#x25CF;
	</text>
	<text x="998" y="349" text-anchor="middle">&#x25CF;
	</text>
	<text x="999" y="339" text-anchor="middle">&#x25CF;
	</text>
	<text x="999" y="349" text-anchor="middle">&#x25CF;
	</text>
	<text x="1e+03" y="349" text-anchor="middle">&#x25CF;
	</text>
	<text x="1e+03" y="330" text-anchor="middle">&#x25CF;
	</text>
	<text x="1e+03" y="339" text-anchor="middle">&#x25CF;
	</text>
	<text x="1e+03" y="339" text-anchor="middle">&#x25CF;
	</text>
	<text x="1e+03" y="339" text-anchor="middle">&#x25CF;
	</text>
	<text x="1.01e+03" y="349" text-anchor="middle">&#x25CF;
	</text>
	<text x="1.01e+03" y="339" text-anchor="middle">&#x25CF;
	</text>
	<text x="1.01e+03" y="349" text-anchor="middle">&#x25CF;
	</text>
	<text x="1.01e+03" y="339" text-anchor="middle">&#x25CF;
	</text>
	<text x="1.01e+03" y="330" text-anchor="middle">&#x25CF;
	</text>
	<text x="1.01e+03" y="349" text-anchor="middle">&#x25CF;
	</text>
	<text x="1.02e+03" y="349" text-anchor="middle">&#x25CF;
	</text>
	<text x="1.02e+03" y="349" text-anchor="middle">&#x25CF;
	</text>
	<text x="1.02e+03" y="349" text-anchor="middle">&#x25CF;
	</text>
	<text x="1.02e+03" y="349" text-anchor="middle">&#x25CF;
	</text>
	<text x="1.02e+03" y="339" text-anchor="middle">&#x25CF;
	</text>
	<text x="1.03e+03" y="339" text-anchor="middle">&#x25CF;
	</text>
	<text x="1.03e+03" y="349" text-anchor="middle">&#x25CF;
	</text>
	<text x="1.03e+03" y="349" text-anchor="middle">&#x25CF;
	</text>
	<text x="1.03e+03" y="330" text-anchor="middle">&#x25CF;
	</text>
	<text x="1.03e+03" y="311" text-anchor="middle">&#x25CF;
	</text>
	<text x="1.03e+03" y="330" text-anchor="middle">&#x25CF;
	</text>
	<text x="1.03e+03" y="339" text-anchor="middle">&#x25CF;
	</text>
	<text x="1.03e+03" y="349" text-anchor="middle">&#x25CF;
	</text>
	<text x="1.03e+03" y="349" text-anchor="middle">&#x25CF;
	</text>
	<text x="1.03e+03" y="339" text-anchor="middle">&#x25CF;
	</text>
	<text x="1.04e+03" y="339" text-anchor="middle">&#x25CF;
	</text>
	<text x="1.04e+03" y="339" text-anchor="middle">&#x25CF;
	</text>
	<text x="1.04e+03" y="349" text-anchor="middle">&#x25CF;
	</text>
	<text x="1.05e+03" y="320" text-anchor="middle">&#x25CF;
	</text>
	<text x="1.05e+03" y="302" text-anchor="middle">&#x25CF;
	</text>
	<text x="1.05e+03" y="339" text-anchor="middle">&#x25CF;
	</text>
	<text x="1.06e+03" y="339" text-anchor="middle">&#x25CF;
	</text>
	<text x="1.06e+03" y="302" text-anchor="middle">&#x25CF;
	</text>
	<text x="1.06e+03" y="302" text-anchor="middle">&#x25CF;
	</text>
	<text x="1.06e+03" y="339" text-anchor="middle">&#x25CF;
	</text>
	<text x="1.07e+03" y="349" text-anchor="middle">&#x25CF;
	</text>
	<text x="1.07e+03" y="349" text-anchor="middle">&#x25CF;
	</text>
	<text x="1.07e+03" y="349" text-anchor="middle">&#x25CF;
	</text>
	<text x="1.07e+03" y="330" text-anchor="middle">&#x25CF;
	</text>
	<text x="1.07e+03" y="339" text-anchor="middle">&#x25CF;
	</text>
	<text x="1.09e+03" y="339" text-anchor="middle">&#x25CF;
	</text>
	<text x="1.09e+03" y="339" text-anchor="middle">&#x25CF;
	</text>
	<text x="1.11e+03" y="349" text-anchor="middle">&#x25CF;
	</text>
	<text x="1.11e+03" y="339" text-anchor="middle">&#x25CF;
	</text>
	<text x="1.11e+03" y="330" text-anchor="middle">&#x25CF;
	</text>
	<text x="1.11e+03" y="320" text-anchor="middle">&#x25CF;
	</text>
	<text x="1.11e+03" y="320" text-anchor="middle">&#x25CF;
	</text>
	<text x="1.11e+03" y="320" text-anchor="middle">&#x25CF;
	</text>
	<text x="1.11e+03" y="330" text-anchor="middle">&#x25CF;
	</text>
	<text x="1.11e+03" y="349" text-anchor="middle">&#x25CF;
	</text>
	<text x="1.11e+03" y="349" text-anchor="middle">&#x25CF;
	</text>
	<text x="1.12e+03" y="349" text-anchor="middle">&#x25CF;
	</text>
	<text x="1.12e+03" y="349" text-anchor="middle">&#x25CF;
	</text>
	<text x="1.12e+03" y="320" text-anchor="middle">&#x25CF;
	</text>
	<text x="1.12e+03" y="302" text-anchor="middle">&#x25CF;
	</text>
	<text x="1.12e+03" y="283" text-anchor="middle">&#x25CF;
	</text>
	<text x="1.12e+03" y="283" text-anchor="middle">&#x25CF;
	</text>
	<text x="1.12e+03" y="302" text-anchor="middle">&#x25CF;
	</text>
	<text x="1.12e+03" y="311" text-anchor="middle">&#x25CF;
	</text>
	<text x="1.12e+03" y="320" text-anchor="middle">&#x25CF;
	</text>
	<text x="1.12e+03" y="311" text-anchor="middle">&#x25CF;
	</text>
	<text x="1.13e+03" y="302" text-anchor="middle">&#x25CF;
	</text>
	<text x="1.13e+03" y="292" text-anchor="middle">&#x25CF;
	</text>
	<text x="1.13e+03" y="311" text-anchor="middle">&#x25CF;
	</text>
	<text x="1.13e+03" y="330" text-anchor="middle">&#x25CF;
	</text>
	<text x="1.13e+03" y="339" text-anchor="middle">&#x25CF;
	</text>
	<text x="1.13e+03" y="339" text-anchor="middle">&#x25CF;
	</text>
	<text x="1.13e+03" y="320" text-anchor="middle">&#x25CF;
	</text>
	<text x="1.13e+03" y="339" text-anchor="middle">&#x25CF;
	</text>
	<text x="1.16e+03" y="349" text-anchor="middle">&#x25CF;
	</text>
	<text x="1.16e+03" y="349" text-anchor="middle">&#x25CF;
	</text>
	<text x="1.16e+03" y="339" text-anchor="middle">&#x25CF;
	</text>
	<text x="1.16e+03" y="320" text-anchor="middle">&#x25CF;
	</text>
	<text x="1.16e+03" y="302" text-anchor="middle">&#x25CF;
	</text>
	<text x="1.16e+03" y="283" text-anchor="middle">&#x25CF;
	</text>
	<text x="1.16e+03" y="292" text-anchor="middle">&#x25CF;
	</text>
	<text x="1.16e+03" y="292" text-anchor="middle">&#x25CF;
	</text>
	<text x="1.16e+03" y="311" text-anchor="middle">&#x25CF;
	</text>
	<text x="1.16e+03" y="330" text-anchor="middle">&#x25CF;
	</text>
	<text x="1.16e+03" y="339" text-anchor="middle">&#x25CF;
	</text>
	<text x="1.18e+03" y="349" text-anchor="middle">&#x25CF;
	</text>
	<text x="1.19e+03" y="349" text-anchor="middle">&#x25CF;
	</text>
	<text x="1.19e+03" y="349" text-anchor="middle">&#x25CF;
	</text>
	<text x="1.19e+03" y="349" text-anchor="middle">&#x25CF;
	</text>
	<text x="1.24e+03" y="349" text-anchor="middle">&#x25CF;
	</text>
	<text x="1.24e+03" y="349" text-anchor="middle">&#x25CF;
	</text>
	<text x="1.24e+03" y="349" text-anchor="middle">&#x25CF;
	</text>
	<text x="1.25e+03" y="311" text-anchor="middle">&#x25CF;
	</text>
	<text x="1.25e+03" y="292" text-anchor="middle">&#x25CF;
	</text>
	<text x="1.25e+03" y="283" text-anchor="middle">&#x25CF;
	</text>
	<text x="1.25e+03" y="302" text-anchor="middle">&#x25CF;
	</text>
	<text x="1.25e+03" y="339" text-anchor="middle">&#x25CF;
	</text>
	<text x="1.25e+03" y="349" text-anchor="middle">&#x25CF;
	</text>
	<text x="1.25e+03" y="339" text-anchor="middle">&#x25CF;
	</text>
	<text x="1.25e+03" y="320" text-anchor="middle">&#x25CF;
	</text>
	<text x="1.25e+03" y="339" text-anchor="middle">&#x25CF;
	</text>
	<text x="1.34e+03" y="349" text-anchor="middle">&#x25CF;
	</text>
	<text x="1.34e+03" y="349" text-anchor="middle">&#x25CF;
	</text>
	<text x="1.34e+03" y="349" text-anchor="middle">&#x25CF;
	</text>
	<text x="1.35e+03" y="339" text-anchor="middle">&#x25CF;
	</text>
	<text x="1.35e+03" y="339" text-anchor="middle">&#x25CF;
	</text>
	<text x="1.35e+03" y="349" text-anchor="middle">&#x25CF;
	</text>
	<text x="1.35e+03" y="349" text-anchor="middle">&#x25CF;
	</text>
	<text x="1.35e+03" y="339" text-anchor="middle">&#x25CF;
	</text>
	<text x="1.35e+03" y="349" text-anchor="middle">&#x25CF;
	</text>
	<text x="1.35e+03" y="349" text-anchor="middle">&#x25CF;
	</text>
	<text x="1.35e+03" y="349" text-anchor="middle">&#x25CF;
	</text>
	<text x="1.36e+03" y="339" text-anchor="middle">&#x25CF;
	</text>
	<text x="1.36e+03" y="330" text-anchor="middle">&#x25CF;
	</text>
	<text x="1.36e+03" y="349" text-anchor="middle">&#x25CF;
	</text>
	<text x="1.36e+03" y="349" text-anchor="middle">&#x25CF;
	</text>
	<text x="1.36e+03" y="349" text-anchor="middle">&#x25CF;
	</text>
	<text x="1.36e+03" y="349" text-anchor="middle">&#x25CF;
	</text>
	<text x="1.36e+03" y="339" text-anchor="middle">&#x25CF;
	</text>
	<text x="1.36e+03" y="349" text-anchor="middle">&#x25CF;
	</text>
	<text x="1.37e+03" y="349" text-anchor="middle">&#x25CF;
	</text>
	<text x="1.37e+03" y="320" text-anchor="middle">&#x25CF;
	</text>
	<text x="1.37e+03" y="311" text-anchor="middle">&#x25CF;
	</text>
	<text x="1.37e+03" y="320" text-anchor="middle">&#x25CF;
	</text>
	<text x="1.37e+03" y="320" text-anchor="middle">&#x25CF;
	</text>
	<text x="1.37e+03" y="311" text-anchor="middle">&#x25CF;
	</text>
	<text x="1.37e+03" y="311" text-anchor="middle">&#x25CF;
	</text>
	<text x="1.37e+03" y="311" text-anchor="middle">&#x25CF;
	</text>
	<text x="1.38e+03" y="311" text-anchor="middle">&#x25CF;
	</text>
	<text x="1.38e+03" y="339" text-anchor="middle">&#x25CF;
	</text>
	<text x="1.45e+03" y="349" text-anchor="middle">&#x25CF;
	</text>
	<text x="1.45e+03" y="349" text-anchor="middle">&#x25CF;
	</text>
	<text x="1.46e+03" y="339" text-anchor="middle">&#x25CF;
	</text>
	<text x="1.46e+03" y="320" text-anchor="middle">&#x25CF;
	</text>
	<text x="1.46e+03" y="330" text-anchor="middle">&#x25CF;
	</text>
	<text x="1.47e+03" y="349" text-anchor="middle">&#x25CF;
	</text>
	<text x="1.47e+03" y="349" text-anchor="middle">&#x25CF;
	</text>
	<text x="1.47e+03" y="349" text-anchor="middle">&#x25CF;
	</text>
	<text x="1.47e+03" y="349" text-anchor="middle">&#x25CF;
	</text>
	<text x="1.47e+03" y="349" text-anchor="middle">&#x25CF;
	</text>
	<text x="1.47e+03" y="339" text-anchor="middle">&#x25CF;
	</text>
	<text x="1.47e+03" y="320" text-anchor="middle">&#x25CF;
	</text>
	<text x="1.47e+03" y="330" text-anchor="middle">&#x25CF;
	</text>
	<text x="1.47e+03" y="330" text-anchor="middle">&#x25CF;
	</text>
	<text x="1.47e+03" y="330" text-anchor="middle">&#x25CF;
	</text>
	<text x="1.47e+03" y="339" text-anchor="middle">&#x25CF;
	</text>
	<text x="1.48e+03" y="339" text-anchor="middle">&#x25CF;
	</text>
	<text x="1.48e+03" y="349" text-anchor="middle">&#x25CF;
	</text>
	<text x="1.48e+03" y="349" text-anchor="middle">&#x25CF;
	</text>
	<text x="1.48e+03" y="349" text-anchor="middle">&#x25CF;
	</text>
	<text x="1.48e+03" y="349" text-anchor="middle">&#x25CF;
	</text>
	<text x="1.48e+03" y="330" text-anchor="middle">&#x25CF;
	</text>
	<text x="1.48e+03" y="339" text-anchor="middle">&#x25CF;
	</text>
	<text x="1.49e+03" y="349" text-anchor="middle">&#x25CF;
	</text>
	<text x="1.49e+03" y="349" text-anchor="middle">&#x25CF;
	</text>
	<text x="1.51e+03" y="349" text-anchor="middle">&#x25CF;
	</text>
	<text x="1.51e+03" y="349" text-anchor="middle">&#x25CF;
	</text>
	<text x="1.53e+03" y="349" text-anchor="middle">&#x25CF;
	</text>
	<text x="1.53e+03" y="320" text-anchor="middle">&#x25CF;
	</text>
	<text x="1.53e+03" y="330" text-anchor="middle">&#x25CF;
	</text>
	<text x="1.54e+03" y="292" text-anchor="middle">&#x25CF;
	</text>
	<text x="1.54e+03" y="273" text-anchor="middle">&#x25CF;
	</text>
	<text x="1.54e+03" y="339" text-anchor="middle">&#x25CF;
	</text>
	<text x="1.54e+03" y="349" text-anchor="middle">&#x25CF;
	</text>
	<text x="1.54e+03" y="349" text-anchor="middle">&#x25CF;
	</text>
	<text x="1.54e+03" y="188" text-anchor="middle">&#x25CF;
	</text>
	<text x="1.54e+03" y="188" text-anchor="middle">&#x25CF;
	</text>
	<text x="1.56e+03" y="349" text-anchor="middle">&#x25CF;
	</text>
	<text x="1.56e+03" y="311" text-anchor="middle">&#x25CF;
	</text>
	<text x="1.56e+03" y="302" text-anchor="middle">&#x25CF;
	</text>
	<text x="1.56e+03" y="339" text-anchor="middle">&#x25CF;
	</text>
</g>
</g>
	<g id="legendBackground" stroke="rgb(255,255,0)" fill="rgb(255,255,255)" stroke-width="1">
	<rect x="1.85e+03" y="39.5" width="120" height="32.7"/>
</g>
	<g id="legendPoints">
	<g stroke="rgb(255,0,0)" fill="rgb(255,255,255)">
	<text x="1.86e+03" y="60.8" text-anchor="middle">&#x25CF;
	</text>
</g>
</g>
	<g id="legendLines">
	<g stroke="rgb(255,0,0)" stroke-width="2">
	<line x1="1.87e+03" y1="58.7" x2="1.88e+03" y2="58.7"/>
</g>
</g>
	<g id="legendText">
	<text x="1.89e+03" y="58.7" font-size="10" font-family="Lucida Sans Unicode" font-weight="normal" textLength="72">rain (mm/hr)
	</text>
</g>
	<g id="title">
	<text x="1e+03" y="27" text-anchor="middle" font-size="18" font-family="Lucida Sans Unicode" font-weight="normal">Rainfall at Long: 2:45:16.2W, Lat:54:17:47.1N
	</text>
</g>
	<g id="plotXValues">
</g>
	<g id="plotYValues">
</g>
</svg>
