<?xml version="1.0" encoding="UTF-8" standalone="no"?>
<svg width="500" height ="350" version="1.1"
xmlns:svg ="http://www.w3.org/2000/svg"
xmlns:rdf="http://www.w3.org/1999/02/22-rdf-syntax-ns#"
xmlns:cc="http://web.resource.org/cc/"
xmlns:dc="http://purl.org/dc/elements/1.1/"
xmlns ="http://www.w3.org/2000/svg"
>
<!-- SVG plot written using Boost.Plot program (Creator Jacob Voytko) --> 
<!-- Use, modification and distribution of Boost.Plot subject to the --> 
<!-- Boost Software License, Version 1.0.--> 
<!-- (See accompanying file LICENSE_1_0.txt --> 
<!-- or copy at http://www.boost.org/LICENSE_1_0.txt) --> 

<!-- File demo_boxplot.svg --> 
<clipPath id="plot_window"><rect x="64.8" y="52" width="423" height="232"/></clipPath>
<g id="imageBackground" stroke="rgb(0,0,139)" fill="rgb(240,255,255)" stroke-width="2"><rect x="0" y="0" width="500" height="350"/></g>
<g id="plotBackground" stroke="rgb(255,255,0)" fill="rgb(255,255,255)" stroke-width="1"><rect x="69.8" y="57" width="418" height="227"/></g>
<g id="X-axis" stroke="rgb(0,0,0)" stroke-width="1"><line x1="69.8" y1="284" x2="488" y2="284"/></g>
<g id="Y-axis" stroke="rgb(0,0,0)" stroke-width="1"><line x1="69.8" y1="284" x2="69.8" y2="57"/></g>
<g id="xMajorTicks" stroke="rgb(0,0,0)" stroke-width="1"><path d="M174,284 L174,289 M279,284 L279,289 M383,284 L383,289 " fill="none"/></g>
<g id="yMajorTicks" stroke="rgb(0,0,0)" stroke-width="2"><path d="M64.8,284 L69.8,284 M64.8,238 L69.8,238 M64.8,193 L69.8,193 M64.8,148 L69.8,148 M64.8,102 L69.8,102 M64.8,57 L69.8,57 M64.8,284 L69.8,284 " fill="none"/></g>
<g id="yMinorTicks" stroke="rgb(0,0,0)" stroke-width="1"><path d="M59.8,275 L69.8,275 M59.8,265 L69.8,265 M59.8,256 L69.8,256 M59.8,247 L69.8,247 M59.8,229 L69.8,229 M59.8,220 L69.8,220 M59.8,211 L69.8,211 M59.8,202 L69.8,202 M59.8,184 L69.8,184 M59.8,175 L69.8,175 M59.8,166 L69.8,166 M59.8,157 L69.8,157 M59.8,139 L69.8,139 M59.8,130 L69.8,130 M59.8,120 L69.8,120 M59.8,111 L69.8,111 M59.8,93.3 L69.8,93.3 M59.8,84.2 L69.8,84.2 M59.8,75.1 L69.8,75.1 M59.8,66.1 L69.8,66.1 M59.8,284 L69.8,284 " fill="none"/></g>
<g id="YGrid" stroke="rgb(200,220,255)" stroke-width="1"></g>
<g id="yMinorGrid" stroke="rgb(200,220,255)" stroke-width="0.5"></g>
<g id="valueLabels" fill="rgb(0,0,0)">
<text x="174" y="308" text-anchor="middle" font-size="14" font-family="Lucida Sans Unicode">test</text>
<text x="279" y="308" text-anchor="middle" font-size="14" font-family="Lucida Sans Unicode">[50 / x]</text>
<text x="383" y="308" text-anchor="middle" font-size="14" font-family="Lucida Sans Unicode">[40+25*sin(x*50)]</text>
<text x="58.8" y="286" text-anchor="end" font-size="12" font-family="Lucida Sans Unicode">0</text>
<text x="58.8" y="241" text-anchor="end" font-size="12" font-family="Lucida Sans Unicode">20</text>
<text x="58.8" y="195" text-anchor="end" font-size="12" font-family="Lucida Sans Unicode">40</text>
<text x="58.8" y="150" text-anchor="end" font-size="12" font-family="Lucida Sans Unicode">60</text>
<text x="58.8" y="105" text-anchor="end" font-size="12" font-family="Lucida Sans Unicode">80</text>
<text x="58.8" y="59.4" text-anchor="end" font-size="12" font-family="Lucida Sans Unicode">100</text>
<text x="58.8" y="286" text-anchor="end" font-size="12" font-family="Lucida Sans Unicode">0</text></g>
<g id="yLabel" fill="rgb(0,0,0)">
<text x="30.2" y="170" text-anchor="middle" transform = "rotate(-90 30.2 170 )" font-size="14" font-family="Lucida Sans Unicode">Population Size</text></g>
<g id="xLabel" fill="rgb(0,0,0)">
<text x="279" y="327" text-anchor="middle" font-size="14" font-family="Lucida Sans Unicode">Functions</text></g>
<g id="boxAxis" stroke="rgb(0,0,0)"><g clip-path="url(#plot_window)" stroke="rgb(0,0,0)" stroke-width="1"><line x1="174" y1="272" x2="174" y2="196"/></g>
<g clip-path="url(#plot_window)" stroke="rgb(0,0,0)" stroke-width="1"><line x1="279" y1="272" x2="279" y2="196"/></g>
<g clip-path="url(#plot_window)" stroke="rgb(0,0,0)" stroke-width="1"><line x1="383" y1="250" x2="383" y2="136"/></g>
</g>
<g id="Median" stroke="rgb(255,0,0)" stroke-width="2"><g clip-path="url(#plot_window)" stroke="rgb(0,128,0)" fill="rgb(255,192,203)" stroke-width="1"><rect x="169" y="239" width="10" height="29.6"/></g>
<g clip-path="url(#plot_window)" stroke="rgb(0,0,255)" stroke-width="1"><line x1="170" y1="261" x2="179" y2="261"/></g>
<g clip-path="url(#plot_window)" stroke="rgb(0,128,0)" fill="rgb(240,255,255)" stroke-width="1"><rect x="264" y="239" width="30" height="29.6"/></g>
<g clip-path="url(#plot_window)" stroke="rgb(0,0,255)" stroke-width="1"><line x1="264" y1="261" x2="293" y2="261"/></g>
<g clip-path="url(#plot_window)" stroke="rgb(0,128,0)" fill="rgb(240,255,255)" stroke-width="1"><rect x="368" y="154" width="30" height="79.2"/></g>
<g clip-path="url(#plot_window)" stroke="rgb(0,0,255)" stroke-width="1"><line x1="369" y1="195" x2="398" y2="195"/></g>
</g>
<g id="whisker" stroke="rgb(0,0,0)"><g clip-path="url(#plot_window)"><g stroke="rgb(255,0,255)" fill="rgb(0,0,0)" stroke-width="1"><line x1="172" y1="272" x2="177" y2="272"/></g>
<g stroke="rgb(0,255,255)" fill="rgb(0,0,0)" stroke-width="1"><line x1="172" y1="196" x2="177" y2="196"/></g>
</g>
<g clip-path="url(#plot_window)"><g stroke="rgb(255,0,255)" fill="rgb(0,0,0)" stroke-width="1"><line x1="264" y1="272" x2="294" y2="272"/></g>
<g stroke="rgb(0,255,255)" fill="rgb(0,0,0)" stroke-width="1"><line x1="264" y1="196" x2="294" y2="196"/></g>
</g>
<g clip-path="url(#plot_window)"><g stroke="rgb(255,0,255)" fill="rgb(0,0,0)" stroke-width="1"><line x1="368" y1="250" x2="398" y2="250"/></g>
<g stroke="rgb(0,255,255)" fill="rgb(0,0,0)" stroke-width="1"><line x1="368" y1="136" x2="398" y2="136"/></g>
</g>
</g>
<g id="mild_outliers" stroke="rgb(255,192,203)" fill="rgb(0,0,0)"><g clip-path="url(#plot_window)" stroke="rgb(165,42,42)">
<text x="174" y="159" text-anchor="middle" font-size="5" font-family="Lucida Sans Unicode">&#x25CB;</text>
<text x="174" y="172" text-anchor="middle" font-size="5" font-family="Lucida Sans Unicode">&#x25CB;</text>
<text x="174" y="182" text-anchor="middle" font-size="5" font-family="Lucida Sans Unicode">&#x25CB;</text>
<text x="174" y="191" text-anchor="middle" font-size="5" font-family="Lucida Sans Unicode">&#x25CB;</text></g>
<g clip-path="url(#plot_window)" stroke="rgb(165,42,42)">
<text x="279" y="159" text-anchor="middle" font-size="5" font-family="Lucida Sans Unicode">&#x25CB;</text>
<text x="279" y="172" text-anchor="middle" font-size="5" font-family="Lucida Sans Unicode">&#x25CB;</text>
<text x="279" y="182" text-anchor="middle" font-size="5" font-family="Lucida Sans Unicode">&#x25CB;</text>
<text x="279" y="191" text-anchor="middle" font-size="5" font-family="Lucida Sans Unicode">&#x25CB;</text></g>
</g>
<g id="extreme_outliers" stroke="rgb(128,0,128)" fill="rgb(255,255,255)"><g clip-path="url(#plot_window)" stroke="rgb(255,0,0)">
<text x="174" y="58.5" text-anchor="middle" font-size="5" font-family="Lucida Sans Unicode">&#x25BD;</text>
<text x="174" y="96.3" text-anchor="middle" font-size="5" font-family="Lucida Sans Unicode">&#x25BD;</text>
<text x="174" y="123" text-anchor="middle" font-size="5" font-family="Lucida Sans Unicode">&#x25BD;</text>
<text x="174" y="143" text-anchor="middle" font-size="5" font-family="Lucida Sans Unicode">&#x25BD;</text></g>
<g clip-path="url(#plot_window)" stroke="rgb(255,0,0)">
<text x="279" y="58.5" text-anchor="middle" font-size="5" font-family="Lucida Sans Unicode">&#x25BD;</text>
<text x="279" y="96.3" text-anchor="middle" font-size="5" font-family="Lucida Sans Unicode">&#x25BD;</text>
<text x="279" y="123" text-anchor="middle" font-size="5" font-family="Lucida Sans Unicode">&#x25BD;</text>
<text x="279" y="143" text-anchor="middle" font-size="5" font-family="Lucida Sans Unicode">&#x25BD;</text></g>
</g>
<g id="title" fill="rgb(0,0,0)">
<text x="250" y="36" text-anchor="middle" font-size="18" font-family="Lucida Sans Unicode">Boxplots of 1/x and sin(x) Functions</text></g>
</svg>
