<?xml version="1.0" encoding="UTF-8" standalone="no"?>
<svg width="700" height ="500" version="1.1"
xmlns:svg ="http://www.w3.org/2000/svg"
xmlns:rdf="http://www.w3.org/1999/02/22-rdf-syntax-ns#"
xmlns:cc="http://web.resource.org/cc/"
xmlns:dc="http://purl.org/dc/elements/1.1/"
xmlns ="http://www.w3.org/2000/svg"
>
<!-- SVG plot written using Boost.Plot program (Creator Jacob Voytko) --> 
<!-- Use, modification and distribution of Boost.Plot subject to the --> 
<!-- Boost Software License, Version 1.0.--> 
<!-- (See accompanying file LICENSE_1_0.txt --> 
<!-- or copy at http://www.boost.org/LICENSE_1_0.txt) --> 

<clipPath id="plot_window">	<rect x="90.5" y="44" width="457" height="422"/>
</clipPath>
	<g id="imageBackground" stroke="rgb(255,255,0)" fill="rgb(248,248,255)" stroke-width="2">
	<rect x="0" y="0" width="700" height="500"/>
</g>
	<g id="plotBackground" stroke="rgb(0,128,0)" fill="rgb(255,255,255)" stroke-width="1">
	<rect x="89.5" y="43" width="459" height="424"/>
</g>
	<g id="yMinorGrid" stroke="rgb(240,240,255)" stroke-width="1">
	<path d="M90.5,241 L547,241 
M90.5,227 L547,227 
M90.5,198 L547,198 
M90.5,184 L547,184 
M90.5,156 L547,156 
M90.5,142 L547,142 
M90.5,114 L547,114 
M90.5,99.5 L547,99.5 
M90.5,71.3 L547,71.3 
M90.5,57.1 L547,57.1 
M90.5,255 L547,255 
M90.5,269 L547,269 
M90.5,283 L547,283 
M90.5,297 L547,297 
M90.5,312 L547,312 
M90.5,326 L547,326 
M90.5,340 L547,340 
M90.5,340 L547,340 
M90.5,354 L547,354 
M90.5,368 L547,368 
M90.5,382 L547,382 
M90.5,396 L547,396 
M90.5,410 L547,410 
M90.5,425 L547,425 
M90.5,439 L547,439 
M90.5,453 L547,453 
M90.5,467 L547,467 
M90.5,467 L547,467 
" fill="none"/>
</g>
	<g id="yMajorGrid" stroke="rgb(200,220,255)" stroke-width="2">
	<path d="M90.5,255 L547,255 
M90.5,213 L547,213 
M90.5,170 L547,170 
M90.5,128 L547,128 
M90.5,85.4 L547,85.4 
M90.5,43 L547,43 
M90.5,255 L547,255 
M90.5,297 L547,297 
M90.5,340 L547,340 
M90.5,382 L547,382 
M90.5,425 L547,425 
M90.5,467 L547,467 
" fill="none"/>
</g>
	<g id="xMinorGrid" stroke="rgb(240,240,255)" stroke-width="0.5">
	<path d="M106,44 L106,466 
M174,44 L174,466 
M208,44 L208,466 
M276,44 L276,466 
M310,44 L310,466 
M378,44 L378,466 
M412,44 L412,466 
M480,44 L480,466 
M514,44 L514,466 
" fill="none"/>
</g>
	<g id="xMajorGrid" stroke="rgb(200,220,255)" stroke-width="1">
	<path d="M140,43 L140,467 
M242,43 L242,467 
M344,43 L344,467 
M446,43 L446,467 
M548,43 L548,467 
" fill="none"/>
</g>
	<g id="yAxis" stroke="rgb(0,0,0)" stroke-width="1">
	<line x1="89.5" y1="43" x2="89.5" y2="467"/>
</g>
	<g id="xAxis" stroke="rgb(0,0,0)" stroke-width="1">
	<line x1="79.5" y1="255" x2="548" y2="255"/>
</g>
	<g id="yMinorTicks" stroke="rgb(0,0,0)" stroke-width="1">
	<path d="M84.5,241 L89.5,241 
M84.5,227 L89.5,227 
M84.5,198 L89.5,198 
M84.5,184 L89.5,184 
M84.5,156 L89.5,156 
M84.5,142 L89.5,142 
M84.5,114 L89.5,114 
M84.5,99.5 L89.5,99.5 
M84.5,71.3 L89.5,71.3 
M84.5,57.1 L89.5,57.1 
M84.5,255 L89.5,255 
M84.5,269 L89.5,269 
M84.5,283 L89.5,283 
M84.5,297 L89.5,297 
M84.5,312 L89.5,312 
M84.5,326 L89.5,326 
M84.5,340 L89.5,340 
M84.5,340 L89.5,340 
M84.5,354 L89.5,354 
M84.5,368 L89.5,368 
M84.5,382 L89.5,382 
M84.5,396 L89.5,396 
M84.5,410 L89.5,410 
M84.5,425 L89.5,425 
M84.5,439 L89.5,439 
M84.5,453 L89.5,453 
M84.5,467 L89.5,467 
M84.5,467 L89.5,467 
" fill="none"/>
</g>
	<g id="xMinorTicks" stroke="rgb(0,0,0)" stroke-width="1">
	<path d="M106,255 L106,260 
M174,255 L174,260 
M208,255 L208,260 
M276,255 L276,260 
M310,255 L310,260 
M378,255 L378,260 
M412,255 L412,260 
M480,255 L480,260 
M514,255 L514,260 
" fill="none"/>
</g>
	<g id="yMajorTicks" stroke="rgb(0,0,0)" stroke-width="2">
	<path d="M79.5,255 L89.5,255 
M79.5,213 L89.5,213 
M79.5,170 L89.5,170 
M79.5,128 L89.5,128 
M79.5,85.4 L89.5,85.4 
M79.5,43 L89.5,43 
M79.5,255 L89.5,255 
M79.5,297 L89.5,297 
M79.5,340 L89.5,340 
M79.5,382 L89.5,382 
M79.5,425 L89.5,425 
M79.5,467 L89.5,467 
" fill="none"/>
</g>
	<g id="xMajorTicks" stroke="rgb(0,0,0)" stroke-width="2">
	<path d="M140,255 L140,265 
M242,255 L242,265 
M344,255 L344,265 
M446,255 L446,265 
M548,255 L548,265 
" fill="none"/>
</g>
	<g id="xTicksValues" font-size="12" font-family="Lucida Sans Unicode" text-anchor="middle">
	<text x="140" y="281">2.00
	</text>
	<text x="242" y="281">4.00
	</text>
	<text x="344" y="281">6.00
	</text>
	<text x="446" y="281">8.00
	</text>
	<text x="548" y="281">1.00e1
	</text>
</g>
	<g id="yTicksValues" font-size="12" font-family="Lucida Sans Unicode" text-anchor="end">
	<text x="73.5" y="257">0.0
	</text>
	<text x="73.5" y="215">2.0
	</text>
	<text x="73.5" y="173">4.0
	</text>
	<text x="73.5" y="130">6.0
	</text>
	<text x="73.5" y="87.8">8.0
	</text>
	<text x="73.5" y="45.4">10.0
	</text>
	<text x="73.5" y="257">0.0
	</text>
	<text x="73.5" y="300">-2.0
	</text>
	<text x="73.5" y="342">-4.0
	</text>
	<text x="73.5" y="385">-6.0
	</text>
	<text x="73.5" y="427">-8.0
	</text>
	<text x="73.5" y="469">-10.0
	</text>
</g>
	<g id="yLabel">
	<text x="36.9" y="255" text-anchor="middle" transform="rotate(-90 36.9 255)" font-size="14" font-family="Lucida Sans Unicode">Y-axis
	</text>
</g>
	<g id="xLabel">
	<text x="319" y="487" text-anchor="middle" font-size="12" font-family="Lucida Sans Unicode">X-axis
	</text>
</g>
	<g id="plotLines" stroke-width="2">
	<g clip-path="url(#plot_window)" stroke="rgb(0,0,0)" stroke-width="2">
	<path d="M-471,-1.82e+03 S-430,-1.5e+03 -420,-1.42e+03 S-380,-1.13e+03 -369,-1.06e+03 S-329,-801 -318,-741 S-278,-517 -267,-466 S-227,-275 -216,-233 S-176,-75.7 -165,-41.8 S-125,81.2 -114,107 S-73.6,196 -63.4,213 S-22.7,268 -12.5,276 S28.3,297 38.5,297 S79.3,285 89.5,276 S130,230 140,213 S181,132 191,107 S232,-7.88 242,-41.8 S283,-190 293,-233 S334,-415 344,-466 S385,-682 395,-741 S436,-992 446,-1.06e+03 S487,-1.34e+03 497,-1.42e+03 S548,-1.86e+03 548,-1.82e+03 " fill="none"/>
</g>
</g>
	<g id="plotPoints" clip-path="url(#plot_window)">
	<g stroke="rgb(0,0,0)" fill="rgb(255,0,0)" font-size="14" font-family="Lucida Sans Unicode" text-anchor="middle">
	<text x="140" y="229">&#x25CF;
	</text>
	<text x="191" y="222">&#x25CF;
	</text>
	<text x="242" y="217">&#x25CF;
	</text>
	<text x="293" y="212">&#x25CF;
	</text>
	<text x="344" y="207">&#x25CF;
	</text>
	<text x="395" y="203">&#x25CF;
	</text>
	<text x="446" y="199">&#x25CF;
	</text>
	<text x="497" y="196">&#x25CF;
	</text>
</g>
	<g stroke="rgb(0,0,0)" fill="rgb(255,165,0)" font-size="5" font-family="Lucida Sans Unicode" text-anchor="middle">
	<text x="140" y="214">&#x25CF;
	</text>
	<text x="191" y="108">&#x25CF;
	</text>
</g>
	<g stroke="rgb(0,0,0)" fill="rgb(255,255,0)" font-size="14" font-family="Lucida Sans Unicode" text-anchor="middle">
	<text x="140" y="196" text-anchor="middle" font-size="14" font-family="Lucida Sans Unicode">&#x25A0;
	</text>
	<text x="191" y="153" text-anchor="middle" font-size="14" font-family="Lucida Sans Unicode">&#x25A0;
	</text>
	<text x="242" y="111" text-anchor="middle" font-size="14" font-family="Lucida Sans Unicode">&#x25A0;
	</text>
	<text x="293" y="68.3" text-anchor="middle" font-size="14" font-family="Lucida Sans Unicode">&#x25A0;
	</text>
</g>
</g>
	<g id="limitPoints" stroke="rgb(119,136,153)" fill="rgb(250,235,215)">
	<polygon points=" 84.5,245 94.5,245 89.5,255"/>
	<polygon points=" 84.5,245 94.5,245 89.5,255"/>
	<polygon points=" 84.5,245 94.5,245 89.5,255"/>
	<polygon points=" 84.5,245 94.5,245 89.5,255"/>
	<polygon points=" 84.5,245 94.5,245 89.5,255"/>
	<polygon points=" 84.5,245 94.5,245 89.5,255"/>
	<polygon points=" 84.5,245 94.5,245 89.5,255"/>
	<polygon points=" 84.5,245 94.5,245 89.5,255"/>
	<polygon points=" 84.5,245 94.5,245 89.5,255"/>
	<polygon points=" 84.5,245 94.5,245 89.5,255"/>
</g>
	<g id="legendBackground" stroke="rgb(255,255,0)" fill="rgb(255,255,224)" stroke-width="1">
	<rect x="554" y="43" width="132" height="90.7"/>
</g>
	<g id="legendPoints">
	<g stroke="rgb(0,0,0)" fill="rgb(255,0,0)">
	<text x="572" y="93.5">&#x25CF;
	</text>
</g>
	<g stroke="rgb(0,0,0)" fill="rgb(255,165,0)">
	<text x="572" y="106">&#x25CF;
	</text>
</g>
	<g stroke="rgb(0,0,0)" fill="rgb(255,255,0)">
	<text x="572" y="121" text-anchor="middle" font-size="14" font-family="Lucida Sans Unicode">&#x25A0;
	</text>
</g>
</g>
	<g id="legendLines">
	<g stroke="rgb(0,0,0)" stroke-width="2">
	<line x1="581" y1="105" x2="587" y2="105"/>
</g>
</g>
	<g id="legendText">
	<text x="620" y="70.7" text-anchor="middle" font-size="16" font-family="Lucida Sans Unicode" font-weight="normal" textLength="104">Unicode &#x3A9;&#x3A6;
	</text>
	<text x="581" y="91.3" font-size="10" font-family="Lucida Sans Unicode" font-weight="normal" textLength="43.2">Sqrt(x)
	</text>
	<text x="597" y="105" font-size="10" font-family="Lucida Sans Unicode" font-weight="normal" textLength="48">-2 + x^2
	</text>
	<text x="581" y="119" font-size="10" font-family="Lucida Sans Unicode" font-weight="normal" textLength="42">-1 + 2x
	</text>
</g>
	<g id="title" fill="rgb(255,0,0)">
	<text x="350" y="30" text-anchor="middle" font-size="20" font-family="Lucida Sans Unicode" font-weight="normal">Plot of Mathematical Functions XP
	</text>
</g>
	<g id="plotXValues">
</g>
	<g id="plotYValues">
</g>
</svg>
