<?xml version="1.0" encoding="UTF-8" standalone="no"?>
<svg width="700" height ="500" version="1.1"
xmlns:svg ="http://www.w3.org/2000/svg"
xmlns:rdf="http://www.w3.org/1999/02/22-rdf-syntax-ns#"
xmlns:cc="http://web.resource.org/cc/"
xmlns:dc="http://purl.org/dc/elements/1.1/"
xmlns ="http://www.w3.org/2000/svg"
>
<!-- SVG plot written using Boost.Plot program (Creator Jacob Voytko) --> 
<!-- Use, modification and distribution of Boost.Plot subject to the --> 
<!-- Boost Software License, Version 1.0.--> 
<!-- (See accompanying file LICENSE_1_0.txt --> 
<!-- or copy at http://www.boost.org/LICENSE_1_0.txt) --> 

<clipPath id="plot_window"><rect x="41.5" y="53.5" width="511" height="405"/></clipPath>
<g id="imageBackground" stroke="rgb(255,255,0)" fill="rgb(248,248,255)" stroke-width="2"><rect x="0" y="0" width="700" height="500"/></g>
<g id="plotBackground" stroke="rgb(0,128,0)" fill="rgb(255,255,255)" stroke-width="1"><rect x="40.5" y="52.5" width="513" height="407"/></g>
<g id="yMinorGrid" stroke="rgb(240,240,255)" stroke-width="1"><path d="M41.5,242 L553,242 M41.5,229 L553,229 M41.5,202 L553,202 M41.5,188 L553,188 M41.5,161 L553,161 M41.5,147 L553,147 M41.5,120 L553,120 M41.5,107 L553,107 M41.5,79.6 L553,79.6 M41.5,66.1 L553,66.1 M41.5,256 L553,256 M41.5,270 L553,270 M41.5,283 L553,283 M41.5,297 L553,297 M41.5,310 L553,310 M41.5,324 L553,324 M41.5,337 L553,337 M41.5,337 L553,337 M41.5,351 L553,351 M41.5,365 L553,365 M41.5,378 L553,378 M41.5,392 L553,392 M41.5,405 L553,405 M41.5,419 L553,419 M41.5,432 L553,432 M41.5,446 L553,446 M41.5,460 L553,460 M41.5,460 L553,460 " fill="none"/></g>
<g id="yMajorGrid" stroke="rgb(200,220,255)" stroke-width="2"><path d="M41.5,256 L553,256 M41.5,215 L553,215 M41.5,175 L553,175 M41.5,134 L553,134 M41.5,93.2 L553,93.2 M41.5,52.5 L553,52.5 M41.5,256 L553,256 M41.5,297 L553,297 M41.5,337 L553,337 M41.5,378 L553,378 M41.5,419 L553,419 M41.5,460 L553,460 " fill="none"/></g>
<g id="xMinorGrid" stroke="rgb(240,240,255)" stroke-width="0.5"><path d="M535,53.5 L535,459 M459,53.5 L459,459 M421,53.5 L421,459 M345,53.5 L345,459 M307,53.5 L307,459 M231,53.5 L231,459 M193,53.5 L193,459 M117,53.5 L117,459 M78.5,53.5 L78.5,459 " fill="none"/></g>
<g id="xMajorGrid" stroke="rgb(200,220,255)" stroke-width="1"><path d="M497,52.5 L497,460 M383,52.5 L383,460 M269,52.5 L269,460 M155,52.5 L155,460 M40.5,52.5 L40.5,460 " fill="none"/></g>
<g id="yAxis" stroke="rgb(0,0,0)" stroke-width="1"><line x1="40.5" y1="52.5" x2="554" y2="460"/></g>
<g id="xAxis" stroke="rgb(0,0,0)" stroke-width="1"><line x1="40.5" y1="256" x2="554" y2="256"/></g>
<g id="yMinorTicks" stroke="rgb(0,0,0)" stroke-width="1"><path d="M549,242 L554,242 M549,229 L554,229 M549,202 L554,202 M549,188 L554,188 M549,161 L554,161 M549,147 L554,147 M549,120 L554,120 M549,107 L554,107 M549,79.6 L554,79.6 M549,66.1 L554,66.1 M549,256 L554,256 M549,270 L554,270 M549,283 L554,283 M549,297 L554,297 M549,310 L554,310 M549,324 L554,324 M549,337 L554,337 M549,337 L554,337 M549,351 L554,351 M549,365 L554,365 M549,378 L554,378 M549,392 L554,392 M549,405 L554,405 M549,419 L554,419 M549,432 L554,432 M549,446 L554,446 M549,460 L554,460 M549,460 L554,460 " fill="none"/></g>
<g id="xMinorTicks" stroke="rgb(0,0,0)" stroke-width="1"><path d="M535,256 L535,261 M459,256 L459,261 M421,256 L421,261 M345,256 L345,261 M307,256 L307,261 M231,256 L231,261 M193,256 L193,261 M117,256 L117,261 M78.5,256 L78.5,261 " fill="none"/></g>
<g id="yMajorTicks" stroke="rgb(0,0,0)" stroke-width="2"><path d="M544,256 L554,256 M544,215 L554,215 M544,175 L554,175 M544,134 L554,134 M544,93.2 L554,93.2 M544,52.5 L554,52.5 M544,256 L554,256 M544,297 L554,297 M544,337 L554,337 M544,378 L554,378 M544,419 L554,419 M544,460 L554,460 " fill="none"/></g>
<g id="xMajorTicks" stroke="rgb(0,0,0)" stroke-width="2"><path d="M497,256 L497,266 M383,256 L383,266 M269,256 L269,266 M155,256 L155,266 M40.5,256 L40.5,266 " fill="none"/></g>
<g id="xTicksValues">
<text x="497" y="282" text-anchor="middle" font-size="12" font-family="Lucida Sans Unicode">-2.00</text>
<text x="383" y="282" text-anchor="middle" font-size="12" font-family="Lucida Sans Unicode">-4.00</text>
<text x="269" y="282" text-anchor="middle" font-size="12" font-family="Lucida Sans Unicode">-6.00</text>
<text x="155" y="282" text-anchor="middle" font-size="12" font-family="Lucida Sans Unicode">-8.00</text>
<text x="40.5" y="282" text-anchor="middle" font-size="12" font-family="Lucida Sans Unicode">-1.00e1</text></g>
<g id="yTicksValues">
<text x="538" y="258" text-anchor="end" font-size="12" font-family="Lucida Sans Unicode">0.0</text>
<text x="538" y="218" text-anchor="end" font-size="12" font-family="Lucida Sans Unicode">2.0</text>
<text x="538" y="177" text-anchor="end" font-size="12" font-family="Lucida Sans Unicode">4.0</text>
<text x="538" y="136" text-anchor="end" font-size="12" font-family="Lucida Sans Unicode">6.0</text>
<text x="538" y="95.6" text-anchor="end" font-size="12" font-family="Lucida Sans Unicode">8.0</text>
<text x="538" y="54.9" text-anchor="end" font-size="12" font-family="Lucida Sans Unicode">10.0</text>
<text x="538" y="258" text-anchor="end" font-size="12" font-family="Lucida Sans Unicode">0.0</text>
<text x="538" y="299" text-anchor="end" font-size="12" font-family="Lucida Sans Unicode">-2.0</text>
<text x="538" y="340" text-anchor="end" font-size="12" font-family="Lucida Sans Unicode">-4.0</text>
<text x="538" y="381" text-anchor="end" font-size="12" font-family="Lucida Sans Unicode">-6.0</text>
<text x="538" y="421" text-anchor="end" font-size="12" font-family="Lucida Sans Unicode">-8.0</text>
<text x="538" y="462" text-anchor="end" font-size="12" font-family="Lucida Sans Unicode">-10.0</text></g>
<g id="yLabel">
<text x="19" y="256" text-anchor="middle" transform = "rotate(-90 19 256 )" font-size="14" font-family="Lucida Sans Unicode">Y-axis</text></g>
<g id="xLabel">
<text x="297" y="483" text-anchor="middle" font-size="14" font-family="Lucida Sans Unicode">X-axis</text></g>
<g id="plotLines" stroke-width="2"><g clip-path="url(#plot_window)" stroke="rgb(0,0,0)"><path d="M40.5,-1.74e+03 S86.1,-1.42e+03 97.5,-1.35e+03 S143,-1.07e+03 155,-1.01e+03 S200,-757 212,-700 S257,-485 269,-436 S314,-253 326,-212 S371,-61.5 383,-28.9 S428,89.1 440,114 S485,199 497,215 S542,268 554,276 S599,297 611,297 S656,284 668,276 S713,232 725,215 S770,138 782,114 S827,3.66 839,-28.9 S884,-171 896,-212 S941,-387 953,-436 S998,-643 1.01e+03,-700 S1.06e+03,-941 1.07e+03,-1.01e+03 S1.11e+03,-1.28e+03 1.12e+03,-1.35e+03 S1.18e+03,-1.78e+03 1.18e+03,-1.74e+03 " fill="none"/></g>
</g>
<g id="plotPoints" clip-path="url(#plot_window)"><g stroke="rgb(0,0,0)" fill="rgb(255,165,0)"><circle cx="440" cy="114" r="2"/><circle cx="497" cy="215" r="2"/></g>
<g stroke="rgb(0,0,0)" fill="rgb(255,255,0)"><rect x="380" y="437" width="5" height="5"/><rect x="437" y="396" width="5" height="5"/><rect x="494" y="355" width="5" height="5"/></g>
</g>
<g id="limitPoints" stroke="rgb(119,136,153)" fill="rgb(250,235,215)"><polygon points=" 35.5,246 45.5,246 40.5,256"/><polygon points=" 92.5,246 103,246 97.5,256"/><polygon points=" 150,246 160,246 155,256"/><polygon points=" 207,246 217,246 212,256"/><polygon points=" 264,246 274,246 269,256"/><polygon points=" 321,246 331,246 326,256"/><polygon points=" 378,246 388,246 383,256"/><polygon points=" 435,246 445,246 440,256"/><polygon points=" 492,246 502,246 497,256"/><polygon points=" 549,246 559,246 554,256"/></g>
<g id="legendBackground" stroke="rgb(255,255,0)" fill="rgb(255,255,224)" stroke-width="1"><rect x="568" y="52.5" width="130" height="144"/><rect x="568" y="52.5" width="130" height="144"/></g>
<g id="legendPoints"><g stroke="rgb(0,0,0)" fill="rgb(255,0,0)" stroke-width="2"><circle cx="584" cy="117" r="2"/></g>
<g stroke="rgb(0,0,0)" fill="rgb(255,165,0)" stroke-width="2"><circle cx="584" cy="149" r="2"/></g>
<g stroke="rgb(0,0,0)" fill="rgb(255,255,0)" stroke-width="3"><rect x="581" y="178" width="5" height="5"/></g>
</g>
<g id="legendText">
<text x="633" y="84.5" text-anchor="middle" font-size="16" font-family="Lucida Sans Unicode">Unicode &#x3A9;&#x3A6;</text>
<text x="608" y="117" font-size="16" font-family="Lucida Sans Unicode">Sqrt(x)</text>
<text x="608" y="149" font-size="16" font-family="Lucida Sans Unicode">-2 + x^2</text>
<text x="608" y="181" font-size="16" font-family="Lucida Sans Unicode">-1 + 2x</text></g>
<g id="title" fill="rgb(255,0,0)">
<text x="350" y="40" text-anchor="middle" font-size="20" font-family="Lucida Sans Unicode">Plot of Mathematical Functions XN</text></g>
<g id="plotXValues"></g>
<g id="plotYValues"></g>
</svg>
