<?xml version="1.0" encoding="UTF-8" standalone="no"?>
<svg width="700" height ="500" version="1.1"
xmlns:svg ="http://www.w3.org/2000/svg"
xmlns:rdf="http://www.w3.org/1999/02/22-rdf-syntax-ns#"
xmlns:cc="http://web.resource.org/cc/"
xmlns:dc="http://purl.org/dc/elements/1.1/"
xmlns ="http://www.w3.org/2000/svg"
>
<!-- SVG plot written using Boost.Plot program (Creator Jacob Voytko) --> 
<!-- Use, modification and distribution of Boost.Plot subject to the --> 
<!-- Boost Software License, Version 1.0.--> 
<!-- (See accompanying file LICENSE_1_0.txt --> 
<!-- or copy at http://www.boost.org/LICENSE_1_0.txt) --> 

<clipPath id="plot_window"><rect x="41.5" y="53.5" width="511" height="387"/></clipPath>
<g id="imageBackground" stroke="rgb(255,255,0)" fill="rgb(248,248,255)" stroke-width="2"><rect x="0" y="0" width="700" height="500"/></g>
<g id="plotBackground" stroke="rgb(0,128,0)" fill="rgb(255,255,255)" stroke-width="1"><rect x="40.5" y="52.5" width="513" height="389"/></g>
<g id="yMinorGrid" stroke="rgb(240,240,255)" stroke-width="1"><path d="M41.5,427 L553,427 M41.5,369 L553,369 M41.5,341 L553,341 M41.5,283 L553,283 M41.5,254 L553,254 M41.5,197 L553,197 M41.5,168 L553,168 M41.5,110 L553,110 M41.5,81.3 L553,81.3 " fill="none"/></g>
<g id="yMajorGrid" stroke="rgb(200,220,255)" stroke-width="2"><path d="M41.5,398 L553,398 M41.5,312 L553,312 M41.5,225 L553,225 M41.5,139 L553,139 M41.5,52.5 L553,52.5 " fill="none"/></g>
<g id="xMinorGrid" stroke="rgb(240,240,255)" stroke-width="0.5"><path d="M118,53.5 L118,441 M149,53.5 L149,441 M212,53.5 L212,441 M243,53.5 L243,441 M305,53.5 L305,441 M336,53.5 L336,441 M398,53.5 L398,441 M429,53.5 L429,441 M491,53.5 L491,441 M523,53.5 L523,441 M56,53.5 L56,441 " fill="none"/></g>
<g id="xMajorGrid" stroke="rgb(200,220,255)" stroke-width="1"><path d="M87.1,52.5 L87.1,442 M180,52.5 L180,442 M274,52.5 L274,442 M367,52.5 L367,442 M460,52.5 L460,442 M554,52.5 L554,442 M87.1,52.5 L87.1,442 " fill="none"/></g>
<g id="yAxis" stroke="rgb(0,0,0)" stroke-width="1"><line x1="87.1" y1="52.5" x2="87.1" y2="442"/><line x1="554" y1="52.5" x2="554" y2="442"/></g>
<g id="xAxis" stroke="rgb(0,0,0)" stroke-width="1"><line x1="40.5" y1="442" x2="554" y2="442"/></g>
<g id="yMinorTicks" stroke="rgb(0,0,0)" stroke-width="1"><path d="M82.1,427 L87.1,427 M82.1,369 L87.1,369 M82.1,341 L87.1,341 M82.1,283 L87.1,283 M82.1,254 L87.1,254 M82.1,197 L87.1,197 M82.1,168 L87.1,168 M82.1,110 L87.1,110 M82.1,81.3 L87.1,81.3 " fill="none"/></g>
<g id="xMinorTicks" stroke="rgb(0,0,0)" stroke-width="1"><path d="M118,442 L118,447 M149,442 L149,447 M212,442 L212,447 M243,442 L243,447 M305,442 L305,447 M336,442 L336,447 M398,442 L398,447 M429,442 L429,447 M491,442 L491,447 M523,442 L523,447 M56,442 L56,447 " fill="none"/></g>
<g id="yMajorTicks" stroke="rgb(0,0,0)" stroke-width="2"><path d="M77.1,398 L87.1,398 M77.1,312 L87.1,312 M77.1,225 L87.1,225 M77.1,139 L87.1,139 M77.1,52.5 L87.1,52.5 " fill="none"/></g>
<g id="xMajorTicks" stroke="rgb(0,0,0)" stroke-width="2"><path d="M87.1,442 L87.1,452 M180,442 L180,452 M274,442 L274,452 M367,442 L367,452 M460,442 L460,452 M554,442 L554,452 M87.1,442 L87.1,452 " fill="none"/></g>
<g id="xTicksValues">
<text x="87.1" y="467" text-anchor="middle" font-size="12" font-family="Lucida Sans Unicode">0.00</text>
<text x="180" y="467" text-anchor="middle" font-size="12" font-family="Lucida Sans Unicode">2.00</text>
<text x="274" y="467" text-anchor="middle" font-size="12" font-family="Lucida Sans Unicode">4.00</text>
<text x="367" y="467" text-anchor="middle" font-size="12" font-family="Lucida Sans Unicode">6.00</text>
<text x="460" y="467" text-anchor="middle" font-size="12" font-family="Lucida Sans Unicode">8.00</text>
<text x="554" y="467" text-anchor="middle" font-size="12" font-family="Lucida Sans Unicode">1.00e1</text>
<text x="87.1" y="467" text-anchor="middle" font-size="12" font-family="Lucida Sans Unicode">0.00</text></g>
<g id="yTicksValues">
<text x="71.1" y="401" text-anchor="end" font-size="12" font-family="Lucida Sans Unicode">2.0</text>
<text x="71.1" y="314" text-anchor="end" font-size="12" font-family="Lucida Sans Unicode">4.0</text>
<text x="71.1" y="228" text-anchor="end" font-size="12" font-family="Lucida Sans Unicode">6.0</text>
<text x="71.1" y="141" text-anchor="end" font-size="12" font-family="Lucida Sans Unicode">8.0</text>
<text x="71.1" y="54.9" text-anchor="end" font-size="12" font-family="Lucida Sans Unicode">10.0</text></g>
<g id="yLabel">
<text x="19" y="247" text-anchor="middle" transform = "rotate(-90 19 247 )" font-size="14" font-family="Lucida Sans Unicode">Y-axis</text></g>
<g id="xLabel">
<text x="297" y="483" text-anchor="middle" font-size="14" font-family="Lucida Sans Unicode">X-axis</text></g>
<g id="plotLines" stroke-width="2"><g clip-path="url(#plot_window)" stroke="rgb(0,0,0)"><path d="M-379,-3.75e+03 S-342,-3.09e+03 -333,-2.93e+03 S-295,-2.33e+03 -286,-2.2e+03 S-249,-1.67e+03 -239,-1.55e+03 S-202,-1.09e+03 -193,-985 S-155,-596 -146,-509 S-109,-190 -99.4,-120 S-62.1,130 -52.8,182 S-15.5,364 -6.15,398 S31.2,511 40.5,528 S77.8,571 87.1,571 S124,545 134,528 S171,433 180,398 S218,234 227,182 S264,-51.2 274,-120 S311,-423 320,-509 S358,-881 367,-985 S404,-1.43e+03 414,-1.55e+03 S451,-2.06e+03 460,-2.2e+03 S498,-2.77e+03 507,-2.93e+03 S554,-3.83e+03 554,-3.75e+03 " fill="none"/></g>
</g>
<g id="plotPoints" clip-path="url(#plot_window)"><g stroke="rgb(0,0,0)" fill="rgb(255,0,0)"><circle cx="180" cy="424" r="2"/><circle cx="227" cy="410" r="2"/><circle cx="274" cy="398" r="2"/><circle cx="320" cy="388" r="2"/><circle cx="367" cy="379" r="2"/><circle cx="414" cy="370" r="2"/><circle cx="460" cy="362" r="2"/><circle cx="507" cy="355" r="2"/></g>
<g stroke="rgb(0,0,0)" fill="rgb(255,165,0)"><circle cx="180" cy="398" r="2"/><circle cx="227" cy="182" r="2"/></g>
<g stroke="rgb(0,0,0)" fill="rgb(255,255,0)"><rect x="178" y="353" width="5" height="5"/><rect x="225" y="266" width="5" height="5"/><rect x="271" y="180" width="5" height="5"/><rect x="318" y="93.2" width="5" height="5"/></g>
</g>
<g id="limitPoints" stroke="rgb(119,136,153)" fill="rgb(250,235,215)"><polygon points=" 35.5,432 45.5,432 40.5,442"/><polygon points=" 35.5,432 45.5,432 40.5,442"/><polygon points=" 35.5,432 45.5,432 40.5,442"/><polygon points=" 35.5,432 45.5,432 40.5,442"/><polygon points=" 35.5,432 45.5,432 40.5,442"/><polygon points=" 35.5,432 45.5,432 40.5,442"/><polygon points=" 35.5,432 45.5,432 40.5,442"/><polygon points=" 35.5,432 45.5,432 40.5,442"/><polygon points=" 35.5,432 45.5,432 40.5,442"/><polygon points=" 35.5,432 45.5,432 40.5,442"/></g>
<g id="legendBackground" stroke="rgb(255,255,0)" fill="rgb(255,255,224)" stroke-width="1"><rect x="568" y="52.5" width="130" height="144"/><rect x="568" y="52.5" width="130" height="144"/></g>
<g id="legendPoints"><g stroke="rgb(0,0,0)" fill="rgb(255,0,0)" stroke-width="2"><circle cx="584" cy="117" r="2"/></g>
<g stroke="rgb(0,0,0)" fill="rgb(255,165,0)" stroke-width="2"><circle cx="584" cy="149" r="2"/></g>
<g stroke="rgb(0,0,0)" fill="rgb(255,255,0)" stroke-width="3"><rect x="581" y="178" width="5" height="5"/></g>
</g>
<g id="legendText">
<text x="633" y="84.5" text-anchor="middle" font-size="16" font-family="Lucida Sans Unicode">Unicode &#x3A9;&#x3A6;</text>
<text x="608" y="117" font-size="16" font-family="Lucida Sans Unicode">Sqrt(x)</text>
<text x="608" y="149" font-size="16" font-family="Lucida Sans Unicode">-2 + x^2</text>
<text x="608" y="181" font-size="16" font-family="Lucida Sans Unicode">-1 + 2x</text></g>
<g id="title" fill="rgb(255,0,0)">
<text x="350" y="40" text-anchor="middle" font-size="20" font-family="Lucida Sans Unicode">Plot of Mathematical Functions YP</text></g>
<g id="plotXValues"></g>
<g id="plotYValues"></g>
</svg>
