<?xml version="1.0" encoding="UTF-8" standalone="no"?>
<svg width="700" height ="500" version="1.1"
xmlns:svg ="http://www.w3.org/2000/svg"
xmlns:rdf="http://www.w3.org/1999/02/22-rdf-syntax-ns#"
xmlns:cc="http://web.resource.org/cc/"
xmlns:dc="http://purl.org/dc/elements/1.1/"
xmlns ="http://www.w3.org/2000/svg"
>
<!-- SVG plot written using Boost.Plot program (Creator Jacob Voytko) --> 
<!-- Use, modification and distribution of Boost.Plot subject to the --> 
<!-- Boost Software License, Version 1.0.--> 
<!-- (See accompanying file LICENSE_1_0.txt --> 
<!-- or copy at http://www.boost.org/LICENSE_1_0.txt) --> 

<clipPath id="plot_window"><rect x="41.5" y="53.5" width="511" height="405"/></clipPath>
<g id="imageBackground" stroke="rgb(255,255,0)" fill="rgb(248,248,255)" stroke-width="2"><rect x="0" y="0" width="700" height="500"/></g>
<g id="plotBackground" stroke="rgb(0,128,0)" fill="rgb(255,255,255)" stroke-width="1"><rect x="40.5" y="52.5" width="513" height="407"/></g>
<g id="yMinorGrid" stroke="rgb(240,240,255)" stroke-width="1"><path d="M41.5,67.6 L553,67.6 M41.5,97.7 L553,97.7 M41.5,128 L553,128 M41.5,158 L553,158 M41.5,188 L553,188 M41.5,188 L553,188 M41.5,218 L553,218 M41.5,248 L553,248 M41.5,279 L553,279 M41.5,309 L553,309 M41.5,339 L553,339 M41.5,369 L553,369 M41.5,399 L553,399 M41.5,429 L553,429 M41.5,459 L553,459 M41.5,460 L553,460 " fill="none"/></g>
<g id="yMajorGrid" stroke="rgb(200,220,255)" stroke-width="2"><path d="M41.5,97.7 L553,97.7 M41.5,188 L553,188 M41.5,279 L553,279 M41.5,369 L553,369 M41.5,460 L553,460 " fill="none"/></g>
<g id="xMinorGrid" stroke="rgb(240,240,255)" stroke-width="0.5"><path d="M535,53.5 L535,459 M459,53.5 L459,459 M421,53.5 L421,459 M345,53.5 L345,459 M307,53.5 L307,459 M231,53.5 L231,459 M193,53.5 L193,459 M117,53.5 L117,459 M78.5,53.5 L78.5,459 " fill="none"/></g>
<g id="xMajorGrid" stroke="rgb(200,220,255)" stroke-width="1"><path d="M497,52.5 L497,460 M383,52.5 L383,460 M269,52.5 L269,460 M155,52.5 L155,460 M40.5,52.5 L40.5,460 " fill="none"/></g>
<g id="yAxis" stroke="rgb(0,0,0)" stroke-width="1"><line x1="40.5" y1="52.5" x2="554" y2="460"/></g>
<g id="xAxis" stroke="rgb(0,0,0)" stroke-width="1"><line x1="40.5" y1="52.5" x2="554" y2="52.5"/></g>
<g id="yMinorTicks" stroke="rgb(0,0,0)" stroke-width="1"><path d="M549,67.6 L554,67.6 M549,97.7 L554,97.7 M549,128 L554,128 M549,158 L554,158 M549,188 L554,188 M549,188 L554,188 M549,218 L554,218 M549,248 L554,248 M549,279 L554,279 M549,309 L554,309 M549,339 L554,339 M549,369 L554,369 M549,399 L554,399 M549,429 L554,429 M549,459 L554,459 M549,460 L554,460 " fill="none"/></g>
<g id="xMinorTicks" stroke="rgb(0,0,0)" stroke-width="1"><path d="M535,52.5 L535,57.5 M459,52.5 L459,57.5 M421,52.5 L421,57.5 M345,52.5 L345,57.5 M307,52.5 L307,57.5 M231,52.5 L231,57.5 M193,52.5 L193,57.5 M117,52.5 L117,57.5 M78.5,52.5 L78.5,57.5 " fill="none"/></g>
<g id="yMajorTicks" stroke="rgb(0,0,0)" stroke-width="2"><path d="M544,97.7 L554,97.7 M544,188 L554,188 M544,279 L554,279 M544,369 L554,369 M544,460 L554,460 " fill="none"/></g>
<g id="xMajorTicks" stroke="rgb(0,0,0)" stroke-width="2"><path d="M497,52.5 L497,62.5 M383,52.5 L383,62.5 M269,52.5 L269,62.5 M155,52.5 L155,62.5 M40.5,52.5 L40.5,62.5 " fill="none"/></g>
<g id="xTicksValues">
<text x="497" y="78.1" text-anchor="middle" font-size="12" font-family="Lucida Sans Unicode">-2.00</text>
<text x="383" y="78.1" text-anchor="middle" font-size="12" font-family="Lucida Sans Unicode">-4.00</text>
<text x="269" y="78.1" text-anchor="middle" font-size="12" font-family="Lucida Sans Unicode">-6.00</text>
<text x="155" y="78.1" text-anchor="middle" font-size="12" font-family="Lucida Sans Unicode">-8.00</text>
<text x="40.5" y="78.1" text-anchor="middle" font-size="12" font-family="Lucida Sans Unicode">-1.00e1</text></g>
<g id="yTicksValues">
<text x="538" y="100" text-anchor="end" font-size="12" font-family="Lucida Sans Unicode">-2.0</text>
<text x="538" y="191" text-anchor="end" font-size="12" font-family="Lucida Sans Unicode">-4.0</text>
<text x="538" y="281" text-anchor="end" font-size="12" font-family="Lucida Sans Unicode">-6.0</text>
<text x="538" y="371" text-anchor="end" font-size="12" font-family="Lucida Sans Unicode">-8.0</text>
<text x="538" y="462" text-anchor="end" font-size="12" font-family="Lucida Sans Unicode">-10.0</text></g>
<g id="yLabel">
<text x="19" y="256" text-anchor="middle" transform = "rotate(-90 19 256 )" font-size="14" font-family="Lucida Sans Unicode">Y-axis</text></g>
<g id="xLabel">
<text x="297" y="483" text-anchor="middle" font-size="14" font-family="Lucida Sans Unicode">X-axis</text></g>
<g id="plotLines" stroke-width="2"><g clip-path="url(#plot_window)" stroke="rgb(0,0,0)"><path d="M40.5,-4.42e+03 S86.1,-3.73e+03 97.5,-3.57e+03 S143,-2.94e+03 155,-2.8e+03 S200,-2.24e+03 212,-2.12e+03 S257,-1.64e+03 269,-1.53e+03 S314,-1.12e+03 326,-1.03e+03 S371,-698 383,-626 S428,-364 440,-309 S485,-119 497,-83.2 S542,34.4 554,52.5 S599,97.7 611,97.7 S656,70.6 668,52.5 S713,-47 725,-83.2 S770,-255 782,-309 S827,-553 839,-626 S884,-942 896,-1.03e+03 S941,-1.42e+03 953,-1.53e+03 S998,-1.99e+03 1.01e+03,-2.12e+03 S1.06e+03,-2.65e+03 1.07e+03,-2.8e+03 S1.11e+03,-3.4e+03 1.12e+03,-3.57e+03 S1.18e+03,-4.51e+03 1.18e+03,-4.42e+03 " fill="none"/></g>
</g>
<g id="plotPoints" clip-path="url(#plot_window)"><g stroke="rgb(0,0,0)" fill="rgb(255,255,0)"><rect x="380" y="412" width="5" height="5"/><rect x="437" y="321" width="5" height="5"/><rect x="494" y="231" width="5" height="5"/></g>
</g>
<g id="limitPoints" stroke="rgb(119,136,153)" fill="rgb(250,235,215)"><polygon points=" 35.5,42.5 45.5,42.5 40.5,52.5"/><polygon points=" 92.5,42.5 103,42.5 97.5,52.5"/><polygon points=" 150,42.5 160,42.5 155,52.5"/><polygon points=" 207,42.5 217,42.5 212,52.5"/><polygon points=" 264,42.5 274,42.5 269,52.5"/><polygon points=" 321,42.5 331,42.5 326,52.5"/><polygon points=" 378,42.5 388,42.5 383,52.5"/><polygon points=" 435,42.5 445,42.5 440,52.5"/><polygon points=" 492,42.5 502,42.5 497,52.5"/><polygon points=" 549,42.5 559,42.5 554,52.5"/></g>
<g id="legendBackground" stroke="rgb(255,255,0)" fill="rgb(255,255,224)" stroke-width="1"><rect x="568" y="52.5" width="130" height="144"/><rect x="568" y="52.5" width="130" height="144"/></g>
<g id="legendPoints"><g stroke="rgb(0,0,0)" fill="rgb(255,0,0)" stroke-width="2"><circle cx="584" cy="117" r="2"/></g>
<g stroke="rgb(0,0,0)" fill="rgb(255,165,0)" stroke-width="2"><circle cx="584" cy="149" r="2"/></g>
<g stroke="rgb(0,0,0)" fill="rgb(255,255,0)" stroke-width="3"><rect x="581" y="178" width="5" height="5"/></g>
</g>
<g id="legendText">
<text x="633" y="84.5" text-anchor="middle" font-size="16" font-family="Lucida Sans Unicode">Unicode &#x3A9;&#x3A6;</text>
<text x="608" y="117" font-size="16" font-family="Lucida Sans Unicode">Sqrt(x)</text>
<text x="608" y="149" font-size="16" font-family="Lucida Sans Unicode">-2 + x^2</text>
<text x="608" y="181" font-size="16" font-family="Lucida Sans Unicode">-1 + 2x</text></g>
<g id="title" fill="rgb(255,0,0)">
<text x="350" y="40" text-anchor="middle" font-size="20" font-family="Lucida Sans Unicode">Plot of Mathematical Functions XYN</text></g>
<g id="plotXValues"></g>
<g id="plotYValues"></g>
</svg>
