<?xml version="1.0" encoding="UTF-8" standalone="no"?>
<svg width="500" height ="400" version="1.1"
xmlns:svg ="http://www.w3.org/2000/svg"
xmlns:rdf="http://www.w3.org/1999/02/22-rdf-syntax-ns#"
xmlns:cc="http://web.resource.org/cc/"
xmlns:dc="http://purl.org/dc/elements/1.1/"
xmlns ="http://www.w3.org/2000/svg"
>
<!-- SVG plot written using Boost.Plot program (Creator Jacob Voytko) --> 
<!-- Use, modification and distribution of Boost.Plot subject to the --> 
<!-- Boost Software License, Version 1.0.--> 
<!-- (See accompanying file LICENSE_1_0.txt --> 
<!-- or copy at http://www.boost.org/LICENSE_1_0.txt) --> 

<clipPath id="plot_window">	<rect x="46.4" y="40.5" width="427" height="328"/>
</clipPath>

<g id="imageBackground" stroke="rgb(255,255,0)" fill="rgb(255,255,255)" stroke-width="2">
	<rect x="0" y="0" width="500" height="400"/>
</g>

<g id="plotBackground" stroke="rgb(119,136,153)" fill="rgb(255,255,255)" stroke-width="2">
	<rect x="45.4" y="39.5" width="429" height="330"/>
</g>

<g id="yMinorGrid" stroke="rgb(200,220,255)" stroke-width="0.5">
</g>

<g id="yMajorGrid" stroke="rgb(200,220,255)" stroke-width="1">
</g>

<g id="xMinorGrid" stroke="rgb(200,220,255)" stroke-width="0.5">
</g>

<g id="xMajorGrid" stroke="rgb(200,220,255)" stroke-width="1">
</g>

<g id="yAxis" stroke="rgb(0,0,0)" stroke-width="1">
	<line x1="45.4" y1="39.5" x2="45.4" y2="369"/>
</g>

<g id="xAxis" stroke="rgb(0,0,0)" stroke-width="1">
	<line x1="45.4" y1="369" x2="474" y2="369"/>
</g>

<g id="yMinorTicks" stroke="rgb(0,0,0)" stroke-width="1">
	<path d="M43.4,361 L45.4,361 
M43.4,353 L45.4,353 
M43.4,344 L45.4,344 
M43.4,336 L45.4,336 
M43.4,320 L45.4,320 
M43.4,311 L45.4,311 
M43.4,303 L45.4,303 
M43.4,295 L45.4,295 
M43.4,278 L45.4,278 
M43.4,270 L45.4,270 
M43.4,262 L45.4,262 
M43.4,254 L45.4,254 
M43.4,237 L45.4,237 
M43.4,229 L45.4,229 
M43.4,221 L45.4,221 
M43.4,212 L45.4,212 
M43.4,196 L45.4,196 
M43.4,188 L45.4,188 
M43.4,180 L45.4,180 
M43.4,171 L45.4,171 
M43.4,155 L45.4,155 
M43.4,147 L45.4,147 
M43.4,138 L45.4,138 
M43.4,130 L45.4,130 
M43.4,114 L45.4,114 
M43.4,105 L45.4,105 
M43.4,97.2 L45.4,97.2 
M43.4,88.9 L45.4,88.9 
M43.4,72.5 L45.4,72.5 
M43.4,64.2 L45.4,64.2 
M43.4,56 L45.4,56 
M43.4,47.7 L45.4,47.7 
" fill="none"/>
</g>

<g id="xMinorTicks" stroke="rgb(0,0,0)" stroke-width="1">
	<path d="M57.6,369 L57.6,371 
M69.9,369 L69.9,371 
M82.1,369 L82.1,371 
M94.4,369 L94.4,371 
M119,369 L119,371 
M131,369 L131,371 
M143,369 L143,371 
M156,369 L156,371 
M180,369 L180,371 
M192,369 L192,371 
M205,369 L205,371 
M217,369 L217,371 
M241,369 L241,371 
M254,369 L254,371 
M266,369 L266,371 
M278,369 L278,371 
M303,369 L303,371 
M315,369 L315,371 
M327,369 L327,371 
M339,369 L339,371 
M364,369 L364,371 
M376,369 L376,371 
M388,369 L388,371 
M401,369 L401,371 
M425,369 L425,371 
M437,369 L437,371 
M450,369 L450,371 
M462,369 L462,371 
" fill="none"/>
</g>

<g id="yMajorTicks" stroke="rgb(0,0,0)" stroke-width="2">
	<path d="M40.4,369 L45.4,369 
M40.4,328 L45.4,328 
M40.4,287 L45.4,287 
M40.4,245 L45.4,245 
M40.4,204 L45.4,204 
M40.4,163 L45.4,163 
M40.4,122 L45.4,122 
M40.4,80.7 L45.4,80.7 
M40.4,39.5 L45.4,39.5 
" fill="none"/>
</g>

<g id="xMajorTicks" stroke="rgb(0,0,0)" stroke-width="2">
	<path d="M45.4,369 L45.4,374 
M107,369 L107,374 
M168,369 L168,374 
M229,369 L229,374 
M290,369 L290,374 
M352,369 L352,374 
M413,369 L413,374 
M474,369 L474,374 
" fill="none"/>
</g>

<g id="xTicksValues">
	<text x="45.4" y="390" text-anchor="middle" font-size="12" font-family="Lucida Sans Unicode">1	</text>
	<text x="107" y="390" text-anchor="middle" font-size="12" font-family="Lucida Sans Unicode">2	</text>
	<text x="168" y="390" text-anchor="middle" font-size="12" font-family="Lucida Sans Unicode">3	</text>
	<text x="229" y="390" text-anchor="middle" font-size="12" font-family="Lucida Sans Unicode">4	</text>
	<text x="290" y="390" text-anchor="middle" font-size="12" font-family="Lucida Sans Unicode">5	</text>
	<text x="352" y="390" text-anchor="middle" font-size="12" font-family="Lucida Sans Unicode">6	</text>
	<text x="413" y="390" text-anchor="middle" font-size="12" font-family="Lucida Sans Unicode">7	</text>
	<text x="474" y="390" text-anchor="middle" font-size="12" font-family="Lucida Sans Unicode">8	</text>
</g>

<g id="yTicksValues">
	<text x="34.4" y="371" text-anchor="end" font-size="12" font-family="Lucida Sans Unicode">2	</text>
	<text x="34.4" y="330" text-anchor="end" font-size="12" font-family="Lucida Sans Unicode">3	</text>
	<text x="34.4" y="289" text-anchor="end" font-size="12" font-family="Lucida Sans Unicode">4	</text>
	<text x="34.4" y="248" text-anchor="end" font-size="12" font-family="Lucida Sans Unicode">5	</text>
	<text x="34.4" y="207" text-anchor="end" font-size="12" font-family="Lucida Sans Unicode">6	</text>
	<text x="34.4" y="165" text-anchor="end" font-size="12" font-family="Lucida Sans Unicode">7	</text>
	<text x="34.4" y="124" text-anchor="end" font-size="12" font-family="Lucida Sans Unicode">8	</text>
	<text x="34.4" y="83.1" text-anchor="end" font-size="12" font-family="Lucida Sans Unicode">9	</text>
	<text x="34.4" y="41.9" text-anchor="end" font-size="12" font-family="Lucida Sans Unicode">10	</text>
</g>

<g id="yLabel">
	<text x="14.9" y="204" text-anchor="middle" transform="rotate(-90 14.9 204)" font-size="14" font-family="Lucida Sans Unicode">	</text>
</g>

<g id="xLabel">
	<text x="260" y="402" text-anchor="middle" font-size="12" font-family="Lucida Sans Unicode">	</text>
</g>

<g id="plotPoints" clip-path="url(#plot_window)">

<g stroke="rgb(0,0,0)" fill="rgb(255,255,255)">
	<text x="51.5" y="321" text-anchor="middle" font-size="6" font-family="Lucida Sans Unicode">&#x25CF;	</text>
	<text x="114" y="353" text-anchor="middle" font-size="6" font-family="Lucida Sans Unicode">&#x25CF;	</text>
	<text x="319" y="231" text-anchor="middle" font-size="6" font-family="Lucida Sans Unicode">&#x25CF;	</text>
	<text x="431" y="78.4" text-anchor="middle" font-size="6" font-family="Lucida Sans Unicode">&#x25CF;	</text>
</g>
</g>

<g id="title">
	<text x="250" y="27" text-anchor="middle" font-size="18" font-family="Lucida Sans Unicode" font-weight="normal">Autoscaling 2d Values	</text>
</g>

<g id="plotXValues">
</g>

<g id="plotYValues">
</g>
</svg>
