<?xml version="1.0" encoding="UTF-8" standalone="no"?>
<svg width="600" height ="300" version="1.1"
xmlns:svg ="http://www.w3.org/2000/svg"
xmlns:rdf="http://www.w3.org/1999/02/22-rdf-syntax-ns#"
xmlns:cc="http://web.resource.org/cc/"
xmlns:dc="http://purl.org/dc/elements/1.1/"
xmlns ="http://www.w3.org/2000/svg"
>
<!-- SVG plot written using Boost.Plot program (Creator Jacob Voytko) --> 
<!-- Use, modification and distribution of Boost.Plot subject to the --> 
<!-- Boost Software License, Version 1.0.--> 
<!-- (See accompanying file LICENSE_1_0.txt --> 
<!-- or copy at http://www.boost.org/LICENSE_1_0.txt) --> 

<!-- File ./demo_1d_uncertainty.svg --> 
	<g id="imageBackground" stroke="rgb(0,0,255)" fill="rgb(255,255,255)" stroke-width="1">
	<rect x="0" y="0" width="600" height="300"/>
</g>
	<g id="plotBackground" stroke="rgb(255,255,0)" fill="rgb(255,255,255)" stroke-width="1">
	<rect x="21" y="42.5" width="558" height="229"/>
</g>
	<g id="xMinorGrid" stroke="rgb(200,220,255)" stroke-width="0.5">
</g>
	<g id="xMajorGrid" stroke="rgb(200,220,255)" stroke-width="1">
</g>
	<g id="xAxis" stroke="rgb(0,0,0)" stroke-width="1">
	<line x1="21" y1="160" x2="579" y2="160"/>
</g>
	<g id="xMinorTicks" stroke="rgb(0,0,0)" stroke-width="1">
	<path d="M39.6,160 L39.6,162 
M58.2,160 L58.2,162 
M76.8,160 L76.8,162 
M95.4,160 L95.4,162 
M133,160 L133,162 
M151,160 L151,162 
M170,160 L170,162 
M188,160 L188,162 
M226,160 L226,162 
M244,160 L244,162 
M263,160 L263,162 
M281,160 L281,162 
M319,160 L319,162 
M337,160 L337,162 
M356,160 L356,162 
M374,160 L374,162 
M412,160 L412,162 
M430,160 L430,162 
M449,160 L449,162 
M467,160 L467,162 
M505,160 L505,162 
M523,160 L523,162 
M542,160 L542,162 
M560,160 L560,162 
" fill="none"/>
</g>
	<g id="xMajorTicks" stroke="rgb(0,0,0)" stroke-width="2">
	<path d="M21,160 L21,165 
M114,160 L114,165 
M207,160 L207,165 
M300,160 L300,165 
M393,160 L393,165 
M486,160 L486,165 
M579,160 L579,165 
" fill="none"/>
</g>
	<g id="xTicksValues">
	<text x="21" y="178" text-anchor="middle" font-size="10" font-family="Verdana">2
	</text>
	<text x="114" y="178" text-anchor="middle" font-size="10" font-family="Verdana">3
	</text>
	<text x="207" y="178" text-anchor="middle" font-size="10" font-family="Verdana">4
	</text>
	<text x="300" y="178" text-anchor="middle" font-size="10" font-family="Verdana">5
	</text>
	<text x="393" y="178" text-anchor="middle" font-size="10" font-family="Verdana">6
	</text>
	<text x="486" y="178" text-anchor="middle" font-size="10" font-family="Verdana">7
	</text>
	<text x="579" y="178" text-anchor="middle" font-size="10" font-family="Verdana">8
	</text>
</g>
	<g id="xLabel">
	<text x="300" y="289" text-anchor="middle" font-size="10" font-family="Verdana">times (sec)
	</text>
</g>
	<g id="plotUnc3" stroke="rgb(250,250,210)" fill="rgb(250,250,210)" stroke-width="1">
	<ellipse cx="76.8" cy="154" rx="27.9" ry="9"/>
	<ellipse cx="337" cy="154" rx="55.8" ry="9"/>
</g>
	<g id="plotUnc2" stroke="rgb(255,218,185)" fill="rgb(255,218,185)" stroke-width="1">
	<ellipse cx="76.8" cy="154" rx="18.6" ry="6"/>
	<ellipse cx="337" cy="154" rx="37.2" ry="6"/>
</g>
	<g id="plotUnc1" stroke="rgb(255,0,255)" fill="rgb(255,192,203)" stroke-width="1">
	<ellipse cx="76.8" cy="154" rx="9.3" ry="3"/>
	<ellipse cx="337" cy="154" rx="18.6" ry="3"/>
</g>
	<g id="plotPoints">
	<g stroke="rgb(255,0,0)" fill="rgb(0,128,0)">
	<text x="123" y="157" text-anchor="middle">&#x25CF;
	</text>
	<text x="226" y="157" text-anchor="middle">&#x25CF;
	</text>
</g>
	<g stroke="rgb(0,0,255)">
	<line x1="30.3" y1="159" x2="30.3" y2="149"/>
	<line x1="309" y1="159" x2="309" y2="149"/>
	<line x1="560" y1="159" x2="560" y2="149"/>
	<line x1="151" y1="159" x2="151" y2="149"/>
	<line x1="384" y1="159" x2="384" y2="149"/>
</g>
	<g stroke="rgb(255,0,255)" fill="rgb(255,255,224)">
	<circle cx="76.8" cy="154" r="1"/>
	<circle cx="337" cy="154" r="1"/>
</g>
</g>
	<g id="title">
	<text x="300" y="27" text-anchor="middle" font-size="18" font-family="Verdana">A, B and C Times
	</text>
</g>
	<g id="plotXValues">
	<g>
	<text x="126" y="148" transform="rotate(-30 126 148)" font-size="10" font-family="Verdana">3.1
		<tspan fill="rgb(0,0,255)" font-size="10" font-family="Verdana">&#x00A0;&#x00B1;</tspan>
		<tspan fill="rgb(0,0,255)" font-size="9" font-family="Verdana">0.02</tspan>
		<tspan fill="rgb(128,0,128)" font-size="9" font-family="Verdana"> &lt;3.08, 3.12&gt;</tspan>
		<tspan fill="rgb(0,128,0)" font-size="9" font-family="Verdana">&#x00A0;(8)</tspan>
	</text>
</g>
	<g>
	<text x="229" y="148" transform="rotate(-30 229 148)" font-size="10" font-family="Verdana">4.2
		<tspan fill="rgb(0,0,255)" font-size="10" font-family="Verdana">&#x00A0;&#x00B1;</tspan>
		<tspan fill="rgb(0,0,255)" font-size="9" font-family="Verdana">0.01</tspan>
		<tspan fill="rgb(128,0,128)" font-size="9" font-family="Verdana"> &lt;4.193, 4.207&gt;</tspan>
		<tspan fill="rgb(0,128,0)" font-size="9" font-family="Verdana">&#x00A0;(14)</tspan>
	</text>
</g>
	<g>
	<text x="33.3" y="151" transform="rotate(-30 33.3 151)" font-size="10" font-family="Verdana">2.1
		<tspan fill="rgb(0,0,255)" font-size="10" font-family="Verdana">&#x00A0;&#x00B1;</tspan>
		<tspan fill="rgb(0,0,255)" font-size="9" font-family="Verdana">0.001</tspan>
		<tspan fill="rgb(128,0,128)" font-size="9" font-family="Verdana"> &lt;2.0995, 2.1005&gt;</tspan>
		<tspan fill="rgb(0,128,0)" font-size="9" font-family="Verdana">&#x00A0;(30)</tspan>
	</text>
</g>
	<g>
	<text x="312" y="151" transform="rotate(-30 312 151)" font-size="10" font-family="Verdana">5.1
		<tspan fill="rgb(0,0,255)" font-size="10" font-family="Verdana">&#x00A0;&#x00B1;</tspan>
		<tspan fill="rgb(0,0,255)" font-size="9" font-family="Verdana">0.025</tspan>
		<tspan fill="rgb(128,0,128)" font-size="9" font-family="Verdana"> &lt;5.09, 5.11&gt;</tspan>
		<tspan fill="rgb(0,128,0)" font-size="9" font-family="Verdana">&#x00A0;(20)</tspan>
	</text>
</g>
	<g>
	<text x="563" y="151" transform="rotate(-30 563 151)" font-size="10" font-family="Verdana">7.8
		<tspan fill="rgb(0,0,255)" font-size="10" font-family="Verdana">&#x00A0;&#x00B1;</tspan>
		<tspan fill="rgb(0,0,255)" font-size="9" font-family="Verdana">0.0025</tspan>
		<tspan fill="rgb(128,0,128)" font-size="9" font-family="Verdana"> &lt;7.794, 7.806&gt;</tspan>
		<tspan fill="rgb(0,128,0)" font-size="9" font-family="Verdana">&#x00A0;(1)</tspan>
	</text>
</g>
	<g>
	<text x="154" y="151" transform="rotate(-30 154 151)" font-size="10" font-family="Verdana">3.4
		<tspan fill="rgb(0,0,255)" font-size="10" font-family="Verdana">&#x00A0;&#x00B1;</tspan>
		<tspan fill="rgb(0,0,255)" font-size="9" font-family="Verdana">0.03</tspan>
		<tspan fill="rgb(128,0,128)" font-size="9" font-family="Verdana"> &lt;3.32, 3.48&gt;</tspan>
		<tspan fill="rgb(0,128,0)" font-size="9" font-family="Verdana">&#x00A0;(1)</tspan>
	</text>
</g>
	<g>
	<text x="387" y="151" transform="rotate(-30 387 151)" font-size="10" font-family="Verdana">5.9
		<tspan fill="rgb(128,0,128)" font-size="9" font-family="Verdana"> &lt;nan, nan&gt;</tspan>
		<tspan fill="rgb(0,128,0)" font-size="9" font-family="Verdana">&#x00A0;(1)</tspan>
	</text>
</g>
	<g>
	<text x="79.8" y="151" transform="rotate(-30 79.8 151)" font-size="10" font-family="Verdana">2.6
		<tspan fill="rgb(0,0,255)" font-size="10" font-family="Verdana">&#x00A0;&#x00B1;</tspan>
		<tspan fill="rgb(0,0,255)" font-size="9" font-family="Verdana">0.1</tspan>
		<tspan fill="rgb(128,0,128)" font-size="9" font-family="Verdana"> &lt;2.48, 2.72&gt;</tspan>
		<tspan fill="rgb(0,128,0)" font-size="9" font-family="Verdana">&#x00A0;(5)</tspan>
	</text>
</g>
	<g>
	<text x="340" y="151" transform="rotate(-30 340 151)" font-size="10" font-family="Verdana">5.4
		<tspan fill="rgb(0,0,255)" font-size="10" font-family="Verdana">&#x00A0;&#x00B1;</tspan>
		<tspan fill="rgb(0,0,255)" font-size="9" font-family="Verdana">0.2</tspan>
		<tspan fill="rgb(128,0,128)" font-size="9" font-family="Verdana"> &lt;5.2, 5.6&gt;</tspan>
		<tspan fill="rgb(0,128,0)" font-size="9" font-family="Verdana">&#x00A0;(11)</tspan>
	</text>
</g>
</g>
</svg>
