<?xml version="1.0" encoding="UTF-8" standalone="no"?>
<svg width="500" height ="200" version="1.1"
xmlns:svg ="http://www.w3.org/2000/svg"
xmlns:rdf="http://www.w3.org/1999/02/22-rdf-syntax-ns#"
xmlns:cc="http://web.resource.org/cc/"
xmlns:dc="http://purl.org/dc/elements/1.1/"
xmlns ="http://www.w3.org/2000/svg"
>
<!-- SVG plot written using Boost.Plot program (Creator Jacob Voytko) --> 
<!-- Use, modification and distribution of Boost.Plot subject to the --> 
<!-- Boost Software License, Version 1.0.--> 
<!-- (See accompanying file LICENSE_1_0.txt --> 
<!-- or copy at http://www.boost.org/LICENSE_1_0.txt) --> 

<!-- File demo_color.svg --> 
<g id="imageBackground" stroke="rgb(255,255,0)" fill="rgb(255,255,255)" stroke-width="1"><rect x="0" y="0" width="500" height="200"/></g>
<g id="plotBackground" stroke="rgb(250,250,210)" fill="rgb(255,255,255)" stroke-width="1"><rect x="21" y="11" width="378" height="145"/></g>
<g id="xMinorGrid" stroke="rgb(200,220,255)" stroke-width="0.5"></g>
<g id="xMajorGrid" stroke="rgb(200,220,255)" stroke-width="1"></g>
<g id="xAxis" stroke="rgb(0,0,255)" stroke-width="1"><line x1="21" y1="11" x2="21" y2="156"/><line x1="21" y1="86" x2="399" y2="86"/></g>
<g id="xMinorTicks" stroke="rgb(0,0,0)" stroke-width="1"><path d="M42.6,86 L42.6,88 M64.2,86 L64.2,88 M85.7,86 L85.7,88 M107,86 L107,88 M150,86 L150,88 M172,86 L172,88 M194,86 L194,88 M215,86 L215,88 M258,86 L258,88 M280,86 L280,88 M302,86 L302,88 M323,86 L323,88 M366,86 L366,88 M388,86 L388,88 " fill="none"/></g>
<g id="xMajorTicks" stroke="rgb(0,0,0)" stroke-width="2"><path d="M21,86 L21,91 M129,86 L129,91 M237,86 L237,91 M345,86 L345,91 M21,86 L21,91 " fill="none"/></g>
<g id="xTicksValues">
<text x="129" y="107" text-anchor="middle" font-size="12" font-family="Verdana">2</text>
<text x="237" y="107" text-anchor="middle" font-size="12" font-family="Verdana">4</text>
<text x="345" y="107" text-anchor="middle" font-size="12" font-family="Verdana">6</text></g>
<g id="xLabel" stroke="rgb(255,0,255)" fill="rgb(255,0,255)">
<text x="210" y="180" text-anchor="middle" font-size="14" font-family="Verdana">axis</text></g>
<g id="plotPoints"><g stroke="rgb(0,0,0)"><line x1="74.9" y1="85.5" x2="74.9" y2="75.5"/><line x1="129" y1="85.5" x2="129" y2="75.5"/><line x1="183" y1="85.5" x2="183" y2="75.5"/></g>
</g>
<g id="legendBackground" stroke="rgb(255,255,0)" fill="rgb(255,255,255)" stroke-width="1"><rect x="407" y="11" width="88.8" height="102"/></g>
<g id="legendPoints"><g stroke="rgb(0,0,0)" stroke-width="2"><line x1="419" y1="29" x2="419" y2="19"/></g>
</g>
<g id="legendText">
<text x="424" y="25" font-size="14" font-family="Verdana">My Data</text></g>
<g id="title">
<text x="250" y="36" text-anchor="middle" font-size="18" font-family="Verdana"></text></g>
</svg>
