<?xml version="1.0" encoding="UTF-8" standalone="no"?>
<svg width="500" height ="400" version="1.1"
xmlns:svg ="http://www.w3.org/2000/svg"
xmlns:rdf="http://www.w3.org/1999/02/22-rdf-syntax-ns#"
xmlns:cc="http://web.resource.org/cc/"
xmlns:dc="http://purl.org/dc/elements/1.1/"
xmlns ="http://www.w3.org/2000/svg"
>
<!-- SVG plot written using Boost.Plot program (Creator Jacob Voytko) --> 
<!-- Use, modification and distribution of Boost.Plot subject to the --> 
<!-- Boost Software License, Version 1.0.--> 
<!-- (See accompanying file LICENSE_1_0.txt --> 
<!-- or copy at http://www.boost.org/LICENSE_1_0.txt) --> 

<clipPath id="plot_window">	<rect x="72.5" y="13" width="384" height="338"/>
</clipPath>
	<g id="imageBackground" stroke="rgb(255,255,0)" fill="rgb(255,255,255)" stroke-width="2">
	<rect x="0" y="0" width="500" height="400"/>
</g>
	<g id="plotBackground" stroke="rgb(119,136,153)" fill="rgb(255,255,255)" stroke-width="2">
	<rect x="71.5" y="12" width="386" height="340"/>
</g>
	<g id="yMinorGrid" stroke="rgb(200,220,255)" stroke-width="0.5">
</g>
	<g id="yMajorGrid" stroke="rgb(200,220,255)" stroke-width="1">
</g>
	<g id="xMinorGrid" stroke="rgb(200,220,255)" stroke-width="0.5">
</g>
	<g id="xMajorGrid" stroke="rgb(200,220,255)" stroke-width="1">
</g>
	<g id="yAxis" stroke="rgb(0,0,0)" stroke-width="1">
	<line x1="71.5" y1="12" x2="71.5" y2="358"/>
	<line x1="71.5" y1="12" x2="71.5" y2="352"/>
</g>
	<g id="xAxis" stroke="rgb(0,0,0)" stroke-width="1">
	<line x1="66.5" y1="352" x2="458" y2="352"/>
	<line x1="66.5" y1="352" x2="458" y2="352"/>
</g>
	<g id="yMinorTicks" stroke="rgb(0,0,0)" stroke-width="1">
	<path d="M69.5,325 L71.5,325 
M69.5,298 L71.5,298 
M69.5,271 L71.5,271 
M69.5,244 L71.5,244 
M69.5,189 L71.5,189 
M69.5,162 L71.5,162 
M69.5,135 L71.5,135 
M69.5,107 L71.5,107 
M69.5,52.9 L71.5,52.9 
M69.5,25.6 L71.5,25.6 
M69.5,352 L71.5,352 
" fill="none"/>
</g>
	<g id="xMinorTicks" stroke="rgb(0,0,0)" stroke-width="1">
	<path d="M79.2,352 L79.2,354 
M87,352 L87,354 
M94.7,352 L94.7,354 
M102,352 L102,354 
M118,352 L118,354 
M126,352 L126,354 
M133,352 L133,354 
M141,352 L141,354 
M157,352 L157,354 
M164,352 L164,354 
M172,352 L172,354 
M180,352 L180,354 
M195,352 L195,354 
M203,352 L203,354 
M211,352 L211,354 
M218,352 L218,354 
M234,352 L234,354 
M242,352 L242,354 
M249,352 L249,354 
M257,352 L257,354 
M272,352 L272,354 
M280,352 L280,354 
M288,352 L288,354 
M296,352 L296,354 
M311,352 L311,354 
M319,352 L319,354 
M327,352 L327,354 
M334,352 L334,354 
M350,352 L350,354 
M358,352 L358,354 
M365,352 L365,354 
M373,352 L373,354 
M388,352 L388,354 
M396,352 L396,354 
M404,352 L404,354 
M412,352 L412,354 
M427,352 L427,354 
M435,352 L435,354 
M443,352 L443,354 
M450,352 L450,354 
" fill="none"/>
</g>
	<g id="yMajorTicks" stroke="rgb(0,0,0)" stroke-width="2">
	<path d="M66.5,352 L71.5,352 
M66.5,216 L71.5,216 
M66.5,80.1 L71.5,80.1 
M66.5,352 L71.5,352 
" fill="none"/>
</g>
	<g id="xMajorTicks" stroke="rgb(0,0,0)" stroke-width="2">
	<path d="M71.5,352 L71.5,358 
M110,352 L110,358 
M149,352 L149,358 
M187,352 L187,358 
M226,352 L226,358 
M265,352 L265,358 
M303,352 L303,358 
M342,352 L342,358 
M381,352 L381,358 
M419,352 L419,358 
M458,352 L458,358 
M71.5,352 L71.5,358 
" fill="none"/>
</g>
	<g id="xTicksValues" font-size="20" font-family="Lucida Sans Unicode" text-anchor="middle">
	<text x="71.5" y="373">0
	</text>
	<text x="110" y="373">2
	</text>
	<text x="149" y="373">4
	</text>
	<text x="187" y="373">6
	</text>
	<text x="226" y="373">8
	</text>
	<text x="265" y="373">10
	</text>
	<text x="303" y="373">12
	</text>
	<text x="342" y="373">14
	</text>
	<text x="381" y="373">16
	</text>
	<text x="419" y="373">18
	</text>
	<text x="458" y="373">20
	</text>
	<text x="71.5" y="373">0
	</text>
</g>
	<g id="yTicksValues" font-size="12" font-family="Lucida Sans Unicode" text-anchor="end">
	<text x="60.5" y="355">0
	</text>
	<text x="60.5" y="219">2
	</text>
	<text x="60.5" y="82.5">4
	</text>
	<text x="60.5" y="355">0
	</text>
</g>
	<g id="yLabel">
	<text x="45.8" y="182" text-anchor="middle" transform="rotate(-90 45.8 182)" font-size="10" font-family="Lucida Sans Unicode">y (large tick font size 20)
	</text>
</g>
	<g id="xLabel">
	<text x="265" y="391" text-anchor="middle" font-size="10" font-family="Lucida Sans Unicode">x (large tick font size 20)
	</text>
</g>
	<g id="plotPoints" clip-path="url(#plot_window)">
	<g stroke="rgb(255,0,0)" fill="rgb(255,255,255)" font-size="10" font-family="Lucida Sans Unicode" text-anchor="middle">
	<text x="90.8" y="287" text-anchor="middle">&#x25CF;
	</text>
	<text x="110" y="259" text-anchor="middle">&#x25CF;
	</text>
	<text x="129" y="237" text-anchor="middle">&#x25CF;
	</text>
	<text x="149" y="219" text-anchor="middle">&#x25CF;
	</text>
	<text x="168" y="203" text-anchor="middle">&#x25CF;
	</text>
	<text x="187" y="189" text-anchor="middle">&#x25CF;
	</text>
	<text x="207" y="175" text-anchor="middle">&#x25CF;
	</text>
	<text x="226" y="163" text-anchor="middle">&#x25CF;
	</text>
	<text x="245" y="151" text-anchor="middle">&#x25CF;
	</text>
	<text x="265" y="140" text-anchor="middle">&#x25CF;
	</text>
	<text x="284" y="130" text-anchor="middle">&#x25CF;
	</text>
	<text x="303" y="120" text-anchor="middle">&#x25CF;
	</text>
	<text x="323" y="110" text-anchor="middle">&#x25CF;
	</text>
	<text x="342" y="101" text-anchor="middle">&#x25CF;
	</text>
	<text x="361" y="91.7" text-anchor="middle">&#x25CF;
	</text>
	<text x="381" y="83" text-anchor="middle">&#x25CF;
	</text>
	<text x="400" y="74.7" text-anchor="middle">&#x25CF;
	</text>
	<text x="419" y="66.5" text-anchor="middle">&#x25CF;
	</text>
	<text x="439" y="58.6" text-anchor="middle">&#x25CF;
	</text>
</g>
</g>
	<g id="title">
	<text x="250" y="27" text-anchor="middle" font-size="18" font-family="Lucida Sans Unicode" font-weight="normal">
	</text>
</g>
	<g id="plotXValues">
</g>
	<g id="plotYValues">
</g>
</svg>
