<?xml version="1.0" encoding="UTF-8" standalone="no"?>
<svg width="700" height ="500" version="1.1"
xmlns:svg ="http://www.w3.org/2000/svg"
xmlns:rdf="http://www.w3.org/1999/02/22-rdf-syntax-ns#"
xmlns:cc="http://web.resource.org/cc/"
xmlns:dc="http://purl.org/dc/elements/1.1/"
xmlns ="http://www.w3.org/2000/svg"
>
<!-- SVG plot written using Boost.Plot program (Creator Jacob Voytko) --> 
<!-- Use, modification and distribution of Boost.Plot subject to the --> 
<!-- Boost Software License, Version 1.0.--> 
<!-- (See accompanying file LICENSE_1_0.txt --> 
<!-- or copy at http://www.boost.org/LICENSE_1_0.txt) --> 

<clipPath id="plot_window"><rect x="75.1" y="53.5" width="478" height="387"/></clipPath>
<g id="imageBackground" stroke="rgb(255,255,0)" fill="rgb(248,248,255)" stroke-width="2"><rect x="0" y="0" width="700" height="500"/></g>
<g id="plotBackground" stroke="rgb(0,128,0)" fill="rgb(255,255,255)" stroke-width="1"><rect x="74.1" y="52.5" width="480" height="389"/></g>
<g id="yMinorGrid" stroke="rgb(240,240,255)" stroke-width="1"><path d="M75.1,427 L553,427 M75.1,369 L553,369 M75.1,341 L553,341 M75.1,283 L553,283 M75.1,254 L553,254 M75.1,197 L553,197 M75.1,168 L553,168 M75.1,110 L553,110 M75.1,81.3 L553,81.3 " fill="none"/></g>
<g id="yMajorGrid" stroke="rgb(200,220,255)" stroke-width="2"><path d="M75.1,398 L553,398 M75.1,312 L553,312 M75.1,225 L553,225 M75.1,139 L553,139 M75.1,52.5 L553,52.5 " fill="none"/></g>
<g id="xMinorGrid" stroke="rgb(240,240,255)" stroke-width="0.5"><path d="M91.9,53.5 L91.9,441 M163,53.5 L163,441 M198,53.5 L198,441 M269,53.5 L269,441 M305,53.5 L305,441 M376,53.5 L376,441 M412,53.5 L412,441 M483,53.5 L483,441 M518,53.5 L518,441 " fill="none"/></g>
<g id="xMajorGrid" stroke="rgb(200,220,255)" stroke-width="1"><path d="M127,52.5 L127,442 M234,52.5 L234,442 M340,52.5 L340,442 M447,52.5 L447,442 M554,52.5 L554,442 " fill="none"/></g>
<g id="yAxis" stroke="rgb(0,0,0)" stroke-width="1"><line x1="74.1" y1="52.5" x2="74.1" y2="442"/></g>
<g id="xAxis" stroke="rgb(0,0,0)" stroke-width="1"><line x1="74.1" y1="442" x2="554" y2="442"/></g>
<g id="yMinorTicks" stroke="rgb(0,0,0)" stroke-width="1"><path d="M69.1,427 L74.1,427 M69.1,369 L74.1,369 M69.1,341 L74.1,341 M69.1,283 L74.1,283 M69.1,254 L74.1,254 M69.1,197 L74.1,197 M69.1,168 L74.1,168 M69.1,110 L74.1,110 M69.1,81.3 L74.1,81.3 " fill="none"/></g>
<g id="xMinorTicks" stroke="rgb(0,0,0)" stroke-width="1"><path d="M91.9,442 L91.9,447 M163,442 L163,447 M198,442 L198,447 M269,442 L269,447 M305,442 L305,447 M376,442 L376,447 M412,442 L412,447 M483,442 L483,447 M518,442 L518,447 " fill="none"/></g>
<g id="yMajorTicks" stroke="rgb(0,0,0)" stroke-width="2"><path d="M64.1,398 L74.1,398 M64.1,312 L74.1,312 M64.1,225 L74.1,225 M64.1,139 L74.1,139 M64.1,52.5 L74.1,52.5 " fill="none"/></g>
<g id="xMajorTicks" stroke="rgb(0,0,0)" stroke-width="2"><path d="M127,442 L127,452 M234,442 L234,452 M340,442 L340,452 M447,442 L447,452 M554,442 L554,452 " fill="none"/></g>
<g id="xTicksValues">
<text x="127" y="467" text-anchor="middle" font-size="12" font-family="Lucida Sans Unicode">2.00</text>
<text x="234" y="467" text-anchor="middle" font-size="12" font-family="Lucida Sans Unicode">4.00</text>
<text x="340" y="467" text-anchor="middle" font-size="12" font-family="Lucida Sans Unicode">6.00</text>
<text x="447" y="467" text-anchor="middle" font-size="12" font-family="Lucida Sans Unicode">8.00</text>
<text x="554" y="467" text-anchor="middle" font-size="12" font-family="Lucida Sans Unicode">1.00e1</text></g>
<g id="yTicksValues">
<text x="58.1" y="401" text-anchor="end" font-size="12" font-family="Lucida Sans Unicode">2.0</text>
<text x="58.1" y="314" text-anchor="end" font-size="12" font-family="Lucida Sans Unicode">4.0</text>
<text x="58.1" y="228" text-anchor="end" font-size="12" font-family="Lucida Sans Unicode">6.0</text>
<text x="58.1" y="141" text-anchor="end" font-size="12" font-family="Lucida Sans Unicode">8.0</text>
<text x="58.1" y="54.9" text-anchor="end" font-size="12" font-family="Lucida Sans Unicode">10.0</text></g>
<g id="yLabel">
<text x="23.9" y="247" text-anchor="middle" transform = "rotate(-90 23.9 247 )" font-size="14" font-family="Lucida Sans Unicode">Y-axis</text></g>
<g id="xLabel">
<text x="314" y="483" text-anchor="middle" font-size="14" font-family="Lucida Sans Unicode">X-axis</text></g>
<g id="plotLines" stroke-width="2"><g clip-path="url(#plot_window)" stroke="rgb(0,0,0)"><path d="M-512,-3.75e+03 S-469,-3.09e+03 -459,-2.93e+03 S-416,-2.33e+03 -405,-2.2e+03 S-363,-1.67e+03 -352,-1.55e+03 S-310,-1.09e+03 -299,-985 S-256,-596 -246,-509 S-203,-190 -192,-120 S-150,130 -139,182 S-96.4,364 -85.7,398 S-43.1,511 -32.5,528 S10.2,571 20.8,571 S63.4,545 74.1,528 S117,433 127,398 S170,234 181,182 S223,-51.2 234,-120 S277,-423 287,-509 S330,-881 340,-985 S383,-1.43e+03 394,-1.55e+03 S436,-2.06e+03 447,-2.2e+03 S490,-2.77e+03 500,-2.93e+03 S554,-3.83e+03 554,-3.75e+03 " fill="none"/></g>
</g>
<g id="plotPoints" clip-path="url(#plot_window)"><g stroke="rgb(0,0,0)" fill="rgb(255,0,0)"><circle cx="127" cy="424" r="2"/><circle cx="181" cy="410" r="2"/><circle cx="234" cy="398" r="2"/><circle cx="287" cy="388" r="2"/><circle cx="340" cy="379" r="2"/><circle cx="394" cy="370" r="2"/><circle cx="447" cy="362" r="2"/><circle cx="500" cy="355" r="2"/></g>
<g stroke="rgb(0,0,0)" fill="rgb(255,165,0)"><circle cx="127" cy="398" r="2"/><circle cx="181" cy="182" r="2"/></g>
<g stroke="rgb(0,0,0)" fill="rgb(255,255,0)"><rect x="125" y="353" width="5" height="5"/><rect x="178" y="266" width="5" height="5"/><rect x="231" y="180" width="5" height="5"/><rect x="285" y="93.2" width="5" height="5"/></g>
</g>
<g id="limitPoints" stroke="rgb(119,136,153)" fill="rgb(250,235,215)"><polygon points=" 69.1,432 79.1,432 74.1,442"/><polygon points=" 69.1,432 79.1,432 74.1,442"/><polygon points=" 69.1,432 79.1,432 74.1,442"/><polygon points=" 69.1,432 79.1,432 74.1,442"/><polygon points=" 69.1,432 79.1,432 74.1,442"/><polygon points=" 69.1,432 79.1,432 74.1,442"/><polygon points=" 69.1,432 79.1,432 74.1,442"/><polygon points=" 69.1,432 79.1,432 74.1,442"/><polygon points=" 69.1,432 79.1,432 74.1,442"/><polygon points=" 69.1,432 79.1,432 74.1,442"/></g>
<g id="legendBackground" stroke="rgb(255,255,0)" fill="rgb(255,255,224)" stroke-width="1"><rect x="568" y="52.5" width="130" height="144"/><rect x="568" y="52.5" width="130" height="144"/></g>
<g id="legendPoints"><g stroke="rgb(0,0,0)" fill="rgb(255,0,0)" stroke-width="2"><circle cx="584" cy="117" r="2"/></g>
<g stroke="rgb(0,0,0)" fill="rgb(255,165,0)" stroke-width="2"><circle cx="584" cy="149" r="2"/></g>
<g stroke="rgb(0,0,0)" fill="rgb(255,255,0)" stroke-width="3"><rect x="581" y="178" width="5" height="5"/></g>
</g>
<g id="legendText">
<text x="633" y="84.5" text-anchor="middle" font-size="16" font-family="Lucida Sans Unicode">Unicode &#x3A9;&#x3A6;</text>
<text x="608" y="117" font-size="16" font-family="Lucida Sans Unicode">Sqrt(x)</text>
<text x="608" y="149" font-size="16" font-family="Lucida Sans Unicode">-2 + x^2</text>
<text x="608" y="181" font-size="16" font-family="Lucida Sans Unicode">-1 + 2x</text></g>
<g id="title" fill="rgb(255,0,0)">
<text x="350" y="40" text-anchor="middle" font-size="20" font-family="Lucida Sans Unicode">Plot of Mathematical Functions XYP</text></g>
<g id="plotXValues"></g>
<g id="plotYValues"></g>
</svg>
