<?xml version="1.0" encoding="UTF-8" standalone="no"?>
<svg width="500" height ="400" version="1.1"
xmlns:svg ="http://www.w3.org/2000/svg"
xmlns:rdf="http://www.w3.org/1999/02/22-rdf-syntax-ns#"
xmlns:cc="http://web.resource.org/cc/"
xmlns:dc="http://purl.org/dc/elements/1.1/"
xmlns ="http://www.w3.org/2000/svg"
>
<!-- SVG plot written using Boost.Plot program (Creator Jacob Voytko) --> 
<!-- Use, modification and distribution of Boost.Plot subject to the --> 
<!-- Boost Software License, Version 1.0.--> 
<!-- (See accompanying file LICENSE_1_0.txt --> 
<!-- or copy at http://www.boost.org/LICENSE_1_0.txt) --> 

<clipPath id="plot_window"><rect x="51.8" y="40.5" width="421" height="312"/></clipPath>
<g id="imageBackground" stroke="rgb(255,255,0)" fill="rgb(255,255,255)" stroke-width="2"><rect x="0" y="0" width="500" height="400"/></g>
<g id="plotBackground" stroke="rgb(119,136,153)" fill="rgb(255,255,255)" stroke-width="2"><rect x="50.8" y="39.5" width="423" height="314"/></g>
<g id="yMinorGrid" stroke="rgb(200,220,255)" stroke-width="0.5"></g>
<g id="yMajorGrid" stroke="rgb(200,220,255)" stroke-width="1"></g>
<g id="xMinorGrid" stroke="rgb(200,220,255)" stroke-width="0.5"></g>
<g id="xMajorGrid" stroke="rgb(200,220,255)" stroke-width="1"></g>
<g id="yAxis" stroke="rgb(0,0,0)" stroke-width="1"><line x1="192" y1="39.5" x2="192" y2="359"/><line x1="50.8" y1="39.5" x2="50.8" y2="354"/></g>
<g id="xAxis" stroke="rgb(0,0,0)" stroke-width="1"><line x1="45.8" y1="197" x2="474" y2="197"/><line x1="45.8" y1="354" x2="474" y2="354"/></g>
<g id="yMinorTicks" stroke="rgb(0,0,0)" stroke-width="1"><path d="M48.8,190 L50.8,190 M48.8,184 L50.8,184 M48.8,178 L50.8,178 M48.8,172 L50.8,172 M48.8,159 L50.8,159 M48.8,153 L50.8,153 M48.8,146 L50.8,146 M48.8,140 L50.8,140 M48.8,128 L50.8,128 M48.8,121 L50.8,121 M48.8,115 L50.8,115 M48.8,109 L50.8,109 M48.8,96.1 L50.8,96.1 M48.8,89.8 L50.8,89.8 M48.8,83.5 L50.8,83.5 M48.8,77.2 L50.8,77.2 M48.8,64.7 L50.8,64.7 M48.8,58.4 L50.8,58.4 M48.8,52.1 L50.8,52.1 M48.8,45.8 L50.8,45.8 M48.8,197 L50.8,197 M48.8,203 L50.8,203 M48.8,209 L50.8,209 M48.8,216 L50.8,216 M48.8,222 L50.8,222 M48.8,228 L50.8,228 M48.8,234 L50.8,234 M48.8,241 L50.8,241 M48.8,247 L50.8,247 M48.8,253 L50.8,253 M48.8,260 L50.8,260 M48.8,260 L50.8,260 M48.8,266 L50.8,266 M48.8,272 L50.8,272 M48.8,279 L50.8,279 M48.8,285 L50.8,285 M48.8,291 L50.8,291 M48.8,297 L50.8,297 M48.8,304 L50.8,304 M48.8,310 L50.8,310 M48.8,316 L50.8,316 M48.8,323 L50.8,323 M48.8,329 L50.8,329 M48.8,335 L50.8,335 M48.8,341 L50.8,341 M48.8,348 L50.8,348 M48.8,354 L50.8,354 " fill="none"/></g>
<g id="xMinorTicks" stroke="rgb(0,0,0)" stroke-width="1"><path d="M203,354 L203,356 M214,354 L214,356 M226,354 L226,356 M237,354 L237,356 M260,354 L260,356 M271,354 L271,356 M282,354 L282,356 M293,354 L293,356 M316,354 L316,356 M327,354 L327,356 M339,354 L339,356 M350,354 L350,356 M372,354 L372,356 M384,354 L384,356 M395,354 L395,356 M406,354 L406,356 M429,354 L429,356 M440,354 L440,356 M451,354 L451,356 M463,354 L463,356 M181,354 L181,356 M169,354 L169,356 M158,354 L158,356 M147,354 L147,356 M124,354 L124,356 M113,354 L113,356 M102,354 L102,356 M90.3,354 L90.3,356 M67.7,354 L67.7,356 M56.4,354 L56.4,356 " fill="none"/></g>
<g id="yMajorTicks" stroke="rgb(0,0,0)" stroke-width="2"><path d="M45.8,197 L50.8,197 M45.8,165 L50.8,165 M45.8,134 L50.8,134 M45.8,102 L50.8,102 M45.8,71 L50.8,71 M45.8,39.5 L50.8,39.5 M45.8,197 L50.8,197 M45.8,228 L50.8,228 M45.8,260 L50.8,260 M45.8,291 L50.8,291 M45.8,323 L50.8,323 M45.8,354 L50.8,354 " fill="none"/></g>
<g id="xMajorTicks" stroke="rgb(0,0,0)" stroke-width="2"><path d="M192,354 L192,359 M248,354 L248,359 M305,354 L305,359 M361,354 L361,359 M418,354 L418,359 M474,354 L474,359 M192,354 L192,359 M135,354 L135,359 M79,354 L79,359 " fill="none"/></g>
<g id="xTicksValues">
<text x="192" y="375" text-anchor="middle" font-size="12" font-family="Lucida Sans Unicode">0</text>
<text x="248" y="375" text-anchor="middle" font-size="12" font-family="Lucida Sans Unicode">2</text>
<text x="305" y="375" text-anchor="middle" font-size="12" font-family="Lucida Sans Unicode">4</text>
<text x="361" y="375" text-anchor="middle" font-size="12" font-family="Lucida Sans Unicode">6</text>
<text x="418" y="375" text-anchor="middle" font-size="12" font-family="Lucida Sans Unicode">8</text>
<text x="474" y="375" text-anchor="middle" font-size="12" font-family="Lucida Sans Unicode">10</text>
<text x="192" y="375" text-anchor="middle" font-size="12" font-family="Lucida Sans Unicode">0</text>
<text x="135" y="375" text-anchor="middle" font-size="12" font-family="Lucida Sans Unicode">-2</text>
<text x="79" y="375" text-anchor="middle" font-size="12" font-family="Lucida Sans Unicode">-4</text></g>
<g id="yTicksValues">
<text x="39.8" y="199" text-anchor="end" font-size="12" font-family="Lucida Sans Unicode">0</text>
<text x="39.8" y="168" text-anchor="end" font-size="12" font-family="Lucida Sans Unicode">2</text>
<text x="39.8" y="136" text-anchor="end" font-size="12" font-family="Lucida Sans Unicode">4</text>
<text x="39.8" y="105" text-anchor="end" font-size="12" font-family="Lucida Sans Unicode">6</text>
<text x="39.8" y="73.4" text-anchor="end" font-size="12" font-family="Lucida Sans Unicode">8</text>
<text x="39.8" y="41.9" text-anchor="end" font-size="12" font-family="Lucida Sans Unicode">10</text>
<text x="39.8" y="199" text-anchor="end" font-size="12" font-family="Lucida Sans Unicode">0</text>
<text x="39.8" y="231" text-anchor="end" font-size="12" font-family="Lucida Sans Unicode">-2</text>
<text x="39.8" y="262" text-anchor="end" font-size="12" font-family="Lucida Sans Unicode">-4</text>
<text x="39.8" y="294" text-anchor="end" font-size="12" font-family="Lucida Sans Unicode">-6</text>
<text x="39.8" y="325" text-anchor="end" font-size="12" font-family="Lucida Sans Unicode">-8</text>
<text x="39.8" y="356" text-anchor="end" font-size="12" font-family="Lucida Sans Unicode">-10</text></g>
<g id="yLabel">
<text x="14.9" y="197" text-anchor="middle" transform = "rotate(-90 14.9 197 )" font-size="14" font-family="Lucida Sans Unicode"></text></g>
<g id="xLabel">
<text x="262" y="387" text-anchor="middle" font-size="12" font-family="Lucida Sans Unicode">length (m)</text></g>
<g id="plotPoints" clip-path="url(#plot_window)"><g stroke="rgb(0,0,0)" fill="rgb(255,255,255)">
<text x="252" y="160" text-anchor="middle" font-size="5" font-family="Lucida Sans Unicode">&#x25CB;</text>
<text x="346" y="114" text-anchor="middle" font-size="5" font-family="Lucida Sans Unicode">&#x25CB;</text></g>
</g>
<g id="title">
<text x="250" y="27" text-anchor="middle" font-size="18" font-family="Lucida Sans Unicode" font-weight="normal">Default 2d Values Demo</text></g>
<g id="plotXValues" fill="rgb(255,0,0)"><g>
<text x="257" y="163" font-size="16" font-family="Times New Roman">2.12<tspan fill="rgb(0,0,0)" font-size="14" font-family="Times New Roman">&#x00A0;(0)</tspan><tspan fill="rgb(0,0,0)" font-size="16" font-family="Times New Roman"></tspan><tspan fill="rgb(0,0,0)" font-size="14" font-family="Times New Roman"></tspan><tspan font-size="14" font-family="Arial">2.4394</tspan><tspan fill="rgb(0,0,0)" font-size="12" font-family="Times New Roman">&#x00A0;(1)</tspan></text></g>
<g>
<text x="352" y="117" font-size="16" font-family="Times New Roman">5.47<tspan fill="rgb(0,0,0)" font-size="14" font-family="Times New Roman">&#x00A0;(0)</tspan><tspan fill="rgb(0,0,0)" font-size="16" font-family="Times New Roman"></tspan><tspan fill="rgb(0,0,0)" font-size="14" font-family="Times New Roman"></tspan><tspan font-size="14" font-family="Arial">5.3861</tspan><tspan fill="rgb(0,0,0)" font-size="12" font-family="Times New Roman">&#x00A0;(1)</tspan></text></g>
</g>
<g id="plotYValues" fill="rgb(0,0,255)"></g>
</svg>
