<?xml version="1.0" encoding="UTF-8" standalone="no"?>
<svg width="500" height ="400" version="1.1"
xmlns:svg ="http://www.w3.org/2000/svg"
xmlns:rdf="http://www.w3.org/1999/02/22-rdf-syntax-ns#"
xmlns:cc="http://web.resource.org/cc/"
xmlns:dc="http://purl.org/dc/elements/1.1/"
xmlns ="http://www.w3.org/2000/svg"
>
<!-- SVG plot written using Boost.Plot program (Creator Jacob Voytko) --> 
<!-- Use, modification and distribution of Boost.Plot subject to the --> 
<!-- Boost Software License, Version 1.0.--> 
<!-- (See accompanying file LICENSE_1_0.txt --> 
<!-- or copy at http://www.boost.org/LICENSE_1_0.txt) --> 

<clipPath id="plot_window"><rect x="25.3" y="48.5" width="471" height="325"/></clipPath>
<g id="imageBackground" stroke="rgb(255,255,0)" fill="rgb(255,255,255)" stroke-width="2"><rect x="0" y="0" width="500" height="400"/></g>
<g id="plotBackground" stroke="rgb(119,136,153)" fill="rgb(255,255,255)" stroke-width="2"><rect x="24.3" y="47.5" width="473" height="327"/></g>
<g id="yMinorGrid" stroke="rgb(200,220,255)" stroke-width="0.5"></g>
<g id="yMajorGrid" stroke="rgb(200,220,255)" stroke-width="1"></g>
<g id="xMinorGrid" stroke="rgb(200,220,255)" stroke-width="0.5"></g>
<g id="xMajorGrid" stroke="rgb(200,220,255)" stroke-width="1"></g>
<g id="yAxis" stroke="rgb(0,0,0)" stroke-width="1"><line x1="24.3" y1="47.5" x2="24.3" y2="375"/></g>
<g id="xAxis" stroke="rgb(0,0,0)" stroke-width="1"><line x1="24.3" y1="375" x2="498" y2="375"/></g>
<g id="yMinorTicks" stroke="rgb(0,0,0)" stroke-width="1"><path d="M22.3,366 L24.3,366 M22.3,358 L24.3,358 M22.3,350 L24.3,350 M22.3,342 L24.3,342 M22.3,325 L24.3,325 M22.3,317 L24.3,317 M22.3,309 L24.3,309 M22.3,301 L24.3,301 M22.3,285 L24.3,285 M22.3,276 L24.3,276 M22.3,268 L24.3,268 M22.3,260 L24.3,260 M22.3,244 L24.3,244 M22.3,236 L24.3,236 M22.3,227 L24.3,227 M22.3,219 L24.3,219 M22.3,203 L24.3,203 M22.3,195 L24.3,195 M22.3,186 L24.3,186 M22.3,178 L24.3,178 M22.3,162 L24.3,162 M22.3,154 L24.3,154 M22.3,146 L24.3,146 M22.3,137 L24.3,137 M22.3,121 L24.3,121 M22.3,113 L24.3,113 M22.3,105 L24.3,105 M22.3,96.6 L24.3,96.6 M22.3,80.2 L24.3,80.2 M22.3,72 L24.3,72 M22.3,63.9 L24.3,63.9 M22.3,55.7 L24.3,55.7 " fill="none"/></g>
<g id="xMinorTicks" stroke="rgb(0,0,0)" stroke-width="1"><path d="M37.8,375 L37.8,377 M51.3,375 L51.3,377 M64.9,375 L64.9,377 M78.4,375 L78.4,377 M105,375 L105,377 M119,375 L119,377 M132,375 L132,377 M146,375 L146,377 M173,375 L173,377 M187,375 L187,377 M200,375 L200,377 M214,375 L214,377 M241,375 L241,377 M254,375 L254,377 M268,375 L268,377 M281,375 L281,377 M308,375 L308,377 M322,375 L322,377 M335,375 L335,377 M349,375 L349,377 M376,375 L376,377 M389,375 L389,377 M403,375 L403,377 M416,375 L416,377 M443,375 L443,377 M457,375 L457,377 M470,375 L470,377 M484,375 L484,377 " fill="none"/></g>
<g id="yMajorTicks" stroke="rgb(0,0,0)" stroke-width="2"><path d="M19.3,375 L24.3,375 M19.3,334 L24.3,334 M19.3,293 L24.3,293 M19.3,252 L24.3,252 M19.3,211 L24.3,211 M19.3,170 L24.3,170 M19.3,129 L24.3,129 M19.3,88.4 L24.3,88.4 M19.3,47.5 L24.3,47.5 " fill="none"/></g>
<g id="xMajorTicks" stroke="rgb(0,0,0)" stroke-width="2"><path d="M24.3,375 L24.3,380 M91.9,375 L91.9,380 M160,375 L160,380 M227,375 L227,380 M295,375 L295,380 M362,375 L362,380 M430,375 L430,380 M497,375 L497,380 " fill="none"/></g>
<g id="xTicksValues">
<text x="24.3" y="395" text-anchor="middle" font-size="12" font-family="Lucida Sans Unicode">1</text>
<text x="91.9" y="395" text-anchor="middle" font-size="12" font-family="Lucida Sans Unicode">2</text>
<text x="160" y="395" text-anchor="middle" font-size="12" font-family="Lucida Sans Unicode">3</text>
<text x="227" y="395" text-anchor="middle" font-size="12" font-family="Lucida Sans Unicode">4</text>
<text x="295" y="395" text-anchor="middle" font-size="12" font-family="Lucida Sans Unicode">5</text>
<text x="362" y="395" text-anchor="middle" font-size="12" font-family="Lucida Sans Unicode">6</text>
<text x="430" y="395" text-anchor="middle" font-size="12" font-family="Lucida Sans Unicode">7</text>
<text x="497" y="395" text-anchor="middle" font-size="12" font-family="Lucida Sans Unicode">8</text></g>
<g id="yTicksValues">
<text x="13.3" y="377" text-anchor="end" font-size="12" font-family="Lucida Sans Unicode">2</text>
<text x="13.3" y="336" text-anchor="end" font-size="12" font-family="Lucida Sans Unicode">3</text>
<text x="13.3" y="295" text-anchor="end" font-size="12" font-family="Lucida Sans Unicode">4</text>
<text x="13.3" y="254" text-anchor="end" font-size="12" font-family="Lucida Sans Unicode">5</text>
<text x="13.3" y="213" text-anchor="end" font-size="12" font-family="Lucida Sans Unicode">6</text>
<text x="13.3" y="173" text-anchor="end" font-size="12" font-family="Lucida Sans Unicode">7</text>
<text x="13.3" y="132" text-anchor="end" font-size="12" font-family="Lucida Sans Unicode">8</text>
<text x="13.3" y="90.8" text-anchor="end" font-size="12" font-family="Lucida Sans Unicode">9</text>
<text x="13.3" y="49.9" text-anchor="end" font-size="12" font-family="Lucida Sans Unicode">10</text></g>
<g id="yLabel">
<text x="-8.6" y="211" text-anchor="middle" transform = "rotate(-90 -8.6 211 )" font-size="14" font-family="Lucida Sans Unicode"></text></g>
<g id="xLabel">
<text x="261" y="410" text-anchor="middle" font-size="14" font-family="Lucida Sans Unicode"></text></g>
<g id="plotPoints" clip-path="url(#plot_window)"><g stroke="rgb(0,0,0)" fill="rgb(255,255,255)"><circle cx="31.1" cy="325" r="3"/><circle cx="100" cy="357" r="3"/><circle cx="326" cy="236" r="3"/><circle cx="450" cy="84.3" r="3"/></g>
</g>
<g id="title">
<text x="250" y="36" text-anchor="middle" font-size="18" font-family="Lucida Sans Unicode">Autoscaling 2d Values</text></g>
<g id="plotXValues"></g>
<g id="plotYValues"></g>
</svg>
