<?xml version="1.0" encoding="UTF-8" standalone="no"?>
<svg width="500" height ="200" version="1.1"
xmlns:svg ="http://www.w3.org/2000/svg"
xmlns:rdf="http://www.w3.org/1999/02/22-rdf-syntax-ns#"
xmlns:cc="http://web.resource.org/cc/"
xmlns:dc="http://purl.org/dc/elements/1.1/"
xmlns ="http://www.w3.org/2000/svg"
>
<!-- SVG plot written using Boost.Plot program (Creator Jacob Voytko) --> 
<!-- Use, modification and distribution of Boost.Plot subject to the --> 
<!-- Boost Software License, Version 1.0.--> 
<!-- (See accompanying file LICENSE_1_0.txt --> 
<!-- or copy at http://www.boost.org/LICENSE_1_0.txt) --> 

<!-- File demo_colors.svg --> 
<g id="imageBackground" stroke="rgb(255,255,0)" fill="rgb(255,255,255)" stroke-width="1"><rect x="0" y="0" width="500" height="200"/></g>
<g id="plotBackground" stroke="rgb(250,250,210)" fill="rgb(255,255,255)" stroke-width="1"><rect x="11" y="56" width="389" height="100"/></g>
<g id="xMinorGrid" stroke="rgb(200,220,255)" stroke-width="0.5"></g>
<g id="xMajorGrid" stroke="rgb(200,220,255)" stroke-width="1"></g>
<g id="xAxis" stroke="rgb(0,0,255)" stroke-width="1"><line x1="11" y1="56" x2="11" y2="156"/><line x1="11" y1="109" x2="400" y2="109"/></g>
<g id="xMinorTicks" stroke="rgb(0,0,0)" stroke-width="1"><path d="M33.2,109 L33.2,111 M55.5,109 L55.5,111 M77.7,109 L77.7,111 M100,109 L100,111 M144,109 L144,111 M167,109 L167,111 M189,109 L189,111 M211,109 L211,111 M256,109 L256,111 M278,109 L278,111 M300,109 L300,111 M322,109 L322,111 M367,109 L367,111 M389,109 L389,111 " fill="none"/></g>
<g id="xMajorTicks" stroke="rgb(0,0,0)" stroke-width="2"><path d="M11,109 L11,114 M122,109 L122,114 M233,109 L233,114 M345,109 L345,114 M11,109 L11,114 " fill="none"/></g>
<g id="xTicksValues">
<text x="122" y="129" text-anchor="middle" font-size="12" font-family="Verdana">2</text>
<text x="233" y="129" text-anchor="middle" font-size="12" font-family="Verdana">4</text>
<text x="345" y="129" text-anchor="middle" font-size="12" font-family="Verdana">6</text></g>
<g id="xLabel" stroke="rgb(255,0,255)" fill="rgb(255,0,255)">
<text x="206" y="180" text-anchor="middle" font-size="14" font-family="Verdana">axis</text></g>
<g id="plotPoints"><g stroke="rgb(0,0,0)"><line x1="66.6" y1="111" x2="66.6" y2="101"/><line x1="122" y1="111" x2="122" y2="101"/><line x1="178" y1="111" x2="178" y2="101"/></g>
</g>
<g id="legendBackground" stroke="rgb(255,255,0)" fill="rgb(255,255,255)" stroke-width="1"><rect x="409" y="56" width="97.1" height="79.6"/></g>
<g id="legendPoints"><g stroke="rgb(0,0,0)" stroke-width="2"><line x1="422" y1="113" x2="422" y2="103"/></g>
</g>
<g id="legendText">
<text x="457" y="87" text-anchor="middle" font-size="14" font-family="Verdana">Legend title</text>
<text x="441" y="108" font-size="14" font-family="Verdana">My Data</text></g>
<g id="title">
<text x="250" y="36" text-anchor="middle" font-size="18" font-family="Verdana">Demo SVG colors</text></g>
</svg>
