<?xml version="1.0" encoding="UTF-8" standalone="no"?>
<svg width="500" height ="200" version="1.1"
xmlns:svg ="http://www.w3.org/2000/svg"
xmlns:rdf="http://www.w3.org/1999/02/22-rdf-syntax-ns#"
xmlns:cc="http://web.resource.org/cc/"
xmlns:dc="http://purl.org/dc/elements/1.1/"
xmlns ="http://www.w3.org/2000/svg"
>
<!-- SVG plot written using Boost.Plot program (Creator Jacob Voytko) --> 
<!-- Use, modification and distribution of Boost.Plot subject to the --> 
<!-- Boost Software License, Version 1.0.--> 
<!-- (See accompanying file LICENSE_1_0.txt --> 
<!-- or copy at http://www.boost.org/LICENSE_1_0.txt) --> 

<!-- File ./demo_1d_x_external.svg --> 
<g id="imageBackground" stroke="rgb(0,0,0)" fill="rgb(255,255,255)" stroke-width="1"><rect x="0" y="0" width="500" height="200"/></g>
<g id="plotBackground" stroke="rgb(250,250,210)" fill="rgb(255,255,255)" stroke-width="1"><rect x="11" y="56" width="399" height="128"/></g>
<g id="xMinorGrid" stroke="rgb(211,211,211)" stroke-width="0.5"><path d="M61.8,57 L61.8,183 M76.3,57 L76.3,183 M90.8,57 L90.8,183 M105,57 L105,183 M134,57 L134,183 M149,57 L149,183 M163,57 L163,183 M178,57 L178,183 M207,57 L207,183 M221,57 L221,183 M236,57 L236,183 M250,57 L250,183 M279,57 L279,183 M294,57 L294,183 M308,57 L308,183 M323,57 L323,183 M352,57 L352,183 M366,57 L366,183 M381,57 L381,183 M395,57 L395,183 M32.8,57 L32.8,183 M18.3,57 L18.3,183 " fill="none"/></g>
<g id="xMajorGrid" stroke="rgb(255,192,203)" stroke-width="1"><path d="M47.3,56 L47.3,184 M120,56 L120,184 M192,56 L192,184 M265,56 L265,184 M337,56 L337,184 M410,56 L410,184 M47.3,56 L47.3,184 " fill="none"/></g>
<g id="xAxis" stroke="rgb(0,0,0)" stroke-width="1"><line x1="47.3" y1="56" x2="47.3" y2="184"/><line x1="11" y1="123" x2="410" y2="123"/><line x1="11" y1="56" x2="410" y2="56"/></g>
<g id="xMinorTicks" stroke="rgb(0,0,0)" stroke-width="1"><path d="M61.8,56 L61.8,58 M76.3,56 L76.3,58 M90.8,56 L90.8,58 M105,56 L105,58 M134,56 L134,58 M149,56 L149,58 M163,56 L163,58 M178,56 L178,58 M207,56 L207,58 M221,56 L221,58 M236,56 L236,58 M250,56 L250,58 M279,56 L279,58 M294,56 L294,58 M308,56 L308,58 M323,56 L323,58 M352,56 L352,58 M366,56 L366,58 M381,56 L381,58 M395,56 L395,58 M32.8,56 L32.8,58 M18.3,56 L18.3,58 " fill="none"/></g>
<g id="xMajorTicks" stroke="rgb(0,0,0)" stroke-width="2"><path d="M47.3,56 L47.3,61 M120,56 L120,61 M192,56 L192,61 M265,56 L265,61 M337,56 L337,61 M410,56 L410,61 M47.3,56 L47.3,61 " fill="none"/></g>
<g id="xTicksValues">
<text x="47.3" y="76.6" text-anchor="middle" font-size="12" font-family="Verdana">0</text>
<text x="120" y="76.6" text-anchor="middle" font-size="12" font-family="Verdana">2</text>
<text x="192" y="76.6" text-anchor="middle" font-size="12" font-family="Verdana">4</text>
<text x="265" y="76.6" text-anchor="middle" font-size="12" font-family="Verdana">6</text>
<text x="337" y="76.6" text-anchor="middle" font-size="12" font-family="Verdana">8</text>
<text x="410" y="76.6" text-anchor="middle" font-size="12" font-family="Verdana">10</text>
<text x="47.3" y="76.6" text-anchor="middle" font-size="12" font-family="Verdana">0</text></g>
<g id="xLabel">
<text x="210" y="208" text-anchor="middle" font-size="14" font-family="Verdana"></text></g>
<g id="plotPoints"><g stroke="rgb(0,0,255)"><line x1="160" y1="125" x2="160" y2="115"/><line x1="200" y1="125" x2="200" y2="115"/></g>
<g stroke="rgb(255,165,0)"><line x1="123" y1="125" x2="123" y2="115"/><line x1="330" y1="125" x2="330" y2="115"/></g>
</g>
<g id="legendBackground" stroke="rgb(255,255,0)" fill="rgb(255,255,255)" stroke-width="1"><rect x="418" y="56" width="87.6" height="41.2"/></g>
<g id="legendPoints"><g stroke="rgb(0,0,255)" stroke-width="2"><line x1="432" y1="99" x2="432" y2="89"/></g>
<g stroke="rgb(255,165,0)" stroke-width="2"><line x1="432" y1="106" x2="432" y2="96.2"/></g>
</g>
<g id="legendText">
<text x="434" y="94" font-size="14" font-family="Verdana">Dan</text>
<text x="434" y="101" font-size="14" font-family="Verdana">Elaine</text></g>
<g id="title">
<text x="250" y="36" text-anchor="middle" font-size="18" font-family="Verdana">Race Times</text></g>
</svg>
