<?xml version="1.0" encoding="UTF-8" standalone="no"?>
<svg width="500" height ="200" version="1.1"
xmlns:svg ="http://www.w3.org/2000/svg"
xmlns:rdf="http://www.w3.org/1999/02/22-rdf-syntax-ns#"
xmlns:cc="http://web.resource.org/cc/"
xmlns:dc="http://purl.org/dc/elements/1.1/"
xmlns ="http://www.w3.org/2000/svg"
>
<!-- SVG plot written using Boost.Plot program (Creator Jacob Voytko) --> 
<!-- Use, modification and distribution of Boost.Plot subject to the --> 
<!-- Boost Software License, Version 1.0.--> 
<!-- (See accompanying file LICENSE_1_0.txt --> 
<!-- or copy at http://www.boost.org/LICENSE_1_0.txt) --> 

<!-- File ./demo_1d_simple.svg --> 
<g id="imageBackground" stroke="rgb(255,255,0)" fill="rgb(255,255,255)" stroke-width="1"><rect x="0" y="0" width="500" height="200"/></g>
<g id="plotBackground" stroke="rgb(250,250,210)" fill="rgb(255,255,255)" stroke-width="1"><rect x="11" y="56" width="399" height="100"/></g>
<g id="xMinorGrid" stroke="rgb(200,220,255)" stroke-width="0.5"></g>
<g id="xMajorGrid" stroke="rgb(200,220,255)" stroke-width="1"></g>
<g id="xAxis" stroke="rgb(0,0,0)" stroke-width="1"><line x1="44.2" y1="56" x2="44.2" y2="156"/><line x1="11" y1="109" x2="410" y2="109"/></g>
<g id="xMinorTicks" stroke="rgb(0,0,0)" stroke-width="1"><path d="M57.5,109 L57.5,111 M70.8,109 L70.8,111 M84.1,109 L84.1,111 M97.4,109 L97.4,111 M124,109 L124,111 M137,109 L137,111 M151,109 L151,111 M164,109 L164,111 M190,109 L190,111 M204,109 L204,111 M217,109 L217,111 M230,109 L230,111 M257,109 L257,111 M270,109 L270,111 M284,109 L284,111 M297,109 L297,111 M323,109 L323,111 M337,109 L337,111 M350,109 L350,111 M363,109 L363,111 M390,109 L390,111 M403,109 L403,111 M30.9,109 L30.9,111 M17.6,109 L17.6,111 " fill="none"/></g>
<g id="xMajorTicks" stroke="rgb(0,0,0)" stroke-width="2"><path d="M44.2,109 L44.2,114 M111,109 L111,114 M177,109 L177,114 M244,109 L244,114 M310,109 L310,114 M377,109 L377,114 M44.2,109 L44.2,114 " fill="none"/></g>
<g id="xTicksValues">
<text x="111" y="129" text-anchor="middle" font-size="12" font-family="Verdana">2</text>
<text x="177" y="129" text-anchor="middle" font-size="12" font-family="Verdana">4</text>
<text x="244" y="129" text-anchor="middle" font-size="12" font-family="Verdana">6</text>
<text x="310" y="129" text-anchor="middle" font-size="12" font-family="Verdana">8</text>
<text x="377" y="129" text-anchor="middle" font-size="12" font-family="Verdana">10</text></g>
<g id="xLabel">
<text x="210" y="180" text-anchor="middle" font-size="14" font-family="Verdana">time (sec)</text></g>
<g id="plotPoints"><g stroke="rgb(0,0,255)"><line x1="147" y1="111" x2="147" y2="101"/><line x1="184" y1="111" x2="184" y2="101"/></g>
<g stroke="rgb(255,165,0)"><line x1="114" y1="111" x2="114" y2="101"/><line x1="303" y1="111" x2="303" y2="101"/></g>
</g>
<g id="legendBackground" stroke="rgb(255,255,0)" fill="rgb(255,255,255)" stroke-width="1"><rect x="418" y="56" width="87.6" height="41.2"/></g>
<g id="legendPoints"><g stroke="rgb(0,0,255)" stroke-width="2"><line x1="432" y1="99" x2="432" y2="89"/></g>
<g stroke="rgb(255,165,0)" stroke-width="2"><line x1="432" y1="106" x2="432" y2="96.2"/></g>
</g>
<g id="legendText">
<text x="434" y="94" font-size="14" font-family="Verdana">Dan</text>
<text x="434" y="101" font-size="14" font-family="Verdana">Elaine</text></g>
<g id="title">
<text x="250" y="36" text-anchor="middle" font-size="18" font-family="Verdana">Race Times</text></g>
</svg>
