<?xml version="1.0" encoding="UTF-8" standalone="no"?>
<svg width="700" height ="500" version="1.1"
xmlns:svg ="http://www.w3.org/2000/svg"
xmlns:rdf="http://www.w3.org/1999/02/22-rdf-syntax-ns#"
xmlns:cc="http://web.resource.org/cc/"
xmlns:dc="http://purl.org/dc/elements/1.1/"
xmlns ="http://www.w3.org/2000/svg"
>
<!-- SVG plot written using Boost.Plot program (Creator Jacob Voytko) --> 
<!-- Use, modification and distribution of Boost.Plot subject to the --> 
<!-- Boost Software License, Version 1.0.--> 
<!-- (See accompanying file LICENSE_1_0.txt --> 
<!-- or copy at http://www.boost.org/LICENSE_1_0.txt) --> 

<clipPath id="plot_window"><rect x="54.5" y="44" width="501" height="422"/></clipPath>
<g id="imageBackground" stroke="rgb(255,255,0)" fill="rgb(248,248,255)" stroke-width="2"><rect x="0" y="0" width="700" height="500"/></g>
<g id="plotBackground" stroke="rgb(0,128,0)" fill="rgb(255,255,255)" stroke-width="1"><rect x="53.5" y="43" width="503" height="424"/></g>
<g id="yMinorGrid" stroke="rgb(240,240,255)" stroke-width="1"><path d="M54.5,241 L556,241 M54.5,227 L556,227 M54.5,198 L556,198 M54.5,184 L556,184 M54.5,156 L556,156 M54.5,142 L556,142 M54.5,114 L556,114 M54.5,99.5 L556,99.5 M54.5,71.3 L556,71.3 M54.5,57.1 L556,57.1 M54.5,269 L556,269 M54.5,283 L556,283 M54.5,297 L556,297 M54.5,312 L556,312 M54.5,326 L556,326 M54.5,340 L556,340 M54.5,340 L556,340 M54.5,354 L556,354 M54.5,368 L556,368 M54.5,382 L556,382 M54.5,396 L556,396 M54.5,410 L556,410 M54.5,425 L556,425 M54.5,439 L556,439 M54.5,453 L556,453 M54.5,467 L556,467 M54.5,467 L556,467 " fill="none"/></g>
<g id="yMajorGrid" stroke="rgb(200,220,255)" stroke-width="2"><path d="M54.5,213 L556,213 M54.5,170 L556,170 M54.5,128 L556,128 M54.5,85.4 L556,85.4 M54.5,43 L556,43 M54.5,297 L556,297 M54.5,340 L556,340 M54.5,382 L556,382 M54.5,425 L556,425 M54.5,467 L556,467 " fill="none"/></g>
<g id="xMinorGrid" stroke="rgb(240,240,255)" stroke-width="0.5"><path d="M322,44 L322,466 M339,44 L339,466 M372,44 L372,466 M389,44 L389,466 M423,44 L423,466 M439,44 L439,466 M473,44 L473,466 M490,44 L490,466 M523,44 L523,466 M540,44 L540,466 M288,44 L288,466 M272,44 L272,466 M238,44 L238,466 M221,44 L221,466 M188,44 L188,466 M171,44 L171,466 M137,44 L137,466 M121,44 L121,466 M87,44 L87,466 M70.3,44 L70.3,466 " fill="none"/></g>
<g id="xMajorGrid" stroke="rgb(200,220,255)" stroke-width="1"><path d="M355,43 L355,467 M406,43 L406,467 M456,43 L456,467 M506,43 L506,467 M557,43 L557,467 M255,43 L255,467 M204,43 L204,467 M154,43 L154,467 M104,43 L104,467 M53.5,43 L53.5,467 " fill="none"/></g>
<g id="yAxis" stroke="rgb(0,0,0)" stroke-width="1"><line x1="305" y1="43" x2="305" y2="467"/><line x1="557" y1="43" x2="557" y2="467"/></g>
<g id="xAxis" stroke="rgb(0,0,0)" stroke-width="1"><line x1="53.5" y1="255" x2="557" y2="255"/></g>
<g id="yMinorTicks" stroke="rgb(0,0,0)" stroke-width="1"><path d="M300,241 L305,241 M300,227 L305,227 M300,198 L305,198 M300,184 L305,184 M300,156 L305,156 M300,142 L305,142 M300,114 L305,114 M300,99.5 L305,99.5 M300,71.3 L305,71.3 M300,57.1 L305,57.1 M300,269 L305,269 M300,283 L305,283 M300,297 L305,297 M300,312 L305,312 M300,326 L305,326 M300,340 L305,340 M300,340 L305,340 M300,354 L305,354 M300,368 L305,368 M300,382 L305,382 M300,396 L305,396 M300,410 L305,410 M300,425 L305,425 M300,439 L305,439 M300,453 L305,453 M300,467 L305,467 M300,467 L305,467 " fill="none"/></g>
<g id="xMinorTicks" stroke="rgb(0,0,0)" stroke-width="1"><path d="M322,255 L322,260 M339,255 L339,260 M372,255 L372,260 M389,255 L389,260 M423,255 L423,260 M439,255 L439,260 M473,255 L473,260 M490,255 L490,260 M523,255 L523,260 M540,255 L540,260 M288,255 L288,260 M272,255 L272,260 M238,255 L238,260 M221,255 L221,260 M188,255 L188,260 M171,255 L171,260 M137,255 L137,260 M121,255 L121,260 M87,255 L87,260 M70.3,255 L70.3,260 " fill="none"/></g>
<g id="yMajorTicks" stroke="rgb(0,0,0)" stroke-width="2"><path d="M295,213 L305,213 M295,170 L305,170 M295,128 L305,128 M295,85.4 L305,85.4 M295,43 L305,43 M295,297 L305,297 M295,340 L305,340 M295,382 L305,382 M295,425 L305,425 M295,467 L305,467 " fill="none"/></g>
<g id="xMajorTicks" stroke="rgb(0,0,0)" stroke-width="2"><path d="M355,255 L355,265 M406,255 L406,265 M456,255 L456,265 M506,255 L506,265 M557,255 L557,265 M255,255 L255,265 M204,255 L204,265 M154,255 L154,265 M104,255 L104,265 M53.5,255 L53.5,265 " fill="none"/></g>
<g id="xTicksValues">
<text x="355" y="281" text-anchor="middle" font-size="12" font-family="Lucida Sans Unicode">2.00</text>
<text x="406" y="281" text-anchor="middle" font-size="12" font-family="Lucida Sans Unicode">4.00</text>
<text x="456" y="281" text-anchor="middle" font-size="12" font-family="Lucida Sans Unicode">6.00</text>
<text x="506" y="281" text-anchor="middle" font-size="12" font-family="Lucida Sans Unicode">8.00</text>
<text x="557" y="281" text-anchor="middle" font-size="12" font-family="Lucida Sans Unicode">1.00e1</text>
<text x="255" y="281" text-anchor="middle" font-size="12" font-family="Lucida Sans Unicode">-2.00</text>
<text x="204" y="281" text-anchor="middle" font-size="12" font-family="Lucida Sans Unicode">-4.00</text>
<text x="154" y="281" text-anchor="middle" font-size="12" font-family="Lucida Sans Unicode">-6.00</text>
<text x="104" y="281" text-anchor="middle" font-size="12" font-family="Lucida Sans Unicode">-8.00</text>
<text x="53.5" y="281" text-anchor="middle" font-size="12" font-family="Lucida Sans Unicode">-1.00e1</text></g>
<g id="yTicksValues">
<text x="289" y="215" text-anchor="end" font-size="12" font-family="Lucida Sans Unicode">2.0</text>
<text x="289" y="173" text-anchor="end" font-size="12" font-family="Lucida Sans Unicode">4.0</text>
<text x="289" y="130" text-anchor="end" font-size="12" font-family="Lucida Sans Unicode">6.0</text>
<text x="289" y="87.8" text-anchor="end" font-size="12" font-family="Lucida Sans Unicode">8.0</text>
<text x="289" y="45.4" text-anchor="end" font-size="12" font-family="Lucida Sans Unicode">10.0</text>
<text x="289" y="300" text-anchor="end" font-size="12" font-family="Lucida Sans Unicode">-2.0</text>
<text x="289" y="342" text-anchor="end" font-size="12" font-family="Lucida Sans Unicode">-4.0</text>
<text x="289" y="385" text-anchor="end" font-size="12" font-family="Lucida Sans Unicode">-6.0</text>
<text x="289" y="427" text-anchor="end" font-size="12" font-family="Lucida Sans Unicode">-8.0</text>
<text x="289" y="469" text-anchor="end" font-size="12" font-family="Lucida Sans Unicode">-10.0</text></g>
<g id="yLabel">
<text x="19" y="255" text-anchor="middle" transform = "rotate(-90 19 255 )" font-size="14" font-family="Lucida Sans Unicode">Y-axis &#x221E;&#x221A;</text></g>
<g id="xLabel">
<text x="305" y="487" text-anchor="middle" font-size="12" font-family="Lucida Sans Unicode">X-axis &#x00B1;&#x3A9;</text></g>
<g id="plotLines" stroke-width="2"><g clip-path="url(#plot_window)" stroke="rgb(0,0,0)" stroke-width="2"><path d="M53.5,-1.82e+03 S73.6,-1.5e+03 78.7,-1.42e+03 S98.8,-1.13e+03 104,-1.06e+03 S124,-801 129,-741 S149,-517 154,-466 S174,-275 179,-233 S199,-75.7 204,-41.8 S225,81.2 230,107 S250,196 255,213 S275,268 280,276 S300,297 305,297 S325,285 330,276 S350,230 355,213 S376,132 381,107 S401,-7.88 406,-41.8 S426,-190 431,-233 S451,-415 456,-466 S476,-682 481,-741 S501,-992 506,-1.06e+03 S527,-1.34e+03 532,-1.42e+03 S557,-1.86e+03 557,-1.82e+03 " fill="none"/></g>
</g>
<g id="plotPoints" clip-path="url(#plot_window)"><g stroke="rgb(0,0,0)" fill="rgb(255,0,0)">
<text x="305" y="259" text-anchor="middle" font-size="14" font-family="Lucida Sans Unicode">&#x25CB;</text>
<text x="330" y="238" text-anchor="middle" font-size="14" font-family="Lucida Sans Unicode">&#x25CB;</text>
<text x="355" y="229" text-anchor="middle" font-size="14" font-family="Lucida Sans Unicode">&#x25CB;</text>
<text x="381" y="223" text-anchor="middle" font-size="14" font-family="Lucida Sans Unicode">&#x25CB;</text>
<text x="406" y="217" text-anchor="middle" font-size="14" font-family="Lucida Sans Unicode">&#x25CB;</text>
<text x="431" y="212" text-anchor="middle" font-size="14" font-family="Lucida Sans Unicode">&#x25CB;</text>
<text x="456" y="207" text-anchor="middle" font-size="14" font-family="Lucida Sans Unicode">&#x25CB;</text>
<text x="481" y="203" text-anchor="middle" font-size="14" font-family="Lucida Sans Unicode">&#x25CB;</text>
<text x="506" y="199" text-anchor="middle" font-size="14" font-family="Lucida Sans Unicode">&#x25CB;</text>
<text x="532" y="196" text-anchor="middle" font-size="14" font-family="Lucida Sans Unicode">&#x25CB;</text></g>
<g stroke="rgb(0,0,0)" fill="rgb(255,165,0)">
<text x="230" y="108" text-anchor="middle" font-size="5" font-family="Lucida Sans Unicode">&#x25CB;</text>
<text x="255" y="214" text-anchor="middle" font-size="5" font-family="Lucida Sans Unicode">&#x25CB;</text>
<text x="280" y="278" text-anchor="middle" font-size="5" font-family="Lucida Sans Unicode">&#x25CB;</text>
<text x="305" y="299" text-anchor="middle" font-size="5" font-family="Lucida Sans Unicode">&#x25CB;</text>
<text x="330" y="278" text-anchor="middle" font-size="5" font-family="Lucida Sans Unicode">&#x25CB;</text>
<text x="355" y="214" text-anchor="middle" font-size="5" font-family="Lucida Sans Unicode">&#x25CB;</text>
<text x="381" y="108" text-anchor="middle" font-size="5" font-family="Lucida Sans Unicode">&#x25CB;</text></g>
<g stroke="rgb(0,0,0)" fill="rgb(255,255,0)">
<text x="204" y="450" text-anchor="middle" font-size="14" font-family="Lucida Sans Unicode">&#x25A1;</text>
<text x="230" y="408" text-anchor="middle" font-size="14" font-family="Lucida Sans Unicode">&#x25A1;</text>
<text x="255" y="365" text-anchor="middle" font-size="14" font-family="Lucida Sans Unicode">&#x25A1;</text>
<text x="280" y="323" text-anchor="middle" font-size="14" font-family="Lucida Sans Unicode">&#x25A1;</text>
<text x="305" y="280" text-anchor="middle" font-size="14" font-family="Lucida Sans Unicode">&#x25A1;</text>
<text x="330" y="238" text-anchor="middle" font-size="14" font-family="Lucida Sans Unicode">&#x25A1;</text>
<text x="355" y="196" text-anchor="middle" font-size="14" font-family="Lucida Sans Unicode">&#x25A1;</text>
<text x="381" y="153" text-anchor="middle" font-size="14" font-family="Lucida Sans Unicode">&#x25A1;</text>
<text x="406" y="111" text-anchor="middle" font-size="14" font-family="Lucida Sans Unicode">&#x25A1;</text>
<text x="431" y="68.4" text-anchor="middle" font-size="14" font-family="Lucida Sans Unicode">&#x25A1;</text></g>
</g>
<g id="limitPoints" stroke="rgb(119,136,153)" fill="rgb(250,235,215)"><polygon points=" 48.5,245 58.5,245 53.5,255"/><polygon points=" 73.7,245 83.7,245 78.7,255"/><polygon points=" 98.8,245 109,245 104,255"/><polygon points=" 124,245 134,245 129,255"/><polygon points=" 149,245 159,245 154,255"/><polygon points=" 174,245 184,245 179,255"/><polygon points=" 199,245 209,245 204,255"/><polygon points=" 225,245 235,245 230,255"/><polygon points=" 250,245 260,245 255,255"/><polygon points=" 275,245 285,245 280,255"/></g>
<g id="legendBackground" stroke="rgb(255,255,0)" fill="rgb(255,255,224)" stroke-width="1"><rect x="562" y="43" width="123" height="90.7"/></g>
<g id="legendPoints"><g stroke="rgb(0,0,0)" fill="rgb(255,0,0)">
<text x="579" y="93.6" text-anchor="middle" font-size="14" font-family="Lucida Sans Unicode">&#x25CB;</text></g>
<g stroke="rgb(0,0,0)" fill="rgb(255,165,0)">
<text x="579" y="106" text-anchor="middle" font-size="5" font-family="Lucida Sans Unicode">&#x25CB;</text></g>
<g stroke="rgb(0,0,0)" fill="rgb(255,255,0)">
<text x="579" y="122" text-anchor="middle" font-size="14" font-family="Lucida Sans Unicode">&#x25A1;</text></g>
</g>
<g id="legendText">
<text x="624" y="70.7" text-anchor="middle" font-size="16" font-family="Lucida Sans Unicode" font-weight="normal" textLength="88">Unicode &#x3A9;&#x3A6;</text>
<text x="590" y="91.3" font-size="10" font-family="Lucida Sans Unicode" font-weight="normal">Sqrt(x)</text>
<text x="590" y="105" font-size="10" font-family="Lucida Sans Unicode" font-weight="normal">-2 + x^2</text>
<text x="590" y="119" font-size="10" font-family="Lucida Sans Unicode" font-weight="normal">-1 + 2x</text></g>
<g id="title" fill="rgb(255,0,0)">
<text x="350" y="30" text-anchor="middle" font-size="20" font-family="Lucida Sans Unicode" font-weight="normal">Title with Unicode <sup>-&#945; </sup> &#x3A9; &#x3A6; &#x221A; &#x221E; &#x3B6; &#x00B1; &#x2080; &#x2081; &#x2082;&#x2083;</text></g>
<g id="plotXValues"></g>
<g id="plotYValues"></g>
</svg>
