<?xml version="1.0" encoding="UTF-8" standalone="no"?>
<svg width="750" height ="400" version="1.1"
xmlns:svg ="http://www.w3.org/2000/svg"
xmlns:rdf="http://www.w3.org/1999/02/22-rdf-syntax-ns#"
xmlns:cc="http://web.resource.org/cc/"
xmlns:dc="http://purl.org/dc/elements/1.1/"
xmlns ="http://www.w3.org/2000/svg"
>
<!-- SVG plot written using Boost.Plot program (Creator Jacob Voytko) --> 
<!-- Use, modification and distribution of Boost.Plot subject to the --> 
<!-- Boost Software License, Version 1.0.--> 
<!-- (See accompanying file LICENSE_1_0.txt --> 
<!-- or copy at http://www.boost.org/LICENSE_1_0.txt) --> 

<clipPath id="plot_window"><rect x="85.2" y="59" width="536.3" height="281"/></clipPath>
<g id="imageBackground" stroke="rgb(119,136,153)" fill="rgb(255,255,255)" stroke-width="2"><rect x="0" y="0" width="750" height="400"/></g>
<g id="plotBackground" stroke="rgb(119,136,153)" fill="rgb(255,255,255)" stroke-width="2"><rect x="84.2" y="58" width="538.3" height="283"/></g>
<g id="yMinorGrid" stroke="rgb(200,220,255)" stroke-width="0.5"></g>
<g id="yMajorGrid" stroke="rgb(200,220,255)" stroke-width="1"></g>
<g id="xMinorGrid" stroke="rgb(200,220,255)" stroke-width="0.5"></g>
<g id="xMajorGrid" stroke="rgb(200,220,255)" stroke-width="1"></g>
<g id="yAxis" stroke="rgb(0,0,0)" stroke-width="1"><line x1="84.2" y1="58" x2="84.2" y2="346"/><line x1="84.2" y1="58" x2="84.2" y2="341"/></g>
<g id="xAxis" stroke="rgb(0,0,0)" stroke-width="1"><line x1="79.2" y1="341" x2="622.5" y2="341"/><line x1="79.2" y1="341" x2="622.5" y2="341"/></g>
<g id="yMinorTicks" stroke="rgb(0,0,0)" stroke-width="1"><path d="M82.2,327.3 L84.2,327.3 M82.2,313.7 L84.2,313.7 M82.2,300 L84.2,300 M82.2,286.3 L84.2,286.3 M82.2,259 L84.2,259 M82.2,245.4 L84.2,245.4 M82.2,231.7 L84.2,231.7 M82.2,218 L84.2,218 M82.2,190.7 L84.2,190.7 M82.2,177 L84.2,177 M82.2,163.4 L84.2,163.4 M82.2,149.7 L84.2,149.7 M82.2,122.4 L84.2,122.4 M82.2,108.7 L84.2,108.7 M82.2,95.06 L84.2,95.06 M82.2,81.4 L84.2,81.4 M82.2,341 L84.2,341 " fill="none"/></g>
<g id="xMinorTicks" stroke="rgb(0,0,0)" stroke-width="1"><path d="M102.1,341 L102.1,343 M120.1,341 L120.1,343 M138,341 L138,343 M156,341 L156,343 M191.8,341 L191.8,343 M209.8,341 L209.8,343 M227.7,341 L227.7,343 M245.6,341 L245.6,343 M281.5,341 L281.5,343 M299.5,341 L299.5,343 M317.4,341 L317.4,343 M335.3,341 L335.3,343 M371.2,341 L371.2,343 M389.2,341 L389.2,343 M407.1,341 L407.1,343 M425,341 L425,343 M460.9,341 L460.9,343 M478.8,341 L478.8,343 M496.8,341 L496.8,343 M514.7,341 L514.7,343 M550.6,341 L550.6,343 M568.5,341 L568.5,343 M586.5,341 L586.5,343 M604.4,341 L604.4,343 " fill="none"/></g>
<g id="yMajorTicks" stroke="rgb(0,0,0)" stroke-width="2"><path d="M79.2,341 L84.2,341 M79.2,272.7 L84.2,272.7 M79.2,204.4 L84.2,204.4 M79.2,136 L84.2,136 M79.2,67.73 L84.2,67.73 M79.2,341 L84.2,341 " fill="none"/></g>
<g id="xMajorTicks" stroke="rgb(0,0,0)" stroke-width="2"><path d="M84.2,341 L84.2,346 M173.9,341 L173.9,346 M263.6,341 L263.6,346 M353.3,341 L353.3,346 M443,341 L443,346 M532.7,341 L532.7,346 M622.3,341 L622.3,346 " fill="none"/></g>
<g id="xTicksValues">
<text x="84.2" y="361.6" text-anchor="middle" font-size="12" font-family="Verdana">0</text>
<text x="173.9" y="361.6" text-anchor="middle" font-size="12" font-family="Verdana">1</text>
<text x="263.6" y="361.6" text-anchor="middle" font-size="12" font-family="Verdana">2</text>
<text x="353.3" y="361.6" text-anchor="middle" font-size="12" font-family="Verdana">3</text>
<text x="443" y="361.6" text-anchor="middle" font-size="12" font-family="Verdana">4</text>
<text x="532.7" y="361.6" text-anchor="middle" font-size="12" font-family="Verdana">5</text>
<text x="622.3" y="361.6" text-anchor="middle" font-size="12" font-family="Verdana">6</text></g>
<g id="yTicksValues">
<text x="73.2" y="343.4" text-anchor="end" font-size="12" font-family="Verdana">0</text>
<text x="73.2" y="275.1" text-anchor="end" font-size="12" font-family="Verdana">0.5</text>
<text x="73.2" y="206.8" text-anchor="end" font-size="12" font-family="Verdana">1</text>
<text x="73.2" y="138.4" text-anchor="end" font-size="12" font-family="Verdana">1.5</text>
<text x="73.2" y="70.13" text-anchor="end" font-size="12" font-family="Verdana">2</text>
<text x="73.2" y="343.4" text-anchor="end" font-size="12" font-family="Verdana">0</text></g>
<g id="yLabel">
<text x="42.9" y="199.5" text-anchor="middle" transform = "rotate(-90 42.9 199.5 )" font-size="14" font-family="Verdana">Probability</text></g>
<g id="xLabel">
<text x="353.3" y="376.7" text-anchor="middle" font-size="14" font-family="Verdana">Random Variable</text></g>
<g id="plotLines" stroke-width="2"><g clip-path="url(#plot_window)" stroke="rgb(0,0,139)" stroke-width="1"><path d="M84.2,272.7 L86.89,273.7 L89.58,274.7 L92.27,275.7 L94.97,276.7 L97.66,277.6 L100.3,278.6 L103,279.5 L105.7,280.4 L108.4,281.3 L111.1,282.2 L113.8,283.1 L116.5,283.9 L119.2,284.8 L121.9,285.6 L124.6,286.5 L127.3,287.3 L130,288.1 L132.6,288.9 L135.3,289.6 L138,290.4 L140.7,291.1 L143.4,291.9 L146.1,292.6 L148.8,293.3 L151.5,294.1 L154.2,294.7 L156.9,295.4 L159.6,296.1 L162.3,296.8 L164.9,297.4 L167.6,298.1 L170.3,298.7 L173,299.4 L175.7,300 L178.4,300.6 L181.1,301.2 L183.8,301.8 L186.5,302.4 L189.2,302.9 L191.9,303.5 L194.5,304.1 L197.2,304.6 L199.9,305.2 L202.6,305.7 L205.3,306.2 L208,306.7 L210.7,307.2 L213.4,307.8 L216.1,308.2 L218.8,308.7 L221.5,309.2 L224.2,309.7 L226.8,310.2 L229.5,310.6 L232.2,311.1 L234.9,311.5 L237.6,312 L240.3,312.4 L243,312.8 L245.7,313.2 L248.4,313.6 L251.1,314.1 L253.8,314.5 L256.4,314.8 L259.1,315.2 L261.8,315.6 L264.5,316 L267.2,316.4 L269.9,316.7 L272.6,317.1 L275.3,317.5 L278,317.8 L280.7,318.2 L283.4,318.5 L286.1,318.8 L288.7,319.2 L291.4,319.5 L294.1,319.8 L296.8,320.1 L299.5,320.4 L302.2,320.7 L304.9,321 L307.6,321.3 L310.3,321.6 L313,321.9 L315.7,322.2 L318.4,322.5 L321,322.8 L323.7,323 L326.4,323.3 L329.1,323.6 L331.8,323.8 L334.5,324.1 L337.2,324.3 L339.9,324.6 L342.6,324.8 L345.3,325.1 L348,325.3 L350.6,325.5 L353.3,325.8 L356,326 L358.7,326.2 L361.4,326.4 L364.1,326.6 L366.8,326.9 L369.5,327.1 L372.2,327.3 L374.9,327.5 L377.6,327.7 L380.3,327.9 L382.9,328.1 L385.6,328.3 L388.3,328.5 L391,328.6 L393.7,328.8 L396.4,329 L399.1,329.2 L401.8,329.4 L404.5,329.5 L407.2,329.7 L409.9,329.9 L412.6,330 L415.2,330.2 L417.9,330.4 L420.6,330.5 L423.3,330.7 L426,330.8 L428.7,331 L431.4,331.1 L434.1,331.3 L436.8,331.4 L439.5,331.6 L442.2,331.7 L444.8,331.9 L447.5,332 L450.2,332.1 L452.9,332.3 L455.6,332.4 L458.3,332.5 L461,332.6 L463.7,332.8 L466.4,332.9 L469.1,333 L471.8,333.1 L474.5,333.2 L477.1,333.4 L479.8,333.5 L482.5,333.6 L485.2,333.7 L487.9,333.8 L490.6,333.9 L493.3,334 L496,334.1 L498.7,334.2 L501.4,334.3 L504.1,334.4 L506.7,334.5 L509.4,334.6 L512.1,334.7 L514.8,334.8 L517.5,334.9 L520.2,335 L522.9,335.1 L525.6,335.2 L528.3,335.3 L531,335.3 L533.7,335.4 L536.4,335.5 L539,335.6 L541.7,335.7 L544.4,335.7 L547.1,335.8 L549.8,335.9 L552.5,336 L555.2,336.1 L557.9,336.1 L560.6,336.2 L563.3,336.3 L566,336.3 L568.7,336.4 L571.3,336.5 L574,336.5 L576.7,336.6 L579.4,336.7 L582.1,336.7 L584.8,336.8 L587.5,336.9 L590.2,336.9 L592.9,337 L595.6,337.1 L598.3,337.1 L600.9,337.2 L603.6,337.2 L606.3,337.3 L609,337.3 L611.7,337.4 L614.4,337.4 L617.1,337.5 L619.8,337.5 " fill="none"/></g>
<g clip-path="url(#plot_window)" stroke="rgb(139,0,0)" stroke-width="1"><path d="M84.2,204.4 L86.89,208.4 L89.58,212.3 L92.27,216.1 L94.97,219.8 L97.66,223.4 L100.3,226.9 L103,230.3 L105.7,233.5 L108.4,236.7 L111.1,239.8 L113.8,242.8 L116.5,245.7 L119.2,248.5 L121.9,251.2 L124.6,253.9 L127.3,256.5 L130,259 L132.6,261.4 L135.3,263.7 L138,266 L140.7,268.2 L143.4,270.4 L146.1,272.5 L148.8,274.5 L151.5,276.5 L154.2,278.4 L156.9,280.2 L159.6,282 L162.3,283.8 L164.9,285.5 L167.6,287.1 L170.3,288.7 L173,290.2 L175.7,291.7 L178.4,293.2 L181.1,294.6 L183.8,296 L186.5,297.3 L189.2,298.6 L191.9,299.9 L194.5,301.1 L197.2,302.3 L199.9,303.4 L202.6,304.5 L205.3,305.6 L208,306.6 L210.7,307.7 L213.4,308.6 L216.1,309.6 L218.8,310.5 L221.5,311.4 L224.2,312.3 L226.8,313.1 L229.5,314 L232.2,314.8 L234.9,315.5 L237.6,316.3 L240.3,317 L243,317.7 L245.7,318.4 L248.4,319.1 L251.1,319.7 L253.8,320.4 L256.4,321 L259.1,321.6 L261.8,322.1 L264.5,322.7 L267.2,323.2 L269.9,323.8 L272.6,324.3 L275.3,324.8 L278,325.3 L280.7,325.7 L283.4,326.2 L286.1,326.6 L288.7,327 L291.4,327.4 L294.1,327.8 L296.8,328.2 L299.5,328.6 L302.2,329 L304.9,329.3 L307.6,329.7 L310.3,330 L313,330.3 L315.7,330.7 L318.4,331 L321,331.3 L323.7,331.5 L326.4,331.8 L329.1,332.1 L331.8,332.4 L334.5,332.6 L337.2,332.9 L339.9,333.1 L342.6,333.3 L345.3,333.6 L348,333.8 L350.6,334 L353.3,334.2 L356,334.4 L358.7,334.6 L361.4,334.8 L364.1,335 L366.8,335.1 L369.5,335.3 L372.2,335.5 L374.9,335.7 L377.6,335.8 L380.3,336 L382.9,336.1 L385.6,336.3 L388.3,336.4 L391,336.5 L393.7,336.7 L396.4,336.8 L399.1,336.9 L401.8,337 L404.5,337.2 L407.2,337.3 L409.9,337.4 L412.6,337.5 L415.2,337.6 L417.9,337.7 L420.6,337.8 L423.3,337.9 L426,338 L428.7,338.1 L431.4,338.2 L434.1,338.2 L436.8,338.3 L439.5,338.4 L442.2,338.5 L444.8,338.5 L447.5,338.6 L450.2,338.7 L452.9,338.8 L455.6,338.8 L458.3,338.9 L461,339 L463.7,339 L466.4,339.1 L469.1,339.1 L471.8,339.2 L474.5,339.2 L477.1,339.3 L479.8,339.3 L482.5,339.4 L485.2,339.4 L487.9,339.5 L490.6,339.5 L493.3,339.6 L496,339.6 L498.7,339.7 L501.4,339.7 L504.1,339.7 L506.7,339.8 L509.4,339.8 L512.1,339.8 L514.8,339.9 L517.5,339.9 L520.2,339.9 L522.9,340 L525.6,340 L528.3,340 L531,340.1 L533.7,340.1 L536.4,340.1 L539,340.1 L541.7,340.2 L544.4,340.2 L547.1,340.2 L549.8,340.2 L552.5,340.3 L555.2,340.3 L557.9,340.3 L560.6,340.3 L563.3,340.3 L566,340.4 L568.7,340.4 L571.3,340.4 L574,340.4 L576.7,340.4 L579.4,340.5 L582.1,340.5 L584.8,340.5 L587.5,340.5 L590.2,340.5 L592.9,340.5 L595.6,340.5 L598.3,340.6 L600.9,340.6 L603.6,340.6 L606.3,340.6 L609,340.6 L611.7,340.6 L614.4,340.6 L617.1,340.6 L619.8,340.7 " fill="none"/></g>
<g clip-path="url(#plot_window)" stroke="rgb(0,100,0)" stroke-width="1"><path d="M84.2,67.73 L86.89,83.65 L89.58,98.64 L92.27,112.8 L94.97,126.1 L97.66,138.6 L100.3,150.4 L103,161.5 L105.7,171.9 L108.4,181.8 L111.1,191 L113.8,199.8 L116.5,208 L119.2,215.8 L121.9,223.1 L124.6,229.9 L127.3,236.4 L130,242.5 L132.6,248.2 L135.3,253.6 L138,258.7 L140.7,263.5 L143.4,268 L146.1,272.3 L148.8,276.3 L151.5,280 L154.2,283.6 L156.9,286.9 L159.6,290.1 L162.3,293.1 L164.9,295.8 L167.6,298.5 L170.3,301 L173,303.3 L175.7,305.5 L178.4,307.6 L181.1,309.5 L183.8,311.3 L186.5,313.1 L189.2,314.7 L191.9,316.2 L194.5,317.7 L197.2,319 L199.9,320.3 L202.6,321.5 L205.3,322.6 L208,323.7 L210.7,324.7 L213.4,325.7 L216.1,326.6 L218.8,327.4 L221.5,328.2 L224.2,328.9 L226.8,329.6 L229.5,330.3 L232.2,330.9 L234.9,331.5 L237.6,332.1 L240.3,332.6 L243,333.1 L245.7,333.5 L248.4,334 L251.1,334.4 L253.8,334.8 L256.4,335.1 L259.1,335.5 L261.8,335.8 L264.5,336.1 L267.2,336.4 L269.9,336.7 L272.6,336.9 L275.3,337.1 L278,337.4 L280.7,337.6 L283.4,337.8 L286.1,338 L288.7,338.1 L291.4,338.3 L294.1,338.5 L296.8,338.6 L299.5,338.8 L302.2,338.9 L304.9,339 L307.6,339.1 L310.3,339.2 L313,339.3 L315.7,339.4 L318.4,339.5 L321,339.6 L323.7,339.7 L326.4,339.8 L329.1,339.8 L331.8,339.9 L334.5,340 L337.2,340 L339.9,340.1 L342.6,340.1 L345.3,340.2 L348,340.2 L350.6,340.3 L353.3,340.3 L356,340.4 L358.7,340.4 L361.4,340.4 L364.1,340.5 L366.8,340.5 L369.5,340.5 L372.2,340.6 L374.9,340.6 L377.6,340.6 L380.3,340.6 L382.9,340.7 L385.6,340.7 L388.3,340.7 L391,340.7 L393.7,340.7 L396.4,340.7 L399.1,340.8 L401.8,340.8 L404.5,340.8 L407.2,340.8 L409.9,340.8 L412.6,340.8 L415.2,340.8 L417.9,340.8 L420.6,340.8 L423.3,340.9 L426,340.9 L428.7,340.9 L431.4,340.9 L434.1,340.9 L436.8,340.9 L439.5,340.9 L442.2,340.9 L444.8,340.9 L447.5,340.9 L450.2,340.9 L452.9,340.9 L455.6,340.9 L458.3,340.9 L461,340.9 L463.7,340.9 L466.4,340.9 L469.1,340.9 L471.8,341 L474.5,341 L477.1,341 L479.8,341 L482.5,341 L485.2,341 L487.9,341 L490.6,341 L493.3,341 L496,341 L498.7,341 L501.4,341 L504.1,341 L506.7,341 L509.4,341 L512.1,341 L514.8,341 L517.5,341 L520.2,341 L522.9,341 L525.6,341 L528.3,341 L531,341 L533.7,341 L536.4,341 L539,341 L541.7,341 L544.4,341 L547.1,341 L549.8,341 L552.5,341 L555.2,341 L557.9,341 L560.6,341 L563.3,341 L566,341 L568.7,341 L571.3,341 L574,341 L576.7,341 L579.4,341 L582.1,341 L584.8,341 L587.5,341 L590.2,341 L592.9,341 L595.6,341 L598.3,341 L600.9,341 L603.6,341 L606.3,341 L609,341 L611.7,341 L614.4,341 L617.1,341 L619.8,341 " fill="none"/></g>
</g>
<g id="plotPoints" clip-path="url(#plot_window)"></g>
<g id="legendBackground" stroke="rgb(119,136,153)" fill="rgb(255,255,255)" stroke-width="1"><rect x="636.5" y="58" width="87.52" height="105"/><rect x="636.5" y="58" width="87.52" height="105"/></g>
<g id="legendPoints"><g stroke="rgb(0,0,139)" fill="rgb(255,255,255)" stroke-width="1"><line x1="651.5" y1="88" x2="666.5" y2="88"/></g>
<g stroke="rgb(139,0,0)" fill="rgb(255,255,255)" stroke-width="1"><line x1="651.5" y1="118" x2="666.5" y2="118"/></g>
<g stroke="rgb(0,100,0)" fill="rgb(255,255,255)" stroke-width="1"><line x1="651.5" y1="148" x2="666.5" y2="148"/></g>
</g>
<g id="legendText">
<text x="674" y="88" font-size="15" font-family="Verdana">&#x3BB;=1</text>
<text x="674" y="118" font-size="15" font-family="Verdana">&#x3BB;=2</text>
<text x="674" y="148" font-size="15" font-family="Verdana">&#x3BB;=5</text></g>
<g id="title">
<text x="375" y="40" text-anchor="middle" font-size="20" font-family="Verdana">Exponential Distribution PDF</text></g>
<g id="plotXValues"></g>
<g id="plotYValues"></g>
</svg>
