<?xml version="1.0" encoding="UTF-8" standalone="no"?>
<svg width="750" height ="400" version="1.1"
xmlns:svg ="http://www.w3.org/2000/svg"
xmlns:rdf="http://www.w3.org/1999/02/22-rdf-syntax-ns#"
xmlns:cc="http://web.resource.org/cc/"
xmlns:dc="http://purl.org/dc/elements/1.1/"
xmlns ="http://www.w3.org/2000/svg"
>
<!-- SVG plot written using Boost.Plot program (Creator Jacob Voytko) --> 
<!-- Use, modification and distribution of Boost.Plot subject to the --> 
<!-- Boost Software License, Version 1.0.--> 
<!-- (See accompanying file LICENSE_1_0.txt --> 
<!-- or copy at http://www.boost.org/LICENSE_1_0.txt) --> 

<!-- SVG Plot Copyright John Maddock 2008 --> 
<meta name="copyright" content="John Maddock" />
<meta name="date" content="2008" />
<!-- Use, modification and distribution of this Scalable Vector Graphic file -->
<!-- are subject to the Boost Software License, Version 1.0. -->
<!-- (See accompanying file LICENSE_1_0.txt or copy at http://www.boost.org/LICENSE_1_0.txt) -->

<clipPath id="plot_window">	<rect x="71.1" y="44" width="587.6" height="309"/>
</clipPath>
	<g id="imageBackground" stroke="rgb(119,136,153)" fill="rgb(255,255,255)" stroke-width="2">
	<rect x="0" y="0" width="750" height="400"/>
</g>
	<g id="plotBackground" stroke="rgb(119,136,153)" fill="rgb(255,255,255)" stroke-width="2">
	<rect x="70.1" y="43" width="589.6" height="311"/>
</g>
	<g id="yMinorGrid" stroke="rgb(200,220,255)" stroke-width="0.5">
</g>
	<g id="yMajorGrid" stroke="rgb(200,220,255)" stroke-width="1">
</g>
	<g id="xMinorGrid" stroke="rgb(200,220,255)" stroke-width="0.5">
</g>
	<g id="xMajorGrid" stroke="rgb(200,220,255)" stroke-width="1">
</g>
	<g id="yAxis" stroke="rgb(0,0,0)" stroke-width="1">
	<line x1="70.1" y1="43" x2="70.1" y2="359"/>
	<line x1="70.1" y1="43" x2="70.1" y2="354"/>
</g>
	<g id="xAxis" stroke="rgb(0,0,0)" stroke-width="1">
	<line x1="65.1" y1="354" x2="659.7" y2="354"/>
	<line x1="65.1" y1="354" x2="659.7" y2="354"/>
</g>
	<g id="yMinorTicks" stroke="rgb(0,0,0)" stroke-width="1">
	<path d="M68.1,339 L70.1,339 
M68.1,324 L70.1,324 
M68.1,309 L70.1,309 
M68.1,293.9 L70.1,293.9 
M68.1,263.9 L70.1,263.9 
M68.1,248.9 L70.1,248.9 
M68.1,233.9 L70.1,233.9 
M68.1,218.9 L70.1,218.9 
M68.1,188.8 L70.1,188.8 
M68.1,173.8 L70.1,173.8 
M68.1,158.8 L70.1,158.8 
M68.1,143.8 L70.1,143.8 
M68.1,113.8 L70.1,113.8 
M68.1,98.74 L70.1,98.74 
M68.1,83.73 L70.1,83.73 
M68.1,68.71 L70.1,68.71 
M68.1,354 L70.1,354 
" fill="none"/>
</g>
	<g id="xMinorTicks" stroke="rgb(0,0,0)" stroke-width="1">
	<path d="M89.75,354 L89.75,356 
M109.4,354 L109.4,356 
M129,354 L129,356 
M148.7,354 L148.7,356 
M188,354 L188,356 
M207.6,354 L207.6,356 
M227.3,354 L227.3,356 
M246.9,354 L246.9,356 
M286.2,354 L286.2,356 
M305.9,354 L305.9,356 
M325.5,354 L325.5,356 
M345.2,354 L345.2,356 
M384.5,354 L384.5,356 
M404.1,354 L404.1,356 
M423.8,354 L423.8,356 
M443.4,354 L443.4,356 
M482.7,354 L482.7,356 
M502.4,354 L502.4,356 
M522,354 L522,356 
M541.7,354 L541.7,356 
M581,354 L581,356 
M600.6,354 L600.6,356 
M620.3,354 L620.3,356 
M639.9,354 L639.9,356 
" fill="none"/>
</g>
	<g id="yMajorTicks" stroke="rgb(0,0,0)" stroke-width="2">
	<path d="M65.1,354 L70.1,354 
M65.1,278.9 L70.1,278.9 
M65.1,203.8 L70.1,203.8 
M65.1,128.8 L70.1,128.8 
M65.1,53.7 L70.1,53.7 
M65.1,354 L70.1,354 
" fill="none"/>
</g>
	<g id="xMajorTicks" stroke="rgb(0,0,0)" stroke-width="2">
	<path d="M70.1,354 L70.1,359 
M168.3,354 L168.3,359 
M266.6,354 L266.6,359 
M364.8,354 L364.8,359 
M463.1,354 L463.1,359 
M561.3,354 L561.3,359 
M659.6,354 L659.6,359 
" fill="none"/>
</g>
	<g id="xTicksValues" font-size="12" font-family="Lucida Sans Unicode" text-anchor="middle">
	<text x="70.1" y="374.6">0
	</text>
	<text x="168.3" y="374.6">1
	</text>
	<text x="266.6" y="374.6">2
	</text>
	<text x="364.8" y="374.6">3
	</text>
	<text x="463.1" y="374.6">4
	</text>
	<text x="561.3" y="374.6">5
	</text>
	<text x="659.6" y="374.6">6
	</text>
</g>
	<g id="yTicksValues" font-size="12" font-family="Lucida Sans Unicode" text-anchor="end">
	<text x="59.1" y="356.4">0
	</text>
	<text x="59.1" y="281.3">0.5
	</text>
	<text x="59.1" y="206.2">1
	</text>
	<text x="59.1" y="131.2">1.5
	</text>
	<text x="59.1" y="56.1">2
	</text>
	<text x="59.1" y="356.4">0
	</text>
</g>
	<g id="yLabel">
	<text x="32.4" y="198.5" text-anchor="middle" transform="rotate(-90 32.4 198.5)" font-size="14" font-family="Lucida Sans Unicode">Probability
	</text>
</g>
	<g id="xLabel">
	<text x="364.9" y="387.1" text-anchor="middle" font-size="12" font-family="Lucida Sans Unicode">Random Variable
	</text>
</g>
	<g id="plotLines" stroke-width="2">
	<g clip-path="url(#plot_window)" stroke="rgb(0,0,139)" stroke-width="1">
	<path d="M70.1,278.9 L70.1,278.9 
L73.05,280 
L76,281.1 
L78.94,282.2 
L81.89,283.3 
L84.84,284.3 
L87.79,285.4 
L90.74,286.4 
L93.68,287.4 
L96.63,288.4 
L99.58,289.4 
L102.5,290.3 
L105.5,291.3 
L108.4,292.2 
L111.4,293.1 
L114.3,294.1 
L117.3,294.9 
L120.2,295.8 
L123.2,296.7 
L126.1,297.5 
L129.1,298.4 
L132,299.2 
L135,300 
L137.9,300.8 
L140.9,301.6 
L143.8,302.4 
L146.7,303.2 
L149.7,303.9 
L152.6,304.7 
L155.6,305.4 
L158.5,306.1 
L161.5,306.8 
L164.4,307.5 
L167.4,308.2 
L170.3,308.9 
L173.3,309.6 
L176.2,310.3 
L179.2,310.9 
L182.1,311.5 
L185.1,312.2 
L188,312.8 
L191,313.4 
L193.9,314 
L196.9,314.6 
L199.8,315.2 
L202.8,315.8 
L205.7,316.3 
L208.7,316.9 
L211.6,317.5 
L214.6,318 
L217.5,318.5 
L220.4,319.1 
L223.4,319.6 
L226.3,320.1 
L229.3,320.6 
L232.2,321.1 
L235.2,321.6 
L238.1,322.1 
L241.1,322.6 
L244,323 
L247,323.5 
L249.9,323.9 
L252.9,324.4 
L255.8,324.8 
L258.8,325.3 
L261.7,325.7 
L264.7,326.1 
L267.6,326.5 
L270.6,326.9 
L273.5,327.3 
L276.5,327.7 
L279.4,328.1 
L282.4,328.5 
L285.3,328.9 
L288.3,329.3 
L291.2,329.6 
L294.1,330 
L297.1,330.4 
L300,330.7 
L303,331.1 
L305.9,331.4 
L308.9,331.7 
L311.8,332.1 
L314.8,332.4 
L317.7,332.7 
L320.7,333 
L323.6,333.3 
L326.6,333.6 
L329.5,334 
L332.5,334.2 
L335.4,334.5 
L338.4,334.8 
L341.3,335.1 
L344.3,335.4 
L347.2,335.7 
L350.2,335.9 
L353.1,336.2 
L356.1,336.5 
L359,336.7 
L362,337 
L364.9,337.3 
L367.8,337.5 
L370.8,337.7 
L373.7,338 
L376.7,338.2 
L379.6,338.5 
L382.6,338.7 
L385.5,338.9 
L388.5,339.1 
L391.4,339.4 
L394.4,339.6 
L397.3,339.8 
L400.3,340 
L403.2,340.2 
L406.2,340.4 
L409.1,340.6 
L412.1,340.8 
L415,341 
L418,341.2 
L420.9,341.4 
L423.9,341.6 
L426.8,341.8 
L429.8,342 
L432.7,342.1 
L435.7,342.3 
L438.6,342.5 
L441.5,342.7 
L444.5,342.8 
L447.4,343 
L450.4,343.2 
L453.3,343.3 
L456.3,343.5 
L459.2,343.6 
L462.2,343.8 
L465.1,343.9 
L468.1,344.1 
L471,344.2 
L474,344.4 
L476.9,344.5 
L479.9,344.7 
L482.8,344.8 
L485.8,344.9 
L488.7,345.1 
L491.7,345.2 
L494.6,345.3 
L497.6,345.5 
L500.5,345.6 
L503.5,345.7 
L506.4,345.9 
L509.4,346 
L512.3,346.1 
L515.2,346.2 
L518.2,346.3 
L521.1,346.4 
L524.1,346.6 
L527,346.7 
L530,346.8 
L532.9,346.9 
L535.9,347 
L538.8,347.1 
L541.8,347.2 
L544.7,347.3 
L547.7,347.4 
L550.6,347.5 
L553.6,347.6 
L556.5,347.7 
L559.5,347.8 
L562.4,347.9 
L565.4,348 
L568.3,348.1 
L571.3,348.1 
L574.2,348.2 
L577.2,348.3 
L580.1,348.4 
L583.1,348.5 
L586,348.6 
L588.9,348.6 
L591.9,348.7 
L594.8,348.8 
L597.8,348.9 
L600.7,349 
L603.7,349 
L606.6,349.1 
L609.6,349.2 
L612.5,349.3 
L615.5,349.3 
L618.4,349.4 
L621.4,349.5 
L624.3,349.5 
L627.3,349.6 
L630.2,349.7 
L633.2,349.7 
L636.1,349.8 
L639.1,349.9 
L642,349.9 
L645,350 
L647.9,350 
L650.9,350.1 
L653.8,350.2 
L656.8,350.2 
" fill="none"/>
</g>
	<g clip-path="url(#plot_window)" stroke="rgb(139,0,0)" stroke-width="1">
	<path d="M70.1,203.8 L70.1,203.8 
L73.05,208.3 
L76,212.6 
L78.94,216.8 
L81.89,220.8 
L84.84,224.8 
L87.79,228.6 
L90.74,232.3 
L93.68,235.9 
L96.63,239.4 
L99.58,242.8 
L102.5,246.1 
L105.5,249.3 
L108.4,252.3 
L111.4,255.4 
L114.3,258.3 
L117.3,261.1 
L120.2,263.8 
L123.2,266.5 
L126.1,269.1 
L129.1,271.6 
L132,274 
L135,276.4 
L137.9,278.7 
L140.9,280.9 
L143.8,283.1 
L146.7,285.2 
L149.7,287.2 
L152.6,289.2 
L155.6,291.1 
L158.5,293 
L161.5,294.8 
L164.4,296.5 
L167.4,298.2 
L170.3,299.9 
L173.3,301.5 
L176.2,303 
L179.2,304.5 
L182.1,306 
L185.1,307.4 
L188,308.8 
L191,310.1 
L193.9,311.4 
L196.9,312.7 
L199.8,313.9 
L202.8,315.1 
L205.7,316.2 
L208.7,317.4 
L211.6,318.4 
L214.6,319.5 
L217.5,320.5 
L220.4,321.5 
L223.4,322.5 
L226.3,323.4 
L229.3,324.3 
L232.2,325.2 
L235.2,326 
L238.1,326.9 
L241.1,327.7 
L244,328.4 
L247,329.2 
L249.9,329.9 
L252.9,330.6 
L255.8,331.3 
L258.8,332 
L261.7,332.6 
L264.7,333.3 
L267.6,333.9 
L270.6,334.5 
L273.5,335.1 
L276.5,335.6 
L279.4,336.2 
L282.4,336.7 
L285.3,337.2 
L288.3,337.7 
L291.2,338.2 
L294.1,338.7 
L297.1,339.1 
L300,339.5 
L303,340 
L305.9,340.4 
L308.9,340.8 
L311.8,341.2 
L314.8,341.6 
L317.7,341.9 
L320.7,342.3 
L323.6,342.6 
L326.6,343 
L329.5,343.3 
L332.5,343.6 
L335.4,343.9 
L338.4,344.2 
L341.3,344.5 
L344.3,344.8 
L347.2,345.1 
L350.2,345.3 
L353.1,345.6 
L356.1,345.8 
L359,346.1 
L362,346.3 
L364.9,346.5 
L367.8,346.8 
L370.8,347 
L373.7,347.2 
L376.7,347.4 
L379.6,347.6 
L382.6,347.8 
L385.5,347.9 
L388.5,348.1 
L391.4,348.3 
L394.4,348.5 
L397.3,348.6 
L400.3,348.8 
L403.2,348.9 
L406.2,349.1 
L409.1,349.2 
L412.1,349.4 
L415,349.5 
L418,349.6 
L420.9,349.8 
L423.9,349.9 
L426.8,350 
L429.8,350.1 
L432.7,350.3 
L435.7,350.4 
L438.6,350.5 
L441.5,350.6 
L444.5,350.7 
L447.4,350.8 
L450.4,350.9 
L453.3,351 
L456.3,351.1 
L459.2,351.1 
L462.2,351.2 
L465.1,351.3 
L468.1,351.4 
L471,351.5 
L474,351.5 
L476.9,351.6 
L479.9,351.7 
L482.8,351.8 
L485.8,351.8 
L488.7,351.9 
L491.7,351.9 
L494.6,352 
L497.6,352.1 
L500.5,352.1 
L503.5,352.2 
L506.4,352.2 
L509.4,352.3 
L512.3,352.3 
L515.2,352.4 
L518.2,352.4 
L521.1,352.5 
L524.1,352.5 
L527,352.6 
L530,352.6 
L532.9,352.6 
L535.9,352.7 
L538.8,352.7 
L541.8,352.8 
L544.7,352.8 
L547.7,352.8 
L550.6,352.9 
L553.6,352.9 
L556.5,352.9 
L559.5,353 
L562.4,353 
L565.4,353 
L568.3,353.1 
L571.3,353.1 
L574.2,353.1 
L577.2,353.1 
L580.1,353.2 
L583.1,353.2 
L586,353.2 
L588.9,353.2 
L591.9,353.3 
L594.8,353.3 
L597.8,353.3 
L600.7,353.3 
L603.7,353.3 
L606.6,353.4 
L609.6,353.4 
L612.5,353.4 
L615.5,353.4 
L618.4,353.4 
L621.4,353.5 
L624.3,353.5 
L627.3,353.5 
L630.2,353.5 
L633.2,353.5 
L636.1,353.5 
L639.1,353.5 
L642,353.6 
L645,353.6 
L647.9,353.6 
L650.9,353.6 
L653.8,353.6 
L656.8,353.6 
" fill="none"/>
</g>
	<g clip-path="url(#plot_window)" stroke="rgb(0,100,0)" stroke-width="1">
	<path d="M70.1,53.7 L70.1,53.7 
L73.05,71.19 
L76,87.66 
L78.94,103.2 
L81.89,117.8 
L84.84,131.5 
L87.79,144.5 
L90.74,156.7 
L93.68,168.2 
L96.63,179 
L99.58,189.2 
L102.5,198.8 
L105.5,207.9 
L108.4,216.4 
L111.4,224.4 
L114.3,231.9 
L117.3,239 
L120.2,245.7 
L123.2,252 
L126.1,258 
L129.1,263.6 
L132,268.8 
L135,273.8 
L137.9,278.5 
L140.9,282.9 
L143.8,287 
L146.7,290.9 
L149.7,294.6 
L152.6,298.1 
L155.6,301.3 
L158.5,304.4 
L161.5,307.3 
L164.4,310 
L167.4,312.6 
L170.3,315 
L173.3,317.2 
L176.2,319.4 
L179.2,321.4 
L182.1,323.3 
L185.1,325.1 
L188,326.8 
L191,328.4 
L193.9,329.9 
L196.9,331.3 
L199.8,332.6 
L202.8,333.8 
L205.7,335 
L208.7,336.1 
L211.6,337.2 
L214.6,338.1 
L217.5,339.1 
L220.4,339.9 
L223.4,340.7 
L226.3,341.5 
L229.3,342.2 
L232.2,342.9 
L235.2,343.6 
L238.1,344.2 
L241.1,344.8 
L244,345.3 
L247,345.8 
L249.9,346.3 
L252.9,346.7 
L255.8,347.2 
L258.8,347.6 
L261.7,347.9 
L264.7,348.3 
L267.6,348.6 
L270.6,348.9 
L273.5,349.2 
L276.5,349.5 
L279.4,349.8 
L282.4,350 
L285.3,350.2 
L288.3,350.5 
L291.2,350.7 
L294.1,350.9 
L297.1,351 
L300,351.2 
L303,351.4 
L305.9,351.5 
L308.9,351.7 
L311.8,351.8 
L314.8,351.9 
L317.7,352.1 
L320.7,352.2 
L323.6,352.3 
L326.6,352.4 
L329.5,352.5 
L332.5,352.6 
L335.4,352.6 
L338.4,352.7 
L341.3,352.8 
L344.3,352.9 
L347.2,352.9 
L350.2,353 
L353.1,353.1 
L356.1,353.1 
L359,353.2 
L362,353.2 
L364.9,353.3 
L367.8,353.3 
L370.8,353.3 
L373.7,353.4 
L376.7,353.4 
L379.6,353.4 
L382.6,353.5 
L385.5,353.5 
L388.5,353.5 
L391.4,353.6 
L394.4,353.6 
L397.3,353.6 
L400.3,353.6 
L403.2,353.7 
L406.2,353.7 
L409.1,353.7 
L412.1,353.7 
L415,353.7 
L418,353.7 
L420.9,353.8 
L423.9,353.8 
L426.8,353.8 
L429.8,353.8 
L432.7,353.8 
L435.7,353.8 
L438.6,353.8 
L441.5,353.8 
L444.5,353.9 
L447.4,353.9 
L450.4,353.9 
L453.3,353.9 
L456.3,353.9 
L459.2,353.9 
L462.2,353.9 
L465.1,353.9 
L468.1,353.9 
L471,353.9 
L474,353.9 
L476.9,353.9 
L479.9,353.9 
L482.8,353.9 
L485.8,353.9 
L488.7,353.9 
L491.7,353.9 
L494.6,353.9 
L497.6,354 
L500.5,354 
L503.5,354 
L506.4,354 
L509.4,354 
L512.3,354 
L515.2,354 
L518.2,354 
L521.1,354 
L524.1,354 
L527,354 
L530,354 
L532.9,354 
L535.9,354 
L538.8,354 
L541.8,354 
L544.7,354 
L547.7,354 
L550.6,354 
L553.6,354 
L556.5,354 
L559.5,354 
L562.4,354 
L565.4,354 
L568.3,354 
L571.3,354 
L574.2,354 
L577.2,354 
L580.1,354 
L583.1,354 
L586,354 
L588.9,354 
L591.9,354 
L594.8,354 
L597.8,354 
L600.7,354 
L603.7,354 
L606.6,354 
L609.6,354 
L612.5,354 
L615.5,354 
L618.4,354 
L621.4,354 
L624.3,354 
L627.3,354 
L630.2,354 
L633.2,354 
L636.1,354 
L639.1,354 
L642,354 
L645,354 
L647.9,354 
L650.9,354 
L653.8,354 
L656.8,354 
" fill="none"/>
</g>
</g>
	<g id="plotPoints" clip-path="url(#plot_window)">
</g>
	<g id="legendBackground" stroke="rgb(119,136,153)" fill="rgb(255,255,255)" stroke-width="1">
	<rect x="665.7" y="43" width="70.3" height="64.5"/>
</g>
	<g id="legendPoints">
</g>
	<g id="legendLines">
	<g stroke="rgb(0,0,139)" stroke-width="1">
	<line x1="681" y1="62.75" x2="687" y2="62.75"/>
</g>
	<g stroke="rgb(139,0,0)" stroke-width="1">
	<line x1="681" y1="75.25" x2="687" y2="75.25"/>
</g>
	<g stroke="rgb(0,100,0)" stroke-width="1">
	<line x1="681" y1="87.75" x2="687" y2="87.75"/>
</g>
</g>
	<g id="legendText">
	<text x="696" y="62.75" font-size="10" font-family="Lucida Sans Unicode" font-weight="normal" textLength="31.8">&#x3BB;=0.5
	</text>
	<text x="696" y="75.25" font-size="10" font-family="Lucida Sans Unicode" font-weight="normal" textLength="19.8">&#x3BB;=1
	</text>
	<text x="696" y="87.75" font-size="10" font-family="Lucida Sans Unicode" font-weight="normal" textLength="19.8">&#x3BB;=2
	</text>
</g>
	<g id="title">
	<text x="375" y="30" text-anchor="middle" font-size="20" font-family="Lucida Sans Unicode" font-weight="normal">Exponential Distribution PDF
	</text>
</g>
	<g id="plotXValues">
</g>
	<g id="plotYValues">
</g>
</svg>
