<?xml version="1.0" encoding="UTF-8" standalone="no"?>
<svg width="750" height ="400" version="1.1"
xmlns:svg ="http://www.w3.org/2000/svg"
xmlns:rdf="http://www.w3.org/1999/02/22-rdf-syntax-ns#"
xmlns:cc="http://web.resource.org/cc/"
xmlns:dc="http://purl.org/dc/elements/1.1/"
xmlns ="http://www.w3.org/2000/svg"
>
<!-- SVG plot written using Boost.Plot program (Creator Jacob Voytko) --> 
<!-- Use, modification and distribution of Boost.Plot subject to the --> 
<!-- Boost Software License, Version 1.0.--> 
<!-- (See accompanying file LICENSE_1_0.txt --> 
<!-- or copy at http://www.boost.org/LICENSE_1_0.txt) --> 

<clipPath id="plot_window"><rect x="85.2" y="59" width="481.4" height="281"/></clipPath>
<g id="imageBackground" stroke="rgb(119,136,153)" fill="rgb(255,255,255)" stroke-width="2"><rect x="0" y="0" width="750" height="400"/></g>
<g id="plotBackground" stroke="rgb(119,136,153)" fill="rgb(255,255,255)" stroke-width="2"><rect x="84.2" y="58" width="483.4" height="283"/></g>
<g id="yMinorGrid" stroke="rgb(200,220,255)" stroke-width="0.5"></g>
<g id="yMajorGrid" stroke="rgb(200,220,255)" stroke-width="1"></g>
<g id="xMinorGrid" stroke="rgb(200,220,255)" stroke-width="0.5"></g>
<g id="xMajorGrid" stroke="rgb(200,220,255)" stroke-width="1"></g>
<g id="yAxis" stroke="rgb(0,0,0)" stroke-width="1"><line x1="291.7" y1="58" x2="291.7" y2="346"/><line x1="84.2" y1="58" x2="84.2" y2="341"/></g>
<g id="xAxis" stroke="rgb(0,0,0)" stroke-width="1"><line x1="79.2" y1="341" x2="567.6" y2="341"/><line x1="79.2" y1="341" x2="567.6" y2="341"/></g>
<g id="yMinorTicks" stroke="rgb(0,0,0)" stroke-width="1"><path d="M82.2,327 L84.2,327 M82.2,313 L84.2,313 M82.2,299 L84.2,299 M82.2,285.1 L84.2,285.1 M82.2,257.1 L84.2,257.1 M82.2,243.1 L84.2,243.1 M82.2,229.1 L84.2,229.1 M82.2,215.1 L84.2,215.1 M82.2,187.1 L84.2,187.1 M82.2,173.2 L84.2,173.2 M82.2,159.2 L84.2,159.2 M82.2,145.2 L84.2,145.2 M82.2,117.2 L84.2,117.2 M82.2,103.2 L84.2,103.2 M82.2,89.24 L84.2,89.24 M82.2,75.25 L84.2,75.25 M82.2,341 L84.2,341 " fill="none"/></g>
<g id="xMinorTicks" stroke="rgb(0,0,0)" stroke-width="1"><path d="M322.4,341 L322.4,343 M353.2,341 L353.2,343 M383.9,341 L383.9,343 M414.7,341 L414.7,343 M476.2,341 L476.2,343 M506.9,341 L506.9,343 M537.7,341 L537.7,343 M260.9,341 L260.9,343 M230.2,341 L230.2,343 M199.5,341 L199.5,343 M168.7,341 L168.7,343 M107.2,341 L107.2,343 " fill="none"/></g>
<g id="yMajorTicks" stroke="rgb(0,0,0)" stroke-width="2"><path d="M79.2,341 L84.2,341 M79.2,271.1 L84.2,271.1 M79.2,201.1 L84.2,201.1 M79.2,131.2 L84.2,131.2 M79.2,61.26 L84.2,61.26 M79.2,341 L84.2,341 " fill="none"/></g>
<g id="xMajorTicks" stroke="rgb(0,0,0)" stroke-width="2"><path d="M291.7,341 L291.7,346 M445.4,341 L445.4,346 M291.7,341 L291.7,346 M138,341 L138,346 " fill="none"/></g>
<g id="xTicksValues">
<text x="291.7" y="361.6" text-anchor="middle" font-size="12" font-family="Verdana">0</text>
<text x="445.4" y="361.6" text-anchor="middle" font-size="12" font-family="Verdana">5</text>
<text x="291.7" y="361.6" text-anchor="middle" font-size="12" font-family="Verdana">0</text>
<text x="138" y="361.6" text-anchor="middle" font-size="12" font-family="Verdana">-5</text></g>
<g id="yTicksValues">
<text x="73.2" y="343.4" text-anchor="end" font-size="12" font-family="Verdana">0</text>
<text x="73.2" y="273.5" text-anchor="end" font-size="12" font-family="Verdana">0.1</text>
<text x="73.2" y="203.5" text-anchor="end" font-size="12" font-family="Verdana">0.2</text>
<text x="73.2" y="133.6" text-anchor="end" font-size="12" font-family="Verdana">0.3</text>
<text x="73.2" y="63.66" text-anchor="end" font-size="12" font-family="Verdana">0.4</text>
<text x="73.2" y="343.4" text-anchor="end" font-size="12" font-family="Verdana">0</text></g>
<g id="yLabel">
<text x="42.9" y="199.5" text-anchor="middle" transform = "rotate(-90 42.9 199.5 )" font-size="14" font-family="Verdana">Probability</text></g>
<g id="xLabel">
<text x="325.9" y="376.7" text-anchor="middle" font-size="14" font-family="Verdana">Random Variable</text></g>
<g id="plotLines" stroke-width="2"><g clip-path="url(#plot_window)" stroke="rgb(0,0,139)" stroke-width="1"><path d="M84.2,328.1 L86.62,322.6 L89.03,315.7 L91.45,307 L93.87,296.8 L96.29,284.9 L98.7,271.4 L101.1,256.7 L103.5,240.9 L106,224.3 L108.4,207.4 L110.8,190.5 L113.2,173.9 L115.6,158.1 L118,143.3 L120.5,129.9 L122.9,117.9 L125.3,107.7 L127.7,99.26 L130.1,92.67 L132.5,87.93 L135,84.99 L137.4,83.77 L139.8,84.18 L142.2,86.07 L144.6,89.3 L147,93.73 L149.5,99.2 L151.9,105.5 L154.3,112.6 L156.7,120.3 L159.1,128.4 L161.5,136.9 L164,145.6 L166.4,154.4 L168.8,163.3 L171.2,172.1 L173.6,180.8 L176,189.3 L178.5,197.7 L180.9,205.8 L183.3,213.7 L185.7,221.3 L188.1,228.5 L190.5,235.5 L193,242.1 L195.4,248.4 L197.8,254.4 L200.2,260.1 L202.6,265.5 L205.1,270.5 L207.5,275.3 L209.9,279.8 L212.3,284 L214.7,287.9 L217.1,291.7 L219.6,295.1 L222,298.4 L224.4,301.4 L226.8,304.2 L229.2,306.9 L231.6,309.3 L234.1,311.6 L236.5,313.7 L238.9,315.7 L241.3,317.6 L243.7,319.3 L246.1,320.9 L248.6,322.4 L251,323.7 L253.4,325 L255.8,326.2 L258.2,327.3 L260.6,328.3 L263.1,329.2 L265.5,330.1 L267.9,330.9 L270.3,331.7 L272.7,332.4 L275.1,333 L277.6,333.6 L280,334.2 L282.4,334.7 L284.8,335.2 L287.2,335.6 L289.6,336 L292.1,336.4 L294.5,336.7 L296.9,337 L299.3,337.3 L301.7,337.6 L304.1,337.9 L306.6,338.1 L309,338.3 L311.4,338.5 L313.8,338.7 L316.2,338.9 L318.6,339 L321.1,339.2 L323.5,339.3 L325.9,339.5 L328.3,339.6 L330.7,339.7 L333.2,339.8 L335.6,339.9 L338,340 L340.4,340 L342.8,340.1 L345.2,340.2 L347.7,340.2 L350.1,340.3 L352.5,340.3 L354.9,340.4 L357.3,340.4 L359.7,340.5 L362.2,340.5 L364.6,340.6 L367,340.6 L369.4,340.6 L371.8,340.7 L374.2,340.7 L376.7,340.7 L379.1,340.7 L381.5,340.7 L383.9,340.8 L386.3,340.8 L388.7,340.8 L391.2,340.8 L393.6,340.8 L396,340.8 L398.4,340.9 L400.8,340.9 L403.2,340.9 L405.7,340.9 L408.1,340.9 L410.5,340.9 L412.9,340.9 L415.3,340.9 L417.7,340.9 L420.2,340.9 L422.6,340.9 L425,340.9 L427.4,340.9 L429.8,340.9 L432.2,341 L434.7,341 L437.1,341 L439.5,341 L441.9,341 L444.3,341 L446.8,341 L449.2,341 L451.6,341 L454,341 L456.4,341 L458.8,341 L461.3,341 L463.7,341 L466.1,341 L468.5,341 L470.9,341 L473.3,341 L475.8,341 L478.2,341 L480.6,341 L483,341 L485.4,341 L487.8,341 L490.3,341 L492.7,341 L495.1,341 L497.5,341 L499.9,341 L502.3,341 L504.8,341 L507.2,341 L509.6,341 L512,341 L514.4,341 L516.8,341 L519.3,341 L521.7,341 L524.1,341 L526.5,341 L528.9,341 L531.3,341 L533.8,341 L536.2,341 L538.6,341 L541,341 L543.4,341 L545.8,341 L548.3,341 L550.7,341 L553.1,341 L555.5,341 L557.9,341 L560.3,341 L562.8,341 L565.2,341 L567.6,341 " fill="none"/></g>
<g clip-path="url(#plot_window)" stroke="rgb(139,0,0)" stroke-width="1"><path d="M84.2,341 L86.62,341 L89.03,341 L91.45,341 L93.87,341 L96.29,341 L98.7,341 L101.1,341 L103.5,341 L106,341 L108.4,341 L110.8,341 L113.2,341 L115.6,341 L118,341 L120.5,341 L122.9,341 L125.3,341 L127.7,341 L130.1,341 L132.5,341 L135,341 L137.4,341 L139.8,341 L142.2,341 L144.6,341 L147,341 L149.5,341 L151.9,341 L154.3,341 L156.7,341 L159.1,341 L161.5,341 L164,341 L166.4,341 L168.8,341 L171.2,341 L173.6,341 L176,341 L178.5,341 L180.9,341 L183.3,341 L185.7,341 L188.1,341 L190.5,341 L193,341 L195.4,341 L197.8,341 L200.2,341 L202.6,341 L205.1,341 L207.5,341 L209.9,341 L212.3,341 L214.7,341 L217.1,340.9 L219.6,340.8 L222,340.6 L224.4,340.2 L226.8,339.5 L229.2,338.4 L231.6,336.7 L234.1,334.3 L236.5,330.8 L238.9,326.2 L241.3,320.1 L243.7,312.5 L246.1,303.2 L248.6,292.3 L251,279.8 L253.4,265.8 L255.8,250.6 L258.2,234.4 L260.6,217.7 L263.1,200.7 L265.5,183.9 L267.9,167.6 L270.3,152.2 L272.7,137.9 L275.1,125 L277.6,113.7 L280,104.2 L282.4,96.46 L284.8,90.59 L287.2,86.56 L289.6,84.31 L292.1,83.75 L294.5,84.75 L296.9,87.18 L299.3,90.9 L301.7,95.76 L304.1,101.6 L306.6,108.2 L309,115.6 L311.4,123.4 L313.8,131.7 L316.2,140.3 L318.6,149 L321.1,157.9 L323.5,166.7 L325.9,175.5 L328.3,184.2 L330.7,192.6 L333.2,200.9 L335.6,208.9 L338,216.7 L340.4,224.1 L342.8,231.3 L345.2,238.1 L347.7,244.6 L350.1,250.8 L352.5,256.7 L354.9,262.2 L357.3,267.5 L359.7,272.4 L362.2,277.1 L364.6,281.5 L367,285.6 L369.4,289.4 L371.8,293 L374.2,296.4 L376.7,299.6 L379.1,302.5 L381.5,305.3 L383.9,307.8 L386.3,310.2 L388.7,312.5 L391.2,314.5 L393.6,316.5 L396,318.3 L398.4,319.9 L400.8,321.5 L403.2,322.9 L405.7,324.2 L408.1,325.5 L410.5,326.6 L412.9,327.7 L415.3,328.7 L417.7,329.6 L420.2,330.4 L422.6,331.2 L425,332 L427.4,332.6 L429.8,333.3 L432.2,333.8 L434.7,334.4 L437.1,334.9 L439.5,335.3 L441.9,335.8 L444.3,336.1 L446.8,336.5 L449.2,336.9 L451.6,337.2 L454,337.5 L456.4,337.7 L458.8,338 L461.3,338.2 L463.7,338.4 L466.1,338.6 L468.5,338.8 L470.9,338.9 L473.3,339.1 L475.8,339.2 L478.2,339.4 L480.6,339.5 L483,339.6 L485.4,339.7 L487.8,339.8 L490.3,339.9 L492.7,340 L495.1,340.1 L497.5,340.1 L499.9,340.2 L502.3,340.3 L504.8,340.3 L507.2,340.4 L509.6,340.4 L512,340.5 L514.4,340.5 L516.8,340.5 L519.3,340.6 L521.7,340.6 L524.1,340.6 L526.5,340.7 L528.9,340.7 L531.3,340.7 L533.8,340.7 L536.2,340.8 L538.6,340.8 L541,340.8 L543.4,340.8 L545.8,340.8 L548.3,340.8 L550.7,340.8 L553.1,340.9 L555.5,340.9 L557.9,340.9 L560.3,340.9 L562.8,340.9 L565.2,340.9 L567.6,340.9 " fill="none"/></g>
<g clip-path="url(#plot_window)" stroke="rgb(0,100,0)" stroke-width="1"><path d="M84.2,341 L86.62,341 L89.03,341 L91.45,341 L93.87,341 L96.29,341 L98.7,341 L101.1,341 L103.5,341 L106,341 L108.4,341 L110.8,341 L113.2,341 L115.6,341 L118,341 L120.5,341 L122.9,341 L125.3,341 L127.7,341 L130.1,341 L132.5,341 L135,341 L137.4,341 L139.8,341 L142.2,341 L144.6,341 L147,341 L149.5,341 L151.9,341 L154.3,341 L156.7,341 L159.1,341 L161.5,341 L164,341 L166.4,341 L168.8,341 L171.2,341 L173.6,341 L176,341 L178.5,341 L180.9,341 L183.3,341 L185.7,341 L188.1,341 L190.5,341 L193,341 L195.4,341 L197.8,341 L200.2,341 L202.6,341 L205.1,341 L207.5,341 L209.9,341 L212.3,341 L214.7,341 L217.1,341 L219.6,341 L222,341 L224.4,341 L226.8,341 L229.2,341 L231.6,341 L234.1,341 L236.5,341 L238.9,341 L241.3,341 L243.7,341 L246.1,341 L248.6,341 L251,341 L253.4,341 L255.8,341 L258.2,341 L260.6,341 L263.1,341 L265.5,341 L267.9,341 L270.3,341 L272.7,341 L275.1,341 L277.6,341 L280,341 L282.4,341 L284.8,341 L287.2,341 L289.6,341 L292.1,341 L294.5,341 L296.9,341 L299.3,341 L301.7,341 L304.1,341 L306.6,341 L309,341 L311.4,341 L313.8,341 L316.2,341 L318.6,341 L321.1,341 L323.5,341 L325.9,341 L328.3,341 L330.7,341 L333.2,341 L335.6,341 L338,341 L340.4,341 L342.8,341 L345.2,341 L347.7,341 L350.1,341 L352.5,341 L354.9,341 L357.3,341 L359.7,341 L362.2,341 L364.6,341 L367,341 L369.4,340.9 L371.8,340.9 L374.2,340.7 L376.7,340.4 L379.1,339.9 L381.5,339.1 L383.9,337.8 L386.3,335.9 L388.7,333.1 L391.2,329.2 L393.6,324 L396,317.3 L398.4,309.1 L400.8,299.1 L403.2,287.6 L405.7,274.5 L408.1,260 L410.5,244.4 L412.9,227.9 L415.3,211.1 L417.7,194.1 L420.2,177.5 L422.6,161.4 L425,146.4 L427.4,132.7 L429.8,120.4 L432.2,109.8 L434.7,100.9 L437.1,93.94 L439.5,88.8 L441.9,85.48 L444.3,83.9 L446.8,83.96 L449.2,85.54 L451.6,88.5 L454,92.68 L456.4,97.93 L458.8,104.1 L461.3,111 L463.7,118.6 L466.1,126.6 L468.5,135 L470.9,143.7 L473.3,152.5 L475.8,161.3 L478.2,170.2 L480.6,178.9 L483,187.5 L485.4,195.9 L487.8,204.1 L490.3,212 L492.7,219.6 L495.1,227 L497.5,234 L499.9,240.7 L502.3,247.1 L504.8,253.1 L507.2,258.9 L509.6,264.3 L512,269.5 L514.4,274.3 L516.8,278.8 L519.3,283.1 L521.7,287.1 L524.1,290.9 L526.5,294.4 L528.9,297.7 L531.3,300.8 L533.8,303.6 L536.2,306.3 L538.6,308.8 L541,311.1 L543.4,313.3 L545.8,315.3 L548.3,317.2 L550.7,318.9 L553.1,320.5 L555.5,322 L557.9,323.4 L560.3,324.7 L562.8,325.9 L565.2,327.1 L567.6,328.1 " fill="none"/></g>
</g>
<g id="plotPoints" clip-path="url(#plot_window)"></g>
<g id="legendBackground" stroke="rgb(119,136,153)" fill="rgb(255,255,255)" stroke-width="1"><rect x="581.6" y="58" width="142.4" height="105"/><rect x="581.6" y="58" width="142.4" height="105"/></g>
<g id="legendPoints"><g stroke="rgb(0,0,139)" fill="rgb(255,255,255)" stroke-width="1"><line x1="596.6" y1="88" x2="611.6" y2="88"/></g>
<g stroke="rgb(139,0,0)" fill="rgb(255,255,255)" stroke-width="1"><line x1="596.6" y1="118" x2="611.6" y2="118"/></g>
<g stroke="rgb(0,100,0)" fill="rgb(255,255,255)" stroke-width="1"><line x1="596.6" y1="148" x2="611.6" y2="148"/></g>
</g>
<g id="legendText">
<text x="619.1" y="88" font-size="15" font-family="Verdana">location=1</text>
<text x="619.1" y="118" font-size="15" font-family="Verdana">location=2</text>
<text x="619.1" y="148" font-size="15" font-family="Verdana">location=5</text></g>
<g id="title">
<text x="375" y="40" text-anchor="middle" font-size="20" font-family="Verdana">Extreme Value Distribution PDF (shape=1)</text></g>
<g id="plotXValues"></g>
<g id="plotYValues"></g>
</svg>
