<?xml version="1.0" encoding="UTF-8" standalone="no"?>
<svg width="750" height ="400" version="1.1"
xmlns:svg ="http://www.w3.org/2000/svg"
xmlns:rdf="http://www.w3.org/1999/02/22-rdf-syntax-ns#"
xmlns:cc="http://web.resource.org/cc/"
xmlns:dc="http://purl.org/dc/elements/1.1/"
xmlns ="http://www.w3.org/2000/svg"
>
<!-- SVG plot written using Boost.Plot program (Creator Jacob Voytko) --> 
<!-- Use, modification and distribution of Boost.Plot subject to the --> 
<!-- Boost Software License, Version 1.0.--> 
<!-- (See accompanying file LICENSE_1_0.txt --> 
<!-- or copy at http://www.boost.org/LICENSE_1_0.txt) --> 

<!-- SVG Plot Copyright John Maddock 2008 --> 
<meta name="copyright" content="John Maddock" />
<meta name="date" content="2008" />
<!-- Use, modification and distribution of this Scalable Vector Graphic file -->
<!-- are subject to the Boost Software License, Version 1.0. -->
<!-- (See accompanying file LICENSE_1_0.txt or copy at http://www.boost.org/LICENSE_1_0.txt) -->

<clipPath id="plot_window">	<rect x="71.1" y="44" width="565.4" height="309"/>
</clipPath>
	<g id="imageBackground" stroke="rgb(119,136,153)" fill="rgb(255,255,255)" stroke-width="2">
	<rect x="0" y="0" width="750" height="400"/>
</g>
	<g id="plotBackground" stroke="rgb(119,136,153)" fill="rgb(255,255,255)" stroke-width="2">
	<rect x="70.1" y="43" width="567.4" height="311"/>
</g>
	<g id="yMinorGrid" stroke="rgb(200,220,255)" stroke-width="0.5">
</g>
	<g id="yMajorGrid" stroke="rgb(200,220,255)" stroke-width="1">
</g>
	<g id="xMinorGrid" stroke="rgb(200,220,255)" stroke-width="0.5">
</g>
	<g id="xMajorGrid" stroke="rgb(200,220,255)" stroke-width="1">
</g>
	<g id="yAxis" stroke="rgb(0,0,0)" stroke-width="1">
	<line x1="243.4" y1="43" x2="243.4" y2="359"/>
	<line x1="70.1" y1="43" x2="70.1" y2="354"/>
</g>
	<g id="xAxis" stroke="rgb(0,0,0)" stroke-width="1">
	<line x1="65.1" y1="354" x2="637.5" y2="354"/>
	<line x1="65.1" y1="354" x2="637.5" y2="354"/>
</g>
	<g id="yMinorTicks" stroke="rgb(0,0,0)" stroke-width="1">
	<path d="M68.1,346.3 L70.1,346.3 
M68.1,338.6 L70.1,338.6 
M68.1,330.9 L70.1,330.9 
M68.1,323.3 L70.1,323.3 
M68.1,307.9 L70.1,307.9 
M68.1,300.2 L70.1,300.2 
M68.1,292.5 L70.1,292.5 
M68.1,284.8 L70.1,284.8 
M68.1,269.5 L70.1,269.5 
M68.1,261.8 L70.1,261.8 
M68.1,254.1 L70.1,254.1 
M68.1,246.4 L70.1,246.4 
M68.1,231 L70.1,231 
M68.1,223.3 L70.1,223.3 
M68.1,215.7 L70.1,215.7 
M68.1,208 L70.1,208 
M68.1,192.6 L70.1,192.6 
M68.1,184.9 L70.1,184.9 
M68.1,177.2 L70.1,177.2 
M68.1,169.6 L70.1,169.6 
M68.1,154.2 L70.1,154.2 
M68.1,146.5 L70.1,146.5 
M68.1,138.8 L70.1,138.8 
M68.1,131.1 L70.1,131.1 
M68.1,115.8 L70.1,115.8 
M68.1,108.1 L70.1,108.1 
M68.1,100.4 L70.1,100.4 
M68.1,92.7 L70.1,92.7 
M68.1,77.33 L70.1,77.33 
M68.1,69.64 L70.1,69.64 
M68.1,61.96 L70.1,61.96 
M68.1,54.27 L70.1,54.27 
M68.1,354 L70.1,354 
" fill="none"/>
</g>
	<g id="xMinorTicks" stroke="rgb(0,0,0)" stroke-width="1">
	<path d="M293,354 L293,356 
M342.5,354 L342.5,356 
M392.1,354 L392.1,356 
M441.6,354 L441.6,356 
M540.8,354 L540.8,356 
M590.3,354 L590.3,356 
M193.8,354 L193.8,356 
M144.3,354 L144.3,356 
M94.7,354 L94.7,356 
" fill="none"/>
</g>
	<g id="yMajorTicks" stroke="rgb(0,0,0)" stroke-width="2">
	<path d="M65.1,354 L70.1,354 
M65.1,315.6 L70.1,315.6 
M65.1,277.1 L70.1,277.1 
M65.1,238.7 L70.1,238.7 
M65.1,200.3 L70.1,200.3 
M65.1,161.9 L70.1,161.9 
M65.1,123.4 L70.1,123.4 
M65.1,85.01 L70.1,85.01 
M65.1,46.59 L70.1,46.59 
M65.1,354 L70.1,354 
" fill="none"/>
</g>
	<g id="xMajorTicks" stroke="rgb(0,0,0)" stroke-width="2">
	<path d="M243.4,354 L243.4,359 
M491.2,354 L491.2,359 
M243.4,354 L243.4,359 
" fill="none"/>
</g>
	<g id="xTicksValues" font-size="12" font-family="Lucida Sans Unicode" text-anchor="middle">
	<text x="243.4" y="374.6">0
	</text>
	<text x="491.2" y="374.6">5
	</text>
	<text x="243.4" y="374.6">0
	</text>
</g>
	<g id="yTicksValues" font-size="12" font-family="Lucida Sans Unicode" text-anchor="end">
	<text x="59.1" y="356.4">0
	</text>
	<text x="59.1" y="318">0.1
	</text>
	<text x="59.1" y="279.5">0.2
	</text>
	<text x="59.1" y="241.1">0.3
	</text>
	<text x="59.1" y="202.7">0.4
	</text>
	<text x="59.1" y="164.3">0.5
	</text>
	<text x="59.1" y="125.8">0.6
	</text>
	<text x="59.1" y="87.41">0.7
	</text>
	<text x="59.1" y="48.99">0.8
	</text>
	<text x="59.1" y="356.4">0
	</text>
</g>
	<g id="yLabel">
	<text x="32.4" y="198.5" text-anchor="middle" transform="rotate(-90 32.4 198.5)" font-size="14" font-family="Lucida Sans Unicode">Probability
	</text>
</g>
	<g id="xLabel">
	<text x="353.8" y="387.1" text-anchor="middle" font-size="12" font-family="Lucida Sans Unicode">Random Variable
	</text>
</g>
	<g id="plotLines" stroke-width="2">
	<g clip-path="url(#plot_window)" stroke="rgb(0,0,139)" stroke-width="1">
	<path d="M70.1,354 L70.1,354 
L72.94,354 
L75.77,354 
L78.61,354 
L81.45,354 
L84.28,354 
L87.12,354 
L89.96,354 
L92.8,354 
L95.63,354 
L98.47,354 
L101.3,354 
L104.1,354 
L107,354 
L109.8,354 
L112.7,354 
L115.5,354 
L118.3,354 
L121.2,354 
L124,354 
L126.8,354 
L129.7,354 
L132.5,354 
L135.4,354 
L138.2,354 
L141,354 
L143.9,354 
L146.7,354 
L149.5,354 
L152.4,354 
L155.2,354 
L158,354 
L160.9,354 
L163.7,354 
L166.6,354 
L169.4,354 
L172.2,354 
L175.1,354 
L177.9,354 
L180.7,354 
L183.6,353.9 
L186.4,353.6 
L189.3,353.1 
L192.1,351.8 
L194.9,349.4 
L197.8,345.1 
L200.6,338.4 
L203.4,328.4 
L206.3,314.7 
L209.1,297.2 
L211.9,276 
L214.8,251.8 
L217.6,225.5 
L220.5,198.4 
L223.3,171.7 
L226.1,146.6 
L229,124.2 
L231.8,105.3 
L234.6,90.45 
L237.5,79.84 
L240.3,73.52 
L243.2,71.29 
L246,72.78 
L248.8,77.55 
L251.7,85.08 
L254.5,94.86 
L257.3,106.4 
L260.2,119.1 
L263,132.7 
L265.9,146.7 
L268.7,160.9 
L271.5,174.9 
L274.4,188.7 
L277.2,201.9 
L280,214.6 
L282.9,226.5 
L285.7,237.8 
L288.5,248.3 
L291.4,258.1 
L294.2,267.1 
L297.1,275.4 
L299.9,283 
L302.7,290 
L305.6,296.4 
L308.4,302.2 
L311.2,307.4 
L314.1,312.1 
L316.9,316.4 
L319.8,320.3 
L322.6,323.8 
L325.4,327 
L328.3,329.8 
L331.1,332.3 
L333.9,334.6 
L336.8,336.7 
L339.6,338.5 
L342.5,340.1 
L345.3,341.6 
L348.1,342.9 
L351,344.1 
L353.8,345.2 
L356.6,346.1 
L359.5,347 
L362.3,347.7 
L365.1,348.4 
L368,349 
L370.8,349.5 
L373.7,350 
L376.5,350.4 
L379.3,350.8 
L382.2,351.2 
L385,351.5 
L387.8,351.7 
L390.7,352 
L393.5,352.2 
L396.4,352.4 
L399.2,352.6 
L402,352.7 
L404.9,352.9 
L407.7,353 
L410.5,353.1 
L413.4,353.2 
L416.2,353.3 
L419.1,353.4 
L421.9,353.4 
L424.7,353.5 
L427.6,353.5 
L430.4,353.6 
L433.2,353.6 
L436.1,353.7 
L438.9,353.7 
L441.7,353.7 
L444.6,353.8 
L447.4,353.8 
L450.3,353.8 
L453.1,353.8 
L455.9,353.9 
L458.8,353.9 
L461.6,353.9 
L464.4,353.9 
L467.3,353.9 
L470.1,353.9 
L473,353.9 
L475.8,353.9 
L478.6,353.9 
L481.5,353.9 
L484.3,354 
L487.1,354 
L490,354 
L492.8,354 
L495.6,354 
L498.5,354 
L501.3,354 
L504.2,354 
L507,354 
L509.8,354 
L512.7,354 
L515.5,354 
L518.3,354 
L521.2,354 
L524,354 
L526.9,354 
L529.7,354 
L532.5,354 
L535.4,354 
L538.2,354 
L541,354 
L543.9,354 
L546.7,354 
L549.6,354 
L552.4,354 
L555.2,354 
L558.1,354 
L560.9,354 
L563.7,354 
L566.6,354 
L569.4,354 
L572.2,354 
L575.1,354 
L577.9,354 
L580.8,354 
L583.6,354 
L586.4,354 
L589.3,354 
L592.1,354 
L594.9,354 
L597.8,354 
L600.6,354 
L603.5,354 
L606.3,354 
L609.1,354 
L612,354 
L614.8,354 
L617.6,354 
L620.5,354 
L623.3,354 
L626.2,354 
L629,354 
L631.8,354 
L634.7,354 
L637.5,354 
" fill="none"/>
</g>
	<g clip-path="url(#plot_window)" stroke="rgb(139,0,0)" stroke-width="1">
	<path d="M70.1,354 L70.1,354 
L72.94,354 
L75.77,354 
L78.61,354 
L81.45,354 
L84.28,354 
L87.12,354 
L89.96,354 
L92.8,354 
L95.63,354 
L98.47,354 
L101.3,354 
L104.1,354 
L107,354 
L109.8,354 
L112.7,354 
L115.5,354 
L118.3,354 
L121.2,354 
L124,353.9 
L126.8,353.9 
L129.7,353.8 
L132.5,353.7 
L135.4,353.5 
L138.2,353.2 
L141,352.9 
L143.9,352.3 
L146.7,351.6 
L149.5,350.7 
L152.4,349.5 
L155.2,347.9 
L158,346 
L160.9,343.7 
L163.7,340.9 
L166.6,337.7 
L169.4,334 
L172.2,329.8 
L175.1,325.2 
L177.9,320.1 
L180.7,314.5 
L183.6,308.6 
L186.4,302.4 
L189.3,295.9 
L192.1,289.2 
L194.9,282.4 
L197.8,275.6 
L200.6,268.9 
L203.4,262.3 
L206.3,255.9 
L209.1,249.8 
L211.9,244.1 
L214.8,238.7 
L217.6,233.8 
L220.5,229.3 
L223.3,225.4 
L226.1,222 
L229,219.1 
L231.8,216.8 
L234.6,215 
L237.5,213.7 
L240.3,212.9 
L243.2,212.6 
L246,212.8 
L248.8,213.5 
L251.7,214.5 
L254.5,215.9 
L257.3,217.7 
L260.2,219.7 
L263,222.1 
L265.9,224.6 
L268.7,227.4 
L271.5,230.4 
L274.4,233.6 
L277.2,236.8 
L280,240.2 
L282.9,243.6 
L285.7,247.1 
L288.5,250.7 
L291.4,254.2 
L294.2,257.7 
L297.1,261.3 
L299.9,264.8 
L302.7,268.2 
L305.6,271.6 
L308.4,274.9 
L311.2,278.2 
L314.1,281.4 
L316.9,284.5 
L319.8,287.6 
L322.6,290.5 
L325.4,293.4 
L328.3,296.1 
L331.1,298.8 
L333.9,301.4 
L336.8,303.8 
L339.6,306.2 
L342.5,308.5 
L345.3,310.7 
L348.1,312.8 
L351,314.9 
L353.8,316.8 
L356.6,318.7 
L359.5,320.4 
L362.3,322.1 
L365.1,323.8 
L368,325.3 
L370.8,326.8 
L373.7,328.2 
L376.5,329.5 
L379.3,330.8 
L382.2,332 
L385,333.2 
L387.8,334.3 
L390.7,335.3 
L393.5,336.3 
L396.4,337.2 
L399.2,338.1 
L402,339 
L404.9,339.8 
L407.7,340.5 
L410.5,341.3 
L413.4,341.9 
L416.2,342.6 
L419.1,343.2 
L421.9,343.8 
L424.7,344.4 
L427.6,344.9 
L430.4,345.4 
L433.2,345.8 
L436.1,346.3 
L438.9,346.7 
L441.7,347.1 
L444.6,347.5 
L447.4,347.8 
L450.3,348.2 
L453.1,348.5 
L455.9,348.8 
L458.8,349.1 
L461.6,349.4 
L464.4,349.6 
L467.3,349.8 
L470.1,350.1 
L473,350.3 
L475.8,350.5 
L478.6,350.7 
L481.5,350.9 
L484.3,351 
L487.1,351.2 
L490,351.4 
L492.8,351.5 
L495.6,351.6 
L498.5,351.8 
L501.3,351.9 
L504.2,352 
L507,352.1 
L509.8,352.2 
L512.7,352.3 
L515.5,352.4 
L518.3,352.5 
L521.2,352.6 
L524,352.7 
L526.9,352.7 
L529.7,352.8 
L532.5,352.9 
L535.4,352.9 
L538.2,353 
L541,353.1 
L543.9,353.1 
L546.7,353.2 
L549.6,353.2 
L552.4,353.2 
L555.2,353.3 
L558.1,353.3 
L560.9,353.4 
L563.7,353.4 
L566.6,353.4 
L569.4,353.5 
L572.2,353.5 
L575.1,353.5 
L577.9,353.6 
L580.8,353.6 
L583.6,353.6 
L586.4,353.6 
L589.3,353.6 
L592.1,353.7 
L594.9,353.7 
L597.8,353.7 
L600.6,353.7 
L603.5,353.7 
L606.3,353.7 
L609.1,353.8 
L612,353.8 
L614.8,353.8 
L617.6,353.8 
L620.5,353.8 
L623.3,353.8 
L626.2,353.8 
L629,353.8 
L631.8,353.8 
L634.7,353.9 
L637.5,353.9 
" fill="none"/>
</g>
	<g clip-path="url(#plot_window)" stroke="rgb(0,100,0)" stroke-width="1">
	<path d="M70.1,350.5 L70.1,350.5 
L72.94,350 
L75.77,349.4 
L78.61,348.8 
L81.45,348.1 
L84.28,347.4 
L87.12,346.6 
L89.96,345.8 
L92.8,344.9 
L95.63,343.9 
L98.47,342.9 
L101.3,341.8 
L104.1,340.7 
L107,339.5 
L109.8,338.2 
L112.7,336.9 
L115.5,335.6 
L118.3,334.1 
L121.2,332.7 
L124,331.2 
L126.8,329.6 
L129.7,328 
L132.5,326.4 
L135.4,324.8 
L138.2,323.1 
L141,321.5 
L143.9,319.8 
L146.7,318.1 
L149.5,316.4 
L152.4,314.7 
L155.2,313 
L158,311.3 
L160.9,309.7 
L163.7,308 
L166.6,306.4 
L169.4,304.8 
L172.2,303.3 
L175.1,301.8 
L177.9,300.3 
L180.7,298.9 
L183.6,297.6 
L186.4,296.2 
L189.3,295 
L192.1,293.8 
L194.9,292.7 
L197.8,291.6 
L200.6,290.6 
L203.4,289.6 
L206.3,288.7 
L209.1,287.9 
L211.9,287.2 
L214.8,286.5 
L217.6,285.9 
L220.5,285.3 
L223.3,284.9 
L226.1,284.4 
L229,284.1 
L231.8,283.8 
L234.6,283.6 
L237.5,283.4 
L240.3,283.4 
L243.2,283.3 
L246,283.3 
L248.8,283.4 
L251.7,283.6 
L254.5,283.7 
L257.3,284 
L260.2,284.3 
L263,284.6 
L265.9,285 
L268.7,285.4 
L271.5,285.9 
L274.4,286.4 
L277.2,286.9 
L280,287.5 
L282.9,288.1 
L285.7,288.7 
L288.5,289.4 
L291.4,290.1 
L294.2,290.8 
L297.1,291.5 
L299.9,292.3 
L302.7,293.1 
L305.6,293.8 
L308.4,294.7 
L311.2,295.5 
L314.1,296.3 
L316.9,297.2 
L319.8,298 
L322.6,298.9 
L325.4,299.8 
L328.3,300.6 
L331.1,301.5 
L333.9,302.4 
L336.8,303.3 
L339.6,304.2 
L342.5,305.1 
L345.3,305.9 
L348.1,306.8 
L351,307.7 
L353.8,308.6 
L356.6,309.4 
L359.5,310.3 
L362.3,311.2 
L365.1,312 
L368,312.9 
L370.8,313.7 
L373.7,314.5 
L376.5,315.4 
L379.3,316.2 
L382.2,317 
L385,317.8 
L387.8,318.6 
L390.7,319.3 
L393.5,320.1 
L396.4,320.8 
L399.2,321.6 
L402,322.3 
L404.9,323 
L407.7,323.7 
L410.5,324.4 
L413.4,325.1 
L416.2,325.8 
L419.1,326.4 
L421.9,327.1 
L424.7,327.7 
L427.6,328.4 
L430.4,329 
L433.2,329.6 
L436.1,330.2 
L438.9,330.7 
L441.7,331.3 
L444.6,331.9 
L447.4,332.4 
L450.3,332.9 
L453.1,333.5 
L455.9,334 
L458.8,334.5 
L461.6,335 
L464.4,335.4 
L467.3,335.9 
L470.1,336.4 
L473,336.8 
L475.8,337.3 
L478.6,337.7 
L481.5,338.1 
L484.3,338.5 
L487.1,338.9 
L490,339.3 
L492.8,339.7 
L495.6,340.1 
L498.5,340.4 
L501.3,340.8 
L504.2,341.1 
L507,341.5 
L509.8,341.8 
L512.7,342.1 
L515.5,342.4 
L518.3,342.7 
L521.2,343 
L524,343.3 
L526.9,343.6 
L529.7,343.9 
L532.5,344.2 
L535.4,344.4 
L538.2,344.7 
L541,344.9 
L543.9,345.2 
L546.7,345.4 
L549.6,345.6 
L552.4,345.9 
L555.2,346.1 
L558.1,346.3 
L560.9,346.5 
L563.7,346.7 
L566.6,346.9 
L569.4,347.1 
L572.2,347.3 
L575.1,347.5 
L577.9,347.6 
L580.8,347.8 
L583.6,348 
L586.4,348.2 
L589.3,348.3 
L592.1,348.5 
L594.9,348.6 
L597.8,348.8 
L600.6,348.9 
L603.5,349.1 
L606.3,349.2 
L609.1,349.3 
L612,349.4 
L614.8,349.6 
L617.6,349.7 
L620.5,349.8 
L623.3,349.9 
L626.2,350 
L629,350.2 
L631.8,350.3 
L634.7,350.4 
L637.5,350.5 
" fill="none"/>
</g>
</g>
	<g id="plotPoints" clip-path="url(#plot_window)">
</g>
	<g id="legendBackground" stroke="rgb(119,136,153)" fill="rgb(255,255,255)" stroke-width="1">
	<rect x="643.5" y="43" width="92.5" height="64.5"/>
</g>
	<g id="legendPoints">
</g>
	<g id="legendLines">
	<g stroke="rgb(0,0,139)" stroke-width="1">
	<line x1="658.8" y1="62.75" x2="664.8" y2="62.75"/>
</g>
	<g stroke="rgb(139,0,0)" stroke-width="1">
	<line x1="658.8" y1="75.25" x2="664.8" y2="75.25"/>
</g>
	<g stroke="rgb(0,100,0)" stroke-width="1">
	<line x1="658.8" y1="87.75" x2="664.8" y2="87.75"/>
</g>
</g>
	<g id="legendText">
	<text x="673.8" y="62.75" font-size="10" font-family="Lucida Sans Unicode" font-weight="normal" textLength="54">shape=0.5
	</text>
	<text x="673.8" y="75.25" font-size="10" font-family="Lucida Sans Unicode" font-weight="normal" textLength="42">shape=1
	</text>
	<text x="673.8" y="87.75" font-size="10" font-family="Lucida Sans Unicode" font-weight="normal" textLength="42">shape=2
	</text>
</g>
	<g id="title">
	<text x="375" y="30" text-anchor="middle" font-size="20" font-family="Lucida Sans Unicode" font-weight="normal">Extreme Value Distribution PDF (location=0)
	</text>
</g>
	<g id="plotXValues">
</g>
	<g id="plotYValues">
</g>
</svg>
