<?xml version="1.0" encoding="UTF-8" standalone="no"?>
<svg width="750" height ="400" version="1.1"
xmlns:svg ="http://www.w3.org/2000/svg"
xmlns:rdf="http://www.w3.org/1999/02/22-rdf-syntax-ns#"
xmlns:cc="http://web.resource.org/cc/"
xmlns:dc="http://purl.org/dc/elements/1.1/"
xmlns ="http://www.w3.org/2000/svg"
>
<!-- SVG plot written using Boost.Plot program (Creator Jacob Voytko) --> 
<!-- Use, modification and distribution of Boost.Plot subject to the --> 
<!-- Boost Software License, Version 1.0.--> 
<!-- (See accompanying file LICENSE_1_0.txt --> 
<!-- or copy at http://www.boost.org/LICENSE_1_0.txt) --> 

<!-- SVG Plot Copyright John Maddock 2008 --> 
<meta name="copyright" content="John Maddock" />
<meta name="date" content="2008" />
<!-- Use, modification and distribution of this Scalable Vector Graphic file -->
<!-- are subject to the Boost Software License, Version 1.0. -->
<!-- (See accompanying file LICENSE_1_0.txt or copy at http://www.boost.org/LICENSE_1_0.txt) -->

<clipPath id="plot_window">	<rect x="71.1" y="44" width="553.4" height="309"/>
</clipPath>
	<g id="imageBackground" stroke="rgb(119,136,153)" fill="rgb(255,255,255)" stroke-width="2">
	<rect x="0" y="0" width="750" height="400"/>
</g>
	<g id="plotBackground" stroke="rgb(119,136,153)" fill="rgb(255,255,255)" stroke-width="2">
	<rect x="70.1" y="43" width="555.4" height="311"/>
</g>
	<g id="yMinorGrid" stroke="rgb(200,220,255)" stroke-width="0.5">
</g>
	<g id="yMajorGrid" stroke="rgb(200,220,255)" stroke-width="1">
</g>
	<g id="xMinorGrid" stroke="rgb(200,220,255)" stroke-width="0.5">
</g>
	<g id="xMajorGrid" stroke="rgb(200,220,255)" stroke-width="1">
</g>
	<g id="yAxis" stroke="rgb(0,0,0)" stroke-width="1">
	<line x1="308.5" y1="43" x2="308.5" y2="359"/>
	<line x1="70.1" y1="43" x2="70.1" y2="354"/>
</g>
	<g id="xAxis" stroke="rgb(0,0,0)" stroke-width="1">
	<line x1="65.1" y1="354" x2="625.5" y2="354"/>
	<line x1="65.1" y1="354" x2="625.5" y2="354"/>
</g>
	<g id="yMinorTicks" stroke="rgb(0,0,0)" stroke-width="1">
	<path d="M68.1,338.6 L70.1,338.6 
M68.1,323.3 L70.1,323.3 
M68.1,307.9 L70.1,307.9 
M68.1,292.5 L70.1,292.5 
M68.1,261.8 L70.1,261.8 
M68.1,246.4 L70.1,246.4 
M68.1,231 L70.1,231 
M68.1,215.7 L70.1,215.7 
M68.1,184.9 L70.1,184.9 
M68.1,169.6 L70.1,169.6 
M68.1,154.2 L70.1,154.2 
M68.1,138.8 L70.1,138.8 
M68.1,108.1 L70.1,108.1 
M68.1,92.7 L70.1,92.7 
M68.1,77.33 L70.1,77.33 
M68.1,61.96 L70.1,61.96 
M68.1,354 L70.1,354 
" fill="none"/>
</g>
	<g id="xMinorTicks" stroke="rgb(0,0,0)" stroke-width="1">
	<path d="M343.8,354 L343.8,356 
M379.2,354 L379.2,356 
M414.5,354 L414.5,356 
M449.8,354 L449.8,356 
M520.5,354 L520.5,356 
M555.8,354 L555.8,356 
M591.1,354 L591.1,356 
M273.2,354 L273.2,356 
M237.8,354 L237.8,356 
M202.5,354 L202.5,356 
M167.2,354 L167.2,356 
M96.53,354 L96.53,356 
" fill="none"/>
</g>
	<g id="yMajorTicks" stroke="rgb(0,0,0)" stroke-width="2">
	<path d="M65.1,354 L70.1,354 
M65.1,277.1 L70.1,277.1 
M65.1,200.3 L70.1,200.3 
M65.1,123.4 L70.1,123.4 
M65.1,46.59 L70.1,46.59 
M65.1,354 L70.1,354 
" fill="none"/>
</g>
	<g id="xMajorTicks" stroke="rgb(0,0,0)" stroke-width="2">
	<path d="M308.5,354 L308.5,359 
M485.1,354 L485.1,359 
M308.5,354 L308.5,359 
M131.9,354 L131.9,359 
" fill="none"/>
</g>
	<g id="xTicksValues" font-size="12" font-family="Lucida Sans Unicode" text-anchor="middle">
	<text x="308.5" y="374.6">0
	</text>
	<text x="485.1" y="374.6">5
	</text>
	<text x="308.5" y="374.6">0
	</text>
	<text x="131.9" y="374.6">-5
	</text>
</g>
	<g id="yTicksValues" font-size="12" font-family="Lucida Sans Unicode" text-anchor="end">
	<text x="59.1" y="356.4">0
	</text>
	<text x="59.1" y="279.5">0.1
	</text>
	<text x="59.1" y="202.7">0.2
	</text>
	<text x="59.1" y="125.8">0.3
	</text>
	<text x="59.1" y="48.99">0.4
	</text>
	<text x="59.1" y="356.4">0
	</text>
</g>
	<g id="yLabel">
	<text x="32.4" y="198.5" text-anchor="middle" transform="rotate(-90 32.4 198.5)" font-size="14" font-family="Lucida Sans Unicode">Probability
	</text>
</g>
	<g id="xLabel">
	<text x="347.8" y="387.1" text-anchor="middle" font-size="12" font-family="Lucida Sans Unicode">Random Variable
	</text>
</g>
	<g id="plotLines" stroke-width="2">
	<g clip-path="url(#plot_window)" stroke="rgb(0,0,139)" stroke-width="1">
	<path d="M70.1,339.9 L70.1,339.9 
L72.88,333.8 
L75.65,326.2 
L78.43,316.7 
L81.21,305.4 
L83.99,292.3 
L86.76,277.5 
L89.54,261.3 
L92.32,243.9 
L95.09,225.8 
L97.87,207.2 
L100.6,188.6 
L103.4,170.4 
L106.2,153 
L109,136.8 
L111.8,122 
L114.5,108.9 
L117.3,97.61 
L120.1,88.34 
L122.9,81.1 
L125.6,75.89 
L128.4,72.66 
L131.2,71.32 
L134,71.77 
L136.7,73.85 
L139.5,77.4 
L142.3,82.27 
L145.1,88.28 
L147.9,95.25 
L150.6,103 
L153.4,111.5 
L156.2,120.4 
L159,129.7 
L161.7,139.2 
L164.5,148.9 
L167.3,158.7 
L170.1,168.4 
L172.8,177.9 
L175.6,187.3 
L178.4,196.5 
L181.2,205.5 
L184,214.1 
L186.7,222.4 
L189.5,230.4 
L192.3,238 
L195.1,245.3 
L197.8,252.3 
L200.6,258.9 
L203.4,265.1 
L206.2,271 
L209,276.6 
L211.7,281.8 
L214.5,286.7 
L217.3,291.4 
L220.1,295.7 
L222.8,299.8 
L225.6,303.6 
L228.4,307.1 
L231.2,310.5 
L233.9,313.6 
L236.7,316.5 
L239.5,319.2 
L242.3,321.7 
L245.1,324 
L247.8,326.2 
L250.6,328.2 
L253.4,330.1 
L256.2,331.9 
L258.9,333.5 
L261.7,335 
L264.5,336.4 
L267.3,337.7 
L270,338.9 
L272.8,340 
L275.6,341.1 
L278.4,342 
L281.2,342.9 
L283.9,343.8 
L286.7,344.5 
L289.5,345.2 
L292.3,345.9 
L295,346.5 
L297.8,347.1 
L300.6,347.6 
L303.4,348.1 
L306.1,348.5 
L308.9,348.9 
L311.7,349.3 
L314.5,349.7 
L317.3,350 
L320,350.3 
L322.8,350.6 
L325.6,350.8 
L328.4,351.1 
L331.1,351.3 
L333.9,351.5 
L336.7,351.7 
L339.5,351.9 
L342.2,352 
L345,352.2 
L347.8,352.3 
L350.6,352.4 
L353.4,352.5 
L356.1,352.7 
L358.9,352.8 
L361.7,352.9 
L364.5,352.9 
L367.2,353 
L370,353.1 
L372.8,353.2 
L375.6,353.2 
L378.3,353.3 
L381.1,353.3 
L383.9,353.4 
L386.7,353.4 
L389.5,353.5 
L392.2,353.5 
L395,353.6 
L397.8,353.6 
L400.6,353.6 
L403.3,353.6 
L406.1,353.7 
L408.9,353.7 
L411.7,353.7 
L414.4,353.7 
L417.2,353.8 
L420,353.8 
L422.8,353.8 
L425.6,353.8 
L428.3,353.8 
L431.1,353.8 
L433.9,353.9 
L436.7,353.9 
L439.4,353.9 
L442.2,353.9 
L445,353.9 
L447.8,353.9 
L450.5,353.9 
L453.3,353.9 
L456.1,353.9 
L458.9,353.9 
L461.7,353.9 
L464.4,353.9 
L467.2,353.9 
L470,353.9 
L472.8,354 
L475.5,354 
L478.3,354 
L481.1,354 
L483.9,354 
L486.7,354 
L489.4,354 
L492.2,354 
L495,354 
L497.8,354 
L500.5,354 
L503.3,354 
L506.1,354 
L508.9,354 
L511.6,354 
L514.4,354 
L517.2,354 
L520,354 
L522.8,354 
L525.5,354 
L528.3,354 
L531.1,354 
L533.9,354 
L536.6,354 
L539.4,354 
L542.2,354 
L545,354 
L547.7,354 
L550.5,354 
L553.3,354 
L556.1,354 
L558.9,354 
L561.6,354 
L564.4,354 
L567.2,354 
L570,354 
L572.7,354 
L575.5,354 
L578.3,354 
L581.1,354 
L583.8,354 
L586.6,354 
L589.4,354 
L592.2,354 
L595,354 
L597.7,354 
L600.5,354 
L603.3,354 
L606.1,354 
L608.8,354 
L611.6,354 
L614.4,354 
L617.2,354 
L619.9,354 
L622.7,354 
L625.5,354 
" fill="none"/>
</g>
	<g clip-path="url(#plot_window)" stroke="rgb(139,0,0)" stroke-width="1">
	<path d="M70.1,354 L70.1,354 
L72.88,354 
L75.65,354 
L78.43,354 
L81.21,354 
L83.99,354 
L86.76,354 
L89.54,354 
L92.32,354 
L95.09,354 
L97.87,354 
L100.6,354 
L103.4,354 
L106.2,354 
L109,354 
L111.8,354 
L114.5,354 
L117.3,354 
L120.1,354 
L122.9,354 
L125.6,354 
L128.4,354 
L131.2,354 
L134,354 
L136.7,354 
L139.5,354 
L142.3,354 
L145.1,354 
L147.9,354 
L150.6,354 
L153.4,354 
L156.2,354 
L159,354 
L161.7,354 
L164.5,354 
L167.3,354 
L170.1,354 
L172.8,354 
L175.6,354 
L178.4,354 
L181.2,354 
L184,354 
L186.7,354 
L189.5,354 
L192.3,354 
L195.1,354 
L197.8,354 
L200.6,354 
L203.4,354 
L206.2,354 
L209,354 
L211.7,354 
L214.5,354 
L217.3,354 
L220.1,354 
L222.8,353.9 
L225.6,353.8 
L228.4,353.5 
L231.2,353.1 
L233.9,352.3 
L236.7,351.1 
L239.5,349.3 
L242.3,346.6 
L245.1,342.8 
L247.8,337.7 
L250.6,331 
L253.4,322.7 
L256.2,312.5 
L258.9,300.5 
L261.7,286.7 
L264.5,271.4 
L267.3,254.6 
L270,236.9 
L272.8,218.5 
L275.6,199.9 
L278.4,181.4 
L281.2,163.5 
L283.9,146.5 
L286.7,130.8 
L289.5,116.6 
L292.3,104.2 
L295,93.74 
L297.8,85.26 
L300.6,78.82 
L303.4,74.39 
L306.1,71.92 
L308.9,71.29 
L311.7,72.39 
L314.5,75.07 
L317.3,79.16 
L320,84.49 
L322.8,90.9 
L325.6,98.21 
L328.4,106.3 
L331.1,114.9 
L333.9,124 
L336.7,133.4 
L339.5,143 
L342.2,152.7 
L345,162.5 
L347.8,172.1 
L350.6,181.6 
L353.4,191 
L356.1,200.1 
L358.9,208.9 
L361.7,217.4 
L364.5,225.6 
L367.2,233.4 
L370,240.9 
L372.8,248.1 
L375.6,254.9 
L378.3,261.3 
L381.1,267.4 
L383.9,273.2 
L386.7,278.6 
L389.5,283.8 
L392.2,288.6 
L395,293.1 
L397.8,297.3 
L400.6,301.3 
L403.3,305 
L406.1,308.5 
L408.9,311.7 
L411.7,314.7 
L414.4,317.6 
L417.2,320.2 
L420,322.6 
L422.8,324.9 
L425.6,327 
L428.3,329 
L431.1,330.8 
L433.9,332.5 
L436.7,334.1 
L439.4,335.6 
L442.2,336.9 
L445,338.2 
L447.8,339.4 
L450.5,340.5 
L453.3,341.5 
L456.1,342.4 
L458.9,343.3 
L461.7,344.1 
L464.4,344.8 
L467.2,345.5 
L470,346.1 
L472.8,346.7 
L475.5,347.3 
L478.3,347.8 
L481.1,348.2 
L483.9,348.7 
L486.7,349.1 
L489.4,349.4 
L492.2,349.8 
L495,350.1 
L497.8,350.4 
L500.5,350.7 
L503.3,350.9 
L506.1,351.1 
L508.9,351.4 
L511.6,351.6 
L514.4,351.7 
L517.2,351.9 
L520,352.1 
L522.8,352.2 
L525.5,352.4 
L528.3,352.5 
L531.1,352.6 
L533.9,352.7 
L536.6,352.8 
L539.4,352.9 
L542.2,353 
L545,353 
L547.7,353.1 
L550.5,353.2 
L553.3,353.2 
L556.1,353.3 
L558.9,353.4 
L561.6,353.4 
L564.4,353.5 
L567.2,353.5 
L570,353.5 
L572.7,353.6 
L575.5,353.6 
L578.3,353.6 
L581.1,353.7 
L583.8,353.7 
L586.6,353.7 
L589.4,353.7 
L592.2,353.7 
L595,353.8 
L597.7,353.8 
L600.5,353.8 
L603.3,353.8 
L606.1,353.8 
L608.8,353.8 
L611.6,353.9 
L614.4,353.9 
L617.2,353.9 
L619.9,353.9 
L622.7,353.9 
L625.5,353.9 
" fill="none"/>
</g>
	<g clip-path="url(#plot_window)" stroke="rgb(0,100,0)" stroke-width="1">
	<path d="M70.1,354 L70.1,354 
L72.88,354 
L75.65,354 
L78.43,354 
L81.21,354 
L83.99,354 
L86.76,354 
L89.54,354 
L92.32,354 
L95.09,354 
L97.87,354 
L100.6,354 
L103.4,354 
L106.2,354 
L109,354 
L111.8,354 
L114.5,354 
L117.3,354 
L120.1,354 
L122.9,354 
L125.6,354 
L128.4,354 
L131.2,354 
L134,354 
L136.7,354 
L139.5,354 
L142.3,354 
L145.1,354 
L147.9,354 
L150.6,354 
L153.4,354 
L156.2,354 
L159,354 
L161.7,354 
L164.5,354 
L167.3,354 
L170.1,354 
L172.8,354 
L175.6,354 
L178.4,354 
L181.2,354 
L184,354 
L186.7,354 
L189.5,354 
L192.3,354 
L195.1,354 
L197.8,354 
L200.6,354 
L203.4,354 
L206.2,354 
L209,354 
L211.7,354 
L214.5,354 
L217.3,354 
L220.1,354 
L222.8,354 
L225.6,354 
L228.4,354 
L231.2,354 
L233.9,354 
L236.7,354 
L239.5,354 
L242.3,354 
L245.1,354 
L247.8,354 
L250.6,354 
L253.4,354 
L256.2,354 
L258.9,354 
L261.7,354 
L264.5,354 
L267.3,354 
L270,354 
L272.8,354 
L275.6,354 
L278.4,354 
L281.2,354 
L283.9,354 
L286.7,354 
L289.5,354 
L292.3,354 
L295,354 
L297.8,354 
L300.6,354 
L303.4,354 
L306.1,354 
L308.9,354 
L311.7,354 
L314.5,354 
L317.3,354 
L320,354 
L322.8,354 
L325.6,354 
L328.4,354 
L331.1,354 
L333.9,354 
L336.7,354 
L339.5,354 
L342.2,354 
L345,354 
L347.8,354 
L350.6,354 
L353.4,354 
L356.1,354 
L358.9,354 
L361.7,354 
L364.5,354 
L367.2,354 
L370,354 
L372.8,354 
L375.6,354 
L378.3,354 
L381.1,354 
L383.9,354 
L386.7,354 
L389.5,354 
L392.2,354 
L395,354 
L397.8,353.9 
L400.6,353.9 
L403.3,353.7 
L406.1,353.4 
L408.9,352.8 
L411.7,351.9 
L414.4,350.5 
L417.2,348.4 
L420,345.3 
L422.8,341 
L425.6,335.3 
L428.3,328 
L431.1,318.9 
L433.9,308 
L436.7,295.3 
L439.4,280.9 
L442.2,265 
L445,247.8 
L447.8,229.8 
L450.5,211.2 
L453.3,192.6 
L456.1,174.3 
L458.9,156.7 
L461.7,140.2 
L464.4,125 
L467.2,111.6 
L470,99.89 
L472.8,90.18 
L475.5,82.5 
L478.3,76.85 
L481.1,73.19 
L483.9,71.46 
L486.7,71.53 
L489.4,73.26 
L492.2,76.51 
L495,81.11 
L497.8,86.88 
L500.5,93.66 
L503.3,101.3 
L506.1,109.6 
L508.9,118.4 
L511.6,127.7 
L514.4,137.2 
L517.2,146.8 
L520,156.6 
L522.8,166.3 
L525.5,175.9 
L528.3,185.3 
L531.1,194.6 
L533.9,203.5 
L536.6,212.2 
L539.4,220.6 
L542.2,228.7 
L545,236.4 
L547.7,243.8 
L550.5,250.8 
L553.3,257.5 
L556.1,263.8 
L558.9,269.7 
L561.6,275.4 
L564.4,280.7 
L567.2,285.7 
L570,290.4 
L572.7,294.8 
L575.5,298.9 
L578.3,302.8 
L581.1,306.4 
L583.8,309.8 
L586.6,312.9 
L589.4,315.9 
L592.2,318.6 
L595,321.2 
L597.7,323.5 
L600.5,325.8 
L603.3,327.8 
L606.1,329.7 
L608.8,331.5 
L611.6,333.2 
L614.4,334.7 
L617.2,336.1 
L619.9,337.4 
L622.7,338.7 
L625.5,339.8 
" fill="none"/>
</g>
</g>
	<g id="plotPoints" clip-path="url(#plot_window)">
</g>
	<g id="legendBackground" stroke="rgb(119,136,153)" fill="rgb(255,255,255)" stroke-width="1">
	<rect x="631.5" y="43" width="104.5" height="64.5"/>
</g>
	<g id="legendPoints">
</g>
	<g id="legendLines">
	<g stroke="rgb(0,0,139)" stroke-width="1">
	<line x1="646.8" y1="62.75" x2="652.8" y2="62.75"/>
</g>
	<g stroke="rgb(139,0,0)" stroke-width="1">
	<line x1="646.8" y1="75.25" x2="652.8" y2="75.25"/>
</g>
	<g stroke="rgb(0,100,0)" stroke-width="1">
	<line x1="646.8" y1="87.75" x2="652.8" y2="87.75"/>
</g>
</g>
	<g id="legendText">
	<text x="661.8" y="62.75" font-size="10" font-family="Lucida Sans Unicode" font-weight="normal" textLength="66">location=-5
	</text>
	<text x="661.8" y="75.25" font-size="10" font-family="Lucida Sans Unicode" font-weight="normal" textLength="60">location=0
	</text>
	<text x="661.8" y="87.75" font-size="10" font-family="Lucida Sans Unicode" font-weight="normal" textLength="60">location=5
	</text>
</g>
	<g id="title">
	<text x="375" y="30" text-anchor="middle" font-size="20" font-family="Lucida Sans Unicode" font-weight="normal">Extreme Value Distribution PDF (shape=1)
	</text>
</g>
	<g id="plotXValues">
</g>
	<g id="plotYValues">
</g>
</svg>
