<?xml version="1.0" encoding="UTF-8" standalone="no"?>
<svg width="750" height ="400" version="1.1"
xmlns:svg ="http://www.w3.org/2000/svg"
xmlns:rdf="http://www.w3.org/1999/02/22-rdf-syntax-ns#"
xmlns:cc="http://web.resource.org/cc/"
xmlns:dc="http://purl.org/dc/elements/1.1/"
xmlns ="http://www.w3.org/2000/svg"
>
<!-- SVG plot written using Boost.Plot program (Creator Jacob Voytko) --> 
<!-- Use, modification and distribution of Boost.Plot subject to the --> 
<!-- Boost Software License, Version 1.0.--> 
<!-- (See accompanying file LICENSE_1_0.txt --> 
<!-- or copy at http://www.boost.org/LICENSE_1_0.txt) --> 

<!-- SVG Plot Copyright John Maddock 2008 --> 
<meta name="copyright" content="John Maddock" />
<meta name="date" content="2008" />
<!-- Use, modification and distribution of this Scalable Vector Graphic file -->
<!-- are subject to the Boost Software License, Version 1.0. -->
<!-- (See accompanying file LICENSE_1_0.txt or copy at http://www.boost.org/LICENSE_1_0.txt) -->

<clipPath id="plot_window">	<rect x="71.1" y="44" width="559.4" height="309"/>
</clipPath>
	<g id="imageBackground" stroke="rgb(119,136,153)" fill="rgb(255,255,255)" stroke-width="2">
	<rect x="0" y="0" width="750" height="400"/>
</g>
	<g id="plotBackground" stroke="rgb(119,136,153)" fill="rgb(255,255,255)" stroke-width="2">
	<rect x="70.1" y="43" width="561.4" height="311"/>
</g>
	<g id="yMinorGrid" stroke="rgb(200,220,255)" stroke-width="0.5">
</g>
	<g id="yMajorGrid" stroke="rgb(200,220,255)" stroke-width="1">
</g>
	<g id="xMinorGrid" stroke="rgb(200,220,255)" stroke-width="0.5">
</g>
	<g id="xMajorGrid" stroke="rgb(200,220,255)" stroke-width="1">
</g>
	<g id="yAxis" stroke="rgb(0,0,0)" stroke-width="1">
	<line x1="70.1" y1="43" x2="70.1" y2="359"/>
	<line x1="70.1" y1="43" x2="70.1" y2="354"/>
</g>
	<g id="xAxis" stroke="rgb(0,0,0)" stroke-width="1">
	<line x1="65.1" y1="354" x2="631.5" y2="354"/>
	<line x1="65.1" y1="354" x2="631.5" y2="354"/>
</g>
	<g id="yMinorTicks" stroke="rgb(0,0,0)" stroke-width="1">
	<path d="M68.1,346.5 L70.1,346.5 
M68.1,339 L70.1,339 
M68.1,331.5 L70.1,331.5 
M68.1,323.9 L70.1,323.9 
M68.1,308.9 L70.1,308.9 
M68.1,301.4 L70.1,301.4 
M68.1,293.9 L70.1,293.9 
M68.1,286.4 L70.1,286.4 
M68.1,271.3 L70.1,271.3 
M68.1,263.8 L70.1,263.8 
M68.1,256.3 L70.1,256.3 
M68.1,248.8 L70.1,248.8 
M68.1,233.8 L70.1,233.8 
M68.1,226.3 L70.1,226.3 
M68.1,218.7 L70.1,218.7 
M68.1,211.2 L70.1,211.2 
M68.1,196.2 L70.1,196.2 
M68.1,188.7 L70.1,188.7 
M68.1,181.2 L70.1,181.2 
M68.1,173.6 L70.1,173.6 
M68.1,158.6 L70.1,158.6 
M68.1,151.1 L70.1,151.1 
M68.1,143.6 L70.1,143.6 
M68.1,136.1 L70.1,136.1 
M68.1,121 L70.1,121 
M68.1,113.5 L70.1,113.5 
M68.1,106 L70.1,106 
M68.1,98.5 L70.1,98.5 
M68.1,83.47 L70.1,83.47 
M68.1,75.96 L70.1,75.96 
M68.1,68.44 L70.1,68.44 
M68.1,60.93 L70.1,60.93 
M68.1,45.9 L70.1,45.9 
M68.1,354 L70.1,354 
" fill="none"/>
</g>
	<g id="xMinorTicks" stroke="rgb(0,0,0)" stroke-width="1">
	<path d="M95.83,354 L95.83,356 
M121.6,354 L121.6,356 
M147.3,354 L147.3,356 
M173,354 L173,356 
M224.5,354 L224.5,356 
M250.2,354 L250.2,356 
M276,354 L276,356 
M301.7,354 L301.7,356 
M353.2,354 L353.2,356 
M378.9,354 L378.9,356 
M404.6,354 L404.6,356 
M430.4,354 L430.4,356 
M481.8,354 L481.8,356 
M507.6,354 L507.6,356 
M533.3,354 L533.3,356 
M559,354 L559,356 
M610.5,354 L610.5,356 
" fill="none"/>
</g>
	<g id="yMajorTicks" stroke="rgb(0,0,0)" stroke-width="2">
	<path d="M65.1,354 L70.1,354 
M65.1,316.4 L70.1,316.4 
M65.1,278.9 L70.1,278.9 
M65.1,241.3 L70.1,241.3 
M65.1,203.7 L70.1,203.7 
M65.1,166.1 L70.1,166.1 
M65.1,128.6 L70.1,128.6 
M65.1,90.99 L70.1,90.99 
M65.1,53.41 L70.1,53.41 
M65.1,354 L70.1,354 
" fill="none"/>
</g>
	<g id="xMajorTicks" stroke="rgb(0,0,0)" stroke-width="2">
	<path d="M70.1,354 L70.1,359 
M198.8,354 L198.8,359 
M327.4,354 L327.4,359 
M456.1,354 L456.1,359 
M584.8,354 L584.8,359 
M70.1,354 L70.1,359 
" fill="none"/>
</g>
	<g id="xTicksValues" font-size="12" font-family="Lucida Sans Unicode" text-anchor="middle">
	<text x="70.1" y="374.6">0
	</text>
	<text x="198.8" y="374.6">1
	</text>
	<text x="327.4" y="374.6">2
	</text>
	<text x="456.1" y="374.6">3
	</text>
	<text x="584.8" y="374.6">4
	</text>
	<text x="70.1" y="374.6">0
	</text>
</g>
	<g id="yTicksValues" font-size="12" font-family="Lucida Sans Unicode" text-anchor="end">
	<text x="59.1" y="356.4">0
	</text>
	<text x="59.1" y="318.8">0.1
	</text>
	<text x="59.1" y="281.3">0.2
	</text>
	<text x="59.1" y="243.7">0.3
	</text>
	<text x="59.1" y="206.1">0.4
	</text>
	<text x="59.1" y="168.5">0.5
	</text>
	<text x="59.1" y="131">0.6
	</text>
	<text x="59.1" y="93.39">0.7
	</text>
	<text x="59.1" y="55.81">0.8
	</text>
	<text x="59.1" y="356.4">0
	</text>
</g>
	<g id="yLabel">
	<text x="32.4" y="198.5" text-anchor="middle" transform="rotate(-90 32.4 198.5)" font-size="14" font-family="Lucida Sans Unicode">Probability
	</text>
</g>
	<g id="xLabel">
	<text x="350.8" y="387.1" text-anchor="middle" font-size="12" font-family="Lucida Sans Unicode">Random Variable
	</text>
</g>
	<g id="plotLines" stroke-width="2">
	<g clip-path="url(#plot_window)" stroke="rgb(0,0,139)" stroke-width="1">
	<path d="M70.1,354 L70.1,354 
L72.91,308.9 
L75.71,271.1 
L78.52,239.5 
L81.33,213.2 
L84.13,191.5 
L86.94,173.6 
L89.75,159 
L92.56,147.3 
L95.36,137.9 
L98.17,130.6 
L101,125.2 
L103.8,121.2 
L106.6,118.5 
L109.4,116.9 
L112.2,116.3 
L115,116.4 
L117.8,117.3 
L120.6,118.7 
L123.4,120.6 
L126.2,122.9 
L129,125.5 
L131.9,128.5 
L134.7,131.6 
L137.5,134.9 
L140.3,138.4 
L143.1,142 
L145.9,145.7 
L148.7,149.5 
L151.5,153.3 
L154.3,157.1 
L157.1,160.9 
L159.9,164.7 
L162.7,168.5 
L165.5,172.3 
L168.3,176 
L171.2,179.7 
L174,183.4 
L176.8,187 
L179.6,190.5 
L182.4,194 
L185.2,197.5 
L188,200.8 
L190.8,204.1 
L193.6,207.3 
L196.4,210.5 
L199.2,213.6 
L202,216.6 
L204.8,219.6 
L207.6,222.5 
L210.4,225.3 
L213.3,228.1 
L216.1,230.8 
L218.9,233.4 
L221.7,236 
L224.5,238.5 
L227.3,241 
L230.1,243.3 
L232.9,245.7 
L235.7,248 
L238.5,250.2 
L241.3,252.3 
L244.1,254.5 
L246.9,256.5 
L249.7,258.5 
L252.6,260.5 
L255.4,262.4 
L258.2,264.3 
L261,266.1 
L263.8,267.9 
L266.6,269.6 
L269.4,271.3 
L272.2,272.9 
L275,274.5 
L277.8,276.1 
L280.6,277.6 
L283.4,279.1 
L286.2,280.6 
L289,282 
L291.9,283.4 
L294.7,284.7 
L297.5,286.1 
L300.3,287.3 
L303.1,288.6 
L305.9,289.8 
L308.7,291 
L311.5,292.2 
L314.3,293.3 
L317.1,294.5 
L319.9,295.5 
L322.7,296.6 
L325.5,297.6 
L328.3,298.7 
L331.2,299.7 
L334,300.6 
L336.8,301.6 
L339.6,302.5 
L342.4,303.4 
L345.2,304.3 
L348,305.2 
L350.8,306 
L353.6,306.8 
L356.4,307.6 
L359.2,308.4 
L362,309.2 
L364.8,310 
L367.6,310.7 
L370.4,311.4 
L373.3,312.1 
L376.1,312.8 
L378.9,313.5 
L381.7,314.2 
L384.5,314.8 
L387.3,315.5 
L390.1,316.1 
L392.9,316.7 
L395.7,317.3 
L398.5,317.9 
L401.3,318.4 
L404.1,319 
L406.9,319.6 
L409.7,320.1 
L412.6,320.6 
L415.4,321.1 
L418.2,321.6 
L421,322.1 
L423.8,322.6 
L426.6,323.1 
L429.4,323.6 
L432.2,324 
L435,324.5 
L437.8,324.9 
L440.6,325.3 
L443.4,325.8 
L446.2,326.2 
L449,326.6 
L451.9,327 
L454.7,327.4 
L457.5,327.8 
L460.3,328.1 
L463.1,328.5 
L465.9,328.9 
L468.7,329.2 
L471.5,329.6 
L474.3,329.9 
L477.1,330.3 
L479.9,330.6 
L482.7,330.9 
L485.5,331.2 
L488.3,331.6 
L491.1,331.9 
L494,332.2 
L496.8,332.5 
L499.6,332.7 
L502.4,333 
L505.2,333.3 
L508,333.6 
L510.8,333.9 
L513.6,334.1 
L516.4,334.4 
L519.2,334.6 
L522,334.9 
L524.8,335.2 
L527.6,335.4 
L530.4,335.6 
L533.3,335.9 
L536.1,336.1 
L538.9,336.3 
L541.7,336.6 
L544.5,336.8 
L547.3,337 
L550.1,337.2 
L552.9,337.4 
L555.7,337.6 
L558.5,337.8 
L561.3,338 
L564.1,338.2 
L566.9,338.4 
L569.7,338.6 
L572.6,338.8 
L575.4,339 
L578.2,339.2 
L581,339.3 
L583.8,339.5 
L586.6,339.7 
L589.4,339.9 
L592.2,340 
L595,340.2 
L597.8,340.3 
L600.6,340.5 
L603.4,340.7 
L606.2,340.8 
L609,341 
L611.9,341.1 
L614.7,341.3 
L617.5,341.4 
L620.3,341.6 
L623.1,341.7 
L625.9,341.8 
L628.7,342 
L631.5,342.1 
" fill="none"/>
</g>
	<g clip-path="url(#plot_window)" stroke="rgb(139,0,0)" stroke-width="1">
	<path d="M70.1,354 L70.1,354 
L72.91,353.8 
L75.71,352.1 
L78.52,347 
L81.33,338 
L84.13,325.2 
L86.94,309.5 
L89.75,291.8 
L92.56,273 
L95.36,254.1 
L98.17,235.6 
L101,218 
L103.8,201.6 
L106.6,186.8 
L109.4,173.5 
L112.2,161.8 
L115,151.6 
L117.8,143.1 
L120.6,135.9 
L123.4,130.1 
L126.2,125.6 
L129,122.1 
L131.9,119.7 
L134.7,118.2 
L137.5,117.6 
L140.3,117.6 
L143.1,118.3 
L145.9,119.5 
L148.7,121.2 
L151.5,123.3 
L154.3,125.7 
L157.1,128.5 
L159.9,131.5 
L162.7,134.7 
L165.5,138.1 
L168.3,141.7 
L171.2,145.3 
L174,149.1 
L176.8,152.9 
L179.6,156.7 
L182.4,160.6 
L185.2,164.4 
L188,168.3 
L190.8,172.2 
L193.6,176 
L196.4,179.8 
L199.2,183.5 
L202,187.2 
L204.8,190.9 
L207.6,194.5 
L210.4,198 
L213.3,201.5 
L216.1,204.9 
L218.9,208.2 
L221.7,211.5 
L224.5,214.7 
L227.3,217.8 
L230.1,220.9 
L232.9,223.9 
L235.7,226.8 
L238.5,229.6 
L241.3,232.4 
L244.1,235.1 
L246.9,237.8 
L249.7,240.4 
L252.6,242.9 
L255.4,245.4 
L258.2,247.8 
L261,250.1 
L263.8,252.4 
L266.6,254.6 
L269.4,256.8 
L272.2,258.9 
L275,261 
L277.8,263 
L280.6,264.9 
L283.4,266.8 
L286.2,268.7 
L289,270.5 
L291.9,272.3 
L294.7,274 
L297.5,275.7 
L300.3,277.3 
L303.1,278.9 
L305.9,280.4 
L308.7,281.9 
L311.5,283.4 
L314.3,284.8 
L317.1,286.2 
L319.9,287.6 
L322.7,288.9 
L325.5,290.2 
L328.3,291.5 
L331.2,292.7 
L334,293.9 
L336.8,295.1 
L339.6,296.2 
L342.4,297.4 
L345.2,298.4 
L348,299.5 
L350.8,300.5 
L353.6,301.6 
L356.4,302.5 
L359.2,303.5 
L362,304.4 
L364.8,305.4 
L367.6,306.3 
L370.4,307.1 
L373.3,308 
L376.1,308.8 
L378.9,309.6 
L381.7,310.4 
L384.5,311.2 
L387.3,312 
L390.1,312.7 
L392.9,313.5 
L395.7,314.2 
L398.5,314.9 
L401.3,315.5 
L404.1,316.2 
L406.9,316.8 
L409.7,317.5 
L412.6,318.1 
L415.4,318.7 
L418.2,319.3 
L421,319.9 
L423.8,320.5 
L426.6,321 
L429.4,321.6 
L432.2,322.1 
L435,322.6 
L437.8,323.1 
L440.6,323.6 
L443.4,324.1 
L446.2,324.6 
L449,325.1 
L451.9,325.5 
L454.7,326 
L457.5,326.4 
L460.3,326.8 
L463.1,327.3 
L465.9,327.7 
L468.7,328.1 
L471.5,328.5 
L474.3,328.9 
L477.1,329.2 
L479.9,329.6 
L482.7,330 
L485.5,330.3 
L488.3,330.7 
L491.1,331 
L494,331.4 
L496.8,331.7 
L499.6,332 
L502.4,332.4 
L505.2,332.7 
L508,333 
L510.8,333.3 
L513.6,333.6 
L516.4,333.9 
L519.2,334.2 
L522,334.4 
L524.8,334.7 
L527.6,335 
L530.4,335.2 
L533.3,335.5 
L536.1,335.8 
L538.9,336 
L541.7,336.3 
L544.5,336.5 
L547.3,336.7 
L550.1,337 
L552.9,337.2 
L555.7,337.4 
L558.5,337.6 
L561.3,337.9 
L564.1,338.1 
L566.9,338.3 
L569.7,338.5 
L572.6,338.7 
L575.4,338.9 
L578.2,339.1 
L581,339.3 
L583.8,339.5 
L586.6,339.7 
L589.4,339.8 
L592.2,340 
L595,340.2 
L597.8,340.4 
L600.6,340.5 
L603.4,340.7 
L606.2,340.9 
L609,341 
L611.9,341.2 
L614.7,341.4 
L617.5,341.5 
L620.3,341.7 
L623.1,341.8 
L625.9,342 
L628.7,342.1 
L631.5,342.3 
" fill="none"/>
</g>
	<g clip-path="url(#plot_window)" stroke="rgb(0,100,0)" stroke-width="1">
	<path d="M70.1,354 L70.1,354 
L72.91,354 
L75.71,353.4 
L78.52,351.7 
L81.33,348.1 
L84.13,342.1 
L86.94,333.7 
L89.75,322.9 
L92.56,310 
L95.36,295.4 
L98.17,279.5 
L101,262.6 
L103.8,245.3 
L106.6,227.9 
L109.4,210.7 
L112.2,194 
L115,178 
L117.8,162.9 
L120.6,148.9 
L123.4,136.1 
L126.2,124.4 
L129,114 
L131.9,104.8 
L134.7,96.84 
L137.5,90.06 
L140.3,84.43 
L143.1,79.89 
L145.9,76.38 
L148.7,73.84 
L151.5,72.2 
L154.3,71.39 
L157.1,71.34 
L159.9,72 
L162.7,73.28 
L165.5,75.14 
L168.3,77.5 
L171.2,80.33 
L174,83.55 
L176.8,87.13 
L179.6,91.02 
L182.4,95.17 
L185.2,99.55 
L188,104.1 
L190.8,108.8 
L193.6,113.7 
L196.4,118.6 
L199.2,123.7 
L202,128.7 
L204.8,133.8 
L207.6,139 
L210.4,144.1 
L213.3,149.2 
L216.1,154.2 
L218.9,159.3 
L221.7,164.3 
L224.5,169.2 
L227.3,174 
L230.1,178.8 
L232.9,183.5 
L235.7,188.1 
L238.5,192.7 
L241.3,197.1 
L244.1,201.5 
L246.9,205.7 
L249.7,209.9 
L252.6,213.9 
L255.4,217.9 
L258.2,221.8 
L261,225.6 
L263.8,229.2 
L266.6,232.8 
L269.4,236.3 
L272.2,239.7 
L275,243 
L277.8,246.2 
L280.6,249.3 
L283.4,252.4 
L286.2,255.3 
L289,258.2 
L291.9,261 
L294.7,263.7 
L297.5,266.3 
L300.3,268.8 
L303.1,271.3 
L305.9,273.7 
L308.7,276 
L311.5,278.3 
L314.3,280.5 
L317.1,282.6 
L319.9,284.7 
L322.7,286.7 
L325.5,288.6 
L328.3,290.5 
L331.2,292.3 
L334,294 
L336.8,295.8 
L339.6,297.4 
L342.4,299 
L345.2,300.6 
L348,302.1 
L350.8,303.6 
L353.6,305 
L356.4,306.3 
L359.2,307.7 
L362,309 
L364.8,310.2 
L367.6,311.4 
L370.4,312.6 
L373.3,313.8 
L376.1,314.9 
L378.9,315.9 
L381.7,317 
L384.5,318 
L387.3,319 
L390.1,319.9 
L392.9,320.9 
L395.7,321.7 
L398.5,322.6 
L401.3,323.5 
L404.1,324.3 
L406.9,325.1 
L409.7,325.8 
L412.6,326.6 
L415.4,327.3 
L418.2,328 
L421,328.7 
L423.8,329.3 
L426.6,330 
L429.4,330.6 
L432.2,331.2 
L435,331.8 
L437.8,332.4 
L440.6,332.9 
L443.4,333.5 
L446.2,334 
L449,334.5 
L451.9,335 
L454.7,335.5 
L457.5,335.9 
L460.3,336.4 
L463.1,336.8 
L465.9,337.3 
L468.7,337.7 
L471.5,338.1 
L474.3,338.5 
L477.1,338.9 
L479.9,339.2 
L482.7,339.6 
L485.5,339.9 
L488.3,340.3 
L491.1,340.6 
L494,340.9 
L496.8,341.2 
L499.6,341.5 
L502.4,341.8 
L505.2,342.1 
L508,342.4 
L510.8,342.7 
L513.6,343 
L516.4,343.2 
L519.2,343.5 
L522,343.7 
L524.8,343.9 
L527.6,344.2 
L530.4,344.4 
L533.3,344.6 
L536.1,344.8 
L538.9,345 
L541.7,345.3 
L544.5,345.4 
L547.3,345.6 
L550.1,345.8 
L552.9,346 
L555.7,346.2 
L558.5,346.4 
L561.3,346.5 
L564.1,346.7 
L566.9,346.9 
L569.7,347 
L572.6,347.2 
L575.4,347.3 
L578.2,347.5 
L581,347.6 
L583.8,347.7 
L586.6,347.9 
L589.4,348 
L592.2,348.1 
L595,348.3 
L597.8,348.4 
L600.6,348.5 
L603.4,348.6 
L606.2,348.7 
L609,348.8 
L611.9,349 
L614.7,349.1 
L617.5,349.2 
L620.3,349.3 
L623.1,349.4 
L625.9,349.5 
L628.7,349.6 
L631.5,349.6 
" fill="none"/>
</g>
	<g clip-path="url(#plot_window)" stroke="rgb(255,140,0)" stroke-width="1">
	<path d="M70.1,354 L70.1,354 
L72.91,317 
L75.71,284.3 
L78.52,255.5 
L81.33,230.2 
L84.13,208.1 
L86.94,188.8 
L89.75,172.1 
L92.56,157.7 
L95.36,145.4 
L98.17,134.9 
L101,126.2 
L103.8,118.9 
L106.6,112.9 
L109.4,108.2 
L112.2,104.5 
L115,101.8 
L117.8,100 
L120.6,98.94 
L123.4,98.57 
L126.2,98.8 
L129,99.57 
L131.9,100.8 
L134.7,102.5 
L137.5,104.5 
L140.3,106.9 
L143.1,109.5 
L145.9,112.4 
L148.7,115.5 
L151.5,118.8 
L154.3,122.2 
L157.1,125.8 
L159.9,129.4 
L162.7,133.2 
L165.5,137 
L168.3,140.8 
L171.2,144.7 
L174,148.7 
L176.8,152.6 
L179.6,156.5 
L182.4,160.5 
L185.2,164.4 
L188,168.3 
L190.8,172.1 
L193.6,176 
L196.4,179.8 
L199.2,183.5 
L202,187.2 
L204.8,190.9 
L207.6,194.5 
L210.4,198 
L213.3,201.5 
L216.1,204.9 
L218.9,208.3 
L221.7,211.6 
L224.5,214.8 
L227.3,218 
L230.1,221.1 
L232.9,224.2 
L235.7,227.2 
L238.5,230.1 
L241.3,233 
L244.1,235.8 
L246.9,238.6 
L249.7,241.2 
L252.6,243.9 
L255.4,246.4 
L258.2,249 
L261,251.4 
L263.8,253.8 
L266.6,256.1 
L269.4,258.4 
L272.2,260.7 
L275,262.8 
L277.8,265 
L280.6,267 
L283.4,269.1 
L286.2,271 
L289,273 
L291.9,274.9 
L294.7,276.7 
L297.5,278.5 
L300.3,280.2 
L303.1,281.9 
L305.9,283.6 
L308.7,285.2 
L311.5,286.8 
L314.3,288.4 
L317.1,289.9 
L319.9,291.3 
L322.7,292.8 
L325.5,294.2 
L328.3,295.5 
L331.2,296.9 
L334,298.1 
L336.8,299.4 
L339.6,300.6 
L342.4,301.8 
L345.2,303 
L348,304.2 
L350.8,305.3 
L353.6,306.4 
L356.4,307.4 
L359.2,308.5 
L362,309.5 
L364.8,310.5 
L367.6,311.4 
L370.4,312.4 
L373.3,313.3 
L376.1,314.2 
L378.9,315 
L381.7,315.9 
L384.5,316.7 
L387.3,317.5 
L390.1,318.3 
L392.9,319.1 
L395.7,319.8 
L398.5,320.6 
L401.3,321.3 
L404.1,322 
L406.9,322.7 
L409.7,323.3 
L412.6,324 
L415.4,324.6 
L418.2,325.2 
L421,325.8 
L423.8,326.4 
L426.6,327 
L429.4,327.6 
L432.2,328.1 
L435,328.7 
L437.8,329.2 
L440.6,329.7 
L443.4,330.2 
L446.2,330.7 
L449,331.2 
L451.9,331.6 
L454.7,332.1 
L457.5,332.5 
L460.3,333 
L463.1,333.4 
L465.9,333.8 
L468.7,334.2 
L471.5,334.6 
L474.3,335 
L477.1,335.4 
L479.9,335.7 
L482.7,336.1 
L485.5,336.4 
L488.3,336.8 
L491.1,337.1 
L494,337.5 
L496.8,337.8 
L499.6,338.1 
L502.4,338.4 
L505.2,338.7 
L508,339 
L510.8,339.3 
L513.6,339.6 
L516.4,339.9 
L519.2,340.1 
L522,340.4 
L524.8,340.6 
L527.6,340.9 
L530.4,341.1 
L533.3,341.4 
L536.1,341.6 
L538.9,341.9 
L541.7,342.1 
L544.5,342.3 
L547.3,342.5 
L550.1,342.7 
L552.9,342.9 
L555.7,343.1 
L558.5,343.3 
L561.3,343.5 
L564.1,343.7 
L566.9,343.9 
L569.7,344.1 
L572.6,344.3 
L575.4,344.5 
L578.2,344.6 
L581,344.8 
L583.8,345 
L586.6,345.1 
L589.4,345.3 
L592.2,345.4 
L595,345.6 
L597.8,345.7 
L600.6,345.9 
L603.4,346 
L606.2,346.2 
L609,346.3 
L611.9,346.4 
L614.7,346.6 
L617.5,346.7 
L620.3,346.8 
L623.1,346.9 
L625.9,347.1 
L628.7,347.2 
L631.5,347.3 
" fill="none"/>
</g>
</g>
	<g id="plotPoints" clip-path="url(#plot_window)">
</g>
	<g id="legendBackground" stroke="rgb(119,136,153)" fill="rgb(255,255,255)" stroke-width="1">
	<rect x="637.5" y="43" width="98.5" height="77"/>
</g>
	<g id="legendPoints">
</g>
	<g id="legendLines">
	<g stroke="rgb(0,0,139)" stroke-width="1">
	<line x1="652.8" y1="62.75" x2="658.8" y2="62.75"/>
</g>
	<g stroke="rgb(139,0,0)" stroke-width="1">
	<line x1="652.8" y1="75.25" x2="658.8" y2="75.25"/>
</g>
	<g stroke="rgb(0,100,0)" stroke-width="1">
	<line x1="652.8" y1="87.75" x2="658.8" y2="87.75"/>
</g>
	<g stroke="rgb(255,140,0)" stroke-width="1">
	<line x1="652.8" y1="100.3" x2="658.8" y2="100.3"/>
</g>
</g>
	<g id="legendText">
	<text x="667.8" y="62.75" font-size="10" font-family="Lucida Sans Unicode" font-weight="normal" textLength="48">n=4, m=4
	</text>
	<text x="667.8" y="75.25" font-size="10" font-family="Lucida Sans Unicode" font-weight="normal" textLength="54">n=10, m=4
	</text>
	<text x="667.8" y="87.75" font-size="10" font-family="Lucida Sans Unicode" font-weight="normal" textLength="60">n=10, m=10
	</text>
	<text x="667.8" y="100.3" font-size="10" font-family="Lucida Sans Unicode" font-weight="normal" textLength="54">n=4, m=10
	</text>
</g>
	<g id="title">
	<text x="375" y="30" text-anchor="middle" font-size="20" font-family="Lucida Sans Unicode" font-weight="normal">F Distribution PDF
	</text>
</g>
	<g id="plotXValues">
</g>
	<g id="plotYValues">
</g>
</svg>
