<?xml version="1.0" encoding="UTF-8" standalone="no"?>
<svg width="750" height ="400" version="1.1"
xmlns:svg ="http://www.w3.org/2000/svg"
xmlns:rdf="http://www.w3.org/1999/02/22-rdf-syntax-ns#"
xmlns:cc="http://web.resource.org/cc/"
xmlns:dc="http://purl.org/dc/elements/1.1/"
xmlns ="http://www.w3.org/2000/svg"
>
<!-- SVG plot written using Boost.Plot program (Creator Jacob Voytko) --> 
<!-- Use, modification and distribution of Boost.Plot subject to the --> 
<!-- Boost Software License, Version 1.0.--> 
<!-- (See accompanying file LICENSE_1_0.txt --> 
<!-- or copy at http://www.boost.org/LICENSE_1_0.txt) --> 

<!-- SVG Plot Copyright John Maddock 2008 --> 
<meta name="copyright" content="John Maddock" />
<meta name="date" content="2008" />
<!-- Use, modification and distribution of this Scalable Vector Graphic file -->
<!-- are subject to the Boost Software License, Version 1.0. -->
<!-- (See accompanying file LICENSE_1_0.txt or copy at http://www.boost.org/LICENSE_1_0.txt) -->

<clipPath id="plot_window">	<rect x="71.1" y="44" width="553.4" height="309"/>
</clipPath>
	<g id="imageBackground" stroke="rgb(119,136,153)" fill="rgb(255,255,255)" stroke-width="2">
	<rect x="0" y="0" width="750" height="400"/>
</g>
	<g id="plotBackground" stroke="rgb(119,136,153)" fill="rgb(255,255,255)" stroke-width="2">
	<rect x="70.1" y="43" width="555.4" height="311"/>
</g>
	<g id="yMinorGrid" stroke="rgb(200,220,255)" stroke-width="0.5">
</g>
	<g id="yMajorGrid" stroke="rgb(200,220,255)" stroke-width="1">
</g>
	<g id="xMinorGrid" stroke="rgb(200,220,255)" stroke-width="0.5">
</g>
	<g id="xMajorGrid" stroke="rgb(200,220,255)" stroke-width="1">
</g>
	<g id="yAxis" stroke="rgb(0,0,0)" stroke-width="1">
	<line x1="70.1" y1="43" x2="70.1" y2="359"/>
	<line x1="70.1" y1="43" x2="70.1" y2="354"/>
</g>
	<g id="xAxis" stroke="rgb(0,0,0)" stroke-width="1">
	<line x1="65.1" y1="354" x2="625.5" y2="354"/>
	<line x1="65.1" y1="354" x2="625.5" y2="354"/>
</g>
	<g id="yMinorTicks" stroke="rgb(0,0,0)" stroke-width="1">
	<path d="M68.1,346.3 L70.1,346.3 
M68.1,338.6 L70.1,338.6 
M68.1,330.9 L70.1,330.9 
M68.1,323.3 L70.1,323.3 
M68.1,307.9 L70.1,307.9 
M68.1,300.2 L70.1,300.2 
M68.1,292.5 L70.1,292.5 
M68.1,284.8 L70.1,284.8 
M68.1,269.5 L70.1,269.5 
M68.1,261.8 L70.1,261.8 
M68.1,254.1 L70.1,254.1 
M68.1,246.4 L70.1,246.4 
M68.1,231 L70.1,231 
M68.1,223.3 L70.1,223.3 
M68.1,215.7 L70.1,215.7 
M68.1,208 L70.1,208 
M68.1,192.6 L70.1,192.6 
M68.1,184.9 L70.1,184.9 
M68.1,177.2 L70.1,177.2 
M68.1,169.6 L70.1,169.6 
M68.1,154.2 L70.1,154.2 
M68.1,146.5 L70.1,146.5 
M68.1,138.8 L70.1,138.8 
M68.1,131.1 L70.1,131.1 
M68.1,115.8 L70.1,115.8 
M68.1,108.1 L70.1,108.1 
M68.1,100.4 L70.1,100.4 
M68.1,92.7 L70.1,92.7 
M68.1,77.33 L70.1,77.33 
M68.1,69.64 L70.1,69.64 
M68.1,61.96 L70.1,61.96 
M68.1,54.27 L70.1,54.27 
M68.1,354 L70.1,354 
" fill="none"/>
</g>
	<g id="xMinorTicks" stroke="rgb(0,0,0)" stroke-width="1">
	<path d="M118.5,354 L118.5,356 
M166.8,354 L166.8,356 
M215.2,354 L215.2,356 
M263.5,354 L263.5,356 
M360.2,354 L360.2,356 
M408.6,354 L408.6,356 
M456.9,354 L456.9,356 
M505.3,354 L505.3,356 
M602,354 L602,356 
" fill="none"/>
</g>
	<g id="yMajorTicks" stroke="rgb(0,0,0)" stroke-width="2">
	<path d="M65.1,354 L70.1,354 
M65.1,315.6 L70.1,315.6 
M65.1,277.1 L70.1,277.1 
M65.1,238.7 L70.1,238.7 
M65.1,200.3 L70.1,200.3 
M65.1,161.9 L70.1,161.9 
M65.1,123.4 L70.1,123.4 
M65.1,85.01 L70.1,85.01 
M65.1,46.59 L70.1,46.59 
M65.1,354 L70.1,354 
" fill="none"/>
</g>
	<g id="xMajorTicks" stroke="rgb(0,0,0)" stroke-width="2">
	<path d="M70.1,354 L70.1,359 
M311.9,354 L311.9,359 
M553.6,354 L553.6,359 
" fill="none"/>
</g>
	<g id="xTicksValues" font-size="12" font-family="Lucida Sans Unicode" text-anchor="middle">
	<text x="70.1" y="374.6">0
	</text>
	<text x="311.9" y="374.6">5
	</text>
	<text x="553.6" y="374.6">10
	</text>
</g>
	<g id="yTicksValues" font-size="12" font-family="Lucida Sans Unicode" text-anchor="end">
	<text x="59.1" y="356.4">0
	</text>
	<text x="59.1" y="318">0.1
	</text>
	<text x="59.1" y="279.5">0.2
	</text>
	<text x="59.1" y="241.1">0.3
	</text>
	<text x="59.1" y="202.7">0.4
	</text>
	<text x="59.1" y="164.3">0.5
	</text>
	<text x="59.1" y="125.8">0.6
	</text>
	<text x="59.1" y="87.41">0.7
	</text>
	<text x="59.1" y="48.99">0.8
	</text>
	<text x="59.1" y="356.4">0
	</text>
</g>
	<g id="yLabel">
	<text x="32.4" y="198.5" text-anchor="middle" transform="rotate(-90 32.4 198.5)" font-size="14" font-family="Lucida Sans Unicode">Probability
	</text>
</g>
	<g id="xLabel">
	<text x="347.8" y="387.1" text-anchor="middle" font-size="12" font-family="Lucida Sans Unicode">Random Variable
	</text>
</g>
	<g id="plotLines" stroke-width="2">
	<g clip-path="url(#plot_window)" stroke="rgb(0,0,139)" stroke-width="1">
	<path d="M70.1,354 L70.1,354 
L72.88,275.3 
L75.65,213.7 
L78.43,166.4 
L81.21,131 
L83.98,105.5 
L86.76,88.12 
L89.54,77.47 
L92.32,72.25 
L95.09,71.43 
L97.87,74.1 
L100.6,79.52 
L103.4,87.06 
L106.2,96.2 
L109,106.5 
L111.8,117.6 
L114.5,129.2 
L117.3,141.1 
L120.1,153 
L122.9,164.9 
L125.6,176.5 
L128.4,187.9 
L131.2,198.8 
L134,209.4 
L136.7,219.5 
L139.5,229.1 
L142.3,238.2 
L145.1,246.8 
L147.9,254.9 
L150.6,262.5 
L153.4,269.6 
L156.2,276.2 
L159,282.4 
L161.7,288.2 
L164.5,293.6 
L167.3,298.5 
L170.1,303.1 
L172.8,307.4 
L175.6,311.3 
L178.4,315 
L181.2,318.3 
L184,321.4 
L186.7,324.2 
L189.5,326.8 
L192.3,329.2 
L195.1,331.4 
L197.8,333.4 
L200.6,335.2 
L203.4,336.9 
L206.2,338.5 
L209,339.9 
L211.7,341.1 
L214.5,342.3 
L217.3,343.4 
L220.1,344.4 
L222.8,345.2 
L225.6,346 
L228.4,346.8 
L231.2,347.5 
L233.9,348.1 
L236.7,348.6 
L239.5,349.1 
L242.3,349.6 
L245.1,350 
L247.8,350.4 
L250.6,350.7 
L253.4,351 
L256.2,351.3 
L258.9,351.6 
L261.7,351.8 
L264.5,352 
L267.3,352.2 
L270,352.4 
L272.8,352.5 
L275.6,352.7 
L278.4,352.8 
L281.2,352.9 
L283.9,353 
L286.7,353.1 
L289.5,353.2 
L292.3,353.3 
L295,353.3 
L297.8,353.4 
L300.6,353.5 
L303.4,353.5 
L306.1,353.6 
L308.9,353.6 
L311.7,353.6 
L314.5,353.7 
L317.3,353.7 
L320,353.7 
L322.8,353.8 
L325.6,353.8 
L328.4,353.8 
L331.1,353.8 
L333.9,353.8 
L336.7,353.9 
L339.5,353.9 
L342.2,353.9 
L345,353.9 
L347.8,353.9 
L350.6,353.9 
L353.4,353.9 
L356.1,353.9 
L358.9,353.9 
L361.7,353.9 
L364.5,354 
L367.2,354 
L370,354 
L372.8,354 
L375.6,354 
L378.3,354 
L381.1,354 
L383.9,354 
L386.7,354 
L389.5,354 
L392.2,354 
L395,354 
L397.8,354 
L400.6,354 
L403.3,354 
L406.1,354 
L408.9,354 
L411.7,354 
L414.4,354 
L417.2,354 
L420,354 
L422.8,354 
L425.6,354 
L428.3,354 
L431.1,354 
L433.9,354 
L436.7,354 
L439.4,354 
L442.2,354 
L445,354 
L447.8,354 
L450.5,354 
L453.3,354 
L456.1,354 
L458.9,354 
L461.7,354 
L464.4,354 
L467.2,354 
L470,354 
L472.8,354 
L475.5,354 
L478.3,354 
L481.1,354 
L483.9,354 
L486.6,354 
L489.4,354 
L492.2,354 
L495,354 
L497.8,354 
L500.5,354 
L503.3,354 
L506.1,354 
L508.9,354 
L511.6,354 
L514.4,354 
L517.2,354 
L520,354 
L522.8,354 
L525.5,354 
L528.3,354 
L531.1,354 
L533.9,354 
L536.6,354 
L539.4,354 
L542.2,354 
L545,354 
L547.7,354 
L550.5,354 
L553.3,354 
L556.1,354 
L558.9,354 
L561.6,354 
L564.4,354 
L567.2,354 
L570,354 
L572.7,354 
L575.5,354 
L578.3,354 
L581.1,354 
L583.8,354 
L586.6,354 
L589.4,354 
L592.2,354 
L595,354 
L597.7,354 
L600.5,354 
L603.3,354 
L606.1,354 
L608.8,354 
L611.6,354 
L614.4,354 
L617.2,354 
L619.9,354 
L622.7,354 
L625.5,354 
" fill="none"/>
</g>
	<g clip-path="url(#plot_window)" stroke="rgb(139,0,0)" stroke-width="1">
	<path d="M70.1,354 L70.1,354 
L72.88,333.2 
L75.65,314.7 
L78.43,298.3 
L81.21,283.8 
L83.98,271.2 
L86.76,260.2 
L89.54,250.7 
L92.32,242.5 
L95.09,235.5 
L97.87,229.7 
L100.6,224.9 
L103.4,221.1 
L106.2,218 
L109,215.7 
L111.8,214.1 
L114.5,213.1 
L117.3,212.7 
L120.1,212.7 
L122.9,213.2 
L125.6,214.1 
L128.4,215.3 
L131.2,216.8 
L134,218.5 
L136.7,220.5 
L139.5,222.7 
L142.3,225.1 
L145.1,227.6 
L147.9,230.2 
L150.6,233 
L153.4,235.8 
L156.2,238.7 
L159,241.6 
L161.7,244.6 
L164.5,247.5 
L167.3,250.5 
L170.1,253.5 
L172.8,256.5 
L175.6,259.4 
L178.4,262.4 
L181.2,265.3 
L184,268.1 
L186.7,270.9 
L189.5,273.7 
L192.3,276.4 
L195.1,279.1 
L197.8,281.7 
L200.6,284.2 
L203.4,286.7 
L206.2,289.2 
L209,291.5 
L211.7,293.8 
L214.5,296.1 
L217.3,298.3 
L220.1,300.4 
L222.8,302.4 
L225.6,304.4 
L228.4,306.4 
L231.2,308.2 
L233.9,310 
L236.7,311.8 
L239.5,313.5 
L242.3,315.1 
L245.1,316.7 
L247.8,318.2 
L250.6,319.7 
L253.4,321.1 
L256.2,322.5 
L258.9,323.8 
L261.7,325.1 
L264.5,326.3 
L267.3,327.4 
L270,328.6 
L272.8,329.7 
L275.6,330.7 
L278.4,331.7 
L281.2,332.7 
L283.9,333.6 
L286.7,334.5 
L289.5,335.3 
L292.3,336.2 
L295,336.9 
L297.8,337.7 
L300.6,338.4 
L303.4,339.1 
L306.1,339.8 
L308.9,340.4 
L311.7,341 
L314.5,341.6 
L317.3,342.2 
L320,342.7 
L322.8,343.2 
L325.6,343.7 
L328.4,344.2 
L331.1,344.6 
L333.9,345 
L336.7,345.5 
L339.5,345.8 
L342.2,346.2 
L345,346.6 
L347.8,346.9 
L350.6,347.3 
L353.4,347.6 
L356.1,347.9 
L358.9,348.2 
L361.7,348.4 
L364.5,348.7 
L367.2,348.9 
L370,349.2 
L372.8,349.4 
L375.6,349.6 
L378.3,349.8 
L381.1,350 
L383.9,350.2 
L386.7,350.4 
L389.5,350.6 
L392.2,350.7 
L395,350.9 
L397.8,351 
L400.6,351.2 
L403.3,351.3 
L406.1,351.4 
L408.9,351.6 
L411.7,351.7 
L414.4,351.8 
L417.2,351.9 
L420,352 
L422.8,352.1 
L425.6,352.2 
L428.3,352.3 
L431.1,352.4 
L433.9,352.4 
L436.7,352.5 
L439.4,352.6 
L442.2,352.7 
L445,352.7 
L447.8,352.8 
L450.5,352.8 
L453.3,352.9 
L456.1,353 
L458.9,353 
L461.7,353.1 
L464.4,353.1 
L467.2,353.1 
L470,353.2 
L472.8,353.2 
L475.5,353.3 
L478.3,353.3 
L481.1,353.3 
L483.9,353.4 
L486.6,353.4 
L489.4,353.4 
L492.2,353.5 
L495,353.5 
L497.8,353.5 
L500.5,353.5 
L503.3,353.6 
L506.1,353.6 
L508.9,353.6 
L511.6,353.6 
L514.4,353.6 
L517.2,353.7 
L520,353.7 
L522.8,353.7 
L525.5,353.7 
L528.3,353.7 
L531.1,353.7 
L533.9,353.7 
L536.6,353.8 
L539.4,353.8 
L542.2,353.8 
L545,353.8 
L547.7,353.8 
L550.5,353.8 
L553.3,353.8 
L556.1,353.8 
L558.9,353.8 
L561.6,353.8 
L564.4,353.9 
L567.2,353.9 
L570,353.9 
L572.7,353.9 
L575.5,353.9 
L578.3,353.9 
L581.1,353.9 
L583.8,353.9 
L586.6,353.9 
L589.4,353.9 
L592.2,353.9 
L595,353.9 
L597.7,353.9 
L600.5,353.9 
L603.3,353.9 
L606.1,353.9 
L608.8,353.9 
L611.6,353.9 
L614.4,353.9 
L617.2,353.9 
L619.9,353.9 
L622.7,354 
L625.5,354 
" fill="none"/>
</g>
	<g clip-path="url(#plot_window)" stroke="rgb(0,100,0)" stroke-width="1">
	<path d="M70.1,354 L70.1,354 
L72.88,348.6 
L75.65,343.6 
L78.43,338.8 
L81.21,334.3 
L83.98,330.1 
L86.76,326.1 
L89.54,322.4 
L92.32,318.9 
L95.09,315.7 
L97.87,312.6 
L100.6,309.7 
L103.4,307.1 
L106.2,304.6 
L109,302.3 
L111.8,300.2 
L114.5,298.2 
L117.3,296.4 
L120.1,294.8 
L122.9,293.3 
L125.6,291.9 
L128.4,290.6 
L131.2,289.5 
L134,288.4 
L136.7,287.5 
L139.5,286.7 
L142.3,286 
L145.1,285.4 
L147.9,284.9 
L150.6,284.4 
L153.4,284.1 
L156.2,283.8 
L159,283.6 
L161.7,283.4 
L164.5,283.3 
L167.3,283.3 
L170.1,283.4 
L172.8,283.5 
L175.6,283.6 
L178.4,283.8 
L181.2,284 
L184,284.3 
L186.7,284.6 
L189.5,285 
L192.3,285.4 
L195.1,285.8 
L197.8,286.3 
L200.6,286.8 
L203.4,287.3 
L206.2,287.8 
L209,288.4 
L211.7,288.9 
L214.5,289.5 
L217.3,290.2 
L220.1,290.8 
L222.8,291.5 
L225.6,292.1 
L228.4,292.8 
L231.2,293.5 
L233.9,294.2 
L236.7,294.9 
L239.5,295.6 
L242.3,296.3 
L245.1,297.1 
L247.8,297.8 
L250.6,298.5 
L253.4,299.3 
L256.2,300 
L258.9,300.8 
L261.7,301.5 
L264.5,302.3 
L267.3,303 
L270,303.7 
L272.8,304.5 
L275.6,305.2 
L278.4,306 
L281.2,306.7 
L283.9,307.4 
L286.7,308.2 
L289.5,308.9 
L292.3,309.6 
L295,310.3 
L297.8,311.1 
L300.6,311.8 
L303.4,312.5 
L306.1,313.2 
L308.9,313.8 
L311.7,314.5 
L314.5,315.2 
L317.3,315.9 
L320,316.5 
L322.8,317.2 
L325.6,317.8 
L328.4,318.5 
L331.1,319.1 
L333.9,319.7 
L336.7,320.4 
L339.5,321 
L342.2,321.6 
L345,322.2 
L347.8,322.8 
L350.6,323.3 
L353.4,323.9 
L356.1,324.5 
L358.9,325 
L361.7,325.6 
L364.5,326.1 
L367.2,326.7 
L370,327.2 
L372.8,327.7 
L375.6,328.2 
L378.3,328.7 
L381.1,329.2 
L383.9,329.7 
L386.7,330.2 
L389.5,330.7 
L392.2,331.1 
L395,331.6 
L397.8,332 
L400.6,332.5 
L403.3,332.9 
L406.1,333.3 
L408.9,333.7 
L411.7,334.2 
L414.4,334.6 
L417.2,335 
L420,335.3 
L422.8,335.7 
L425.6,336.1 
L428.3,336.5 
L431.1,336.8 
L433.9,337.2 
L436.7,337.6 
L439.4,337.9 
L442.2,338.2 
L445,338.6 
L447.8,338.9 
L450.5,339.2 
L453.3,339.5 
L456.1,339.8 
L458.9,340.1 
L461.7,340.4 
L464.4,340.7 
L467.2,341 
L470,341.3 
L472.8,341.6 
L475.5,341.8 
L478.3,342.1 
L481.1,342.4 
L483.9,342.6 
L486.6,342.9 
L489.4,343.1 
L492.2,343.3 
L495,343.6 
L497.8,343.8 
L500.5,344 
L503.3,344.2 
L506.1,344.5 
L508.9,344.7 
L511.6,344.9 
L514.4,345.1 
L517.2,345.3 
L520,345.5 
L522.8,345.7 
L525.5,345.8 
L528.3,346 
L531.1,346.2 
L533.9,346.4 
L536.6,346.6 
L539.4,346.7 
L542.2,346.9 
L545,347 
L547.7,347.2 
L550.5,347.4 
L553.3,347.5 
L556.1,347.7 
L558.9,347.8 
L561.6,347.9 
L564.4,348.1 
L567.2,348.2 
L570,348.3 
L572.7,348.5 
L575.5,348.6 
L578.3,348.7 
L581.1,348.8 
L583.8,349 
L586.6,349.1 
L589.4,349.2 
L592.2,349.3 
L595,349.4 
L597.7,349.5 
L600.5,349.6 
L603.3,349.7 
L606.1,349.8 
L608.8,349.9 
L611.6,350 
L614.4,350.1 
L617.2,350.2 
L619.9,350.3 
L622.7,350.4 
L625.5,350.5 
" fill="none"/>
</g>
</g>
	<g id="plotPoints" clip-path="url(#plot_window)">
</g>
	<g id="legendBackground" stroke="rgb(119,136,153)" fill="rgb(255,255,255)" stroke-width="1">
	<rect x="631.5" y="43" width="104.5" height="64.5"/>
</g>
	<g id="legendPoints">
</g>
	<g id="legendLines">
	<g stroke="rgb(0,0,139)" stroke-width="1">
	<line x1="646.8" y1="62.75" x2="652.8" y2="62.75"/>
</g>
	<g stroke="rgb(139,0,0)" stroke-width="1">
	<line x1="646.8" y1="75.25" x2="652.8" y2="75.25"/>
</g>
	<g stroke="rgb(0,100,0)" stroke-width="1">
	<line x1="646.8" y1="87.75" x2="652.8" y2="87.75"/>
</g>
</g>
	<g id="legendText">
	<text x="661.8" y="62.75" font-size="10" font-family="Lucida Sans Unicode" font-weight="normal" textLength="66">scale = 0.5
	</text>
	<text x="661.8" y="75.25" font-size="10" font-family="Lucida Sans Unicode" font-weight="normal" textLength="54">scale = 1
	</text>
	<text x="661.8" y="87.75" font-size="10" font-family="Lucida Sans Unicode" font-weight="normal" textLength="54">scale = 2
	</text>
</g>
	<g id="title">
	<text x="375" y="30" text-anchor="middle" font-size="20" font-family="Lucida Sans Unicode" font-weight="normal">Gamma Distribution PDF With Shape = 2
	</text>
</g>
	<g id="plotXValues">
</g>
	<g id="plotYValues">
</g>
</svg>
