<?xml version="1.0" encoding="UTF-8" standalone="no"?>
<svg width="750" height ="400" version="1.1"
xmlns:svg ="http://www.w3.org/2000/svg"
xmlns:rdf="http://www.w3.org/1999/02/22-rdf-syntax-ns#"
xmlns:cc="http://web.resource.org/cc/"
xmlns:dc="http://purl.org/dc/elements/1.1/"
xmlns ="http://www.w3.org/2000/svg"
>
<!-- SVG plot written using Boost.Plot program (Creator Jacob Voytko) --> 
<!-- Use, modification and distribution of Boost.Plot subject to the --> 
<!-- Boost Software License, Version 1.0.--> 
<!-- (See accompanying file LICENSE_1_0.txt --> 
<!-- or copy at http://www.boost.org/LICENSE_1_0.txt) --> 

<!-- SVG Plot Copyright John Maddock 2008 --> 
<meta name="copyright" content="John Maddock" />
<meta name="date" content="2008" />
<!-- Use, modification and distribution of this Scalable Vector Graphic file -->
<!-- are subject to the Boost Software License, Version 1.0. -->
<!-- (See accompanying file LICENSE_1_0.txt or copy at http://www.boost.org/LICENSE_1_0.txt) -->

<clipPath id="plot_window">	<rect x="71.1" y="44" width="547.4" height="309"/>
</clipPath>
	<g id="imageBackground" stroke="rgb(119,136,153)" fill="rgb(255,255,255)" stroke-width="2">
	<rect x="0" y="0" width="750" height="400"/>
</g>
	<g id="plotBackground" stroke="rgb(119,136,153)" fill="rgb(255,255,255)" stroke-width="2">
	<rect x="70.1" y="43" width="549.4" height="311"/>
</g>
	<g id="yMinorGrid" stroke="rgb(200,220,255)" stroke-width="0.5">
</g>
	<g id="yMajorGrid" stroke="rgb(200,220,255)" stroke-width="1">
</g>
	<g id="xMinorGrid" stroke="rgb(200,220,255)" stroke-width="0.5">
</g>
	<g id="xMajorGrid" stroke="rgb(200,220,255)" stroke-width="1">
</g>
	<g id="yAxis" stroke="rgb(0,0,0)" stroke-width="1">
	<line x1="70.1" y1="43" x2="70.1" y2="359"/>
	<line x1="70.1" y1="43" x2="70.1" y2="354"/>
</g>
	<g id="xAxis" stroke="rgb(0,0,0)" stroke-width="1">
	<line x1="65.1" y1="354" x2="619.5" y2="354"/>
	<line x1="65.1" y1="354" x2="619.5" y2="354"/>
</g>
	<g id="yMinorTicks" stroke="rgb(0,0,0)" stroke-width="1">
	<path d="M68.1,338.6 L70.1,338.6 
M68.1,323.1 L70.1,323.1 
M68.1,307.7 L70.1,307.7 
M68.1,292.2 L70.1,292.2 
M68.1,261.4 L70.1,261.4 
M68.1,245.9 L70.1,245.9 
M68.1,230.5 L70.1,230.5 
M68.1,215 L70.1,215 
M68.1,184.2 L70.1,184.2 
M68.1,168.7 L70.1,168.7 
M68.1,153.3 L70.1,153.3 
M68.1,137.8 L70.1,137.8 
M68.1,107 L70.1,107 
M68.1,91.52 L70.1,91.52 
M68.1,76.08 L70.1,76.08 
M68.1,60.63 L70.1,60.63 
M68.1,354 L70.1,354 
" fill="none"/>
</g>
	<g id="xMinorTicks" stroke="rgb(0,0,0)" stroke-width="1">
	<path d="M84.39,354 L84.39,356 
M98.68,354 L98.68,356 
M113,354 L113,356 
M127.3,354 L127.3,356 
M155.8,354 L155.8,356 
M170.1,354 L170.1,356 
M184.4,354 L184.4,356 
M198.7,354 L198.7,356 
M227.3,354 L227.3,356 
M241.6,354 L241.6,356 
M255.9,354 L255.9,356 
M270.2,354 L270.2,356 
M298.7,354 L298.7,356 
M313,354 L313,356 
M327.3,354 L327.3,356 
M341.6,354 L341.6,356 
M370.2,354 L370.2,356 
M384.5,354 L384.5,356 
M398.8,354 L398.8,356 
M413.1,354 L413.1,356 
M441.7,354 L441.7,356 
M455.9,354 L455.9,356 
M470.2,354 L470.2,356 
M484.5,354 L484.5,356 
M513.1,354 L513.1,356 
M527.4,354 L527.4,356 
M541.7,354 L541.7,356 
M556,354 L556,356 
M584.6,354 L584.6,356 
M598.9,354 L598.9,356 
M613.1,354 L613.1,356 
" fill="none"/>
</g>
	<g id="yMajorTicks" stroke="rgb(0,0,0)" stroke-width="2">
	<path d="M65.1,354 L70.1,354 
M65.1,276.8 L70.1,276.8 
M65.1,199.6 L70.1,199.6 
M65.1,122.4 L70.1,122.4 
M65.1,45.19 L70.1,45.19 
M65.1,354 L70.1,354 
" fill="none"/>
</g>
	<g id="xMajorTicks" stroke="rgb(0,0,0)" stroke-width="2">
	<path d="M70.1,354 L70.1,359 
M141.6,354 L141.6,359 
M213,354 L213,359 
M284.5,354 L284.5,359 
M355.9,354 L355.9,359 
M427.4,354 L427.4,359 
M498.8,354 L498.8,359 
M570.3,354 L570.3,359 
" fill="none"/>
</g>
	<g id="xTicksValues" font-size="12" font-family="Lucida Sans Unicode" text-anchor="middle">
	<text x="70.1" y="374.6">0
	</text>
	<text x="141.6" y="374.6">1
	</text>
	<text x="213" y="374.6">2
	</text>
	<text x="284.5" y="374.6">3
	</text>
	<text x="355.9" y="374.6">4
	</text>
	<text x="427.4" y="374.6">5
	</text>
	<text x="498.8" y="374.6">6
	</text>
	<text x="570.3" y="374.6">7
	</text>
</g>
	<g id="yTicksValues" font-size="12" font-family="Lucida Sans Unicode" text-anchor="end">
	<text x="59.1" y="356.4">0
	</text>
	<text x="59.1" y="279.2">0.5
	</text>
	<text x="59.1" y="202">1
	</text>
	<text x="59.1" y="124.8">1.5
	</text>
	<text x="59.1" y="47.59">2
	</text>
	<text x="59.1" y="356.4">0
	</text>
</g>
	<g id="yLabel">
	<text x="32.4" y="198.5" text-anchor="middle" transform="rotate(-90 32.4 198.5)" font-size="14" font-family="Lucida Sans Unicode">Probability
	</text>
</g>
	<g id="xLabel">
	<text x="344.8" y="387.1" text-anchor="middle" font-size="12" font-family="Lucida Sans Unicode">Random Variable
	</text>
</g>
	<g id="plotLines" stroke-width="2">
	<g clip-path="url(#plot_window)" stroke="rgb(0,0,139)" stroke-width="1">
	<path d="M72.85,80.18 L72.85,80.18 
L75.59,132.4 
L78.34,161.3 
L81.09,181.5 
L83.83,197 
L86.58,209.6 
L89.33,220.3 
L92.08,229.6 
L94.82,237.8 
L97.57,245.1 
L100.3,251.6 
L103.1,257.6 
L105.8,263.1 
L108.6,268.1 
L111.3,272.8 
L114.1,277.1 
L116.8,281.1 
L119.5,284.8 
L122.3,288.3 
L125,291.6 
L127.8,294.7 
L130.5,297.6 
L133.3,300.3 
L136,302.9 
L138.8,305.3 
L141.5,307.6 
L144.3,309.8 
L147,311.8 
L149.8,313.8 
L152.5,315.6 
L155.3,317.4 
L158,319 
L160.8,320.6 
L163.5,322.1 
L166.2,323.5 
L169,324.9 
L171.7,326.2 
L174.5,327.4 
L177.2,328.6 
L180,329.7 
L182.7,330.8 
L185.5,331.8 
L188.2,332.7 
L191,333.6 
L193.7,334.5 
L196.5,335.4 
L199.2,336.2 
L202,336.9 
L204.7,337.7 
L207.4,338.3 
L210.2,339 
L212.9,339.6 
L215.7,340.3 
L218.4,340.8 
L221.2,341.4 
L223.9,341.9 
L226.7,342.4 
L229.4,342.9 
L232.2,343.4 
L234.9,343.8 
L237.7,344.2 
L240.4,344.6 
L243.2,345 
L245.9,345.4 
L248.7,345.8 
L251.4,346.1 
L254.1,346.4 
L256.9,346.7 
L259.6,347 
L262.4,347.3 
L265.1,347.6 
L267.9,347.9 
L270.6,348.1 
L273.4,348.4 
L276.1,348.6 
L278.9,348.8 
L281.6,349 
L284.4,349.2 
L287.1,349.4 
L289.9,349.6 
L292.6,349.8 
L295.4,350 
L298.1,350.1 
L300.8,350.3 
L303.6,350.4 
L306.3,350.6 
L309.1,350.7 
L311.8,350.8 
L314.6,351 
L317.3,351.1 
L320.1,351.2 
L322.8,351.3 
L325.6,351.4 
L328.3,351.5 
L331.1,351.6 
L333.8,351.7 
L336.6,351.8 
L339.3,351.9 
L342.1,352 
L344.8,352.1 
L347.5,352.2 
L350.3,352.2 
L353,352.3 
L355.8,352.4 
L358.5,352.4 
L361.3,352.5 
L364,352.6 
L366.8,352.6 
L369.5,352.7 
L372.3,352.7 
L375,352.8 
L377.8,352.8 
L380.5,352.9 
L383.3,352.9 
L386,353 
L388.8,353 
L391.5,353 
L394.2,353.1 
L397,353.1 
L399.7,353.1 
L402.5,353.2 
L405.2,353.2 
L408,353.2 
L410.7,353.3 
L413.5,353.3 
L416.2,353.3 
L419,353.4 
L421.7,353.4 
L424.5,353.4 
L427.2,353.4 
L430,353.5 
L432.7,353.5 
L435.5,353.5 
L438.2,353.5 
L440.9,353.5 
L443.7,353.6 
L446.4,353.6 
L449.2,353.6 
L451.9,353.6 
L454.7,353.6 
L457.4,353.6 
L460.2,353.6 
L462.9,353.7 
L465.7,353.7 
L468.4,353.7 
L471.2,353.7 
L473.9,353.7 
L476.7,353.7 
L479.4,353.7 
L482.1,353.7 
L484.9,353.8 
L487.6,353.8 
L490.4,353.8 
L493.1,353.8 
L495.9,353.8 
L498.6,353.8 
L501.4,353.8 
L504.1,353.8 
L506.9,353.8 
L509.6,353.8 
L512.4,353.8 
L515.1,353.8 
L517.9,353.8 
L520.6,353.9 
L523.4,353.9 
L526.1,353.9 
L528.8,353.9 
L531.6,353.9 
L534.3,353.9 
L537.1,353.9 
L539.8,353.9 
L542.6,353.9 
L545.3,353.9 
L548.1,353.9 
L550.8,353.9 
L553.6,353.9 
L556.3,353.9 
L559.1,353.9 
L561.8,353.9 
L564.6,353.9 
L567.3,353.9 
L570.1,353.9 
L572.8,353.9 
L575.5,353.9 
L578.3,353.9 
L581,353.9 
L583.8,353.9 
L586.5,353.9 
L589.3,353.9 
L592,353.9 
L594.8,354 
L597.5,354 
L600.3,354 
L603,354 
L605.8,354 
L608.5,354 
L611.3,354 
L614,354 
L616.8,354 
L619.5,354 
" fill="none"/>
</g>
	<g clip-path="url(#plot_window)" stroke="rgb(139,0,0)" stroke-width="1">
	<path d="M70.1,199.6 L70.1,199.6 
L72.85,205.4 
L75.59,211 
L78.34,216.4 
L81.09,221.6 
L83.83,226.6 
L86.58,231.4 
L89.33,236 
L92.08,240.5 
L94.82,244.8 
L97.57,248.9 
L100.3,252.8 
L103.1,256.7 
L105.8,260.3 
L108.6,263.9 
L111.3,267.3 
L114.1,270.5 
L116.8,273.7 
L119.5,276.7 
L122.3,279.6 
L125,282.4 
L127.8,285.1 
L130.5,287.7 
L133.3,290.2 
L136,292.6 
L138.8,294.9 
L141.5,297.2 
L144.3,299.3 
L147,301.4 
L149.8,303.4 
L152.5,305.3 
L155.3,307.1 
L158,308.9 
L160.8,310.6 
L163.5,312.2 
L166.2,313.8 
L169,315.3 
L171.7,316.8 
L174.5,318.2 
L177.2,319.5 
L180,320.8 
L182.7,322.1 
L185.5,323.3 
L188.2,324.4 
L191,325.6 
L193.7,326.6 
L196.5,327.7 
L199.2,328.7 
L202,329.6 
L204.7,330.5 
L207.4,331.4 
L210.2,332.3 
L212.9,333.1 
L215.7,333.9 
L218.4,334.6 
L221.2,335.4 
L223.9,336.1 
L226.7,336.7 
L229.4,337.4 
L232.2,338 
L234.9,338.6 
L237.7,339.2 
L240.4,339.8 
L243.2,340.3 
L245.9,340.8 
L248.7,341.3 
L251.4,341.8 
L254.1,342.3 
L256.9,342.7 
L259.6,343.1 
L262.4,343.5 
L265.1,343.9 
L267.9,344.3 
L270.6,344.7 
L273.4,345 
L276.1,345.4 
L278.9,345.7 
L281.6,346 
L284.4,346.3 
L287.1,346.6 
L289.9,346.9 
L292.6,347.1 
L295.4,347.4 
L298.1,347.6 
L300.8,347.9 
L303.6,348.1 
L306.3,348.3 
L309.1,348.6 
L311.8,348.8 
L314.6,349 
L317.3,349.1 
L320.1,349.3 
L322.8,349.5 
L325.6,349.7 
L328.3,349.8 
L331.1,350 
L333.8,350.1 
L336.6,350.3 
L339.3,350.4 
L342.1,350.6 
L344.8,350.7 
L347.5,350.8 
L350.3,350.9 
L353,351.1 
L355.8,351.2 
L358.5,351.3 
L361.3,351.4 
L364,351.5 
L366.8,351.6 
L369.5,351.7 
L372.3,351.8 
L375,351.8 
L377.8,351.9 
L380.5,352 
L383.3,352.1 
L386,352.1 
L388.8,352.2 
L391.5,352.3 
L394.2,352.3 
L397,352.4 
L399.7,352.5 
L402.5,352.5 
L405.2,352.6 
L408,352.6 
L410.7,352.7 
L413.5,352.7 
L416.2,352.8 
L419,352.8 
L421.7,352.9 
L424.5,352.9 
L427.2,353 
L430,353 
L432.7,353 
L435.5,353.1 
L438.2,353.1 
L440.9,353.1 
L443.7,353.2 
L446.4,353.2 
L449.2,353.2 
L451.9,353.3 
L454.7,353.3 
L457.4,353.3 
L460.2,353.3 
L462.9,353.4 
L465.7,353.4 
L468.4,353.4 
L471.2,353.4 
L473.9,353.5 
L476.7,353.5 
L479.4,353.5 
L482.1,353.5 
L484.9,353.5 
L487.6,353.6 
L490.4,353.6 
L493.1,353.6 
L495.9,353.6 
L498.6,353.6 
L501.4,353.6 
L504.1,353.6 
L506.9,353.7 
L509.6,353.7 
L512.4,353.7 
L515.1,353.7 
L517.9,353.7 
L520.6,353.7 
L523.4,353.7 
L526.1,353.7 
L528.8,353.7 
L531.6,353.8 
L534.3,353.8 
L537.1,353.8 
L539.8,353.8 
L542.6,353.8 
L545.3,353.8 
L548.1,353.8 
L550.8,353.8 
L553.6,353.8 
L556.3,353.8 
L559.1,353.8 
L561.8,353.8 
L564.6,353.8 
L567.3,353.9 
L570.1,353.9 
L572.8,353.9 
L575.5,353.9 
L578.3,353.9 
L581,353.9 
L583.8,353.9 
L586.5,353.9 
L589.3,353.9 
L592,353.9 
L594.8,353.9 
L597.5,353.9 
L600.3,353.9 
L603,353.9 
L605.8,353.9 
L608.5,353.9 
L611.3,353.9 
L614,353.9 
L616.8,353.9 
L619.5,353.9 
" fill="none"/>
</g>
	<g clip-path="url(#plot_window)" stroke="rgb(0,100,0)" stroke-width="1">
	<path d="M70.1,354 L70.1,354 
L72.85,353.9 
L75.59,353.6 
L78.34,353.1 
L81.09,352.4 
L83.83,351.6 
L86.58,350.7 
L89.33,349.7 
L92.08,348.6 
L94.82,347.5 
L97.57,346.2 
L100.3,345 
L103.1,343.6 
L105.8,342.3 
L108.6,340.9 
L111.3,339.6 
L114.1,338.2 
L116.8,336.8 
L119.5,335.5 
L122.3,334.2 
L125,332.8 
L127.8,331.6 
L130.5,330.3 
L133.3,329.1 
L136,327.9 
L138.8,326.7 
L141.5,325.6 
L144.3,324.5 
L147,323.5 
L149.8,322.5 
L152.5,321.6 
L155.3,320.7 
L158,319.9 
L160.8,319.1 
L163.5,318.3 
L166.2,317.6 
L169,316.9 
L171.7,316.3 
L174.5,315.8 
L177.2,315.2 
L180,314.8 
L182.7,314.3 
L185.5,314 
L188.2,313.6 
L191,313.3 
L193.7,313 
L196.5,312.8 
L199.2,312.6 
L202,312.5 
L204.7,312.4 
L207.4,312.3 
L210.2,312.2 
L212.9,312.2 
L215.7,312.2 
L218.4,312.3 
L221.2,312.3 
L223.9,312.4 
L226.7,312.6 
L229.4,312.7 
L232.2,312.9 
L234.9,313.1 
L237.7,313.3 
L240.4,313.6 
L243.2,313.8 
L245.9,314.1 
L248.7,314.4 
L251.4,314.7 
L254.1,315 
L256.9,315.4 
L259.6,315.7 
L262.4,316.1 
L265.1,316.5 
L267.9,316.9 
L270.6,317.3 
L273.4,317.7 
L276.1,318.1 
L278.9,318.5 
L281.6,319 
L284.4,319.4 
L287.1,319.8 
L289.9,320.3 
L292.6,320.7 
L295.4,321.2 
L298.1,321.7 
L300.8,322.1 
L303.6,322.6 
L306.3,323.1 
L309.1,323.5 
L311.8,324 
L314.6,324.5 
L317.3,325 
L320.1,325.4 
L322.8,325.9 
L325.6,326.4 
L328.3,326.8 
L331.1,327.3 
L333.8,327.8 
L336.6,328.2 
L339.3,328.7 
L342.1,329.1 
L344.8,329.6 
L347.5,330 
L350.3,330.5 
L353,330.9 
L355.8,331.4 
L358.5,331.8 
L361.3,332.2 
L364,332.6 
L366.8,333.1 
L369.5,333.5 
L372.3,333.9 
L375,334.3 
L377.8,334.7 
L380.5,335.1 
L383.3,335.5 
L386,335.9 
L388.8,336.2 
L391.5,336.6 
L394.2,337 
L397,337.3 
L399.7,337.7 
L402.5,338.1 
L405.2,338.4 
L408,338.7 
L410.7,339.1 
L413.5,339.4 
L416.2,339.7 
L419,340.1 
L421.7,340.4 
L424.5,340.7 
L427.2,341 
L430,341.3 
L432.7,341.6 
L435.5,341.9 
L438.2,342.1 
L440.9,342.4 
L443.7,342.7 
L446.4,343 
L449.2,343.2 
L451.9,343.5 
L454.7,343.7 
L457.4,344 
L460.2,344.2 
L462.9,344.4 
L465.7,344.7 
L468.4,344.9 
L471.2,345.1 
L473.9,345.3 
L476.7,345.6 
L479.4,345.8 
L482.1,346 
L484.9,346.2 
L487.6,346.4 
L490.4,346.6 
L493.1,346.7 
L495.9,346.9 
L498.6,347.1 
L501.4,347.3 
L504.1,347.4 
L506.9,347.6 
L509.6,347.8 
L512.4,347.9 
L515.1,348.1 
L517.9,348.2 
L520.6,348.4 
L523.4,348.5 
L526.1,348.7 
L528.8,348.8 
L531.6,349 
L534.3,349.1 
L537.1,349.2 
L539.8,349.3 
L542.6,349.5 
L545.3,349.6 
L548.1,349.7 
L550.8,349.8 
L553.6,349.9 
L556.3,350 
L559.1,350.1 
L561.8,350.2 
L564.6,350.3 
L567.3,350.4 
L570.1,350.5 
L572.8,350.6 
L575.5,350.7 
L578.3,350.8 
L581,350.9 
L583.8,351 
L586.5,351.1 
L589.3,351.2 
L592,351.2 
L594.8,351.3 
L597.5,351.4 
L600.3,351.5 
L603,351.5 
L605.8,351.6 
L608.5,351.7 
L611.3,351.7 
L614,351.8 
L616.8,351.9 
L619.5,351.9 
" fill="none"/>
</g>
</g>
	<g id="plotPoints" clip-path="url(#plot_window)">
</g>
	<g id="legendBackground" stroke="rgb(119,136,153)" fill="rgb(255,255,255)" stroke-width="1">
	<rect x="625.5" y="43" width="110.5" height="64.5"/>
</g>
	<g id="legendPoints">
</g>
	<g id="legendLines">
	<g stroke="rgb(0,0,139)" stroke-width="1">
	<line x1="640.8" y1="62.75" x2="646.8" y2="62.75"/>
</g>
	<g stroke="rgb(139,0,0)" stroke-width="1">
	<line x1="640.8" y1="75.25" x2="646.8" y2="75.25"/>
</g>
	<g stroke="rgb(0,100,0)" stroke-width="1">
	<line x1="640.8" y1="87.75" x2="646.8" y2="87.75"/>
</g>
</g>
	<g id="legendText">
	<text x="655.8" y="62.75" font-size="10" font-family="Lucida Sans Unicode" font-weight="normal" textLength="72">shape = 0.75
	</text>
	<text x="655.8" y="75.25" font-size="10" font-family="Lucida Sans Unicode" font-weight="normal" textLength="54">shape = 1
	</text>
	<text x="655.8" y="87.75" font-size="10" font-family="Lucida Sans Unicode" font-weight="normal" textLength="54">shape = 3
	</text>
</g>
	<g id="title">
	<text x="375" y="30" text-anchor="middle" font-size="20" font-family="Lucida Sans Unicode" font-weight="normal">Gamma Distribution PDF With Scale = 1
	</text>
</g>
	<g id="plotXValues">
</g>
	<g id="plotYValues">
</g>
</svg>
