<?xml version="1.0" encoding="UTF-8" standalone="no"?>
<svg width="500" height ="350" version="1.1"
xmlns:svg ="http://www.w3.org/2000/svg"
xmlns:rdf="http://www.w3.org/1999/02/22-rdf-syntax-ns#"
xmlns:cc="http://web.resource.org/cc/"
xmlns:dc="http://purl.org/dc/elements/1.1/"
xmlns ="http://www.w3.org/2000/svg"
>
<!-- SVG plot written using Boost.Plot program (Creator Jacob Voytko) --> 
<!-- Use, modification and distribution of Boost.Plot subject to the --> 
<!-- Boost Software License, Version 1.0.--> 
<!-- (See accompanying file LICENSE_1_0.txt --> 
<!-- or copy at http://www.boost.org/LICENSE_1_0.txt) --> 

<!-- File ./heat_flow_data_boxplot.svg --> 
<clipPath id="plot_window">	<rect x="76" y="52" width="412" height="232"/>
</clipPath>

<g id="imageBackground" stroke="rgb(255,255,0)" fill="rgb(255,255,255)" stroke-width="2">
	<rect x="0" y="0" width="500" height="350"/>
</g>
<g id="plotBackground" stroke="rgb(255,255,0)" fill="rgb(255,255,255)" stroke-width="1">
	<rect x="81" y="57" width="407" height="227"/>
</g>
<g id="X-axis" stroke="rgb(0,0,0)" stroke-width="1">
	<line x1="81" y1="284" x2="488" y2="284"/>
</g>
<g id="Y-axis" stroke="rgb(0,0,0)" stroke-width="1">
	<line x1="81" y1="284" x2="81" y2="57"/>
</g>
<g id="xMajorTicks" stroke="rgb(0,0,0)" stroke-width="1">
	<path d="M285,284 L285,289 
" fill="none"/>
</g>
<g id="yMajorTicks" stroke="rgb(0,0,0)" stroke-width="2">
	<path d="M76,284 L81,284 
M76,251 L81,251 
M76,219 L81,219 
M76,186 L81,186 
M76,154 L81,154 
M76,122 L81,122 
M76,89.4 L81,89.4 
" fill="none"/>
</g>
<g id="yMinorTicks" stroke="rgb(0,0,0)" stroke-width="1">
	<path d="M79,277 L81,277 
M79,271 L81,271 
M79,264 L81,264 
M79,258 L81,258 
M79,245 L81,245 
M79,238 L81,238 
M79,232 L81,232 
M79,225 L81,225 
M79,212 L81,212 
M79,206 L81,206 
M79,199 L81,199 
M79,193 L81,193 
M79,180 L81,180 
M79,174 L81,174 
M79,167 L81,167 
M79,161 L81,161 
M79,148 L81,148 
M79,141 L81,141 
M79,135 L81,135 
M79,128 L81,128 
M79,115 L81,115 
M79,109 L81,109 
M79,102 L81,102 
M79,95.8 L81,95.8 
M79,82.9 L81,82.9 
M79,76.4 L81,76.4 
M79,69.9 L81,69.9 
M79,63.5 L81,63.5 
" fill="none"/>
</g>
<g id="YGrid" stroke="rgb(200,220,255)" stroke-width="1">
</g>
<g id="yMinorGrid" stroke="rgb(200,220,255)" stroke-width="0.5">
</g>
<g id="valueLabels" fill="rgb(0,0,0)">
	<text x="285" y="308" text-anchor="middle" font-size="14" font-family="Lucida Sans Unicode">NIST heat flows	</text>
	<text x="70" y="286" text-anchor="end" font-size="12" font-family="Lucida Sans Unicode">9.18	</text>
	<text x="70" y="254" text-anchor="end" font-size="12" font-family="Lucida Sans Unicode">9.2	</text>
	<text x="70" y="221" text-anchor="end" font-size="12" font-family="Lucida Sans Unicode">9.23	</text>
	<text x="70" y="189" text-anchor="end" font-size="12" font-family="Lucida Sans Unicode">9.25	</text>
	<text x="70" y="157" text-anchor="end" font-size="12" font-family="Lucida Sans Unicode">9.28	</text>
	<text x="70" y="124" text-anchor="end" font-size="12" font-family="Lucida Sans Unicode">9.3	</text>
	<text x="70" y="91.8" text-anchor="end" font-size="12" font-family="Lucida Sans Unicode">9.33	</text>
</g>
<g id="yLabel" fill="rgb(0,0,0)">
	<text x="30.2" y="170" text-anchor="middle" transform="rotate(-90 30.2 170)" font-size="14" font-family="Lucida Sans Unicode">	</text>
</g>
<g id="xLabel" fill="rgb(0,0,0)">
	<text x="285" y="327" text-anchor="middle" font-size="14" font-family="Lucida Sans Unicode">	</text>
</g>
<g id="boxAxis" stroke="rgb(0,0,0)">

<g clip-path="url(#plot_window)" stroke="rgb(0,0,0)" stroke-width="1">
	<line x1="285" y1="243" x2="285" y2="108"/>
</g></g>
<g id="Median" stroke="rgb(255,0,0)" stroke-width="2">

<g clip-path="url(#plot_window)" stroke="rgb(0,128,0)" fill="rgb(240,255,255)" stroke-width="1">
	<rect x="270" y="153" width="30" height="38"/>
</g>
<g clip-path="url(#plot_window)" stroke="rgb(0,0,255)" stroke-width="1">
	<line x1="270" y1="171" x2="299" y2="171"/>
</g></g>
<g id="whisker" stroke="rgb(0,0,0)">

<g clip-path="url(#plot_window)">

<g stroke="rgb(255,0,255)" fill="rgb(0,0,0)" stroke-width="1">
	<line x1="270" y1="243" x2="300" y2="243"/>
</g>
<g stroke="rgb(0,255,255)" fill="rgb(0,0,0)" stroke-width="1">
	<line x1="270" y1="108" x2="300" y2="108"/>
</g></g></g>
<g id="mild_outliers" stroke="rgb(255,192,203)" fill="rgb(0,0,0)">

<g clip-path="url(#plot_window)" stroke="rgb(165,42,42)">
	<text x="285" y="257" text-anchor="middle" font-size="5" font-family="Lucida Sans Unicode">&#x25CF;	</text>
	<text x="285" y="87" text-anchor="middle" font-size="5" font-family="Lucida Sans Unicode">&#x25CF;	</text>
	<text x="285" y="97.3" text-anchor="middle" font-size="5" font-family="Lucida Sans Unicode">&#x25CF;	</text>
</g></g>
<g id="extreme_outliers" stroke="rgb(128,0,128)" fill="rgb(255,255,255)">
</g>
<g id="title" fill="rgb(0,0,0)">
	<text x="250" y="36" text-anchor="middle" font-size="18" font-family="Lucida Sans Unicode">NIST Heat_Flow Data	</text>
</g></svg>
