<?xml version="1.0" encoding="UTF-8" standalone="no"?>
<svg width="500" height ="200" version="1.1"
xmlns:svg ="http://www.w3.org/2000/svg"
xmlns:rdf="http://www.w3.org/1999/02/22-rdf-syntax-ns#"
xmlns:cc="http://web.resource.org/cc/"
xmlns:dc="http://purl.org/dc/elements/1.1/"
xmlns ="http://www.w3.org/2000/svg"
>
<!-- SVG plot written using Boost.Plot program (Creator Jacob Voytko) --> 
<!-- Use, modification and distribution of Boost.Plot subject to the --> 
<!-- Boost Software License, Version 1.0.--> 
<!-- (See accompanying file LICENSE_1_0.txt --> 
<!-- or copy at http://www.boost.org/LICENSE_1_0.txt) --> 

<!-- SVG Plot Copyright Paul A. Bristow, Bob Zarr, NIST 2008-06-19 --> 
<meta name="copyright" content="Paul A. Bristow, Bob Zarr, NIST" />
<meta name="date" content="2008-06-19" />
<!-- NIST Heat_Flow Data --> 
<desc>NIST Heat_Flow Data</desc>
<title>NIST Heat_Flow Data</title>
<!-- File ./heat_flow_data.svg --> 
<metadata id = "id0">
<rdf:RDF>
<cc:Work rdf:about="./heat_flow_data.svg">
<dc:format>image/svg+xml</dc:format>
<dc:type rdf:resource="http://purl.org/dc/dcmitype/StillImage" />
<dc:title> NIST Heat_Flow Data</dc:title>
<dc:creator> <cc:Agent> <dc:title>Boost.Plot</dc:title> </cc:Agent></dc:creator>
<dc:author><cc:Agent><dc:title>Paul A. Bristow, Bob Zarr, NIST </dc:title> </cc:Agent> </dc:author>
<dc:rights><cc:Agent><dc:title>Paul A. Bristow, Bob Zarr, NIST</dc:title></cc:Agent></dc:rights>
<dc:date>2008-06-19</dc:date>
<dc:identifier>./heat_flow_data.svg</dc:identifier>
<dc:source>Boost.SVG_Plot 2.0</dc:source>
<dc:relation></dc:relation>
<dc:publisher><cc:Agent><dc:title>Paul A. Bristow, Bob Zarr, NIST</dc:title></cc:Agent></dc:publisher>
<dc:language>en_US</dc:language>
<dc:description>NIST Heat_Flow Data</dc:description>
<dc:contributor><cc:Agent><dc:title>Paul A. Bristow, Bob Zarr, NIST</dc:title></cc:Agent></dc:contributor>
<dc:subject><rdf:Bag><rdf:li>Boost svg plot keyword</rdf:li></rdf:Bag></dc:subject>
<cc:license rdf:resource="http://creativecommons.org/licenses/" />
</cc:Work>
<cc:License rdf:about="http://creativecommons.org/licenses/">
<cc:permits rdf:resource="http://web.resource.org/cc/Reproduction"/>
<cc:permits rdf:resource="http://web.resource.org/cc/Distribution"/>
<cc:requires rdf:resource="http://web.resource.org/cc/Notice"/>
<cc:requires rdf:resource="http://web.resource.org/cc/Attribution"/>
<cc:permits rdf:resource="http://web.resource.org/cc/CommercialUse"/>
<cc:permits rdf:resource="http://web.resource.org/cc/DerivativeWorks"/>
</cc:License>
</rdf:RDF>
</metadata>
	<g id="imageBackground" stroke="rgb(255,255,0)" fill="rgb(255,255,255)" stroke-width="1">
	<rect x="0" y="0" width="500" height="200"/>
</g>
	<g id="plotBackground" stroke="rgb(250,250,210)" fill="rgb(255,255,255)" stroke-width="1">
	<rect x="21" y="42.5" width="458" height="129"/>
</g>
	<g id="xMinorGrid" stroke="rgb(200,220,255)" stroke-width="0.5">
</g>
	<g id="xMajorGrid" stroke="rgb(200,220,255)" stroke-width="1">
</g>
	<g id="xAxis" stroke="rgb(0,0,0)" stroke-width="1">
	<line x1="21" y1="109.5" x2="479" y2="109.5"/>
</g>
	<g id="xMinorTicks" stroke="rgb(0,0,0)" stroke-width="1">
	<path d="M34.0857,109.5 L34.0857,111.5 
M47.1714,109.5 L47.1714,111.5 
M60.2571,109.5 L60.2571,111.5 
M73.3429,109.5 L73.3429,111.5 
M99.5143,109.5 L99.5143,111.5 
M112.6,109.5 L112.6,111.5 
M125.686,109.5 L125.686,111.5 
M138.771,109.5 L138.771,111.5 
M164.943,109.5 L164.943,111.5 
M178.029,109.5 L178.029,111.5 
M191.114,109.5 L191.114,111.5 
M204.2,109.5 L204.2,111.5 
M230.371,109.5 L230.371,111.5 
M243.457,109.5 L243.457,111.5 
M256.543,109.5 L256.543,111.5 
M269.629,109.5 L269.629,111.5 
M295.8,109.5 L295.8,111.5 
M308.886,109.5 L308.886,111.5 
M321.971,109.5 L321.971,111.5 
M335.057,109.5 L335.057,111.5 
M361.229,109.5 L361.229,111.5 
M374.314,109.5 L374.314,111.5 
M387.4,109.5 L387.4,111.5 
M400.486,109.5 L400.486,111.5 
M426.657,109.5 L426.657,111.5 
M439.743,109.5 L439.743,111.5 
M452.829,109.5 L452.829,111.5 
M465.914,109.5 L465.914,111.5 
" fill="none"/>
</g>
	<g id="xMajorTicks" stroke="rgb(0,0,0)" stroke-width="2">
	<path d="M21,109.5 L21,114.5 
M86.4286,109.5 L86.4286,114.5 
M151.857,109.5 L151.857,114.5 
M217.286,109.5 L217.286,114.5 
M282.714,109.5 L282.714,114.5 
M348.143,109.5 L348.143,114.5 
M413.571,109.5 L413.571,114.5 
" fill="none"/>
</g>
	<g id="xTicksValues" font-size="10" font-family="Verdana" text-anchor="middle">
	<text x="21" y="127.5">9.18
	</text>
	<text x="86.4286" y="127.5">9.2
	</text>
	<text x="151.857" y="127.5">9.23
	</text>
	<text x="217.286" y="127.5">9.25
	</text>
	<text x="282.714" y="127.5">9.28
	</text>
	<text x="348.143" y="127.5">9.3
	</text>
	<text x="413.571" y="127.5">9.33
	</text>
</g>
	<g id="xLabel">
	<text x="250" y="188.5" text-anchor="middle" font-size="10" font-family="Verdana">heat flow
	</text>
</g>
	<g id="plotPoints">
	<g stroke="rgb(0,0,0)" font-size="5" font-family="Lucida Sans Unicode" text-anchor="middle">
	<line x1="103.029" y1="109.5" x2="103.029" y2="99.5"/>
	<line x1="348.122" y1="109.5" x2="348.122" y2="99.5"/>
	<line x1="290.291" y1="109.5" x2="290.291" y2="99.5"/>
	<line x1="363.309" y1="109.5" x2="363.309" y2="99.5"/>
	<line x1="283.633" y1="109.5" x2="283.633" y2="99.5"/>
	<line x1="318.645" y1="109.5" x2="318.645" y2="99.5"/>
	<line x1="314.745" y1="109.5" x2="314.745" y2="99.5"/>
	<line x1="246.004" y1="109.5" x2="246.004" y2="99.5"/>
	<line x1="356.285" y1="109.5" x2="356.285" y2="99.5"/>
	<line x1="284.478" y1="109.5" x2="284.478" y2="99.5"/>
	<line x1="276.331" y1="109.5" x2="276.331" y2="99.5"/>
	<line x1="317.925" y1="109.5" x2="317.925" y2="99.5"/>
	<line x1="232.13" y1="109.5" x2="232.13" y2="99.5"/>
	<line x1="222.889" y1="109.5" x2="222.889" y2="99.5"/>
	<line x1="342.045" y1="109.5" x2="342.045" y2="99.5"/>
	<line x1="260.558" y1="109.5" x2="260.558" y2="99.5"/>
	<line x1="234.792" y1="109.5" x2="234.792" y2="99.5"/>
	<line x1="289.367" y1="109.5" x2="289.367" y2="99.5"/>
	<line x1="212.588" y1="109.5" x2="212.588" y2="99.5"/>
	<line x1="222.8" y1="109.5" x2="222.8" y2="99.5"/>
	<line x1="286.234" y1="109.5" x2="286.234" y2="99.5"/>
	<line x1="292.382" y1="109.5" x2="292.382" y2="99.5"/>
	<line x1="262.154" y1="109.5" x2="262.154" y2="99.5"/>
	<line x1="207.163" y1="109.5" x2="207.163" y2="99.5"/>
	<line x1="187.134" y1="109.5" x2="187.134" y2="99.5"/>
	<line x1="267.163" y1="109.5" x2="267.163" y2="99.5"/>
	<line x1="212.677" y1="109.5" x2="212.677" y2="99.5"/>
	<line x1="236.755" y1="109.5" x2="236.755" y2="99.5"/>
	<line x1="265.653" y1="109.5" x2="265.653" y2="99.5"/>
	<line x1="317.925" y1="109.5" x2="317.925" y2="99.5"/>
	<line x1="239.406" y1="109.5" x2="239.406" y2="99.5"/>
	<line x1="311.843" y1="109.5" x2="311.843" y2="99.5"/>
	<line x1="221.156" y1="109.5" x2="221.156" y2="99.5"/>
	<line x1="236.666" y1="109.5" x2="236.666" y2="99.5"/>
	<line x1="265.292" y1="109.5" x2="265.292" y2="99.5"/>
	<line x1="325.379" y1="109.5" x2="325.379" y2="99.5"/>
	<line x1="137.358" y1="109.5" x2="137.358" y2="99.5"/>
	<line x1="270.639" y1="109.5" x2="270.639" y2="99.5"/>
	<line x1="135.652" y1="109.5" x2="135.652" y2="99.5"/>
	<line x1="194.216" y1="109.5" x2="194.216" y2="99.5"/>
	<line x1="269.6" y1="109.5" x2="269.6" y2="99.5"/>
	<line x1="156.005" y1="109.5" x2="156.005" y2="99.5"/>
	<line x1="239.678" y1="109.5" x2="239.678" y2="99.5"/>
	<line x1="311.984" y1="109.5" x2="311.984" y2="99.5"/>
	<line x1="400.661" y1="109.5" x2="400.661" y2="99.5"/>
	<line x1="421.352" y1="109.5" x2="421.352" y2="99.5"/>
	<line x1="251.212" y1="109.5" x2="251.212" y2="99.5"/>
	<line x1="212.525" y1="109.5" x2="212.525" y2="99.5"/>
	<line x1="187.565" y1="109.5" x2="187.565" y2="99.5"/>
	<line x1="152.048" y1="109.5" x2="152.048" y2="99.5"/>
	<line x1="141.069" y1="109.5" x2="141.069" y2="99.5"/>
	<line x1="273.078" y1="109.5" x2="273.078" y2="99.5"/>
	<line x1="222.708" y1="109.5" x2="222.708" y2="99.5"/>
	<line x1="298.904" y1="109.5" x2="298.904" y2="99.5"/>
	<line x1="271.262" y1="109.5" x2="271.262" y2="99.5"/>
	<line x1="334.458" y1="109.5" x2="334.458" y2="99.5"/>
	<line x1="352.909" y1="109.5" x2="352.909" y2="99.5"/>
	<line x1="292.788" y1="109.5" x2="292.788" y2="99.5"/>
	<line x1="182.425" y1="109.5" x2="182.425" y2="99.5"/>
	<line x1="175.38" y1="109.5" x2="175.38" y2="99.5"/>
	<line x1="203.381" y1="109.5" x2="203.381" y2="99.5"/>
	<line x1="142.961" y1="109.5" x2="142.961" y2="99.5"/>
	<line x1="105.599" y1="109.5" x2="105.599" y2="99.5"/>
	<line x1="240.254" y1="109.5" x2="240.254" y2="99.5"/>
	<line x1="284.567" y1="109.5" x2="284.567" y2="99.5"/>
	<line x1="266.894" y1="109.5" x2="266.894" y2="99.5"/>
	<line x1="236.31" y1="109.5" x2="236.31" y2="99.5"/>
	<line x1="256.488" y1="109.5" x2="256.488" y2="99.5"/>
	<line x1="336.366" y1="109.5" x2="336.366" y2="99.5"/>
	<line x1="329.517" y1="109.5" x2="329.517" y2="99.5"/>
	<line x1="254.418" y1="109.5" x2="254.418" y2="99.5"/>
	<line x1="297.713" y1="109.5" x2="297.713" y2="99.5"/>
	<line x1="262.657" y1="109.5" x2="262.657" y2="99.5"/>
	<line x1="349.624" y1="109.5" x2="349.624" y2="99.5"/>
	<line x1="225.37" y1="109.5" x2="225.37" y2="99.5"/>
	<line x1="247.058" y1="109.5" x2="247.058" y2="99.5"/>
	<line x1="186.95" y1="109.5" x2="186.95" y2="99.5"/>
	<line x1="152.048" y1="109.5" x2="152.048" y2="99.5"/>
	<line x1="179.405" y1="109.5" x2="179.405" y2="99.5"/>
	<line x1="189.832" y1="109.5" x2="189.832" y2="99.5"/>
	<line x1="255.2" y1="109.5" x2="255.2" y2="99.5"/>
	<line x1="202.216" y1="109.5" x2="202.216" y2="99.5"/>
	<line x1="289.367" y1="109.5" x2="289.367" y2="99.5"/>
	<line x1="375.639" y1="109.5" x2="375.639" y2="99.5"/>
	<line x1="247.629" y1="109.5" x2="247.629" y2="99.5"/>
	<line x1="242.91" y1="109.5" x2="242.91" y2="99.5"/>
	<line x1="225.37" y1="109.5" x2="225.37" y2="99.5"/>
	<line x1="206.124" y1="109.5" x2="206.124" y2="99.5"/>
	<line x1="306.42" y1="109.5" x2="306.42" y2="99.5"/>
	<line x1="220.222" y1="109.5" x2="220.222" y2="99.5"/>
	<line x1="283.722" y1="109.5" x2="283.722" y2="99.5"/>
	<line x1="229.374" y1="109.5" x2="229.374" y2="99.5"/>
	<line x1="294.559" y1="109.5" x2="294.559" y2="99.5"/>
	<line x1="282.884" y1="109.5" x2="282.884" y2="99.5"/>
	<line x1="248.566" y1="109.5" x2="248.566" y2="99.5"/>
	<line x1="283.633" y1="109.5" x2="283.633" y2="99.5"/>
	<line x1="223.653" y1="109.5" x2="223.653" y2="99.5"/>
	<line x1="165.631" y1="109.5" x2="165.631" y2="99.5"/>
	<line x1="230.764" y1="109.5" x2="230.764" y2="99.5"/>
	<line x1="266.436" y1="109.5" x2="266.436" y2="99.5"/>
	<line x1="322.989" y1="109.5" x2="322.989" y2="99.5"/>
	<line x1="280.519" y1="109.5" x2="280.519" y2="99.5"/>
	<line x1="232.222" y1="109.5" x2="232.222" y2="99.5"/>
	<line x1="247.809" y1="109.5" x2="247.809" y2="99.5"/>
	<line x1="218.477" y1="109.5" x2="218.477" y2="99.5"/>
	<line x1="248.566" y1="109.5" x2="248.566" y2="99.5"/>
	<line x1="254.033" y1="109.5" x2="254.033" y2="99.5"/>
	<line x1="255.258" y1="109.5" x2="255.258" y2="99.5"/>
	<line x1="196.647" y1="109.5" x2="196.647" y2="99.5"/>
	<line x1="190.261" y1="109.5" x2="190.261" y2="99.5"/>
	<line x1="142.836" y1="109.5" x2="142.836" y2="99.5"/>
	<line x1="196.178" y1="109.5" x2="196.178" y2="99.5"/>
	<line x1="126.379" y1="109.5" x2="126.379" y2="99.5"/>
	<line x1="311.32" y1="109.5" x2="311.32" y2="99.5"/>
	<line x1="273.709" y1="109.5" x2="273.709" y2="99.5"/>
	<line x1="259.28" y1="109.5" x2="259.28" y2="99.5"/>
	<line x1="309.668" y1="109.5" x2="309.668" y2="99.5"/>
	<line x1="266.983" y1="109.5" x2="266.983" y2="99.5"/>
	<line x1="264.36" y1="109.5" x2="264.36" y2="99.5"/>
	<line x1="207.252" y1="109.5" x2="207.252" y2="99.5"/>
	<line x1="168.356" y1="109.5" x2="168.356" y2="99.5"/>
	<line x1="193.124" y1="109.5" x2="193.124" y2="99.5"/>
	<line x1="244.781" y1="109.5" x2="244.781" y2="99.5"/>
	<line x1="281.026" y1="109.5" x2="281.026" y2="99.5"/>
	<line x1="328.19" y1="109.5" x2="328.19" y2="99.5"/>
	<line x1="272.691" y1="109.5" x2="272.691" y2="99.5"/>
	<line x1="261.824" y1="109.5" x2="261.824" y2="99.5"/>
	<line x1="371.273" y1="109.5" x2="371.273" y2="99.5"/>
	<line x1="254.326" y1="109.5" x2="254.326" y2="99.5"/>
	<line x1="292.717" y1="109.5" x2="292.717" y2="99.5"/>
	<line x1="231.01" y1="109.5" x2="231.01" y2="99.5"/>
	<line x1="162.904" y1="109.5" x2="162.904" y2="99.5"/>
	<line x1="225.551" y1="109.5" x2="225.551" y2="99.5"/>
	<line x1="233.753" y1="109.5" x2="233.753" y2="99.5"/>
	<line x1="250.267" y1="109.5" x2="250.267" y2="99.5"/>
	<line x1="138.23" y1="109.5" x2="138.23" y2="99.5"/>
	<line x1="239.406" y1="109.5" x2="239.406" y2="99.5"/>
	<line x1="264.36" y1="109.5" x2="264.36" y2="99.5"/>
	<line x1="264.36" y1="109.5" x2="264.36" y2="99.5"/>
	<line x1="214.415" y1="109.5" x2="214.415" y2="99.5"/>
	<line x1="178.429" y1="109.5" x2="178.429" y2="99.5"/>
	<line x1="198.79" y1="109.5" x2="198.79" y2="99.5"/>
	<line x1="226.323" y1="109.5" x2="226.323" y2="99.5"/>
	<line x1="250.448" y1="109.5" x2="250.448" y2="99.5"/>
	<line x1="197.751" y1="109.5" x2="197.751" y2="99.5"/>
	<line x1="245.559" y1="109.5" x2="245.559" y2="99.5"/>
	<line x1="242.999" y1="109.5" x2="242.999" y2="99.5"/>
	<line x1="225.459" y1="109.5" x2="225.459" y2="99.5"/>
	<line x1="193.216" y1="109.5" x2="193.216" y2="99.5"/>
	<line x1="187.743" y1="109.5" x2="187.743" y2="99.5"/>
	<line x1="253.078" y1="109.5" x2="253.078" y2="99.5"/>
	<line x1="198.971" y1="109.5" x2="198.971" y2="99.5"/>
	<line x1="208.979" y1="109.5" x2="208.979" y2="99.5"/>
	<line x1="222.8" y1="109.5" x2="222.8" y2="99.5"/>
	<line x1="247.809" y1="109.5" x2="247.809" y2="99.5"/>
	<line x1="210.248" y1="109.5" x2="210.248" y2="99.5"/>
	<line x1="363.99" y1="109.5" x2="363.99" y2="99.5"/>
	<line x1="184.954" y1="109.5" x2="184.954" y2="99.5"/>
	<line x1="214.504" y1="109.5" x2="214.504" y2="99.5"/>
	<line x1="234.792" y1="109.5" x2="234.792" y2="99.5"/>
	<line x1="258.576" y1="109.5" x2="258.576" y2="99.5"/>
	<line x1="345.649" y1="109.5" x2="345.649" y2="99.5"/>
	<line x1="203.713" y1="109.5" x2="203.713" y2="99.5"/>
	<line x1="314.657" y1="109.5" x2="314.657" y2="99.5"/>
	<line x1="349.624" y1="109.5" x2="349.624" y2="99.5"/>
	<line x1="234.614" y1="109.5" x2="234.614" y2="99.5"/>
	<line x1="273.078" y1="109.5" x2="273.078" y2="99.5"/>
	<line x1="283.117" y1="109.5" x2="283.117" y2="99.5"/>
	<line x1="300.6" y1="109.5" x2="300.6" y2="99.5"/>
	<line x1="225.551" y1="109.5" x2="225.551" y2="99.5"/>
	<line x1="267.074" y1="109.5" x2="267.074" y2="99.5"/>
	<line x1="301.236" y1="109.5" x2="301.236" y2="99.5"/>
	<line x1="289.275" y1="109.5" x2="289.275" y2="99.5"/>
	<line x1="308.65" y1="109.5" x2="308.65" y2="99.5"/>
	<line x1="190.696" y1="109.5" x2="190.696" y2="99.5"/>
	<line x1="265.295" y1="109.5" x2="265.295" y2="99.5"/>
	<line x1="211.47" y1="109.5" x2="211.47" y2="99.5"/>
	<line x1="151.959" y1="109.5" x2="151.959" y2="99.5"/>
	<line x1="166.906" y1="109.5" x2="166.906" y2="99.5"/>
	<line x1="269.691" y1="109.5" x2="269.691" y2="99.5"/>
	<line x1="256.791" y1="109.5" x2="256.791" y2="99.5"/>
	<line x1="307.075" y1="109.5" x2="307.075" y2="99.5"/>
	<line x1="297.624" y1="109.5" x2="297.624" y2="99.5"/>
	<line x1="251.392" y1="109.5" x2="251.392" y2="99.5"/>
	<line x1="326.816" y1="109.5" x2="326.816" y2="99.5"/>
	<line x1="222.708" y1="109.5" x2="222.708" y2="99.5"/>
	<line x1="201.664" y1="109.5" x2="201.664" y2="99.5"/>
	<line x1="304.355" y1="109.5" x2="304.355" y2="99.5"/>
	<line x1="78.1793" y1="109.5" x2="78.1793" y2="99.5"/>
	<line x1="168.534" y1="109.5" x2="168.534" y2="99.5"/>
	<line x1="172.697" y1="109.5" x2="172.697" y2="99.5"/>
	<line x1="177.913" y1="109.5" x2="177.913" y2="99.5"/>
	<line x1="130.255" y1="109.5" x2="130.255" y2="99.5"/>
	<line x1="280.377" y1="109.5" x2="280.377" y2="99.5"/>
	<line x1="279.511" y1="109.5" x2="279.511" y2="99.5"/>
</g>
</g>
	<g id="title">
	<text x="250" y="27" text-anchor="middle" font-size="18" font-family="Verdana">NIST Heat flow data
	</text>
</g>
</svg>
