<?xml version="1.0" encoding="UTF-8" standalone="no"?>
<svg width="500" height ="350" version="1.1"
xmlns:svg ="http://www.w3.org/2000/svg"
xmlns:rdf="http://www.w3.org/1999/02/22-rdf-syntax-ns#"
xmlns:cc="http://web.resource.org/cc/"
xmlns:dc="http://purl.org/dc/elements/1.1/"
xmlns ="http://www.w3.org/2000/svg"
>
<!-- SVG plot written using Boost.Plot program (Creator Jacob Voytko) --> 
<!-- Use, modification and distribution of Boost.Plot subject to the --> 
<!-- Boost Software License, Version 1.0.--> 
<!-- (See accompanying file LICENSE_1_0.txt --> 
<!-- or copy at http://www.boost.org/LICENSE_1_0.txt) --> 

<!-- File ./heat_flow_data_boxplot.svg --> 
<clipPath id="plot_window"><rect x="73" y="52" width="415" height="232"/></clipPath>
<g id="imageBackground" stroke="rgb(255,255,0)" fill="rgb(255,255,255)" stroke-width="2"><rect x="0" y="0" width="500" height="350"/></g>
<g id="plotBackground" stroke="rgb(255,255,0)" fill="rgb(255,255,255)" stroke-width="1"><rect x="78" y="57" width="410" height="227"/></g>
<g id="X-axis" stroke="rgb(0,0,0)" stroke-width="1"><line x1="78" y1="284" x2="488" y2="284"/></g>
<g id="Y-axis" stroke="rgb(0,0,0)" stroke-width="1"><line x1="78" y1="284" x2="78" y2="57"/></g>
<g id="xMajorTicks" stroke="rgb(0,0,0)" stroke-width="1"><path d="M283,284 L283,289 " fill="none"/></g>
<g id="yMajorTicks" stroke="rgb(0,0,0)" stroke-width="2"><path d="M73,284 L78,284 M73,251 L78,251 M73,219 L78,219 M73,186 L78,186 M73,154 L78,154 M73,122 L78,122 M73,89.4 L78,89.4 " fill="none"/></g>
<g id="yMinorTicks" stroke="rgb(0,0,0)" stroke-width="1"><path d="M76,277 L78,277 M76,271 L78,271 M76,264 L78,264 M76,258 L78,258 M76,245 L78,245 M76,238 L78,238 M76,232 L78,232 M76,225 L78,225 M76,212 L78,212 M76,206 L78,206 M76,199 L78,199 M76,193 L78,193 M76,180 L78,180 M76,174 L78,174 M76,167 L78,167 M76,161 L78,161 M76,148 L78,148 M76,141 L78,141 M76,135 L78,135 M76,128 L78,128 M76,115 L78,115 M76,109 L78,109 M76,102 L78,102 M76,95.8 L78,95.8 M76,82.9 L78,82.9 M76,76.4 L78,76.4 M76,69.9 L78,69.9 M76,63.5 L78,63.5 " fill="none"/></g>
<g id="YGrid" stroke="rgb(200,220,255)" stroke-width="1"></g>
<g id="yMinorGrid" stroke="rgb(200,220,255)" stroke-width="0.5"></g>
<g id="valueLabels" fill="rgb(0,0,0)">
<text x="283" y="308" text-anchor="middle" font-size="14" font-family="Lucida Sans Unicode">NIST heat flows</text>
<text x="67" y="286" text-anchor="end" font-size="12" font-family="Lucida Sans Unicode">9.18</text>
<text x="67" y="254" text-anchor="end" font-size="12" font-family="Lucida Sans Unicode">9.2</text>
<text x="67" y="221" text-anchor="end" font-size="12" font-family="Lucida Sans Unicode">9.23</text>
<text x="67" y="189" text-anchor="end" font-size="12" font-family="Lucida Sans Unicode">9.25</text>
<text x="67" y="157" text-anchor="end" font-size="12" font-family="Lucida Sans Unicode">9.28</text>
<text x="67" y="124" text-anchor="end" font-size="12" font-family="Lucida Sans Unicode">9.3</text>
<text x="67" y="91.8" text-anchor="end" font-size="12" font-family="Lucida Sans Unicode">9.33</text></g>
<g id="yLabel" fill="rgb(0,0,0)">
<text x="30.2" y="170" text-anchor="middle" transform = "rotate(-90 30.2 170 )" font-size="14" font-family="Lucida Sans Unicode"></text></g>
<g id="xLabel" fill="rgb(0,0,0)">
<text x="283" y="327" text-anchor="middle" font-size="14" font-family="Lucida Sans Unicode"></text></g>
<g id="boxAxis" stroke="rgb(0,0,0)"><g clip-path="url(#plot_window)" stroke="rgb(0,0,0)" stroke-width="1"><line x1="283" y1="243" x2="283" y2="108"/></g>
</g>
<g id="Median" stroke="rgb(255,0,0)" stroke-width="2"><g clip-path="url(#plot_window)" stroke="rgb(0,128,0)" fill="rgb(240,255,255)" stroke-width="1"><rect x="268" y="153" width="30" height="38"/></g>
<g clip-path="url(#plot_window)" stroke="rgb(0,0,255)" stroke-width="1"><line x1="268" y1="171" x2="298" y2="171"/></g>
</g>
<g id="whisker" stroke="rgb(0,0,0)"><g clip-path="url(#plot_window)"><g stroke="rgb(255,0,255)" fill="rgb(0,0,0)" stroke-width="1"><line x1="268" y1="243" x2="298" y2="243"/></g>
<g stroke="rgb(0,255,255)" fill="rgb(0,0,0)" stroke-width="1"><line x1="268" y1="108" x2="298" y2="108"/></g>
</g>
</g>
<g id="mild_outliers" stroke="rgb(255,192,203)" fill="rgb(0,0,0)"><g clip-path="url(#plot_window)" stroke="rgb(165,42,42)">
<text x="283" y="257" text-anchor="middle" font-size="5" font-family="Lucida Sans Unicode">&#x25CB;</text>
<text x="283" y="87" text-anchor="middle" font-size="5" font-family="Lucida Sans Unicode">&#x25CB;</text>
<text x="283" y="97.3" text-anchor="middle" font-size="5" font-family="Lucida Sans Unicode">&#x25CB;</text></g>
</g>
<g id="extreme_outliers" stroke="rgb(128,0,128)" fill="rgb(255,255,255)"></g>
<g id="title" fill="rgb(0,0,0)">
<text x="250" y="36" text-anchor="middle" font-size="18" font-family="Lucida Sans Unicode">NIST Heat_Flow Data</text></g>
</svg>
