<?xml version="1.0" encoding="UTF-8" standalone="no"?>
<svg width="750" height ="400" version="1.1"
xmlns:svg ="http://www.w3.org/2000/svg"
xmlns:rdf="http://www.w3.org/1999/02/22-rdf-syntax-ns#"
xmlns:cc="http://web.resource.org/cc/"
xmlns:dc="http://purl.org/dc/elements/1.1/"
xmlns ="http://www.w3.org/2000/svg"
>
<!-- SVG plot written using Boost.Plot program (Creator Jacob Voytko) --> 
<!-- Use, modification and distribution of Boost.Plot subject to the --> 
<!-- Boost Software License, Version 1.0.--> 
<!-- (See accompanying file LICENSE_1_0.txt --> 
<!-- or copy at http://www.boost.org/LICENSE_1_0.txt) --> 

<!-- SVG Plot Copyright John Maddock 2008 --> 
<meta name="copyright" content="John Maddock" />
<meta name="date" content="2008" />
<!-- Use, modification and distribution of this Scalable Vector Graphic file -->
<!-- are subject to the Boost Software License, Version 1.0. -->
<!-- (See accompanying file LICENSE_1_0.txt or copy at http://www.boost.org/LICENSE_1_0.txt) -->

<clipPath id="plot_window">	<rect x="78.3" y="44" width="503" height="309"/>
</clipPath>
	<g id="imageBackground" stroke="rgb(119,136,153)" fill="rgb(255,255,255)" stroke-width="2">
	<rect x="0" y="0" width="750" height="400"/>
</g>
	<g id="plotBackground" stroke="rgb(119,136,153)" fill="rgb(255,255,255)" stroke-width="2">
	<rect x="77.3" y="43" width="505" height="311"/>
</g>
	<g id="yMinorGrid" stroke="rgb(200,220,255)" stroke-width="0.5">
</g>
	<g id="yMajorGrid" stroke="rgb(200,220,255)" stroke-width="1">
</g>
	<g id="xMinorGrid" stroke="rgb(200,220,255)" stroke-width="0.5">
</g>
	<g id="xMajorGrid" stroke="rgb(200,220,255)" stroke-width="1">
</g>
	<g id="yAxis" stroke="rgb(0,0,0)" stroke-width="1">
	<line x1="82.25" y1="43" x2="82.25" y2="359"/>
	<line x1="77.3" y1="43" x2="77.3" y2="354"/>
</g>
	<g id="xAxis" stroke="rgb(0,0,0)" stroke-width="1">
	<line x1="72.3" y1="354" x2="582.3" y2="354"/>
	<line x1="72.3" y1="354" x2="582.3" y2="354"/>
</g>
	<g id="yMinorTicks" stroke="rgb(0,0,0)" stroke-width="1">
	<path d="M75.3,339.5 L77.3,339.5 
M75.3,325 L77.3,325 
M75.3,310.5 L77.3,310.5 
M75.3,296 L77.3,296 
M75.3,267 L77.3,267 
M75.3,252.5 L77.3,252.5 
M75.3,237.9 L77.3,237.9 
M75.3,223.4 L77.3,223.4 
M75.3,194.4 L77.3,194.4 
M75.3,179.9 L77.3,179.9 
M75.3,165.4 L77.3,165.4 
M75.3,150.9 L77.3,150.9 
M75.3,121.9 L77.3,121.9 
M75.3,107.4 L77.3,107.4 
M75.3,92.88 L77.3,92.88 
M75.3,78.37 L77.3,78.37 
M75.3,49.35 L77.3,49.35 
M75.3,354 L77.3,354 
" fill="none"/>
</g>
	<g id="xMinorTicks" stroke="rgb(0,0,0)" stroke-width="1">
</g>
	<g id="yMajorTicks" stroke="rgb(0,0,0)" stroke-width="2">
	<path d="M72.3,354 L77.3,354 
M72.3,281.5 L77.3,281.5 
M72.3,208.9 L77.3,208.9 
M72.3,136.4 L77.3,136.4 
M72.3,63.86 L77.3,63.86 
M72.3,354 L77.3,354 
" fill="none"/>
</g>
	<g id="xMajorTicks" stroke="rgb(0,0,0)" stroke-width="2">
	<path d="M82.25,354 L82.25,359 
M181.3,354 L181.3,359 
M280.3,354 L280.3,359 
M379.3,354 L379.3,359 
M478.3,354 L478.3,359 
M577.3,354 L577.3,359 
M82.25,354 L82.25,359 
" fill="none"/>
</g>
	<g id="xTicksValues" font-size="12" font-family="Lucida Sans Unicode" text-anchor="middle">
	<text x="82.25" y="374.6">0
	</text>
	<text x="181.3" y="374.6">10
	</text>
	<text x="280.3" y="374.6">20
	</text>
	<text x="379.3" y="374.6">30
	</text>
	<text x="478.3" y="374.6">40
	</text>
	<text x="577.3" y="374.6">50
	</text>
	<text x="82.25" y="374.6">0
	</text>
</g>
	<g id="yTicksValues" font-size="12" font-family="Lucida Sans Unicode" text-anchor="end">
	<text x="66.3" y="356.4">0
	</text>
	<text x="66.3" y="283.9">0.05
	</text>
	<text x="66.3" y="211.3">0.1
	</text>
	<text x="66.3" y="138.8">0.15
	</text>
	<text x="66.3" y="66.26">0.2
	</text>
	<text x="66.3" y="356.4">0
	</text>
</g>
	<g id="yLabel">
	<text x="32.4" y="198.5" text-anchor="middle" transform="rotate(-90 32.4 198.5)" font-size="14" font-family="Lucida Sans Unicode">Probability
	</text>
</g>
	<g id="xLabel">
	<text x="329.8" y="387.1" text-anchor="middle" font-size="12" font-family="Lucida Sans Unicode">Random Variable
	</text>
</g>
	<g id="plotLines" stroke-width="2">
	<g clip-path="url(#plot_window)" stroke="rgb(0,0,139)" fill="rgb(0,0,139)" stroke-width="1">
	<path d="M78.54,354 L78.54,354 
L78.54,354 
L78.54,348.4 
L80.02,348.4 
L80.02,354 
L88.44,354 
L88.44,319.2 
L89.92,319.2 
L89.93,354 
L98.34,354 
L98.34,250.1 
L99.83,250.1 
L99.83,354 
L108.2,354 
L108.2,156.1 
L109.7,156.1 
L109.7,354 
L118.1,354 
L118.1,83.43 
L119.6,83.43 
L119.6,354 
L128,354 
L128,71.27 
L129.5,71.27 
L129.5,354 
L137.9,354 
L137.9,119 
L139.4,119 
L139.4,354 
L147.9,354 
L147.9,194.3 
L149.3,194.3 
L149.3,354 
L157.8,354 
L157.8,263.5 
L159.2,263.5 
L159.2,354 
L167.7,354 
L167.7,310.6 
L169.1,310.6 
L169.1,354 
L177.6,354 
L177.6,336.2 
L179,336.2 
L179,354 
L187.5,354 
L187.5,347.7 
L188.9,347.7 
L188.9,354 
L197.4,354 
L197.4,352.1 
L198.8,352.1 
L198.8,354 
L207.3,354 
L207.3,353.5 
L208.7,353.5 
L208.7,354 
L217.2,354 
L217.2,353.9 
L218.7,353.9 
L218.7,354 
L227.1,354 
L227.1,354 
L228.6,354 
L228.6,354 
L237,354 
L237,354 
L238.5,354 
L238.5,354 
L246.9,354 
L246.9,354 
L248.4,354 
L248.4,354 
L256.8,354 
L256.8,354 
L258.3,354 
L258.3,354 
L266.7,354 
L266.7,354 
L268.2,354 
L268.2,354 
L276.6,354 
L276.6,354 
L278.1,354 
L278.1,354 
L286.5,354 
L286.5,354 
L288,354 
L288,354 
L296.4,354 
L296.4,354 
L297.9,354 
L297.9,354 
L306.3,354 
L306.3,354 
L307.8,354 
L307.8,354 
L316.2,354 
L316.2,354 
L317.7,354 
L317.7,354 
L326.1,354 
L326.1,354 
L327.6,354 
L327.6,354 
L336,354 
L336,354 
L337.5,354 
L337.5,354 
L345.9,354 
L345.9,354 
L347.4,354 
L347.4,354 
L355.8,354 
L355.8,354 
L357.3,354 
L357.3,354 
L365.7,354 
L365.7,354 
L367.2,354 
L367.2,354 
L375.6,354 
L375.6,354 
L377.1,354 
L377.1,354 
L385.5,354 
L385.5,354 
L387,354 
L387,354 
L395.4,354 
L395.4,354 
L396.9,354 
L396.9,354 
L405.3,354 
L405.3,354 
L406.8,354 
L406.8,354 
L415.2,354 
L415.2,354 
L416.7,354 
L416.7,354 
L425.1,354 
L425.1,354 
L426.6,354 
L426.6,354 
L435,354 
L435,354 
L436.5,354 
L436.5,354 
L444.9,354 
L444.9,354 
L446.4,354 
L446.4,354 
L454.8,354 
L454.8,354 
L456.3,354 
L456.3,354 
L464.7,354 
L464.7,354 
L466.2,354 
L466.2,354 
L474.6,354 
L474.6,354 
L476.1,354 
L476.1,354 
L484.5,354 
L484.5,354 
L486,354 
L486,354 
L494.4,354 
L494.4,354 
L495.9,354 
L495.9,354 
L504.3,354 
L504.3,354 
L505.8,354 
L505.8,354 
L514.2,354 
L514.2,354 
L515.7,354 
L515.7,354 
L524.1,354 
L524.1,354 
L525.6,354 
L525.6,354 
L534,354 
L534,354 
L535.5,354 
L535.5,354 
L543.9,354 
L543.9,354 
L545.4,354 
L545.4,354 
L553.8,354 
L553.8,354 
L555.3,354 
L555.3,354 
L563.7,354 
L563.7,354 
L565.2,354 
L565.2,354 
L573.6,354 
L573.6,354 
L575.1,354 
L575.1,354 
L575.1,354 
Z" fill="rgb(0,0,139)"/>
</g>
	<g clip-path="url(#plot_window)" stroke="rgb(139,0,0)" fill="rgb(139,0,0)" stroke-width="1">
	<path d="M80.02,354 L80.02,354 
L80.02,354 
L80.02,354 
L81.51,354 
L81.51,354 
L89.92,354 
L89.93,353.8 
L91.41,353.8 
L91.41,354 
L99.83,354 
L99.83,353 
L101.3,353 
L101.3,354 
L109.7,354 
L109.7,349.3 
L111.2,349.3 
L111.2,354 
L119.6,354 
L119.6,339 
L121.1,339 
L121.1,354 
L129.5,354 
L129.5,316.7 
L131,316.7 
L131,354 
L139.4,354 
L139.4,279.4 
L140.9,279.4 
L140.9,354 
L149.3,354 
L149.3,230.5 
L150.8,230.5 
L150.8,354 
L159.2,354 
L159.2,181.5 
L160.7,181.5 
L160.7,354 
L169.1,354 
L169.1,147.7 
L170.6,147.7 
L170.6,354 
L179,354 
L179,140.2 
L180.5,140.2 
L180.5,354 
L188.9,354 
L188.9,160.2 
L190.4,160.2 
L190.4,354 
L198.8,354 
L198.8,199.1 
L200.3,199.1 
L200.3,354 
L208.7,354 
L208.7,244.3 
L210.2,244.3 
L210.2,354 
L218.7,354 
L218.7,284.7 
L220.1,284.7 
L220.1,354 
L228.6,354 
L228.6,314.8 
L230,314.8 
L230,354 
L238.5,354 
L238.5,334.1 
L239.9,334.1 
L239.9,354 
L248.4,354 
L248.4,344.9 
L249.8,344.9 
L249.8,354 
L258.3,354 
L258.3,350.2 
L259.7,350.2 
L259.7,354 
L268.2,354 
L268.2,352.6 
L269.6,352.6 
L269.6,354 
L278.1,354 
L278.1,353.5 
L279.5,353.5 
L279.5,354 
L288,354 
L288,353.9 
L289.4,353.9 
L289.4,354 
L297.9,354 
L297.9,354 
L299.4,354 
L299.4,354 
L307.8,354 
L307.8,354 
L309.3,354 
L309.3,354 
L317.7,354 
L317.7,354 
L319.2,354 
L319.2,354 
L327.6,354 
L327.6,354 
L329.1,354 
L329.1,354 
L337.5,354 
L337.5,354 
L339,354 
L339,354 
L347.4,354 
L347.4,354 
L348.9,354 
L348.9,354 
L357.3,354 
L357.3,354 
L358.8,354 
L358.8,354 
L367.2,354 
L367.2,354 
L368.7,354 
L368.7,354 
L377.1,354 
L377.1,354 
L378.6,354 
L378.6,354 
L387,354 
L387,354 
L388.5,354 
L388.5,354 
L396.9,354 
L396.9,354 
L398.4,354 
L398.4,354 
L406.8,354 
L406.8,354 
L408.3,354 
L408.3,354 
L416.7,354 
L416.7,354 
L418.2,354 
L418.2,354 
L426.6,354 
L426.6,354 
L428.1,354 
L428.1,354 
L436.5,354 
L436.5,354 
L438,354 
L438,354 
L446.4,354 
L446.4,354 
L447.9,354 
L447.9,354 
L456.3,354 
L456.3,354 
L457.8,354 
L457.8,354 
L466.2,354 
L466.2,354 
L467.7,354 
L467.7,354 
L476.1,354 
L476.1,354 
L477.6,354 
L477.6,354 
L486,354 
L486,354 
L487.5,354 
L487.5,354 
L495.9,354 
L495.9,354 
L497.4,354 
L497.4,354 
L505.8,354 
L505.8,354 
L507.3,354 
L507.3,354 
L515.7,354 
L515.7,354 
L517.2,354 
L517.2,354 
L525.6,354 
L525.6,354 
L527.1,354 
L527.1,354 
L535.5,354 
L535.5,354 
L537,354 
L537,354 
L545.4,354 
L545.4,354 
L546.9,354 
L546.9,354 
L555.3,354 
L555.3,354 
L556.8,354 
L556.8,354 
L565.2,354 
L565.2,354 
L566.7,354 
L566.7,354 
L575.1,354 
L575.1,354 
L576.6,354 
L576.6,354 
L576.6,354 
Z" fill="rgb(139,0,0)"/>
</g>
	<g clip-path="url(#plot_window)" stroke="rgb(0,100,0)" fill="rgb(0,100,0)" stroke-width="1">
	<path d="M81.51,354 L81.51,354 
L81.51,354 
L81.51,354 
L82.99,354 
L82.99,354 
L91.41,354 
L91.41,354 
L92.9,354 
L92.9,354 
L101.3,354 
L101.3,354 
L102.8,354 
L102.8,354 
L111.2,354 
L111.2,354 
L112.7,354 
L112.7,354 
L121.1,354 
L121.1,354 
L122.6,354 
L122.6,354 
L131,354 
L131,354 
L132.5,354 
L132.5,354 
L140.9,354 
L140.9,354 
L142.4,354 
L142.4,354 
L150.8,354 
L150.8,354 
L152.3,354 
L152.3,354 
L160.7,354 
L160.7,354 
L162.2,354 
L162.2,354 
L170.6,354 
L170.6,354 
L172.1,354 
L172.1,354 
L180.5,354 
L180.5,354 
L182,354 
L182,354 
L190.4,354 
L190.4,354 
L191.9,354 
L191.9,354 
L200.3,354 
L200.3,353.9 
L201.8,353.9 
L201.8,354 
L210.2,354 
L210.2,353.7 
L211.7,353.7 
L211.7,354 
L220.1,354 
L220.1,353.3 
L221.6,353.3 
L221.6,354 
L230,354 
L230,352 
L231.5,352 
L231.5,354 
L239.9,354 
L239.9,349.3 
L241.4,349.3 
L241.4,354 
L249.8,354 
L249.8,343.9 
L251.3,343.9 
L251.3,354 
L259.7,354 
L259.7,334.3 
L261.2,334.3 
L261.2,354 
L269.6,354 
L269.6,318.8 
L271.1,318.8 
L271.1,354 
L279.5,354 
L279.5,296.7 
L281,296.7 
L281,354 
L289.4,354 
L289.4,268.8 
L290.9,268.8 
L290.9,354 
L299.4,354 
L299.4,238.2 
L300.8,238.2 
L300.8,354 
L309.3,354 
L309.3,209.8 
L310.7,209.8 
L310.7,354 
L319.2,354 
L319.2,189.7 
L320.6,189.7 
L320.6,354 
L329.1,354 
L329.1,182.3 
L330.5,182.3 
L330.5,354 
L339,354 
L339,189.7 
L340.4,189.7 
L340.4,354 
L348.9,354 
L348.9,209.8 
L350.3,209.8 
L350.3,354 
L358.8,354 
L358.8,238.2 
L360.2,238.2 
L360.2,354 
L368.7,354 
L368.7,268.8 
L370.2,268.8 
L370.2,354 
L378.6,354 
L378.6,296.7 
L380.1,296.7 
L380.1,354 
L388.5,354 
L388.5,318.8 
L390,318.8 
L390,354 
L398.4,354 
L398.4,334.3 
L399.9,334.3 
L399.9,354 
L408.3,354 
L408.3,343.9 
L409.8,343.9 
L409.8,354 
L418.2,354 
L418.2,349.3 
L419.7,349.3 
L419.7,354 
L428.1,354 
L428.1,352 
L429.6,352 
L429.6,354 
L438,354 
L438,353.3 
L439.5,353.3 
L439.5,354 
L447.9,354 
L447.9,353.7 
L449.4,353.7 
L449.4,354 
L457.8,354 
L457.8,353.9 
L459.3,353.9 
L459.3,354 
L467.7,354 
L467.7,354 
L469.2,354 
L469.2,354 
L477.6,354 
L477.6,354 
L479.1,354 
L479.1,354 
L487.5,354 
L487.5,354 
L489,354 
L489,354 
L497.4,354 
L497.4,354 
L498.9,354 
L498.9,354 
L507.3,354 
L507.3,354 
L508.8,354 
L508.8,354 
L517.2,354 
L517.2,354 
L518.7,354 
L518.7,354 
L527.1,354 
L527.1,354 
L528.6,354 
L528.6,354 
L537,354 
L537,354 
L538.5,354 
L538.5,354 
L546.9,354 
L546.9,354 
L548.4,354 
L548.4,354 
L556.8,354 
L556.8,354 
L558.3,354 
L558.3,354 
L566.7,354 
L566.7,354 
L568.2,354 
L568.2,354 
L576.6,354 
L576.6,354 
L578.1,354 
L578.1,354 
L578.1,354 
Z" fill="rgb(0,100,0)"/>
</g>
	<g clip-path="url(#plot_window)" stroke="rgb(255,140,0)" fill="rgb(255,140,0)" stroke-width="1">
	<path d="M82.99,354 L82.99,354 
L82.99,354 
L82.99,354 
L84.48,354 
L84.48,354 
L92.9,354 
L92.9,354 
L94.38,354 
L94.38,354 
L102.8,354 
L102.8,354 
L104.3,354 
L104.3,354 
L112.7,354 
L112.7,354 
L114.2,354 
L114.2,354 
L122.6,354 
L122.6,354 
L124.1,354 
L124.1,354 
L132.5,354 
L132.5,354 
L134,354 
L134,354 
L142.4,354 
L142.4,354 
L143.9,354 
L143.9,354 
L152.3,354 
L152.3,354 
L153.8,354 
L153.8,354 
L162.2,354 
L162.2,354 
L163.7,354 
L163.7,354 
L172.1,354 
L172.1,354 
L173.6,354 
L173.6,354 
L182,354 
L182,354 
L183.5,354 
L183.5,354 
L191.9,354 
L191.9,354 
L193.4,354 
L193.4,354 
L201.8,354 
L201.8,354 
L203.3,354 
L203.3,354 
L211.7,354 
L211.7,354 
L213.2,354 
L213.2,354 
L221.6,354 
L221.6,354 
L223.1,354 
L223.1,354 
L231.5,354 
L231.5,354 
L233,354 
L233,354 
L241.4,354 
L241.4,354 
L242.9,354 
L242.9,354 
L251.3,354 
L251.3,354 
L252.8,354 
L252.8,354 
L261.2,354 
L261.2,354 
L262.7,354 
L262.7,354 
L271.1,354 
L271.1,354 
L272.6,354 
L272.6,354 
L281,354 
L281,354 
L282.5,354 
L282.5,354 
L290.9,354 
L290.9,354 
L292.4,354 
L292.4,354 
L300.8,354 
L300.8,354 
L302.3,354 
L302.3,354 
L310.7,354 
L310.7,354 
L312.2,354 
L312.2,354 
L320.6,354 
L320.6,354 
L322.1,354 
L322.1,354 
L330.5,354 
L330.5,354 
L332,354 
L332,354 
L340.4,354 
L340.4,354 
L341.9,354 
L341.9,354 
L350.3,354 
L350.3,354 
L351.8,354 
L351.8,354 
L360.2,354 
L360.2,354 
L361.7,354 
L361.7,354 
L370.2,354 
L370.2,353.9 
L371.6,353.9 
L371.6,354 
L380.1,354 
L380.1,353.5 
L381.5,353.5 
L381.5,354 
L390,354 
L390,352.6 
L391.4,352.6 
L391.4,354 
L399.9,354 
L399.9,350.2 
L401.3,350.2 
L401.3,354 
L409.8,354 
L409.8,344.9 
L411.2,344.9 
L411.2,354 
L419.7,354 
L419.7,334.1 
L421.1,334.1 
L421.1,354 
L429.6,354 
L429.6,314.8 
L431,314.8 
L431,354 
L439.5,354 
L439.5,284.7 
L440.9,284.7 
L440.9,354 
L449.4,354 
L449.4,244.3 
L450.9,244.3 
L450.9,354 
L459.3,354 
L459.3,199.1 
L460.8,199.1 
L460.8,354 
L469.2,354 
L469.2,160.2 
L470.7,160.2 
L470.7,354 
L479.1,354 
L479.1,140.2 
L480.6,140.2 
L480.6,354 
L489,354 
L489,147.7 
L490.5,147.7 
L490.5,354 
L498.9,354 
L498.9,181.5 
L500.4,181.5 
L500.4,354 
L508.8,354 
L508.8,230.5 
L510.3,230.5 
L510.3,354 
L518.7,354 
L518.7,279.4 
L520.2,279.4 
L520.2,354 
L528.6,354 
L528.6,316.7 
L530.1,316.7 
L530.1,354 
L538.5,354 
L538.5,339 
L540,339 
L540,354 
L548.4,354 
L548.4,349.3 
L549.9,349.3 
L549.9,354 
L558.3,354 
L558.3,353 
L559.8,353 
L559.8,354 
L568.2,354 
L568.2,353.8 
L569.7,353.8 
L569.7,354 
L578.1,354 
L578.1,354 
L579.6,354 
L579.6,354 
L579.6,354 
Z" fill="rgb(255,140,0)"/>
</g>
	<g clip-path="url(#plot_window)" stroke="rgb(127,255,0)" fill="rgb(127,255,0)" stroke-width="1">
	<path d="M84.48,354 L84.48,354 
L84.48,354 
L84.48,354 
L85.96,354 
L85.96,354 
L94.38,354 
L94.38,354 
L95.87,354 
L95.87,354 
L104.3,354 
L104.3,354 
L105.8,354 
L105.8,354 
L114.2,354 
L114.2,354 
L115.7,354 
L115.7,354 
L124.1,354 
L124.1,354 
L125.6,354 
L125.6,354 
L134,354 
L134,354 
L135.5,354 
L135.5,354 
L143.9,354 
L143.9,354 
L145.4,354 
L145.4,354 
L153.8,354 
L153.8,354 
L155.3,354 
L155.3,354 
L163.7,354 
L163.7,354 
L165.2,354 
L165.2,354 
L173.6,354 
L173.6,354 
L175.1,354 
L175.1,354 
L183.5,354 
L183.5,354 
L185,354 
L185,354 
L193.4,354 
L193.4,354 
L194.9,354 
L194.9,354 
L203.3,354 
L203.3,354 
L204.8,354 
L204.8,354 
L213.2,354 
L213.2,354 
L214.7,354 
L214.7,354 
L223.1,354 
L223.1,354 
L224.6,354 
L224.6,354 
L233,354 
L233,354 
L234.5,354 
L234.5,354 
L242.9,354 
L242.9,354 
L244.4,354 
L244.4,354 
L252.8,354 
L252.8,354 
L254.3,354 
L254.3,354 
L262.7,354 
L262.7,354 
L264.2,354 
L264.2,354 
L272.6,354 
L272.6,354 
L274.1,354 
L274.1,354 
L282.5,354 
L282.5,354 
L284,354 
L284,354 
L292.4,354 
L292.4,354 
L293.9,354 
L293.9,354 
L302.3,354 
L302.3,354 
L303.8,354 
L303.8,354 
L312.2,354 
L312.2,354 
L313.7,354 
L313.7,354 
L322.1,354 
L322.1,354 
L323.6,354 
L323.6,354 
L332,354 
L332,354 
L333.5,354 
L333.5,354 
L341.9,354 
L341.9,354 
L343.4,354 
L343.4,354 
L351.8,354 
L351.8,354 
L353.3,354 
L353.3,354 
L361.7,354 
L361.7,354 
L363.2,354 
L363.2,354 
L371.6,354 
L371.6,354 
L373.1,354 
L373.1,354 
L381.5,354 
L381.5,354 
L383,354 
L383,354 
L391.4,354 
L391.4,354 
L392.9,354 
L392.9,354 
L401.3,354 
L401.3,354 
L402.8,354 
L402.8,354 
L411.2,354 
L411.2,354 
L412.7,354 
L412.7,354 
L421.1,354 
L421.1,354 
L422.6,354 
L422.6,354 
L431,354 
L431,354 
L432.5,354 
L432.5,354 
L440.9,354 
L440.9,353.9 
L442.4,353.9 
L442.4,354 
L450.9,354 
L450.9,353.5 
L452.3,353.5 
L452.3,354 
L460.8,354 
L460.8,352.1 
L462.2,352.1 
L462.2,354 
L470.7,354 
L470.7,347.7 
L472.1,347.7 
L472.1,354 
L480.6,354 
L480.6,336.2 
L482,336.2 
L482,354 
L490.5,354 
L490.5,310.6 
L491.9,310.6 
L491.9,354 
L500.4,354 
L500.4,263.5 
L501.8,263.5 
L501.8,354 
L510.3,354 
L510.3,194.3 
L511.7,194.3 
L511.7,354 
L520.2,354 
L520.2,119 
L521.7,119 
L521.7,354 
L530.1,354 
L530.1,71.27 
L531.6,71.27 
L531.6,354 
L540,354 
L540,83.43 
L541.5,83.43 
L541.5,354 
L549.9,354 
L549.9,156.1 
L551.4,156.1 
L551.4,354 
L559.8,354 
L559.8,250.1 
L561.3,250.1 
L561.3,354 
L569.7,354 
L569.7,319.2 
L571.2,319.2 
L571.2,354 
L579.6,354 
L579.6,348.4 
L581.1,348.4 
L581.1,354 
L581.1,354 
Z" fill="rgb(127,255,0)"/>
</g>
</g>
	<g id="plotPoints" clip-path="url(#plot_window)">
</g>
	<g id="legendBackground" stroke="rgb(119,136,153)" fill="rgb(255,255,255)" stroke-width="1">
	<rect x="588.3" y="43" width="147.7" height="89.5"/>
</g>
	<g id="legendPoints">
</g>
	<g id="legendLines">
	<g stroke="rgb(0,0,139)" stroke-width="1">
	<line x1="603.6" y1="62.75" x2="609.6" y2="62.75"/>
</g>
	<g stroke="rgb(139,0,0)" stroke-width="1">
	<line x1="603.6" y1="75.25" x2="609.6" y2="75.25"/>
</g>
	<g stroke="rgb(0,100,0)" stroke-width="1">
	<line x1="603.6" y1="87.75" x2="609.6" y2="87.75"/>
</g>
	<g stroke="rgb(255,140,0)" stroke-width="1">
	<line x1="603.6" y1="100.3" x2="609.6" y2="100.3"/>
</g>
	<g stroke="rgb(127,255,0)" stroke-width="1">
	<line x1="603.6" y1="112.8" x2="609.6" y2="112.8"/>
</g>
</g>
	<g id="legendText">
	<text x="618.6" y="62.75" font-size="10" font-family="Lucida Sans Unicode" font-weight="normal" textLength="103.2">N=500, r=50, n=50
	</text>
	<text x="618.6" y="75.25" font-size="10" font-family="Lucida Sans Unicode" font-weight="normal" textLength="109.2">N=500, r=50, n=100
	</text>
	<text x="618.6" y="87.75" font-size="10" font-family="Lucida Sans Unicode" font-weight="normal" textLength="109.2">N=500, r=50, n=250
	</text>
	<text x="618.6" y="100.3" font-size="10" font-family="Lucida Sans Unicode" font-weight="normal" textLength="109.2">N=500, r=50, n=400
	</text>
	<text x="618.6" y="112.8" font-size="10" font-family="Lucida Sans Unicode" font-weight="normal" textLength="109.2">N=500, r=50, n=450
	</text>
</g>
	<g id="title">
	<text x="375" y="30" text-anchor="middle" font-size="20" font-family="Lucida Sans Unicode" font-weight="normal">Hypergeometric Distribution PDF
	</text>
</g>
	<g id="plotXValues">
</g>
	<g id="plotYValues">
</g>
</svg>
