<?xml version="1.0" encoding="UTF-8" standalone="no"?>
<svg width="750" height ="400" version="1.1"
xmlns:svg ="http://www.w3.org/2000/svg"
xmlns:rdf="http://www.w3.org/1999/02/22-rdf-syntax-ns#"
xmlns:cc="http://web.resource.org/cc/"
xmlns:dc="http://purl.org/dc/elements/1.1/"
xmlns ="http://www.w3.org/2000/svg"
>
<!-- SVG plot written using Boost.Plot program (Creator Jacob Voytko) --> 
<!-- Use, modification and distribution of Boost.Plot subject to the --> 
<!-- Boost Software License, Version 1.0.--> 
<!-- (See accompanying file LICENSE_1_0.txt --> 
<!-- or copy at http://www.boost.org/LICENSE_1_0.txt) --> 

<!-- SVG Plot Copyright John Maddock 2008 --> 
<meta name="copyright" content="John Maddock" />
<meta name="date" content="2008" />
<!-- Use, modification and distribution of this Scalable Vector Graphic file -->
<!-- are subject to the Boost Software License, Version 1.0. -->
<!-- (See accompanying file LICENSE_1_0.txt or copy at http://www.boost.org/LICENSE_1_0.txt) -->

<clipPath id="plot_window">	<rect x="78.3" y="44" width="503" height="309"/>
</clipPath>
	<g id="imageBackground" stroke="rgb(119,136,153)" fill="rgb(255,255,255)" stroke-width="2">
	<rect x="0" y="0" width="750" height="400"/>
</g>
	<g id="plotBackground" stroke="rgb(119,136,153)" fill="rgb(255,255,255)" stroke-width="2">
	<rect x="77.3" y="43" width="505" height="311"/>
</g>
	<g id="yMinorGrid" stroke="rgb(200,220,255)" stroke-width="0.5">
</g>
	<g id="yMajorGrid" stroke="rgb(200,220,255)" stroke-width="1">
</g>
	<g id="xMinorGrid" stroke="rgb(200,220,255)" stroke-width="0.5">
</g>
	<g id="xMajorGrid" stroke="rgb(200,220,255)" stroke-width="1">
</g>
	<g id="yAxis" stroke="rgb(0,0,0)" stroke-width="1">
	<line x1="85.45" y1="43" x2="85.45" y2="359"/>
	<line x1="77.3" y1="43" x2="77.3" y2="354"/>
</g>
	<g id="xAxis" stroke="rgb(0,0,0)" stroke-width="1">
	<line x1="72.3" y1="354" x2="582.3" y2="354"/>
	<line x1="72.3" y1="354" x2="582.3" y2="354"/>
</g>
	<g id="yMinorTicks" stroke="rgb(0,0,0)" stroke-width="1">
	<path d="M75.3,342.4 L77.3,342.4 
M75.3,330.8 L77.3,330.8 
M75.3,319.2 L77.3,319.2 
M75.3,307.6 L77.3,307.6 
M75.3,284.3 L77.3,284.3 
M75.3,272.7 L77.3,272.7 
M75.3,261.1 L77.3,261.1 
M75.3,249.5 L77.3,249.5 
M75.3,226.3 L77.3,226.3 
M75.3,214.7 L77.3,214.7 
M75.3,203 L77.3,203 
M75.3,191.4 L77.3,191.4 
M75.3,168.2 L77.3,168.2 
M75.3,156.6 L77.3,156.6 
M75.3,145 L77.3,145 
M75.3,133.4 L77.3,133.4 
M75.3,110.1 L77.3,110.1 
M75.3,98.54 L77.3,98.54 
M75.3,86.93 L77.3,86.93 
M75.3,75.31 L77.3,75.31 
M75.3,52.09 L77.3,52.09 
M75.3,354 L77.3,354 
" fill="none"/>
</g>
	<g id="xMinorTicks" stroke="rgb(0,0,0)" stroke-width="1">
</g>
	<g id="yMajorTicks" stroke="rgb(0,0,0)" stroke-width="2">
	<path d="M72.3,354 L77.3,354 
M72.3,295.9 L77.3,295.9 
M72.3,237.9 L77.3,237.9 
M72.3,179.8 L77.3,179.8 
M72.3,121.8 L77.3,121.8 
M72.3,63.7 L77.3,63.7 
M72.3,354 L77.3,354 
" fill="none"/>
</g>
	<g id="xMajorTicks" stroke="rgb(0,0,0)" stroke-width="2">
	<path d="M85.45,354 L85.45,359 
M166.9,354 L166.9,359 
M248.3,354 L248.3,359 
M329.8,354 L329.8,359 
M411.3,354 L411.3,359 
M492.7,354 L492.7,359 
M574.2,354 L574.2,359 
M85.45,354 L85.45,359 
" fill="none"/>
</g>
	<g id="xTicksValues" font-size="12" font-family="Lucida Sans Unicode" text-anchor="middle">
	<text x="85.45" y="374.6">0
	</text>
	<text x="166.9" y="374.6">5
	</text>
	<text x="248.3" y="374.6">10
	</text>
	<text x="329.8" y="374.6">15
	</text>
	<text x="411.3" y="374.6">20
	</text>
	<text x="492.7" y="374.6">25
	</text>
	<text x="574.2" y="374.6">30
	</text>
	<text x="85.45" y="374.6">0
	</text>
</g>
	<g id="yTicksValues" font-size="12" font-family="Lucida Sans Unicode" text-anchor="end">
	<text x="66.3" y="356.4">0
	</text>
	<text x="66.3" y="298.3">0.05
	</text>
	<text x="66.3" y="240.3">0.1
	</text>
	<text x="66.3" y="182.2">0.15
	</text>
	<text x="66.3" y="124.2">0.2
	</text>
	<text x="66.3" y="66.1">0.25
	</text>
	<text x="66.3" y="356.4">0
	</text>
</g>
	<g id="yLabel">
	<text x="32.4" y="198.5" text-anchor="middle" transform="rotate(-90 32.4 198.5)" font-size="14" font-family="Lucida Sans Unicode">Probability
	</text>
</g>
	<g id="xLabel">
	<text x="329.8" y="387.1" text-anchor="middle" font-size="12" font-family="Lucida Sans Unicode">Random Variable
	</text>
</g>
	<g id="plotLines" stroke-width="2">
	<g clip-path="url(#plot_window)" stroke="rgb(0,0,139)" fill="rgb(0,0,139)" stroke-width="1">
	<path d="M79.34,354 L79.34,354 
L79.34,354 
L79.34,309.5 
L81.78,309.5 
L81.78,354 
L95.63,354 
L95.63,195.4 
L98.07,195.4 
L98.07,354 
L111.9,354 
L111.9,87.05 
L114.4,87.05 
L114.4,354 
L128.2,354 
L128.2,71.27 
L130.7,71.27 
L130.7,354 
L144.5,354 
L144.5,142.5 
L146.9,142.5 
L146.9,354 
L160.8,354 
L160.8,234.9 
L163.2,234.9 
L163.2,354 
L177.1,354 
L177.1,301.6 
L179.5,301.6 
L179.5,354 
L193.4,354 
L193.4,335.5 
L195.8,335.5 
L195.8,354 
L209.7,354 
L209.7,348.7 
L212.1,348.7 
L212.1,354 
L225.9,354 
L225.9,352.7 
L228.4,352.7 
L228.4,354 
L242.2,354 
L242.2,353.7 
L244.7,353.7 
L244.7,354 
L258.5,354 
L258.5,354 
L261,354 
L261,354 
L274.8,354 
L274.8,354 
L277.3,354 
L277.3,354 
L291.1,354 
L291.1,354 
L293.6,354 
L293.6,354 
L307.4,354 
L307.4,354 
L309.8,354 
L309.8,354 
L323.7,354 
L323.7,354 
L326.1,354 
L326.1,354 
L340,354 
L340,354 
L342.4,354 
L342.4,354 
L356.3,354 
L356.3,354 
L358.7,354 
L358.7,354 
L372.6,354 
L372.6,354 
L375,354 
L375,354 
L388.9,354 
L388.9,354 
L391.3,354 
L391.3,354 
L405.1,354 
L405.1,354 
L407.6,354 
L407.6,354 
L421.4,354 
L421.4,354 
L423.9,354 
L423.9,354 
L437.7,354 
L437.7,354 
L440.2,354 
L440.2,354 
L454,354 
L454,354 
L456.5,354 
L456.5,354 
L470.3,354 
L470.3,354 
L472.7,354 
L472.7,354 
L486.6,354 
L486.6,354 
L489,354 
L489,354 
L502.9,354 
L502.9,354 
L505.3,354 
L505.3,354 
L519.2,354 
L519.2,354 
L521.6,354 
L521.6,354 
L535.5,354 
L535.5,354 
L537.9,354 
L537.9,354 
L551.8,354 
L551.8,354 
L554.2,354 
L554.2,354 
L568,354 
L568,354 
L570.5,354 
L570.5,354 
L570.5,354 
Z" fill="rgb(0,0,139)"/>
</g>
	<g clip-path="url(#plot_window)" stroke="rgb(139,0,0)" fill="rgb(139,0,0)" stroke-width="1">
	<path d="M81.78,354 L81.78,354 
L81.78,354 
L81.78,352.9 
L84.22,352.9 
L84.22,354 
L98.07,354 
L98.07,344.7 
L100.5,344.7 
L100.5,354 
L114.4,354 
L114.4,318.3 
L116.8,318.3 
L116.8,354 
L130.7,354 
L130.7,266.4 
L133.1,266.4 
L133.1,354 
L146.9,354 
L146.9,200.6 
L149.4,200.6 
L149.4,354 
L163.2,354 
L163.2,149.8 
L165.7,149.8 
L165.7,354 
L179.5,354 
L179.5,139.1 
L182,139.1 
L182,354 
L195.8,354 
L195.8,170.3 
L198.3,170.3 
L198.3,354 
L212.1,354 
L212.1,224 
L214.5,224 
L214.5,354 
L228.4,354 
L228.4,276.9 
L230.8,276.9 
L230.8,354 
L244.7,354 
L244.7,315.2 
L247.1,315.2 
L247.1,354 
L261,354 
L261,337.3 
L263.4,337.3 
L263.4,354 
L277.3,354 
L277.3,347.9 
L279.7,347.9 
L279.7,354 
L293.6,354 
L293.6,352 
L296,352 
L296,354 
L309.8,354 
L309.8,353.5 
L312.3,353.5 
L312.3,354 
L326.1,354 
L326.1,353.9 
L328.6,353.9 
L328.6,354 
L342.4,354 
L342.4,354 
L344.9,354 
L344.9,354 
L358.7,354 
L358.7,354 
L361.2,354 
L361.2,354 
L375,354 
L375,354 
L377.4,354 
L377.4,354 
L391.3,354 
L391.3,354 
L393.7,354 
L393.7,354 
L407.6,354 
L407.6,354 
L410,354 
L410,354 
L423.9,354 
L423.9,354 
L426.3,354 
L426.3,354 
L440.2,354 
L440.2,354 
L442.6,354 
L442.6,354 
L456.5,354 
L456.5,354 
L458.9,354 
L458.9,354 
L472.7,354 
L472.7,354 
L475.2,354 
L475.2,354 
L489,354 
L489,354 
L491.5,354 
L491.5,354 
L505.3,354 
L505.3,354 
L507.8,354 
L507.8,354 
L521.6,354 
L521.6,354 
L524.1,354 
L524.1,354 
L537.9,354 
L537.9,354 
L540.4,354 
L540.4,354 
L554.2,354 
L554.2,354 
L556.6,354 
L556.6,354 
L570.5,354 
L570.5,354 
L572.9,354 
L572.9,354 
L572.9,354 
Z" fill="rgb(139,0,0)"/>
</g>
	<g clip-path="url(#plot_window)" stroke="rgb(0,100,0)" fill="rgb(0,100,0)" stroke-width="1">
	<path d="M84.22,354 L84.22,354 
L84.22,354 
L84.22,354 
L86.67,354 
L86.67,354 
L100.5,354 
L100.5,354 
L103,354 
L103,354 
L116.8,354 
L116.8,354 
L119.2,354 
L119.2,354 
L133.1,354 
L133.1,354 
L135.5,354 
L135.5,354 
L149.4,354 
L149.4,354 
L151.8,354 
L151.8,354 
L165.7,354 
L165.7,353.9 
L168.1,353.9 
L168.1,354 
L182,354 
L182,353.5 
L184.4,353.5 
L184.4,354 
L198.3,354 
L198.3,352.3 
L200.7,352.3 
L200.7,354 
L214.5,354 
L214.5,348.7 
L217,348.7 
L217,354 
L230.8,354 
L230.8,340.3 
L233.3,340.3 
L233.3,354 
L247.1,354 
L247.1,323.9 
L249.6,323.9 
L249.6,354 
L263.4,354 
L263.4,297.1 
L265.9,297.1 
L265.9,354 
L279.7,354 
L279.7,261.1 
L282.2,261.1 
L282.2,354 
L296,354 
L296,222.7 
L298.4,222.7 
L298.4,354 
L312.3,354 
L312.3,192.5 
L314.7,192.5 
L314.7,354 
L328.6,354 
L328.6,181 
L331,181 
L331,354 
L344.9,354 
L344.9,192.5 
L347.3,192.5 
L347.3,354 
L361.2,354 
L361.2,222.7 
L363.6,222.7 
L363.6,354 
L377.4,354 
L377.4,261.1 
L379.9,261.1 
L379.9,354 
L393.7,354 
L393.7,297.1 
L396.2,297.1 
L396.2,354 
L410,354 
L410,323.9 
L412.5,323.9 
L412.5,354 
L426.3,354 
L426.3,340.3 
L428.8,340.3 
L428.8,354 
L442.6,354 
L442.6,348.7 
L445.1,348.7 
L445.1,354 
L458.9,354 
L458.9,352.3 
L461.3,352.3 
L461.3,354 
L475.2,354 
L475.2,353.5 
L477.6,353.5 
L477.6,354 
L491.5,354 
L491.5,353.9 
L493.9,353.9 
L493.9,354 
L507.8,354 
L507.8,354 
L510.2,354 
L510.2,354 
L524.1,354 
L524.1,354 
L526.5,354 
L526.5,354 
L540.4,354 
L540.4,354 
L542.8,354 
L542.8,354 
L556.6,354 
L556.6,354 
L559.1,354 
L559.1,354 
L572.9,354 
L572.9,354 
L575.4,354 
L575.4,354 
L575.4,354 
Z" fill="rgb(0,100,0)"/>
</g>
	<g clip-path="url(#plot_window)" stroke="rgb(255,140,0)" fill="rgb(255,140,0)" stroke-width="1">
	<path d="M86.67,354 L86.67,354 
L86.67,354 
L86.67,354 
L89.11,354 
L89.11,354 
L103,354 
L103,354 
L105.4,354 
L105.4,354 
L119.2,354 
L119.2,354 
L121.7,354 
L121.7,354 
L135.5,354 
L135.5,354 
L138,354 
L138,354 
L151.8,354 
L151.8,354 
L154.3,354 
L154.3,354 
L168.1,354 
L168.1,354 
L170.6,354 
L170.6,354 
L184.4,354 
L184.4,354 
L186.9,354 
L186.9,354 
L200.7,354 
L200.7,354 
L203.1,354 
L203.1,354 
L217,354 
L217,354 
L219.4,354 
L219.4,354 
L233.3,354 
L233.3,354 
L235.7,354 
L235.7,354 
L249.6,354 
L249.6,354 
L252,354 
L252,354 
L265.9,354 
L265.9,354 
L268.3,354 
L268.3,354 
L282.2,354 
L282.2,354 
L284.6,354 
L284.6,354 
L298.4,354 
L298.4,354 
L300.9,354 
L300.9,354 
L314.7,354 
L314.7,354 
L317.2,354 
L317.2,354 
L331,354 
L331,353.9 
L333.5,353.9 
L333.5,354 
L347.3,354 
L347.3,353.5 
L349.8,353.5 
L349.8,354 
L363.6,354 
L363.6,352 
L366,352 
L366,354 
L379.9,354 
L379.9,347.9 
L382.3,347.9 
L382.3,354 
L396.2,354 
L396.2,337.3 
L398.6,337.3 
L398.6,354 
L412.5,354 
L412.5,315.2 
L414.9,315.2 
L414.9,354 
L428.8,354 
L428.8,276.9 
L431.2,276.9 
L431.2,354 
L445.1,354 
L445.1,224 
L447.5,224 
L447.5,354 
L461.3,354 
L461.3,170.3 
L463.8,170.3 
L463.8,354 
L477.6,354 
L477.6,139.1 
L480.1,139.1 
L480.1,354 
L493.9,354 
L493.9,149.8 
L496.4,149.8 
L496.4,354 
L510.2,354 
L510.2,200.6 
L512.7,200.6 
L512.7,354 
L526.5,354 
L526.5,266.4 
L528.9,266.4 
L528.9,354 
L542.8,354 
L542.8,318.3 
L545.2,318.3 
L545.2,354 
L559.1,354 
L559.1,344.7 
L561.5,344.7 
L561.5,354 
L575.4,354 
L575.4,352.9 
L577.8,352.9 
L577.8,354 
L577.8,354 
Z" fill="rgb(255,140,0)"/>
</g>
	<g clip-path="url(#plot_window)" stroke="rgb(127,255,0)" fill="rgb(127,255,0)" stroke-width="1">
	<path d="M89.11,354 L89.11,354 
L89.11,354 
L89.11,354 
L91.55,354 
L91.55,354 
L105.4,354 
L105.4,354 
L107.8,354 
L107.8,354 
L121.7,354 
L121.7,354 
L124.1,354 
L124.1,354 
L138,354 
L138,354 
L140.4,354 
L140.4,354 
L154.3,354 
L154.3,354 
L156.7,354 
L156.7,354 
L170.6,354 
L170.6,354 
L173,354 
L173,354 
L186.9,354 
L186.9,354 
L189.3,354 
L189.3,354 
L203.1,354 
L203.1,354 
L205.6,354 
L205.6,354 
L219.4,354 
L219.4,354 
L221.9,354 
L221.9,354 
L235.7,354 
L235.7,354 
L238.2,354 
L238.2,354 
L252,354 
L252,354 
L254.5,354 
L254.5,354 
L268.3,354 
L268.3,354 
L270.7,354 
L270.7,354 
L284.6,354 
L284.6,354 
L287,354 
L287,354 
L300.9,354 
L300.9,354 
L303.3,354 
L303.3,354 
L317.2,354 
L317.2,354 
L319.6,354 
L319.6,354 
L333.5,354 
L333.5,354 
L335.9,354 
L335.9,354 
L349.8,354 
L349.8,354 
L352.2,354 
L352.2,354 
L366,354 
L366,354 
L368.5,354 
L368.5,354 
L382.3,354 
L382.3,354 
L384.8,354 
L384.8,354 
L398.6,354 
L398.6,354 
L401.1,354 
L401.1,354 
L414.9,354 
L414.9,353.7 
L417.4,353.7 
L417.4,354 
L431.2,354 
L431.2,352.7 
L433.7,352.7 
L433.7,354 
L447.5,354 
L447.5,348.7 
L449.9,348.7 
L449.9,354 
L463.8,354 
L463.8,335.5 
L466.2,335.5 
L466.2,354 
L480.1,354 
L480.1,301.6 
L482.5,301.6 
L482.5,354 
L496.4,354 
L496.4,234.9 
L498.8,234.9 
L498.8,354 
L512.7,354 
L512.7,142.5 
L515.1,142.5 
L515.1,354 
L528.9,354 
L528.9,71.27 
L531.4,71.27 
L531.4,354 
L545.2,354 
L545.2,87.05 
L547.7,87.05 
L547.7,354 
L561.5,354 
L561.5,195.4 
L564,195.4 
L564,354 
L577.8,354 
L577.8,309.5 
L580.3,309.5 
L580.3,354 
L580.3,354 
Z" fill="rgb(127,255,0)"/>
</g>
</g>
	<g id="plotPoints" clip-path="url(#plot_window)">
</g>
	<g id="legendBackground" stroke="rgb(119,136,153)" fill="rgb(255,255,255)" stroke-width="1">
	<rect x="588.3" y="43" width="147.7" height="89.5"/>
</g>
	<g id="legendPoints">
</g>
	<g id="legendLines">
	<g stroke="rgb(0,0,139)" stroke-width="1">
	<line x1="603.6" y1="62.75" x2="609.6" y2="62.75"/>
</g>
	<g stroke="rgb(139,0,0)" stroke-width="1">
	<line x1="603.6" y1="75.25" x2="609.6" y2="75.25"/>
</g>
	<g stroke="rgb(0,100,0)" stroke-width="1">
	<line x1="603.6" y1="87.75" x2="609.6" y2="87.75"/>
</g>
	<g stroke="rgb(255,140,0)" stroke-width="1">
	<line x1="603.6" y1="100.3" x2="609.6" y2="100.3"/>
</g>
	<g stroke="rgb(127,255,0)" stroke-width="1">
	<line x1="603.6" y1="112.8" x2="609.6" y2="112.8"/>
</g>
</g>
	<g id="legendText">
	<text x="618.6" y="62.75" font-size="10" font-family="Lucida Sans Unicode" font-weight="normal" textLength="103.2">N=500, r=50, n=30
	</text>
	<text x="618.6" y="75.25" font-size="10" font-family="Lucida Sans Unicode" font-weight="normal" textLength="109.2">N=500, r=100, n=30
	</text>
	<text x="618.6" y="87.75" font-size="10" font-family="Lucida Sans Unicode" font-weight="normal" textLength="109.2">N=500, r=250, n=30
	</text>
	<text x="618.6" y="100.3" font-size="10" font-family="Lucida Sans Unicode" font-weight="normal" textLength="109.2">N=500, r=400, n=30
	</text>
	<text x="618.6" y="112.8" font-size="10" font-family="Lucida Sans Unicode" font-weight="normal" textLength="109.2">N=500, r=450, n=30
	</text>
</g>
	<g id="title">
	<text x="375" y="30" text-anchor="middle" font-size="20" font-family="Lucida Sans Unicode" font-weight="normal">Hypergeometric Distribution PDF
	</text>
</g>
	<g id="plotXValues">
</g>
	<g id="plotYValues">
</g>
</svg>
