<?xml version="1.0" encoding="UTF-8" standalone="no"?>
<svg width="750" height ="400" version="1.1"
xmlns:svg ="http://www.w3.org/2000/svg"
xmlns:rdf="http://www.w3.org/1999/02/22-rdf-syntax-ns#"
xmlns:cc="http://web.resource.org/cc/"
xmlns:dc="http://purl.org/dc/elements/1.1/"
xmlns ="http://www.w3.org/2000/svg"
>
<!-- SVG plot written using Boost.Plot program (Creator Jacob Voytko) --> 
<!-- Use, modification and distribution of Boost.Plot subject to the --> 
<!-- Boost Software License, Version 1.0.--> 
<!-- (See accompanying file LICENSE_1_0.txt --> 
<!-- or copy at http://www.boost.org/LICENSE_1_0.txt) --> 

<!-- SVG Plot Copyright John Maddock 2008 --> 
<meta name="copyright" content="John Maddock" />
<meta name="date" content="2008" />
<!-- Use, modification and distribution of this Scalable Vector Graphic file -->
<!-- are subject to the Boost Software License, Version 1.0. -->
<!-- (See accompanying file LICENSE_1_0.txt or copy at http://www.boost.org/LICENSE_1_0.txt) -->

<clipPath id="plot_window">	<rect x="56.7" y="44" width="609.8" height="309"/>
</clipPath>
	<g id="imageBackground" stroke="rgb(119,136,153)" fill="rgb(255,255,255)" stroke-width="2">
	<rect x="0" y="0" width="750" height="400"/>
</g>
	<g id="plotBackground" stroke="rgb(119,136,153)" fill="rgb(255,255,255)" stroke-width="2">
	<rect x="55.7" y="43" width="611.8" height="311"/>
</g>
	<g id="yMinorGrid" stroke="rgb(200,220,255)" stroke-width="0.5">
</g>
	<g id="yMajorGrid" stroke="rgb(200,220,255)" stroke-width="1">
</g>
	<g id="xMinorGrid" stroke="rgb(200,220,255)" stroke-width="0.5">
</g>
	<g id="xMajorGrid" stroke="rgb(200,220,255)" stroke-width="1">
</g>
	<g id="yAxis" stroke="rgb(0,0,0)" stroke-width="1">
	<line x1="55.7" y1="43" x2="55.7" y2="359"/>
	<line x1="55.7" y1="43" x2="55.7" y2="354"/>
</g>
	<g id="xAxis" stroke="rgb(0,0,0)" stroke-width="1">
	<line x1="50.7" y1="354" x2="667.5" y2="354"/>
	<line x1="50.7" y1="354" x2="667.5" y2="354"/>
</g>
	<g id="yMinorTicks" stroke="rgb(0,0,0)" stroke-width="1">
	<path d="M53.7,343.4 L55.7,343.4 
M53.7,332.8 L55.7,332.8 
M53.7,322.2 L55.7,322.2 
M53.7,311.6 L55.7,311.6 
M53.7,290.4 L55.7,290.4 
M53.7,279.8 L55.7,279.8 
M53.7,269.2 L55.7,269.2 
M53.7,258.6 L55.7,258.6 
M53.7,237.4 L55.7,237.4 
M53.7,226.8 L55.7,226.8 
M53.7,216.2 L55.7,216.2 
M53.7,205.6 L55.7,205.6 
M53.7,184.4 L55.7,184.4 
M53.7,173.8 L55.7,173.8 
M53.7,163.2 L55.7,163.2 
M53.7,152.6 L55.7,152.6 
M53.7,131.4 L55.7,131.4 
M53.7,120.8 L55.7,120.8 
M53.7,110.2 L55.7,110.2 
M53.7,99.59 L55.7,99.59 
M53.7,78.39 L55.7,78.39 
M53.7,67.79 L55.7,67.79 
M53.7,57.19 L55.7,57.19 
M53.7,46.59 L55.7,46.59 
M53.7,354 L55.7,354 
" fill="none"/>
</g>
	<g id="xMinorTicks" stroke="rgb(0,0,0)" stroke-width="1">
	<path d="M94.35,354 L94.35,356 
M133,354 L133,356 
M171.6,354 L171.6,356 
M210.3,354 L210.3,356 
M287.6,354 L287.6,356 
M326.2,354 L326.2,356 
M364.9,354 L364.9,356 
M403.5,354 L403.5,356 
M480.8,354 L480.8,356 
M519.5,354 L519.5,356 
M558.1,354 L558.1,356 
M596.8,354 L596.8,356 
" fill="none"/>
</g>
	<g id="yMajorTicks" stroke="rgb(0,0,0)" stroke-width="2">
	<path d="M50.7,354 L55.7,354 
M50.7,301 L55.7,301 
M50.7,248 L55.7,248 
M50.7,195 L55.7,195 
M50.7,142 L55.7,142 
M50.7,88.99 L55.7,88.99 
M50.7,354 L55.7,354 
" fill="none"/>
</g>
	<g id="xMajorTicks" stroke="rgb(0,0,0)" stroke-width="2">
	<path d="M55.7,354 L55.7,359 
M248.9,354 L248.9,359 
M442.2,354 L442.2,359 
M635.4,354 L635.4,359 
M55.7,354 L55.7,359 
" fill="none"/>
</g>
	<g id="xTicksValues" font-size="12" font-family="Lucida Sans Unicode" text-anchor="middle">
	<text x="55.7" y="374.6">0
	</text>
	<text x="248.9" y="374.6">0.5
	</text>
	<text x="442.2" y="374.6">1
	</text>
	<text x="635.4" y="374.6">1.5
	</text>
	<text x="55.7" y="374.6">0
	</text>
</g>
	<g id="yTicksValues" font-size="12" font-family="Lucida Sans Unicode" text-anchor="end">
	<text x="44.7" y="356.4">0
	</text>
	<text x="44.7" y="303.4">1
	</text>
	<text x="44.7" y="250.4">2
	</text>
	<text x="44.7" y="197.4">3
	</text>
	<text x="44.7" y="144.4">4
	</text>
	<text x="44.7" y="91.39">5
	</text>
	<text x="44.7" y="356.4">0
	</text>
</g>
	<g id="yLabel">
	<text x="32.4" y="198.5" text-anchor="middle" transform="rotate(-90 32.4 198.5)" font-size="14" font-family="Lucida Sans Unicode">Probability
	</text>
</g>
	<g id="xLabel">
	<text x="361.6" y="387.1" text-anchor="middle" font-size="12" font-family="Lucida Sans Unicode">Random Variable
	</text>
</g>
	<g id="plotLines" stroke-width="2">
	<g clip-path="url(#plot_window)" stroke="rgb(0,0,139)" stroke-width="1">
	<path d="M55.7,354 L55.7,354 
L58.76,354 
L61.82,354 
L64.88,354 
L67.94,354 
L71,354 
L74.05,354 
L77.11,354 
L80.17,354 
L83.23,354 
L86.29,354 
L89.35,354 
L92.41,354 
L95.47,354 
L98.53,354 
L101.6,354 
L104.6,354 
L107.7,354 
L110.8,354 
L113.8,354 
L116.9,354 
L119.9,354 
L123,354 
L126.1,354 
L129.1,354 
L132.2,354 
L135.2,354 
L138.3,354 
L141.4,354 
L144.4,354 
L147.5,354 
L150.5,354 
L153.6,354 
L156.6,354 
L159.7,354 
L162.8,354 
L165.8,354 
L168.9,354 
L171.9,354 
L175,353.9 
L178.1,353.9 
L181.1,353.8 
L184.2,353.6 
L187.2,353.4 
L190.3,353.2 
L193.4,352.8 
L196.4,352.4 
L199.5,351.8 
L202.5,351.1 
L205.6,350.3 
L208.6,349.3 
L211.7,348.1 
L214.8,346.7 
L217.8,345.1 
L220.9,343.4 
L223.9,341.5 
L227,339.4 
L230.1,337.1 
L233.1,334.6 
L236.2,332.1 
L239.2,329.3 
L242.3,326.5 
L245.4,323.6 
L248.4,320.6 
L251.5,317.6 
L254.5,314.5 
L257.6,311.4 
L260.7,308.3 
L263.7,305.3 
L266.8,302.2 
L269.8,299.3 
L272.9,296.4 
L275.9,293.6 
L279,290.8 
L282.1,288.2 
L285.1,285.7 
L288.2,283.4 
L291.2,281.1 
L294.3,279 
L297.4,277.1 
L300.4,275.3 
L303.5,273.6 
L306.5,272.1 
L309.6,270.7 
L312.7,269.5 
L315.7,268.4 
L318.8,267.5 
L321.8,266.7 
L324.9,266 
L328,265.5 
L331,265.1 
L334.1,264.8 
L337.1,264.6 
L340.2,264.6 
L343.2,264.7 
L346.3,264.8 
L349.4,265.1 
L352.4,265.4 
L355.5,265.9 
L358.5,266.4 
L361.6,267 
L364.7,267.7 
L367.7,268.5 
L370.8,269.3 
L373.8,270.1 
L376.9,271.1 
L380,272 
L383,273.1 
L386.1,274.1 
L389.1,275.2 
L392.2,276.4 
L395.2,277.5 
L398.3,278.7 
L401.4,279.9 
L404.4,281.2 
L407.5,282.4 
L410.5,283.7 
L413.6,285 
L416.7,286.3 
L419.7,287.6 
L422.8,288.9 
L425.8,290.2 
L428.9,291.5 
L432,292.8 
L435,294.1 
L438.1,295.4 
L441.1,296.7 
L444.2,298 
L447.3,299.3 
L450.3,300.6 
L453.4,301.9 
L456.4,303.1 
L459.5,304.4 
L462.5,305.6 
L465.6,306.8 
L468.7,308 
L471.7,309.2 
L474.8,310.4 
L477.8,311.5 
L480.9,312.7 
L484,313.8 
L487,314.9 
L490.1,316 
L493.1,317 
L496.2,318.1 
L499.3,319.1 
L502.3,320.1 
L505.4,321.1 
L508.4,322.1 
L511.5,323.1 
L514.6,324 
L517.6,324.9 
L520.7,325.8 
L523.7,326.7 
L526.8,327.5 
L529.8,328.4 
L532.9,329.2 
L536,330 
L539,330.8 
L542.1,331.5 
L545.1,332.3 
L548.2,333 
L551.3,333.7 
L554.3,334.4 
L557.4,335.1 
L560.4,335.7 
L563.5,336.4 
L566.6,337 
L569.6,337.6 
L572.7,338.2 
L575.7,338.7 
L578.8,339.3 
L581.8,339.8 
L584.9,340.3 
L588,340.8 
L591,341.3 
L594.1,341.8 
L597.1,342.3 
L600.2,342.7 
L603.3,343.2 
L606.3,343.6 
L609.4,344 
L612.4,344.4 
L615.5,344.8 
L618.6,345.1 
L621.6,345.5 
L624.7,345.8 
L627.7,346.1 
L630.8,346.5 
L633.9,346.8 
L636.9,347.1 
L640,347.4 
L643,347.6 
L646.1,347.9 
L649.1,348.2 
L652.2,348.4 
L655.3,348.7 
L658.3,348.9 
L661.4,349.1 
L664.4,349.3 
" fill="none"/>
</g>
	<g clip-path="url(#plot_window)" stroke="rgb(139,0,0)" stroke-width="1">
	<path d="M55.7,354 L55.7,354 
L58.76,354 
L61.82,354 
L64.88,354 
L67.94,354 
L71,354 
L74.05,354 
L77.11,354 
L80.17,354 
L83.23,354 
L86.29,354 
L89.35,354 
L92.41,354 
L95.47,354 
L98.53,354 
L101.6,354 
L104.6,354 
L107.7,354 
L110.8,354 
L113.8,354 
L116.9,354 
L119.9,354 
L123,354 
L126.1,354 
L129.1,354 
L132.2,354 
L135.2,354 
L138.3,353.9 
L141.4,353.8 
L144.4,353.7 
L147.5,353.4 
L150.5,352.9 
L153.6,352.2 
L156.6,351.2 
L159.7,349.8 
L162.8,348 
L165.8,345.8 
L168.9,343 
L171.9,339.7 
L175,335.8 
L178.1,331.5 
L181.1,326.7 
L184.2,321.5 
L187.2,315.9 
L190.3,310.1 
L193.4,304.1 
L196.4,297.9 
L199.5,291.7 
L202.5,285.6 
L205.6,279.5 
L208.6,273.7 
L211.7,268 
L214.8,262.7 
L217.8,257.6 
L220.9,252.9 
L223.9,248.6 
L227,244.7 
L230.1,241.2 
L233.1,238.1 
L236.2,235.4 
L239.2,233.2 
L242.3,231.3 
L245.4,229.9 
L248.4,228.8 
L251.5,228 
L254.5,227.6 
L257.6,227.6 
L260.7,227.8 
L263.7,228.3 
L266.8,229.1 
L269.8,230.1 
L272.9,231.4 
L275.9,232.8 
L279,234.5 
L282.1,236.3 
L285.1,238.2 
L288.2,240.3 
L291.2,242.4 
L294.3,244.7 
L297.4,247.1 
L300.4,249.5 
L303.5,252 
L306.5,254.5 
L309.6,257.1 
L312.7,259.7 
L315.7,262.3 
L318.8,264.9 
L321.8,267.5 
L324.9,270.2 
L328,272.8 
L331,275.4 
L334.1,277.9 
L337.1,280.5 
L340.2,283 
L343.2,285.4 
L346.3,287.9 
L349.4,290.2 
L352.4,292.6 
L355.5,294.9 
L358.5,297.1 
L361.6,299.3 
L364.7,301.5 
L367.7,303.6 
L370.8,305.6 
L373.8,307.6 
L376.9,309.6 
L380,311.4 
L383,313.3 
L386.1,315 
L389.1,316.8 
L392.2,318.4 
L395.2,320 
L398.3,321.6 
L401.4,323.1 
L404.4,324.5 
L407.5,325.9 
L410.5,327.3 
L413.6,328.6 
L416.7,329.8 
L419.7,331 
L422.8,332.2 
L425.8,333.3 
L428.9,334.3 
L432,335.4 
L435,336.3 
L438.1,337.3 
L441.1,338.2 
L444.2,339 
L447.3,339.8 
L450.3,340.6 
L453.4,341.4 
L456.4,342.1 
L459.5,342.7 
L462.5,343.4 
L465.6,344 
L468.7,344.6 
L471.7,345.1 
L474.8,345.7 
L477.8,346.2 
L480.9,346.6 
L484,347.1 
L487,347.5 
L490.1,347.9 
L493.1,348.3 
L496.2,348.6 
L499.3,349 
L502.3,349.3 
L505.4,349.6 
L508.4,349.9 
L511.5,350.2 
L514.6,350.4 
L517.6,350.7 
L520.7,350.9 
L523.7,351.1 
L526.8,351.3 
L529.8,351.5 
L532.9,351.6 
L536,351.8 
L539,352 
L542.1,352.1 
L545.1,352.2 
L548.2,352.4 
L551.3,352.5 
L554.3,352.6 
L557.4,352.7 
L560.4,352.8 
L563.5,352.9 
L566.6,353 
L569.6,353 
L572.7,353.1 
L575.7,353.2 
L578.8,353.2 
L581.8,353.3 
L584.9,353.4 
L588,353.4 
L591,353.5 
L594.1,353.5 
L597.1,353.5 
L600.2,353.6 
L603.3,353.6 
L606.3,353.6 
L609.4,353.7 
L612.4,353.7 
L615.5,353.7 
L618.6,353.7 
L621.6,353.8 
L624.7,353.8 
L627.7,353.8 
L630.8,353.8 
L633.9,353.8 
L636.9,353.8 
L640,353.9 
L643,353.9 
L646.1,353.9 
L649.1,353.9 
L652.2,353.9 
L655.3,353.9 
L658.3,353.9 
L661.4,353.9 
L664.4,353.9 
" fill="none"/>
</g>
	<g clip-path="url(#plot_window)" stroke="rgb(0,100,0)" stroke-width="1">
	<path d="M55.7,354 L55.7,354 
L58.76,354 
L61.82,354 
L64.88,354 
L67.94,354 
L71,354 
L74.05,354 
L77.11,354 
L80.17,354 
L83.23,354 
L86.29,354 
L89.35,354 
L92.41,354 
L95.47,354 
L98.53,354 
L101.6,354 
L104.6,354 
L107.7,353.9 
L110.8,353.6 
L113.8,353 
L116.9,351.7 
L119.9,349.2 
L123,345.3 
L126.1,339.5 
L129.1,331.6 
L132.2,321.7 
L135.2,309.9 
L138.3,296.5 
L141.4,282 
L144.4,266.7 
L147.5,251.3 
L150.5,236.1 
L153.6,221.6 
L156.6,208.1 
L159.7,195.9 
L162.8,185.2 
L165.8,176.1 
L168.9,168.6 
L171.9,162.7 
L175,158.4 
L178.1,155.6 
L181.1,154.3 
L184.2,154.2 
L187.2,155.3 
L190.3,157.4 
L193.4,160.5 
L196.4,164.3 
L199.5,168.8 
L202.5,173.8 
L205.6,179.3 
L208.6,185.1 
L211.7,191.3 
L214.8,197.6 
L217.8,204.1 
L220.9,210.6 
L223.9,217.2 
L227,223.7 
L230.1,230.2 
L233.1,236.5 
L236.2,242.8 
L239.2,248.9 
L242.3,254.9 
L245.4,260.6 
L248.4,266.2 
L251.5,271.6 
L254.5,276.8 
L257.6,281.8 
L260.7,286.5 
L263.7,291 
L266.8,295.4 
L269.8,299.5 
L272.9,303.4 
L275.9,307 
L279,310.5 
L282.1,313.8 
L285.1,316.9 
L288.2,319.8 
L291.2,322.5 
L294.3,325 
L297.4,327.4 
L300.4,329.6 
L303.5,331.7 
L306.5,333.6 
L309.6,335.4 
L312.7,337 
L315.7,338.6 
L318.8,340 
L321.8,341.3 
L324.9,342.5 
L328,343.5 
L331,344.6 
L334.1,345.5 
L337.1,346.3 
L340.2,347.1 
L343.2,347.8 
L346.3,348.4 
L349.4,349 
L352.4,349.5 
L355.5,350 
L358.5,350.4 
L361.6,350.8 
L364.7,351.2 
L367.7,351.5 
L370.8,351.8 
L373.8,352 
L376.9,352.2 
L380,352.4 
L383,352.6 
L386.1,352.8 
L389.1,352.9 
L392.2,353.1 
L395.2,353.2 
L398.3,353.3 
L401.4,353.4 
L404.4,353.4 
L407.5,353.5 
L410.5,353.6 
L413.6,353.6 
L416.7,353.7 
L419.7,353.7 
L422.8,353.8 
L425.8,353.8 
L428.9,353.8 
L432,353.8 
L435,353.9 
L438.1,353.9 
L441.1,353.9 
L444.2,353.9 
L447.3,353.9 
L450.3,353.9 
L453.4,353.9 
L456.4,354 
L459.5,354 
L462.5,354 
L465.6,354 
L468.7,354 
L471.7,354 
L474.8,354 
L477.8,354 
L480.9,354 
L484,354 
L487,354 
L490.1,354 
L493.1,354 
L496.2,354 
L499.3,354 
L502.3,354 
L505.4,354 
L508.4,354 
L511.5,354 
L514.6,354 
L517.6,354 
L520.7,354 
L523.7,354 
L526.8,354 
L529.8,354 
L532.9,354 
L536,354 
L539,354 
L542.1,354 
L545.1,354 
L548.2,354 
L551.3,354 
L554.3,354 
L557.4,354 
L560.4,354 
L563.5,354 
L566.6,354 
L569.6,354 
L572.7,354 
L575.7,354 
L578.8,354 
L581.8,354 
L584.9,354 
L588,354 
L591,354 
L594.1,354 
L597.1,354 
L600.2,354 
L603.3,354 
L606.3,354 
L609.4,354 
L612.4,354 
L615.5,354 
L618.6,354 
L621.6,354 
L624.7,354 
L627.7,354 
L630.8,354 
L633.9,354 
L636.9,354 
L640,354 
L643,354 
L646.1,354 
L649.1,354 
L652.2,354 
L655.3,354 
L658.3,354 
L661.4,354 
L664.4,354 
" fill="none"/>
</g>
	<g clip-path="url(#plot_window)" stroke="rgb(255,140,0)" stroke-width="1">
	<path d="M55.7,354 L55.7,354 
L58.76,354 
L61.82,354 
L64.88,354 
L67.94,354 
L71,354 
L74.05,354 
L77.11,354 
L80.17,354 
L83.23,354 
L86.29,354 
L89.35,354 
L92.41,353.9 
L95.47,353.2 
L98.53,351.2 
L101.6,346.2 
L104.6,336.8 
L107.7,321.8 
L110.8,301.1 
L113.8,275.3 
L116.9,246.1 
L119.9,215.3 
L123,184.9 
L126.1,156.5 
L129.1,131.4 
L132.2,110.4 
L135.2,94 
L138.3,82.18 
L141.4,74.81 
L144.4,71.53 
L147.5,71.91 
L150.5,75.42 
L153.6,81.57 
L156.6,89.84 
L159.7,99.79 
L162.8,111 
L165.8,123.1 
L168.9,135.8 
L171.9,148.8 
L175,161.9 
L178.1,174.9 
L181.1,187.7 
L184.2,200.2 
L187.2,212.2 
L190.3,223.8 
L193.4,234.8 
L196.4,245.2 
L199.5,255 
L202.5,264.2 
L205.6,272.8 
L208.6,280.8 
L211.7,288.2 
L214.8,295.1 
L217.8,301.3 
L220.9,307.1 
L223.9,312.3 
L227,317 
L230.1,321.4 
L233.1,325.2 
L236.2,328.7 
L239.2,331.9 
L242.3,334.7 
L245.4,337.1 
L248.4,339.4 
L251.5,341.3 
L254.5,343 
L257.6,344.6 
L260.7,345.9 
L263.7,347 
L266.8,348.1 
L269.8,348.9 
L272.9,349.7 
L275.9,350.3 
L279,350.9 
L282.1,351.4 
L285.1,351.8 
L288.2,352.2 
L291.2,352.5 
L294.3,352.7 
L297.4,352.9 
L300.4,353.1 
L303.5,353.3 
L306.5,353.4 
L309.6,353.5 
L312.7,353.6 
L315.7,353.7 
L318.8,353.7 
L321.8,353.8 
L324.9,353.8 
L328,353.9 
L331,353.9 
L334.1,353.9 
L337.1,353.9 
L340.2,353.9 
L343.2,354 
L346.3,354 
L349.4,354 
L352.4,354 
L355.5,354 
L358.5,354 
L361.6,354 
L364.7,354 
L367.7,354 
L370.8,354 
L373.8,354 
L376.9,354 
L380,354 
L383,354 
L386.1,354 
L389.1,354 
L392.2,354 
L395.2,354 
L398.3,354 
L401.4,354 
L404.4,354 
L407.5,354 
L410.5,354 
L413.6,354 
L416.7,354 
L419.7,354 
L422.8,354 
L425.8,354 
L428.9,354 
L432,354 
L435,354 
L438.1,354 
L441.1,354 
L444.2,354 
L447.3,354 
L450.3,354 
L453.4,354 
L456.4,354 
L459.5,354 
L462.5,354 
L465.6,354 
L468.7,354 
L471.7,354 
L474.8,354 
L477.8,354 
L480.9,354 
L484,354 
L487,354 
L490.1,354 
L493.1,354 
L496.2,354 
L499.3,354 
L502.3,354 
L505.4,354 
L508.4,354 
L511.5,354 
L514.6,354 
L517.6,354 
L520.7,354 
L523.7,354 
L526.8,354 
L529.8,354 
L532.9,354 
L536,354 
L539,354 
L542.1,354 
L545.1,354 
L548.2,354 
L551.3,354 
L554.3,354 
L557.4,354 
L560.4,354 
L563.5,354 
L566.6,354 
L569.6,354 
L572.7,354 
L575.7,354 
L578.8,354 
L581.8,354 
L584.9,354 
L588,354 
L591,354 
L594.1,354 
L597.1,354 
L600.2,354 
L603.3,354 
L606.3,354 
L609.4,354 
L612.4,354 
L615.5,354 
L618.6,354 
L621.6,354 
L624.7,354 
L627.7,354 
L630.8,354 
L633.9,354 
L636.9,354 
L640,354 
L643,354 
L646.1,354 
L649.1,354 
L652.2,354 
L655.3,354 
L658.3,354 
L661.4,354 
L664.4,354 
" fill="none"/>
</g>
</g>
	<g id="plotPoints" clip-path="url(#plot_window)">
</g>
	<g id="legendBackground" stroke="rgb(119,136,153)" fill="rgb(255,255,255)" stroke-width="1">
	<rect x="673.5" y="43" width="62.5" height="77"/>
</g>
	<g id="legendPoints">
</g>
	<g id="legendLines">
	<g stroke="rgb(0,0,139)" stroke-width="1">
	<line x1="688.8" y1="62.75" x2="694.8" y2="62.75"/>
</g>
	<g stroke="rgb(139,0,0)" stroke-width="1">
	<line x1="688.8" y1="75.25" x2="694.8" y2="75.25"/>
</g>
	<g stroke="rgb(0,100,0)" stroke-width="1">
	<line x1="688.8" y1="87.75" x2="694.8" y2="87.75"/>
</g>
	<g stroke="rgb(255,140,0)" stroke-width="1">
	<line x1="688.8" y1="100.3" x2="694.8" y2="100.3"/>
</g>
</g>
	<g id="legendText">
	<text x="703.8" y="62.75" font-size="10" font-family="Lucida Sans Unicode" font-weight="normal" textLength="18">n=1
	</text>
	<text x="703.8" y="75.25" font-size="10" font-family="Lucida Sans Unicode" font-weight="normal" textLength="18">n=2
	</text>
	<text x="703.8" y="87.75" font-size="10" font-family="Lucida Sans Unicode" font-weight="normal" textLength="18">n=5
	</text>
	<text x="703.8" y="100.3" font-size="10" font-family="Lucida Sans Unicode" font-weight="normal" textLength="24">n=10
	</text>
</g>
	<g id="title">
	<text x="375" y="30" text-anchor="middle" font-size="20" font-family="Lucida Sans Unicode" font-weight="normal">Kolmogorov-Smirnov Distribution PDF
	</text>
</g>
	<g id="plotXValues">
</g>
	<g id="plotYValues">
</g>
</svg>
