<?xml version="1.0" encoding="UTF-8" standalone="no"?>
<svg width="750" height ="400" version="1.1"
xmlns:svg ="http://www.w3.org/2000/svg"
xmlns:rdf="http://www.w3.org/1999/02/22-rdf-syntax-ns#"
xmlns:cc="http://web.resource.org/cc/"
xmlns:dc="http://purl.org/dc/elements/1.1/"
xmlns ="http://www.w3.org/2000/svg"
>
<!-- SVG plot written using Boost.Plot program (Creator Jacob Voytko) --> 
<!-- Use, modification and distribution of Boost.Plot subject to the --> 
<!-- Boost Software License, Version 1.0.--> 
<!-- (See accompanying file LICENSE_1_0.txt --> 
<!-- or copy at http://www.boost.org/LICENSE_1_0.txt) --> 

<!-- SVG Plot Copyright John Maddock 2008 --> 
<meta name="copyright" content="John Maddock" />
<meta name="date" content="2008" />
<!-- Use, modification and distribution of this Scalable Vector Graphic file -->
<!-- are subject to the Boost Software License, Version 1.0. -->
<!-- (See accompanying file LICENSE_1_0.txt or copy at http://www.boost.org/LICENSE_1_0.txt) -->

<clipPath id="plot_window">	<rect x="71.1" y="44" width="595.4" height="309"/>
</clipPath>
	<g id="imageBackground" stroke="rgb(119,136,153)" fill="rgb(255,255,255)" stroke-width="2">
	<rect x="0" y="0" width="750" height="400"/>
</g>
	<g id="plotBackground" stroke="rgb(119,136,153)" fill="rgb(255,255,255)" stroke-width="2">
	<rect x="70.1" y="43" width="597.4" height="311"/>
</g>
	<g id="yMinorGrid" stroke="rgb(200,220,255)" stroke-width="0.5">
</g>
	<g id="yMajorGrid" stroke="rgb(200,220,255)" stroke-width="1">
</g>
	<g id="xMinorGrid" stroke="rgb(200,220,255)" stroke-width="0.5">
</g>
	<g id="xMajorGrid" stroke="rgb(200,220,255)" stroke-width="1">
</g>
	<g id="yAxis" stroke="rgb(0,0,0)" stroke-width="1">
	<line x1="70.1" y1="43" x2="70.1" y2="359"/>
	<line x1="70.1" y1="43" x2="70.1" y2="354"/>
</g>
	<g id="xAxis" stroke="rgb(0,0,0)" stroke-width="1">
	<line x1="65.1" y1="354" x2="667.5" y2="354"/>
	<line x1="65.1" y1="354" x2="667.5" y2="354"/>
</g>
	<g id="yMinorTicks" stroke="rgb(0,0,0)" stroke-width="1">
	<path d="M68.1,348.3 L70.1,348.3 
M68.1,342.7 L70.1,342.7 
M68.1,337 L70.1,337 
M68.1,331.4 L70.1,331.4 
M68.1,320.1 L70.1,320.1 
M68.1,314.4 L70.1,314.4 
M68.1,308.8 L70.1,308.8 
M68.1,303.1 L70.1,303.1 
M68.1,291.8 L70.1,291.8 
M68.1,286.1 L70.1,286.1 
M68.1,280.5 L70.1,280.5 
M68.1,274.8 L70.1,274.8 
M68.1,263.5 L70.1,263.5 
M68.1,257.9 L70.1,257.9 
M68.1,252.2 L70.1,252.2 
M68.1,246.6 L70.1,246.6 
M68.1,235.3 L70.1,235.3 
M68.1,229.6 L70.1,229.6 
M68.1,223.9 L70.1,223.9 
M68.1,218.3 L70.1,218.3 
M68.1,207 L70.1,207 
M68.1,201.3 L70.1,201.3 
M68.1,195.7 L70.1,195.7 
M68.1,190 L70.1,190 
M68.1,178.7 L70.1,178.7 
M68.1,173.1 L70.1,173.1 
M68.1,167.4 L70.1,167.4 
M68.1,161.7 L70.1,161.7 
M68.1,150.4 L70.1,150.4 
M68.1,144.8 L70.1,144.8 
M68.1,139.1 L70.1,139.1 
M68.1,133.5 L70.1,133.5 
M68.1,122.2 L70.1,122.2 
M68.1,116.5 L70.1,116.5 
M68.1,110.9 L70.1,110.9 
M68.1,105.2 L70.1,105.2 
M68.1,93.89 L70.1,93.89 
M68.1,88.24 L70.1,88.24 
M68.1,82.58 L70.1,82.58 
M68.1,76.93 L70.1,76.93 
M68.1,65.62 L70.1,65.62 
M68.1,59.96 L70.1,59.96 
M68.1,54.31 L70.1,54.31 
M68.1,48.65 L70.1,48.65 
M68.1,354 L70.1,354 
" fill="none"/>
</g>
	<g id="xMinorTicks" stroke="rgb(0,0,0)" stroke-width="1">
	<path d="M107.8,354 L107.8,356 
M145.6,354 L145.6,356 
M183.3,354 L183.3,356 
M221.1,354 L221.1,356 
M296.5,354 L296.5,356 
M334.3,354 L334.3,356 
M372,354 L372,356 
M409.8,354 L409.8,356 
M485.2,354 L485.2,356 
M523,354 L523,356 
M560.7,354 L560.7,356 
M598.5,354 L598.5,356 
" fill="none"/>
</g>
	<g id="yMajorTicks" stroke="rgb(0,0,0)" stroke-width="2">
	<path d="M65.1,354 L70.1,354 
M65.1,325.7 L70.1,325.7 
M65.1,297.5 L70.1,297.5 
M65.1,269.2 L70.1,269.2 
M65.1,240.9 L70.1,240.9 
M65.1,212.6 L70.1,212.6 
M65.1,184.4 L70.1,184.4 
M65.1,156.1 L70.1,156.1 
M65.1,127.8 L70.1,127.8 
M65.1,99.55 L70.1,99.55 
M65.1,71.27 L70.1,71.27 
M65.1,43 L70.1,43 
M65.1,354 L70.1,354 
" fill="none"/>
</g>
	<g id="xMajorTicks" stroke="rgb(0,0,0)" stroke-width="2">
	<path d="M70.1,354 L70.1,359 
M258.8,354 L258.8,359 
M447.5,354 L447.5,359 
M636.2,354 L636.2,359 
M70.1,354 L70.1,359 
" fill="none"/>
</g>
	<g id="xTicksValues" font-size="12" font-family="Lucida Sans Unicode" text-anchor="middle">
	<text x="70.1" y="374.6">0
	</text>
	<text x="258.8" y="374.6">0.5
	</text>
	<text x="447.5" y="374.6">1
	</text>
	<text x="636.2" y="374.6">1.5
	</text>
	<text x="70.1" y="374.6">0
	</text>
</g>
	<g id="yTicksValues" font-size="12" font-family="Lucida Sans Unicode" text-anchor="end">
	<text x="59.1" y="356.4">0
	</text>
	<text x="59.1" y="328.1">0.1
	</text>
	<text x="59.1" y="299.9">0.2
	</text>
	<text x="59.1" y="271.6">0.3
	</text>
	<text x="59.1" y="243.3">0.4
	</text>
	<text x="59.1" y="215">0.5
	</text>
	<text x="59.1" y="186.8">0.6
	</text>
	<text x="59.1" y="158.5">0.7
	</text>
	<text x="59.1" y="130.2">0.8
	</text>
	<text x="59.1" y="101.9">0.9
	</text>
	<text x="59.1" y="73.67">1
	</text>
	<text x="59.1" y="45.4">1.1
	</text>
	<text x="59.1" y="356.4">0
	</text>
</g>
	<g id="yLabel">
	<text x="32.4" y="198.5" text-anchor="middle" transform="rotate(-90 32.4 198.5)" font-size="14" font-family="Lucida Sans Unicode">Probability
	</text>
</g>
	<g id="xLabel">
	<text x="368.8" y="387.1" text-anchor="middle" font-size="12" font-family="Lucida Sans Unicode">Random Variable
	</text>
</g>
	<g id="plotLines" stroke-width="2">
	<g clip-path="url(#plot_window)" stroke="rgb(0,0,139)" stroke-width="1">
	<path d="M70.1,354 L70.1,354 
L73.09,354 
L76.07,354 
L79.06,354 
L82.05,354 
L85.03,354 
L88.02,354 
L91.01,354 
L94,354 
L96.98,354 
L99.97,354 
L103,354 
L105.9,354 
L108.9,354 
L111.9,354 
L114.9,354 
L117.9,354 
L120.9,354 
L123.9,354 
L126.9,354 
L129.8,354 
L132.8,354 
L135.8,354 
L138.8,354 
L141.8,354 
L144.8,354 
L147.8,354 
L150.7,354 
L153.7,354 
L156.7,354 
L159.7,354 
L162.7,354 
L165.7,354 
L168.7,354 
L171.7,354 
L174.6,354 
L177.6,354 
L180.6,354 
L183.6,354 
L186.6,354 
L189.6,354 
L192.6,354 
L195.6,354 
L198.5,354 
L201.5,353.9 
L204.5,353.9 
L207.5,353.8 
L210.5,353.7 
L213.5,353.6 
L216.5,353.5 
L219.4,353.3 
L222.4,353.1 
L225.4,352.8 
L228.4,352.5 
L231.4,352.1 
L234.4,351.6 
L237.4,351 
L240.4,350.3 
L243.3,349.6 
L246.3,348.7 
L249.3,347.7 
L252.3,346.6 
L255.3,345.4 
L258.3,344.1 
L261.3,342.6 
L264.3,341 
L267.2,339.2 
L270.2,337.4 
L273.2,335.4 
L276.2,333.3 
L279.2,331 
L282.2,328.6 
L285.2,326.2 
L288.2,323.5 
L291.1,320.8 
L294.1,318 
L297.1,315.1 
L300.1,312 
L303.1,308.9 
L306.1,305.7 
L309.1,302.4 
L312,299.1 
L315,295.6 
L318,292.1 
L321,288.6 
L324,285 
L327,281.4 
L330,277.7 
L333,274 
L335.9,270.3 
L338.9,266.5 
L341.9,262.8 
L344.9,259 
L347.9,255.2 
L350.9,251.5 
L353.9,247.7 
L356.9,243.9 
L359.8,240.2 
L362.8,236.4 
L365.8,232.7 
L368.8,229.1 
L371.8,225.4 
L374.8,221.8 
L377.8,218.2 
L380.7,214.6 
L383.7,211.1 
L386.7,207.6 
L389.7,204.2 
L392.7,200.8 
L395.7,197.4 
L398.7,194.1 
L401.7,190.9 
L404.6,187.7 
L407.6,184.5 
L410.6,181.4 
L413.6,178.4 
L416.6,175.4 
L419.6,172.4 
L422.6,169.5 
L425.6,166.7 
L428.5,163.9 
L431.5,161.2 
L434.5,158.6 
L437.5,155.9 
L440.5,153.4 
L443.5,150.9 
L446.5,148.4 
L449.4,146.1 
L452.4,143.7 
L455.4,141.4 
L458.4,139.2 
L461.4,137 
L464.4,134.9 
L467.4,132.8 
L470.4,130.8 
L473.3,128.9 
L476.3,126.9 
L479.3,125.1 
L482.3,123.3 
L485.3,121.5 
L488.3,119.8 
L491.3,118.1 
L494.3,116.5 
L497.2,114.9 
L500.2,113.3 
L503.2,111.8 
L506.2,110.4 
L509.2,109 
L512.2,107.6 
L515.2,106.3 
L518.2,105 
L521.1,103.8 
L524.1,102.5 
L527.1,101.4 
L530.1,100.2 
L533.1,99.14 
L536.1,98.08 
L539.1,97.05 
L542,96.05 
L545,95.08 
L548,94.15 
L551,93.25 
L554,92.38 
L557,91.54 
L560,90.72 
L563,89.94 
L565.9,89.18 
L568.9,88.45 
L571.9,87.74 
L574.9,87.06 
L577.9,86.4 
L580.9,85.77 
L583.9,85.16 
L586.9,84.57 
L589.8,84.01 
L592.8,83.46 
L595.8,82.94 
L598.8,82.43 
L601.8,81.95 
L604.8,81.48 
L607.8,81.03 
L610.7,80.6 
L613.7,80.19 
L616.7,79.79 
L619.7,79.41 
L622.7,79.04 
L625.7,78.69 
L628.7,78.35 
L631.7,78.02 
L634.6,77.71 
L637.6,77.41 
L640.6,77.13 
L643.6,76.85 
L646.6,76.59 
L649.6,76.34 
L652.6,76.1 
L655.6,75.87 
L658.5,75.65 
L661.5,75.43 
L664.5,75.23 
" fill="none"/>
</g>
	<g clip-path="url(#plot_window)" stroke="rgb(139,0,0)" stroke-width="1">
	<path d="M70.1,354 L70.1,354 
L73.09,354 
L76.07,354 
L79.06,354 
L82.05,354 
L85.03,354 
L88.02,354 
L91.01,354 
L94,354 
L96.98,354 
L99.97,354 
L103,354 
L105.9,354 
L108.9,354 
L111.9,354 
L114.9,354 
L117.9,354 
L120.9,354 
L123.9,354 
L126.9,354 
L129.8,354 
L132.8,354 
L135.8,354 
L138.8,354 
L141.8,354 
L144.8,354 
L147.8,354 
L150.7,354 
L153.7,354 
L156.7,354 
L159.7,354 
L162.7,353.9 
L165.7,353.9 
L168.7,353.8 
L171.7,353.6 
L174.6,353.4 
L177.6,353.1 
L180.6,352.7 
L183.6,352.2 
L186.6,351.5 
L189.6,350.6 
L192.6,349.6 
L195.6,348.3 
L198.5,346.8 
L201.5,345.1 
L204.5,343.1 
L207.5,340.9 
L210.5,338.4 
L213.5,335.6 
L216.5,332.6 
L219.4,329.3 
L222.4,325.8 
L225.4,322.1 
L228.4,318.1 
L231.4,314 
L234.4,309.6 
L237.4,305.1 
L240.4,300.4 
L243.3,295.5 
L246.3,290.6 
L249.3,285.5 
L252.3,280.4 
L255.3,275.2 
L258.3,269.9 
L261.3,264.6 
L264.3,259.3 
L267.2,253.9 
L270.2,248.6 
L273.2,243.3 
L276.2,238 
L279.2,232.8 
L282.2,227.6 
L285.2,222.4 
L288.2,217.3 
L291.1,212.3 
L294.1,207.4 
L297.1,202.5 
L300.1,197.8 
L303.1,193.1 
L306.1,188.6 
L309.1,184.1 
L312,179.7 
L315,175.5 
L318,171.3 
L321,167.3 
L324,163.4 
L327,159.6 
L330,155.8 
L333,152.3 
L335.9,148.8 
L338.9,145.4 
L341.9,142.1 
L344.9,139 
L347.9,135.9 
L350.9,133 
L353.9,130.1 
L356.9,127.4 
L359.8,124.7 
L362.8,122.2 
L365.8,119.8 
L368.8,117.4 
L371.8,115.1 
L374.8,113 
L377.8,110.9 
L380.7,108.9 
L383.7,107 
L386.7,105.1 
L389.7,103.4 
L392.7,101.7 
L395.7,100.1 
L398.7,98.54 
L401.7,97.07 
L404.6,95.67 
L407.6,94.33 
L410.6,93.05 
L413.6,91.84 
L416.6,90.68 
L419.6,89.58 
L422.6,88.54 
L425.6,87.54 
L428.5,86.6 
L431.5,85.7 
L434.5,84.85 
L437.5,84.04 
L440.5,83.27 
L443.5,82.55 
L446.5,81.86 
L449.4,81.21 
L452.4,80.59 
L455.4,80.01 
L458.4,79.46 
L461.4,78.94 
L464.4,78.45 
L467.4,77.99 
L470.4,77.56 
L473.3,77.15 
L476.3,76.76 
L479.3,76.4 
L482.3,76.06 
L485.3,75.74 
L488.3,75.44 
L491.3,75.15 
L494.3,74.89 
L497.2,74.64 
L500.2,74.4 
L503.2,74.19 
L506.2,73.98 
L509.2,73.79 
L512.2,73.61 
L515.2,73.44 
L518.2,73.29 
L521.1,73.14 
L524.1,73 
L527.1,72.88 
L530.1,72.76 
L533.1,72.65 
L536.1,72.54 
L539.1,72.45 
L542,72.36 
L545,72.28 
L548,72.2 
L551,72.13 
L554,72.06 
L557,72 
L560,71.94 
L563,71.89 
L565.9,71.84 
L568.9,71.79 
L571.9,71.75 
L574.9,71.71 
L577.9,71.68 
L580.9,71.64 
L583.9,71.61 
L586.9,71.59 
L589.8,71.56 
L592.8,71.54 
L595.8,71.51 
L598.8,71.49 
L601.8,71.47 
L604.8,71.46 
L607.8,71.44 
L610.7,71.43 
L613.7,71.41 
L616.7,71.4 
L619.7,71.39 
L622.7,71.38 
L625.7,71.37 
L628.7,71.36 
L631.7,71.35 
L634.6,71.35 
L637.6,71.34 
L640.6,71.33 
L643.6,71.33 
L646.6,71.32 
L649.6,71.32 
L652.6,71.31 
L655.6,71.31 
L658.5,71.31 
L661.5,71.3 
L664.5,71.3 
" fill="none"/>
</g>
	<g clip-path="url(#plot_window)" stroke="rgb(0,100,0)" stroke-width="1">
	<path d="M70.1,354 L70.1,354 
L73.09,354 
L76.07,354 
L79.06,354 
L82.05,354 
L85.03,354 
L88.02,354 
L91.01,354 
L94,354 
L96.98,354 
L99.97,354 
L103,354 
L105.9,354 
L108.9,354 
L111.9,354 
L114.9,354 
L117.9,354 
L120.9,354 
L123.9,354 
L126.9,354 
L129.8,353.9 
L132.8,353.7 
L135.8,353.5 
L138.8,353 
L141.8,352.2 
L144.8,351.1 
L147.8,349.5 
L150.7,347.3 
L153.7,344.6 
L156.7,341.2 
L159.7,337.2 
L162.7,332.6 
L165.7,327.3 
L168.7,321.4 
L171.7,315 
L174.6,308.1 
L177.6,300.7 
L180.6,293.1 
L183.6,285.1 
L186.6,276.9 
L189.6,268.6 
L192.6,260.2 
L195.6,251.8 
L198.5,243.4 
L201.5,235 
L204.5,226.8 
L207.5,218.7 
L210.5,210.8 
L213.5,203 
L216.5,195.6 
L219.4,188.3 
L222.4,181.3 
L225.4,174.6 
L228.4,168.1 
L231.4,161.9 
L234.4,156 
L237.4,150.3 
L240.4,145 
L243.3,139.9 
L246.3,135.1 
L249.3,130.5 
L252.3,126.2 
L255.3,122.1 
L258.3,118.3 
L261.3,114.7 
L264.3,111.3 
L267.2,108.2 
L270.2,105.2 
L273.2,102.5 
L276.2,99.92 
L279.2,97.53 
L282.2,95.31 
L285.2,93.25 
L288.2,91.34 
L291.1,89.58 
L294.1,87.95 
L297.1,86.44 
L300.1,85.06 
L303.1,83.78 
L306.1,82.61 
L309.1,81.53 
L312,80.55 
L315,79.65 
L318,78.83 
L321,78.08 
L324,77.39 
L327,76.77 
L330,76.21 
L333,75.69 
L335.9,75.23 
L338.9,74.81 
L341.9,74.43 
L344.9,74.09 
L347.9,73.78 
L350.9,73.5 
L353.9,73.25 
L356.9,73.03 
L359.8,72.83 
L362.8,72.65 
L365.8,72.49 
L368.8,72.35 
L371.8,72.22 
L374.8,72.11 
L377.8,72.01 
L380.7,71.92 
L383.7,71.84 
L386.7,71.77 
L389.7,71.71 
L392.7,71.65 
L395.7,71.6 
L398.7,71.56 
L401.7,71.52 
L404.6,71.49 
L407.6,71.46 
L410.6,71.44 
L413.6,71.42 
L416.6,71.4 
L419.6,71.38 
L422.6,71.36 
L425.6,71.35 
L428.5,71.34 
L431.5,71.33 
L434.5,71.32 
L437.5,71.32 
L440.5,71.31 
L443.5,71.3 
L446.5,71.3 
L449.4,71.3 
L452.4,71.29 
L455.4,71.29 
L458.4,71.29 
L461.4,71.28 
L464.4,71.28 
L467.4,71.28 
L470.4,71.28 
L473.3,71.28 
L476.3,71.28 
L479.3,71.28 
L482.3,71.28 
L485.3,71.28 
L488.3,71.28 
L491.3,71.27 
L494.3,71.27 
L497.2,71.27 
L500.2,71.27 
L503.2,71.27 
L506.2,71.27 
L509.2,71.27 
L512.2,71.27 
L515.2,71.27 
L518.2,71.27 
L521.1,71.27 
L524.1,71.27 
L527.1,71.27 
L530.1,71.27 
L533.1,71.27 
L536.1,71.27 
L539.1,71.27 
L542,71.27 
L545,71.27 
L548,71.27 
L551,71.27 
L554,71.27 
L557,71.27 
L560,71.27 
L563,71.27 
L565.9,71.27 
L568.9,71.27 
L571.9,71.27 
L574.9,71.27 
L577.9,71.27 
L580.9,71.27 
L583.9,71.27 
L586.9,71.27 
L589.8,71.27 
L592.8,71.27 
L595.8,71.27 
L598.8,71.27 
L601.8,71.27 
L604.8,71.27 
L607.8,71.27 
L610.7,71.27 
L613.7,71.27 
L616.7,71.27 
L619.7,71.27 
L622.7,71.27 
L625.7,71.27 
L628.7,71.27 
L631.7,71.27 
L634.6,71.27 
L637.6,71.27 
L640.6,71.27 
L643.6,71.27 
L646.6,71.27 
L649.6,71.27 
L652.6,71.27 
L655.6,71.27 
L658.5,71.27 
L661.5,71.27 
L664.5,71.27 
" fill="none"/>
</g>
	<g clip-path="url(#plot_window)" stroke="rgb(255,140,0)" stroke-width="1">
	<path d="M70.1,354 L70.1,354 
L73.09,354 
L76.07,354 
L79.06,354 
L82.05,354 
L85.03,354 
L88.02,354 
L91.01,354 
L94,354 
L96.98,354 
L99.97,354 
L103,354 
L105.9,354 
L108.9,354 
L111.9,353.9 
L114.9,353.7 
L117.9,353.2 
L120.9,352.2 
L123.9,350.4 
L126.9,347.6 
L129.8,343.7 
L132.8,338.5 
L135.8,332 
L138.8,324.3 
L141.8,315.4 
L144.8,305.5 
L147.8,294.9 
L150.7,283.6 
L153.7,272 
L156.7,260.1 
L159.7,248.2 
L162.7,236.3 
L165.7,224.7 
L168.7,213.4 
L171.7,202.4 
L174.6,191.9 
L177.6,181.9 
L180.6,172.4 
L183.6,163.5 
L186.6,155.1 
L189.6,147.3 
L192.6,140 
L195.6,133.2 
L198.5,127 
L201.5,121.2 
L204.5,116 
L207.5,111.2 
L210.5,106.8 
L213.5,102.8 
L216.5,99.19 
L219.4,95.94 
L222.4,93.01 
L225.4,90.37 
L228.4,88.02 
L231.4,85.92 
L234.4,84.05 
L237.4,82.39 
L240.4,80.92 
L243.3,79.63 
L246.3,78.49 
L249.3,77.49 
L252.3,76.62 
L255.3,75.85 
L258.3,75.19 
L261.3,74.61 
L264.3,74.11 
L267.2,73.68 
L270.2,73.31 
L273.2,73 
L276.2,72.72 
L279.2,72.49 
L282.2,72.29 
L285.2,72.13 
L288.2,71.99 
L291.1,71.87 
L294.1,71.76 
L297.1,71.68 
L300.1,71.61 
L303.1,71.55 
L306.1,71.5 
L309.1,71.46 
L312,71.42 
L315,71.4 
L318,71.37 
L321,71.35 
L324,71.34 
L327,71.33 
L330,71.32 
L333,71.31 
L335.9,71.3 
L338.9,71.29 
L341.9,71.29 
L344.9,71.29 
L347.9,71.28 
L350.9,71.28 
L353.9,71.28 
L356.9,71.28 
L359.8,71.28 
L362.8,71.28 
L365.8,71.28 
L368.8,71.27 
L371.8,71.27 
L374.8,71.27 
L377.8,71.27 
L380.7,71.27 
L383.7,71.27 
L386.7,71.27 
L389.7,71.27 
L392.7,71.27 
L395.7,71.27 
L398.7,71.27 
L401.7,71.27 
L404.6,71.27 
L407.6,71.27 
L410.6,71.27 
L413.6,71.27 
L416.6,71.27 
L419.6,71.27 
L422.6,71.27 
L425.6,71.27 
L428.5,71.27 
L431.5,71.27 
L434.5,71.27 
L437.5,71.27 
L440.5,71.27 
L443.5,71.27 
L446.5,71.27 
L449.4,71.27 
L452.4,71.27 
L455.4,71.27 
L458.4,71.27 
L461.4,71.27 
L464.4,71.27 
L467.4,71.27 
L470.4,71.27 
L473.3,71.27 
L476.3,71.27 
L479.3,71.27 
L482.3,71.27 
L485.3,71.27 
L488.3,71.27 
L491.3,71.27 
L494.3,71.27 
L497.2,71.27 
L500.2,71.27 
L503.2,71.27 
L506.2,71.27 
L509.2,71.27 
L512.2,71.27 
L515.2,71.27 
L518.2,71.27 
L521.1,71.27 
L524.1,71.27 
L527.1,71.27 
L530.1,71.27 
L533.1,71.27 
L536.1,71.27 
L539.1,71.27 
L542,71.27 
L545,71.27 
L548,71.27 
L551,71.27 
L554,71.27 
L557,71.27 
L560,71.27 
L563,71.27 
L565.9,71.27 
L568.9,71.27 
L571.9,71.27 
L574.9,71.27 
L577.9,71.27 
L580.9,71.27 
L583.9,71.27 
L586.9,71.27 
L589.8,71.27 
L592.8,71.27 
L595.8,71.27 
L598.8,71.27 
L601.8,71.27 
L604.8,71.27 
L607.8,71.27 
L610.7,71.27 
L613.7,71.27 
L616.7,71.27 
L619.7,71.27 
L622.7,71.27 
L625.7,71.27 
L628.7,71.27 
L631.7,71.27 
L634.6,71.27 
L637.6,71.27 
L640.6,71.27 
L643.6,71.27 
L646.6,71.27 
L649.6,71.27 
L652.6,71.27 
L655.6,71.27 
L658.5,71.27 
L661.5,71.27 
L664.5,71.27 
" fill="none"/>
</g>
</g>
	<g id="plotPoints" clip-path="url(#plot_window)">
</g>
	<g id="legendBackground" stroke="rgb(119,136,153)" fill="rgb(255,255,255)" stroke-width="1">
	<rect x="673.5" y="43" width="62.5" height="77"/>
</g>
	<g id="legendPoints">
</g>
	<g id="legendLines">
	<g stroke="rgb(0,0,139)" stroke-width="1">
	<line x1="688.8" y1="62.75" x2="694.8" y2="62.75"/>
</g>
	<g stroke="rgb(139,0,0)" stroke-width="1">
	<line x1="688.8" y1="75.25" x2="694.8" y2="75.25"/>
</g>
	<g stroke="rgb(0,100,0)" stroke-width="1">
	<line x1="688.8" y1="87.75" x2="694.8" y2="87.75"/>
</g>
	<g stroke="rgb(255,140,0)" stroke-width="1">
	<line x1="688.8" y1="100.3" x2="694.8" y2="100.3"/>
</g>
</g>
	<g id="legendText">
	<text x="703.8" y="62.75" font-size="10" font-family="Lucida Sans Unicode" font-weight="normal" textLength="18">n=1
	</text>
	<text x="703.8" y="75.25" font-size="10" font-family="Lucida Sans Unicode" font-weight="normal" textLength="18">n=2
	</text>
	<text x="703.8" y="87.75" font-size="10" font-family="Lucida Sans Unicode" font-weight="normal" textLength="18">n=5
	</text>
	<text x="703.8" y="100.3" font-size="10" font-family="Lucida Sans Unicode" font-weight="normal" textLength="24">n=10
	</text>
</g>
	<g id="title">
	<text x="375" y="30" text-anchor="middle" font-size="20" font-family="Lucida Sans Unicode" font-weight="normal">Kolmogorov-Smirnov Distribution CDF
	</text>
</g>
	<g id="plotXValues">
</g>
	<g id="plotYValues">
</g>
</svg>
