<?xml version="1.0" encoding="UTF-8" standalone="no"?>
<svg width="750" height ="400" version="1.1"
xmlns:svg ="http://www.w3.org/2000/svg"
xmlns:rdf="http://www.w3.org/1999/02/22-rdf-syntax-ns#"
xmlns:cc="http://web.resource.org/cc/"
xmlns:dc="http://purl.org/dc/elements/1.1/"
xmlns ="http://www.w3.org/2000/svg"
>
<!-- SVG plot written using Boost.Plot program (Creator Jacob Voytko) --> 
<!-- Use, modification and distribution of Boost.Plot subject to the --> 
<!-- Boost Software License, Version 1.0.--> 
<!-- (See accompanying file LICENSE_1_0.txt --> 
<!-- or copy at http://www.boost.org/LICENSE_1_0.txt) --> 

<!-- SVG Plot Copyright John Maddock 2008 --> 
<meta name="copyright" content="John Maddock" />
<meta name="date" content="2008" />
<!-- Use, modification and distribution of this Scalable Vector Graphic file -->
<!-- are subject to the Boost Software License, Version 1.0. -->
<!-- (See accompanying file LICENSE_1_0.txt or copy at http://www.boost.org/LICENSE_1_0.txt) -->

<clipPath id="plot_window">	<rect x="71.1" y="44" width="531.8" height="309"/>
</clipPath>
	<g id="imageBackground" stroke="rgb(119,136,153)" fill="rgb(255,255,255)" stroke-width="2">
	<rect x="0" y="0" width="750" height="400"/>
</g>
	<g id="plotBackground" stroke="rgb(119,136,153)" fill="rgb(255,255,255)" stroke-width="2">
	<rect x="70.1" y="43" width="533.8" height="311"/>
</g>
	<g id="yMinorGrid" stroke="rgb(200,220,255)" stroke-width="0.5">
</g>
	<g id="yMajorGrid" stroke="rgb(200,220,255)" stroke-width="1">
</g>
	<g id="xMinorGrid" stroke="rgb(200,220,255)" stroke-width="0.5">
</g>
	<g id="xMajorGrid" stroke="rgb(200,220,255)" stroke-width="1">
</g>
	<g id="yAxis" stroke="rgb(0,0,0)" stroke-width="1">
	<line x1="337.2" y1="43" x2="337.2" y2="359"/>
	<line x1="70.1" y1="43" x2="70.1" y2="354"/>
</g>
	<g id="xAxis" stroke="rgb(0,0,0)" stroke-width="1">
	<line x1="65.1" y1="354" x2="603.9" y2="354"/>
	<line x1="65.1" y1="354" x2="603.9" y2="354"/>
</g>
	<g id="yMinorTicks" stroke="rgb(0,0,0)" stroke-width="1">
	<path d="M68.1,348.3 L70.1,348.3 
M68.1,342.7 L70.1,342.7 
M68.1,337 L70.1,337 
M68.1,331.4 L70.1,331.4 
M68.1,320.1 L70.1,320.1 
M68.1,314.4 L70.1,314.4 
M68.1,308.8 L70.1,308.8 
M68.1,303.1 L70.1,303.1 
M68.1,291.8 L70.1,291.8 
M68.1,286.1 L70.1,286.1 
M68.1,280.5 L70.1,280.5 
M68.1,274.8 L70.1,274.8 
M68.1,263.5 L70.1,263.5 
M68.1,257.9 L70.1,257.9 
M68.1,252.2 L70.1,252.2 
M68.1,246.6 L70.1,246.6 
M68.1,235.3 L70.1,235.3 
M68.1,229.6 L70.1,229.6 
M68.1,223.9 L70.1,223.9 
M68.1,218.3 L70.1,218.3 
M68.1,207 L70.1,207 
M68.1,201.3 L70.1,201.3 
M68.1,195.7 L70.1,195.7 
M68.1,190 L70.1,190 
M68.1,178.7 L70.1,178.7 
M68.1,173.1 L70.1,173.1 
M68.1,167.4 L70.1,167.4 
M68.1,161.7 L70.1,161.7 
M68.1,150.4 L70.1,150.4 
M68.1,144.8 L70.1,144.8 
M68.1,139.1 L70.1,139.1 
M68.1,133.5 L70.1,133.5 
M68.1,122.2 L70.1,122.2 
M68.1,116.5 L70.1,116.5 
M68.1,110.9 L70.1,110.9 
M68.1,105.2 L70.1,105.2 
M68.1,93.89 L70.1,93.89 
M68.1,88.24 L70.1,88.24 
M68.1,82.58 L70.1,82.58 
M68.1,76.93 L70.1,76.93 
M68.1,65.62 L70.1,65.62 
M68.1,59.96 L70.1,59.96 
M68.1,54.31 L70.1,54.31 
M68.1,48.65 L70.1,48.65 
M68.1,354 L70.1,354 
" fill="none"/>
</g>
	<g id="xMinorTicks" stroke="rgb(0,0,0)" stroke-width="1">
	<path d="M381.7,354 L381.7,356 
M426.3,354 L426.3,356 
M470.9,354 L470.9,356 
M515.5,354 L515.5,356 
M292.6,354 L292.6,356 
M248,354 L248,356 
M203.4,354 L203.4,356 
M158.9,354 L158.9,356 
" fill="none"/>
</g>
	<g id="yMajorTicks" stroke="rgb(0,0,0)" stroke-width="2">
	<path d="M65.1,354 L70.1,354 
M65.1,325.7 L70.1,325.7 
M65.1,297.5 L70.1,297.5 
M65.1,269.2 L70.1,269.2 
M65.1,240.9 L70.1,240.9 
M65.1,212.6 L70.1,212.6 
M65.1,184.4 L70.1,184.4 
M65.1,156.1 L70.1,156.1 
M65.1,127.8 L70.1,127.8 
M65.1,99.55 L70.1,99.55 
M65.1,71.27 L70.1,71.27 
M65.1,43 L70.1,43 
M65.1,354 L70.1,354 
" fill="none"/>
</g>
	<g id="xMajorTicks" stroke="rgb(0,0,0)" stroke-width="2">
	<path d="M337.2,354 L337.2,359 
M560,354 L560,359 
M337.2,354 L337.2,359 
M114.3,354 L114.3,359 
" fill="none"/>
</g>
	<g id="xTicksValues" font-size="12" font-family="Lucida Sans Unicode" text-anchor="middle">
	<text x="337.2" y="374.6">0
	</text>
	<text x="560" y="374.6">5
	</text>
	<text x="337.2" y="374.6">0
	</text>
	<text x="114.3" y="374.6">-5
	</text>
</g>
	<g id="yTicksValues" font-size="12" font-family="Lucida Sans Unicode" text-anchor="end">
	<text x="59.1" y="356.4">0
	</text>
	<text x="59.1" y="328.1">0.1
	</text>
	<text x="59.1" y="299.9">0.2
	</text>
	<text x="59.1" y="271.6">0.3
	</text>
	<text x="59.1" y="243.3">0.4
	</text>
	<text x="59.1" y="215">0.5
	</text>
	<text x="59.1" y="186.8">0.6
	</text>
	<text x="59.1" y="158.5">0.7
	</text>
	<text x="59.1" y="130.2">0.8
	</text>
	<text x="59.1" y="101.9">0.9
	</text>
	<text x="59.1" y="73.67">1
	</text>
	<text x="59.1" y="45.4">1.1
	</text>
	<text x="59.1" y="356.4">0
	</text>
</g>
	<g id="yLabel">
	<text x="32.4" y="198.5" text-anchor="middle" transform="rotate(-90 32.4 198.5)" font-size="14" font-family="Lucida Sans Unicode">Probability
	</text>
</g>
	<g id="xLabel">
	<text x="337" y="387.1" text-anchor="middle" font-size="12" font-family="Lucida Sans Unicode">Random Variable
	</text>
</g>
	<g id="plotLines" stroke-width="2">
	<g clip-path="url(#plot_window)" stroke="rgb(0,0,139)" stroke-width="1">
	<path d="M70.1,353.6 L70.1,353.6 
L72.77,353.6 
L75.44,353.6 
L78.11,353.6 
L80.78,353.6 
L83.44,353.5 
L86.11,353.5 
L88.78,353.5 
L91.45,353.4 
L94.12,353.4 
L96.79,353.4 
L99.46,353.3 
L102.1,353.3 
L104.8,353.2 
L107.5,353.2 
L110.1,353.1 
L112.8,353.1 
L115.5,353 
L118.1,353 
L120.8,352.9 
L123.5,352.8 
L126.1,352.8 
L128.8,352.7 
L131.5,352.6 
L134.2,352.5 
L136.8,352.4 
L139.5,352.3 
L142.2,352.2 
L144.8,352.1 
L147.5,352 
L150.2,351.9 
L152.8,351.7 
L155.5,351.6 
L158.2,351.5 
L160.8,351.3 
L163.5,351.1 
L166.2,350.9 
L168.9,350.8 
L171.5,350.6 
L174.2,350.3 
L176.9,350.1 
L179.5,349.9 
L182.2,349.6 
L184.9,349.4 
L187.5,349.1 
L190.2,348.8 
L192.9,348.4 
L195.5,348.1 
L198.2,347.7 
L200.9,347.4 
L203.5,346.9 
L206.2,346.5 
L208.9,346 
L211.6,345.6 
L214.2,345 
L216.9,344.5 
L219.6,343.9 
L222.2,343.3 
L224.9,342.6 
L227.6,341.9 
L230.2,341.2 
L232.9,340.4 
L235.6,339.5 
L238.2,338.6 
L240.9,337.7 
L243.6,336.7 
L246.3,335.6 
L248.9,334.5 
L251.6,333.3 
L254.3,332 
L256.9,330.6 
L259.6,329.2 
L262.3,327.7 
L264.9,326 
L267.6,324.3 
L270.3,322.5 
L272.9,320.5 
L275.6,318.5 
L278.3,316.3 
L281,313.9 
L283.6,311.5 
L286.3,308.9 
L289,306.1 
L291.6,303.1 
L294.3,300 
L297,296.6 
L299.6,293.1 
L302.3,289.3 
L305,285.3 
L307.6,281.1 
L310.3,276.6 
L313,271.8 
L315.6,266.8 
L318.3,261.4 
L321,255.7 
L323.7,249.6 
L326.3,243.2 
L329,236.3 
L331.7,229.1 
L334.3,221.3 
L337,213.2 
L339.7,220.4 
L342.3,228.1 
L345,235.4 
L347.7,242.3 
L350.3,248.8 
L353,254.9 
L355.7,260.7 
L358.4,266.1 
L361,271.2 
L363.7,276 
L366.4,280.6 
L369,284.8 
L371.7,288.9 
L374.4,292.6 
L377,296.2 
L379.7,299.6 
L382.4,302.7 
L385,305.7 
L387.7,308.5 
L390.4,311.2 
L393,313.7 
L395.7,316 
L398.4,318.2 
L401.1,320.3 
L403.7,322.2 
L406.4,324.1 
L409.1,325.8 
L411.7,327.5 
L414.4,329 
L417.1,330.5 
L419.7,331.8 
L422.4,333.1 
L425.1,334.3 
L427.7,335.5 
L430.4,336.6 
L433.1,337.6 
L435.8,338.5 
L438.4,339.4 
L441.1,340.3 
L443.8,341.1 
L446.4,341.8 
L449.1,342.5 
L451.8,343.2 
L454.4,343.8 
L457.1,344.4 
L459.8,345 
L462.4,345.5 
L465.1,346 
L467.8,346.5 
L470.4,346.9 
L473.1,347.3 
L475.8,347.7 
L478.5,348.1 
L481.1,348.4 
L483.8,348.7 
L486.5,349 
L489.1,349.3 
L491.8,349.6 
L494.5,349.9 
L497.1,350.1 
L499.8,350.3 
L502.5,350.5 
L505.1,350.7 
L507.8,350.9 
L510.5,351.1 
L513.2,351.3 
L515.8,351.4 
L518.5,351.6 
L521.2,351.7 
L523.8,351.9 
L526.5,352 
L529.2,352.1 
L531.8,352.2 
L534.5,352.3 
L537.2,352.4 
L539.8,352.5 
L542.5,352.6 
L545.2,352.7 
L547.9,352.7 
L550.5,352.8 
L553.2,352.9 
L555.9,353 
L558.5,353 
L561.2,353.1 
L563.9,353.1 
L566.5,353.2 
L569.2,353.2 
L571.9,353.3 
L574.5,353.3 
L577.2,353.4 
L579.9,353.4 
L582.5,353.4 
L585.2,353.5 
L587.9,353.5 
L590.6,353.5 
L593.2,353.5 
L595.9,353.6 
L598.6,353.6 
L601.2,353.6 
L603.9,353.6 
" fill="none"/>
</g>
	<g clip-path="url(#plot_window)" stroke="rgb(139,0,0)" stroke-width="1">
	<path d="M70.1,354 L70.1,354 
L72.77,354 
L75.44,354 
L78.11,354 
L80.78,354 
L83.44,354 
L86.11,354 
L88.78,354 
L91.45,354 
L94.12,354 
L96.79,354 
L99.46,354 
L102.1,354 
L104.8,354 
L107.5,354 
L110.1,354 
L112.8,354 
L115.5,354 
L118.1,354 
L120.8,354 
L123.5,354 
L126.1,354 
L128.8,354 
L131.5,354 
L134.2,354 
L136.8,354 
L139.5,354 
L142.2,354 
L144.8,353.9 
L147.5,353.9 
L150.2,353.9 
L152.8,353.9 
L155.5,353.9 
L158.2,353.9 
L160.8,353.9 
L163.5,353.9 
L166.2,353.9 
L168.9,353.9 
L171.5,353.8 
L174.2,353.8 
L176.9,353.8 
L179.5,353.8 
L182.2,353.7 
L184.9,353.7 
L187.5,353.7 
L190.2,353.6 
L192.9,353.6 
L195.5,353.5 
L198.2,353.4 
L200.9,353.4 
L203.5,353.3 
L206.2,353.2 
L208.9,353.1 
L211.6,353 
L214.2,352.9 
L216.9,352.7 
L219.6,352.6 
L222.2,352.4 
L224.9,352.2 
L227.6,351.9 
L230.2,351.7 
L232.9,351.4 
L235.6,351 
L238.2,350.7 
L240.9,350.2 
L243.6,349.8 
L246.3,349.2 
L248.9,348.6 
L251.6,347.9 
L254.3,347.1 
L256.9,346.3 
L259.6,345.3 
L262.3,344.2 
L264.9,342.9 
L267.6,341.5 
L270.3,339.9 
L272.9,338.2 
L275.6,336.1 
L278.3,333.9 
L281,331.3 
L283.6,328.4 
L286.3,325.2 
L289,321.5 
L291.6,317.4 
L294.3,312.7 
L297,307.4 
L299.6,301.5 
L302.3,294.8 
L305,287.3 
L307.6,278.8 
L310.3,269.3 
L313,258.5 
L315.6,246.3 
L318.3,232.6 
L321,217.2 
L323.7,199.8 
L326.3,180.2 
L329,158.1 
L331.7,133.1 
L334.3,105 
L337,73.35 
L339.7,101.3 
L342.3,129.8 
L345,155.1 
L347.7,177.6 
L350.3,197.5 
L353,215.2 
L355.7,230.8 
L358.4,244.7 
L361,257.1 
L363.7,268 
L366.4,277.7 
L369,286.3 
L371.7,294 
L374.4,300.7 
L377,306.7 
L379.7,312.1 
L382.4,316.8 
L385,321 
L387.7,324.7 
L390.4,328 
L393,331 
L395.7,333.6 
L398.4,335.9 
L401.1,337.9 
L403.7,339.7 
L406.4,341.3 
L409.1,342.8 
L411.7,344 
L414.4,345.2 
L417.1,346.2 
L419.7,347 
L422.4,347.8 
L425.1,348.5 
L427.7,349.1 
L430.4,349.7 
L433.1,350.2 
L435.8,350.6 
L438.4,351 
L441.1,351.3 
L443.8,351.6 
L446.4,351.9 
L449.1,352.1 
L451.8,352.3 
L454.4,352.5 
L457.1,352.7 
L459.8,352.8 
L462.4,353 
L465.1,353.1 
L467.8,353.2 
L470.4,353.3 
L473.1,353.4 
L475.8,353.4 
L478.5,353.5 
L481.1,353.6 
L483.8,353.6 
L486.5,353.7 
L489.1,353.7 
L491.8,353.7 
L494.5,353.8 
L497.1,353.8 
L499.8,353.8 
L502.5,353.8 
L505.1,353.8 
L507.8,353.9 
L510.5,353.9 
L513.2,353.9 
L515.8,353.9 
L518.5,353.9 
L521.2,353.9 
L523.8,353.9 
L526.5,353.9 
L529.2,353.9 
L531.8,354 
L534.5,354 
L537.2,354 
L539.8,354 
L542.5,354 
L545.2,354 
L547.9,354 
L550.5,354 
L553.2,354 
L555.9,354 
L558.5,354 
L561.2,354 
L563.9,354 
L566.5,354 
L569.2,354 
L571.9,354 
L574.5,354 
L577.2,354 
L579.9,354 
L582.5,354 
L585.2,354 
L587.9,354 
L590.6,354 
L593.2,354 
L595.9,354 
L598.6,354 
L601.2,354 
L603.9,354 
" fill="none"/>
</g>
	<g clip-path="url(#plot_window)" stroke="rgb(0,100,0)" stroke-width="1">
	<path d="M70.1,350.5 L70.1,350.5 
L72.77,350.4 
L75.44,350.2 
L78.11,350.1 
L80.78,350 
L83.44,349.9 
L86.11,349.8 
L88.78,349.6 
L91.45,349.5 
L94.12,349.4 
L96.79,349.2 
L99.46,349.1 
L102.1,348.9 
L104.8,348.8 
L107.5,348.6 
L110.1,348.5 
L112.8,348.3 
L115.5,348.1 
L118.1,347.9 
L120.8,347.8 
L123.5,347.6 
L126.1,347.4 
L128.8,347.2 
L131.5,347 
L134.2,346.8 
L136.8,346.5 
L139.5,346.3 
L142.2,346.1 
L144.8,345.8 
L147.5,345.6 
L150.2,345.3 
L152.8,345.1 
L155.5,344.8 
L158.2,344.5 
L160.8,344.2 
L163.5,343.9 
L166.2,343.6 
L168.9,343.3 
L171.5,343 
L174.2,342.6 
L176.9,342.3 
L179.5,341.9 
L182.2,341.6 
L184.9,341.2 
L187.5,340.8 
L190.2,340.4 
L192.9,340 
L195.5,339.6 
L198.2,339.1 
L200.9,338.7 
L203.5,338.2 
L206.2,337.7 
L208.9,337.2 
L211.6,336.7 
L214.2,336.2 
L216.9,335.7 
L219.6,335.1 
L222.2,334.5 
L224.9,333.9 
L227.6,333.3 
L230.2,332.7 
L232.9,332.1 
L235.6,331.4 
L238.2,330.7 
L240.9,330 
L243.6,329.3 
L246.3,328.5 
L248.9,327.7 
L251.6,326.9 
L254.3,326.1 
L256.9,325.3 
L259.6,324.4 
L262.3,323.5 
L264.9,322.6 
L267.6,321.6 
L270.3,320.6 
L272.9,319.6 
L275.6,318.6 
L278.3,317.5 
L281,316.4 
L283.6,315.2 
L286.3,314.1 
L289,312.8 
L291.6,311.6 
L294.3,310.3 
L297,309 
L299.6,307.6 
L302.3,306.2 
L305,304.7 
L307.6,303.2 
L310.3,301.7 
L313,300.1 
L315.6,298.5 
L318.3,296.8 
L321,295 
L323.7,293.3 
L326.3,291.4 
L329,289.5 
L331.7,287.5 
L334.3,285.5 
L337,283.4 
L339.7,285.3 
L342.3,287.3 
L345,289.3 
L347.7,291.2 
L350.3,293 
L353,294.8 
L355.7,296.6 
L358.4,298.3 
L361,299.9 
L363.7,301.5 
L366.4,303.1 
L369,304.6 
L371.7,306 
L374.4,307.4 
L377,308.8 
L379.7,310.1 
L382.4,311.4 
L385,312.7 
L387.7,313.9 
L390.4,315.1 
L393,316.2 
L395.7,317.4 
L398.4,318.4 
L401.1,319.5 
L403.7,320.5 
L406.4,321.5 
L409.1,322.4 
L411.7,323.4 
L414.4,324.3 
L417.1,325.2 
L419.7,326 
L422.4,326.8 
L425.1,327.6 
L427.7,328.4 
L430.4,329.2 
L433.1,329.9 
L435.8,330.6 
L438.4,331.3 
L441.1,332 
L443.8,332.6 
L446.4,333.3 
L449.1,333.9 
L451.8,334.5 
L454.4,335 
L457.1,335.6 
L459.8,336.1 
L462.4,336.7 
L465.1,337.2 
L467.8,337.7 
L470.4,338.2 
L473.1,338.6 
L475.8,339.1 
L478.5,339.5 
L481.1,339.9 
L483.8,340.4 
L486.5,340.8 
L489.1,341.1 
L491.8,341.5 
L494.5,341.9 
L497.1,342.3 
L499.8,342.6 
L502.5,342.9 
L505.1,343.3 
L507.8,343.6 
L510.5,343.9 
L513.2,344.2 
L515.8,344.5 
L518.5,344.8 
L521.2,345 
L523.8,345.3 
L526.5,345.5 
L529.2,345.8 
L531.8,346 
L534.5,346.3 
L537.2,346.5 
L539.8,346.7 
L542.5,346.9 
L545.2,347.1 
L547.9,347.3 
L550.5,347.5 
L553.2,347.7 
L555.9,347.9 
L558.5,348.1 
L561.2,348.3 
L563.9,348.4 
L566.5,348.6 
L569.2,348.8 
L571.9,348.9 
L574.5,349.1 
L577.2,349.2 
L579.9,349.4 
L582.5,349.5 
L585.2,349.6 
L587.9,349.8 
L590.6,349.9 
L593.2,350 
L595.9,350.1 
L598.6,350.2 
L601.2,350.3 
L603.9,350.5 
" fill="none"/>
</g>
	<g clip-path="url(#plot_window)" stroke="rgb(255,140,0)" stroke-width="1">
	<path d="M70.1,353 L70.1,353 
L72.77,353 
L75.44,352.9 
L78.11,352.9 
L80.78,352.8 
L83.44,352.7 
L86.11,352.6 
L88.78,352.5 
L91.45,352.4 
L94.12,352.4 
L96.79,352.3 
L99.46,352.1 
L102.1,352 
L104.8,351.9 
L107.5,351.8 
L110.1,351.6 
L112.8,351.5 
L115.5,351.3 
L118.1,351.2 
L120.8,351 
L123.5,350.8 
L126.1,350.6 
L128.8,350.4 
L131.5,350.2 
L134.2,350 
L136.8,349.7 
L139.5,349.4 
L142.2,349.2 
L144.8,348.9 
L147.5,348.5 
L150.2,348.2 
L152.8,347.9 
L155.5,347.5 
L158.2,347.1 
L160.8,346.6 
L163.5,346.2 
L166.2,345.7 
L168.9,345.2 
L171.5,344.7 
L174.2,344.1 
L176.9,343.5 
L179.5,342.8 
L182.2,342.1 
L184.9,341.4 
L187.5,340.6 
L190.2,339.8 
L192.9,338.9 
L195.5,338 
L198.2,337 
L200.9,335.9 
L203.5,334.8 
L206.2,333.6 
L208.9,332.4 
L211.6,331 
L214.2,329.6 
L216.9,328.1 
L219.6,326.5 
L222.2,324.8 
L224.9,323 
L227.6,321.1 
L230.2,319.1 
L232.9,316.9 
L235.6,314.7 
L238.2,312.2 
L240.9,309.7 
L243.6,306.9 
L246.3,304 
L248.9,300.9 
L251.6,297.7 
L254.3,294.2 
L256.9,290.5 
L259.6,286.6 
L262.3,282.4 
L264.9,278 
L267.6,273.3 
L270.3,268.3 
L272.9,263 
L275.6,257.4 
L278.3,251.5 
L281,245.1 
L283.6,238.4 
L286.3,231.3 
L289,223.7 
L291.6,215.7 
L294.3,217.9 
L297,225.9 
L299.6,233.3 
L302.3,240.3 
L305,246.9 
L307.6,253.1 
L310.3,259 
L313,264.5 
L315.6,269.7 
L318.3,274.6 
L321,279.2 
L323.7,283.6 
L326.3,287.7 
L329,291.5 
L331.7,295.2 
L334.3,298.6 
L337,301.8 
L339.7,304.8 
L342.3,307.7 
L345,310.4 
L347.7,312.9 
L350.3,315.3 
L353,317.6 
L355.7,319.7 
L358.4,321.7 
L361,323.5 
L363.7,325.3 
L366.4,327 
L369,328.6 
L371.7,330 
L374.4,331.4 
L377,332.7 
L379.7,334 
L382.4,335.1 
L385,336.2 
L387.7,337.3 
L390.4,338.2 
L393,339.2 
L395.7,340 
L398.4,340.8 
L401.1,341.6 
L403.7,342.3 
L406.4,343 
L409.1,343.6 
L411.7,344.2 
L414.4,344.8 
L417.1,345.3 
L419.7,345.8 
L422.4,346.3 
L425.1,346.8 
L427.7,347.2 
L430.4,347.6 
L433.1,348 
L435.8,348.3 
L438.4,348.6 
L441.1,348.9 
L443.8,349.2 
L446.4,349.5 
L449.1,349.8 
L451.8,350 
L454.4,350.3 
L457.1,350.5 
L459.8,350.7 
L462.4,350.9 
L465.1,351.1 
L467.8,351.2 
L470.4,351.4 
L473.1,351.5 
L475.8,351.7 
L478.5,351.8 
L481.1,351.9 
L483.8,352.1 
L486.5,352.2 
L489.1,352.3 
L491.8,352.4 
L494.5,352.5 
L497.1,352.6 
L499.8,352.6 
L502.5,352.7 
L505.1,352.8 
L507.8,352.9 
L510.5,352.9 
L513.2,353 
L515.8,353.1 
L518.5,353.1 
L521.2,353.2 
L523.8,353.2 
L526.5,353.3 
L529.2,353.3 
L531.8,353.3 
L534.5,353.4 
L537.2,353.4 
L539.8,353.4 
L542.5,353.5 
L545.2,353.5 
L547.9,353.5 
L550.5,353.6 
L553.2,353.6 
L555.9,353.6 
L558.5,353.6 
L561.2,353.7 
L563.9,353.7 
L566.5,353.7 
L569.2,353.7 
L571.9,353.7 
L574.5,353.7 
L577.2,353.8 
L579.9,353.8 
L582.5,353.8 
L585.2,353.8 
L587.9,353.8 
L590.6,353.8 
L593.2,353.8 
L595.9,353.8 
L598.6,353.9 
L601.2,353.9 
L603.9,353.9 
" fill="none"/>
</g>
	<g clip-path="url(#plot_window)" stroke="rgb(127,255,0)" stroke-width="1">
	<path d="M70.1,353.9 L70.1,353.9 
L72.77,353.9 
L75.44,353.9 
L78.11,353.8 
L80.78,353.8 
L83.44,353.8 
L86.11,353.8 
L88.78,353.8 
L91.45,353.8 
L94.12,353.8 
L96.79,353.8 
L99.46,353.7 
L102.1,353.7 
L104.8,353.7 
L107.5,353.7 
L110.1,353.7 
L112.8,353.7 
L115.5,353.6 
L118.1,353.6 
L120.8,353.6 
L123.5,353.6 
L126.1,353.5 
L128.8,353.5 
L131.5,353.5 
L134.2,353.5 
L136.8,353.4 
L139.5,353.4 
L142.2,353.3 
L144.8,353.3 
L147.5,353.3 
L150.2,353.2 
L152.8,353.2 
L155.5,353.1 
L158.2,353.1 
L160.8,353 
L163.5,352.9 
L166.2,352.9 
L168.9,352.8 
L171.5,352.7 
L174.2,352.7 
L176.9,352.6 
L179.5,352.5 
L182.2,352.4 
L184.9,352.3 
L187.5,352.2 
L190.2,352.1 
L192.9,352 
L195.5,351.8 
L198.2,351.7 
L200.9,351.6 
L203.5,351.4 
L206.2,351.2 
L208.9,351.1 
L211.6,350.9 
L214.2,350.7 
L216.9,350.5 
L219.6,350.3 
L222.2,350.1 
L224.9,349.8 
L227.6,349.6 
L230.2,349.3 
L232.9,349 
L235.6,348.7 
L238.2,348.3 
L240.9,348 
L243.6,347.6 
L246.3,347.2 
L248.9,346.8 
L251.6,346.4 
L254.3,345.9 
L256.9,345.4 
L259.6,344.9 
L262.3,344.3 
L264.9,343.7 
L267.6,343.1 
L270.3,342.4 
L272.9,341.7 
L275.6,340.9 
L278.3,340.1 
L281,339.3 
L283.6,338.4 
L286.3,337.4 
L289,336.4 
L291.6,335.3 
L294.3,334.1 
L297,332.9 
L299.6,331.6 
L302.3,330.2 
L305,328.7 
L307.6,327.2 
L310.3,325.5 
L313,323.8 
L315.6,321.9 
L318.3,319.9 
L321,317.8 
L323.7,315.6 
L326.3,313.2 
L329,310.7 
L331.7,308 
L334.3,305.2 
L337,302.2 
L339.7,299 
L342.3,295.6 
L345,292 
L347.7,288.2 
L350.3,284.1 
L353,279.8 
L355.7,275.2 
L358.4,270.3 
L361,265.2 
L363.7,259.7 
L366.4,253.9 
L369,247.7 
L371.7,241.1 
L374.4,234.2 
L377,226.8 
L379.7,218.9 
L382.4,214.6 
L385,222.7 
L387.7,230.4 
L390.4,237.6 
L393,244.3 
L395.7,250.7 
L398.4,256.7 
L401.1,262.4 
L403.7,267.7 
L406.4,272.7 
L409.1,277.4 
L411.7,281.9 
L414.4,286.1 
L417.1,290 
L419.7,293.7 
L422.4,297.2 
L425.1,300.5 
L427.7,303.6 
L430.4,306.6 
L433.1,309.3 
L435.8,311.9 
L438.4,314.4 
L441.1,316.7 
L443.8,318.8 
L446.4,320.9 
L449.1,322.8 
L451.8,324.6 
L454.4,326.3 
L457.1,327.9 
L459.8,329.5 
L462.4,330.9 
L465.1,332.2 
L467.8,333.5 
L470.4,334.7 
L473.1,335.8 
L475.8,336.9 
L478.5,337.9 
L481.1,338.8 
L483.8,339.7 
L486.5,340.5 
L489.1,341.3 
L491.8,342 
L494.5,342.7 
L497.1,343.4 
L499.8,344 
L502.5,344.6 
L505.1,345.1 
L507.8,345.6 
L510.5,346.1 
L513.2,346.6 
L515.8,347 
L518.5,347.4 
L521.2,347.8 
L523.8,348.2 
L526.5,348.5 
L529.2,348.8 
L531.8,349.1 
L534.5,349.4 
L537.2,349.7 
L539.8,349.9 
L542.5,350.2 
L545.2,350.4 
L547.9,350.6 
L550.5,350.8 
L553.2,351 
L555.9,351.2 
L558.5,351.3 
L561.2,351.5 
L563.9,351.6 
L566.5,351.8 
L569.2,351.9 
L571.9,352 
L574.5,352.1 
L577.2,352.2 
L579.9,352.3 
L582.5,352.4 
L585.2,352.5 
L587.9,352.6 
L590.6,352.7 
L593.2,352.8 
L595.9,352.8 
L598.6,352.9 
L601.2,353 
L603.9,353 
" fill="none"/>
</g>
</g>
	<g id="plotPoints" clip-path="url(#plot_window)">
</g>
	<g id="legendBackground" stroke="rgb(119,136,153)" fill="rgb(255,255,255)" stroke-width="1">
	<rect x="609.9" y="43" width="126.1" height="89.5"/>
</g>
	<g id="legendPoints">
</g>
	<g id="legendLines">
	<g stroke="rgb(0,0,139)" stroke-width="1">
	<line x1="625.2" y1="62.75" x2="631.2" y2="62.75"/>
</g>
	<g stroke="rgb(139,0,0)" stroke-width="1">
	<line x1="625.2" y1="75.25" x2="631.2" y2="75.25"/>
</g>
	<g stroke="rgb(0,100,0)" stroke-width="1">
	<line x1="625.2" y1="87.75" x2="631.2" y2="87.75"/>
</g>
	<g stroke="rgb(255,140,0)" stroke-width="1">
	<line x1="625.2" y1="100.3" x2="631.2" y2="100.3"/>
</g>
	<g stroke="rgb(127,255,0)" stroke-width="1">
	<line x1="625.2" y1="112.8" x2="631.2" y2="112.8"/>
</g>
</g>
	<g id="legendText">
	<text x="640.2" y="62.75" font-size="10" font-family="Lucida Sans Unicode" font-weight="normal" textLength="75.6">&#x3BC; = 0, &#x3C3; = 1
	</text>
	<text x="640.2" y="75.25" font-size="10" font-family="Lucida Sans Unicode" font-weight="normal" textLength="87.6">&#x3BC; = 0, &#x3C3; = 0.5
	</text>
	<text x="640.2" y="87.75" font-size="10" font-family="Lucida Sans Unicode" font-weight="normal" textLength="75.6">&#x3BC; = 0, &#x3C3; = 2
	</text>
	<text x="640.2" y="100.3" font-size="10" font-family="Lucida Sans Unicode" font-weight="normal" textLength="81.6">&#x3BC; = -1, &#x3C3; = 1
	</text>
	<text x="640.2" y="112.8" font-size="10" font-family="Lucida Sans Unicode" font-weight="normal" textLength="75.6">&#x3BC; = 1, &#x3C3; = 1
	</text>
</g>
	<g id="title">
	<text x="375" y="30" text-anchor="middle" font-size="20" font-family="Lucida Sans Unicode" font-weight="normal">Laplace Distribution PDF
	</text>
</g>
	<g id="plotXValues">
</g>
	<g id="plotYValues">
</g>
</svg>
