<?xml version="1.0" encoding="UTF-8" standalone="no"?>
<svg width="750" height ="400" version="1.1"
xmlns:svg ="http://www.w3.org/2000/svg"
xmlns:rdf="http://www.w3.org/1999/02/22-rdf-syntax-ns#"
xmlns:cc="http://web.resource.org/cc/"
xmlns:dc="http://purl.org/dc/elements/1.1/"
xmlns ="http://www.w3.org/2000/svg"
>
<!-- SVG plot written using Boost.Plot program (Creator Jacob Voytko) --> 
<!-- Use, modification and distribution of Boost.Plot subject to the --> 
<!-- Boost Software License, Version 1.0.--> 
<!-- (See accompanying file LICENSE_1_0.txt --> 
<!-- or copy at http://www.boost.org/LICENSE_1_0.txt) --> 

<!-- SVG Plot Copyright John Maddock 2008 --> 
<meta name="copyright" content="John Maddock" />
<meta name="date" content="2008" />
<!-- Use, modification and distribution of this Scalable Vector Graphic file -->
<!-- are subject to the Boost Software License, Version 1.0. -->
<!-- (See accompanying file LICENSE_1_0.txt or copy at http://www.boost.org/LICENSE_1_0.txt) -->

<clipPath id="plot_window">	<rect x="71.1" y="44" width="565.4" height="309"/>
</clipPath>
	<g id="imageBackground" stroke="rgb(119,136,153)" fill="rgb(255,255,255)" stroke-width="2">
	<rect x="0" y="0" width="750" height="400"/>
</g>
	<g id="plotBackground" stroke="rgb(119,136,153)" fill="rgb(255,255,255)" stroke-width="2">
	<rect x="70.1" y="43" width="567.4" height="311"/>
</g>
	<g id="yMinorGrid" stroke="rgb(200,220,255)" stroke-width="0.5">
</g>
	<g id="yMajorGrid" stroke="rgb(200,220,255)" stroke-width="1">
</g>
	<g id="xMinorGrid" stroke="rgb(200,220,255)" stroke-width="0.5">
</g>
	<g id="xMajorGrid" stroke="rgb(200,220,255)" stroke-width="1">
</g>
	<g id="yAxis" stroke="rgb(0,0,0)" stroke-width="1">
	<line x1="70.1" y1="43" x2="70.1" y2="359"/>
	<line x1="70.1" y1="43" x2="70.1" y2="354"/>
</g>
	<g id="xAxis" stroke="rgb(0,0,0)" stroke-width="1">
	<line x1="65.1" y1="354" x2="637.5" y2="354"/>
	<line x1="65.1" y1="354" x2="637.5" y2="354"/>
</g>
	<g id="yMinorTicks" stroke="rgb(0,0,0)" stroke-width="1">
	<path d="M68.1,332.4 L70.1,332.4 
M68.1,310.7 L70.1,310.7 
M68.1,289.1 L70.1,289.1 
M68.1,267.4 L70.1,267.4 
M68.1,224.1 L70.1,224.1 
M68.1,202.5 L70.1,202.5 
M68.1,180.8 L70.1,180.8 
M68.1,159.2 L70.1,159.2 
M68.1,115.9 L70.1,115.9 
M68.1,94.23 L70.1,94.23 
M68.1,72.59 L70.1,72.59 
M68.1,50.94 L70.1,50.94 
M68.1,354 L70.1,354 
" fill="none"/>
</g>
	<g id="xMinorTicks" stroke="rgb(0,0,0)" stroke-width="1">
	<path d="M96.79,354 L96.79,356 
M123.5,354 L123.5,356 
M150.2,354 L150.2,356 
M176.9,354 L176.9,356 
M230.2,354 L230.2,356 
M256.9,354 L256.9,356 
M283.6,354 L283.6,356 
M310.3,354 L310.3,356 
M363.7,354 L363.7,356 
M390.4,354 L390.4,356 
M417.1,354 L417.1,356 
M443.8,354 L443.8,356 
M497.1,354 L497.1,356 
M523.8,354 L523.8,356 
M550.5,354 L550.5,356 
M577.2,354 L577.2,356 
M630.6,354 L630.6,356 
" fill="none"/>
</g>
	<g id="yMajorTicks" stroke="rgb(0,0,0)" stroke-width="2">
	<path d="M65.1,354 L70.1,354 
M65.1,245.8 L70.1,245.8 
M65.1,137.5 L70.1,137.5 
M65.1,354 L70.1,354 
" fill="none"/>
</g>
	<g id="xMajorTicks" stroke="rgb(0,0,0)" stroke-width="2">
	<path d="M70.1,354 L70.1,359 
M203.5,354 L203.5,359 
M337,354 L337,359 
M470.4,354 L470.4,359 
M603.9,354 L603.9,359 
M70.1,354 L70.1,359 
" fill="none"/>
</g>
	<g id="xTicksValues" font-size="12" font-family="Lucida Sans Unicode" text-anchor="middle">
	<text x="70.1" y="374.6">0
	</text>
	<text x="203.5" y="374.6">1
	</text>
	<text x="337" y="374.6">2
	</text>
	<text x="470.4" y="374.6">3
	</text>
	<text x="603.9" y="374.6">4
	</text>
	<text x="70.1" y="374.6">0
	</text>
</g>
	<g id="yTicksValues" font-size="12" font-family="Lucida Sans Unicode" text-anchor="end">
	<text x="59.1" y="356.4">0
	</text>
	<text x="59.1" y="248.2">0.5
	</text>
	<text x="59.1" y="139.9">1
	</text>
	<text x="59.1" y="356.4">0
	</text>
</g>
	<g id="yLabel">
	<text x="32.4" y="198.5" text-anchor="middle" transform="rotate(-90 32.4 198.5)" font-size="14" font-family="Lucida Sans Unicode">Probability
	</text>
</g>
	<g id="xLabel">
	<text x="353.8" y="387.1" text-anchor="middle" font-size="12" font-family="Lucida Sans Unicode">Random Variable
	</text>
</g>
	<g id="plotLines" stroke-width="2">
	<g clip-path="url(#plot_window)" stroke="rgb(0,0,139)" stroke-width="1">
	<path d="M70.1,354 L70.1,354 
L72.94,354 
L75.77,354 
L78.61,354 
L81.45,354 
L84.28,353.9 
L87.12,353.7 
L89.96,353.2 
L92.8,352.1 
L95.63,350.2 
L98.47,347.3 
L101.3,343.2 
L104.1,337.8 
L107,331.1 
L109.8,323.2 
L112.7,314.3 
L115.5,304.4 
L118.3,293.8 
L121.2,282.7 
L124,271.3 
L126.8,259.9 
L129.7,248.6 
L132.5,237.6 
L135.4,227.1 
L138.2,217.1 
L141,207.8 
L143.9,199.3 
L146.7,191.5 
L149.5,184.6 
L152.4,178.5 
L155.2,173.3 
L158,168.9 
L160.9,165.3 
L163.7,162.5 
L166.6,160.4 
L169.4,159.1 
L172.2,158.4 
L175.1,158.3 
L177.9,158.8 
L180.7,159.8 
L183.6,161.3 
L186.4,163.2 
L189.3,165.5 
L192.1,168.1 
L194.9,171 
L197.8,174.2 
L200.6,177.6 
L203.4,181.1 
L206.3,184.9 
L209.1,188.7 
L212,192.7 
L214.8,196.8 
L217.6,200.9 
L220.5,205 
L223.3,209.2 
L226.1,213.3 
L229,217.5 
L231.8,221.6 
L234.6,225.7 
L237.5,229.7 
L240.3,233.7 
L243.2,237.6 
L246,241.5 
L248.8,245.3 
L251.7,249 
L254.5,252.6 
L257.3,256.1 
L260.2,259.6 
L263,262.9 
L265.9,266.2 
L268.7,269.4 
L271.5,272.5 
L274.4,275.5 
L277.2,278.4 
L280,281.2 
L282.9,283.9 
L285.7,286.5 
L288.5,289.1 
L291.4,291.6 
L294.2,293.9 
L297.1,296.2 
L299.9,298.4 
L302.7,300.6 
L305.6,302.6 
L308.4,304.6 
L311.2,306.5 
L314.1,308.4 
L316.9,310.2 
L319.8,311.9 
L322.6,313.5 
L325.4,315.1 
L328.3,316.6 
L331.1,318.1 
L333.9,319.5 
L336.8,320.9 
L339.6,322.2 
L342.5,323.4 
L345.3,324.6 
L348.1,325.8 
L351,326.9 
L353.8,328 
L356.6,329 
L359.5,330 
L362.3,330.9 
L365.1,331.8 
L368,332.7 
L370.8,333.5 
L373.7,334.3 
L376.5,335.1 
L379.3,335.8 
L382.2,336.6 
L385,337.2 
L387.8,337.9 
L390.7,338.5 
L393.5,339.1 
L396.4,339.7 
L399.2,340.3 
L402,340.8 
L404.9,341.3 
L407.7,341.8 
L410.5,342.3 
L413.4,342.7 
L416.2,343.2 
L419.1,343.6 
L421.9,344 
L424.7,344.4 
L427.6,344.7 
L430.4,345.1 
L433.2,345.4 
L436.1,345.8 
L438.9,346.1 
L441.7,346.4 
L444.6,346.7 
L447.4,347 
L450.3,347.2 
L453.1,347.5 
L455.9,347.7 
L458.8,348 
L461.6,348.2 
L464.4,348.4 
L467.3,348.6 
L470.1,348.8 
L473,349 
L475.8,349.2 
L478.6,349.4 
L481.5,349.6 
L484.3,349.7 
L487.1,349.9 
L490,350 
L492.8,350.2 
L495.6,350.3 
L498.5,350.5 
L501.3,350.6 
L504.2,350.7 
L507,350.8 
L509.8,350.9 
L512.7,351.1 
L515.5,351.2 
L518.3,351.3 
L521.2,351.4 
L524,351.5 
L526.9,351.6 
L529.7,351.6 
L532.5,351.7 
L535.4,351.8 
L538.2,351.9 
L541,352 
L543.9,352 
L546.7,352.1 
L549.6,352.2 
L552.4,352.2 
L555.2,352.3 
L558.1,352.4 
L560.9,352.4 
L563.7,352.5 
L566.6,352.5 
L569.4,352.6 
L572.2,352.6 
L575.1,352.7 
L577.9,352.7 
L580.8,352.8 
L583.6,352.8 
L586.4,352.9 
L589.3,352.9 
L592.1,352.9 
L594.9,353 
L597.8,353 
L600.6,353 
L603.5,353.1 
L606.3,353.1 
L609.1,353.1 
L612,353.2 
L614.8,353.2 
L617.6,353.2 
L620.5,353.2 
L623.3,353.3 
L626.2,353.3 
L629,353.3 
L631.8,353.3 
L634.7,353.4 
L637.5,353.4 
" fill="none"/>
</g>
	<g clip-path="url(#plot_window)" stroke="rgb(139,0,0)" stroke-width="1">
	<path d="M70.1,354 L70.1,354 
L72.94,351.6 
L75.77,340.1 
L78.61,323.3 
L81.45,305.3 
L84.28,288.1 
L87.12,272.7 
L89.96,259.5 
L92.8,248.3 
L95.63,239 
L98.47,231.5 
L101.3,225.5 
L104.1,220.8 
L107,217.3 
L109.8,214.8 
L112.7,213.1 
L115.5,212.1 
L118.3,211.6 
L121.2,211.7 
L124,212.2 
L126.8,213.1 
L129.7,214.3 
L132.5,215.7 
L135.4,217.3 
L138.2,219 
L141,220.9 
L143.9,222.9 
L146.7,225 
L149.5,227.2 
L152.4,229.4 
L155.2,231.6 
L158,233.9 
L160.9,236.1 
L163.7,238.4 
L166.6,240.7 
L169.4,242.9 
L172.2,245.1 
L175.1,247.3 
L177.9,249.5 
L180.7,251.7 
L183.6,253.8 
L186.4,255.9 
L189.3,257.9 
L192.1,259.9 
L194.9,261.9 
L197.8,263.8 
L200.6,265.7 
L203.4,267.6 
L206.3,269.4 
L209.1,271.2 
L212,272.9 
L214.8,274.6 
L217.6,276.3 
L220.5,277.9 
L223.3,279.5 
L226.1,281 
L229,282.6 
L231.8,284 
L234.6,285.5 
L237.5,286.9 
L240.3,288.3 
L243.2,289.6 
L246,290.9 
L248.8,292.2 
L251.7,293.5 
L254.5,294.7 
L257.3,295.9 
L260.2,297 
L263,298.2 
L265.9,299.3 
L268.7,300.4 
L271.5,301.4 
L274.4,302.5 
L277.2,303.5 
L280,304.5 
L282.9,305.4 
L285.7,306.4 
L288.5,307.3 
L291.4,308.2 
L294.2,309 
L297.1,309.9 
L299.9,310.7 
L302.7,311.5 
L305.6,312.3 
L308.4,313.1 
L311.2,313.9 
L314.1,314.6 
L316.9,315.4 
L319.8,316.1 
L322.6,316.8 
L325.4,317.4 
L328.3,318.1 
L331.1,318.7 
L333.9,319.4 
L336.8,320 
L339.6,320.6 
L342.5,321.2 
L345.3,321.8 
L348.1,322.3 
L351,322.9 
L353.8,323.4 
L356.6,324 
L359.5,324.5 
L362.3,325 
L365.1,325.5 
L368,326 
L370.8,326.5 
L373.7,326.9 
L376.5,327.4 
L379.3,327.8 
L382.2,328.3 
L385,328.7 
L387.8,329.1 
L390.7,329.5 
L393.5,329.9 
L396.4,330.3 
L399.2,330.7 
L402,331.1 
L404.9,331.4 
L407.7,331.8 
L410.5,332.2 
L413.4,332.5 
L416.2,332.9 
L419.1,333.2 
L421.9,333.5 
L424.7,333.8 
L427.6,334.2 
L430.4,334.5 
L433.2,334.8 
L436.1,335.1 
L438.9,335.4 
L441.7,335.6 
L444.6,335.9 
L447.4,336.2 
L450.3,336.5 
L453.1,336.7 
L455.9,337 
L458.8,337.3 
L461.6,337.5 
L464.4,337.8 
L467.3,338 
L470.1,338.2 
L473,338.5 
L475.8,338.7 
L478.6,338.9 
L481.5,339.1 
L484.3,339.4 
L487.1,339.6 
L490,339.8 
L492.8,340 
L495.6,340.2 
L498.5,340.4 
L501.3,340.6 
L504.2,340.8 
L507,340.9 
L509.8,341.1 
L512.7,341.3 
L515.5,341.5 
L518.3,341.7 
L521.2,341.8 
L524,342 
L526.9,342.2 
L529.7,342.3 
L532.5,342.5 
L535.4,342.6 
L538.2,342.8 
L541,343 
L543.9,343.1 
L546.7,343.2 
L549.6,343.4 
L552.4,343.5 
L555.2,343.7 
L558.1,343.8 
L560.9,343.9 
L563.7,344.1 
L566.6,344.2 
L569.4,344.3 
L572.2,344.5 
L575.1,344.6 
L577.9,344.7 
L580.8,344.8 
L583.6,344.9 
L586.4,345.1 
L589.3,345.2 
L592.1,345.3 
L594.9,345.4 
L597.8,345.5 
L600.6,345.6 
L603.5,345.7 
L606.3,345.8 
L609.1,345.9 
L612,346 
L614.8,346.1 
L617.6,346.2 
L620.5,346.3 
L623.3,346.4 
L626.2,346.5 
L629,346.6 
L631.8,346.7 
L634.7,346.8 
L637.5,346.9 
" fill="none"/>
</g>
	<g clip-path="url(#plot_window)" stroke="rgb(0,100,0)" stroke-width="1">
	<path d="M70.1,354 L70.1,354 
L75.77,62.01 
L78.61,91.36 
L81.45,116.4 
L84.28,137.2 
L87.12,154.8 
L89.96,169.7 
L92.8,182.5 
L95.63,193.7 
L98.47,203.5 
L101.3,212.2 
L104.1,220 
L107,226.9 
L109.8,233.3 
L112.7,239 
L115.5,244.2 
L118.3,249 
L121.2,253.5 
L124,257.5 
L126.8,261.3 
L129.7,264.8 
L132.5,268.1 
L135.4,271.2 
L138.2,274 
L141,276.7 
L143.9,279.2 
L146.7,281.6 
L149.5,283.9 
L152.4,286 
L155.2,288 
L158,289.9 
L160.9,291.7 
L163.7,293.4 
L166.6,295 
L169.4,296.6 
L172.2,298.1 
L175.1,299.5 
L177.9,300.9 
L180.7,302.1 
L183.6,303.4 
L186.4,304.6 
L189.3,305.7 
L192.1,306.8 
L194.9,307.9 
L197.8,308.9 
L200.6,309.8 
L203.4,310.8 
L206.3,311.7 
L209.1,312.6 
L212,313.4 
L214.8,314.2 
L217.6,315 
L220.5,315.7 
L223.3,316.5 
L226.1,317.2 
L229,317.9 
L231.8,318.5 
L234.6,319.2 
L237.5,319.8 
L240.3,320.4 
L243.2,321 
L246,321.6 
L248.8,322.1 
L251.7,322.6 
L254.5,323.2 
L257.3,323.7 
L260.2,324.2 
L263,324.6 
L265.9,325.1 
L268.7,325.6 
L271.5,326 
L274.4,326.4 
L277.2,326.8 
L280,327.2 
L282.9,327.6 
L285.7,328 
L288.5,328.4 
L291.4,328.8 
L294.2,329.1 
L297.1,329.5 
L299.9,329.8 
L302.7,330.2 
L305.6,330.5 
L308.4,330.8 
L311.2,331.1 
L314.1,331.4 
L316.9,331.7 
L319.8,332 
L322.6,332.3 
L325.4,332.6 
L328.3,332.9 
L331.1,333.1 
L333.9,333.4 
L336.8,333.6 
L339.6,333.9 
L342.5,334.1 
L345.3,334.4 
L348.1,334.6 
L351,334.9 
L353.8,335.1 
L356.6,335.3 
L359.5,335.5 
L362.3,335.7 
L365.1,335.9 
L368,336.2 
L370.8,336.4 
L373.7,336.6 
L376.5,336.7 
L379.3,336.9 
L382.2,337.1 
L385,337.3 
L387.8,337.5 
L390.7,337.7 
L393.5,337.8 
L396.4,338 
L399.2,338.2 
L402,338.4 
L404.9,338.5 
L407.7,338.7 
L410.5,338.8 
L413.4,339 
L416.2,339.1 
L419.1,339.3 
L421.9,339.4 
L424.7,339.6 
L427.6,339.7 
L430.4,339.9 
L433.2,340 
L436.1,340.1 
L438.9,340.3 
L441.7,340.4 
L444.6,340.5 
L447.4,340.7 
L450.3,340.8 
L453.1,340.9 
L455.9,341 
L458.8,341.1 
L461.6,341.3 
L464.4,341.4 
L467.3,341.5 
L470.1,341.6 
L473,341.7 
L475.8,341.8 
L478.6,341.9 
L481.5,342 
L484.3,342.1 
L487.1,342.3 
L490,342.4 
L492.8,342.5 
L495.6,342.6 
L498.5,342.7 
L501.3,342.7 
L504.2,342.8 
L507,342.9 
L509.8,343 
L512.7,343.1 
L515.5,343.2 
L518.3,343.3 
L521.2,343.4 
L524,343.5 
L526.9,343.6 
L529.7,343.6 
L532.5,343.7 
L535.4,343.8 
L538.2,343.9 
L541,344 
L543.9,344 
L546.7,344.1 
L549.6,344.2 
L552.4,344.3 
L555.2,344.4 
L558.1,344.4 
L560.9,344.5 
L563.7,344.6 
L566.6,344.6 
L569.4,344.7 
L572.2,344.8 
L575.1,344.9 
L577.9,344.9 
L580.8,345 
L583.6,345.1 
L586.4,345.1 
L589.3,345.2 
L592.1,345.3 
L594.9,345.3 
L597.8,345.4 
L600.6,345.4 
L603.5,345.5 
L606.3,345.6 
L609.1,345.6 
L612,345.7 
L614.8,345.7 
L617.6,345.8 
L620.5,345.9 
L623.3,345.9 
L626.2,346 
L629,346 
L631.8,346.1 
L634.7,346.1 
L637.5,346.2 
" fill="none"/>
</g>
</g>
	<g id="plotPoints" clip-path="url(#plot_window)">
</g>
	<g id="legendBackground" stroke="rgb(119,136,153)" fill="rgb(255,255,255)" stroke-width="1">
	<rect x="643.5" y="43" width="92.5" height="64.5"/>
</g>
	<g id="legendPoints">
</g>
	<g id="legendLines">
	<g stroke="rgb(0,0,139)" stroke-width="1">
	<line x1="658.8" y1="62.75" x2="664.8" y2="62.75"/>
</g>
	<g stroke="rgb(139,0,0)" stroke-width="1">
	<line x1="658.8" y1="75.25" x2="664.8" y2="75.25"/>
</g>
	<g stroke="rgb(0,100,0)" stroke-width="1">
	<line x1="658.8" y1="87.75" x2="664.8" y2="87.75"/>
</g>
</g>
	<g id="legendText">
	<text x="673.8" y="62.75" font-size="10" font-family="Lucida Sans Unicode" font-weight="normal" textLength="54">scale=0.5
	</text>
	<text x="673.8" y="75.25" font-size="10" font-family="Lucida Sans Unicode" font-weight="normal" textLength="42">scale=1
	</text>
	<text x="673.8" y="87.75" font-size="10" font-family="Lucida Sans Unicode" font-weight="normal" textLength="42">scale=2
	</text>
</g>
	<g id="title">
	<text x="375" y="30" text-anchor="middle" font-size="20" font-family="Lucida Sans Unicode" font-weight="normal">Lognormal Distribution PDF (location=0)
	</text>
</g>
	<g id="plotXValues">
</g>
	<g id="plotYValues">
</g>
</svg>
