<?xml version="1.0" encoding="UTF-8" standalone="no"?>
<svg width="750" height ="400" version="1.1"
xmlns:svg ="http://www.w3.org/2000/svg"
xmlns:rdf="http://www.w3.org/1999/02/22-rdf-syntax-ns#"
xmlns:cc="http://web.resource.org/cc/"
xmlns:dc="http://purl.org/dc/elements/1.1/"
xmlns ="http://www.w3.org/2000/svg"
>
<!-- SVG plot written using Boost.Plot program (Creator Jacob Voytko) --> 
<!-- Use, modification and distribution of Boost.Plot subject to the --> 
<!-- Boost Software License, Version 1.0.--> 
<!-- (See accompanying file LICENSE_1_0.txt --> 
<!-- or copy at http://www.boost.org/LICENSE_1_0.txt) --> 

<!-- SVG Plot Copyright John Maddock 2008 --> 
<meta name="copyright" content="John Maddock" />
<meta name="date" content="2008" />
<!-- Use, modification and distribution of this Scalable Vector Graphic file -->
<!-- are subject to the Boost Software License, Version 1.0. -->
<!-- (See accompanying file LICENSE_1_0.txt or copy at http://www.boost.org/LICENSE_1_0.txt) -->

<clipPath id="plot_window">	<rect x="71.1" y="44" width="553.4" height="309"/>
</clipPath>
	<g id="imageBackground" stroke="rgb(119,136,153)" fill="rgb(255,255,255)" stroke-width="2">
	<rect x="0" y="0" width="750" height="400"/>
</g>
	<g id="plotBackground" stroke="rgb(119,136,153)" fill="rgb(255,255,255)" stroke-width="2">
	<rect x="70.1" y="43" width="555.4" height="311"/>
</g>
	<g id="yMinorGrid" stroke="rgb(200,220,255)" stroke-width="0.5">
</g>
	<g id="yMajorGrid" stroke="rgb(200,220,255)" stroke-width="1">
</g>
	<g id="xMinorGrid" stroke="rgb(200,220,255)" stroke-width="0.5">
</g>
	<g id="xMajorGrid" stroke="rgb(200,220,255)" stroke-width="1">
</g>
	<g id="yAxis" stroke="rgb(0,0,0)" stroke-width="1">
	<line x1="70.1" y1="43" x2="70.1" y2="359"/>
	<line x1="70.1" y1="43" x2="70.1" y2="354"/>
</g>
	<g id="xAxis" stroke="rgb(0,0,0)" stroke-width="1">
	<line x1="65.1" y1="354" x2="625.5" y2="354"/>
	<line x1="65.1" y1="354" x2="625.5" y2="354"/>
</g>
	<g id="yMinorTicks" stroke="rgb(0,0,0)" stroke-width="1">
	<path d="M68.1,338.2 L70.1,338.2 
M68.1,322.4 L70.1,322.4 
M68.1,306.6 L70.1,306.6 
M68.1,290.7 L70.1,290.7 
M68.1,259.1 L70.1,259.1 
M68.1,243.3 L70.1,243.3 
M68.1,227.5 L70.1,227.5 
M68.1,211.7 L70.1,211.7 
M68.1,180.1 L70.1,180.1 
M68.1,164.2 L70.1,164.2 
M68.1,148.4 L70.1,148.4 
M68.1,132.6 L70.1,132.6 
M68.1,101 L70.1,101 
M68.1,85.18 L70.1,85.18 
M68.1,69.36 L70.1,69.36 
M68.1,53.55 L70.1,53.55 
M68.1,354 L70.1,354 
" fill="none"/>
</g>
	<g id="xMinorTicks" stroke="rgb(0,0,0)" stroke-width="1">
	<path d="M118.2,354 L118.2,356 
M166.2,354 L166.2,356 
M214.3,354 L214.3,356 
M262.3,354 L262.3,356 
M358.4,354 L358.4,356 
M406.5,354 L406.5,356 
M454.5,354 L454.5,356 
M502.6,354 L502.6,356 
M598.7,354 L598.7,356 
" fill="none"/>
</g>
	<g id="yMajorTicks" stroke="rgb(0,0,0)" stroke-width="2">
	<path d="M65.1,354 L70.1,354 
M65.1,274.9 L70.1,274.9 
M65.1,195.9 L70.1,195.9 
M65.1,116.8 L70.1,116.8 
M65.1,354 L70.1,354 
" fill="none"/>
</g>
	<g id="xMajorTicks" stroke="rgb(0,0,0)" stroke-width="2">
	<path d="M70.1,354 L70.1,359 
M310.4,354 L310.4,359 
M550.6,354 L550.6,359 
M70.1,354 L70.1,359 
" fill="none"/>
</g>
	<g id="xTicksValues" font-size="12" font-family="Lucida Sans Unicode" text-anchor="middle">
	<text x="70.1" y="374.6">0
	</text>
	<text x="310.4" y="374.6">5
	</text>
	<text x="550.6" y="374.6">10
	</text>
	<text x="70.1" y="374.6">0
	</text>
</g>
	<g id="yTicksValues" font-size="12" font-family="Lucida Sans Unicode" text-anchor="end">
	<text x="59.1" y="356.4">0
	</text>
	<text x="59.1" y="277.3">0.5
	</text>
	<text x="59.1" y="198.3">1
	</text>
	<text x="59.1" y="119.2">1.5
	</text>
	<text x="59.1" y="356.4">0
	</text>
</g>
	<g id="yLabel">
	<text x="32.4" y="198.5" text-anchor="middle" transform="rotate(-90 32.4 198.5)" font-size="14" font-family="Lucida Sans Unicode">Probability
	</text>
</g>
	<g id="xLabel">
	<text x="347.8" y="387.1" text-anchor="middle" font-size="12" font-family="Lucida Sans Unicode">Random Variable
	</text>
</g>
	<g id="plotLines" stroke-width="2">
	<g clip-path="url(#plot_window)" stroke="rgb(0,0,139)" stroke-width="1">
	<path d="M70.1,354 L70.1,354 
L72.88,157.2 
L75.65,74.77 
L78.43,79.81 
L81.21,109 
L83.98,141.9 
L86.76,172.4 
L89.54,198.8 
L92.32,221.1 
L95.09,239.8 
L97.87,255.4 
L100.6,268.5 
L103.4,279.6 
L106.2,288.9 
L109,296.8 
L111.8,303.6 
L114.5,309.4 
L117.3,314.4 
L120.1,318.7 
L122.9,322.4 
L125.6,325.7 
L128.4,328.5 
L131.2,331 
L134,333.2 
L136.7,335.1 
L139.5,336.9 
L142.3,338.4 
L145.1,339.8 
L147.9,341 
L150.6,342.1 
L153.4,343.1 
L156.2,343.9 
L159,344.7 
L161.7,345.5 
L164.5,346.1 
L167.3,346.7 
L170.1,347.2 
L172.8,347.7 
L175.6,348.2 
L178.4,348.6 
L181.2,349 
L184,349.3 
L186.7,349.6 
L189.5,349.9 
L192.3,350.2 
L195.1,350.4 
L197.8,350.6 
L200.6,350.9 
L203.4,351 
L206.2,351.2 
L209,351.4 
L211.7,351.5 
L214.5,351.7 
L217.3,351.8 
L220.1,351.9 
L222.8,352.1 
L225.6,352.2 
L228.4,352.3 
L231.2,352.4 
L233.9,352.4 
L236.7,352.5 
L239.5,352.6 
L242.3,352.7 
L245.1,352.7 
L247.8,352.8 
L250.6,352.9 
L253.4,352.9 
L256.2,353 
L258.9,353 
L261.7,353.1 
L264.5,353.1 
L267.3,353.2 
L270,353.2 
L272.8,353.2 
L275.6,353.3 
L278.4,353.3 
L281.2,353.3 
L283.9,353.4 
L286.7,353.4 
L289.5,353.4 
L292.3,353.4 
L295,353.5 
L297.8,353.5 
L300.6,353.5 
L303.4,353.5 
L306.1,353.6 
L308.9,353.6 
L311.7,353.6 
L314.5,353.6 
L317.3,353.6 
L320,353.6 
L322.8,353.7 
L325.6,353.7 
L328.4,353.7 
L331.1,353.7 
L333.9,353.7 
L336.7,353.7 
L339.5,353.7 
L342.2,353.7 
L345,353.7 
L347.8,353.8 
L350.6,353.8 
L353.4,353.8 
L356.1,353.8 
L358.9,353.8 
L361.7,353.8 
L364.5,353.8 
L367.2,353.8 
L370,353.8 
L372.8,353.8 
L375.6,353.8 
L378.3,353.8 
L381.1,353.8 
L383.9,353.8 
L386.7,353.9 
L389.5,353.9 
L392.2,353.9 
L395,353.9 
L397.8,353.9 
L400.6,353.9 
L403.3,353.9 
L406.1,353.9 
L408.9,353.9 
L411.7,353.9 
L414.4,353.9 
L417.2,353.9 
L420,353.9 
L422.8,353.9 
L425.6,353.9 
L428.3,353.9 
L431.1,353.9 
L433.9,353.9 
L436.7,353.9 
L439.4,353.9 
L442.2,353.9 
L445,353.9 
L447.8,353.9 
L450.5,353.9 
L453.3,353.9 
L456.1,353.9 
L458.9,353.9 
L461.7,353.9 
L464.4,353.9 
L467.2,353.9 
L470,353.9 
L472.8,353.9 
L475.5,353.9 
L478.3,353.9 
L481.1,353.9 
L483.9,353.9 
L486.7,354 
L489.4,354 
L492.2,354 
L495,354 
L497.8,354 
L500.5,354 
L503.3,354 
L506.1,354 
L508.9,354 
L511.6,354 
L514.4,354 
L517.2,354 
L520,354 
L522.8,354 
L525.5,354 
L528.3,354 
L531.1,354 
L533.9,354 
L536.6,354 
L539.4,354 
L542.2,354 
L545,354 
L547.7,354 
L550.5,354 
L553.3,354 
L556.1,354 
L558.9,354 
L561.6,354 
L564.4,354 
L567.2,354 
L570,354 
L572.7,354 
L575.5,354 
L578.3,354 
L581.1,354 
L583.8,354 
L586.6,354 
L589.4,354 
L592.2,354 
L595,354 
L597.7,354 
L600.5,354 
L603.3,354 
L606.1,354 
L608.8,354 
L611.6,354 
L614.4,354 
L617.2,354 
L619.9,354 
L622.7,354 
L625.5,354 
" fill="none"/>
</g>
	<g clip-path="url(#plot_window)" stroke="rgb(139,0,0)" stroke-width="1">
	<path d="M70.1,354 L70.1,354 
L72.88,335.2 
L75.65,300.8 
L78.43,275.6 
L81.21,260.6 
L83.98,253 
L86.76,250.2 
L89.54,250.5 
L92.32,252.7 
L95.09,256 
L97.87,260.1 
L100.6,264.4 
L103.4,268.9 
L106.2,273.4 
L109,277.8 
L111.8,282 
L114.5,286 
L117.3,289.8 
L120.1,293.4 
L122.9,296.8 
L125.6,300 
L128.4,303 
L131.2,305.8 
L134,308.4 
L136.7,310.9 
L139.5,313.2 
L142.3,315.4 
L145.1,317.4 
L147.9,319.3 
L150.6,321.1 
L153.4,322.7 
L156.2,324.3 
L159,325.8 
L161.7,327.1 
L164.5,328.4 
L167.3,329.7 
L170.1,330.8 
L172.8,331.9 
L175.6,332.9 
L178.4,333.9 
L181.2,334.8 
L184,335.6 
L186.7,336.5 
L189.5,337.2 
L192.3,337.9 
L195.1,338.6 
L197.8,339.3 
L200.6,339.9 
L203.4,340.5 
L206.2,341 
L209,341.6 
L211.7,342.1 
L214.5,342.5 
L217.3,343 
L220.1,343.4 
L222.8,343.8 
L225.6,344.2 
L228.4,344.6 
L231.2,344.9 
L233.9,345.3 
L236.7,345.6 
L239.5,345.9 
L242.3,346.2 
L245.1,346.5 
L247.8,346.7 
L250.6,347 
L253.4,347.2 
L256.2,347.5 
L258.9,347.7 
L261.7,347.9 
L264.5,348.1 
L267.3,348.3 
L270,348.5 
L272.8,348.7 
L275.6,348.9 
L278.4,349 
L281.2,349.2 
L283.9,349.3 
L286.7,349.5 
L289.5,349.6 
L292.3,349.8 
L295,349.9 
L297.8,350 
L300.6,350.2 
L303.4,350.3 
L306.1,350.4 
L308.9,350.5 
L311.7,350.6 
L314.5,350.7 
L317.3,350.8 
L320,350.9 
L322.8,351 
L325.6,351.1 
L328.4,351.1 
L331.1,351.2 
L333.9,351.3 
L336.7,351.4 
L339.5,351.5 
L342.2,351.5 
L345,351.6 
L347.8,351.7 
L350.6,351.7 
L353.4,351.8 
L356.1,351.8 
L358.9,351.9 
L361.7,352 
L364.5,352 
L367.2,352.1 
L370,352.1 
L372.8,352.2 
L375.6,352.2 
L378.3,352.3 
L381.1,352.3 
L383.9,352.3 
L386.7,352.4 
L389.5,352.4 
L392.2,352.5 
L395,352.5 
L397.8,352.5 
L400.6,352.6 
L403.3,352.6 
L406.1,352.6 
L408.9,352.7 
L411.7,352.7 
L414.4,352.7 
L417.2,352.8 
L420,352.8 
L422.8,352.8 
L425.6,352.8 
L428.3,352.9 
L431.1,352.9 
L433.9,352.9 
L436.7,353 
L439.4,353 
L442.2,353 
L445,353 
L447.8,353 
L450.5,353.1 
L453.3,353.1 
L456.1,353.1 
L458.9,353.1 
L461.7,353.1 
L464.4,353.2 
L467.2,353.2 
L470,353.2 
L472.8,353.2 
L475.5,353.2 
L478.3,353.2 
L481.1,353.3 
L483.9,353.3 
L486.7,353.3 
L489.4,353.3 
L492.2,353.3 
L495,353.3 
L497.8,353.4 
L500.5,353.4 
L503.3,353.4 
L506.1,353.4 
L508.9,353.4 
L511.6,353.4 
L514.4,353.4 
L517.2,353.4 
L520,353.4 
L522.8,353.5 
L525.5,353.5 
L528.3,353.5 
L531.1,353.5 
L533.9,353.5 
L536.6,353.5 
L539.4,353.5 
L542.2,353.5 
L545,353.5 
L547.7,353.5 
L550.5,353.6 
L553.3,353.6 
L556.1,353.6 
L558.9,353.6 
L561.6,353.6 
L564.4,353.6 
L567.2,353.6 
L570,353.6 
L572.7,353.6 
L575.5,353.6 
L578.3,353.6 
L581.1,353.6 
L583.8,353.6 
L586.6,353.7 
L589.4,353.7 
L592.2,353.7 
L595,353.7 
L597.7,353.7 
L600.5,353.7 
L603.3,353.7 
L606.1,353.7 
L608.8,353.7 
L611.6,353.7 
L614.4,353.7 
L617.2,353.7 
L619.9,353.7 
L622.7,353.7 
L625.5,353.7 
" fill="none"/>
</g>
	<g clip-path="url(#plot_window)" stroke="rgb(0,100,0)" stroke-width="1">
	<path d="M70.1,354 L70.1,354 
L72.88,353.3 
L75.65,350.3 
L78.43,345.8 
L81.21,340.9 
L83.98,336.3 
L86.76,332.2 
L89.54,328.6 
L92.32,325.6 
L95.09,323.1 
L97.87,321.1 
L100.6,319.5 
L103.4,318.2 
L106.2,317.3 
L109,316.6 
L111.8,316.1 
L114.5,315.9 
L117.3,315.7 
L120.1,315.8 
L122.9,315.9 
L125.6,316.1 
L128.4,316.4 
L131.2,316.8 
L134,317.3 
L136.7,317.7 
L139.5,318.2 
L142.3,318.8 
L145.1,319.3 
L147.9,319.9 
L150.6,320.5 
L153.4,321.1 
L156.2,321.7 
L159,322.3 
L161.7,322.9 
L164.5,323.5 
L167.3,324.1 
L170.1,324.7 
L172.8,325.3 
L175.6,325.9 
L178.4,326.5 
L181.2,327.1 
L184,327.6 
L186.7,328.2 
L189.5,328.7 
L192.3,329.2 
L195.1,329.8 
L197.8,330.3 
L200.6,330.8 
L203.4,331.3 
L206.2,331.7 
L209,332.2 
L211.7,332.7 
L214.5,333.1 
L217.3,333.5 
L220.1,334 
L222.8,334.4 
L225.6,334.8 
L228.4,335.2 
L231.2,335.6 
L233.9,336 
L236.7,336.3 
L239.5,336.7 
L242.3,337.1 
L245.1,337.4 
L247.8,337.7 
L250.6,338.1 
L253.4,338.4 
L256.2,338.7 
L258.9,339 
L261.7,339.3 
L264.5,339.6 
L267.3,339.9 
L270,340.2 
L272.8,340.4 
L275.6,340.7 
L278.4,340.9 
L281.2,341.2 
L283.9,341.4 
L286.7,341.7 
L289.5,341.9 
L292.3,342.1 
L295,342.4 
L297.8,342.6 
L300.6,342.8 
L303.4,343 
L306.1,343.2 
L308.9,343.4 
L311.7,343.6 
L314.5,343.8 
L317.3,344 
L320,344.2 
L322.8,344.4 
L325.6,344.5 
L328.4,344.7 
L331.1,344.9 
L333.9,345 
L336.7,345.2 
L339.5,345.3 
L342.2,345.5 
L345,345.6 
L347.8,345.8 
L350.6,345.9 
L353.4,346.1 
L356.1,346.2 
L358.9,346.3 
L361.7,346.5 
L364.5,346.6 
L367.2,346.7 
L370,346.8 
L372.8,347 
L375.6,347.1 
L378.3,347.2 
L381.1,347.3 
L383.9,347.4 
L386.7,347.5 
L389.5,347.6 
L392.2,347.7 
L395,347.8 
L397.8,347.9 
L400.6,348 
L403.3,348.1 
L406.1,348.2 
L408.9,348.3 
L411.7,348.4 
L414.4,348.5 
L417.2,348.6 
L420,348.7 
L422.8,348.8 
L425.6,348.8 
L428.3,348.9 
L431.1,349 
L433.9,349.1 
L436.7,349.1 
L439.4,349.2 
L442.2,349.3 
L445,349.4 
L447.8,349.4 
L450.5,349.5 
L453.3,349.6 
L456.1,349.6 
L458.9,349.7 
L461.7,349.8 
L464.4,349.8 
L467.2,349.9 
L470,349.9 
L472.8,350 
L475.5,350.1 
L478.3,350.1 
L481.1,350.2 
L483.9,350.2 
L486.7,350.3 
L489.4,350.3 
L492.2,350.4 
L495,350.4 
L497.8,350.5 
L500.5,350.5 
L503.3,350.6 
L506.1,350.6 
L508.9,350.7 
L511.6,350.7 
L514.4,350.8 
L517.2,350.8 
L520,350.9 
L522.8,350.9 
L525.5,350.9 
L528.3,351 
L531.1,351 
L533.9,351.1 
L536.6,351.1 
L539.4,351.1 
L542.2,351.2 
L545,351.2 
L547.7,351.3 
L550.5,351.3 
L553.3,351.3 
L556.1,351.4 
L558.9,351.4 
L561.6,351.4 
L564.4,351.5 
L567.2,351.5 
L570,351.5 
L572.7,351.6 
L575.5,351.6 
L578.3,351.6 
L581.1,351.7 
L583.8,351.7 
L586.6,351.7 
L589.4,351.7 
L592.2,351.8 
L595,351.8 
L597.7,351.8 
L600.5,351.9 
L603.3,351.9 
L606.1,351.9 
L608.8,351.9 
L611.6,352 
L614.4,352 
L617.2,352 
L619.9,352 
L622.7,352.1 
L625.5,352.1 
" fill="none"/>
</g>
</g>
	<g id="plotPoints" clip-path="url(#plot_window)">
</g>
	<g id="legendBackground" stroke="rgb(119,136,153)" fill="rgb(255,255,255)" stroke-width="1">
	<rect x="631.5" y="43" width="104.5" height="64.5"/>
</g>
	<g id="legendPoints">
</g>
	<g id="legendLines">
	<g stroke="rgb(0,0,139)" stroke-width="1">
	<line x1="646.8" y1="62.75" x2="652.8" y2="62.75"/>
</g>
	<g stroke="rgb(139,0,0)" stroke-width="1">
	<line x1="646.8" y1="75.25" x2="652.8" y2="75.25"/>
</g>
	<g stroke="rgb(0,100,0)" stroke-width="1">
	<line x1="646.8" y1="87.75" x2="652.8" y2="87.75"/>
</g>
</g>
	<g id="legendText">
	<text x="661.8" y="62.75" font-size="10" font-family="Lucida Sans Unicode" font-weight="normal" textLength="66">location=-1
	</text>
	<text x="661.8" y="75.25" font-size="10" font-family="Lucida Sans Unicode" font-weight="normal" textLength="60">location=0
	</text>
	<text x="661.8" y="87.75" font-size="10" font-family="Lucida Sans Unicode" font-weight="normal" textLength="60">location=1
	</text>
</g>
	<g id="title">
	<text x="375" y="30" text-anchor="middle" font-size="20" font-family="Lucida Sans Unicode" font-weight="normal">Lognormal Distribution PDF (scale=1)
	</text>
</g>
	<g id="plotXValues">
</g>
	<g id="plotYValues">
</g>
</svg>
