<?xml version="1.0" encoding="UTF-8" standalone="no"?>
<svg width="750" height ="400" version="1.1"
xmlns:svg ="http://www.w3.org/2000/svg"
xmlns:rdf="http://www.w3.org/1999/02/22-rdf-syntax-ns#"
xmlns:cc="http://web.resource.org/cc/"
xmlns:dc="http://purl.org/dc/elements/1.1/"
xmlns ="http://www.w3.org/2000/svg"
>
<!-- SVG plot written using Boost.Plot program (Creator Jacob Voytko) --> 
<!-- Use, modification and distribution of Boost.Plot subject to the --> 
<!-- Boost Software License, Version 1.0.--> 
<!-- (See accompanying file LICENSE_1_0.txt --> 
<!-- or copy at http://www.boost.org/LICENSE_1_0.txt) --> 

<!-- SVG Plot Copyright John Maddock 2008 --> 
<meta name="copyright" content="John Maddock" />
<meta name="date" content="2008" />
<!-- Use, modification and distribution of this Scalable Vector Graphic file -->
<!-- are subject to the Boost Software License, Version 1.0. -->
<!-- (See accompanying file LICENSE_1_0.txt or copy at http://www.boost.org/LICENSE_1_0.txt) -->

<clipPath id="plot_window">	<rect x="56.7" y="44" width="526.4" height="309"/>
</clipPath>
	<g id="imageBackground" stroke="rgb(119,136,153)" fill="rgb(255,255,255)" stroke-width="2">
	<rect x="0" y="0" width="750" height="400"/>
</g>
	<g id="plotBackground" stroke="rgb(119,136,153)" fill="rgb(255,255,255)" stroke-width="2">
	<rect x="55.7" y="43" width="528.4" height="311"/>
</g>
	<g id="yMinorGrid" stroke="rgb(200,220,255)" stroke-width="0.5">
</g>
	<g id="yMajorGrid" stroke="rgb(200,220,255)" stroke-width="1">
</g>
	<g id="xMinorGrid" stroke="rgb(200,220,255)" stroke-width="0.5">
</g>
	<g id="xMajorGrid" stroke="rgb(200,220,255)" stroke-width="1">
</g>
	<g id="yAxis" stroke="rgb(0,0,0)" stroke-width="1">
	<line x1="55.7" y1="43" x2="55.7" y2="359"/>
	<line x1="55.7" y1="43" x2="55.7" y2="354"/>
</g>
	<g id="xAxis" stroke="rgb(0,0,0)" stroke-width="1">
	<line x1="50.7" y1="354" x2="584.1" y2="354"/>
	<line x1="50.7" y1="354" x2="584.1" y2="354"/>
</g>
	<g id="yMinorTicks" stroke="rgb(0,0,0)" stroke-width="1">
	<path d="M53.7,347 L55.7,347 
M53.7,340 L55.7,340 
M53.7,333 L55.7,333 
M53.7,326.1 L55.7,326.1 
M53.7,312.1 L55.7,312.1 
M53.7,305.1 L55.7,305.1 
M53.7,298.1 L55.7,298.1 
M53.7,291.1 L55.7,291.1 
M53.7,277.2 L55.7,277.2 
M53.7,270.2 L55.7,270.2 
M53.7,263.2 L55.7,263.2 
M53.7,256.2 L55.7,256.2 
M53.7,242.2 L55.7,242.2 
M53.7,235.2 L55.7,235.2 
M53.7,228.3 L55.7,228.3 
M53.7,221.3 L55.7,221.3 
M53.7,207.3 L55.7,207.3 
M53.7,200.3 L55.7,200.3 
M53.7,193.3 L55.7,193.3 
M53.7,186.3 L55.7,186.3 
M53.7,172.4 L55.7,172.4 
M53.7,165.4 L55.7,165.4 
M53.7,158.4 L55.7,158.4 
M53.7,151.4 L55.7,151.4 
M53.7,137.4 L55.7,137.4 
M53.7,130.5 L55.7,130.5 
M53.7,123.5 L55.7,123.5 
M53.7,116.5 L55.7,116.5 
M53.7,102.5 L55.7,102.5 
M53.7,95.53 L55.7,95.53 
M53.7,88.55 L55.7,88.55 
M53.7,81.56 L55.7,81.56 
M53.7,67.59 L55.7,67.59 
M53.7,60.6 L55.7,60.6 
M53.7,53.62 L55.7,53.62 
M53.7,46.63 L55.7,46.63 
M53.7,354 L55.7,354 
" fill="none"/>
</g>
	<g id="xMinorTicks" stroke="rgb(0,0,0)" stroke-width="1">
	<path d="M66.27,354 L66.27,356 
M76.84,354 L76.84,356 
M87.4,354 L87.4,356 
M97.97,354 L97.97,356 
M119.1,354 L119.1,356 
M129.7,354 L129.7,356 
M140.2,354 L140.2,356 
M150.8,354 L150.8,356 
M171.9,354 L171.9,356 
M182.5,354 L182.5,356 
M193.1,354 L193.1,356 
M203.7,354 L203.7,356 
M224.8,354 L224.8,356 
M235.4,354 L235.4,356 
M245.9,354 L245.9,356 
M256.5,354 L256.5,356 
M277.6,354 L277.6,356 
M288.2,354 L288.2,356 
M298.8,354 L298.8,356 
M309.3,354 L309.3,356 
M330.5,354 L330.5,356 
M341,354 L341,356 
M351.6,354 L351.6,356 
M362.2,354 L362.2,356 
M383.3,354 L383.3,356 
M393.9,354 L393.9,356 
M404.4,354 L404.4,356 
M415,354 L415,356 
M436.1,354 L436.1,356 
M446.7,354 L446.7,356 
M457.3,354 L457.3,356 
M467.9,354 L467.9,356 
M489,354 L489,356 
M499.6,354 L499.6,356 
M510.1,354 L510.1,356 
M520.7,354 L520.7,356 
M541.8,354 L541.8,356 
M552.4,354 L552.4,356 
M563,354 L563,356 
M573.5,354 L573.5,356 
" fill="none"/>
</g>
	<g id="yMajorTicks" stroke="rgb(0,0,0)" stroke-width="2">
	<path d="M50.7,354 L55.7,354 
M50.7,319.1 L55.7,319.1 
M50.7,284.1 L55.7,284.1 
M50.7,249.2 L55.7,249.2 
M50.7,214.3 L55.7,214.3 
M50.7,179.4 L55.7,179.4 
M50.7,144.4 L55.7,144.4 
M50.7,109.5 L55.7,109.5 
M50.7,74.58 L55.7,74.58 
M50.7,354 L55.7,354 
" fill="none"/>
</g>
	<g id="xMajorTicks" stroke="rgb(0,0,0)" stroke-width="2">
	<path d="M55.7,354 L55.7,359 
M108.5,354 L108.5,359 
M161.4,354 L161.4,359 
M214.2,354 L214.2,359 
M267.1,354 L267.1,359 
M319.9,354 L319.9,359 
M372.7,354 L372.7,359 
M425.6,354 L425.6,359 
M478.4,354 L478.4,359 
M531.3,354 L531.3,359 
M584.1,354 L584.1,359 
M55.7,354 L55.7,359 
" fill="none"/>
</g>
	<g id="xTicksValues" font-size="12" font-family="Lucida Sans Unicode" text-anchor="middle">
	<text x="55.7" y="374.6">0
	</text>
	<text x="108.5" y="374.6">0.1
	</text>
	<text x="161.4" y="374.6">0.2
	</text>
	<text x="214.2" y="374.6">0.3
	</text>
	<text x="267.1" y="374.6">0.4
	</text>
	<text x="319.9" y="374.6">0.5
	</text>
	<text x="372.7" y="374.6">0.6
	</text>
	<text x="425.6" y="374.6">0.7
	</text>
	<text x="478.4" y="374.6">0.8
	</text>
	<text x="531.3" y="374.6">0.9
	</text>
	<text x="584.1" y="374.6">1
	</text>
	<text x="55.7" y="374.6">0
	</text>
</g>
	<g id="yTicksValues" font-size="12" font-family="Lucida Sans Unicode" text-anchor="end">
	<text x="44.7" y="356.4">0
	</text>
	<text x="44.7" y="321.5">1
	</text>
	<text x="44.7" y="286.5">2
	</text>
	<text x="44.7" y="251.6">3
	</text>
	<text x="44.7" y="216.7">4
	</text>
	<text x="44.7" y="181.8">5
	</text>
	<text x="44.7" y="146.8">6
	</text>
	<text x="44.7" y="111.9">7
	</text>
	<text x="44.7" y="76.98">8
	</text>
	<text x="44.7" y="356.4">0
	</text>
</g>
	<g id="yLabel">
	<text x="32.4" y="198.5" text-anchor="middle" transform="rotate(-90 32.4 198.5)" font-size="14" font-family="Lucida Sans Unicode">Probability
	</text>
</g>
	<g id="xLabel">
	<text x="319.9" y="387.1" text-anchor="middle" font-size="12" font-family="Lucida Sans Unicode">Random Variable
	</text>
</g>
	<g id="plotLines" stroke-width="2">
	<g clip-path="url(#plot_window)" stroke="rgb(0,0,139)" stroke-width="1">
	<path d="M55.7,354 L55.7,354 
L58.34,354 
L60.98,354 
L63.63,354 
L66.27,354 
L68.91,354 
L71.55,354 
L74.19,354 
L76.84,354 
L79.48,354 
L82.12,354 
L84.76,354 
L87.4,354 
L90.05,354 
L92.69,354 
L95.33,354 
L97.97,354 
L100.6,354 
L103.3,353.9 
L105.9,353.9 
L108.5,353.8 
L111.2,353.8 
L113.8,353.7 
L116.5,353.6 
L119.1,353.4 
L121.8,353.2 
L124.4,353 
L127,352.7 
L129.7,352.3 
L132.3,351.8 
L135,351.3 
L137.6,350.7 
L140.2,349.9 
L142.9,349 
L145.5,348 
L148.2,346.9 
L150.8,345.6 
L153.5,344.1 
L156.1,342.4 
L158.7,340.6 
L161.4,338.6 
L164,336.4 
L166.7,333.9 
L169.3,331.3 
L171.9,328.5 
L174.6,325.5 
L177.2,322.2 
L179.9,318.8 
L182.5,315.2 
L185.2,311.4 
L187.8,307.4 
L190.4,303.3 
L193.1,299.1 
L195.7,294.7 
L198.4,290.2 
L201,285.7 
L203.7,281.1 
L206.3,276.4 
L208.9,271.8 
L211.6,267.2 
L214.2,262.6 
L216.9,258 
L219.5,253.6 
L222.1,249.2 
L224.8,245.1 
L227.4,241 
L230.1,237.2 
L232.7,233.6 
L235.4,230.2 
L238,227.1 
L240.6,224.3 
L243.3,221.7 
L245.9,219.4 
L248.6,217.5 
L251.2,215.9 
L253.9,214.6 
L256.5,213.6 
L259.1,213 
L261.8,212.8 
L264.4,212.9 
L267.1,213.3 
L269.7,214 
L272.3,215.1 
L275,216.5 
L277.6,218.2 
L280.3,220.2 
L282.9,222.4 
L285.6,224.9 
L288.2,227.7 
L290.8,230.7 
L293.5,233.9 
L296.1,237.2 
L298.8,240.7 
L301.4,244.4 
L304,248.2 
L306.7,252.1 
L309.3,256.1 
L312,260.1 
L314.6,264.2 
L317.3,268.3 
L319.9,272.3 
L322.5,276.4 
L325.2,280.4 
L327.8,284.4 
L330.5,288.4 
L333.1,292.2 
L335.8,296 
L338.4,299.6 
L341,303.2 
L343.7,306.6 
L346.3,309.9 
L349,313.1 
L351.6,316.2 
L354.2,319.1 
L356.9,321.9 
L359.5,324.5 
L362.2,327 
L364.8,329.3 
L367.5,331.5 
L370.1,333.5 
L372.7,335.5 
L375.4,337.3 
L378,338.9 
L380.7,340.4 
L383.3,341.9 
L386,343.2 
L388.6,344.3 
L391.2,345.4 
L393.9,346.4 
L396.5,347.3 
L399.2,348.1 
L401.8,348.9 
L404.4,349.5 
L407.1,350.1 
L409.7,350.6 
L412.4,351.1 
L415,351.5 
L417.7,351.8 
L420.3,352.2 
L422.9,352.4 
L425.6,352.7 
L428.2,352.9 
L430.9,353.1 
L433.5,353.2 
L436.1,353.4 
L438.8,353.5 
L441.4,353.6 
L444.1,353.6 
L446.7,353.7 
L449.4,353.8 
L452,353.8 
L454.6,353.8 
L457.3,353.9 
L459.9,353.9 
L462.6,353.9 
L465.2,353.9 
L467.9,354 
L470.5,354 
L473.1,354 
L475.8,354 
L478.4,354 
L481.1,354 
L483.7,354 
L486.3,354 
L489,354 
L491.6,354 
L494.3,354 
L496.9,354 
L499.6,354 
L502.2,354 
L504.8,354 
L507.5,354 
L510.1,354 
L512.8,354 
L515.4,354 
L518.1,354 
L520.7,354 
L523.3,354 
L526,354 
L528.6,354 
L531.3,354 
L533.9,354 
L536.5,354 
L539.2,354 
L541.8,354 
L544.5,354 
L547.1,354 
L549.8,354 
L552.4,354 
L555,354 
L557.7,354 
L560.3,354 
L563,354 
L565.6,354 
L568.2,354 
L570.9,354 
L573.5,354 
L576.2,354 
L578.8,354 
L581.5,354 
" fill="none"/>
</g>
	<g clip-path="url(#plot_window)" stroke="rgb(139,0,0)" stroke-width="1">
	<path d="M55.7,354 L55.7,354 
L58.34,354 
L60.98,354 
L63.63,354 
L66.27,354 
L68.91,354 
L71.55,354 
L74.19,354 
L76.84,354 
L79.48,354 
L82.12,354 
L84.76,354 
L87.4,354 
L90.05,354 
L92.69,354 
L95.33,354 
L97.97,354 
L100.6,354 
L103.3,354 
L105.9,353.9 
L108.5,353.9 
L111.2,353.8 
L113.8,353.8 
L116.5,353.7 
L119.1,353.6 
L121.8,353.4 
L124.4,353.3 
L127,353 
L129.7,352.8 
L132.3,352.4 
L135,352 
L137.6,351.5 
L140.2,351 
L142.9,350.3 
L145.5,349.5 
L148.2,348.6 
L150.8,347.6 
L153.5,346.4 
L156.1,345.1 
L158.7,343.6 
L161.4,342 
L164,340.2 
L166.7,338.2 
L169.3,336 
L171.9,333.7 
L174.6,331.1 
L177.2,328.4 
L179.9,325.4 
L182.5,322.3 
L185.2,319 
L187.8,315.5 
L190.4,311.8 
L193.1,308 
L195.7,304.1 
L198.4,300 
L201,295.8 
L203.7,291.4 
L206.3,287.1 
L208.9,282.6 
L211.6,278.1 
L214.2,273.6 
L216.9,269.1 
L219.5,264.6 
L222.1,260.2 
L224.8,255.8 
L227.4,251.6 
L230.1,247.5 
L232.7,243.5 
L235.4,239.7 
L238,236.1 
L240.6,232.7 
L243.3,229.6 
L245.9,226.7 
L248.6,224 
L251.2,221.7 
L253.9,219.6 
L256.5,217.9 
L259.1,216.5 
L261.8,215.4 
L264.4,214.6 
L267.1,214.2 
L269.7,214.1 
L272.3,214.3 
L275,214.9 
L277.6,215.7 
L280.3,216.9 
L282.9,218.4 
L285.6,220.2 
L288.2,222.3 
L290.8,224.6 
L293.5,227.2 
L296.1,230 
L298.8,233 
L301.4,236.2 
L304,239.6 
L306.7,243.1 
L309.3,246.8 
L312,250.6 
L314.6,254.4 
L317.3,258.4 
L319.9,262.4 
L322.5,266.4 
L325.2,270.5 
L327.8,274.5 
L330.5,278.6 
L333.1,282.6 
L335.8,286.5 
L338.4,290.4 
L341,294.2 
L343.7,297.9 
L346.3,301.5 
L349,305 
L351.6,308.4 
L354.2,311.6 
L356.9,314.8 
L359.5,317.7 
L362.2,320.6 
L364.8,323.3 
L367.5,325.9 
L370.1,328.3 
L372.7,330.5 
L375.4,332.7 
L378,334.7 
L380.7,336.5 
L383.3,338.3 
L386,339.9 
L388.6,341.3 
L391.2,342.7 
L393.9,343.9 
L396.5,345.1 
L399.2,346.1 
L401.8,347 
L404.4,347.9 
L407.1,348.7 
L409.7,349.3 
L412.4,350 
L415,350.5 
L417.7,351 
L420.3,351.4 
L422.9,351.8 
L425.6,352.1 
L428.2,352.4 
L430.9,352.7 
L433.5,352.9 
L436.1,353.1 
L438.8,353.2 
L441.4,353.3 
L444.1,353.5 
L446.7,353.6 
L449.4,353.6 
L452,353.7 
L454.6,353.8 
L457.3,353.8 
L459.9,353.9 
L462.6,353.9 
L465.2,353.9 
L467.9,353.9 
L470.5,353.9 
L473.1,354 
L475.8,354 
L478.4,354 
L481.1,354 
L483.7,354 
L486.3,354 
L489,354 
L491.6,354 
L494.3,354 
L496.9,354 
L499.6,354 
L502.2,354 
L504.8,354 
L507.5,354 
L510.1,354 
L512.8,354 
L515.4,354 
L518.1,354 
L520.7,354 
L523.3,354 
L526,354 
L528.6,354 
L531.3,354 
L533.9,354 
L536.5,354 
L539.2,354 
L541.8,354 
L544.5,354 
L547.1,354 
L549.8,354 
L552.4,354 
L555,354 
L557.7,354 
L560.3,354 
L563,354 
L565.6,354 
L568.2,354 
L570.9,354 
L573.5,354 
L576.2,354 
L578.8,354 
L581.5,354 
" fill="none"/>
</g>
	<g clip-path="url(#plot_window)" stroke="rgb(0,100,0)" stroke-width="1">
	<path d="M55.7,354 L55.7,354 
L58.34,354 
L60.98,354 
L63.63,354 
L66.27,354 
L68.91,354 
L71.55,354 
L74.19,354 
L76.84,354 
L79.48,354 
L82.12,354 
L84.76,354 
L87.4,354 
L90.05,354 
L92.69,354 
L95.33,354 
L97.97,354 
L100.6,354 
L103.3,354 
L105.9,354 
L108.5,354 
L111.2,354 
L113.8,353.9 
L116.5,353.9 
L119.1,353.9 
L121.8,353.9 
L124.4,353.8 
L127,353.7 
L129.7,353.7 
L132.3,353.6 
L135,353.4 
L137.6,353.3 
L140.2,353.1 
L142.9,352.9 
L145.5,352.6 
L148.2,352.3 
L150.8,351.9 
L153.5,351.5 
L156.1,351 
L158.7,350.4 
L161.4,349.7 
L164,349 
L166.7,348.1 
L169.3,347.2 
L171.9,346.1 
L174.6,344.9 
L177.2,343.6 
L179.9,342.1 
L182.5,340.5 
L185.2,338.7 
L187.8,336.8 
L190.4,334.7 
L193.1,332.5 
L195.7,330.1 
L198.4,327.6 
L201,324.9 
L203.7,322 
L206.3,318.9 
L208.9,315.8 
L211.6,312.4 
L214.2,308.9 
L216.9,305.3 
L219.5,301.6 
L222.1,297.8 
L224.8,293.8 
L227.4,289.8 
L230.1,285.7 
L232.7,281.5 
L235.4,277.4 
L238,273.2 
L240.6,269 
L243.3,264.8 
L245.9,260.7 
L248.6,256.6 
L251.2,252.6 
L253.9,248.8 
L256.5,245 
L259.1,241.4 
L261.8,238 
L264.4,234.8 
L267.1,231.8 
L269.7,229 
L272.3,226.4 
L275,224.1 
L277.6,222.1 
L280.3,220.3 
L282.9,218.9 
L285.6,217.7 
L288.2,216.9 
L290.8,216.3 
L293.5,216.1 
L296.1,216.2 
L298.8,216.6 
L301.4,217.3 
L304,218.4 
L306.7,219.7 
L309.3,221.3 
L312,223.2 
L314.6,225.4 
L317.3,227.8 
L319.9,230.5 
L322.5,233.4 
L325.2,236.5 
L327.8,239.8 
L330.5,243.3 
L333.1,246.9 
L335.8,250.6 
L338.4,254.5 
L341,258.4 
L343.7,262.4 
L346.3,266.5 
L349,270.6 
L351.6,274.7 
L354.2,278.8 
L356.9,282.8 
L359.5,286.8 
L362.2,290.8 
L364.8,294.7 
L367.5,298.5 
L370.1,302.2 
L372.7,305.8 
L375.4,309.2 
L378,312.6 
L380.7,315.8 
L383.3,318.8 
L386,321.7 
L388.6,324.5 
L391.2,327.1 
L393.9,329.6 
L396.5,331.9 
L399.2,334 
L401.8,336 
L404.4,337.9 
L407.1,339.6 
L409.7,341.2 
L412.4,342.6 
L415,344 
L417.7,345.2 
L420.3,346.3 
L422.9,347.2 
L425.6,348.1 
L428.2,348.9 
L430.9,349.6 
L433.5,350.3 
L436.1,350.8 
L438.8,351.3 
L441.4,351.7 
L444.1,352.1 
L446.7,352.4 
L449.4,352.7 
L452,352.9 
L454.6,353.1 
L457.3,353.3 
L459.9,353.4 
L462.6,353.5 
L465.2,353.6 
L467.9,353.7 
L470.5,353.8 
L473.1,353.8 
L475.8,353.9 
L478.4,353.9 
L481.1,353.9 
L483.7,353.9 
L486.3,354 
L489,354 
L491.6,354 
L494.3,354 
L496.9,354 
L499.6,354 
L502.2,354 
L504.8,354 
L507.5,354 
L510.1,354 
L512.8,354 
L515.4,354 
L518.1,354 
L520.7,354 
L523.3,354 
L526,354 
L528.6,354 
L531.3,354 
L533.9,354 
L536.5,354 
L539.2,354 
L541.8,354 
L544.5,354 
L547.1,354 
L549.8,354 
L552.4,354 
L555,354 
L557.7,354 
L560.3,354 
L563,354 
L565.6,354 
L568.2,354 
L570.9,354 
L573.5,354 
L576.2,354 
L578.8,354 
L581.5,354 
" fill="none"/>
</g>
	<g clip-path="url(#plot_window)" stroke="rgb(255,140,0)" stroke-width="1">
	<path d="M55.7,354 L55.7,354 
L58.34,354 
L60.98,354 
L63.63,354 
L66.27,354 
L68.91,354 
L71.55,354 
L74.19,354 
L76.84,354 
L79.48,354 
L82.12,354 
L84.76,354 
L87.4,354 
L90.05,354 
L92.69,354 
L95.33,354 
L97.97,354 
L100.6,354 
L103.3,354 
L105.9,354 
L108.5,354 
L111.2,354 
L113.8,354 
L116.5,354 
L119.1,354 
L121.8,354 
L124.4,354 
L127,354 
L129.7,353.9 
L132.3,353.9 
L135,353.9 
L137.6,353.9 
L140.2,353.8 
L142.9,353.8 
L145.5,353.7 
L148.2,353.6 
L150.8,353.5 
L153.5,353.4 
L156.1,353.3 
L158.7,353.1 
L161.4,352.9 
L164,352.7 
L166.7,352.4 
L169.3,352.1 
L171.9,351.7 
L174.6,351.3 
L177.2,350.8 
L179.9,350.3 
L182.5,349.7 
L185.2,349 
L187.8,348.2 
L190.4,347.4 
L193.1,346.4 
L195.7,345.3 
L198.4,344.2 
L201,342.9 
L203.7,341.4 
L206.3,339.9 
L208.9,338.2 
L211.6,336.4 
L214.2,334.5 
L216.9,332.4 
L219.5,330.1 
L222.1,327.7 
L224.8,325.2 
L227.4,322.4 
L230.1,319.6 
L232.7,316.6 
L235.4,313.4 
L238,310.2 
L240.6,306.7 
L243.3,303.2 
L245.9,299.5 
L248.6,295.8 
L251.2,291.9 
L253.9,287.9 
L256.5,283.9 
L259.1,279.8 
L261.8,275.7 
L264.4,271.6 
L267.1,267.4 
L269.7,263.3 
L272.3,259.2 
L275,255.2 
L277.6,251.2 
L280.3,247.4 
L282.9,243.6 
L285.6,240 
L288.2,236.6 
L290.8,233.3 
L293.5,230.3 
L296.1,227.4 
L298.8,224.8 
L301.4,222.5 
L304,220.4 
L306.7,218.6 
L309.3,217.1 
L312,215.9 
L314.6,215 
L317.3,214.5 
L319.9,214.3 
L322.5,214.4 
L325.2,214.8 
L327.8,215.6 
L330.5,216.7 
L333.1,218.1 
L335.8,219.8 
L338.4,221.9 
L341,224.2 
L343.7,226.8 
L346.3,229.6 
L349,232.7 
L351.6,236.1 
L354.2,239.6 
L356.9,243.3 
L359.5,247.2 
L362.2,251.2 
L364.8,255.4 
L367.5,259.6 
L370.1,263.9 
L372.7,268.3 
L375.4,272.6 
L378,277 
L380.7,281.4 
L383.3,285.7 
L386,289.9 
L388.6,294.1 
L391.2,298.2 
L393.9,302.2 
L396.5,306 
L399.2,309.8 
L401.8,313.3 
L404.4,316.7 
L407.1,320 
L409.7,323.1 
L412.4,326 
L415,328.7 
L417.7,331.2 
L420.3,333.6 
L422.9,335.8 
L425.6,337.9 
L428.2,339.7 
L430.9,341.5 
L433.5,343 
L436.1,344.4 
L438.8,345.7 
L441.4,346.8 
L444.1,347.8 
L446.7,348.7 
L449.4,349.5 
L452,350.2 
L454.6,350.8 
L457.3,351.4 
L459.9,351.8 
L462.6,352.2 
L465.2,352.5 
L467.9,352.8 
L470.5,353 
L473.1,353.2 
L475.8,353.4 
L478.4,353.5 
L481.1,353.6 
L483.7,353.7 
L486.3,353.8 
L489,353.8 
L491.6,353.9 
L494.3,353.9 
L496.9,353.9 
L499.6,354 
L502.2,354 
L504.8,354 
L507.5,354 
L510.1,354 
L512.8,354 
L515.4,354 
L518.1,354 
L520.7,354 
L523.3,354 
L526,354 
L528.6,354 
L531.3,354 
L533.9,354 
L536.5,354 
L539.2,354 
L541.8,354 
L544.5,354 
L547.1,354 
L549.8,354 
L552.4,354 
L555,354 
L557.7,354 
L560.3,354 
L563,354 
L565.6,354 
L568.2,354 
L570.9,354 
L573.5,354 
L576.2,354 
L578.8,354 
L581.5,354 
" fill="none"/>
</g>
	<g clip-path="url(#plot_window)" stroke="rgb(127,255,0)" stroke-width="1">
	<path d="M55.7,354 L55.7,354 
L58.34,354 
L60.98,354 
L63.63,354 
L66.27,354 
L68.91,354 
L71.55,354 
L74.19,354 
L76.84,354 
L79.48,354 
L82.12,354 
L84.76,354 
L87.4,354 
L90.05,354 
L92.69,354 
L95.33,354 
L97.97,354 
L100.6,354 
L103.3,354 
L105.9,354 
L108.5,354 
L111.2,354 
L113.8,354 
L116.5,354 
L119.1,354 
L121.8,354 
L124.4,354 
L127,354 
L129.7,354 
L132.3,354 
L135,354 
L137.6,354 
L140.2,354 
L142.9,354 
L145.5,354 
L148.2,354 
L150.8,354 
L153.5,354 
L156.1,354 
L158.7,354 
L161.4,354 
L164,354 
L166.7,354 
L169.3,354 
L171.9,354 
L174.6,354 
L177.2,354 
L179.9,354 
L182.5,354 
L185.2,354 
L187.8,354 
L190.4,354 
L193.1,354 
L195.7,354 
L198.4,354 
L201,354 
L203.7,354 
L206.3,354 
L208.9,354 
L211.6,354 
L214.2,354 
L216.9,354 
L219.5,353.9 
L222.1,353.9 
L224.8,353.9 
L227.4,353.9 
L230.1,353.9 
L232.7,353.9 
L235.4,353.8 
L238,353.8 
L240.6,353.7 
L243.3,353.7 
L245.9,353.6 
L248.6,353.5 
L251.2,353.5 
L253.9,353.4 
L256.5,353.2 
L259.1,353.1 
L261.8,352.9 
L264.4,352.7 
L267.1,352.5 
L269.7,352.2 
L272.3,351.9 
L275,351.6 
L277.6,351.2 
L280.3,350.7 
L282.9,350.2 
L285.6,349.6 
L288.2,349 
L290.8,348.2 
L293.5,347.4 
L296.1,346.4 
L298.8,345.4 
L301.4,344.2 
L304,342.9 
L306.7,341.4 
L309.3,339.8 
L312,338 
L314.6,336 
L317.3,333.9 
L319.9,331.5 
L322.5,329 
L325.2,326.2 
L327.8,323.2 
L330.5,320 
L333.1,316.5 
L335.8,312.8 
L338.4,308.8 
L341,304.6 
L343.7,300.1 
L346.3,295.4 
L349,290.4 
L351.6,285.2 
L354.2,279.8 
L356.9,274.2 
L359.5,268.5 
L362.2,262.5 
L364.8,256.5 
L367.5,250.3 
L370.1,244.1 
L372.7,237.9 
L375.4,231.6 
L378,225.5 
L380.7,219.4 
L383.3,213.5 
L386,207.9 
L388.6,202.5 
L391.2,197.4 
L393.9,192.7 
L396.5,188.5 
L399.2,184.7 
L401.8,181.5 
L404.4,178.8 
L407.1,176.8 
L409.7,175.5 
L412.4,174.8 
L415,174.9 
L417.7,175.7 
L420.3,177.2 
L422.9,179.5 
L425.6,182.5 
L428.2,186.2 
L430.9,190.6 
L433.5,195.7 
L436.1,201.3 
L438.8,207.5 
L441.4,214.2 
L444.1,221.3 
L446.7,228.7 
L449.4,236.4 
L452,244.3 
L454.6,252.3 
L457.3,260.3 
L459.9,268.3 
L462.6,276.1 
L465.2,283.7 
L467.9,291 
L470.5,298 
L473.1,304.7 
L475.8,310.9 
L478.4,316.6 
L481.1,321.9 
L483.7,326.7 
L486.3,331 
L489,334.9 
L491.6,338.3 
L494.3,341.2 
L496.9,343.7 
L499.6,345.9 
L502.2,347.6 
L504.8,349.1 
L507.5,350.3 
L510.1,351.2 
L512.8,352 
L515.4,352.6 
L518.1,353 
L520.7,353.3 
L523.3,353.5 
L526,353.7 
L528.6,353.8 
L531.3,353.9 
L533.9,353.9 
L536.5,354 
L539.2,354 
L541.8,354 
L544.5,354 
L547.1,354 
L549.8,354 
L552.4,354 
L555,354 
L557.7,354 
L560.3,354 
L563,354 
L565.6,354 
L568.2,354 
L570.9,354 
L573.5,354 
L576.2,354 
L578.8,354 
L581.5,354 
" fill="none"/>
</g>
	<g clip-path="url(#plot_window)" stroke="rgb(0,0,139)" stroke-width="1">
	<path d="M55.7,354 L55.7,354 
L58.34,354 
L60.98,354 
L63.63,354 
L66.27,354 
L68.91,354 
L71.55,354 
L74.19,354 
L76.84,354 
L79.48,354 
L82.12,354 
L84.76,354 
L87.4,354 
L90.05,354 
L92.69,354 
L95.33,354 
L97.97,354 
L100.6,354 
L103.3,354 
L105.9,354 
L108.5,354 
L111.2,354 
L113.8,354 
L116.5,354 
L119.1,354 
L121.8,354 
L124.4,354 
L127,354 
L129.7,354 
L132.3,354 
L135,354 
L137.6,354 
L140.2,354 
L142.9,354 
L145.5,354 
L148.2,354 
L150.8,354 
L153.5,354 
L156.1,354 
L158.7,354 
L161.4,354 
L164,354 
L166.7,354 
L169.3,354 
L171.9,354 
L174.6,354 
L177.2,354 
L179.9,354 
L182.5,354 
L185.2,354 
L187.8,354 
L190.4,354 
L193.1,354 
L195.7,354 
L198.4,354 
L201,354 
L203.7,354 
L206.3,354 
L208.9,354 
L211.6,354 
L214.2,354 
L216.9,354 
L219.5,354 
L222.1,354 
L224.8,354 
L227.4,354 
L230.1,354 
L232.7,354 
L235.4,354 
L238,354 
L240.6,354 
L243.3,354 
L245.9,354 
L248.6,354 
L251.2,354 
L253.9,354 
L256.5,354 
L259.1,354 
L261.8,354 
L264.4,354 
L267.1,354 
L269.7,354 
L272.3,354 
L275,354 
L277.6,354 
L280.3,354 
L282.9,354 
L285.6,354 
L288.2,354 
L290.8,354 
L293.5,354 
L296.1,354 
L298.8,354 
L301.4,354 
L304,354 
L306.7,354 
L309.3,354 
L312,354 
L314.6,354 
L317.3,354 
L319.9,354 
L322.5,354 
L325.2,354 
L327.8,354 
L330.5,354 
L333.1,354 
L335.8,354 
L338.4,354 
L341,354 
L343.7,353.9 
L346.3,353.9 
L349,353.9 
L351.6,353.9 
L354.2,353.8 
L356.9,353.8 
L359.5,353.7 
L362.2,353.6 
L364.8,353.5 
L367.5,353.4 
L370.1,353.2 
L372.7,353 
L375.4,352.8 
L378,352.5 
L380.7,352.1 
L383.3,351.7 
L386,351.1 
L388.6,350.5 
L391.2,349.7 
L393.9,348.7 
L396.5,347.6 
L399.2,346.2 
L401.8,344.6 
L404.4,342.6 
L407.1,340.3 
L409.7,337.7 
L412.4,334.5 
L415,330.9 
L417.7,326.8 
L420.3,322 
L422.9,316.5 
L425.6,310.3 
L428.2,303.4 
L430.9,295.6 
L433.5,286.9 
L436.1,277.4 
L438.8,266.9 
L441.4,255.6 
L444.1,243.4 
L446.7,230.3 
L449.4,216.6 
L452,202.3 
L454.6,187.5 
L457.3,172.5 
L459.9,157.4 
L462.6,142.6 
L465.2,128.4 
L467.9,115 
L470.5,102.7 
L473.1,92.08 
L475.8,83.29 
L478.4,76.71 
L481.1,72.63 
L483.7,71.27 
L486.3,72.83 
L489,77.4 
L491.6,84.98 
L494.3,95.48 
L496.9,108.7 
L499.6,124.4 
L502.2,142.1 
L504.8,161.4 
L507.5,181.7 
L510.1,202.5 
L512.8,223.2 
L515.4,243.3 
L518.1,262.3 
L520.7,279.8 
L523.3,295.4 
L526,308.9 
L528.6,320.4 
L531.3,329.7 
L533.9,337.1 
L536.5,342.6 
L539.2,346.7 
L541.8,349.5 
L544.5,351.4 
L547.1,352.6 
L549.8,353.3 
L552.4,353.7 
L555,353.9 
L557.7,353.9 
L560.3,354 
L563,354 
L565.6,354 
L568.2,354 
L570.9,354 
L573.5,354 
L576.2,354 
L578.8,354 
L581.5,354 
" fill="none"/>
</g>
</g>
	<g id="plotPoints" clip-path="url(#plot_window)">
</g>
	<g id="legendBackground" stroke="rgb(119,136,153)" fill="rgb(255,255,255)" stroke-width="1">
	<rect x="590.1" y="43" width="145.9" height="102"/>
</g>
	<g id="legendPoints">
</g>
	<g id="legendLines">
	<g stroke="rgb(0,0,139)" stroke-width="1">
	<line x1="605.4" y1="62.75" x2="611.4" y2="62.75"/>
</g>
	<g stroke="rgb(139,0,0)" stroke-width="1">
	<line x1="605.4" y1="75.25" x2="611.4" y2="75.25"/>
</g>
	<g stroke="rgb(0,100,0)" stroke-width="1">
	<line x1="605.4" y1="87.75" x2="611.4" y2="87.75"/>
</g>
	<g stroke="rgb(255,140,0)" stroke-width="1">
	<line x1="605.4" y1="100.3" x2="611.4" y2="100.3"/>
</g>
	<g stroke="rgb(127,255,0)" stroke-width="1">
	<line x1="605.4" y1="112.8" x2="611.4" y2="112.8"/>
</g>
	<g stroke="rgb(0,0,139)" stroke-width="1">
	<line x1="605.4" y1="125.3" x2="611.4" y2="125.3"/>
</g>
</g>
	<g id="legendText">
	<text x="620.4" y="62.75" font-size="10" font-family="Lucida Sans Unicode" font-weight="normal" textLength="95.4">&#x3B1;=10, &#x3B2;=15, &#x3B4;=0
	</text>
	<text x="620.4" y="75.25" font-size="10" font-family="Lucida Sans Unicode" font-weight="normal" textLength="95.4">&#x3B1;=10, &#x3B2;=15, &#x3B4;=1
	</text>
	<text x="620.4" y="87.75" font-size="10" font-family="Lucida Sans Unicode" font-weight="normal" textLength="95.4">&#x3B1;=10, &#x3B2;=15, &#x3B4;=5
	</text>
	<text x="620.4" y="100.3" font-size="10" font-family="Lucida Sans Unicode" font-weight="normal" textLength="101.4">&#x3B1;=10, &#x3B2;=15, &#x3B4;=10
	</text>
	<text x="620.4" y="112.8" font-size="10" font-family="Lucida Sans Unicode" font-weight="normal" textLength="101.4">&#x3B1;=10, &#x3B2;=15, &#x3B4;=40
	</text>
	<text x="620.4" y="125.3" font-size="10" font-family="Lucida Sans Unicode" font-weight="normal" textLength="107.4">&#x3B1;=10, &#x3B2;=15, &#x3B4;=100
	</text>
</g>
	<g id="title">
	<text x="375" y="30" text-anchor="middle" font-size="20" font-family="Lucida Sans Unicode" font-weight="normal">Non Central Beta PDF
	</text>
</g>
	<g id="plotXValues">
</g>
	<g id="plotYValues">
</g>
</svg>
