<?xml version="1.0" encoding="UTF-8" standalone="no"?>
<svg width="750" height ="400" version="1.1"
xmlns:svg ="http://www.w3.org/2000/svg"
xmlns:rdf="http://www.w3.org/1999/02/22-rdf-syntax-ns#"
xmlns:cc="http://web.resource.org/cc/"
xmlns:dc="http://purl.org/dc/elements/1.1/"
xmlns ="http://www.w3.org/2000/svg"
>
<!-- SVG plot written using Boost.Plot program (Creator Jacob Voytko) --> 
<!-- Use, modification and distribution of Boost.Plot subject to the --> 
<!-- Boost Software License, Version 1.0.--> 
<!-- (See accompanying file LICENSE_1_0.txt --> 
<!-- or copy at http://www.boost.org/LICENSE_1_0.txt) --> 

<!-- SVG Plot Copyright John Maddock 2008 --> 
<meta name="copyright" content="John Maddock" />
<meta name="date" content="2008" />
<!-- Use, modification and distribution of this Scalable Vector Graphic file -->
<!-- are subject to the Boost Software License, Version 1.0. -->
<!-- (See accompanying file LICENSE_1_0.txt or copy at http://www.boost.org/LICENSE_1_0.txt) -->

<clipPath id="plot_window">	<rect x="71.1" y="44" width="503.6" height="309"/>
</clipPath>
	<g id="imageBackground" stroke="rgb(119,136,153)" fill="rgb(255,255,255)" stroke-width="2">
	<rect x="0" y="0" width="750" height="400"/>
</g>
	<g id="plotBackground" stroke="rgb(119,136,153)" fill="rgb(255,255,255)" stroke-width="2">
	<rect x="70.1" y="43" width="505.6" height="311"/>
</g>
	<g id="yMinorGrid" stroke="rgb(200,220,255)" stroke-width="0.5">
</g>
	<g id="yMajorGrid" stroke="rgb(200,220,255)" stroke-width="1">
</g>
	<g id="xMinorGrid" stroke="rgb(200,220,255)" stroke-width="0.5">
</g>
	<g id="xMajorGrid" stroke="rgb(200,220,255)" stroke-width="1">
</g>
	<g id="yAxis" stroke="rgb(0,0,0)" stroke-width="1">
	<line x1="70.1" y1="43" x2="70.1" y2="359"/>
	<line x1="70.1" y1="43" x2="70.1" y2="354"/>
</g>
	<g id="xAxis" stroke="rgb(0,0,0)" stroke-width="1">
	<line x1="65.1" y1="354" x2="575.7" y2="354"/>
	<line x1="65.1" y1="354" x2="575.7" y2="354"/>
</g>
	<g id="yMinorTicks" stroke="rgb(0,0,0)" stroke-width="1">
	<path d="M68.1,347.2 L70.1,347.2 
M68.1,340.5 L70.1,340.5 
M68.1,333.7 L70.1,333.7 
M68.1,326.9 L70.1,326.9 
M68.1,313.4 L70.1,313.4 
M68.1,306.6 L70.1,306.6 
M68.1,299.8 L70.1,299.8 
M68.1,293 L70.1,293 
M68.1,279.5 L70.1,279.5 
M68.1,272.7 L70.1,272.7 
M68.1,265.9 L70.1,265.9 
M68.1,259.2 L70.1,259.2 
M68.1,245.6 L70.1,245.6 
M68.1,238.9 L70.1,238.9 
M68.1,232.1 L70.1,232.1 
M68.1,225.3 L70.1,225.3 
M68.1,211.8 L70.1,211.8 
M68.1,205 L70.1,205 
M68.1,198.2 L70.1,198.2 
M68.1,191.4 L70.1,191.4 
M68.1,177.9 L70.1,177.9 
M68.1,171.1 L70.1,171.1 
M68.1,164.3 L70.1,164.3 
M68.1,157.6 L70.1,157.6 
M68.1,144 L70.1,144 
M68.1,137.3 L70.1,137.3 
M68.1,130.5 L70.1,130.5 
M68.1,123.7 L70.1,123.7 
M68.1,110.2 L70.1,110.2 
M68.1,103.4 L70.1,103.4 
M68.1,96.61 L70.1,96.61 
M68.1,89.84 L70.1,89.84 
M68.1,76.29 L70.1,76.29 
M68.1,69.52 L70.1,69.52 
M68.1,62.75 L70.1,62.75 
M68.1,55.97 L70.1,55.97 
M68.1,354 L70.1,354 
" fill="none"/>
</g>
	<g id="xMinorTicks" stroke="rgb(0,0,0)" stroke-width="1">
	<path d="M90.5,354 L90.5,356 
M110.9,354 L110.9,356 
M131.3,354 L131.3,356 
M151.7,354 L151.7,356 
M192.5,354 L192.5,356 
M212.9,354 L212.9,356 
M233.3,354 L233.3,356 
M253.7,354 L253.7,356 
M294.5,354 L294.5,356 
M314.9,354 L314.9,356 
M335.3,354 L335.3,356 
M355.7,354 L355.7,356 
M396.5,354 L396.5,356 
M416.9,354 L416.9,356 
M437.3,354 L437.3,356 
M457.7,354 L457.7,356 
M498.5,354 L498.5,356 
M518.9,354 L518.9,356 
M539.3,354 L539.3,356 
M559.7,354 L559.7,356 
" fill="none"/>
</g>
	<g id="yMajorTicks" stroke="rgb(0,0,0)" stroke-width="2">
	<path d="M65.1,354 L70.1,354 
M65.1,320.1 L70.1,320.1 
M65.1,286.3 L70.1,286.3 
M65.1,252.4 L70.1,252.4 
M65.1,218.5 L70.1,218.5 
M65.1,184.7 L70.1,184.7 
M65.1,150.8 L70.1,150.8 
M65.1,116.9 L70.1,116.9 
M65.1,83.07 L70.1,83.07 
M65.1,49.2 L70.1,49.2 
M65.1,354 L70.1,354 
" fill="none"/>
</g>
	<g id="xMajorTicks" stroke="rgb(0,0,0)" stroke-width="2">
	<path d="M70.1,354 L70.1,359 
M172.1,354 L172.1,359 
M274.1,354 L274.1,359 
M376.1,354 L376.1,359 
M478.1,354 L478.1,359 
M70.1,354 L70.1,359 
" fill="none"/>
</g>
	<g id="xTicksValues" font-size="12" font-family="Lucida Sans Unicode" text-anchor="middle">
	<text x="70.1" y="374.6">0
	</text>
	<text x="172.1" y="374.6">5
	</text>
	<text x="274.1" y="374.6">10
	</text>
	<text x="376.1" y="374.6">15
	</text>
	<text x="478.1" y="374.6">20
	</text>
	<text x="70.1" y="374.6">0
	</text>
</g>
	<g id="yTicksValues" font-size="12" font-family="Lucida Sans Unicode" text-anchor="end">
	<text x="59.1" y="356.4">0
	</text>
	<text x="59.1" y="322.5">0.1
	</text>
	<text x="59.1" y="288.7">0.2
	</text>
	<text x="59.1" y="254.8">0.3
	</text>
	<text x="59.1" y="220.9">0.4
	</text>
	<text x="59.1" y="187.1">0.5
	</text>
	<text x="59.1" y="153.2">0.6
	</text>
	<text x="59.1" y="119.3">0.7
	</text>
	<text x="59.1" y="85.47">0.8
	</text>
	<text x="59.1" y="51.6">0.9
	</text>
	<text x="59.1" y="356.4">0
	</text>
</g>
	<g id="yLabel">
	<text x="32.4" y="198.5" text-anchor="middle" transform="rotate(-90 32.4 198.5)" font-size="14" font-family="Lucida Sans Unicode">Probability
	</text>
</g>
	<g id="xLabel">
	<text x="322.9" y="387.1" text-anchor="middle" font-size="12" font-family="Lucida Sans Unicode">Random Variable
	</text>
</g>
	<g id="plotLines" stroke-width="2">
	<g clip-path="url(#plot_window)" stroke="rgb(0,0,139)" stroke-width="1">
	<path d="M70.1,354 L70.1,354 
L72.63,343.9 
L75.16,284.7 
L77.68,197.2 
L80.21,123.1 
L82.74,81.47 
L85.27,71.48 
L87.8,84.19 
L90.32,110 
L92.85,141.4 
L95.38,173.5 
L97.91,203.5 
L100.4,230.1 
L103,252.9 
L105.5,272.1 
L108,287.8 
L110.5,300.7 
L113.1,311.1 
L115.6,319.5 
L118.1,326.2 
L120.7,331.6 
L123.2,335.9 
L125.7,339.4 
L128.2,342.2 
L130.8,344.4 
L133.3,346.2 
L135.8,347.6 
L138.4,348.8 
L140.9,349.7 
L143.4,350.5 
L145.9,351.1 
L148.5,351.6 
L151,352 
L153.5,352.3 
L156.1,352.6 
L158.6,352.8 
L161.1,353 
L163.6,353.2 
L166.2,353.3 
L168.7,353.4 
L171.2,353.5 
L173.7,353.6 
L176.3,353.7 
L178.8,353.7 
L181.3,353.7 
L183.9,353.8 
L186.4,353.8 
L188.9,353.8 
L191.4,353.9 
L194,353.9 
L196.5,353.9 
L199,353.9 
L201.6,353.9 
L204.1,353.9 
L206.6,353.9 
L209.1,354 
L211.7,354 
L214.2,354 
L216.7,354 
L219.3,354 
L221.8,354 
L224.3,354 
L226.8,354 
L229.4,354 
L231.9,354 
L234.4,354 
L236.9,354 
L239.5,354 
L242,354 
L244.5,354 
L247.1,354 
L249.6,354 
L252.1,354 
L254.6,354 
L257.2,354 
L259.7,354 
L262.2,354 
L264.8,354 
L267.3,354 
L269.8,354 
L272.3,354 
L274.9,354 
L277.4,354 
L279.9,354 
L282.5,354 
L285,354 
L287.5,354 
L290,354 
L292.6,354 
L295.1,354 
L297.6,354 
L300.1,354 
L302.7,354 
L305.2,354 
L307.7,354 
L310.3,354 
L312.8,354 
L315.3,354 
L317.8,354 
L320.4,354 
L322.9,354 
L325.4,354 
L328,354 
L330.5,354 
L333,354 
L335.5,354 
L338.1,354 
L340.6,354 
L343.1,354 
L345.7,354 
L348.2,354 
L350.7,354 
L353.2,354 
L355.8,354 
L358.3,354 
L360.8,354 
L363.3,354 
L365.9,354 
L368.4,354 
L370.9,354 
L373.5,354 
L376,354 
L378.5,354 
L381,354 
L383.6,354 
L386.1,354 
L388.6,354 
L391.2,354 
L393.7,354 
L396.2,354 
L398.7,354 
L401.3,354 
L403.8,354 
L406.3,354 
L408.9,354 
L411.4,354 
L413.9,354 
L416.4,354 
L419,354 
L421.5,354 
L424,354 
L426.5,354 
L429.1,354 
L431.6,354 
L434.1,354 
L436.7,354 
L439.2,354 
L441.7,354 
L444.2,354 
L446.8,354 
L449.3,354 
L451.8,354 
L454.4,354 
L456.9,354 
L459.4,354 
L461.9,354 
L464.5,354 
L467,354 
L469.5,354 
L472.1,354 
L474.6,354 
L477.1,354 
L479.6,354 
L482.2,354 
L484.7,354 
L487.2,354 
L489.7,354 
L492.3,354 
L494.8,354 
L497.3,354 
L499.9,354 
L502.4,354 
L504.9,354 
L507.4,354 
L510,354 
L512.5,354 
L515,354 
L517.6,354 
L520.1,354 
L522.6,354 
L525.1,354 
L527.7,354 
L530.2,354 
L532.7,354 
L535.3,354 
L537.8,354 
L540.3,354 
L542.8,354 
L545.4,354 
L547.9,354 
L550.4,354 
L552.9,354 
L555.5,354 
L558,354 
L560.5,354 
L563.1,354 
L565.6,354 
L568.1,354 
L570.6,354 
L573.2,354 
L575.7,354 
" fill="none"/>
</g>
	<g clip-path="url(#plot_window)" stroke="rgb(139,0,0)" stroke-width="1">
	<path d="M70.1,354 L70.1,354 
L72.63,347.3 
L75.16,304.5 
L77.68,234 
L80.21,166.2 
L82.74,119.9 
L85.27,98.9 
L87.8,99.12 
L90.32,113.8 
L92.85,136.6 
L95.38,162.9 
L97.91,189.5 
L100.4,214.5 
L103,237 
L105.5,256.6 
L108,273.5 
L110.5,287.6 
L113.1,299.4 
L115.6,309.2 
L118.1,317.3 
L120.7,323.9 
L123.2,329.3 
L125.7,333.7 
L128.2,337.3 
L130.8,340.2 
L133.3,342.6 
L135.8,344.6 
L138.4,346.2 
L140.9,347.6 
L143.4,348.6 
L145.9,349.5 
L148.5,350.3 
L151,350.9 
L153.5,351.4 
L156.1,351.8 
L158.6,352.1 
L161.1,352.4 
L163.6,352.7 
L166.2,352.9 
L168.7,353 
L171.2,353.2 
L173.7,353.3 
L176.3,353.4 
L178.8,353.5 
L181.3,353.6 
L183.9,353.6 
L186.4,353.7 
L188.9,353.7 
L191.4,353.8 
L194,353.8 
L196.5,353.8 
L199,353.8 
L201.6,353.9 
L204.1,353.9 
L206.6,353.9 
L209.1,353.9 
L211.7,353.9 
L214.2,353.9 
L216.7,353.9 
L219.3,353.9 
L221.8,354 
L224.3,354 
L226.8,354 
L229.4,354 
L231.9,354 
L234.4,354 
L236.9,354 
L239.5,354 
L242,354 
L244.5,354 
L247.1,354 
L249.6,354 
L252.1,354 
L254.6,354 
L257.2,354 
L259.7,354 
L262.2,354 
L264.8,354 
L267.3,354 
L269.8,354 
L272.3,354 
L274.9,354 
L277.4,354 
L279.9,354 
L282.5,354 
L285,354 
L287.5,354 
L290,354 
L292.6,354 
L295.1,354 
L297.6,354 
L300.1,354 
L302.7,354 
L305.2,354 
L307.7,354 
L310.3,354 
L312.8,354 
L315.3,354 
L317.8,354 
L320.4,354 
L322.9,354 
L325.4,354 
L328,354 
L330.5,354 
L333,354 
L335.5,354 
L338.1,354 
L340.6,354 
L343.1,354 
L345.7,354 
L348.2,354 
L350.7,354 
L353.2,354 
L355.8,354 
L358.3,354 
L360.8,354 
L363.3,354 
L365.9,354 
L368.4,354 
L370.9,354 
L373.5,354 
L376,354 
L378.5,354 
L381,354 
L383.6,354 
L386.1,354 
L388.6,354 
L391.2,354 
L393.7,354 
L396.2,354 
L398.7,354 
L401.3,354 
L403.8,354 
L406.3,354 
L408.9,354 
L411.4,354 
L413.9,354 
L416.4,354 
L419,354 
L421.5,354 
L424,354 
L426.5,354 
L429.1,354 
L431.6,354 
L434.1,354 
L436.7,354 
L439.2,354 
L441.7,354 
L444.2,354 
L446.8,354 
L449.3,354 
L451.8,354 
L454.4,354 
L456.9,354 
L459.4,354 
L461.9,354 
L464.5,354 
L467,354 
L469.5,354 
L472.1,354 
L474.6,354 
L477.1,354 
L479.6,354 
L482.2,354 
L484.7,354 
L487.2,354 
L489.7,354 
L492.3,354 
L494.8,354 
L497.3,354 
L499.9,354 
L502.4,354 
L504.9,354 
L507.4,354 
L510,354 
L512.5,354 
L515,354 
L517.6,354 
L520.1,354 
L522.6,354 
L525.1,354 
L527.7,354 
L530.2,354 
L532.7,354 
L535.3,354 
L537.8,354 
L540.3,354 
L542.8,354 
L545.4,354 
L547.9,354 
L550.4,354 
L552.9,354 
L555.5,354 
L558,354 
L560.5,354 
L563.1,354 
L565.6,354 
L568.1,354 
L570.6,354 
L573.2,354 
L575.7,354 
" fill="none"/>
</g>
	<g clip-path="url(#plot_window)" stroke="rgb(0,100,0)" stroke-width="1">
	<path d="M70.1,354 L70.1,354 
L72.63,352.7 
L75.16,341.4 
L77.68,314.9 
L80.21,278 
L82.74,239.2 
L85.27,205.6 
L87.8,181.2 
L90.32,167 
L92.85,162.1 
L95.38,164.9 
L97.91,173.2 
L100.4,185.2 
L103,199.3 
L105.5,214.2 
L108,229.2 
L110.5,243.6 
L113.1,257 
L115.6,269.2 
L118.1,280.3 
L120.7,290.1 
L123.2,298.8 
L125.7,306.4 
L128.2,313 
L130.8,318.7 
L133.3,323.7 
L135.8,327.9 
L138.4,331.6 
L140.9,334.7 
L143.4,337.4 
L145.9,339.7 
L148.5,341.7 
L151,343.4 
L153.5,344.9 
L156.1,346.1 
L158.6,347.2 
L161.1,348.1 
L163.6,348.9 
L166.2,349.6 
L168.7,350.2 
L171.2,350.7 
L173.7,351.1 
L176.3,351.5 
L178.8,351.8 
L181.3,352.1 
L183.9,352.3 
L186.4,352.5 
L188.9,352.7 
L191.4,352.9 
L194,353 
L196.5,353.1 
L199,353.2 
L201.6,353.3 
L204.1,353.4 
L206.6,353.5 
L209.1,353.5 
L211.7,353.6 
L214.2,353.6 
L216.7,353.7 
L219.3,353.7 
L221.8,353.7 
L224.3,353.8 
L226.8,353.8 
L229.4,353.8 
L231.9,353.8 
L234.4,353.9 
L236.9,353.9 
L239.5,353.9 
L242,353.9 
L244.5,353.9 
L247.1,353.9 
L249.6,353.9 
L252.1,353.9 
L254.6,353.9 
L257.2,353.9 
L259.7,353.9 
L262.2,354 
L264.8,354 
L267.3,354 
L269.8,354 
L272.3,354 
L274.9,354 
L277.4,354 
L279.9,354 
L282.5,354 
L285,354 
L287.5,354 
L290,354 
L292.6,354 
L295.1,354 
L297.6,354 
L300.1,354 
L302.7,354 
L305.2,354 
L307.7,354 
L310.3,354 
L312.8,354 
L315.3,354 
L317.8,354 
L320.4,354 
L322.9,354 
L325.4,354 
L328,354 
L330.5,354 
L333,354 
L335.5,354 
L338.1,354 
L340.6,354 
L343.1,354 
L345.7,354 
L348.2,354 
L350.7,354 
L353.2,354 
L355.8,354 
L358.3,354 
L360.8,354 
L363.3,354 
L365.9,354 
L368.4,354 
L370.9,354 
L373.5,354 
L376,354 
L378.5,354 
L381,354 
L383.6,354 
L386.1,354 
L388.6,354 
L391.2,354 
L393.7,354 
L396.2,354 
L398.7,354 
L401.3,354 
L403.8,354 
L406.3,354 
L408.9,354 
L411.4,354 
L413.9,354 
L416.4,354 
L419,354 
L421.5,354 
L424,354 
L426.5,354 
L429.1,354 
L431.6,354 
L434.1,354 
L436.7,354 
L439.2,354 
L441.7,354 
L444.2,354 
L446.8,354 
L449.3,354 
L451.8,354 
L454.4,354 
L456.9,354 
L459.4,354 
L461.9,354 
L464.5,354 
L467,354 
L469.5,354 
L472.1,354 
L474.6,354 
L477.1,354 
L479.6,354 
L482.2,354 
L484.7,354 
L487.2,354 
L489.7,354 
L492.3,354 
L494.8,354 
L497.3,354 
L499.9,354 
L502.4,354 
L504.9,354 
L507.4,354 
L510,354 
L512.5,354 
L515,354 
L517.6,354 
L520.1,354 
L522.6,354 
L525.1,354 
L527.7,354 
L530.2,354 
L532.7,354 
L535.3,354 
L537.8,354 
L540.3,354 
L542.8,354 
L545.4,354 
L547.9,354 
L550.4,354 
L552.9,354 
L555.5,354 
L558,354 
L560.5,354 
L563.1,354 
L565.6,354 
L568.1,354 
L570.6,354 
L573.2,354 
L575.7,354 
" fill="none"/>
</g>
	<g clip-path="url(#plot_window)" stroke="rgb(255,140,0)" stroke-width="1">
	<path d="M70.1,354 L70.1,354 
L72.63,353.8 
L75.16,351.8 
L77.68,345.2 
L80.21,332.3 
L82.74,313.9 
L85.27,292.1 
L87.8,269.5 
L90.32,248.7 
L92.85,231.3 
L95.38,218.2 
L97.91,209.7 
L100.4,205.6 
L103,205.3 
L105.5,208.1 
L108,213.4 
L110.5,220.4 
L113.1,228.6 
L115.6,237.5 
L118.1,246.7 
L120.7,255.8 
L123.2,264.7 
L125.7,273.2 
L128.2,281.1 
L130.8,288.6 
L133.3,295.4 
L135.8,301.6 
L138.4,307.3 
L140.9,312.4 
L143.4,317 
L145.9,321.2 
L148.5,324.8 
L151,328.1 
L153.5,331.1 
L156.1,333.7 
L158.6,336 
L161.1,338 
L163.6,339.8 
L166.2,341.4 
L168.7,342.8 
L171.2,344.1 
L173.7,345.2 
L176.3,346.2 
L178.8,347 
L181.3,347.8 
L183.9,348.5 
L186.4,349.1 
L188.9,349.6 
L191.4,350.1 
L194,350.5 
L196.5,350.9 
L199,351.2 
L201.6,351.5 
L204.1,351.8 
L206.6,352 
L209.1,352.2 
L211.7,352.4 
L214.2,352.6 
L216.7,352.7 
L219.3,352.8 
L221.8,352.9 
L224.3,353.1 
L226.8,353.1 
L229.4,353.2 
L231.9,353.3 
L234.4,353.4 
L236.9,353.4 
L239.5,353.5 
L242,353.5 
L244.5,353.6 
L247.1,353.6 
L249.6,353.7 
L252.1,353.7 
L254.6,353.7 
L257.2,353.7 
L259.7,353.8 
L262.2,353.8 
L264.8,353.8 
L267.3,353.8 
L269.8,353.8 
L272.3,353.8 
L274.9,353.9 
L277.4,353.9 
L279.9,353.9 
L282.5,353.9 
L285,353.9 
L287.5,353.9 
L290,353.9 
L292.6,353.9 
L295.1,353.9 
L297.6,353.9 
L300.1,353.9 
L302.7,353.9 
L305.2,354 
L307.7,354 
L310.3,354 
L312.8,354 
L315.3,354 
L317.8,354 
L320.4,354 
L322.9,354 
L325.4,354 
L328,354 
L330.5,354 
L333,354 
L335.5,354 
L338.1,354 
L340.6,354 
L343.1,354 
L345.7,354 
L348.2,354 
L350.7,354 
L353.2,354 
L355.8,354 
L358.3,354 
L360.8,354 
L363.3,354 
L365.9,354 
L368.4,354 
L370.9,354 
L373.5,354 
L376,354 
L378.5,354 
L381,354 
L383.6,354 
L386.1,354 
L388.6,354 
L391.2,354 
L393.7,354 
L396.2,354 
L398.7,354 
L401.3,354 
L403.8,354 
L406.3,354 
L408.9,354 
L411.4,354 
L413.9,354 
L416.4,354 
L419,354 
L421.5,354 
L424,354 
L426.5,354 
L429.1,354 
L431.6,354 
L434.1,354 
L436.7,354 
L439.2,354 
L441.7,354 
L444.2,354 
L446.8,354 
L449.3,354 
L451.8,354 
L454.4,354 
L456.9,354 
L459.4,354 
L461.9,354 
L464.5,354 
L467,354 
L469.5,354 
L472.1,354 
L474.6,354 
L477.1,354 
L479.6,354 
L482.2,354 
L484.7,354 
L487.2,354 
L489.7,354 
L492.3,354 
L494.8,354 
L497.3,354 
L499.9,354 
L502.4,354 
L504.9,354 
L507.4,354 
L510,354 
L512.5,354 
L515,354 
L517.6,354 
L520.1,354 
L522.6,354 
L525.1,354 
L527.7,354 
L530.2,354 
L532.7,354 
L535.3,354 
L537.8,354 
L540.3,354 
L542.8,354 
L545.4,354 
L547.9,354 
L550.4,354 
L552.9,354 
L555.5,354 
L558,354 
L560.5,354 
L563.1,354 
L565.6,354 
L568.1,354 
L570.6,354 
L573.2,354 
L575.7,354 
" fill="none"/>
</g>
	<g clip-path="url(#plot_window)" stroke="rgb(127,255,0)" stroke-width="1">
	<path d="M70.1,354 L70.1,354 
L72.63,354 
L75.16,354 
L77.68,354 
L80.21,354 
L82.74,354 
L85.27,354 
L87.8,353.9 
L90.32,353.7 
L92.85,353.3 
L95.38,352.7 
L97.91,351.8 
L100.4,350.5 
L103,348.7 
L105.5,346.4 
L108,343.6 
L110.5,340.3 
L113.1,336.6 
L115.6,332.5 
L118.1,328.2 
L120.7,323.6 
L123.2,319 
L125.7,314.4 
L128.2,310 
L130.8,305.8 
L133.3,301.8 
L135.8,298.2 
L138.4,295 
L140.9,292.2 
L143.4,289.8 
L145.9,287.9 
L148.5,286.4 
L151,285.3 
L153.5,284.7 
L156.1,284.4 
L158.6,284.5 
L161.1,284.9 
L163.6,285.6 
L166.2,286.6 
L168.7,287.8 
L171.2,289.2 
L173.7,290.7 
L176.3,292.4 
L178.8,294.2 
L181.3,296.1 
L183.9,298.1 
L186.4,300.1 
L188.9,302.1 
L191.4,304.2 
L194,306.2 
L196.5,308.2 
L199,310.2 
L201.6,312.2 
L204.1,314.1 
L206.6,316 
L209.1,317.8 
L211.7,319.6 
L214.2,321.3 
L216.7,322.9 
L219.3,324.5 
L221.8,326 
L224.3,327.5 
L226.8,328.9 
L229.4,330.2 
L231.9,331.5 
L234.4,332.7 
L236.9,333.9 
L239.5,335 
L242,336 
L244.5,337 
L247.1,338 
L249.6,338.9 
L252.1,339.7 
L254.6,340.5 
L257.2,341.3 
L259.7,342 
L262.2,342.7 
L264.8,343.3 
L267.3,343.9 
L269.8,344.5 
L272.3,345 
L274.9,345.5 
L277.4,346 
L279.9,346.4 
L282.5,346.9 
L285,347.3 
L287.5,347.7 
L290,348 
L292.6,348.4 
L295.1,348.7 
L297.6,349 
L300.1,349.3 
L302.7,349.5 
L305.2,349.8 
L307.7,350 
L310.3,350.2 
L312.8,350.4 
L315.3,350.6 
L317.8,350.8 
L320.4,351 
L322.9,351.2 
L325.4,351.3 
L328,351.5 
L330.5,351.6 
L333,351.7 
L335.5,351.9 
L338.1,352 
L340.6,352.1 
L343.1,352.2 
L345.7,352.3 
L348.2,352.4 
L350.7,352.5 
L353.2,352.5 
L355.8,352.6 
L358.3,352.7 
L360.8,352.8 
L363.3,352.8 
L365.9,352.9 
L368.4,352.9 
L370.9,353 
L373.5,353.1 
L376,353.1 
L378.5,353.2 
L381,353.2 
L383.6,353.2 
L386.1,353.3 
L388.6,353.3 
L391.2,353.3 
L393.7,353.4 
L396.2,353.4 
L398.7,353.4 
L401.3,353.5 
L403.8,353.5 
L406.3,353.5 
L408.9,353.5 
L411.4,353.6 
L413.9,353.6 
L416.4,353.6 
L419,353.6 
L421.5,353.6 
L424,353.7 
L426.5,353.7 
L429.1,353.7 
L431.6,353.7 
L434.1,353.7 
L436.7,353.7 
L439.2,353.7 
L441.7,353.8 
L444.2,353.8 
L446.8,353.8 
L449.3,353.8 
L451.8,353.8 
L454.4,353.8 
L456.9,353.8 
L459.4,353.8 
L461.9,353.8 
L464.5,353.8 
L467,353.9 
L469.5,353.9 
L472.1,353.9 
L474.6,353.9 
L477.1,353.9 
L479.6,353.9 
L482.2,353.9 
L484.7,353.9 
L487.2,353.9 
L489.7,353.9 
L492.3,353.9 
L494.8,353.9 
L497.3,353.9 
L499.9,353.9 
L502.4,353.9 
L504.9,353.9 
L507.4,353.9 
L510,353.9 
L512.5,353.9 
L515,353.9 
L517.6,353.9 
L520.1,353.9 
L522.6,353.9 
L525.1,353.9 
L527.7,353.9 
L530.2,354 
L532.7,354 
L535.3,354 
L537.8,354 
L540.3,354 
L542.8,354 
L545.4,354 
L547.9,354 
L550.4,354 
L552.9,354 
L555.5,354 
L558,354 
L560.5,354 
L563.1,354 
L565.6,354 
L568.1,354 
L570.6,354 
L573.2,354 
L575.7,354 
" fill="none"/>
</g>
	<g clip-path="url(#plot_window)" stroke="rgb(0,0,139)" stroke-width="1">
	<path d="M70.1,354 L70.1,354 
L72.63,354 
L75.16,354 
L77.68,354 
L80.21,354 
L82.74,354 
L85.27,354 
L87.8,354 
L90.32,354 
L92.85,354 
L95.38,354 
L97.91,354 
L100.4,354 
L103,354 
L105.5,354 
L108,354 
L110.5,354 
L113.1,354 
L115.6,354 
L118.1,354 
L120.7,354 
L123.2,354 
L125.7,354 
L128.2,353.9 
L130.8,353.9 
L133.3,353.9 
L135.8,353.8 
L138.4,353.7 
L140.9,353.6 
L143.4,353.4 
L145.9,353.3 
L148.5,353 
L151,352.8 
L153.5,352.5 
L156.1,352.1 
L158.6,351.7 
L161.1,351.2 
L163.6,350.6 
L166.2,350 
L168.7,349.3 
L171.2,348.6 
L173.7,347.8 
L176.3,346.9 
L178.8,346 
L181.3,345 
L183.9,344 
L186.4,342.9 
L188.9,341.8 
L191.4,340.7 
L194,339.6 
L196.5,338.4 
L199,337.2 
L201.6,336.1 
L204.1,334.9 
L206.6,333.7 
L209.1,332.6 
L211.7,331.5 
L214.2,330.4 
L216.7,329.3 
L219.3,328.3 
L221.8,327.3 
L224.3,326.4 
L226.8,325.5 
L229.4,324.6 
L231.9,323.9 
L234.4,323.1 
L236.9,322.4 
L239.5,321.8 
L242,321.3 
L244.5,320.8 
L247.1,320.3 
L249.6,319.9 
L252.1,319.6 
L254.6,319.3 
L257.2,319.1 
L259.7,318.9 
L262.2,318.8 
L264.8,318.7 
L267.3,318.7 
L269.8,318.7 
L272.3,318.8 
L274.9,318.9 
L277.4,319 
L279.9,319.2 
L282.5,319.4 
L285,319.7 
L287.5,319.9 
L290,320.3 
L292.6,320.6 
L295.1,321 
L297.6,321.3 
L300.1,321.7 
L302.7,322.2 
L305.2,322.6 
L307.7,323.1 
L310.3,323.5 
L312.8,324 
L315.3,324.5 
L317.8,325 
L320.4,325.5 
L322.9,326 
L325.4,326.5 
L328,327.1 
L330.5,327.6 
L333,328.1 
L335.5,328.6 
L338.1,329.2 
L340.6,329.7 
L343.1,330.2 
L345.7,330.7 
L348.2,331.3 
L350.7,331.8 
L353.2,332.3 
L355.8,332.8 
L358.3,333.3 
L360.8,333.8 
L363.3,334.3 
L365.9,334.8 
L368.4,335.2 
L370.9,335.7 
L373.5,336.2 
L376,336.6 
L378.5,337.1 
L381,337.5 
L383.6,337.9 
L386.1,338.3 
L388.6,338.7 
L391.2,339.2 
L393.7,339.5 
L396.2,339.9 
L398.7,340.3 
L401.3,340.7 
L403.8,341 
L406.3,341.4 
L408.9,341.7 
L411.4,342.1 
L413.9,342.4 
L416.4,342.7 
L419,343.1 
L421.5,343.4 
L424,343.7 
L426.5,344 
L429.1,344.2 
L431.6,344.5 
L434.1,344.8 
L436.7,345 
L439.2,345.3 
L441.7,345.6 
L444.2,345.8 
L446.8,346 
L449.3,346.3 
L451.8,346.5 
L454.4,346.7 
L456.9,346.9 
L459.4,347.1 
L461.9,347.3 
L464.5,347.5 
L467,347.7 
L469.5,347.9 
L472.1,348.1 
L474.6,348.2 
L477.1,348.4 
L479.6,348.6 
L482.2,348.7 
L484.7,348.9 
L487.2,349 
L489.7,349.2 
L492.3,349.3 
L494.8,349.5 
L497.3,349.6 
L499.9,349.7 
L502.4,349.8 
L504.9,350 
L507.4,350.1 
L510,350.2 
L512.5,350.3 
L515,350.4 
L517.6,350.5 
L520.1,350.6 
L522.6,350.7 
L525.1,350.8 
L527.7,350.9 
L530.2,351 
L532.7,351.1 
L535.3,351.2 
L537.8,351.3 
L540.3,351.3 
L542.8,351.4 
L545.4,351.5 
L547.9,351.6 
L550.4,351.6 
L552.9,351.7 
L555.5,351.8 
L558,351.8 
L560.5,351.9 
L563.1,352 
L565.6,352 
L568.1,352.1 
L570.6,352.1 
L573.2,352.2 
L575.7,352.2 
" fill="none"/>
</g>
</g>
	<g id="plotPoints" clip-path="url(#plot_window)">
</g>
	<g id="legendBackground" stroke="rgb(119,136,153)" fill="rgb(255,255,255)" stroke-width="1">
	<rect x="581.7" y="43" width="154.3" height="102"/>
</g>
	<g id="legendPoints">
</g>
	<g id="legendLines">
	<g stroke="rgb(0,0,139)" stroke-width="1">
	<line x1="597" y1="62.75" x2="603" y2="62.75"/>
</g>
	<g stroke="rgb(139,0,0)" stroke-width="1">
	<line x1="597" y1="75.25" x2="603" y2="75.25"/>
</g>
	<g stroke="rgb(0,100,0)" stroke-width="1">
	<line x1="597" y1="87.75" x2="603" y2="87.75"/>
</g>
	<g stroke="rgb(255,140,0)" stroke-width="1">
	<line x1="597" y1="100.3" x2="603" y2="100.3"/>
</g>
	<g stroke="rgb(127,255,0)" stroke-width="1">
	<line x1="597" y1="112.8" x2="603" y2="112.8"/>
</g>
	<g stroke="rgb(0,0,139)" stroke-width="1">
	<line x1="597" y1="125.3" x2="603" y2="125.3"/>
</g>
</g>
	<g id="legendText">
	<text x="612" y="62.75" font-size="10" font-family="Lucida Sans Unicode" font-weight="normal" textLength="103.8">v1=10, v2=20, &#x3BB;=0
	</text>
	<text x="612" y="75.25" font-size="10" font-family="Lucida Sans Unicode" font-weight="normal" textLength="103.8">v1=10, v2=20, &#x3BB;=1
	</text>
	<text x="612" y="87.75" font-size="10" font-family="Lucida Sans Unicode" font-weight="normal" textLength="103.8">v1=10, v2=20, &#x3BB;=5
	</text>
	<text x="612" y="100.3" font-size="10" font-family="Lucida Sans Unicode" font-weight="normal" textLength="109.8">v1=10, v2=20, &#x3BB;=10
	</text>
	<text x="612" y="112.8" font-size="10" font-family="Lucida Sans Unicode" font-weight="normal" textLength="109.8">v1=10, v2=20, &#x3BB;=40
	</text>
	<text x="612" y="125.3" font-size="10" font-family="Lucida Sans Unicode" font-weight="normal" textLength="115.8">v1=10, v2=20, &#x3BB;=100
	</text>
</g>
	<g id="title">
	<text x="375" y="30" text-anchor="middle" font-size="20" font-family="Lucida Sans Unicode" font-weight="normal">Non Central F PDF
	</text>
</g>
	<g id="plotXValues">
</g>
	<g id="plotYValues">
</g>
</svg>
