<?xml version="1.0" encoding="UTF-8" standalone="no"?>
<svg width="750" height ="400" version="1.1"
xmlns:svg ="http://www.w3.org/2000/svg"
xmlns:rdf="http://www.w3.org/1999/02/22-rdf-syntax-ns#"
xmlns:cc="http://web.resource.org/cc/"
xmlns:dc="http://purl.org/dc/elements/1.1/"
xmlns ="http://www.w3.org/2000/svg"
>
<!-- SVG plot written using Boost.Plot program (Creator Jacob Voytko) --> 
<!-- Use, modification and distribution of Boost.Plot subject to the --> 
<!-- Boost Software License, Version 1.0.--> 
<!-- (See accompanying file LICENSE_1_0.txt --> 
<!-- or copy at http://www.boost.org/LICENSE_1_0.txt) --> 

<!-- SVG Plot Copyright John Maddock 2008 --> 
<meta name="copyright" content="John Maddock" />
<meta name="date" content="2008" />
<!-- Use, modification and distribution of this Scalable Vector Graphic file -->
<!-- are subject to the Boost Software License, Version 1.0. -->
<!-- (See accompanying file LICENSE_1_0.txt or copy at http://www.boost.org/LICENSE_1_0.txt) -->

<clipPath id="plot_window">	<rect x="71.1" y="44" width="551.6" height="309"/>
</clipPath>
	<g id="imageBackground" stroke="rgb(119,136,153)" fill="rgb(255,255,255)" stroke-width="2">
	<rect x="0" y="0" width="750" height="400"/>
</g>
	<g id="plotBackground" stroke="rgb(119,136,153)" fill="rgb(255,255,255)" stroke-width="2">
	<rect x="70.1" y="43" width="553.6" height="311"/>
</g>
	<g id="yMinorGrid" stroke="rgb(200,220,255)" stroke-width="0.5">
</g>
	<g id="yMajorGrid" stroke="rgb(200,220,255)" stroke-width="1">
</g>
	<g id="xMinorGrid" stroke="rgb(200,220,255)" stroke-width="0.5">
</g>
	<g id="xMajorGrid" stroke="rgb(200,220,255)" stroke-width="1">
</g>
	<g id="yAxis" stroke="rgb(0,0,0)" stroke-width="1">
	<line x1="346.9" y1="43" x2="346.9" y2="359"/>
	<line x1="70.1" y1="43" x2="70.1" y2="354"/>
</g>
	<g id="xAxis" stroke="rgb(0,0,0)" stroke-width="1">
	<line x1="65.1" y1="354" x2="623.7" y2="354"/>
	<line x1="65.1" y1="354" x2="623.7" y2="354"/>
</g>
	<g id="yMinorTicks" stroke="rgb(0,0,0)" stroke-width="1">
	<path d="M68.1,348.3 L70.1,348.3 
M68.1,342.7 L70.1,342.7 
M68.1,337 L70.1,337 
M68.1,331.4 L70.1,331.4 
M68.1,320.1 L70.1,320.1 
M68.1,314.4 L70.1,314.4 
M68.1,308.8 L70.1,308.8 
M68.1,303.1 L70.1,303.1 
M68.1,291.8 L70.1,291.8 
M68.1,286.1 L70.1,286.1 
M68.1,280.5 L70.1,280.5 
M68.1,274.8 L70.1,274.8 
M68.1,263.5 L70.1,263.5 
M68.1,257.9 L70.1,257.9 
M68.1,252.2 L70.1,252.2 
M68.1,246.6 L70.1,246.6 
M68.1,235.3 L70.1,235.3 
M68.1,229.6 L70.1,229.6 
M68.1,223.9 L70.1,223.9 
M68.1,218.3 L70.1,218.3 
M68.1,207 L70.1,207 
M68.1,201.3 L70.1,201.3 
M68.1,195.7 L70.1,195.7 
M68.1,190 L70.1,190 
M68.1,178.7 L70.1,178.7 
M68.1,173.1 L70.1,173.1 
M68.1,167.4 L70.1,167.4 
M68.1,161.7 L70.1,161.7 
M68.1,150.4 L70.1,150.4 
M68.1,144.8 L70.1,144.8 
M68.1,139.1 L70.1,139.1 
M68.1,133.5 L70.1,133.5 
M68.1,122.2 L70.1,122.2 
M68.1,116.5 L70.1,116.5 
M68.1,110.9 L70.1,110.9 
M68.1,105.2 L70.1,105.2 
M68.1,93.89 L70.1,93.89 
M68.1,88.24 L70.1,88.24 
M68.1,82.58 L70.1,82.58 
M68.1,76.93 L70.1,76.93 
M68.1,65.62 L70.1,65.62 
M68.1,59.96 L70.1,59.96 
M68.1,54.31 L70.1,54.31 
M68.1,48.65 L70.1,48.65 
M68.1,354 L70.1,354 
" fill="none"/>
</g>
	<g id="xMinorTicks" stroke="rgb(0,0,0)" stroke-width="1">
	<path d="M376.8,354 L376.8,356 
M406.7,354 L406.7,356 
M436.6,354 L436.6,356 
M466.6,354 L466.6,356 
M526.4,354 L526.4,356 
M556.3,354 L556.3,356 
M586.2,354 L586.2,356 
M616.1,354 L616.1,356 
M317,354 L317,356 
M287.1,354 L287.1,356 
M257.2,354 L257.2,356 
M227.2,354 L227.2,356 
M167.4,354 L167.4,356 
M137.5,354 L137.5,356 
M107.6,354 L107.6,356 
M77.66,354 L77.66,356 
" fill="none"/>
</g>
	<g id="yMajorTicks" stroke="rgb(0,0,0)" stroke-width="2">
	<path d="M65.1,354 L70.1,354 
M65.1,325.7 L70.1,325.7 
M65.1,297.5 L70.1,297.5 
M65.1,269.2 L70.1,269.2 
M65.1,240.9 L70.1,240.9 
M65.1,212.6 L70.1,212.6 
M65.1,184.4 L70.1,184.4 
M65.1,156.1 L70.1,156.1 
M65.1,127.8 L70.1,127.8 
M65.1,99.55 L70.1,99.55 
M65.1,71.27 L70.1,71.27 
M65.1,43 L70.1,43 
M65.1,354 L70.1,354 
" fill="none"/>
</g>
	<g id="xMajorTicks" stroke="rgb(0,0,0)" stroke-width="2">
	<path d="M346.9,354 L346.9,359 
M496.5,354 L496.5,359 
M346.9,354 L346.9,359 
M197.3,354 L197.3,359 
" fill="none"/>
</g>
	<g id="xTicksValues" font-size="12" font-family="Lucida Sans Unicode" text-anchor="middle">
	<text x="346.9" y="374.6">0
	</text>
	<text x="496.5" y="374.6">10
	</text>
	<text x="346.9" y="374.6">0
	</text>
	<text x="197.3" y="374.6">-10
	</text>
</g>
	<g id="yTicksValues" font-size="12" font-family="Lucida Sans Unicode" text-anchor="end">
	<text x="59.1" y="356.4">0
	</text>
	<text x="59.1" y="328.1">0.1
	</text>
	<text x="59.1" y="299.9">0.2
	</text>
	<text x="59.1" y="271.6">0.3
	</text>
	<text x="59.1" y="243.3">0.4
	</text>
	<text x="59.1" y="215">0.5
	</text>
	<text x="59.1" y="186.8">0.6
	</text>
	<text x="59.1" y="158.5">0.7
	</text>
	<text x="59.1" y="130.2">0.8
	</text>
	<text x="59.1" y="101.9">0.9
	</text>
	<text x="59.1" y="73.67">1
	</text>
	<text x="59.1" y="45.4">1.1
	</text>
	<text x="59.1" y="356.4">0
	</text>
</g>
	<g id="yLabel">
	<text x="32.4" y="198.5" text-anchor="middle" transform="rotate(-90 32.4 198.5)" font-size="14" font-family="Lucida Sans Unicode">Probability
	</text>
</g>
	<g id="xLabel">
	<text x="346.9" y="387.1" text-anchor="middle" font-size="12" font-family="Lucida Sans Unicode">Random Variable
	</text>
</g>
	<g id="plotLines" stroke-width="2">
	<g clip-path="url(#plot_window)" stroke="rgb(0,0,139)" stroke-width="1">
	<path d="M70.1,348.1 L70.1,348.1 
L72.87,347.7 
L75.64,347.2 
L78.4,346.7 
L81.17,346.1 
L83.94,345.5 
L86.71,344.9 
L89.48,344.2 
L92.24,343.4 
L95.01,342.6 
L97.78,341.7 
L100.5,340.7 
L103.3,339.7 
L106.1,338.6 
L108.9,337.3 
L111.6,336 
L114.4,334.6 
L117.2,333.1 
L119.9,331.5 
L122.7,329.7 
L125.5,327.8 
L128.2,325.7 
L131,323.5 
L133.8,321.1 
L136.5,318.5 
L139.3,315.8 
L142.1,312.8 
L144.8,309.7 
L147.6,306.3 
L150.4,302.6 
L153.1,298.8 
L155.9,294.6 
L158.7,290.2 
L161.4,285.5 
L164.2,280.5 
L167,275.2 
L169.7,269.6 
L172.5,263.7 
L175.3,257.5 
L178.1,251 
L180.8,244.1 
L183.6,237 
L186.4,229.6 
L189.1,221.9 
L191.9,214 
L194.7,205.9 
L197.4,197.6 
L200.2,189.1 
L203,180.6 
L205.7,172 
L208.5,163.5 
L211.3,155 
L214,146.7 
L216.8,138.6 
L219.6,130.7 
L222.3,123.3 
L225.1,116.2 
L227.9,109.6 
L230.6,103.5 
L233.4,97.99 
L236.2,93.05 
L238.9,88.71 
L241.7,84.96 
L244.5,81.79 
L247.3,79.17 
L250,77.06 
L252.8,75.39 
L255.6,74.12 
L258.3,73.17 
L261.1,72.5 
L263.9,72.03 
L266.6,71.72 
L269.4,71.53 
L272.2,71.41 
L274.9,71.34 
L277.7,71.31 
L280.5,71.29 
L283.2,71.28 
L286,71.28 
L288.8,71.27 
L291.5,71.27 
L294.3,71.27 
L297.1,71.27 
L299.8,71.27 
L302.6,71.27 
L305.4,71.27 
L308.1,71.27 
L310.9,71.27 
L313.7,71.27 
L316.5,71.27 
L319.2,71.27 
L322,71.27 
L324.8,71.27 
L327.5,71.27 
L330.3,71.27 
L333.1,71.27 
L335.8,71.27 
L338.6,71.27 
L341.4,71.27 
L344.1,71.27 
L346.9,71.27 
L349.7,71.27 
L352.4,71.27 
L355.2,71.27 
L358,71.27 
L360.7,71.27 
L363.5,71.27 
L366.3,71.27 
L369,71.27 
L371.8,71.27 
L374.6,71.27 
L377.3,71.27 
L380.1,71.27 
L382.9,71.27 
L385.7,71.27 
L388.4,71.27 
L391.2,71.27 
L394,71.27 
L396.7,71.27 
L399.5,71.27 
L402.3,71.27 
L405,71.27 
L407.8,71.27 
L410.6,71.27 
L413.3,71.27 
L416.1,71.27 
L418.9,71.27 
L421.6,71.27 
L424.4,71.27 
L427.2,71.27 
L429.9,71.27 
L432.7,71.27 
L435.5,71.27 
L438.2,71.27 
L441,71.27 
L443.8,71.27 
L446.5,71.27 
L449.3,71.27 
L452.1,71.27 
L454.9,71.27 
L457.6,71.27 
L460.4,71.27 
L463.2,71.27 
L465.9,71.27 
L468.7,71.27 
L471.5,71.27 
L474.2,71.27 
L477,71.27 
L479.8,71.27 
L482.5,71.27 
L485.3,71.27 
L488.1,71.27 
L490.8,71.27 
L493.6,71.27 
L496.4,71.27 
L499.1,71.27 
L501.9,71.27 
L504.7,71.27 
L507.4,71.27 
L510.2,71.27 
L513,71.27 
L515.7,71.27 
L518.5,71.27 
L521.3,71.27 
L524.1,71.27 
L526.8,71.27 
L529.6,71.27 
L532.4,71.27 
L535.1,71.27 
L537.9,71.27 
L540.7,71.27 
L543.4,71.27 
L546.2,71.27 
L549,71.27 
L551.7,71.27 
L554.5,71.27 
L557.3,71.27 
L560,71.27 
L562.8,71.27 
L565.6,71.27 
L568.3,71.27 
L571.1,71.27 
L573.9,71.27 
L576.6,71.27 
L579.4,71.27 
L582.2,71.27 
L584.9,71.27 
L587.7,71.27 
L590.5,71.27 
L593.3,71.27 
L596,71.27 
L598.8,71.27 
L601.6,71.27 
L604.3,71.27 
L607.1,71.27 
L609.9,71.27 
L612.6,71.27 
L615.4,71.27 
L618.2,71.27 
L620.9,71.27 
" fill="none"/>
</g>
	<g clip-path="url(#plot_window)" stroke="rgb(139,0,0)" stroke-width="1">
	<path d="M70.1,354 L70.1,354 
L72.87,354 
L75.64,354 
L78.4,354 
L81.17,353.9 
L83.94,353.9 
L86.71,353.9 
L89.48,353.9 
L92.24,353.9 
L95.01,353.9 
L97.78,353.9 
L100.5,353.9 
L103.3,353.9 
L106.1,353.9 
L108.9,353.9 
L111.6,353.8 
L114.4,353.8 
L117.2,353.8 
L119.9,353.8 
L122.7,353.8 
L125.5,353.7 
L128.2,353.7 
L131,353.7 
L133.8,353.6 
L136.5,353.6 
L139.3,353.6 
L142.1,353.5 
L144.8,353.4 
L147.6,353.4 
L150.4,353.3 
L153.1,353.2 
L155.9,353.1 
L158.7,353 
L161.4,352.9 
L164.2,352.8 
L167,352.6 
L169.7,352.4 
L172.5,352.2 
L175.3,352 
L178.1,351.7 
L180.8,351.4 
L183.6,351.1 
L186.4,350.7 
L189.1,350.3 
L191.9,349.7 
L194.7,349.2 
L197.4,348.5 
L200.2,347.7 
L203,346.9 
L205.7,345.9 
L208.5,344.8 
L211.3,343.5 
L214,342 
L216.8,340.3 
L219.6,338.4 
L222.3,336.1 
L225.1,333.6 
L227.9,330.8 
L230.6,327.5 
L233.4,323.8 
L236.2,319.6 
L238.9,314.9 
L241.7,309.5 
L244.5,303.6 
L247.3,296.9 
L250,289.4 
L252.8,281.2 
L255.6,272.1 
L258.3,262.2 
L261.1,251.5 
L263.9,239.9 
L266.6,227.6 
L269.4,214.7 
L272.2,201.3 
L274.9,187.5 
L277.7,173.6 
L280.5,159.8 
L283.2,146.4 
L286,133.7 
L288.8,121.8 
L291.5,111.2 
L294.3,101.9 
L297.1,93.98 
L299.8,87.54 
L302.6,82.49 
L305.4,78.69 
L308.1,75.96 
L310.9,74.1 
L313.7,72.9 
L316.5,72.16 
L319.2,71.73 
L322,71.5 
L324.8,71.38 
L327.5,71.32 
L330.3,71.29 
L333.1,71.28 
L335.8,71.28 
L338.6,71.27 
L341.4,71.27 
L344.1,71.27 
L346.9,71.27 
L349.7,71.27 
L352.4,71.27 
L355.2,71.27 
L358,71.27 
L360.7,71.27 
L363.5,71.27 
L366.3,71.27 
L369,71.27 
L371.8,71.27 
L374.6,71.27 
L377.3,71.27 
L380.1,71.27 
L382.9,71.27 
L385.7,71.27 
L388.4,71.27 
L391.2,71.27 
L394,71.27 
L396.7,71.27 
L399.5,71.27 
L402.3,71.27 
L405,71.27 
L407.8,71.27 
L410.6,71.27 
L413.3,71.27 
L416.1,71.27 
L418.9,71.27 
L421.6,71.27 
L424.4,71.27 
L427.2,71.27 
L429.9,71.27 
L432.7,71.27 
L435.5,71.27 
L438.2,71.27 
L441,71.27 
L443.8,71.27 
L446.5,71.27 
L449.3,71.27 
L452.1,71.27 
L454.9,71.27 
L457.6,71.27 
L460.4,71.27 
L463.2,71.27 
L465.9,71.27 
L468.7,71.27 
L471.5,71.27 
L474.2,71.27 
L477,71.27 
L479.8,71.27 
L482.5,71.27 
L485.3,71.27 
L488.1,71.27 
L490.8,71.27 
L493.6,71.27 
L496.4,71.27 
L499.1,71.27 
L501.9,71.27 
L504.7,71.27 
L507.4,71.27 
L510.2,71.27 
L513,71.27 
L515.7,71.27 
L518.5,71.27 
L521.3,71.27 
L524.1,71.27 
L526.8,71.27 
L529.6,71.27 
L532.4,71.27 
L535.1,71.27 
L537.9,71.27 
L540.7,71.27 
L543.4,71.27 
L546.2,71.27 
L549,71.27 
L551.7,71.27 
L554.5,71.27 
L557.3,71.27 
L560,71.27 
L562.8,71.27 
L565.6,71.27 
L568.3,71.27 
L571.1,71.27 
L573.9,71.27 
L576.6,71.27 
L579.4,71.27 
L582.2,71.27 
L584.9,71.27 
L587.7,71.27 
L590.5,71.27 
L593.3,71.27 
L596,71.27 
L598.8,71.27 
L601.6,71.27 
L604.3,71.27 
L607.1,71.27 
L609.9,71.27 
L612.6,71.27 
L615.4,71.27 
L618.2,71.27 
L620.9,71.27 
" fill="none"/>
</g>
	<g clip-path="url(#plot_window)" stroke="rgb(0,100,0)" stroke-width="1">
	<path d="M70.1,354 L70.1,354 
L72.87,354 
L75.64,354 
L78.4,354 
L81.17,354 
L83.94,354 
L86.71,354 
L89.48,354 
L92.24,354 
L95.01,354 
L97.78,354 
L100.5,354 
L103.3,354 
L106.1,354 
L108.9,354 
L111.6,354 
L114.4,354 
L117.2,354 
L119.9,354 
L122.7,354 
L125.5,354 
L128.2,354 
L131,354 
L133.8,354 
L136.5,354 
L139.3,354 
L142.1,354 
L144.8,354 
L147.6,354 
L150.4,354 
L153.1,354 
L155.9,354 
L158.7,354 
L161.4,354 
L164.2,354 
L167,354 
L169.7,354 
L172.5,354 
L175.3,354 
L178.1,354 
L180.8,354 
L183.6,354 
L186.4,354 
L189.1,354 
L191.9,354 
L194.7,354 
L197.4,354 
L200.2,354 
L203,354 
L205.7,354 
L208.5,354 
L211.3,354 
L214,354 
L216.8,354 
L219.6,354 
L222.3,354 
L225.1,354 
L227.9,354 
L230.6,354 
L233.4,354 
L236.2,354 
L238.9,354 
L241.7,354 
L244.5,354 
L247.3,354 
L250,354 
L252.8,354 
L255.6,354 
L258.3,354 
L261.1,354 
L263.9,354 
L266.6,354 
L269.4,353.9 
L272.2,353.9 
L274.9,353.9 
L277.7,353.9 
L280.5,353.8 
L283.2,353.8 
L286,353.7 
L288.8,353.6 
L291.5,353.4 
L294.3,353.2 
L297.1,352.9 
L299.8,352.5 
L302.6,352 
L305.4,351.2 
L308.1,350.2 
L310.9,348.8 
L313.7,346.8 
L316.5,344.2 
L319.2,340.7 
L322,336.1 
L324.8,330 
L327.5,322.3 
L330.3,312.6 
L333.1,300.8 
L335.8,286.7 
L338.6,270.5 
L341.4,252.4 
L344.1,232.9 
L346.9,212.6 
L349.7,192.4 
L352.4,172.9 
L355.2,154.8 
L358,138.6 
L360.7,124.5 
L363.5,112.7 
L366.3,103 
L369,95.24 
L371.8,89.2 
L374.6,84.56 
L377.3,81.05 
L380.1,78.43 
L382.9,76.5 
L385.7,75.08 
L388.4,74.04 
L391.2,73.29 
L394,72.74 
L396.7,72.35 
L399.5,72.06 
L402.3,71.85 
L405,71.7 
L407.8,71.59 
L410.6,71.51 
L413.3,71.45 
L416.1,71.41 
L418.9,71.37 
L421.6,71.35 
L424.4,71.33 
L427.2,71.32 
L429.9,71.31 
L432.7,71.3 
L435.5,71.29 
L438.2,71.29 
L441,71.29 
L443.8,71.28 
L446.5,71.28 
L449.3,71.28 
L452.1,71.28 
L454.9,71.28 
L457.6,71.28 
L460.4,71.28 
L463.2,71.27 
L465.9,71.27 
L468.7,71.27 
L471.5,71.27 
L474.2,71.27 
L477,71.27 
L479.8,71.27 
L482.5,71.27 
L485.3,71.27 
L488.1,71.27 
L490.8,71.27 
L493.6,71.27 
L496.4,71.27 
L499.1,71.27 
L501.9,71.27 
L504.7,71.27 
L507.4,71.27 
L510.2,71.27 
L513,71.27 
L515.7,71.27 
L518.5,71.27 
L521.3,71.27 
L524.1,71.27 
L526.8,71.27 
L529.6,71.27 
L532.4,71.27 
L535.1,71.27 
L537.9,71.27 
L540.7,71.27 
L543.4,71.27 
L546.2,71.27 
L549,71.27 
L551.7,71.27 
L554.5,71.27 
L557.3,71.27 
L560,71.27 
L562.8,71.27 
L565.6,71.27 
L568.3,71.27 
L571.1,71.27 
L573.9,71.27 
L576.6,71.27 
L579.4,71.27 
L582.2,71.27 
L584.9,71.27 
L587.7,71.27 
L590.5,71.27 
L593.3,71.27 
L596,71.27 
L598.8,71.27 
L601.6,71.27 
L604.3,71.27 
L607.1,71.27 
L609.9,71.27 
L612.6,71.27 
L615.4,71.27 
L618.2,71.27 
L620.9,71.27 
" fill="none"/>
</g>
	<g clip-path="url(#plot_window)" stroke="rgb(255,140,0)" stroke-width="1">
	<path d="M70.1,354 L70.1,354 
L72.87,354 
L75.64,354 
L78.4,354 
L81.17,354 
L83.94,354 
L86.71,354 
L89.48,354 
L92.24,354 
L95.01,354 
L97.78,354 
L100.5,354 
L103.3,354 
L106.1,354 
L108.9,354 
L111.6,354 
L114.4,354 
L117.2,354 
L119.9,354 
L122.7,354 
L125.5,354 
L128.2,354 
L131,354 
L133.8,354 
L136.5,354 
L139.3,354 
L142.1,354 
L144.8,354 
L147.6,354 
L150.4,354 
L153.1,354 
L155.9,354 
L158.7,354 
L161.4,354 
L164.2,354 
L167,354 
L169.7,354 
L172.5,354 
L175.3,354 
L178.1,354 
L180.8,354 
L183.6,354 
L186.4,354 
L189.1,354 
L191.9,354 
L194.7,354 
L197.4,354 
L200.2,354 
L203,354 
L205.7,354 
L208.5,354 
L211.3,354 
L214,354 
L216.8,354 
L219.6,354 
L222.3,354 
L225.1,354 
L227.9,354 
L230.6,354 
L233.4,354 
L236.2,354 
L238.9,354 
L241.7,354 
L244.5,354 
L247.3,354 
L250,354 
L252.8,354 
L255.6,354 
L258.3,354 
L261.1,354 
L263.9,354 
L266.6,354 
L269.4,354 
L272.2,354 
L274.9,354 
L277.7,354 
L280.5,354 
L283.2,354 
L286,354 
L288.8,354 
L291.5,354 
L294.3,354 
L297.1,354 
L299.8,354 
L302.6,354 
L305.4,354 
L308.1,354 
L310.9,354 
L313.7,354 
L316.5,354 
L319.2,354 
L322,354 
L324.8,354 
L327.5,354 
L330.3,354 
L333.1,354 
L335.8,354 
L338.6,354 
L341.4,354 
L344.1,354 
L346.9,354 
L349.7,354 
L352.4,354 
L355.2,354 
L358,354 
L360.7,354 
L363.5,354 
L366.3,354 
L369,353.9 
L371.8,353.8 
L374.6,353.5 
L377.3,353.1 
L380.1,352.4 
L382.9,351.2 
L385.7,349.3 
L388.4,346.6 
L391.2,342.8 
L394,337.7 
L396.7,331.3 
L399.5,323.4 
L402.3,314.1 
L405,303.4 
L407.8,291.6 
L410.6,278.9 
L413.3,265.5 
L416.1,251.7 
L418.9,237.8 
L421.6,224 
L424.4,210.6 
L427.2,197.6 
L429.9,185.3 
L432.7,173.8 
L435.5,163 
L438.2,153.1 
L441,144.1 
L443.8,135.8 
L446.5,128.4 
L449.3,121.7 
L452.1,115.7 
L454.9,110.4 
L457.6,105.7 
L460.4,101.5 
L463.2,97.77 
L465.9,94.51 
L468.7,91.65 
L471.5,89.13 
L474.2,86.92 
L477,84.99 
L479.8,83.29 
L482.5,81.81 
L485.3,80.52 
L488.1,79.38 
L490.8,78.39 
L493.6,77.53 
L496.4,76.77 
L499.1,76.11 
L501.9,75.53 
L504.7,75.02 
L507.4,74.57 
L510.2,74.18 
L513,73.84 
L515.7,73.54 
L518.5,73.28 
L521.3,73.05 
L524.1,72.85 
L526.8,72.67 
L529.6,72.51 
L532.4,72.37 
L535.1,72.25 
L537.9,72.14 
L540.7,72.05 
L543.4,71.97 
L546.2,71.89 
L549,71.83 
L551.7,71.77 
L554.5,71.71 
L557.3,71.67 
L560,71.63 
L562.8,71.59 
L565.6,71.56 
L568.3,71.53 
L571.1,71.5 
L573.9,71.48 
L576.6,71.46 
L579.4,71.44 
L582.2,71.43 
L584.9,71.41 
L587.7,71.4 
L590.5,71.39 
L593.3,71.38 
L596,71.37 
L598.8,71.36 
L601.6,71.35 
L604.3,71.34 
L607.1,71.34 
L609.9,71.33 
L612.6,71.33 
L615.4,71.32 
L618.2,71.32 
L620.9,71.31 
" fill="none"/>
</g>
	<g clip-path="url(#plot_window)" stroke="rgb(127,255,0)" stroke-width="1">
	<path d="M70.1,354 L70.1,354 
L72.87,354 
L75.64,354 
L78.4,354 
L81.17,354 
L83.94,354 
L86.71,354 
L89.48,354 
L92.24,354 
L95.01,354 
L97.78,354 
L100.5,354 
L103.3,354 
L106.1,354 
L108.9,354 
L111.6,354 
L114.4,354 
L117.2,354 
L119.9,354 
L122.7,354 
L125.5,354 
L128.2,354 
L131,354 
L133.8,354 
L136.5,354 
L139.3,354 
L142.1,354 
L144.8,354 
L147.6,354 
L150.4,354 
L153.1,354 
L155.9,354 
L158.7,354 
L161.4,354 
L164.2,354 
L167,354 
L169.7,354 
L172.5,354 
L175.3,354 
L178.1,354 
L180.8,354 
L183.6,354 
L186.4,354 
L189.1,354 
L191.9,354 
L194.7,354 
L197.4,354 
L200.2,354 
L203,354 
L205.7,354 
L208.5,354 
L211.3,354 
L214,354 
L216.8,354 
L219.6,354 
L222.3,354 
L225.1,354 
L227.9,354 
L230.6,354 
L233.4,354 
L236.2,354 
L238.9,354 
L241.7,354 
L244.5,354 
L247.3,354 
L250,354 
L252.8,354 
L255.6,354 
L258.3,354 
L261.1,354 
L263.9,354 
L266.6,354 
L269.4,354 
L272.2,354 
L274.9,354 
L277.7,354 
L280.5,354 
L283.2,354 
L286,354 
L288.8,354 
L291.5,354 
L294.3,354 
L297.1,354 
L299.8,354 
L302.6,354 
L305.4,354 
L308.1,354 
L310.9,354 
L313.7,354 
L316.5,354 
L319.2,354 
L322,354 
L324.8,354 
L327.5,354 
L330.3,354 
L333.1,354 
L335.8,354 
L338.6,354 
L341.4,354 
L344.1,354 
L346.9,354 
L349.7,354 
L352.4,354 
L355.2,354 
L358,354 
L360.7,354 
L363.5,354 
L366.3,354 
L369,354 
L371.8,354 
L374.6,354 
L377.3,354 
L380.1,354 
L382.9,354 
L385.7,354 
L388.4,354 
L391.2,354 
L394,354 
L396.7,354 
L399.5,354 
L402.3,354 
L405,354 
L407.8,354 
L410.6,354 
L413.3,354 
L416.1,354 
L418.9,353.9 
L421.6,353.9 
L424.4,353.7 
L427.2,353.5 
L429.9,353.2 
L432.7,352.8 
L435.5,352.1 
L438.2,351.2 
L441,349.9 
L443.8,348.2 
L446.5,346.1 
L449.3,343.5 
L452.1,340.3 
L454.9,336.6 
L457.6,332.2 
L460.4,327.3 
L463.2,321.8 
L465.9,315.7 
L468.7,309.1 
L471.5,302 
L474.2,294.5 
L477,286.7 
L479.8,278.6 
L482.5,270.3 
L485.3,261.8 
L488.1,253.2 
L490.8,244.7 
L493.6,236.1 
L496.4,227.7 
L499.1,219.4 
L501.9,211.3 
L504.7,203.3 
L507.4,195.7 
L510.2,188.3 
L513,181.1 
L515.7,174.3 
L518.5,167.8 
L521.3,161.6 
L524.1,155.7 
L526.8,150.1 
L529.6,144.8 
L532.4,139.8 
L535.1,135.1 
L537.9,130.7 
L540.7,126.5 
L543.4,122.6 
L546.2,119 
L549,115.6 
L551.7,112.4 
L554.5,109.5 
L557.3,106.7 
L560,104.2 
L562.8,101.8 
L565.6,99.56 
L568.3,97.5 
L571.1,95.59 
L573.9,93.82 
L576.6,92.17 
L579.4,90.65 
L582.2,89.24 
L584.9,87.93 
L587.7,86.71 
L590.5,85.59 
L593.3,84.55 
L596,83.58 
L598.8,82.69 
L601.6,81.87 
L604.3,81.1 
L607.1,80.39 
L609.9,79.74 
L612.6,79.13 
L615.4,78.57 
L618.2,78.05 
L620.9,77.57 
" fill="none"/>
</g>
	<g clip-path="url(#plot_window)" stroke="rgb(0,0,139)" stroke-width="1">
	<path d="M70.1,354 L70.1,354 
L72.87,354 
L75.64,354 
L78.4,354 
L81.17,354 
L83.94,354 
L86.71,354 
L89.48,354 
L92.24,354 
L95.01,354 
L97.78,354 
L100.5,354 
L103.3,354 
L106.1,354 
L108.9,354 
L111.6,354 
L114.4,354 
L117.2,354 
L119.9,354 
L122.7,354 
L125.5,354 
L128.2,354 
L131,354 
L133.8,354 
L136.5,354 
L139.3,354 
L142.1,354 
L144.8,354 
L147.6,354 
L150.4,354 
L153.1,354 
L155.9,354 
L158.7,354 
L161.4,354 
L164.2,354 
L167,354 
L169.7,354 
L172.5,354 
L175.3,354 
L178.1,354 
L180.8,354 
L183.6,354 
L186.4,354 
L189.1,354 
L191.9,354 
L194.7,354 
L197.4,354 
L200.2,354 
L203,354 
L205.7,354 
L208.5,354 
L211.3,354 
L214,354 
L216.8,354 
L219.6,354 
L222.3,354 
L225.1,354 
L227.9,354 
L230.6,354 
L233.4,354 
L236.2,354 
L238.9,354 
L241.7,354 
L244.5,354 
L247.3,354 
L250,354 
L252.8,354 
L255.6,354 
L258.3,354 
L261.1,354 
L263.9,354 
L266.6,354 
L269.4,354 
L272.2,354 
L274.9,354 
L277.7,354 
L280.5,354 
L283.2,354 
L286,354 
L288.8,354 
L291.5,354 
L294.3,354 
L297.1,354 
L299.8,354 
L302.6,354 
L305.4,354 
L308.1,354 
L310.9,354 
L313.7,354 
L316.5,354 
L319.2,354 
L322,354 
L324.8,354 
L327.5,354 
L330.3,354 
L333.1,354 
L335.8,354 
L338.6,354 
L341.4,354 
L344.1,354 
L346.9,354 
L349.7,354 
L352.4,354 
L355.2,354 
L358,354 
L360.7,354 
L363.5,354 
L366.3,354 
L369,354 
L371.8,354 
L374.6,354 
L377.3,354 
L380.1,354 
L382.9,354 
L385.7,354 
L388.4,354 
L391.2,354 
L394,354 
L396.7,354 
L399.5,354 
L402.3,354 
L405,354 
L407.8,354 
L410.6,354 
L413.3,354 
L416.1,354 
L418.9,354 
L421.6,354 
L424.4,354 
L427.2,354 
L429.9,354 
L432.7,354 
L435.5,354 
L438.2,354 
L441,354 
L443.8,354 
L446.5,354 
L449.3,354 
L452.1,354 
L454.9,354 
L457.6,354 
L460.4,354 
L463.2,354 
L465.9,354 
L468.7,354 
L471.5,354 
L474.2,354 
L477,354 
L479.8,354 
L482.5,354 
L485.3,354 
L488.1,354 
L490.8,354 
L493.6,354 
L496.4,354 
L499.1,354 
L501.9,354 
L504.7,354 
L507.4,354 
L510.2,354 
L513,354 
L515.7,354 
L518.5,353.9 
L521.3,353.9 
L524.1,353.8 
L526.8,353.6 
L529.6,353.2 
L532.4,352.7 
L535.1,351.8 
L537.9,350.4 
L540.7,348.2 
L543.4,345.1 
L546.2,340.7 
L549,334.8 
L551.7,326.9 
L554.5,316.9 
L557.3,304.6 
L560,290 
L562.8,273.2 
L565.6,254.6 
L568.3,234.6 
L571.1,213.8 
L573.9,193 
L576.6,172.9 
L579.4,154.1 
L582.2,137.1 
L584.9,122.2 
L587.7,109.6 
L590.5,99.38 
L593.3,91.29 
L596,85.12 
L598.8,80.57 
L601.6,77.33 
L604.3,75.1 
L607.1,73.62 
L609.9,72.67 
L612.6,72.08 
L615.4,71.72 
L618.2,71.52 
L620.9,71.4 
" fill="none"/>
</g>
</g>
	<g id="plotPoints" clip-path="url(#plot_window)">
</g>
	<g id="legendBackground" stroke="rgb(119,136,153)" fill="rgb(255,255,255)" stroke-width="1">
	<rect x="629.7" y="43" width="106.3" height="102"/>
</g>
	<g id="legendPoints">
</g>
	<g id="legendLines">
	<g stroke="rgb(0,0,139)" stroke-width="1">
	<line x1="645" y1="62.75" x2="651" y2="62.75"/>
</g>
	<g stroke="rgb(139,0,0)" stroke-width="1">
	<line x1="645" y1="75.25" x2="651" y2="75.25"/>
</g>
	<g stroke="rgb(0,100,0)" stroke-width="1">
	<line x1="645" y1="87.75" x2="651" y2="87.75"/>
</g>
	<g stroke="rgb(255,140,0)" stroke-width="1">
	<line x1="645" y1="100.3" x2="651" y2="100.3"/>
</g>
	<g stroke="rgb(127,255,0)" stroke-width="1">
	<line x1="645" y1="112.8" x2="651" y2="112.8"/>
</g>
	<g stroke="rgb(0,0,139)" stroke-width="1">
	<line x1="645" y1="125.3" x2="651" y2="125.3"/>
</g>
</g>
	<g id="legendText">
	<text x="660" y="62.75" font-size="10" font-family="Lucida Sans Unicode" font-weight="normal" textLength="67.8">v=10, &#x3B4;=-10
	</text>
	<text x="660" y="75.25" font-size="10" font-family="Lucida Sans Unicode" font-weight="normal" textLength="61.8">v=10, &#x3B4;=-5
	</text>
	<text x="660" y="87.75" font-size="10" font-family="Lucida Sans Unicode" font-weight="normal" textLength="55.8">v=10, &#x3B4;=0
	</text>
	<text x="660" y="100.3" font-size="10" font-family="Lucida Sans Unicode" font-weight="normal" textLength="55.8">v=10, &#x3B4;=5
	</text>
	<text x="660" y="112.8" font-size="10" font-family="Lucida Sans Unicode" font-weight="normal" textLength="61.8">v=10, &#x3B4;=10
	</text>
	<text x="660" y="125.3" font-size="10" font-family="Lucida Sans Unicode" font-weight="normal" textLength="67.8">v=inf, &#x3B4;=15
	</text>
</g>
	<g id="title">
	<text x="375" y="30" text-anchor="middle" font-size="20" font-family="Lucida Sans Unicode" font-weight="normal">Non Central T CDF
	</text>
</g>
	<g id="plotXValues">
</g>
	<g id="plotYValues">
</g>
</svg>
