<?xml version="1.0" encoding="UTF-8" standalone="no"?>
<svg width="750" height ="400" version="1.1"
xmlns:svg ="http://www.w3.org/2000/svg"
xmlns:rdf="http://www.w3.org/1999/02/22-rdf-syntax-ns#"
xmlns:cc="http://web.resource.org/cc/"
xmlns:dc="http://purl.org/dc/elements/1.1/"
xmlns ="http://www.w3.org/2000/svg"
>
<!-- SVG plot written using Boost.Plot program (Creator Jacob Voytko) --> 
<!-- Use, modification and distribution of Boost.Plot subject to the --> 
<!-- Boost Software License, Version 1.0.--> 
<!-- (See accompanying file LICENSE_1_0.txt --> 
<!-- or copy at http://www.boost.org/LICENSE_1_0.txt) --> 

<!-- SVG Plot Copyright John Maddock 2008 --> 
<meta name="copyright" content="John Maddock" />
<meta name="date" content="2008" />
<!-- Use, modification and distribution of this Scalable Vector Graphic file -->
<!-- are subject to the Boost Software License, Version 1.0. -->
<!-- (See accompanying file LICENSE_1_0.txt or copy at http://www.boost.org/LICENSE_1_0.txt) -->

<clipPath id="plot_window">	<rect x="78.3" y="44" width="544.4" height="309"/>
</clipPath>
	<g id="imageBackground" stroke="rgb(119,136,153)" fill="rgb(255,255,255)" stroke-width="2">
	<rect x="0" y="0" width="750" height="400"/>
</g>
	<g id="plotBackground" stroke="rgb(119,136,153)" fill="rgb(255,255,255)" stroke-width="2">
	<rect x="77.3" y="43" width="546.4" height="311"/>
</g>
	<g id="yMinorGrid" stroke="rgb(200,220,255)" stroke-width="0.5">
</g>
	<g id="yMajorGrid" stroke="rgb(200,220,255)" stroke-width="1">
</g>
	<g id="xMinorGrid" stroke="rgb(200,220,255)" stroke-width="0.5">
</g>
	<g id="xMajorGrid" stroke="rgb(200,220,255)" stroke-width="1">
</g>
	<g id="yAxis" stroke="rgb(0,0,0)" stroke-width="1">
	<line x1="77.3" y1="43" x2="77.3" y2="359"/>
	<line x1="77.3" y1="43" x2="77.3" y2="354"/>
</g>
	<g id="xAxis" stroke="rgb(0,0,0)" stroke-width="1">
	<line x1="72.3" y1="354" x2="623.7" y2="354"/>
	<line x1="72.3" y1="354" x2="623.7" y2="354"/>
</g>
	<g id="yMinorTicks" stroke="rgb(0,0,0)" stroke-width="1">
	<path d="M75.3,345.4 L77.3,345.4 
M75.3,336.8 L77.3,336.8 
M75.3,328.2 L77.3,328.2 
M75.3,319.7 L77.3,319.7 
M75.3,302.5 L77.3,302.5 
M75.3,293.9 L77.3,293.9 
M75.3,285.3 L77.3,285.3 
M75.3,276.7 L77.3,276.7 
M75.3,259.6 L77.3,259.6 
M75.3,251 L77.3,251 
M75.3,242.4 L77.3,242.4 
M75.3,233.8 L77.3,233.8 
M75.3,216.7 L77.3,216.7 
M75.3,208.1 L77.3,208.1 
M75.3,199.5 L77.3,199.5 
M75.3,190.9 L77.3,190.9 
M75.3,173.7 L77.3,173.7 
M75.3,165.2 L77.3,165.2 
M75.3,156.6 L77.3,156.6 
M75.3,148 L77.3,148 
M75.3,130.8 L77.3,130.8 
M75.3,122.2 L77.3,122.2 
M75.3,113.7 L77.3,113.7 
M75.3,105.1 L77.3,105.1 
M75.3,87.92 L77.3,87.92 
M75.3,79.33 L77.3,79.33 
M75.3,70.75 L77.3,70.75 
M75.3,62.16 L77.3,62.16 
M75.3,45 L77.3,45 
M75.3,354 L77.3,354 
" fill="none"/>
</g>
	<g id="xMinorTicks" stroke="rgb(0,0,0)" stroke-width="1">
	<path d="M108.7,354 L108.7,356 
M140.1,354 L140.1,356 
M171.5,354 L171.5,356 
M203,354 L203,356 
M265.8,354 L265.8,356 
M297.2,354 L297.2,356 
M328.6,354 L328.6,356 
M360,354 L360,356 
M422.9,354 L422.9,356 
M454.3,354 L454.3,356 
M485.7,354 L485.7,356 
M517.1,354 L517.1,356 
M580,354 L580,356 
M611.4,354 L611.4,356 
" fill="none"/>
</g>
	<g id="yMajorTicks" stroke="rgb(0,0,0)" stroke-width="2">
	<path d="M72.3,354 L77.3,354 
M72.3,311.1 L77.3,311.1 
M72.3,268.2 L77.3,268.2 
M72.3,225.2 L77.3,225.2 
M72.3,182.3 L77.3,182.3 
M72.3,139.4 L77.3,139.4 
M72.3,96.5 L77.3,96.5 
M72.3,53.58 L77.3,53.58 
M72.3,354 L77.3,354 
" fill="none"/>
</g>
	<g id="xMajorTicks" stroke="rgb(0,0,0)" stroke-width="2">
	<path d="M77.3,354 L77.3,359 
M234.4,354 L234.4,359 
M391.5,354 L391.5,359 
M548.5,354 L548.5,359 
M77.3,354 L77.3,359 
" fill="none"/>
</g>
	<g id="xTicksValues" font-size="12" font-family="Lucida Sans Unicode" text-anchor="middle">
	<text x="77.3" y="374.6">0
	</text>
	<text x="234.4" y="374.6">50
	</text>
	<text x="391.5" y="374.6">100
	</text>
	<text x="548.5" y="374.6">150
	</text>
	<text x="77.3" y="374.6">0
	</text>
</g>
	<g id="yTicksValues" font-size="12" font-family="Lucida Sans Unicode" text-anchor="end">
	<text x="66.3" y="356.4">0
	</text>
	<text x="66.3" y="313.5">0.01
	</text>
	<text x="66.3" y="270.6">0.02
	</text>
	<text x="66.3" y="227.6">0.03
	</text>
	<text x="66.3" y="184.7">0.04
	</text>
	<text x="66.3" y="141.8">0.05
	</text>
	<text x="66.3" y="98.9">0.06
	</text>
	<text x="66.3" y="55.98">0.07
	</text>
	<text x="66.3" y="356.4">0
	</text>
</g>
	<g id="yLabel">
	<text x="32.4" y="198.5" text-anchor="middle" transform="rotate(-90 32.4 198.5)" font-size="14" font-family="Lucida Sans Unicode">Probability
	</text>
</g>
	<g id="xLabel">
	<text x="350.5" y="387.1" text-anchor="middle" font-size="12" font-family="Lucida Sans Unicode">Random Variable
	</text>
</g>
	<g id="plotLines" stroke-width="2">
	<g clip-path="url(#plot_window)" stroke="rgb(0,0,139)" stroke-width="1">
	<path d="M77.3,354 L77.3,354 
L80.03,354 
L82.76,354 
L85.5,354 
L88.23,353.8 
L90.96,353.3 
L93.69,351.6 
L96.42,347.7 
L99.16,340.4 
L101.9,328.6 
L104.6,311.5 
L107.4,289.2 
L110.1,262.1 
L112.8,231.8 
L115.5,199.8 
L118.3,168.3 
L121,139.1 
L123.7,113.9 
L126.5,94.02 
L129.2,80.2 
L131.9,72.75 
L134.7,71.54 
L137.4,76.06 
L140.1,85.55 
L142.9,99.09 
L145.6,115.7 
L148.3,134.4 
L151.1,154.4 
L153.8,174.7 
L156.5,194.8 
L159.3,214.2 
L162,232.4 
L164.7,249.2 
L167.5,264.5 
L170.2,278.2 
L172.9,290.3 
L175.7,300.9 
L178.4,310 
L181.1,317.8 
L183.8,324.4 
L186.6,329.9 
L189.3,334.5 
L192,338.3 
L194.8,341.5 
L197.5,344 
L200.2,346.1 
L203,347.8 
L205.7,349.1 
L208.4,350.2 
L211.2,351 
L213.9,351.7 
L216.6,352.2 
L219.4,352.6 
L222.1,352.9 
L224.8,353.2 
L227.6,353.4 
L230.3,353.5 
L233,353.6 
L235.8,353.7 
L238.5,353.8 
L241.2,353.8 
L244,353.9 
L246.7,353.9 
L249.4,353.9 
L252.1,354 
L254.9,354 
L257.6,354 
L260.3,354 
L263.1,354 
L265.8,354 
L268.5,354 
L271.3,354 
L274,354 
L276.7,354 
L279.5,354 
L282.2,354 
L284.9,354 
L287.7,354 
L290.4,354 
L293.1,354 
L295.9,354 
L298.6,354 
L301.3,354 
L304.1,354 
L306.8,354 
L309.5,354 
L312.3,354 
L315,354 
L317.7,354 
L320.4,354 
L323.2,354 
L325.9,354 
L328.6,354 
L331.4,354 
L334.1,354 
L336.8,354 
L339.6,354 
L342.3,354 
L345,354 
L347.8,354 
L350.5,354 
L353.2,354 
L356,354 
L358.7,354 
L361.4,354 
L364.2,354 
L366.9,354 
L369.6,354 
L372.4,354 
L375.1,354 
L377.8,354 
L380.6,354 
L383.3,354 
L386,354 
L388.7,354 
L391.5,354 
L394.2,354 
L396.9,354 
L399.7,354 
L402.4,354 
L405.1,354 
L407.9,354 
L410.6,354 
L413.3,354 
L416.1,354 
L418.8,354 
L421.5,354 
L424.3,354 
L427,354 
L429.7,354 
L432.5,354 
L435.2,354 
L437.9,354 
L440.7,354 
L443.4,354 
L446.1,354 
L448.9,354 
L451.6,354 
L454.3,354 
L457,354 
L459.8,354 
L462.5,354 
L465.2,354 
L468,354 
L470.7,354 
L473.4,354 
L476.2,354 
L478.9,354 
L481.6,354 
L484.4,354 
L487.1,354 
L489.8,354 
L492.6,354 
L495.3,354 
L498,354 
L500.8,354 
L503.5,354 
L506.2,354 
L509,354 
L511.7,354 
L514.4,354 
L517.2,354 
L519.9,354 
L522.6,354 
L525.3,354 
L528.1,354 
L530.8,354 
L533.5,354 
L536.3,354 
L539,354 
L541.7,354 
L544.5,354 
L547.2,354 
L549.9,354 
L552.7,354 
L555.4,354 
L558.1,354 
L560.9,354 
L563.6,354 
L566.3,354 
L569.1,354 
L571.8,354 
L574.5,354 
L577.3,354 
L580,354 
L582.7,354 
L585.5,354 
L588.2,354 
L590.9,354 
L593.6,354 
L596.4,354 
L599.1,354 
L601.8,354 
L604.6,354 
L607.3,354 
L610,354 
L612.8,354 
L615.5,354 
L618.2,354 
L621,354 
L623.7,354 
" fill="none"/>
</g>
	<g clip-path="url(#plot_window)" stroke="rgb(139,0,0)" stroke-width="1">
	<path d="M77.3,354 L77.3,354 
L80.03,354 
L82.76,354 
L85.5,354 
L88.23,353.9 
L90.96,353.5 
L93.69,352.3 
L96.42,349.5 
L99.16,344.2 
L101.9,335.3 
L104.6,322 
L107.4,304.2 
L110.1,281.9 
L112.8,256 
L115.5,227.7 
L118.3,198.7 
L121,170.4 
L123.7,144.5 
L126.5,122.3 
L129.2,104.9 
L131.9,92.66 
L134.7,85.98 
L137.4,84.7 
L140.1,88.42 
L142.9,96.51 
L145.6,108.2 
L148.3,122.8 
L151.1,139.4 
L153.8,157.2 
L156.5,175.7 
L159.3,194.1 
L162,212.1 
L164.7,229.2 
L167.5,245.2 
L170.2,260 
L172.9,273.3 
L175.7,285.3 
L178.4,295.9 
L181.1,305.2 
L183.8,313.3 
L186.6,320.2 
L189.3,326.1 
L192,331.1 
L194.8,335.3 
L197.5,338.8 
L200.2,341.7 
L203,344.1 
L205.7,346.1 
L208.4,347.7 
L211.2,349 
L213.9,350 
L216.6,350.9 
L219.4,351.5 
L222.1,352.1 
L224.8,352.5 
L227.6,352.8 
L230.3,353.1 
L233,353.3 
L235.8,353.5 
L238.5,353.6 
L241.2,353.7 
L244,353.8 
L246.7,353.8 
L249.4,353.9 
L252.1,353.9 
L254.9,353.9 
L257.6,353.9 
L260.3,354 
L263.1,354 
L265.8,354 
L268.5,354 
L271.3,354 
L274,354 
L276.7,354 
L279.5,354 
L282.2,354 
L284.9,354 
L287.7,354 
L290.4,354 
L293.1,354 
L295.9,354 
L298.6,354 
L301.3,354 
L304.1,354 
L306.8,354 
L309.5,354 
L312.3,354 
L315,354 
L317.7,354 
L320.4,354 
L323.2,354 
L325.9,354 
L328.6,354 
L331.4,354 
L334.1,354 
L336.8,354 
L339.6,354 
L342.3,354 
L345,354 
L347.8,354 
L350.5,354 
L353.2,354 
L356,354 
L358.7,354 
L361.4,354 
L364.2,354 
L366.9,354 
L369.6,354 
L372.4,354 
L375.1,354 
L377.8,354 
L380.6,354 
L383.3,354 
L386,354 
L388.7,354 
L391.5,354 
L394.2,354 
L396.9,354 
L399.7,354 
L402.4,354 
L405.1,354 
L407.9,354 
L410.6,354 
L413.3,354 
L416.1,354 
L418.8,354 
L421.5,354 
L424.3,354 
L427,354 
L429.7,354 
L432.5,354 
L435.2,354 
L437.9,354 
L440.7,354 
L443.4,354 
L446.1,354 
L448.9,354 
L451.6,354 
L454.3,354 
L457,354 
L459.8,354 
L462.5,354 
L465.2,354 
L468,354 
L470.7,354 
L473.4,354 
L476.2,354 
L478.9,354 
L481.6,354 
L484.4,354 
L487.1,354 
L489.8,354 
L492.6,354 
L495.3,354 
L498,354 
L500.8,354 
L503.5,354 
L506.2,354 
L509,354 
L511.7,354 
L514.4,354 
L517.2,354 
L519.9,354 
L522.6,354 
L525.3,354 
L528.1,354 
L530.8,354 
L533.5,354 
L536.3,354 
L539,354 
L541.7,354 
L544.5,354 
L547.2,354 
L549.9,354 
L552.7,354 
L555.4,354 
L558.1,354 
L560.9,354 
L563.6,354 
L566.3,354 
L569.1,354 
L571.8,354 
L574.5,354 
L577.3,354 
L580,354 
L582.7,354 
L585.5,354 
L588.2,354 
L590.9,354 
L593.6,354 
L596.4,354 
L599.1,354 
L601.8,354 
L604.6,354 
L607.3,354 
L610,354 
L612.8,354 
L615.5,354 
L618.2,354 
L621,354 
L623.7,354 
" fill="none"/>
</g>
	<g clip-path="url(#plot_window)" stroke="rgb(0,100,0)" stroke-width="1">
	<path d="M77.3,354 L77.3,354 
L80.03,354 
L82.76,354 
L85.5,354 
L88.23,354 
L90.96,353.9 
L93.69,353.6 
L96.42,352.9 
L99.16,351.4 
L101.9,348.7 
L104.6,344.1 
L107.4,337.4 
L110.1,328 
L112.8,315.9 
L115.5,301.1 
L118.3,283.8 
L121,264.6 
L123.7,244.2 
L126.5,223.3 
L129.2,202.9 
L131.9,183.6 
L134.7,166.3 
L137.4,151.5 
L140.1,139.8 
L142.9,131.3 
L145.6,126.2 
L148.3,124.4 
L151.1,125.8 
L153.8,130 
L156.5,136.9 
L159.3,145.8 
L162,156.5 
L164.7,168.5 
L167.5,181.3 
L170.2,194.7 
L172.9,208.2 
L175.7,221.6 
L178.4,234.7 
L181.1,247.2 
L183.8,259 
L186.6,270.1 
L189.3,280.3 
L192,289.7 
L194.8,298.1 
L197.5,305.8 
L200.2,312.5 
L203,318.5 
L205.7,323.8 
L208.4,328.4 
L211.2,332.4 
L213.9,335.8 
L216.6,338.8 
L219.4,341.3 
L222.1,343.5 
L224.8,345.3 
L227.6,346.8 
L230.3,348.1 
L233,349.1 
L235.8,350 
L238.5,350.8 
L241.2,351.4 
L244,351.9 
L246.7,352.3 
L249.4,352.6 
L252.1,352.9 
L254.9,353.1 
L257.6,353.3 
L260.3,353.4 
L263.1,353.5 
L265.8,353.6 
L268.5,353.7 
L271.3,353.8 
L274,353.8 
L276.7,353.9 
L279.5,353.9 
L282.2,353.9 
L284.9,353.9 
L287.7,353.9 
L290.4,354 
L293.1,354 
L295.9,354 
L298.6,354 
L301.3,354 
L304.1,354 
L306.8,354 
L309.5,354 
L312.3,354 
L315,354 
L317.7,354 
L320.4,354 
L323.2,354 
L325.9,354 
L328.6,354 
L331.4,354 
L334.1,354 
L336.8,354 
L339.6,354 
L342.3,354 
L345,354 
L347.8,354 
L350.5,354 
L353.2,354 
L356,354 
L358.7,354 
L361.4,354 
L364.2,354 
L366.9,354 
L369.6,354 
L372.4,354 
L375.1,354 
L377.8,354 
L380.6,354 
L383.3,354 
L386,354 
L388.7,354 
L391.5,354 
L394.2,354 
L396.9,354 
L399.7,354 
L402.4,354 
L405.1,354 
L407.9,354 
L410.6,354 
L413.3,354 
L416.1,354 
L418.8,354 
L421.5,354 
L424.3,354 
L427,354 
L429.7,354 
L432.5,354 
L435.2,354 
L437.9,354 
L440.7,354 
L443.4,354 
L446.1,354 
L448.9,354 
L451.6,354 
L454.3,354 
L457,354 
L459.8,354 
L462.5,354 
L465.2,354 
L468,354 
L470.7,354 
L473.4,354 
L476.2,354 
L478.9,354 
L481.6,354 
L484.4,354 
L487.1,354 
L489.8,354 
L492.6,354 
L495.3,354 
L498,354 
L500.8,354 
L503.5,354 
L506.2,354 
L509,354 
L511.7,354 
L514.4,354 
L517.2,354 
L519.9,354 
L522.6,354 
L525.3,354 
L528.1,354 
L530.8,354 
L533.5,354 
L536.3,354 
L539,354 
L541.7,354 
L544.5,354 
L547.2,354 
L549.9,354 
L552.7,354 
L555.4,354 
L558.1,354 
L560.9,354 
L563.6,354 
L566.3,354 
L569.1,354 
L571.8,354 
L574.5,354 
L577.3,354 
L580,354 
L582.7,354 
L585.5,354 
L588.2,354 
L590.9,354 
L593.6,354 
L596.4,354 
L599.1,354 
L601.8,354 
L604.6,354 
L607.3,354 
L610,354 
L612.8,354 
L615.5,354 
L618.2,354 
L621,354 
L623.7,354 
" fill="none"/>
</g>
	<g clip-path="url(#plot_window)" stroke="rgb(255,140,0)" stroke-width="1">
	<path d="M77.3,354 L77.3,354 
L80.03,354 
L82.76,354 
L85.5,354 
L88.23,354 
L90.96,354 
L93.69,353.9 
L96.42,353.8 
L99.16,353.5 
L101.9,353 
L104.6,351.9 
L107.4,350.1 
L110.1,347.4 
L112.8,343.5 
L115.5,338.2 
L118.3,331.3 
L121,322.8 
L123.7,312.6 
L126.5,300.8 
L129.2,287.7 
L131.9,273.6 
L134.7,258.7 
L137.4,243.6 
L140.1,228.7 
L142.9,214.3 
L145.6,200.9 
L148.3,188.9 
L151.1,178.5 
L153.8,169.9 
L156.5,163.4 
L159.3,159.1 
L162,156.8 
L164.7,156.6 
L167.5,158.4 
L170.2,161.9 
L172.9,167 
L175.7,173.6 
L178.4,181.3 
L181.1,189.9 
L183.8,199.2 
L186.6,208.9 
L189.3,219 
L192,229.1 
L194.8,239.2 
L197.5,249 
L200.2,258.6 
L203,267.7 
L205.7,276.3 
L208.4,284.5 
L211.2,292 
L213.9,299 
L216.6,305.4 
L219.4,311.3 
L222.1,316.6 
L224.8,321.3 
L227.6,325.6 
L230.3,329.4 
L233,332.8 
L235.8,335.7 
L238.5,338.4 
L241.2,340.6 
L244,342.6 
L246.7,344.3 
L249.4,345.8 
L252.1,347.1 
L254.9,348.2 
L257.6,349.1 
L260.3,349.9 
L263.1,350.6 
L265.8,351.2 
L268.5,351.6 
L271.3,352 
L274,352.4 
L276.7,352.7 
L279.5,352.9 
L282.2,353.1 
L284.9,353.3 
L287.7,353.4 
L290.4,353.5 
L293.1,353.6 
L295.9,353.7 
L298.6,353.7 
L301.3,353.8 
L304.1,353.8 
L306.8,353.9 
L309.5,353.9 
L312.3,353.9 
L315,353.9 
L317.7,353.9 
L320.4,354 
L323.2,354 
L325.9,354 
L328.6,354 
L331.4,354 
L334.1,354 
L336.8,354 
L339.6,354 
L342.3,354 
L345,354 
L347.8,354 
L350.5,354 
L353.2,354 
L356,354 
L358.7,354 
L361.4,354 
L364.2,354 
L366.9,354 
L369.6,354 
L372.4,354 
L375.1,354 
L377.8,354 
L380.6,354 
L383.3,354 
L386,354 
L388.7,354 
L391.5,354 
L394.2,354 
L396.9,354 
L399.7,354 
L402.4,354 
L405.1,354 
L407.9,354 
L410.6,354 
L413.3,354 
L416.1,354 
L418.8,354 
L421.5,354 
L424.3,354 
L427,354 
L429.7,354 
L432.5,354 
L435.2,354 
L437.9,354 
L440.7,354 
L443.4,354 
L446.1,354 
L448.9,354 
L451.6,354 
L454.3,354 
L457,354 
L459.8,354 
L462.5,354 
L465.2,354 
L468,354 
L470.7,354 
L473.4,354 
L476.2,354 
L478.9,354 
L481.6,354 
L484.4,354 
L487.1,354 
L489.8,354 
L492.6,354 
L495.3,354 
L498,354 
L500.8,354 
L503.5,354 
L506.2,354 
L509,354 
L511.7,354 
L514.4,354 
L517.2,354 
L519.9,354 
L522.6,354 
L525.3,354 
L528.1,354 
L530.8,354 
L533.5,354 
L536.3,354 
L539,354 
L541.7,354 
L544.5,354 
L547.2,354 
L549.9,354 
L552.7,354 
L555.4,354 
L558.1,354 
L560.9,354 
L563.6,354 
L566.3,354 
L569.1,354 
L571.8,354 
L574.5,354 
L577.3,354 
L580,354 
L582.7,354 
L585.5,354 
L588.2,354 
L590.9,354 
L593.6,354 
L596.4,354 
L599.1,354 
L601.8,354 
L604.6,354 
L607.3,354 
L610,354 
L612.8,354 
L615.5,354 
L618.2,354 
L621,354 
L623.7,354 
" fill="none"/>
</g>
	<g clip-path="url(#plot_window)" stroke="rgb(127,255,0)" stroke-width="1">
	<path d="M77.3,354 L77.3,354 
L80.03,354 
L82.76,354 
L85.5,354 
L88.23,354 
L90.96,354 
L93.69,354 
L96.42,354 
L99.16,354 
L101.9,354 
L104.6,353.9 
L107.4,353.8 
L110.1,353.7 
L112.8,353.4 
L115.5,352.9 
L118.3,352.3 
L121,351.3 
L123.7,349.9 
L126.5,348 
L129.2,345.6 
L131.9,342.6 
L134.7,338.8 
L137.4,334.3 
L140.1,329 
L142.9,322.9 
L145.6,316 
L148.3,308.3 
L151.1,300.1 
L153.8,291.3 
L156.5,282.1 
L159.3,272.6 
L162,263.1 
L164.7,253.6 
L167.5,244.4 
L170.2,235.6 
L172.9,227.3 
L175.7,219.7 
L178.4,213 
L181.1,207.2 
L183.8,202.4 
L186.6,198.7 
L189.3,196.1 
L192,194.6 
L194.8,194.1 
L197.5,194.7 
L200.2,196.4 
L203,198.9 
L205.7,202.3 
L208.4,206.5 
L211.2,211.3 
L213.9,216.7 
L216.6,222.6 
L219.4,228.8 
L222.1,235.3 
L224.8,241.9 
L227.6,248.7 
L230.3,255.5 
L233,262.2 
L235.8,268.8 
L238.5,275.2 
L241.2,281.5 
L244,287.4 
L246.7,293.2 
L249.4,298.6 
L252.1,303.7 
L254.9,308.4 
L257.6,312.9 
L260.3,317 
L263.1,320.9 
L265.8,324.4 
L268.5,327.6 
L271.3,330.5 
L274,333.2 
L276.7,335.6 
L279.5,337.8 
L282.2,339.7 
L284.9,341.5 
L287.7,343.1 
L290.4,344.5 
L293.1,345.7 
L295.9,346.8 
L298.6,347.7 
L301.3,348.6 
L304.1,349.3 
L306.8,350 
L309.5,350.5 
L312.3,351 
L315,351.5 
L317.7,351.8 
L320.4,352.1 
L323.2,352.4 
L325.9,352.7 
L328.6,352.9 
L331.4,353 
L334.1,353.2 
L336.8,353.3 
L339.6,353.4 
L342.3,353.5 
L345,353.6 
L347.8,353.7 
L350.5,353.7 
L353.2,353.8 
L356,353.8 
L358.7,353.8 
L361.4,353.9 
L364.2,353.9 
L366.9,353.9 
L369.6,353.9 
L372.4,353.9 
L375.1,353.9 
L377.8,354 
L380.6,354 
L383.3,354 
L386,354 
L388.7,354 
L391.5,354 
L394.2,354 
L396.9,354 
L399.7,354 
L402.4,354 
L405.1,354 
L407.9,354 
L410.6,354 
L413.3,354 
L416.1,354 
L418.8,354 
L421.5,354 
L424.3,354 
L427,354 
L429.7,354 
L432.5,354 
L435.2,354 
L437.9,354 
L440.7,354 
L443.4,354 
L446.1,354 
L448.9,354 
L451.6,354 
L454.3,354 
L457,354 
L459.8,354 
L462.5,354 
L465.2,354 
L468,354 
L470.7,354 
L473.4,354 
L476.2,354 
L478.9,354 
L481.6,354 
L484.4,354 
L487.1,354 
L489.8,354 
L492.6,354 
L495.3,354 
L498,354 
L500.8,354 
L503.5,354 
L506.2,354 
L509,354 
L511.7,354 
L514.4,354 
L517.2,354 
L519.9,354 
L522.6,354 
L525.3,354 
L528.1,354 
L530.8,354 
L533.5,354 
L536.3,354 
L539,354 
L541.7,354 
L544.5,354 
L547.2,354 
L549.9,354 
L552.7,354 
L555.4,354 
L558.1,354 
L560.9,354 
L563.6,354 
L566.3,354 
L569.1,354 
L571.8,354 
L574.5,354 
L577.3,354 
L580,354 
L582.7,354 
L585.5,354 
L588.2,354 
L590.9,354 
L593.6,354 
L596.4,354 
L599.1,354 
L601.8,354 
L604.6,354 
L607.3,354 
L610,354 
L612.8,354 
L615.5,354 
L618.2,354 
L621,354 
L623.7,354 
" fill="none"/>
</g>
	<g clip-path="url(#plot_window)" stroke="rgb(0,0,139)" stroke-width="1">
	<path d="M77.3,354 L77.3,354 
L80.03,354 
L82.76,354 
L85.5,354 
L88.23,354 
L90.96,354 
L93.69,354 
L96.42,354 
L99.16,354 
L101.9,354 
L104.6,354 
L107.4,354 
L110.1,354 
L112.8,354 
L115.5,354 
L118.3,354 
L121,354 
L123.7,354 
L126.5,354 
L129.2,354 
L131.9,354 
L134.7,354 
L137.4,354 
L140.1,354 
L142.9,354 
L145.6,354 
L148.3,354 
L151.1,354 
L153.8,354 
L156.5,354 
L159.3,354 
L162,354 
L164.7,354 
L167.5,354 
L170.2,354 
L172.9,354 
L175.7,354 
L178.4,354 
L181.1,354 
L183.8,354 
L186.6,354 
L189.3,354 
L192,354 
L194.8,354 
L197.5,354 
L200.2,354 
L203,354 
L205.7,354 
L208.4,354 
L211.2,354 
L213.9,354 
L216.6,354 
L219.4,354 
L222.1,354 
L224.8,354 
L227.6,354 
L230.3,354 
L233,354 
L235.8,354 
L238.5,353.9 
L241.2,353.9 
L244,353.9 
L246.7,353.9 
L249.4,353.9 
L252.1,353.8 
L254.9,353.8 
L257.6,353.7 
L260.3,353.7 
L263.1,353.6 
L265.8,353.5 
L268.5,353.4 
L271.3,353.3 
L274,353.2 
L276.7,353.1 
L279.5,352.9 
L282.2,352.7 
L284.9,352.4 
L287.7,352.2 
L290.4,351.9 
L293.1,351.5 
L295.9,351.2 
L298.6,350.7 
L301.3,350.2 
L304.1,349.7 
L306.8,349.1 
L309.5,348.5 
L312.3,347.8 
L315,347 
L317.7,346.1 
L320.4,345.2 
L323.2,344.2 
L325.9,343.1 
L328.6,341.9 
L331.4,340.7 
L334.1,339.3 
L336.8,337.9 
L339.6,336.4 
L342.3,334.9 
L345,333.2 
L347.8,331.4 
L350.5,329.6 
L353.2,327.7 
L356,325.8 
L358.7,323.7 
L361.4,321.7 
L364.2,319.5 
L366.9,317.3 
L369.6,315.1 
L372.4,312.9 
L375.1,310.6 
L377.8,308.3 
L380.6,306 
L383.3,303.7 
L386,301.4 
L388.7,299.1 
L391.5,296.9 
L394.2,294.7 
L396.9,292.6 
L399.7,290.5 
L402.4,288.5 
L405.1,286.6 
L407.9,284.8 
L410.6,283 
L413.3,281.4 
L416.1,279.9 
L418.8,278.5 
L421.5,277.2 
L424.3,276 
L427,275 
L429.7,274.1 
L432.5,273.4 
L435.2,272.8 
L437.9,272.3 
L440.7,272 
L443.4,271.9 
L446.1,271.8 
L448.9,272 
L451.6,272.2 
L454.3,272.6 
L457,273.2 
L459.8,273.8 
L462.5,274.6 
L465.2,275.5 
L468,276.5 
L470.7,277.7 
L473.4,278.9 
L476.2,280.2 
L478.9,281.6 
L481.6,283.1 
L484.4,284.7 
L487.1,286.3 
L489.8,288 
L492.6,289.8 
L495.3,291.6 
L498,293.4 
L500.8,295.2 
L503.5,297.1 
L506.2,299 
L509,300.9 
L511.7,302.8 
L514.4,304.7 
L517.2,306.6 
L519.9,308.5 
L522.6,310.4 
L525.3,312.2 
L528.1,314 
L530.8,315.8 
L533.5,317.5 
L536.3,319.3 
L539,320.9 
L541.7,322.6 
L544.5,324.2 
L547.2,325.7 
L549.9,327.2 
L552.7,328.6 
L555.4,330 
L558.1,331.4 
L560.9,332.7 
L563.6,333.9 
L566.3,335.1 
L569.1,336.2 
L571.8,337.3 
L574.5,338.4 
L577.3,339.4 
L580,340.3 
L582.7,341.2 
L585.5,342 
L588.2,342.9 
L590.9,343.6 
L593.6,344.3 
L596.4,345 
L599.1,345.7 
L601.8,346.3 
L604.6,346.8 
L607.3,347.4 
L610,347.8 
L612.8,348.3 
L615.5,348.8 
L618.2,349.2 
L621,349.5 
L623.7,349.9 
" fill="none"/>
</g>
</g>
	<g id="plotPoints" clip-path="url(#plot_window)">
</g>
	<g id="legendBackground" stroke="rgb(119,136,153)" fill="rgb(255,255,255)" stroke-width="1">
	<rect x="629.7" y="43" width="106.3" height="102"/>
</g>
	<g id="legendPoints">
</g>
	<g id="legendLines">
	<g stroke="rgb(0,0,139)" stroke-width="1">
	<line x1="645" y1="62.75" x2="651" y2="62.75"/>
</g>
	<g stroke="rgb(139,0,0)" stroke-width="1">
	<line x1="645" y1="75.25" x2="651" y2="75.25"/>
</g>
	<g stroke="rgb(0,100,0)" stroke-width="1">
	<line x1="645" y1="87.75" x2="651" y2="87.75"/>
</g>
	<g stroke="rgb(255,140,0)" stroke-width="1">
	<line x1="645" y1="100.3" x2="651" y2="100.3"/>
</g>
	<g stroke="rgb(127,255,0)" stroke-width="1">
	<line x1="645" y1="112.8" x2="651" y2="112.8"/>
</g>
	<g stroke="rgb(0,0,139)" stroke-width="1">
	<line x1="645" y1="125.3" x2="651" y2="125.3"/>
</g>
</g>
	<g id="legendText">
	<text x="660" y="62.75" font-size="10" font-family="Lucida Sans Unicode" font-weight="normal" textLength="55.8">v=20, &#x3BB;=0
	</text>
	<text x="660" y="75.25" font-size="10" font-family="Lucida Sans Unicode" font-weight="normal" textLength="55.8">v=20, &#x3BB;=1
	</text>
	<text x="660" y="87.75" font-size="10" font-family="Lucida Sans Unicode" font-weight="normal" textLength="55.8">v=20, &#x3BB;=5
	</text>
	<text x="660" y="100.3" font-size="10" font-family="Lucida Sans Unicode" font-weight="normal" textLength="61.8">v=20, &#x3BB;=10
	</text>
	<text x="660" y="112.8" font-size="10" font-family="Lucida Sans Unicode" font-weight="normal" textLength="61.8">v=20, &#x3BB;=20
	</text>
	<text x="660" y="125.3" font-size="10" font-family="Lucida Sans Unicode" font-weight="normal" textLength="67.8">v=20, &#x3BB;=100
	</text>
</g>
	<g id="title">
	<text x="375" y="30" text-anchor="middle" font-size="20" font-family="Lucida Sans Unicode" font-weight="normal">Non Central Chi Squared PDF
	</text>
</g>
	<g id="plotXValues">
</g>
	<g id="plotYValues">
</g>
</svg>
