<?xml version="1.0" encoding="UTF-8" standalone="no"?>
<svg width="750" height ="400" version="1.1"
xmlns:svg ="http://www.w3.org/2000/svg"
xmlns:rdf="http://www.w3.org/1999/02/22-rdf-syntax-ns#"
xmlns:cc="http://web.resource.org/cc/"
xmlns:dc="http://purl.org/dc/elements/1.1/"
xmlns ="http://www.w3.org/2000/svg"
>
<!-- SVG plot written using Boost.Plot program (Creator Jacob Voytko) --> 
<!-- Use, modification and distribution of Boost.Plot subject to the --> 
<!-- Boost Software License, Version 1.0.--> 
<!-- (See accompanying file LICENSE_1_0.txt --> 
<!-- or copy at http://www.boost.org/LICENSE_1_0.txt) --> 

<!-- SVG Plot Copyright John Maddock 2008 --> 
<meta name="copyright" content="John Maddock" />
<meta name="date" content="2008" />
<!-- Use, modification and distribution of this Scalable Vector Graphic file -->
<!-- are subject to the Boost Software License, Version 1.0. -->
<!-- (See accompanying file LICENSE_1_0.txt or copy at http://www.boost.org/LICENSE_1_0.txt) -->

<clipPath id="plot_window">	<rect x="78.3" y="44" width="546.2" height="309"/>
</clipPath>
	<g id="imageBackground" stroke="rgb(119,136,153)" fill="rgb(255,255,255)" stroke-width="2">
	<rect x="0" y="0" width="750" height="400"/>
</g>
	<g id="plotBackground" stroke="rgb(119,136,153)" fill="rgb(255,255,255)" stroke-width="2">
	<rect x="77.3" y="43" width="548.2" height="311"/>
</g>
	<g id="yMinorGrid" stroke="rgb(200,220,255)" stroke-width="0.5">
</g>
	<g id="yMajorGrid" stroke="rgb(200,220,255)" stroke-width="1">
</g>
	<g id="xMinorGrid" stroke="rgb(200,220,255)" stroke-width="0.5">
</g>
	<g id="xMajorGrid" stroke="rgb(200,220,255)" stroke-width="1">
</g>
	<g id="yAxis" stroke="rgb(0,0,0)" stroke-width="1">
	<line x1="80" y1="43" x2="80" y2="359"/>
	<line x1="77.3" y1="43" x2="77.3" y2="354"/>
</g>
	<g id="xAxis" stroke="rgb(0,0,0)" stroke-width="1">
	<line x1="72.3" y1="354" x2="625.5" y2="354"/>
	<line x1="72.3" y1="354" x2="625.5" y2="354"/>
</g>
	<g id="yMinorTicks" stroke="rgb(0,0,0)" stroke-width="1">
	<path d="M75.3,333.4 L77.3,333.4 
M75.3,312.8 L77.3,312.8 
M75.3,292.1 L77.3,292.1 
M75.3,271.5 L77.3,271.5 
M75.3,230.3 L77.3,230.3 
M75.3,209.7 L77.3,209.7 
M75.3,189 L77.3,189 
M75.3,168.4 L77.3,168.4 
M75.3,127.2 L77.3,127.2 
M75.3,106.6 L77.3,106.6 
M75.3,85.94 L77.3,85.94 
M75.3,65.32 L77.3,65.32 
M75.3,354 L77.3,354 
" fill="none"/>
</g>
	<g id="xMinorTicks" stroke="rgb(0,0,0)" stroke-width="1">
</g>
	<g id="yMajorTicks" stroke="rgb(0,0,0)" stroke-width="2">
	<path d="M72.3,354 L77.3,354 
M72.3,250.9 L77.3,250.9 
M72.3,147.8 L77.3,147.8 
M72.3,44.7 L77.3,44.7 
M72.3,354 L77.3,354 
" fill="none"/>
</g>
	<g id="xMajorTicks" stroke="rgb(0,0,0)" stroke-width="2">
	<path d="M80,354 L80,359 
M349.5,354 L349.5,359 
M619,354 L619,359 
M80,354 L80,359 
" fill="none"/>
</g>
	<g id="xTicksValues" font-size="12" font-family="Lucida Sans Unicode" text-anchor="middle">
	<text x="80" y="374.6">0
	</text>
	<text x="349.5" y="374.6">50
	</text>
	<text x="619" y="374.6">100
	</text>
	<text x="80" y="374.6">0
	</text>
</g>
	<g id="yTicksValues" font-size="12" font-family="Lucida Sans Unicode" text-anchor="end">
	<text x="66.3" y="356.4">0
	</text>
	<text x="66.3" y="253.3">0.05
	</text>
	<text x="66.3" y="150.2">0.1
	</text>
	<text x="66.3" y="47.1">0.15
	</text>
	<text x="66.3" y="356.4">0
	</text>
</g>
	<g id="yLabel">
	<text x="32.4" y="198.5" text-anchor="middle" transform="rotate(-90 32.4 198.5)" font-size="14" font-family="Lucida Sans Unicode">Probability
	</text>
</g>
	<g id="xLabel">
	<text x="351.4" y="387.1" text-anchor="middle" font-size="12" font-family="Lucida Sans Unicode">Random Variable
	</text>
</g>
	<g id="plotLines" stroke-width="2">
	<g clip-path="url(#plot_window)" stroke="rgb(0,0,139)" fill="rgb(0,0,139)" stroke-width="1">
	<path d="M77.97,354 L77.97,354 
L77.97,354 
L77.97,354 
L79.32,354 
L79.32,354 
L83.36,354 
L83.36,354 
L84.71,354 
L84.71,354 
L88.75,354 
L88.75,354 
L90.1,354 
L90.1,354 
L94.15,354 
L94.15,354 
L95.49,354 
L95.49,354 
L99.54,354 
L99.54,354 
L100.9,354 
L100.9,354 
L104.9,354 
L104.9,354 
L106.3,354 
L106.3,354 
L110.3,354 
L110.3,354 
L111.7,354 
L111.7,354 
L115.7,354 
L115.7,354 
L117.1,354 
L117.1,354 
L121.1,354 
L121.1,354 
L122.4,354 
L122.4,354 
L126.5,354 
L126.5,354 
L127.8,354 
L127.8,354 
L131.9,354 
L131.9,354 
L133.2,354 
L133.2,354 
L137.3,354 
L137.3,354 
L138.6,354 
L138.6,354 
L142.7,354 
L142.7,354 
L144,354 
L144,354 
L148.1,354 
L148.1,354 
L149.4,354 
L149.4,354 
L153.4,354 
L153.4,354 
L154.8,354 
L154.8,354 
L158.8,354 
L158.8,354 
L160.2,354 
L160.2,354 
L164.2,354 
L164.2,353.9 
L165.6,353.9 
L165.6,354 
L169.6,354 
L169.6,353.9 
L171,353.9 
L171,354 
L175,354 
L175,353.8 
L176.4,353.8 
L176.4,354 
L180.4,354 
L180.4,353.7 
L181.7,353.7 
L181.7,354 
L185.8,354 
L185.8,353.6 
L187.1,353.6 
L187.1,354 
L191.2,354 
L191.2,353.4 
L192.5,353.4 
L192.5,354 
L196.6,354 
L196.6,353.2 
L197.9,353.2 
L197.9,354 
L202,354 
L202,352.9 
L203.3,352.9 
L203.3,354 
L207.3,354 
L207.3,352.5 
L208.7,352.5 
L208.7,354 
L212.7,354 
L212.7,352 
L214.1,352 
L214.1,354 
L218.1,354 
L218.1,351.4 
L219.5,351.4 
L219.5,354 
L223.5,354 
L223.5,350.7 
L224.9,350.7 
L224.9,354 
L228.9,354 
L228.9,349.8 
L230.3,349.8 
L230.3,354 
L234.3,354 
L234.3,348.8 
L235.6,348.8 
L235.6,354 
L239.7,354 
L239.7,347.7 
L241,347.7 
L241,354 
L245.1,354 
L245.1,346.4 
L246.4,346.4 
L246.4,354 
L250.5,354 
L250.5,344.9 
L251.8,344.9 
L251.8,354 
L255.9,354 
L255.9,343.2 
L257.2,343.2 
L257.2,354 
L261.3,354 
L261.3,341.4 
L262.6,341.4 
L262.6,354 
L266.6,354 
L266.6,339.4 
L268,339.4 
L268,354 
L272,354 
L272,337.3 
L273.4,337.3 
L273.4,354 
L277.4,354 
L277.4,335 
L278.8,335 
L278.8,354 
L282.8,354 
L282.8,332.6 
L284.2,332.6 
L284.2,354 
L288.2,354 
L288.2,330.2 
L289.6,330.2 
L289.6,354 
L293.6,354 
L293.6,327.6 
L294.9,327.6 
L294.9,354 
L299,354 
L299,325.1 
L300.3,325.1 
L300.3,354 
L304.4,354 
L304.4,322.5 
L305.7,322.5 
L305.7,354 
L309.8,354 
L309.8,319.9 
L311.1,319.9 
L311.1,354 
L315.2,354 
L315.2,317.4 
L316.5,317.4 
L316.5,354 
L320.5,354 
L320.5,315 
L321.9,315 
L321.9,354 
L325.9,354 
L325.9,312.6 
L327.3,312.6 
L327.3,354 
L331.3,354 
L331.3,310.4 
L332.7,310.4 
L332.7,354 
L336.7,354 
L336.7,308.4 
L338.1,308.4 
L338.1,354 
L342.1,354 
L342.1,306.5 
L343.5,306.5 
L343.5,354 
L347.5,354 
L347.5,304.9 
L348.8,304.9 
L348.8,354 
L352.9,354 
L352.9,303.4 
L354.2,303.4 
L354.2,354 
L358.3,354 
L358.3,302.2 
L359.6,302.2 
L359.6,354 
L363.7,354 
L363.7,301.2 
L365,301.2 
L365,354 
L369.1,354 
L369.1,300.5 
L370.4,300.5 
L370.4,354 
L374.5,354 
L374.5,300 
L375.8,300 
L375.8,354 
L379.8,354 
L379.8,299.8 
L381.2,299.8 
L381.2,354 
L385.2,354 
L385.2,299.8 
L386.6,299.8 
L386.6,354 
L390.6,354 
L390.6,300 
L392,300 
L392,354 
L396,354 
L396,300.5 
L397.4,300.5 
L397.4,354 
L401.4,354 
L401.4,301.1 
L402.8,301.1 
L402.8,354 
L406.8,354 
L406.8,302 
L408.1,302 
L408.1,354 
L412.2,354 
L412.2,303.1 
L413.5,303.1 
L413.5,354 
L417.6,354 
L417.6,304.3 
L418.9,304.3 
L418.9,354 
L423,354 
L423,305.6 
L424.3,305.6 
L424.3,354 
L428.4,354 
L428.4,307.1 
L429.7,307.1 
L429.7,354 
L433.7,354 
L433.7,308.7 
L435.1,308.7 
L435.1,354 
L439.1,354 
L439.1,310.4 
L440.5,310.4 
L440.5,354 
L444.5,354 
L444.5,312.2 
L445.9,312.2 
L445.9,354 
L449.9,354 
L449.9,314 
L451.3,314 
L451.3,354 
L455.3,354 
L455.3,315.8 
L456.7,315.8 
L456.7,354 
L460.7,354 
L460.7,317.7 
L462,317.7 
L462,354 
L466.1,354 
L466.1,319.6 
L467.4,319.6 
L467.4,354 
L471.5,354 
L471.5,321.5 
L472.8,321.5 
L472.8,354 
L476.9,354 
L476.9,323.4 
L478.2,323.4 
L478.2,354 
L482.3,354 
L482.3,325.2 
L483.6,325.2 
L483.6,354 
L487.7,354 
L487.7,327 
L489,327 
L489,354 
L493,354 
L493,328.8 
L494.4,328.8 
L494.4,354 
L498.4,354 
L498.4,330.5 
L499.8,330.5 
L499.8,354 
L503.8,354 
L503.8,332.1 
L505.2,332.1 
L505.2,354 
L509.2,354 
L509.2,333.7 
L510.6,333.7 
L510.6,354 
L514.6,354 
L514.6,335.2 
L516,335.2 
L516,354 
L520,354 
L520,336.6 
L521.3,336.6 
L521.3,354 
L525.4,354 
L525.4,338 
L526.7,338 
L526.7,354 
L530.8,354 
L530.8,339.3 
L532.1,339.3 
L532.1,354 
L536.2,354 
L536.2,340.5 
L537.5,340.5 
L537.5,354 
L541.6,354 
L541.6,341.6 
L542.9,341.6 
L542.9,354 
L546.9,354 
L546.9,342.7 
L548.3,342.7 
L548.3,354 
L552.3,354 
L552.3,343.7 
L553.7,343.7 
L553.7,354 
L557.7,354 
L557.7,344.6 
L559.1,344.6 
L559.1,354 
L563.1,354 
L563.1,345.5 
L564.5,345.5 
L564.5,354 
L568.5,354 
L568.5,346.3 
L569.9,346.3 
L569.9,354 
L573.9,354 
L573.9,347 
L575.2,347 
L575.2,354 
L579.3,354 
L579.3,347.7 
L580.6,347.7 
L580.6,354 
L584.7,354 
L584.7,348.3 
L586,348.3 
L586,354 
L590.1,354 
L590.1,348.9 
L591.4,348.9 
L591.4,354 
L595.5,354 
L595.5,349.4 
L596.8,349.4 
L596.8,354 
L600.9,354 
L600.9,349.9 
L602.2,349.9 
L602.2,354 
L606.2,354 
L606.2,350.3 
L607.6,350.3 
L607.6,354 
L611.6,354 
L611.6,350.7 
L613,350.7 
L613,354 
L617,354 
L617,351 
L618.4,351 
L618.4,354 
L618.4,354 
Z" fill="rgb(0,0,139)"/>
</g>
	<g clip-path="url(#plot_window)" stroke="rgb(139,0,0)" fill="rgb(139,0,0)" stroke-width="1">
	<path d="M79.32,354 L79.32,354 
L79.32,354 
L79.32,354 
L80.67,354 
L80.67,354 
L84.71,354 
L84.71,354 
L86.06,354 
L86.06,354 
L90.1,354 
L90.1,353.9 
L91.45,353.9 
L91.45,354 
L95.49,354 
L95.49,353.6 
L96.84,353.6 
L96.84,354 
L100.9,354 
L100.9,352.9 
L102.2,352.9 
L102.2,354 
L106.3,354 
L106.3,351.4 
L107.6,351.4 
L107.6,354 
L111.7,354 
L111.7,348.6 
L113,348.6 
L113,354 
L117.1,354 
L117.1,343.9 
L118.4,343.9 
L118.4,354 
L122.4,354 
L122.4,336.9 
L123.8,336.9 
L123.8,354 
L127.8,354 
L127.8,327.5 
L129.2,327.5 
L129.2,354 
L133.2,354 
L133.2,315.5 
L134.6,315.5 
L134.6,354 
L138.6,354 
L138.6,301.5 
L140,301.5 
L140,354 
L144,354 
L144,286.2 
L145.4,286.2 
L145.4,354 
L149.4,354 
L149.4,270.6 
L150.7,270.6 
L150.7,354 
L154.8,354 
L154.8,255.7 
L156.1,255.7 
L156.1,354 
L160.2,354 
L160.2,242.6 
L161.5,242.6 
L161.5,354 
L165.6,354 
L165.6,232.2 
L166.9,232.2 
L166.9,354 
L171,354 
L171,225 
L172.3,225 
L172.3,354 
L176.4,354 
L176.4,221.4 
L177.7,221.4 
L177.7,354 
L181.7,354 
L181.7,221.4 
L183.1,221.4 
L183.1,354 
L187.1,354 
L187.1,224.7 
L188.5,224.7 
L188.5,354 
L192.5,354 
L192.5,230.9 
L193.9,230.9 
L193.9,354 
L197.9,354 
L197.9,239.3 
L199.3,239.3 
L199.3,354 
L203.3,354 
L203.3,249.3 
L204.7,249.3 
L204.7,354 
L208.7,354 
L208.7,260.2 
L210,260.2 
L210,354 
L214.1,354 
L214.1,271.4 
L215.4,271.4 
L215.4,354 
L219.5,354 
L219.5,282.5 
L220.8,282.5 
L220.8,354 
L224.9,354 
L224.9,293.1 
L226.2,293.1 
L226.2,354 
L230.3,354 
L230.3,302.9 
L231.6,302.9 
L231.6,354 
L235.6,354 
L235.6,311.7 
L237,311.7 
L237,354 
L241,354 
L241,319.5 
L242.4,319.5 
L242.4,354 
L246.4,354 
L246.4,326.2 
L247.8,326.2 
L247.8,354 
L251.8,354 
L251.8,331.8 
L253.2,331.8 
L253.2,354 
L257.2,354 
L257.2,336.5 
L258.6,336.5 
L258.6,354 
L262.6,354 
L262.6,340.4 
L263.9,340.4 
L263.9,354 
L268,354 
L268,343.5 
L269.3,343.5 
L269.3,354 
L273.4,354 
L273.4,346 
L274.7,346 
L274.7,354 
L278.8,354 
L278.8,347.9 
L280.1,347.9 
L280.1,354 
L284.2,354 
L284.2,349.4 
L285.5,349.4 
L285.5,354 
L289.6,354 
L289.6,350.6 
L290.9,350.6 
L290.9,354 
L294.9,354 
L294.9,351.5 
L296.3,351.5 
L296.3,354 
L300.3,354 
L300.3,352.2 
L301.7,352.2 
L301.7,354 
L305.7,354 
L305.7,352.7 
L307.1,352.7 
L307.1,354 
L311.1,354 
L311.1,353 
L312.5,353 
L312.5,354 
L316.5,354 
L316.5,353.3 
L317.9,353.3 
L317.9,354 
L321.9,354 
L321.9,353.5 
L323.2,353.5 
L323.2,354 
L327.3,354 
L327.3,353.7 
L328.6,353.7 
L328.6,354 
L332.7,354 
L332.7,353.8 
L334,353.8 
L334,354 
L338.1,354 
L338.1,353.8 
L339.4,353.8 
L339.4,354 
L343.5,354 
L343.5,353.9 
L344.8,353.9 
L344.8,354 
L348.8,354 
L348.8,353.9 
L350.2,353.9 
L350.2,354 
L354.2,354 
L354.2,353.9 
L355.6,353.9 
L355.6,354 
L359.6,354 
L359.6,354 
L361,354 
L361,354 
L365,354 
L365,354 
L366.4,354 
L366.4,354 
L370.4,354 
L370.4,354 
L371.8,354 
L371.8,354 
L375.8,354 
L375.8,354 
L377.1,354 
L377.1,354 
L381.2,354 
L381.2,354 
L382.5,354 
L382.5,354 
L386.6,354 
L386.6,354 
L387.9,354 
L387.9,354 
L392,354 
L392,354 
L393.3,354 
L393.3,354 
L397.4,354 
L397.4,354 
L398.7,354 
L398.7,354 
L402.8,354 
L402.8,354 
L404.1,354 
L404.1,354 
L408.1,354 
L408.1,354 
L409.5,354 
L409.5,354 
L413.5,354 
L413.5,354 
L414.9,354 
L414.9,354 
L418.9,354 
L418.9,354 
L420.3,354 
L420.3,354 
L424.3,354 
L424.3,354 
L425.7,354 
L425.7,354 
L429.7,354 
L429.7,354 
L431.1,354 
L431.1,354 
L435.1,354 
L435.1,354 
L436.4,354 
L436.4,354 
L440.5,354 
L440.5,354 
L441.8,354 
L441.8,354 
L445.9,354 
L445.9,354 
L447.2,354 
L447.2,354 
L451.3,354 
L451.3,354 
L452.6,354 
L452.6,354 
L456.7,354 
L456.7,354 
L458,354 
L458,354 
L462,354 
L462,354 
L463.4,354 
L463.4,354 
L467.4,354 
L467.4,354 
L468.8,354 
L468.8,354 
L472.8,354 
L472.8,354 
L474.2,354 
L474.2,354 
L478.2,354 
L478.2,354 
L479.6,354 
L479.6,354 
L483.6,354 
L483.6,354 
L485,354 
L485,354 
L489,354 
L489,354 
L490.3,354 
L490.3,354 
L494.4,354 
L494.4,354 
L495.7,354 
L495.7,354 
L499.8,354 
L499.8,354 
L501.1,354 
L501.1,354 
L505.2,354 
L505.2,354 
L506.5,354 
L506.5,354 
L510.6,354 
L510.6,354 
L511.9,354 
L511.9,354 
L516,354 
L516,354 
L517.3,354 
L517.3,354 
L521.3,354 
L521.3,354 
L522.7,354 
L522.7,354 
L526.7,354 
L526.7,354 
L528.1,354 
L528.1,354 
L532.1,354 
L532.1,354 
L533.5,354 
L533.5,354 
L537.5,354 
L537.5,354 
L538.9,354 
L538.9,354 
L542.9,354 
L542.9,354 
L544.3,354 
L544.3,354 
L548.3,354 
L548.3,354 
L549.6,354 
L549.6,354 
L553.7,354 
L553.7,354 
L555,354 
L555,354 
L559.1,354 
L559.1,354 
L560.4,354 
L560.4,354 
L564.5,354 
L564.5,354 
L565.8,354 
L565.8,354 
L569.9,354 
L569.9,354 
L571.2,354 
L571.2,354 
L575.2,354 
L575.2,354 
L576.6,354 
L576.6,354 
L580.6,354 
L580.6,354 
L582,354 
L582,354 
L586,354 
L586,354 
L587.4,354 
L587.4,354 
L591.4,354 
L591.4,354 
L592.8,354 
L592.8,354 
L596.8,354 
L596.8,354 
L598.2,354 
L598.2,354 
L602.2,354 
L602.2,354 
L603.5,354 
L603.5,354 
L607.6,354 
L607.6,354 
L608.9,354 
L608.9,354 
L613,354 
L613,354 
L614.3,354 
L614.3,354 
L618.4,354 
L618.4,354 
L619.7,354 
L619.7,354 
L619.7,354 
Z" fill="rgb(139,0,0)"/>
</g>
	<g clip-path="url(#plot_window)" stroke="rgb(0,100,0)" fill="rgb(0,100,0)" stroke-width="1">
	<path d="M80.67,354 L80.67,354 
L80.67,354 
L80.67,347.5 
L82.02,347.5 
L82.02,354 
L86.06,354 
L86.06,321.3 
L87.41,321.3 
L87.41,354 
L91.45,354 
L91.45,268.2 
L92.8,268.2 
L92.8,354 
L96.84,354 
L96.84,196.7 
L98.19,196.7 
L98.19,354 
L102.2,354 
L102.2,127.8 
L103.6,127.8 
L103.6,354 
L107.6,354 
L107.6,82.58 
L109,82.58 
L109,354 
L113,354 
L113,71.27 
L114.4,71.27 
L114.4,354 
L118.4,354 
L118.4,91.47 
L119.8,91.47 
L119.8,354 
L123.8,354 
L123.8,132.5 
L125.1,132.5 
L125.1,354 
L129.2,354 
L129.2,181.7 
L130.5,181.7 
L130.5,354 
L134.6,354 
L134.6,229.1 
L135.9,229.1 
L135.9,354 
L140,354 
L140,268.8 
L141.3,268.8 
L141.3,354 
L145.4,354 
L145.4,299 
L146.7,299 
L146.7,354 
L150.7,354 
L150.7,320.2 
L152.1,320.2 
L152.1,354 
L156.1,354 
L156.1,334.1 
L157.5,334.1 
L157.5,354 
L161.5,354 
L161.5,342.7 
L162.9,342.7 
L162.9,354 
L166.9,354 
L166.9,347.8 
L168.3,347.8 
L168.3,354 
L172.3,354 
L172.3,350.7 
L173.7,350.7 
L173.7,354 
L177.7,354 
L177.7,352.3 
L179,352.3 
L179,354 
L183.1,354 
L183.1,353.2 
L184.4,353.2 
L184.4,354 
L188.5,354 
L188.5,353.6 
L189.8,353.6 
L189.8,354 
L193.9,354 
L193.9,353.8 
L195.2,353.8 
L195.2,354 
L199.3,354 
L199.3,353.9 
L200.6,353.9 
L200.6,354 
L204.7,354 
L204.7,354 
L206,354 
L206,354 
L210,354 
L210,354 
L211.4,354 
L211.4,354 
L215.4,354 
L215.4,354 
L216.8,354 
L216.8,354 
L220.8,354 
L220.8,354 
L222.2,354 
L222.2,354 
L226.2,354 
L226.2,354 
L227.6,354 
L227.6,354 
L231.6,354 
L231.6,354 
L233,354 
L233,354 
L237,354 
L237,354 
L238.3,354 
L238.3,354 
L242.4,354 
L242.4,354 
L243.7,354 
L243.7,354 
L247.8,354 
L247.8,354 
L249.1,354 
L249.1,354 
L253.2,354 
L253.2,354 
L254.5,354 
L254.5,354 
L258.6,354 
L258.6,354 
L259.9,354 
L259.9,354 
L263.9,354 
L263.9,354 
L265.3,354 
L265.3,354 
L269.3,354 
L269.3,354 
L270.7,354 
L270.7,354 
L274.7,354 
L274.7,354 
L276.1,354 
L276.1,354 
L280.1,354 
L280.1,354 
L281.5,354 
L281.5,354 
L285.5,354 
L285.5,354 
L286.9,354 
L286.9,354 
L290.9,354 
L290.9,354 
L292.2,354 
L292.2,354 
L296.3,354 
L296.3,354 
L297.6,354 
L297.6,354 
L301.7,354 
L301.7,354 
L303,354 
L303,354 
L307.1,354 
L307.1,354 
L308.4,354 
L308.4,354 
L312.5,354 
L312.5,354 
L313.8,354 
L313.8,354 
L317.9,354 
L317.9,354 
L319.2,354 
L319.2,354 
L323.2,354 
L323.2,354 
L324.6,354 
L324.6,354 
L328.6,354 
L328.6,354 
L330,354 
L330,354 
L334,354 
L334,354 
L335.4,354 
L335.4,354 
L339.4,354 
L339.4,354 
L340.8,354 
L340.8,354 
L344.8,354 
L344.8,354 
L346.2,354 
L346.2,354 
L350.2,354 
L350.2,354 
L351.5,354 
L351.5,354 
L355.6,354 
L355.6,354 
L356.9,354 
L356.9,354 
L361,354 
L361,354 
L362.3,354 
L362.3,354 
L366.4,354 
L366.4,354 
L367.7,354 
L367.7,354 
L371.8,354 
L371.8,354 
L373.1,354 
L373.1,354 
L377.1,354 
L377.1,354 
L378.5,354 
L378.5,354 
L382.5,354 
L382.5,354 
L383.9,354 
L383.9,354 
L387.9,354 
L387.9,354 
L389.3,354 
L389.3,354 
L393.3,354 
L393.3,354 
L394.7,354 
L394.7,354 
L398.7,354 
L398.7,354 
L400.1,354 
L400.1,354 
L404.1,354 
L404.1,354 
L405.4,354 
L405.4,354 
L409.5,354 
L409.5,354 
L410.8,354 
L410.8,354 
L414.9,354 
L414.9,354 
L416.2,354 
L416.2,354 
L420.3,354 
L420.3,354 
L421.6,354 
L421.6,354 
L425.7,354 
L425.7,354 
L427,354 
L427,354 
L431.1,354 
L431.1,354 
L432.4,354 
L432.4,354 
L436.4,354 
L436.4,354 
L437.8,354 
L437.8,354 
L441.8,354 
L441.8,354 
L443.2,354 
L443.2,354 
L447.2,354 
L447.2,354 
L448.6,354 
L448.6,354 
L452.6,354 
L452.6,354 
L454,354 
L454,354 
L458,354 
L458,354 
L459.4,354 
L459.4,354 
L463.4,354 
L463.4,354 
L464.7,354 
L464.7,354 
L468.8,354 
L468.8,354 
L470.1,354 
L470.1,354 
L474.2,354 
L474.2,354 
L475.5,354 
L475.5,354 
L479.6,354 
L479.6,354 
L480.9,354 
L480.9,354 
L485,354 
L485,354 
L486.3,354 
L486.3,354 
L490.3,354 
L490.3,354 
L491.7,354 
L491.7,354 
L495.7,354 
L495.7,354 
L497.1,354 
L497.1,354 
L501.1,354 
L501.1,354 
L502.5,354 
L502.5,354 
L506.5,354 
L506.5,354 
L507.9,354 
L507.9,354 
L511.9,354 
L511.9,354 
L513.3,354 
L513.3,354 
L517.3,354 
L517.3,354 
L518.6,354 
L518.6,354 
L522.7,354 
L522.7,354 
L524,354 
L524,354 
L528.1,354 
L528.1,354 
L529.4,354 
L529.4,354 
L533.5,354 
L533.5,354 
L534.8,354 
L534.8,354 
L538.9,354 
L538.9,354 
L540.2,354 
L540.2,354 
L544.3,354 
L544.3,354 
L545.6,354 
L545.6,354 
L549.6,354 
L549.6,354 
L551,354 
L551,354 
L555,354 
L555,354 
L556.4,354 
L556.4,354 
L560.4,354 
L560.4,354 
L561.8,354 
L561.8,354 
L565.8,354 
L565.8,354 
L567.2,354 
L567.2,354 
L571.2,354 
L571.2,354 
L572.6,354 
L572.6,354 
L576.6,354 
L576.6,354 
L577.9,354 
L577.9,354 
L582,354 
L582,354 
L583.3,354 
L583.3,354 
L587.4,354 
L587.4,354 
L588.7,354 
L588.7,354 
L592.8,354 
L592.8,354 
L594.1,354 
L594.1,354 
L598.2,354 
L598.2,354 
L599.5,354 
L599.5,354 
L603.5,354 
L603.5,354 
L604.9,354 
L604.9,354 
L608.9,354 
L608.9,354 
L610.3,354 
L610.3,354 
L614.3,354 
L614.3,354 
L615.7,354 
L615.7,354 
L619.7,354 
L619.7,354 
L621.1,354 
L621.1,354 
L621.1,354 
Z" fill="rgb(0,100,0)"/>
</g>
</g>
	<g id="plotPoints" clip-path="url(#plot_window)">
</g>
	<g id="legendBackground" stroke="rgb(119,136,153)" fill="rgb(255,255,255)" stroke-width="1">
	<rect x="631.5" y="43" width="104.5" height="64.5"/>
</g>
	<g id="legendPoints">
</g>
	<g id="legendLines">
	<g stroke="rgb(0,0,139)" stroke-width="1">
	<line x1="646.8" y1="62.75" x2="652.8" y2="62.75"/>
</g>
	<g stroke="rgb(139,0,0)" stroke-width="1">
	<line x1="646.8" y1="75.25" x2="652.8" y2="75.25"/>
</g>
	<g stroke="rgb(0,100,0)" stroke-width="1">
	<line x1="646.8" y1="87.75" x2="652.8" y2="87.75"/>
</g>
</g>
	<g id="legendText">
	<text x="661.8" y="62.75" font-size="10" font-family="Lucida Sans Unicode" font-weight="normal" textLength="66">n=20 p=0.25
	</text>
	<text x="661.8" y="75.25" font-size="10" font-family="Lucida Sans Unicode" font-weight="normal" textLength="60">n=20 p=0.5
	</text>
	<text x="661.8" y="87.75" font-size="10" font-family="Lucida Sans Unicode" font-weight="normal" textLength="66">n=20 p=0.75
	</text>
</g>
	<g id="title">
	<text x="375" y="30" text-anchor="middle" font-size="20" font-family="Lucida Sans Unicode" font-weight="normal">Negative Binomial Distribution PDF
	</text>
</g>
	<g id="plotXValues">
</g>
	<g id="plotYValues">
</g>
</svg>
