<?xml version="1.0" encoding="UTF-8" standalone="no"?>
<svg width="750" height ="400" version="1.1"
xmlns:svg ="http://www.w3.org/2000/svg"
xmlns:rdf="http://www.w3.org/1999/02/22-rdf-syntax-ns#"
xmlns:cc="http://web.resource.org/cc/"
xmlns:dc="http://purl.org/dc/elements/1.1/"
xmlns ="http://www.w3.org/2000/svg"
>
<!-- SVG plot written using Boost.Plot program (Creator Jacob Voytko) --> 
<!-- Use, modification and distribution of Boost.Plot subject to the --> 
<!-- Boost Software License, Version 1.0.--> 
<!-- (See accompanying file LICENSE_1_0.txt --> 
<!-- or copy at http://www.boost.org/LICENSE_1_0.txt) --> 

<!-- SVG Plot Copyright John Maddock 2008 --> 
<meta name="copyright" content="John Maddock" />
<meta name="date" content="2008" />
<!-- Use, modification and distribution of this Scalable Vector Graphic file -->
<!-- are subject to the Boost Software License, Version 1.0. -->
<!-- (See accompanying file LICENSE_1_0.txt or copy at http://www.boost.org/LICENSE_1_0.txt) -->

<clipPath id="plot_window">	<rect x="78.3" y="44" width="552.2" height="309"/>
</clipPath>
	<g id="imageBackground" stroke="rgb(119,136,153)" fill="rgb(255,255,255)" stroke-width="2">
	<rect x="0" y="0" width="750" height="400"/>
</g>
	<g id="plotBackground" stroke="rgb(119,136,153)" fill="rgb(255,255,255)" stroke-width="2">
	<rect x="77.3" y="43" width="554.2" height="311"/>
</g>
	<g id="yMinorGrid" stroke="rgb(200,220,255)" stroke-width="0.5">
</g>
	<g id="yMajorGrid" stroke="rgb(200,220,255)" stroke-width="1">
</g>
	<g id="xMinorGrid" stroke="rgb(200,220,255)" stroke-width="0.5">
</g>
	<g id="xMajorGrid" stroke="rgb(200,220,255)" stroke-width="1">
</g>
	<g id="yAxis" stroke="rgb(0,0,0)" stroke-width="1">
	<line x1="80.04" y1="43" x2="80.04" y2="359"/>
	<line x1="77.3" y1="43" x2="77.3" y2="354"/>
</g>
	<g id="xAxis" stroke="rgb(0,0,0)" stroke-width="1">
	<line x1="72.3" y1="354" x2="631.5" y2="354"/>
	<line x1="72.3" y1="354" x2="631.5" y2="354"/>
</g>
	<g id="yMinorTicks" stroke="rgb(0,0,0)" stroke-width="1">
	<path d="M75.3,347.9 L77.3,347.9 
M75.3,341.8 L77.3,341.8 
M75.3,335.7 L77.3,335.7 
M75.3,329.6 L77.3,329.6 
M75.3,317.4 L77.3,317.4 
M75.3,311.3 L77.3,311.3 
M75.3,305.2 L77.3,305.2 
M75.3,299.1 L77.3,299.1 
M75.3,286.9 L77.3,286.9 
M75.3,280.8 L77.3,280.8 
M75.3,274.7 L77.3,274.7 
M75.3,268.6 L77.3,268.6 
M75.3,256.4 L77.3,256.4 
M75.3,250.3 L77.3,250.3 
M75.3,244.2 L77.3,244.2 
M75.3,238.1 L77.3,238.1 
M75.3,226 L77.3,226 
M75.3,219.9 L77.3,219.9 
M75.3,213.8 L77.3,213.8 
M75.3,207.7 L77.3,207.7 
M75.3,195.5 L77.3,195.5 
M75.3,189.4 L77.3,189.4 
M75.3,183.3 L77.3,183.3 
M75.3,177.2 L77.3,177.2 
M75.3,165 L77.3,165 
M75.3,158.9 L77.3,158.9 
M75.3,152.8 L77.3,152.8 
M75.3,146.7 L77.3,146.7 
M75.3,134.5 L77.3,134.5 
M75.3,128.4 L77.3,128.4 
M75.3,122.3 L77.3,122.3 
M75.3,116.2 L77.3,116.2 
M75.3,104 L77.3,104 
M75.3,97.9 L77.3,97.9 
M75.3,91.81 L77.3,91.81 
M75.3,85.71 L77.3,85.71 
M75.3,73.51 L77.3,73.51 
M75.3,67.42 L77.3,67.42 
M75.3,61.32 L77.3,61.32 
M75.3,55.22 L77.3,55.22 
M75.3,43.03 L77.3,43.03 
M75.3,354 L77.3,354 
" fill="none"/>
</g>
	<g id="xMinorTicks" stroke="rgb(0,0,0)" stroke-width="1">
</g>
	<g id="yMajorTicks" stroke="rgb(0,0,0)" stroke-width="2">
	<path d="M72.3,354 L77.3,354 
M72.3,323.5 L77.3,323.5 
M72.3,293 L77.3,293 
M72.3,262.5 L77.3,262.5 
M72.3,232 L77.3,232 
M72.3,201.6 L77.3,201.6 
M72.3,171.1 L77.3,171.1 
M72.3,140.6 L77.3,140.6 
M72.3,110.1 L77.3,110.1 
M72.3,79.61 L77.3,79.61 
M72.3,49.12 L77.3,49.12 
M72.3,354 L77.3,354 
" fill="none"/>
</g>
	<g id="xMajorTicks" stroke="rgb(0,0,0)" stroke-width="2">
	<path d="M80.04,354 L80.04,359 
M353.7,354 L353.7,359 
M627.5,354 L627.5,359 
M80.04,354 L80.04,359 
" fill="none"/>
</g>
	<g id="xTicksValues" font-size="12" font-family="Lucida Sans Unicode" text-anchor="middle">
	<text x="80.04" y="374.6">0
	</text>
	<text x="353.7" y="374.6">50
	</text>
	<text x="627.5" y="374.6">100
	</text>
	<text x="80.04" y="374.6">0
	</text>
</g>
	<g id="yTicksValues" font-size="12" font-family="Lucida Sans Unicode" text-anchor="end">
	<text x="66.3" y="356.4">0
	</text>
	<text x="66.3" y="325.9">0.01
	</text>
	<text x="66.3" y="295.4">0.02
	</text>
	<text x="66.3" y="264.9">0.03
	</text>
	<text x="66.3" y="234.4">0.04
	</text>
	<text x="66.3" y="204">0.05
	</text>
	<text x="66.3" y="173.5">0.06
	</text>
	<text x="66.3" y="143">0.07
	</text>
	<text x="66.3" y="112.5">0.08
	</text>
	<text x="66.3" y="82.01">0.09
	</text>
	<text x="66.3" y="51.52">0.1
	</text>
	<text x="66.3" y="356.4">0
	</text>
</g>
	<g id="yLabel">
	<text x="32.4" y="198.5" text-anchor="middle" transform="rotate(-90 32.4 198.5)" font-size="14" font-family="Lucida Sans Unicode">Probability
	</text>
</g>
	<g id="xLabel">
	<text x="354.4" y="387.1" text-anchor="middle" font-size="12" font-family="Lucida Sans Unicode">Random Variable
	</text>
</g>
	<g id="plotLines" stroke-width="2">
	<g clip-path="url(#plot_window)" stroke="rgb(0,0,139)" fill="rgb(0,0,139)" stroke-width="1">
	<path d="M77.98,354 L77.98,354 
L77.98,354 
L77.98,351 
L79.35,351 
L79.35,354 
L83.46,354 
L83.46,339.1 
L84.83,339.1 
L84.83,354 
L88.93,354 
L88.93,313.1 
L90.3,313.1 
L90.3,354 
L94.41,354 
L94.41,272.1 
L95.78,272.1 
L95.78,354 
L99.88,354 
L99.88,221 
L101.2,221 
L101.2,354 
L105.4,354 
L105.4,167.7 
L106.7,167.7 
L106.7,354 
L110.8,354 
L110.8,121.2 
L112.2,121.2 
L112.2,354 
L116.3,354 
L116.3,87.9 
L117.7,87.9 
L117.7,354 
L121.8,354 
L121.8,71.27 
L123.1,71.27 
L123.1,354 
L127.3,354 
L127.3,71.27 
L128.6,71.27 
L128.6,354 
L132.7,354 
L132.7,85.41 
L134.1,85.41 
L134.1,354 
L138.2,354 
L138.2,109.8 
L139.6,109.8 
L139.6,354 
L143.7,354 
L143.7,140.3 
L145,140.3 
L145,354 
L149.1,354 
L149.1,173.2 
L150.5,173.2 
L150.5,354 
L154.6,354 
L154.6,205.5 
L156,205.5 
L156,354 
L160.1,354 
L160.1,235.2 
L161.5,235.2 
L161.5,354 
L165.6,354 
L165.6,261.2 
L166.9,261.2 
L166.9,354 
L171,354 
L171,283 
L172.4,283 
L172.4,354 
L176.5,354 
L176.5,300.8 
L177.9,300.8 
L177.9,354 
L182,354 
L182,314.8 
L183.4,314.8 
L183.4,354 
L187.5,354 
L187.5,325.6 
L188.8,325.6 
L188.8,354 
L192.9,354 
L192.9,333.7 
L194.3,333.7 
L194.3,354 
L198.4,354 
L198.4,339.7 
L199.8,339.7 
L199.8,354 
L203.9,354 
L203.9,344 
L205.3,344 
L205.3,354 
L209.4,354 
L209.4,347.2 
L210.7,347.2 
L210.7,354 
L214.8,354 
L214.8,349.3 
L216.2,349.3 
L216.2,354 
L220.3,354 
L220.3,350.9 
L221.7,350.9 
L221.7,354 
L225.8,354 
L225.8,351.9 
L227.2,351.9 
L227.2,354 
L231.3,354 
L231.3,352.6 
L232.6,352.6 
L232.6,354 
L236.7,354 
L236.7,353.1 
L238.1,353.1 
L238.1,354 
L242.2,354 
L242.2,353.4 
L243.6,353.4 
L243.6,354 
L247.7,354 
L247.7,353.6 
L249.1,353.6 
L249.1,354 
L253.2,354 
L253.2,353.8 
L254.5,353.8 
L254.5,354 
L258.6,354 
L258.6,353.8 
L260,353.8 
L260,354 
L264.1,354 
L264.1,353.9 
L265.5,353.9 
L265.5,354 
L269.6,354 
L269.6,353.9 
L271,353.9 
L271,354 
L275.1,354 
L275.1,354 
L276.4,354 
L276.4,354 
L280.5,354 
L280.5,354 
L281.9,354 
L281.9,354 
L286,354 
L286,354 
L287.4,354 
L287.4,354 
L291.5,354 
L291.5,354 
L292.8,354 
L292.8,354 
L297,354 
L297,354 
L298.3,354 
L298.3,354 
L302.4,354 
L302.4,354 
L303.8,354 
L303.8,354 
L307.9,354 
L307.9,354 
L309.3,354 
L309.3,354 
L313.4,354 
L313.4,354 
L314.7,354 
L314.7,354 
L318.9,354 
L318.9,354 
L320.2,354 
L320.2,354 
L324.3,354 
L324.3,354 
L325.7,354 
L325.7,354 
L329.8,354 
L329.8,354 
L331.2,354 
L331.2,354 
L335.3,354 
L335.3,354 
L336.6,354 
L336.6,354 
L340.7,354 
L340.7,354 
L342.1,354 
L342.1,354 
L346.2,354 
L346.2,354 
L347.6,354 
L347.6,354 
L351.7,354 
L351.7,354 
L353.1,354 
L353.1,354 
L357.2,354 
L357.2,354 
L358.5,354 
L358.5,354 
L362.6,354 
L362.6,354 
L364,354 
L364,354 
L368.1,354 
L368.1,354 
L369.5,354 
L369.5,354 
L373.6,354 
L373.6,354 
L375,354 
L375,354 
L379.1,354 
L379.1,354 
L380.4,354 
L380.4,354 
L384.5,354 
L384.5,354 
L385.9,354 
L385.9,354 
L390,354 
L390,354 
L391.4,354 
L391.4,354 
L395.5,354 
L395.5,354 
L396.9,354 
L396.9,354 
L401,354 
L401,354 
L402.3,354 
L402.3,354 
L406.4,354 
L406.4,354 
L407.8,354 
L407.8,354 
L411.9,354 
L411.9,354 
L413.3,354 
L413.3,354 
L417.4,354 
L417.4,354 
L418.8,354 
L418.8,354 
L422.9,354 
L422.9,354 
L424.2,354 
L424.2,354 
L428.3,354 
L428.3,354 
L429.7,354 
L429.7,354 
L433.8,354 
L433.8,354 
L435.2,354 
L435.2,354 
L439.3,354 
L439.3,354 
L440.7,354 
L440.7,354 
L444.8,354 
L444.8,354 
L446.1,354 
L446.1,354 
L450.2,354 
L450.2,354 
L451.6,354 
L451.6,354 
L455.7,354 
L455.7,354 
L457.1,354 
L457.1,354 
L461.2,354 
L461.2,354 
L462.5,354 
L462.5,354 
L466.7,354 
L466.7,354 
L468,354 
L468,354 
L472.1,354 
L472.1,354 
L473.5,354 
L473.5,354 
L477.6,354 
L477.6,354 
L479,354 
L479,354 
L483.1,354 
L483.1,354 
L484.4,354 
L484.4,354 
L488.6,354 
L488.6,354 
L489.9,354 
L489.9,354 
L494,354 
L494,354 
L495.4,354 
L495.4,354 
L499.5,354 
L499.5,354 
L500.9,354 
L500.9,354 
L505,354 
L505,354 
L506.3,354 
L506.3,354 
L510.4,354 
L510.4,354 
L511.8,354 
L511.8,354 
L515.9,354 
L515.9,354 
L517.3,354 
L517.3,354 
L521.4,354 
L521.4,354 
L522.8,354 
L522.8,354 
L526.9,354 
L526.9,354 
L528.2,354 
L528.2,354 
L532.3,354 
L532.3,354 
L533.7,354 
L533.7,354 
L537.8,354 
L537.8,354 
L539.2,354 
L539.2,354 
L543.3,354 
L543.3,354 
L544.7,354 
L544.7,354 
L548.8,354 
L548.8,354 
L550.1,354 
L550.1,354 
L554.2,354 
L554.2,354 
L555.6,354 
L555.6,354 
L559.7,354 
L559.7,354 
L561.1,354 
L561.1,354 
L565.2,354 
L565.2,354 
L566.6,354 
L566.6,354 
L570.7,354 
L570.7,354 
L572,354 
L572,354 
L576.1,354 
L576.1,354 
L577.5,354 
L577.5,354 
L581.6,354 
L581.6,354 
L583,354 
L583,354 
L587.1,354 
L587.1,354 
L588.5,354 
L588.5,354 
L592.6,354 
L592.6,354 
L593.9,354 
L593.9,354 
L598,354 
L598,354 
L599.4,354 
L599.4,354 
L603.5,354 
L603.5,354 
L604.9,354 
L604.9,354 
L609,354 
L609,354 
L610.4,354 
L610.4,354 
L614.5,354 
L614.5,354 
L615.8,354 
L615.8,354 
L619.9,354 
L619.9,354 
L621.3,354 
L621.3,354 
L625.4,354 
L625.4,354 
L626.8,354 
L626.8,354 
L626.8,354 
Z" fill="rgb(0,0,139)"/>
</g>
	<g clip-path="url(#plot_window)" stroke="rgb(139,0,0)" fill="rgb(139,0,0)" stroke-width="1">
	<path d="M79.35,354 L79.35,354 
L79.35,354 
L79.35,354 
L80.72,354 
L80.72,354 
L84.83,354 
L84.83,354 
L86.2,354 
L86.2,354 
L90.3,354 
L90.3,353.8 
L91.67,353.8 
L91.67,354 
L95.78,354 
L95.78,353.4 
L97.14,353.4 
L97.14,354 
L101.2,354 
L101.2,352.4 
L102.6,352.4 
L102.6,354 
L106.7,354 
L106.7,350.1 
L108.1,350.1 
L108.1,354 
L112.2,354 
L112.2,346 
L113.6,346 
L113.6,354 
L117.7,354 
L117.7,339.1 
L119,339.1 
L119,354 
L123.1,354 
L123.1,328.8 
L124.5,328.8 
L124.5,354 
L128.6,354 
L128.6,314.8 
L130,314.8 
L130,354 
L134.1,354 
L134.1,297.1 
L135.5,297.1 
L135.5,354 
L139.6,354 
L139.6,276.4 
L140.9,276.4 
L140.9,354 
L145,354 
L145,253.8 
L146.4,253.8 
L146.4,354 
L150.5,354 
L150.5,230.7 
L151.9,230.7 
L151.9,354 
L156,354 
L156,208.7 
L157.4,208.7 
L157.4,354 
L161.5,354 
L161.5,189.3 
L162.8,189.3 
L162.8,354 
L166.9,354 
L166.9,173.9 
L168.3,173.9 
L168.3,354 
L172.4,354 
L172.4,163.3 
L173.8,163.3 
L173.8,354 
L177.9,354 
L177.9,158 
L179.3,158 
L179.3,354 
L183.4,354 
L183.4,158 
L184.7,158 
L184.7,354 
L188.8,354 
L188.8,162.9 
L190.2,162.9 
L190.2,354 
L194.3,354 
L194.3,172 
L195.7,172 
L195.7,354 
L199.8,354 
L199.8,184.4 
L201.2,184.4 
L201.2,354 
L205.3,354 
L205.3,199.1 
L206.6,199.1 
L206.6,354 
L210.7,354 
L210.7,215.3 
L212.1,215.3 
L212.1,354 
L216.2,354 
L216.2,231.9 
L217.6,231.9 
L217.6,354 
L221.7,354 
L221.7,248.4 
L223.1,248.4 
L223.1,354 
L227.2,354 
L227.2,264 
L228.5,264 
L228.5,354 
L232.6,354 
L232.6,278.5 
L234,278.5 
L234,354 
L238.1,354 
L238.1,291.5 
L239.5,291.5 
L239.5,354 
L243.6,354 
L243.6,303 
L244.9,303 
L244.9,354 
L249.1,354 
L249.1,312.8 
L250.4,312.8 
L250.4,354 
L254.5,354 
L254.5,321.2 
L255.9,321.2 
L255.9,354 
L260,354 
L260,328.2 
L261.4,328.2 
L261.4,354 
L265.5,354 
L265.5,333.9 
L266.8,333.9 
L266.8,354 
L271,354 
L271,338.5 
L272.3,338.5 
L272.3,354 
L276.4,354 
L276.4,342.1 
L277.8,342.1 
L277.8,354 
L281.9,354 
L281.9,345 
L283.3,345 
L283.3,354 
L287.4,354 
L287.4,347.3 
L288.7,347.3 
L288.7,354 
L292.8,354 
L292.8,349 
L294.2,349 
L294.2,354 
L298.3,354 
L298.3,350.3 
L299.7,350.3 
L299.7,354 
L303.8,354 
L303.8,351.3 
L305.2,351.3 
L305.2,354 
L309.3,354 
L309.3,352 
L310.6,352 
L310.6,354 
L314.7,354 
L314.7,352.6 
L316.1,352.6 
L316.1,354 
L320.2,354 
L320.2,353 
L321.6,353 
L321.6,354 
L325.7,354 
L325.7,353.3 
L327.1,353.3 
L327.1,354 
L331.2,354 
L331.2,353.5 
L332.5,353.5 
L332.5,354 
L336.6,354 
L336.6,353.6 
L338,353.6 
L338,354 
L342.1,354 
L342.1,353.8 
L343.5,353.8 
L343.5,354 
L347.6,354 
L347.6,353.8 
L349,353.8 
L349,354 
L353.1,354 
L353.1,353.9 
L354.4,353.9 
L354.4,354 
L358.5,354 
L358.5,353.9 
L359.9,353.9 
L359.9,354 
L364,354 
L364,353.9 
L365.4,353.9 
L365.4,354 
L369.5,354 
L369.5,354 
L370.9,354 
L370.9,354 
L375,354 
L375,354 
L376.3,354 
L376.3,354 
L380.4,354 
L380.4,354 
L381.8,354 
L381.8,354 
L385.9,354 
L385.9,354 
L387.3,354 
L387.3,354 
L391.4,354 
L391.4,354 
L392.8,354 
L392.8,354 
L396.9,354 
L396.9,354 
L398.2,354 
L398.2,354 
L402.3,354 
L402.3,354 
L403.7,354 
L403.7,354 
L407.8,354 
L407.8,354 
L409.2,354 
L409.2,354 
L413.3,354 
L413.3,354 
L414.6,354 
L414.6,354 
L418.8,354 
L418.8,354 
L420.1,354 
L420.1,354 
L424.2,354 
L424.2,354 
L425.6,354 
L425.6,354 
L429.7,354 
L429.7,354 
L431.1,354 
L431.1,354 
L435.2,354 
L435.2,354 
L436.5,354 
L436.5,354 
L440.7,354 
L440.7,354 
L442,354 
L442,354 
L446.1,354 
L446.1,354 
L447.5,354 
L447.5,354 
L451.6,354 
L451.6,354 
L453,354 
L453,354 
L457.1,354 
L457.1,354 
L458.4,354 
L458.4,354 
L462.5,354 
L462.5,354 
L463.9,354 
L463.9,354 
L468,354 
L468,354 
L469.4,354 
L469.4,354 
L473.5,354 
L473.5,354 
L474.9,354 
L474.9,354 
L479,354 
L479,354 
L480.3,354 
L480.3,354 
L484.4,354 
L484.4,354 
L485.8,354 
L485.8,354 
L489.9,354 
L489.9,354 
L491.3,354 
L491.3,354 
L495.4,354 
L495.4,354 
L496.8,354 
L496.8,354 
L500.9,354 
L500.9,354 
L502.2,354 
L502.2,354 
L506.3,354 
L506.3,354 
L507.7,354 
L507.7,354 
L511.8,354 
L511.8,354 
L513.2,354 
L513.2,354 
L517.3,354 
L517.3,354 
L518.7,354 
L518.7,354 
L522.8,354 
L522.8,354 
L524.1,354 
L524.1,354 
L528.2,354 
L528.2,354 
L529.6,354 
L529.6,354 
L533.7,354 
L533.7,354 
L535.1,354 
L535.1,354 
L539.2,354 
L539.2,354 
L540.6,354 
L540.6,354 
L544.7,354 
L544.7,354 
L546,354 
L546,354 
L550.1,354 
L550.1,354 
L551.5,354 
L551.5,354 
L555.6,354 
L555.6,354 
L557,354 
L557,354 
L561.1,354 
L561.1,354 
L562.5,354 
L562.5,354 
L566.6,354 
L566.6,354 
L567.9,354 
L567.9,354 
L572,354 
L572,354 
L573.4,354 
L573.4,354 
L577.5,354 
L577.5,354 
L578.9,354 
L578.9,354 
L583,354 
L583,354 
L584.4,354 
L584.4,354 
L588.5,354 
L588.5,354 
L589.8,354 
L589.8,354 
L593.9,354 
L593.9,354 
L595.3,354 
L595.3,354 
L599.4,354 
L599.4,354 
L600.8,354 
L600.8,354 
L604.9,354 
L604.9,354 
L606.2,354 
L606.2,354 
L610.4,354 
L610.4,354 
L611.7,354 
L611.7,354 
L615.8,354 
L615.8,354 
L617.2,354 
L617.2,354 
L621.3,354 
L621.3,354 
L622.7,354 
L622.7,354 
L626.8,354 
L626.8,354 
L628.1,354 
L628.1,354 
L628.1,354 
Z" fill="rgb(139,0,0)"/>
</g>
	<g clip-path="url(#plot_window)" stroke="rgb(0,100,0)" fill="rgb(0,100,0)" stroke-width="1">
	<path d="M80.72,354 L80.72,354 
L80.72,354 
L80.72,354 
L82.09,354 
L82.09,354 
L86.2,354 
L86.2,354 
L87.56,354 
L87.56,354 
L91.67,354 
L91.67,354 
L93.04,354 
L93.04,354 
L97.14,354 
L97.14,354 
L98.51,354 
L98.51,354 
L102.6,354 
L102.6,354 
L104,354 
L104,354 
L108.1,354 
L108.1,354 
L109.5,354 
L109.5,354 
L113.6,354 
L113.6,354 
L114.9,354 
L114.9,354 
L119,354 
L119,354 
L120.4,354 
L120.4,354 
L124.5,354 
L124.5,354 
L125.9,354 
L125.9,354 
L130,354 
L130,354 
L131.4,354 
L131.4,354 
L135.5,354 
L135.5,354 
L136.8,354 
L136.8,354 
L140.9,354 
L140.9,354 
L142.3,354 
L142.3,354 
L146.4,354 
L146.4,354 
L147.8,354 
L147.8,354 
L151.9,354 
L151.9,354 
L153.3,354 
L153.3,354 
L157.4,354 
L157.4,354 
L158.7,354 
L158.7,354 
L162.8,354 
L162.8,354 
L164.2,354 
L164.2,354 
L168.3,354 
L168.3,354 
L169.7,354 
L169.7,354 
L173.8,354 
L173.8,354 
L175.2,354 
L175.2,354 
L179.3,354 
L179.3,354 
L180.6,354 
L180.6,354 
L184.7,354 
L184.7,354 
L186.1,354 
L186.1,354 
L190.2,354 
L190.2,354 
L191.6,354 
L191.6,354 
L195.7,354 
L195.7,354 
L197,354 
L197,354 
L201.2,354 
L201.2,354 
L202.5,354 
L202.5,354 
L206.6,354 
L206.6,354 
L208,354 
L208,354 
L212.1,354 
L212.1,354 
L213.5,354 
L213.5,354 
L217.6,354 
L217.6,354 
L218.9,354 
L218.9,354 
L223.1,354 
L223.1,354 
L224.4,354 
L224.4,354 
L228.5,354 
L228.5,354 
L229.9,354 
L229.9,354 
L234,354 
L234,354 
L235.4,354 
L235.4,354 
L239.5,354 
L239.5,354 
L240.8,354 
L240.8,354 
L244.9,354 
L244.9,354 
L246.3,354 
L246.3,354 
L250.4,354 
L250.4,353.9 
L251.8,353.9 
L251.8,354 
L255.9,354 
L255.9,353.9 
L257.3,353.9 
L257.3,354 
L261.4,354 
L261.4,353.8 
L262.7,353.8 
L262.7,354 
L266.8,354 
L266.8,353.7 
L268.2,353.7 
L268.2,354 
L272.3,354 
L272.3,353.6 
L273.7,353.6 
L273.7,354 
L277.8,354 
L277.8,353.4 
L279.2,353.4 
L279.2,354 
L283.3,354 
L283.3,353.1 
L284.6,353.1 
L284.6,354 
L288.7,354 
L288.7,352.7 
L290.1,352.7 
L290.1,354 
L294.2,354 
L294.2,352.2 
L295.6,352.2 
L295.6,354 
L299.7,354 
L299.7,351.6 
L301.1,351.6 
L301.1,354 
L305.2,354 
L305.2,350.7 
L306.5,350.7 
L306.5,354 
L310.6,354 
L310.6,349.7 
L312,349.7 
L312,354 
L316.1,354 
L316.1,348.4 
L317.5,348.4 
L317.5,354 
L321.6,354 
L321.6,346.8 
L323,346.8 
L323,354 
L327.1,354 
L327.1,344.9 
L328.4,344.9 
L328.4,354 
L332.5,354 
L332.5,342.6 
L333.9,342.6 
L333.9,354 
L338,354 
L338,339.9 
L339.4,339.9 
L339.4,354 
L343.5,354 
L343.5,336.9 
L344.9,336.9 
L344.9,354 
L349,354 
L349,333.4 
L350.3,333.4 
L350.3,354 
L354.4,354 
L354.4,329.4 
L355.8,329.4 
L355.8,354 
L359.9,354 
L359.9,325.1 
L361.3,325.1 
L361.3,354 
L365.4,354 
L365.4,320.4 
L366.8,320.4 
L366.8,354 
L370.9,354 
L370.9,315.3 
L372.2,315.3 
L372.2,354 
L376.3,354 
L376.3,309.9 
L377.7,309.9 
L377.7,354 
L381.8,354 
L381.8,304.3 
L383.2,304.3 
L383.2,354 
L387.3,354 
L387.3,298.5 
L388.6,298.5 
L388.6,354 
L392.8,354 
L392.8,292.7 
L394.1,292.7 
L394.1,354 
L398.2,354 
L398.2,286.9 
L399.6,286.9 
L399.6,354 
L403.7,354 
L403.7,281.2 
L405.1,281.2 
L405.1,354 
L409.2,354 
L409.2,275.7 
L410.5,275.7 
L410.5,354 
L414.6,354 
L414.6,270.6 
L416,270.6 
L416,354 
L420.1,354 
L420.1,265.9 
L421.5,265.9 
L421.5,354 
L425.6,354 
L425.6,261.7 
L427,261.7 
L427,354 
L431.1,354 
L431.1,258.1 
L432.4,258.1 
L432.4,354 
L436.5,354 
L436.5,255.2 
L437.9,255.2 
L437.9,354 
L442,354 
L442,252.9 
L443.4,252.9 
L443.4,354 
L447.5,354 
L447.5,251.4 
L448.9,251.4 
L448.9,354 
L453,354 
L453,250.7 
L454.3,250.7 
L454.3,354 
L458.4,354 
L458.4,250.7 
L459.8,250.7 
L459.8,354 
L463.9,354 
L463.9,251.4 
L465.3,251.4 
L465.3,354 
L469.4,354 
L469.4,252.8 
L470.8,252.8 
L470.8,354 
L474.9,354 
L474.9,254.9 
L476.2,254.9 
L476.2,354 
L480.3,354 
L480.3,257.7 
L481.7,257.7 
L481.7,354 
L485.8,354 
L485.8,260.9 
L487.2,260.9 
L487.2,354 
L491.3,354 
L491.3,264.6 
L492.7,264.6 
L492.7,354 
L496.8,354 
L496.8,268.7 
L498.1,268.7 
L498.1,354 
L502.2,354 
L502.2,273.2 
L503.6,273.2 
L503.6,354 
L507.7,354 
L507.7,277.8 
L509.1,277.8 
L509.1,354 
L513.2,354 
L513.2,282.7 
L514.6,282.7 
L514.6,354 
L518.7,354 
L518.7,287.6 
L520,287.6 
L520,354 
L524.1,354 
L524.1,292.5 
L525.5,292.5 
L525.5,354 
L529.6,354 
L529.6,297.4 
L531,297.4 
L531,354 
L535.1,354 
L535.1,302.1 
L536.5,302.1 
L536.5,354 
L540.6,354 
L540.6,306.8 
L541.9,306.8 
L541.9,354 
L546,354 
L546,311.2 
L547.4,311.2 
L547.4,354 
L551.5,354 
L551.5,315.4 
L552.9,315.4 
L552.9,354 
L557,354 
L557,319.4 
L558.3,319.4 
L558.3,354 
L562.5,354 
L562.5,323.2 
L563.8,323.2 
L563.8,354 
L567.9,354 
L567.9,326.6 
L569.3,326.6 
L569.3,354 
L573.4,354 
L573.4,329.8 
L574.8,329.8 
L574.8,354 
L578.9,354 
L578.9,332.7 
L580.2,332.7 
L580.2,354 
L584.4,354 
L584.4,335.4 
L585.7,335.4 
L585.7,354 
L589.8,354 
L589.8,337.8 
L591.2,337.8 
L591.2,354 
L595.3,354 
L595.3,340 
L596.7,340 
L596.7,354 
L600.8,354 
L600.8,341.9 
L602.1,341.9 
L602.1,354 
L606.2,354 
L606.2,343.6 
L607.6,343.6 
L607.6,354 
L611.7,354 
L611.7,345.1 
L613.1,345.1 
L613.1,354 
L617.2,354 
L617.2,346.4 
L618.6,346.4 
L618.6,354 
L622.7,354 
L622.7,347.6 
L624,347.6 
L624,354 
L628.1,354 
L628.1,348.6 
L629.5,348.6 
L629.5,354 
L629.5,354 
Z" fill="rgb(0,100,0)"/>
</g>
</g>
	<g id="plotPoints" clip-path="url(#plot_window)">
</g>
	<g id="legendBackground" stroke="rgb(119,136,153)" fill="rgb(255,255,255)" stroke-width="1">
	<rect x="637.5" y="43" width="98.5" height="64.5"/>
</g>
	<g id="legendPoints">
</g>
	<g id="legendLines">
	<g stroke="rgb(0,0,139)" stroke-width="1">
	<line x1="652.8" y1="62.75" x2="658.8" y2="62.75"/>
</g>
	<g stroke="rgb(139,0,0)" stroke-width="1">
	<line x1="652.8" y1="75.25" x2="658.8" y2="75.25"/>
</g>
	<g stroke="rgb(0,100,0)" stroke-width="1">
	<line x1="652.8" y1="87.75" x2="658.8" y2="87.75"/>
</g>
</g>
	<g id="legendText">
	<text x="667.8" y="62.75" font-size="10" font-family="Lucida Sans Unicode" font-weight="normal" textLength="60">n=10 p=0.5
	</text>
	<text x="667.8" y="75.25" font-size="10" font-family="Lucida Sans Unicode" font-weight="normal" textLength="60">n=20 p=0.5
	</text>
	<text x="667.8" y="87.75" font-size="10" font-family="Lucida Sans Unicode" font-weight="normal" textLength="60">n=70 p=0.5
	</text>
</g>
	<g id="title">
	<text x="375" y="30" text-anchor="middle" font-size="20" font-family="Lucida Sans Unicode" font-weight="normal">Negative Binomial Distribution PDF
	</text>
</g>
	<g id="plotXValues">
</g>
	<g id="plotYValues">
</g>
</svg>
