<?xml version="1.0" encoding="UTF-8" standalone="no"?>
<svg width="750" height ="400" version="1.1"
xmlns:svg ="http://www.w3.org/2000/svg"
xmlns:rdf="http://www.w3.org/1999/02/22-rdf-syntax-ns#"
xmlns:cc="http://web.resource.org/cc/"
xmlns:dc="http://purl.org/dc/elements/1.1/"
xmlns ="http://www.w3.org/2000/svg"
>
<!-- SVG plot written using Boost.Plot program (Creator Jacob Voytko) --> 
<!-- Use, modification and distribution of Boost.Plot subject to the --> 
<!-- Boost Software License, Version 1.0.--> 
<!-- (See accompanying file LICENSE_1_0.txt --> 
<!-- or copy at http://www.boost.org/LICENSE_1_0.txt) --> 

<!-- SVG Plot Copyright John Maddock 2008 --> 
<meta name="copyright" content="John Maddock" />
<meta name="date" content="2008" />
<!-- Use, modification and distribution of this Scalable Vector Graphic file -->
<!-- are subject to the Boost Software License, Version 1.0. -->
<!-- (See accompanying file LICENSE_1_0.txt or copy at http://www.boost.org/LICENSE_1_0.txt) -->

<clipPath id="plot_window">	<rect x="71.1" y="44" width="531.8" height="309"/>
</clipPath>
	<g id="imageBackground" stroke="rgb(119,136,153)" fill="rgb(255,255,255)" stroke-width="2">
	<rect x="0" y="0" width="750" height="400"/>
</g>
	<g id="plotBackground" stroke="rgb(119,136,153)" fill="rgb(255,255,255)" stroke-width="2">
	<rect x="70.1" y="43" width="533.8" height="311"/>
</g>
	<g id="yMinorGrid" stroke="rgb(200,220,255)" stroke-width="0.5">
</g>
	<g id="yMajorGrid" stroke="rgb(200,220,255)" stroke-width="1">
</g>
	<g id="xMinorGrid" stroke="rgb(200,220,255)" stroke-width="0.5">
</g>
	<g id="xMajorGrid" stroke="rgb(200,220,255)" stroke-width="1">
</g>
	<g id="yAxis" stroke="rgb(0,0,0)" stroke-width="1">
	<line x1="337" y1="43" x2="337" y2="359"/>
	<line x1="70.1" y1="43" x2="70.1" y2="354"/>
</g>
	<g id="xAxis" stroke="rgb(0,0,0)" stroke-width="1">
	<line x1="65.1" y1="354" x2="603.9" y2="354"/>
	<line x1="65.1" y1="354" x2="603.9" y2="354"/>
</g>
	<g id="yMinorTicks" stroke="rgb(0,0,0)" stroke-width="1">
	<path d="M68.1,346.9 L70.1,346.9 
M68.1,339.8 L70.1,339.8 
M68.1,332.7 L70.1,332.7 
M68.1,325.7 L70.1,325.7 
M68.1,311.5 L70.1,311.5 
M68.1,304.4 L70.1,304.4 
M68.1,297.3 L70.1,297.3 
M68.1,290.2 L70.1,290.2 
M68.1,276 L70.1,276 
M68.1,269 L70.1,269 
M68.1,261.9 L70.1,261.9 
M68.1,254.8 L70.1,254.8 
M68.1,240.6 L70.1,240.6 
M68.1,233.5 L70.1,233.5 
M68.1,226.4 L70.1,226.4 
M68.1,219.3 L70.1,219.3 
M68.1,205.2 L70.1,205.2 
M68.1,198.1 L70.1,198.1 
M68.1,191 L70.1,191 
M68.1,183.9 L70.1,183.9 
M68.1,169.7 L70.1,169.7 
M68.1,162.7 L70.1,162.7 
M68.1,155.6 L70.1,155.6 
M68.1,148.5 L70.1,148.5 
M68.1,134.3 L70.1,134.3 
M68.1,127.2 L70.1,127.2 
M68.1,120.1 L70.1,120.1 
M68.1,113 L70.1,113 
M68.1,98.87 L70.1,98.87 
M68.1,91.78 L70.1,91.78 
M68.1,84.7 L70.1,84.7 
M68.1,77.61 L70.1,77.61 
M68.1,63.44 L70.1,63.44 
M68.1,56.35 L70.1,56.35 
M68.1,49.26 L70.1,49.26 
M68.1,354 L70.1,354 
" fill="none"/>
</g>
	<g id="xMinorTicks" stroke="rgb(0,0,0)" stroke-width="1">
	<path d="M347.9,354 L347.9,356 
M358.8,354 L358.8,356 
M369.7,354 L369.7,356 
M380.6,354 L380.6,356 
M402.4,354 L402.4,356 
M413.3,354 L413.3,356 
M424.2,354 L424.2,356 
M435.1,354 L435.1,356 
M456.9,354 L456.9,356 
M467.8,354 L467.8,356 
M478.8,354 L478.8,356 
M489.7,354 L489.7,356 
M511.5,354 L511.5,356 
M522.4,354 L522.4,356 
M533.3,354 L533.3,356 
M544.2,354 L544.2,356 
M566,354 L566,356 
M576.9,354 L576.9,356 
M587.8,354 L587.8,356 
M598.7,354 L598.7,356 
M326.1,354 L326.1,356 
M315.2,354 L315.2,356 
M304.3,354 L304.3,356 
M293.4,354 L293.4,356 
M271.6,354 L271.6,356 
M260.7,354 L260.7,356 
M249.8,354 L249.8,356 
M238.9,354 L238.9,356 
M217.1,354 L217.1,356 
M206.2,354 L206.2,356 
M195.3,354 L195.3,356 
M184.3,354 L184.3,356 
M162.5,354 L162.5,356 
M151.6,354 L151.6,356 
M140.7,354 L140.7,356 
M129.8,354 L129.8,356 
M108,354 L108,356 
M97.12,354 L97.12,356 
M86.21,354 L86.21,356 
M75.31,354 L75.31,356 
" fill="none"/>
</g>
	<g id="yMajorTicks" stroke="rgb(0,0,0)" stroke-width="2">
	<path d="M65.1,354 L70.1,354 
M65.1,318.6 L70.1,318.6 
M65.1,283.1 L70.1,283.1 
M65.1,247.7 L70.1,247.7 
M65.1,212.3 L70.1,212.3 
M65.1,176.8 L70.1,176.8 
M65.1,141.4 L70.1,141.4 
M65.1,106 L70.1,106 
M65.1,70.52 L70.1,70.52 
M65.1,354 L70.1,354 
" fill="none"/>
</g>
	<g id="xMajorTicks" stroke="rgb(0,0,0)" stroke-width="2">
	<path d="M337,354 L337,359 
M391.5,354 L391.5,359 
M446,354 L446,359 
M500.6,354 L500.6,359 
M555.1,354 L555.1,359 
M337,354 L337,359 
M282.5,354 L282.5,359 
M228,354 L228,359 
M173.4,354 L173.4,359 
M118.9,354 L118.9,359 
" fill="none"/>
</g>
	<g id="xTicksValues" font-size="12" font-family="Lucida Sans Unicode" text-anchor="middle">
	<text x="337" y="374.6">0
	</text>
	<text x="391.5" y="374.6">1
	</text>
	<text x="446" y="374.6">2
	</text>
	<text x="500.6" y="374.6">3
	</text>
	<text x="555.1" y="374.6">4
	</text>
	<text x="337" y="374.6">0
	</text>
	<text x="282.5" y="374.6">-1
	</text>
	<text x="228" y="374.6">-2
	</text>
	<text x="173.4" y="374.6">-3
	</text>
	<text x="118.9" y="374.6">-4
	</text>
</g>
	<g id="yTicksValues" font-size="12" font-family="Lucida Sans Unicode" text-anchor="end">
	<text x="59.1" y="356.4">0
	</text>
	<text x="59.1" y="321">0.1
	</text>
	<text x="59.1" y="285.5">0.2
	</text>
	<text x="59.1" y="250.1">0.3
	</text>
	<text x="59.1" y="214.7">0.4
	</text>
	<text x="59.1" y="179.2">0.5
	</text>
	<text x="59.1" y="143.8">0.6
	</text>
	<text x="59.1" y="108.4">0.7
	</text>
	<text x="59.1" y="72.92">0.8
	</text>
	<text x="59.1" y="356.4">0
	</text>
</g>
	<g id="yLabel">
	<text x="32.4" y="198.5" text-anchor="middle" transform="rotate(-90 32.4 198.5)" font-size="14" font-family="Lucida Sans Unicode">Probability
	</text>
</g>
	<g id="xLabel">
	<text x="337" y="387.1" text-anchor="middle" font-size="12" font-family="Lucida Sans Unicode">Random Variable
	</text>
</g>
	<g id="plotLines" stroke-width="2">
	<g clip-path="url(#plot_window)" stroke="rgb(0,0,139)" stroke-width="1">
	<path d="M70.1,354 L70.1,354 
L72.77,354 
L75.44,354 
L78.11,354 
L80.78,354 
L83.44,354 
L86.11,354 
L88.78,354 
L91.45,354 
L94.12,354 
L96.79,354 
L99.46,354 
L102.1,354 
L104.8,354 
L107.5,354 
L110.1,354 
L112.8,354 
L115.5,354 
L118.1,354 
L120.8,353.9 
L123.5,353.9 
L126.1,353.9 
L128.8,353.9 
L131.5,353.9 
L134.2,353.9 
L136.8,353.8 
L139.5,353.8 
L142.2,353.8 
L144.8,353.7 
L147.5,353.7 
L150.2,353.6 
L152.8,353.5 
L155.5,353.4 
L158.2,353.3 
L160.8,353.2 
L163.5,353.1 
L166.2,353 
L168.9,352.8 
L171.5,352.6 
L174.2,352.4 
L176.9,352.1 
L179.5,351.8 
L182.2,351.5 
L184.9,351.1 
L187.5,350.7 
L190.2,350.2 
L192.9,349.7 
L195.5,349.1 
L198.2,348.5 
L200.9,347.7 
L203.5,346.9 
L206.2,346 
L208.9,345.1 
L211.6,344 
L214.2,342.8 
L216.9,341.5 
L219.6,340.1 
L222.2,338.6 
L224.9,336.9 
L227.6,335.1 
L230.2,333.2 
L232.9,331.2 
L235.6,329 
L238.2,326.6 
L240.9,324.1 
L243.6,321.4 
L246.3,318.6 
L248.9,315.7 
L251.6,312.6 
L254.3,309.3 
L256.9,305.9 
L259.6,302.4 
L262.3,298.8 
L264.9,295 
L267.6,291.1 
L270.3,287.2 
L272.9,283.1 
L275.6,279 
L278.3,274.9 
L281,270.7 
L283.6,266.5 
L286.3,262.3 
L289,258.1 
L291.6,254 
L294.3,250 
L297,246 
L299.6,242.2 
L302.3,238.6 
L305,235 
L307.6,231.7 
L310.3,228.6 
L313,225.7 
L315.6,223.1 
L318.3,220.7 
L321,218.6 
L323.7,216.8 
L326.3,215.3 
L329,214.2 
L331.7,213.3 
L334.3,212.8 
L337,212.6 
L339.7,212.8 
L342.3,213.3 
L345,214.2 
L347.7,215.3 
L350.3,216.8 
L353,218.6 
L355.7,220.7 
L358.4,223.1 
L361,225.7 
L363.7,228.6 
L366.4,231.7 
L369,235 
L371.7,238.5 
L374.4,242.2 
L377,246 
L379.7,250 
L382.4,254 
L385,258.1 
L387.7,262.3 
L390.4,266.5 
L393,270.7 
L395.7,274.8 
L398.4,279 
L401.1,283.1 
L403.7,287.1 
L406.4,291.1 
L409.1,295 
L411.7,298.7 
L414.4,302.4 
L417.1,305.9 
L419.7,309.3 
L422.4,312.6 
L425.1,315.7 
L427.7,318.6 
L430.4,321.4 
L433.1,324.1 
L435.8,326.6 
L438.4,328.9 
L441.1,331.2 
L443.8,333.2 
L446.4,335.1 
L449.1,336.9 
L451.8,338.6 
L454.4,340.1 
L457.1,341.5 
L459.8,342.8 
L462.4,344 
L465.1,345.1 
L467.8,346 
L470.5,346.9 
L473.1,347.7 
L475.8,348.5 
L478.5,349.1 
L481.1,349.7 
L483.8,350.2 
L486.5,350.7 
L489.1,351.1 
L491.8,351.5 
L494.5,351.8 
L497.1,352.1 
L499.8,352.4 
L502.5,352.6 
L505.1,352.8 
L507.8,353 
L510.5,353.1 
L513.2,353.2 
L515.8,353.3 
L518.5,353.4 
L521.2,353.5 
L523.8,353.6 
L526.5,353.7 
L529.2,353.7 
L531.8,353.8 
L534.5,353.8 
L537.2,353.8 
L539.8,353.9 
L542.5,353.9 
L545.2,353.9 
L547.9,353.9 
L550.5,353.9 
L553.2,353.9 
L555.9,354 
L558.5,354 
L561.2,354 
L563.9,354 
L566.5,354 
L569.2,354 
L571.9,354 
L574.5,354 
L577.2,354 
L579.9,354 
L582.5,354 
L585.2,354 
L587.9,354 
L590.6,354 
L593.2,354 
L595.9,354 
L598.6,354 
L601.2,354 
L603.9,354 
" fill="none"/>
</g>
	<g clip-path="url(#plot_window)" stroke="rgb(139,0,0)" stroke-width="1">
	<path d="M70.1,354 L70.1,354 
L72.77,354 
L75.44,354 
L78.11,354 
L80.78,354 
L83.44,354 
L86.11,354 
L88.78,354 
L91.45,354 
L94.12,354 
L96.79,354 
L99.46,354 
L102.1,354 
L104.8,354 
L107.5,354 
L110.1,354 
L112.8,354 
L115.5,354 
L118.1,354 
L120.8,354 
L123.5,354 
L126.1,354 
L128.8,354 
L131.5,354 
L134.2,354 
L136.8,354 
L139.5,354 
L142.2,354 
L144.8,354 
L147.5,354 
L150.2,354 
L152.8,354 
L155.5,354 
L158.2,354 
L160.8,354 
L163.5,354 
L166.2,354 
L168.9,354 
L171.5,354 
L174.2,354 
L176.9,354 
L179.5,354 
L182.2,354 
L184.9,354 
L187.5,354 
L190.2,354 
L192.9,354 
L195.5,354 
L198.2,354 
L200.9,354 
L203.5,354 
L206.2,354 
L208.9,354 
L211.6,354 
L214.2,354 
L216.9,354 
L219.6,354 
L222.2,354 
L224.9,353.9 
L227.6,353.9 
L230.2,353.9 
L232.9,353.8 
L235.6,353.7 
L238.2,353.6 
L240.9,353.4 
L243.6,353.2 
L246.3,352.9 
L248.9,352.5 
L251.6,351.9 
L254.3,351.2 
L256.9,350.2 
L259.6,349 
L262.3,347.4 
L264.9,345.4 
L267.6,342.9 
L270.3,339.9 
L272.9,336.1 
L275.6,331.6 
L278.3,326.2 
L281,319.9 
L283.6,312.4 
L286.3,303.9 
L289,294.2 
L291.6,283.3 
L294.3,271.1 
L297,257.9 
L299.6,243.5 
L302.3,228.3 
L305,212.2 
L307.6,195.7 
L310.3,179 
L313,162.3 
L315.6,146 
L318.3,130.5 
L321,116.1 
L323.7,103.2 
L326.3,92.16 
L329,83.22 
L331.7,76.65 
L334.3,72.63 
L337,71.27 
L339.7,72.62 
L342.3,76.64 
L345,83.2 
L347.7,92.13 
L350.3,103.2 
L353,116.1 
L355.7,130.4 
L358.4,145.9 
L361,162.2 
L363.7,178.9 
L366.4,195.7 
L369,212.2 
L371.7,228.2 
L374.4,243.5 
L377,257.8 
L379.7,271.1 
L382.4,283.2 
L385,294.2 
L387.7,303.9 
L390.4,312.4 
L393,319.8 
L395.7,326.2 
L398.4,331.6 
L401.1,336.1 
L403.7,339.9 
L406.4,342.9 
L409.1,345.4 
L411.7,347.4 
L414.4,349 
L417.1,350.2 
L419.7,351.2 
L422.4,351.9 
L425.1,352.5 
L427.7,352.9 
L430.4,353.2 
L433.1,353.4 
L435.8,353.6 
L438.4,353.7 
L441.1,353.8 
L443.8,353.9 
L446.4,353.9 
L449.1,353.9 
L451.8,354 
L454.4,354 
L457.1,354 
L459.8,354 
L462.4,354 
L465.1,354 
L467.8,354 
L470.5,354 
L473.1,354 
L475.8,354 
L478.5,354 
L481.1,354 
L483.8,354 
L486.5,354 
L489.1,354 
L491.8,354 
L494.5,354 
L497.1,354 
L499.8,354 
L502.5,354 
L505.1,354 
L507.8,354 
L510.5,354 
L513.2,354 
L515.8,354 
L518.5,354 
L521.2,354 
L523.8,354 
L526.5,354 
L529.2,354 
L531.8,354 
L534.5,354 
L537.2,354 
L539.8,354 
L542.5,354 
L545.2,354 
L547.9,354 
L550.5,354 
L553.2,354 
L555.9,354 
L558.5,354 
L561.2,354 
L563.9,354 
L566.5,354 
L569.2,354 
L571.9,354 
L574.5,354 
L577.2,354 
L579.9,354 
L582.5,354 
L585.2,354 
L587.9,354 
L590.6,354 
L593.2,354 
L595.9,354 
L598.6,354 
L601.2,354 
L603.9,354 
" fill="none"/>
</g>
	<g clip-path="url(#plot_window)" stroke="rgb(0,100,0)" stroke-width="1">
	<path d="M70.1,350.5 L70.1,350.5 
L72.77,350.2 
L75.44,350 
L78.11,349.8 
L80.78,349.5 
L83.44,349.3 
L86.11,349 
L88.78,348.7 
L91.45,348.4 
L94.12,348.1 
L96.79,347.8 
L99.46,347.4 
L102.1,347.1 
L104.8,346.7 
L107.5,346.3 
L110.1,345.9 
L112.8,345.5 
L115.5,345 
L118.1,344.6 
L120.8,344.1 
L123.5,343.6 
L126.1,343.1 
L128.8,342.6 
L131.5,342 
L134.2,341.5 
L136.8,340.9 
L139.5,340.3 
L142.2,339.7 
L144.8,339 
L147.5,338.4 
L150.2,337.7 
L152.8,337 
L155.5,336.3 
L158.2,335.6 
L160.8,334.8 
L163.5,334.1 
L166.2,333.3 
L168.9,332.5 
L171.5,331.7 
L174.2,330.8 
L176.9,330 
L179.5,329.1 
L182.2,328.2 
L184.9,327.3 
L187.5,326.4 
L190.2,325.4 
L192.9,324.5 
L195.5,323.5 
L198.2,322.6 
L200.9,321.6 
L203.5,320.6 
L206.2,319.6 
L208.9,318.6 
L211.6,317.5 
L214.2,316.5 
L216.9,315.5 
L219.6,314.4 
L222.2,313.4 
L224.9,312.3 
L227.6,311.3 
L230.2,310.2 
L232.9,309.2 
L235.6,308.1 
L238.2,307.1 
L240.9,306.1 
L243.6,305 
L246.3,304 
L248.9,303 
L251.6,302 
L254.3,301 
L256.9,300 
L259.6,299.1 
L262.3,298.1 
L264.9,297.2 
L267.6,296.3 
L270.3,295.4 
L272.9,294.5 
L275.6,293.7 
L278.3,292.9 
L281,292.1 
L283.6,291.3 
L286.3,290.6 
L289,289.9 
L291.6,289.2 
L294.3,288.5 
L297,287.9 
L299.6,287.3 
L302.3,286.8 
L305,286.3 
L307.6,285.8 
L310.3,285.4 
L313,285 
L315.6,284.7 
L318.3,284.3 
L321,284.1 
L323.7,283.8 
L326.3,283.7 
L329,283.5 
L331.7,283.4 
L334.3,283.3 
L337,283.3 
L339.7,283.3 
L342.3,283.4 
L345,283.5 
L347.7,283.7 
L350.3,283.8 
L353,284.1 
L355.7,284.3 
L358.4,284.7 
L361,285 
L363.7,285.4 
L366.4,285.8 
L369,286.3 
L371.7,286.8 
L374.4,287.3 
L377,287.9 
L379.7,288.5 
L382.4,289.2 
L385,289.9 
L387.7,290.6 
L390.4,291.3 
L393,292.1 
L395.7,292.9 
L398.4,293.7 
L401.1,294.5 
L403.7,295.4 
L406.4,296.3 
L409.1,297.2 
L411.7,298.1 
L414.4,299.1 
L417.1,300 
L419.7,301 
L422.4,302 
L425.1,303 
L427.7,304 
L430.4,305 
L433.1,306.1 
L435.8,307.1 
L438.4,308.1 
L441.1,309.2 
L443.8,310.2 
L446.4,311.3 
L449.1,312.3 
L451.8,313.4 
L454.4,314.4 
L457.1,315.5 
L459.8,316.5 
L462.4,317.5 
L465.1,318.6 
L467.8,319.6 
L470.5,320.6 
L473.1,321.6 
L475.8,322.6 
L478.5,323.5 
L481.1,324.5 
L483.8,325.4 
L486.5,326.4 
L489.1,327.3 
L491.8,328.2 
L494.5,329.1 
L497.1,330 
L499.8,330.8 
L502.5,331.7 
L505.1,332.5 
L507.8,333.3 
L510.5,334.1 
L513.2,334.8 
L515.8,335.6 
L518.5,336.3 
L521.2,337 
L523.8,337.7 
L526.5,338.4 
L529.2,339 
L531.8,339.7 
L534.5,340.3 
L537.2,340.9 
L539.8,341.5 
L542.5,342 
L545.2,342.6 
L547.9,343.1 
L550.5,343.6 
L553.2,344.1 
L555.9,344.6 
L558.5,345 
L561.2,345.5 
L563.9,345.9 
L566.5,346.3 
L569.2,346.7 
L571.9,347.1 
L574.5,347.4 
L577.2,347.8 
L579.9,348.1 
L582.5,348.4 
L585.2,348.7 
L587.9,349 
L590.6,349.3 
L593.2,349.5 
L595.9,349.8 
L598.6,350 
L601.2,350.2 
L603.9,350.5 
" fill="none"/>
</g>
	<g clip-path="url(#plot_window)" stroke="rgb(255,140,0)" stroke-width="1">
	<path d="M70.1,353.9 L70.1,353.9 
L72.77,353.9 
L75.44,353.9 
L78.11,353.9 
L80.78,353.8 
L83.44,353.8 
L86.11,353.8 
L88.78,353.7 
L91.45,353.7 
L94.12,353.6 
L96.79,353.6 
L99.46,353.5 
L102.1,353.4 
L104.8,353.3 
L107.5,353.2 
L110.1,353 
L112.8,352.9 
L115.5,352.7 
L118.1,352.5 
L120.8,352.3 
L123.5,352 
L126.1,351.7 
L128.8,351.3 
L131.5,350.9 
L134.2,350.5 
L136.8,350 
L139.5,349.5 
L142.2,348.8 
L144.8,348.2 
L147.5,347.4 
L150.2,346.6 
L152.8,345.6 
L155.5,344.6 
L158.2,343.5 
L160.8,342.3 
L163.5,340.9 
L166.2,339.5 
L168.9,337.9 
L171.5,336.2 
L174.2,334.3 
L176.9,332.4 
L179.5,330.2 
L182.2,328 
L184.9,325.5 
L187.5,323 
L190.2,320.3 
L192.9,317.4 
L195.5,314.4 
L198.2,311.2 
L200.9,307.9 
L203.5,304.4 
L206.2,300.9 
L208.9,297.2 
L211.6,293.4 
L214.2,289.4 
L216.9,285.4 
L219.6,281.4 
L222.2,277.2 
L224.9,273.1 
L227.6,268.9 
L230.2,264.7 
L232.9,260.5 
L235.6,256.4 
L238.2,252.3 
L240.9,248.3 
L243.6,244.4 
L246.3,240.6 
L248.9,237 
L251.6,233.6 
L254.3,230.4 
L256.9,227.3 
L259.6,224.6 
L262.3,222 
L264.9,219.8 
L267.6,217.8 
L270.3,216.1 
L272.9,214.8 
L275.6,213.8 
L278.3,213.1 
L281,212.7 
L283.6,212.7 
L286.3,213 
L289,213.6 
L291.6,214.6 
L294.3,215.9 
L297,217.5 
L299.6,219.5 
L302.3,221.7 
L305,224.2 
L307.6,226.9 
L310.3,229.9 
L313,233.1 
L315.6,236.5 
L318.3,240.1 
L321,243.8 
L323.7,247.7 
L326.3,251.7 
L329,255.8 
L331.7,259.9 
L334.3,264.1 
L337,268.3 
L339.7,272.4 
L342.3,276.6 
L345,280.8 
L347.7,284.8 
L350.3,288.9 
L353,292.8 
L355.7,296.6 
L358.4,300.3 
L361,303.9 
L363.7,307.4 
L366.4,310.7 
L369,313.9 
L371.7,316.9 
L374.4,319.8 
L377,322.6 
L379.7,325.2 
L382.4,327.6 
L385,329.9 
L387.7,332.1 
L390.4,334.1 
L393,335.9 
L395.7,337.6 
L398.4,339.2 
L401.1,340.7 
L403.7,342.1 
L406.4,343.3 
L409.1,344.5 
L411.7,345.5 
L414.4,346.4 
L417.1,347.3 
L419.7,348.1 
L422.4,348.8 
L425.1,349.4 
L427.7,349.9 
L430.4,350.4 
L433.1,350.9 
L435.8,351.3 
L438.4,351.6 
L441.1,351.9 
L443.8,352.2 
L446.4,352.5 
L449.1,352.7 
L451.8,352.9 
L454.4,353 
L457.1,353.2 
L459.8,353.3 
L462.4,353.4 
L465.1,353.5 
L467.8,353.6 
L470.5,353.6 
L473.1,353.7 
L475.8,353.7 
L478.5,353.8 
L481.1,353.8 
L483.8,353.8 
L486.5,353.9 
L489.1,353.9 
L491.8,353.9 
L494.5,353.9 
L497.1,353.9 
L499.8,353.9 
L502.5,354 
L505.1,354 
L507.8,354 
L510.5,354 
L513.2,354 
L515.8,354 
L518.5,354 
L521.2,354 
L523.8,354 
L526.5,354 
L529.2,354 
L531.8,354 
L534.5,354 
L537.2,354 
L539.8,354 
L542.5,354 
L545.2,354 
L547.9,354 
L550.5,354 
L553.2,354 
L555.9,354 
L558.5,354 
L561.2,354 
L563.9,354 
L566.5,354 
L569.2,354 
L571.9,354 
L574.5,354 
L577.2,354 
L579.9,354 
L582.5,354 
L585.2,354 
L587.9,354 
L590.6,354 
L593.2,354 
L595.9,354 
L598.6,354 
L601.2,354 
L603.9,354 
" fill="none"/>
</g>
	<g clip-path="url(#plot_window)" stroke="rgb(127,255,0)" stroke-width="1">
	<path d="M70.1,354 L70.1,354 
L72.77,354 
L75.44,354 
L78.11,354 
L80.78,354 
L83.44,354 
L86.11,354 
L88.78,354 
L91.45,354 
L94.12,354 
L96.79,354 
L99.46,354 
L102.1,354 
L104.8,354 
L107.5,354 
L110.1,354 
L112.8,354 
L115.5,354 
L118.1,354 
L120.8,354 
L123.5,354 
L126.1,354 
L128.8,354 
L131.5,354 
L134.2,354 
L136.8,354 
L139.5,354 
L142.2,354 
L144.8,354 
L147.5,354 
L150.2,354 
L152.8,354 
L155.5,354 
L158.2,354 
L160.8,354 
L163.5,354 
L166.2,354 
L168.9,354 
L171.5,354 
L174.2,353.9 
L176.9,353.9 
L179.5,353.9 
L182.2,353.9 
L184.9,353.9 
L187.5,353.9 
L190.2,353.8 
L192.9,353.8 
L195.5,353.8 
L198.2,353.7 
L200.9,353.7 
L203.5,353.6 
L206.2,353.6 
L208.9,353.5 
L211.6,353.4 
L214.2,353.3 
L216.9,353.2 
L219.6,353 
L222.2,352.9 
L224.9,352.7 
L227.6,352.5 
L230.2,352.2 
L232.9,351.9 
L235.6,351.6 
L238.2,351.3 
L240.9,350.9 
L243.6,350.4 
L246.3,349.9 
L248.9,349.4 
L251.6,348.8 
L254.3,348.1 
L256.9,347.3 
L259.6,346.4 
L262.3,345.5 
L264.9,344.5 
L267.6,343.3 
L270.3,342.1 
L272.9,340.7 
L275.6,339.2 
L278.3,337.7 
L281,335.9 
L283.6,334.1 
L286.3,332.1 
L289,329.9 
L291.6,327.6 
L294.3,325.2 
L297,322.6 
L299.6,319.8 
L302.3,316.9 
L305,313.9 
L307.6,310.7 
L310.3,307.4 
L313,303.9 
L315.6,300.3 
L318.3,296.6 
L321,292.8 
L323.7,288.9 
L326.3,284.9 
L329,280.8 
L331.7,276.6 
L334.3,272.5 
L337,268.3 
L339.7,264.1 
L342.3,259.9 
L345,255.8 
L347.7,251.7 
L350.3,247.7 
L353,243.8 
L355.7,240.1 
L358.4,236.5 
L361,233.1 
L363.7,229.9 
L366.4,226.9 
L369,224.2 
L371.7,221.7 
L374.4,219.5 
L377,217.5 
L379.7,215.9 
L382.4,214.6 
L385,213.6 
L387.7,213 
L390.4,212.7 
L393,212.7 
L395.7,213.1 
L398.4,213.8 
L401.1,214.8 
L403.7,216.1 
L406.4,217.8 
L409.1,219.8 
L411.7,222 
L414.4,224.6 
L417.1,227.3 
L419.7,230.4 
L422.4,233.6 
L425.1,237 
L427.7,240.6 
L430.4,244.4 
L433.1,248.3 
L435.8,252.3 
L438.4,256.4 
L441.1,260.5 
L443.8,264.7 
L446.4,268.9 
L449.1,273.1 
L451.8,277.2 
L454.4,281.4 
L457.1,285.4 
L459.8,289.4 
L462.4,293.3 
L465.1,297.2 
L467.8,300.9 
L470.5,304.4 
L473.1,307.9 
L475.8,311.2 
L478.5,314.4 
L481.1,317.4 
L483.8,320.2 
L486.5,323 
L489.1,325.5 
L491.8,328 
L494.5,330.2 
L497.1,332.4 
L499.8,334.3 
L502.5,336.2 
L505.1,337.9 
L507.8,339.5 
L510.5,340.9 
L513.2,342.3 
L515.8,343.5 
L518.5,344.6 
L521.2,345.6 
L523.8,346.6 
L526.5,347.4 
L529.2,348.2 
L531.8,348.8 
L534.5,349.5 
L537.2,350 
L539.8,350.5 
L542.5,350.9 
L545.2,351.3 
L547.9,351.7 
L550.5,352 
L553.2,352.3 
L555.9,352.5 
L558.5,352.7 
L561.2,352.9 
L563.9,353 
L566.5,353.2 
L569.2,353.3 
L571.9,353.4 
L574.5,353.5 
L577.2,353.6 
L579.9,353.6 
L582.5,353.7 
L585.2,353.7 
L587.9,353.8 
L590.6,353.8 
L593.2,353.8 
L595.9,353.9 
L598.6,353.9 
L601.2,353.9 
L603.9,353.9 
" fill="none"/>
</g>
</g>
	<g id="plotPoints" clip-path="url(#plot_window)">
</g>
	<g id="legendBackground" stroke="rgb(119,136,153)" fill="rgb(255,255,255)" stroke-width="1">
	<rect x="609.9" y="43" width="126.1" height="89.5"/>
</g>
	<g id="legendPoints">
</g>
	<g id="legendLines">
	<g stroke="rgb(0,0,139)" stroke-width="1">
	<line x1="625.2" y1="62.75" x2="631.2" y2="62.75"/>
</g>
	<g stroke="rgb(139,0,0)" stroke-width="1">
	<line x1="625.2" y1="75.25" x2="631.2" y2="75.25"/>
</g>
	<g stroke="rgb(0,100,0)" stroke-width="1">
	<line x1="625.2" y1="87.75" x2="631.2" y2="87.75"/>
</g>
	<g stroke="rgb(255,140,0)" stroke-width="1">
	<line x1="625.2" y1="100.3" x2="631.2" y2="100.3"/>
</g>
	<g stroke="rgb(127,255,0)" stroke-width="1">
	<line x1="625.2" y1="112.8" x2="631.2" y2="112.8"/>
</g>
</g>
	<g id="legendText">
	<text x="640.2" y="62.75" font-size="10" font-family="Lucida Sans Unicode" font-weight="normal" textLength="75.6">&#x3BC; = 0, &#x3C3; = 1
	</text>
	<text x="640.2" y="75.25" font-size="10" font-family="Lucida Sans Unicode" font-weight="normal" textLength="87.6">&#x3BC; = 0, &#x3C3; = 0.5
	</text>
	<text x="640.2" y="87.75" font-size="10" font-family="Lucida Sans Unicode" font-weight="normal" textLength="75.6">&#x3BC; = 0, &#x3C3; = 2
	</text>
	<text x="640.2" y="100.3" font-size="10" font-family="Lucida Sans Unicode" font-weight="normal" textLength="81.6">&#x3BC; = -1, &#x3C3; = 1
	</text>
	<text x="640.2" y="112.8" font-size="10" font-family="Lucida Sans Unicode" font-weight="normal" textLength="75.6">&#x3BC; = 1, &#x3C3; = 1
	</text>
</g>
	<g id="title">
	<text x="375" y="30" text-anchor="middle" font-size="20" font-family="Lucida Sans Unicode" font-weight="normal">Normal Distribution PDF
	</text>
</g>
	<g id="plotXValues">
</g>
	<g id="plotYValues">
</g>
</svg>
