<?xml version="1.0" encoding="UTF-8" standalone="no"?>
<svg width="750" height ="400" version="1.1"
xmlns:svg ="http://www.w3.org/2000/svg"
xmlns:rdf="http://www.w3.org/1999/02/22-rdf-syntax-ns#"
xmlns:cc="http://web.resource.org/cc/"
xmlns:dc="http://purl.org/dc/elements/1.1/"
xmlns ="http://www.w3.org/2000/svg"
>
<!-- SVG plot written using Boost.Plot program (Creator Jacob Voytko) --> 
<!-- Use, modification and distribution of Boost.Plot subject to the --> 
<!-- Boost Software License, Version 1.0.--> 
<!-- (See accompanying file LICENSE_1_0.txt --> 
<!-- or copy at http://www.boost.org/LICENSE_1_0.txt) --> 

<!-- SVG Plot Copyright John Maddock 2008 --> 
<meta name="copyright" content="John Maddock" />
<meta name="date" content="2008" />
<!-- Use, modification and distribution of this Scalable Vector Graphic file -->
<!-- are subject to the Boost Software License, Version 1.0. -->
<!-- (See accompanying file LICENSE_1_0.txt or copy at http://www.boost.org/LICENSE_1_0.txt) -->

<clipPath id="plot_window">	<rect x="71.1" y="44" width="577.4" height="309"/>
</clipPath>
	<g id="imageBackground" stroke="rgb(119,136,153)" fill="rgb(255,255,255)" stroke-width="2">
	<rect x="0" y="0" width="750" height="400"/>
</g>
	<g id="plotBackground" stroke="rgb(119,136,153)" fill="rgb(255,255,255)" stroke-width="2">
	<rect x="70.1" y="43" width="579.4" height="311"/>
</g>
	<g id="yMinorGrid" stroke="rgb(200,220,255)" stroke-width="0.5">
</g>
	<g id="yMajorGrid" stroke="rgb(200,220,255)" stroke-width="1">
</g>
	<g id="xMinorGrid" stroke="rgb(200,220,255)" stroke-width="0.5">
</g>
	<g id="xMajorGrid" stroke="rgb(200,220,255)" stroke-width="1">
</g>
	<g id="yAxis" stroke="rgb(0,0,0)" stroke-width="1">
	<line x1="70.1" y1="43" x2="70.1" y2="354"/>
</g>
	<g id="xAxis" stroke="rgb(0,0,0)" stroke-width="1">
	<line x1="65.1" y1="354" x2="649.5" y2="354"/>
	<line x1="65.1" y1="354" x2="649.5" y2="354"/>
</g>
	<g id="yMinorTicks" stroke="rgb(0,0,0)" stroke-width="1">
	<path d="M68.1,347.5 L70.1,347.5 
M68.1,341 L70.1,341 
M68.1,334.6 L70.1,334.6 
M68.1,328.1 L70.1,328.1 
M68.1,315.1 L70.1,315.1 
M68.1,308.7 L70.1,308.7 
M68.1,302.2 L70.1,302.2 
M68.1,295.7 L70.1,295.7 
M68.1,282.7 L70.1,282.7 
M68.1,276.3 L70.1,276.3 
M68.1,269.8 L70.1,269.8 
M68.1,263.3 L70.1,263.3 
M68.1,250.4 L70.1,250.4 
M68.1,243.9 L70.1,243.9 
M68.1,237.4 L70.1,237.4 
M68.1,230.9 L70.1,230.9 
M68.1,218 L70.1,218 
M68.1,211.5 L70.1,211.5 
M68.1,205 L70.1,205 
M68.1,198.5 L70.1,198.5 
M68.1,185.6 L70.1,185.6 
M68.1,179.1 L70.1,179.1 
M68.1,172.6 L70.1,172.6 
M68.1,166.1 L70.1,166.1 
M68.1,153.2 L70.1,153.2 
M68.1,146.7 L70.1,146.7 
M68.1,140.2 L70.1,140.2 
M68.1,133.7 L70.1,133.7 
M68.1,120.8 L70.1,120.8 
M68.1,114.3 L70.1,114.3 
M68.1,107.8 L70.1,107.8 
M68.1,101.4 L70.1,101.4 
M68.1,88.4 L70.1,88.4 
M68.1,81.93 L70.1,81.93 
M68.1,75.45 L70.1,75.45 
M68.1,68.97 L70.1,68.97 
M68.1,56.01 L70.1,56.01 
M68.1,49.54 L70.1,49.54 
M68.1,43.06 L70.1,43.06 
M68.1,354 L70.1,354 
" fill="none"/>
</g>
	<g id="xMinorTicks" stroke="rgb(0,0,0)" stroke-width="1">
	<path d="M70.1,354 L70.1,356 
M116.3,354 L116.3,356 
M162.4,354 L162.4,356 
M208.6,354 L208.6,356 
M300.9,354 L300.9,356 
M347.1,354 L347.1,356 
M393.3,354 L393.3,356 
M439.4,354 L439.4,356 
M531.8,354 L531.8,356 
M577.9,354 L577.9,356 
M624.1,354 L624.1,356 
" fill="none"/>
</g>
	<g id="yMajorTicks" stroke="rgb(0,0,0)" stroke-width="2">
	<path d="M65.1,354 L70.1,354 
M65.1,321.6 L70.1,321.6 
M65.1,289.2 L70.1,289.2 
M65.1,256.8 L70.1,256.8 
M65.1,224.4 L70.1,224.4 
M65.1,192.1 L70.1,192.1 
M65.1,159.7 L70.1,159.7 
M65.1,127.3 L70.1,127.3 
M65.1,94.88 L70.1,94.88 
M65.1,62.49 L70.1,62.49 
M65.1,354 L70.1,354 
" fill="none"/>
</g>
	<g id="xMajorTicks" stroke="rgb(0,0,0)" stroke-width="2">
	<path d="M254.8,354 L254.8,359 
M485.6,354 L485.6,359 
" fill="none"/>
</g>
	<g id="xTicksValues" font-size="12" font-family="Lucida Sans Unicode" text-anchor="middle">
	<text x="254.8" y="374.6">5
	</text>
	<text x="485.6" y="374.6">10
	</text>
</g>
	<g id="yTicksValues" font-size="12" font-family="Lucida Sans Unicode" text-anchor="end">
	<text x="59.1" y="356.4">0
	</text>
	<text x="59.1" y="324">0.1
	</text>
	<text x="59.1" y="291.6">0.2
	</text>
	<text x="59.1" y="259.2">0.3
	</text>
	<text x="59.1" y="226.8">0.4
	</text>
	<text x="59.1" y="194.5">0.5
	</text>
	<text x="59.1" y="162.1">0.6
	</text>
	<text x="59.1" y="129.7">0.7
	</text>
	<text x="59.1" y="97.28">0.8
	</text>
	<text x="59.1" y="64.89">0.9
	</text>
	<text x="59.1" y="356.4">0
	</text>
</g>
	<g id="yLabel">
	<text x="32.4" y="198.5" text-anchor="middle" transform="rotate(-90 32.4 198.5)" font-size="14" font-family="Lucida Sans Unicode">Probability
	</text>
</g>
	<g id="xLabel">
	<text x="359.8" y="387.1" text-anchor="middle" font-size="12" font-family="Lucida Sans Unicode">Random Variable
	</text>
</g>
	<g id="plotLines" stroke-width="2">
	<g clip-path="url(#plot_window)" stroke="rgb(0,0,139)" stroke-width="1">
	<path d="M73,67.22 L73,67.22 
L75.89,98.31 
L78.79,124.6 
L81.69,147 
L84.59,166.3 
L87.48,183.1 
L90.38,197.6 
L93.28,210.4 
L96.17,221.7 
L99.07,231.7 
L102,240.6 
L104.9,248.6 
L107.8,255.8 
L110.7,262.2 
L113.6,268.1 
L116.5,273.4 
L119.3,278.2 
L122.2,282.6 
L125.1,286.6 
L128,290.3 
L130.9,293.7 
L133.8,296.8 
L136.7,299.7 
L139.6,302.4 
L142.5,304.9 
L145.4,307.2 
L148.3,309.4 
L151.2,311.4 
L154.1,313.3 
L157,315 
L159.9,316.7 
L162.8,318.2 
L165.7,319.7 
L168.6,321 
L171.5,322.3 
L174.4,323.5 
L177.3,324.6 
L180.2,325.7 
L183.1,326.7 
L186,327.7 
L188.9,328.6 
L191.8,329.5 
L194.7,330.3 
L197.6,331.1 
L200.5,331.8 
L203.4,332.6 
L206.3,333.2 
L209.2,333.9 
L212.1,334.5 
L214.9,335.1 
L217.8,335.6 
L220.7,336.2 
L223.6,336.7 
L226.5,337.2 
L229.4,337.7 
L232.3,338.1 
L235.2,338.5 
L238.1,339 
L241,339.4 
L243.9,339.7 
L246.8,340.1 
L249.7,340.5 
L252.6,340.8 
L255.5,341.1 
L258.4,341.4 
L261.3,341.7 
L264.2,342 
L267.1,342.3 
L270,342.6 
L272.9,342.9 
L275.8,343.1 
L278.7,343.4 
L281.6,343.6 
L284.5,343.8 
L287.4,344.1 
L290.3,344.3 
L293.2,344.5 
L296.1,344.7 
L299,344.9 
L301.9,345.1 
L304.8,345.2 
L307.7,345.4 
L310.6,345.6 
L313.4,345.8 
L316.3,345.9 
L319.2,346.1 
L322.1,346.2 
L325,346.4 
L327.9,346.5 
L330.8,346.7 
L333.7,346.8 
L336.6,346.9 
L339.5,347.1 
L342.4,347.2 
L345.3,347.3 
L348.2,347.4 
L351.1,347.6 
L354,347.7 
L356.9,347.8 
L359.8,347.9 
L362.7,348 
L365.6,348.1 
L368.5,348.2 
L371.4,348.3 
L374.3,348.4 
L377.2,348.5 
L380.1,348.6 
L383,348.6 
L385.9,348.7 
L388.8,348.8 
L391.7,348.9 
L394.6,349 
L397.5,349.1 
L400.4,349.1 
L403.3,349.2 
L406.2,349.3 
L409,349.3 
L411.9,349.4 
L414.8,349.5 
L417.7,349.5 
L420.6,349.6 
L423.5,349.7 
L426.4,349.7 
L429.3,349.8 
L432.2,349.9 
L435.1,349.9 
L438,350 
L440.9,350 
L443.8,350.1 
L446.7,350.1 
L449.6,350.2 
L452.5,350.2 
L455.4,350.3 
L458.3,350.3 
L461.2,350.4 
L464.1,350.4 
L467,350.5 
L469.9,350.5 
L472.8,350.6 
L475.7,350.6 
L478.6,350.7 
L481.5,350.7 
L484.4,350.7 
L487.3,350.8 
L490.2,350.8 
L493.1,350.9 
L496,350.9 
L498.9,350.9 
L501.8,351 
L504.6,351 
L507.5,351 
L510.4,351.1 
L513.3,351.1 
L516.2,351.2 
L519.1,351.2 
L522,351.2 
L524.9,351.2 
L527.8,351.3 
L530.7,351.3 
L533.6,351.3 
L536.5,351.4 
L539.4,351.4 
L542.3,351.4 
L545.2,351.5 
L548.1,351.5 
L551,351.5 
L553.9,351.5 
L556.8,351.6 
L559.7,351.6 
L562.6,351.6 
L565.5,351.6 
L568.4,351.7 
L571.3,351.7 
L574.2,351.7 
L577.1,351.7 
L580,351.8 
L582.9,351.8 
L585.8,351.8 
L588.7,351.8 
L591.6,351.9 
L594.5,351.9 
L597.4,351.9 
L600.3,351.9 
L603.1,351.9 
L606,352 
L608.9,352 
L611.8,352 
L614.7,352 
L617.6,352 
L620.5,352.1 
L623.4,352.1 
L626.3,352.1 
L629.2,352.1 
L632.1,352.1 
L635,352.2 
L637.9,352.2 
L640.8,352.2 
L643.7,352.2 
L646.6,352.2 
L649.5,352.2 
" fill="none"/>
</g>
	<g clip-path="url(#plot_window)" stroke="rgb(139,0,0)" stroke-width="1">
	<path d="M70.1,354 L70.1,354 
L73,354 
L75.89,354 
L78.79,354 
L81.69,354 
L84.59,354 
L87.48,354 
L90.38,354 
L93.28,354 
L96.17,354 
L99.07,354 
L102,354 
L104.9,354 
L107.8,354 
L110.7,354 
L113.6,354 
L116.5,192.7 
L119.3,202.3 
L122.2,211.2 
L125.1,219.2 
L128,226.6 
L130.9,233.4 
L133.8,239.7 
L136.7,245.5 
L139.6,250.9 
L142.5,255.8 
L145.4,260.5 
L148.3,264.8 
L151.2,268.8 
L154.1,272.5 
L157,276 
L159.9,279.3 
L162.8,282.4 
L165.7,285.3 
L168.6,288 
L171.5,290.6 
L174.4,293 
L177.3,295.3 
L180.2,297.5 
L183.1,299.5 
L186,301.4 
L188.9,303.3 
L191.8,305 
L194.7,306.6 
L197.6,308.2 
L200.5,309.7 
L203.4,311.1 
L206.3,312.5 
L209.2,313.8 
L212.1,315 
L214.9,316.2 
L217.8,317.3 
L220.7,318.4 
L223.6,319.4 
L226.5,320.4 
L229.4,321.3 
L232.3,322.2 
L235.2,323.1 
L238.1,323.9 
L241,324.7 
L243.9,325.5 
L246.8,326.2 
L249.7,326.9 
L252.6,327.6 
L255.5,328.3 
L258.4,328.9 
L261.3,329.5 
L264.2,330.1 
L267.1,330.7 
L270,331.2 
L272.9,331.7 
L275.8,332.2 
L278.7,332.7 
L281.6,333.2 
L284.5,333.7 
L287.4,334.1 
L290.3,334.5 
L293.2,335 
L296.1,335.4 
L299,335.7 
L301.9,336.1 
L304.8,336.5 
L307.7,336.8 
L310.6,337.2 
L313.4,337.5 
L316.3,337.9 
L319.2,338.2 
L322.1,338.5 
L325,338.8 
L327.9,339.1 
L330.8,339.3 
L333.7,339.6 
L336.6,339.9 
L339.5,340.1 
L342.4,340.4 
L345.3,340.6 
L348.2,340.9 
L351.1,341.1 
L354,341.3 
L356.9,341.5 
L359.8,341.8 
L362.7,342 
L365.6,342.2 
L368.5,342.4 
L371.4,342.6 
L374.3,342.8 
L377.2,342.9 
L380.1,343.1 
L383,343.3 
L385.9,343.5 
L388.8,343.6 
L391.7,343.8 
L394.6,343.9 
L397.5,344.1 
L400.4,344.3 
L403.3,344.4 
L406.2,344.5 
L409,344.7 
L411.9,344.8 
L414.8,345 
L417.7,345.1 
L420.6,345.2 
L423.5,345.4 
L426.4,345.5 
L429.3,345.6 
L432.2,345.7 
L435.1,345.8 
L438,345.9 
L440.9,346.1 
L443.8,346.2 
L446.7,346.3 
L449.6,346.4 
L452.5,346.5 
L455.4,346.6 
L458.3,346.7 
L461.2,346.8 
L464.1,346.9 
L467,347 
L469.9,347.1 
L472.8,347.1 
L475.7,347.2 
L478.6,347.3 
L481.5,347.4 
L484.4,347.5 
L487.3,347.6 
L490.2,347.6 
L493.1,347.7 
L496,347.8 
L498.9,347.9 
L501.8,348 
L504.6,348 
L507.5,348.1 
L510.4,348.2 
L513.3,348.2 
L516.2,348.3 
L519.1,348.4 
L522,348.4 
L524.9,348.5 
L527.8,348.6 
L530.7,348.6 
L533.6,348.7 
L536.5,348.7 
L539.4,348.8 
L542.3,348.9 
L545.2,348.9 
L548.1,349 
L551,349 
L553.9,349.1 
L556.8,349.1 
L559.7,349.2 
L562.6,349.2 
L565.5,349.3 
L568.4,349.3 
L571.3,349.4 
L574.2,349.4 
L577.1,349.5 
L580,349.5 
L582.9,349.6 
L585.8,349.6 
L588.7,349.7 
L591.6,349.7 
L594.5,349.8 
L597.4,349.8 
L600.3,349.8 
L603.1,349.9 
L606,349.9 
L608.9,350 
L611.8,350 
L614.7,350 
L617.6,350.1 
L620.5,350.1 
L623.4,350.2 
L626.3,350.2 
L629.2,350.2 
L632.1,350.3 
L635,350.3 
L637.9,350.3 
L640.8,350.4 
L643.7,350.4 
L646.6,350.4 
L649.5,350.5 
" fill="none"/>
</g>
	<g clip-path="url(#plot_window)" stroke="rgb(0,100,0)" stroke-width="1">
	<path d="M70.1,354 L70.1,354 
L73,354 
L75.89,354 
L78.79,354 
L81.69,354 
L84.59,354 
L87.48,354 
L90.38,354 
L93.28,354 
L96.17,354 
L99.07,354 
L102,354 
L104.9,354 
L107.8,354 
L110.7,354 
L113.6,354 
L116.5,354 
L119.3,354 
L122.2,354 
L125.1,354 
L128,354 
L130.9,354 
L133.8,354 
L136.7,354 
L139.6,354 
L142.5,354 
L145.4,354 
L148.3,354 
L151.2,354 
L154.1,354 
L157,354 
L159.9,354 
L162.8,246.6 
L165.7,251 
L168.6,255 
L171.5,258.9 
L174.4,262.5 
L177.3,265.9 
L180.2,269.2 
L183.1,272.2 
L186,275.1 
L188.9,277.9 
L191.8,280.5 
L194.7,283 
L197.6,285.3 
L200.5,287.5 
L203.4,289.7 
L206.3,291.7 
L209.2,293.6 
L212.1,295.5 
L214.9,297.2 
L217.8,298.9 
L220.7,300.5 
L223.6,302.1 
L226.5,303.5 
L229.4,305 
L232.3,306.3 
L235.2,307.6 
L238.1,308.9 
L241,310.1 
L243.9,311.2 
L246.8,312.3 
L249.7,313.4 
L252.6,314.4 
L255.5,315.4 
L258.4,316.3 
L261.3,317.2 
L264.2,318.1 
L267.1,319 
L270,319.8 
L272.9,320.6 
L275.8,321.4 
L278.7,322.1 
L281.6,322.8 
L284.5,323.5 
L287.4,324.2 
L290.3,324.8 
L293.2,325.4 
L296.1,326 
L299,326.6 
L301.9,327.2 
L304.8,327.7 
L307.7,328.3 
L310.6,328.8 
L313.4,329.3 
L316.3,329.8 
L319.2,330.3 
L322.1,330.7 
L325,331.2 
L327.9,331.6 
L330.8,332 
L333.7,332.4 
L336.6,332.8 
L339.5,333.2 
L342.4,333.6 
L345.3,333.9 
L348.2,334.3 
L351.1,334.7 
L354,335 
L356.9,335.3 
L359.8,335.6 
L362.7,336 
L365.6,336.3 
L368.5,336.6 
L371.4,336.8 
L374.3,337.1 
L377.2,337.4 
L380.1,337.7 
L383,337.9 
L385.9,338.2 
L388.8,338.4 
L391.7,338.7 
L394.6,338.9 
L397.5,339.2 
L400.4,339.4 
L403.3,339.6 
L406.2,339.8 
L409,340 
L411.9,340.2 
L414.8,340.4 
L417.7,340.6 
L420.6,340.8 
L423.5,341 
L426.4,341.2 
L429.3,341.4 
L432.2,341.6 
L435.1,341.8 
L438,341.9 
L440.9,342.1 
L443.8,342.3 
L446.7,342.4 
L449.6,342.6 
L452.5,342.7 
L455.4,342.9 
L458.3,343 
L461.2,343.2 
L464.1,343.3 
L467,343.5 
L469.9,343.6 
L472.8,343.7 
L475.7,343.9 
L478.6,344 
L481.5,344.1 
L484.4,344.2 
L487.3,344.4 
L490.2,344.5 
L493.1,344.6 
L496,344.7 
L498.9,344.8 
L501.8,344.9 
L504.6,345 
L507.5,345.1 
L510.4,345.3 
L513.3,345.4 
L516.2,345.5 
L519.1,345.6 
L522,345.7 
L524.9,345.7 
L527.8,345.8 
L530.7,345.9 
L533.6,346 
L536.5,346.1 
L539.4,346.2 
L542.3,346.3 
L545.2,346.4 
L548.1,346.5 
L551,346.5 
L553.9,346.6 
L556.8,346.7 
L559.7,346.8 
L562.6,346.9 
L565.5,346.9 
L568.4,347 
L571.3,347.1 
L574.2,347.2 
L577.1,347.2 
L580,347.3 
L582.9,347.4 
L585.8,347.4 
L588.7,347.5 
L591.6,347.6 
L594.5,347.6 
L597.4,347.7 
L600.3,347.8 
L603.1,347.8 
L606,347.9 
L608.9,347.9 
L611.8,348 
L614.7,348.1 
L617.6,348.1 
L620.5,348.2 
L623.4,348.2 
L626.3,348.3 
L629.2,348.3 
L632.1,348.4 
L635,348.5 
L637.9,348.5 
L640.8,348.6 
L643.7,348.6 
L646.6,348.7 
L649.5,348.7 
" fill="none"/>
</g>
</g>
	<g id="plotPoints" clip-path="url(#plot_window)">
</g>
	<g id="legendBackground" stroke="rgb(119,136,153)" fill="rgb(255,255,255)" stroke-width="1">
	<rect x="655.5" y="43" width="80.5" height="64.5"/>
</g>
	<g id="legendPoints">
</g>
	<g id="legendLines">
	<g stroke="rgb(0,0,139)" stroke-width="1">
	<line x1="670.8" y1="62.75" x2="676.8" y2="62.75"/>
</g>
	<g stroke="rgb(139,0,0)" stroke-width="1">
	<line x1="670.8" y1="75.25" x2="676.8" y2="75.25"/>
</g>
	<g stroke="rgb(0,100,0)" stroke-width="1">
	<line x1="670.8" y1="87.75" x2="676.8" y2="87.75"/>
</g>
</g>
	<g id="legendText">
	<text x="685.8" y="62.75" font-size="10" font-family="Lucida Sans Unicode" font-weight="normal" textLength="42">scale=1
	</text>
	<text x="685.8" y="75.25" font-size="10" font-family="Lucida Sans Unicode" font-weight="normal" textLength="42">scale=2
	</text>
	<text x="685.8" y="87.75" font-size="10" font-family="Lucida Sans Unicode" font-weight="normal" textLength="42">scale=3
	</text>
</g>
	<g id="title">
	<text x="375" y="30" text-anchor="middle" font-size="20" font-family="Lucida Sans Unicode" font-weight="normal">Pareto Distribution PDF (shape=1)
	</text>
</g>
	<g id="plotXValues">
</g>
	<g id="plotYValues">
</g>
</svg>
