<?xml version="1.0" encoding="UTF-8" standalone="no"?>
<svg width="750" height ="400" version="1.1"
xmlns:svg ="http://www.w3.org/2000/svg"
xmlns:rdf="http://www.w3.org/1999/02/22-rdf-syntax-ns#"
xmlns:cc="http://web.resource.org/cc/"
xmlns:dc="http://purl.org/dc/elements/1.1/"
xmlns ="http://www.w3.org/2000/svg"
>
<!-- SVG plot written using Boost.Plot program (Creator Jacob Voytko) --> 
<!-- Use, modification and distribution of Boost.Plot subject to the --> 
<!-- Boost Software License, Version 1.0.--> 
<!-- (See accompanying file LICENSE_1_0.txt --> 
<!-- or copy at http://www.boost.org/LICENSE_1_0.txt) --> 

<!-- SVG Plot Copyright John Maddock 2008 --> 
<meta name="copyright" content="John Maddock" />
<meta name="date" content="2008" />
<!-- Use, modification and distribution of this Scalable Vector Graphic file -->
<!-- are subject to the Boost Software License, Version 1.0. -->
<!-- (See accompanying file LICENSE_1_0.txt or copy at http://www.boost.org/LICENSE_1_0.txt) -->

<clipPath id="plot_window">	<rect x="71.1" y="44" width="565.4" height="309"/>
</clipPath>
	<g id="imageBackground" stroke="rgb(119,136,153)" fill="rgb(255,255,255)" stroke-width="2">
	<rect x="0" y="0" width="750" height="400"/>
</g>
	<g id="plotBackground" stroke="rgb(119,136,153)" fill="rgb(255,255,255)" stroke-width="2">
	<rect x="70.1" y="43" width="567.4" height="311"/>
</g>
	<g id="yMinorGrid" stroke="rgb(200,220,255)" stroke-width="0.5">
</g>
	<g id="yMajorGrid" stroke="rgb(200,220,255)" stroke-width="1">
</g>
	<g id="xMinorGrid" stroke="rgb(200,220,255)" stroke-width="0.5">
</g>
	<g id="xMajorGrid" stroke="rgb(200,220,255)" stroke-width="1">
</g>
	<g id="yAxis" stroke="rgb(0,0,0)" stroke-width="1">
	<line x1="70.1" y1="43" x2="70.1" y2="354"/>
</g>
	<g id="xAxis" stroke="rgb(0,0,0)" stroke-width="1">
	<line x1="65.1" y1="354" x2="637.5" y2="354"/>
	<line x1="65.1" y1="354" x2="637.5" y2="354"/>
</g>
	<g id="yMinorTicks" stroke="rgb(0,0,0)" stroke-width="1">
	<path d="M68.1,338.3 L70.1,338.3 
M68.1,322.7 L70.1,322.7 
M68.1,307 L70.1,307 
M68.1,291.3 L70.1,291.3 
M68.1,260 L70.1,260 
M68.1,244.3 L70.1,244.3 
M68.1,228.7 L70.1,228.7 
M68.1,213 L70.1,213 
M68.1,181.7 L70.1,181.7 
M68.1,166 L70.1,166 
M68.1,150.3 L70.1,150.3 
M68.1,134.7 L70.1,134.7 
M68.1,103.4 L70.1,103.4 
M68.1,87.69 L70.1,87.69 
M68.1,72.02 L70.1,72.02 
M68.1,56.35 L70.1,56.35 
M68.1,354 L70.1,354 
" fill="none"/>
</g>
	<g id="xMinorTicks" stroke="rgb(0,0,0)" stroke-width="1">
	<path d="M87.75,354 L87.75,356 
M105.4,354 L105.4,356 
M123,354 L123,356 
M140.7,354 L140.7,356 
M176,354 L176,356 
M193.6,354 L193.6,356 
M211.3,354 L211.3,356 
M228.9,354 L228.9,356 
M264.2,354 L264.2,356 
M281.9,354 L281.9,356 
M299.5,354 L299.5,356 
M317.2,354 L317.2,356 
M352.5,354 L352.5,356 
M370.1,354 L370.1,356 
M387.7,354 L387.7,356 
M405.4,354 L405.4,356 
M440.7,354 L440.7,356 
M458.3,354 L458.3,356 
M476,354 L476,356 
M493.6,354 L493.6,356 
M528.9,354 L528.9,356 
M546.6,354 L546.6,356 
M564.2,354 L564.2,356 
M581.9,354 L581.9,356 
M617.2,354 L617.2,356 
M634.8,354 L634.8,356 
" fill="none"/>
</g>
	<g id="yMajorTicks" stroke="rgb(0,0,0)" stroke-width="2">
	<path d="M65.1,354 L70.1,354 
M65.1,275.7 L70.1,275.7 
M65.1,197.3 L70.1,197.3 
M65.1,119 L70.1,119 
M65.1,354 L70.1,354 
" fill="none"/>
</g>
	<g id="xMajorTicks" stroke="rgb(0,0,0)" stroke-width="2">
	<path d="M70.1,354 L70.1,359 
M158.3,354 L158.3,359 
M246.6,354 L246.6,359 
M334.8,354 L334.8,359 
M423,354 L423,359 
M511.3,354 L511.3,359 
M599.5,354 L599.5,359 
" fill="none"/>
</g>
	<g id="xTicksValues" font-size="12" font-family="Lucida Sans Unicode" text-anchor="middle">
	<text x="70.1" y="374.6">1
	</text>
	<text x="158.3" y="374.6">2
	</text>
	<text x="246.6" y="374.6">3
	</text>
	<text x="334.8" y="374.6">4
	</text>
	<text x="423" y="374.6">5
	</text>
	<text x="511.3" y="374.6">6
	</text>
	<text x="599.5" y="374.6">7
	</text>
</g>
	<g id="yTicksValues" font-size="12" font-family="Lucida Sans Unicode" text-anchor="end">
	<text x="59.1" y="356.4">0
	</text>
	<text x="59.1" y="278.1">0.5
	</text>
	<text x="59.1" y="199.7">1
	</text>
	<text x="59.1" y="121.4">1.5
	</text>
	<text x="59.1" y="356.4">0
	</text>
</g>
	<g id="yLabel">
	<text x="32.4" y="198.5" text-anchor="middle" transform="rotate(-90 32.4 198.5)" font-size="14" font-family="Lucida Sans Unicode">Probability
	</text>
</g>
	<g id="xLabel">
	<text x="353.8" y="387.1" text-anchor="middle" font-size="12" font-family="Lucida Sans Unicode">Random Variable
	</text>
</g>
	<g id="plotLines" stroke-width="2">
	<g clip-path="url(#plot_window)" stroke="rgb(0,0,139)" stroke-width="1">
	<path d="M70.1,275.7 L70.1,275.7 
L72.94,279.3 
L75.77,282.7 
L78.61,285.8 
L81.45,288.7 
L84.28,291.4 
L87.12,293.9 
L89.96,296.2 
L92.8,298.4 
L95.63,300.5 
L98.47,302.4 
L101.3,304.3 
L104.1,306 
L107,307.6 
L109.8,309.1 
L112.7,310.6 
L115.5,312 
L118.3,313.3 
L121.2,314.5 
L124,315.7 
L126.8,316.8 
L129.7,317.9 
L132.5,318.9 
L135.4,319.9 
L138.2,320.8 
L141,321.7 
L143.9,322.5 
L146.7,323.3 
L149.5,324.1 
L152.4,324.8 
L155.2,325.6 
L158,326.2 
L160.9,326.9 
L163.7,327.5 
L166.6,328.1 
L169.4,328.7 
L172.2,329.3 
L175.1,329.8 
L177.9,330.3 
L180.7,330.9 
L183.6,331.3 
L186.4,331.8 
L189.3,332.3 
L192.1,332.7 
L194.9,333.1 
L197.8,333.5 
L200.6,333.9 
L203.4,334.3 
L206.3,334.7 
L209.1,335 
L212,335.4 
L214.8,335.7 
L217.6,336.1 
L220.5,336.4 
L223.3,336.7 
L226.1,337 
L229,337.3 
L231.8,337.6 
L234.6,337.8 
L237.5,338.1 
L240.3,338.4 
L243.2,338.6 
L246,338.9 
L248.8,339.1 
L251.7,339.4 
L254.5,339.6 
L257.3,339.8 
L260.2,340 
L263,340.2 
L265.9,340.4 
L268.7,340.6 
L271.5,340.8 
L274.4,341 
L277.2,341.2 
L280,341.4 
L282.9,341.6 
L285.7,341.7 
L288.5,341.9 
L291.4,342.1 
L294.2,342.2 
L297.1,342.4 
L299.9,342.6 
L302.7,342.7 
L305.6,342.9 
L308.4,343 
L311.2,343.1 
L314.1,343.3 
L316.9,343.4 
L319.8,343.5 
L322.6,343.7 
L325.4,343.8 
L328.3,343.9 
L331.1,344.1 
L333.9,344.2 
L336.8,344.3 
L339.6,344.4 
L342.5,344.5 
L345.3,344.6 
L348.1,344.7 
L351,344.8 
L353.8,344.9 
L356.6,345.1 
L359.5,345.2 
L362.3,345.3 
L365.1,345.3 
L368,345.4 
L370.8,345.5 
L373.7,345.6 
L376.5,345.7 
L379.3,345.8 
L382.2,345.9 
L385,346 
L387.8,346.1 
L390.7,346.1 
L393.5,346.2 
L396.4,346.3 
L399.2,346.4 
L402,346.5 
L404.9,346.5 
L407.7,346.6 
L410.5,346.7 
L413.4,346.8 
L416.2,346.8 
L419.1,346.9 
L421.9,347 
L424.7,347 
L427.6,347.1 
L430.4,347.2 
L433.2,347.2 
L436.1,347.3 
L438.9,347.4 
L441.7,347.4 
L444.6,347.5 
L447.4,347.5 
L450.3,347.6 
L453.1,347.7 
L455.9,347.7 
L458.8,347.8 
L461.6,347.8 
L464.4,347.9 
L467.3,347.9 
L470.1,348 
L473,348 
L475.8,348.1 
L478.6,348.1 
L481.5,348.2 
L484.3,348.2 
L487.1,348.3 
L490,348.3 
L492.8,348.4 
L495.7,348.4 
L498.5,348.5 
L501.3,348.5 
L504.2,348.6 
L507,348.6 
L509.8,348.6 
L512.7,348.7 
L515.5,348.7 
L518.3,348.8 
L521.2,348.8 
L524,348.9 
L526.9,348.9 
L529.7,348.9 
L532.5,349 
L535.4,349 
L538.2,349.1 
L541,349.1 
L543.9,349.1 
L546.7,349.2 
L549.6,349.2 
L552.4,349.2 
L555.2,349.3 
L558.1,349.3 
L560.9,349.3 
L563.7,349.4 
L566.6,349.4 
L569.4,349.4 
L572.2,349.5 
L575.1,349.5 
L577.9,349.5 
L580.8,349.6 
L583.6,349.6 
L586.4,349.6 
L589.3,349.7 
L592.1,349.7 
L594.9,349.7 
L597.8,349.8 
L600.6,349.8 
L603.5,349.8 
L606.3,349.8 
L609.1,349.9 
L612,349.9 
L614.8,349.9 
L617.6,350 
L620.5,350 
L623.3,350 
L626.2,350 
L629,350.1 
L631.8,350.1 
L634.7,350.1 
" fill="none"/>
</g>
	<g clip-path="url(#plot_window)" stroke="rgb(139,0,0)" stroke-width="1">
	<path d="M70.1,197.3 L70.1,197.3 
L72.94,207 
L75.77,215.7 
L78.61,223.7 
L81.45,231 
L84.28,237.7 
L87.12,243.9 
L89.96,249.6 
L92.8,254.9 
L95.63,259.8 
L98.47,264.3 
L101.3,268.5 
L104.1,272.4 
L107,276.1 
L109.8,279.5 
L112.7,282.7 
L115.5,285.7 
L118.3,288.5 
L121.2,291.1 
L124,293.6 
L126.8,296 
L129.7,298.2 
L132.5,300.3 
L135.4,302.2 
L138.2,304.1 
L141,305.9 
L143.9,307.5 
L146.7,309.1 
L149.5,310.6 
L152.4,312 
L155.2,313.4 
L158,314.7 
L160.9,315.9 
L163.7,317.1 
L166.6,318.2 
L169.4,319.3 
L172.2,320.3 
L175.1,321.3 
L177.9,322.3 
L180.7,323.2 
L183.6,324 
L186.4,324.9 
L189.3,325.6 
L192.1,326.4 
L194.9,327.1 
L197.8,327.8 
L200.6,328.5 
L203.4,329.2 
L206.3,329.8 
L209.1,330.4 
L212,331 
L214.8,331.5 
L217.6,332.1 
L220.5,332.6 
L223.3,333.1 
L226.1,333.6 
L229,334 
L231.8,334.5 
L234.6,334.9 
L237.5,335.3 
L240.3,335.7 
L243.2,336.1 
L246,336.5 
L248.8,336.9 
L251.7,337.2 
L254.5,337.6 
L257.3,337.9 
L260.2,338.3 
L263,338.6 
L265.9,338.9 
L268.7,339.2 
L271.5,339.5 
L274.4,339.7 
L277.2,340 
L280,340.3 
L282.9,340.5 
L285.7,340.8 
L288.5,341 
L291.4,341.3 
L294.2,341.5 
L297.1,341.7 
L299.9,341.9 
L302.7,342.2 
L305.6,342.4 
L308.4,342.6 
L311.2,342.8 
L314.1,342.9 
L316.9,343.1 
L319.8,343.3 
L322.6,343.5 
L325.4,343.7 
L328.3,343.8 
L331.1,344 
L333.9,344.2 
L336.8,344.3 
L339.6,344.5 
L342.5,344.6 
L345.3,344.8 
L348.1,344.9 
L351,345 
L353.8,345.2 
L356.6,345.3 
L359.5,345.4 
L362.3,345.6 
L365.1,345.7 
L368,345.8 
L370.8,345.9 
L373.7,346.1 
L376.5,346.2 
L379.3,346.3 
L382.2,346.4 
L385,346.5 
L387.8,346.6 
L390.7,346.7 
L393.5,346.8 
L396.4,346.9 
L399.2,347 
L402,347.1 
L404.9,347.2 
L407.7,347.3 
L410.5,347.4 
L413.4,347.4 
L416.2,347.5 
L419.1,347.6 
L421.9,347.7 
L424.7,347.8 
L427.6,347.9 
L430.4,347.9 
L433.2,348 
L436.1,348.1 
L438.9,348.2 
L441.7,348.2 
L444.6,348.3 
L447.4,348.4 
L450.3,348.4 
L453.1,348.5 
L455.9,348.6 
L458.8,348.6 
L461.6,348.7 
L464.4,348.8 
L467.3,348.8 
L470.1,348.9 
L473,348.9 
L475.8,349 
L478.6,349.1 
L481.5,349.1 
L484.3,349.2 
L487.1,349.2 
L490,349.3 
L492.8,349.3 
L495.7,349.4 
L498.5,349.4 
L501.3,349.5 
L504.2,349.5 
L507,349.6 
L509.8,349.6 
L512.7,349.7 
L515.5,349.7 
L518.3,349.8 
L521.2,349.8 
L524,349.9 
L526.9,349.9 
L529.7,349.9 
L532.5,350 
L535.4,350 
L538.2,350.1 
L541,350.1 
L543.9,350.1 
L546.7,350.2 
L549.6,350.2 
L552.4,350.3 
L555.2,350.3 
L558.1,350.3 
L560.9,350.4 
L563.7,350.4 
L566.6,350.4 
L569.4,350.5 
L572.2,350.5 
L575.1,350.5 
L577.9,350.6 
L580.8,350.6 
L583.6,350.6 
L586.4,350.7 
L589.3,350.7 
L592.1,350.7 
L594.9,350.8 
L597.8,350.8 
L600.6,350.8 
L603.5,350.8 
L606.3,350.9 
L609.1,350.9 
L612,350.9 
L614.8,351 
L617.6,351 
L620.5,351 
L623.3,351 
L626.2,351.1 
L629,351.1 
L631.8,351.1 
L634.7,351.1 
" fill="none"/>
</g>
	<g clip-path="url(#plot_window)" stroke="rgb(0,100,0)" stroke-width="1">
	<path d="M72.94,69.07 L72.94,69.07 
L75.77,94.12 
L78.61,116.3 
L81.45,136.1 
L84.28,153.7 
L87.12,169.4 
L89.96,183.6 
L92.8,196.3 
L95.63,207.8 
L98.47,218.2 
L101.3,227.7 
L104.1,236.3 
L107,244.1 
L109.8,251.3 
L112.7,257.8 
L115.5,263.8 
L118.3,269.3 
L121.2,274.4 
L124,279.1 
L126.8,283.4 
L129.7,287.4 
L132.5,291 
L135.4,294.5 
L138.2,297.7 
L141,300.6 
L143.9,303.4 
L146.7,305.9 
L149.5,308.3 
L152.4,310.6 
L155.2,312.7 
L158,314.6 
L160.9,316.5 
L163.7,318.2 
L166.6,319.8 
L169.4,321.4 
L172.2,322.8 
L175.1,324.2 
L177.9,325.4 
L180.7,326.6 
L183.6,327.8 
L186.4,328.9 
L189.3,329.9 
L192.1,330.8 
L194.9,331.7 
L197.8,332.6 
L200.6,333.4 
L203.4,334.2 
L206.3,335 
L209.1,335.7 
L212,336.3 
L214.8,337 
L217.6,337.6 
L220.5,338.2 
L223.3,338.7 
L226.1,339.2 
L229,339.7 
L231.8,340.2 
L234.6,340.7 
L237.5,341.1 
L240.3,341.5 
L243.2,341.9 
L246,342.3 
L248.8,342.7 
L251.7,343 
L254.5,343.4 
L257.3,343.7 
L260.2,344 
L263,344.3 
L265.9,344.6 
L268.7,344.9 
L271.5,345.1 
L274.4,345.4 
L277.2,345.6 
L280,345.9 
L282.9,346.1 
L285.7,346.3 
L288.5,346.5 
L291.4,346.7 
L294.2,346.9 
L297.1,347.1 
L299.9,347.3 
L302.7,347.5 
L305.6,347.7 
L308.4,347.8 
L311.2,348 
L314.1,348.1 
L316.9,348.3 
L319.8,348.4 
L322.6,348.6 
L325.4,348.7 
L328.3,348.8 
L331.1,348.9 
L333.9,349.1 
L336.8,349.2 
L339.6,349.3 
L342.5,349.4 
L345.3,349.5 
L348.1,349.6 
L351,349.7 
L353.8,349.8 
L356.6,349.9 
L359.5,350 
L362.3,350.1 
L365.1,350.2 
L368,350.3 
L370.8,350.3 
L373.7,350.4 
L376.5,350.5 
L379.3,350.6 
L382.2,350.6 
L385,350.7 
L387.8,350.8 
L390.7,350.8 
L393.5,350.9 
L396.4,351 
L399.2,351 
L402,351.1 
L404.9,351.2 
L407.7,351.2 
L410.5,351.3 
L413.4,351.3 
L416.2,351.4 
L419.1,351.4 
L421.9,351.5 
L424.7,351.5 
L427.6,351.6 
L430.4,351.6 
L433.2,351.7 
L436.1,351.7 
L438.9,351.7 
L441.7,351.8 
L444.6,351.8 
L447.4,351.9 
L450.3,351.9 
L453.1,351.9 
L455.9,352 
L458.8,352 
L461.6,352.1 
L464.4,352.1 
L467.3,352.1 
L470.1,352.2 
L473,352.2 
L475.8,352.2 
L478.6,352.2 
L481.5,352.3 
L484.3,352.3 
L487.1,352.3 
L490,352.4 
L492.8,352.4 
L495.7,352.4 
L498.5,352.4 
L501.3,352.5 
L504.2,352.5 
L507,352.5 
L509.8,352.5 
L512.7,352.6 
L515.5,352.6 
L518.3,352.6 
L521.2,352.6 
L524,352.6 
L526.9,352.7 
L529.7,352.7 
L532.5,352.7 
L535.4,352.7 
L538.2,352.8 
L541,352.8 
L543.9,352.8 
L546.7,352.8 
L549.6,352.8 
L552.4,352.8 
L555.2,352.9 
L558.1,352.9 
L560.9,352.9 
L563.7,352.9 
L566.6,352.9 
L569.4,352.9 
L572.2,353 
L575.1,353 
L577.9,353 
L580.8,353 
L583.6,353 
L586.4,353 
L589.3,353 
L592.1,353.1 
L594.9,353.1 
L597.8,353.1 
L600.6,353.1 
L603.5,353.1 
L606.3,353.1 
L609.1,353.1 
L612,353.1 
L614.8,353.2 
L617.6,353.2 
L620.5,353.2 
L623.3,353.2 
L626.2,353.2 
L629,353.2 
L631.8,353.2 
L634.7,353.2 
" fill="none"/>
</g>
</g>
	<g id="plotPoints" clip-path="url(#plot_window)">
</g>
	<g id="legendBackground" stroke="rgb(119,136,153)" fill="rgb(255,255,255)" stroke-width="1">
	<rect x="643.5" y="43" width="92.5" height="64.5"/>
</g>
	<g id="legendPoints">
</g>
	<g id="legendLines">
	<g stroke="rgb(0,0,139)" stroke-width="1">
	<line x1="658.8" y1="62.75" x2="664.8" y2="62.75"/>
</g>
	<g stroke="rgb(139,0,0)" stroke-width="1">
	<line x1="658.8" y1="75.25" x2="664.8" y2="75.25"/>
</g>
	<g stroke="rgb(0,100,0)" stroke-width="1">
	<line x1="658.8" y1="87.75" x2="664.8" y2="87.75"/>
</g>
</g>
	<g id="legendText">
	<text x="673.8" y="62.75" font-size="10" font-family="Lucida Sans Unicode" font-weight="normal" textLength="54">shape=0.5
	</text>
	<text x="673.8" y="75.25" font-size="10" font-family="Lucida Sans Unicode" font-weight="normal" textLength="42">shape=1
	</text>
	<text x="673.8" y="87.75" font-size="10" font-family="Lucida Sans Unicode" font-weight="normal" textLength="42">shape=2
	</text>
</g>
	<g id="title">
	<text x="375" y="30" text-anchor="middle" font-size="20" font-family="Lucida Sans Unicode" font-weight="normal">Pareto Distribution PDF (scale=1)
	</text>
</g>
	<g id="plotXValues">
</g>
	<g id="plotYValues">
</g>
</svg>
