<?xml version="1.0" encoding="UTF-8" standalone="no"?>
<svg width="750" height ="400" version="1.1"
xmlns:svg ="http://www.w3.org/2000/svg"
xmlns:rdf="http://www.w3.org/1999/02/22-rdf-syntax-ns#"
xmlns:cc="http://web.resource.org/cc/"
xmlns:dc="http://purl.org/dc/elements/1.1/"
xmlns ="http://www.w3.org/2000/svg"
>
<!-- SVG plot written using Boost.Plot program (Creator Jacob Voytko) --> 
<!-- Use, modification and distribution of Boost.Plot subject to the --> 
<!-- Boost Software License, Version 1.0.--> 
<!-- (See accompanying file LICENSE_1_0.txt --> 
<!-- or copy at http://www.boost.org/LICENSE_1_0.txt) --> 

<!-- SVG Plot Copyright John Maddock 2008 --> 
<meta name="copyright" content="John Maddock" />
<meta name="date" content="2008" />
<!-- Use, modification and distribution of this Scalable Vector Graphic file -->
<!-- are subject to the Boost Software License, Version 1.0. -->
<!-- (See accompanying file LICENSE_1_0.txt or copy at http://www.boost.org/LICENSE_1_0.txt) -->

<clipPath id="plot_window">	<rect x="78.3" y="44" width="586.4" height="309"/>
</clipPath>
	<g id="imageBackground" stroke="rgb(119,136,153)" fill="rgb(255,255,255)" stroke-width="2">
	<rect x="0" y="0" width="750" height="400"/>
</g>
	<g id="plotBackground" stroke="rgb(119,136,153)" fill="rgb(255,255,255)" stroke-width="2">
	<rect x="77.3" y="43" width="588.4" height="311"/>
</g>
	<g id="yMinorGrid" stroke="rgb(200,220,255)" stroke-width="0.5">
</g>
	<g id="yMajorGrid" stroke="rgb(200,220,255)" stroke-width="1">
</g>
	<g id="xMinorGrid" stroke="rgb(200,220,255)" stroke-width="0.5">
</g>
	<g id="xMajorGrid" stroke="rgb(200,220,255)" stroke-width="1">
</g>
	<g id="yAxis" stroke="rgb(0,0,0)" stroke-width="1">
	<line x1="86.38" y1="43" x2="86.38" y2="359"/>
	<line x1="77.3" y1="43" x2="77.3" y2="354"/>
</g>
	<g id="xAxis" stroke="rgb(0,0,0)" stroke-width="1">
	<line x1="72.3" y1="354" x2="665.7" y2="354"/>
	<line x1="72.3" y1="354" x2="665.7" y2="354"/>
</g>
	<g id="yMinorTicks" stroke="rgb(0,0,0)" stroke-width="1">
	<path d="M75.3,337.9 L77.3,337.9 
M75.3,321.8 L77.3,321.8 
M75.3,305.7 L77.3,305.7 
M75.3,289.5 L77.3,289.5 
M75.3,257.3 L77.3,257.3 
M75.3,241.2 L77.3,241.2 
M75.3,225.1 L77.3,225.1 
M75.3,209 L77.3,209 
M75.3,176.8 L77.3,176.8 
M75.3,160.6 L77.3,160.6 
M75.3,144.5 L77.3,144.5 
M75.3,128.4 L77.3,128.4 
M75.3,96.2 L77.3,96.2 
M75.3,80.08 L77.3,80.08 
M75.3,63.97 L77.3,63.97 
M75.3,47.86 L77.3,47.86 
M75.3,354 L77.3,354 
" fill="none"/>
</g>
	<g id="xMinorTicks" stroke="rgb(0,0,0)" stroke-width="1">
</g>
	<g id="yMajorTicks" stroke="rgb(0,0,0)" stroke-width="2">
	<path d="M72.3,354 L77.3,354 
M72.3,273.4 L77.3,273.4 
M72.3,192.9 L77.3,192.9 
M72.3,112.3 L77.3,112.3 
M72.3,354 L77.3,354 
" fill="none"/>
</g>
	<g id="xMajorTicks" stroke="rgb(0,0,0)" stroke-width="2">
	<path d="M86.38,354 L86.38,359 
M177.1,354 L177.1,359 
M267.9,354 L267.9,359 
M358.6,354 L358.6,359 
M449.4,354 L449.4,359 
M540.2,354 L540.2,359 
M630.9,354 L630.9,359 
M86.38,354 L86.38,359 
" fill="none"/>
</g>
	<g id="xTicksValues" font-size="12" font-family="Lucida Sans Unicode" text-anchor="middle">
	<text x="86.38" y="374.6">0
	</text>
	<text x="177.1" y="374.6">5
	</text>
	<text x="267.9" y="374.6">10
	</text>
	<text x="358.6" y="374.6">15
	</text>
	<text x="449.4" y="374.6">20
	</text>
	<text x="540.2" y="374.6">25
	</text>
	<text x="630.9" y="374.6">30
	</text>
	<text x="86.38" y="374.6">0
	</text>
</g>
	<g id="yTicksValues" font-size="12" font-family="Lucida Sans Unicode" text-anchor="end">
	<text x="66.3" y="356.4">0
	</text>
	<text x="66.3" y="275.8">0.05
	</text>
	<text x="66.3" y="195.3">0.1
	</text>
	<text x="66.3" y="114.7">0.15
	</text>
	<text x="66.3" y="356.4">0
	</text>
</g>
	<g id="yLabel">
	<text x="32.4" y="198.5" text-anchor="middle" transform="rotate(-90 32.4 198.5)" font-size="14" font-family="Lucida Sans Unicode">Probability
	</text>
</g>
	<g id="xLabel">
	<text x="371.5" y="387.1" text-anchor="middle" font-size="12" font-family="Lucida Sans Unicode">Random Variable
	</text>
</g>
	<g id="plotLines" stroke-width="2">
	<g clip-path="url(#plot_window)" stroke="rgb(0,0,139)" fill="rgb(0,0,139)" stroke-width="1">
	<path d="M79.57,354 L79.57,354 
L79.57,354 
L79.57,343.1 
L84.11,343.1 
L84.11,354 
L97.72,354 
L97.72,299.7 
L102.3,299.7 
L102.3,354 
L115.9,354 
L115.9,218.3 
L120.4,218.3 
L120.4,354 
L134,354 
L134,127.8 
L138.6,127.8 
L138.6,354 
L152.2,354 
L152.2,71.27 
L156.7,71.27 
L156.7,354 
L170.3,354 
L170.3,71.27 
L174.9,71.27 
L174.9,354 
L188.5,354 
L188.5,118.4 
L193,118.4 
L193,354 
L206.6,354 
L206.6,185.7 
L211.2,185.7 
L211.2,354 
L224.8,354 
L224.8,248.8 
L229.3,248.8 
L229.3,354 
L242.9,354 
L242.9,295.6 
L247.5,295.6 
L247.5,354 
L261.1,354 
L261.1,324.8 
L265.6,324.8 
L265.6,354 
L279.2,354 
L279.2,340.7 
L283.8,340.7 
L283.8,354 
L297.4,354 
L297.4,348.5 
L301.9,348.5 
L301.9,354 
L315.5,354 
L315.5,351.9 
L320.1,351.9 
L320.1,354 
L333.7,354 
L333.7,353.2 
L338.2,353.2 
L338.2,354 
L351.8,354 
L351.8,353.7 
L356.4,353.7 
L356.4,354 
L370,354 
L370,353.9 
L374.5,353.9 
L374.5,354 
L388.1,354 
L388.1,354 
L392.7,354 
L392.7,354 
L406.3,354 
L406.3,354 
L410.8,354 
L410.8,354 
L424.4,354 
L424.4,354 
L429,354 
L429,354 
L442.6,354 
L442.6,354 
L447.1,354 
L447.1,354 
L460.7,354 
L460.7,354 
L465.3,354 
L465.3,354 
L478.9,354 
L478.9,354 
L483.4,354 
L483.4,354 
L497,354 
L497,354 
L501.6,354 
L501.6,354 
L515.2,354 
L515.2,354 
L519.7,354 
L519.7,354 
L533.3,354 
L533.3,354 
L537.9,354 
L537.9,354 
L551.5,354 
L551.5,354 
L556,354 
L556,354 
L569.6,354 
L569.6,354 
L574.2,354 
L574.2,354 
L587.8,354 
L587.8,354 
L592.3,354 
L592.3,354 
L605.9,354 
L605.9,354 
L610.5,354 
L610.5,354 
L624.1,354 
L624.1,354 
L628.6,354 
L628.6,354 
L642.2,354 
L642.2,354 
L646.8,354 
L646.8,354 
L646.8,354 
Z" fill="rgb(0,0,139)"/>
</g>
	<g clip-path="url(#plot_window)" stroke="rgb(139,0,0)" fill="rgb(139,0,0)" stroke-width="1">
	<path d="M84.11,354 L84.11,354 
L84.11,354 
L84.11,353.9 
L88.64,353.9 
L88.64,354 
L102.3,354 
L102.3,353.3 
L106.8,353.3 
L106.8,354 
L120.4,354 
L120.4,350.3 
L124.9,350.3 
L124.9,354 
L138.6,354 
L138.6,341.8 
L143.1,341.8 
L143.1,354 
L156.7,354 
L156.7,323.5 
L161.2,323.5 
L161.2,354 
L174.9,354 
L174.9,293 
L179.4,293 
L179.4,354 
L193,354 
L193,252.4 
L197.6,252.4 
L197.6,354 
L211.2,354 
L211.2,208.9 
L215.7,208.9 
L215.7,354 
L229.3,354 
L229.3,172.6 
L233.9,172.6 
L233.9,354 
L247.5,354 
L247.5,152.4 
L252,152.4 
L252,354 
L265.6,354 
L265.6,152.4 
L270.2,152.4 
L270.2,354 
L283.8,354 
L283.8,170.7 
L288.3,170.7 
L288.3,354 
L301.9,354 
L301.9,201.3 
L306.5,201.3 
L306.5,354 
L320.1,354 
L320.1,236.5 
L324.6,236.5 
L324.6,354 
L338.2,354 
L338.2,270.1 
L342.8,270.1 
L342.8,354 
L356.4,354 
L356.4,298.1 
L360.9,298.1 
L360.9,354 
L374.5,354 
L374.5,319 
L379.1,319 
L379.1,354 
L392.7,354 
L392.7,333.4 
L397.2,333.4 
L397.2,354 
L410.8,354 
L410.8,342.6 
L415.4,342.6 
L415.4,354 
L429,354 
L429,348 
L433.5,348 
L433.5,354 
L447.1,354 
L447.1,351 
L451.7,351 
L451.7,354 
L465.3,354 
L465.3,352.6 
L469.8,352.6 
L469.8,354 
L483.4,354 
L483.4,353.3 
L488,353.3 
L488,354 
L501.6,354 
L501.6,353.7 
L506.1,353.7 
L506.1,354 
L519.7,354 
L519.7,353.9 
L524.3,353.9 
L524.3,354 
L537.9,354 
L537.9,354 
L542.4,354 
L542.4,354 
L556,354 
L556,354 
L560.6,354 
L560.6,354 
L574.2,354 
L574.2,354 
L578.7,354 
L578.7,354 
L592.3,354 
L592.3,354 
L596.9,354 
L596.9,354 
L610.5,354 
L610.5,354 
L615,354 
L615,354 
L628.6,354 
L628.6,354 
L633.2,354 
L633.2,354 
L646.8,354 
L646.8,354 
L651.3,354 
L651.3,354 
L651.3,354 
Z" fill="rgb(139,0,0)"/>
</g>
	<g clip-path="url(#plot_window)" stroke="rgb(0,100,0)" fill="rgb(0,100,0)" stroke-width="1">
	<path d="M88.64,354 L88.64,354 
L88.64,354 
L88.64,354 
L93.18,354 
L93.18,354 
L106.8,354 
L106.8,354 
L111.3,354 
L111.3,354 
L124.9,354 
L124.9,354 
L129.5,354 
L129.5,354 
L143.1,354 
L143.1,354 
L147.6,354 
L147.6,354 
L161.2,354 
L161.2,354 
L165.8,354 
L165.8,354 
L179.4,354 
L179.4,353.9 
L183.9,353.9 
L183.9,354 
L197.6,354 
L197.6,353.7 
L202.1,353.7 
L202.1,354 
L215.7,354 
L215.7,353.2 
L220.2,353.2 
L220.2,354 
L233.9,354 
L233.9,351.9 
L238.4,351.9 
L238.4,354 
L252,354 
L252,349.3 
L256.5,349.3 
L256.5,354 
L270.2,354 
L270.2,344.6 
L274.7,344.6 
L274.7,354 
L288.3,354 
L288.3,337 
L292.8,337 
L292.8,354 
L306.5,354 
L306.5,325.6 
L311,325.6 
L311,354 
L324.6,354 
L324.6,310.3 
L329.1,310.3 
L329.1,354 
L342.8,354 
L342.8,291.6 
L347.3,291.6 
L347.3,354 
L360.9,354 
L360.9,270.8 
L365.4,270.8 
L365.4,354 
L379.1,354 
L379.1,250 
L383.6,250 
L383.6,354 
L397.2,354 
L397.2,231.6 
L401.7,231.6 
L401.7,354 
L415.4,354 
L415.4,218 
L419.9,218 
L419.9,354 
L433.5,354 
L433.5,210.9 
L438.1,210.9 
L438.1,354 
L451.7,354 
L451.7,210.9 
L456.2,210.9 
L456.2,354 
L469.8,354 
L469.8,217.7 
L474.4,217.7 
L474.4,354 
L488,354 
L488,230.1 
L492.5,230.1 
L492.5,354 
L506.1,354 
L506.1,246.2 
L510.7,246.2 
L510.7,354 
L524.3,354 
L524.3,264.2 
L528.8,264.2 
L528.8,354 
L542.4,354 
L542.4,282.2 
L547,282.2 
L547,354 
L560.6,354 
L560.6,298.7 
L565.1,298.7 
L565.1,354 
L578.7,354 
L578.7,313.1 
L583.3,313.1 
L583.3,354 
L596.9,354 
L596.9,324.8 
L601.4,324.8 
L601.4,354 
L615,354 
L615,333.8 
L619.6,333.8 
L619.6,354 
L633.2,354 
L633.2,340.6 
L637.7,340.6 
L637.7,354 
L651.3,354 
L651.3,345.3 
L655.9,345.3 
L655.9,354 
L655.9,354 
Z" fill="rgb(0,100,0)"/>
</g>
</g>
	<g id="plotPoints" clip-path="url(#plot_window)">
</g>
	<g id="legendBackground" stroke="rgb(119,136,153)" fill="rgb(255,255,255)" stroke-width="1">
	<rect x="671.7" y="43" width="64.3" height="64.5"/>
</g>
	<g id="legendPoints">
</g>
	<g id="legendLines">
	<g stroke="rgb(0,0,139)" stroke-width="1">
	<line x1="687" y1="62.75" x2="693" y2="62.75"/>
</g>
	<g stroke="rgb(139,0,0)" stroke-width="1">
	<line x1="687" y1="75.25" x2="693" y2="75.25"/>
</g>
	<g stroke="rgb(0,100,0)" stroke-width="1">
	<line x1="687" y1="87.75" x2="693" y2="87.75"/>
</g>
</g>
	<g id="legendText">
	<text x="702" y="62.75" font-size="10" font-family="Lucida Sans Unicode" font-weight="normal" textLength="19.8">&#x3BB;=5
	</text>
	<text x="702" y="75.25" font-size="10" font-family="Lucida Sans Unicode" font-weight="normal" textLength="25.8">&#x3BB;=10
	</text>
	<text x="702" y="87.75" font-size="10" font-family="Lucida Sans Unicode" font-weight="normal" textLength="25.8">&#x3BB;=20
	</text>
</g>
	<g id="title">
	<text x="375" y="30" text-anchor="middle" font-size="20" font-family="Lucida Sans Unicode" font-weight="normal">Poisson Distribution PDF
	</text>
</g>
	<g id="plotXValues">
</g>
	<g id="plotYValues">
</g>
</svg>
