<?xml version="1.0" encoding="UTF-8" standalone="no"?>
<svg width="750" height ="400" version="1.1"
xmlns:svg ="http://www.w3.org/2000/svg"
xmlns:rdf="http://www.w3.org/1999/02/22-rdf-syntax-ns#"
xmlns:cc="http://web.resource.org/cc/"
xmlns:dc="http://purl.org/dc/elements/1.1/"
xmlns ="http://www.w3.org/2000/svg"
>
<!-- SVG plot written using Boost.Plot program (Creator Jacob Voytko) --> 
<!-- Use, modification and distribution of Boost.Plot subject to the --> 
<!-- Boost Software License, Version 1.0.--> 
<!-- (See accompanying file LICENSE_1_0.txt --> 
<!-- or copy at http://www.boost.org/LICENSE_1_0.txt) --> 

<!-- SVG Plot Copyright John Maddock 2008 --> 
<meta name="copyright" content="John Maddock" />
<meta name="date" content="2008" />
<!-- Use, modification and distribution of this Scalable Vector Graphic file -->
<!-- are subject to the Boost Software License, Version 1.0. -->
<!-- (See accompanying file LICENSE_1_0.txt or copy at http://www.boost.org/LICENSE_1_0.txt) -->

<clipPath id="plot_window">	<rect x="71.1" y="44" width="587.6" height="309"/>
</clipPath>
	<g id="imageBackground" stroke="rgb(119,136,153)" fill="rgb(255,255,255)" stroke-width="2">
	<rect x="0" y="0" width="750" height="400"/>
</g>
	<g id="plotBackground" stroke="rgb(119,136,153)" fill="rgb(255,255,255)" stroke-width="2">
	<rect x="70.1" y="43" width="589.6" height="311"/>
</g>
	<g id="yMinorGrid" stroke="rgb(200,220,255)" stroke-width="0.5">
</g>
	<g id="yMajorGrid" stroke="rgb(200,220,255)" stroke-width="1">
</g>
	<g id="xMinorGrid" stroke="rgb(200,220,255)" stroke-width="0.5">
</g>
	<g id="xMajorGrid" stroke="rgb(200,220,255)" stroke-width="1">
</g>
	<g id="yAxis" stroke="rgb(0,0,0)" stroke-width="1">
	<line x1="70.1" y1="43" x2="70.1" y2="359"/>
	<line x1="70.1" y1="43" x2="70.1" y2="354"/>
</g>
	<g id="xAxis" stroke="rgb(0,0,0)" stroke-width="1">
	<line x1="65.1" y1="354" x2="659.7" y2="354"/>
	<line x1="65.1" y1="354" x2="659.7" y2="354"/>
</g>
	<g id="yMinorTicks" stroke="rgb(0,0,0)" stroke-width="1">
	<path d="M68.1,330.7 L70.1,330.7 
M68.1,307.4 L70.1,307.4 
M68.1,284.1 L70.1,284.1 
M68.1,260.8 L70.1,260.8 
M68.1,214.2 L70.1,214.2 
M68.1,190.9 L70.1,190.9 
M68.1,167.5 L70.1,167.5 
M68.1,144.2 L70.1,144.2 
M68.1,97.62 L70.1,97.62 
M68.1,74.32 L70.1,74.32 
M68.1,51.01 L70.1,51.01 
M68.1,354 L70.1,354 
" fill="none"/>
</g>
	<g id="xMinorTicks" stroke="rgb(0,0,0)" stroke-width="1">
	<path d="M89.53,354 L89.53,356 
M109,354 L109,356 
M128.4,354 L128.4,356 
M147.8,354 L147.8,356 
M186.7,354 L186.7,356 
M206.1,354 L206.1,356 
M225.5,354 L225.5,356 
M244.9,354 L244.9,356 
M283.8,354 L283.8,356 
M303.2,354 L303.2,356 
M322.6,354 L322.6,356 
M342.1,354 L342.1,356 
M380.9,354 L380.9,356 
M400.3,354 L400.3,356 
M419.8,354 L419.8,356 
M439.2,354 L439.2,356 
M478,354 L478,356 
M497.5,354 L497.5,356 
M516.9,354 L516.9,356 
M536.3,354 L536.3,356 
M575.2,354 L575.2,356 
M594.6,354 L594.6,356 
M614,354 L614,356 
M633.5,354 L633.5,356 
" fill="none"/>
</g>
	<g id="yMajorTicks" stroke="rgb(0,0,0)" stroke-width="2">
	<path d="M65.1,354 L70.1,354 
M65.1,237.5 L70.1,237.5 
M65.1,120.9 L70.1,120.9 
M65.1,354 L70.1,354 
" fill="none"/>
</g>
	<g id="xMajorTicks" stroke="rgb(0,0,0)" stroke-width="2">
	<path d="M70.1,354 L70.1,359 
M167.2,354 L167.2,359 
M264.4,354 L264.4,359 
M361.5,354 L361.5,359 
M458.6,354 L458.6,359 
M555.7,354 L555.7,359 
M652.9,354 L652.9,359 
M70.1,354 L70.1,359 
" fill="none"/>
</g>
	<g id="xTicksValues" font-size="12" font-family="Lucida Sans Unicode" text-anchor="middle">
	<text x="70.1" y="374.6">0
	</text>
	<text x="167.2" y="374.6">5
	</text>
	<text x="264.4" y="374.6">10
	</text>
	<text x="361.5" y="374.6">15
	</text>
	<text x="458.6" y="374.6">20
	</text>
	<text x="555.7" y="374.6">25
	</text>
	<text x="652.9" y="374.6">30
	</text>
	<text x="70.1" y="374.6">0
	</text>
</g>
	<g id="yTicksValues" font-size="12" font-family="Lucida Sans Unicode" text-anchor="end">
	<text x="59.1" y="356.4">0
	</text>
	<text x="59.1" y="239.9">0.5
	</text>
	<text x="59.1" y="123.3">1
	</text>
	<text x="59.1" y="356.4">0
	</text>
</g>
	<g id="yLabel">
	<text x="32.4" y="198.5" text-anchor="middle" transform="rotate(-90 32.4 198.5)" font-size="14" font-family="Lucida Sans Unicode">Probability
	</text>
</g>
	<g id="xLabel">
	<text x="364.9" y="387.1" text-anchor="middle" font-size="12" font-family="Lucida Sans Unicode">Random Variable
	</text>
</g>
	<g id="plotLines" stroke-width="2">
	<g clip-path="url(#plot_window)" stroke="rgb(0,0,139)" stroke-width="1">
	<path d="M70.1,354 L70.1,354 
L73.05,218.9 
L76,118.7 
L78.94,73.6 
L81.89,83.17 
L84.84,130.3 
L87.79,192.3 
L90.74,250.3 
L93.68,294.6 
L96.63,323.5 
L99.58,339.9 
L102.5,348.1 
L105.5,351.8 
L108.4,353.2 
L111.4,353.8 
L114.3,353.9 
L117.3,354 
L120.2,354 
L123.2,354 
L126.1,354 
L129.1,354 
L132,354 
L135,354 
L137.9,354 
L140.9,354 
L143.8,354 
L146.7,354 
L149.7,354 
L152.6,354 
L155.6,354 
L158.5,354 
L161.5,354 
L164.4,354 
L167.4,354 
L170.3,354 
L173.3,354 
L176.2,354 
L179.2,354 
L182.1,354 
L185.1,354 
L188,354 
L191,354 
L193.9,354 
L196.9,354 
L199.8,354 
L202.8,354 
L205.7,354 
L208.7,354 
L211.6,354 
L214.6,354 
L217.5,354 
L220.4,354 
L223.4,354 
L226.3,354 
L229.3,354 
L232.2,354 
L235.2,354 
L238.1,354 
L241.1,354 
L244,354 
L247,354 
L249.9,354 
L252.9,354 
L255.8,354 
L258.8,354 
L261.7,354 
L264.7,354 
L267.6,354 
L270.6,354 
L273.5,354 
L276.5,354 
L279.4,354 
L282.4,354 
L285.3,354 
L288.3,354 
L291.2,354 
L294.1,354 
L297.1,354 
L300,354 
L303,354 
L305.9,354 
L308.9,354 
L311.8,354 
L314.8,354 
L317.7,354 
L320.7,354 
L323.6,354 
L326.6,354 
L329.5,354 
L332.5,354 
L335.4,354 
L338.4,354 
L341.3,354 
L344.3,354 
L347.2,354 
L350.2,354 
L353.1,354 
L356.1,354 
L359,354 
L362,354 
L364.9,354 
L367.8,354 
L370.8,354 
L373.7,354 
L376.7,354 
L379.6,354 
L382.6,354 
L385.5,354 
L388.5,354 
L391.4,354 
L394.4,354 
L397.3,354 
L400.3,354 
L403.2,354 
L406.2,354 
L409.1,354 
L412.1,354 
L415,354 
L418,354 
L420.9,354 
L423.9,354 
L426.8,354 
L429.8,354 
L432.7,354 
L435.7,354 
L438.6,354 
L441.5,354 
L444.5,354 
L447.4,354 
L450.4,354 
L453.3,354 
L456.3,354 
L459.2,354 
L462.2,354 
L465.1,354 
L468.1,354 
L471,354 
L474,354 
L476.9,354 
L479.9,354 
L482.8,354 
L485.8,354 
L488.7,354 
L491.7,354 
L494.6,354 
L497.6,354 
L500.5,354 
L503.5,354 
L506.4,354 
L509.4,354 
L512.3,354 
L515.2,354 
L518.2,354 
L521.1,354 
L524.1,354 
L527,354 
L530,354 
L532.9,354 
L535.9,354 
L538.8,354 
L541.8,354 
L544.7,354 
L547.7,354 
L550.6,354 
L553.6,354 
L556.5,354 
L559.5,354 
L562.4,354 
L565.4,354 
L568.3,354 
L571.3,354 
L574.2,354 
L577.2,354 
L580.1,354 
L583.1,354 
L586,354 
L588.9,354 
L591.9,354 
L594.8,354 
L597.8,354 
L600.7,354 
L603.7,354 
L606.6,354 
L609.6,354 
L612.5,354 
L615.5,354 
L618.4,354 
L621.4,354 
L624.3,354 
L627.3,354 
L630.2,354 
L633.2,354 
L636.1,354 
L639.1,354 
L642,354 
L645,354 
L647.9,354 
L650.9,354 
L653.8,354 
L656.8,354 
" fill="none"/>
</g>
	<g clip-path="url(#plot_window)" stroke="rgb(139,0,0)" stroke-width="1">
	<path d="M70.1,354 L70.1,354 
L73.05,319 
L76,286.4 
L78.94,258.3 
L81.89,236.3 
L84.84,221.4 
L87.79,213.8 
L90.74,213.2 
L93.68,218.6 
L96.63,228.7 
L99.58,242.2 
L102.5,257.4 
L105.5,273.1 
L108.4,288.3 
L111.4,302.2 
L114.3,314.2 
L117.3,324.3 
L120.2,332.4 
L123.2,338.7 
L126.1,343.5 
L129.1,346.9 
L132,349.4 
L135,351 
L137.9,352.2 
L140.9,352.9 
L143.8,353.3 
L146.7,353.6 
L149.7,353.8 
L152.6,353.9 
L155.6,353.9 
L158.5,354 
L161.5,354 
L164.4,354 
L167.4,354 
L170.3,354 
L173.3,354 
L176.2,354 
L179.2,354 
L182.1,354 
L185.1,354 
L188,354 
L191,354 
L193.9,354 
L196.9,354 
L199.8,354 
L202.8,354 
L205.7,354 
L208.7,354 
L211.6,354 
L214.6,354 
L217.5,354 
L220.4,354 
L223.4,354 
L226.3,354 
L229.3,354 
L232.2,354 
L235.2,354 
L238.1,354 
L241.1,354 
L244,354 
L247,354 
L249.9,354 
L252.9,354 
L255.8,354 
L258.8,354 
L261.7,354 
L264.7,354 
L267.6,354 
L270.6,354 
L273.5,354 
L276.5,354 
L279.4,354 
L282.4,354 
L285.3,354 
L288.3,354 
L291.2,354 
L294.1,354 
L297.1,354 
L300,354 
L303,354 
L305.9,354 
L308.9,354 
L311.8,354 
L314.8,354 
L317.7,354 
L320.7,354 
L323.6,354 
L326.6,354 
L329.5,354 
L332.5,354 
L335.4,354 
L338.4,354 
L341.3,354 
L344.3,354 
L347.2,354 
L350.2,354 
L353.1,354 
L356.1,354 
L359,354 
L362,354 
L364.9,354 
L367.8,354 
L370.8,354 
L373.7,354 
L376.7,354 
L379.6,354 
L382.6,354 
L385.5,354 
L388.5,354 
L391.4,354 
L394.4,354 
L397.3,354 
L400.3,354 
L403.2,354 
L406.2,354 
L409.1,354 
L412.1,354 
L415,354 
L418,354 
L420.9,354 
L423.9,354 
L426.8,354 
L429.8,354 
L432.7,354 
L435.7,354 
L438.6,354 
L441.5,354 
L444.5,354 
L447.4,354 
L450.4,354 
L453.3,354 
L456.3,354 
L459.2,354 
L462.2,354 
L465.1,354 
L468.1,354 
L471,354 
L474,354 
L476.9,354 
L479.9,354 
L482.8,354 
L485.8,354 
L488.7,354 
L491.7,354 
L494.6,354 
L497.6,354 
L500.5,354 
L503.5,354 
L506.4,354 
L509.4,354 
L512.3,354 
L515.2,354 
L518.2,354 
L521.1,354 
L524.1,354 
L527,354 
L530,354 
L532.9,354 
L535.9,354 
L538.8,354 
L541.8,354 
L544.7,354 
L547.7,354 
L550.6,354 
L553.6,354 
L556.5,354 
L559.5,354 
L562.4,354 
L565.4,354 
L568.3,354 
L571.3,354 
L574.2,354 
L577.2,354 
L580.1,354 
L583.1,354 
L586,354 
L588.9,354 
L591.9,354 
L594.8,354 
L597.8,354 
L600.7,354 
L603.7,354 
L606.6,354 
L609.6,354 
L612.5,354 
L615.5,354 
L618.4,354 
L621.4,354 
L624.3,354 
L627.3,354 
L630.2,354 
L633.2,354 
L636.1,354 
L639.1,354 
L642,354 
L645,354 
L647.9,354 
L650.9,354 
L653.8,354 
L656.8,354 
" fill="none"/>
</g>
	<g clip-path="url(#plot_window)" stroke="rgb(0,100,0)" stroke-width="1">
	<path d="M70.1,354 L70.1,354 
L73.05,345.2 
L76,336.5 
L78.94,328.2 
L81.89,320.2 
L84.84,312.9 
L87.79,306.2 
L90.74,300.2 
L93.68,295.2 
L96.63,291 
L99.58,287.7 
L102.5,285.3 
L105.5,283.9 
L108.4,283.3 
L111.4,283.6 
L114.3,284.6 
L117.3,286.3 
L120.2,288.6 
L123.2,291.4 
L126.1,294.6 
L129.1,298.1 
L132,301.8 
L135,305.7 
L137.9,309.6 
L140.9,313.6 
L143.8,317.4 
L146.7,321.2 
L149.7,324.7 
L152.6,328.1 
L155.6,331.2 
L158.5,334.1 
L161.5,336.8 
L164.4,339.2 
L167.4,341.3 
L170.3,343.2 
L173.3,344.9 
L176.2,346.4 
L179.2,347.6 
L182.1,348.7 
L185.1,349.7 
L188,350.5 
L191,351.1 
L193.9,351.7 
L196.9,352.1 
L199.8,352.5 
L202.8,352.8 
L205.7,353.1 
L208.7,353.3 
L211.6,353.4 
L214.6,353.6 
L217.5,353.7 
L220.4,353.7 
L223.4,353.8 
L226.3,353.9 
L229.3,353.9 
L232.2,353.9 
L235.2,353.9 
L238.1,354 
L241.1,354 
L244,354 
L247,354 
L249.9,354 
L252.9,354 
L255.8,354 
L258.8,354 
L261.7,354 
L264.7,354 
L267.6,354 
L270.6,354 
L273.5,354 
L276.5,354 
L279.4,354 
L282.4,354 
L285.3,354 
L288.3,354 
L291.2,354 
L294.1,354 
L297.1,354 
L300,354 
L303,354 
L305.9,354 
L308.9,354 
L311.8,354 
L314.8,354 
L317.7,354 
L320.7,354 
L323.6,354 
L326.6,354 
L329.5,354 
L332.5,354 
L335.4,354 
L338.4,354 
L341.3,354 
L344.3,354 
L347.2,354 
L350.2,354 
L353.1,354 
L356.1,354 
L359,354 
L362,354 
L364.9,354 
L367.8,354 
L370.8,354 
L373.7,354 
L376.7,354 
L379.6,354 
L382.6,354 
L385.5,354 
L388.5,354 
L391.4,354 
L394.4,354 
L397.3,354 
L400.3,354 
L403.2,354 
L406.2,354 
L409.1,354 
L412.1,354 
L415,354 
L418,354 
L420.9,354 
L423.9,354 
L426.8,354 
L429.8,354 
L432.7,354 
L435.7,354 
L438.6,354 
L441.5,354 
L444.5,354 
L447.4,354 
L450.4,354 
L453.3,354 
L456.3,354 
L459.2,354 
L462.2,354 
L465.1,354 
L468.1,354 
L471,354 
L474,354 
L476.9,354 
L479.9,354 
L482.8,354 
L485.8,354 
L488.7,354 
L491.7,354 
L494.6,354 
L497.6,354 
L500.5,354 
L503.5,354 
L506.4,354 
L509.4,354 
L512.3,354 
L515.2,354 
L518.2,354 
L521.1,354 
L524.1,354 
L527,354 
L530,354 
L532.9,354 
L535.9,354 
L538.8,354 
L541.8,354 
L544.7,354 
L547.7,354 
L550.6,354 
L553.6,354 
L556.5,354 
L559.5,354 
L562.4,354 
L565.4,354 
L568.3,354 
L571.3,354 
L574.2,354 
L577.2,354 
L580.1,354 
L583.1,354 
L586,354 
L588.9,354 
L591.9,354 
L594.8,354 
L597.8,354 
L600.7,354 
L603.7,354 
L606.6,354 
L609.6,354 
L612.5,354 
L615.5,354 
L618.4,354 
L621.4,354 
L624.3,354 
L627.3,354 
L630.2,354 
L633.2,354 
L636.1,354 
L639.1,354 
L642,354 
L645,354 
L647.9,354 
L650.9,354 
L653.8,354 
L656.8,354 
" fill="none"/>
</g>
	<g clip-path="url(#plot_window)" stroke="rgb(255,140,0)" stroke-width="1">
	<path d="M70.1,354 L70.1,354 
L73.05,351.8 
L76,349.6 
L78.94,347.4 
L81.89,345.3 
L84.84,343.1 
L87.79,341.1 
L90.74,339.1 
L93.68,337.1 
L96.63,335.2 
L99.58,333.4 
L102.5,331.7 
L105.5,330.1 
L108.4,328.6 
L111.4,327.1 
L114.3,325.8 
L117.3,324.6 
L120.2,323.5 
L123.2,322.5 
L126.1,321.6 
L129.1,320.8 
L132,320.2 
L135,319.7 
L137.9,319.3 
L140.9,318.9 
L143.8,318.8 
L146.7,318.7 
L149.7,318.7 
L152.6,318.8 
L155.6,319 
L158.5,319.3 
L161.5,319.7 
L164.4,320.1 
L167.4,320.7 
L170.3,321.3 
L173.3,322 
L176.2,322.7 
L179.2,323.5 
L182.1,324.3 
L185.1,325.1 
L188,326 
L191,327 
L193.9,327.9 
L196.9,328.9 
L199.8,329.9 
L202.8,330.8 
L205.7,331.8 
L208.7,332.8 
L211.6,333.8 
L214.6,334.8 
L217.5,335.7 
L220.4,336.7 
L223.4,337.6 
L226.3,338.5 
L229.3,339.4 
L232.2,340.2 
L235.2,341 
L238.1,341.8 
L241.1,342.6 
L244,343.3 
L247,344.1 
L249.9,344.7 
L252.9,345.4 
L255.8,346 
L258.8,346.6 
L261.7,347.1 
L264.7,347.7 
L267.6,348.1 
L270.6,348.6 
L273.5,349 
L276.5,349.4 
L279.4,349.8 
L282.4,350.2 
L285.3,350.5 
L288.3,350.8 
L291.2,351.1 
L294.1,351.4 
L297.1,351.6 
L300,351.8 
L303,352 
L305.9,352.2 
L308.9,352.4 
L311.8,352.6 
L314.8,352.7 
L317.7,352.8 
L320.7,353 
L323.6,353.1 
L326.6,353.2 
L329.5,353.3 
L332.5,353.3 
L335.4,353.4 
L338.4,353.5 
L341.3,353.5 
L344.3,353.6 
L347.2,353.6 
L350.2,353.7 
L353.1,353.7 
L356.1,353.8 
L359,353.8 
L362,353.8 
L364.9,353.8 
L367.8,353.9 
L370.8,353.9 
L373.7,353.9 
L376.7,353.9 
L379.6,353.9 
L382.6,353.9 
L385.5,353.9 
L388.5,353.9 
L391.4,354 
L394.4,354 
L397.3,354 
L400.3,354 
L403.2,354 
L406.2,354 
L409.1,354 
L412.1,354 
L415,354 
L418,354 
L420.9,354 
L423.9,354 
L426.8,354 
L429.8,354 
L432.7,354 
L435.7,354 
L438.6,354 
L441.5,354 
L444.5,354 
L447.4,354 
L450.4,354 
L453.3,354 
L456.3,354 
L459.2,354 
L462.2,354 
L465.1,354 
L468.1,354 
L471,354 
L474,354 
L476.9,354 
L479.9,354 
L482.8,354 
L485.8,354 
L488.7,354 
L491.7,354 
L494.6,354 
L497.6,354 
L500.5,354 
L503.5,354 
L506.4,354 
L509.4,354 
L512.3,354 
L515.2,354 
L518.2,354 
L521.1,354 
L524.1,354 
L527,354 
L530,354 
L532.9,354 
L535.9,354 
L538.8,354 
L541.8,354 
L544.7,354 
L547.7,354 
L550.6,354 
L553.6,354 
L556.5,354 
L559.5,354 
L562.4,354 
L565.4,354 
L568.3,354 
L571.3,354 
L574.2,354 
L577.2,354 
L580.1,354 
L583.1,354 
L586,354 
L588.9,354 
L591.9,354 
L594.8,354 
L597.8,354 
L600.7,354 
L603.7,354 
L606.6,354 
L609.6,354 
L612.5,354 
L615.5,354 
L618.4,354 
L621.4,354 
L624.3,354 
L627.3,354 
L630.2,354 
L633.2,354 
L636.1,354 
L639.1,354 
L642,354 
L645,354 
L647.9,354 
L650.9,354 
L653.8,354 
L656.8,354 
" fill="none"/>
</g>
	<g clip-path="url(#plot_window)" stroke="rgb(127,255,0)" stroke-width="1">
	<path d="M70.1,354 L70.1,354 
L73.05,353.6 
L76,353.3 
L78.94,352.9 
L81.89,352.6 
L84.84,352.2 
L87.79,351.9 
L90.74,351.5 
L93.68,351.2 
L96.63,350.8 
L99.58,350.5 
L102.5,350.2 
L105.5,349.8 
L108.4,349.5 
L111.4,349.2 
L114.3,348.8 
L117.3,348.5 
L120.2,348.2 
L123.2,347.9 
L126.1,347.6 
L129.1,347.2 
L132,346.9 
L135,346.6 
L137.9,346.3 
L140.9,346.1 
L143.8,345.8 
L146.7,345.5 
L149.7,345.2 
L152.6,345 
L155.6,344.7 
L158.5,344.4 
L161.5,344.2 
L164.4,343.9 
L167.4,343.7 
L170.3,343.5 
L173.3,343.2 
L176.2,343 
L179.2,342.8 
L182.1,342.6 
L185.1,342.4 
L188,342.2 
L191,342.1 
L193.9,341.9 
L196.9,341.7 
L199.8,341.5 
L202.8,341.4 
L205.7,341.2 
L208.7,341.1 
L211.6,341 
L214.6,340.9 
L217.5,340.7 
L220.4,340.6 
L223.4,340.5 
L226.3,340.4 
L229.3,340.3 
L232.2,340.3 
L235.2,340.2 
L238.1,340.1 
L241.1,340.1 
L244,340 
L247,340 
L249.9,339.9 
L252.9,339.9 
L255.8,339.9 
L258.8,339.9 
L261.7,339.9 
L264.7,339.9 
L267.6,339.9 
L270.6,339.9 
L273.5,339.9 
L276.5,339.9 
L279.4,339.9 
L282.4,340 
L285.3,340 
L288.3,340.1 
L291.2,340.1 
L294.1,340.2 
L297.1,340.2 
L300,340.3 
L303,340.4 
L305.9,340.5 
L308.9,340.5 
L311.8,340.6 
L314.8,340.7 
L317.7,340.8 
L320.7,340.9 
L323.6,341 
L326.6,341.1 
L329.5,341.2 
L332.5,341.4 
L335.4,341.5 
L338.4,341.6 
L341.3,341.7 
L344.3,341.8 
L347.2,342 
L350.2,342.1 
L353.1,342.3 
L356.1,342.4 
L359,342.5 
L362,342.7 
L364.9,342.8 
L367.8,343 
L370.8,343.1 
L373.7,343.3 
L376.7,343.4 
L379.6,343.6 
L382.6,343.7 
L385.5,343.9 
L388.5,344 
L391.4,344.2 
L394.4,344.3 
L397.3,344.5 
L400.3,344.7 
L403.2,344.8 
L406.2,345 
L409.1,345.1 
L412.1,345.3 
L415,345.4 
L418,345.6 
L420.9,345.8 
L423.9,345.9 
L426.8,346.1 
L429.8,346.2 
L432.7,346.4 
L435.7,346.5 
L438.6,346.7 
L441.5,346.8 
L444.5,347 
L447.4,347.1 
L450.4,347.3 
L453.3,347.4 
L456.3,347.6 
L459.2,347.7 
L462.2,347.9 
L465.1,348 
L468.1,348.1 
L471,348.3 
L474,348.4 
L476.9,348.6 
L479.9,348.7 
L482.8,348.8 
L485.8,348.9 
L488.7,349.1 
L491.7,349.2 
L494.6,349.3 
L497.6,349.4 
L500.5,349.6 
L503.5,349.7 
L506.4,349.8 
L509.4,349.9 
L512.3,350 
L515.2,350.1 
L518.2,350.2 
L521.1,350.3 
L524.1,350.5 
L527,350.6 
L530,350.7 
L532.9,350.8 
L535.9,350.8 
L538.8,350.9 
L541.8,351 
L544.7,351.1 
L547.7,351.2 
L550.6,351.3 
L553.6,351.4 
L556.5,351.5 
L559.5,351.5 
L562.4,351.6 
L565.4,351.7 
L568.3,351.8 
L571.3,351.8 
L574.2,351.9 
L577.2,352 
L580.1,352.1 
L583.1,352.1 
L586,352.2 
L588.9,352.2 
L591.9,352.3 
L594.8,352.4 
L597.8,352.4 
L600.7,352.5 
L603.7,352.5 
L606.6,352.6 
L609.6,352.6 
L612.5,352.7 
L615.5,352.7 
L618.4,352.8 
L621.4,352.8 
L624.3,352.9 
L627.3,352.9 
L630.2,352.9 
L633.2,353 
L636.1,353 
L639.1,353.1 
L642,353.1 
L645,353.1 
L647.9,353.2 
L650.9,353.2 
L653.8,353.2 
L656.8,353.3 
" fill="none"/>
</g>
</g>
	<g id="plotPoints" clip-path="url(#plot_window)">
</g>
	<g id="legendBackground" stroke="rgb(119,136,153)" fill="rgb(255,255,255)" stroke-width="1">
	<rect x="665.7" y="43" width="70.3" height="89.5"/>
</g>
	<g id="legendPoints">
</g>
	<g id="legendLines">
	<g stroke="rgb(0,0,139)" stroke-width="1">
	<line x1="681" y1="62.75" x2="687" y2="62.75"/>
</g>
	<g stroke="rgb(139,0,0)" stroke-width="1">
	<line x1="681" y1="75.25" x2="687" y2="75.25"/>
</g>
	<g stroke="rgb(0,100,0)" stroke-width="1">
	<line x1="681" y1="87.75" x2="687" y2="87.75"/>
</g>
	<g stroke="rgb(255,140,0)" stroke-width="1">
	<line x1="681" y1="100.3" x2="687" y2="100.3"/>
</g>
	<g stroke="rgb(127,255,0)" stroke-width="1">
	<line x1="681" y1="112.8" x2="687" y2="112.8"/>
</g>
</g>
	<g id="legendText">
	<text x="696" y="62.75" font-size="10" font-family="Lucida Sans Unicode" font-weight="normal" textLength="31.8">&#x3C3;=0.5
	</text>
	<text x="696" y="75.25" font-size="10" font-family="Lucida Sans Unicode" font-weight="normal" textLength="19.8">&#x3C3;=1
	</text>
	<text x="696" y="87.75" font-size="10" font-family="Lucida Sans Unicode" font-weight="normal" textLength="19.8">&#x3C3;=2
	</text>
	<text x="696" y="100.3" font-size="10" font-family="Lucida Sans Unicode" font-weight="normal" textLength="19.8">&#x3C3;=4
	</text>
	<text x="696" y="112.8" font-size="10" font-family="Lucida Sans Unicode" font-weight="normal" textLength="25.8">&#x3C3;=10
	</text>
</g>
	<g id="title">
	<text x="375" y="30" text-anchor="middle" font-size="20" font-family="Lucida Sans Unicode" font-weight="normal">Rayleigh Distribution PDF
	</text>
</g>
	<g id="plotXValues">
</g>
	<g id="plotYValues">
</g>
</svg>
