<?xml version="1.0" encoding="UTF-8" standalone="no"?>
<svg width="750" height ="400" version="1.1"
xmlns:svg ="http://www.w3.org/2000/svg"
xmlns:rdf="http://www.w3.org/1999/02/22-rdf-syntax-ns#"
xmlns:cc="http://web.resource.org/cc/"
xmlns:dc="http://purl.org/dc/elements/1.1/"
xmlns ="http://www.w3.org/2000/svg"
>
<!-- SVG plot written using Boost.Plot program (Creator Jacob Voytko) --> 
<!-- Use, modification and distribution of Boost.Plot subject to the --> 
<!-- Boost Software License, Version 1.0.--> 
<!-- (See accompanying file LICENSE_1_0.txt --> 
<!-- or copy at http://www.boost.org/LICENSE_1_0.txt) --> 

<!-- SVG Plot Copyright John Maddock 2008 --> 
<meta name="copyright" content="John Maddock" />
<meta name="date" content="2008" />
<!-- Use, modification and distribution of this Scalable Vector Graphic file -->
<!-- are subject to the Boost Software License, Version 1.0. -->
<!-- (See accompanying file LICENSE_1_0.txt or copy at http://www.boost.org/LICENSE_1_0.txt) -->

<clipPath id="plot_window">	<rect x="71.1" y="44" width="587.6" height="309"/>
</clipPath>
	<g id="imageBackground" stroke="rgb(119,136,153)" fill="rgb(255,255,255)" stroke-width="2">
	<rect x="0" y="0" width="750" height="400"/>
</g>
	<g id="plotBackground" stroke="rgb(119,136,153)" fill="rgb(255,255,255)" stroke-width="2">
	<rect x="70.1" y="43" width="589.6" height="311"/>
</g>
	<g id="yMinorGrid" stroke="rgb(200,220,255)" stroke-width="0.5">
</g>
	<g id="yMajorGrid" stroke="rgb(200,220,255)" stroke-width="1">
</g>
	<g id="xMinorGrid" stroke="rgb(200,220,255)" stroke-width="0.5">
</g>
	<g id="xMajorGrid" stroke="rgb(200,220,255)" stroke-width="1">
</g>
	<g id="yAxis" stroke="rgb(0,0,0)" stroke-width="1">
	<line x1="70.1" y1="43" x2="70.1" y2="359"/>
	<line x1="70.1" y1="43" x2="70.1" y2="354"/>
</g>
	<g id="xAxis" stroke="rgb(0,0,0)" stroke-width="1">
	<line x1="65.1" y1="354" x2="659.7" y2="354"/>
	<line x1="65.1" y1="354" x2="659.7" y2="354"/>
</g>
	<g id="yMinorTicks" stroke="rgb(0,0,0)" stroke-width="1">
	<path d="M68.1,348.3 L70.1,348.3 
M68.1,342.7 L70.1,342.7 
M68.1,337 L70.1,337 
M68.1,331.4 L70.1,331.4 
M68.1,320.1 L70.1,320.1 
M68.1,314.4 L70.1,314.4 
M68.1,308.8 L70.1,308.8 
M68.1,303.1 L70.1,303.1 
M68.1,291.8 L70.1,291.8 
M68.1,286.1 L70.1,286.1 
M68.1,280.5 L70.1,280.5 
M68.1,274.8 L70.1,274.8 
M68.1,263.5 L70.1,263.5 
M68.1,257.9 L70.1,257.9 
M68.1,252.2 L70.1,252.2 
M68.1,246.6 L70.1,246.6 
M68.1,235.3 L70.1,235.3 
M68.1,229.6 L70.1,229.6 
M68.1,223.9 L70.1,223.9 
M68.1,218.3 L70.1,218.3 
M68.1,207 L70.1,207 
M68.1,201.3 L70.1,201.3 
M68.1,195.7 L70.1,195.7 
M68.1,190 L70.1,190 
M68.1,178.7 L70.1,178.7 
M68.1,173.1 L70.1,173.1 
M68.1,167.4 L70.1,167.4 
M68.1,161.7 L70.1,161.7 
M68.1,150.4 L70.1,150.4 
M68.1,144.8 L70.1,144.8 
M68.1,139.1 L70.1,139.1 
M68.1,133.5 L70.1,133.5 
M68.1,122.2 L70.1,122.2 
M68.1,116.5 L70.1,116.5 
M68.1,110.9 L70.1,110.9 
M68.1,105.2 L70.1,105.2 
M68.1,93.89 L70.1,93.89 
M68.1,88.24 L70.1,88.24 
M68.1,82.58 L70.1,82.58 
M68.1,76.93 L70.1,76.93 
M68.1,65.62 L70.1,65.62 
M68.1,59.96 L70.1,59.96 
M68.1,54.31 L70.1,54.31 
M68.1,48.65 L70.1,48.65 
M68.1,354 L70.1,354 
" fill="none"/>
</g>
	<g id="xMinorTicks" stroke="rgb(0,0,0)" stroke-width="1">
	<path d="M89.53,354 L89.53,356 
M109,354 L109,356 
M128.4,354 L128.4,356 
M147.8,354 L147.8,356 
M186.7,354 L186.7,356 
M206.1,354 L206.1,356 
M225.5,354 L225.5,356 
M244.9,354 L244.9,356 
M283.8,354 L283.8,356 
M303.2,354 L303.2,356 
M322.6,354 L322.6,356 
M342.1,354 L342.1,356 
M380.9,354 L380.9,356 
M400.3,354 L400.3,356 
M419.8,354 L419.8,356 
M439.2,354 L439.2,356 
M478,354 L478,356 
M497.5,354 L497.5,356 
M516.9,354 L516.9,356 
M536.3,354 L536.3,356 
M575.2,354 L575.2,356 
M594.6,354 L594.6,356 
M614,354 L614,356 
M633.5,354 L633.5,356 
" fill="none"/>
</g>
	<g id="yMajorTicks" stroke="rgb(0,0,0)" stroke-width="2">
	<path d="M65.1,354 L70.1,354 
M65.1,325.7 L70.1,325.7 
M65.1,297.5 L70.1,297.5 
M65.1,269.2 L70.1,269.2 
M65.1,240.9 L70.1,240.9 
M65.1,212.6 L70.1,212.6 
M65.1,184.4 L70.1,184.4 
M65.1,156.1 L70.1,156.1 
M65.1,127.8 L70.1,127.8 
M65.1,99.55 L70.1,99.55 
M65.1,71.27 L70.1,71.27 
M65.1,43 L70.1,43 
M65.1,354 L70.1,354 
" fill="none"/>
</g>
	<g id="xMajorTicks" stroke="rgb(0,0,0)" stroke-width="2">
	<path d="M70.1,354 L70.1,359 
M167.2,354 L167.2,359 
M264.4,354 L264.4,359 
M361.5,354 L361.5,359 
M458.6,354 L458.6,359 
M555.7,354 L555.7,359 
M652.9,354 L652.9,359 
M70.1,354 L70.1,359 
" fill="none"/>
</g>
	<g id="xTicksValues" font-size="12" font-family="Lucida Sans Unicode" text-anchor="middle">
	<text x="70.1" y="374.6">0
	</text>
	<text x="167.2" y="374.6">5
	</text>
	<text x="264.4" y="374.6">10
	</text>
	<text x="361.5" y="374.6">15
	</text>
	<text x="458.6" y="374.6">20
	</text>
	<text x="555.7" y="374.6">25
	</text>
	<text x="652.9" y="374.6">30
	</text>
	<text x="70.1" y="374.6">0
	</text>
</g>
	<g id="yTicksValues" font-size="12" font-family="Lucida Sans Unicode" text-anchor="end">
	<text x="59.1" y="356.4">0
	</text>
	<text x="59.1" y="328.1">0.1
	</text>
	<text x="59.1" y="299.9">0.2
	</text>
	<text x="59.1" y="271.6">0.3
	</text>
	<text x="59.1" y="243.3">0.4
	</text>
	<text x="59.1" y="215">0.5
	</text>
	<text x="59.1" y="186.8">0.6
	</text>
	<text x="59.1" y="158.5">0.7
	</text>
	<text x="59.1" y="130.2">0.8
	</text>
	<text x="59.1" y="101.9">0.9
	</text>
	<text x="59.1" y="73.67">1
	</text>
	<text x="59.1" y="45.4">1.1
	</text>
	<text x="59.1" y="356.4">0
	</text>
</g>
	<g id="yLabel">
	<text x="32.4" y="198.5" text-anchor="middle" transform="rotate(-90 32.4 198.5)" font-size="14" font-family="Lucida Sans Unicode">Probability
	</text>
</g>
	<g id="xLabel">
	<text x="364.9" y="387.1" text-anchor="middle" font-size="12" font-family="Lucida Sans Unicode">Random Variable
	</text>
</g>
	<g id="plotLines" stroke-width="2">
	<g clip-path="url(#plot_window)" stroke="rgb(0,0,139)" stroke-width="1">
	<path d="M70.1,354 L70.1,354 
L73.05,341.3 
L76,306.4 
L78.94,258.1 
L81.89,206.6 
L84.84,160.7 
L87.79,125.1 
L90.74,100.9 
L93.68,86.1 
L96.63,78.05 
L99.58,74.1 
L102.5,72.35 
L105.5,71.64 
L108.4,71.39 
L111.4,71.31 
L114.3,71.28 
L117.3,71.27 
L120.2,71.27 
L123.2,71.27 
L126.1,71.27 
L129.1,71.27 
L132,71.27 
L135,71.27 
L137.9,71.27 
L140.9,71.27 
L143.8,71.27 
L146.7,71.27 
L149.7,71.27 
L152.6,71.27 
L155.6,71.27 
L158.5,71.27 
L161.5,71.27 
L164.4,71.27 
L167.4,71.27 
L170.3,71.27 
L173.3,71.27 
L176.2,71.27 
L179.2,71.27 
L182.1,71.27 
L185.1,71.27 
L188,71.27 
L191,71.27 
L193.9,71.27 
L196.9,71.27 
L199.8,71.27 
L202.8,71.27 
L205.7,71.27 
L208.7,71.27 
L211.6,71.27 
L214.6,71.27 
L217.5,71.27 
L220.4,71.27 
L223.4,71.27 
L226.3,71.27 
L229.3,71.27 
L232.2,71.27 
L235.2,71.27 
L238.1,71.27 
L241.1,71.27 
L244,71.27 
L247,71.27 
L249.9,71.27 
L252.9,71.27 
L255.8,71.27 
L258.8,71.27 
L261.7,71.27 
L264.7,71.27 
L267.6,71.27 
L270.6,71.27 
L273.5,71.27 
L276.5,71.27 
L279.4,71.27 
L282.4,71.27 
L285.3,71.27 
L288.3,71.27 
L291.2,71.27 
L294.1,71.27 
L297.1,71.27 
L300,71.27 
L303,71.27 
L305.9,71.27 
L308.9,71.27 
L311.8,71.27 
L314.8,71.27 
L317.7,71.27 
L320.7,71.27 
L323.6,71.27 
L326.6,71.27 
L329.5,71.27 
L332.5,71.27 
L335.4,71.27 
L338.4,71.27 
L341.3,71.27 
L344.3,71.27 
L347.2,71.27 
L350.2,71.27 
L353.1,71.27 
L356.1,71.27 
L359,71.27 
L362,71.27 
L364.9,71.27 
L367.8,71.27 
L370.8,71.27 
L373.7,71.27 
L376.7,71.27 
L379.6,71.27 
L382.6,71.27 
L385.5,71.27 
L388.5,71.27 
L391.4,71.27 
L394.4,71.27 
L397.3,71.27 
L400.3,71.27 
L403.2,71.27 
L406.2,71.27 
L409.1,71.27 
L412.1,71.27 
L415,71.27 
L418,71.27 
L420.9,71.27 
L423.9,71.27 
L426.8,71.27 
L429.8,71.27 
L432.7,71.27 
L435.7,71.27 
L438.6,71.27 
L441.5,71.27 
L444.5,71.27 
L447.4,71.27 
L450.4,71.27 
L453.3,71.27 
L456.3,71.27 
L459.2,71.27 
L462.2,71.27 
L465.1,71.27 
L468.1,71.27 
L471,71.27 
L474,71.27 
L476.9,71.27 
L479.9,71.27 
L482.8,71.27 
L485.8,71.27 
L488.7,71.27 
L491.7,71.27 
L494.6,71.27 
L497.6,71.27 
L500.5,71.27 
L503.5,71.27 
L506.4,71.27 
L509.4,71.27 
L512.3,71.27 
L515.2,71.27 
L518.2,71.27 
L521.1,71.27 
L524.1,71.27 
L527,71.27 
L530,71.27 
L532.9,71.27 
L535.9,71.27 
L538.8,71.27 
L541.8,71.27 
L544.7,71.27 
L547.7,71.27 
L550.6,71.27 
L553.6,71.27 
L556.5,71.27 
L559.5,71.27 
L562.4,71.27 
L565.4,71.27 
L568.3,71.27 
L571.3,71.27 
L574.2,71.27 
L577.2,71.27 
L580.1,71.27 
L583.1,71.27 
L586,71.27 
L588.9,71.27 
L591.9,71.27 
L594.8,71.27 
L597.8,71.27 
L600.7,71.27 
L603.7,71.27 
L606.6,71.27 
L609.6,71.27 
L612.5,71.27 
L615.5,71.27 
L618.4,71.27 
L621.4,71.27 
L624.3,71.27 
L627.3,71.27 
L630.2,71.27 
L633.2,71.27 
L636.1,71.27 
L639.1,71.27 
L642,71.27 
L645,71.27 
L647.9,71.27 
L650.9,71.27 
L653.8,71.27 
L656.8,71.27 
" fill="none"/>
</g>
	<g clip-path="url(#plot_window)" stroke="rgb(139,0,0)" stroke-width="1">
	<path d="M70.1,354 L70.1,354 
L73.05,350.8 
L76,341.3 
L78.94,326.2 
L81.89,306.4 
L84.84,283.3 
L87.79,258.1 
L90.74,232.1 
L93.68,206.6 
L96.63,182.5 
L99.58,160.7 
L102.5,141.5 
L105.5,125.1 
L108.4,111.7 
L111.4,100.9 
L114.3,92.46 
L117.3,86.1 
L120.2,81.41 
L123.2,78.05 
L126.1,75.7 
L129.1,74.1 
L132,73.03 
L135,72.35 
L137.9,71.91 
L140.9,71.64 
L143.8,71.48 
L146.7,71.39 
L149.7,71.34 
L152.6,71.31 
L155.6,71.29 
L158.5,71.28 
L161.5,71.28 
L164.4,71.27 
L167.4,71.27 
L170.3,71.27 
L173.3,71.27 
L176.2,71.27 
L179.2,71.27 
L182.1,71.27 
L185.1,71.27 
L188,71.27 
L191,71.27 
L193.9,71.27 
L196.9,71.27 
L199.8,71.27 
L202.8,71.27 
L205.7,71.27 
L208.7,71.27 
L211.6,71.27 
L214.6,71.27 
L217.5,71.27 
L220.4,71.27 
L223.4,71.27 
L226.3,71.27 
L229.3,71.27 
L232.2,71.27 
L235.2,71.27 
L238.1,71.27 
L241.1,71.27 
L244,71.27 
L247,71.27 
L249.9,71.27 
L252.9,71.27 
L255.8,71.27 
L258.8,71.27 
L261.7,71.27 
L264.7,71.27 
L267.6,71.27 
L270.6,71.27 
L273.5,71.27 
L276.5,71.27 
L279.4,71.27 
L282.4,71.27 
L285.3,71.27 
L288.3,71.27 
L291.2,71.27 
L294.1,71.27 
L297.1,71.27 
L300,71.27 
L303,71.27 
L305.9,71.27 
L308.9,71.27 
L311.8,71.27 
L314.8,71.27 
L317.7,71.27 
L320.7,71.27 
L323.6,71.27 
L326.6,71.27 
L329.5,71.27 
L332.5,71.27 
L335.4,71.27 
L338.4,71.27 
L341.3,71.27 
L344.3,71.27 
L347.2,71.27 
L350.2,71.27 
L353.1,71.27 
L356.1,71.27 
L359,71.27 
L362,71.27 
L364.9,71.27 
L367.8,71.27 
L370.8,71.27 
L373.7,71.27 
L376.7,71.27 
L379.6,71.27 
L382.6,71.27 
L385.5,71.27 
L388.5,71.27 
L391.4,71.27 
L394.4,71.27 
L397.3,71.27 
L400.3,71.27 
L403.2,71.27 
L406.2,71.27 
L409.1,71.27 
L412.1,71.27 
L415,71.27 
L418,71.27 
L420.9,71.27 
L423.9,71.27 
L426.8,71.27 
L429.8,71.27 
L432.7,71.27 
L435.7,71.27 
L438.6,71.27 
L441.5,71.27 
L444.5,71.27 
L447.4,71.27 
L450.4,71.27 
L453.3,71.27 
L456.3,71.27 
L459.2,71.27 
L462.2,71.27 
L465.1,71.27 
L468.1,71.27 
L471,71.27 
L474,71.27 
L476.9,71.27 
L479.9,71.27 
L482.8,71.27 
L485.8,71.27 
L488.7,71.27 
L491.7,71.27 
L494.6,71.27 
L497.6,71.27 
L500.5,71.27 
L503.5,71.27 
L506.4,71.27 
L509.4,71.27 
L512.3,71.27 
L515.2,71.27 
L518.2,71.27 
L521.1,71.27 
L524.1,71.27 
L527,71.27 
L530,71.27 
L532.9,71.27 
L535.9,71.27 
L538.8,71.27 
L541.8,71.27 
L544.7,71.27 
L547.7,71.27 
L550.6,71.27 
L553.6,71.27 
L556.5,71.27 
L559.5,71.27 
L562.4,71.27 
L565.4,71.27 
L568.3,71.27 
L571.3,71.27 
L574.2,71.27 
L577.2,71.27 
L580.1,71.27 
L583.1,71.27 
L586,71.27 
L588.9,71.27 
L591.9,71.27 
L594.8,71.27 
L597.8,71.27 
L600.7,71.27 
L603.7,71.27 
L606.6,71.27 
L609.6,71.27 
L612.5,71.27 
L615.5,71.27 
L618.4,71.27 
L621.4,71.27 
L624.3,71.27 
L627.3,71.27 
L630.2,71.27 
L633.2,71.27 
L636.1,71.27 
L639.1,71.27 
L642,71.27 
L645,71.27 
L647.9,71.27 
L650.9,71.27 
L653.8,71.27 
L656.8,71.27 
" fill="none"/>
</g>
	<g clip-path="url(#plot_window)" stroke="rgb(0,100,0)" stroke-width="1">
	<path d="M70.1,354 L70.1,354 
L73.05,353.2 
L76,350.8 
L78.94,346.8 
L81.89,341.3 
L84.84,334.4 
L87.79,326.2 
L90.74,316.8 
L93.68,306.4 
L96.63,295.2 
L99.58,283.3 
L102.5,270.8 
L105.5,258.1 
L108.4,245.1 
L111.4,232.1 
L114.3,219.2 
L117.3,206.6 
L120.2,194.3 
L123.2,182.5 
L126.1,171.3 
L129.1,160.7 
L132,150.7 
L135,141.5 
L137.9,132.9 
L140.9,125.1 
L143.8,118 
L146.7,111.7 
L149.7,105.9 
L152.6,100.9 
L155.6,96.39 
L158.5,92.46 
L161.5,89.05 
L164.4,86.1 
L167.4,83.57 
L170.3,81.41 
L173.3,79.59 
L176.2,78.05 
L179.2,76.77 
L182.1,75.7 
L185.1,74.82 
L188,74.1 
L191,73.51 
L193.9,73.03 
L196.9,72.65 
L199.8,72.35 
L202.8,72.1 
L205.7,71.91 
L208.7,71.76 
L211.6,71.64 
L214.6,71.55 
L217.5,71.48 
L220.4,71.43 
L223.4,71.39 
L226.3,71.36 
L229.3,71.34 
L232.2,71.32 
L235.2,71.31 
L238.1,71.3 
L241.1,71.29 
L244,71.29 
L247,71.28 
L249.9,71.28 
L252.9,71.28 
L255.8,71.28 
L258.8,71.27 
L261.7,71.27 
L264.7,71.27 
L267.6,71.27 
L270.6,71.27 
L273.5,71.27 
L276.5,71.27 
L279.4,71.27 
L282.4,71.27 
L285.3,71.27 
L288.3,71.27 
L291.2,71.27 
L294.1,71.27 
L297.1,71.27 
L300,71.27 
L303,71.27 
L305.9,71.27 
L308.9,71.27 
L311.8,71.27 
L314.8,71.27 
L317.7,71.27 
L320.7,71.27 
L323.6,71.27 
L326.6,71.27 
L329.5,71.27 
L332.5,71.27 
L335.4,71.27 
L338.4,71.27 
L341.3,71.27 
L344.3,71.27 
L347.2,71.27 
L350.2,71.27 
L353.1,71.27 
L356.1,71.27 
L359,71.27 
L362,71.27 
L364.9,71.27 
L367.8,71.27 
L370.8,71.27 
L373.7,71.27 
L376.7,71.27 
L379.6,71.27 
L382.6,71.27 
L385.5,71.27 
L388.5,71.27 
L391.4,71.27 
L394.4,71.27 
L397.3,71.27 
L400.3,71.27 
L403.2,71.27 
L406.2,71.27 
L409.1,71.27 
L412.1,71.27 
L415,71.27 
L418,71.27 
L420.9,71.27 
L423.9,71.27 
L426.8,71.27 
L429.8,71.27 
L432.7,71.27 
L435.7,71.27 
L438.6,71.27 
L441.5,71.27 
L444.5,71.27 
L447.4,71.27 
L450.4,71.27 
L453.3,71.27 
L456.3,71.27 
L459.2,71.27 
L462.2,71.27 
L465.1,71.27 
L468.1,71.27 
L471,71.27 
L474,71.27 
L476.9,71.27 
L479.9,71.27 
L482.8,71.27 
L485.8,71.27 
L488.7,71.27 
L491.7,71.27 
L494.6,71.27 
L497.6,71.27 
L500.5,71.27 
L503.5,71.27 
L506.4,71.27 
L509.4,71.27 
L512.3,71.27 
L515.2,71.27 
L518.2,71.27 
L521.1,71.27 
L524.1,71.27 
L527,71.27 
L530,71.27 
L532.9,71.27 
L535.9,71.27 
L538.8,71.27 
L541.8,71.27 
L544.7,71.27 
L547.7,71.27 
L550.6,71.27 
L553.6,71.27 
L556.5,71.27 
L559.5,71.27 
L562.4,71.27 
L565.4,71.27 
L568.3,71.27 
L571.3,71.27 
L574.2,71.27 
L577.2,71.27 
L580.1,71.27 
L583.1,71.27 
L586,71.27 
L588.9,71.27 
L591.9,71.27 
L594.8,71.27 
L597.8,71.27 
L600.7,71.27 
L603.7,71.27 
L606.6,71.27 
L609.6,71.27 
L612.5,71.27 
L615.5,71.27 
L618.4,71.27 
L621.4,71.27 
L624.3,71.27 
L627.3,71.27 
L630.2,71.27 
L633.2,71.27 
L636.1,71.27 
L639.1,71.27 
L642,71.27 
L645,71.27 
L647.9,71.27 
L650.9,71.27 
L653.8,71.27 
L656.8,71.27 
" fill="none"/>
</g>
	<g clip-path="url(#plot_window)" stroke="rgb(255,140,0)" stroke-width="1">
	<path d="M70.1,354 L70.1,354 
L73.05,353.8 
L76,353.2 
L78.94,352.2 
L81.89,350.8 
L84.84,349 
L87.79,346.8 
L90.74,344.2 
L93.68,341.3 
L96.63,338 
L99.58,334.4 
L102.5,330.4 
L105.5,326.2 
L108.4,321.6 
L111.4,316.8 
L114.3,311.7 
L117.3,306.4 
L120.2,300.9 
L123.2,295.2 
L126.1,289.3 
L129.1,283.3 
L132,277.1 
L135,270.8 
L137.9,264.5 
L140.9,258.1 
L143.8,251.6 
L146.7,245.1 
L149.7,238.6 
L152.6,232.1 
L155.6,225.6 
L158.5,219.2 
L161.5,212.9 
L164.4,206.6 
L167.4,200.4 
L170.3,194.3 
L173.3,188.4 
L176.2,182.5 
L179.2,176.8 
L182.1,171.3 
L185.1,165.9 
L188,160.7 
L191,155.6 
L193.9,150.7 
L196.9,146 
L199.8,141.5 
L202.8,137.1 
L205.7,132.9 
L208.7,128.9 
L211.6,125.1 
L214.6,121.5 
L217.5,118 
L220.4,114.8 
L223.4,111.7 
L226.3,108.7 
L229.3,105.9 
L232.2,103.3 
L235.2,100.9 
L238.1,98.55 
L241.1,96.39 
L244,94.36 
L247,92.46 
L249.9,90.7 
L252.9,89.05 
L255.8,87.52 
L258.8,86.1 
L261.7,84.79 
L264.7,83.57 
L267.6,82.45 
L270.6,81.41 
L273.5,80.46 
L276.5,79.59 
L279.4,78.79 
L282.4,78.05 
L285.3,77.38 
L288.3,76.77 
L291.2,76.21 
L294.1,75.7 
L297.1,75.24 
L300,74.82 
L303,74.44 
L305.9,74.1 
L308.9,73.79 
L311.8,73.51 
L314.8,73.26 
L317.7,73.03 
L320.7,72.83 
L323.6,72.65 
L326.6,72.49 
L329.5,72.35 
L332.5,72.22 
L335.4,72.1 
L338.4,72 
L341.3,71.91 
L344.3,71.83 
L347.2,71.76 
L350.2,71.7 
L353.1,71.64 
L356.1,71.6 
L359,71.55 
L362,71.52 
L364.9,71.48 
L367.8,71.46 
L370.8,71.43 
L373.7,71.41 
L376.7,71.39 
L379.6,71.37 
L382.6,71.36 
L385.5,71.35 
L388.5,71.34 
L391.4,71.33 
L394.4,71.32 
L397.3,71.31 
L400.3,71.31 
L403.2,71.3 
L406.2,71.3 
L409.1,71.29 
L412.1,71.29 
L415,71.29 
L418,71.29 
L420.9,71.28 
L423.9,71.28 
L426.8,71.28 
L429.8,71.28 
L432.7,71.28 
L435.7,71.28 
L438.6,71.28 
L441.5,71.28 
L444.5,71.28 
L447.4,71.27 
L450.4,71.27 
L453.3,71.27 
L456.3,71.27 
L459.2,71.27 
L462.2,71.27 
L465.1,71.27 
L468.1,71.27 
L471,71.27 
L474,71.27 
L476.9,71.27 
L479.9,71.27 
L482.8,71.27 
L485.8,71.27 
L488.7,71.27 
L491.7,71.27 
L494.6,71.27 
L497.6,71.27 
L500.5,71.27 
L503.5,71.27 
L506.4,71.27 
L509.4,71.27 
L512.3,71.27 
L515.2,71.27 
L518.2,71.27 
L521.1,71.27 
L524.1,71.27 
L527,71.27 
L530,71.27 
L532.9,71.27 
L535.9,71.27 
L538.8,71.27 
L541.8,71.27 
L544.7,71.27 
L547.7,71.27 
L550.6,71.27 
L553.6,71.27 
L556.5,71.27 
L559.5,71.27 
L562.4,71.27 
L565.4,71.27 
L568.3,71.27 
L571.3,71.27 
L574.2,71.27 
L577.2,71.27 
L580.1,71.27 
L583.1,71.27 
L586,71.27 
L588.9,71.27 
L591.9,71.27 
L594.8,71.27 
L597.8,71.27 
L600.7,71.27 
L603.7,71.27 
L606.6,71.27 
L609.6,71.27 
L612.5,71.27 
L615.5,71.27 
L618.4,71.27 
L621.4,71.27 
L624.3,71.27 
L627.3,71.27 
L630.2,71.27 
L633.2,71.27 
L636.1,71.27 
L639.1,71.27 
L642,71.27 
L645,71.27 
L647.9,71.27 
L650.9,71.27 
L653.8,71.27 
L656.8,71.27 
" fill="none"/>
</g>
	<g clip-path="url(#plot_window)" stroke="rgb(127,255,0)" stroke-width="1">
	<path d="M70.1,354 L70.1,354 
L73.05,354 
L76,353.9 
L78.94,353.7 
L81.89,353.5 
L84.84,353.2 
L87.79,352.8 
L90.74,352.4 
L93.68,351.9 
L96.63,351.4 
L99.58,350.8 
L102.5,350.1 
L105.5,349.4 
L108.4,348.6 
L111.4,347.7 
L114.3,346.8 
L117.3,345.8 
L120.2,344.7 
L123.2,343.6 
L126.1,342.5 
L129.1,341.3 
L132,340 
L135,338.7 
L137.9,337.3 
L140.9,335.9 
L143.8,334.4 
L146.7,332.8 
L149.7,331.2 
L152.6,329.6 
L155.6,327.9 
L158.5,326.2 
L161.5,324.4 
L164.4,322.6 
L167.4,320.7 
L170.3,318.8 
L173.3,316.8 
L176.2,314.8 
L179.2,312.8 
L182.1,310.7 
L185.1,308.6 
L188,306.4 
L191,304.2 
L193.9,302 
L196.9,299.8 
L199.8,297.5 
L202.8,295.2 
L205.7,292.9 
L208.7,290.5 
L211.6,288.1 
L214.6,285.7 
L217.5,283.3 
L220.4,280.8 
L223.4,278.4 
L226.3,275.9 
L229.3,273.4 
L232.2,270.8 
L235.2,268.3 
L238.1,265.8 
L241.1,263.2 
L244,260.6 
L247,258.1 
L249.9,255.5 
L252.9,252.9 
L255.8,250.3 
L258.8,247.7 
L261.7,245.1 
L264.7,242.5 
L267.6,239.9 
L270.6,237.3 
L273.5,234.7 
L276.5,232.1 
L279.4,229.5 
L282.4,226.9 
L285.3,224.3 
L288.3,221.8 
L291.2,219.2 
L294.1,216.7 
L297.1,214.1 
L300,211.6 
L303,209.1 
L305.9,206.6 
L308.9,204.1 
L311.8,201.6 
L314.8,199.2 
L317.7,196.7 
L320.7,194.3 
L323.6,191.9 
L326.6,189.5 
L329.5,187.2 
L332.5,184.8 
L335.4,182.5 
L338.4,180.2 
L341.3,178 
L344.3,175.7 
L347.2,173.5 
L350.2,171.3 
L353.1,169.1 
L356.1,167 
L359,164.8 
L362,162.7 
L364.9,160.7 
L367.8,158.6 
L370.8,156.6 
L373.7,154.6 
L376.7,152.6 
L379.6,150.7 
L382.6,148.8 
L385.5,146.9 
L388.5,145.1 
L391.4,143.3 
L394.4,141.5 
L397.3,139.7 
L400.3,138 
L403.2,136.3 
L406.2,134.6 
L409.1,132.9 
L412.1,131.3 
L415,129.7 
L418,128.2 
L420.9,126.6 
L423.9,125.1 
L426.8,123.7 
L429.8,122.2 
L432.7,120.8 
L435.7,119.4 
L438.6,118 
L441.5,116.7 
L444.5,115.4 
L447.4,114.1 
L450.4,112.9 
L453.3,111.7 
L456.3,110.5 
L459.2,109.3 
L462.2,108.2 
L465.1,107 
L468.1,105.9 
L471,104.9 
L474,103.8 
L476.9,102.8 
L479.9,101.8 
L482.8,100.9 
L485.8,99.92 
L488.7,99.01 
L491.7,98.11 
L494.6,97.24 
L497.6,96.39 
L500.5,95.56 
L503.5,94.75 
L506.4,93.97 
L509.4,93.21 
L512.3,92.46 
L515.2,91.74 
L518.2,91.04 
L521.1,90.36 
L524.1,89.7 
L527,89.05 
L530,88.43 
L532.9,87.82 
L535.9,87.23 
L538.8,86.66 
L541.8,86.1 
L544.7,85.56 
L547.7,85.04 
L550.6,84.54 
L553.6,84.05 
L556.5,83.57 
L559.5,83.11 
L562.4,82.67 
L565.4,82.24 
L568.3,81.82 
L571.3,81.41 
L574.2,81.02 
L577.2,80.65 
L580.1,80.28 
L583.1,79.93 
L586,79.59 
L588.9,79.26 
L591.9,78.94 
L594.8,78.63 
L597.8,78.34 
L600.7,78.05 
L603.7,77.77 
L606.6,77.51 
L609.6,77.25 
L612.5,77 
L615.5,76.77 
L618.4,76.54 
L621.4,76.31 
L624.3,76.1 
L627.3,75.9 
L630.2,75.7 
L633.2,75.51 
L636.1,75.33 
L639.1,75.15 
L642,74.98 
L645,74.82 
L647.9,74.66 
L650.9,74.51 
L653.8,74.37 
L656.8,74.23 
" fill="none"/>
</g>
</g>
	<g id="plotPoints" clip-path="url(#plot_window)">
</g>
	<g id="legendBackground" stroke="rgb(119,136,153)" fill="rgb(255,255,255)" stroke-width="1">
	<rect x="665.7" y="43" width="70.3" height="89.5"/>
</g>
	<g id="legendPoints">
</g>
	<g id="legendLines">
	<g stroke="rgb(0,0,139)" stroke-width="1">
	<line x1="681" y1="62.75" x2="687" y2="62.75"/>
</g>
	<g stroke="rgb(139,0,0)" stroke-width="1">
	<line x1="681" y1="75.25" x2="687" y2="75.25"/>
</g>
	<g stroke="rgb(0,100,0)" stroke-width="1">
	<line x1="681" y1="87.75" x2="687" y2="87.75"/>
</g>
	<g stroke="rgb(255,140,0)" stroke-width="1">
	<line x1="681" y1="100.3" x2="687" y2="100.3"/>
</g>
	<g stroke="rgb(127,255,0)" stroke-width="1">
	<line x1="681" y1="112.8" x2="687" y2="112.8"/>
</g>
</g>
	<g id="legendText">
	<text x="696" y="62.75" font-size="10" font-family="Lucida Sans Unicode" font-weight="normal" textLength="31.8">&#x3C3;=0.5
	</text>
	<text x="696" y="75.25" font-size="10" font-family="Lucida Sans Unicode" font-weight="normal" textLength="19.8">&#x3C3;=1
	</text>
	<text x="696" y="87.75" font-size="10" font-family="Lucida Sans Unicode" font-weight="normal" textLength="19.8">&#x3C3;=2
	</text>
	<text x="696" y="100.3" font-size="10" font-family="Lucida Sans Unicode" font-weight="normal" textLength="19.8">&#x3C3;=4
	</text>
	<text x="696" y="112.8" font-size="10" font-family="Lucida Sans Unicode" font-weight="normal" textLength="25.8">&#x3C3;=10
	</text>
</g>
	<g id="title">
	<text x="375" y="30" text-anchor="middle" font-size="20" font-family="Lucida Sans Unicode" font-weight="normal">Rayleigh Distribution CDF
	</text>
</g>
	<g id="plotXValues">
</g>
	<g id="plotYValues">
</g>
</svg>
