<?xml version="1.0" encoding="UTF-8" standalone="no"?>
<svg width="750" height ="400" version="1.1"
xmlns:svg ="http://www.w3.org/2000/svg"
xmlns:rdf="http://www.w3.org/1999/02/22-rdf-syntax-ns#"
xmlns:cc="http://web.resource.org/cc/"
xmlns:dc="http://purl.org/dc/elements/1.1/"
xmlns ="http://www.w3.org/2000/svg"
>
<!-- SVG plot written using Boost.Plot program (Creator Jacob Voytko) --> 
<!-- Use, modification and distribution of Boost.Plot subject to the --> 
<!-- Boost Software License, Version 1.0.--> 
<!-- (See accompanying file LICENSE_1_0.txt --> 
<!-- or copy at http://www.boost.org/LICENSE_1_0.txt) --> 

<!-- SVG Plot Copyright John Maddock 2008 --> 
<meta name="copyright" content="John Maddock" />
<meta name="date" content="2008" />
<!-- Use, modification and distribution of this Scalable Vector Graphic file -->
<!-- are subject to the Boost Software License, Version 1.0. -->
<!-- (See accompanying file LICENSE_1_0.txt or copy at http://www.boost.org/LICENSE_1_0.txt) -->

<clipPath id="plot_window">	<rect x="71.1" y="44" width="553.4" height="309"/>
</clipPath>
	<g id="imageBackground" stroke="rgb(119,136,153)" fill="rgb(255,255,255)" stroke-width="2">
	<rect x="0" y="0" width="750" height="400"/>
</g>
	<g id="plotBackground" stroke="rgb(119,136,153)" fill="rgb(255,255,255)" stroke-width="2">
	<rect x="70.1" y="43" width="555.4" height="311"/>
</g>
	<g id="yMinorGrid" stroke="rgb(200,220,255)" stroke-width="0.5">
</g>
	<g id="yMajorGrid" stroke="rgb(200,220,255)" stroke-width="1">
</g>
	<g id="xMinorGrid" stroke="rgb(200,220,255)" stroke-width="0.5">
</g>
	<g id="xMajorGrid" stroke="rgb(200,220,255)" stroke-width="1">
</g>
	<g id="yAxis" stroke="rgb(0,0,0)" stroke-width="1">
	<line x1="379.5" y1="43" x2="379.5" y2="359"/>
	<line x1="70.1" y1="43" x2="70.1" y2="354"/>
</g>
	<g id="xAxis" stroke="rgb(0,0,0)" stroke-width="1">
	<line x1="65.1" y1="354" x2="625.5" y2="354"/>
	<line x1="65.1" y1="354" x2="625.5" y2="354"/>
</g>
	<g id="yMinorTicks" stroke="rgb(0,0,0)" stroke-width="1">
	<path d="M68.1,348.2 L70.1,348.2 
M68.1,342.4 L70.1,342.4 
M68.1,336.6 L70.1,336.6 
M68.1,330.8 L70.1,330.8 
M68.1,319.2 L70.1,319.2 
M68.1,313.4 L70.1,313.4 
M68.1,307.5 L70.1,307.5 
M68.1,301.7 L70.1,301.7 
M68.1,290.1 L70.1,290.1 
M68.1,284.3 L70.1,284.3 
M68.1,278.5 L70.1,278.5 
M68.1,272.7 L70.1,272.7 
M68.1,261.1 L70.1,261.1 
M68.1,255.3 L70.1,255.3 
M68.1,249.5 L70.1,249.5 
M68.1,243.7 L70.1,243.7 
M68.1,232.1 L70.1,232.1 
M68.1,226.3 L70.1,226.3 
M68.1,220.4 L70.1,220.4 
M68.1,214.6 L70.1,214.6 
M68.1,203 L70.1,203 
M68.1,197.2 L70.1,197.2 
M68.1,191.4 L70.1,191.4 
M68.1,185.6 L70.1,185.6 
M68.1,174 L70.1,174 
M68.1,168.2 L70.1,168.2 
M68.1,162.4 L70.1,162.4 
M68.1,156.6 L70.1,156.6 
M68.1,145 L70.1,145 
M68.1,139.1 L70.1,139.1 
M68.1,133.3 L70.1,133.3 
M68.1,127.5 L70.1,127.5 
M68.1,115.9 L70.1,115.9 
M68.1,110.1 L70.1,110.1 
M68.1,104.3 L70.1,104.3 
M68.1,98.5 L70.1,98.5 
M68.1,86.89 L70.1,86.89 
M68.1,81.08 L70.1,81.08 
M68.1,75.28 L70.1,75.28 
M68.1,69.47 L70.1,69.47 
M68.1,57.86 L70.1,57.86 
M68.1,52.05 L70.1,52.05 
M68.1,46.24 L70.1,46.24 
M68.1,354 L70.1,354 
" fill="none"/>
</g>
	<g id="xMinorTicks" stroke="rgb(0,0,0)" stroke-width="1">
	<path d="M398.1,354 L398.1,356 
M416.7,354 L416.7,356 
M435.4,354 L435.4,356 
M454,354 L454,356 
M491.3,354 L491.3,356 
M509.9,354 L509.9,356 
M528.6,354 L528.6,356 
M547.2,354 L547.2,356 
M584.5,354 L584.5,356 
M603.1,354 L603.1,356 
M621.7,354 L621.7,356 
M360.8,354 L360.8,356 
M342.2,354 L342.2,356 
M323.6,354 L323.6,356 
M304.9,354 L304.9,356 
M267.7,354 L267.7,356 
M249,354 L249,356 
M230.4,354 L230.4,356 
M211.7,354 L211.7,356 
M174.5,354 L174.5,356 
M155.8,354 L155.8,356 
M137.2,354 L137.2,356 
M118.6,354 L118.6,356 
M81.29,354 L81.29,356 
" fill="none"/>
</g>
	<g id="yMajorTicks" stroke="rgb(0,0,0)" stroke-width="2">
	<path d="M65.1,354 L70.1,354 
M65.1,325 L70.1,325 
M65.1,295.9 L70.1,295.9 
M65.1,266.9 L70.1,266.9 
M65.1,237.9 L70.1,237.9 
M65.1,208.8 L70.1,208.8 
M65.1,179.8 L70.1,179.8 
M65.1,150.8 L70.1,150.8 
M65.1,121.7 L70.1,121.7 
M65.1,92.7 L70.1,92.7 
M65.1,63.66 L70.1,63.66 
M65.1,354 L70.1,354 
" fill="none"/>
</g>
	<g id="xMajorTicks" stroke="rgb(0,0,0)" stroke-width="2">
	<path d="M379.5,354 L379.5,359 
M472.7,354 L472.7,359 
M565.8,354 L565.8,359 
M379.5,354 L379.5,359 
M286.3,354 L286.3,359 
M193.1,354 L193.1,359 
M99.93,354 L99.93,359 
" fill="none"/>
</g>
	<g id="xTicksValues" font-size="12" font-family="Lucida Sans Unicode" text-anchor="middle">
	<text x="379.5" y="374.6">0
	</text>
	<text x="472.7" y="374.6">1
	</text>
	<text x="565.8" y="374.6">2
	</text>
	<text x="379.5" y="374.6">0
	</text>
	<text x="286.3" y="374.6">-1
	</text>
	<text x="193.1" y="374.6">-2
	</text>
	<text x="99.93" y="374.6">-3
	</text>
</g>
	<g id="yTicksValues" font-size="12" font-family="Lucida Sans Unicode" text-anchor="end">
	<text x="59.1" y="356.4">0
	</text>
	<text x="59.1" y="327.4">0.1
	</text>
	<text x="59.1" y="298.3">0.2
	</text>
	<text x="59.1" y="269.3">0.3
	</text>
	<text x="59.1" y="240.3">0.4
	</text>
	<text x="59.1" y="211.2">0.5
	</text>
	<text x="59.1" y="182.2">0.6
	</text>
	<text x="59.1" y="153.2">0.7
	</text>
	<text x="59.1" y="124.1">0.8
	</text>
	<text x="59.1" y="95.1">0.9
	</text>
	<text x="59.1" y="66.06">1
	</text>
	<text x="59.1" y="356.4">0
	</text>
</g>
	<g id="yLabel">
	<text x="32.4" y="198.5" text-anchor="middle" transform="rotate(-90 32.4 198.5)" font-size="14" font-family="Lucida Sans Unicode">Probability
	</text>
</g>
	<g id="xLabel">
	<text x="347.8" y="387.1" text-anchor="middle" font-size="12" font-family="Lucida Sans Unicode">Random Variable
	</text>
</g>
	<g id="plotLines" stroke-width="2">
	<g clip-path="url(#plot_window)" stroke="rgb(0,0,139)" stroke-width="1">
	<path d="M70.1,353.5 L70.1,353.5 
L72.88,353.5 
L75.65,353.4 
L78.43,353.4 
L81.21,353.3 
L83.98,353.2 
L86.76,353.2 
L89.54,353.1 
L92.32,353 
L95.09,352.9 
L97.87,352.8 
L100.6,352.7 
L103.4,352.6 
L106.2,352.4 
L109,352.3 
L111.8,352.1 
L114.5,352 
L117.3,351.8 
L120.1,351.6 
L122.9,351.4 
L125.6,351.2 
L128.4,350.9 
L131.2,350.7 
L134,350.4 
L136.7,350.1 
L139.5,349.8 
L142.3,349.5 
L145.1,349.1 
L147.9,348.7 
L150.6,348.3 
L153.4,347.9 
L156.2,347.4 
L159,347 
L161.7,346.4 
L164.5,345.9 
L167.3,345.3 
L170.1,344.7 
L172.8,344.1 
L175.6,343.4 
L178.4,342.7 
L181.2,342 
L184,341.2 
L186.7,340.4 
L189.5,339.5 
L192.3,338.6 
L195.1,337.7 
L197.8,336.7 
L200.6,335.6 
L203.4,334.6 
L206.2,333.5 
L208.9,332.3 
L211.7,331.1 
L214.5,329.8 
L217.3,328.5 
L220.1,327.2 
L222.8,325.8 
L225.6,324.4 
L228.4,322.9 
L231.2,321.4 
L233.9,319.8 
L236.7,318.2 
L239.5,316.5 
L242.3,314.8 
L245.1,313.1 
L247.8,311.3 
L250.6,309.5 
L253.4,307.6 
L256.2,305.7 
L258.9,303.8 
L261.7,301.9 
L264.5,299.9 
L267.3,297.9 
L270,295.9 
L272.8,293.8 
L275.6,291.8 
L278.4,289.7 
L281.2,287.6 
L283.9,285.5 
L286.7,283.4 
L289.5,281.3 
L292.3,279.3 
L295,277.2 
L297.8,275.1 
L300.6,273.1 
L303.4,271 
L306.1,269 
L308.9,267 
L311.7,265.1 
L314.5,263.2 
L317.3,261.3 
L320,259.5 
L322.8,257.7 
L325.6,256 
L328.4,254.4 
L331.1,252.8 
L333.9,251.2 
L336.7,249.8 
L339.5,248.4 
L342.2,247.1 
L345,245.8 
L347.8,244.7 
L350.6,243.6 
L353.4,242.6 
L356.1,241.8 
L358.9,241 
L361.7,240.3 
L364.5,239.7 
L367.2,239.2 
L370,238.8 
L372.8,238.5 
L375.6,238.3 
L378.3,238.2 
L381.1,238.2 
L383.9,238.3 
L386.7,238.5 
L389.5,238.8 
L392.2,239.3 
L395,239.8 
L397.8,240.4 
L400.6,241.1 
L403.3,241.9 
L406.1,242.8 
L408.9,243.8 
L411.7,244.9 
L414.4,246 
L417.2,247.3 
L420,248.6 
L422.8,250 
L425.6,251.5 
L428.3,253 
L431.1,254.7 
L433.9,256.3 
L436.7,258.1 
L439.4,259.8 
L442.2,261.7 
L445,263.5 
L447.8,265.5 
L450.5,267.4 
L453.3,269.4 
L456.1,271.4 
L458.9,273.4 
L461.7,275.5 
L464.4,277.6 
L467.2,279.6 
L470,281.7 
L472.8,283.8 
L475.5,285.9 
L478.3,288 
L481.1,290.1 
L483.9,292.2 
L486.6,294.2 
L489.4,296.3 
L492.2,298.3 
L495,300.3 
L497.8,302.2 
L500.5,304.2 
L503.3,306.1 
L506.1,308 
L508.9,309.8 
L511.6,311.6 
L514.4,313.4 
L517.2,315.1 
L520,316.8 
L522.8,318.5 
L525.5,320.1 
L528.3,321.7 
L531.1,323.2 
L533.9,324.6 
L536.6,326.1 
L539.4,327.4 
L542.2,328.8 
L545,330.1 
L547.7,331.3 
L550.5,332.5 
L553.3,333.7 
L556.1,334.8 
L558.9,335.8 
L561.6,336.9 
L564.4,337.8 
L567.2,338.8 
L570,339.7 
L572.7,340.5 
L575.5,341.3 
L578.3,342.1 
L581.1,342.8 
L583.8,343.5 
L586.6,344.2 
L589.4,344.8 
L592.2,345.4 
L595,346 
L597.7,346.5 
L600.5,347 
L603.3,347.5 
L606.1,348 
L608.8,348.4 
L611.6,348.8 
L614.4,349.2 
L617.2,349.5 
L619.9,349.9 
L622.7,350.2 
L625.5,350.5 
" fill="none"/>
</g>
	<g clip-path="url(#plot_window)" stroke="rgb(139,0,0)" stroke-width="1">
	<path d="M70.1,354 L70.1,354 
L72.88,354 
L75.65,354 
L78.43,354 
L81.21,354 
L83.98,354 
L86.76,354 
L89.54,354 
L92.32,354 
L95.09,354 
L97.87,354 
L100.6,354 
L103.4,354 
L106.2,354 
L109,354 
L111.8,354 
L114.5,354 
L117.3,354 
L120.1,354 
L122.9,354 
L125.6,354 
L128.4,354 
L131.2,354 
L134,354 
L136.7,354 
L139.5,354 
L142.3,354 
L145.1,353.9 
L147.9,353.9 
L150.6,353.9 
L153.4,353.9 
L156.2,353.9 
L159,353.9 
L161.7,353.9 
L164.5,353.8 
L167.3,353.8 
L170.1,353.8 
L172.8,353.7 
L175.6,353.7 
L178.4,353.7 
L181.2,353.6 
L184,353.5 
L186.7,353.5 
L189.5,353.4 
L192.3,353.3 
L195.1,353.2 
L197.8,353.1 
L200.6,353 
L203.4,352.9 
L206.2,352.7 
L208.9,352.5 
L211.7,352.4 
L214.5,352.1 
L217.3,351.9 
L220.1,351.7 
L222.8,351.4 
L225.6,351.1 
L228.4,350.7 
L231.2,350.4 
L233.9,350 
L236.7,349.5 
L239.5,349 
L242.3,348.5 
L245.1,347.9 
L247.8,347.3 
L250.6,346.6 
L253.4,345.8 
L256.2,345 
L258.9,344.2 
L261.7,343.2 
L264.5,342.3 
L267.3,341.2 
L270,340 
L272.8,338.8 
L275.6,337.5 
L278.4,336.1 
L281.2,334.7 
L283.9,333.1 
L286.7,331.5 
L289.5,329.7 
L292.3,327.9 
L295,326 
L297.8,324 
L300.6,321.8 
L303.4,319.6 
L306.1,317.3 
L308.9,315 
L311.7,312.5 
L314.5,309.9 
L317.3,307.3 
L320,304.5 
L322.8,301.7 
L325.6,298.8 
L328.4,295.9 
L331.1,292.9 
L333.9,289.8 
L336.7,286.6 
L339.5,283.5 
L342.2,280.3 
L345,277 
L347.8,273.8 
L350.6,270.5 
L353.4,267.2 
L356.1,264 
L358.9,260.7 
L361.7,257.5 
L364.5,254.3 
L367.2,251.2 
L370,248.1 
L372.8,245.1 
L375.6,242.1 
L378.3,239.3 
L381.1,236.6 
L383.9,233.9 
L386.7,231.4 
L389.5,229 
L392.2,226.8 
L395,224.6 
L397.8,222.7 
L400.6,220.9 
L403.3,219.3 
L406.1,217.8 
L408.9,216.5 
L411.7,215.4 
L414.4,214.5 
L417.2,213.7 
L420,213.2 
L422.8,212.8 
L425.6,212.7 
L428.3,212.7 
L431.1,212.9 
L433.9,213.3 
L436.7,213.9 
L439.4,214.6 
L442.2,215.6 
L445,216.7 
L447.8,218 
L450.5,219.4 
L453.3,221 
L456.1,222.7 
L458.9,224.6 
L461.7,226.6 
L464.4,228.8 
L467.2,231 
L470,233.4 
L472.8,235.9 
L475.5,238.4 
L478.3,241.1 
L481.1,243.8 
L483.9,246.6 
L486.6,249.4 
L489.4,252.3 
L492.2,255.2 
L495,258.1 
L497.8,261.1 
L500.5,264 
L503.3,267 
L506.1,270 
L508.9,272.9 
L511.6,275.9 
L514.4,278.8 
L517.2,281.7 
L520,284.6 
L522.8,287.4 
L525.5,290.1 
L528.3,292.9 
L531.1,295.5 
L533.9,298.1 
L536.6,300.7 
L539.4,303.2 
L542.2,305.6 
L545,308 
L547.7,310.2 
L550.5,312.5 
L553.3,314.6 
L556.1,316.7 
L558.9,318.7 
L561.6,320.6 
L564.4,322.4 
L567.2,324.2 
L570,325.9 
L572.7,327.6 
L575.5,329.1 
L578.3,330.6 
L581.1,332 
L583.8,333.4 
L586.6,334.7 
L589.4,335.9 
L592.2,337.1 
L595,338.2 
L597.7,339.2 
L600.5,340.2 
L603.3,341.2 
L606.1,342 
L608.8,342.9 
L611.6,343.7 
L614.4,344.4 
L617.2,345.1 
L619.9,345.7 
L622.7,346.4 
L625.5,346.9 
" fill="none"/>
</g>
	<g clip-path="url(#plot_window)" stroke="rgb(0,100,0)" stroke-width="1">
	<path d="M70.1,354 L70.1,354 
L72.88,354 
L75.65,354 
L78.43,354 
L81.21,354 
L83.98,354 
L86.76,354 
L89.54,354 
L92.32,354 
L95.09,354 
L97.87,354 
L100.6,354 
L103.4,354 
L106.2,354 
L109,354 
L111.8,354 
L114.5,354 
L117.3,354 
L120.1,354 
L122.9,354 
L125.6,354 
L128.4,354 
L131.2,354 
L134,354 
L136.7,354 
L139.5,354 
L142.3,354 
L145.1,354 
L147.9,354 
L150.6,354 
L153.4,354 
L156.2,354 
L159,354 
L161.7,354 
L164.5,354 
L167.3,354 
L170.1,354 
L172.8,354 
L175.6,354 
L178.4,354 
L181.2,354 
L184,354 
L186.7,354 
L189.5,354 
L192.3,354 
L195.1,354 
L197.8,354 
L200.6,354 
L203.4,354 
L206.2,354 
L208.9,354 
L211.7,354 
L214.5,354 
L217.3,354 
L220.1,354 
L222.8,354 
L225.6,354 
L228.4,354 
L231.2,354 
L233.9,354 
L236.7,354 
L239.5,354 
L242.3,354 
L245.1,354 
L247.8,354 
L250.6,354 
L253.4,354 
L256.2,354 
L258.9,354 
L261.7,354 
L264.5,354 
L267.3,354 
L270,354 
L272.8,354 
L275.6,354 
L278.4,354 
L281.2,354 
L283.9,354 
L286.7,354 
L289.5,354 
L292.3,354 
L295,354 
L297.8,354 
L300.6,353.9 
L303.4,353.9 
L306.1,353.9 
L308.9,353.8 
L311.7,353.7 
L314.5,353.5 
L317.3,353.3 
L320,353 
L322.8,352.6 
L325.6,352 
L328.4,351.2 
L331.1,350.2 
L333.9,348.8 
L336.7,347.1 
L339.5,344.9 
L342.2,342.2 
L345,338.9 
L347.8,335 
L350.6,330.3 
L353.4,324.8 
L356.1,318.5 
L358.9,311.4 
L361.7,303.4 
L364.5,294.6 
L367.2,285.2 
L370,275.1 
L372.8,264.6 
L375.6,253.7 
L378.3,242.7 
L381.1,231.7 
L383.9,220.9 
L386.7,210.5 
L389.5,200.6 
L392.2,191.5 
L395,183.2 
L397.8,175.8 
L400.6,169.4 
L403.3,164.1 
L406.1,159.7 
L408.9,156.4 
L411.7,154 
L414.4,152.5 
L417.2,151.8 
L420,151.9 
L422.8,152.6 
L425.6,153.9 
L428.3,155.7 
L431.1,158 
L433.9,160.6 
L436.7,163.5 
L439.4,166.6 
L442.2,170 
L445,173.5 
L447.8,177.2 
L450.5,181 
L453.3,184.9 
L456.1,188.9 
L458.9,192.9 
L461.7,197 
L464.4,201.1 
L467.2,205.3 
L470,209.5 
L472.8,213.7 
L475.5,217.8 
L478.3,222 
L481.1,226.2 
L483.9,230.3 
L486.6,234.4 
L489.4,238.5 
L492.2,242.6 
L495,246.6 
L497.8,250.5 
L500.5,254.4 
L503.3,258.2 
L506.1,262 
L508.9,265.7 
L511.6,269.3 
L514.4,272.8 
L517.2,276.3 
L520,279.7 
L522.8,283 
L525.5,286.2 
L528.3,289.3 
L531.1,292.3 
L533.9,295.3 
L536.6,298.1 
L539.4,300.9 
L542.2,303.6 
L545,306.1 
L547.7,308.6 
L550.5,311 
L553.3,313.3 
L556.1,315.6 
L558.9,317.7 
L561.6,319.7 
L564.4,321.7 
L567.2,323.5 
L570,325.3 
L572.7,327 
L575.5,328.7 
L578.3,330.2 
L581.1,331.7 
L583.8,333.1 
L586.6,334.4 
L589.4,335.7 
L592.2,336.9 
L595,338 
L597.7,339.1 
L600.5,340.1 
L603.3,341.1 
L606.1,342 
L608.8,342.8 
L611.6,343.6 
L614.4,344.3 
L617.2,345 
L619.9,345.7 
L622.7,346.3 
L625.5,346.9 
" fill="none"/>
</g>
	<g clip-path="url(#plot_window)" stroke="rgb(255,140,0)" stroke-width="1">
	<path d="M70.1,354 L70.1,354 
L72.88,354 
L75.65,354 
L78.43,354 
L81.21,354 
L83.98,354 
L86.76,354 
L89.54,354 
L92.32,354 
L95.09,354 
L97.87,354 
L100.6,354 
L103.4,354 
L106.2,354 
L109,354 
L111.8,354 
L114.5,354 
L117.3,354 
L120.1,354 
L122.9,354 
L125.6,354 
L128.4,354 
L131.2,354 
L134,354 
L136.7,354 
L139.5,354 
L142.3,354 
L145.1,354 
L147.9,354 
L150.6,354 
L153.4,354 
L156.2,354 
L159,354 
L161.7,354 
L164.5,354 
L167.3,354 
L170.1,354 
L172.8,354 
L175.6,354 
L178.4,354 
L181.2,354 
L184,354 
L186.7,354 
L189.5,354 
L192.3,354 
L195.1,354 
L197.8,354 
L200.6,354 
L203.4,354 
L206.2,354 
L208.9,354 
L211.7,354 
L214.5,354 
L217.3,354 
L220.1,354 
L222.8,354 
L225.6,354 
L228.4,354 
L231.2,354 
L233.9,354 
L236.7,354 
L239.5,354 
L242.3,354 
L245.1,354 
L247.8,354 
L250.6,354 
L253.4,354 
L256.2,354 
L258.9,354 
L261.7,354 
L264.5,354 
L267.3,354 
L270,354 
L272.8,354 
L275.6,354 
L278.4,354 
L281.2,354 
L283.9,354 
L286.7,354 
L289.5,354 
L292.3,354 
L295,354 
L297.8,354 
L300.6,354 
L303.4,354 
L306.1,354 
L308.9,354 
L311.7,354 
L314.5,354 
L317.3,354 
L320,354 
L322.8,354 
L325.6,354 
L328.4,354 
L331.1,354 
L333.9,354 
L336.7,354 
L339.5,354 
L342.2,354 
L345,354 
L347.8,354 
L350.6,354 
L353.4,354 
L356.1,354 
L358.9,354 
L361.7,354 
L364.5,353.9 
L367.2,353 
L370,349.1 
L372.8,336.5 
L375.6,307.5 
L378.3,260.3 
L381.1,206.2 
L383.9,162.2 
L386.7,137.1 
L389.5,127.4 
L392.2,125.2 
L395,125.6 
L397.8,126.8 
L400.6,128.2 
L403.3,129.8 
L406.1,131.6 
L408.9,133.6 
L411.7,135.8 
L414.4,138.1 
L417.2,140.6 
L420,143.2 
L422.8,146.1 
L425.6,149 
L428.3,152.1 
L431.1,155.3 
L433.9,158.7 
L436.7,162.1 
L439.4,165.7 
L442.2,169.3 
L445,173.1 
L447.8,176.9 
L450.5,180.8 
L453.3,184.8 
L456.1,188.8 
L458.9,192.9 
L461.7,197 
L464.4,201.1 
L467.2,205.3 
L470,209.5 
L472.8,213.7 
L475.5,217.8 
L478.3,222 
L481.1,226.2 
L483.9,230.3 
L486.6,234.4 
L489.4,238.5 
L492.2,242.6 
L495,246.6 
L497.8,250.5 
L500.5,254.4 
L503.3,258.2 
L506.1,262 
L508.9,265.7 
L511.6,269.3 
L514.4,272.8 
L517.2,276.3 
L520,279.7 
L522.8,283 
L525.5,286.2 
L528.3,289.3 
L531.1,292.3 
L533.9,295.3 
L536.6,298.1 
L539.4,300.9 
L542.2,303.6 
L545,306.1 
L547.7,308.6 
L550.5,311 
L553.3,313.3 
L556.1,315.6 
L558.9,317.7 
L561.6,319.7 
L564.4,321.7 
L567.2,323.5 
L570,325.3 
L572.7,327 
L575.5,328.7 
L578.3,330.2 
L581.1,331.7 
L583.8,333.1 
L586.6,334.4 
L589.4,335.7 
L592.2,336.9 
L595,338 
L597.7,339.1 
L600.5,340.1 
L603.3,341.1 
L606.1,342 
L608.8,342.8 
L611.6,343.6 
L614.4,344.3 
L617.2,345 
L619.9,345.7 
L622.7,346.3 
L625.5,346.9 
" fill="none"/>
</g>
	<g clip-path="url(#plot_window)" stroke="rgb(127,255,0)" stroke-width="1">
	<path d="M70.1,353.1 L70.1,353.1 
L72.88,353 
L75.65,352.9 
L78.43,352.7 
L81.21,352.6 
L83.98,352.5 
L86.76,352.3 
L89.54,352.2 
L92.32,352 
L95.09,351.8 
L97.87,351.6 
L100.6,351.4 
L103.4,351.1 
L106.2,350.9 
L109,350.6 
L111.8,350.3 
L114.5,349.9 
L117.3,349.6 
L120.1,349.2 
L122.9,348.8 
L125.6,348.3 
L128.4,347.9 
L131.2,347.3 
L134,346.8 
L136.7,346.2 
L139.5,345.6 
L142.3,344.9 
L145.1,344.2 
L147.9,343.5 
L150.6,342.6 
L153.4,341.8 
L156.2,340.9 
L159,339.9 
L161.7,338.9 
L164.5,337.8 
L167.3,336.7 
L170.1,335.5 
L172.8,334.2 
L175.6,332.8 
L178.4,331.4 
L181.2,329.9 
L184,328.4 
L186.7,326.7 
L189.5,325 
L192.3,323.2 
L195.1,321.3 
L197.8,319.3 
L200.6,317.3 
L203.4,315.1 
L206.2,312.9 
L208.9,310.6 
L211.7,308.2 
L214.5,305.7 
L217.3,303.1 
L220.1,300.4 
L222.8,297.6 
L225.6,294.8 
L228.4,291.8 
L231.2,288.8 
L233.9,285.6 
L236.7,282.4 
L239.5,279.1 
L242.3,275.8 
L245.1,272.3 
L247.8,268.8 
L250.6,265.2 
L253.4,261.6 
L256.2,257.9 
L258.9,254.1 
L261.7,250.4 
L264.5,246.5 
L267.3,242.7 
L270,238.9 
L272.8,235 
L275.6,231.2 
L278.4,227.3 
L281.2,223.6 
L283.9,219.8 
L286.7,216.2 
L289.5,212.6 
L292.3,209.1 
L295,205.7 
L297.8,202.5 
L300.6,199.4 
L303.4,196.5 
L306.1,193.8 
L308.9,191.4 
L311.7,189.1 
L314.5,187.2 
L317.3,185.5 
L320,184.1 
L322.8,183 
L325.6,182.3 
L328.4,181.9 
L331.1,181.8 
L333.9,182.2 
L336.7,182.9 
L339.5,184 
L342.2,185.5 
L345,187.4 
L347.8,189.6 
L350.6,192.3 
L353.4,195.3 
L356.1,198.7 
L358.9,202.4 
L361.7,206.4 
L364.5,210.8 
L367.2,215.4 
L370,220.2 
L372.8,225.3 
L375.6,230.5 
L378.3,235.9 
L381.1,241.5 
L383.9,247.1 
L386.7,252.7 
L389.5,258.4 
L392.2,264 
L395,269.6 
L397.8,275.1 
L400.6,280.5 
L403.3,285.8 
L406.1,290.9 
L408.9,295.8 
L411.7,300.6 
L414.4,305.1 
L417.2,309.4 
L420,313.5 
L422.8,317.3 
L425.6,320.9 
L428.3,324.3 
L431.1,327.4 
L433.9,330.3 
L436.7,332.9 
L439.4,335.3 
L442.2,337.6 
L445,339.6 
L447.8,341.4 
L450.5,343 
L453.3,344.4 
L456.1,345.7 
L458.9,346.9 
L461.7,347.9 
L464.4,348.8 
L467.2,349.6 
L470,350.2 
L472.8,350.8 
L475.5,351.3 
L478.3,351.8 
L481.1,352.1 
L483.9,352.5 
L486.6,352.7 
L489.4,352.9 
L492.2,353.1 
L495,353.3 
L497.8,353.4 
L500.5,353.5 
L503.3,353.6 
L506.1,353.7 
L508.9,353.8 
L511.6,353.8 
L514.4,353.8 
L517.2,353.9 
L520,353.9 
L522.8,353.9 
L525.5,353.9 
L528.3,354 
L531.1,354 
L533.9,354 
L536.6,354 
L539.4,354 
L542.2,354 
L545,354 
L547.7,354 
L550.5,354 
L553.3,354 
L556.1,354 
L558.9,354 
L561.6,354 
L564.4,354 
L567.2,354 
L570,354 
L572.7,354 
L575.5,354 
L578.3,354 
L581.1,354 
L583.8,354 
L586.6,354 
L589.4,354 
L592.2,354 
L595,354 
L597.7,354 
L600.5,354 
L603.3,354 
L606.1,354 
L608.8,354 
L611.6,354 
L614.4,354 
L617.2,354 
L619.9,354 
L622.7,354 
L625.5,354 
" fill="none"/>
</g>
	<g clip-path="url(#plot_window)" stroke="rgb(0,0,139)" stroke-width="1">
	<path d="M70.1,339.9 L70.1,339.9 
L72.88,337.5 
L75.65,334.8 
L78.43,331.8 
L81.21,328.3 
L83.98,324.5 
L86.76,320.2 
L89.54,315.4 
L92.32,310.1 
L95.09,304.2 
L97.87,297.8 
L100.6,290.9 
L103.4,283.3 
L106.2,275.2 
L109,266.5 
L111.8,257.2 
L114.5,247.4 
L117.3,237.1 
L120.1,226.3 
L122.9,215.1 
L125.6,203.6 
L128.4,191.9 
L131.2,180 
L134,168.1 
L136.7,156.3 
L139.5,144.8 
L142.3,133.6 
L145.1,122.9 
L147.9,112.8 
L150.6,103.6 
L153.4,95.26 
L156.2,88 
L159,81.92 
L161.7,77.13 
L164.5,73.72 
L167.3,71.76 
L170.1,71.3 
L172.8,72.36 
L175.6,74.93 
L178.4,79 
L181.2,84.5 
L184,91.38 
L186.7,99.51 
L189.5,108.8 
L192.3,119.1 
L195.1,130.3 
L197.8,142.2 
L200.6,154.6 
L203.4,167.4 
L206.2,180.4 
L208.9,193.5 
L211.7,206.5 
L214.5,219.3 
L217.3,231.7 
L220.1,243.7 
L222.8,255.1 
L225.6,265.8 
L228.4,275.9 
L231.2,285.3 
L233.9,293.9 
L236.7,301.8 
L239.5,308.9 
L242.3,315.3 
L245.1,321 
L247.8,326.1 
L250.6,330.5 
L253.4,334.4 
L256.2,337.7 
L258.9,340.5 
L261.7,343 
L264.5,345 
L267.3,346.7 
L270,348.2 
L272.8,349.3 
L275.6,350.3 
L278.4,351.1 
L281.2,351.7 
L283.9,352.2 
L286.7,352.6 
L289.5,352.9 
L292.3,353.2 
L295,353.4 
L297.8,353.5 
L300.6,353.7 
L303.4,353.7 
L306.1,353.8 
L308.9,353.9 
L311.7,353.9 
L314.5,353.9 
L317.3,353.9 
L320,354 
L322.8,354 
L325.6,354 
L328.4,354 
L331.1,354 
L333.9,354 
L336.7,354 
L339.5,354 
L342.2,354 
L345,354 
L347.8,354 
L350.6,354 
L353.4,354 
L356.1,354 
L358.9,354 
L361.7,354 
L364.5,354 
L367.2,354 
L370,354 
L372.8,354 
L375.6,354 
L378.3,354 
L381.1,354 
L383.9,354 
L386.7,354 
L389.5,354 
L392.2,354 
L395,354 
L397.8,354 
L400.6,354 
L403.3,354 
L406.1,354 
L408.9,354 
L411.7,354 
L414.4,354 
L417.2,354 
L420,354 
L422.8,354 
L425.6,354 
L428.3,354 
L431.1,354 
L433.9,354 
L436.7,354 
L439.4,354 
L442.2,354 
L445,354 
L447.8,354 
L450.5,354 
L453.3,354 
L456.1,354 
L458.9,354 
L461.7,354 
L464.4,354 
L467.2,354 
L470,354 
L472.8,354 
L475.5,354 
L478.3,354 
L481.1,354 
L483.9,354 
L486.6,354 
L489.4,354 
L492.2,354 
L495,354 
L497.8,354 
L500.5,354 
L503.3,354 
L506.1,354 
L508.9,354 
L511.6,354 
L514.4,354 
L517.2,354 
L520,354 
L522.8,354 
L525.5,354 
L528.3,354 
L531.1,354 
L533.9,354 
L536.6,354 
L539.4,354 
L542.2,354 
L545,354 
L547.7,354 
L550.5,354 
L553.3,354 
L556.1,354 
L558.9,354 
L561.6,354 
L564.4,354 
L567.2,354 
L570,354 
L572.7,354 
L575.5,354 
L578.3,354 
L581.1,354 
L583.8,354 
L586.6,354 
L589.4,354 
L592.2,354 
L595,354 
L597.7,354 
L600.5,354 
L603.3,354 
L606.1,354 
L608.8,354 
L611.6,354 
L614.4,354 
L617.2,354 
L619.9,354 
L622.7,354 
L625.5,354 
" fill="none"/>
</g>
</g>
	<g id="plotPoints" clip-path="url(#plot_window)">
</g>
	<g id="legendBackground" stroke="rgb(119,136,153)" fill="rgb(255,255,255)" stroke-width="1">
	<rect x="631.5" y="43" width="104.5" height="102"/>
</g>
	<g id="legendPoints">
</g>
	<g id="legendLines">
	<g stroke="rgb(0,0,139)" stroke-width="1">
	<line x1="646.8" y1="62.75" x2="652.8" y2="62.75"/>
</g>
	<g stroke="rgb(139,0,0)" stroke-width="1">
	<line x1="646.8" y1="75.25" x2="652.8" y2="75.25"/>
</g>
	<g stroke="rgb(0,100,0)" stroke-width="1">
	<line x1="646.8" y1="87.75" x2="652.8" y2="87.75"/>
</g>
	<g stroke="rgb(255,140,0)" stroke-width="1">
	<line x1="646.8" y1="100.3" x2="652.8" y2="100.3"/>
</g>
	<g stroke="rgb(127,255,0)" stroke-width="1">
	<line x1="646.8" y1="112.8" x2="652.8" y2="112.8"/>
</g>
	<g stroke="rgb(0,0,139)" stroke-width="1">
	<line x1="646.8" y1="125.3" x2="652.8" y2="125.3"/>
</g>
</g>
	<g id="legendText">
	<text x="661.8" y="62.75" font-size="10" font-family="Lucida Sans Unicode" font-weight="normal" textLength="42">{0,1,0}
	</text>
	<text x="661.8" y="75.25" font-size="10" font-family="Lucida Sans Unicode" font-weight="normal" textLength="42">{0,1,1}
	</text>
	<text x="661.8" y="87.75" font-size="10" font-family="Lucida Sans Unicode" font-weight="normal" textLength="42">{0,1,4}
	</text>
	<text x="661.8" y="100.3" font-size="10" font-family="Lucida Sans Unicode" font-weight="normal" textLength="48">{0,1,20}
	</text>
	<text x="661.8" y="112.8" font-size="10" font-family="Lucida Sans Unicode" font-weight="normal" textLength="48">{0,1,-2}
	</text>
	<text x="661.8" y="125.3" font-size="10" font-family="Lucida Sans Unicode" font-weight="normal" textLength="66">{-2,0.5,-1}
	</text>
</g>
	<g id="title">
	<text x="375" y="30" text-anchor="middle" font-size="20" font-family="Lucida Sans Unicode" font-weight="normal">Skew Normal Distribution PDF
	</text>
</g>
	<g id="plotXValues">
</g>
	<g id="plotYValues">
</g>
</svg>
