<?xml version="1.0" encoding="UTF-8" standalone="no"?>
<svg width="750" height ="400" version="1.1"
xmlns:svg ="http://www.w3.org/2000/svg"
xmlns:rdf="http://www.w3.org/1999/02/22-rdf-syntax-ns#"
xmlns:cc="http://web.resource.org/cc/"
xmlns:dc="http://purl.org/dc/elements/1.1/"
xmlns ="http://www.w3.org/2000/svg"
>
<!-- SVG plot written using Boost.Plot program (Creator Jacob Voytko) --> 
<!-- Use, modification and distribution of Boost.Plot subject to the --> 
<!-- Boost Software License, Version 1.0.--> 
<!-- (See accompanying file LICENSE_1_0.txt --> 
<!-- or copy at http://www.boost.org/LICENSE_1_0.txt) --> 

<!-- SVG Plot Copyright John Maddock 2008 --> 
<meta name="copyright" content="John Maddock" />
<meta name="date" content="2008" />
<!-- Use, modification and distribution of this Scalable Vector Graphic file -->
<!-- are subject to the Boost Software License, Version 1.0. -->
<!-- (See accompanying file LICENSE_1_0.txt or copy at http://www.boost.org/LICENSE_1_0.txt) -->

<clipPath id="plot_window">	<rect x="71.1" y="44" width="553.4" height="309"/>
</clipPath>
	<g id="imageBackground" stroke="rgb(119,136,153)" fill="rgb(255,255,255)" stroke-width="2">
	<rect x="0" y="0" width="750" height="400"/>
</g>
	<g id="plotBackground" stroke="rgb(119,136,153)" fill="rgb(255,255,255)" stroke-width="2">
	<rect x="70.1" y="43" width="555.4" height="311"/>
</g>
	<g id="yMinorGrid" stroke="rgb(200,220,255)" stroke-width="0.5">
</g>
	<g id="yMajorGrid" stroke="rgb(200,220,255)" stroke-width="1">
</g>
	<g id="xMinorGrid" stroke="rgb(200,220,255)" stroke-width="0.5">
</g>
	<g id="xMajorGrid" stroke="rgb(200,220,255)" stroke-width="1">
</g>
	<g id="yAxis" stroke="rgb(0,0,0)" stroke-width="1">
	<line x1="379.5" y1="43" x2="379.5" y2="359"/>
	<line x1="70.1" y1="43" x2="70.1" y2="354"/>
</g>
	<g id="xAxis" stroke="rgb(0,0,0)" stroke-width="1">
	<line x1="65.1" y1="354" x2="625.5" y2="354"/>
	<line x1="65.1" y1="354" x2="625.5" y2="354"/>
</g>
	<g id="yMinorTicks" stroke="rgb(0,0,0)" stroke-width="1">
	<path d="M68.1,348.3 L70.1,348.3 
M68.1,342.7 L70.1,342.7 
M68.1,337 L70.1,337 
M68.1,331.4 L70.1,331.4 
M68.1,320.1 L70.1,320.1 
M68.1,314.4 L70.1,314.4 
M68.1,308.8 L70.1,308.8 
M68.1,303.1 L70.1,303.1 
M68.1,291.8 L70.1,291.8 
M68.1,286.1 L70.1,286.1 
M68.1,280.5 L70.1,280.5 
M68.1,274.8 L70.1,274.8 
M68.1,263.5 L70.1,263.5 
M68.1,257.9 L70.1,257.9 
M68.1,252.2 L70.1,252.2 
M68.1,246.6 L70.1,246.6 
M68.1,235.3 L70.1,235.3 
M68.1,229.6 L70.1,229.6 
M68.1,223.9 L70.1,223.9 
M68.1,218.3 L70.1,218.3 
M68.1,207 L70.1,207 
M68.1,201.3 L70.1,201.3 
M68.1,195.7 L70.1,195.7 
M68.1,190 L70.1,190 
M68.1,178.7 L70.1,178.7 
M68.1,173.1 L70.1,173.1 
M68.1,167.4 L70.1,167.4 
M68.1,161.7 L70.1,161.7 
M68.1,150.4 L70.1,150.4 
M68.1,144.8 L70.1,144.8 
M68.1,139.1 L70.1,139.1 
M68.1,133.5 L70.1,133.5 
M68.1,122.2 L70.1,122.2 
M68.1,116.5 L70.1,116.5 
M68.1,110.9 L70.1,110.9 
M68.1,105.2 L70.1,105.2 
M68.1,93.89 L70.1,93.89 
M68.1,88.24 L70.1,88.24 
M68.1,82.58 L70.1,82.58 
M68.1,76.93 L70.1,76.93 
M68.1,65.62 L70.1,65.62 
M68.1,59.96 L70.1,59.96 
M68.1,54.31 L70.1,54.31 
M68.1,48.65 L70.1,48.65 
M68.1,354 L70.1,354 
" fill="none"/>
</g>
	<g id="xMinorTicks" stroke="rgb(0,0,0)" stroke-width="1">
	<path d="M398.1,354 L398.1,356 
M416.7,354 L416.7,356 
M435.4,354 L435.4,356 
M454,354 L454,356 
M491.3,354 L491.3,356 
M509.9,354 L509.9,356 
M528.6,354 L528.6,356 
M547.2,354 L547.2,356 
M584.5,354 L584.5,356 
M603.1,354 L603.1,356 
M621.7,354 L621.7,356 
M360.8,354 L360.8,356 
M342.2,354 L342.2,356 
M323.6,354 L323.6,356 
M304.9,354 L304.9,356 
M267.7,354 L267.7,356 
M249,354 L249,356 
M230.4,354 L230.4,356 
M211.7,354 L211.7,356 
M174.5,354 L174.5,356 
M155.8,354 L155.8,356 
M137.2,354 L137.2,356 
M118.6,354 L118.6,356 
M81.29,354 L81.29,356 
" fill="none"/>
</g>
	<g id="yMajorTicks" stroke="rgb(0,0,0)" stroke-width="2">
	<path d="M65.1,354 L70.1,354 
M65.1,325.7 L70.1,325.7 
M65.1,297.5 L70.1,297.5 
M65.1,269.2 L70.1,269.2 
M65.1,240.9 L70.1,240.9 
M65.1,212.6 L70.1,212.6 
M65.1,184.4 L70.1,184.4 
M65.1,156.1 L70.1,156.1 
M65.1,127.8 L70.1,127.8 
M65.1,99.55 L70.1,99.55 
M65.1,71.27 L70.1,71.27 
M65.1,43 L70.1,43 
M65.1,354 L70.1,354 
" fill="none"/>
</g>
	<g id="xMajorTicks" stroke="rgb(0,0,0)" stroke-width="2">
	<path d="M379.5,354 L379.5,359 
M472.7,354 L472.7,359 
M565.8,354 L565.8,359 
M379.5,354 L379.5,359 
M286.3,354 L286.3,359 
M193.1,354 L193.1,359 
M99.93,354 L99.93,359 
" fill="none"/>
</g>
	<g id="xTicksValues" font-size="12" font-family="Lucida Sans Unicode" text-anchor="middle">
	<text x="379.5" y="374.6">0
	</text>
	<text x="472.7" y="374.6">1
	</text>
	<text x="565.8" y="374.6">2
	</text>
	<text x="379.5" y="374.6">0
	</text>
	<text x="286.3" y="374.6">-1
	</text>
	<text x="193.1" y="374.6">-2
	</text>
	<text x="99.93" y="374.6">-3
	</text>
</g>
	<g id="yTicksValues" font-size="12" font-family="Lucida Sans Unicode" text-anchor="end">
	<text x="59.1" y="356.4">0
	</text>
	<text x="59.1" y="328.1">0.1
	</text>
	<text x="59.1" y="299.9">0.2
	</text>
	<text x="59.1" y="271.6">0.3
	</text>
	<text x="59.1" y="243.3">0.4
	</text>
	<text x="59.1" y="215">0.5
	</text>
	<text x="59.1" y="186.8">0.6
	</text>
	<text x="59.1" y="158.5">0.7
	</text>
	<text x="59.1" y="130.2">0.8
	</text>
	<text x="59.1" y="101.9">0.9
	</text>
	<text x="59.1" y="73.67">1
	</text>
	<text x="59.1" y="45.4">1.1
	</text>
	<text x="59.1" y="356.4">0
	</text>
</g>
	<g id="yLabel">
	<text x="32.4" y="198.5" text-anchor="middle" transform="rotate(-90 32.4 198.5)" font-size="14" font-family="Lucida Sans Unicode">Probability
	</text>
</g>
	<g id="xLabel">
	<text x="347.8" y="387.1" text-anchor="middle" font-size="12" font-family="Lucida Sans Unicode">Random Variable
	</text>
</g>
	<g id="plotLines" stroke-width="2">
	<g clip-path="url(#plot_window)" stroke="rgb(0,0,139)" stroke-width="1">
	<path d="M70.1,353.9 L70.1,353.9 
L72.88,353.9 
L75.65,353.8 
L78.43,353.8 
L81.21,353.8 
L83.98,353.8 
L86.76,353.8 
L89.54,353.7 
L92.32,353.7 
L95.09,353.7 
L97.87,353.6 
L100.6,353.6 
L103.4,353.6 
L106.2,353.5 
L109,353.5 
L111.8,353.4 
L114.5,353.4 
L117.3,353.3 
L120.1,353.2 
L122.9,353.2 
L125.6,353.1 
L128.4,353 
L131.2,352.9 
L134,352.8 
L136.7,352.7 
L139.5,352.6 
L142.3,352.5 
L145.1,352.3 
L147.9,352.2 
L150.6,352 
L153.4,351.8 
L156.2,351.7 
L159,351.5 
L161.7,351.2 
L164.5,351 
L167.3,350.8 
L170.1,350.5 
L172.8,350.2 
L175.6,349.9 
L178.4,349.6 
L181.2,349.3 
L184,348.9 
L186.7,348.5 
L189.5,348.1 
L192.3,347.7 
L195.1,347.2 
L197.8,346.8 
L200.6,346.2 
L203.4,345.7 
L206.2,345.1 
L208.9,344.5 
L211.7,343.8 
L214.5,343.2 
L217.3,342.4 
L220.1,341.7 
L222.8,340.9 
L225.6,340 
L228.4,339.2 
L231.2,338.2 
L233.9,337.3 
L236.7,336.3 
L239.5,335.2 
L242.3,334.1 
L245.1,332.9 
L247.8,331.7 
L250.6,330.4 
L253.4,329.1 
L256.2,327.7 
L258.9,326.3 
L261.7,324.8 
L264.5,323.3 
L267.3,321.7 
L270,320 
L272.8,318.3 
L275.6,316.5 
L278.4,314.7 
L281.2,312.8 
L283.9,310.9 
L286.7,308.8 
L289.5,306.8 
L292.3,304.6 
L295,302.4 
L297.8,300.2 
L300.6,297.8 
L303.4,295.5 
L306.1,293 
L308.9,290.5 
L311.7,288 
L314.5,285.4 
L317.3,282.7 
L320,280 
L322.8,277.2 
L325.6,274.4 
L328.4,271.5 
L331.1,268.6 
L333.9,265.7 
L336.7,262.7 
L339.5,259.6 
L342.2,256.5 
L345,253.4 
L347.8,250.3 
L350.6,247.1 
L353.4,243.8 
L356.1,240.6 
L358.9,237.3 
L361.7,234 
L364.5,230.7 
L367.2,227.4 
L370,224.1 
L372.8,220.7 
L375.6,217.4 
L378.3,214 
L381.1,210.6 
L383.9,207.3 
L386.7,203.9 
L389.5,200.6 
L392.2,197.2 
L395,193.9 
L397.8,190.6 
L400.6,187.3 
L403.3,184.1 
L406.1,180.8 
L408.9,177.6 
L411.7,174.4 
L414.4,171.3 
L417.2,168.2 
L420,165.1 
L422.8,162 
L425.6,159.1 
L428.3,156.1 
L431.1,153.2 
L433.9,150.3 
L436.7,147.5 
L439.4,144.8 
L442.2,142.1 
L445,139.4 
L447.8,136.8 
L450.5,134.3 
L453.3,131.8 
L456.1,129.4 
L458.9,127 
L461.7,124.7 
L464.4,122.4 
L467.2,120.2 
L470,118.1 
L472.8,116 
L475.5,114 
L478.3,112.1 
L481.1,110.2 
L483.9,108.4 
L486.6,106.6 
L489.4,104.9 
L492.2,103.3 
L495,101.7 
L497.8,100.2 
L500.5,98.68 
L503.3,97.26 
L506.1,95.9 
L508.9,94.59 
L511.6,93.34 
L514.4,92.13 
L517.2,90.98 
L520,89.88 
L522.8,88.82 
L525.5,87.82 
L528.3,86.85 
L531.1,85.94 
L533.9,85.06 
L536.6,84.23 
L539.4,83.44 
L542.2,82.69 
L545,81.98 
L547.7,81.3 
L550.5,80.66 
L553.3,80.05 
L556.1,79.48 
L558.9,78.94 
L561.6,78.43 
L564.4,77.94 
L567.2,77.49 
L570,77.06 
L572.7,76.66 
L575.5,76.28 
L578.3,75.92 
L581.1,75.59 
L583.8,75.27 
L586.6,74.98 
L589.4,74.7 
L592.2,74.45 
L595,74.21 
L597.7,73.98 
L600.5,73.77 
L603.3,73.58 
L606.1,73.4 
L608.8,73.23 
L611.6,73.07 
L614.4,72.93 
L617.2,72.79 
L619.9,72.67 
L622.7,72.55 
L625.5,72.44 
" fill="none"/>
</g>
	<g clip-path="url(#plot_window)" stroke="rgb(139,0,0)" stroke-width="1">
	<path d="M70.1,354 L70.1,354 
L72.88,354 
L75.65,354 
L78.43,354 
L81.21,354 
L83.98,354 
L86.76,354 
L89.54,354 
L92.32,354 
L95.09,354 
L97.87,354 
L100.6,354 
L103.4,354 
L106.2,354 
L109,354 
L111.8,354 
L114.5,354 
L117.3,354 
L120.1,354 
L122.9,354 
L125.6,354 
L128.4,354 
L131.2,354 
L134,354 
L136.7,354 
L139.5,354 
L142.3,354 
L145.1,354 
L147.9,354 
L150.6,354 
L153.4,354 
L156.2,354 
L159,354 
L161.7,354 
L164.5,354 
L167.3,354 
L170.1,354 
L172.8,354 
L175.6,353.9 
L178.4,353.9 
L181.2,353.9 
L184,353.9 
L186.7,353.9 
L189.5,353.9 
L192.3,353.9 
L195.1,353.8 
L197.8,353.8 
L200.6,353.8 
L203.4,353.8 
L206.2,353.7 
L208.9,353.7 
L211.7,353.6 
L214.5,353.6 
L217.3,353.5 
L220.1,353.5 
L222.8,353.4 
L225.6,353.3 
L228.4,353.2 
L231.2,353.1 
L233.9,353 
L236.7,352.9 
L239.5,352.7 
L242.3,352.6 
L245.1,352.4 
L247.8,352.2 
L250.6,352 
L253.4,351.8 
L256.2,351.6 
L258.9,351.3 
L261.7,351 
L264.5,350.7 
L267.3,350.3 
L270,349.9 
L272.8,349.5 
L275.6,349 
L278.4,348.5 
L281.2,348 
L283.9,347.4 
L286.7,346.8 
L289.5,346.1 
L292.3,345.4 
L295,344.6 
L297.8,343.7 
L300.6,342.8 
L303.4,341.9 
L306.1,340.9 
L308.9,339.8 
L311.7,338.6 
L314.5,337.3 
L317.3,336 
L320,334.6 
L322.8,333.2 
L325.6,331.6 
L328.4,329.9 
L331.1,328.2 
L333.9,326.4 
L336.7,324.5 
L339.5,322.5 
L342.2,320.4 
L345,318.2 
L347.8,315.9 
L350.6,313.6 
L353.4,311.1 
L356.1,308.5 
L358.9,305.9 
L361.7,303.1 
L364.5,300.3 
L367.2,297.3 
L370,294.3 
L372.8,291.2 
L375.6,288 
L378.3,284.7 
L381.1,281.3 
L383.9,277.9 
L386.7,274.3 
L389.5,270.7 
L392.2,267.1 
L395,263.4 
L397.8,259.6 
L400.6,255.7 
L403.3,251.9 
L406.1,247.9 
L408.9,244 
L411.7,239.9 
L414.4,235.9 
L417.2,231.8 
L420,227.8 
L422.8,223.7 
L425.6,219.6 
L428.3,215.5 
L431.1,211.4 
L433.9,207.3 
L436.7,203.2 
L439.4,199.2 
L442.2,195.1 
L445,191.1 
L447.8,187.2 
L450.5,183.2 
L453.3,179.3 
L456.1,175.5 
L458.9,171.7 
L461.7,168 
L464.4,164.3 
L467.2,160.7 
L470,157.2 
L472.8,153.7 
L475.5,150.3 
L478.3,147 
L481.1,143.8 
L483.9,140.6 
L486.6,137.6 
L489.4,134.6 
L492.2,131.7 
L495,128.8 
L497.8,126.1 
L500.5,123.4 
L503.3,120.9 
L506.1,118.4 
L508.9,116 
L511.6,113.7 
L514.4,111.5 
L517.2,109.3 
L520,107.3 
L522.8,105.3 
L525.5,103.4 
L528.3,101.6 
L531.1,99.84 
L533.9,98.18 
L536.6,96.6 
L539.4,95.09 
L542.2,93.65 
L545,92.28 
L547.7,90.98 
L550.5,89.74 
L553.3,88.56 
L556.1,87.45 
L558.9,86.4 
L561.6,85.4 
L564.4,84.46 
L567.2,83.57 
L570,82.73 
L572.7,81.94 
L575.5,81.19 
L578.3,80.49 
L581.1,79.83 
L583.8,79.21 
L586.6,78.64 
L589.4,78.09 
L592.2,77.58 
L595,77.11 
L597.7,76.67 
L600.5,76.25 
L603.3,75.87 
L606.1,75.51 
L608.8,75.17 
L611.6,74.86 
L614.4,74.57 
L617.2,74.3 
L619.9,74.05 
L622.7,73.82 
L625.5,73.61 
" fill="none"/>
</g>
	<g clip-path="url(#plot_window)" stroke="rgb(0,100,0)" stroke-width="1">
	<path d="M70.1,354 L70.1,354 
L72.88,354 
L75.65,354 
L78.43,354 
L81.21,354 
L83.98,354 
L86.76,354 
L89.54,354 
L92.32,354 
L95.09,354 
L97.87,354 
L100.6,354 
L103.4,354 
L106.2,354 
L109,354 
L111.8,354 
L114.5,354 
L117.3,354 
L120.1,354 
L122.9,354 
L125.6,354 
L128.4,354 
L131.2,354 
L134,354 
L136.7,354 
L139.5,354 
L142.3,354 
L145.1,354 
L147.9,354 
L150.6,354 
L153.4,354 
L156.2,354 
L159,354 
L161.7,354 
L164.5,354 
L167.3,354 
L170.1,354 
L172.8,354 
L175.6,354 
L178.4,354 
L181.2,354 
L184,354 
L186.7,354 
L189.5,354 
L192.3,354 
L195.1,354 
L197.8,354 
L200.6,354 
L203.4,354 
L206.2,354 
L208.9,354 
L211.7,354 
L214.5,354 
L217.3,354 
L220.1,354 
L222.8,354 
L225.6,354 
L228.4,354 
L231.2,354 
L233.9,354 
L236.7,354 
L239.5,354 
L242.3,354 
L245.1,354 
L247.8,354 
L250.6,354 
L253.4,354 
L256.2,354 
L258.9,354 
L261.7,354 
L264.5,354 
L267.3,354 
L270,354 
L272.8,354 
L275.6,354 
L278.4,354 
L281.2,354 
L283.9,354 
L286.7,354 
L289.5,354 
L292.3,354 
L295,354 
L297.8,354 
L300.6,354 
L303.4,354 
L306.1,354 
L308.9,354 
L311.7,354 
L314.5,354 
L317.3,354 
L320,353.9 
L322.8,353.9 
L325.6,353.8 
L328.4,353.8 
L331.1,353.7 
L333.9,353.5 
L336.7,353.4 
L339.5,353.1 
L342.2,352.8 
L345,352.5 
L347.8,352 
L350.6,351.3 
L353.4,350.6 
L356.1,349.6 
L358.9,348.5 
L361.7,347.2 
L364.5,345.6 
L367.2,343.7 
L370,341.6 
L372.8,339.1 
L375.6,336.4 
L378.3,333.3 
L381.1,329.9 
L383.9,326.2 
L386.7,322.2 
L389.5,317.9 
L392.2,313.3 
L395,308.4 
L397.8,303.4 
L400.6,298.1 
L403.3,292.7 
L406.1,287.1 
L408.9,281.4 
L411.7,275.6 
L414.4,269.8 
L417.2,264 
L420,258.1 
L422.8,252.2 
L425.6,246.4 
L428.3,240.6 
L431.1,234.9 
L433.9,229.2 
L436.7,223.7 
L439.4,218.2 
L442.2,212.8 
L445,207.5 
L447.8,202.3 
L450.5,197.2 
L453.3,192.3 
L456.1,187.4 
L458.9,182.7 
L461.7,178.1 
L464.4,173.6 
L467.2,169.2 
L470,165 
L472.8,160.8 
L475.5,156.8 
L478.3,152.9 
L481.1,149.2 
L483.9,145.5 
L486.6,142 
L489.4,138.6 
L492.2,135.3 
L495,132.1 
L497.8,129 
L500.5,126.1 
L503.3,123.3 
L506.1,120.5 
L508.9,117.9 
L511.6,115.4 
L514.4,113 
L517.2,110.7 
L520,108.5 
L522.8,106.4 
L525.5,104.4 
L528.3,102.4 
L531.1,100.6 
L533.9,98.86 
L536.6,97.19 
L539.4,95.61 
L542.2,94.11 
L545,92.68 
L547.7,91.33 
L550.5,90.05 
L553.3,88.84 
L556.1,87.69 
L558.9,86.6 
L561.6,85.58 
L564.4,84.61 
L567.2,83.7 
L570,82.85 
L572.7,82.04 
L575.5,81.28 
L578.3,80.57 
L581.1,79.9 
L583.8,79.27 
L586.6,78.68 
L589.4,78.13 
L592.2,77.62 
L595,77.14 
L597.7,76.69 
L600.5,76.27 
L603.3,75.88 
L606.1,75.52 
L608.8,75.18 
L611.6,74.87 
L614.4,74.58 
L617.2,74.31 
L619.9,74.06 
L622.7,73.83 
L625.5,73.61 
" fill="none"/>
</g>
	<g clip-path="url(#plot_window)" stroke="rgb(255,140,0)" stroke-width="1">
	<path d="M70.1,354 L70.1,354 
L72.88,354 
L75.65,354 
L78.43,354 
L81.21,354 
L83.98,354 
L86.76,354 
L89.54,354 
L92.32,354 
L95.09,354 
L97.87,354 
L100.6,354 
L103.4,354 
L106.2,354 
L109,354 
L111.8,354 
L114.5,354 
L117.3,354 
L120.1,354 
L122.9,354 
L125.6,354 
L128.4,354 
L131.2,354 
L134,354 
L136.7,354 
L139.5,354 
L142.3,354 
L145.1,354 
L147.9,354 
L150.6,354 
L153.4,354 
L156.2,354 
L159,354 
L161.7,354 
L164.5,354 
L167.3,354 
L170.1,354 
L172.8,354 
L175.6,354 
L178.4,354 
L181.2,354 
L184,354 
L186.7,354 
L189.5,354 
L192.3,354 
L195.1,354 
L197.8,354 
L200.6,354 
L203.4,354 
L206.2,354 
L208.9,354 
L211.7,354 
L214.5,354 
L217.3,354 
L220.1,354 
L222.8,354 
L225.6,354 
L228.4,354 
L231.2,354 
L233.9,354 
L236.7,354 
L239.5,354 
L242.3,354 
L245.1,354 
L247.8,354 
L250.6,354 
L253.4,354 
L256.2,354 
L258.9,354 
L261.7,354 
L264.5,354 
L267.3,354 
L270,354 
L272.8,354 
L275.6,354 
L278.4,354 
L281.2,354 
L283.9,354 
L286.7,354 
L289.5,354 
L292.3,354 
L295,354 
L297.8,354 
L300.6,354 
L303.4,354 
L306.1,354 
L308.9,354 
L311.7,354 
L314.5,354 
L317.3,354 
L320,354 
L322.8,354 
L325.6,354 
L328.4,354 
L331.1,354 
L333.9,354 
L336.7,354 
L339.5,354 
L342.2,354 
L345,354 
L347.8,354 
L350.6,354 
L353.4,354 
L356.1,354 
L358.9,354 
L361.7,354 
L364.5,354 
L367.2,354 
L370,353.9 
L372.8,353.6 
L375.6,352.7 
L378.3,350.7 
L381.1,347.2 
L383.9,342.3 
L386.7,336.3 
L389.5,329.8 
L392.2,323.2 
L395,316.6 
L397.8,310 
L400.6,303.4 
L403.3,296.9 
L406.1,290.4 
L408.9,283.9 
L411.7,277.6 
L414.4,271.3 
L417.2,265.1 
L420,258.9 
L422.8,252.8 
L425.6,246.8 
L428.3,240.9 
L431.1,235.1 
L433.9,229.4 
L436.7,223.8 
L439.4,218.3 
L442.2,212.8 
L445,207.5 
L447.8,202.3 
L450.5,197.3 
L453.3,192.3 
L456.1,187.4 
L458.9,182.7 
L461.7,178.1 
L464.4,173.6 
L467.2,169.2 
L470,165 
L472.8,160.8 
L475.5,156.8 
L478.3,152.9 
L481.1,149.2 
L483.9,145.5 
L486.6,142 
L489.4,138.6 
L492.2,135.3 
L495,132.1 
L497.8,129 
L500.5,126.1 
L503.3,123.3 
L506.1,120.5 
L508.9,117.9 
L511.6,115.4 
L514.4,113 
L517.2,110.7 
L520,108.5 
L522.8,106.4 
L525.5,104.4 
L528.3,102.4 
L531.1,100.6 
L533.9,98.86 
L536.6,97.19 
L539.4,95.61 
L542.2,94.11 
L545,92.68 
L547.7,91.33 
L550.5,90.05 
L553.3,88.84 
L556.1,87.69 
L558.9,86.6 
L561.6,85.58 
L564.4,84.61 
L567.2,83.7 
L570,82.85 
L572.7,82.04 
L575.5,81.28 
L578.3,80.57 
L581.1,79.9 
L583.8,79.27 
L586.6,78.68 
L589.4,78.13 
L592.2,77.62 
L595,77.14 
L597.7,76.69 
L600.5,76.27 
L603.3,75.88 
L606.1,75.52 
L608.8,75.18 
L611.6,74.87 
L614.4,74.58 
L617.2,74.31 
L619.9,74.06 
L622.7,73.83 
L625.5,73.61 
" fill="none"/>
</g>
	<g clip-path="url(#plot_window)" stroke="rgb(127,255,0)" stroke-width="1">
	<path d="M70.1,353.7 L70.1,353.7 
L72.88,353.7 
L75.65,353.7 
L78.43,353.7 
L81.21,353.6 
L83.98,353.6 
L86.76,353.5 
L89.54,353.5 
L92.32,353.4 
L95.09,353.4 
L97.87,353.3 
L100.6,353.2 
L103.4,353.1 
L106.2,353 
L109,353 
L111.8,352.9 
L114.5,352.7 
L117.3,352.6 
L120.1,352.5 
L122.9,352.3 
L125.6,352.2 
L128.4,352 
L131.2,351.8 
L134,351.6 
L136.7,351.4 
L139.5,351.2 
L142.3,350.9 
L145.1,350.6 
L147.9,350.3 
L150.6,350 
L153.4,349.7 
L156.2,349.3 
L159,348.9 
L161.7,348.5 
L164.5,348 
L167.3,347.6 
L170.1,347 
L172.8,346.5 
L175.6,345.9 
L178.4,345.3 
L181.2,344.6 
L184,343.9 
L186.7,343.1 
L189.5,342.3 
L192.3,341.4 
L195.1,340.5 
L197.8,339.5 
L200.6,338.5 
L203.4,337.4 
L206.2,336.2 
L208.9,335 
L211.7,333.7 
L214.5,332.3 
L217.3,330.9 
L220.1,329.4 
L222.8,327.8 
L225.6,326.1 
L228.4,324.3 
L231.2,322.5 
L233.9,320.6 
L236.7,318.5 
L239.5,316.4 
L242.3,314.2 
L245.1,311.9 
L247.8,309.4 
L250.6,306.9 
L253.4,304.3 
L256.2,301.5 
L258.9,298.7 
L261.7,295.7 
L264.5,292.7 
L267.3,289.5 
L270,286.2 
L272.8,282.8 
L275.6,279.3 
L278.4,275.7 
L281.2,272 
L283.9,268.1 
L286.7,264.2 
L289.5,260.1 
L292.3,256 
L295,251.7 
L297.8,247.4 
L300.6,242.9 
L303.4,238.4 
L306.1,233.8 
L308.9,229.1 
L311.7,224.4 
L314.5,219.5 
L317.3,214.7 
L320,209.8 
L322.8,204.8 
L325.6,199.8 
L328.4,194.8 
L331.1,189.9 
L333.9,184.9 
L336.7,179.9 
L339.5,174.9 
L342.2,170 
L345,165.2 
L347.8,160.4 
L350.6,155.6 
L353.4,151 
L356.1,146.4 
L358.9,142 
L361.7,137.6 
L364.5,133.4 
L367.2,129.3 
L370,125.4 
L372.8,121.5 
L375.6,117.9 
L378.3,114.4 
L381.1,111 
L383.9,107.8 
L386.7,104.8 
L389.5,102 
L392.2,99.27 
L395,96.74 
L397.8,94.37 
L400.6,92.16 
L403.3,90.11 
L406.1,88.2 
L408.9,86.44 
L411.7,84.83 
L414.4,83.34 
L417.2,81.99 
L420,80.75 
L422.8,79.63 
L425.6,78.62 
L428.3,77.71 
L431.1,76.9 
L433.9,76.17 
L436.7,75.52 
L439.4,74.94 
L442.2,74.43 
L445,73.98 
L447.8,73.59 
L450.5,73.25 
L453.3,72.95 
L456.1,72.69 
L458.9,72.47 
L461.7,72.28 
L464.4,72.11 
L467.2,71.97 
L470,71.86 
L472.8,71.76 
L475.5,71.67 
L478.3,71.6 
L481.1,71.54 
L483.9,71.49 
L486.6,71.45 
L489.4,71.42 
L492.2,71.39 
L495,71.37 
L497.8,71.35 
L500.5,71.33 
L503.3,71.32 
L506.1,71.31 
L508.9,71.3 
L511.6,71.3 
L514.4,71.29 
L517.2,71.29 
L520,71.28 
L522.8,71.28 
L525.5,71.28 
L528.3,71.28 
L531.1,71.28 
L533.9,71.28 
L536.6,71.27 
L539.4,71.27 
L542.2,71.27 
L545,71.27 
L547.7,71.27 
L550.5,71.27 
L553.3,71.27 
L556.1,71.27 
L558.9,71.27 
L561.6,71.27 
L564.4,71.27 
L567.2,71.27 
L570,71.27 
L572.7,71.27 
L575.5,71.27 
L578.3,71.27 
L581.1,71.27 
L583.8,71.27 
L586.6,71.27 
L589.4,71.27 
L592.2,71.27 
L595,71.27 
L597.7,71.27 
L600.5,71.27 
L603.3,71.27 
L606.1,71.27 
L608.8,71.27 
L611.6,71.27 
L614.4,71.27 
L617.2,71.27 
L619.9,71.27 
L622.7,71.27 
L625.5,71.27 
" fill="none"/>
</g>
	<g clip-path="url(#plot_window)" stroke="rgb(0,0,139)" stroke-width="1">
	<path d="M70.1,351.7 L70.1,351.7 
L72.88,351.2 
L75.65,350.7 
L78.43,350.1 
L81.21,349.4 
L83.98,348.6 
L86.76,347.7 
L89.54,346.6 
L92.32,345.4 
L95.09,344.1 
L97.87,342.5 
L100.6,340.8 
L103.4,338.9 
L106.2,336.7 
L109,334.3 
L111.8,331.6 
L114.5,328.7 
L117.3,325.4 
L120.1,321.9 
L122.9,318 
L125.6,313.8 
L128.4,309.3 
L131.2,304.4 
L134,299.2 
L136.7,293.6 
L139.5,287.7 
L142.3,281.5 
L145.1,274.9 
L147.9,268.1 
L150.6,260.9 
L153.4,253.5 
L156.2,245.9 
L159,238.1 
L161.7,230.2 
L164.5,222.1 
L167.3,213.9 
L170.1,205.7 
L172.8,197.5 
L175.6,189.4 
L178.4,181.3 
L181.2,173.4 
L184,165.7 
L186.7,158.2 
L189.5,150.9 
L192.3,144 
L195.1,137.3 
L197.8,131 
L200.6,125 
L203.4,119.4 
L206.2,114.2 
L208.9,109.3 
L211.7,104.9 
L214.5,100.8 
L217.3,97.05 
L220.1,93.68 
L222.8,90.64 
L225.6,87.93 
L228.4,85.52 
L231.2,83.39 
L233.9,81.52 
L236.7,79.9 
L239.5,78.49 
L242.3,77.27 
L245.1,76.23 
L247.8,75.35 
L250.6,74.61 
L253.4,73.98 
L256.2,73.46 
L258.9,73.03 
L261.7,72.68 
L264.5,72.39 
L267.3,72.15 
L270,71.96 
L272.8,71.81 
L275.6,71.69 
L278.4,71.59 
L281.2,71.52 
L283.9,71.46 
L286.7,71.41 
L289.5,71.38 
L292.3,71.35 
L295,71.33 
L297.8,71.32 
L300.6,71.3 
L303.4,71.3 
L306.1,71.29 
L308.9,71.28 
L311.7,71.28 
L314.5,71.28 
L317.3,71.28 
L320,71.28 
L322.8,71.27 
L325.6,71.27 
L328.4,71.27 
L331.1,71.27 
L333.9,71.27 
L336.7,71.27 
L339.5,71.27 
L342.2,71.27 
L345,71.27 
L347.8,71.27 
L350.6,71.27 
L353.4,71.27 
L356.1,71.27 
L358.9,71.27 
L361.7,71.27 
L364.5,71.27 
L367.2,71.27 
L370,71.27 
L372.8,71.27 
L375.6,71.27 
L378.3,71.27 
L381.1,71.27 
L383.9,71.27 
L386.7,71.27 
L389.5,71.27 
L392.2,71.27 
L395,71.27 
L397.8,71.27 
L400.6,71.27 
L403.3,71.27 
L406.1,71.27 
L408.9,71.27 
L411.7,71.27 
L414.4,71.27 
L417.2,71.27 
L420,71.27 
L422.8,71.27 
L425.6,71.27 
L428.3,71.27 
L431.1,71.27 
L433.9,71.27 
L436.7,71.27 
L439.4,71.27 
L442.2,71.27 
L445,71.27 
L447.8,71.27 
L450.5,71.27 
L453.3,71.27 
L456.1,71.27 
L458.9,71.27 
L461.7,71.27 
L464.4,71.27 
L467.2,71.27 
L470,71.27 
L472.8,71.27 
L475.5,71.27 
L478.3,71.27 
L481.1,71.27 
L483.9,71.27 
L486.6,71.27 
L489.4,71.27 
L492.2,71.27 
L495,71.27 
L497.8,71.27 
L500.5,71.27 
L503.3,71.27 
L506.1,71.27 
L508.9,71.27 
L511.6,71.27 
L514.4,71.27 
L517.2,71.27 
L520,71.27 
L522.8,71.27 
L525.5,71.27 
L528.3,71.27 
L531.1,71.27 
L533.9,71.27 
L536.6,71.27 
L539.4,71.27 
L542.2,71.27 
L545,71.27 
L547.7,71.27 
L550.5,71.27 
L553.3,71.27 
L556.1,71.27 
L558.9,71.27 
L561.6,71.27 
L564.4,71.27 
L567.2,71.27 
L570,71.27 
L572.7,71.27 
L575.5,71.27 
L578.3,71.27 
L581.1,71.27 
L583.8,71.27 
L586.6,71.27 
L589.4,71.27 
L592.2,71.27 
L595,71.27 
L597.7,71.27 
L600.5,71.27 
L603.3,71.27 
L606.1,71.27 
L608.8,71.27 
L611.6,71.27 
L614.4,71.27 
L617.2,71.27 
L619.9,71.27 
L622.7,71.27 
L625.5,71.27 
" fill="none"/>
</g>
</g>
	<g id="plotPoints" clip-path="url(#plot_window)">
</g>
	<g id="legendBackground" stroke="rgb(119,136,153)" fill="rgb(255,255,255)" stroke-width="1">
	<rect x="631.5" y="43" width="104.5" height="102"/>
</g>
	<g id="legendPoints">
</g>
	<g id="legendLines">
	<g stroke="rgb(0,0,139)" stroke-width="1">
	<line x1="646.8" y1="62.75" x2="652.8" y2="62.75"/>
</g>
	<g stroke="rgb(139,0,0)" stroke-width="1">
	<line x1="646.8" y1="75.25" x2="652.8" y2="75.25"/>
</g>
	<g stroke="rgb(0,100,0)" stroke-width="1">
	<line x1="646.8" y1="87.75" x2="652.8" y2="87.75"/>
</g>
	<g stroke="rgb(255,140,0)" stroke-width="1">
	<line x1="646.8" y1="100.3" x2="652.8" y2="100.3"/>
</g>
	<g stroke="rgb(127,255,0)" stroke-width="1">
	<line x1="646.8" y1="112.8" x2="652.8" y2="112.8"/>
</g>
	<g stroke="rgb(0,0,139)" stroke-width="1">
	<line x1="646.8" y1="125.3" x2="652.8" y2="125.3"/>
</g>
</g>
	<g id="legendText">
	<text x="661.8" y="62.75" font-size="10" font-family="Lucida Sans Unicode" font-weight="normal" textLength="42">{0,1,0}
	</text>
	<text x="661.8" y="75.25" font-size="10" font-family="Lucida Sans Unicode" font-weight="normal" textLength="42">{0,1,1}
	</text>
	<text x="661.8" y="87.75" font-size="10" font-family="Lucida Sans Unicode" font-weight="normal" textLength="42">{0,1,4}
	</text>
	<text x="661.8" y="100.3" font-size="10" font-family="Lucida Sans Unicode" font-weight="normal" textLength="48">{0,1,20}
	</text>
	<text x="661.8" y="112.8" font-size="10" font-family="Lucida Sans Unicode" font-weight="normal" textLength="48">{0,1,-2}
	</text>
	<text x="661.8" y="125.3" font-size="10" font-family="Lucida Sans Unicode" font-weight="normal" textLength="66">{-2,0.5,-1}
	</text>
</g>
	<g id="title">
	<text x="375" y="30" text-anchor="middle" font-size="20" font-family="Lucida Sans Unicode" font-weight="normal">Skew Normal Distribution CDF
	</text>
</g>
	<g id="plotXValues">
</g>
	<g id="plotYValues">
</g>
</svg>
