<?xml version="1.0" encoding="UTF-8" standalone="no"?>
<svg width="750" height ="400" version="1.1"
xmlns:svg ="http://www.w3.org/2000/svg"
xmlns:rdf="http://www.w3.org/1999/02/22-rdf-syntax-ns#"
xmlns:cc="http://web.resource.org/cc/"
xmlns:dc="http://purl.org/dc/elements/1.1/"
xmlns ="http://www.w3.org/2000/svg"
>
<!-- SVG plot written using Boost.Plot program (Creator Jacob Voytko) --> 
<!-- Use, modification and distribution of Boost.Plot subject to the --> 
<!-- Boost Software License, Version 1.0.--> 
<!-- (See accompanying file LICENSE_1_0.txt --> 
<!-- or copy at http://www.boost.org/LICENSE_1_0.txt) --> 

<!-- SVG Plot Copyright John Maddock 2008 --> 
<meta name="copyright" content="John Maddock" />
<meta name="date" content="2008" />
<!-- Use, modification and distribution of this Scalable Vector Graphic file -->
<!-- are subject to the Boost Software License, Version 1.0. -->
<!-- (See accompanying file LICENSE_1_0.txt or copy at http://www.boost.org/LICENSE_1_0.txt) -->

<clipPath id="plot_window">	<rect x="71.1" y="44" width="595.4" height="309"/>
</clipPath>
	<g id="imageBackground" stroke="rgb(119,136,153)" fill="rgb(255,255,255)" stroke-width="2">
	<rect x="0" y="0" width="750" height="400"/>
</g>
	<g id="plotBackground" stroke="rgb(119,136,153)" fill="rgb(255,255,255)" stroke-width="2">
	<rect x="70.1" y="43" width="597.4" height="311"/>
</g>
	<g id="yMinorGrid" stroke="rgb(200,220,255)" stroke-width="0.5">
</g>
	<g id="yMajorGrid" stroke="rgb(200,220,255)" stroke-width="1">
</g>
	<g id="xMinorGrid" stroke="rgb(200,220,255)" stroke-width="0.5">
</g>
	<g id="xMajorGrid" stroke="rgb(200,220,255)" stroke-width="1">
</g>
	<g id="yAxis" stroke="rgb(0,0,0)" stroke-width="1">
	<line x1="368.8" y1="43" x2="368.8" y2="359"/>
	<line x1="70.1" y1="43" x2="70.1" y2="354"/>
</g>
	<g id="xAxis" stroke="rgb(0,0,0)" stroke-width="1">
	<line x1="65.1" y1="354" x2="667.5" y2="354"/>
	<line x1="65.1" y1="354" x2="667.5" y2="354"/>
</g>
	<g id="yMinorTicks" stroke="rgb(0,0,0)" stroke-width="1">
	<path d="M68.1,339.7 L70.1,339.7 
M68.1,325.4 L70.1,325.4 
M68.1,311.1 L70.1,311.1 
M68.1,296.8 L70.1,296.8 
M68.1,268.2 L70.1,268.2 
M68.1,254 L70.1,254 
M68.1,239.7 L70.1,239.7 
M68.1,225.4 L70.1,225.4 
M68.1,196.8 L70.1,196.8 
M68.1,182.5 L70.1,182.5 
M68.1,168.2 L70.1,168.2 
M68.1,153.9 L70.1,153.9 
M68.1,125.3 L70.1,125.3 
M68.1,111 L70.1,111 
M68.1,96.74 L70.1,96.74 
M68.1,82.44 L70.1,82.44 
M68.1,53.86 L70.1,53.86 
" fill="none"/>
</g>
	<g id="xMinorTicks" stroke="rgb(0,0,0)" stroke-width="1">
	<path d="M382.5,354 L382.5,356 
M396.2,354 L396.2,356 
M409.9,354 L409.9,356 
M423.6,354 L423.6,356 
M451,354 L451,356 
M464.7,354 L464.7,356 
M478.4,354 L478.4,356 
M492.2,354 L492.2,356 
M519.6,354 L519.6,356 
M533.3,354 L533.3,356 
M547,354 L547,356 
M560.7,354 L560.7,356 
M588.1,354 L588.1,356 
M601.8,354 L601.8,356 
M615.5,354 L615.5,356 
M629.2,354 L629.2,356 
M656.6,354 L656.6,356 
M355.1,354 L355.1,356 
M341.4,354 L341.4,356 
M327.7,354 L327.7,356 
M314,354 L314,356 
M286.6,354 L286.6,356 
M272.9,354 L272.9,356 
M259.2,354 L259.2,356 
M245.5,354 L245.5,356 
M218,354 L218,356 
M204.3,354 L204.3,356 
M190.6,354 L190.6,356 
M176.9,354 L176.9,356 
M149.5,354 L149.5,356 
M135.8,354 L135.8,356 
M122.1,354 L122.1,356 
M108.4,354 L108.4,356 
M80.99,354 L80.99,356 
" fill="none"/>
</g>
	<g id="yMajorTicks" stroke="rgb(0,0,0)" stroke-width="2">
	<path d="M65.1,354 L70.1,354 
M65.1,282.5 L70.1,282.5 
M65.1,211.1 L70.1,211.1 
M65.1,139.6 L70.1,139.6 
M65.1,68.15 L70.1,68.15 
M65.1,354 L70.1,354 
" fill="none"/>
</g>
	<g id="xMajorTicks" stroke="rgb(0,0,0)" stroke-width="2">
	<path d="M368.8,354 L368.8,359 
M437.3,354 L437.3,359 
M505.9,354 L505.9,359 
M574.4,354 L574.4,359 
M642.9,354 L642.9,359 
M368.8,354 L368.8,359 
M300.3,354 L300.3,359 
M231.8,354 L231.8,359 
M163.2,354 L163.2,359 
M94.7,354 L94.7,359 
" fill="none"/>
</g>
	<g id="xTicksValues" font-size="12" font-family="Lucida Sans Unicode" text-anchor="middle">
	<text x="368.8" y="374.6">0
	</text>
	<text x="437.3" y="374.6">1
	</text>
	<text x="505.9" y="374.6">2
	</text>
	<text x="574.4" y="374.6">3
	</text>
	<text x="642.9" y="374.6">4
	</text>
	<text x="368.8" y="374.6">0
	</text>
	<text x="300.3" y="374.6">-1
	</text>
	<text x="231.8" y="374.6">-2
	</text>
	<text x="163.2" y="374.6">-3
	</text>
	<text x="94.7" y="374.6">-4
	</text>
</g>
	<g id="yTicksValues" font-size="12" font-family="Lucida Sans Unicode" text-anchor="end">
	<text x="59.1" y="356.4">0
	</text>
	<text x="59.1" y="284.9">0.1
	</text>
	<text x="59.1" y="213.5">0.2
	</text>
	<text x="59.1" y="142">0.3
	</text>
	<text x="59.1" y="70.55">0.4
	</text>
	<text x="59.1" y="356.4">0
	</text>
</g>
	<g id="yLabel">
	<text x="32.4" y="198.5" text-anchor="middle" transform="rotate(-90 32.4 198.5)" font-size="14" font-family="Lucida Sans Unicode">Probability
	</text>
</g>
	<g id="xLabel">
	<text x="368.8" y="387.1" text-anchor="middle" font-size="12" font-family="Lucida Sans Unicode">Random Variable
	</text>
</g>
	<g id="plotLines" stroke-width="2">
	<g clip-path="url(#plot_window)" stroke="rgb(0,0,139)" stroke-width="1">
	<path d="M70.1,342.6 L70.1,342.6 
L73.09,342.4 
L76.07,342.2 
L79.06,342 
L82.05,341.7 
L85.03,341.5 
L88.02,341.2 
L91.01,341 
L94,340.7 
L96.98,340.4 
L99.97,340.1 
L103,339.8 
L105.9,339.5 
L108.9,339.2 
L111.9,338.9 
L114.9,338.6 
L117.9,338.2 
L120.9,337.9 
L123.9,337.5 
L126.9,337.1 
L129.8,336.7 
L132.8,336.3 
L135.8,335.9 
L138.8,335.5 
L141.8,335 
L144.8,334.5 
L147.8,334.1 
L150.7,333.6 
L153.7,333 
L156.7,332.5 
L159.7,331.9 
L162.7,331.4 
L165.7,330.8 
L168.7,330.1 
L171.7,329.5 
L174.6,328.8 
L177.6,328.1 
L180.6,327.4 
L183.6,326.6 
L186.6,325.8 
L189.6,325 
L192.6,324.1 
L195.6,323.2 
L198.5,322.3 
L201.5,321.3 
L204.5,320.3 
L207.5,319.2 
L210.5,318.1 
L213.5,316.9 
L216.5,315.7 
L219.4,314.4 
L222.4,313.1 
L225.4,311.7 
L228.4,310.2 
L231.4,308.7 
L234.4,307.1 
L237.4,305.4 
L240.4,303.6 
L243.3,301.7 
L246.3,299.8 
L249.3,297.7 
L252.3,295.5 
L255.3,293.2 
L258.3,290.8 
L261.3,288.3 
L264.3,285.6 
L267.2,282.8 
L270.2,279.9 
L273.2,276.8 
L276.2,273.5 
L279.2,270.1 
L282.2,266.4 
L285.2,262.6 
L288.2,258.6 
L291.1,254.4 
L294.1,250 
L297.1,245.4 
L300.1,240.6 
L303.1,235.5 
L306.1,230.2 
L309.1,224.8 
L312,219.1 
L315,213.2 
L318,207.2 
L321,201 
L324,194.7 
L327,188.3 
L330,181.8 
L333,175.4 
L335.9,169.1 
L338.9,162.9 
L341.9,156.9 
L344.9,151.2 
L347.9,145.9 
L350.9,141.1 
L353.9,136.9 
L356.9,133.2 
L359.8,130.4 
L362.8,128.2 
L365.8,127 
L368.8,126.5 
L371.8,127 
L374.8,128.2 
L377.8,130.3 
L380.7,133.2 
L383.7,136.8 
L386.7,141.1 
L389.7,145.9 
L392.7,151.2 
L395.7,156.9 
L398.7,162.8 
L401.7,169 
L404.6,175.4 
L407.6,181.8 
L410.6,188.2 
L413.6,194.6 
L416.6,201 
L419.6,207.1 
L422.6,213.2 
L425.6,219.1 
L428.5,224.7 
L431.5,230.2 
L434.5,235.5 
L437.5,240.5 
L440.5,245.4 
L443.5,250 
L446.5,254.4 
L449.4,258.6 
L452.4,262.6 
L455.4,266.4 
L458.4,270.1 
L461.4,273.5 
L464.4,276.8 
L467.4,279.9 
L470.4,282.8 
L473.3,285.6 
L476.3,288.3 
L479.3,290.8 
L482.3,293.2 
L485.3,295.5 
L488.3,297.7 
L491.3,299.8 
L494.3,301.7 
L497.2,303.6 
L500.2,305.4 
L503.2,307.1 
L506.2,308.7 
L509.2,310.2 
L512.2,311.7 
L515.2,313.1 
L518.1,314.4 
L521.1,315.7 
L524.1,316.9 
L527.1,318.1 
L530.1,319.2 
L533.1,320.3 
L536.1,321.3 
L539.1,322.3 
L542,323.2 
L545,324.1 
L548,325 
L551,325.8 
L554,326.6 
L557,327.4 
L560,328.1 
L563,328.8 
L565.9,329.5 
L568.9,330.1 
L571.9,330.8 
L574.9,331.4 
L577.9,331.9 
L580.9,332.5 
L583.9,333 
L586.9,333.6 
L589.8,334.1 
L592.8,334.5 
L595.8,335 
L598.8,335.5 
L601.8,335.9 
L604.8,336.3 
L607.8,336.7 
L610.7,337.1 
L613.7,337.5 
L616.7,337.9 
L619.7,338.2 
L622.7,338.6 
L625.7,338.9 
L628.7,339.2 
L631.7,339.5 
L634.6,339.8 
L637.6,340.1 
L640.6,340.4 
L643.6,340.7 
L646.6,341 
L649.6,341.2 
L652.6,341.5 
L655.6,341.7 
L658.5,341.9 
L661.5,342.2 
L664.5,342.4 
L667.5,342.6 
" fill="none"/>
</g>
	<g clip-path="url(#plot_window)" stroke="rgb(139,0,0)" stroke-width="1">
	<path d="M70.1,351.5 L70.1,351.5 
L73.09,351.4 
L76.07,351.3 
L79.06,351.2 
L82.05,351 
L85.03,350.9 
L88.02,350.7 
L91.01,350.6 
L94,350.4 
L96.98,350.2 
L99.97,350 
L103,349.8 
L105.9,349.6 
L108.9,349.3 
L111.9,349.1 
L114.9,348.8 
L117.9,348.6 
L120.9,348.3 
L123.9,348 
L126.9,347.6 
L129.8,347.3 
L132.8,346.9 
L135.8,346.5 
L138.8,346.1 
L141.8,345.7 
L144.8,345.2 
L147.8,344.7 
L150.7,344.2 
L153.7,343.6 
L156.7,343.1 
L159.7,342.4 
L162.7,341.8 
L165.7,341.1 
L168.7,340.3 
L171.7,339.5 
L174.6,338.7 
L177.6,337.8 
L180.6,336.8 
L183.6,335.8 
L186.6,334.7 
L189.6,333.6 
L192.6,332.4 
L195.6,331.1 
L198.5,329.7 
L201.5,328.2 
L204.5,326.7 
L207.5,325 
L210.5,323.3 
L213.5,321.5 
L216.5,319.5 
L219.4,317.4 
L222.4,315.2 
L225.4,312.9 
L228.4,310.4 
L231.4,307.8 
L234.4,305 
L237.4,302.1 
L240.4,299 
L243.3,295.8 
L246.3,292.4 
L249.3,288.8 
L252.3,285 
L255.3,281 
L258.3,276.8 
L261.3,272.4 
L264.3,267.8 
L267.2,263 
L270.2,258 
L273.2,252.8 
L276.2,247.4 
L279.2,241.8 
L282.2,236 
L285.2,229.9 
L288.2,223.7 
L291.1,217.4 
L294.1,210.9 
L297.1,204.2 
L300.1,197.4 
L303.1,190.5 
L306.1,183.6 
L309.1,176.6 
L312,169.5 
L315,162.5 
L318,155.6 
L321,148.7 
L324,141.9 
L327,135.3 
L330,128.9 
L333,122.8 
L335.9,117 
L338.9,111.4 
L341.9,106.3 
L344.9,101.6 
L347.9,97.34 
L350.9,93.57 
L353.9,90.32 
L356.9,87.62 
L359.8,85.49 
L362.8,83.96 
L365.8,83.03 
L368.8,82.72 
L371.8,83.03 
L374.8,83.96 
L377.8,85.49 
L380.7,87.61 
L383.7,90.31 
L386.7,93.55 
L389.7,97.32 
L392.7,101.6 
L395.7,106.3 
L398.7,111.4 
L401.7,116.9 
L404.6,122.8 
L407.6,128.9 
L410.6,135.3 
L413.6,141.9 
L416.6,148.7 
L419.6,155.5 
L422.6,162.5 
L425.6,169.5 
L428.5,176.5 
L431.5,183.6 
L434.5,190.5 
L437.5,197.4 
L440.5,204.2 
L443.5,210.8 
L446.5,217.4 
L449.4,223.7 
L452.4,229.9 
L455.4,235.9 
L458.4,241.7 
L461.4,247.4 
L464.4,252.8 
L467.4,258 
L470.4,263 
L473.3,267.8 
L476.3,272.4 
L479.3,276.8 
L482.3,281 
L485.3,285 
L488.3,288.7 
L491.3,292.4 
L494.3,295.8 
L497.2,299 
L500.2,302.1 
L503.2,305 
L506.2,307.8 
L509.2,310.4 
L512.2,312.9 
L515.2,315.2 
L518.1,317.4 
L521.1,319.5 
L524.1,321.4 
L527.1,323.3 
L530.1,325 
L533.1,326.7 
L536.1,328.2 
L539.1,329.7 
L542,331.1 
L545,332.4 
L548,333.6 
L551,334.7 
L554,335.8 
L557,336.8 
L560,337.8 
L563,338.7 
L565.9,339.5 
L568.9,340.3 
L571.9,341.1 
L574.9,341.8 
L577.9,342.4 
L580.9,343.1 
L583.9,343.6 
L586.9,344.2 
L589.8,344.7 
L592.8,345.2 
L595.8,345.7 
L598.8,346.1 
L601.8,346.5 
L604.8,346.9 
L607.8,347.3 
L610.7,347.6 
L613.7,348 
L616.7,348.3 
L619.7,348.6 
L622.7,348.8 
L625.7,349.1 
L628.7,349.3 
L631.7,349.6 
L634.6,349.8 
L637.6,350 
L640.6,350.2 
L643.6,350.4 
L646.6,350.6 
L649.6,350.7 
L652.6,350.9 
L655.6,351 
L658.5,351.2 
L661.5,351.3 
L664.5,351.4 
L667.5,351.5 
" fill="none"/>
</g>
	<g clip-path="url(#plot_window)" stroke="rgb(0,100,0)" stroke-width="1">
	<path d="M70.1,353.9 L70.1,353.9 
L73.09,353.8 
L76.07,353.8 
L79.06,353.8 
L82.05,353.8 
L85.03,353.7 
L88.02,353.7 
L91.01,353.7 
L94,353.6 
L96.98,353.6 
L99.97,353.5 
L103,353.5 
L105.9,353.4 
L108.9,353.3 
L111.9,353.3 
L114.9,353.2 
L117.9,353.1 
L120.9,353 
L123.9,352.8 
L126.9,352.7 
L129.8,352.6 
L132.8,352.4 
L135.8,352.2 
L138.8,352 
L141.8,351.7 
L144.8,351.5 
L147.8,351.2 
L150.7,350.9 
L153.7,350.5 
L156.7,350.1 
L159.7,349.7 
L162.7,349.2 
L165.7,348.7 
L168.7,348.2 
L171.7,347.5 
L174.6,346.8 
L177.6,346.1 
L180.6,345.3 
L183.6,344.3 
L186.6,343.4 
L189.6,342.3 
L192.6,341.1 
L195.6,339.8 
L198.5,338.5 
L201.5,336.9 
L204.5,335.3 
L207.5,333.6 
L210.5,331.7 
L213.5,329.6 
L216.5,327.4 
L219.4,325 
L222.4,322.5 
L225.4,319.8 
L228.4,316.9 
L231.4,313.8 
L234.4,310.4 
L237.4,306.9 
L240.4,303.2 
L243.3,299.3 
L246.3,295.1 
L249.3,290.7 
L252.3,286 
L255.3,281.2 
L258.3,276.1 
L261.3,270.8 
L264.3,265.2 
L267.2,259.4 
L270.2,253.5 
L273.2,247.3 
L276.2,240.9 
L279.2,234.3 
L282.2,227.5 
L285.2,220.6 
L288.2,213.6 
L291.1,206.4 
L294.1,199.1 
L297.1,191.8 
L300.1,184.4 
L303.1,177 
L306.1,169.5 
L309.1,162.2 
L312,154.9 
L315,147.6 
L318,140.6 
L321,133.7 
L324,127 
L327,120.5 
L330,114.3 
L333,108.4 
L335.9,102.8 
L338.9,97.64 
L341.9,92.84 
L344.9,88.46 
L347.9,84.54 
L350.9,81.08 
L353.9,78.13 
L356.9,75.68 
L359.8,73.76 
L362.8,72.38 
L365.8,71.55 
L368.8,71.27 
L371.8,71.55 
L374.8,72.38 
L377.8,73.76 
L380.7,75.67 
L383.7,78.12 
L386.7,81.07 
L389.7,84.52 
L392.7,88.45 
L395.7,92.82 
L398.7,97.62 
L401.7,102.8 
L404.6,108.4 
L407.6,114.3 
L410.6,120.5 
L413.6,126.9 
L416.6,133.6 
L419.6,140.6 
L422.6,147.6 
L425.6,154.8 
L428.5,162.1 
L431.5,169.5 
L434.5,176.9 
L437.5,184.3 
L440.5,191.7 
L443.5,199.1 
L446.5,206.4 
L449.4,213.5 
L452.4,220.6 
L455.4,227.5 
L458.4,234.3 
L461.4,240.8 
L464.4,247.2 
L467.4,253.4 
L470.4,259.4 
L473.3,265.2 
L476.3,270.7 
L479.3,276.1 
L482.3,281.2 
L485.3,286 
L488.3,290.7 
L491.3,295.1 
L494.3,299.2 
L497.2,303.2 
L500.2,306.9 
L503.2,310.4 
L506.2,313.7 
L509.2,316.8 
L512.2,319.8 
L515.2,322.5 
L518.1,325 
L521.1,327.4 
L524.1,329.6 
L527.1,331.7 
L530.1,333.6 
L533.1,335.3 
L536.1,336.9 
L539.1,338.4 
L542,339.8 
L545,341.1 
L548,342.3 
L551,343.4 
L554,344.3 
L557,345.3 
L560,346.1 
L563,346.8 
L565.9,347.5 
L568.9,348.2 
L571.9,348.7 
L574.9,349.2 
L577.9,349.7 
L580.9,350.1 
L583.9,350.5 
L586.9,350.9 
L589.8,351.2 
L592.8,351.5 
L595.8,351.7 
L598.8,352 
L601.8,352.2 
L604.8,352.4 
L607.8,352.6 
L610.7,352.7 
L613.7,352.8 
L616.7,353 
L619.7,353.1 
L622.7,353.2 
L625.7,353.3 
L628.7,353.3 
L631.7,353.4 
L634.6,353.5 
L637.6,353.5 
L640.6,353.6 
L643.6,353.6 
L646.6,353.7 
L649.6,353.7 
L652.6,353.7 
L655.6,353.8 
L658.5,353.8 
L661.5,353.8 
L664.5,353.8 
L667.5,353.9 
" fill="none"/>
</g>
</g>
	<g id="plotPoints" clip-path="url(#plot_window)">
</g>
	<g id="legendBackground" stroke="rgb(119,136,153)" fill="rgb(255,255,255)" stroke-width="1">
	<rect x="673.5" y="43" width="62.5" height="64.5"/>
</g>
	<g id="legendPoints">
</g>
	<g id="legendLines">
	<g stroke="rgb(0,0,139)" stroke-width="1">
	<line x1="688.8" y1="62.75" x2="694.8" y2="62.75"/>
</g>
	<g stroke="rgb(139,0,0)" stroke-width="1">
	<line x1="688.8" y1="75.25" x2="694.8" y2="75.25"/>
</g>
	<g stroke="rgb(0,100,0)" stroke-width="1">
	<line x1="688.8" y1="87.75" x2="694.8" y2="87.75"/>
</g>
</g>
	<g id="legendText">
	<text x="703.8" y="62.75" font-size="10" font-family="Lucida Sans Unicode" font-weight="normal" textLength="18">v=1
	</text>
	<text x="703.8" y="75.25" font-size="10" font-family="Lucida Sans Unicode" font-weight="normal" textLength="18">v=5
	</text>
	<text x="703.8" y="87.75" font-size="10" font-family="Lucida Sans Unicode" font-weight="normal" textLength="24">v=30
	</text>
</g>
	<g id="title">
	<text x="375" y="30" text-anchor="middle" font-size="20" font-family="Lucida Sans Unicode" font-weight="normal">Students T Distribution PDF
	</text>
</g>
	<g id="plotXValues">
</g>
	<g id="plotYValues">
</g>
</svg>
