<?xml version="1.0" encoding="UTF-8" standalone="no"?>
<svg width="750" height ="400" version="1.1"
xmlns:svg ="http://www.w3.org/2000/svg"
xmlns:rdf="http://www.w3.org/1999/02/22-rdf-syntax-ns#"
xmlns:cc="http://web.resource.org/cc/"
xmlns:dc="http://purl.org/dc/elements/1.1/"
xmlns ="http://www.w3.org/2000/svg"
>
<!-- SVG plot written using Boost.Plot program (Creator Jacob Voytko) --> 
<!-- Use, modification and distribution of Boost.Plot subject to the --> 
<!-- Boost Software License, Version 1.0.--> 
<!-- (See accompanying file LICENSE_1_0.txt --> 
<!-- or copy at http://www.boost.org/LICENSE_1_0.txt) --> 

<!-- SVG Plot Copyright John Maddock 2008 --> 
<meta name="copyright" content="John Maddock" />
<meta name="date" content="2008" />
<!-- Use, modification and distribution of this Scalable Vector Graphic file -->
<!-- are subject to the Boost Software License, Version 1.0. -->
<!-- (See accompanying file LICENSE_1_0.txt or copy at http://www.boost.org/LICENSE_1_0.txt) -->

<clipPath id="plot_window">	<rect x="71.1" y="44" width="565.4" height="309"/>
</clipPath>
	<g id="imageBackground" stroke="rgb(119,136,153)" fill="rgb(255,255,255)" stroke-width="2">
	<rect x="0" y="0" width="750" height="400"/>
</g>
	<g id="plotBackground" stroke="rgb(119,136,153)" fill="rgb(255,255,255)" stroke-width="2">
	<rect x="70.1" y="43" width="567.4" height="311"/>
</g>
	<g id="yMinorGrid" stroke="rgb(200,220,255)" stroke-width="0.5">
</g>
	<g id="yMajorGrid" stroke="rgb(200,220,255)" stroke-width="1">
</g>
	<g id="xMinorGrid" stroke="rgb(200,220,255)" stroke-width="0.5">
</g>
	<g id="xMajorGrid" stroke="rgb(200,220,255)" stroke-width="1">
</g>
	<g id="yAxis" stroke="rgb(0,0,0)" stroke-width="1">
	<line x1="297.1" y1="43" x2="297.1" y2="359"/>
	<line x1="70.1" y1="43" x2="70.1" y2="354"/>
</g>
	<g id="xAxis" stroke="rgb(0,0,0)" stroke-width="1">
	<line x1="65.1" y1="354" x2="637.5" y2="354"/>
	<line x1="65.1" y1="354" x2="637.5" y2="354"/>
</g>
	<g id="yMinorTicks" stroke="rgb(0,0,0)" stroke-width="1">
	<path d="M68.1,339.9 L70.1,339.9 
M68.1,325.7 L70.1,325.7 
M68.1,311.6 L70.1,311.6 
M68.1,297.5 L70.1,297.5 
M68.1,269.2 L70.1,269.2 
M68.1,255 L70.1,255 
M68.1,240.9 L70.1,240.9 
M68.1,226.8 L70.1,226.8 
M68.1,198.5 L70.1,198.5 
M68.1,184.4 L70.1,184.4 
M68.1,170.2 L70.1,170.2 
M68.1,156.1 L70.1,156.1 
M68.1,127.8 L70.1,127.8 
M68.1,113.7 L70.1,113.7 
M68.1,99.55 L70.1,99.55 
M68.1,85.41 L70.1,85.41 
M68.1,57.14 L70.1,57.14 
M68.1,43 L70.1,43 
M68.1,354 L70.1,354 
" fill="none"/>
</g>
	<g id="xMinorTicks" stroke="rgb(0,0,0)" stroke-width="1">
	<path d="M319.8,354 L319.8,356 
M342.5,354 L342.5,356 
M365.1,354 L365.1,356 
M387.8,354 L387.8,356 
M433.2,354 L433.2,356 
M455.9,354 L455.9,356 
M478.6,354 L478.6,356 
M501.3,354 L501.3,356 
M546.7,354 L546.7,356 
M569.4,354 L569.4,356 
M592.1,354 L592.1,356 
M614.8,354 L614.8,356 
M274.4,354 L274.4,356 
M251.7,354 L251.7,356 
M229,354 L229,356 
M206.3,354 L206.3,356 
M160.9,354 L160.9,356 
M138.2,354 L138.2,356 
M115.5,354 L115.5,356 
M92.8,354 L92.8,356 
" fill="none"/>
</g>
	<g id="yMajorTicks" stroke="rgb(0,0,0)" stroke-width="2">
	<path d="M65.1,354 L70.1,354 
M65.1,283.3 L70.1,283.3 
M65.1,212.6 L70.1,212.6 
M65.1,142 L70.1,142 
M65.1,71.27 L70.1,71.27 
M65.1,354 L70.1,354 
" fill="none"/>
</g>
	<g id="xMajorTicks" stroke="rgb(0,0,0)" stroke-width="2">
	<path d="M297.1,354 L297.1,359 
M410.5,354 L410.5,359 
M524,354 L524,359 
M637.5,354 L637.5,359 
M297.1,354 L297.1,359 
M183.6,354 L183.6,359 
M70.1,354 L70.1,359 
" fill="none"/>
</g>
	<g id="xTicksValues" font-size="12" font-family="Lucida Sans Unicode" text-anchor="middle">
	<text x="297.1" y="374.6">0
	</text>
	<text x="410.5" y="374.6">1
	</text>
	<text x="524" y="374.6">2
	</text>
	<text x="637.5" y="374.6">3
	</text>
	<text x="297.1" y="374.6">0
	</text>
	<text x="183.6" y="374.6">-1
	</text>
	<text x="70.1" y="374.6">-2
	</text>
</g>
	<g id="yTicksValues" font-size="12" font-family="Lucida Sans Unicode" text-anchor="end">
	<text x="59.1" y="356.4">0
	</text>
	<text x="59.1" y="285.7">0.5
	</text>
	<text x="59.1" y="215">1
	</text>
	<text x="59.1" y="144.4">1.5
	</text>
	<text x="59.1" y="73.67">2
	</text>
	<text x="59.1" y="356.4">0
	</text>
</g>
	<g id="yLabel">
	<text x="32.4" y="198.5" text-anchor="middle" transform="rotate(-90 32.4 198.5)" font-size="14" font-family="Lucida Sans Unicode">Probability
	</text>
</g>
	<g id="xLabel">
	<text x="353.8" y="387.1" text-anchor="middle" font-size="12" font-family="Lucida Sans Unicode">Random Variable
	</text>
</g>
	<g id="plotLines" stroke-width="2">
	<g clip-path="url(#plot_window)" stroke="rgb(0,0,139)" stroke-width="1">
	<path d="M70.1,354 L70.1,354 
L72.94,354 
L75.77,354 
L78.61,354 
L81.45,354 
L84.28,354 
L87.12,354 
L89.96,354 
L92.8,354 
L95.63,354 
L98.47,354 
L101.3,354 
L104.1,354 
L107,354 
L109.8,354 
L112.7,354 
L115.5,354 
L118.3,354 
L121.2,354 
L124,354 
L126.8,354 
L129.7,354 
L132.5,354 
L135.4,354 
L138.2,354 
L141,354 
L143.9,354 
L146.7,354 
L149.5,354 
L152.4,354 
L155.2,354 
L158,354 
L160.9,354 
L163.7,354 
L166.6,354 
L169.4,354 
L172.2,354 
L175.1,354 
L177.9,354 
L180.7,354 
L183.6,354 
L186.4,350.5 
L189.3,346.9 
L192.1,343.4 
L194.9,339.9 
L197.8,336.3 
L200.6,332.8 
L203.4,329.3 
L206.3,325.7 
L209.1,322.2 
L211.9,318.7 
L214.8,315.1 
L217.6,311.6 
L220.5,308.1 
L223.3,304.5 
L226.1,301 
L229,297.5 
L231.8,293.9 
L234.6,290.4 
L237.5,286.9 
L240.3,283.3 
L243.2,279.8 
L246,276.3 
L248.8,272.7 
L251.7,269.2 
L254.5,265.6 
L257.3,262.1 
L260.2,258.6 
L263,255 
L265.9,251.5 
L268.7,248 
L271.5,244.4 
L274.4,240.9 
L277.2,237.4 
L280,233.8 
L282.9,230.3 
L285.7,226.8 
L288.5,223.2 
L291.4,219.7 
L294.2,216.2 
L297.1,212.6 
L299.9,216.2 
L302.7,219.7 
L305.6,223.2 
L308.4,226.8 
L311.2,230.3 
L314.1,233.8 
L316.9,237.4 
L319.8,240.9 
L322.6,244.4 
L325.4,248 
L328.3,251.5 
L331.1,255 
L333.9,258.6 
L336.8,262.1 
L339.6,265.6 
L342.5,269.2 
L345.3,272.7 
L348.1,276.2 
L351,279.8 
L353.8,283.3 
L356.6,286.9 
L359.5,290.4 
L362.3,293.9 
L365.1,297.5 
L368,301 
L370.8,304.5 
L373.7,308.1 
L376.5,311.6 
L379.3,315.1 
L382.2,318.7 
L385,322.2 
L387.8,325.7 
L390.7,329.3 
L393.5,332.8 
L396.4,336.3 
L399.2,339.9 
L402,343.4 
L404.9,346.9 
L407.7,350.5 
L410.5,354 
L413.4,354 
L416.2,354 
L419.1,354 
L421.9,354 
L424.7,354 
L427.6,354 
L430.4,354 
L433.2,354 
L436.1,354 
L438.9,354 
L441.7,354 
L444.6,354 
L447.4,354 
L450.3,354 
L453.1,354 
L455.9,354 
L458.8,354 
L461.6,354 
L464.4,354 
L467.3,354 
L470.1,354 
L473,354 
L475.8,354 
L478.6,354 
L481.5,354 
L484.3,354 
L487.1,354 
L490,354 
L492.8,354 
L495.6,354 
L498.5,354 
L501.3,354 
L504.2,354 
L507,354 
L509.8,354 
L512.7,354 
L515.5,354 
L518.3,354 
L521.2,354 
L524,354 
L526.9,354 
L529.7,354 
L532.5,354 
L535.4,354 
L538.2,354 
L541,354 
L543.9,354 
L546.7,354 
L549.6,354 
L552.4,354 
L555.2,354 
L558.1,354 
L560.9,354 
L563.7,354 
L566.6,354 
L569.4,354 
L572.2,354 
L575.1,354 
L577.9,354 
L580.8,354 
L583.6,354 
L586.4,354 
L589.3,354 
L592.1,354 
L594.9,354 
L597.8,354 
L600.6,354 
L603.5,354 
L606.3,354 
L609.1,354 
L612,354 
L614.8,354 
L617.6,354 
L620.5,354 
L623.3,354 
L626.2,354 
L629,354 
L631.8,354 
L634.7,354 
L637.5,354 
" fill="none"/>
</g>
	<g clip-path="url(#plot_window)" stroke="rgb(139,0,0)" stroke-width="1">
	<path d="M70.1,354 L70.1,354 
L72.94,354 
L75.77,354 
L78.61,354 
L81.45,354 
L84.28,354 
L87.12,354 
L89.96,354 
L92.8,354 
L95.63,354 
L98.47,354 
L101.3,354 
L104.1,354 
L107,354 
L109.8,354 
L112.7,354 
L115.5,354 
L118.3,354 
L121.2,354 
L124,354 
L126.8,354 
L129.7,354 
L132.5,354 
L135.4,354 
L138.2,354 
L141,354 
L143.9,354 
L146.7,354 
L149.5,354 
L152.4,354 
L155.2,354 
L158,354 
L160.9,354 
L163.7,354 
L166.6,354 
L169.4,354 
L172.2,354 
L175.1,354 
L177.9,354 
L180.7,354 
L183.6,354 
L186.4,354 
L189.3,354 
L192.1,354 
L194.9,354 
L197.8,354 
L200.6,354 
L203.4,354 
L206.3,354 
L209.1,354 
L211.9,354 
L214.8,354 
L217.6,354 
L220.5,354 
L223.3,354 
L226.1,354 
L229,354 
L231.8,354 
L234.6,354 
L237.5,354 
L240.3,354 
L243.2,354 
L246,354 
L248.8,354 
L251.7,354 
L254.5,354 
L257.3,354 
L260.2,354 
L263,354 
L265.9,354 
L268.7,354 
L271.5,354 
L274.4,354 
L277.2,354 
L280,354 
L282.9,354 
L285.7,354 
L288.5,354 
L291.4,354 
L294.2,354 
L297.1,354 
L299.9,346.9 
L302.7,339.9 
L305.6,332.8 
L308.4,325.7 
L311.2,318.7 
L314.1,311.6 
L316.9,304.5 
L319.8,297.5 
L322.6,290.4 
L325.4,283.3 
L328.3,276.3 
L331.1,269.2 
L333.9,262.1 
L336.8,255 
L339.6,248 
L342.5,240.9 
L345.3,233.8 
L348.1,226.8 
L351,219.7 
L353.8,212.6 
L356.6,205.6 
L359.5,198.5 
L362.3,191.4 
L365.1,184.4 
L368,177.3 
L370.8,170.2 
L373.7,163.2 
L376.5,156.1 
L379.3,149 
L382.2,142 
L385,134.9 
L387.8,127.8 
L390.7,120.8 
L393.5,113.7 
L396.4,106.6 
L399.2,99.55 
L402,92.48 
L404.9,85.41 
L407.7,78.34 
L410.5,71.27 
L413.4,354 
L416.2,354 
L419.1,354 
L421.9,354 
L424.7,354 
L427.6,354 
L430.4,354 
L433.2,354 
L436.1,354 
L438.9,354 
L441.7,354 
L444.6,354 
L447.4,354 
L450.3,354 
L453.1,354 
L455.9,354 
L458.8,354 
L461.6,354 
L464.4,354 
L467.3,354 
L470.1,354 
L473,354 
L475.8,354 
L478.6,354 
L481.5,354 
L484.3,354 
L487.1,354 
L490,354 
L492.8,354 
L495.6,354 
L498.5,354 
L501.3,354 
L504.2,354 
L507,354 
L509.8,354 
L512.7,354 
L515.5,354 
L518.3,354 
L521.2,354 
L524,354 
L526.9,354 
L529.7,354 
L532.5,354 
L535.4,354 
L538.2,354 
L541,354 
L543.9,354 
L546.7,354 
L549.6,354 
L552.4,354 
L555.2,354 
L558.1,354 
L560.9,354 
L563.7,354 
L566.6,354 
L569.4,354 
L572.2,354 
L575.1,354 
L577.9,354 
L580.8,354 
L583.6,354 
L586.4,354 
L589.3,354 
L592.1,354 
L594.9,354 
L597.8,354 
L600.6,354 
L603.5,354 
L606.3,354 
L609.1,354 
L612,354 
L614.8,354 
L617.6,354 
L620.5,354 
L623.3,354 
L626.2,354 
L629,354 
L631.8,354 
L634.7,354 
L637.5,354 
" fill="none"/>
</g>
	<g clip-path="url(#plot_window)" stroke="rgb(0,100,0)" stroke-width="1">
	<path d="M70.1,354 L70.1,354 
L72.94,354 
L75.77,354 
L78.61,354 
L81.45,354 
L84.28,354 
L87.12,354 
L89.96,354 
L92.8,354 
L95.63,354 
L98.47,354 
L101.3,354 
L104.1,354 
L107,354 
L109.8,354 
L112.7,354 
L115.5,354 
L118.3,354 
L121.2,354 
L124,354 
L126.8,354 
L129.7,354 
L132.5,354 
L135.4,354 
L138.2,354 
L141,354 
L143.9,354 
L146.7,354 
L149.5,354 
L152.4,354 
L155.2,354 
L158,354 
L160.9,354 
L163.7,354 
L166.6,354 
L169.4,354 
L172.2,354 
L175.1,354 
L177.9,354 
L180.7,354 
L183.6,354 
L186.4,354 
L189.3,354 
L192.1,354 
L194.9,354 
L197.8,354 
L200.6,354 
L203.4,354 
L206.3,354 
L209.1,354 
L211.9,354 
L214.8,354 
L217.6,354 
L220.5,354 
L223.3,354 
L226.1,354 
L229,354 
L231.8,354 
L234.6,354 
L237.5,354 
L240.3,354 
L243.2,354 
L246,354 
L248.8,354 
L251.7,354 
L254.5,354 
L257.3,354 
L260.2,354 
L263,354 
L265.9,354 
L268.7,354 
L271.5,354 
L274.4,354 
L277.2,354 
L280,354 
L282.9,354 
L285.7,354 
L288.5,354 
L291.4,354 
L294.2,354 
L297.1,354 
L299.9,351.6 
L302.7,349.3 
L305.6,346.9 
L308.4,344.6 
L311.2,342.2 
L314.1,339.9 
L316.9,337.5 
L319.8,335.2 
L322.6,332.8 
L325.4,330.4 
L328.3,328.1 
L331.1,325.7 
L333.9,323.4 
L336.8,321 
L339.6,318.7 
L342.5,316.3 
L345.3,313.9 
L348.1,311.6 
L351,309.2 
L353.8,306.9 
L356.6,304.5 
L359.5,302.2 
L362.3,299.8 
L365.1,297.5 
L368,295.1 
L370.8,292.7 
L373.7,290.4 
L376.5,288 
L379.3,285.7 
L382.2,283.3 
L385,281 
L387.8,278.6 
L390.7,276.3 
L393.5,273.9 
L396.4,271.5 
L399.2,269.2 
L402,266.8 
L404.9,264.5 
L407.7,262.1 
L410.5,259.8 
L413.4,260.9 
L416.2,262.1 
L419.1,263.3 
L421.9,264.5 
L424.7,265.6 
L427.6,266.8 
L430.4,268 
L433.2,269.2 
L436.1,270.4 
L438.9,271.5 
L441.7,272.7 
L444.6,273.9 
L447.4,275.1 
L450.3,276.2 
L453.1,277.4 
L455.9,278.6 
L458.8,279.8 
L461.6,281 
L464.4,282.1 
L467.3,283.3 
L470.1,284.5 
L473,285.7 
L475.8,286.9 
L478.6,288 
L481.5,289.2 
L484.3,290.4 
L487.1,291.6 
L490,292.7 
L492.8,293.9 
L495.6,295.1 
L498.5,296.3 
L501.3,297.5 
L504.2,298.6 
L507,299.8 
L509.8,301 
L512.7,302.2 
L515.5,303.3 
L518.3,304.5 
L521.2,305.7 
L524,306.9 
L526.9,308.1 
L529.7,309.2 
L532.5,310.4 
L535.4,311.6 
L538.2,312.8 
L541,313.9 
L543.9,315.1 
L546.7,316.3 
L549.6,317.5 
L552.4,318.7 
L555.2,319.8 
L558.1,321 
L560.9,322.2 
L563.7,323.4 
L566.6,324.5 
L569.4,325.7 
L572.2,326.9 
L575.1,328.1 
L577.9,329.3 
L580.8,330.4 
L583.6,331.6 
L586.4,332.8 
L589.3,334 
L592.1,335.2 
L594.9,336.3 
L597.8,337.5 
L600.6,338.7 
L603.5,339.9 
L606.3,341 
L609.1,342.2 
L612,343.4 
L614.8,344.6 
L617.6,345.8 
L620.5,346.9 
L623.3,348.1 
L626.2,349.3 
L629,350.5 
L631.8,351.6 
L634.7,352.8 
L637.5,354 
" fill="none"/>
</g>
	<g clip-path="url(#plot_window)" stroke="rgb(255,140,0)" stroke-width="1">
	<path d="M70.1,354 L70.1,354 
L72.94,354 
L75.77,354 
L78.61,354 
L81.45,354 
L84.28,354 
L87.12,354 
L89.96,354 
L92.8,354 
L95.63,354 
L98.47,354 
L101.3,354 
L104.1,354 
L107,354 
L109.8,354 
L112.7,354 
L115.5,354 
L118.3,354 
L121.2,354 
L124,354 
L126.8,354 
L129.7,354 
L132.5,354 
L135.4,354 
L138.2,354 
L141,354 
L143.9,354 
L146.7,354 
L149.5,354 
L152.4,354 
L155.2,354 
L158,354 
L160.9,354 
L163.7,354 
L166.6,354 
L169.4,354 
L172.2,354 
L175.1,354 
L177.9,354 
L180.7,354 
L183.6,354 
L186.4,354 
L189.3,354 
L192.1,354 
L194.9,354 
L197.8,354 
L200.6,354 
L203.4,354 
L206.3,354 
L209.1,354 
L211.9,354 
L214.8,354 
L217.6,354 
L220.5,354 
L223.3,354 
L226.1,354 
L229,354 
L231.8,354 
L234.6,354 
L237.5,354 
L240.3,354 
L243.2,354 
L246,354 
L248.8,354 
L251.7,354 
L254.5,354 
L257.3,354 
L260.2,354 
L263,354 
L265.9,354 
L268.7,354 
L271.5,354 
L274.4,354 
L277.2,354 
L280,354 
L282.9,354 
L285.7,354 
L288.5,354 
L291.4,354 
L294.2,354 
L297.1,354 
L299.9,339.9 
L302.7,325.7 
L305.6,311.6 
L308.4,297.5 
L311.2,283.3 
L314.1,269.2 
L316.9,255 
L319.8,240.9 
L322.6,226.8 
L325.4,212.6 
L328.3,198.5 
L331.1,184.4 
L333.9,170.2 
L336.8,156.1 
L339.6,142 
L342.5,127.8 
L345.3,113.7 
L348.1,99.55 
L351,85.41 
L353.8,71.27 
L356.6,85.41 
L359.5,99.55 
L362.3,113.7 
L365.1,127.8 
L368,142 
L370.8,156.1 
L373.7,170.2 
L376.5,184.4 
L379.3,198.5 
L382.2,212.6 
L385,226.8 
L387.8,240.9 
L390.7,255 
L393.5,269.2 
L396.4,283.3 
L399.2,297.5 
L402,311.6 
L404.9,325.7 
L407.7,339.9 
L410.5,354 
L413.4,354 
L416.2,354 
L419.1,354 
L421.9,354 
L424.7,354 
L427.6,354 
L430.4,354 
L433.2,354 
L436.1,354 
L438.9,354 
L441.7,354 
L444.6,354 
L447.4,354 
L450.3,354 
L453.1,354 
L455.9,354 
L458.8,354 
L461.6,354 
L464.4,354 
L467.3,354 
L470.1,354 
L473,354 
L475.8,354 
L478.6,354 
L481.5,354 
L484.3,354 
L487.1,354 
L490,354 
L492.8,354 
L495.6,354 
L498.5,354 
L501.3,354 
L504.2,354 
L507,354 
L509.8,354 
L512.7,354 
L515.5,354 
L518.3,354 
L521.2,354 
L524,354 
L526.9,354 
L529.7,354 
L532.5,354 
L535.4,354 
L538.2,354 
L541,354 
L543.9,354 
L546.7,354 
L549.6,354 
L552.4,354 
L555.2,354 
L558.1,354 
L560.9,354 
L563.7,354 
L566.6,354 
L569.4,354 
L572.2,354 
L575.1,354 
L577.9,354 
L580.8,354 
L583.6,354 
L586.4,354 
L589.3,354 
L592.1,354 
L594.9,354 
L597.8,354 
L600.6,354 
L603.5,354 
L606.3,354 
L609.1,354 
L612,354 
L614.8,354 
L617.6,354 
L620.5,354 
L623.3,354 
L626.2,354 
L629,354 
L631.8,354 
L634.7,354 
L637.5,354 
" fill="none"/>
</g>
	<g clip-path="url(#plot_window)" stroke="rgb(127,255,0)" stroke-width="1">
	<path d="M70.1,354 L70.1,354 
L72.94,353.3 
L75.77,352.6 
L78.61,351.9 
L81.45,351.2 
L84.28,350.5 
L87.12,349.8 
L89.96,349.1 
L92.8,348.3 
L95.63,347.6 
L98.47,346.9 
L101.3,346.2 
L104.1,345.5 
L107,344.8 
L109.8,344.1 
L112.7,343.4 
L115.5,342.7 
L118.3,342 
L121.2,341.3 
L124,340.6 
L126.8,339.9 
L129.7,339.2 
L132.5,338.5 
L135.4,337.7 
L138.2,337 
L141,336.3 
L143.9,335.6 
L146.7,334.9 
L149.5,334.2 
L152.4,333.5 
L155.2,332.8 
L158,332.1 
L160.9,331.4 
L163.7,330.7 
L166.6,330 
L169.4,329.3 
L172.2,328.6 
L175.1,327.8 
L177.9,327.1 
L180.7,326.4 
L183.6,325.7 
L186.4,325 
L189.3,324.3 
L192.1,323.6 
L194.9,322.9 
L197.8,322.2 
L200.6,321.5 
L203.4,320.8 
L206.3,320.1 
L209.1,319.4 
L211.9,318.7 
L214.8,318 
L217.6,317.2 
L220.5,316.5 
L223.3,315.8 
L226.1,315.1 
L229,314.4 
L231.8,313.7 
L234.6,313 
L237.5,312.3 
L240.3,311.6 
L243.2,310.9 
L246,310.2 
L248.8,309.5 
L251.7,308.8 
L254.5,308.1 
L257.3,307.4 
L260.2,306.6 
L263,305.9 
L265.9,305.2 
L268.7,304.5 
L271.5,303.8 
L274.4,303.1 
L277.2,302.4 
L280,301.7 
L282.9,301 
L285.7,300.3 
L288.5,299.6 
L291.4,298.9 
L294.2,298.2 
L297.1,297.5 
L299.9,297.9 
L302.7,298.4 
L305.6,298.9 
L308.4,299.3 
L311.2,299.8 
L314.1,300.3 
L316.9,300.8 
L319.8,301.2 
L322.6,301.7 
L325.4,302.2 
L328.3,302.6 
L331.1,303.1 
L333.9,303.6 
L336.8,304.1 
L339.6,304.5 
L342.5,305 
L345.3,305.5 
L348.1,305.9 
L351,306.4 
L353.8,306.9 
L356.6,307.3 
L359.5,307.8 
L362.3,308.3 
L365.1,308.8 
L368,309.2 
L370.8,309.7 
L373.7,310.2 
L376.5,310.6 
L379.3,311.1 
L382.2,311.6 
L385,312.1 
L387.8,312.5 
L390.7,313 
L393.5,313.5 
L396.4,313.9 
L399.2,314.4 
L402,314.9 
L404.9,315.4 
L407.7,315.8 
L410.5,316.3 
L413.4,316.8 
L416.2,317.2 
L419.1,317.7 
L421.9,318.2 
L424.7,318.7 
L427.6,319.1 
L430.4,319.6 
L433.2,320.1 
L436.1,320.5 
L438.9,321 
L441.7,321.5 
L444.6,322 
L447.4,322.4 
L450.3,322.9 
L453.1,323.4 
L455.9,323.8 
L458.8,324.3 
L461.6,324.8 
L464.4,325.3 
L467.3,325.7 
L470.1,326.2 
L473,326.7 
L475.8,327.1 
L478.6,327.6 
L481.5,328.1 
L484.3,328.6 
L487.1,329 
L490,329.5 
L492.8,330 
L495.6,330.4 
L498.5,330.9 
L501.3,331.4 
L504.2,331.9 
L507,332.3 
L509.8,332.8 
L512.7,333.3 
L515.5,333.7 
L518.3,334.2 
L521.2,334.7 
L524,335.2 
L526.9,335.6 
L529.7,336.1 
L532.5,336.6 
L535.4,337 
L538.2,337.5 
L541,338 
L543.9,338.4 
L546.7,338.9 
L549.6,339.4 
L552.4,339.9 
L555.2,340.3 
L558.1,340.8 
L560.9,341.3 
L563.7,341.7 
L566.6,342.2 
L569.4,342.7 
L572.2,343.2 
L575.1,343.6 
L577.9,344.1 
L580.8,344.6 
L583.6,345 
L586.4,345.5 
L589.3,346 
L592.1,346.5 
L594.9,346.9 
L597.8,347.4 
L600.6,347.9 
L603.5,348.3 
L606.3,348.8 
L609.1,349.3 
L612,349.8 
L614.8,350.2 
L617.6,350.7 
L620.5,351.2 
L623.3,351.6 
L626.2,352.1 
L629,352.6 
L631.8,353.1 
L634.7,353.5 
L637.5,354 
" fill="none"/>
</g>
</g>
	<g id="plotPoints" clip-path="url(#plot_window)">
</g>
	<g id="legendBackground" stroke="rgb(119,136,153)" fill="rgb(255,255,255)" stroke-width="1">
	<rect x="643.5" y="43" width="92.5" height="89.5"/>
</g>
	<g id="legendPoints">
</g>
	<g id="legendLines">
	<g stroke="rgb(0,0,139)" stroke-width="1">
	<line x1="658.8" y1="62.75" x2="664.8" y2="62.75"/>
</g>
	<g stroke="rgb(139,0,0)" stroke-width="1">
	<line x1="658.8" y1="75.25" x2="664.8" y2="75.25"/>
</g>
	<g stroke="rgb(0,100,0)" stroke-width="1">
	<line x1="658.8" y1="87.75" x2="664.8" y2="87.75"/>
</g>
	<g stroke="rgb(255,140,0)" stroke-width="1">
	<line x1="658.8" y1="100.3" x2="664.8" y2="100.3"/>
</g>
	<g stroke="rgb(127,255,0)" stroke-width="1">
	<line x1="658.8" y1="112.8" x2="664.8" y2="112.8"/>
</g>
</g>
	<g id="legendText">
	<text x="673.8" y="62.75" font-size="10" font-family="Lucida Sans Unicode" font-weight="normal" textLength="48">{-1,0,1}
	</text>
	<text x="673.8" y="75.25" font-size="10" font-family="Lucida Sans Unicode" font-weight="normal" textLength="42">{0,1,1}
	</text>
	<text x="673.8" y="87.75" font-size="10" font-family="Lucida Sans Unicode" font-weight="normal" textLength="42">{0,1,3}
	</text>
	<text x="673.8" y="100.3" font-size="10" font-family="Lucida Sans Unicode" font-weight="normal" textLength="54">{0,0.5,1}
	</text>
	<text x="673.8" y="112.8" font-size="10" font-family="Lucida Sans Unicode" font-weight="normal" textLength="48">{-2,0,3}
	</text>
</g>
	<g id="title">
	<text x="375" y="30" text-anchor="middle" font-size="20" font-family="Lucida Sans Unicode" font-weight="normal">Triangular Distribution PDF
	</text>
</g>
	<g id="plotXValues">
</g>
	<g id="plotYValues">
</g>
</svg>
