<?xml version="1.0" encoding="UTF-8" standalone="no"?>
<svg width="750" height ="400" version="1.1"
xmlns:svg ="http://www.w3.org/2000/svg"
xmlns:rdf="http://www.w3.org/1999/02/22-rdf-syntax-ns#"
xmlns:cc="http://web.resource.org/cc/"
xmlns:dc="http://purl.org/dc/elements/1.1/"
xmlns ="http://www.w3.org/2000/svg"
>
<!-- SVG plot written using Boost.Plot program (Creator Jacob Voytko) --> 
<!-- Use, modification and distribution of Boost.Plot subject to the --> 
<!-- Boost Software License, Version 1.0.--> 
<!-- (See accompanying file LICENSE_1_0.txt --> 
<!-- or copy at http://www.boost.org/LICENSE_1_0.txt) --> 

<!-- SVG Plot Copyright John Maddock 2008 --> 
<meta name="copyright" content="John Maddock" />
<meta name="date" content="2008" />
<!-- Use, modification and distribution of this Scalable Vector Graphic file -->
<!-- are subject to the Boost Software License, Version 1.0. -->
<!-- (See accompanying file LICENSE_1_0.txt or copy at http://www.boost.org/LICENSE_1_0.txt) -->

<clipPath id="plot_window">	<rect x="71.1" y="44" width="565.4" height="309"/>
</clipPath>
	<g id="imageBackground" stroke="rgb(119,136,153)" fill="rgb(255,255,255)" stroke-width="2">
	<rect x="0" y="0" width="750" height="400"/>
</g>
	<g id="plotBackground" stroke="rgb(119,136,153)" fill="rgb(255,255,255)" stroke-width="2">
	<rect x="70.1" y="43" width="567.4" height="311"/>
</g>
	<g id="yMinorGrid" stroke="rgb(200,220,255)" stroke-width="0.5">
</g>
	<g id="yMajorGrid" stroke="rgb(200,220,255)" stroke-width="1">
</g>
	<g id="xMinorGrid" stroke="rgb(200,220,255)" stroke-width="0.5">
</g>
	<g id="xMajorGrid" stroke="rgb(200,220,255)" stroke-width="1">
</g>
	<g id="yAxis" stroke="rgb(0,0,0)" stroke-width="1">
	<line x1="297.1" y1="43" x2="297.1" y2="359"/>
	<line x1="70.1" y1="43" x2="70.1" y2="354"/>
</g>
	<g id="xAxis" stroke="rgb(0,0,0)" stroke-width="1">
	<line x1="65.1" y1="354" x2="637.5" y2="354"/>
	<line x1="65.1" y1="354" x2="637.5" y2="354"/>
</g>
	<g id="yMinorTicks" stroke="rgb(0,0,0)" stroke-width="1">
	<path d="M68.1,348.3 L70.1,348.3 
M68.1,342.7 L70.1,342.7 
M68.1,337 L70.1,337 
M68.1,331.4 L70.1,331.4 
M68.1,320.1 L70.1,320.1 
M68.1,314.4 L70.1,314.4 
M68.1,308.8 L70.1,308.8 
M68.1,303.1 L70.1,303.1 
M68.1,291.8 L70.1,291.8 
M68.1,286.1 L70.1,286.1 
M68.1,280.5 L70.1,280.5 
M68.1,274.8 L70.1,274.8 
M68.1,263.5 L70.1,263.5 
M68.1,257.9 L70.1,257.9 
M68.1,252.2 L70.1,252.2 
M68.1,246.6 L70.1,246.6 
M68.1,235.3 L70.1,235.3 
M68.1,229.6 L70.1,229.6 
M68.1,223.9 L70.1,223.9 
M68.1,218.3 L70.1,218.3 
M68.1,207 L70.1,207 
M68.1,201.3 L70.1,201.3 
M68.1,195.7 L70.1,195.7 
M68.1,190 L70.1,190 
M68.1,178.7 L70.1,178.7 
M68.1,173.1 L70.1,173.1 
M68.1,167.4 L70.1,167.4 
M68.1,161.7 L70.1,161.7 
M68.1,150.4 L70.1,150.4 
M68.1,144.8 L70.1,144.8 
M68.1,139.1 L70.1,139.1 
M68.1,133.5 L70.1,133.5 
M68.1,122.2 L70.1,122.2 
M68.1,116.5 L70.1,116.5 
M68.1,110.9 L70.1,110.9 
M68.1,105.2 L70.1,105.2 
M68.1,93.89 L70.1,93.89 
M68.1,88.24 L70.1,88.24 
M68.1,82.58 L70.1,82.58 
M68.1,76.93 L70.1,76.93 
M68.1,65.62 L70.1,65.62 
M68.1,59.96 L70.1,59.96 
M68.1,54.31 L70.1,54.31 
M68.1,48.65 L70.1,48.65 
M68.1,354 L70.1,354 
" fill="none"/>
</g>
	<g id="xMinorTicks" stroke="rgb(0,0,0)" stroke-width="1">
	<path d="M319.8,354 L319.8,356 
M342.5,354 L342.5,356 
M365.1,354 L365.1,356 
M387.8,354 L387.8,356 
M433.2,354 L433.2,356 
M455.9,354 L455.9,356 
M478.6,354 L478.6,356 
M501.3,354 L501.3,356 
M546.7,354 L546.7,356 
M569.4,354 L569.4,356 
M592.1,354 L592.1,356 
M614.8,354 L614.8,356 
M274.4,354 L274.4,356 
M251.7,354 L251.7,356 
M229,354 L229,356 
M206.3,354 L206.3,356 
M160.9,354 L160.9,356 
M138.2,354 L138.2,356 
M115.5,354 L115.5,356 
M92.8,354 L92.8,356 
" fill="none"/>
</g>
	<g id="yMajorTicks" stroke="rgb(0,0,0)" stroke-width="2">
	<path d="M65.1,354 L70.1,354 
M65.1,325.7 L70.1,325.7 
M65.1,297.5 L70.1,297.5 
M65.1,269.2 L70.1,269.2 
M65.1,240.9 L70.1,240.9 
M65.1,212.6 L70.1,212.6 
M65.1,184.4 L70.1,184.4 
M65.1,156.1 L70.1,156.1 
M65.1,127.8 L70.1,127.8 
M65.1,99.55 L70.1,99.55 
M65.1,71.27 L70.1,71.27 
M65.1,43 L70.1,43 
M65.1,354 L70.1,354 
" fill="none"/>
</g>
	<g id="xMajorTicks" stroke="rgb(0,0,0)" stroke-width="2">
	<path d="M297.1,354 L297.1,359 
M410.5,354 L410.5,359 
M524,354 L524,359 
M637.5,354 L637.5,359 
M297.1,354 L297.1,359 
M183.6,354 L183.6,359 
M70.1,354 L70.1,359 
" fill="none"/>
</g>
	<g id="xTicksValues" font-size="12" font-family="Lucida Sans Unicode" text-anchor="middle">
	<text x="297.1" y="374.6">0
	</text>
	<text x="410.5" y="374.6">1
	</text>
	<text x="524" y="374.6">2
	</text>
	<text x="637.5" y="374.6">3
	</text>
	<text x="297.1" y="374.6">0
	</text>
	<text x="183.6" y="374.6">-1
	</text>
	<text x="70.1" y="374.6">-2
	</text>
</g>
	<g id="yTicksValues" font-size="12" font-family="Lucida Sans Unicode" text-anchor="end">
	<text x="59.1" y="356.4">0
	</text>
	<text x="59.1" y="328.1">0.1
	</text>
	<text x="59.1" y="299.9">0.2
	</text>
	<text x="59.1" y="271.6">0.3
	</text>
	<text x="59.1" y="243.3">0.4
	</text>
	<text x="59.1" y="215">0.5
	</text>
	<text x="59.1" y="186.8">0.6
	</text>
	<text x="59.1" y="158.5">0.7
	</text>
	<text x="59.1" y="130.2">0.8
	</text>
	<text x="59.1" y="101.9">0.9
	</text>
	<text x="59.1" y="73.67">1
	</text>
	<text x="59.1" y="45.4">1.1
	</text>
	<text x="59.1" y="356.4">0
	</text>
</g>
	<g id="yLabel">
	<text x="32.4" y="198.5" text-anchor="middle" transform="rotate(-90 32.4 198.5)" font-size="14" font-family="Lucida Sans Unicode">Probability
	</text>
</g>
	<g id="xLabel">
	<text x="353.8" y="387.1" text-anchor="middle" font-size="12" font-family="Lucida Sans Unicode">Random Variable
	</text>
</g>
	<g id="plotLines" stroke-width="2">
	<g clip-path="url(#plot_window)" stroke="rgb(0,0,139)" stroke-width="1">
	<path d="M70.1,354 L70.1,354 
L72.94,354 
L75.77,354 
L78.61,354 
L81.45,354 
L84.28,354 
L87.12,354 
L89.96,354 
L92.8,354 
L95.63,354 
L98.47,354 
L101.3,354 
L104.1,354 
L107,354 
L109.8,354 
L112.7,354 
L115.5,354 
L118.3,354 
L121.2,354 
L124,354 
L126.8,354 
L129.7,354 
L132.5,354 
L135.4,354 
L138.2,354 
L141,354 
L143.9,354 
L146.7,354 
L149.5,354 
L152.4,354 
L155.2,354 
L158,354 
L160.9,354 
L163.7,354 
L166.6,354 
L169.4,354 
L172.2,354 
L175.1,354 
L177.9,354 
L180.7,354 
L183.6,354 
L186.4,353.9 
L189.3,353.6 
L192.1,353.2 
L194.9,352.6 
L197.8,351.8 
L200.6,350.8 
L203.4,349.7 
L206.3,348.3 
L209.1,346.8 
L211.9,345.2 
L214.8,343.3 
L217.6,341.3 
L220.5,339.1 
L223.3,336.7 
L226.1,334.1 
L229,331.4 
L231.8,328.5 
L234.6,325.4 
L237.5,322.1 
L240.3,318.7 
L243.2,315 
L246,311.2 
L248.8,307.3 
L251.7,303.1 
L254.5,298.8 
L257.3,294.3 
L260.2,289.6 
L263,284.7 
L265.9,279.7 
L268.7,274.5 
L271.5,269.1 
L274.4,263.5 
L277.2,257.8 
L280,251.9 
L282.9,245.8 
L285.7,239.5 
L288.5,233 
L291.4,226.4 
L294.2,219.6 
L297.1,212.6 
L299.9,205.7 
L302.7,198.9 
L305.6,192.2 
L308.4,185.8 
L311.2,179.5 
L314.1,173.4 
L316.9,167.5 
L319.8,161.7 
L322.6,156.2 
L325.4,150.8 
L328.3,145.6 
L331.1,140.5 
L333.9,135.7 
L336.8,131 
L339.6,126.5 
L342.5,122.2 
L345.3,118 
L348.1,114 
L351,110.2 
L353.8,106.6 
L356.6,103.2 
L359.5,99.9 
L362.3,96.81 
L365.1,93.89 
L368,91.15 
L370.8,88.59 
L373.7,86.2 
L376.5,84 
L379.3,81.96 
L382.2,80.11 
L385,78.43 
L387.8,76.93 
L390.7,75.6 
L393.5,74.45 
L396.4,73.48 
L399.2,72.69 
L402,72.07 
L404.9,71.63 
L407.7,71.36 
L410.5,71.27 
L413.4,71.27 
L416.2,71.27 
L419.1,71.27 
L421.9,71.27 
L424.7,71.27 
L427.6,71.27 
L430.4,71.27 
L433.2,71.27 
L436.1,71.27 
L438.9,71.27 
L441.7,71.27 
L444.6,71.27 
L447.4,71.27 
L450.3,71.27 
L453.1,71.27 
L455.9,71.27 
L458.8,71.27 
L461.6,71.27 
L464.4,71.27 
L467.3,71.27 
L470.1,71.27 
L473,71.27 
L475.8,71.27 
L478.6,71.27 
L481.5,71.27 
L484.3,71.27 
L487.1,71.27 
L490,71.27 
L492.8,71.27 
L495.6,71.27 
L498.5,71.27 
L501.3,71.27 
L504.2,71.27 
L507,71.27 
L509.8,71.27 
L512.7,71.27 
L515.5,71.27 
L518.3,71.27 
L521.2,71.27 
L524,71.27 
L526.9,71.27 
L529.7,71.27 
L532.5,71.27 
L535.4,71.27 
L538.2,71.27 
L541,71.27 
L543.9,71.27 
L546.7,71.27 
L549.6,71.27 
L552.4,71.27 
L555.2,71.27 
L558.1,71.27 
L560.9,71.27 
L563.7,71.27 
L566.6,71.27 
L569.4,71.27 
L572.2,71.27 
L575.1,71.27 
L577.9,71.27 
L580.8,71.27 
L583.6,71.27 
L586.4,71.27 
L589.3,71.27 
L592.1,71.27 
L594.9,71.27 
L597.8,71.27 
L600.6,71.27 
L603.5,71.27 
L606.3,71.27 
L609.1,71.27 
L612,71.27 
L614.8,71.27 
L617.6,71.27 
L620.5,71.27 
L623.3,71.27 
L626.2,71.27 
L629,71.27 
L631.8,71.27 
L634.7,71.27 
L637.5,71.27 
" fill="none"/>
</g>
	<g clip-path="url(#plot_window)" stroke="rgb(139,0,0)" stroke-width="1">
	<path d="M70.1,354 L70.1,354 
L72.94,354 
L75.77,354 
L78.61,354 
L81.45,354 
L84.28,354 
L87.12,354 
L89.96,354 
L92.8,354 
L95.63,354 
L98.47,354 
L101.3,354 
L104.1,354 
L107,354 
L109.8,354 
L112.7,354 
L115.5,354 
L118.3,354 
L121.2,354 
L124,354 
L126.8,354 
L129.7,354 
L132.5,354 
L135.4,354 
L138.2,354 
L141,354 
L143.9,354 
L146.7,354 
L149.5,354 
L152.4,354 
L155.2,354 
L158,354 
L160.9,354 
L163.7,354 
L166.6,354 
L169.4,354 
L172.2,354 
L175.1,354 
L177.9,354 
L180.7,354 
L183.6,354 
L186.4,354 
L189.3,354 
L192.1,354 
L194.9,354 
L197.8,354 
L200.6,354 
L203.4,354 
L206.3,354 
L209.1,354 
L211.9,354 
L214.8,354 
L217.6,354 
L220.5,354 
L223.3,354 
L226.1,354 
L229,354 
L231.8,354 
L234.6,354 
L237.5,354 
L240.3,354 
L243.2,354 
L246,354 
L248.8,354 
L251.7,354 
L254.5,354 
L257.3,354 
L260.2,354 
L263,354 
L265.9,354 
L268.7,354 
L271.5,354 
L274.4,354 
L277.2,354 
L280,354 
L282.9,354 
L285.7,354 
L288.5,354 
L291.4,354 
L294.2,354 
L297.1,354 
L299.9,353.8 
L302.7,353.3 
L305.6,352.4 
L308.4,351.2 
L311.2,349.6 
L314.1,347.6 
L316.9,345.3 
L319.8,342.7 
L322.6,339.7 
L325.4,336.3 
L328.3,332.6 
L331.1,328.6 
L333.9,324.1 
L336.8,319.4 
L339.6,314.2 
L342.5,308.8 
L345.3,302.9 
L348.1,296.7 
L351,290.2 
L353.8,283.3 
L356.6,276.1 
L359.5,268.5 
L362.3,260.5 
L365.1,252.2 
L368,243.6 
L370.8,234.5 
L373.7,225.2 
L376.5,215.5 
L379.3,205.4 
L382.2,195 
L385,184.2 
L387.8,173.1 
L390.7,161.6 
L393.5,149.7 
L396.4,137.5 
L399.2,125 
L402,112.1 
L404.9,98.84 
L407.7,85.23 
L410.5,71.27 
L413.4,71.27 
L416.2,71.27 
L419.1,71.27 
L421.9,71.27 
L424.7,71.27 
L427.6,71.27 
L430.4,71.27 
L433.2,71.27 
L436.1,71.27 
L438.9,71.27 
L441.7,71.27 
L444.6,71.27 
L447.4,71.27 
L450.3,71.27 
L453.1,71.27 
L455.9,71.27 
L458.8,71.27 
L461.6,71.27 
L464.4,71.27 
L467.3,71.27 
L470.1,71.27 
L473,71.27 
L475.8,71.27 
L478.6,71.27 
L481.5,71.27 
L484.3,71.27 
L487.1,71.27 
L490,71.27 
L492.8,71.27 
L495.6,71.27 
L498.5,71.27 
L501.3,71.27 
L504.2,71.27 
L507,71.27 
L509.8,71.27 
L512.7,71.27 
L515.5,71.27 
L518.3,71.27 
L521.2,71.27 
L524,71.27 
L526.9,71.27 
L529.7,71.27 
L532.5,71.27 
L535.4,71.27 
L538.2,71.27 
L541,71.27 
L543.9,71.27 
L546.7,71.27 
L549.6,71.27 
L552.4,71.27 
L555.2,71.27 
L558.1,71.27 
L560.9,71.27 
L563.7,71.27 
L566.6,71.27 
L569.4,71.27 
L572.2,71.27 
L575.1,71.27 
L577.9,71.27 
L580.8,71.27 
L583.6,71.27 
L586.4,71.27 
L589.3,71.27 
L592.1,71.27 
L594.9,71.27 
L597.8,71.27 
L600.6,71.27 
L603.5,71.27 
L606.3,71.27 
L609.1,71.27 
L612,71.27 
L614.8,71.27 
L617.6,71.27 
L620.5,71.27 
L623.3,71.27 
L626.2,71.27 
L629,71.27 
L631.8,71.27 
L634.7,71.27 
L637.5,71.27 
" fill="none"/>
</g>
	<g clip-path="url(#plot_window)" stroke="rgb(0,100,0)" stroke-width="1">
	<path d="M70.1,354 L70.1,354 
L72.94,354 
L75.77,354 
L78.61,354 
L81.45,354 
L84.28,354 
L87.12,354 
L89.96,354 
L92.8,354 
L95.63,354 
L98.47,354 
L101.3,354 
L104.1,354 
L107,354 
L109.8,354 
L112.7,354 
L115.5,354 
L118.3,354 
L121.2,354 
L124,354 
L126.8,354 
L129.7,354 
L132.5,354 
L135.4,354 
L138.2,354 
L141,354 
L143.9,354 
L146.7,354 
L149.5,354 
L152.4,354 
L155.2,354 
L158,354 
L160.9,354 
L163.7,354 
L166.6,354 
L169.4,354 
L172.2,354 
L175.1,354 
L177.9,354 
L180.7,354 
L183.6,354 
L186.4,354 
L189.3,354 
L192.1,354 
L194.9,354 
L197.8,354 
L200.6,354 
L203.4,354 
L206.3,354 
L209.1,354 
L211.9,354 
L214.8,354 
L217.6,354 
L220.5,354 
L223.3,354 
L226.1,354 
L229,354 
L231.8,354 
L234.6,354 
L237.5,354 
L240.3,354 
L243.2,354 
L246,354 
L248.8,354 
L251.7,354 
L254.5,354 
L257.3,354 
L260.2,354 
L263,354 
L265.9,354 
L268.7,354 
L271.5,354 
L274.4,354 
L277.2,354 
L280,354 
L282.9,354 
L285.7,354 
L288.5,354 
L291.4,354 
L294.2,354 
L297.1,354 
L299.9,353.9 
L302.7,353.8 
L305.6,353.5 
L308.4,353.1 
L311.2,352.5 
L314.1,351.9 
L316.9,351.1 
L319.8,350.2 
L322.6,349.2 
L325.4,348.1 
L328.3,346.9 
L331.1,345.5 
L333.9,344 
L336.8,342.5 
L339.6,340.7 
L342.5,338.9 
L345.3,337 
L348.1,334.9 
L351,332.7 
L353.8,330.4 
L356.6,328 
L359.5,325.5 
L362.3,322.8 
L365.1,320.1 
L368,317.2 
L370.8,314.2 
L373.7,311.1 
L376.5,307.8 
L379.3,304.5 
L382.2,301 
L385,297.4 
L387.8,293.7 
L390.7,289.9 
L393.5,285.9 
L396.4,281.8 
L399.2,277.7 
L402,273.4 
L404.9,268.9 
L407.7,264.4 
L410.5,259.8 
L413.4,255.1 
L416.2,250.5 
L419.1,245.9 
L421.9,241.4 
L424.7,236.9 
L427.6,232.5 
L430.4,228.2 
L433.2,223.9 
L436.1,219.7 
L438.9,215.6 
L441.7,211.5 
L444.6,207.5 
L447.4,203.5 
L450.3,199.6 
L453.1,195.7 
L455.9,191.9 
L458.8,188.2 
L461.6,184.5 
L464.4,180.9 
L467.3,177.3 
L470.1,173.8 
L473,170.3 
L475.8,167 
L478.6,163.6 
L481.5,160.4 
L484.3,157.2 
L487.1,154 
L490,150.9 
L492.8,147.9 
L495.6,144.9 
L498.5,142 
L501.3,139.1 
L504.2,136.3 
L507,133.6 
L509.8,130.9 
L512.7,128.3 
L515.5,125.7 
L518.3,123.2 
L521.2,120.8 
L524,118.4 
L526.9,116.1 
L529.7,113.8 
L532.5,111.6 
L535.4,109.4 
L538.2,107.3 
L541,105.3 
L543.9,103.3 
L546.7,101.4 
L549.6,99.57 
L552.4,97.78 
L555.2,96.04 
L558.1,94.36 
L560.9,92.74 
L563.7,91.18 
L566.6,89.68 
L569.4,88.24 
L572.2,86.85 
L575.1,85.53 
L577.9,84.26 
L580.8,83.05 
L583.6,81.9 
L586.4,80.81 
L589.3,79.78 
L592.1,78.81 
L594.9,77.9 
L597.8,77.05 
L600.6,76.25 
L603.5,75.51 
L606.3,74.84 
L609.1,74.22 
L612,73.66 
L614.8,73.16 
L617.6,72.72 
L620.5,72.33 
L623.3,72.01 
L626.2,71.74 
L629,71.54 
L631.8,71.39 
L634.7,71.3 
L637.5,71.27 
" fill="none"/>
</g>
	<g clip-path="url(#plot_window)" stroke="rgb(255,140,0)" stroke-width="1">
	<path d="M70.1,354 L70.1,354 
L72.94,354 
L75.77,354 
L78.61,354 
L81.45,354 
L84.28,354 
L87.12,354 
L89.96,354 
L92.8,354 
L95.63,354 
L98.47,354 
L101.3,354 
L104.1,354 
L107,354 
L109.8,354 
L112.7,354 
L115.5,354 
L118.3,354 
L121.2,354 
L124,354 
L126.8,354 
L129.7,354 
L132.5,354 
L135.4,354 
L138.2,354 
L141,354 
L143.9,354 
L146.7,354 
L149.5,354 
L152.4,354 
L155.2,354 
L158,354 
L160.9,354 
L163.7,354 
L166.6,354 
L169.4,354 
L172.2,354 
L175.1,354 
L177.9,354 
L180.7,354 
L183.6,354 
L186.4,354 
L189.3,354 
L192.1,354 
L194.9,354 
L197.8,354 
L200.6,354 
L203.4,354 
L206.3,354 
L209.1,354 
L211.9,354 
L214.8,354 
L217.6,354 
L220.5,354 
L223.3,354 
L226.1,354 
L229,354 
L231.8,354 
L234.6,354 
L237.5,354 
L240.3,354 
L243.2,354 
L246,354 
L248.8,354 
L251.7,354 
L254.5,354 
L257.3,354 
L260.2,354 
L263,354 
L265.9,354 
L268.7,354 
L271.5,354 
L274.4,354 
L277.2,354 
L280,354 
L282.9,354 
L285.7,354 
L288.5,354 
L291.4,354 
L294.2,354 
L297.1,354 
L299.9,353.6 
L302.7,352.6 
L305.6,350.8 
L308.4,348.3 
L311.2,345.2 
L314.1,341.3 
L316.9,336.7 
L319.8,331.4 
L322.6,325.4 
L325.4,318.7 
L328.3,311.2 
L331.1,303.1 
L333.9,294.3 
L336.8,284.7 
L339.6,274.5 
L342.5,263.5 
L345.3,251.9 
L348.1,239.5 
L351,226.4 
L353.8,212.6 
L356.6,198.9 
L359.5,185.8 
L362.3,173.4 
L365.1,161.7 
L368,150.8 
L370.8,140.5 
L373.7,131 
L376.5,122.2 
L379.3,114 
L382.2,106.6 
L385,99.9 
L387.8,93.89 
L390.7,88.59 
L393.5,84 
L396.4,80.11 
L399.2,76.93 
L402,74.45 
L404.9,72.69 
L407.7,71.63 
L410.5,71.27 
L413.4,71.27 
L416.2,71.27 
L419.1,71.27 
L421.9,71.27 
L424.7,71.27 
L427.6,71.27 
L430.4,71.27 
L433.2,71.27 
L436.1,71.27 
L438.9,71.27 
L441.7,71.27 
L444.6,71.27 
L447.4,71.27 
L450.3,71.27 
L453.1,71.27 
L455.9,71.27 
L458.8,71.27 
L461.6,71.27 
L464.4,71.27 
L467.3,71.27 
L470.1,71.27 
L473,71.27 
L475.8,71.27 
L478.6,71.27 
L481.5,71.27 
L484.3,71.27 
L487.1,71.27 
L490,71.27 
L492.8,71.27 
L495.6,71.27 
L498.5,71.27 
L501.3,71.27 
L504.2,71.27 
L507,71.27 
L509.8,71.27 
L512.7,71.27 
L515.5,71.27 
L518.3,71.27 
L521.2,71.27 
L524,71.27 
L526.9,71.27 
L529.7,71.27 
L532.5,71.27 
L535.4,71.27 
L538.2,71.27 
L541,71.27 
L543.9,71.27 
L546.7,71.27 
L549.6,71.27 
L552.4,71.27 
L555.2,71.27 
L558.1,71.27 
L560.9,71.27 
L563.7,71.27 
L566.6,71.27 
L569.4,71.27 
L572.2,71.27 
L575.1,71.27 
L577.9,71.27 
L580.8,71.27 
L583.6,71.27 
L586.4,71.27 
L589.3,71.27 
L592.1,71.27 
L594.9,71.27 
L597.8,71.27 
L600.6,71.27 
L603.5,71.27 
L606.3,71.27 
L609.1,71.27 
L612,71.27 
L614.8,71.27 
L617.6,71.27 
L620.5,71.27 
L623.3,71.27 
L626.2,71.27 
L629,71.27 
L631.8,71.27 
L634.7,71.27 
L637.5,71.27 
" fill="none"/>
</g>
	<g clip-path="url(#plot_window)" stroke="rgb(127,255,0)" stroke-width="1">
	<path d="M70.1,354 L70.1,354 
L72.94,354 
L75.77,353.9 
L78.61,353.8 
L81.45,353.7 
L84.28,353.6 
L87.12,353.4 
L89.96,353.1 
L92.8,352.9 
L95.63,352.6 
L98.47,352.2 
L101.3,351.9 
L104.1,351.5 
L107,351 
L109.8,350.5 
L112.7,350 
L115.5,349.5 
L118.3,348.9 
L121.2,348.3 
L124,347.6 
L126.8,346.9 
L129.7,346.2 
L132.5,345.4 
L135.4,344.7 
L138.2,343.8 
L141,343 
L143.9,342.1 
L146.7,341.1 
L149.5,340.1 
L152.4,339.1 
L155.2,338.1 
L158,337 
L160.9,335.9 
L163.7,334.8 
L166.6,333.6 
L169.4,332.4 
L172.2,331.1 
L175.1,329.8 
L177.9,328.5 
L180.7,327.1 
L183.6,325.7 
L186.4,324.3 
L189.3,322.8 
L192.1,321.3 
L194.9,319.8 
L197.8,318.2 
L200.6,316.6 
L203.4,315 
L206.3,313.3 
L209.1,311.6 
L211.9,309.8 
L214.8,308 
L217.6,306.2 
L220.5,304.4 
L223.3,302.5 
L226.1,300.5 
L229,298.6 
L231.8,296.6 
L234.6,294.6 
L237.5,292.5 
L240.3,290.4 
L243.2,288.2 
L246,286.1 
L248.8,283.9 
L251.7,281.6 
L254.5,279.3 
L257.3,277 
L260.2,274.7 
L263,272.3 
L265.9,269.9 
L268.7,267.4 
L271.5,264.9 
L274.4,262.4 
L277.2,259.8 
L280,257.2 
L282.9,254.6 
L285.7,251.9 
L288.5,249.2 
L291.4,246.5 
L294.2,243.7 
L297.1,240.9 
L299.9,238.1 
L302.7,235.3 
L305.6,232.5 
L308.4,229.8 
L311.2,227.1 
L314.1,224.4 
L316.9,221.7 
L319.8,219 
L322.6,216.4 
L325.4,213.8 
L328.3,211.2 
L331.1,208.7 
L333.9,206.1 
L336.8,203.6 
L339.6,201.2 
L342.5,198.7 
L345.3,196.2 
L348.1,193.8 
L351,191.4 
L353.8,189.1 
L356.6,186.7 
L359.5,184.4 
L362.3,182.1 
L365.1,179.8 
L368,177.6 
L370.8,175.4 
L373.7,173.2 
L376.5,171 
L379.3,168.8 
L382.2,166.7 
L385,164.6 
L387.8,162.5 
L390.7,160.4 
L393.5,158.4 
L396.4,156.4 
L399.2,154.4 
L402,152.4 
L404.9,150.5 
L407.7,148.6 
L410.5,146.7 
L413.4,144.8 
L416.2,142.9 
L419.1,141.1 
L421.9,139.3 
L424.7,137.5 
L427.6,135.8 
L430.4,134 
L433.2,132.3 
L436.1,130.7 
L438.9,129 
L441.7,127.4 
L444.6,125.7 
L447.4,124.2 
L450.3,122.6 
L453.1,121 
L455.9,119.5 
L458.8,118 
L461.6,116.6 
L464.4,115.1 
L467.3,113.7 
L470.1,112.3 
L473,110.9 
L475.8,109.5 
L478.6,108.2 
L481.5,106.9 
L484.3,105.6 
L487.1,104.4 
L490,103.1 
L492.8,101.9 
L495.6,100.7 
L498.5,99.56 
L501.3,98.41 
L504.2,97.3 
L507,96.2 
L509.8,95.13 
L512.7,94.08 
L515.5,93.05 
L518.3,92.05 
L521.2,91.08 
L524,90.12 
L526.9,89.19 
L529.7,88.28 
L532.5,87.4 
L535.4,86.54 
L538.2,85.7 
L541,84.89 
L543.9,84.1 
L546.7,83.34 
L549.6,82.59 
L552.4,81.88 
L555.2,81.18 
L558.1,80.51 
L560.9,79.86 
L563.7,79.24 
L566.6,78.64 
L569.4,78.06 
L572.2,77.5 
L575.1,76.97 
L577.9,76.47 
L580.8,75.98 
L583.6,75.53 
L586.4,75.09 
L589.3,74.68 
L592.1,74.29 
L594.9,73.92 
L597.8,73.58 
L600.6,73.26 
L603.5,72.97 
L606.3,72.7 
L609.1,72.45 
L612,72.23 
L614.8,72.03 
L617.6,71.85 
L620.5,71.7 
L623.3,71.57 
L626.2,71.46 
L629,71.38 
L631.8,71.32 
L634.7,71.28 
L637.5,71.27 
" fill="none"/>
</g>
</g>
	<g id="plotPoints" clip-path="url(#plot_window)">
</g>
	<g id="legendBackground" stroke="rgb(119,136,153)" fill="rgb(255,255,255)" stroke-width="1">
	<rect x="643.5" y="43" width="92.5" height="89.5"/>
</g>
	<g id="legendPoints">
</g>
	<g id="legendLines">
	<g stroke="rgb(0,0,139)" stroke-width="1">
	<line x1="658.8" y1="62.75" x2="664.8" y2="62.75"/>
</g>
	<g stroke="rgb(139,0,0)" stroke-width="1">
	<line x1="658.8" y1="75.25" x2="664.8" y2="75.25"/>
</g>
	<g stroke="rgb(0,100,0)" stroke-width="1">
	<line x1="658.8" y1="87.75" x2="664.8" y2="87.75"/>
</g>
	<g stroke="rgb(255,140,0)" stroke-width="1">
	<line x1="658.8" y1="100.3" x2="664.8" y2="100.3"/>
</g>
	<g stroke="rgb(127,255,0)" stroke-width="1">
	<line x1="658.8" y1="112.8" x2="664.8" y2="112.8"/>
</g>
</g>
	<g id="legendText">
	<text x="673.8" y="62.75" font-size="10" font-family="Lucida Sans Unicode" font-weight="normal" textLength="48">{-1,0,1}
	</text>
	<text x="673.8" y="75.25" font-size="10" font-family="Lucida Sans Unicode" font-weight="normal" textLength="42">{0,1,1}
	</text>
	<text x="673.8" y="87.75" font-size="10" font-family="Lucida Sans Unicode" font-weight="normal" textLength="42">{0,1,3}
	</text>
	<text x="673.8" y="100.3" font-size="10" font-family="Lucida Sans Unicode" font-weight="normal" textLength="54">{0,0.5,1}
	</text>
	<text x="673.8" y="112.8" font-size="10" font-family="Lucida Sans Unicode" font-weight="normal" textLength="48">{-2,0,3}
	</text>
</g>
	<g id="title">
	<text x="375" y="30" text-anchor="middle" font-size="20" font-family="Lucida Sans Unicode" font-weight="normal">Triangular Distribution CDF
	</text>
</g>
	<g id="plotXValues">
</g>
	<g id="plotYValues">
</g>
</svg>
