<?xml version="1.0" encoding="UTF-8" standalone="no"?>
<svg width="750" height ="400" version="1.1"
xmlns:svg ="http://www.w3.org/2000/svg"
xmlns:rdf="http://www.w3.org/1999/02/22-rdf-syntax-ns#"
xmlns:cc="http://web.resource.org/cc/"
xmlns:dc="http://purl.org/dc/elements/1.1/"
xmlns ="http://www.w3.org/2000/svg"
>
<!-- SVG plot written using Boost.Plot program (Creator Jacob Voytko) --> 
<!-- Use, modification and distribution of Boost.Plot subject to the --> 
<!-- Boost Software License, Version 1.0.--> 
<!-- (See accompanying file LICENSE_1_0.txt --> 
<!-- or copy at http://www.boost.org/LICENSE_1_0.txt) --> 

<!-- SVG Plot Copyright John Maddock 2008 --> 
<meta name="copyright" content="John Maddock" />
<meta name="date" content="2008" />
<!-- Use, modification and distribution of this Scalable Vector Graphic file -->
<!-- are subject to the Boost Software License, Version 1.0. -->
<!-- (See accompanying file LICENSE_1_0.txt or copy at http://www.boost.org/LICENSE_1_0.txt) -->

<clipPath id="plot_window">	<rect x="71.1" y="44" width="583.4" height="309"/>
</clipPath>
	<g id="imageBackground" stroke="rgb(119,136,153)" fill="rgb(255,255,255)" stroke-width="2">
	<rect x="0" y="0" width="750" height="400"/>
</g>
	<g id="plotBackground" stroke="rgb(119,136,153)" fill="rgb(255,255,255)" stroke-width="2">
	<rect x="70.1" y="43" width="585.4" height="311"/>
</g>
	<g id="yMinorGrid" stroke="rgb(200,220,255)" stroke-width="0.5">
</g>
	<g id="yMajorGrid" stroke="rgb(200,220,255)" stroke-width="1">
</g>
	<g id="xMinorGrid" stroke="rgb(200,220,255)" stroke-width="0.5">
</g>
	<g id="xMajorGrid" stroke="rgb(200,220,255)" stroke-width="1">
</g>
	<g id="yAxis" stroke="rgb(0,0,0)" stroke-width="1">
	<line x1="304.3" y1="43" x2="304.3" y2="359"/>
	<line x1="70.1" y1="43" x2="70.1" y2="354"/>
</g>
	<g id="xAxis" stroke="rgb(0,0,0)" stroke-width="1">
	<line x1="65.1" y1="354" x2="655.5" y2="354"/>
	<line x1="65.1" y1="354" x2="655.5" y2="354"/>
</g>
	<g id="yMinorTicks" stroke="rgb(0,0,0)" stroke-width="1">
	<path d="M68.1,348.3 L70.1,348.3 
M68.1,342.7 L70.1,342.7 
M68.1,337 L70.1,337 
M68.1,331.4 L70.1,331.4 
M68.1,320.1 L70.1,320.1 
M68.1,314.4 L70.1,314.4 
M68.1,308.8 L70.1,308.8 
M68.1,303.1 L70.1,303.1 
M68.1,291.8 L70.1,291.8 
M68.1,286.1 L70.1,286.1 
M68.1,280.5 L70.1,280.5 
M68.1,274.8 L70.1,274.8 
M68.1,263.5 L70.1,263.5 
M68.1,257.9 L70.1,257.9 
M68.1,252.2 L70.1,252.2 
M68.1,246.6 L70.1,246.6 
M68.1,235.3 L70.1,235.3 
M68.1,229.6 L70.1,229.6 
M68.1,223.9 L70.1,223.9 
M68.1,218.3 L70.1,218.3 
M68.1,207 L70.1,207 
M68.1,201.3 L70.1,201.3 
M68.1,195.7 L70.1,195.7 
M68.1,190 L70.1,190 
M68.1,178.7 L70.1,178.7 
M68.1,173.1 L70.1,173.1 
M68.1,167.4 L70.1,167.4 
M68.1,161.7 L70.1,161.7 
M68.1,150.4 L70.1,150.4 
M68.1,144.8 L70.1,144.8 
M68.1,139.1 L70.1,139.1 
M68.1,133.5 L70.1,133.5 
M68.1,122.2 L70.1,122.2 
M68.1,116.5 L70.1,116.5 
M68.1,110.9 L70.1,110.9 
M68.1,105.2 L70.1,105.2 
M68.1,93.89 L70.1,93.89 
M68.1,88.24 L70.1,88.24 
M68.1,82.58 L70.1,82.58 
M68.1,76.93 L70.1,76.93 
M68.1,65.62 L70.1,65.62 
M68.1,59.96 L70.1,59.96 
M68.1,54.31 L70.1,54.31 
M68.1,48.65 L70.1,48.65 
M68.1,354 L70.1,354 
" fill="none"/>
</g>
	<g id="xMinorTicks" stroke="rgb(0,0,0)" stroke-width="1">
	<path d="M327.7,354 L327.7,356 
M351.1,354 L351.1,356 
M374.5,354 L374.5,356 
M397.9,354 L397.9,356 
M444.8,354 L444.8,356 
M468.2,354 L468.2,356 
M491.6,354 L491.6,356 
M515,354 L515,356 
M561.8,354 L561.8,356 
M585.3,354 L585.3,356 
M608.7,354 L608.7,356 
M632.1,354 L632.1,356 
M280.8,354 L280.8,356 
M257.4,354 L257.4,356 
M234,354 L234,356 
M210.6,354 L210.6,356 
M163.8,354 L163.8,356 
M140.3,354 L140.3,356 
M116.9,354 L116.9,356 
M93.52,354 L93.52,356 
" fill="none"/>
</g>
	<g id="yMajorTicks" stroke="rgb(0,0,0)" stroke-width="2">
	<path d="M65.1,354 L70.1,354 
M65.1,325.7 L70.1,325.7 
M65.1,297.5 L70.1,297.5 
M65.1,269.2 L70.1,269.2 
M65.1,240.9 L70.1,240.9 
M65.1,212.6 L70.1,212.6 
M65.1,184.4 L70.1,184.4 
M65.1,156.1 L70.1,156.1 
M65.1,127.8 L70.1,127.8 
M65.1,99.55 L70.1,99.55 
M65.1,71.27 L70.1,71.27 
M65.1,43 L70.1,43 
M65.1,354 L70.1,354 
" fill="none"/>
</g>
	<g id="xMajorTicks" stroke="rgb(0,0,0)" stroke-width="2">
	<path d="M304.3,354 L304.3,359 
M421.3,354 L421.3,359 
M538.4,354 L538.4,359 
M655.5,354 L655.5,359 
M304.3,354 L304.3,359 
M187.2,354 L187.2,359 
M70.1,354 L70.1,359 
" fill="none"/>
</g>
	<g id="xTicksValues" font-size="12" font-family="Lucida Sans Unicode" text-anchor="middle">
	<text x="304.3" y="374.6">0
	</text>
	<text x="421.3" y="374.6">1
	</text>
	<text x="538.4" y="374.6">2
	</text>
	<text x="655.5" y="374.6">3
	</text>
	<text x="304.3" y="374.6">0
	</text>
	<text x="187.2" y="374.6">-1
	</text>
	<text x="70.1" y="374.6">-2
	</text>
</g>
	<g id="yTicksValues" font-size="12" font-family="Lucida Sans Unicode" text-anchor="end">
	<text x="59.1" y="356.4">0
	</text>
	<text x="59.1" y="328.1">0.1
	</text>
	<text x="59.1" y="299.9">0.2
	</text>
	<text x="59.1" y="271.6">0.3
	</text>
	<text x="59.1" y="243.3">0.4
	</text>
	<text x="59.1" y="215">0.5
	</text>
	<text x="59.1" y="186.8">0.6
	</text>
	<text x="59.1" y="158.5">0.7
	</text>
	<text x="59.1" y="130.2">0.8
	</text>
	<text x="59.1" y="101.9">0.9
	</text>
	<text x="59.1" y="73.67">1
	</text>
	<text x="59.1" y="45.4">1.1
	</text>
	<text x="59.1" y="356.4">0
	</text>
</g>
	<g id="yLabel">
	<text x="32.4" y="198.5" text-anchor="middle" transform="rotate(-90 32.4 198.5)" font-size="14" font-family="Lucida Sans Unicode">Probability
	</text>
</g>
	<g id="xLabel">
	<text x="362.8" y="387.1" text-anchor="middle" font-size="12" font-family="Lucida Sans Unicode">Random Variable
	</text>
</g>
	<g id="plotLines" stroke-width="2">
	<g clip-path="url(#plot_window)" stroke="rgb(0,0,139)" stroke-width="1">
	<path d="M70.1,354 L70.1,354 
L73.03,354 
L75.95,354 
L78.88,354 
L81.81,354 
L84.73,354 
L87.66,354 
L90.59,354 
L93.52,354 
L96.44,354 
L99.37,354 
L102.3,354 
L105.2,354 
L108.2,354 
L111.1,354 
L114,354 
L116.9,354 
L119.9,354 
L122.8,354 
L125.7,354 
L128.6,354 
L131.6,354 
L134.5,354 
L137.4,354 
L140.3,354 
L143.3,354 
L146.2,354 
L149.1,354 
L152.1,354 
L155,354 
L157.9,354 
L160.8,354 
L163.8,354 
L166.7,354 
L169.6,354 
L172.5,354 
L175.5,354 
L178.4,354 
L181.3,354 
L184.3,354 
L187.2,354 
L190.1,354 
L193,354 
L196,354 
L198.9,354 
L201.8,354 
L204.7,354 
L207.7,354 
L210.6,354 
L213.5,354 
L216.4,354 
L219.4,354 
L222.3,354 
L225.2,354 
L228.2,354 
L231.1,354 
L234,354 
L236.9,354 
L239.9,354 
L242.8,354 
L245.7,354 
L248.6,354 
L251.6,354 
L254.5,354 
L257.4,354 
L260.4,354 
L263.3,354 
L266.2,354 
L269.1,354 
L272.1,354 
L275,354 
L277.9,354 
L280.8,354 
L283.8,354 
L286.7,354 
L289.6,354 
L292.6,354 
L295.5,354 
L298.4,354 
L301.3,354 
L304.3,354 
L307.2,71.27 
L310.1,71.27 
L313,71.27 
L316,71.27 
L318.9,71.27 
L321.8,71.27 
L324.7,71.27 
L327.7,71.27 
L330.6,71.27 
L333.5,71.27 
L336.5,71.27 
L339.4,71.27 
L342.3,71.27 
L345.2,71.27 
L348.2,71.27 
L351.1,71.27 
L354,71.27 
L356.9,71.27 
L359.9,71.27 
L362.8,71.27 
L365.7,71.27 
L368.7,71.27 
L371.6,71.27 
L374.5,71.27 
L377.4,71.27 
L380.4,71.27 
L383.3,71.27 
L386.2,71.27 
L389.1,71.27 
L392.1,71.27 
L395,71.27 
L397.9,71.27 
L400.9,71.27 
L403.8,71.27 
L406.7,71.27 
L409.6,71.27 
L412.6,71.27 
L415.5,71.27 
L418.4,71.27 
L421.3,71.27 
L424.3,354 
L427.2,354 
L430.1,354 
L433,354 
L436,354 
L438.9,354 
L441.8,354 
L444.8,354 
L447.7,354 
L450.6,354 
L453.5,354 
L456.5,354 
L459.4,354 
L462.3,354 
L465.2,354 
L468.2,354 
L471.1,354 
L474,354 
L477,354 
L479.9,354 
L482.8,354 
L485.7,354 
L488.7,354 
L491.6,354 
L494.5,354 
L497.4,354 
L500.4,354 
L503.3,354 
L506.2,354 
L509.1,354 
L512.1,354 
L515,354 
L517.9,354 
L520.9,354 
L523.8,354 
L526.7,354 
L529.6,354 
L532.6,354 
L535.5,354 
L538.4,354 
L541.3,354 
L544.3,354 
L547.2,354 
L550.1,354 
L553.1,354 
L556,354 
L558.9,354 
L561.8,354 
L564.8,354 
L567.7,354 
L570.6,354 
L573.5,354 
L576.5,354 
L579.4,354 
L582.3,354 
L585.3,354 
L588.2,354 
L591.1,354 
L594,354 
L597,354 
L599.9,354 
L602.8,354 
L605.7,354 
L608.7,354 
L611.6,354 
L614.5,354 
L617.4,354 
L620.4,354 
L623.3,354 
L626.2,354 
L629.2,354 
L632.1,354 
L635,354 
L637.9,354 
L640.9,354 
L643.8,354 
L646.7,354 
L649.6,354 
L652.6,354 
L655.5,354 
" fill="none"/>
</g>
	<g clip-path="url(#plot_window)" stroke="rgb(139,0,0)" stroke-width="1">
	<path d="M70.1,354 L70.1,354 
L73.03,354 
L75.95,354 
L78.88,354 
L81.81,354 
L84.73,354 
L87.66,354 
L90.59,354 
L93.52,354 
L96.44,354 
L99.37,354 
L102.3,354 
L105.2,354 
L108.2,354 
L111.1,354 
L114,354 
L116.9,354 
L119.9,354 
L122.8,354 
L125.7,354 
L128.6,354 
L131.6,354 
L134.5,354 
L137.4,354 
L140.3,354 
L143.3,354 
L146.2,354 
L149.1,354 
L152.1,354 
L155,354 
L157.9,354 
L160.8,354 
L163.8,354 
L166.7,354 
L169.6,354 
L172.5,354 
L175.5,354 
L178.4,354 
L181.3,354 
L184.3,354 
L187.2,354 
L190.1,354 
L193,354 
L196,354 
L198.9,354 
L201.8,354 
L204.7,354 
L207.7,354 
L210.6,354 
L213.5,354 
L216.4,354 
L219.4,354 
L222.3,354 
L225.2,354 
L228.2,354 
L231.1,354 
L234,354 
L236.9,354 
L239.9,354 
L242.8,354 
L245.7,354 
L248.6,354 
L251.6,354 
L254.5,354 
L257.4,354 
L260.4,354 
L263.3,354 
L266.2,354 
L269.1,354 
L272.1,354 
L275,354 
L277.9,354 
L280.8,354 
L283.8,354 
L286.7,354 
L289.6,354 
L292.6,354 
L295.5,354 
L298.4,354 
L301.3,354 
L304.3,354 
L307.2,259.8 
L310.1,259.8 
L313,259.8 
L316,259.8 
L318.9,259.8 
L321.8,259.8 
L324.7,259.8 
L327.7,259.8 
L330.6,259.8 
L333.5,259.8 
L336.5,259.8 
L339.4,259.8 
L342.3,259.8 
L345.2,259.8 
L348.2,259.8 
L351.1,259.8 
L354,259.8 
L356.9,259.8 
L359.9,259.8 
L362.8,259.8 
L365.7,259.8 
L368.7,259.8 
L371.6,259.8 
L374.5,259.8 
L377.4,259.8 
L380.4,259.8 
L383.3,259.8 
L386.2,259.8 
L389.1,259.8 
L392.1,259.8 
L395,259.8 
L397.9,259.8 
L400.9,259.8 
L403.8,259.8 
L406.7,259.8 
L409.6,259.8 
L412.6,259.8 
L415.5,259.8 
L418.4,259.8 
L421.3,259.8 
L424.3,259.8 
L427.2,259.8 
L430.1,259.8 
L433,259.8 
L436,259.8 
L438.9,259.8 
L441.8,259.8 
L444.8,259.8 
L447.7,259.8 
L450.6,259.8 
L453.5,259.8 
L456.5,259.8 
L459.4,259.8 
L462.3,259.8 
L465.2,259.8 
L468.2,259.8 
L471.1,259.8 
L474,259.8 
L477,259.8 
L479.9,259.8 
L482.8,259.8 
L485.7,259.8 
L488.7,259.8 
L491.6,259.8 
L494.5,259.8 
L497.4,259.8 
L500.4,259.8 
L503.3,259.8 
L506.2,259.8 
L509.1,259.8 
L512.1,259.8 
L515,259.8 
L517.9,259.8 
L520.9,259.8 
L523.8,259.8 
L526.7,259.8 
L529.6,259.8 
L532.6,259.8 
L535.5,259.8 
L538.4,259.8 
L541.3,259.8 
L544.3,259.8 
L547.2,259.8 
L550.1,259.8 
L553.1,259.8 
L556,259.8 
L558.9,259.8 
L561.8,259.8 
L564.8,259.8 
L567.7,259.8 
L570.6,259.8 
L573.5,259.8 
L576.5,259.8 
L579.4,259.8 
L582.3,259.8 
L585.3,259.8 
L588.2,259.8 
L591.1,259.8 
L594,259.8 
L597,259.8 
L599.9,259.8 
L602.8,259.8 
L605.7,259.8 
L608.7,259.8 
L611.6,259.8 
L614.5,259.8 
L617.4,259.8 
L620.4,259.8 
L623.3,259.8 
L626.2,259.8 
L629.2,259.8 
L632.1,259.8 
L635,259.8 
L637.9,259.8 
L640.9,259.8 
L643.8,259.8 
L646.7,259.8 
L649.6,259.8 
L652.6,259.8 
L655.5,259.8 
" fill="none"/>
</g>
	<g clip-path="url(#plot_window)" stroke="rgb(0,100,0)" stroke-width="1">
	<path d="M70.1,297.5 L70.1,297.5 
L73.03,297.5 
L75.95,297.5 
L78.88,297.5 
L81.81,297.5 
L84.73,297.5 
L87.66,297.5 
L90.59,297.5 
L93.52,297.5 
L96.44,297.5 
L99.37,297.5 
L102.3,297.5 
L105.2,297.5 
L108.2,297.5 
L111.1,297.5 
L114,297.5 
L116.9,297.5 
L119.9,297.5 
L122.8,297.5 
L125.7,297.5 
L128.6,297.5 
L131.6,297.5 
L134.5,297.5 
L137.4,297.5 
L140.3,297.5 
L143.3,297.5 
L146.2,297.5 
L149.1,297.5 
L152.1,297.5 
L155,297.5 
L157.9,297.5 
L160.8,297.5 
L163.8,297.5 
L166.7,297.5 
L169.6,297.5 
L172.5,297.5 
L175.5,297.5 
L178.4,297.5 
L181.3,297.5 
L184.3,297.5 
L187.2,297.5 
L190.1,297.5 
L193,297.5 
L196,297.5 
L198.9,297.5 
L201.8,297.5 
L204.7,297.5 
L207.7,297.5 
L210.6,297.5 
L213.5,297.5 
L216.4,297.5 
L219.4,297.5 
L222.3,297.5 
L225.2,297.5 
L228.2,297.5 
L231.1,297.5 
L234,297.5 
L236.9,297.5 
L239.9,297.5 
L242.8,297.5 
L245.7,297.5 
L248.6,297.5 
L251.6,297.5 
L254.5,297.5 
L257.4,297.5 
L260.4,297.5 
L263.3,297.5 
L266.2,297.5 
L269.1,297.5 
L272.1,297.5 
L275,297.5 
L277.9,297.5 
L280.8,297.5 
L283.8,297.5 
L286.7,297.5 
L289.6,297.5 
L292.6,297.5 
L295.5,297.5 
L298.4,297.5 
L301.3,297.5 
L304.3,297.5 
L307.2,297.5 
L310.1,297.5 
L313,297.5 
L316,297.5 
L318.9,297.5 
L321.8,297.5 
L324.7,297.5 
L327.7,297.5 
L330.6,297.5 
L333.5,297.5 
L336.5,297.5 
L339.4,297.5 
L342.3,297.5 
L345.2,297.5 
L348.2,297.5 
L351.1,297.5 
L354,297.5 
L356.9,297.5 
L359.9,297.5 
L362.8,297.5 
L365.7,297.5 
L368.7,297.5 
L371.6,297.5 
L374.5,297.5 
L377.4,297.5 
L380.4,297.5 
L383.3,297.5 
L386.2,297.5 
L389.1,297.5 
L392.1,297.5 
L395,297.5 
L397.9,297.5 
L400.9,297.5 
L403.8,297.5 
L406.7,297.5 
L409.6,297.5 
L412.6,297.5 
L415.5,297.5 
L418.4,297.5 
L421.3,297.5 
L424.3,297.5 
L427.2,297.5 
L430.1,297.5 
L433,297.5 
L436,297.5 
L438.9,297.5 
L441.8,297.5 
L444.8,297.5 
L447.7,297.5 
L450.6,297.5 
L453.5,297.5 
L456.5,297.5 
L459.4,297.5 
L462.3,297.5 
L465.2,297.5 
L468.2,297.5 
L471.1,297.5 
L474,297.5 
L477,297.5 
L479.9,297.5 
L482.8,297.5 
L485.7,297.5 
L488.7,297.5 
L491.6,297.5 
L494.5,297.5 
L497.4,297.5 
L500.4,297.5 
L503.3,297.5 
L506.2,297.5 
L509.1,297.5 
L512.1,297.5 
L515,297.5 
L517.9,297.5 
L520.9,297.5 
L523.8,297.5 
L526.7,297.5 
L529.6,297.5 
L532.6,297.5 
L535.5,297.5 
L538.4,297.5 
L541.3,297.5 
L544.3,297.5 
L547.2,297.5 
L550.1,297.5 
L553.1,297.5 
L556,297.5 
L558.9,297.5 
L561.8,297.5 
L564.8,297.5 
L567.7,297.5 
L570.6,297.5 
L573.5,297.5 
L576.5,297.5 
L579.4,297.5 
L582.3,297.5 
L585.3,297.5 
L588.2,297.5 
L591.1,297.5 
L594,297.5 
L597,297.5 
L599.9,297.5 
L602.8,297.5 
L605.7,297.5 
L608.7,297.5 
L611.6,297.5 
L614.5,297.5 
L617.4,297.5 
L620.4,297.5 
L623.3,297.5 
L626.2,297.5 
L629.2,297.5 
L632.1,297.5 
L635,297.5 
L637.9,297.5 
L640.9,297.5 
L643.8,297.5 
L646.7,297.5 
L649.6,297.5 
L652.6,297.5 
L655.5,297.5 
" fill="none"/>
</g>
	<g clip-path="url(#plot_window)" stroke="rgb(255,140,0)" stroke-width="1">
	<path d="M70.1,354 L70.1,354 
L73.03,354 
L75.95,354 
L78.88,354 
L81.81,354 
L84.73,354 
L87.66,354 
L90.59,354 
L93.52,354 
L96.44,354 
L99.37,354 
L102.3,354 
L105.2,354 
L108.2,354 
L111.1,354 
L114,354 
L116.9,354 
L119.9,354 
L122.8,354 
L125.7,354 
L128.6,354 
L131.6,354 
L134.5,354 
L137.4,354 
L140.3,354 
L143.3,354 
L146.2,354 
L149.1,354 
L152.1,354 
L155,354 
L157.9,354 
L160.8,354 
L163.8,354 
L166.7,354 
L169.6,354 
L172.5,354 
L175.5,354 
L178.4,354 
L181.3,354 
L184.3,354 
L187.2,354 
L190.1,212.6 
L193,212.6 
L196,212.6 
L198.9,212.6 
L201.8,212.6 
L204.7,212.6 
L207.7,212.6 
L210.6,212.6 
L213.5,212.6 
L216.4,212.6 
L219.4,212.6 
L222.3,212.6 
L225.2,212.6 
L228.2,212.6 
L231.1,212.6 
L234,212.6 
L236.9,212.6 
L239.9,212.6 
L242.8,212.6 
L245.7,212.6 
L248.6,212.6 
L251.6,212.6 
L254.5,212.6 
L257.4,212.6 
L260.4,212.6 
L263.3,212.6 
L266.2,212.6 
L269.1,212.6 
L272.1,212.6 
L275,212.6 
L277.9,212.6 
L280.8,212.6 
L283.8,212.6 
L286.7,212.6 
L289.6,212.6 
L292.6,212.6 
L295.5,212.6 
L298.4,212.6 
L301.3,212.6 
L304.3,212.6 
L307.2,212.6 
L310.1,212.6 
L313,212.6 
L316,212.6 
L318.9,212.6 
L321.8,212.6 
L324.7,212.6 
L327.7,212.6 
L330.6,212.6 
L333.5,212.6 
L336.5,212.6 
L339.4,212.6 
L342.3,212.6 
L345.2,212.6 
L348.2,212.6 
L351.1,212.6 
L354,212.6 
L356.9,212.6 
L359.9,212.6 
L362.8,212.6 
L365.7,212.6 
L368.7,212.6 
L371.6,212.6 
L374.5,212.6 
L377.4,212.6 
L380.4,212.6 
L383.3,212.6 
L386.2,212.6 
L389.1,212.6 
L392.1,212.6 
L395,212.6 
L397.9,212.6 
L400.9,212.6 
L403.8,212.6 
L406.7,212.6 
L409.6,212.6 
L412.6,212.6 
L415.5,212.6 
L418.4,212.6 
L421.3,212.6 
L424.3,354 
L427.2,354 
L430.1,354 
L433,354 
L436,354 
L438.9,354 
L441.8,354 
L444.8,354 
L447.7,354 
L450.6,354 
L453.5,354 
L456.5,354 
L459.4,354 
L462.3,354 
L465.2,354 
L468.2,354 
L471.1,354 
L474,354 
L477,354 
L479.9,354 
L482.8,354 
L485.7,354 
L488.7,354 
L491.6,354 
L494.5,354 
L497.4,354 
L500.4,354 
L503.3,354 
L506.2,354 
L509.1,354 
L512.1,354 
L515,354 
L517.9,354 
L520.9,354 
L523.8,354 
L526.7,354 
L529.6,354 
L532.6,354 
L535.5,354 
L538.4,354 
L541.3,354 
L544.3,354 
L547.2,354 
L550.1,354 
L553.1,354 
L556,354 
L558.9,354 
L561.8,354 
L564.8,354 
L567.7,354 
L570.6,354 
L573.5,354 
L576.5,354 
L579.4,354 
L582.3,354 
L585.3,354 
L588.2,354 
L591.1,354 
L594,354 
L597,354 
L599.9,354 
L602.8,354 
L605.7,354 
L608.7,354 
L611.6,354 
L614.5,354 
L617.4,354 
L620.4,354 
L623.3,354 
L626.2,354 
L629.2,354 
L632.1,354 
L635,354 
L637.9,354 
L640.9,354 
L643.8,354 
L646.7,354 
L649.6,354 
L652.6,354 
L655.5,354 
" fill="none"/>
</g>
</g>
	<g id="plotPoints" clip-path="url(#plot_window)">
</g>
	<g id="legendBackground" stroke="rgb(119,136,153)" fill="rgb(255,255,255)" stroke-width="1">
	<rect x="661.5" y="43" width="74.5" height="77"/>
</g>
	<g id="legendPoints">
</g>
	<g id="legendLines">
	<g stroke="rgb(0,0,139)" stroke-width="1">
	<line x1="676.8" y1="62.75" x2="682.8" y2="62.75"/>
</g>
	<g stroke="rgb(139,0,0)" stroke-width="1">
	<line x1="676.8" y1="75.25" x2="682.8" y2="75.25"/>
</g>
	<g stroke="rgb(0,100,0)" stroke-width="1">
	<line x1="676.8" y1="87.75" x2="682.8" y2="87.75"/>
</g>
	<g stroke="rgb(255,140,0)" stroke-width="1">
	<line x1="676.8" y1="100.3" x2="682.8" y2="100.3"/>
</g>
</g>
	<g id="legendText">
	<text x="691.8" y="62.75" font-size="10" font-family="Lucida Sans Unicode" font-weight="normal" textLength="30">{0,1}
	</text>
	<text x="691.8" y="75.25" font-size="10" font-family="Lucida Sans Unicode" font-weight="normal" textLength="30">{0,3}
	</text>
	<text x="691.8" y="87.75" font-size="10" font-family="Lucida Sans Unicode" font-weight="normal" textLength="36">{-2,3}
	</text>
	<text x="691.8" y="100.3" font-size="10" font-family="Lucida Sans Unicode" font-weight="normal" textLength="36">{-1,1}
	</text>
</g>
	<g id="title">
	<text x="375" y="30" text-anchor="middle" font-size="20" font-family="Lucida Sans Unicode" font-weight="normal">Uniform Distribution PDF
	</text>
</g>
	<g id="plotXValues">
</g>
	<g id="plotYValues">
</g>
</svg>
