<?xml version="1.0" encoding="UTF-8" standalone="no"?>
<svg width="750" height ="400" version="1.1"
xmlns:svg ="http://www.w3.org/2000/svg"
xmlns:rdf="http://www.w3.org/1999/02/22-rdf-syntax-ns#"
xmlns:cc="http://web.resource.org/cc/"
xmlns:dc="http://purl.org/dc/elements/1.1/"
xmlns ="http://www.w3.org/2000/svg"
>
<!-- SVG plot written using Boost.Plot program (Creator Jacob Voytko) --> 
<!-- Use, modification and distribution of Boost.Plot subject to the --> 
<!-- Boost Software License, Version 1.0.--> 
<!-- (See accompanying file LICENSE_1_0.txt --> 
<!-- or copy at http://www.boost.org/LICENSE_1_0.txt) --> 

<!-- SVG Plot Copyright John Maddock 2008 --> 
<meta name="copyright" content="John Maddock" />
<meta name="date" content="2008" />
<!-- Use, modification and distribution of this Scalable Vector Graphic file -->
<!-- are subject to the Boost Software License, Version 1.0. -->
<!-- (See accompanying file LICENSE_1_0.txt or copy at http://www.boost.org/LICENSE_1_0.txt) -->

<clipPath id="plot_window">	<rect x="71.1" y="44" width="583.4" height="309"/>
</clipPath>
	<g id="imageBackground" stroke="rgb(119,136,153)" fill="rgb(255,255,255)" stroke-width="2">
	<rect x="0" y="0" width="750" height="400"/>
</g>
	<g id="plotBackground" stroke="rgb(119,136,153)" fill="rgb(255,255,255)" stroke-width="2">
	<rect x="70.1" y="43" width="585.4" height="311"/>
</g>
	<g id="yMinorGrid" stroke="rgb(200,220,255)" stroke-width="0.5">
</g>
	<g id="yMajorGrid" stroke="rgb(200,220,255)" stroke-width="1">
</g>
	<g id="xMinorGrid" stroke="rgb(200,220,255)" stroke-width="0.5">
</g>
	<g id="xMajorGrid" stroke="rgb(200,220,255)" stroke-width="1">
</g>
	<g id="yAxis" stroke="rgb(0,0,0)" stroke-width="1">
	<line x1="304.3" y1="43" x2="304.3" y2="359"/>
	<line x1="70.1" y1="43" x2="70.1" y2="354"/>
</g>
	<g id="xAxis" stroke="rgb(0,0,0)" stroke-width="1">
	<line x1="65.1" y1="354" x2="655.5" y2="354"/>
	<line x1="65.1" y1="354" x2="655.5" y2="354"/>
</g>
	<g id="yMinorTicks" stroke="rgb(0,0,0)" stroke-width="1">
	<path d="M68.1,348.3 L70.1,348.3 
M68.1,342.7 L70.1,342.7 
M68.1,337 L70.1,337 
M68.1,331.4 L70.1,331.4 
M68.1,320.1 L70.1,320.1 
M68.1,314.4 L70.1,314.4 
M68.1,308.8 L70.1,308.8 
M68.1,303.1 L70.1,303.1 
M68.1,291.8 L70.1,291.8 
M68.1,286.1 L70.1,286.1 
M68.1,280.5 L70.1,280.5 
M68.1,274.8 L70.1,274.8 
M68.1,263.5 L70.1,263.5 
M68.1,257.9 L70.1,257.9 
M68.1,252.2 L70.1,252.2 
M68.1,246.6 L70.1,246.6 
M68.1,235.3 L70.1,235.3 
M68.1,229.6 L70.1,229.6 
M68.1,223.9 L70.1,223.9 
M68.1,218.3 L70.1,218.3 
M68.1,207 L70.1,207 
M68.1,201.3 L70.1,201.3 
M68.1,195.7 L70.1,195.7 
M68.1,190 L70.1,190 
M68.1,178.7 L70.1,178.7 
M68.1,173.1 L70.1,173.1 
M68.1,167.4 L70.1,167.4 
M68.1,161.7 L70.1,161.7 
M68.1,150.4 L70.1,150.4 
M68.1,144.8 L70.1,144.8 
M68.1,139.1 L70.1,139.1 
M68.1,133.5 L70.1,133.5 
M68.1,122.2 L70.1,122.2 
M68.1,116.5 L70.1,116.5 
M68.1,110.9 L70.1,110.9 
M68.1,105.2 L70.1,105.2 
M68.1,93.89 L70.1,93.89 
M68.1,88.24 L70.1,88.24 
M68.1,82.58 L70.1,82.58 
M68.1,76.93 L70.1,76.93 
M68.1,65.62 L70.1,65.62 
M68.1,59.96 L70.1,59.96 
M68.1,54.31 L70.1,54.31 
M68.1,48.65 L70.1,48.65 
M68.1,354 L70.1,354 
" fill="none"/>
</g>
	<g id="xMinorTicks" stroke="rgb(0,0,0)" stroke-width="1">
	<path d="M327.7,354 L327.7,356 
M351.1,354 L351.1,356 
M374.5,354 L374.5,356 
M397.9,354 L397.9,356 
M444.8,354 L444.8,356 
M468.2,354 L468.2,356 
M491.6,354 L491.6,356 
M515,354 L515,356 
M561.8,354 L561.8,356 
M585.3,354 L585.3,356 
M608.7,354 L608.7,356 
M632.1,354 L632.1,356 
M280.8,354 L280.8,356 
M257.4,354 L257.4,356 
M234,354 L234,356 
M210.6,354 L210.6,356 
M163.8,354 L163.8,356 
M140.3,354 L140.3,356 
M116.9,354 L116.9,356 
M93.52,354 L93.52,356 
" fill="none"/>
</g>
	<g id="yMajorTicks" stroke="rgb(0,0,0)" stroke-width="2">
	<path d="M65.1,354 L70.1,354 
M65.1,325.7 L70.1,325.7 
M65.1,297.5 L70.1,297.5 
M65.1,269.2 L70.1,269.2 
M65.1,240.9 L70.1,240.9 
M65.1,212.6 L70.1,212.6 
M65.1,184.4 L70.1,184.4 
M65.1,156.1 L70.1,156.1 
M65.1,127.8 L70.1,127.8 
M65.1,99.55 L70.1,99.55 
M65.1,71.27 L70.1,71.27 
M65.1,43 L70.1,43 
M65.1,354 L70.1,354 
" fill="none"/>
</g>
	<g id="xMajorTicks" stroke="rgb(0,0,0)" stroke-width="2">
	<path d="M304.3,354 L304.3,359 
M421.3,354 L421.3,359 
M538.4,354 L538.4,359 
M655.5,354 L655.5,359 
M304.3,354 L304.3,359 
M187.2,354 L187.2,359 
M70.1,354 L70.1,359 
" fill="none"/>
</g>
	<g id="xTicksValues" font-size="12" font-family="Lucida Sans Unicode" text-anchor="middle">
	<text x="304.3" y="374.6">0
	</text>
	<text x="421.3" y="374.6">1
	</text>
	<text x="538.4" y="374.6">2
	</text>
	<text x="655.5" y="374.6">3
	</text>
	<text x="304.3" y="374.6">0
	</text>
	<text x="187.2" y="374.6">-1
	</text>
	<text x="70.1" y="374.6">-2
	</text>
</g>
	<g id="yTicksValues" font-size="12" font-family="Lucida Sans Unicode" text-anchor="end">
	<text x="59.1" y="356.4">0
	</text>
	<text x="59.1" y="328.1">0.1
	</text>
	<text x="59.1" y="299.9">0.2
	</text>
	<text x="59.1" y="271.6">0.3
	</text>
	<text x="59.1" y="243.3">0.4
	</text>
	<text x="59.1" y="215">0.5
	</text>
	<text x="59.1" y="186.8">0.6
	</text>
	<text x="59.1" y="158.5">0.7
	</text>
	<text x="59.1" y="130.2">0.8
	</text>
	<text x="59.1" y="101.9">0.9
	</text>
	<text x="59.1" y="73.67">1
	</text>
	<text x="59.1" y="45.4">1.1
	</text>
	<text x="59.1" y="356.4">0
	</text>
</g>
	<g id="yLabel">
	<text x="32.4" y="198.5" text-anchor="middle" transform="rotate(-90 32.4 198.5)" font-size="14" font-family="Lucida Sans Unicode">Probability
	</text>
</g>
	<g id="xLabel">
	<text x="362.8" y="387.1" text-anchor="middle" font-size="12" font-family="Lucida Sans Unicode">Random Variable
	</text>
</g>
	<g id="plotLines" stroke-width="2">
	<g clip-path="url(#plot_window)" stroke="rgb(0,0,139)" stroke-width="1">
	<path d="M70.1,354 L70.1,354 
L73.03,354 
L75.95,354 
L78.88,354 
L81.81,354 
L84.73,354 
L87.66,354 
L90.59,354 
L93.52,354 
L96.44,354 
L99.37,354 
L102.3,354 
L105.2,354 
L108.2,354 
L111.1,354 
L114,354 
L116.9,354 
L119.9,354 
L122.8,354 
L125.7,354 
L128.6,354 
L131.6,354 
L134.5,354 
L137.4,354 
L140.3,354 
L143.3,354 
L146.2,354 
L149.1,354 
L152.1,354 
L155,354 
L157.9,354 
L160.8,354 
L163.8,354 
L166.7,354 
L169.6,354 
L172.5,354 
L175.5,354 
L178.4,354 
L181.3,354 
L184.3,354 
L187.2,354 
L190.1,354 
L193,354 
L196,354 
L198.9,354 
L201.8,354 
L204.7,354 
L207.7,354 
L210.6,354 
L213.5,354 
L216.4,354 
L219.4,354 
L222.3,354 
L225.2,354 
L228.2,354 
L231.1,354 
L234,354 
L236.9,354 
L239.9,354 
L242.8,354 
L245.7,354 
L248.6,354 
L251.6,354 
L254.5,354 
L257.4,354 
L260.4,354 
L263.3,354 
L266.2,354 
L269.1,354 
L272.1,354 
L275,354 
L277.9,354 
L280.8,354 
L283.8,354 
L286.7,354 
L289.6,354 
L292.6,354 
L295.5,354 
L298.4,354 
L301.3,354 
L304.3,354 
L307.2,346.9 
L310.1,339.9 
L313,332.8 
L316,325.7 
L318.9,318.7 
L321.8,311.6 
L324.7,304.5 
L327.7,297.5 
L330.6,290.4 
L333.5,283.3 
L336.5,276.3 
L339.4,269.2 
L342.3,262.1 
L345.2,255 
L348.2,248 
L351.1,240.9 
L354,233.8 
L356.9,226.8 
L359.9,219.7 
L362.8,212.6 
L365.7,205.6 
L368.7,198.5 
L371.6,191.4 
L374.5,184.4 
L377.4,177.3 
L380.4,170.2 
L383.3,163.2 
L386.2,156.1 
L389.1,149 
L392.1,142 
L395,134.9 
L397.9,127.8 
L400.9,120.8 
L403.8,113.7 
L406.7,106.6 
L409.6,99.55 
L412.6,92.48 
L415.5,85.41 
L418.4,78.34 
L421.3,71.27 
L424.3,71.27 
L427.2,71.27 
L430.1,71.27 
L433,71.27 
L436,71.27 
L438.9,71.27 
L441.8,71.27 
L444.8,71.27 
L447.7,71.27 
L450.6,71.27 
L453.5,71.27 
L456.5,71.27 
L459.4,71.27 
L462.3,71.27 
L465.2,71.27 
L468.2,71.27 
L471.1,71.27 
L474,71.27 
L477,71.27 
L479.9,71.27 
L482.8,71.27 
L485.7,71.27 
L488.7,71.27 
L491.6,71.27 
L494.5,71.27 
L497.4,71.27 
L500.4,71.27 
L503.3,71.27 
L506.2,71.27 
L509.1,71.27 
L512.1,71.27 
L515,71.27 
L517.9,71.27 
L520.9,71.27 
L523.8,71.27 
L526.7,71.27 
L529.6,71.27 
L532.6,71.27 
L535.5,71.27 
L538.4,71.27 
L541.3,71.27 
L544.3,71.27 
L547.2,71.27 
L550.1,71.27 
L553.1,71.27 
L556,71.27 
L558.9,71.27 
L561.8,71.27 
L564.8,71.27 
L567.7,71.27 
L570.6,71.27 
L573.5,71.27 
L576.5,71.27 
L579.4,71.27 
L582.3,71.27 
L585.3,71.27 
L588.2,71.27 
L591.1,71.27 
L594,71.27 
L597,71.27 
L599.9,71.27 
L602.8,71.27 
L605.7,71.27 
L608.7,71.27 
L611.6,71.27 
L614.5,71.27 
L617.4,71.27 
L620.4,71.27 
L623.3,71.27 
L626.2,71.27 
L629.2,71.27 
L632.1,71.27 
L635,71.27 
L637.9,71.27 
L640.9,71.27 
L643.8,71.27 
L646.7,71.27 
L649.6,71.27 
L652.6,71.27 
L655.5,71.27 
" fill="none"/>
</g>
	<g clip-path="url(#plot_window)" stroke="rgb(139,0,0)" stroke-width="1">
	<path d="M70.1,354 L70.1,354 
L73.03,354 
L75.95,354 
L78.88,354 
L81.81,354 
L84.73,354 
L87.66,354 
L90.59,354 
L93.52,354 
L96.44,354 
L99.37,354 
L102.3,354 
L105.2,354 
L108.2,354 
L111.1,354 
L114,354 
L116.9,354 
L119.9,354 
L122.8,354 
L125.7,354 
L128.6,354 
L131.6,354 
L134.5,354 
L137.4,354 
L140.3,354 
L143.3,354 
L146.2,354 
L149.1,354 
L152.1,354 
L155,354 
L157.9,354 
L160.8,354 
L163.8,354 
L166.7,354 
L169.6,354 
L172.5,354 
L175.5,354 
L178.4,354 
L181.3,354 
L184.3,354 
L187.2,354 
L190.1,354 
L193,354 
L196,354 
L198.9,354 
L201.8,354 
L204.7,354 
L207.7,354 
L210.6,354 
L213.5,354 
L216.4,354 
L219.4,354 
L222.3,354 
L225.2,354 
L228.2,354 
L231.1,354 
L234,354 
L236.9,354 
L239.9,354 
L242.8,354 
L245.7,354 
L248.6,354 
L251.6,354 
L254.5,354 
L257.4,354 
L260.4,354 
L263.3,354 
L266.2,354 
L269.1,354 
L272.1,354 
L275,354 
L277.9,354 
L280.8,354 
L283.8,354 
L286.7,354 
L289.6,354 
L292.6,354 
L295.5,354 
L298.4,354 
L301.3,354 
L304.3,354 
L307.2,351.6 
L310.1,349.3 
L313,346.9 
L316,344.6 
L318.9,342.2 
L321.8,339.9 
L324.7,337.5 
L327.7,335.2 
L330.6,332.8 
L333.5,330.4 
L336.5,328.1 
L339.4,325.7 
L342.3,323.4 
L345.2,321 
L348.2,318.7 
L351.1,316.3 
L354,313.9 
L356.9,311.6 
L359.9,309.2 
L362.8,306.9 
L365.7,304.5 
L368.7,302.2 
L371.6,299.8 
L374.5,297.5 
L377.4,295.1 
L380.4,292.7 
L383.3,290.4 
L386.2,288 
L389.1,285.7 
L392.1,283.3 
L395,281 
L397.9,278.6 
L400.9,276.3 
L403.8,273.9 
L406.7,271.5 
L409.6,269.2 
L412.6,266.8 
L415.5,264.5 
L418.4,262.1 
L421.3,259.8 
L424.3,257.4 
L427.2,255 
L430.1,252.7 
L433,250.3 
L436,248 
L438.9,245.6 
L441.8,243.3 
L444.8,240.9 
L447.7,238.6 
L450.6,236.2 
L453.5,233.8 
L456.5,231.5 
L459.4,229.1 
L462.3,226.8 
L465.2,224.4 
L468.2,222.1 
L471.1,219.7 
L474,217.3 
L477,215 
L479.9,212.6 
L482.8,210.3 
L485.7,207.9 
L488.7,205.6 
L491.6,203.2 
L494.5,200.9 
L497.4,198.5 
L500.4,196.1 
L503.3,193.8 
L506.2,191.4 
L509.1,189.1 
L512.1,186.7 
L515,184.4 
L517.9,182 
L520.9,179.7 
L523.8,177.3 
L526.7,174.9 
L529.6,172.6 
L532.6,170.2 
L535.5,167.9 
L538.4,165.5 
L541.3,163.2 
L544.3,160.8 
L547.2,158.4 
L550.1,156.1 
L553.1,153.7 
L556,151.4 
L558.9,149 
L561.8,146.7 
L564.8,144.3 
L567.7,142 
L570.6,139.6 
L573.5,137.2 
L576.5,134.9 
L579.4,132.5 
L582.3,130.2 
L585.3,127.8 
L588.2,125.5 
L591.1,123.1 
L594,120.8 
L597,118.4 
L599.9,116 
L602.8,113.7 
L605.7,111.3 
L608.7,109 
L611.6,106.6 
L614.5,104.3 
L617.4,101.9 
L620.4,99.55 
L623.3,97.19 
L626.2,94.83 
L629.2,92.48 
L632.1,90.12 
L635,87.77 
L637.9,85.41 
L640.9,83.05 
L643.8,80.7 
L646.7,78.34 
L649.6,75.98 
L652.6,73.63 
L655.5,71.27 
" fill="none"/>
</g>
	<g clip-path="url(#plot_window)" stroke="rgb(0,100,0)" stroke-width="1">
	<path d="M70.1,354 L70.1,354 
L73.03,352.6 
L75.95,351.2 
L78.88,349.8 
L81.81,348.3 
L84.73,346.9 
L87.66,345.5 
L90.59,344.1 
L93.52,342.7 
L96.44,341.3 
L99.37,339.9 
L102.3,338.5 
L105.2,337 
L108.2,335.6 
L111.1,334.2 
L114,332.8 
L116.9,331.4 
L119.9,330 
L122.8,328.6 
L125.7,327.1 
L128.6,325.7 
L131.6,324.3 
L134.5,322.9 
L137.4,321.5 
L140.3,320.1 
L143.3,318.7 
L146.2,317.2 
L149.1,315.8 
L152.1,314.4 
L155,313 
L157.9,311.6 
L160.8,310.2 
L163.8,308.8 
L166.7,307.4 
L169.6,305.9 
L172.5,304.5 
L175.5,303.1 
L178.4,301.7 
L181.3,300.3 
L184.3,298.9 
L187.2,297.5 
L190.1,296 
L193,294.6 
L196,293.2 
L198.9,291.8 
L201.8,290.4 
L204.7,289 
L207.7,287.6 
L210.6,286.1 
L213.5,284.7 
L216.4,283.3 
L219.4,281.9 
L222.3,280.5 
L225.2,279.1 
L228.2,277.7 
L231.1,276.3 
L234,274.8 
L236.9,273.4 
L239.9,272 
L242.8,270.6 
L245.7,269.2 
L248.6,267.8 
L251.6,266.4 
L254.5,264.9 
L257.4,263.5 
L260.4,262.1 
L263.3,260.7 
L266.2,259.3 
L269.1,257.9 
L272.1,256.5 
L275,255 
L277.9,253.6 
L280.8,252.2 
L283.8,250.8 
L286.7,249.4 
L289.6,248 
L292.6,246.6 
L295.5,245.2 
L298.4,243.7 
L301.3,242.3 
L304.3,240.9 
L307.2,239.5 
L310.1,238.1 
L313,236.7 
L316,235.3 
L318.9,233.8 
L321.8,232.4 
L324.7,231 
L327.7,229.6 
L330.6,228.2 
L333.5,226.8 
L336.5,225.4 
L339.4,223.9 
L342.3,222.5 
L345.2,221.1 
L348.2,219.7 
L351.1,218.3 
L354,216.9 
L356.9,215.5 
L359.9,214.1 
L362.8,212.6 
L365.7,211.2 
L368.7,209.8 
L371.6,208.4 
L374.5,207 
L377.4,205.6 
L380.4,204.2 
L383.3,202.7 
L386.2,201.3 
L389.1,199.9 
L392.1,198.5 
L395,197.1 
L397.9,195.7 
L400.9,194.3 
L403.8,192.8 
L406.7,191.4 
L409.6,190 
L412.6,188.6 
L415.5,187.2 
L418.4,185.8 
L421.3,184.4 
L424.3,183 
L427.2,181.5 
L430.1,180.1 
L433,178.7 
L436,177.3 
L438.9,175.9 
L441.8,174.5 
L444.8,173.1 
L447.7,171.6 
L450.6,170.2 
L453.5,168.8 
L456.5,167.4 
L459.4,166 
L462.3,164.6 
L465.2,163.2 
L468.2,161.7 
L471.1,160.3 
L474,158.9 
L477,157.5 
L479.9,156.1 
L482.8,154.7 
L485.7,153.3 
L488.7,151.9 
L491.6,150.4 
L494.5,149 
L497.4,147.6 
L500.4,146.2 
L503.3,144.8 
L506.2,143.4 
L509.1,142 
L512.1,140.5 
L515,139.1 
L517.9,137.7 
L520.9,136.3 
L523.8,134.9 
L526.7,133.5 
L529.6,132.1 
L532.6,130.6 
L535.5,129.2 
L538.4,127.8 
L541.3,126.4 
L544.3,125 
L547.2,123.6 
L550.1,122.2 
L553.1,120.8 
L556,119.3 
L558.9,117.9 
L561.8,116.5 
L564.8,115.1 
L567.7,113.7 
L570.6,112.3 
L573.5,110.9 
L576.5,109.4 
L579.4,108 
L582.3,106.6 
L585.3,105.2 
L588.2,103.8 
L591.1,102.4 
L594,101 
L597,99.55 
L599.9,98.13 
L602.8,96.72 
L605.7,95.3 
L608.7,93.89 
L611.6,92.48 
L614.5,91.06 
L617.4,89.65 
L620.4,88.24 
L623.3,86.82 
L626.2,85.41 
L629.2,84 
L632.1,82.58 
L635,81.17 
L637.9,79.75 
L640.9,78.34 
L643.8,76.93 
L646.7,75.51 
L649.6,74.1 
L652.6,72.69 
L655.5,71.27 
" fill="none"/>
</g>
	<g clip-path="url(#plot_window)" stroke="rgb(255,140,0)" stroke-width="1">
	<path d="M70.1,354 L70.1,354 
L73.03,354 
L75.95,354 
L78.88,354 
L81.81,354 
L84.73,354 
L87.66,354 
L90.59,354 
L93.52,354 
L96.44,354 
L99.37,354 
L102.3,354 
L105.2,354 
L108.2,354 
L111.1,354 
L114,354 
L116.9,354 
L119.9,354 
L122.8,354 
L125.7,354 
L128.6,354 
L131.6,354 
L134.5,354 
L137.4,354 
L140.3,354 
L143.3,354 
L146.2,354 
L149.1,354 
L152.1,354 
L155,354 
L157.9,354 
L160.8,354 
L163.8,354 
L166.7,354 
L169.6,354 
L172.5,354 
L175.5,354 
L178.4,354 
L181.3,354 
L184.3,354 
L187.2,354 
L190.1,350.5 
L193,346.9 
L196,343.4 
L198.9,339.9 
L201.8,336.3 
L204.7,332.8 
L207.7,329.3 
L210.6,325.7 
L213.5,322.2 
L216.4,318.7 
L219.4,315.1 
L222.3,311.6 
L225.2,308.1 
L228.2,304.5 
L231.1,301 
L234,297.5 
L236.9,293.9 
L239.9,290.4 
L242.8,286.9 
L245.7,283.3 
L248.6,279.8 
L251.6,276.3 
L254.5,272.7 
L257.4,269.2 
L260.4,265.6 
L263.3,262.1 
L266.2,258.6 
L269.1,255 
L272.1,251.5 
L275,248 
L277.9,244.4 
L280.8,240.9 
L283.8,237.4 
L286.7,233.8 
L289.6,230.3 
L292.6,226.8 
L295.5,223.2 
L298.4,219.7 
L301.3,216.2 
L304.3,212.6 
L307.2,209.1 
L310.1,205.6 
L313,202 
L316,198.5 
L318.9,195 
L321.8,191.4 
L324.7,187.9 
L327.7,184.4 
L330.6,180.8 
L333.5,177.3 
L336.5,173.8 
L339.4,170.2 
L342.3,166.7 
L345.2,163.2 
L348.2,159.6 
L351.1,156.1 
L354,152.6 
L356.9,149 
L359.9,145.5 
L362.8,142 
L365.7,138.4 
L368.7,134.9 
L371.6,131.4 
L374.5,127.8 
L377.4,124.3 
L380.4,120.8 
L383.3,117.2 
L386.2,113.7 
L389.1,110.1 
L392.1,106.6 
L395,103.1 
L397.9,99.55 
L400.9,96.01 
L403.8,92.48 
L406.7,88.94 
L409.6,85.41 
L412.6,81.88 
L415.5,78.34 
L418.4,74.81 
L421.3,71.27 
L424.3,71.27 
L427.2,71.27 
L430.1,71.27 
L433,71.27 
L436,71.27 
L438.9,71.27 
L441.8,71.27 
L444.8,71.27 
L447.7,71.27 
L450.6,71.27 
L453.5,71.27 
L456.5,71.27 
L459.4,71.27 
L462.3,71.27 
L465.2,71.27 
L468.2,71.27 
L471.1,71.27 
L474,71.27 
L477,71.27 
L479.9,71.27 
L482.8,71.27 
L485.7,71.27 
L488.7,71.27 
L491.6,71.27 
L494.5,71.27 
L497.4,71.27 
L500.4,71.27 
L503.3,71.27 
L506.2,71.27 
L509.1,71.27 
L512.1,71.27 
L515,71.27 
L517.9,71.27 
L520.9,71.27 
L523.8,71.27 
L526.7,71.27 
L529.6,71.27 
L532.6,71.27 
L535.5,71.27 
L538.4,71.27 
L541.3,71.27 
L544.3,71.27 
L547.2,71.27 
L550.1,71.27 
L553.1,71.27 
L556,71.27 
L558.9,71.27 
L561.8,71.27 
L564.8,71.27 
L567.7,71.27 
L570.6,71.27 
L573.5,71.27 
L576.5,71.27 
L579.4,71.27 
L582.3,71.27 
L585.3,71.27 
L588.2,71.27 
L591.1,71.27 
L594,71.27 
L597,71.27 
L599.9,71.27 
L602.8,71.27 
L605.7,71.27 
L608.7,71.27 
L611.6,71.27 
L614.5,71.27 
L617.4,71.27 
L620.4,71.27 
L623.3,71.27 
L626.2,71.27 
L629.2,71.27 
L632.1,71.27 
L635,71.27 
L637.9,71.27 
L640.9,71.27 
L643.8,71.27 
L646.7,71.27 
L649.6,71.27 
L652.6,71.27 
L655.5,71.27 
" fill="none"/>
</g>
</g>
	<g id="plotPoints" clip-path="url(#plot_window)">
</g>
	<g id="legendBackground" stroke="rgb(119,136,153)" fill="rgb(255,255,255)" stroke-width="1">
	<rect x="661.5" y="43" width="74.5" height="77"/>
</g>
	<g id="legendPoints">
</g>
	<g id="legendLines">
	<g stroke="rgb(0,0,139)" stroke-width="1">
	<line x1="676.8" y1="62.75" x2="682.8" y2="62.75"/>
</g>
	<g stroke="rgb(139,0,0)" stroke-width="1">
	<line x1="676.8" y1="75.25" x2="682.8" y2="75.25"/>
</g>
	<g stroke="rgb(0,100,0)" stroke-width="1">
	<line x1="676.8" y1="87.75" x2="682.8" y2="87.75"/>
</g>
	<g stroke="rgb(255,140,0)" stroke-width="1">
	<line x1="676.8" y1="100.3" x2="682.8" y2="100.3"/>
</g>
</g>
	<g id="legendText">
	<text x="691.8" y="62.75" font-size="10" font-family="Lucida Sans Unicode" font-weight="normal" textLength="30">{0,1}
	</text>
	<text x="691.8" y="75.25" font-size="10" font-family="Lucida Sans Unicode" font-weight="normal" textLength="30">{0,3}
	</text>
	<text x="691.8" y="87.75" font-size="10" font-family="Lucida Sans Unicode" font-weight="normal" textLength="36">{-2,3}
	</text>
	<text x="691.8" y="100.3" font-size="10" font-family="Lucida Sans Unicode" font-weight="normal" textLength="36">{-1,1}
	</text>
</g>
	<g id="title">
	<text x="375" y="30" text-anchor="middle" font-size="20" font-family="Lucida Sans Unicode" font-weight="normal">Uniform Distribution CDF
	</text>
</g>
	<g id="plotXValues">
</g>
	<g id="plotYValues">
</g>
</svg>
