<?xml version="1.0" encoding="UTF-8" standalone="no"?>
<svg width="750" height ="400" version="1.1"
xmlns:svg ="http://www.w3.org/2000/svg"
xmlns:rdf="http://www.w3.org/1999/02/22-rdf-syntax-ns#"
xmlns:cc="http://web.resource.org/cc/"
xmlns:dc="http://purl.org/dc/elements/1.1/"
xmlns ="http://www.w3.org/2000/svg"
>
<!-- SVG plot written using Boost.Plot program (Creator Jacob Voytko) --> 
<!-- Use, modification and distribution of Boost.Plot subject to the --> 
<!-- Boost Software License, Version 1.0.--> 
<!-- (See accompanying file LICENSE_1_0.txt --> 
<!-- or copy at http://www.boost.org/LICENSE_1_0.txt) --> 

<!-- SVG Plot Copyright John Maddock 2008 --> 
<meta name="copyright" content="John Maddock" />
<meta name="date" content="2008" />
<!-- Use, modification and distribution of this Scalable Vector Graphic file -->
<!-- are subject to the Boost Software License, Version 1.0. -->
<!-- (See accompanying file LICENSE_1_0.txt or copy at http://www.boost.org/LICENSE_1_0.txt) -->

<clipPath id="plot_window">	<rect x="56.7" y="44" width="573.8" height="309"/>
</clipPath>
	<g id="imageBackground" stroke="rgb(119,136,153)" fill="rgb(255,255,255)" stroke-width="2">
	<rect x="0" y="0" width="750" height="400"/>
</g>
	<g id="plotBackground" stroke="rgb(119,136,153)" fill="rgb(255,255,255)" stroke-width="2">
	<rect x="55.7" y="43" width="575.8" height="311"/>
</g>
	<g id="yMinorGrid" stroke="rgb(200,220,255)" stroke-width="0.5">
</g>
	<g id="yMajorGrid" stroke="rgb(200,220,255)" stroke-width="1">
</g>
	<g id="xMinorGrid" stroke="rgb(200,220,255)" stroke-width="0.5">
</g>
	<g id="xMajorGrid" stroke="rgb(200,220,255)" stroke-width="1">
</g>
	<g id="yAxis" stroke="rgb(0,0,0)" stroke-width="1">
	<line x1="55.7" y1="43" x2="55.7" y2="359"/>
	<line x1="55.7" y1="43" x2="55.7" y2="354"/>
</g>
	<g id="xAxis" stroke="rgb(0,0,0)" stroke-width="1">
	<line x1="50.7" y1="354" x2="631.5" y2="354"/>
	<line x1="50.7" y1="354" x2="631.5" y2="354"/>
</g>
	<g id="yMinorTicks" stroke="rgb(0,0,0)" stroke-width="1">
	<path d="M53.7,338.7 L55.7,338.7 
M53.7,323.4 L55.7,323.4 
M53.7,308.1 L55.7,308.1 
M53.7,292.8 L55.7,292.8 
M53.7,262.3 L55.7,262.3 
M53.7,247 L55.7,247 
M53.7,231.7 L55.7,231.7 
M53.7,216.4 L55.7,216.4 
M53.7,185.8 L55.7,185.8 
M53.7,170.5 L55.7,170.5 
M53.7,155.2 L55.7,155.2 
M53.7,139.9 L55.7,139.9 
M53.7,109.3 L55.7,109.3 
M53.7,94.05 L55.7,94.05 
M53.7,78.76 L55.7,78.76 
M53.7,63.47 L55.7,63.47 
M53.7,354 L55.7,354 
" fill="none"/>
</g>
	<g id="xMinorTicks" stroke="rgb(0,0,0)" stroke-width="1">
	<path d="M74.87,354 L74.87,356 
M94.04,354 L94.04,356 
M113.2,354 L113.2,356 
M132.4,354 L132.4,356 
M170.7,354 L170.7,356 
M189.9,354 L189.9,356 
M209,354 L209,356 
M228.2,354 L228.2,356 
M266.5,354 L266.5,356 
M285.7,354 L285.7,356 
M304.9,354 L304.9,356 
M324.1,354 L324.1,356 
M362.4,354 L362.4,356 
M381.6,354 L381.6,356 
M400.7,354 L400.7,356 
M419.9,354 L419.9,356 
M458.2,354 L458.2,356 
M477.4,354 L477.4,356 
M496.6,354 L496.6,356 
M515.7,354 L515.7,356 
M554.1,354 L554.1,356 
M573.2,354 L573.2,356 
M592.4,354 L592.4,356 
M611.6,354 L611.6,356 
" fill="none"/>
</g>
	<g id="yMajorTicks" stroke="rgb(0,0,0)" stroke-width="2">
	<path d="M50.7,354 L55.7,354 
M50.7,277.5 L55.7,277.5 
M50.7,201.1 L55.7,201.1 
M50.7,124.6 L55.7,124.6 
M50.7,48.17 L55.7,48.17 
M50.7,354 L55.7,354 
" fill="none"/>
</g>
	<g id="xMajorTicks" stroke="rgb(0,0,0)" stroke-width="2">
	<path d="M55.7,354 L55.7,359 
M151.5,354 L151.5,359 
M247.4,354 L247.4,359 
M343.2,354 L343.2,359 
M439.1,354 L439.1,359 
M534.9,354 L534.9,359 
M630.7,354 L630.7,359 
" fill="none"/>
</g>
	<g id="xTicksValues" font-size="12" font-family="Lucida Sans Unicode" text-anchor="middle">
	<text x="55.7" y="374.6">0
	</text>
	<text x="151.5" y="374.6">0.5
	</text>
	<text x="247.4" y="374.6">1
	</text>
	<text x="343.2" y="374.6">1.5
	</text>
	<text x="439.1" y="374.6">2
	</text>
	<text x="534.9" y="374.6">2.5
	</text>
	<text x="630.7" y="374.6">3
	</text>
</g>
	<g id="yTicksValues" font-size="12" font-family="Lucida Sans Unicode" text-anchor="end">
	<text x="44.7" y="356.4">0
	</text>
	<text x="44.7" y="279.9">1
	</text>
	<text x="44.7" y="203.5">2
	</text>
	<text x="44.7" y="127">3
	</text>
	<text x="44.7" y="50.57">4
	</text>
	<text x="44.7" y="356.4">0
	</text>
</g>
	<g id="yLabel">
	<text x="32.4" y="198.5" text-anchor="middle" transform="rotate(-90 32.4 198.5)" font-size="14" font-family="Lucida Sans Unicode">Probability
	</text>
</g>
	<g id="xLabel">
	<text x="343.6" y="387.1" text-anchor="middle" font-size="12" font-family="Lucida Sans Unicode">Random Variable
	</text>
</g>
	<g id="plotLines" stroke-width="2">
	<g clip-path="url(#plot_window)" stroke="rgb(0,0,139)" stroke-width="1">
	<path d="M58.58,197.1 L58.58,197.1 
L61.46,225.9 
L64.34,241.1 
L67.22,251.4 
L70.09,259.1 
L72.97,265.2 
L75.85,270.3 
L78.73,274.6 
L81.61,278.3 
L84.49,281.6 
L87.37,284.6 
L90.25,287.3 
L93.13,289.7 
L96.01,291.9 
L98.89,294 
L101.8,295.9 
L104.6,297.7 
L107.5,299.3 
L110.4,300.9 
L113.3,302.4 
L116.2,303.8 
L119,305.1 
L121.9,306.3 
L124.8,307.5 
L127.7,308.7 
L130.6,309.7 
L133.4,310.8 
L136.3,311.8 
L139.2,312.7 
L142.1,313.6 
L144.9,314.5 
L147.8,315.3 
L150.7,316.1 
L153.6,316.9 
L156.5,317.7 
L159.3,318.4 
L162.2,319.1 
L165.1,319.8 
L168,320.4 
L170.9,321.1 
L173.7,321.7 
L176.6,322.3 
L179.5,322.9 
L182.4,323.4 
L185.3,324 
L188.1,324.5 
L191,325 
L193.9,325.5 
L196.8,326 
L199.7,326.5 
L202.5,327 
L205.4,327.4 
L208.3,327.9 
L211.2,328.3 
L214,328.7 
L216.9,329.1 
L219.8,329.5 
L222.7,329.9 
L225.6,330.3 
L228.4,330.7 
L231.3,331 
L234.2,331.4 
L237.1,331.7 
L240,332.1 
L242.8,332.4 
L245.7,332.7 
L248.6,333 
L251.5,333.3 
L254.4,333.7 
L257.2,334 
L260.1,334.2 
L263,334.5 
L265.9,334.8 
L268.7,335.1 
L271.6,335.4 
L274.5,335.6 
L277.4,335.9 
L280.3,336.1 
L283.1,336.4 
L286,336.6 
L288.9,336.9 
L291.8,337.1 
L294.7,337.3 
L297.5,337.5 
L300.4,337.8 
L303.3,338 
L306.2,338.2 
L309.1,338.4 
L311.9,338.6 
L314.8,338.8 
L317.7,339 
L320.6,339.2 
L323.4,339.4 
L326.3,339.6 
L329.2,339.8 
L332.1,340 
L335,340.1 
L337.8,340.3 
L340.7,340.5 
L343.6,340.7 
L346.5,340.8 
L349.4,341 
L352.2,341.2 
L355.1,341.3 
L358,341.5 
L360.9,341.6 
L363.8,341.8 
L366.6,341.9 
L369.5,342.1 
L372.4,342.2 
L375.3,342.4 
L378.1,342.5 
L381,342.6 
L383.9,342.8 
L386.8,342.9 
L389.7,343 
L392.5,343.2 
L395.4,343.3 
L398.3,343.4 
L401.2,343.6 
L404.1,343.7 
L406.9,343.8 
L409.8,343.9 
L412.7,344 
L415.6,344.1 
L418.5,344.3 
L421.3,344.4 
L424.2,344.5 
L427.1,344.6 
L430,344.7 
L432.8,344.8 
L435.7,344.9 
L438.6,345 
L441.5,345.1 
L444.4,345.2 
L447.2,345.3 
L450.1,345.4 
L453,345.5 
L455.9,345.6 
L458.8,345.7 
L461.6,345.8 
L464.5,345.9 
L467.4,346 
L470.3,346.1 
L473.2,346.1 
L476,346.2 
L478.9,346.3 
L481.8,346.4 
L484.7,346.5 
L487.5,346.6 
L490.4,346.6 
L493.3,346.7 
L496.2,346.8 
L499.1,346.9 
L501.9,346.9 
L504.8,347 
L507.7,347.1 
L510.6,347.2 
L513.5,347.2 
L516.3,347.3 
L519.2,347.4 
L522.1,347.5 
L525,347.5 
L527.9,347.6 
L530.7,347.7 
L533.6,347.7 
L536.5,347.8 
L539.4,347.9 
L542.3,347.9 
L545.1,348 
L548,348 
L550.9,348.1 
L553.8,348.2 
L556.6,348.2 
L559.5,348.3 
L562.4,348.3 
L565.3,348.4 
L568.2,348.5 
L571,348.5 
L573.9,348.6 
L576.8,348.6 
L579.7,348.7 
L582.6,348.7 
L585.4,348.8 
L588.3,348.8 
L591.2,348.9 
L594.1,348.9 
L597,349 
L599.8,349 
L602.7,349.1 
L605.6,349.1 
L608.5,349.2 
L611.3,349.2 
L614.2,349.3 
L617.1,349.3 
L620,349.4 
L622.9,349.4 
L625.7,349.5 
L628.6,349.5 
" fill="none"/>
</g>
	<g clip-path="url(#plot_window)" stroke="rgb(139,0,0)" stroke-width="1">
	<path d="M55.7,277.5 L55.7,277.5 
L58.58,278.7 
L61.46,279.8 
L64.34,280.9 
L67.22,282 
L70.09,283.1 
L72.97,284.1 
L75.85,285.2 
L78.73,286.2 
L81.61,287.2 
L84.49,288.2 
L87.37,289.2 
L90.25,290.2 
L93.13,291.1 
L96.01,292 
L98.89,293 
L101.8,293.9 
L104.6,294.8 
L107.5,295.7 
L110.4,296.5 
L113.3,297.4 
L116.2,298.2 
L119,299.1 
L121.9,299.9 
L124.8,300.7 
L127.7,301.5 
L130.6,302.3 
L133.4,303 
L136.3,303.8 
L139.2,304.5 
L142.1,305.3 
L144.9,306 
L147.8,306.7 
L150.7,307.4 
L153.6,308.1 
L156.5,308.8 
L159.3,309.5 
L162.2,310.1 
L165.1,310.8 
L168,311.4 
L170.9,312.1 
L173.7,312.7 
L176.6,313.3 
L179.5,313.9 
L182.4,314.5 
L185.3,315.1 
L188.1,315.7 
L191,316.3 
L193.9,316.8 
L196.8,317.4 
L199.7,317.9 
L202.5,318.5 
L205.4,319 
L208.3,319.5 
L211.2,320 
L214,320.5 
L216.9,321 
L219.8,321.5 
L222.7,322 
L225.6,322.5 
L228.4,323 
L231.3,323.4 
L234.2,323.9 
L237.1,324.3 
L240,324.8 
L242.8,325.2 
L245.7,325.6 
L248.6,326.1 
L251.5,326.5 
L254.4,326.9 
L257.2,327.3 
L260.1,327.7 
L263,328.1 
L265.9,328.5 
L268.7,328.8 
L271.6,329.2 
L274.5,329.6 
L277.4,329.9 
L280.3,330.3 
L283.1,330.7 
L286,331 
L288.9,331.4 
L291.8,331.7 
L294.7,332 
L297.5,332.3 
L300.4,332.7 
L303.3,333 
L306.2,333.3 
L309.1,333.6 
L311.9,333.9 
L314.8,334.2 
L317.7,334.5 
L320.6,334.8 
L323.4,335.1 
L326.3,335.4 
L329.2,335.6 
L332.1,335.9 
L335,336.2 
L337.8,336.5 
L340.7,336.7 
L343.6,337 
L346.5,337.2 
L349.4,337.5 
L352.2,337.7 
L355.1,338 
L358,338.2 
L360.9,338.4 
L363.8,338.7 
L366.6,338.9 
L369.5,339.1 
L372.4,339.3 
L375.3,339.6 
L378.1,339.8 
L381,340 
L383.9,340.2 
L386.8,340.4 
L389.7,340.6 
L392.5,340.8 
L395.4,341 
L398.3,341.2 
L401.2,341.4 
L404.1,341.6 
L406.9,341.8 
L409.8,341.9 
L412.7,342.1 
L415.6,342.3 
L418.5,342.5 
L421.3,342.7 
L424.2,342.8 
L427.1,343 
L430,343.2 
L432.8,343.3 
L435.7,343.5 
L438.6,343.6 
L441.5,343.8 
L444.4,343.9 
L447.2,344.1 
L450.1,344.2 
L453,344.4 
L455.9,344.5 
L458.8,344.7 
L461.6,344.8 
L464.5,344.9 
L467.4,345.1 
L470.3,345.2 
L473.2,345.3 
L476,345.5 
L478.9,345.6 
L481.8,345.7 
L484.7,345.8 
L487.5,346 
L490.4,346.1 
L493.3,346.2 
L496.2,346.3 
L499.1,346.4 
L501.9,346.5 
L504.8,346.7 
L507.7,346.8 
L510.6,346.9 
L513.5,347 
L516.3,347.1 
L519.2,347.2 
L522.1,347.3 
L525,347.4 
L527.9,347.5 
L530.7,347.6 
L533.6,347.7 
L536.5,347.8 
L539.4,347.9 
L542.3,348 
L545.1,348.1 
L548,348.1 
L550.9,348.2 
L553.8,348.3 
L556.6,348.4 
L559.5,348.5 
L562.4,348.6 
L565.3,348.6 
L568.2,348.7 
L571,348.8 
L573.9,348.9 
L576.8,349 
L579.7,349 
L582.6,349.1 
L585.4,349.2 
L588.3,349.3 
L591.2,349.3 
L594.1,349.4 
L597,349.5 
L599.8,349.5 
L602.7,349.6 
L605.6,349.7 
L608.5,349.7 
L611.3,349.8 
L614.2,349.9 
L617.1,349.9 
L620,350 
L622.9,350 
L625.7,350.1 
L628.6,350.2 
" fill="none"/>
</g>
	<g clip-path="url(#plot_window)" stroke="rgb(0,100,0)" stroke-width="1">
	<path d="M55.7,354 L55.7,354 
L58.58,354 
L61.46,354 
L64.34,354 
L67.22,354 
L70.09,354 
L72.97,354 
L75.85,354 
L78.73,353.9 
L81.61,353.9 
L84.49,353.8 
L87.37,353.7 
L90.25,353.6 
L93.13,353.4 
L96.01,353.3 
L98.89,353 
L101.8,352.7 
L104.6,352.4 
L107.5,352 
L110.4,351.5 
L113.3,350.9 
L116.2,350.2 
L119,349.5 
L121.9,348.6 
L124.8,347.6 
L127.7,346.5 
L130.6,345.2 
L133.4,343.8 
L136.3,342.2 
L139.2,340.5 
L142.1,338.5 
L144.9,336.4 
L147.8,334.1 
L150.7,331.6 
L153.6,328.9 
L156.5,326 
L159.3,322.8 
L162.2,319.4 
L165.1,315.8 
L168,312 
L170.9,307.9 
L173.7,303.7 
L176.6,299.2 
L179.5,294.6 
L182.4,289.7 
L185.3,284.7 
L188.1,279.6 
L191,274.3 
L193.9,269 
L196.8,263.6 
L199.7,258.2 
L202.5,252.9 
L205.4,247.6 
L208.3,242.5 
L211.2,237.5 
L214,232.8 
L216.9,228.4 
L219.8,224.3 
L222.7,220.7 
L225.6,217.5 
L228.4,214.8 
L231.3,212.8 
L234.2,211.3 
L237.1,210.5 
L240,210.4 
L242.8,210.9 
L245.7,212.3 
L248.6,214.3 
L251.5,217.1 
L254.4,220.6 
L257.2,224.7 
L260.1,229.5 
L263,234.9 
L265.9,240.7 
L268.7,247 
L271.6,253.7 
L274.5,260.6 
L277.4,267.6 
L280.3,274.8 
L283.1,281.9 
L286,288.9 
L288.9,295.7 
L291.8,302.3 
L294.7,308.5 
L297.5,314.4 
L300.4,319.8 
L303.3,324.8 
L306.2,329.3 
L309.1,333.3 
L311.9,336.9 
L314.8,340 
L317.7,342.7 
L320.6,345 
L323.4,346.9 
L326.3,348.4 
L329.2,349.7 
L332.1,350.8 
L335,351.6 
L337.8,352.2 
L340.7,352.7 
L343.6,353.1 
L346.5,353.3 
L349.4,353.5 
L352.2,353.7 
L355.1,353.8 
L358,353.9 
L360.9,353.9 
L363.8,353.9 
L366.6,354 
L369.5,354 
L372.4,354 
L375.3,354 
L378.1,354 
L381,354 
L383.9,354 
L386.8,354 
L389.7,354 
L392.5,354 
L395.4,354 
L398.3,354 
L401.2,354 
L404.1,354 
L406.9,354 
L409.8,354 
L412.7,354 
L415.6,354 
L418.5,354 
L421.3,354 
L424.2,354 
L427.1,354 
L430,354 
L432.8,354 
L435.7,354 
L438.6,354 
L441.5,354 
L444.4,354 
L447.2,354 
L450.1,354 
L453,354 
L455.9,354 
L458.8,354 
L461.6,354 
L464.5,354 
L467.4,354 
L470.3,354 
L473.2,354 
L476,354 
L478.9,354 
L481.8,354 
L484.7,354 
L487.5,354 
L490.4,354 
L493.3,354 
L496.2,354 
L499.1,354 
L501.9,354 
L504.8,354 
L507.7,354 
L510.6,354 
L513.5,354 
L516.3,354 
L519.2,354 
L522.1,354 
L525,354 
L527.9,354 
L530.7,354 
L533.6,354 
L536.5,354 
L539.4,354 
L542.3,354 
L545.1,354 
L548,354 
L550.9,354 
L553.8,354 
L556.6,354 
L559.5,354 
L562.4,354 
L565.3,354 
L568.2,354 
L571,354 
L573.9,354 
L576.8,354 
L579.7,354 
L582.6,354 
L585.4,354 
L588.3,354 
L591.2,354 
L594.1,354 
L597,354 
L599.8,354 
L602.7,354 
L605.6,354 
L608.5,354 
L611.3,354 
L614.2,354 
L617.1,354 
L620,354 
L622.9,354 
L625.7,354 
L628.6,354 
" fill="none"/>
</g>
	<g clip-path="url(#plot_window)" stroke="rgb(255,140,0)" stroke-width="1">
	<path d="M55.7,354 L55.7,354 
L58.58,354 
L61.46,354 
L64.34,354 
L67.22,354 
L70.09,354 
L72.97,354 
L75.85,354 
L78.73,354 
L81.61,354 
L84.49,354 
L87.37,354 
L90.25,354 
L93.13,354 
L96.01,354 
L98.89,354 
L101.8,354 
L104.6,354 
L107.5,354 
L110.4,354 
L113.3,354 
L116.2,354 
L119,354 
L121.9,353.9 
L124.8,353.9 
L127.7,353.9 
L130.6,353.8 
L133.4,353.8 
L136.3,353.7 
L139.2,353.6 
L142.1,353.4 
L144.9,353.2 
L147.8,353 
L150.7,352.6 
L153.6,352.2 
L156.5,351.7 
L159.3,351 
L162.2,350.1 
L165.1,349.1 
L168,347.8 
L170.9,346.3 
L173.7,344.3 
L176.6,342 
L179.5,339.2 
L182.4,335.9 
L185.3,331.9 
L188.1,327.2 
L191,321.7 
L193.9,315.3 
L196.8,307.8 
L199.7,299.1 
L202.5,289.2 
L205.4,278 
L208.3,265.4 
L211.2,251.3 
L214,235.9 
L216.9,219.1 
L219.8,201.1 
L222.7,182.2 
L225.6,162.9 
L228.4,143.5 
L231.3,124.7 
L234.2,107.4 
L237.1,92.47 
L240,80.82 
L242.8,73.47 
L245.7,71.31 
L248.6,75.07 
L251.5,85.14 
L254.4,101.5 
L257.2,123.6 
L260.1,150.5 
L263,180.5 
L265.9,211.9 
L268.7,242.6 
L271.6,270.8 
L274.5,295.2 
L277.4,314.9 
L280.3,329.6 
L283.1,339.9 
L286,346.5 
L288.9,350.3 
L291.8,352.4 
L294.7,353.4 
L297.5,353.8 
L300.4,353.9 
L303.3,354 
L306.2,354 
L309.1,354 
L311.9,354 
L314.8,354 
L317.7,354 
L320.6,354 
L323.4,354 
L326.3,354 
L329.2,354 
L332.1,354 
L335,354 
L337.8,354 
L340.7,354 
L343.6,354 
L346.5,354 
L349.4,354 
L352.2,354 
L355.1,354 
L358,354 
L360.9,354 
L363.8,354 
L366.6,354 
L369.5,354 
L372.4,354 
L375.3,354 
L378.1,354 
L381,354 
L383.9,354 
L386.8,354 
L389.7,354 
L392.5,354 
L395.4,354 
L398.3,354 
L401.2,354 
L404.1,354 
L406.9,354 
L409.8,354 
L412.7,354 
L415.6,354 
L418.5,354 
L421.3,354 
L424.2,354 
L427.1,354 
L430,354 
L432.8,354 
L435.7,354 
L438.6,354 
L441.5,354 
L444.4,354 
L447.2,354 
L450.1,354 
L453,354 
L455.9,354 
L458.8,354 
L461.6,354 
L464.5,354 
L467.4,354 
L470.3,354 
L473.2,354 
L476,354 
L478.9,354 
L481.8,354 
L484.7,354 
L487.5,354 
L490.4,354 
L493.3,354 
L496.2,354 
L499.1,354 
L501.9,354 
L504.8,354 
L507.7,354 
L510.6,354 
L513.5,354 
L516.3,354 
L519.2,354 
L522.1,354 
L525,354 
L527.9,354 
L530.7,354 
L533.6,354 
L536.5,354 
L539.4,354 
L542.3,354 
L545.1,354 
L548,354 
L550.9,354 
L553.8,354 
L556.6,354 
L559.5,354 
L562.4,354 
L565.3,354 
L568.2,354 
L571,354 
L573.9,354 
L576.8,354 
L579.7,354 
L582.6,354 
L585.4,354 
L588.3,354 
L591.2,354 
L594.1,354 
L597,354 
L599.8,354 
L602.7,354 
L605.6,354 
L608.5,354 
L611.3,354 
L614.2,354 
L617.1,354 
L620,354 
L622.9,354 
L625.7,354 
L628.6,354 
" fill="none"/>
</g>
</g>
	<g id="plotPoints" clip-path="url(#plot_window)">
</g>
	<g id="legendBackground" stroke="rgb(119,136,153)" fill="rgb(255,255,255)" stroke-width="1">
	<rect x="637.5" y="43" width="98.5" height="77"/>
</g>
	<g id="legendPoints">
</g>
	<g id="legendLines">
	<g stroke="rgb(0,0,139)" stroke-width="1">
	<line x1="652.8" y1="62.75" x2="658.8" y2="62.75"/>
</g>
	<g stroke="rgb(139,0,0)" stroke-width="1">
	<line x1="652.8" y1="75.25" x2="658.8" y2="75.25"/>
</g>
	<g stroke="rgb(0,100,0)" stroke-width="1">
	<line x1="652.8" y1="87.75" x2="658.8" y2="87.75"/>
</g>
	<g stroke="rgb(255,140,0)" stroke-width="1">
	<line x1="652.8" y1="100.3" x2="658.8" y2="100.3"/>
</g>
</g>
	<g id="legendText">
	<text x="667.8" y="62.75" font-size="10" font-family="Lucida Sans Unicode" font-weight="normal" textLength="60">shape=0.75
	</text>
	<text x="667.8" y="75.25" font-size="10" font-family="Lucida Sans Unicode" font-weight="normal" textLength="42">shape=1
	</text>
	<text x="667.8" y="87.75" font-size="10" font-family="Lucida Sans Unicode" font-weight="normal" textLength="42">shape=5
	</text>
	<text x="667.8" y="100.3" font-size="10" font-family="Lucida Sans Unicode" font-weight="normal" textLength="48">shape=10
	</text>
</g>
	<g id="title">
	<text x="375" y="30" text-anchor="middle" font-size="20" font-family="Lucida Sans Unicode" font-weight="normal">Weibull Distribution PDF (scale=1)
	</text>
</g>
	<g id="plotXValues">
</g>
	<g id="plotYValues">
</g>
</svg>
