<?xml version="1.0" encoding="UTF-8" standalone="no"?>
<svg width="750" height ="400" version="1.1"
xmlns:svg ="http://www.w3.org/2000/svg"
xmlns:rdf="http://www.w3.org/1999/02/22-rdf-syntax-ns#"
xmlns:cc="http://web.resource.org/cc/"
xmlns:dc="http://purl.org/dc/elements/1.1/"
xmlns ="http://www.w3.org/2000/svg"
>
<!-- SVG plot written using Boost.Plot program (Creator Jacob Voytko) --> 
<!-- Use, modification and distribution of Boost.Plot subject to the --> 
<!-- Boost Software License, Version 1.0.--> 
<!-- (See accompanying file LICENSE_1_0.txt --> 
<!-- or copy at http://www.boost.org/LICENSE_1_0.txt) --> 

<!-- SVG Plot Copyright John Maddock 2008 --> 
<meta name="copyright" content="John Maddock" />
<meta name="date" content="2008" />
<!-- Use, modification and distribution of this Scalable Vector Graphic file -->
<!-- are subject to the Boost Software License, Version 1.0. -->
<!-- (See accompanying file LICENSE_1_0.txt or copy at http://www.boost.org/LICENSE_1_0.txt) -->

<clipPath id="plot_window">	<rect x="71.1" y="44" width="565.4" height="309"/>
</clipPath>
	<g id="imageBackground" stroke="rgb(119,136,153)" fill="rgb(255,255,255)" stroke-width="2">
	<rect x="0" y="0" width="750" height="400"/>
</g>
	<g id="plotBackground" stroke="rgb(119,136,153)" fill="rgb(255,255,255)" stroke-width="2">
	<rect x="70.1" y="43" width="567.4" height="311"/>
</g>
	<g id="yMinorGrid" stroke="rgb(200,220,255)" stroke-width="0.5">
</g>
	<g id="yMajorGrid" stroke="rgb(200,220,255)" stroke-width="1">
</g>
	<g id="xMinorGrid" stroke="rgb(200,220,255)" stroke-width="0.5">
</g>
	<g id="xMajorGrid" stroke="rgb(200,220,255)" stroke-width="1">
</g>
	<g id="yAxis" stroke="rgb(0,0,0)" stroke-width="1">
	<line x1="70.1" y1="43" x2="70.1" y2="359"/>
	<line x1="70.1" y1="43" x2="70.1" y2="354"/>
</g>
	<g id="xAxis" stroke="rgb(0,0,0)" stroke-width="1">
	<line x1="65.1" y1="354" x2="637.5" y2="354"/>
	<line x1="65.1" y1="354" x2="637.5" y2="354"/>
</g>
	<g id="yMinorTicks" stroke="rgb(0,0,0)" stroke-width="1">
	<path d="M68.1,342 L70.1,342 
M68.1,329.9 L70.1,329.9 
M68.1,317.9 L70.1,317.9 
M68.1,305.9 L70.1,305.9 
M68.1,281.8 L70.1,281.8 
M68.1,269.8 L70.1,269.8 
M68.1,257.8 L70.1,257.8 
M68.1,245.8 L70.1,245.8 
M68.1,221.7 L70.1,221.7 
M68.1,209.7 L70.1,209.7 
M68.1,197.7 L70.1,197.7 
M68.1,185.6 L70.1,185.6 
M68.1,161.6 L70.1,161.6 
M68.1,149.5 L70.1,149.5 
M68.1,137.5 L70.1,137.5 
M68.1,125.5 L70.1,125.5 
M68.1,101.4 L70.1,101.4 
M68.1,89.42 L70.1,89.42 
M68.1,77.39 L70.1,77.39 
M68.1,65.36 L70.1,65.36 
M68.1,354 L70.1,354 
" fill="none"/>
</g>
	<g id="xMinorTicks" stroke="rgb(0,0,0)" stroke-width="1">
	<path d="M103.3,354 L103.3,356 
M136.5,354 L136.5,356 
M169.6,354 L169.6,356 
M202.8,354 L202.8,356 
M269.2,354 L269.2,356 
M302.3,354 L302.3,356 
M335.5,354 L335.5,356 
M368.7,354 L368.7,356 
M435,354 L435,356 
M468.2,354 L468.2,356 
M501.4,354 L501.4,356 
M534.6,354 L534.6,356 
M600.9,354 L600.9,356 
M634.1,354 L634.1,356 
" fill="none"/>
</g>
	<g id="yMajorTicks" stroke="rgb(0,0,0)" stroke-width="2">
	<path d="M65.1,354 L70.1,354 
M65.1,293.9 L70.1,293.9 
M65.1,233.7 L70.1,233.7 
M65.1,173.6 L70.1,173.6 
M65.1,113.5 L70.1,113.5 
M65.1,53.34 L70.1,53.34 
M65.1,354 L70.1,354 
" fill="none"/>
</g>
	<g id="xMajorTicks" stroke="rgb(0,0,0)" stroke-width="2">
	<path d="M70.1,354 L70.1,359 
M236,354 L236,359 
M401.9,354 L401.9,359 
M567.7,354 L567.7,359 
" fill="none"/>
</g>
	<g id="xTicksValues" font-size="12" font-family="Lucida Sans Unicode" text-anchor="middle">
	<text x="70.1" y="374.6">0
	</text>
	<text x="236" y="374.6">1
	</text>
	<text x="401.9" y="374.6">2
	</text>
	<text x="567.7" y="374.6">3
	</text>
</g>
	<g id="yTicksValues" font-size="12" font-family="Lucida Sans Unicode" text-anchor="end">
	<text x="59.1" y="356.4">0
	</text>
	<text x="59.1" y="296.3">0.5
	</text>
	<text x="59.1" y="236.1">1
	</text>
	<text x="59.1" y="176">1.5
	</text>
	<text x="59.1" y="115.9">2
	</text>
	<text x="59.1" y="55.74">2.5
	</text>
	<text x="59.1" y="356.4">0
	</text>
</g>
	<g id="yLabel">
	<text x="32.4" y="198.5" text-anchor="middle" transform="rotate(-90 32.4 198.5)" font-size="14" font-family="Lucida Sans Unicode">Probability
	</text>
</g>
	<g id="xLabel">
	<text x="353.8" y="387.1" text-anchor="middle" font-size="12" font-family="Lucida Sans Unicode">Random Variable
	</text>
</g>
	<g id="plotLines" stroke-width="2">
	<g clip-path="url(#plot_window)" stroke="rgb(0,0,139)" stroke-width="1">
	<path d="M70.1,354 L70.1,354 
L72.94,353.2 
L75.77,350.6 
L78.61,346.4 
L81.45,340.5 
L84.28,333 
L87.12,323.9 
L89.96,313.2 
L92.8,301.1 
L95.63,287.6 
L98.47,272.9 
L101.3,257.1 
L104.1,240.6 
L107,223.3 
L109.8,205.7 
L112.7,188 
L115.5,170.5 
L118.3,153.6 
L121.2,137.4 
L124,122.4 
L126.8,108.8 
L129.7,96.99 
L132.5,87.16 
L135.4,79.55 
L138.2,74.34 
L141,71.65 
L143.9,71.55 
L146.7,74.03 
L149.5,79.05 
L152.4,86.46 
L155.2,96.1 
L158,107.7 
L160.9,121.1 
L163.7,135.8 
L166.6,151.5 
L169.4,168 
L172.2,184.9 
L175.1,201.8 
L177.9,218.4 
L180.7,234.4 
L183.6,249.7 
L186.4,264 
L189.3,277.2 
L192.1,289.2 
L194.9,299.9 
L197.8,309.4 
L200.6,317.7 
L203.4,324.7 
L206.3,330.7 
L209.1,335.7 
L212,339.8 
L214.8,343.1 
L217.6,345.8 
L220.5,347.9 
L223.3,349.5 
L226.1,350.7 
L229,351.7 
L231.8,352.3 
L234.6,352.8 
L237.5,353.2 
L240.3,353.5 
L243.2,353.6 
L246,353.8 
L248.8,353.8 
L251.7,353.9 
L254.5,353.9 
L257.3,354 
L260.2,354 
L263,354 
L265.9,354 
L268.7,354 
L271.5,354 
L274.4,354 
L277.2,354 
L280,354 
L282.9,354 
L285.7,354 
L288.5,354 
L291.4,354 
L294.2,354 
L297.1,354 
L299.9,354 
L302.7,354 
L305.6,354 
L308.4,354 
L311.2,354 
L314.1,354 
L316.9,354 
L319.8,354 
L322.6,354 
L325.4,354 
L328.3,354 
L331.1,354 
L333.9,354 
L336.8,354 
L339.6,354 
L342.5,354 
L345.3,354 
L348.1,354 
L351,354 
L353.8,354 
L356.6,354 
L359.5,354 
L362.3,354 
L365.1,354 
L368,354 
L370.8,354 
L373.7,354 
L376.5,354 
L379.3,354 
L382.2,354 
L385,354 
L387.8,354 
L390.7,354 
L393.5,354 
L396.4,354 
L399.2,354 
L402,354 
L404.9,354 
L407.7,354 
L410.5,354 
L413.4,354 
L416.2,354 
L419.1,354 
L421.9,354 
L424.7,354 
L427.6,354 
L430.4,354 
L433.2,354 
L436.1,354 
L438.9,354 
L441.7,354 
L444.6,354 
L447.4,354 
L450.3,354 
L453.1,354 
L455.9,354 
L458.8,354 
L461.6,354 
L464.4,354 
L467.3,354 
L470.1,354 
L473,354 
L475.8,354 
L478.6,354 
L481.5,354 
L484.3,354 
L487.1,354 
L490,354 
L492.8,354 
L495.7,354 
L498.5,354 
L501.3,354 
L504.2,354 
L507,354 
L509.8,354 
L512.7,354 
L515.5,354 
L518.3,354 
L521.2,354 
L524,354 
L526.9,354 
L529.7,354 
L532.5,354 
L535.4,354 
L538.2,354 
L541,354 
L543.9,354 
L546.7,354 
L549.6,354 
L552.4,354 
L555.2,354 
L558.1,354 
L560.9,354 
L563.7,354 
L566.6,354 
L569.4,354 
L572.2,354 
L575.1,354 
L577.9,354 
L580.8,354 
L583.6,354 
L586.4,354 
L589.3,354 
L592.1,354 
L594.9,354 
L597.8,354 
L600.6,354 
L603.5,354 
L606.3,354 
L609.1,354 
L612,354 
L614.8,354 
L617.6,354 
L620.5,354 
L623.3,354 
L626.2,354 
L629,354 
L631.8,354 
L634.7,354 
" fill="none"/>
</g>
	<g clip-path="url(#plot_window)" stroke="rgb(139,0,0)" stroke-width="1">
	<path d="M70.1,354 L70.1,354 
L72.94,353.9 
L75.77,353.6 
L78.61,353.1 
L81.45,352.3 
L84.28,351.4 
L87.12,350.2 
L89.96,348.8 
L92.8,347.3 
L95.63,345.5 
L98.47,343.5 
L101.3,341.3 
L104.1,338.9 
L107,336.4 
L109.8,333.6 
L112.7,330.7 
L115.5,327.5 
L118.3,324.2 
L121.2,320.8 
L124,317.2 
L126.8,313.4 
L129.7,309.6 
L132.5,305.6 
L135.4,301.5 
L138.2,297.3 
L141,293 
L143.9,288.7 
L146.7,284.3 
L149.5,279.9 
L152.4,275.4 
L155.2,271 
L158,266.6 
L160.9,262.3 
L163.7,258 
L166.6,253.8 
L169.4,249.7 
L172.2,245.7 
L175.1,241.9 
L177.9,238.2 
L180.7,234.7 
L183.6,231.4 
L186.4,228.3 
L189.3,225.5 
L192.1,222.9 
L194.9,220.6 
L197.8,218.5 
L200.6,216.8 
L203.4,215.3 
L206.3,214.2 
L209.1,213.3 
L212,212.8 
L214.8,212.6 
L217.6,212.8 
L220.5,213.2 
L223.3,214 
L226.1,215.1 
L229,216.5 
L231.8,218.2 
L234.6,220.2 
L237.5,222.5 
L240.3,225.1 
L243.2,227.8 
L246,230.9 
L248.8,234.1 
L251.7,237.5 
L254.5,241.1 
L257.3,244.9 
L260.2,248.8 
L263,252.8 
L265.9,256.9 
L268.7,261 
L271.5,265.2 
L274.4,269.4 
L277.2,273.7 
L280,277.9 
L282.9,282.1 
L285.7,286.2 
L288.5,290.2 
L291.4,294.2 
L294.2,298.1 
L297.1,301.9 
L299.9,305.5 
L302.7,309 
L305.6,312.4 
L308.4,315.6 
L311.2,318.7 
L314.1,321.6 
L316.9,324.4 
L319.8,327 
L322.6,329.4 
L325.4,331.7 
L328.3,333.8 
L331.1,335.8 
L333.9,337.7 
L336.8,339.4 
L339.6,340.9 
L342.5,342.4 
L345.3,343.7 
L348.1,344.9 
L351,345.9 
L353.8,346.9 
L356.6,347.8 
L359.5,348.6 
L362.3,349.3 
L365.1,349.9 
L368,350.4 
L370.8,350.9 
L373.7,351.4 
L376.5,351.7 
L379.3,352.1 
L382.2,352.4 
L385,352.6 
L387.8,352.8 
L390.7,353 
L393.5,353.2 
L396.4,353.3 
L399.2,353.4 
L402,353.5 
L404.9,353.6 
L407.7,353.7 
L410.5,353.7 
L413.4,353.8 
L416.2,353.8 
L419.1,353.9 
L421.9,353.9 
L424.7,353.9 
L427.6,353.9 
L430.4,353.9 
L433.2,354 
L436.1,354 
L438.9,354 
L441.7,354 
L444.6,354 
L447.4,354 
L450.3,354 
L453.1,354 
L455.9,354 
L458.8,354 
L461.6,354 
L464.4,354 
L467.3,354 
L470.1,354 
L473,354 
L475.8,354 
L478.6,354 
L481.5,354 
L484.3,354 
L487.1,354 
L490,354 
L492.8,354 
L495.7,354 
L498.5,354 
L501.3,354 
L504.2,354 
L507,354 
L509.8,354 
L512.7,354 
L515.5,354 
L518.3,354 
L521.2,354 
L524,354 
L526.9,354 
L529.7,354 
L532.5,354 
L535.4,354 
L538.2,354 
L541,354 
L543.9,354 
L546.7,354 
L549.6,354 
L552.4,354 
L555.2,354 
L558.1,354 
L560.9,354 
L563.7,354 
L566.6,354 
L569.4,354 
L572.2,354 
L575.1,354 
L577.9,354 
L580.8,354 
L583.6,354 
L586.4,354 
L589.3,354 
L592.1,354 
L594.9,354 
L597.8,354 
L600.6,354 
L603.5,354 
L606.3,354 
L609.1,354 
L612,354 
L614.8,354 
L617.6,354 
L620.5,354 
L623.3,354 
L626.2,354 
L629,354 
L631.8,354 
L634.7,354 
" fill="none"/>
</g>
	<g clip-path="url(#plot_window)" stroke="rgb(0,100,0)" stroke-width="1">
	<path d="M70.1,354 L70.1,354 
L72.94,354 
L75.77,353.9 
L78.61,353.9 
L81.45,353.8 
L84.28,353.7 
L87.12,353.5 
L89.96,353.4 
L92.8,353.2 
L95.63,352.9 
L98.47,352.7 
L101.3,352.4 
L104.1,352.1 
L107,351.8 
L109.8,351.4 
L112.7,351 
L115.5,350.6 
L118.3,350.2 
L121.2,349.7 
L124,349.3 
L126.8,348.7 
L129.7,348.2 
L132.5,347.7 
L135.4,347.1 
L138.2,346.5 
L141,345.8 
L143.9,345.2 
L146.7,344.5 
L149.5,343.8 
L152.4,343.1 
L155.2,342.3 
L158,341.6 
L160.9,340.8 
L163.7,340 
L166.6,339.1 
L169.4,338.3 
L172.2,337.4 
L175.1,336.5 
L177.9,335.6 
L180.7,334.7 
L183.6,333.7 
L186.4,332.8 
L189.3,331.8 
L192.1,330.8 
L194.9,329.8 
L197.8,328.8 
L200.6,327.7 
L203.4,326.7 
L206.3,325.6 
L209.1,324.6 
L212,323.5 
L214.8,322.4 
L217.6,321.3 
L220.5,320.2 
L223.3,319.1 
L226.1,318 
L229,316.9 
L231.8,315.8 
L234.6,314.7 
L237.5,313.6 
L240.3,312.5 
L243.2,311.4 
L246,310.3 
L248.8,309.2 
L251.7,308.1 
L254.5,307.1 
L257.3,306 
L260.2,304.9 
L263,303.9 
L265.9,302.9 
L268.7,301.8 
L271.5,300.8 
L274.4,299.9 
L277.2,298.9 
L280,297.9 
L282.9,297 
L285.7,296.1 
L288.5,295.2 
L291.4,294.4 
L294.2,293.5 
L297.1,292.7 
L299.9,291.9 
L302.7,291.2 
L305.6,290.4 
L308.4,289.7 
L311.2,289.1 
L314.1,288.5 
L316.9,287.9 
L319.8,287.3 
L322.6,286.8 
L325.4,286.3 
L328.3,285.8 
L331.1,285.4 
L333.9,285 
L336.8,284.7 
L339.6,284.4 
L342.5,284.1 
L345.3,283.9 
L348.1,283.7 
L351,283.5 
L353.8,283.4 
L356.6,283.3 
L359.5,283.3 
L362.3,283.3 
L365.1,283.4 
L368,283.5 
L370.8,283.6 
L373.7,283.8 
L376.5,284 
L379.3,284.3 
L382.2,284.6 
L385,284.9 
L387.8,285.3 
L390.7,285.7 
L393.5,286.1 
L396.4,286.6 
L399.2,287.1 
L402,287.7 
L404.9,288.3 
L407.7,288.9 
L410.5,289.5 
L413.4,290.2 
L416.2,290.9 
L419.1,291.7 
L421.9,292.4 
L424.7,293.2 
L427.6,294 
L430.4,294.9 
L433.2,295.8 
L436.1,296.7 
L438.9,297.6 
L441.7,298.5 
L444.6,299.4 
L447.4,300.4 
L450.3,301.4 
L453.1,302.4 
L455.9,303.4 
L458.8,304.4 
L461.6,305.4 
L464.4,306.5 
L467.3,307.5 
L470.1,308.6 
L473,309.6 
L475.8,310.7 
L478.6,311.7 
L481.5,312.8 
L484.3,313.8 
L487.1,314.9 
L490,315.9 
L492.8,317 
L495.7,318 
L498.5,319.1 
L501.3,320.1 
L504.2,321.1 
L507,322.1 
L509.8,323.1 
L512.7,324.1 
L515.5,325.1 
L518.3,326 
L521.2,327 
L524,327.9 
L526.9,328.8 
L529.7,329.7 
L532.5,330.6 
L535.4,331.5 
L538.2,332.4 
L541,333.2 
L543.9,334 
L546.7,334.8 
L549.6,335.6 
L552.4,336.3 
L555.2,337.1 
L558.1,337.8 
L560.9,338.5 
L563.7,339.2 
L566.6,339.8 
L569.4,340.5 
L572.2,341.1 
L575.1,341.7 
L577.9,342.3 
L580.8,342.9 
L583.6,343.4 
L586.4,343.9 
L589.3,344.4 
L592.1,344.9 
L594.9,345.4 
L597.8,345.8 
L600.6,346.3 
L603.5,346.7 
L606.3,347.1 
L609.1,347.5 
L612,347.8 
L614.8,348.2 
L617.6,348.5 
L620.5,348.8 
L623.3,349.1 
L626.2,349.4 
L629,349.7 
L631.8,350 
L634.7,350.2 
" fill="none"/>
</g>
</g>
	<g id="plotPoints" clip-path="url(#plot_window)">
</g>
	<g id="legendBackground" stroke="rgb(119,136,153)" fill="rgb(255,255,255)" stroke-width="1">
	<rect x="643.5" y="43" width="92.5" height="64.5"/>
</g>
	<g id="legendPoints">
</g>
	<g id="legendLines">
	<g stroke="rgb(0,0,139)" stroke-width="1">
	<line x1="658.8" y1="62.75" x2="664.8" y2="62.75"/>
</g>
	<g stroke="rgb(139,0,0)" stroke-width="1">
	<line x1="658.8" y1="75.25" x2="664.8" y2="75.25"/>
</g>
	<g stroke="rgb(0,100,0)" stroke-width="1">
	<line x1="658.8" y1="87.75" x2="664.8" y2="87.75"/>
</g>
</g>
	<g id="legendText">
	<text x="673.8" y="62.75" font-size="10" font-family="Lucida Sans Unicode" font-weight="normal" textLength="54">scale=0.5
	</text>
	<text x="673.8" y="75.25" font-size="10" font-family="Lucida Sans Unicode" font-weight="normal" textLength="42">scale=1
	</text>
	<text x="673.8" y="87.75" font-size="10" font-family="Lucida Sans Unicode" font-weight="normal" textLength="42">scale=2
	</text>
</g>
	<g id="title">
	<text x="375" y="30" text-anchor="middle" font-size="20" font-family="Lucida Sans Unicode" font-weight="normal">Weibull Distribution PDF (shape=3)
	</text>
</g>
	<g id="plotXValues">
</g>
	<g id="plotYValues">
</g>
</svg>
