<?xml version="1.0" encoding="UTF-8" standalone="no"?>
<svg width="500" height ="200" version="1.1"
xmlns:svg ="http://www.w3.org/2000/svg"
xmlns:rdf="http://www.w3.org/1999/02/22-rdf-syntax-ns#"
xmlns:cc="http://web.resource.org/cc/"
xmlns:dc="http://purl.org/dc/elements/1.1/"
xmlns ="http://www.w3.org/2000/svg"
>
<!-- SVG plot written using Boost.Plot program (Creator Jacob Voytko) --> 
<!-- Use, modification and distribution of Boost.Plot subject to the --> 
<!-- Boost Software License, Version 1.0.--> 
<!-- (See accompanying file LICENSE_1_0.txt --> 
<!-- or copy at http://www.boost.org/LICENSE_1_0.txt) --> 

<!-- File ./1d_x_grid.svg --> 
<g id="imageBackground" stroke="rgb(0,0,0)" fill="rgb(255,255,255)" stroke-width="1"><rect x="0" y="0" width="500" height="200"/></g>
<g id="plotBackground" stroke="rgb(255,255,0)" fill="rgb(255,255,255)" stroke-width="1"><rect x="11" y="56" width="372" height="83.2"/></g>
<g id="xMinorGrid" stroke="rgb(211,211,211)" stroke-width="0.5"><path d="M54.5,57 L54.5,138 M66.9,57 L66.9,138 M79.3,57 L79.3,138 M91.7,57 L91.7,138 M117,57 L117,138 M129,57 L129,138 M141,57 L141,138 M154,57 L154,138 M179,57 L179,138 M191,57 L191,138 M203,57 L203,138 M216,57 L216,138 M241,57 L241,138 M253,57 L253,138 M266,57 L266,138 M278,57 L278,138 M303,57 L303,138 M315,57 L315,138 M328,57 L328,138 M340,57 L340,138 M365,57 L365,138 M377,57 L377,138 M29.6,57 L29.6,138 M17.2,57 L17.2,138 " fill="none"/></g>
<g id="xMajorGrid" stroke="rgb(0,0,0)" stroke-width="1"><path d="M42,56 L42,139 M104,56 L104,139 M166,56 L166,139 M228,56 L228,139 M290,56 L290,139 M352,56 L352,139 M42,56 L42,139 " fill="none"/></g>
<g id="xAxis" stroke="rgb(0,0,0)" stroke-width="1"><line x1="42" y1="56" x2="42" y2="139"/><line x1="11" y1="109" x2="383" y2="109"/><line x1="11" y1="139" x2="383" y2="139"/></g>
<g id="xMinorTicks" stroke="rgb(0,0,0)" stroke-width="1"><path d="M54.5,139 L54.5,141 M66.9,139 L66.9,141 M79.3,139 L79.3,141 M91.7,139 L91.7,141 M117,139 L117,141 M129,139 L129,141 M141,139 L141,141 M154,139 L154,141 M179,139 L179,141 M191,139 L191,141 M203,139 L203,141 M216,139 L216,141 M241,139 L241,141 M253,139 L253,141 M266,139 L266,141 M278,139 L278,141 M303,139 L303,141 M315,139 L315,141 M328,139 L328,141 M340,139 L340,141 M365,139 L365,141 M377,139 L377,141 M29.6,139 L29.6,141 M17.2,139 L17.2,141 " fill="none"/></g>
<g id="xMajorTicks" stroke="rgb(0,0,0)" stroke-width="2"><path d="M42,139 L42,144 M104,139 L104,144 M166,139 L166,144 M228,139 L228,144 M290,139 L290,144 M352,139 L352,144 M42,139 L42,144 " fill="none"/></g>
<g id="plotLabels">
<text x="42" y="159" text-anchor="middle" font-size="12" font-family="Verdana">0</text>
<text x="104" y="159" text-anchor="middle" font-size="12" font-family="Verdana">2</text>
<text x="166" y="159" text-anchor="middle" font-size="12" font-family="Verdana">4</text>
<text x="228" y="159" text-anchor="middle" font-size="12" font-family="Verdana">6</text>
<text x="290" y="159" text-anchor="middle" font-size="12" font-family="Verdana">8</text>
<text x="352" y="159" text-anchor="middle" font-size="12" font-family="Verdana">10</text>
<text x="42" y="159" text-anchor="middle" font-size="12" font-family="Verdana">0</text></g>
<g id="xLabel">
<text x="197" y="185" text-anchor="middle" font-size="14" font-family="Verdana"></text></g>
<g id="plotPoints"><g stroke="rgb(0,0,255)"><line x1="138" y1="103" x2="138" y2="92.6"/><line x1="172" y1="103" x2="172" y2="92.6"/></g>
<g stroke="rgb(255,165,0)"><line x1="107" y1="103" x2="107" y2="92.6"/><line x1="284" y1="103" x2="284" y2="92.6"/></g>
</g>
<g id="legendBackground" stroke="rgb(255,255,0)" fill="rgb(255,255,255)" stroke-width="1"><rect x="395" y="56" width="93.5" height="70"/><rect x="395" y="56" width="93.5" height="70"/></g>
<g id="legendPoints"><g stroke="rgb(0,0,255)" stroke-width="2"><line x1="409" y1="89" x2="409" y2="79"/></g>
<g stroke="rgb(255,165,0)" stroke-width="2"><line x1="409" y1="117" x2="409" y2="107"/></g>
</g>
<g id="legendText">
<text x="430" y="84" font-size="14" font-family="Verdana">Dan</text>
<text x="430" y="112" font-size="14" font-family="Verdana">Elaine</text></g>
<g id="title">
<text x="250" y="36" text-anchor="middle" font-size="18" font-family="Verdana">Race Times</text></g>
</svg>
