<?xml version="1.0" encoding="UTF-8" standalone="no"?>
<svg width="700" height ="500" version="1.1"
xmlns:svg ="http://www.w3.org/2000/svg"
xmlns:rdf="http://www.w3.org/1999/02/22-rdf-syntax-ns#"
xmlns:cc="http://web.resource.org/cc/"
xmlns:dc="http://purl.org/dc/elements/1.1/"
xmlns ="http://www.w3.org/2000/svg"
>
<!-- SVG plot written using Boost.Plot program (Creator Jacob Voytko) --> 
<!-- Use, modification and distribution of Boost.Plot subject to the --> 
<!-- Boost Software License, Version 1.0.--> 
<!-- (See accompanying file LICENSE_1_0.txt --> 
<!-- or copy at http://www.boost.org/LICENSE_1_0.txt) --> 

<clipPath id="plot_window"><rect x="54.4" y="85.5" width="500" height="343"/></clipPath>
<g id="imageBackground" stroke="rgb(255,255,0)" fill="rgb(67,111,69)" stroke-width="2"><rect x="0" y="0" width="700" height="500"/></g>
<g id="plotBackground" stroke="rgb(119,136,153)" fill="rgb(136,188,126)" stroke-width="2"><rect x="53.4" y="84.5" width="502" height="345"/></g>
<g id="yMinorGrid" stroke="rgb(200,220,255)" stroke-width="0.5"></g>
<g id="yMajorGrid" stroke="rgb(0,0,0)" stroke-width="1"><path d="M55.4,257 L553,257 M55.4,257 L553,257 " fill="none"/></g>
<g id="xMinorGrid" stroke="rgb(200,220,255)" stroke-width="0.5"></g>
<g id="xMajorGrid" stroke="rgb(200,220,255)" stroke-width="1"></g>
<g id="yAxis" stroke="rgb(0,0,0)" stroke-width="1"><line x1="76.2" y1="84.5" x2="76.2" y2="443"/><line x1="53.4" y1="84.5" x2="53.4" y2="429"/></g>
<g id="xAxis" stroke="rgb(0,0,0)" stroke-width="1"><line x1="48.4" y1="257" x2="555" y2="257"/><line x1="48.4" y1="429" x2="555" y2="429"/></g>
<g id="yMinorTicks" stroke="rgb(0,0,0)" stroke-width="1"><path d="M51.4,257 L53.4,257 " fill="none"/></g>
<g id="xMinorTicks" stroke="rgb(0,0,0)" stroke-width="1"><path d="M99,429 L99,436 M122,429 L122,436 M145,429 L145,436 M190,429 L190,436 M213,429 L213,436 M236,429 L236,436 M282,429 L282,436 M304,429 L304,436 M327,429 L327,436 M373,429 L373,436 M396,429 L396,436 M419,429 L419,436 M464,429 L464,436 M487,429 L487,436 M510,429 L510,436 M555,429 L555,436 " fill="none"/></g>
<g id="yMajorTicks" stroke="rgb(0,0,0)" stroke-width="2"><path d="M48.4,257 L53.4,257 M48.4,257 L53.4,257 " fill="none"/></g>
<g id="xMajorTicks" stroke="rgb(0,0,0)" stroke-width="1"><path d="M76.2,429 L76.2,443 M168,429 L168,443 M259,429 L259,443 M350,429 L350,443 M441,429 L441,443 M533,429 L533,443 M76.2,429 L76.2,443 " fill="none"/></g>
<g id="plotLabels">
<text x="76.2" y="458" text-anchor="middle" font-size="12" font-family="Verdana">0</text>
<text x="168" y="458" text-anchor="middle" font-size="12" font-family="Verdana">2</text>
<text x="259" y="458" text-anchor="middle" font-size="12" font-family="Verdana">4</text>
<text x="350" y="458" text-anchor="middle" font-size="12" font-family="Verdana">6</text>
<text x="441" y="458" text-anchor="middle" font-size="12" font-family="Verdana">8</text>
<text x="533" y="458" text-anchor="middle" font-size="12" font-family="Verdana">10</text>
<text x="76.2" y="458" text-anchor="middle" font-size="12" font-family="Verdana">0</text>
<text x="42.4" y="259" text-anchor="end" font-size="12" font-family="Verdana">0</text>
<text x="42.4" y="259" text-anchor="end" font-size="12" font-family="Verdana">0</text></g>
<g id="yLabel">
<text x="30.2" y="257" text-anchor="middle" transform = "rotate(-90 30.2 257 )" font-size="14" font-family="Verdana"></text></g>
<g id="xLabel">
<text x="304" y="484" text-anchor="middle" font-size="14" font-family="Verdana">X Axis Units</text></g>
<g id="plotLines" stroke-width="2"><g clip-path="url(#plot_window)" stroke="rgb(0,0,0)" stroke-width="2"><path d="M76.2,257 L94.1,197 L112,146 L130,112 L148,100 L166,112 L184,146 L202,197 L220,257 L238,317 L255,368 L273,402 L291,414 L309,402 L327,368 L345,317 L363,257 L381,197 L399,146 L417,112 L435,100 L453,112 L471,146 L488,197 L506,257 L524,317 " fill="none"/></g>
<g clip-path="url(#plot_window)" stroke="rgb(0,0,255)"><path d="M76.2,100 S90.6,108 94.1,112 S108,138 112,146 S126,186 130,197 S144,245 148,257 S162,306 166,317 S180,359 184,368 S198,397 202,402 S216,414 220,414 S234,406 238,402 S252,376 255,368 S270,328 273,317 S288,269 291,257 S306,208 309,197 S324,155 327,146 S341,117 345,112 S359,100 363,100 S377,108 381,112 S395,138 399,146 S413,186 417,197 S431,245 435,257 S449,306 453,317 S467,359 471,368 S485,397 488,402 S503,414 506,414 S524,400 524,402 " fill="none"/></g>
</g>
<g id="plotPoints" clip-path="url(#plot_window)"><g stroke="rgb(0,0,0)" fill="rgb(255,255,0)"><circle cx="76.2" cy="257" r="2"/><circle cx="94.1" cy="197" r="2"/><circle cx="112" cy="146" r="2"/><circle cx="130" cy="112" r="2"/><circle cx="148" cy="100" r="2"/><circle cx="166" cy="112" r="2"/><circle cx="184" cy="146" r="2"/><circle cx="202" cy="197" r="2"/><circle cx="220" cy="257" r="2"/><circle cx="238" cy="317" r="2"/><circle cx="255" cy="368" r="2"/><circle cx="273" cy="402" r="2"/><circle cx="291" cy="414" r="2"/><circle cx="309" cy="402" r="2"/><circle cx="327" cy="368" r="2"/><circle cx="345" cy="317" r="2"/><circle cx="363" cy="257" r="2"/><circle cx="381" cy="197" r="2"/><circle cx="399" cy="146" r="2"/><circle cx="417" cy="112" r="2"/><circle cx="435" cy="100" r="2"/><circle cx="453" cy="112" r="2"/><circle cx="471" cy="146" r="2"/><circle cx="488" cy="197" r="2"/><circle cx="506" cy="257" r="2"/><circle cx="524" cy="317" r="2"/></g>
<g stroke="rgb(0,0,0)" fill="rgb(255,0,0)"><rect x="73.7" y="97.7" width="5" height="5"/><rect x="91.6" y="110" width="5" height="5"/><rect x="110" y="144" width="5" height="5"/><rect x="127" y="194" width="5" height="5"/><rect x="145" y="254" width="5" height="5"/><rect x="163" y="314" width="5" height="5"/><rect x="181" y="365" width="5" height="5"/><rect x="199" y="399" width="5" height="5"/><rect x="217" y="411" width="5" height="5"/><rect x="235" y="399" width="5" height="5"/><rect x="253" y="365" width="5" height="5"/><rect x="271" y="314" width="5" height="5"/><rect x="289" y="254" width="5" height="5"/><rect x="307" y="194" width="5" height="5"/><rect x="325" y="144" width="5" height="5"/><rect x="343" y="110" width="5" height="5"/><rect x="360" y="97.7" width="5" height="5"/><rect x="378" y="110" width="5" height="5"/><rect x="396" y="144" width="5" height="5"/><rect x="414" y="194" width="5" height="5"/><rect x="432" y="254" width="5" height="5"/><rect x="450" y="314" width="5" height="5"/><rect x="468" y="365" width="5" height="5"/><rect x="486" y="399" width="5" height="5"/><rect x="504" y="411" width="5" height="5"/><rect x="522" y="399" width="5" height="5"/></g>
</g>
<g id="legendBackground" stroke="rgb(102,102,84)" fill="rgb(207,202,167)" stroke-width="1"><rect x="569" y="84.5" width="119" height="75"/><rect x="569" y="84.5" width="119" height="75"/></g>
<g id="legendPoints"><g stroke="rgb(0,0,0)" fill="rgb(255,255,0)" stroke-width="2"><circle cx="584" cy="115" r="2"/><line x1="607" y1="115" x2="622" y2="115"/></g>
<g stroke="rgb(0,0,255)" fill="rgb(255,0,0)" stroke-width="2"><rect x="582" y="142" width="5" height="5"/><line x1="607" y1="145" x2="622" y2="145"/></g>
</g>
<g id="legendText">
<text x="629" y="115" font-size="15" font-family="Verdana">Sin(x)</text>
<text x="629" y="145" font-size="15" font-family="Verdana">Cos(x)</text></g>
<g id="title" fill="rgb(255,255,255)">
<text x="350" y="58" text-anchor="middle" font-size="29" font-family="Verdana">Plot of sin and cos functions</text></g>
<g id="plotXValues"></g>
<g id="plotYValues"></g>
</svg>
