<?xml version="1.0" encoding="UTF-8" standalone="no"?>
<svg width="500" height ="400" version="1.1"
xmlns:svg ="http://www.w3.org/2000/svg"
xmlns:rdf="http://www.w3.org/1999/02/22-rdf-syntax-ns#"
xmlns:cc="http://web.resource.org/cc/"
xmlns:dc="http://purl.org/dc/elements/1.1/"
xmlns ="http://www.w3.org/2000/svg"
>
<!-- SVG plot written using Boost.Plot program (Creator Jacob Voytko) --> 
<!-- Use, modification and distribution of Boost.Plot subject to the --> 
<!-- Boost Software License, Version 1.0.--> 
<!-- (See accompanying file LICENSE_1_0.txt --> 
<!-- or copy at http://www.boost.org/LICENSE_1_0.txt) --> 

<clipPath id="plot_window"><rect x="57.2" y="54" width="272" height="314"/></clipPath>
<g id="imageBackground" stroke="rgb(0,0,0)" fill="rgb(255,255,255)" stroke-width="2"><rect x="0" y="0" width="500" height="400"/></g>
<g id="plotBackground" stroke="rgb(119,136,153)" fill="rgb(255,255,255)" stroke-width="2"><rect x="56.2" y="53" width="274" height="316"/></g>
<g id="yMinorGrid" stroke="rgb(200,220,255)" stroke-width="0.5"></g>
<g id="yMajorGrid" stroke="rgb(200,220,255)" stroke-width="1"></g>
<g id="xMinorGrid" stroke="rgb(200,220,255)" stroke-width="0.5"></g>
<g id="xMajorGrid" stroke="rgb(200,220,255)" stroke-width="1"></g>
<g id="yAxis" stroke="rgb(0,0,0)" stroke-width="1"><line x1="79" y1="53" x2="79" y2="374"/><line x1="56.2" y1="53" x2="56.2" y2="369"/></g>
<g id="xAxis" stroke="rgb(0,0,0)" stroke-width="1"><line x1="51.2" y1="211" x2="330" y2="211"/><line x1="51.2" y1="369" x2="330" y2="369"/></g>
<g id="yMinorTicks" stroke="rgb(0,0,0)" stroke-width="1"><path d="M54.2,205 L56.2,205 M54.2,198 L56.2,198 M54.2,192 L56.2,192 M54.2,186 L56.2,186 M54.2,173 L56.2,173 M54.2,167 L56.2,167 M54.2,160 L56.2,160 M54.2,154 L56.2,154 M54.2,141 L56.2,141 M54.2,135 L56.2,135 M54.2,129 L56.2,129 M54.2,123 L56.2,123 M54.2,110 L56.2,110 M54.2,104 L56.2,104 M54.2,97.2 L56.2,97.2 M54.2,90.9 L56.2,90.9 M54.2,78.3 L56.2,78.3 M54.2,72 L56.2,72 M54.2,65.6 L56.2,65.6 M54.2,59.3 L56.2,59.3 M54.2,211 L56.2,211 M54.2,217 L56.2,217 M54.2,224 L56.2,224 M54.2,230 L56.2,230 M54.2,236 L56.2,236 M54.2,243 L56.2,243 M54.2,249 L56.2,249 M54.2,255 L56.2,255 M54.2,262 L56.2,262 M54.2,268 L56.2,268 M54.2,274 L56.2,274 M54.2,274 L56.2,274 M54.2,281 L56.2,281 M54.2,287 L56.2,287 M54.2,293 L56.2,293 M54.2,299 L56.2,299 M54.2,306 L56.2,306 M54.2,312 L56.2,312 M54.2,318 L56.2,318 M54.2,325 L56.2,325 M54.2,331 L56.2,331 M54.2,337 L56.2,337 M54.2,344 L56.2,344 M54.2,350 L56.2,350 M54.2,356 L56.2,356 M54.2,363 L56.2,363 M54.2,369 L56.2,369 " fill="none"/></g>
<g id="xMinorTicks" stroke="rgb(0,0,0)" stroke-width="1"><path d="M88.1,369 L88.1,371 M97.2,369 L97.2,371 M106,369 L106,371 M115,369 L115,371 M134,369 L134,371 M143,369 L143,371 M152,369 L152,371 M161,369 L161,371 M179,369 L179,371 M188,369 L188,371 M198,369 L198,371 M207,369 L207,371 M225,369 L225,371 M234,369 L234,371 M243,369 L243,371 M252,369 L252,371 M271,369 L271,371 M280,369 L280,371 M289,369 L289,371 M298,369 L298,371 M316,369 L316,371 M325,369 L325,371 M69.9,369 L69.9,371 M60.8,369 L60.8,371 " fill="none"/></g>
<g id="yMajorTicks" stroke="rgb(0,0,0)" stroke-width="2"><path d="M51.2,211 L56.2,211 M51.2,179 L56.2,179 M51.2,148 L56.2,148 M51.2,116 L56.2,116 M51.2,84.6 L56.2,84.6 M51.2,53 L56.2,53 M51.2,211 L56.2,211 M51.2,243 L56.2,243 M51.2,274 L56.2,274 M51.2,306 L56.2,306 M51.2,337 L56.2,337 M51.2,369 L56.2,369 " fill="none"/></g>
<g id="xMajorTicks" stroke="rgb(0,0,0)" stroke-width="2"><path d="M79,369 L79,374 M125,369 L125,374 M170,369 L170,374 M216,369 L216,374 M261,369 L261,374 M307,369 L307,374 M79,369 L79,374 " fill="none"/></g>
<g id="xTicksValues">
<text x="79" y="390" text-anchor="middle" font-size="12" font-family="Verdana">0</text>
<text x="125" y="390" text-anchor="middle" font-size="12" font-family="Verdana">2</text>
<text x="170" y="390" text-anchor="middle" font-size="12" font-family="Verdana">4</text>
<text x="216" y="390" text-anchor="middle" font-size="12" font-family="Verdana">6</text>
<text x="261" y="390" text-anchor="middle" font-size="12" font-family="Verdana">8</text>
<text x="307" y="390" text-anchor="middle" font-size="12" font-family="Verdana">10</text>
<text x="79" y="390" text-anchor="middle" font-size="12" font-family="Verdana">0</text></g>
<g id="yTicksValues">
<text x="45.2" y="213" text-anchor="end" font-size="12" font-family="Verdana">0</text>
<text x="45.2" y="182" text-anchor="end" font-size="12" font-family="Verdana">2</text>
<text x="45.2" y="150" text-anchor="end" font-size="12" font-family="Verdana">4</text>
<text x="45.2" y="119" text-anchor="end" font-size="12" font-family="Verdana">6</text>
<text x="45.2" y="87" text-anchor="end" font-size="12" font-family="Verdana">8</text>
<text x="45.2" y="55.4" text-anchor="end" font-size="12" font-family="Verdana">10</text>
<text x="45.2" y="213" text-anchor="end" font-size="12" font-family="Verdana">0</text>
<text x="45.2" y="245" text-anchor="end" font-size="12" font-family="Verdana">-2</text>
<text x="45.2" y="277" text-anchor="end" font-size="12" font-family="Verdana">-4</text>
<text x="45.2" y="308" text-anchor="end" font-size="12" font-family="Verdana">-6</text>
<text x="45.2" y="340" text-anchor="end" font-size="12" font-family="Verdana">-8</text>
<text x="45.2" y="371" text-anchor="end" font-size="12" font-family="Verdana">-10</text></g>
<g id="yLabel">
<text x="14.9" y="211" text-anchor="middle" transform = "rotate(-90 14.9 211 )" font-size="14" font-family="Verdana"></text></g>
<g id="xLabel">
<text x="193" y="405" text-anchor="middle" font-size="14" font-family="Verdana"></text></g>
<g id="plotPoints" clip-path="url(#plot_window)"><g stroke="rgb(0,0,255)" fill="rgb(255,255,255)"><circle cx="102" cy="160" r="2"/><circle cx="125" cy="126" r="2"/><circle cx="245" cy="67.2" r="2"/></g>
<g stroke="rgb(255,165,0)" fill="rgb(255,255,255)"><circle cx="150" cy="115" r="2"/><circle cx="202" cy="100" r="2"/></g>
</g>
<g id="legendBackground" stroke="rgb(255,255,0)" fill="rgb(255,255,255)" stroke-width="1"><rect x="344" y="53" width="130" height="70"/><rect x="344" y="53" width="130" height="70"/></g>
<g id="legendPoints"><g stroke="rgb(0,0,255)" fill="rgb(255,255,255)" stroke-width="2"><circle cx="358" cy="81" r="2"/><line x1="379" y1="81" x2="393" y2="81"/></g>
<g stroke="rgb(255,165,0)" fill="rgb(255,255,255)" stroke-width="2"><circle cx="358" cy="109" r="2"/><line x1="379" y1="109" x2="393" y2="109"/></g>
</g>
<g id="legendText">
<text x="400" y="81" font-size="14" font-family="Verdana">Series 1</text>
<text x="400" y="109" font-size="14" font-family="Verdana">Series 2</text></g>
<g id="title">
<text x="250" y="36" text-anchor="middle" font-size="18" font-family="Verdana">Race Times</text></g>
<g id="plotXValues"></g>
<g id="plotYValues"></g>
</svg>
