<?xml version="1.0" encoding="UTF-8" standalone="no"?>
<svg width="500" height ="200" version="1.1"
xmlns:svg ="http://www.w3.org/2000/svg"
xmlns:rdf="http://www.w3.org/1999/02/22-rdf-syntax-ns#"
xmlns:cc="http://web.resource.org/cc/"
xmlns:dc="http://purl.org/dc/elements/1.1/"
xmlns ="http://www.w3.org/2000/svg"
>
<!-- SVG plot written using Boost.Plot program (Creator Jacob Voytko) --> 
<!-- Use, modification and distribution of Boost.Plot subject to the --> 
<!-- Boost Software License, Version 1.0.--> 
<!-- (See accompanying file LICENSE_1_0.txt --> 
<!-- or copy at http://www.boost.org/LICENSE_1_0.txt) --> 

<!-- File auto_1d_containers.svg --> 
<g id="imageBackground" stroke="rgb(255,255,0)" fill="rgb(255,255,255)" stroke-width="1"><rect x="0" y="0" width="500" height="200"/></g>
<g id="plotBackground" stroke="rgb(255,255,0)" fill="rgb(255,255,255)" stroke-width="1"><rect x="11" y="56" width="478" height="83.2"/></g>
<g id="xMinorGrid" stroke="rgb(200,220,255)" stroke-width="0.5"></g>
<g id="xMajorGrid" stroke="rgb(200,220,255)" stroke-width="1"></g>
<g id="xAxis" stroke="rgb(0,0,0)" stroke-width="1"><line x1="11" y1="56" x2="11" y2="139"/><line x1="11" y1="109" x2="489" y2="109"/><line x1="11" y1="139" x2="489" y2="139"/></g>
<g id="xMinorTicks" stroke="rgb(0,0,0)" stroke-width="1"><path d="M26.9,139 L26.9,141 M42.9,139 L42.9,141 M58.8,139 L58.8,141 M74.7,139 L74.7,141 M107,139 L107,141 M123,139 L123,141 M138,139 L138,141 M154,139 L154,141 M186,139 L186,141 M202,139 L202,141 M218,139 L218,141 M234,139 L234,141 M266,139 L266,141 M282,139 L282,141 M298,139 L298,141 M314,139 L314,141 M346,139 L346,141 M362,139 L362,141 M377,139 L377,141 M393,139 L393,141 M425,139 L425,141 M441,139 L441,141 M457,139 L457,141 M473,139 L473,141 " fill="none"/></g>
<g id="xMajorTicks" stroke="rgb(0,0,0)" stroke-width="2"><path d="M11,139 L11,144 M90.7,139 L90.7,144 M170,139 L170,144 M250,139 L250,144 M330,139 L330,144 M409,139 L409,144 M489,139 L489,144 M11,139 L11,144 " fill="none"/></g>
<g id="plotLabels">
<text x="11" y="159" text-anchor="middle" font-size="12" font-family="Verdana">0</text>
<text x="90.7" y="159" text-anchor="middle" font-size="12" font-family="Verdana">2.5</text>
<text x="170" y="159" text-anchor="middle" font-size="12" font-family="Verdana">5</text>
<text x="250" y="159" text-anchor="middle" font-size="12" font-family="Verdana">7.5</text>
<text x="330" y="159" text-anchor="middle" font-size="12" font-family="Verdana">10</text>
<text x="409" y="159" text-anchor="middle" font-size="12" font-family="Verdana">12.5</text>
<text x="489" y="159" text-anchor="middle" font-size="12" font-family="Verdana">15</text>
<text x="11" y="159" text-anchor="middle" font-size="12" font-family="Verdana">0</text></g>
<g id="xLabel">
<text x="250" y="185" text-anchor="middle" font-size="14" font-family="Verdana"></text></g>
<g id="plotPoints"><g stroke="rgb(0,0,0)"><line x1="17.4" y1="103" x2="17.4" y2="92.6"/><line x1="46.1" y1="103" x2="46.1" y2="92.6"/><line x1="145" y1="103" x2="145" y2="92.6"/><line x1="116" y1="103" x2="116" y2="92.6"/><line x1="183" y1="103" x2="183" y2="92.6"/><line x1="218" y1="103" x2="218" y2="92.6"/></g>
<g stroke="rgb(255,0,0)"><line x1="25.7" y1="103" x2="25.7" y2="92.6"/><line x1="91.6" y1="103" x2="91.6" y2="92.6"/><line x1="319" y1="103" x2="319" y2="92.6"/><line x1="253" y1="103" x2="253" y2="92.6"/><line x1="407" y1="103" x2="407" y2="92.6"/><line x1="487" y1="103" x2="487" y2="92.6"/></g>
</g>
<g id="title">
<text x="250" y="36" text-anchor="middle" font-size="18" font-family="Verdana"></text></g>
</svg>
