<?xml version="1.0" encoding="UTF-8" standalone="no"?>
<svg width="700" height ="500" version="1.1"
xmlns:svg ="http://www.w3.org/2000/svg"
xmlns:rdf="http://www.w3.org/1999/02/22-rdf-syntax-ns#"
xmlns:cc="http://web.resource.org/cc/"
xmlns:dc="http://purl.org/dc/elements/1.1/"
xmlns ="http://www.w3.org/2000/svg"
>
<!-- SVG plot written using Boost.Plot program (Creator Jacob Voytko) --> 
<!-- Use, modification and distribution of Boost.Plot subject to the --> 
<!-- Boost Software License, Version 1.0.--> 
<!-- (See accompanying file LICENSE_1_0.txt --> 
<!-- or copy at http://www.boost.org/LICENSE_1_0.txt) --> 

<clipPath id="plot_window"><rect x="51" y="63" width="461" height="386"/></clipPath>
<g id="imageBackground" stroke="rgb(255,255,0)" fill="rgb(248,248,255)" stroke-width="2"><rect x="0" y="0" width="700" height="500"/></g>
<g id="plotBackground" stroke="rgb(0,128,0)" fill="rgb(255,255,255)" stroke-width="1"><rect x="50" y="62" width="463" height="388"/></g>
<g id="yMinorGrid" stroke="rgb(240,240,255)" stroke-width="1"><path d="M51,76.4 L512,76.4 M51,105 L512,105 M51,134 L512,134 M51,163 L512,163 M51,191 L512,191 M51,191 L512,191 M51,220 L512,220 M51,249 L512,249 M51,278 L512,278 M51,306 L512,306 M51,335 L512,335 M51,364 L512,364 M51,393 L512,393 M51,421 L512,421 M51,450 L512,450 M51,450 L512,450 " fill="none"/></g>
<g id="yMajorGrid" stroke="rgb(200,220,255)" stroke-width="2"><path d="M51,105 L512,105 M51,191 L512,191 M51,278 L512,278 M51,364 L512,364 M51,450 L512,450 " fill="none"/></g>
<g id="xMinorGrid" stroke="rgb(240,240,255)" stroke-width="0.5"><path d="M120,63 L120,449 M148,63 L148,449 M204,63 L204,449 M232,63 L232,449 M288,63 L288,449 M316,63 L316,449 M372,63 L372,449 M400,63 L400,449 M457,63 L457,449 M485,63 L485,449 M64,63 L64,449 " fill="none"/></g>
<g id="xMajorGrid" stroke="rgb(200,220,255)" stroke-width="1"><path d="M92.1,62 L92.1,450 M176,62 L176,450 M260,62 L260,450 M344,62 L344,450 M428,62 L428,450 M513,62 L513,450 M92.1,62 L92.1,450 " fill="none"/></g>
<g id="yAxis" stroke="rgb(0,0,0)" stroke-width="1"><line x1="92.1" y1="62" x2="92.1" y2="450"/><line x1="513" y1="62" x2="513" y2="450"/></g>
<g id="xAxis" stroke="rgb(0,0,0)" stroke-width="1"><line x1="50" y1="62" x2="513" y2="62"/></g>
<g id="yMinorTicks" stroke="rgb(0,0,0)" stroke-width="1"><path d="M87.1,76.4 L92.1,76.4 M87.1,105 L92.1,105 M87.1,134 L92.1,134 M87.1,163 L92.1,163 M87.1,191 L92.1,191 M87.1,191 L92.1,191 M87.1,220 L92.1,220 M87.1,249 L92.1,249 M87.1,278 L92.1,278 M87.1,306 L92.1,306 M87.1,335 L92.1,335 M87.1,364 L92.1,364 M87.1,393 L92.1,393 M87.1,421 L92.1,421 M87.1,450 L92.1,450 M87.1,450 L92.1,450 " fill="none"/></g>
<g id="xMinorTicks" stroke="rgb(0,0,0)" stroke-width="1"><path d="M120,62 L120,67 M148,62 L148,67 M204,62 L204,67 M232,62 L232,67 M288,62 L288,67 M316,62 L316,67 M372,62 L372,67 M400,62 L400,67 M457,62 L457,67 M485,62 L485,67 M64,62 L64,67 " fill="none"/></g>
<g id="yMajorTicks" stroke="rgb(0,0,0)" stroke-width="2"><path d="M82.1,105 L92.1,105 M82.1,191 L92.1,191 M82.1,278 L92.1,278 M82.1,364 L92.1,364 M82.1,450 L92.1,450 " fill="none"/></g>
<g id="xMajorTicks" stroke="rgb(0,0,0)" stroke-width="2"><path d="M92.1,62 L92.1,72 M176,62 L176,72 M260,62 L260,72 M344,62 L344,72 M428,62 L428,72 M513,62 L513,72 M92.1,62 L92.1,72 " fill="none"/></g>
<g id="plotLabels">
<text x="92.1" y="88.8" text-anchor="middle" font-size="14" font-family="Verdana">0.00</text>
<text x="176" y="88.8" text-anchor="middle" font-size="14" font-family="Verdana">2.00</text>
<text x="260" y="88.8" text-anchor="middle" font-size="14" font-family="Verdana">4.00</text>
<text x="344" y="88.8" text-anchor="middle" font-size="14" font-family="Verdana">6.00</text>
<text x="428" y="88.8" text-anchor="middle" font-size="14" font-family="Verdana">8.00</text>
<text x="513" y="88.8" text-anchor="middle" font-size="14" font-family="Verdana">1.00e1</text>
<text x="92.1" y="88.8" text-anchor="middle" font-size="14" font-family="Verdana">0.00</text>
<text x="76.1" y="108" text-anchor="end" font-size="12" font-family="Verdana">-2.0</text>
<text x="76.1" y="194" text-anchor="end" font-size="12" font-family="Verdana">-4.0</text>
<text x="76.1" y="280" text-anchor="end" font-size="12" font-family="Verdana">-6.0</text>
<text x="76.1" y="366" text-anchor="end" font-size="12" font-family="Verdana">-8.0</text>
<text x="76.1" y="452" text-anchor="end" font-size="12" font-family="Verdana">-10.0</text></g>
<g id="yLabel">
<text x="40.2" y="256" text-anchor="middle" transform = "rotate(-90 40.2 256 )" font-size="14" font-family="Verdana">Y-axis</text></g>
<g id="xLabel">
<text x="281" y="478" text-anchor="middle" font-size="14" font-family="Verdana">X-axis</text></g>
<g id="plotLines" stroke-width="2"><g clip-path="url(#plot_window)" stroke="rgb(0,0,0)" stroke-width="2"><path d="M92.1,18.9 L134,-24.2 L176,-42.1 L218,-55.8 L260,-67.3 L302,-77.5 L344,-86.7 L386,-95.2 L428,-103 L471,-110 L513,-117 " fill="none"/></g>
<g clip-path="url(#plot_window)" stroke="rgb(0,0,0)"><path d="M-328,-4.21e+003 S-295,-3.54e+003 -286,-3.39e+003 S-253,-2.79e+003 -244,-2.65e+003 S-211,-2.13e+003 -202,-2.01e+003 S-169,-1.55e+003 -160,-1.45e+003 S-127,-1.06e+003 -118,-973 S-84.6,-654 -76.2,-585 S-42.5,-335 -34.1,-283 S-0.465,-102 7.95,-67.3 S41.6,44.8 50,62 S83.6,105 92.1,105 S126,79.2 134,62 S168,-32.8 176,-67.3 S210,-231 218,-283 S252,-516 260,-585 S294,-886 302,-973 S336,-1.34e+003 344,-1.45e+003 S378,-1.89e+003 386,-2.01e+003 S420,-2.52e+003 428,-2.65e+003 S462,-3.23e+003 471,-3.39e+003 S513,-4.29e+003 513,-4.21e+003 " fill="none"/></g>
<g clip-path="url(#plot_window)" stroke="rgb(0,0,255)" stroke-width="3"><path d="M-328,924 L-286,838 L-244,752 L-202,666 L-160,579 L-118,493 L-76.2,407 L-34.1,321 L7.95,234 L50,148 L92.1,62 L134,-24.2 L176,-110 L218,-197 L260,-283 L302,-369 L344,-455 L386,-542 L428,-628 L471,-714 L513,-800 " fill="none"/></g>
</g>
<g id="plotPoints" clip-path="url(#plot_window)"><g stroke="rgb(0,0,0)" fill="rgb(255,165,0)"><circle cx="92.1" cy="105" r="2"/></g>
<g stroke="rgb(0,0,0)" fill="rgb(255,255,0)"><rect x="45" y="143" width="10" height="10"/></g>
</g>
<g id="legendBackground" stroke="rgb(255,255,0)" fill="rgb(255,255,224)" stroke-width="1"><rect x="527" y="62" width="161" height="144"/><rect x="527" y="62" width="161" height="144"/></g>
<g id="legendPoints"><g stroke="rgb(0,0,0)" fill="rgb(255,0,0)" stroke-width="2"><circle cx="543" cy="126" r="5"/><line x1="567" y1="126" x2="583" y2="126"/></g>
<g stroke="rgb(0,0,0)" fill="rgb(255,165,0)" stroke-width="2"><circle cx="543" cy="158" r="2"/><line x1="567" y1="158" x2="583" y2="158"/></g>
<g stroke="rgb(0,0,255)" fill="rgb(255,255,0)" stroke-width="3"><rect x="538" y="185" width="10" height="10"/><line x1="567" y1="190" x2="583" y2="190"/></g>
</g>
<g id="legendText">
<text x="607" y="94" text-anchor="middle" font-size="16" font-family="Verdana">Unicode &#x3A9;&#x3A6;</text>
<text x="591" y="126" font-size="16" font-family="Verdana">Sqrt(x)</text>
<text x="591" y="158" font-size="16" font-family="Verdana">-2 + x^2</text>
<text x="591" y="190" font-size="16" font-family="Verdana">-1 + 2x</text></g>
<g id="title" fill="rgb(255,0,0)">
<text x="350" y="40" text-anchor="middle" font-size="20" font-family="Verdana">Plot of Mathematical Functions</text></g>
<g id="plotXValues"></g>
<g id="plotYValues"></g>
</svg>
