<?xml version="1.0" encoding="UTF-8" standalone="no"?>
<svg width="400" height ="400" version="1.1"
xmlns:svg ="http://www.w3.org/2000/svg"
xmlns:rdf="http://www.w3.org/1999/02/22-rdf-syntax-ns#"
xmlns:cc="http://web.resource.org/cc/"
xmlns:dc="http://purl.org/dc/elements/1.1/"
xmlns ="http://www.w3.org/2000/svg"
>
<!-- SVG plot written using Boost.Plot program (Creator Jacob Voytko) --> 
<!-- Use, modification and distribution of Boost.Plot subject to the --> 
<!-- Boost Software License, Version 1.0.--> 
<!-- (See accompanying file LICENSE_1_0.txt --> 
<!-- or copy at http://www.boost.org/LICENSE_1_0.txt) --> 

<clipPath id="plot_window"><rect x="71.2" y="58" width="316" height="279"/></clipPath>
<g id="imageBackground" stroke="rgb(255,255,0)" fill="rgb(255,255,255)" stroke-width="2"><rect x="0" y="0" width="400" height="400"/></g>
<g id="plotBackground" stroke="rgb(119,136,153)" fill="rgb(255,255,255)" stroke-width="2"><rect x="70.2" y="57" width="318" height="281"/></g>
<g id="yMinorGrid" stroke="rgb(200,220,255)" stroke-width="0.5"></g>
<g id="yMajorGrid" stroke="rgb(200,220,255)" stroke-width="1"></g>
<g id="xMinorGrid" stroke="rgb(200,220,255)" stroke-width="0.5"></g>
<g id="xMajorGrid" stroke="rgb(200,220,255)" stroke-width="1"></g>
<g id="yAxis" stroke="rgb(0,0,0)" stroke-width="1"><line x1="229" y1="57" x2="229" y2="343"/><line x1="70.2" y1="57" x2="70.2" y2="338"/></g>
<g id="xAxis" stroke="rgb(0,0,0)" stroke-width="1"><line x1="65.2" y1="198" x2="388" y2="198"/><line x1="65.2" y1="338" x2="388" y2="338"/></g>
<g id="yMinorTicks" stroke="rgb(0,0,0)" stroke-width="1"><path d="M68.2,192 L70.2,192 M68.2,186 L70.2,186 M68.2,181 L70.2,181 M68.2,175 L70.2,175 M68.2,164 L70.2,164 M68.2,158 L70.2,158 M68.2,153 L70.2,153 M68.2,147 L70.2,147 M68.2,136 L70.2,136 M68.2,130 L70.2,130 M68.2,124 L70.2,124 M68.2,119 L70.2,119 M68.2,108 L70.2,108 M68.2,102 L70.2,102 M68.2,96.4 L70.2,96.4 M68.2,90.7 L70.2,90.7 M68.2,79.5 L70.2,79.5 M68.2,73.9 L70.2,73.9 M68.2,68.2 L70.2,68.2 M68.2,62.6 L70.2,62.6 M68.2,198 L70.2,198 M68.2,203 L70.2,203 M68.2,209 L70.2,209 M68.2,214 L70.2,214 M68.2,220 L70.2,220 M68.2,226 L70.2,226 M68.2,231 L70.2,231 M68.2,237 L70.2,237 M68.2,243 L70.2,243 M68.2,248 L70.2,248 M68.2,254 L70.2,254 M68.2,254 L70.2,254 M68.2,259 L70.2,259 M68.2,265 L70.2,265 M68.2,271 L70.2,271 M68.2,276 L70.2,276 M68.2,282 L70.2,282 M68.2,288 L70.2,288 M68.2,293 L70.2,293 M68.2,299 L70.2,299 M68.2,304 L70.2,304 M68.2,310 L70.2,310 M68.2,316 L70.2,316 M68.2,321 L70.2,321 M68.2,327 L70.2,327 M68.2,333 L70.2,333 M68.2,338 L70.2,338 " fill="none"/></g>
<g id="xMinorTicks" stroke="rgb(0,0,0)" stroke-width="1"><path d="M235,338 L235,340 M242,338 L242,340 M248,338 L248,340 M255,338 L255,340 M267,338 L267,340 M274,338 L274,340 M280,338 L280,340 M286,338 L286,340 M299,338 L299,340 M305,338 L305,340 M312,338 L312,340 M318,338 L318,340 M331,338 L331,340 M337,338 L337,340 M344,338 L344,340 M350,338 L350,340 M363,338 L363,340 M369,338 L369,340 M375,338 L375,340 M382,338 L382,340 M223,338 L223,340 M216,338 L216,340 M210,338 L210,340 M204,338 L204,340 M191,338 L191,340 M185,338 L185,340 M178,338 L178,340 M172,338 L172,340 M159,338 L159,340 M153,338 L153,340 M146,338 L146,340 M140,338 L140,340 M127,338 L127,340 M121,338 L121,340 M115,338 L115,340 M108,338 L108,340 M95.6,338 L95.6,340 M89.3,338 L89.3,340 M82.9,338 L82.9,340 M76.6,338 L76.6,340 " fill="none"/></g>
<g id="yMajorTicks" stroke="rgb(0,0,0)" stroke-width="2"><path d="M65.2,198 L70.2,198 M65.2,169 L70.2,169 M65.2,141 L70.2,141 M65.2,113 L70.2,113 M65.2,85.1 L70.2,85.1 M65.2,57 L70.2,57 M65.2,198 L70.2,198 M65.2,226 L70.2,226 M65.2,254 L70.2,254 M65.2,282 L70.2,282 M65.2,310 L70.2,310 M65.2,338 L70.2,338 " fill="none"/></g>
<g id="xMajorTicks" stroke="rgb(0,0,0)" stroke-width="2"><path d="M229,338 L229,343 M261,338 L261,343 M293,338 L293,343 M324,338 L324,343 M356,338 L356,343 M388,338 L388,343 M229,338 L229,343 M197,338 L197,343 M166,338 L166,343 M134,338 L134,343 M102,338 L102,343 M70.2,338 L70.2,343 " fill="none"/></g>
<g id="plotLabels">
<text x="229" y="358" text-anchor="middle" font-size="12" font-family="Verdana">0</text>
<text x="261" y="358" text-anchor="middle" font-size="12" font-family="Verdana">2</text>
<text x="293" y="358" text-anchor="middle" font-size="12" font-family="Verdana">4</text>
<text x="324" y="358" text-anchor="middle" font-size="12" font-family="Verdana">6</text>
<text x="356" y="358" text-anchor="middle" font-size="12" font-family="Verdana">8</text>
<text x="388" y="358" text-anchor="middle" font-size="12" font-family="Verdana">10</text>
<text x="229" y="358" text-anchor="middle" font-size="12" font-family="Verdana">0</text>
<text x="197" y="358" text-anchor="middle" font-size="12" font-family="Verdana">-2</text>
<text x="166" y="358" text-anchor="middle" font-size="12" font-family="Verdana">-4</text>
<text x="134" y="358" text-anchor="middle" font-size="12" font-family="Verdana">-6</text>
<text x="102" y="358" text-anchor="middle" font-size="12" font-family="Verdana">-8</text>
<text x="70.2" y="358" text-anchor="middle" font-size="12" font-family="Verdana">-10</text>
<text x="59.2" y="200" text-anchor="end" font-size="12" font-family="Verdana">0</text>
<text x="59.2" y="172" text-anchor="end" font-size="12" font-family="Verdana">2</text>
<text x="59.2" y="144" text-anchor="end" font-size="12" font-family="Verdana">4</text>
<text x="59.2" y="116" text-anchor="end" font-size="12" font-family="Verdana">6</text>
<text x="59.2" y="87.5" text-anchor="end" font-size="12" font-family="Verdana">8</text>
<text x="59.2" y="59.4" text-anchor="end" font-size="12" font-family="Verdana">10</text>
<text x="59.2" y="200" text-anchor="end" font-size="12" font-family="Verdana">0</text>
<text x="59.2" y="228" text-anchor="end" font-size="12" font-family="Verdana">-2</text>
<text x="59.2" y="256" text-anchor="end" font-size="12" font-family="Verdana">-4</text>
<text x="59.2" y="284" text-anchor="end" font-size="12" font-family="Verdana">-6</text>
<text x="59.2" y="312" text-anchor="end" font-size="12" font-family="Verdana">-8</text>
<text x="59.2" y="341" text-anchor="end" font-size="12" font-family="Verdana">-10</text></g>
<g id="yLabel">
<text x="30.2" y="198" text-anchor="middle" transform = "rotate(-90 30.2 198 )" font-size="14" font-family="Verdana"></text></g>
<g id="xLabel">
<text x="229" y="384" text-anchor="middle" font-size="14" font-family="Verdana"></text></g>
<g id="plotPoints" clip-path="url(#plot_window)"><g stroke="rgb(0,0,0)" fill="rgb(255,0,0)"><circle cx="132" cy="281" r="5"/><circle cx="150" cy="272" r="5"/><circle cx="164" cy="258" r="5"/><circle cx="183" cy="244" r="5"/><circle cx="193" cy="227" r="5"/><circle cx="212" cy="214" r="5"/><circle cx="229" cy="198" r="5"/><circle cx="247" cy="181" r="5"/><circle cx="266" cy="168" r="5"/><circle cx="275" cy="151" r="5"/><circle cx="294" cy="137" r="5"/><circle cx="309" cy="123" r="5"/><circle cx="326" cy="115" r="5"/></g>
</g>
<g id="title">
<text x="200" y="36" text-anchor="middle" font-size="18" font-family="Verdana"></text></g>
<g id="plotXValues"></g>
<g id="plotYValues"></g>
<g stroke="rgb(0,0,0)"><line x1="10" y1="390" x2="390" y2="10"/></g>
<g stroke="rgb(0,0,255)"><line x1="70.2" y1="338" x2="388" y2="57"/></g>
<g stroke="rgb(255,0,0)"><path d="M134,310 Q229,184 356,113" fill = "none"/></g>
</svg>
