<?xml version="1.0" encoding="UTF-8" standalone="no"?>
<svg width="700" height ="500" version="1.1"
xmlns:svg ="http://www.w3.org/2000/svg"
xmlns:rdf="http://www.w3.org/1999/02/22-rdf-syntax-ns#"
xmlns:cc="http://web.resource.org/cc/"
xmlns:dc="http://purl.org/dc/elements/1.1/"
xmlns ="http://www.w3.org/2000/svg"
>
<!-- SVG plot written using Boost.Plot program (Creator Jacob Voytko) --> 
<!-- Use, modification and distribution of Boost.Plot subject to the --> 
<!-- Boost Software License, Version 1.0.--> 
<!-- (See accompanying file LICENSE_1_0.txt --> 
<!-- or copy at http://www.boost.org/LICENSE_1_0.txt) --> 

<clipPath id="plot_window"><rect x="84.6" y="63" width="427" height="366"/></clipPath>
<g id="imageBackground" stroke="rgb(255,255,0)" fill="rgb(248,248,255)" stroke-width="2"><rect x="0" y="0" width="700" height="500"/></g>
<g id="plotBackground" stroke="rgb(0,128,0)" fill="rgb(255,255,255)" stroke-width="1"><rect x="83.6" y="62" width="429" height="368"/></g>
<g id="yMinorGrid" stroke="rgb(240,240,255)" stroke-width="1"><path d="M84.6,417 L512,417 M84.6,362 L512,362 M84.6,335 L512,335 M84.6,280 L512,280 M84.6,253 L512,253 M84.6,198 L512,198 M84.6,171 L512,171 M84.6,117 L512,117 M84.6,89.3 L512,89.3 " fill="none"/></g>
<g id="yMajorGrid" stroke="rgb(200,220,255)" stroke-width="2"><path d="M84.6,389 L512,389 M84.6,308 L512,308 M84.6,226 L512,226 M84.6,144 L512,144 M84.6,62 L512,62 " fill="none"/></g>
<g id="xMinorGrid" stroke="rgb(240,240,255)" stroke-width="0.5"><path d="M99.5,63 L99.5,429 M163,63 L163,429 M195,63 L195,429 M258,63 L258,429 M290,63 L290,429 M354,63 L354,429 M385,63 L385,429 M449,63 L449,429 M481,63 L481,429 " fill="none"/></g>
<g id="xMajorGrid" stroke="rgb(200,220,255)" stroke-width="1"><path d="M131,62 L131,430 M227,62 L227,430 M322,62 L322,430 M417,62 L417,430 M513,62 L513,430 " fill="none"/></g>
<g id="yAxis" stroke="rgb(0,0,0)" stroke-width="1"><line x1="83.6" y1="62" x2="83.6" y2="430"/></g>
<g id="xAxis" stroke="rgb(0,0,0)" stroke-width="1"><line x1="83.6" y1="430" x2="513" y2="430"/></g>
<g id="yMinorTicks" stroke="rgb(0,0,0)" stroke-width="1"><path d="M78.6,417 L83.6,417 M78.6,362 L83.6,362 M78.6,335 L83.6,335 M78.6,280 L83.6,280 M78.6,253 L83.6,253 M78.6,198 L83.6,198 M78.6,171 L83.6,171 M78.6,117 L83.6,117 M78.6,89.3 L83.6,89.3 " fill="none"/></g>
<g id="xMinorTicks" stroke="rgb(0,0,0)" stroke-width="1"><path d="M99.5,430 L99.5,435 M163,430 L163,435 M195,430 L195,435 M258,430 L258,435 M290,430 L290,435 M354,430 L354,435 M385,430 L385,435 M449,430 L449,435 M481,430 L481,435 " fill="none"/></g>
<g id="yMajorTicks" stroke="rgb(0,0,0)" stroke-width="2"><path d="M73.6,389 L83.6,389 M73.6,308 L83.6,308 M73.6,226 L83.6,226 M73.6,144 L83.6,144 M73.6,62 L83.6,62 " fill="none"/></g>
<g id="xMajorTicks" stroke="rgb(0,0,0)" stroke-width="2"><path d="M131,430 L131,440 M227,430 L227,440 M322,430 L322,440 M417,430 L417,440 M513,430 L513,440 " fill="none"/></g>
<g id="plotLabels">
<text x="131" y="457" text-anchor="middle" font-size="14" font-family="Verdana">2.00</text>
<text x="227" y="457" text-anchor="middle" font-size="14" font-family="Verdana">4.00</text>
<text x="322" y="457" text-anchor="middle" font-size="14" font-family="Verdana">6.00</text>
<text x="417" y="457" text-anchor="middle" font-size="14" font-family="Verdana">8.00</text>
<text x="513" y="457" text-anchor="middle" font-size="14" font-family="Verdana">1.00e1</text>
<text x="67.6" y="392" text-anchor="end" font-size="12" font-family="Verdana">2.0</text>
<text x="67.6" y="310" text-anchor="end" font-size="12" font-family="Verdana">4.0</text>
<text x="67.6" y="228" text-anchor="end" font-size="12" font-family="Verdana">6.0</text>
<text x="67.6" y="146" text-anchor="end" font-size="12" font-family="Verdana">8.0</text>
<text x="67.6" y="64.4" text-anchor="end" font-size="12" font-family="Verdana">10.0</text></g>
<g id="yLabel">
<text x="30.2" y="246" text-anchor="middle" transform = "rotate(-90 30.2 246 )" font-size="14" font-family="Verdana">Y-axis</text></g>
<g id="xLabel">
<text x="298" y="488" text-anchor="middle" font-size="14" font-family="Verdana">X-axis</text></g>
<g id="plotLines" stroke-width="2"><g clip-path="url(#plot_window)" stroke="rgb(0,0,0)" stroke-width="2"><path d="M35.9,471 L83.6,430 L131,413 L179,400 L227,389 L274,380 L322,371 L370,363 L417,356 L465,349 L513,342 " fill="none"/></g>
<g clip-path="url(#plot_window)" stroke="rgb(0,0,0)"><path d="M-441,-3.54e+003 S-403,-2.91e+003 -393,-2.76e+003 S-355,-2.2e+003 -345,-2.07e+003 S-307,-1.57e+003 -298,-1.45e+003 S-260,-1.02e+003 -250,-920 S-212,-552 -202,-470 S-164,-167 -155,-102 S-117,136 -107,185 S-68.9,357 -59.4,389 S-21.3,496 -11.7,512 S26.4,553 35.9,553 S74.1,529 83.6,512 S122,422 131,389 S169,234 179,185 S217,-36.2 227,-102 S265,-388 274,-470 S312,-822 322,-920 S360,-1.34e+003 370,-1.45e+003 S408,-1.94e+003 417,-2.07e+003 S455,-2.62e+003 465,-2.76e+003 S513,-3.62e+003 513,-3.54e+003 " fill="none"/></g>
<g clip-path="url(#plot_window)" stroke="rgb(0,0,255)" stroke-width="3"><path d="M-441,1.33e+003 L-393,1.25e+003 L-345,1.17e+003 L-298,1.09e+003 L-250,1e+003 L-202,922 L-155,840 L-107,758 L-59.4,676 L-11.7,594 L35.9,512 L83.6,430 L131,349 L179,267 L227,185 L274,103 L322,21.1 L370,-60.8 L417,-143 L465,-225 L513,-306 " fill="none"/></g>
</g>
<g id="plotPoints" clip-path="url(#plot_window)"><g stroke="rgb(0,0,0)" fill="rgb(255,0,0)"><circle cx="131" cy="413" r="5"/><circle cx="179" cy="400" r="5"/><circle cx="227" cy="389" r="5"/><circle cx="274" cy="380" r="5"/><circle cx="322" cy="371" r="5"/><circle cx="370" cy="363" r="5"/><circle cx="417" cy="356" r="5"/><circle cx="465" cy="349" r="5"/><circle cx="513" cy="342" r="5"/></g>
<g stroke="rgb(0,0,0)" fill="rgb(255,165,0)"><circle cx="131" cy="389" r="2"/><circle cx="179" cy="185" r="2"/></g>
<g stroke="rgb(0,0,0)" fill="rgb(255,255,0)"><rect x="126" y="344" width="10" height="10"/><rect x="174" y="262" width="10" height="10"/><rect x="222" y="180" width="10" height="10"/><rect x="269" y="97.9" width="10" height="10"/></g>
</g>
<g id="legendBackground" stroke="rgb(255,255,0)" fill="rgb(255,255,224)" stroke-width="1"><rect x="527" y="62" width="161" height="144"/><rect x="527" y="62" width="161" height="144"/></g>
<g id="legendPoints"><g stroke="rgb(0,0,0)" fill="rgb(255,0,0)" stroke-width="2"><circle cx="543" cy="126" r="5"/><line x1="567" y1="126" x2="583" y2="126"/></g>
<g stroke="rgb(0,0,0)" fill="rgb(255,165,0)" stroke-width="2"><circle cx="543" cy="158" r="2"/><line x1="567" y1="158" x2="583" y2="158"/></g>
<g stroke="rgb(0,0,255)" fill="rgb(255,255,0)" stroke-width="3"><rect x="538" y="185" width="10" height="10"/><line x1="567" y1="190" x2="583" y2="190"/></g>
</g>
<g id="legendText">
<text x="607" y="94" text-anchor="middle" font-size="16" font-family="Verdana">Unicode &#x3A9;&#x3A6;</text>
<text x="591" y="126" font-size="16" font-family="Verdana">Sqrt(x)</text>
<text x="591" y="158" font-size="16" font-family="Verdana">-2 + x^2</text>
<text x="591" y="190" font-size="16" font-family="Verdana">-1 + 2x</text></g>
<g id="title" fill="rgb(255,0,0)">
<text x="350" y="40" text-anchor="middle" font-size="20" font-family="Verdana">Plot of Mathematical Functions</text></g>
<g id="plotXValues"></g>
<g id="plotYValues"></g>
</svg>
