<?xml version="1.0" encoding="UTF-8" standalone="no"?>
<svg width="500" height ="200" version="1.1"
xmlns:svg ="http://www.w3.org/2000/svg"
xmlns:rdf="http://www.w3.org/1999/02/22-rdf-syntax-ns#"
xmlns:cc="http://web.resource.org/cc/"
xmlns:dc="http://purl.org/dc/elements/1.1/"
xmlns ="http://www.w3.org/2000/svg"
>
<!-- SVG plot written using Boost.Plot program (Creator Jacob Voytko) --> 
<!-- Use, modification and distribution of Boost.Plot subject to the --> 
<!-- Boost Software License, Version 1.0.--> 
<!-- (See accompanying file LICENSE_1_0.txt --> 
<!-- or copy at http://www.boost.org/LICENSE_1_0.txt) --> 

<!-- File ./demo_1d_simple.svg --> 
<g id="imageBackground" stroke="rgb(255,255,0)" fill="rgb(255,255,255)" stroke-width="1"><rect x="0" y="0" width="500" height="200"/></g>
<g id="plotBackground" stroke="rgb(255,255,0)" fill="rgb(255,255,255)" stroke-width="1"><rect x="11" y="56" width="351" height="83.2"/></g>
<g id="xMinorGrid" stroke="rgb(200,220,255)" stroke-width="0.5"></g>
<g id="xMajorGrid" stroke="rgb(200,220,255)" stroke-width="1"></g>
<g id="xAxis" stroke="rgb(0,0,0)" stroke-width="1"><line x1="40.3" y1="56" x2="40.3" y2="139"/><line x1="11" y1="109" x2="362" y2="109"/><line x1="11" y1="139" x2="362" y2="139"/></g>
<g id="xMinorTicks" stroke="rgb(0,0,0)" stroke-width="1"><path d="M52,139 L52,141 M63.7,139 L63.7,141 M75.4,139 L75.4,141 M87.1,139 L87.1,141 M111,139 L111,141 M122,139 L122,141 M134,139 L134,141 M146,139 L146,141 M169,139 L169,141 M181,139 L181,141 M193,139 L193,141 M204,139 L204,141 M228,139 L228,141 M239,139 L239,141 M251,139 L251,141 M263,139 L263,141 M286,139 L286,141 M298,139 L298,141 M310,139 L310,141 M321,139 L321,141 M345,139 L345,141 M357,139 L357,141 M28.6,139 L28.6,141 M16.9,139 L16.9,141 " fill="none"/></g>
<g id="xMajorTicks" stroke="rgb(0,0,0)" stroke-width="2"><path d="M40.3,139 L40.3,144 M98.9,139 L98.9,144 M157,139 L157,144 M216,139 L216,144 M275,139 L275,144 M333,139 L333,144 M40.3,139 L40.3,144 " fill="none"/></g>
<g id="plotLabels">
<text x="40.3" y="159" text-anchor="middle" font-size="12" font-family="Verdana">0</text>
<text x="98.9" y="159" text-anchor="middle" font-size="12" font-family="Verdana">2</text>
<text x="157" y="159" text-anchor="middle" font-size="12" font-family="Verdana">4</text>
<text x="216" y="159" text-anchor="middle" font-size="12" font-family="Verdana">6</text>
<text x="275" y="159" text-anchor="middle" font-size="12" font-family="Verdana">8</text>
<text x="333" y="159" text-anchor="middle" font-size="12" font-family="Verdana">10</text>
<text x="40.3" y="159" text-anchor="middle" font-size="12" font-family="Verdana">0</text></g>
<g id="xLabel">
<text x="187" y="185" text-anchor="middle" font-size="14" font-family="Verdana"></text></g>
<g id="plotPoints"><g stroke="rgb(0,0,255)"><line x1="131" y1="103" x2="131" y2="92.6"/><line x1="163" y1="103" x2="163" y2="92.6"/></g>
<g stroke="rgb(255,165,0)"><line x1="102" y1="103" x2="102" y2="92.6"/><line x1="269" y1="103" x2="269" y2="92.6"/></g>
</g>
<g id="legendBackground" stroke="rgb(255,255,0)" fill="rgb(255,255,255)" stroke-width="1"><rect x="374" y="56" width="115" height="70"/><rect x="374" y="56" width="115" height="70"/></g>
<g id="legendPoints"><g stroke="rgb(0,0,0)" stroke-width="2"><line x1="388" y1="89" x2="388" y2="79"/><line x1="409" y1="84" x2="423" y2="84"/></g>
<g stroke="rgb(0,0,0)" stroke-width="2"><line x1="388" y1="117" x2="388" y2="107"/><line x1="409" y1="112" x2="423" y2="112"/></g>
</g>
<g id="legendText">
<text x="430" y="84" font-size="14" font-family="Verdana">Dan</text>
<text x="430" y="112" font-size="14" font-family="Verdana">Elaine</text></g>
<g id="title">
<text x="250" y="36" text-anchor="middle" font-size="18" font-family="Verdana">Race Times</text></g>
</svg>
