<?xml version="1.0" encoding="UTF-8" standalone="no"?>
<svg width="500" height ="400" version="1.1"
xmlns:svg ="http://www.w3.org/2000/svg"
xmlns:rdf="http://www.w3.org/1999/02/22-rdf-syntax-ns#"
xmlns:cc="http://web.resource.org/cc/"
xmlns:dc="http://purl.org/dc/elements/1.1/"
xmlns ="http://www.w3.org/2000/svg"
>
<!-- SVG plot written using Boost.Plot program (Creator Jacob Voytko) --> 
<!-- Use, modification and distribution of Boost.Plot subject to the --> 
<!-- Boost Software License, Version 1.0.--> 
<!-- (See accompanying file LICENSE_1_0.txt --> 
<!-- or copy at http://www.boost.org/LICENSE_1_0.txt) --> 

<clipPath id="plot_window"><rect x="79.6" y="58" width="239" height="279"/></clipPath>
<g id="imageBackground" stroke="rgb(0,0,0)" fill="rgb(255,255,255)" stroke-width="2"><rect x="0" y="0" width="500" height="400"/></g>
<g id="plotBackground" stroke="rgb(119,136,153)" fill="rgb(255,255,255)" stroke-width="2"><rect x="78.6" y="57" width="241" height="281"/></g>
<g id="yMinorGrid" stroke="rgb(200,220,255)" stroke-width="0.5"></g>
<g id="yMajorGrid" stroke="rgb(200,220,255)" stroke-width="1"></g>
<g id="xMinorGrid" stroke="rgb(200,220,255)" stroke-width="0.5"></g>
<g id="xMajorGrid" stroke="rgb(200,220,255)" stroke-width="1"></g>
<g id="yAxis" stroke="rgb(0,0,0)" stroke-width="1"><line x1="78.6" y1="57" x2="78.6" y2="343"/><line x1="78.6" y1="57" x2="78.6" y2="338"/></g>
<g id="xAxis" stroke="rgb(0,0,0)" stroke-width="1"><line x1="73.6" y1="338" x2="320" y2="338"/><line x1="73.6" y1="338" x2="320" y2="338"/></g>
<g id="yMinorTicks" stroke="rgb(0,0,0)" stroke-width="1"><path d="M76.6,327 L78.6,327 M76.6,316 L78.6,316 M76.6,304 L78.6,304 M76.6,293 L78.6,293 M76.6,271 L78.6,271 M76.6,259 L78.6,259 M76.6,248 L78.6,248 M76.6,237 L78.6,237 M76.6,214 L78.6,214 M76.6,203 L78.6,203 M76.6,192 L78.6,192 M76.6,181 L78.6,181 M76.6,158 L78.6,158 M76.6,147 L78.6,147 M76.6,136 L78.6,136 M76.6,124 L78.6,124 M76.6,102 L78.6,102 M76.6,90.7 L78.6,90.7 M76.6,79.5 L78.6,79.5 M76.6,68.2 L78.6,68.2 M76.6,338 L78.6,338 " fill="none"/></g>
<g id="xMinorTicks" stroke="rgb(0,0,0)" stroke-width="1"><path d="M93.7,338 L93.7,340 M109,338 L109,340 M124,338 L124,340 M139,338 L139,340 M169,338 L169,340 M184,338 L184,340 M199,338 L199,340 M214,338 L214,340 M245,338 L245,340 M260,338 L260,340 M275,338 L275,340 M290,338 L290,340 M320,338 L320,340 " fill="none"/></g>
<g id="yMajorTicks" stroke="rgb(0,0,0)" stroke-width="2"><path d="M73.6,338 L78.6,338 M73.6,282 L78.6,282 M73.6,226 L78.6,226 M73.6,169 L78.6,169 M73.6,113 L78.6,113 M73.6,57 L78.6,57 M73.6,338 L78.6,338 " fill="none"/></g>
<g id="xMajorTicks" stroke="rgb(0,0,0)" stroke-width="2"><path d="M78.6,338 L78.6,343 M154,338 L154,343 M229,338 L229,343 M305,338 L305,343 M78.6,338 L78.6,343 " fill="none"/></g>
<g id="plotLabels">
<text x="78.6" y="358" text-anchor="middle" font-size="12" font-family="Verdana">0</text>
<text x="154" y="358" text-anchor="middle" font-size="12" font-family="Verdana">50</text>
<text x="229" y="358" text-anchor="middle" font-size="12" font-family="Verdana">100</text>
<text x="305" y="358" text-anchor="middle" font-size="12" font-family="Verdana">150</text>
<text x="78.6" y="358" text-anchor="middle" font-size="12" font-family="Verdana">0</text>
<text x="67.6" y="341" text-anchor="end" font-size="12" font-family="Verdana">0</text>
<text x="67.6" y="284" text-anchor="end" font-size="12" font-family="Verdana">1000</text>
<text x="67.6" y="228" text-anchor="end" font-size="12" font-family="Verdana">2000</text>
<text x="67.6" y="172" text-anchor="end" font-size="12" font-family="Verdana">3000</text>
<text x="67.6" y="116" text-anchor="end" font-size="12" font-family="Verdana">4000</text>
<text x="67.6" y="59.4" text-anchor="end" font-size="12" font-family="Verdana">5000</text>
<text x="67.6" y="341" text-anchor="end" font-size="12" font-family="Verdana">0</text></g>
<g id="yLabel">
<text x="30.2" y="198" text-anchor="middle" transform = "rotate(-90 30.2 198 )" font-size="14" font-family="Verdana">thousands of people per one minute interval</text></g>
<g id="xLabel">
<text x="199" y="384" text-anchor="middle" font-size="14" font-family="Verdana">journey time (min)</text></g>
<g id="plotPoints" clip-path="url(#plot_window)"><g stroke="rgb(0,0,255)" stroke-width="2"><path d="M78.6,338 L78.6,316 L86.1,316 L86.1,338 ZM86.1,338 L86.1,282 L93.7,282 L93.7,338 ZM93.7,338 L93.7,226 L101,226 L101,338 ZM101,338 L101,214 L109,214 L109,338 ZM109,338 L109,203 L116,203 L116,338 ZM116,338 L116,192 L124,192 L124,338 ZM124,338 L124,169 L131,169 L131,338 ZM131,338 L131,158 L139,158 L139,338 ZM139,338 L139,136 L146,136 L146,338 ZM146,338 L146,293 L169,293 L169,338 ZM169,338 L169,318 L214,318 L214,338 ZM214,338 L214,329 L305,329 L305,338 Z" fill="none"/></g>
</g>
<g id="legendBackground" stroke="rgb(255,255,0)" fill="rgb(255,255,255)" stroke-width="1"><rect x="334" y="57" width="154" height="42"/><rect x="334" y="57" width="154" height="42"/></g>
<g id="legendPoints"><g stroke="rgb(0,0,0)" fill="rgb(255,255,255)" stroke-width="2"><line x1="348" y1="85" x2="362" y2="85"/></g>
</g>
<g id="legendText">
<text x="369" y="85" font-size="14" font-family="Verdana">2050 times? </text></g>
<g id="title">
<text x="250" y="36" text-anchor="middle" font-size="18" font-family="Verdana">US 2000 Census Journey Times</text></g>
</svg>
