<?xml version="1.0" encoding="UTF-8" standalone="no"?>
<svg width="500" height ="200" version="1.1"
xmlns:svg ="http://www.w3.org/2000/svg"
xmlns:rdf="http://www.w3.org/1999/02/22-rdf-syntax-ns#"
xmlns:cc="http://web.resource.org/cc/"
xmlns:dc="http://purl.org/dc/elements/1.1/"
xmlns ="http://www.w3.org/2000/svg"
>
<!-- SVG plot written using Boost.Plot program (Creator Jacob Voytko) --> 
<!-- Use, modification and distribution of Boost.Plot subject to the --> 
<!-- Boost Software License, Version 1.0.--> 
<!-- (See accompanying file LICENSE_1_0.txt --> 
<!-- or copy at http://www.boost.org/LICENSE_1_0.txt) --> 

<!-- File ./demo_1d_vector.svg --> 
<g id="imageBackground" stroke="rgb(0,0,255)" fill="rgb(255,255,255)" stroke-width="1"><rect x="0" y="0" width="500" height="200"/></g>
<g id="plotBackground" stroke="rgb(255,255,0)" fill="rgb(255,255,255)" stroke-width="1"><rect x="11" y="56" width="344" height="83.2"/></g>
<g id="xMinorGrid" stroke="rgb(200,220,255)" stroke-width="0.5"></g>
<g id="xMajorGrid" stroke="rgb(200,220,255)" stroke-width="1"></g>
<g id="xAxis" stroke="rgb(0,0,0)" stroke-width="1"><line x1="39.7" y1="56" x2="39.7" y2="139"/><line x1="11" y1="109" x2="355" y2="109"/><line x1="11" y1="139" x2="355" y2="139"/></g>
<g id="xMinorTicks" stroke="rgb(0,0,0)" stroke-width="1"><path d="M51.1,139 L51.1,141 M62.6,139 L62.6,141 M74.1,139 L74.1,141 M85.5,139 L85.5,141 M108,139 L108,141 M120,139 L120,141 M131,139 L131,141 M143,139 L143,141 M166,139 L166,141 M177,139 L177,141 M189,139 L189,141 M200,139 L200,141 M223,139 L223,141 M235,139 L235,141 M246,139 L246,141 M258,139 L258,141 M280,139 L280,141 M292,139 L292,141 M303,139 L303,141 M315,139 L315,141 M338,139 L338,141 M349,139 L349,141 M28.2,139 L28.2,141 M16.7,139 L16.7,141 " fill="none"/></g>
<g id="xMajorTicks" stroke="rgb(0,0,0)" stroke-width="2"><path d="M39.7,139 L39.7,144 M97,139 L97,144 M154,139 L154,144 M212,139 L212,144 M269,139 L269,144 M326,139 L326,144 M39.7,139 L39.7,144 " fill="none"/></g>
<g id="plotLabels">
<text x="39.7" y="159" text-anchor="middle" font-size="12" font-family="Verdana">0</text>
<text x="97" y="159" text-anchor="middle" font-size="12" font-family="Verdana">2</text>
<text x="154" y="159" text-anchor="middle" font-size="12" font-family="Verdana">4</text>
<text x="212" y="159" text-anchor="middle" font-size="12" font-family="Verdana">6</text>
<text x="269" y="159" text-anchor="middle" font-size="12" font-family="Verdana">8</text>
<text x="326" y="159" text-anchor="middle" font-size="12" font-family="Verdana">10</text>
<text x="39.7" y="159" text-anchor="middle" font-size="12" font-family="Verdana">0</text></g>
<g id="xLabel">
<text x="183" y="185" text-anchor="middle" font-size="14" font-family="Verdana"></text></g>
<g id="plotPoints"><g stroke="rgb(255,0,0)" fill="rgb(0,128,0)"><circle cx="129" cy="97.6" r="5"/><circle cx="160" cy="97.6" r="5"/></g>
<g stroke="rgb(0,0,255)"><line x1="99.9" y1="103" x2="99.9" y2="92.6"/><line x1="263" y1="103" x2="263" y2="92.6"/></g>
</g>
<g id="legendBackground" stroke="rgb(255,255,0)" fill="rgb(255,255,255)" stroke-width="1"><rect x="367" y="56" width="122" height="70"/><rect x="367" y="56" width="122" height="70"/></g>
<g id="legendPoints"><g stroke="rgb(255,0,0)" fill="rgb(0,128,0)" stroke-width="2"><circle cx="381" cy="84" r="5"/><line x1="402" y1="84" x2="416" y2="84"/></g>
<g stroke="rgb(0,0,255)" stroke-width="2"><line x1="381" y1="117" x2="381" y2="107"/><line x1="402" y1="112" x2="416" y2="112"/></g>
</g>
<g id="legendText">
<text x="423" y="84" font-size="14" font-family="Verdana">Dan</text>
<text x="423" y="112" font-size="14" font-family="Verdana">Elaine</text></g>
<g id="title">
<text x="250" y="36" text-anchor="middle" font-size="18" font-family="Verdana">Race Times</text></g>
</svg>
