<?xml version="1.0" encoding="UTF-8" standalone="no"?>
<svg width="500" height ="200" version="1.1"
xmlns:svg ="http://www.w3.org/2000/svg"
xmlns:rdf="http://www.w3.org/1999/02/22-rdf-syntax-ns#"
xmlns:cc="http://web.resource.org/cc/"
xmlns:dc="http://purl.org/dc/elements/1.1/"
xmlns ="http://www.w3.org/2000/svg"
>
<!-- SVG plot written using Boost.Plot program (Creator Jacob Voytko) --> 
<!-- Use, modification and distribution of Boost.Plot subject to the --> 
<!-- Boost Software License, Version 1.0.--> 
<!-- (See accompanying file LICENSE_1_0.txt --> 
<!-- or copy at http://www.boost.org/LICENSE_1_0.txt) --> 

<!-- File ./demo_1d_vector_float.svg --> 
<g id="imageBackground" stroke="rgb(255,255,0)" fill="rgb(255,255,255)" stroke-width="1"><rect x="0" y="0" width="500" height="200"/></g>
<g id="plotBackground" stroke="rgb(255,255,0)" fill="rgb(255,255,255)" stroke-width="1"><rect x="11" y="56" width="478" height="83.2"/></g>
<g id="xMinorGrid" stroke="rgb(200,220,255)" stroke-width="0.5"></g>
<g id="xMajorGrid" stroke="rgb(200,220,255)" stroke-width="1"></g>
<g id="xAxis" stroke="rgb(0,0,0)" stroke-width="1"><line x1="250" y1="56" x2="250" y2="139"/><line x1="11" y1="109" x2="489" y2="109"/><line x1="11" y1="139" x2="489" y2="139"/></g>
<g id="xMinorTicks" stroke="rgb(0,0,0)" stroke-width="1"><path d="M260,139 L260,141 M269,139 L269,141 M279,139 L279,141 M288,139 L288,141 M307,139 L307,141 M317,139 L317,141 M326,139 L326,141 M336,139 L336,141 M355,139 L355,141 M365,139 L365,141 M374,139 L374,141 M384,139 L384,141 M403,139 L403,141 M413,139 L413,141 M422,139 L422,141 M432,139 L432,141 M451,139 L451,141 M460,139 L460,141 M470,139 L470,141 M479,139 L479,141 M240,139 L240,141 M231,139 L231,141 M221,139 L221,141 M212,139 L212,141 M193,139 L193,141 M183,139 L183,141 M174,139 L174,141 M164,139 L164,141 M145,139 L145,141 M135,139 L135,141 M126,139 L126,141 M116,139 L116,141 M97,139 L97,141 M87.5,139 L87.5,141 M77.9,139 L77.9,141 M68.4,139 L68.4,141 M49.2,139 L49.2,141 M39.7,139 L39.7,141 M30.1,139 L30.1,141 M20.6,139 L20.6,141 " fill="none"/></g>
<g id="xMajorTicks" stroke="rgb(0,0,0)" stroke-width="2"><path d="M250,139 L250,144 M298,139 L298,144 M346,139 L346,144 M393,139 L393,144 M441,139 L441,144 M489,139 L489,144 M250,139 L250,144 M202,139 L202,144 M154,139 L154,144 M107,139 L107,144 M58.8,139 L58.8,144 M11,139 L11,144 " fill="none"/></g>
<g id="plotLabels">
<text x="250" y="159" text-anchor="middle" font-size="12" font-family="Verdana">0</text>
<text x="298" y="159" text-anchor="middle" font-size="12" font-family="Verdana">2</text>
<text x="346" y="159" text-anchor="middle" font-size="12" font-family="Verdana">4</text>
<text x="393" y="159" text-anchor="middle" font-size="12" font-family="Verdana">6</text>
<text x="441" y="159" text-anchor="middle" font-size="12" font-family="Verdana">8</text>
<text x="489" y="159" text-anchor="middle" font-size="12" font-family="Verdana">10</text>
<text x="250" y="159" text-anchor="middle" font-size="12" font-family="Verdana">0</text>
<text x="202" y="159" text-anchor="middle" font-size="12" font-family="Verdana">-2</text>
<text x="154" y="159" text-anchor="middle" font-size="12" font-family="Verdana">-4</text>
<text x="107" y="159" text-anchor="middle" font-size="12" font-family="Verdana">-6</text>
<text x="58.8" y="159" text-anchor="middle" font-size="12" font-family="Verdana">-8</text>
<text x="11" y="159" text-anchor="middle" font-size="12" font-family="Verdana">-10</text></g>
<g id="xLabel">
<text x="250" y="185" text-anchor="middle" font-size="14" font-family="Verdana"></text></g>
<g id="plotPoints"><g stroke="rgb(0,0,0)"><line x1="324" y1="103" x2="324" y2="92.6"/><line x1="119" y1="103" x2="119" y2="92.6"/><line x1="458" y1="103" x2="458" y2="92.6"/><line x1="262" y1="103" x2="262" y2="92.6"/></g>
</g>
<g id="title">
<text x="250" y="36" text-anchor="middle" font-size="18" font-family="Verdana">vector&lt;float&gt; example</text></g>
</svg>
