<?xml version="1.0" encoding="UTF-8" standalone="no"?><!DOCTYPE svg PUBLIC "-//W3C//DTD SVG 1.1//EN" "http://www.w3.org/graphics/svg/1.1/dtd/svg11.dtd">
<svg width="800" height ="600" version="1.1" xmlns="http://www.w3.org/2000/svg"
 xmlns:xlink="http://www.w3.org/1999/xlink"
 xmlns:ev="http://www.w3.org/2001/xml-events">

<!-- SVG plot written using Boost.Plot program (Creator Jacob Voytko) --> 
<!-- Use, modification and distribution of Boost.Plot subject to the --> 
<!-- Boost Software License, Version 1.0.--> 
<!-- (See accompanying file LICENSE_1_0.txt --> 
<!-- or copy at http://www.boost.org/LICENSE_1_0.txt) --> 

<clipPath id="plot_window"><rect x="43" y="62" width="745" height="495"/></clipPath>
<g id="imageBackground" stroke="rgb(250,240,230)" fill="rgb(255,255,255)" stroke-width="0.5"><rect x="0" y="0" width="800" height="600"/></g>
<g id="plotBackground" stroke="rgb(255,255,224)" fill="rgb(255,255,255)" stroke-width="1"><rect x="42" y="61" width="747" height="497"/></g>
<g id="yMinorGrid" stroke="rgb(200,220,255)" stroke-width="0.5"></g>
<g id="yMajorGrid" stroke="rgb(200,220,255)" stroke-width="1"></g>
<g id="xMinorGrid" stroke="rgb(200,220,255)" stroke-width="0.5"></g>
<g id="xMajorGrid" stroke="rgb(200,220,255)" stroke-width="1"></g>
<g id="yAxis" stroke="rgb(0,0,0)" stroke-width="1"><line x1="104.3" y1="61" x2="104.3" y2="568"/></g>
<g id="xAxis" stroke="rgb(0,0,0)" stroke-width="1"><line x1="32" y1="516.6" x2="789" y2="516.6"/></g>
<g id="yMinorTicks" stroke="rgb(0,0,0)" stroke-width="1"><path d="M99.25,507.8 L104.3,507.8 M99.25,499 L104.3,499 M99.25,490.2 L104.3,490.2 M99.25,481.4 L104.3,481.4 M99.25,463.8 L104.3,463.8 M99.25,455 L104.3,455 M99.25,446.2 L104.3,446.2 M99.25,437.4 L104.3,437.4 M99.25,419.8 L104.3,419.8 M99.25,411.1 L104.3,411.1 M99.25,402.3 L104.3,402.3 M99.25,393.5 L104.3,393.5 M99.25,375.9 L104.3,375.9 M99.25,367.1 L104.3,367.1 M99.25,358.3 L104.3,358.3 M99.25,349.5 L104.3,349.5 M99.25,331.9 L104.3,331.9 M99.25,323.1 L104.3,323.1 M99.25,314.3 L104.3,314.3 M99.25,305.5 L104.3,305.5 M99.25,287.9 L104.3,287.9 M99.25,279.1 L104.3,279.1 M99.25,270.3 L104.3,270.3 M99.25,261.5 L104.3,261.5 M99.25,244 L104.3,244 M99.25,235.2 L104.3,235.2 M99.25,226.4 L104.3,226.4 M99.25,217.6 L104.3,217.6 M99.25,200 L104.3,200 M99.25,191.2 L104.3,191.2 M99.25,182.4 L104.3,182.4 M99.25,173.6 L104.3,173.6 M99.25,156 L104.3,156 M99.25,147.2 L104.3,147.2 M99.25,138.4 L104.3,138.4 M99.25,129.6 L104.3,129.6 M99.25,112 L104.3,112 M99.25,103.3 L104.3,103.3 M99.25,94.46 L104.3,94.46 M99.25,85.66 L104.3,85.66 M99.25,68.07 L104.3,68.07 M99.25,525.4 L104.3,525.4 M99.25,534.2 L104.3,534.2 M99.25,543 L104.3,543 M99.25,551.8 L104.3,551.8 "/></g>
<g id="xMinorTicks" stroke="rgb(0,0,0)" stroke-width="1"><path d="M117.5,516.6 L117.5,521.6 M130.7,516.6 L130.7,521.6 M143.9,516.6 L143.9,521.6 M157.1,516.6 L157.1,521.6 M183.5,516.6 L183.5,521.6 M196.7,516.6 L196.7,521.6 M209.9,516.6 L209.9,521.6 M223.1,516.6 L223.1,521.6 M249.5,516.6 L249.5,521.6 M262.7,516.6 L262.7,521.6 M275.9,516.6 L275.9,521.6 M289.1,516.6 L289.1,521.6 M315.5,516.6 L315.5,521.6 M328.8,516.6 L328.8,521.6 M342,516.6 L342,521.6 M355.2,516.6 L355.2,521.6 M381.6,516.6 L381.6,521.6 M394.8,516.6 L394.8,521.6 M408,516.6 L408,521.6 M421.2,516.6 L421.2,521.6 M447.6,516.6 L447.6,521.6 M460.8,516.6 L460.8,521.6 M474,516.6 L474,521.6 M487.2,516.6 L487.2,521.6 M513.6,516.6 L513.6,521.6 M526.8,516.6 L526.8,521.6 M540.1,516.6 L540.1,521.6 M553.3,516.6 L553.3,521.6 M579.7,516.6 L579.7,521.6 M592.9,516.6 L592.9,521.6 M606.1,516.6 L606.1,521.6 M619.3,516.6 L619.3,521.6 M645.7,516.6 L645.7,521.6 M658.9,516.6 L658.9,521.6 M672.1,516.6 L672.1,521.6 M685.3,516.6 L685.3,521.6 M711.7,516.6 L711.7,521.6 M724.9,516.6 L724.9,521.6 M738.1,516.6 L738.1,521.6 M751.3,516.6 L751.3,521.6 M777.8,516.6 L777.8,521.6 M91.04,516.6 L91.04,521.6 M77.84,516.6 L77.84,521.6 M64.63,516.6 L64.63,521.6 M51.43,516.6 L51.43,521.6 "/></g>
<g id="yMajorTicks" stroke="rgb(0,0,0)" stroke-width="2"><path d="M94.25,472.6 L104.3,472.6 M94.25,428.6 L104.3,428.6 M94.25,384.7 L104.3,384.7 M94.25,340.7 L104.3,340.7 M94.25,296.7 L104.3,296.7 M94.25,252.8 L104.3,252.8 M94.25,208.8 L104.3,208.8 M94.25,164.8 L104.3,164.8 M94.25,120.8 L104.3,120.8 M94.25,76.87 L104.3,76.87 "/></g>
<g id="xMajorTicks" stroke="rgb(0,0,0)" stroke-width="2"><path d="M170.3,516.6 L170.3,526.6 M236.3,516.6 L236.3,526.6 M302.3,516.6 L302.3,526.6 M368.4,516.6 L368.4,526.6 M434.4,516.6 L434.4,526.6 M500.4,516.6 L500.4,526.6 M566.5,516.6 L566.5,526.6 M632.5,516.6 L632.5,526.6 M698.5,516.6 L698.5,526.6 M764.6,516.6 L764.6,526.6 "/></g>
<g id="plotLabels" fill="rgb(0,0,0)"><text x="170.3" y="544.6" text-anchor="middle" font-family="Verdana" font-size="12">1</text><text x="236.3" y="544.6" text-anchor="middle" font-family="Verdana" font-size="12">2</text><text x="302.3" y="544.6" text-anchor="middle" font-family="Verdana" font-size="12">3</text><text x="368.4" y="544.6" text-anchor="middle" font-family="Verdana" font-size="12">4</text><text x="434.4" y="544.6" text-anchor="middle" font-family="Verdana" font-size="12">5</text><text x="500.4" y="544.6" text-anchor="middle" font-family="Verdana" font-size="12">6</text><text x="566.5" y="544.6" text-anchor="middle" font-family="Verdana" font-size="12">7</text><text x="632.5" y="544.6" text-anchor="middle" font-family="Verdana" font-size="12">8</text><text x="698.5" y="544.6" text-anchor="middle" font-family="Verdana" font-size="12">9</text><text x="764.6" y="544.6" text-anchor="middle" font-family="Verdana" font-size="12">10</text><text x="82.25" y="478.6" text-anchor="middle" font-family="Verdana" font-size="12">0.1</text><text x="82.25" y="434.6" text-anchor="middle" font-family="Verdana" font-size="12">0.2</text><text x="82.25" y="390.7" text-anchor="middle" font-family="Verdana" font-size="12">0.3</text><text x="82.25" y="346.7" text-anchor="middle" font-family="Verdana" font-size="12">0.4</text><text x="82.25" y="302.7" text-anchor="middle" font-family="Verdana" font-size="12">0.5</text><text x="82.25" y="258.8" text-anchor="middle" font-family="Verdana" font-size="12">0.6</text><text x="82.25" y="214.8" text-anchor="middle" font-family="Verdana" font-size="12">0.7</text><text x="82.25" y="170.8" text-anchor="middle" font-family="Verdana" font-size="12">0.8</text><text x="82.25" y="126.8" text-anchor="middle" font-family="Verdana" font-size="12">0.9</text><text x="82.25" y="82.87" text-anchor="middle" font-family="Verdana" font-size="12">1</text></g>
<g id="yLabel" fill="rgb(0,0,0)"><text x="21" y="309.5" text-anchor="middle" transform = "rotate(-90 21 309.5 )" font-family="Verdana" font-size="14">Probability</text></g>
<g id="xLabel" fill="rgb(0,0,0)"><text x="415.5" y="586" text-anchor="middle" font-family="Verdana" font-size="14">Random Variable</text></g>
<g id="plotLines" stroke-width="2"><g clip-path="url(#plot_window)" stroke="rgb(0,0,139)"><path d="M104.3,76.87 S114.2,138.6 116.7,152.4 S126.7,203.6 129.2,215 S139.1,257.4 141.6,266.8 S151.6,301.9 154.1,309.7 S164,338.8 166.5,345.3 S176.5,369.3 179,374.7 S188.9,394.6 191.4,399.1 S201.4,415.6 203.9,419.3 S213.8,433 216.3,436 S226.3,447.3 228.8,449.9 S238.7,459.2 241.2,461.3 S251.2,469.1 253.7,470.8 S263.6,477.2 266.1,478.7 S276.1,484 278.6,485.2 S288.5,489.6 291,490.6 S301,494.2 303.5,495.1 S313.4,498.1 315.9,498.8 S325.9,501.3 328.4,501.8 S338.3,503.9 340.8,504.4 S350.8,506.1 353.3,506.5 S363.2,507.9 365.7,508.2 S375.7,509.4 378.2,509.6 S388.1,510.6 390.6,510.8 S400.6,511.6 403.1,511.8 S413,512.5 415.5,512.6 S425.5,513.2 427.9,513.3 S437.9,513.8 440.4,513.9 S450.4,514.3 452.8,514.3 S462.8,514.7 465.3,514.7 S475.3,515 477.7,515 S487.7,515.3 490.2,515.3 S500.2,515.5 502.6,515.5 S512.6,515.7 515.1,515.7 S525.1,515.8 527.5,515.9 S537.5,516 540,516 S550,516.1 552.4,516.1 S562.4,516.2 564.9,516.2 S574.9,516.2 577.3,516.2 S587.3,516.3 589.8,516.3 S599.8,516.3 602.2,516.4 S612.2,516.4 614.7,516.4 S624.7,516.4 627.1,516.4 S637.1,516.4 639.6,516.5 S649.6,516.5 652,516.5 S662,516.5 664.5,516.5 S674.5,516.5 676.9,516.5 S686.9,516.5 689.4,516.5 S699.4,516.5 701.8,516.5 S711.8,516.5 714.3,516.5 S726.7,516.5 726.7,516.5 " fill="none"/></g>
<g clip-path="url(#plot_window)" stroke="rgb(139,0,0)"><path d="M104.3,516.6 S114.2,459.3 116.7,447.9 S126.7,410.1 129.2,402.9 S139.1,379.5 141.6,375.3 S151.6,362.6 154.1,360.6 S164,355.5 166.5,355.1 S176.5,355.5 179,356.1 S188.9,360.2 191.4,361.5 S201.4,368 203.9,369.8 S213.8,377.8 216.3,379.9 S226.3,388.6 228.8,390.8 S238.7,399.7 241.2,402 S251.2,410.9 253.7,413 S263.6,421.6 266.1,423.7 S276.1,431.8 278.6,433.7 S288.5,441.3 291,443.1 S301,450 303.5,451.6 S313.4,458 315.9,459.4 S325.9,465.1 328.4,466.5 S338.3,471.6 340.8,472.8 S350.8,477.3 353.3,478.4 S363.2,482.4 365.7,483.4 S375.7,486.9 378.2,487.8 S388.1,490.9 390.6,491.6 S400.6,494.4 403.1,495 S413,497.4 415.5,498 S425.5,500.1 427.9,500.6 S437.9,502.4 440.4,502.8 S450.4,504.4 452.8,504.8 S462.8,506.1 465.3,506.4 S475.3,507.6 477.7,507.9 S487.7,508.9 490.2,509.1 S500.2,510 502.6,510.2 S512.6,511 515.1,511.2 S525.1,511.8 527.5,511.9 S537.5,512.5 540,512.6 S550,513.1 552.4,513.2 S562.4,513.6 564.9,513.7 S574.9,514.1 577.3,514.1 S587.3,514.4 589.8,514.5 S599.8,514.8 602.2,514.8 S612.2,515 614.7,515.1 S624.7,515.3 627.1,515.3 S637.1,515.5 639.6,515.5 S649.6,515.6 652,515.7 S662,515.8 664.5,515.8 S674.5,515.9 676.9,515.9 S686.9,516 689.4,516 S699.4,516.1 701.8,516.1 S711.8,516.2 714.3,516.2 S726.7,516.3 726.7,516.2 " fill="none"/></g>
<g clip-path="url(#plot_window)" stroke="rgb(0,100,0)"><path d="M104.3,516.6 S114.2,516.4 116.7,516.2 S126.7,514.6 129.2,513.9 S139.1,510.3 141.6,509 S151.6,503.4 154.1,501.8 S164,494.6 166.5,492.7 S176.5,484.5 179,482.4 S188.9,473.7 191.4,471.6 S201.4,463 203.9,460.9 S213.8,452.9 216.3,451 S226.3,443.7 228.8,442 S238.7,435.8 241.2,434.4 S251.2,429.3 253.7,428.2 S263.6,424.3 266.1,423.6 S276.1,420.9 278.6,420.4 S288.5,418.8 291,418.6 S301,418.1 303.5,418.1 S313.4,418.5 315.9,418.7 S325.9,420 328.4,420.4 S338.3,422.3 340.8,422.9 S350.8,425.4 353.3,426.1 S363.2,429 365.7,429.8 S375.7,433.1 378.2,434 S388.1,437.5 390.6,438.4 S400.6,442.1 403.1,443 S413,446.8 415.5,447.7 S425.5,451.5 427.9,452.4 S437.9,456.2 440.4,457.1 S450.4,460.7 452.8,461.6 S462.8,465.2 465.3,466 S475.3,469.4 477.7,470.2 S487.7,473.5 490.2,474.2 S500.2,477.3 502.6,478 S512.6,480.9 515.1,481.5 S525.1,484.2 527.5,484.8 S537.5,487.3 540,487.9 S550,490.2 552.4,490.7 S562.4,492.8 564.9,493.3 S574.9,495.3 577.3,495.7 S587.3,497.5 589.8,497.9 S599.8,499.5 602.2,499.9 S612.2,501.4 614.7,501.7 S624.7,503 627.1,503.3 S637.1,504.5 639.6,504.8 S649.6,505.9 652,506.1 S662,507.1 664.5,507.3 S674.5,508.2 676.9,508.4 S686.9,509.2 689.4,509.4 S699.4,510 701.8,510.2 S711.8,510.8 714.3,511 S726.7,511.7 726.7,511.6 " fill="none"/></g>
</g>
<g id="plotPoints" clip-path="url(#plot_window)"><g stroke="rgb(0,0,0)" fill="rgb(255,255,255)"></g>
<g stroke="rgb(0,0,0)" fill="rgb(255,255,255)"></g>
<g stroke="rgb(0,0,0)" fill="rgb(255,255,255)"></g>
</g>
<g id="limitPoints" stroke="rgb(119,136,153)" fill="rgb(250,235,215)"></g>
<g id="legendBackground" stroke="rgb(0,0,0)" fill="rgb(255,255,255)"><rect x="500" y="150" width="145.5" height="105"/><rect x="500" y="150" width="145.5" height="105"/></g>
<g id="legendPoints"><g stroke="rgb(0,0,139)" stroke-width="2"><line x1="507.5" y1="172.5" x2="530" y2="172.5"/></g>
<g stroke="rgb(139,0,0)" stroke-width="2"><line x1="507.5" y1="202.5" x2="530" y2="202.5"/></g>
<g stroke="rgb(0,100,0)" stroke-width="2"><line x1="507.5" y1="232.5" x2="530" y2="232.5"/></g>
</g>
<g id="legendText" fill="rgb(0,0,0)"><text x="537.5" y="172.5" text-anchor="start" font-family="Verdana" font-size="15">shape = 0.5</text><text x="537.5" y="202.5" text-anchor="start" font-family="Verdana" font-size="15">shape = 1</text><text x="537.5" y="232.5" text-anchor="start" font-family="Verdana" font-size="15">shape = 3</text></g>
<g id="title" fill="rgb(0,0,0)"><text x="400" y="40.67" text-anchor="middle" font-family="Verdana" font-size="20">Gamma Distribution PDF With Scale = 1</text></g>
</svg>
