<?xml version="1.0" encoding="UTF-8" standalone="no"?><!DOCTYPE svg PUBLIC "-//W3C//DTD SVG 1.1//EN" "http://www.w3.org/graphics/svg/1.1/dtd/svg11.dtd">
<svg width="800" height ="600" version="1.1" xmlns="http://www.w3.org/2000/svg"
 xmlns:xlink="http://www.w3.org/1999/xlink"
 xmlns:ev="http://www.w3.org/2001/xml-events">

<!-- SVG plot written using Boost.Plot program (Creator Jacob Voytko) --> 
<!-- Use, modification and distribution of Boost.Plot subject to the --> 
<!-- Boost Software License, Version 1.0.--> 
<!-- (See accompanying file LICENSE_1_0.txt --> 
<!-- or copy at http://www.boost.org/LICENSE_1_0.txt) --> 

<clipPath id="plot_window"><rect x="43" y="62" width="745" height="495"/></clipPath>
<g id="imageBackground" stroke="rgb(250,240,230)" fill="rgb(255,255,255)" stroke-width="0.5"><rect x="0" y="0" width="800" height="600"/></g>
<g id="plotBackground" stroke="rgb(255,255,224)" fill="rgb(255,255,255)" stroke-width="1"><rect x="42" y="61" width="747" height="497"/></g>
<g id="yMinorGrid" stroke="rgb(200,220,255)" stroke-width="0.5"></g>
<g id="yMajorGrid" stroke="rgb(200,220,255)" stroke-width="1"></g>
<g id="xMinorGrid" stroke="rgb(200,220,255)" stroke-width="0.5"></g>
<g id="xMajorGrid" stroke="rgb(200,220,255)" stroke-width="1"></g>
<g id="yAxis" stroke="rgb(0,0,0)" stroke-width="1"><line x1="104.3" y1="61" x2="104.3" y2="568"/></g>
<g id="xAxis" stroke="rgb(0,0,0)" stroke-width="1"><line x1="32" y1="516.6" x2="789" y2="516.6"/></g>
<g id="yMinorTicks" stroke="rgb(0,0,0)" stroke-width="1"><path d="M99.25,472.6 L104.3,472.6 M99.25,428.6 L104.3,428.6 M99.25,384.7 L104.3,384.7 M99.25,340.7 L104.3,340.7 M99.25,252.7 L104.3,252.7 M99.25,208.8 L104.3,208.8 M99.25,164.8 L104.3,164.8 M99.25,120.8 L104.3,120.8 "/></g>
<g id="xMinorTicks" stroke="rgb(0,0,0)" stroke-width="1"><path d="M118.1,516.6 L118.1,521.6 M132,516.6 L132,521.6 M145.9,516.6 L145.9,521.6 M159.7,516.6 L159.7,521.6 M187.5,516.6 L187.5,521.6 M201.3,516.6 L201.3,521.6 M215.2,516.6 L215.2,521.6 M229.1,516.6 L229.1,521.6 M256.8,516.6 L256.8,521.6 M270.7,516.6 L270.7,521.6 M284.5,516.6 L284.5,521.6 M298.4,516.6 L298.4,521.6 M326.1,516.6 L326.1,521.6 M340,516.6 L340,521.6 M353.9,516.6 L353.9,521.6 M367.7,516.6 L367.7,521.6 M395.5,516.6 L395.5,521.6 M409.3,516.6 L409.3,521.6 M423.2,516.6 L423.2,521.6 M437.1,516.6 L437.1,521.6 M464.8,516.6 L464.8,521.6 M478.7,516.6 L478.7,521.6 M492.5,516.6 L492.5,521.6 M506.4,516.6 L506.4,521.6 M534.1,516.6 L534.1,521.6 M548,516.6 L548,521.6 M561.9,516.6 L561.9,521.6 M575.7,516.6 L575.7,521.6 M603.5,516.6 L603.5,521.6 M617.3,516.6 L617.3,521.6 M631.2,516.6 L631.2,521.6 M645.1,516.6 L645.1,521.6 M672.8,516.6 L672.8,521.6 M686.7,516.6 L686.7,521.6 M700.6,516.6 L700.6,521.6 M714.4,516.6 L714.4,521.6 M742.2,516.6 L742.2,521.6 M756,516.6 L756,521.6 M769.9,516.6 L769.9,521.6 M783.8,516.6 L783.8,521.6 M90.38,516.6 L90.38,521.6 M76.51,516.6 L76.51,521.6 M62.65,516.6 L62.65,521.6 M48.78,516.6 L48.78,521.6 "/></g>
<g id="yMajorTicks" stroke="rgb(0,0,0)" stroke-width="2"><path d="M94.25,296.7 L104.3,296.7 M94.25,76.85 L104.3,76.85 "/></g>
<g id="xMajorTicks" stroke="rgb(0,0,0)" stroke-width="2"><path d="M173.6,516.6 L173.6,526.6 M242.9,516.6 L242.9,526.6 M312.3,516.6 L312.3,526.6 M381.6,516.6 L381.6,526.6 M450.9,516.6 L450.9,526.6 M520.3,516.6 L520.3,526.6 M589.6,516.6 L589.6,526.6 M659,516.6 L659,526.6 M728.3,516.6 L728.3,526.6 "/></g>
<g id="plotLabels" fill="rgb(0,0,0)"><text x="173.6" y="544.6" text-anchor="middle" font-family="Verdana" font-size="12">1</text><text x="242.9" y="544.6" text-anchor="middle" font-family="Verdana" font-size="12">2</text><text x="312.3" y="544.6" text-anchor="middle" font-family="Verdana" font-size="12">3</text><text x="381.6" y="544.6" text-anchor="middle" font-family="Verdana" font-size="12">4</text><text x="450.9" y="544.6" text-anchor="middle" font-family="Verdana" font-size="12">5</text><text x="520.3" y="544.6" text-anchor="middle" font-family="Verdana" font-size="12">6</text><text x="589.6" y="544.6" text-anchor="middle" font-family="Verdana" font-size="12">7</text><text x="659" y="544.6" text-anchor="middle" font-family="Verdana" font-size="12">8</text><text x="728.3" y="544.6" text-anchor="middle" font-family="Verdana" font-size="12">9</text><text x="82.25" y="302.7" text-anchor="middle" font-family="Verdana" font-size="12">1</text><text x="82.25" y="82.85" text-anchor="middle" font-family="Verdana" font-size="12">2</text></g>
<g id="yLabel" fill="rgb(0,0,0)"><text x="21" y="309.5" text-anchor="middle" transform = "rotate(-90 21 309.5 )" font-family="Verdana" font-size="14">Probability</text></g>
<g id="xLabel" fill="rgb(0,0,0)"><text x="415.5" y="586" text-anchor="middle" font-family="Verdana" font-size="14">Random Variable</text></g>
<g id="plotLines" stroke-width="2"><g clip-path="url(#plot_window)" stroke="rgb(0,0,139)"><path d="M104.3,76.85 S114.2,187 116.7,209.5 S126.7,286.4 129.2,302.2 S139.1,355.9 141.6,366.9 S151.6,404.4 154.1,412 S164,438.2 166.5,443.6 S176.5,461.9 178.9,465.6 S188.9,478.4 191.4,481 S201.4,489.9 203.8,491.7 S213.8,497.9 216.3,499.2 S226.3,503.6 228.7,504.5 S238.7,507.5 241.2,508.1 S251.2,510.2 253.6,510.7 S263.6,512.2 266.1,512.5 S276.1,513.5 278.6,513.7 S288.5,514.4 291,514.6 S301,515.1 303.5,515.2 S313.4,515.5 315.9,515.6 S325.9,515.8 328.4,515.9 S338.3,516.1 340.8,516.1 S350.8,516.2 353.3,516.2 S363.2,516.3 365.7,516.3 S375.7,516.4 378.2,516.4 S388.1,516.5 390.6,516.5 S400.6,516.5 403.1,516.5 S413,516.5 415.5,516.5 S425.5,516.5 428,516.5 S437.9,516.6 440.4,516.6 S450.4,516.6 452.9,516.6 S462.8,516.6 465.3,516.6 S475.3,516.6 477.8,516.6 S487.7,516.6 490.2,516.6 S500.2,516.6 502.6,516.6 S512.6,516.6 515.1,516.6 S525.1,516.6 527.5,516.6 S537.5,516.6 540,516.6 S550,516.6 552.4,516.6 S562.4,516.6 564.9,516.6 S574.9,516.6 577.3,516.6 S587.3,516.6 589.8,516.6 S599.8,516.6 602.2,516.6 S612.2,516.6 614.7,516.6 S624.7,516.6 627.1,516.6 S637.1,516.6 639.6,516.6 S649.6,516.6 652,516.6 S662,516.6 664.5,516.6 S674.5,516.6 676.9,516.6 S686.9,516.6 689.4,516.6 S699.4,516.6 701.8,516.6 S711.8,516.6 714.3,516.6 S726.7,516.6 726.7,516.6 " fill="none"/></g>
<g clip-path="url(#plot_window)" stroke="rgb(139,0,0)"><path d="M104.3,296.7 S114.2,326.2 116.7,332.9 S126.7,357.5 129.2,363.1 S139.1,383.7 141.6,388.3 S151.6,405.5 154.1,409.4 S164,423.8 166.5,427 S176.5,439 178.9,441.7 S188.9,451.8 191.4,454 S201.4,462.4 203.8,464.3 S213.8,471.3 216.3,472.9 S226.3,478.8 228.7,480.1 S238.7,485 241.2,486.1 S251.2,490.2 253.6,491.1 S263.6,494.5 266.1,495.3 S276.1,498.1 278.6,498.8 S288.5,501.2 291,501.7 S301,503.7 303.5,504.2 S313.4,505.8 315.9,506.2 S325.9,507.6 328.4,507.9 S338.3,509.1 340.8,509.3 S350.8,510.3 353.3,510.5 S363.2,511.3 365.7,511.5 S375.7,512.2 378.2,512.4 S388.1,512.9 390.6,513 S400.6,513.5 403.1,513.6 S413,514 415.5,514.1 S425.5,514.4 428,514.5 S437.9,514.8 440.4,514.9 S450.4,515.1 452.9,515.1 S462.8,515.3 465.3,515.4 S475.3,515.5 477.8,515.6 S487.7,515.7 490.2,515.7 S500.2,515.9 502.6,515.9 S512.6,516 515.1,516 S525.1,516.1 527.5,516.1 S537.5,516.2 540,516.2 S550,516.2 552.4,516.2 S562.4,516.3 564.9,516.3 S574.9,516.3 577.3,516.3 S587.3,516.4 589.8,516.4 S599.8,516.4 602.2,516.4 S612.2,516.4 614.7,516.4 S624.7,516.5 627.1,516.5 S637.1,516.5 639.6,516.5 S649.6,516.5 652,516.5 S662,516.5 664.5,516.5 S674.5,516.5 676.9,516.5 S686.9,516.5 689.4,516.5 S699.4,516.5 701.8,516.5 S711.8,516.5 714.3,516.6 S726.7,516.6 726.7,516.6 " fill="none"/></g>
<g clip-path="url(#plot_window)" stroke="rgb(0,100,0)"><path d="M104.3,443.3 S114.2,446.7 116.7,447.6 S126.7,450.8 129.2,451.6 S139.1,454.6 141.6,455.3 S151.6,458.2 154.1,458.9 S164,461.6 166.5,462.2 S176.5,464.8 178.9,465.4 S188.9,467.8 191.4,468.4 S201.4,470.6 203.8,471.2 S213.8,473.3 216.3,473.8 S226.3,475.8 228.7,476.3 S238.7,478.2 241.2,478.6 S251.2,480.4 253.6,480.8 S263.6,482.5 266.1,482.9 S276.1,484.5 278.6,484.9 S288.5,486.4 291,486.7 S301,488.1 303.5,488.5 S313.4,489.8 315.9,490.1 S325.9,491.3 328.4,491.6 S338.3,492.8 340.8,493.1 S350.8,494.2 353.3,494.4 S363.2,495.5 365.7,495.7 S375.7,496.7 378.2,496.9 S388.1,497.9 390.6,498.1 S400.6,498.9 403.1,499.2 S413,500 415.5,500.2 S425.5,500.9 428,501.1 S437.9,501.8 440.4,502 S450.4,502.7 452.9,502.9 S462.8,503.5 465.3,503.7 S475.3,504.3 477.8,504.4 S487.7,505 490.2,505.1 S500.2,505.7 502.6,505.8 S512.6,506.3 515.1,506.4 S525.1,506.9 527.5,507 S537.5,507.5 540,507.6 S550,508 552.4,508.1 S562.4,508.5 564.9,508.6 S574.9,509 577.3,509 S587.3,509.4 589.8,509.5 S599.8,509.8 602.2,509.9 S612.2,510.2 614.7,510.3 S624.7,510.6 627.1,510.6 S637.1,510.9 639.6,511 S649.6,511.3 652,511.3 S662,511.6 664.5,511.6 S674.5,511.9 676.9,511.9 S686.9,512.1 689.4,512.2 S699.4,512.4 701.8,512.4 S711.8,512.6 714.3,512.7 S726.7,512.9 726.7,512.9 " fill="none"/></g>
</g>
<g id="plotPoints" clip-path="url(#plot_window)"><g stroke="rgb(0,0,0)" fill="rgb(255,255,255)"></g>
<g stroke="rgb(0,0,0)" fill="rgb(255,255,255)"></g>
<g stroke="rgb(0,0,0)" fill="rgb(255,255,255)"></g>
</g>
<g id="limitPoints" stroke="rgb(119,136,153)" fill="rgb(250,235,215)"></g>
<g id="legendBackground" stroke="rgb(0,0,0)" fill="rgb(255,255,255)"><rect x="500" y="150" width="145.5" height="105"/><rect x="500" y="150" width="145.5" height="105"/></g>
<g id="legendPoints"><g stroke="rgb(0,0,139)" stroke-width="2"><line x1="507.5" y1="172.5" x2="530" y2="172.5"/></g>
<g stroke="rgb(139,0,0)" stroke-width="2"><line x1="507.5" y1="202.5" x2="530" y2="202.5"/></g>
<g stroke="rgb(0,100,0)" stroke-width="2"><line x1="507.5" y1="232.5" x2="530" y2="232.5"/></g>
</g>
<g id="legendText" fill="rgb(0,0,0)"><text x="537.5" y="172.5" text-anchor="start" font-family="Verdana" font-size="15">scale = 0.5</text><text x="537.5" y="202.5" text-anchor="start" font-family="Verdana" font-size="15">scale = 1</text><text x="537.5" y="232.5" text-anchor="start" font-family="Verdana" font-size="15">scale = 3</text></g>
<g id="title" fill="rgb(0,0,0)"><text x="400" y="40.67" text-anchor="middle" font-family="Verdana" font-size="20">Gamma Distribution PDF With Shape = 1, scale 0.5 to 3</text></g>
</svg>
