<?xml version="1.0" encoding="UTF-8" standalone="no"?>
<svg width="750" height ="400" version="1.1"
xmlns:svg ="http://www.w3.org/2000/svg"
xmlns:rdf="http://www.w3.org/1999/02/22-rdf-syntax-ns#"
xmlns:cc="http://web.resource.org/cc/"
xmlns:dc="http://purl.org/dc/elements/1.1/"
xmlns ="http://www.w3.org/2000/svg"
>
<!-- SVG plot written using Boost.Plot program (Creator Jacob Voytko) --> 
<!-- Use, modification and distribution of Boost.Plot subject to the --> 
<!-- Boost Software License, Version 1.0.--> 
<!-- (See accompanying file LICENSE_1_0.txt --> 
<!-- or copy at http://www.boost.org/LICENSE_1_0.txt) --> 

<clipPath id="plot_window"><rect x="79.6" y="63" width="438.3" height="274.2"/></clipPath>
<g id="imageBackground" stroke="rgb(119,136,153)" fill="rgb(255,255,255)" stroke-width="2"><rect x="0" y="0" width="750" height="400"/></g>
<g id="plotBackground" stroke="rgb(119,136,153)" fill="rgb(255,255,255)" stroke-width="2"><rect x="78.6" y="62" width="440.3" height="276.2"/></g>
<g id="yMinorGrid" stroke="rgb(200,220,255)" stroke-width="0.5"></g>
<g id="yMajorGrid" stroke="rgb(200,220,255)" stroke-width="1"></g>
<g id="xMinorGrid" stroke="rgb(200,220,255)" stroke-width="0.5"></g>
<g id="xMajorGrid" stroke="rgb(200,220,255)" stroke-width="1"></g>
<g id="yAxis" stroke="rgb(0,0,0)" stroke-width="1"><line x1="85.7" y1="62" x2="85.7" y2="343.2"/><line x1="78.6" y1="62" x2="78.6" y2="338.2"/></g>
<g id="xAxis" stroke="rgb(0,0,0)" stroke-width="1"><line x1="73.6" y1="338.2" x2="518.9" y2="338.2"/><line x1="73.6" y1="338.2" x2="518.9" y2="338.2"/></g>
<g id="yMinorTicks" stroke="rgb(0,0,0)" stroke-width="1"><path d="M76.6,327.9 L78.6,327.9 M76.6,317.6 L78.6,317.6 M76.6,307.3 L78.6,307.3 M76.6,296.9 L78.6,296.9 M76.6,276.3 L78.6,276.3 M76.6,266 L78.6,266 M76.6,255.7 L78.6,255.7 M76.6,245.4 L78.6,245.4 M76.6,224.8 L78.6,224.8 M76.6,214.4 L78.6,214.4 M76.6,204.1 L78.6,204.1 M76.6,193.8 L78.6,193.8 M76.6,173.2 L78.6,173.2 M76.6,162.9 L78.6,162.9 M76.6,152.6 L78.6,152.6 M76.6,142.3 L78.6,142.3 M76.6,121.6 L78.6,121.6 M76.6,111.3 L78.6,111.3 M76.6,101 L78.6,101 M76.6,90.7 L78.6,90.7 M76.6,70.07 L78.6,70.07 M76.6,338.2 L78.6,338.2 " fill="none"/></g>
<g id="xMinorTicks" stroke="rgb(0,0,0)" stroke-width="1"></g>
<g id="yMajorTicks" stroke="rgb(0,0,0)" stroke-width="2"><path d="M73.6,338.2 L78.6,338.2 M73.6,286.6 L78.6,286.6 M73.6,235.1 L78.6,235.1 M73.6,183.5 L78.6,183.5 M73.6,131.9 L78.6,131.9 M73.6,80.39 L78.6,80.39 M73.6,338.2 L78.6,338.2 " fill="none"/></g>
<g id="xMajorTicks" stroke="rgb(0,0,0)" stroke-width="2"><path d="M85.7,338.2 L85.7,343.2 M156.7,338.2 L156.7,343.2 M227.7,338.2 L227.7,343.2 M298.7,338.2 L298.7,343.2 M369.8,338.2 L369.8,343.2 M440.8,338.2 L440.8,343.2 M511.8,338.2 L511.8,343.2 M85.7,338.2 L85.7,343.2 " fill="none"/></g>
<g id="plotLabels">
<text x="85.7" y="357.6" text-anchor="middle" font-size="12" font-family="Verdana">0</text>
<text x="156.7" y="357.6" text-anchor="middle" font-size="12" font-family="Verdana">5</text>
<text x="227.7" y="357.6" text-anchor="middle" font-size="12" font-family="Verdana">10</text>
<text x="298.7" y="357.6" text-anchor="middle" font-size="12" font-family="Verdana">15</text>
<text x="369.8" y="357.6" text-anchor="middle" font-size="12" font-family="Verdana">20</text>
<text x="440.8" y="357.6" text-anchor="middle" font-size="12" font-family="Verdana">25</text>
<text x="511.8" y="357.6" text-anchor="middle" font-size="12" font-family="Verdana">30</text>
<text x="85.7" y="357.6" text-anchor="middle" font-size="12" font-family="Verdana">0</text>
<text x="67.6" y="340.6" text-anchor="end" font-size="12" font-family="Verdana">0</text>
<text x="67.6" y="289" text-anchor="end" font-size="12" font-family="Verdana">0.05</text>
<text x="67.6" y="237.5" text-anchor="end" font-size="12" font-family="Verdana">0.1</text>
<text x="67.6" y="185.9" text-anchor="end" font-size="12" font-family="Verdana">0.15</text>
<text x="67.6" y="134.3" text-anchor="end" font-size="12" font-family="Verdana">0.2</text>
<text x="67.6" y="82.79" text-anchor="end" font-size="12" font-family="Verdana">0.25</text>
<text x="67.6" y="340.6" text-anchor="end" font-size="12" font-family="Verdana">0</text></g>
<g id="yLabel">
<text x="30.2" y="200.1" text-anchor="middle" transform = "rotate(-90 30.2 200.1 )" font-size="14" font-family="Verdana">Probability</text></g>
<g id="xLabel">
<text x="298.7" y="384" text-anchor="middle" font-size="14" font-family="Verdana">Random Variable</text></g>
<g id="plotLines" stroke-width="2"><g clip-path="url(#plot_window)" stroke="rgb(0,0,139)" fill="rgb(0,0,139)" stroke-width="1"><path d="M80.38,338.2 L80.38,338.2 L80.38,298.7 L82.51,298.7 L82.51,338.2 L94.58,338.2 L94.58,197.4 L96.71,197.4 L96.71,338.2 L108.8,338.2 L108.8,101.1 L110.9,101.1 L110.9,338.2 L123,338.2 L123,87.11 L125.1,87.11 L125.1,338.2 L137.2,338.2 L137.2,150.3 L139.3,150.3 L139.3,338.2 L151.4,338.2 L151.4,232.5 L153.5,232.5 L153.5,338.2 L165.6,338.2 L165.6,291.7 L167.7,291.7 L167.7,338.2 L179.8,338.2 L179.8,321.8 L181.9,321.8 L181.9,338.2 L194,338.2 L194,333.5 L196.1,333.5 L196.1,338.2 L208.2,338.2 L208.2,337.1 L210.3,337.1 L210.3,338.2 L222.4,338.2 L222.4,338 L224.5,338 L224.5,338.2 L236.6,338.2 L236.6,338.2 L238.7,338.2 L238.7,338.2 L250.8,338.2 L250.8,338.2 L252.9,338.2 L252.9,338.2 L265,338.2 L265,338.2 L267.1,338.2 L267.1,338.2 L279.2,338.2 L279.2,338.2 L281.3,338.2 L281.3,338.2 L293.4,338.2 L293.4,338.2 L295.5,338.2 L295.5,338.2 L307.6,338.2 L307.6,338.2 L309.7,338.2 L309.7,338.2 L321.8,338.2 L321.8,338.2 L323.9,338.2 L323.9,338.2 L336,338.2 L336,338.2 L338.2,338.2 L338.2,338.2 L350.2,338.2 L350.2,338.2 L352.4,338.2 L352.4,338.2 L364.4,338.2 L364.4,338.2 L366.6,338.2 L366.6,338.2 L378.6,338.2 L378.6,338.2 L380.8,338.2 L380.8,338.2 L392.8,338.2 L392.8,338.2 L395,338.2 L395,338.2 L407,338.2 L407,338.2 L409.2,338.2 L409.2,338.2 L421.2,338.2 L421.2,338.2 L423.4,338.2 L423.4,338.2 L435.4,338.2 L435.4,338.2 L437.6,338.2 L437.6,338.2 L449.6,338.2 L449.6,338.2 L451.8,338.2 L451.8,338.2 L463.8,338.2 L463.8,338.2 L466,338.2 L466,338.2 L478,338.2 L478,338.2 L480.2,338.2 L480.2,338.2 L492.3,338.2 L492.3,338.2 L494.4,338.2 L494.4,338.2 L506.5,338.2 L506.5,338.2 L508.6,338.2 L508.6,338.2 L508.6,338.2 Z" fill="rgb(0,0,139)"/></g>
<g clip-path="url(#plot_window)" stroke="rgb(139,0,0)" fill="rgb(139,0,0)" stroke-width="1"><path d="M82.51,338.2 L82.51,338.2 L82.51,337.2 L84.64,337.2 L84.64,338.2 L96.71,338.2 L96.71,330 L98.84,330 L98.84,338.2 L110.9,338.2 L110.9,306.5 L113,306.5 L113,338.2 L125.1,338.2 L125.1,260.4 L127.2,260.4 L127.2,338.2 L139.3,338.2 L139.3,202 L141.4,202 L141.4,338.2 L153.5,338.2 L153.5,156.9 L155.6,156.9 L155.6,338.2 L167.7,338.2 L167.7,147.3 L169.9,147.3 L169.9,338.2 L181.9,338.2 L181.9,175 L184.1,175 L184.1,338.2 L196.1,338.2 L196.1,222.8 L198.3,222.8 L198.3,338.2 L210.3,338.2 L210.3,269.7 L212.5,269.7 L212.5,338.2 L224.5,338.2 L224.5,303.8 L226.7,303.8 L226.7,338.2 L238.7,338.2 L238.7,323.4 L240.9,323.4 L240.9,338.2 L252.9,338.2 L252.9,332.7 L255.1,332.7 L255.1,338.2 L267.1,338.2 L267.1,336.5 L269.3,336.5 L269.3,338.2 L281.3,338.2 L281.3,337.7 L283.5,337.7 L283.5,338.2 L295.5,338.2 L295.5,338.1 L297.7,338.1 L297.7,338.2 L309.7,338.2 L309.7,338.2 L311.9,338.2 L311.9,338.2 L323.9,338.2 L323.9,338.2 L326.1,338.2 L326.1,338.2 L338.2,338.2 L338.2,338.2 L340.3,338.2 L340.3,338.2 L352.4,338.2 L352.4,338.2 L354.5,338.2 L354.5,338.2 L366.6,338.2 L366.6,338.2 L368.7,338.2 L368.7,338.2 L380.8,338.2 L380.8,338.2 L382.9,338.2 L382.9,338.2 L395,338.2 L395,338.2 L397.1,338.2 L397.1,338.2 L409.2,338.2 L409.2,338.2 L411.3,338.2 L411.3,338.2 L423.4,338.2 L423.4,338.2 L425.5,338.2 L425.5,338.2 L437.6,338.2 L437.6,338.2 L439.7,338.2 L439.7,338.2 L451.8,338.2 L451.8,338.2 L453.9,338.2 L453.9,338.2 L466,338.2 L466,338.2 L468.1,338.2 L468.1,338.2 L480.2,338.2 L480.2,338.2 L482.3,338.2 L482.3,338.2 L494.4,338.2 L494.4,338.2 L496.5,338.2 L496.5,338.2 L508.6,338.2 L508.6,338.2 L510.7,338.2 L510.7,338.2 L510.7,338.2 Z" fill="rgb(139,0,0)"/></g>
<g clip-path="url(#plot_window)" stroke="rgb(0,100,0)" fill="rgb(0,100,0)" stroke-width="1"><path d="M84.64,338.2 L84.64,338.2 L84.64,338.2 L86.77,338.2 L86.77,338.2 L98.84,338.2 L98.84,338.2 L101,338.2 L101,338.2 L113,338.2 L113,338.2 L115.2,338.2 L115.2,338.2 L127.2,338.2 L127.2,338.2 L129.4,338.2 L129.4,338.2 L141.4,338.2 L141.4,338.2 L143.6,338.2 L143.6,338.2 L155.6,338.2 L155.6,338.1 L157.8,338.1 L157.8,338.2 L169.9,338.2 L169.9,337.8 L172,337.8 L172,338.2 L184.1,338.2 L184.1,336.7 L186.2,336.7 L186.2,338.2 L198.3,338.2 L198.3,333.5 L200.4,333.5 L200.4,338.2 L212.5,338.2 L212.5,326 L214.6,326 L214.6,338.2 L226.7,338.2 L226.7,311.4 L228.8,311.4 L228.8,338.2 L240.9,338.2 L240.9,287.6 L243,287.6 L243,338.2 L255.1,338.2 L255.1,255.7 L257.2,255.7 L257.2,338.2 L269.3,338.2 L269.3,221.6 L271.4,221.6 L271.4,338.2 L283.5,338.2 L283.5,194.8 L285.6,194.8 L285.6,338.2 L297.7,338.2 L297.7,184.5 L299.8,184.5 L299.8,338.2 L311.9,338.2 L311.9,194.8 L314,194.8 L314,338.2 L326.1,338.2 L326.1,221.6 L328.2,221.6 L328.2,338.2 L340.3,338.2 L340.3,255.7 L342.4,255.7 L342.4,338.2 L354.5,338.2 L354.5,287.6 L356.6,287.6 L356.6,338.2 L368.7,338.2 L368.7,311.4 L370.8,311.4 L370.8,338.2 L382.9,338.2 L382.9,326 L385,326 L385,338.2 L397.1,338.2 L397.1,333.5 L399.2,333.5 L399.2,338.2 L411.3,338.2 L411.3,336.7 L413.4,336.7 L413.4,338.2 L425.5,338.2 L425.5,337.8 L427.6,337.8 L427.6,338.2 L439.7,338.2 L439.7,338.1 L441.8,338.1 L441.8,338.2 L453.9,338.2 L453.9,338.2 L456,338.2 L456,338.2 L468.1,338.2 L468.1,338.2 L470.2,338.2 L470.2,338.2 L482.3,338.2 L482.3,338.2 L484.4,338.2 L484.4,338.2 L496.5,338.2 L496.5,338.2 L498.6,338.2 L498.6,338.2 L510.7,338.2 L510.7,338.2 L512.8,338.2 L512.8,338.2 L512.8,338.2 Z" fill="rgb(0,100,0)"/></g>
<g clip-path="url(#plot_window)" stroke="rgb(255,140,0)" fill="rgb(255,140,0)" stroke-width="1"><path d="M86.77,338.2 L86.77,338.2 L86.77,338.2 L88.9,338.2 L88.9,338.2 L101,338.2 L101,338.2 L103.1,338.2 L103.1,338.2 L115.2,338.2 L115.2,338.2 L117.3,338.2 L117.3,338.2 L129.4,338.2 L129.4,338.2 L131.5,338.2 L131.5,338.2 L143.6,338.2 L143.6,338.2 L145.7,338.2 L145.7,338.2 L157.8,338.2 L157.8,338.2 L159.9,338.2 L159.9,338.2 L172,338.2 L172,338.2 L174.1,338.2 L174.1,338.2 L186.2,338.2 L186.2,338.2 L188.3,338.2 L188.3,338.2 L200.4,338.2 L200.4,338.2 L202.5,338.2 L202.5,338.2 L214.6,338.2 L214.6,338.2 L216.7,338.2 L216.7,338.2 L228.8,338.2 L228.8,338.2 L230.9,338.2 L230.9,338.2 L243,338.2 L243,338.2 L245.1,338.2 L245.1,338.2 L257.2,338.2 L257.2,338.2 L259.3,338.2 L259.3,338.2 L271.4,338.2 L271.4,338.2 L273.5,338.2 L273.5,338.2 L285.6,338.2 L285.6,338.2 L287.7,338.2 L287.7,338.2 L299.8,338.2 L299.8,338.1 L301.9,338.1 L301.9,338.2 L314,338.2 L314,337.7 L316.1,337.7 L316.1,338.2 L328.2,338.2 L328.2,336.5 L330.3,336.5 L330.3,338.2 L342.4,338.2 L342.4,332.7 L344.5,332.7 L344.5,338.2 L356.6,338.2 L356.6,323.4 L358.7,323.4 L358.7,338.2 L370.8,338.2 L370.8,303.8 L372.9,303.8 L372.9,338.2 L385,338.2 L385,269.7 L387.2,269.7 L387.2,338.2 L399.2,338.2 L399.2,222.8 L401.4,222.8 L401.4,338.2 L413.4,338.2 L413.4,175 L415.6,175 L415.6,338.2 L427.6,338.2 L427.6,147.3 L429.8,147.3 L429.8,338.2 L441.8,338.2 L441.8,156.9 L444,156.9 L444,338.2 L456,338.2 L456,202 L458.2,202 L458.2,338.2 L470.2,338.2 L470.2,260.4 L472.4,260.4 L472.4,338.2 L484.4,338.2 L484.4,306.5 L486.6,306.5 L486.6,338.2 L498.6,338.2 L498.6,330 L500.8,330 L500.8,338.2 L512.8,338.2 L512.8,337.2 L515,337.2 L515,338.2 L515,338.2 Z" fill="rgb(255,140,0)"/></g>
<g clip-path="url(#plot_window)" stroke="rgb(127,255,0)" fill="rgb(127,255,0)" stroke-width="1"><path d="M88.9,338.2 L88.9,338.2 L88.9,338.2 L91.03,338.2 L91.03,338.2 L103.1,338.2 L103.1,338.2 L105.2,338.2 L105.2,338.2 L117.3,338.2 L117.3,338.2 L119.4,338.2 L119.4,338.2 L131.5,338.2 L131.5,338.2 L133.6,338.2 L133.6,338.2 L145.7,338.2 L145.7,338.2 L147.8,338.2 L147.8,338.2 L159.9,338.2 L159.9,338.2 L162,338.2 L162,338.2 L174.1,338.2 L174.1,338.2 L176.2,338.2 L176.2,338.2 L188.3,338.2 L188.3,338.2 L190.4,338.2 L190.4,338.2 L202.5,338.2 L202.5,338.2 L204.6,338.2 L204.6,338.2 L216.7,338.2 L216.7,338.2 L218.9,338.2 L218.9,338.2 L230.9,338.2 L230.9,338.2 L233.1,338.2 L233.1,338.2 L245.1,338.2 L245.1,338.2 L247.3,338.2 L247.3,338.2 L259.3,338.2 L259.3,338.2 L261.5,338.2 L261.5,338.2 L273.5,338.2 L273.5,338.2 L275.7,338.2 L275.7,338.2 L287.7,338.2 L287.7,338.2 L289.9,338.2 L289.9,338.2 L301.9,338.2 L301.9,338.2 L304.1,338.2 L304.1,338.2 L316.1,338.2 L316.1,338.2 L318.3,338.2 L318.3,338.2 L330.3,338.2 L330.3,338.2 L332.5,338.2 L332.5,338.2 L344.5,338.2 L344.5,338.2 L346.7,338.2 L346.7,338.2 L358.7,338.2 L358.7,338.2 L360.9,338.2 L360.9,338.2 L372.9,338.2 L372.9,338 L375.1,338 L375.1,338.2 L387.2,338.2 L387.2,337.1 L389.3,337.1 L389.3,338.2 L401.4,338.2 L401.4,333.5 L403.5,333.5 L403.5,338.2 L415.6,338.2 L415.6,321.8 L417.7,321.8 L417.7,338.2 L429.8,338.2 L429.8,291.7 L431.9,291.7 L431.9,338.2 L444,338.2 L444,232.5 L446.1,232.5 L446.1,338.2 L458.2,338.2 L458.2,150.3 L460.3,150.3 L460.3,338.2 L472.4,338.2 L472.4,87.11 L474.5,87.11 L474.5,338.2 L486.6,338.2 L486.6,101.1 L488.7,101.1 L488.7,338.2 L500.8,338.2 L500.8,197.4 L502.9,197.4 L502.9,338.2 L515,338.2 L515,298.7 L517.1,298.7 L517.1,338.2 L517.1,338.2 Z" fill="rgb(127,255,0)"/></g>
</g>
<g id="plotPoints" clip-path="url(#plot_window)"></g>
<g id="legendBackground" stroke="rgb(119,136,153)" fill="rgb(255,255,255)" stroke-width="1"><rect x="532.9" y="62" width="205.1" height="165"/><rect x="532.9" y="62" width="205.1" height="165"/></g>
<g id="legendPoints"><g stroke="rgb(0,0,139)" fill="rgb(255,255,255)" stroke-width="1"><line x1="547.9" y1="92" x2="562.9" y2="92"/></g>
<g stroke="rgb(139,0,0)" fill="rgb(255,255,255)" stroke-width="1"><line x1="547.9" y1="122" x2="562.9" y2="122"/></g>
<g stroke="rgb(0,100,0)" fill="rgb(255,255,255)" stroke-width="1"><line x1="547.9" y1="152" x2="562.9" y2="152"/></g>
<g stroke="rgb(255,140,0)" fill="rgb(255,255,255)" stroke-width="1"><line x1="547.9" y1="182" x2="562.9" y2="182"/></g>
<g stroke="rgb(127,255,0)" fill="rgb(255,255,255)" stroke-width="1"><line x1="547.9" y1="212" x2="562.9" y2="212"/></g>
</g>
<g id="legendText">
<text x="570.4" y="92" font-size="15" font-family="Verdana">N=500, r=50, n=30</text>
<text x="570.4" y="122" font-size="15" font-family="Verdana">N=500, r=100, n=30</text>
<text x="570.4" y="152" font-size="15" font-family="Verdana">N=500, r=250, n=30</text>
<text x="570.4" y="182" font-size="15" font-family="Verdana">N=500, r=400, n=30</text>
<text x="570.4" y="212" font-size="15" font-family="Verdana">N=500, r=450, n=30</text></g>
<g id="title">
<text x="375" y="40" text-anchor="middle" font-size="20" font-family="Verdana">Hypergeometric Distribution PDF</text></g>
<g id="plotXValues"></g>
<g id="plotYValues"></g>
</svg>
