<?xml version="1.0" encoding="UTF-8" standalone="no"?><!DOCTYPE svg PUBLIC "-//W3C//DTD SVG 1.1//EN" "http://www.w3.org/graphics/svg/1.1/dtd/svg11.dtd">
<svg width="800" height ="600" version="1.1" xmlns="http://www.w3.org/2000/svg"
 xmlns:xlink="http://www.w3.org/1999/xlink"
 xmlns:ev="http://www.w3.org/2001/xml-events">

<!-- SVG plot written using Boost.Plot program (Creator Jacob Voytko) --> 
<!-- Use, modification and distribution of Boost.Plot subject to the --> 
<!-- Boost Software License, Version 1.0.--> 
<!-- (See accompanying file LICENSE_1_0.txt --> 
<!-- or copy at http://www.boost.org/LICENSE_1_0.txt) --> 

<clipPath id="plot_window"><rect x="43" y="62" width="745" height="495"/></clipPath>
<g id="imageBackground" stroke="rgb(250,240,230)" fill="rgb(255,255,255)" stroke-width="0.5"><rect x="0" y="0" width="800" height="600"/></g>
<g id="plotBackground" stroke="rgb(255,255,224)" fill="rgb(255,255,255)" stroke-width="1"><rect x="42" y="61" width="747" height="497"/></g>
<g id="yMinorGrid" stroke="rgb(200,220,255)" stroke-width="0.5"></g>
<g id="yMajorGrid" stroke="rgb(200,220,255)" stroke-width="1"></g>
<g id="xMinorGrid" stroke="rgb(200,220,255)" stroke-width="0.5"></g>
<g id="xMajorGrid" stroke="rgb(200,220,255)" stroke-width="1"></g>
<g id="yAxis" stroke="rgb(0,0,0)" stroke-width="1"><line x1="104.3" y1="61" x2="104.3" y2="568"/></g>
<g id="xAxis" stroke="rgb(0,0,0)" stroke-width="1"><line x1="32" y1="516.6" x2="789" y2="516.6"/></g>
<g id="yMinorTicks" stroke="rgb(0,0,0)" stroke-width="1"><path d="M99.25,481.3 L104.3,481.3 M99.25,446.1 L104.3,446.1 M99.25,410.9 L104.3,410.9 M99.25,375.6 L104.3,375.6 M99.25,305.2 L104.3,305.2 M99.25,269.9 L104.3,269.9 M99.25,234.7 L104.3,234.7 M99.25,199.5 L104.3,199.5 M99.25,129 L104.3,129 M99.25,93.76 L104.3,93.76 M99.25,551.8 L104.3,551.8 "/></g>
<g id="xMinorTicks" stroke="rgb(0,0,0)" stroke-width="1"><path d="M140.6,516.6 L140.6,521.6 M177,516.6 L177,521.6 M213.4,516.6 L213.4,521.6 M249.8,516.6 L249.8,521.6 M322.6,516.6 L322.6,521.6 M359,516.6 L359,521.6 M395.4,516.6 L395.4,521.6 M431.8,516.6 L431.8,521.6 M504.6,516.6 L504.6,521.6 M541,516.6 L541,521.6 M577.4,516.6 L577.4,521.6 M613.8,516.6 L613.8,521.6 M686.6,516.6 L686.6,521.6 M723,516.6 L723,521.6 M759.4,516.6 L759.4,521.6 M67.85,516.6 L67.85,521.6 "/></g>
<g id="yMajorTicks" stroke="rgb(0,0,0)" stroke-width="2"><path d="M94.25,340.4 L104.3,340.4 M94.25,164.2 L104.3,164.2 "/></g>
<g id="xMajorTicks" stroke="rgb(0,0,0)" stroke-width="2"><path d="M286.2,516.6 L286.2,526.6 M468.2,516.6 L468.2,526.6 M650.2,516.6 L650.2,526.6 "/></g>
<g id="plotLabels" fill="rgb(0,0,0)"><text x="286.2" y="544.6" text-anchor="middle" font-family="Verdana" font-size="12">1</text><text x="468.2" y="544.6" text-anchor="middle" font-family="Verdana" font-size="12">2</text><text x="650.2" y="544.6" text-anchor="middle" font-family="Verdana" font-size="12">3</text><text x="82.25" y="346.4" text-anchor="middle" font-family="Verdana" font-size="12">1</text><text x="82.25" y="170.2" text-anchor="middle" font-family="Verdana" font-size="12">2</text></g>
<g id="yLabel" fill="rgb(0,0,0)"><text x="21" y="309.5" text-anchor="middle" transform = "rotate(-90 21 309.5 )" font-family="Verdana" font-size="14">Probability</text></g>
<g id="xLabel" fill="rgb(0,0,0)"><text x="415.5" y="586" text-anchor="middle" font-family="Verdana" font-size="14">Random Variable</text></g>
<g id="plotLines" stroke-width="2"><g clip-path="url(#plot_window)" stroke="rgb(0,0,139)"><path d="M104.3,516.6 S114.2,504.6 116.7,496.8 S126.7,453.7 129.2,439 S139.1,369.5 141.6,350.4 S151.6,267.1 154.1,247.8 S164,171.5 166.5,157.4 S176.5,111.3 178.9,106.9 S188.9,107 191.4,113.8 S201.4,159.8 203.9,175.3 S213.8,250 216.3,268.8 S226.3,346.9 228.8,363.8 S238.7,425.5 241.2,437.4 S251.2,475.8 253.7,482.5 S263.6,501.5 266.1,504.5 S276.1,512 278.6,513.1 S288.5,515.5 291,515.8 S301,516.4 303.5,516.4 S313.4,516.5 315.9,516.6 S325.9,516.6 328.4,516.6 S338.3,516.6 340.8,516.6 S350.8,516.6 353.3,516.6 S363.2,516.6 365.7,516.6 S375.7,516.6 378.2,516.6 S388.1,516.6 390.6,516.6 S400.6,516.6 403.1,516.6 S413,516.6 415.5,516.6 S425.5,516.6 428,516.6 S437.9,516.6 440.4,516.6 S450.4,516.6 452.9,516.6 S462.8,516.6 465.3,516.6 S475.3,516.6 477.8,516.6 S487.7,516.6 490.2,516.6 S500.2,516.6 502.7,516.6 S512.6,516.6 515.1,516.6 S525.1,516.6 527.6,516.6 S537.5,516.6 540,516.6 S550,516.6 552.5,516.6 S562.4,516.6 564.9,516.6 S574.9,516.6 577.4,516.6 S587.3,516.6 589.8,516.6 S599.8,516.6 602.3,516.6 S612.2,516.6 614.7,516.6 S624.7,516.6 627.2,516.6 S637.1,516.6 639.6,516.6 S649.6,516.6 652.1,516.6 S662,516.6 664.5,516.6 S674.5,516.6 677,516.6 S686.9,516.6 689.4,516.6 S699.4,516.6 701.9,516.6 S714.3,516.6 714.3,516.6 " fill="none"/></g>
<g clip-path="url(#plot_window)" stroke="rgb(139,0,0)"><path d="M104.3,516.6 S114.2,515.1 116.7,514.1 S126.7,508.7 129.2,506.7 S139.1,497.4 141.6,494.5 S151.6,481.5 154.1,477.8 S164,461.6 166.5,457.2 S176.5,438.4 178.9,433.5 S188.9,413.1 191.4,408 S201.4,387.2 203.9,382.2 S213.8,362.5 216.3,357.9 S226.3,340.7 228.8,337 S238.7,323.7 241.2,321.1 S251.2,312.9 253.7,311.7 S263.6,309.4 266.1,309.7 S276.1,313.4 278.6,315.2 S288.5,324.6 291,327.7 S301,341.9 303.5,346 S313.4,363.6 315.9,368.3 S325.9,387.8 328.4,392.7 S338.3,412.5 340.8,417.2 S350.8,435.9 353.3,440.2 S363.2,456.7 365.7,460.3 S375.7,474 378.2,477 S388.1,487.7 390.6,490 S400.6,497.9 403.1,499.5 S413,505.1 415.5,506.2 S425.5,509.9 428,510.6 S437.9,512.8 440.4,513.3 S450.4,514.6 452.9,514.9 S462.8,515.6 465.3,515.7 S475.3,516.1 477.8,516.2 S487.7,516.4 490.2,516.4 S500.2,516.5 502.7,516.5 S512.6,516.6 515.1,516.6 S525.1,516.6 527.6,516.6 S537.5,516.6 540,516.6 S550,516.6 552.5,516.6 S562.4,516.6 564.9,516.6 S574.9,516.6 577.4,516.6 S587.3,516.6 589.8,516.6 S599.8,516.6 602.3,516.6 S612.2,516.6 614.7,516.6 S624.7,516.6 627.2,516.6 S637.1,516.6 639.6,516.6 S649.6,516.6 652.1,516.6 S662,516.6 664.5,516.6 S674.5,516.6 677,516.6 S686.9,516.6 689.4,516.6 S699.4,516.6 701.9,516.6 S714.3,516.6 714.3,516.6 " fill="none"/></g>
<g clip-path="url(#plot_window)" stroke="rgb(0,100,0)"><path d="M104.3,516.6 S114.2,516.4 116.7,516.3 S126.7,515.6 129.2,515.3 S139.1,514.2 141.6,513.8 S151.6,512.1 154.1,511.6 S164,509.5 166.5,508.9 S176.5,506.3 178.9,505.5 S188.9,502.5 191.4,501.6 S201.4,498.1 203.9,497.2 S213.8,493.3 216.3,492.3 S226.3,488 228.8,486.9 S238.7,482.3 241.2,481.1 S251.2,476.3 253.7,475 S263.6,470 266.1,468.7 S276.1,463.6 278.6,462.3 S288.5,457.1 291,455.8 S301,450.7 303.5,449.4 S313.4,444.4 315.9,443.2 S325.9,438.4 328.4,437.3 S338.3,432.8 340.8,431.8 S350.8,427.7 353.3,426.8 S363.2,423.3 365.7,422.5 S375.7,419.5 378.2,418.9 S388.1,416.5 390.6,416.1 S400.6,414.5 403.1,414.2 S413,413.3 415.5,413.2 S425.5,413.1 428,413.1 S437.9,413.8 440.4,414.1 S450.4,415.4 452.9,415.9 S462.8,418 465.3,418.6 S475.3,421.4 477.8,422.1 S487.7,425.5 490.2,426.4 S500.2,430.2 502.7,431.3 S512.6,435.5 515.1,436.7 S525.1,441.3 527.6,442.4 S537.5,447.3 540,448.5 S550,453.4 552.5,454.6 S562.4,459.6 564.9,460.8 S574.9,465.7 577.4,466.9 S587.3,471.6 589.8,472.8 S599.8,477.3 602.3,478.4 S612.2,482.6 614.7,483.6 S624.7,487.5 627.2,488.5 S637.1,492 639.6,492.9 S649.6,496 652.1,496.8 S662,499.6 664.5,500.3 S674.5,502.7 677,503.3 S686.9,505.4 689.4,505.9 S699.4,507.7 701.9,508.1 S714.3,510.1 714.3,509.9 " fill="none"/></g>
</g>
<g id="plotPoints" clip-path="url(#plot_window)"><g stroke="rgb(0,0,0)" fill="rgb(255,255,255)"></g>
<g stroke="rgb(0,0,0)" fill="rgb(255,255,255)"></g>
<g stroke="rgb(0,0,0)" fill="rgb(255,255,255)"></g>
</g>
<g id="limitPoints" stroke="rgb(119,136,153)" fill="rgb(250,235,215)"></g>
<g id="legendBackground" stroke="rgb(0,0,0)" fill="rgb(255,255,255)"><rect x="500" y="150" width="145.5" height="105"/><rect x="500" y="150" width="145.5" height="105"/></g>
<g id="legendPoints"><g stroke="rgb(0,0,139)" stroke-width="2"><line x1="507.5" y1="172.5" x2="530" y2="172.5"/></g>
<g stroke="rgb(139,0,0)" stroke-width="2"><line x1="507.5" y1="202.5" x2="530" y2="202.5"/></g>
<g stroke="rgb(0,100,0)" stroke-width="2"><line x1="507.5" y1="232.5" x2="530" y2="232.5"/></g>
</g>
<g id="legendText" fill="rgb(0,0,0)"><text x="537.5" y="172.5" text-anchor="start" font-family="Verdana" font-size="15">shape = 0.5</text><text x="537.5" y="202.5" text-anchor="start" font-family="Verdana" font-size="15"> shape = 1</text><text x="537.5" y="232.5" text-anchor="start" font-family="Verdana" font-size="15">shape = 2</text></g>
<g id="title" fill="rgb(0,0,0)"><text x="400" y="40.67" text-anchor="middle" font-family="Verdana" font-size="20">Weibull - Probability Distribution Function (PDF) Scale = 3</text></g>
</svg>
