<?xml version="1.0" encoding="UTF-8" standalone="no"?>
<svg width="700" height ="500" version="1.1"
xmlns:svg ="http://www.w3.org/2000/svg"
xmlns:rdf="http://www.w3.org/1999/02/22-rdf-syntax-ns#"
xmlns:cc="http://web.resource.org/cc/"
xmlns:dc="http://purl.org/dc/elements/1.1/"
xmlns ="http://www.w3.org/2000/svg"
>
<!-- SVG plot written using Boost.Plot program (Creator Jacob Voytko) --> 
<!-- Use, modification and distribution of Boost.Plot subject to the --> 
<!-- Boost Software License, Version 1.0.--> 
<!-- (See accompanying file LICENSE_1_0.txt --> 
<!-- or copy at http://www.boost.org/LICENSE_1_0.txt) --> 

<clipPath id="plot_window"><rect x="71.2" y="63" width="616" height="362"/></clipPath>
<g id="imageBackground" stroke="rgb(255,255,0)" fill="rgb(245,245,245)" stroke-width="2"><rect x="0" y="0" width="700" height="500"/></g>
<g id="plotBackground" stroke="rgb(119,136,153)" fill="rgb(248,248,255)" stroke-width="2"><rect x="70.2" y="62" width="618" height="364"/></g>
<g id="yMinorGrid" stroke="rgb(200,220,255)" stroke-width="0.5"></g>
<g id="yMajorGrid" stroke="rgb(0,255,255)" stroke-width="1"><path d="M72.2,244 L686,244 M72.2,183 L686,183 M72.2,123 L686,123 M72.2,62 L686,62 M72.2,244 L686,244 M72.2,305 L686,305 M72.2,366 L686,366 M72.2,426 L686,426 " fill="none"/></g>
<g id="xMinorGrid" stroke="rgb(200,220,255)" stroke-width="0.5"></g>
<g id="xMajorGrid" stroke="rgb(0,255,255)" stroke-width="1"><path d="M126,62 L126,426 M239,62 L239,426 M351,62 L351,426 M463,62 L463,426 M576,62 L576,426 M688,62 L688,426 M126,62 L126,426 " fill="none"/></g>
<g id="yAxis" stroke="rgb(0,0,0)" stroke-width="1"><line x1="126" y1="62" x2="126" y2="440"/><line x1="70.2" y1="62" x2="70.2" y2="426"/></g>
<g id="xAxis" stroke="rgb(0,0,0)" stroke-width="1"><line x1="65.2" y1="244" x2="688" y2="244"/><line x1="65.2" y1="426" x2="688" y2="426"/></g>
<g id="yMinorTicks" stroke="rgb(0,0,0)" stroke-width="1"><path d="M68.2,234 L70.2,234 M68.2,224 L70.2,224 M68.2,214 L70.2,214 M68.2,204 L70.2,204 M68.2,194 L70.2,194 M68.2,173 L70.2,173 M68.2,163 L70.2,163 M68.2,153 L70.2,153 M68.2,143 L70.2,143 M68.2,133 L70.2,133 M68.2,113 L70.2,113 M68.2,102 L70.2,102 M68.2,92.4 L70.2,92.4 M68.2,82.2 L70.2,82.2 M68.2,72.1 L70.2,72.1 M68.2,244 L70.2,244 M68.2,254 L70.2,254 M68.2,264 L70.2,264 M68.2,275 L70.2,275 M68.2,285 L70.2,285 M68.2,295 L70.2,295 M68.2,305 L70.2,305 M68.2,315 L70.2,315 M68.2,325 L70.2,325 M68.2,335 L70.2,335 M68.2,345 L70.2,345 M68.2,356 L70.2,356 M68.2,366 L70.2,366 M68.2,366 L70.2,366 M68.2,376 L70.2,376 M68.2,386 L70.2,386 M68.2,396 L70.2,396 M68.2,406 L70.2,406 M68.2,416 L70.2,416 M68.2,426 L70.2,426 " fill="none"/></g>
<g id="xMinorTicks" stroke="rgb(0,0,0)" stroke-width="1"><path d="M154,426 L154,433 M183,426 L183,433 M211,426 L211,433 M267,426 L267,433 M295,426 L295,433 M323,426 L323,433 M379,426 L379,433 M407,426 L407,433 M435,426 L435,433 M491,426 L491,433 M520,426 L520,433 M548,426 L548,433 M604,426 L604,433 M632,426 L632,433 M660,426 L660,433 M98.3,426 L98.3,433 M70.2,426 L70.2,433 " fill="none"/></g>
<g id="yMajorTicks" stroke="rgb(0,0,0)" stroke-width="2"><path d="M65.2,244 L70.2,244 M65.2,183 L70.2,183 M65.2,123 L70.2,123 M65.2,62 L70.2,62 M65.2,244 L70.2,244 M65.2,305 L70.2,305 M65.2,366 L70.2,366 M65.2,426 L70.2,426 " fill="none"/></g>
<g id="xMajorTicks" stroke="rgb(0,0,0)" stroke-width="1"><path d="M126,426 L126,440 M239,426 L239,440 M351,426 L351,440 M463,426 L463,440 M576,426 L576,440 M688,426 L688,440 M126,426 L126,440 " fill="none"/></g>
<g id="plotLabels">
<text x="126" y="457" text-anchor="middle" font-size="14" font-family="Verdana">0</text>
<text x="239" y="457" text-anchor="middle" font-size="14" font-family="Verdana">2</text>
<text x="351" y="457" text-anchor="middle" font-size="14" font-family="Verdana">4</text>
<text x="463" y="457" text-anchor="middle" font-size="14" font-family="Verdana">6</text>
<text x="576" y="457" text-anchor="middle" font-size="14" font-family="Verdana">8</text>
<text x="688" y="457" text-anchor="middle" font-size="14" font-family="Verdana">10</text>
<text x="126" y="457" text-anchor="middle" font-size="14" font-family="Verdana">0</text>
<text x="59.2" y="247" text-anchor="end" font-size="12" font-family="Verdana">0</text>
<text x="59.2" y="186" text-anchor="end" font-size="12" font-family="Verdana">25</text>
<text x="59.2" y="125" text-anchor="end" font-size="12" font-family="Verdana">50</text>
<text x="59.2" y="64.4" text-anchor="end" font-size="12" font-family="Verdana">75</text>
<text x="59.2" y="247" text-anchor="end" font-size="12" font-family="Verdana">0</text>
<text x="59.2" y="307" text-anchor="end" font-size="12" font-family="Verdana">-25</text>
<text x="59.2" y="368" text-anchor="end" font-size="12" font-family="Verdana">-50</text>
<text x="59.2" y="429" text-anchor="end" font-size="12" font-family="Verdana">-75</text></g>
<g id="yLabel">
<text x="30.2" y="244" text-anchor="middle" transform = "rotate(-90 30.2 244 )" font-size="14" font-family="Verdana">50 * f(x)</text></g>
<g id="xLabel">
<text x="379" y="488" text-anchor="middle" font-size="14" font-family="Verdana">x</text></g>
<g id="plotLines" stroke-width="2"><g clip-path="url(#plot_window)" stroke="rgb(0,0,0)" fill="rgb(255,0,0)" stroke-width="2"><path d="M126,244 L126,244 L148,198 L170,158 L193,132 L215,123 L237,132 L259,158 L281,198 L303,244 L325,291 L347,330 L369,356 L391,366 L413,356 L435,330 L457,291 L479,244 L501,198 L523,158 L545,132 L567,123 L590,132 L612,158 L634,198 L656,244 L678,291 L678,244 Z" fill="rgb(255,0,0)"/></g>
<g clip-path="url(#plot_window)" stroke="rgb(0,0,0)" stroke-width="2"><path d="M126,123 L148,132 L170,158 L193,198 L215,244 L237,291 L259,330 L281,356 L303,366 L325,356 L347,330 L369,291 L391,244 L413,198 L435,158 L457,132 L479,123 L501,132 L523,158 L545,198 L567,244 L590,291 L612,330 L634,356 L656,366 L678,356 " fill="none"/></g>
</g>
<g id="plotPoints" clip-path="url(#plot_window)"><g stroke="rgb(0,0,0)"><circle cx="126" cy="244" r="5"/><circle cx="148" cy="198" r="5"/><circle cx="170" cy="158" r="5"/><circle cx="193" cy="132" r="5"/><circle cx="215" cy="123" r="5"/><circle cx="237" cy="132" r="5"/><circle cx="259" cy="158" r="5"/><circle cx="281" cy="198" r="5"/><circle cx="303" cy="244" r="5"/><circle cx="325" cy="291" r="5"/><circle cx="347" cy="330" r="5"/><circle cx="369" cy="356" r="5"/><circle cx="391" cy="366" r="5"/><circle cx="413" cy="356" r="5"/><circle cx="435" cy="330" r="5"/><circle cx="457" cy="291" r="5"/><circle cx="479" cy="244" r="5"/><circle cx="501" cy="198" r="5"/><circle cx="523" cy="158" r="5"/><circle cx="545" cy="132" r="5"/><circle cx="567" cy="123" r="5"/><circle cx="590" cy="132" r="5"/><circle cx="612" cy="158" r="5"/><circle cx="634" cy="198" r="5"/><circle cx="656" cy="244" r="5"/><circle cx="678" cy="291" r="5"/></g>
<g stroke="rgb(0,0,0)"><rect x="121" y="118" width="10" height="10"/><rect x="143" y="127" width="10" height="10"/><rect x="165" y="153" width="10" height="10"/><rect x="188" y="193" width="10" height="10"/><rect x="210" y="239" width="10" height="10"/><rect x="232" y="286" width="10" height="10"/><rect x="254" y="325" width="10" height="10"/><rect x="276" y="351" width="10" height="10"/><rect x="298" y="361" width="10" height="10"/><rect x="320" y="351" width="10" height="10"/><rect x="342" y="325" width="10" height="10"/><rect x="364" y="286" width="10" height="10"/><rect x="386" y="239" width="10" height="10"/><rect x="408" y="193" width="10" height="10"/><rect x="430" y="153" width="10" height="10"/><rect x="452" y="127" width="10" height="10"/><rect x="474" y="118" width="10" height="10"/><rect x="496" y="127" width="10" height="10"/><rect x="518" y="153" width="10" height="10"/><rect x="540" y="193" width="10" height="10"/><rect x="562" y="239" width="10" height="10"/><rect x="585" y="286" width="10" height="10"/><rect x="607" y="325" width="10" height="10"/><rect x="629" y="351" width="10" height="10"/><rect x="651" y="361" width="10" height="10"/><rect x="673" y="351" width="10" height="10"/></g>
<g stroke="rgb(0,0,0)"><polygon points=" 121,234 131,234 126,244" fill = "none"/><polygon points=" 143,184 153,184 148,194" fill = "none"/><polygon points=" 165,113 175,113 170,123" fill = "none"/><polygon points=" 254,356 264,356 259,366" fill = "none"/><polygon points=" 276,285 286,285 281,295" fill = "none"/><polygon points=" 298,234 308,234 303,244" fill = "none"/><polygon points=" 320,184 330,184 325,194" fill = "none"/><polygon points=" 342,113 352,113 347,123" fill = "none"/><polygon points=" 430,356 440,356 435,366" fill = "none"/><polygon points=" 452,285 462,285 457,295" fill = "none"/><polygon points=" 474,234 484,234 479,244" fill = "none"/><polygon points=" 496,184 506,184 501,194" fill = "none"/><polygon points=" 518,113 528,113 523,123" fill = "none"/><polygon points=" 607,356 617,356 612,366" fill = "none"/><polygon points=" 629,285 639,285 634,295" fill = "none"/><polygon points=" 651,234 661,234 656,244" fill = "none"/><polygon points=" 673,184 683,184 678,194" fill = "none"/></g>
</g>
<g id="title" fill="rgb(255,0,0)">
<text x="350" y="40" text-anchor="middle" font-size="20" font-family="Verdana">Plot of 50 * sin(x), cos(x) and tan(x)</text></g>
<g id="plotXValues"></g>
<g id="plotYValues"></g>
</svg>
