<?xml version="1.0" encoding="UTF-8" standalone="no"?>
<svg width="500" height ="200" version="1.1"
xmlns:svg ="http://www.w3.org/2000/svg"
xmlns:rdf="http://www.w3.org/1999/02/22-rdf-syntax-ns#"
xmlns:cc="http://web.resource.org/cc/"
xmlns:dc="http://purl.org/dc/elements/1.1/"
xmlns ="http://www.w3.org/2000/svg"
>
<!-- SVG plot written using Boost.Plot program (Creator Jacob Voytko) --> 
<!-- Use, modification and distribution of Boost.Plot subject to the --> 
<!-- Boost Software License, Version 1.0.--> 
<!-- (See accompanying file LICENSE_1_0.txt --> 
<!-- or copy at http://www.boost.org/LICENSE_1_0.txt) --> 

<!-- File ./demo_1d_simple.svg --> 
<g id="imageBackground" stroke="rgb(255,255,0)" fill="rgb(255,255,255)" stroke-width="1"><rect x="0" y="0" width="500" height="200"/></g>
<g id="plotBackground" stroke="rgb(250,250,210)" fill="rgb(255,255,255)" stroke-width="1"><rect x="11" y="56" width="372" height="100"/></g>
<g id="xMinorGrid" stroke="rgb(200,220,255)" stroke-width="0.5"></g>
<g id="xMajorGrid" stroke="rgb(200,220,255)" stroke-width="1"></g>
<g id="xAxis" stroke="rgb(0,0,0)" stroke-width="1"><line x1="42" y1="56" x2="42" y2="156"/><line x1="11" y1="109" x2="383" y2="109"/></g>
<g id="xMinorTicks" stroke="rgb(0,0,0)" stroke-width="1"><path d="M54.5,109 L54.5,111 M66.9,109 L66.9,111 M79.3,109 L79.3,111 M91.7,109 L91.7,111 M117,109 L117,111 M129,109 L129,111 M141,109 L141,111 M154,109 L154,111 M179,109 L179,111 M191,109 L191,111 M203,109 L203,111 M216,109 L216,111 M241,109 L241,111 M253,109 L253,111 M266,109 L266,111 M278,109 L278,111 M303,109 L303,111 M315,109 L315,111 M328,109 L328,111 M340,109 L340,111 M365,109 L365,111 M377,109 L377,111 M29.6,109 L29.6,111 M17.2,109 L17.2,111 " fill="none"/></g>
<g id="xMajorTicks" stroke="rgb(0,0,0)" stroke-width="2"><path d="M42,109 L42,114 M104,109 L104,114 M166,109 L166,114 M228,109 L228,114 M290,109 L290,114 M352,109 L352,114 M42,109 L42,114 " fill="none"/></g>
<g id="xTicksValues">
<text x="104" y="129" text-anchor="middle" font-size="12" font-family="Verdana">2</text>
<text x="166" y="129" text-anchor="middle" font-size="12" font-family="Verdana">4</text>
<text x="228" y="129" text-anchor="middle" font-size="12" font-family="Verdana">6</text>
<text x="290" y="129" text-anchor="middle" font-size="12" font-family="Verdana">8</text>
<text x="352" y="129" text-anchor="middle" font-size="12" font-family="Verdana">10</text></g>
<g id="xLabel">
<text x="197" y="180" text-anchor="middle" font-size="14" font-family="Verdana">time (sec)</text></g>
<g id="plotPoints"><g stroke="rgb(0,0,255)"><line x1="138" y1="111" x2="138" y2="101"/><line x1="172" y1="111" x2="172" y2="101"/></g>
<g stroke="rgb(255,165,0)"><line x1="107" y1="111" x2="107" y2="101"/><line x1="284" y1="111" x2="284" y2="101"/></g>
</g>
<g id="legendBackground" stroke="rgb(255,255,0)" fill="rgb(255,255,255)" stroke-width="1"><rect x="395" y="56" width="93.5" height="70"/><rect x="395" y="56" width="93.5" height="70"/></g>
<g id="legendPoints"><g stroke="rgb(0,0,255)" stroke-width="2"><line x1="409" y1="89" x2="409" y2="79"/></g>
<g stroke="rgb(255,165,0)" stroke-width="2"><line x1="409" y1="117" x2="409" y2="107"/></g>
</g>
<g id="legendText">
<text x="430" y="84" font-size="14" font-family="Verdana">Dan</text>
<text x="430" y="112" font-size="14" font-family="Verdana">Elaine</text></g>
<g id="title">
<text x="250" y="36" text-anchor="middle" font-size="18" font-family="Verdana">Race Times</text></g>
</svg>
