<?xml version="1.0" encoding="UTF-8" standalone="no"?>
<svg width="500" height ="400" version="1.1"
xmlns:svg ="http://www.w3.org/2000/svg"
xmlns:rdf="http://www.w3.org/1999/02/22-rdf-syntax-ns#"
xmlns:cc="http://web.resource.org/cc/"
xmlns:dc="http://purl.org/dc/elements/1.1/"
xmlns ="http://www.w3.org/2000/svg"
>
<!-- SVG plot written using Boost.Plot program (Creator Jacob Voytko) --> 
<!-- Use, modification and distribution of Boost.Plot subject to the --> 
<!-- Boost Software License, Version 1.0.--> 
<!-- (See accompanying file LICENSE_1_0.txt --> 
<!-- or copy at http://www.boost.org/LICENSE_1_0.txt) --> 

<clipPath id="plot_window"><rect x="85.2" y="9" width="388" height="331"/></clipPath>
<g id="imageBackground" stroke="rgb(255,255,0)" fill="rgb(255,255,255)" stroke-width="2"><rect x="0" y="0" width="500" height="400"/></g>
<g id="plotBackground" stroke="rgb(119,136,153)" fill="rgb(255,255,255)" stroke-width="2"><rect x="84.2" y="8" width="390" height="333"/></g>
<g id="yMinorGrid" stroke="rgb(200,220,255)" stroke-width="0.5"></g>
<g id="yMajorGrid" stroke="rgb(200,220,255)" stroke-width="1"></g>
<g id="xMinorGrid" stroke="rgb(200,220,255)" stroke-width="0.5"></g>
<g id="xMajorGrid" stroke="rgb(200,220,255)" stroke-width="1"></g>
<g id="yAxis" stroke="rgb(0,0,0)" stroke-width="1"><line x1="174" y1="8" x2="174" y2="346"/><line x1="84.2" y1="8" x2="84.2" y2="341"/></g>
<g id="xAxis" stroke="rgb(0,0,0)" stroke-width="1"><line x1="79.2" y1="175" x2="474" y2="175"/><line x1="79.2" y1="341" x2="474" y2="341"/></g>
<g id="yMinorTicks" stroke="rgb(0,0,0)" stroke-width="1"><path d="M82.2,168 L84.2,168 M82.2,161 L84.2,161 M82.2,155 L84.2,155 M82.2,148 L84.2,148 M82.2,135 L84.2,135 M82.2,128 L84.2,128 M82.2,121 L84.2,121 M82.2,115 L84.2,115 M82.2,101 L84.2,101 M82.2,94.6 L84.2,94.6 M82.2,87.9 L84.2,87.9 M82.2,81.3 L84.2,81.3 M82.2,67.9 L84.2,67.9 M82.2,61.3 L84.2,61.3 M82.2,54.6 L84.2,54.6 M82.2,48 L84.2,48 M82.2,34.6 L84.2,34.6 M82.2,28 L84.2,28 M82.2,21.3 L84.2,21.3 M82.2,14.7 L84.2,14.7 M82.2,175 L84.2,175 M82.2,181 L84.2,181 M82.2,188 L84.2,188 M82.2,194 L84.2,194 M82.2,201 L84.2,201 M82.2,208 L84.2,208 M82.2,214 L84.2,214 M82.2,221 L84.2,221 M82.2,228 L84.2,228 M82.2,234 L84.2,234 M82.2,241 L84.2,241 M82.2,241 L84.2,241 M82.2,248 L84.2,248 M82.2,254 L84.2,254 M82.2,261 L84.2,261 M82.2,268 L84.2,268 M82.2,274 L84.2,274 M82.2,281 L84.2,281 M82.2,288 L84.2,288 M82.2,294 L84.2,294 M82.2,301 L84.2,301 M82.2,308 L84.2,308 M82.2,314 L84.2,314 M82.2,321 L84.2,321 M82.2,328 L84.2,328 M82.2,334 L84.2,334 M82.2,341 L84.2,341 " fill="none"/></g>
<g id="xMinorTicks" stroke="rgb(0,0,0)" stroke-width="1"><path d="M186,341 L186,343 M198,341 L198,343 M210,341 L210,343 M222,341 L222,343 M246,341 L246,343 M258,341 L258,343 M270,341 L270,343 M282,341 L282,343 M306,341 L306,343 M318,341 L318,343 M330,341 L330,343 M342,341 L342,343 M366,341 L366,343 M378,341 L378,343 M390,341 L390,343 M402,341 L402,343 M426,341 L426,343 M438,341 L438,343 M450,341 L450,343 M462,341 L462,343 M162,341 L162,343 M150,341 L150,343 M138,341 L138,343 M126,341 L126,343 M102,341 L102,343 M90.2,341 L90.2,343 " fill="none"/></g>
<g id="yMajorTicks" stroke="rgb(0,0,0)" stroke-width="2"><path d="M79.2,175 L84.2,175 M79.2,141 L84.2,141 M79.2,108 L84.2,108 M79.2,74.6 L84.2,74.6 M79.2,41.3 L84.2,41.3 M79.2,8 L84.2,8 M79.2,175 L84.2,175 M79.2,208 L84.2,208 M79.2,241 L84.2,241 M79.2,274 L84.2,274 M79.2,308 L84.2,308 M79.2,341 L84.2,341 " fill="none"/></g>
<g id="xMajorTicks" stroke="rgb(0,0,0)" stroke-width="2"><path d="M174,341 L174,346 M234,341 L234,346 M294,341 L294,346 M354,341 L354,346 M414,341 L414,346 M474,341 L474,346 M174,341 L174,346 M114,341 L114,346 " fill="none"/></g>
<g id="xTicksValues">
<text x="174" y="362" text-anchor="middle" font-size="12" font-family="Lucida Sans Unicode">0</text>
<text x="234" y="362" text-anchor="middle" font-size="12" font-family="Lucida Sans Unicode">2</text>
<text x="294" y="362" text-anchor="middle" font-size="12" font-family="Lucida Sans Unicode">4</text>
<text x="354" y="362" text-anchor="middle" font-size="12" font-family="Lucida Sans Unicode">6</text>
<text x="414" y="362" text-anchor="middle" font-size="12" font-family="Lucida Sans Unicode">8</text>
<text x="474" y="362" text-anchor="middle" font-size="12" font-family="Lucida Sans Unicode">10</text>
<text x="174" y="362" text-anchor="middle" font-size="12" font-family="Lucida Sans Unicode">0</text>
<text x="114" y="362" text-anchor="middle" font-size="12" font-family="Lucida Sans Unicode">-2</text></g>
<g id="yTicksValues">
<text x="73.2" y="177" text-anchor="end" font-size="12" font-family="Lucida Sans Unicode">0</text>
<text x="73.2" y="144" text-anchor="end" font-size="12" font-family="Lucida Sans Unicode">2</text>
<text x="73.2" y="110" text-anchor="end" font-size="12" font-family="Lucida Sans Unicode">4</text>
<text x="73.2" y="77" text-anchor="end" font-size="12" font-family="Lucida Sans Unicode">6</text>
<text x="73.2" y="43.7" text-anchor="end" font-size="12" font-family="Lucida Sans Unicode">8</text>
<text x="73.2" y="10.4" text-anchor="end" font-size="12" font-family="Lucida Sans Unicode">10</text>
<text x="73.2" y="177" text-anchor="end" font-size="12" font-family="Lucida Sans Unicode">0</text>
<text x="73.2" y="210" text-anchor="end" font-size="12" font-family="Lucida Sans Unicode">-2</text>
<text x="73.2" y="244" text-anchor="end" font-size="12" font-family="Lucida Sans Unicode">-4</text>
<text x="73.2" y="277" text-anchor="end" font-size="12" font-family="Lucida Sans Unicode">-6</text>
<text x="73.2" y="310" text-anchor="end" font-size="12" font-family="Lucida Sans Unicode">-8</text>
<text x="73.2" y="343" text-anchor="end" font-size="12" font-family="Lucida Sans Unicode">-10</text></g>
<g id="yLabel">
<text x="42.9" y="175" text-anchor="middle" transform = "rotate(-90 42.9 175 )" font-size="14" font-family="Lucida Sans Unicode">distance (km)</text></g>
<g id="xLabel">
<text x="279" y="377" text-anchor="middle" font-size="14" font-family="Lucida Sans Unicode">times (sec)</text></g>
<g id="plotUnc3" stroke="none" fill="rgb(230,240,255)" stroke-width="1"><ellipse cx="107" cy="320" rx="2.7" ry="45"/><ellipse cx="211" cy="117" rx="50.4" ry="33.5"/><ellipse cx="297" cy="123" rx="36" ry="15"/></g>
<g id="plotUnc2" stroke="none" fill="rgb(200,230,255)" stroke-width="1"><ellipse cx="107" cy="320" rx="1.8" ry="30"/><ellipse cx="211" cy="117" rx="33.6" ry="22.3"/><ellipse cx="297" cy="123" rx="24" ry="9.99"/></g>
<g id="plotUnc1" stroke="none" fill="rgb(173,216,230)" stroke-width="1"><ellipse cx="107" cy="320" rx="0.9" ry="15"/><ellipse cx="211" cy="117" rx="16.8" ry="11.2"/><ellipse cx="297" cy="123" rx="12" ry="5"/></g>
<g id="plotPoints" clip-path="url(#plot_window)"><g stroke="rgb(0,0,0)" fill="rgb(255,255,255)"><circle cx="107" cy="320" r="1"/><circle cx="211" cy="117" r="1"/><circle cx="297" cy="123" r="1"/></g>
</g>
<g id="title">
<text x="250" y="36" text-anchor="middle" font-size="18" font-family="Lucida Sans Unicode"></text></g>
<g id="plotXValues"><g>
<text x="112" y="317" transform = "rotate(-30 112 317 )" font-size="16" font-family="Times New Roman">-2.23<tspan fill="rgb(0,255,255)" font-size="16" font-family="Times New Roman">&#x00A0;&#x00B1;</tspan><tspan fill="rgb(0,255,255)" font-size="14" font-family="Times New Roman">0.03</tspan><tspan fill="rgb(128,0,128)" font-size="14" font-family="Times New Roman"> &lt;-2.26, -2.2&gt;</tspan><tspan fill="rgb(255,0,255)" font-size="14" font-family="Times New Roman">&#x00A0;(7)</tspan><tspan fill="rgb(0,0,0)" font-size="16" font-family="Times New Roman"></tspan></text></g>
<g>
<text x="216" y="114" transform = "rotate(-30 216 114 )" font-size="16" font-family="Times New Roman">1.23<tspan fill="rgb(0,255,255)" font-size="16" font-family="Times New Roman">&#x00A0;&#x00B1;</tspan><tspan fill="rgb(0,255,255)" font-size="14" font-family="Times New Roman">0.56</tspan><tspan fill="rgb(128,0,128)" font-size="14" font-family="Times New Roman"> &lt;0.7, 1.8&gt;</tspan><tspan fill="rgb(255,0,255)" font-size="14" font-family="Times New Roman">&#x00A0;(7)</tspan><tspan fill="rgb(0,0,0)" font-size="16" font-family="Times New Roman"></tspan></text></g>
<g>
<text x="302" y="120" transform = "rotate(-30 302 120 )" font-size="16" font-family="Times New Roman">4.1<tspan fill="rgb(0,255,255)" font-size="16" font-family="Times New Roman">&#x00A0;&#x00B1;</tspan><tspan fill="rgb(0,255,255)" font-size="14" font-family="Times New Roman">0.4</tspan><tspan fill="rgb(128,0,128)" font-size="14" font-family="Times New Roman"> &lt;3.7, 4.5&gt;</tspan><tspan fill="rgb(255,0,255)" font-size="14" font-family="Times New Roman">&#x00A0;(7)</tspan><tspan fill="rgb(0,0,0)" font-size="16" font-family="Times New Roman"></tspan></text></g>
</g>
<g id="plotYValues"><g>
<text x="112" y="332" transform = "rotate(-30 112 332 )" font-size="12" font-family="Arial">&#x00A0;&#x00A0;&#x00A0;-8.76<tspan fill="rgb(255,0,0)" font-size="10" font-family="arial">&#x00A0;&#x00B1;</tspan><tspan fill="rgb(255,0,0)" font-size="10" font-family="Arial">&#x00A0;0.9</tspan><tspan fill="rgb(0,100,0)" font-size="10" font-family="Arial"> &lt;-9.5, -8&gt;</tspan><tspan fill="rgb(0,128,0)" font-size="10" font-family="Arial">&#x00A0;(9)</tspan><tspan fill="rgb(0,0,0)" font-size="12" font-family="Arial">&#x00A0;sec</tspan></text></g>
<g>
<text x="216" y="128" transform = "rotate(-30 216 128 )" font-size="12" font-family="Arial">&#x00A0;&#x00A0;&#x00A0;3.45<tspan fill="rgb(255,0,0)" font-size="10" font-family="arial">&#x00A0;&#x00B1;</tspan><tspan fill="rgb(255,0,0)" font-size="10" font-family="Arial">&#x00A0;0.67</tspan><tspan fill="rgb(0,100,0)" font-size="10" font-family="Arial"> &lt;2.9, 4&gt;</tspan><tspan fill="rgb(0,128,0)" font-size="10" font-family="Arial">&#x00A0;(9)</tspan><tspan fill="rgb(0,0,0)" font-size="12" font-family="Arial">&#x00A0;sec</tspan></text></g>
<g>
<text x="302" y="134" transform = "rotate(-30 302 134 )" font-size="12" font-family="Arial">&#x00A0;&#x00A0;&#x00A0;3.1<tspan fill="rgb(255,0,0)" font-size="10" font-family="arial">&#x00A0;&#x00B1;</tspan><tspan fill="rgb(255,0,0)" font-size="10" font-family="Arial">&#x00A0;0.3</tspan><tspan fill="rgb(0,100,0)" font-size="10" font-family="Arial"> &lt;2.9, 3.3&gt;</tspan><tspan fill="rgb(0,128,0)" font-size="10" font-family="Arial">&#x00A0;(18)</tspan><tspan fill="rgb(0,0,0)" font-size="12" font-family="Arial">&#x00A0;sec</tspan></text></g>
</g>
</svg>
