<?xml version="1.0" encoding="UTF-8" standalone="no"?>
<svg width="500" height ="400" version="1.1"
xmlns:svg ="http://www.w3.org/2000/svg"
xmlns:rdf="http://www.w3.org/1999/02/22-rdf-syntax-ns#"
xmlns:cc="http://web.resource.org/cc/"
xmlns:dc="http://purl.org/dc/elements/1.1/"
xmlns ="http://www.w3.org/2000/svg"
>
<!-- SVG plot written using Boost.Plot program (Creator Jacob Voytko) --> 
<!-- Use, modification and distribution of Boost.Plot subject to the --> 
<!-- Boost Software License, Version 1.0.--> 
<!-- (See accompanying file LICENSE_1_0.txt --> 
<!-- or copy at http://www.boost.org/LICENSE_1_0.txt) --> 

<clipPath id="plot_window"><rect x="79.9" y="9" width="411" height="305"/></clipPath>
<g id="imageBackground" stroke="rgb(255,255,0)" fill="rgb(255,255,255)" stroke-width="2"><rect x="0" y="0" width="500" height="400"/></g>
<g id="plotBackground" stroke="rgb(119,136,153)" fill="rgb(255,255,255)" stroke-width="2"><rect x="78.9" y="8" width="413" height="307"/></g>
<g id="yMinorGrid" stroke="rgb(200,220,255)" stroke-width="0.5"></g>
<g id="yMajorGrid" stroke="rgb(200,220,255)" stroke-width="1"></g>
<g id="xMinorGrid" stroke="rgb(200,220,255)" stroke-width="0.5"></g>
<g id="xMajorGrid" stroke="rgb(200,220,255)" stroke-width="1"></g>
<g id="yAxis" stroke="rgb(0,0,0)" stroke-width="1"><line x1="78.9" y1="8" x2="78.9" y2="320"/><line x1="78.9" y1="8" x2="78.9" y2="315"/></g>
<g id="xAxis" stroke="rgb(0,0,0)" stroke-width="1"><line x1="73.9" y1="315" x2="492" y2="315"/><line x1="73.9" y1="315" x2="492" y2="315"/></g>
<g id="yMinorTicks" stroke="rgb(0,0,0)" stroke-width="1"><path d="M76.9,291 L78.9,291 M76.9,266 L78.9,266 M76.9,241 L78.9,241 M76.9,217 L78.9,217 M76.9,168 L78.9,168 M76.9,143 L78.9,143 M76.9,119 L78.9,119 M76.9,94 L78.9,94 M76.9,44.9 L78.9,44.9 M76.9,20.3 L78.9,20.3 M76.9,315 L78.9,315 " fill="none"/></g>
<g id="xMinorTicks" stroke="rgb(0,0,0)" stroke-width="1"><path d="M87.2,315 L87.2,317 M95.5,315 L95.5,317 M104,315 L104,317 M112,315 L112,317 M129,315 L129,317 M137,315 L137,317 M145,315 L145,317 M153,315 L153,317 M170,315 L170,317 M178,315 L178,317 M186,315 L186,317 M195,315 L195,317 M211,315 L211,317 M219,315 L219,317 M228,315 L228,317 M236,315 L236,317 M252,315 L252,317 M261,315 L261,317 M269,315 L269,317 M277,315 L277,317 M294,315 L294,317 M302,315 L302,317 M310,315 L310,317 M319,315 L319,317 M335,315 L335,317 M343,315 L343,317 M352,315 L352,317 M360,315 L360,317 M376,315 L376,317 M385,315 L385,317 M393,315 L393,317 M401,315 L401,317 M418,315 L418,317 M426,315 L426,317 M434,315 L434,317 M442,315 L442,317 M459,315 L459,317 M467,315 L467,317 M475,315 L475,317 M484,315 L484,317 " fill="none"/></g>
<g id="yMajorTicks" stroke="rgb(0,0,0)" stroke-width="2"><path d="M73.9,315 L78.9,315 M73.9,192 L78.9,192 M73.9,69.4 L78.9,69.4 M73.9,315 L78.9,315 " fill="none"/></g>
<g id="xMajorTicks" stroke="rgb(0,0,0)" stroke-width="2"><path d="M78.9,315 L78.9,320 M120,315 L120,320 M162,315 L162,320 M203,315 L203,320 M244,315 L244,320 M285,315 L285,320 M327,315 L327,320 M368,315 L368,320 M409,315 L409,320 M451,315 L451,320 M492,315 L492,320 M78.9,315 L78.9,320 " fill="none"/></g>
<g id="xTicksValues">
<text x="84.9" y="329" text-anchor="end" transform = "rotate(-45 84.9 329 )" font-size="12" font-family="Verdana">0</text>
<text x="126" y="329" text-anchor="end" transform = "rotate(-45 126 329 )" font-size="12" font-family="Verdana">2</text>
<text x="168" y="329" text-anchor="end" transform = "rotate(-45 168 329 )" font-size="12" font-family="Verdana">4</text>
<text x="209" y="329" text-anchor="end" transform = "rotate(-45 209 329 )" font-size="12" font-family="Verdana">6</text>
<text x="250" y="329" text-anchor="end" transform = "rotate(-45 250 329 )" font-size="12" font-family="Verdana">8</text>
<text x="291" y="329" text-anchor="end" transform = "rotate(-45 291 329 )" font-size="12" font-family="Verdana">10</text>
<text x="333" y="329" text-anchor="end" transform = "rotate(-45 333 329 )" font-size="12" font-family="Verdana">12</text>
<text x="374" y="329" text-anchor="end" transform = "rotate(-45 374 329 )" font-size="12" font-family="Verdana">14</text>
<text x="415" y="329" text-anchor="end" transform = "rotate(-45 415 329 )" font-size="12" font-family="Verdana">16</text>
<text x="457" y="329" text-anchor="end" transform = "rotate(-45 457 329 )" font-size="12" font-family="Verdana">18</text>
<text x="498" y="329" text-anchor="end" transform = "rotate(-45 498 329 )" font-size="12" font-family="Verdana">20</text>
<text x="84.9" y="329" text-anchor="end" transform = "rotate(-45 84.9 329 )" font-size="12" font-family="Verdana">0</text></g>
<g id="yTicksValues">
<text x="71.5" y="313" text-anchor="end" transform = "rotate(-45 71.5 313 )" font-size="12" font-family="Verdana">0</text>
<text x="71.5" y="190" text-anchor="end" transform = "rotate(-45 71.5 190 )" font-size="12" font-family="Verdana">2</text>
<text x="71.5" y="67" text-anchor="end" transform = "rotate(-45 71.5 67 )" font-size="12" font-family="Verdana">4</text>
<text x="71.5" y="313" text-anchor="end" transform = "rotate(-45 71.5 313 )" font-size="12" font-family="Verdana">0</text></g>
<g id="yLabel">
<text x="44.8" y="162" text-anchor="middle" transform = "rotate(-90 44.8 162 )" font-size="30" font-family="Verdana">Y axis label 30</text></g>
<g id="xLabel">
<text x="285" y="364" text-anchor="middle" font-size="30" font-family="Verdana">X axis label 30</text></g>
<g id="plotPoints" clip-path="url(#plot_window)"><g stroke="rgb(255,0,0)" fill="rgb(255,255,255)"><circle cx="99.6" cy="254" r="5"/><circle cx="120" cy="228" r="5"/><circle cx="141" cy="209" r="5"/><circle cx="162" cy="192" r="5"/><circle cx="182" cy="178" r="5"/><circle cx="203" cy="165" r="5"/><circle cx="224" cy="153" r="5"/><circle cx="244" cy="141" r="5"/><circle cx="265" cy="131" r="5"/><circle cx="285" cy="121" r="5"/><circle cx="306" cy="111" r="5"/><circle cx="327" cy="102" r="5"/><circle cx="347" cy="93.7" r="5"/><circle cx="368" cy="85.3" r="5"/><circle cx="389" cy="77.2" r="5"/><circle cx="409" cy="69.4" r="5"/><circle cx="430" cy="61.9" r="5"/><circle cx="451" cy="54.5" r="5"/><circle cx="471" cy="47.4" r="5"/></g>
</g>
<g id="title">
<text x="250" y="36" text-anchor="middle" font-size="18" font-family="Verdana"></text></g>
<g id="plotXValues"></g>
<g id="plotYValues"></g>
</svg>
