<?xml version="1.0" encoding="UTF-8" standalone="no"?>
<svg width="500" height ="200" version="1.1"
xmlns:svg ="http://www.w3.org/2000/svg"
xmlns:rdf="http://www.w3.org/1999/02/22-rdf-syntax-ns#"
xmlns:cc="http://web.resource.org/cc/"
xmlns:dc="http://purl.org/dc/elements/1.1/"
xmlns ="http://www.w3.org/2000/svg"
>
<!-- SVG plot written using Boost.Plot program (Creator Jacob Voytko) --> 
<!-- Use, modification and distribution of Boost.Plot subject to the --> 
<!-- Boost Software License, Version 1.0.--> 
<!-- (See accompanying file LICENSE_1_0.txt --> 
<!-- or copy at http://www.boost.org/LICENSE_1_0.txt) --> 

<!-- File ./demo_weather4.svg --> 
<g id="imageBackground" stroke="rgb(255,255,0)" fill="rgb(255,255,255)" stroke-width="1"><rect x="0" y="0" width="500" height="200"/></g>
<g id="plotBackground" stroke="rgb(250,250,210)" fill="rgb(255,255,255)" stroke-width="1"><rect x="11" y="56" width="325" height="128"/></g>
<g id="xMinorGrid" stroke="rgb(200,220,255)" stroke-width="0.5"></g>
<g id="xMajorGrid" stroke="rgb(200,220,255)" stroke-width="1"></g>
<g id="xAxis" stroke="rgb(0,0,0)" stroke-width="1"><line x1="119" y1="56" x2="119" y2="184"/><line x1="11" y1="123" x2="336" y2="123"/></g>
<g id="xMinorTicks" stroke="rgb(0,0,0)" stroke-width="1"><path d="M130,123 L130,125 M141,123 L141,125 M152,123 L152,125 M163,123 L163,125 M185,123 L185,125 M195,123 L195,125 M206,123 L206,125 M217,123 L217,125 M239,123 L239,125 M250,123 L250,125 M260,123 L260,125 M271,123 L271,125 M293,123 L293,125 M304,123 L304,125 M315,123 L315,125 M326,123 L326,125 M109,123 L109,125 M97.8,123 L97.8,125 M86.9,123 L86.9,125 M76.1,123 L76.1,125 M54.4,123 L54.4,125 M43.5,123 L43.5,125 M32.7,123 L32.7,125 M21.8,123 L21.8,125 " fill="none"/></g>
<g id="xMajorTicks" stroke="rgb(0,0,0)" stroke-width="2"><path d="M119,123 L119,128 M174,123 L174,128 M228,123 L228,128 M282,123 L282,128 M336,123 L336,128 M119,123 L119,128 M65.2,123 L65.2,128 M11,123 L11,128 " fill="none"/></g>
<g id="xTicksValues">
<text x="174" y="143" text-anchor="middle" font-size="12" font-family="Verdana">5</text>
<text x="228" y="143" text-anchor="middle" font-size="12" font-family="Verdana">10</text>
<text x="282" y="143" text-anchor="middle" font-size="12" font-family="Verdana">15</text>
<text x="336" y="143" text-anchor="middle" font-size="12" font-family="Verdana">20</text>
<text x="65.2" y="143" text-anchor="middle" font-size="12" font-family="Verdana">-5</text>
<text x="11" y="143" text-anchor="middle" font-size="12" font-family="Verdana">-10</text></g>
<g id="xLabel">
<text x="174" y="208" text-anchor="middle" font-size="14" font-family="Verdana"></text></g>
<g id="plotPoints"><g stroke="rgb(255,0,0)"><line x1="300" y1="125" x2="300" y2="115"/><line x1="305" y1="125" x2="305" y2="115"/><line x1="291" y1="125" x2="291" y2="115"/><line x1="298" y1="125" x2="298" y2="115"/><line x1="304" y1="125" x2="304" y2="115"/><line x1="304" y1="125" x2="304" y2="115"/><line x1="313" y1="125" x2="313" y2="115"/><line x1="294" y1="125" x2="294" y2="115"/><line x1="297" y1="125" x2="297" y2="115"/><line x1="304" y1="125" x2="304" y2="115"/><line x1="301" y1="125" x2="301" y2="115"/><line x1="292" y1="125" x2="292" y2="115"/><line x1="278" y1="125" x2="278" y2="115"/><line x1="283" y1="125" x2="283" y2="115"/><line x1="276" y1="125" x2="276" y2="115"/><line x1="301" y1="125" x2="301" y2="115"/><line x1="287" y1="125" x2="287" y2="115"/><line x1="275" y1="125" x2="275" y2="115"/><line x1="293" y1="125" x2="293" y2="115"/><line x1="297" y1="125" x2="297" y2="115"/><line x1="298" y1="125" x2="298" y2="115"/><line x1="291" y1="125" x2="291" y2="115"/><line x1="284" y1="125" x2="284" y2="115"/><line x1="284" y1="125" x2="284" y2="115"/><line x1="291" y1="125" x2="291" y2="115"/><line x1="298" y1="125" x2="298" y2="115"/><line x1="284" y1="125" x2="284" y2="115"/><line x1="289" y1="125" x2="289" y2="115"/><line x1="285" y1="125" x2="285" y2="115"/><line x1="296" y1="125" x2="296" y2="115"/><line x1="292" y1="125" x2="292" y2="115"/><line x1="275" y1="125" x2="275" y2="115"/><line x1="280" y1="125" x2="280" y2="115"/><line x1="275" y1="125" x2="275" y2="115"/><line x1="295" y1="125" x2="295" y2="115"/><line x1="289" y1="125" x2="289" y2="115"/><line x1="274" y1="125" x2="274" y2="115"/><line x1="291" y1="125" x2="291" y2="115"/><line x1="303" y1="125" x2="303" y2="115"/><line x1="301" y1="125" x2="301" y2="115"/><line x1="281" y1="125" x2="281" y2="115"/><line x1="264" y1="125" x2="264" y2="115"/><line x1="298" y1="125" x2="298" y2="115"/><line x1="306" y1="125" x2="306" y2="115"/><line x1="294" y1="125" x2="294" y2="115"/><line x1="277" y1="125" x2="277" y2="115"/><line x1="275" y1="125" x2="275" y2="115"/><line x1="287" y1="125" x2="287" y2="115"/><line x1="302" y1="125" x2="302" y2="115"/><line x1="295" y1="125" x2="295" y2="115"/><line x1="278" y1="125" x2="278" y2="115"/><line x1="285" y1="125" x2="285" y2="115"/><line x1="306" y1="125" x2="306" y2="115"/><line x1="328" y1="125" x2="328" y2="115"/><line x1="320" y1="125" x2="320" y2="115"/><line x1="295" y1="125" x2="295" y2="115"/><line x1="313" y1="125" x2="313" y2="115"/><line x1="317" y1="125" x2="317" y2="115"/><line x1="318" y1="125" x2="318" y2="115"/><line x1="304" y1="125" x2="304" y2="115"/><line x1="282" y1="125" x2="282" y2="115"/><line x1="281" y1="125" x2="281" y2="115"/><line x1="285" y1="125" x2="285" y2="115"/><line x1="306" y1="125" x2="306" y2="115"/><line x1="290" y1="125" x2="290" y2="115"/><line x1="277" y1="125" x2="277" y2="115"/><line x1="288" y1="125" x2="288" y2="115"/><line x1="293" y1="125" x2="293" y2="115"/><line x1="317" y1="125" x2="317" y2="115"/><line x1="302" y1="125" x2="302" y2="115"/><line x1="300" y1="125" x2="300" y2="115"/><line x1="310" y1="125" x2="310" y2="115"/><line x1="321" y1="125" x2="321" y2="115"/><line x1="317" y1="125" x2="317" y2="115"/><line x1="301" y1="125" x2="301" y2="115"/><line x1="307" y1="125" x2="307" y2="115"/><line x1="310" y1="125" x2="310" y2="115"/><line x1="324" y1="125" x2="324" y2="115"/><line x1="310" y1="125" x2="310" y2="115"/><line x1="293" y1="125" x2="293" y2="115"/><line x1="308" y1="125" x2="308" y2="115"/><line x1="317" y1="125" x2="317" y2="115"/><line x1="315" y1="125" x2="315" y2="115"/><line x1="305" y1="125" x2="305" y2="115"/><line x1="287" y1="125" x2="287" y2="115"/><line x1="305" y1="125" x2="305" y2="115"/><line x1="322" y1="125" x2="322" y2="115"/><line x1="317" y1="125" x2="317" y2="115"/><line x1="302" y1="125" x2="302" y2="115"/><line x1="288" y1="125" x2="288" y2="115"/><line x1="319" y1="125" x2="319" y2="115"/><line x1="320" y1="125" x2="320" y2="115"/><line x1="319" y1="125" x2="319" y2="115"/><line x1="303" y1="125" x2="303" y2="115"/><line x1="302" y1="125" x2="302" y2="115"/><line x1="309" y1="125" x2="309" y2="115"/><line x1="319" y1="125" x2="319" y2="115"/><line x1="319" y1="125" x2="319" y2="115"/><line x1="298" y1="125" x2="298" y2="115"/><line x1="304" y1="125" x2="304" y2="115"/><line x1="296" y1="125" x2="296" y2="115"/><line x1="309" y1="125" x2="309" y2="115"/><line x1="313" y1="125" x2="313" y2="115"/><line x1="290" y1="125" x2="290" y2="115"/><line x1="302" y1="125" x2="302" y2="115"/><line x1="293" y1="125" x2="293" y2="115"/><line x1="306" y1="125" x2="306" y2="115"/><line x1="300" y1="125" x2="300" y2="115"/><line x1="279" y1="125" x2="279" y2="115"/><line x1="295" y1="125" x2="295" y2="115"/><line x1="309" y1="125" x2="309" y2="115"/><line x1="319" y1="125" x2="319" y2="115"/><line x1="288" y1="125" x2="288" y2="115"/><line x1="274" y1="125" x2="274" y2="115"/><line x1="301" y1="125" x2="301" y2="115"/><line x1="308" y1="125" x2="308" y2="115"/><line x1="313" y1="125" x2="313" y2="115"/><line x1="291" y1="125" x2="291" y2="115"/><line x1="287" y1="125" x2="287" y2="115"/><line x1="307" y1="125" x2="307" y2="115"/><line x1="318" y1="125" x2="318" y2="115"/><line x1="316" y1="125" x2="316" y2="115"/><line x1="294" y1="125" x2="294" y2="115"/><line x1="304" y1="125" x2="304" y2="115"/><line x1="295" y1="125" x2="295" y2="115"/><line x1="275" y1="125" x2="275" y2="115"/><line x1="265" y1="125" x2="265" y2="115"/><line x1="257" y1="125" x2="257" y2="115"/><line x1="251" y1="125" x2="251" y2="115"/><line x1="251" y1="125" x2="251" y2="115"/><line x1="243" y1="125" x2="243" y2="115"/><line x1="238" y1="125" x2="238" y2="115"/><line x1="234" y1="125" x2="234" y2="115"/><line x1="240" y1="125" x2="240" y2="115"/><line x1="238" y1="125" x2="238" y2="115"/><line x1="233" y1="125" x2="233" y2="115"/><line x1="236" y1="125" x2="236" y2="115"/><line x1="230" y1="125" x2="230" y2="115"/><line x1="289" y1="125" x2="289" y2="115"/><line x1="284" y1="125" x2="284" y2="115"/><line x1="314" y1="125" x2="314" y2="115"/><line x1="293" y1="125" x2="293" y2="115"/><line x1="292" y1="125" x2="292" y2="115"/><line x1="311" y1="125" x2="311" y2="115"/><line x1="319" y1="125" x2="319" y2="115"/><line x1="316" y1="125" x2="316" y2="115"/><line x1="297" y1="125" x2="297" y2="115"/><line x1="309" y1="125" x2="309" y2="115"/><line x1="292" y1="125" x2="292" y2="115"/><line x1="332" y1="125" x2="332" y2="115"/><line x1="323" y1="125" x2="323" y2="115"/><line x1="296" y1="125" x2="296" y2="115"/><line x1="310" y1="125" x2="310" y2="115"/><line x1="318" y1="125" x2="318" y2="115"/><line x1="315" y1="125" x2="315" y2="115"/><line x1="303" y1="125" x2="303" y2="115"/><line x1="281" y1="125" x2="281" y2="115"/><line x1="314" y1="125" x2="314" y2="115"/><line x1="318" y1="125" x2="318" y2="115"/><line x1="332" y1="125" x2="332" y2="115"/><line x1="314" y1="125" x2="314" y2="115"/><line x1="292" y1="125" x2="292" y2="115"/><line x1="318" y1="125" x2="318" y2="115"/><line x1="304" y1="125" x2="304" y2="115"/><line x1="333" y1="125" x2="333" y2="115"/><line x1="303" y1="125" x2="303" y2="115"/><line x1="298" y1="125" x2="298" y2="115"/><line x1="323" y1="125" x2="323" y2="115"/><line x1="300" y1="125" x2="300" y2="115"/><line x1="333" y1="125" x2="333" y2="115"/><line x1="333" y1="125" x2="333" y2="115"/><line x1="330" y1="125" x2="330" y2="115"/><line x1="313" y1="125" x2="313" y2="115"/><line x1="308" y1="125" x2="308" y2="115"/><line x1="321" y1="125" x2="321" y2="115"/><line x1="324" y1="125" x2="324" y2="115"/><line x1="326" y1="125" x2="326" y2="115"/><line x1="306" y1="125" x2="306" y2="115"/><line x1="317" y1="125" x2="317" y2="115"/><line x1="326" y1="125" x2="326" y2="115"/><line x1="314" y1="125" x2="314" y2="115"/><line x1="295" y1="125" x2="295" y2="115"/><line x1="285" y1="125" x2="285" y2="115"/><line x1="279" y1="125" x2="279" y2="115"/><line x1="274" y1="125" x2="274" y2="115"/><line x1="269" y1="125" x2="269" y2="115"/><line x1="265" y1="125" x2="265" y2="115"/><line x1="260" y1="125" x2="260" y2="115"/><line x1="257" y1="125" x2="257" y2="115"/><line x1="257" y1="125" x2="257" y2="115"/><line x1="285" y1="125" x2="285" y2="115"/><line x1="293" y1="125" x2="293" y2="115"/><line x1="276" y1="125" x2="276" y2="115"/><line x1="300" y1="125" x2="300" y2="115"/><line x1="322" y1="125" x2="322" y2="115"/><line x1="324" y1="125" x2="324" y2="115"/><line x1="306" y1="125" x2="306" y2="115"/><line x1="300" y1="125" x2="300" y2="115"/><line x1="329" y1="125" x2="329" y2="115"/><line x1="331" y1="125" x2="331" y2="115"/><line x1="328" y1="125" x2="328" y2="115"/><line x1="301" y1="125" x2="301" y2="115"/><line x1="307" y1="125" x2="307" y2="115"/><line x1="314" y1="125" x2="314" y2="115"/><line x1="330" y1="125" x2="330" y2="115"/><line x1="320" y1="125" x2="320" y2="115"/><line x1="292" y1="125" x2="292" y2="115"/><line x1="314" y1="125" x2="314" y2="115"/><line x1="328" y1="125" x2="328" y2="115"/><line x1="328" y1="125" x2="328" y2="115"/><line x1="310" y1="125" x2="310" y2="115"/><line x1="285" y1="125" x2="285" y2="115"/><line x1="314" y1="125" x2="314" y2="115"/><line x1="313" y1="125" x2="313" y2="115"/><line x1="323" y1="125" x2="323" y2="115"/><line x1="306" y1="125" x2="306" y2="115"/><line x1="285" y1="125" x2="285" y2="115"/><line x1="311" y1="125" x2="311" y2="115"/></g>
<g stroke="rgb(0,0,255)"><line x1="125" y1="125" x2="125" y2="115"/><line x1="151" y1="125" x2="151" y2="115"/><line x1="129" y1="125" x2="129" y2="115"/><line x1="149" y1="125" x2="149" y2="115"/><line x1="165" y1="125" x2="165" y2="115"/><line x1="95.6" y1="125" x2="95.6" y2="115"/><line x1="68.5" y1="125" x2="68.5" y2="115"/><line x1="56.6" y1="125" x2="56.6" y2="115"/><line x1="108" y1="125" x2="108" y2="115"/><line x1="114" y1="125" x2="114" y2="115"/><line x1="94.5" y1="125" x2="94.5" y2="115"/><line x1="96.7" y1="125" x2="96.7" y2="115"/><line x1="82.6" y1="125" x2="82.6" y2="115"/><line x1="81.5" y1="125" x2="81.5" y2="115"/><line x1="78.3" y1="125" x2="78.3" y2="115"/><line x1="67.4" y1="125" x2="67.4" y2="115"/><line x1="38.1" y1="125" x2="38.1" y2="115"/><line x1="42.5" y1="125" x2="42.5" y2="115"/><line x1="134" y1="125" x2="134" y2="115"/><line x1="119" y1="125" x2="119" y2="115"/><line x1="83.7" y1="125" x2="83.7" y2="115"/><line x1="111" y1="125" x2="111" y2="115"/><line x1="143" y1="125" x2="143" y2="115"/><line x1="182" y1="125" x2="182" y2="115"/><line x1="140" y1="125" x2="140" y2="115"/><line x1="128" y1="125" x2="128" y2="115"/><line x1="106" y1="125" x2="106" y2="115"/><line x1="114" y1="125" x2="114" y2="115"/><line x1="131" y1="125" x2="131" y2="115"/><line x1="124" y1="125" x2="124" y2="115"/><line x1="122" y1="125" x2="122" y2="115"/><line x1="117" y1="125" x2="117" y2="115"/><line x1="127" y1="125" x2="127" y2="115"/><line x1="149" y1="125" x2="149" y2="115"/><line x1="112" y1="125" x2="112" y2="115"/><line x1="152" y1="125" x2="152" y2="115"/><line x1="137" y1="125" x2="137" y2="115"/><line x1="190" y1="125" x2="190" y2="115"/><line x1="119" y1="125" x2="119" y2="115"/><line x1="78.3" y1="125" x2="78.3" y2="115"/><line x1="47.9" y1="125" x2="47.9" y2="115"/><line x1="34.9" y1="125" x2="34.9" y2="115"/><line x1="151" y1="125" x2="151" y2="115"/><line x1="105" y1="125" x2="105" y2="115"/><line x1="114" y1="125" x2="114" y2="115"/><line x1="115" y1="125" x2="115" y2="115"/><line x1="122" y1="125" x2="122" y2="115"/><line x1="144" y1="125" x2="144" y2="115"/><line x1="135" y1="125" x2="135" y2="115"/><line x1="138" y1="125" x2="138" y2="115"/><line x1="138" y1="125" x2="138" y2="115"/><line x1="140" y1="125" x2="140" y2="115"/><line x1="163" y1="125" x2="163" y2="115"/><line x1="143" y1="125" x2="143" y2="115"/><line x1="142" y1="125" x2="142" y2="115"/><line x1="139" y1="125" x2="139" y2="115"/><line x1="154" y1="125" x2="154" y2="115"/><line x1="137" y1="125" x2="137" y2="115"/><line x1="125" y1="125" x2="125" y2="115"/><line x1="88" y1="125" x2="88" y2="115"/><line x1="91.3" y1="125" x2="91.3" y2="115"/><line x1="127" y1="125" x2="127" y2="115"/><line x1="165" y1="125" x2="165" y2="115"/><line x1="179" y1="125" x2="179" y2="115"/><line x1="192" y1="125" x2="192" y2="115"/><line x1="190" y1="125" x2="190" y2="115"/><line x1="196" y1="125" x2="196" y2="115"/><line x1="217" y1="125" x2="217" y2="115"/><line x1="219" y1="125" x2="219" y2="115"/><line x1="217" y1="125" x2="217" y2="115"/><line x1="206" y1="125" x2="206" y2="115"/><line x1="210" y1="125" x2="210" y2="115"/><line x1="194" y1="125" x2="194" y2="115"/><line x1="190" y1="125" x2="190" y2="115"/><line x1="181" y1="125" x2="181" y2="115"/><line x1="179" y1="125" x2="179" y2="115"/><line x1="187" y1="125" x2="187" y2="115"/><line x1="155" y1="125" x2="155" y2="115"/><line x1="153" y1="125" x2="153" y2="115"/><line x1="156" y1="125" x2="156" y2="115"/><line x1="163" y1="125" x2="163" y2="115"/><line x1="175" y1="125" x2="175" y2="115"/><line x1="169" y1="125" x2="169" y2="115"/><line x1="188" y1="125" x2="188" y2="115"/><line x1="203" y1="125" x2="203" y2="115"/><line x1="210" y1="125" x2="210" y2="115"/><line x1="208" y1="125" x2="208" y2="115"/><line x1="199" y1="125" x2="199" y2="115"/><line x1="194" y1="125" x2="194" y2="115"/><line x1="196" y1="125" x2="196" y2="115"/><line x1="212" y1="125" x2="212" y2="115"/><line x1="198" y1="125" x2="198" y2="115"/><line x1="212" y1="125" x2="212" y2="115"/><line x1="206" y1="125" x2="206" y2="115"/><line x1="187" y1="125" x2="187" y2="115"/><line x1="207" y1="125" x2="207" y2="115"/><line x1="190" y1="125" x2="190" y2="115"/><line x1="187" y1="125" x2="187" y2="115"/><line x1="155" y1="125" x2="155" y2="115"/><line x1="169" y1="125" x2="169" y2="115"/><line x1="185" y1="125" x2="185" y2="115"/><line x1="177" y1="125" x2="177" y2="115"/><line x1="166" y1="125" x2="166" y2="115"/><line x1="160" y1="125" x2="160" y2="115"/><line x1="169" y1="125" x2="169" y2="115"/><line x1="144" y1="125" x2="144" y2="115"/><line x1="138" y1="125" x2="138" y2="115"/><line x1="169" y1="125" x2="169" y2="115"/><line x1="166" y1="125" x2="166" y2="115"/><line x1="194" y1="125" x2="194" y2="115"/><line x1="155" y1="125" x2="155" y2="115"/><line x1="164" y1="125" x2="164" y2="115"/><line x1="156" y1="125" x2="156" y2="115"/><line x1="126" y1="125" x2="126" y2="115"/><line x1="186" y1="125" x2="186" y2="115"/><line x1="166" y1="125" x2="166" y2="115"/><line x1="168" y1="125" x2="168" y2="115"/><line x1="193" y1="125" x2="193" y2="115"/><line x1="196" y1="125" x2="196" y2="115"/><line x1="201" y1="125" x2="201" y2="115"/><line x1="165" y1="125" x2="165" y2="115"/><line x1="154" y1="125" x2="154" y2="115"/><line x1="143" y1="125" x2="143" y2="115"/><line x1="139" y1="125" x2="139" y2="115"/><line x1="176" y1="125" x2="176" y2="115"/><line x1="173" y1="125" x2="173" y2="115"/><line x1="141" y1="125" x2="141" y2="115"/><line x1="128" y1="125" x2="128" y2="115"/><line x1="144" y1="125" x2="144" y2="115"/><line x1="185" y1="125" x2="185" y2="115"/><line x1="146" y1="125" x2="146" y2="115"/><line x1="153" y1="125" x2="153" y2="115"/><line x1="196" y1="125" x2="196" y2="115"/><line x1="212" y1="125" x2="212" y2="115"/><line x1="191" y1="125" x2="191" y2="115"/><line x1="175" y1="125" x2="175" y2="115"/><line x1="150" y1="125" x2="150" y2="115"/><line x1="157" y1="125" x2="157" y2="115"/><line x1="203" y1="125" x2="203" y2="115"/><line x1="181" y1="125" x2="181" y2="115"/><line x1="178" y1="125" x2="178" y2="115"/><line x1="156" y1="125" x2="156" y2="115"/><line x1="152" y1="125" x2="152" y2="115"/><line x1="182" y1="125" x2="182" y2="115"/><line x1="186" y1="125" x2="186" y2="115"/><line x1="186" y1="125" x2="186" y2="115"/><line x1="177" y1="125" x2="177" y2="115"/><line x1="167" y1="125" x2="167" y2="115"/><line x1="195" y1="125" x2="195" y2="115"/><line x1="164" y1="125" x2="164" y2="115"/><line x1="139" y1="125" x2="139" y2="115"/><line x1="186" y1="125" x2="186" y2="115"/><line x1="196" y1="125" x2="196" y2="115"/><line x1="181" y1="125" x2="181" y2="115"/><line x1="160" y1="125" x2="160" y2="115"/><line x1="170" y1="125" x2="170" y2="115"/><line x1="168" y1="125" x2="168" y2="115"/><line x1="168" y1="125" x2="168" y2="115"/><line x1="192" y1="125" x2="192" y2="115"/><line x1="193" y1="125" x2="193" y2="115"/><line x1="170" y1="125" x2="170" y2="115"/><line x1="186" y1="125" x2="186" y2="115"/><line x1="206" y1="125" x2="206" y2="115"/><line x1="192" y1="125" x2="192" y2="115"/><line x1="147" y1="125" x2="147" y2="115"/><line x1="140" y1="125" x2="140" y2="115"/><line x1="142" y1="125" x2="142" y2="115"/><line x1="156" y1="125" x2="156" y2="115"/><line x1="200" y1="125" x2="200" y2="115"/><line x1="207" y1="125" x2="207" y2="115"/><line x1="214" y1="125" x2="214" y2="115"/><line x1="200" y1="125" x2="200" y2="115"/><line x1="198" y1="125" x2="198" y2="115"/><line x1="195" y1="125" x2="195" y2="115"/><line x1="210" y1="125" x2="210" y2="115"/><line x1="196" y1="125" x2="196" y2="115"/><line x1="212" y1="125" x2="212" y2="115"/><line x1="210" y1="125" x2="210" y2="115"/><line x1="215" y1="125" x2="215" y2="115"/><line x1="225" y1="125" x2="225" y2="115"/><line x1="207" y1="125" x2="207" y2="115"/><line x1="199" y1="125" x2="199" y2="115"/><line x1="193" y1="125" x2="193" y2="115"/><line x1="199" y1="125" x2="199" y2="115"/><line x1="204" y1="125" x2="204" y2="115"/><line x1="196" y1="125" x2="196" y2="115"/><line x1="190" y1="125" x2="190" y2="115"/><line x1="187" y1="125" x2="187" y2="115"/><line x1="188" y1="125" x2="188" y2="115"/><line x1="201" y1="125" x2="201" y2="115"/><line x1="177" y1="125" x2="177" y2="115"/><line x1="169" y1="125" x2="169" y2="115"/><line x1="164" y1="125" x2="164" y2="115"/><line x1="208" y1="125" x2="208" y2="115"/><line x1="194" y1="125" x2="194" y2="115"/><line x1="202" y1="125" x2="202" y2="115"/><line x1="189" y1="125" x2="189" y2="115"/><line x1="179" y1="125" x2="179" y2="115"/><line x1="191" y1="125" x2="191" y2="115"/><line x1="180" y1="125" x2="180" y2="115"/><line x1="156" y1="125" x2="156" y2="115"/><line x1="135" y1="125" x2="135" y2="115"/><line x1="146" y1="125" x2="146" y2="115"/><line x1="183" y1="125" x2="183" y2="115"/><line x1="126" y1="125" x2="126" y2="115"/><line x1="104" y1="125" x2="104" y2="115"/><line x1="73.9" y1="125" x2="73.9" y2="115"/><line x1="139" y1="125" x2="139" y2="115"/><line x1="178" y1="125" x2="178" y2="115"/><line x1="128" y1="125" x2="128" y2="115"/><line x1="108" y1="125" x2="108" y2="115"/><line x1="91.3" y1="125" x2="91.3" y2="115"/><line x1="204" y1="125" x2="204" y2="115"/><line x1="210" y1="125" x2="210" y2="115"/><line x1="175" y1="125" x2="175" y2="115"/><line x1="165" y1="125" x2="165" y2="115"/><line x1="180" y1="125" x2="180" y2="115"/><line x1="218" y1="125" x2="218" y2="115"/></g>
</g>
<g id="legendBackground" stroke="rgb(255,255,0)" fill="rgb(255,255,255)" stroke-width="1"><rect x="348" y="56" width="141" height="70"/><rect x="348" y="56" width="141" height="70"/></g>
<g id="legendPoints"><g stroke="rgb(255,0,0)" stroke-width="2"><line x1="362" y1="89" x2="362" y2="79"/></g>
<g stroke="rgb(0,0,255)" stroke-width="2"><line x1="362" y1="117" x2="362" y2="107"/></g>
</g>
<g id="legendText">
<text x="383" y="84" font-size="14" font-family="Verdana">Inside (&#x00B0;C)</text>
<text x="383" y="112" font-size="14" font-family="Verdana">Outside (&#x00B0;C)</text></g>
<g id="title">
<text x="250" y="36" text-anchor="middle" font-size="18" font-family="Verdana">Temperatures at Long: 2:45:16.2W, Lat:54:17:47.1N</text></g>
</svg>
