<?xml version="1.0" encoding="UTF-8" standalone="no"?>
<svg width="700" height ="500" version="1.1"
xmlns:svg ="http://www.w3.org/2000/svg"
xmlns:rdf="http://www.w3.org/1999/02/22-rdf-syntax-ns#"
xmlns:cc="http://web.resource.org/cc/"
xmlns:dc="http://purl.org/dc/elements/1.1/"
xmlns ="http://www.w3.org/2000/svg"
>
<!-- SVG plot written using Boost.Plot program (Creator Jacob Voytko) --> 
<!-- Use, modification and distribution of Boost.Plot subject to the --> 
<!-- Boost Software License, Version 1.0.--> 
<!-- (See accompanying file LICENSE_1_0.txt --> 
<!-- or copy at http://www.boost.org/LICENSE_1_0.txt) --> 

<clipPath id="plot_window"><rect x="65" y="59" width="464" height="376"/></clipPath>
<g id="imageBackground" stroke="rgb(255,255,0)" fill="rgb(248,248,255)" stroke-width="2"><rect x="0" y="0" width="700" height="500"/></g>
<g id="plotBackground" stroke="rgb(0,128,0)" fill="rgb(255,255,255)" stroke-width="1"><rect x="64" y="58" width="466" height="378"/></g>
<g id="yMinorGrid" stroke="rgb(240,240,255)" stroke-width="1"><path d="M65,422 L529,422 M65,366 L529,366 M65,338 L529,338 M65,282 L529,282 M65,254 L529,254 M65,198 L529,198 M65,170 L529,170 M65,114 L529,114 M65,86 L529,86 " fill="none"/></g>
<g id="yMajorGrid" stroke="rgb(200,220,255)" stroke-width="2"><path d="M65,394 L529,394 M65,310 L529,310 M65,226 L529,226 M65,142 L529,142 M65,58 L529,58 " fill="none"/></g>
<g id="xMinorGrid" stroke="rgb(240,240,255)" stroke-width="0.5"><path d="M135,59 L135,435 M163,59 L163,435 M219,59 L219,435 M248,59 L248,435 M304,59 L304,435 M332,59 L332,435 M389,59 L389,435 M417,59 L417,435 M474,59 L474,435 M502,59 L502,435 M78.1,59 L78.1,435 " fill="none"/></g>
<g id="xMajorGrid" stroke="rgb(200,220,255)" stroke-width="1"><path d="M106,58 L106,436 M191,58 L191,436 M276,58 L276,436 M361,58 L361,436 M445,58 L445,436 M530,58 L530,436 M106,58 L106,436 " fill="none"/></g>
<g id="yAxis" stroke="rgb(0,0,0)" stroke-width="1"><line x1="106" y1="58" x2="106" y2="436"/><line x1="530" y1="58" x2="530" y2="436"/></g>
<g id="xAxis" stroke="rgb(0,0,0)" stroke-width="1"><line x1="64" y1="436" x2="530" y2="436"/></g>
<g id="yMinorTicks" stroke="rgb(0,0,0)" stroke-width="1"><path d="M101,422 L106,422 M101,366 L106,366 M101,338 L106,338 M101,282 L106,282 M101,254 L106,254 M101,198 L106,198 M101,170 L106,170 M101,114 L106,114 M101,86 L106,86 " fill="none"/></g>
<g id="xMinorTicks" stroke="rgb(0,0,0)" stroke-width="1"><path d="M135,436 L135,441 M163,436 L163,441 M219,436 L219,441 M248,436 L248,441 M304,436 L304,441 M332,436 L332,441 M389,436 L389,441 M417,436 L417,441 M474,436 L474,441 M502,436 L502,441 M78.1,436 L78.1,441 " fill="none"/></g>
<g id="yMajorTicks" stroke="rgb(0,0,0)" stroke-width="2"><path d="M96.4,394 L106,394 M96.4,310 L106,310 M96.4,226 L106,226 M96.4,142 L106,142 M96.4,58 L106,58 " fill="none"/></g>
<g id="xMajorTicks" stroke="rgb(0,0,0)" stroke-width="2"><path d="M106,436 L106,446 M191,436 L191,446 M276,436 L276,446 M361,436 L361,446 M445,436 L445,446 M530,436 L530,446 M106,436 L106,446 " fill="none"/></g>
<g id="xTicksValues">
<text x="106" y="462" text-anchor="middle" font-size="12" font-family="Lucida Sans Unicode">0.00</text>
<text x="191" y="462" text-anchor="middle" font-size="12" font-family="Lucida Sans Unicode">2.00</text>
<text x="276" y="462" text-anchor="middle" font-size="12" font-family="Lucida Sans Unicode">4.00</text>
<text x="361" y="462" text-anchor="middle" font-size="12" font-family="Lucida Sans Unicode">6.00</text>
<text x="445" y="462" text-anchor="middle" font-size="12" font-family="Lucida Sans Unicode">8.00</text>
<text x="530" y="462" text-anchor="middle" font-size="12" font-family="Lucida Sans Unicode">1.00e1</text>
<text x="106" y="462" text-anchor="middle" font-size="12" font-family="Lucida Sans Unicode">0.00</text></g>
<g id="yTicksValues">
<text x="90.4" y="396" text-anchor="end" font-size="12" font-family="Lucida Sans Unicode">2.0</text>
<text x="90.4" y="312" text-anchor="end" font-size="12" font-family="Lucida Sans Unicode">4.0</text>
<text x="90.4" y="228" text-anchor="end" font-size="12" font-family="Lucida Sans Unicode">6.0</text>
<text x="90.4" y="144" text-anchor="end" font-size="12" font-family="Lucida Sans Unicode">8.0</text>
<text x="90.4" y="60.4" text-anchor="end" font-size="12" font-family="Lucida Sans Unicode">10.0</text></g>
<g id="yLabel">
<text x="19" y="247" text-anchor="middle" transform = "rotate(-90 19 247 )" font-size="14" font-family="Lucida Sans Unicode">Y-axis</text></g>
<g id="xLabel">
<text x="297" y="477" text-anchor="middle" font-size="14" font-family="Lucida Sans Unicode">X-axis</text></g>
<g id="plotLines" stroke-width="2"><g clip-path="url(#plot_window)" stroke="rgb(0,0,0)"><path d="M-317,-3.64e+003 S-283,-2.99e+003 -275,-2.84e+003 S-241,-2.26e+003 -233,-2.13e+003 S-199,-1.61e+003 -190,-1.5e+003 S-156,-1.05e+003 -148,-950 S-114,-572 -105,-488 S-71.6,-177 -63.1,-110 S-29.2,134 -20.7,184 S13.2,360 21.6,394 S55.5,503 64,520 S97.9,562 106,562 S140,537 149,520 S183,428 191,394 S225,234 233,184 S267,-42.8 276,-110 S310,-404 318,-488 S352,-849 361,-950 S395,-1.38e+003 403,-1.5e+003 S437,-1.99e+003 445,-2.13e+003 S479,-2.69e+003 488,-2.84e+003 S530,-3.72e+003 530,-3.64e+003 " fill="none"/></g>
</g>
<g id="plotPoints" clip-path="url(#plot_window)"><g stroke="rgb(0,0,0)" fill="rgb(255,0,0)"><circle cx="191" cy="419" r="2"/><circle cx="233" cy="405" r="2"/><circle cx="276" cy="394" r="2"/><circle cx="318" cy="384" r="2"/><circle cx="361" cy="375" r="2"/><circle cx="403" cy="367" r="2"/><circle cx="445" cy="359" r="2"/><circle cx="488" cy="352" r="2"/></g>
<g stroke="rgb(0,0,0)" fill="rgb(255,165,0)"><circle cx="191" cy="394" r="2"/><circle cx="233" cy="184" r="2"/></g>
<g stroke="rgb(0,0,0)" fill="rgb(255,255,0)"><rect x="189" y="350" width="5" height="5"/><rect x="231" y="266" width="5" height="5"/><rect x="273" y="182" width="5" height="5"/><rect x="316" y="97.5" width="5" height="5"/></g>
</g>
<g id="limitPoints" stroke="rgb(119,136,153)" fill="rgb(250,235,215)"><polygon points=" 59,426 69,426 64,436"/><polygon points=" 59,426 69,426 64,436"/><polygon points=" 59,426 69,426 64,436"/><polygon points=" 59,426 69,426 64,436"/><polygon points=" 59,426 69,426 64,436"/><polygon points=" 59,426 69,426 64,436"/><polygon points=" 59,426 69,426 64,436"/><polygon points=" 59,426 69,426 64,436"/><polygon points=" 59,426 69,426 64,436"/><polygon points=" 59,426 69,426 64,436"/></g>
<g id="legendBackground" stroke="rgb(255,255,0)" fill="rgb(255,255,224)" stroke-width="1"><rect x="544" y="58" width="130" height="144"/><rect x="544" y="58" width="130" height="144"/></g>
<g id="legendPoints"><g stroke="rgb(0,0,0)" fill="rgb(255,0,0)" stroke-width="2"><circle cx="560" cy="122" r="2"/></g>
<g stroke="rgb(0,0,0)" fill="rgb(255,165,0)" stroke-width="2"><circle cx="560" cy="154" r="2"/></g>
<g stroke="rgb(0,0,0)" fill="rgb(255,255,0)" stroke-width="3"><rect x="558" y="184" width="5" height="5"/></g>
</g>
<g id="legendText">
<text x="609" y="90" text-anchor="middle" font-size="16" font-family="Lucida Sans Unicode">Unicode &#x3A9;&#x3A6;</text>
<text x="584" y="122" font-size="16" font-family="Lucida Sans Unicode">Sqrt(x)</text>
<text x="584" y="154" font-size="16" font-family="Lucida Sans Unicode">-2 + x^2</text>
<text x="584" y="186" font-size="16" font-family="Lucida Sans Unicode">-1 + 2x</text></g>
<g id="title" fill="rgb(255,0,0)">
<text x="350" y="40" text-anchor="middle" font-size="20" font-family="Lucida Sans Unicode">Plot of Mathematical Functions YP</text></g>
<g id="plotXValues"></g>
<g id="plotYValues"></g>
</svg>
