<?xml version="1.0" encoding="UTF-8" standalone="no"?>
<svg width="700" height ="500" version="1.1"
xmlns:svg ="http://www.w3.org/2000/svg"
xmlns:rdf="http://www.w3.org/1999/02/22-rdf-syntax-ns#"
xmlns:cc="http://web.resource.org/cc/"
xmlns:dc="http://purl.org/dc/elements/1.1/"
xmlns ="http://www.w3.org/2000/svg"
>
<!-- SVG plot written using Boost.Plot program (Creator Jacob Voytko) --> 
<!-- Use, modification and distribution of Boost.Plot subject to the --> 
<!-- Boost Software License, Version 1.0.--> 
<!-- (See accompanying file LICENSE_1_0.txt --> 
<!-- or copy at http://www.boost.org/LICENSE_1_0.txt) --> 

<clipPath id="plot_window"><rect x="65" y="59" width="464" height="394"/></clipPath>
<g id="imageBackground" stroke="rgb(255,255,0)" fill="rgb(248,248,255)" stroke-width="2"><rect x="0" y="0" width="700" height="500"/></g>
<g id="plotBackground" stroke="rgb(0,128,0)" fill="rgb(255,255,255)" stroke-width="1"><rect x="64" y="58" width="466" height="396"/></g>
<g id="yMinorGrid" stroke="rgb(240,240,255)" stroke-width="1"><path d="M65,72.7 L529,72.7 M65,102 L529,102 M65,131 L529,131 M65,161 L529,161 M65,190 L529,190 M65,190 L529,190 M65,219 L529,219 M65,249 L529,249 M65,278 L529,278 M65,307 L529,307 M65,337 L529,337 M65,366 L529,366 M65,395 L529,395 M65,425 L529,425 M65,454 L529,454 M65,454 L529,454 " fill="none"/></g>
<g id="yMajorGrid" stroke="rgb(200,220,255)" stroke-width="2"><path d="M65,102 L529,102 M65,190 L529,190 M65,278 L529,278 M65,366 L529,366 M65,454 L529,454 " fill="none"/></g>
<g id="xMinorGrid" stroke="rgb(240,240,255)" stroke-width="0.5"><path d="M135,59 L135,453 M163,59 L163,453 M219,59 L219,453 M248,59 L248,453 M304,59 L304,453 M332,59 L332,453 M389,59 L389,453 M417,59 L417,453 M474,59 L474,453 M502,59 L502,453 M78.1,59 L78.1,453 " fill="none"/></g>
<g id="xMajorGrid" stroke="rgb(200,220,255)" stroke-width="1"><path d="M106,58 L106,454 M191,58 L191,454 M276,58 L276,454 M361,58 L361,454 M445,58 L445,454 M530,58 L530,454 M106,58 L106,454 " fill="none"/></g>
<g id="yAxis" stroke="rgb(0,0,0)" stroke-width="1"><line x1="106" y1="58" x2="106" y2="454"/><line x1="530" y1="58" x2="530" y2="454"/></g>
<g id="xAxis" stroke="rgb(0,0,0)" stroke-width="1"><line x1="64" y1="58" x2="530" y2="58"/></g>
<g id="yMinorTicks" stroke="rgb(0,0,0)" stroke-width="1"><path d="M101,72.7 L106,72.7 M101,102 L106,102 M101,131 L106,131 M101,161 L106,161 M101,190 L106,190 M101,190 L106,190 M101,219 L106,219 M101,249 L106,249 M101,278 L106,278 M101,307 L106,307 M101,337 L106,337 M101,366 L106,366 M101,395 L106,395 M101,425 L106,425 M101,454 L106,454 M101,454 L106,454 " fill="none"/></g>
<g id="xMinorTicks" stroke="rgb(0,0,0)" stroke-width="1"><path d="M135,58 L135,63 M163,58 L163,63 M219,58 L219,63 M248,58 L248,63 M304,58 L304,63 M332,58 L332,63 M389,58 L389,63 M417,58 L417,63 M474,58 L474,63 M502,58 L502,63 M78.1,58 L78.1,63 " fill="none"/></g>
<g id="yMajorTicks" stroke="rgb(0,0,0)" stroke-width="2"><path d="M96.4,102 L106,102 M96.4,190 L106,190 M96.4,278 L106,278 M96.4,366 L106,366 M96.4,454 L106,454 " fill="none"/></g>
<g id="xMajorTicks" stroke="rgb(0,0,0)" stroke-width="2"><path d="M106,58 L106,68 M191,58 L191,68 M276,58 L276,68 M361,58 L361,68 M445,58 L445,68 M530,58 L530,68 M106,58 L106,68 " fill="none"/></g>
<g id="xTicksValues">
<text x="106" y="83.6" text-anchor="middle" font-size="12" font-family="Lucida Sans Unicode">0.00</text>
<text x="191" y="83.6" text-anchor="middle" font-size="12" font-family="Lucida Sans Unicode">2.00</text>
<text x="276" y="83.6" text-anchor="middle" font-size="12" font-family="Lucida Sans Unicode">4.00</text>
<text x="361" y="83.6" text-anchor="middle" font-size="12" font-family="Lucida Sans Unicode">6.00</text>
<text x="445" y="83.6" text-anchor="middle" font-size="12" font-family="Lucida Sans Unicode">8.00</text>
<text x="530" y="83.6" text-anchor="middle" font-size="12" font-family="Lucida Sans Unicode">1.00e1</text>
<text x="106" y="83.6" text-anchor="middle" font-size="12" font-family="Lucida Sans Unicode">0.00</text></g>
<g id="yTicksValues">
<text x="90.4" y="104" text-anchor="end" font-size="12" font-family="Lucida Sans Unicode">-2.0</text>
<text x="90.4" y="192" text-anchor="end" font-size="12" font-family="Lucida Sans Unicode">-4.0</text>
<text x="90.4" y="280" text-anchor="end" font-size="12" font-family="Lucida Sans Unicode">-6.0</text>
<text x="90.4" y="368" text-anchor="end" font-size="12" font-family="Lucida Sans Unicode">-8.0</text>
<text x="90.4" y="456" text-anchor="end" font-size="12" font-family="Lucida Sans Unicode">-10.0</text></g>
<g id="yLabel">
<text x="19" y="256" text-anchor="middle" transform = "rotate(-90 19 256 )" font-size="14" font-family="Lucida Sans Unicode">Y-axis</text></g>
<g id="xLabel">
<text x="297" y="478" text-anchor="middle" font-size="14" font-family="Lucida Sans Unicode">X-axis</text></g>
<g id="plotLines" stroke-width="2"><g clip-path="url(#plot_window)" stroke="rgb(0,0,0)"><path d="M-317,-4.3e+003 S-283,-3.62e+003 -275,-3.46e+003 S-241,-2.85e+003 -233,-2.71e+003 S-199,-2.18e+003 -190,-2.05e+003 S-156,-1.59e+003 -148,-1.48e+003 S-114,-1.09e+003 -105,-998 S-71.6,-672 -63.1,-602 S-29.2,-347 -20.7,-294 S13.2,-109 21.6,-74 S55.5,40.4 64,58 S97.9,102 106,102 S140,75.6 149,58 S183,-38.8 191,-74 S225,-241 233,-294 S267,-532 276,-602 S310,-910 318,-998 S352,-1.38e+003 361,-1.48e+003 S395,-1.93e+003 403,-2.05e+003 S437,-2.57e+003 445,-2.71e+003 S479,-3.3e+003 488,-3.46e+003 S530,-4.38e+003 530,-4.3e+003 " fill="none"/></g>
</g>
<g id="plotPoints" clip-path="url(#plot_window)"><g stroke="rgb(0,0,0)" fill="rgb(255,165,0)"><circle cx="106" cy="102" r="2"/></g>
</g>
<g id="limitPoints" stroke="rgb(119,136,153)" fill="rgb(250,235,215)"><polygon points=" 59,48 69,48 64,58"/><polygon points=" 59,48 69,48 64,58"/><polygon points=" 59,48 69,48 64,58"/><polygon points=" 59,48 69,48 64,58"/><polygon points=" 59,48 69,48 64,58"/><polygon points=" 59,48 69,48 64,58"/><polygon points=" 59,48 69,48 64,58"/><polygon points=" 59,48 69,48 64,58"/><polygon points=" 59,48 69,48 64,58"/><polygon points=" 59,48 69,48 64,58"/></g>
<g id="legendBackground" stroke="rgb(255,255,0)" fill="rgb(255,255,224)" stroke-width="1"><rect x="544" y="58" width="130" height="144"/><rect x="544" y="58" width="130" height="144"/></g>
<g id="legendPoints"><g stroke="rgb(0,0,0)" fill="rgb(255,0,0)" stroke-width="2"><circle cx="560" cy="122" r="2"/></g>
<g stroke="rgb(0,0,0)" fill="rgb(255,165,0)" stroke-width="2"><circle cx="560" cy="154" r="2"/></g>
<g stroke="rgb(0,0,0)" fill="rgb(255,255,0)" stroke-width="3"><rect x="558" y="184" width="5" height="5"/></g>
</g>
<g id="legendText">
<text x="609" y="90" text-anchor="middle" font-size="16" font-family="Lucida Sans Unicode">Unicode &#x3A9;&#x3A6;</text>
<text x="584" y="122" font-size="16" font-family="Lucida Sans Unicode">Sqrt(x)</text>
<text x="584" y="154" font-size="16" font-family="Lucida Sans Unicode">-2 + x^2</text>
<text x="584" y="186" font-size="16" font-family="Lucida Sans Unicode">-1 + 2x</text></g>
<g id="title" fill="rgb(255,0,0)">
<text x="350" y="40" text-anchor="middle" font-size="20" font-family="Lucida Sans Unicode">Plot of Mathematical Functions YN</text></g>
<g id="plotXValues"></g>
<g id="plotYValues"></g>
</svg>
