<?xml version="1.0" encoding="UTF-8" standalone="no"?>
<svg width="500" height ="400" version="1.1"
xmlns:svg ="http://www.w3.org/2000/svg"
xmlns:rdf="http://www.w3.org/1999/02/22-rdf-syntax-ns#"
xmlns:cc="http://web.resource.org/cc/"
xmlns:dc="http://purl.org/dc/elements/1.1/"
xmlns ="http://www.w3.org/2000/svg"
>
<!-- SVG plot written using Boost.Plot program (Creator Jacob Voytko) --> 
<!-- Use, modification and distribution of Boost.Plot subject to the --> 
<!-- Boost Software License, Version 1.0.--> 
<!-- (See accompanying file LICENSE_1_0.txt --> 
<!-- or copy at http://www.boost.org/LICENSE_1_0.txt) --> 

<clipPath id="plot_window"><rect x="102" y="54" width="203" height="286"/></clipPath>
<g id="imageBackground" stroke="rgb(255,255,0)" fill="rgb(255,255,255)" stroke-width="2"><rect x="0" y="0" width="500" height="400"/></g>
<g id="plotBackground" stroke="rgb(119,136,153)" fill="rgb(255,255,255)" stroke-width="2"><rect x="101" y="53" width="205" height="288"/></g>
<g id="yMinorGrid" stroke="rgb(200,220,255)" stroke-width="0.5"></g>
<g id="yMajorGrid" stroke="rgb(200,220,255)" stroke-width="1"></g>
<g id="xMinorGrid" stroke="rgb(200,220,255)" stroke-width="0.5"></g>
<g id="xMajorGrid" stroke="rgb(200,220,255)" stroke-width="1"></g>
<g id="yAxis" stroke="rgb(0,0,0)" stroke-width="1"><line x1="101" y1="53" x2="101" y2="346"/><line x1="101" y1="53" x2="101" y2="341"/></g>
<g id="xAxis" stroke="rgb(0,0,0)" stroke-width="1"><line x1="96" y1="341" x2="306" y2="341"/><line x1="96" y1="341" x2="306" y2="341"/></g>
<g id="yMinorTicks" stroke="rgb(0,0,0)" stroke-width="1"><path d="M99,335 L101,335 M99,329 L101,329 M99,324 L101,324 M99,318 L101,318 M99,306 L101,306 M99,301 L101,301 M99,295 L101,295 M99,289 L101,289 M99,278 L101,278 M99,272 L101,272 M99,266 L101,266 M99,260 L101,260 M99,249 L101,249 M99,243 L101,243 M99,237 L101,237 M99,232 L101,232 M99,220 L101,220 M99,214 L101,214 M99,209 L101,209 M99,203 L101,203 M99,191 L101,191 M99,185 L101,185 M99,180 L101,180 M99,174 L101,174 M99,162 L101,162 M99,157 L101,157 M99,151 L101,151 M99,145 L101,145 M99,134 L101,134 M99,128 L101,128 M99,122 L101,122 M99,116 L101,116 M99,105 L101,105 M99,99.1 L101,99.1 M99,93.3 L101,93.3 M99,87.6 L101,87.6 M99,76 L101,76 M99,70.3 L101,70.3 M99,64.5 L101,64.5 M99,58.8 L101,58.8 M99,341 L101,341 " fill="none"/></g>
<g id="xMinorTicks" stroke="rgb(0,0,0)" stroke-width="1"><path d="M109,341 L109,343 M117,341 L117,343 M126,341 L126,343 M134,341 L134,343 M150,341 L150,343 M158,341 L158,343 M167,341 L167,343 M175,341 L175,343 M191,341 L191,343 M199,341 L199,343 M208,341 L208,343 M216,341 L216,343 M232,341 L232,343 M240,341 L240,343 M249,341 L249,343 M257,341 L257,343 M273,341 L273,343 M281,341 L281,343 M290,341 L290,343 M298,341 L298,343 " fill="none"/></g>
<g id="yMajorTicks" stroke="rgb(0,0,0)" stroke-width="2"><path d="M96,341 L101,341 M96,312 L101,312 M96,283 L101,283 M96,255 L101,255 M96,226 L101,226 M96,197 L101,197 M96,168 L101,168 M96,139 L101,139 M96,111 L101,111 M96,81.8 L101,81.8 M96,53 L101,53 M96,341 L101,341 " fill="none"/></g>
<g id="xMajorTicks" stroke="rgb(0,0,0)" stroke-width="2"><path d="M101,341 L101,346 M142,341 L142,346 M183,341 L183,346 M224,341 L224,346 M265,341 L265,346 M306,341 L306,346 M101,341 L101,346 " fill="none"/></g>
<g id="xTicksValues" fill="rgb(255,0,0)">
<text x="101" y="362" text-anchor="middle" font-size="20" font-family="arial">0</text>
<text x="142" y="362" text-anchor="middle" font-size="20" font-family="arial">500</text>
<text x="183" y="362" text-anchor="middle" font-size="20" font-family="arial">1000</text>
<text x="224" y="362" text-anchor="middle" font-size="20" font-family="arial">1500</text>
<text x="265" y="362" text-anchor="middle" font-size="20" font-family="arial">2000</text>
<text x="306" y="362" text-anchor="middle" font-size="20" font-family="arial">2500</text>
<text x="101" y="362" text-anchor="middle" font-size="20" font-family="arial">0</text></g>
<g id="yTicksValues" fill="rgb(255,0,255)">
<text x="90" y="343" text-anchor="end" font-size="12" font-family="Verdana">0.0</text>
<text x="90" y="315" text-anchor="end" font-size="12" font-family="Verdana">2.0</text>
<text x="90" y="286" text-anchor="end" font-size="12" font-family="Verdana">4.0</text>
<text x="90" y="257" text-anchor="end" font-size="12" font-family="Verdana">6.0</text>
<text x="90" y="228" text-anchor="end" font-size="12" font-family="Verdana">8.0</text>
<text x="90" y="199" text-anchor="end" font-size="12" font-family="Verdana">1.0e1</text>
<text x="90" y="171" text-anchor="end" font-size="12" font-family="Verdana">1.2e1</text>
<text x="90" y="142" text-anchor="end" font-size="12" font-family="Verdana">1.4e1</text>
<text x="90" y="113" text-anchor="end" font-size="12" font-family="Verdana">1.6e1</text>
<text x="90" y="84.2" text-anchor="end" font-size="12" font-family="Verdana">1.8e1</text>
<text x="90" y="55.4" text-anchor="end" font-size="12" font-family="Verdana">2.0e1</text>
<text x="90" y="343" text-anchor="end" font-size="12" font-family="Verdana">0.0</text></g>
<g id="yLabel" fill="rgb(0,0,255)">
<text x="42.9" y="197" text-anchor="middle" transform = "rotate(-90 42.9 197 )" font-size="14" font-family="Verdana">temp (&#x00B0;C)</text></g>
<g id="xLabel" fill="rgb(0,128,0)">
<text x="203" y="385" text-anchor="middle" font-size="14" font-family="Verdana">time (hr)</text></g>
<g id="plotLines" stroke-width="2"><g clip-path="url(#plot_window)" stroke="rgb(255,0,0)"><path d="M101,99.1 S101,98.9 101,99.1 S101,100 101,101 S102,103 102,103 S102,103 102,102 S102,97.1 102,96.2 S102,93.8 102,93.3 S102,91.9 102,91.9 S102,93 102,93.3 S103,94.2 103,94.8 S103,98.2 103,99.1 S103,103 103,103 S103,106 103,106 S103,110 103,111 S103,113 103,113 S104,116 104,116 S104,120 104,121 S104,122 104,121 S104,112 104,111 S104,104 104,103 S104,105 104,103 S105,93.2 105,91.9 S105,90.3 105,90.4 S105,92.7 105,93.3 S105,95.3 105,96.2 S105,101 105,102 S105,105 105,105 S106,103 106,102 S106,98.2 106,97.6 S106,96.5 106,96.2 S106,95 106,94.8 S106,94.8 106,93.3 S106,81.8 106,80.4 S107,78.5 107,78.9 S107,83.4 107,84.7 S107,90.7 107,91.9 S107,95.2 107,96.2 S107,101 107,102 S107,106 107,106 S108,108 108,109 S108,114 108,115 S108,120 108,119 S108,113 108,112 S108,108 108,108 S108,105 108,105 S109,102 109,102 S109,105 109,106 S109,115 109,115 S109,110 109,108 S109,97.5 109,96.2 S109,94.8 109,94.8 S109,96.1 110,96.2 S110,95.6 110,96.2 S110,102 110,102 S110,101 110,101 S110,99.1 110,99.1 S110,100 110,101 S110,101 111,102 S111,108 111,109 S111,112 111,112 S111,110 111,111 S111,114 111,115 S111,120 111,121 S111,124 111,125 S112,130 112,131 S112,133 112,132 S112,126 112,125 S112,119 112,119 S112,123 112,124 S112,123 112,124 S113,125 113,125 S113,123 113,124 S113,128 113,129 S113,133 113,134 S113,134 113,134 S113,132 113,131 S114,121 114,118 S114,105 114,103 S114,101 114,101 S114,101 114,101 S114,99.9 114,101 S114,105 114,106 S115,110 115,111 S115,114 115,115 S115,118 115,119 S115,123 115,124 S115,126 115,126 S115,129 115,129 S116,133 116,134 S116,136 116,135 S116,131 116,129 S116,123 116,121 S116,112 116,111 S116,111 116,111 S117,110 117,111 S117,114 117,115 S117,118 117,118 S117,113 117,112 S117,108 117,108 S117,105 117,105 S118,104 118,103 S118,103 118,103 S118,103 118,103 S118,103 118,103 S118,103 118,103 S118,104 118,103 S119,101 119,101 S119,103 119,103 S119,108 119,109 S119,112 119,113 S119,118 119,119 S119,123 119,124 S119,127 120,128 S120,131 120,131 S120,124 120,122 S120,117 120,116 S120,118 120,118 S120,119 120,119 S120,122 121,122 S121,122 121,122 S121,123 121,122 S121,119 121,118 S121,115 121,115 S121,117 121,116 S121,114 121,113 S122,107 122,106 S122,104 122,103 S122,104 122,103 S122,102 122,102 S122,103 122,103 S122,107 122,108 S123,110 123,111 S123,114 123,115 S123,117 123,118 S123,121 123,122 S123,124 123,125 S123,129 123,129 S124,131 124,131 S124,124 124,122 S124,117 124,116 S124,115 124,115 S124,111 124,111 S124,110 124,111 S125,114 125,115 S125,120 125,121 S125,120 125,119 S125,114 125,113 S125,112 125,112 S125,110 125,109 S126,107 126,106 S126,106 126,106 S126,108 126,108 S126,108 126,108 S126,107 126,108 S126,111 126,112 S127,117 127,118 S127,123 127,124 S127,127 127,128 S127,131 127,132 S127,134 127,135 S127,139 127,139 S128,142 128,141 S128,132 128,131 S128,125 128,125 S128,128 128,128 S128,125 128,124 S128,118 128,118 S129,121 129,122 S129,127 129,128 S129,134 129,135 S129,138 129,138 S129,134 129,132 S129,124 129,122 S129,115 130,113 S130,108 130,108 S130,106 130,106 S130,106 130,106 S130,106 130,106 S130,110 130,111 S130,115 131,116 S131,120 131,121 S131,126 131,126 S131,129 131,129 S131,133 131,134 S131,136 131,137 S131,140 131,139 S132,132 132,131 S132,125 132,124 S132,116 132,115 S132,113 132,113 S132,117 132,116 S132,111 132,111 S133,110 133,109 S133,100 133,99.1 S133,98.2 133,97.6 S133,95.8 133,93.3 S133,74.7 133,73.2 S133,75.6 133,77.5 S134,89.6 134,91.9 S134,99.2 134,101 S134,104 134,105 S134,108 134,109 S134,114 134,115 S134,120 134,121 S135,125 135,126 S135,131 135,132 S135,136 135,137 S135,141 135,142 S135,146 135,147 S135,150 135,149 S136,143 136,141 S136,133 136,131 S136,117 136,115 S136,107 136,106 S136,104 136,103 S136,102 136,102 S137,103 137,103 S137,102 137,102 S137,104 137,103 S137,94.5 137,93.3 S137,91 137,91.9 S137,101 137,102 S138,106 138,106 S138,109 138,109 S138,109 138,109 S138,111 138,112 S138,115 138,116 S138,121 138,122 S139,125 139,126 S139,131 139,132 S139,136 139,137 S139,139 139,139 S139,143 139,144 S139,146 139,145 S139,137 140,135 S140,129 140,128 S140,123 140,122 S140,119 140,118 S140,112 140,112 S140,118 140,119 S140,121 141,121 S141,120 141,119 S141,111 141,109 S141,103 141,102 S141,98.6 141,99.1 S141,105 141,106 S141,109 141,109 S142,109 142,109 S142,108 142,108 S142,107 142,108 S142,111 142,112 S142,117 142,118 S142,121 142,122 S143,126 143,126 S143,130 143,131 S143,134 143,135 S143,138 143,138 S143,140 143,139 S143,131 143,129 S144,122 144,121 S144,116 144,115 S144,109 144,108 S144,103 144,102 S144,94.2 144,93.3 S144,94.9 144,93.3 S145,79.8 145,77.5 S145,71.4 145,70.3 S145,67.3 145,66 S145,57.5 145,57.3 S145,63.5 145,64.5 S145,67.3 145,67.4 S146,66.2 146,66 S146,64.5 146,64.5 S146,65 146,66 S146,72.9 146,74.6 S146,81.7 146,83.2 S146,89.1 146,90.4 S147,95 147,96.2 S147,101 147,102 S147,107 147,108 S147,111 147,112 S147,114 147,113 S147,107 147,105 S148,95.3 148,93.3 S148,85.4 148,84.7 S148,85.7 148,86.1 S148,88.6 148,89 S148,90.7 148,90.4 S148,87.3 148,86.1 S149,79.4 149,78.9 S149,81.4 149,81.8 S149,83.7 149,83.2 S149,78.3 149,77.5 S149,74.6 149,74.6 S149,77 149,77.5 S149,78.8 150,78.9 S150,78.8 150,78.9 S150,79.5 150,80.4 S150,86 150,87.6 S150,94.6 150,96.2 S150,102 150,103 S150,108 151,109 S151,114 151,115 S151,120 151,121 S151,124 151,125 S151,128 151,128 S151,121 151,119 S151,114 151,113 S152,117 152,118 S152,125 152,126 S152,131 152,131 S152,129 152,128 S152,124 152,124 S152,122 152,122 S153,121 153,121 S153,121 153,121 S153,115 153,113 S153,109 153,108 S153,102 153,101 S153,94.5 153,93.3 S154,89 154,89 S154,92 154,93.3 S154,101 154,102 S154,106 154,108 S154,114 154,115 S154,118 154,119 S155,123 155,124 S155,127 155,128 S155,132 155,132 S155,133 155,132 S155,125 155,124 S155,117 155,116 S156,119 156,119 S156,122 156,122 S156,119 156,118 S156,112 156,112 S156,116 156,116 S156,114 156,113 S157,109 157,109 S157,112 157,111 S157,102 157,99.1 S157,83.7 157,81.8 S157,80.5 157,80.4 S157,80.5 157,80.4 S158,79.1 158,78.9 S158,78.3 158,78.9 S158,83.5 158,84.7 S158,89.4 158,90.4 S158,93.9 158,94.8 S158,98.2 158,99.1 S159,103 159,103 S159,107 159,108 S159,110 159,111 S159,111 159,111 S159,104 159,102 S159,95.5 159,94.8 S159,94.9 160,94.8 S160,93.9 160,93.3 S160,89.6 160,89 S160,87.6 160,87.6 S160,89.3 160,89 S160,85.5 160,84.7 S160,80.8 161,80.4 S161,81.1 161,80.4 S161,74.3 161,73.2 S161,69.1 161,68.8 S161,69.7 161,70.3 S161,73.9 161,74.6 S161,77 161,77.5 S162,78.3 162,78.9 S162,82.4 162,83.2 S162,86.7 162,87.6 S162,91 162,91.9 S162,95.3 162,96.2 S162,99.7 162,101 S163,104 163,105 S163,107 163,108 S163,109 163,108 S163,99.2 163,97.6 S163,92.7 163,91.9 S163,89.7 163,89 S164,85.1 164,84.7 S164,84.7 164,84.7 S164,84.4 164,84.7 S164,87.6 164,87.6 S164,85 164,84.7 S164,85.1 164,84.7 S165,81.7 165,80.4 S165,72.9 165,71.7 S165,68.8 165,68.8 S165,71 165,71.7 S165,75.3 165,76 S165,78.3 165,78.9 S166,80.9 166,81.8 S166,86.6 166,87.6 S166,90.9 166,91.9 S166,96.6 166,97.6 S166,101 166,102 S166,105 166,106 S167,110 167,111 S167,113 167,113 S167,116 167,115 S167,106 167,105 S167,101 167,99.1 S167,91.9 167,90.4 S168,85 168,84.7 S168,87.4 168,87.6 S168,86.7 168,86.1 S168,82.5 168,81.8 S168,78.9 168,78.9 S168,81.2 168,81.8 S169,85.1 169,84.7 S169,78.1 169,77.5 S169,78.5 169,78.9 S169,81.5 169,81.8 S169,81.9 169,81.8 S169,80.4 169,80.4 S169,81.1 170,81.8 S170,86.3 170,87.6 S170,93.5 170,94.8 S170,99.4 170,101 S170,105 170,106 S170,110 170,111 S170,114 171,115 S171,119 171,119 S171,120 171,119 S171,112 171,111 S171,105 171,103 S171,98.5 171,97.6 S171,95 171,94.8 S172,94.6 172,94.8 S172,97.2 172,96.2 S172,86.6 172,84.7 S172,78.8 172,77.5 S172,72.4 172,71.7 S172,71.1 172,70.3 S173,63.1 173,63.1 S173,69 173,70.3 S173,75.2 173,76 S173,78.8 173,78.9 S173,77.5 173,77.5 S173,78.1 173,78.9 S174,84.7 174,86.1 S174,92 174,93.3 S174,97.9 174,99.1 S174,104 174,105 S174,108 174,109 S174,113 174,113 S175,117 175,118 S175,119 175,118 S175,111 175,109 S175,103 175,102 S175,95.9 175,94.8 S175,92.3 175,90.4 S176,77.8 176,76 S176,73 176,73.2 S176,77.2 176,77.5 S176,76.2 176,76 S176,76.2 176,76 S176,75.5 176,74.6 S177,67.8 177,67.4 S177,69.7 177,70.3 S177,72.7 177,73.2 S177,74.3 177,74.6 S177,75.8 177,76 S177,76.8 177,77.5 S178,82.2 178,83.2 S178,86.6 178,87.6 S178,92.3 178,93.3 S178,96.9 178,97.6 S178,99.8 178,101 S178,104 178,105 S179,107 179,108 S179,109 179,108 S179,101 179,99.1 S179,92.5 179,91.9 S179,93.3 179,93.3 S179,92.2 179,91.9 S179,90.7 180,90.4 S180,88.9 180,89 S180,91.3 180,91.9 S180,94.8 180,94.8 S180,93 180,91.9 S180,84.8 180,83.2 S180,76.5 181,76 S181,78.6 181,78.9 S181,79.1 181,78.9 S181,77.8 181,77.5 S181,76.2 181,76 S181,75.5 181,76 S181,80.6 181,81.8 S182,86.4 182,87.6 S182,92.2 182,93.3 S182,98.1 182,99.1 S182,103 182,103 S182,107 182,108 S182,110 182,111 S183,113 183,112 S183,105 183,103 S183,96.8 183,96.2 S183,97.1 183,97.6 S183,101 183,102 S183,105 183,106 S184,112 184,112 S184,107 184,106 S184,106 184,105 S184,99.9 184,99.1 S184,96.6 184,96.2 S184,95.5 184,94.8 S185,90 185,89 S185,85.5 185,84.7 S185,81.1 185,80.4 S185,77.8 185,77.5 S185,76.8 185,77.5 S185,83.2 185,84.7 S186,90.4 186,91.9 S186,97.8 186,99.1 S186,104 186,105 S186,110 186,111 S186,114 186,115 S186,120 186,121 S187,123 187,122 S187,114 187,112 S187,108 187,106 S187,99.7 187,99.1 S187,100 187,101 S187,99.9 187,101 S188,105 188,106 S188,110 188,111 S188,111 188,111 S188,108 188,108 S188,105 188,105 S188,104 188,103 S189,100 189,99.1 S189,94.3 189,93.3 S189,89.7 189,89 S189,86.4 189,86.1 S189,85.4 189,86.1 S189,91.7 189,93.3 S189,100 190,102 S190,108 190,109 S190,114 190,115 S190,120 190,121 S190,124 190,125 S190,129 190,129 S190,132 191,131 S191,122 191,121 S191,116 191,115 S191,110 191,109 S191,108 191,108 S191,108 191,109 S191,117 191,118 S192,124 192,122 S192,107 192,103 S192,90.7 192,89 S192,87.1 192,86.1 S192,80.2 192,78.9 S192,74 192,73.2 S193,70 193,70.3 S193,74.2 193,76 S193,86.7 193,89 S193,97.4 193,99.1 S193,105 193,106 S193,111 193,112 S194,117 194,118 S194,121 194,122 S194,126 194,126 S194,129 194,129 S194,133 194,134 S194,137 194,137 S195,134 195,132 S195,125 195,122 S195,103 195,101 S195,96.2 195,96.2 S195,99.2 195,101 S195,108 195,109 S196,115 196,116 S196,119 196,118 S196,103 196,101 S196,92.2 196,90.4 S196,83.7 196,83.2 S196,85.8 196,86.1 S197,86.1 197,86.1 S197,86.3 197,86.1 S197,84.7 197,84.7 S197,85.3 197,86.1 S197,91.9 197,93.3 S197,99.1 197,101 S198,106 198,108 S198,112 198,113 S198,120 198,121 S198,124 198,125 S198,129 198,129 S198,130 198,129 S199,121 199,119 S199,113 199,111 S199,101 199,99.1 S199,96.8 199,96.2 S199,93.8 199,93.3 S199,92.5 199,91.9 S199,88 200,87.6 S200,87.4 200,87.6 S200,88.7 200,89 S200,91.6 200,90.4 S200,80.4 200,77.5 S200,62.4 200,61.6 S200,69 201,70.3 S201,73.9 201,74.6 S201,76.9 201,77.5 S201,79.5 201,80.4 S201,84.8 201,86.1 S201,92 201,93.3 S201,98.1 201,99.1 S202,102 202,103 S202,108 202,109 S202,113 202,113 S202,117 202,118 S202,120 202,119 S202,110 202,108 S203,97.9 203,96.2 S203,91.7 203,90.4 S203,83.7 203,83.2 S203,84.7 203,86.1 S203,95.5 203,97.6 S203,106 203,108 S204,114 204,115 S204,120 204,121 S204,125 204,126 S204,130 204,131 S204,134 204,135 S204,137 204,138 S205,140 205,141 S205,143 205,144 S205,146 205,147 S205,148 205,148 S205,150 205,151 S205,153 205,154 S206,156 206,157 S206,158 206,158 S206,158 206,158 S206,159 206,160 S206,161 206,161 S206,163 206,164 S207,165 207,165 S207,167 207,167 S207,167 207,167 S207,168 207,168 S207,167 207,167 S207,165 207,165 S208,166 208,167 S208,169 208,170 S208,172 208,173 S208,175 208,175 S208,177 208,177 S208,177 208,177 S209,177 209,177 S209,178 209,178 S209,179 209,180 S209,181 209,181 S209,184 209,184 S209,184 209,184 S209,184 210,184 S210,185 210,185 S210,187 210,187 S210,188 210,188 S210,190 210,190 S210,190 210,190 S210,189 211,188 S211,185 211,184 S211,182 211,181 S211,180 211,180 S211,182 211,183 S211,183 211,183 S211,182 211,183 S212,184 212,184 S212,185 212,185 S212,186 212,187 S212,189 212,190 S212,191 212,191 S212,190 212,190 S213,189 213,188 S213,186 213,185 S213,184 213,184 S213,185 213,185 S213,187 213,187 S213,188 213,188 S214,190 214,190 S214,191 214,191 S214,194 214,194 S214,195 214,194 S214,189 214,187 S214,175 214,171 S215,155 215,151 S215,130 215,126 S215,118 215,116 S215,111 215,111 S215,110 215,111 S215,118 215,119 S216,120 216,121 S216,121 216,122 S216,129 216,128 S216,112 216,109 S216,99.5 216,97.6 S216,91.9 216,90.4 S217,84 217,83.2 S217,82.5 217,83.2 S217,89 217,90.4 S217,96.2 217,97.6 S217,104 217,105 S217,109 217,111 S218,115 218,116 S218,121 218,122 S218,126 218,126 S218,128 218,126 S218,114 218,112 S218,106 218,105 S219,101 219,101 S219,99.1 219,99.1 S219,102 219,101 S219,88.3 219,86.1 S219,80.1 219,78.9 S219,75 219,74.6 S219,74.2 220,74.6 S220,78.8 220,78.9 S220,76.6 220,76 S220,73.4 220,73.2 S220,72.6 220,73.2 S220,78.3 220,78.9 S220,78.8 221,78.9 S221,79.8 221,80.4 S221,83.7 221,84.7 S221,89.3 221,90.4 S221,95.2 221,96.2 S221,99.7 221,101 S221,104 221,105 S222,110 222,111 S222,113 222,113 S222,115 222,113 S222,103 222,101 S222,90.6 222,89 S222,84.5 222,84.7 S223,89 223,90.4 S223,97.5 223,99.1 S223,105 223,106 S223,113 223,112 S223,97.8 223,94.8 S223,84 223,81.8 S224,74.7 224,73.2 S224,67.4 224,66 S224,59.6 224,58.8 S224,57.5 224,57.3 S224,57.3 224,57.3 S224,56.9 224,57.3 S225,60.3 225,61.6 S225,68.6 225,70.3 S225,77.2 225,78.9 S225,86 225,87.6 S225,93.5 225,94.8 S225,99.4 225,101 S226,105 226,106 S226,110 226,111 S226,113 226,112 S226,101 226,99.1 S226,94.5 226,93.3 S226,88 226,87.6 S227,88.9 227,89 S227,89.3 227,89 S227,87.1 227,86.1 S227,79.8 227,78.9 S227,77.3 227,77.5 S227,80.6 227,80.4 S228,75.2 228,74.6 S228,74 228,74.6 S228,79.6 228,80.4 S228,81.7 228,81.8 S228,81.9 228,81.8 S228,80.4 228,80.4 S229,80.8 229,81.8 S229,88.9 229,90.4 S229,96.2 229,97.6 S229,103 229,105 S229,111 229,112 S229,115 229,116 S229,121 230,122 S230,126 230,126 S230,128 230,126 S230,116 230,113 S230,101 230,99.1 S230,93.5 230,91.9 S230,84.7 231,83.2 S231,77.8 231,77.5 S231,80.4 231,80.4 S231,77.8 231,77.5 S231,77.5 231,77.5 S231,78.1 231,77.5 S231,72.7 231,71.7 S232,68 232,67.4 S232,66.1 232,66 S232,66.7 232,66 S232,59.9 232,58.8 S232,54.9 232,54.4 S232,53.4 232,54.4 S233,62.5 233,64.5 S233,72.7 233,74.6 S233,81.5 233,83.2 S233,90.3 233,91.9 S233,97.8 233,99.1 S233,104 233,105 S234,110 234,111 S234,113 234,112 S234,103 234,101 S234,92.6 234,90.4 S234,80.4 234,78.9 S234,76.2 234,76 S235,78.1 235,77.5 S235,70.6 235,70.3 S235,73.3 235,74.6 S235,81.4 235,83.2 S235,92 235,93.3 S235,97.1 235,96.2 S236,87.7 236,84.7 S236,68.3 236,66 S236,62.4 236,61.6 S236,59.2 236,58.8 S236,57.3 236,57.3 S236,57.6 236,58.8 S237,66.8 237,68.8 S237,76.9 237,78.9 S237,87.1 237,89 S237,96.1 237,97.6 S237,104 237,105 S237,109 237,111 S238,116 238,116 S238,118 238,116 S238,105 238,103 S238,97.5 238,96.2 S238,91.7 238,90.4 S238,84.7 238,83.2 S239,77.3 239,76 S239,71.3 239,70.3 S239,65.7 239,66 S239,74.6 239,73.2 S239,24.8 239,51.6 S239,336 239,341 S239,127 240,102 S240,94.2 240,91.9 S240,80.6 240,78.9 S240,76.5 240,74.6 S240,61.9 240,60.2 S240,58.2 240,57.3 S240,52 241,51.6 S241,52.7 241,53 S241,54.4 241,54.4 S241,52.7 241,53 S241,57.2 241,57.3 S241,55 241,54.4 S241,51 241,51.6 S242,59 242,60.2 S242,62.9 242,63.1 S242,61.5 242,61.6 S242,63.8 242,64.5 S242,67.8 242,68.8 S242,73.4 242,74.6 S243,79.4 243,80.4 S243,83.8 243,84.7 S243,88.1 243,89 S243,92.5 243,93.3 S243,96.9 243,97.6 S243,101 243,101 S244,92.5 244,90.4 S244,81.4 244,80.4 S244,80.9 244,80.4 S244,75 244,74.6 S244,76.2 244,76 S244,73.3 244,73.2 S245,74.7 245,74.6 S245,72.2 245,71.7 S245,70.6 245,70.3 S245,69 245,68.8 S245,68.7 245,68.8 S245,70.1 245,70.3 S246,70.4 246,70.3 S246,69.1 246,68.8 S246,67.5 246,67.4 S246,67 246,67.4 S246,70.7 246,71.7 S246,76.3 246,77.5 S247,82.1 247,83.2 S247,88 247,89 S247,92.5 247,93.3 S247,96.8 247,97.6 S247,101 247,102 S247,106 247,105 S248,95.9 248,93.3 S248,81.5 248,78.9 S248,68.8 248,67.4 S248,64.7 248,64.5 S248,66 248,66 S248,64.4 248,64.5 S249,67.3 249,67.4 S249,66.7 249,66 S249,60.3 249,60.2 S249,63.1 249,64.5 S249,72.7 249,74.6 S249,81.7 249,83.2 S249,89.1 250,90.4 S250,95.2 250,96.2 S250,99.7 250,101 S250,104 250,105 S250,107 250,108 S250,110 250,111 S250,113 251,113 S251,116 251,116 S251,117 251,118 S251,120 251,121 S251,122 251,122 S251,125 251,125 S251,126 251,126 S252,128 252,128 S252,129 252,129 S252,130 252,131 S252,132 252,132 S252,133 252,134 S252,135 252,135 S253,136 253,137 S253,136 253,137 S253,138 253,138 S253,139 253,139 S253,141 253,141 S253,142 253,142 S254,143 254,144 S254,145 254,145 S254,146 254,147 S254,148 254,148 S254,148 254,148 S254,149 254,149 S255,151 255,151 S255,151 255,151 S255,152 255,152 S255,154 255,154 S255,155 255,155 S255,155 255,155 S256,157 256,157 S256,157 256,157 S256,158 256,158 S256,158 256,158 S256,157 256,157 S256,157 256,157 S257,157 257,157 S257,158 257,158 S257,159 257,160 S257,161 257,161 S257,162 257,160 S257,140 257,137 S258,124 258,121 S258,109 258,106 S258,95.8 258,94.8 S258,95.3 258,96.2 S258,102 258,103 S258,109 258,111 S259,115 259,116 S259,121 259,122 S259,126 259,126 S259,130 259,131 S259,134 259,134 S259,126 259,124 S259,109 260,106 S260,101 260,101 S260,97.5 260,97.6 S260,101 260,102 S260,104 260,103 S260,99.7 260,97.6 S260,85 261,83.2 S261,81.5 261,80.4 S261,73.4 261,71.7 S261,64.5 261,63.1 S261,57.5 261,57.3 S261,60.6 261,61.6 S261,66.7 261,67.4 S262,68.8 262,68.8 S262,67.1 262,67.4 S262,70.6 262,71.7 S262,77.5 262,78.9 S262,84.7 262,86.1 S262,92 262,93.3 S263,98.1 263,99.1 S263,103 263,103 S263,107 263,108 S263,113 263,112 S263,104 263,102 S263,91.4 263,89 S264,78.8 264,77.5 S264,76.9 264,76 S264,70.1 264,68.8 S264,63.4 264,63.1 S264,66.1 264,66 S264,62.4 264,61.6 S265,58.8 265,58.8 S265,61.5 265,61.6 S265,60.2 265,60.2 S265,61.6 265,61.6 S265,60.2 265,60.2 S265,61.4 265,61.6 S266,62.8 266,63.1 S266,63.7 266,64.5 S266,70.1 266,71.7 S266,78.8 266,80.4 S266,86.1 266,87.6 S266,93.5 266,94.8 S267,99.4 267,101 S267,105 267,106 S267,110 267,111 S267,115 267,115 S267,109 267,106 S267,94.2 267,91.9 S268,84.8 268,83.2 S268,77.3 268,76 S268,70.6 268,70.3 S268,71.9 268,73.2 S268,81.2 268,83.2 S268,93.5 268,93.3 S269,83.2 269,81.8 S269,80.1 269,78.9 S269,72 269,70.3 S269,62.4 269,61.6 S269,62.4 269,63.1 S269,68.1 269,68.8 S269,70.3 270,70.3 S270,68.4 270,68.8 S270,73.2 270,74.6 S270,81.5 270,83.2 S270,90.2 270,91.9 S270,99.1 270,101 S270,105 271,106 S271,111 271,112 S271,117 271,118 S271,124 271,124 S271,112 271,109 S271,97.4 271,94.8 S271,84.8 271,83.2 S272,80.4 272,78.9 S272,69.8 272,68.8 S272,68.8 272,68.8 S272,69.3 272,68.8 S272,65 272,64.5 S272,64.1 272,64.5 S273,68.7 273,68.8 S273,66.8 273,66 S273,60.3 273,60.2 S273,63.5 273,64.5 S273,69.6 273,70.3 S273,71.6 273,71.7 S274,71 274,71.7 S274,77.3 274,78.9 S274,85.8 274,87.6 S274,94.6 274,96.2 S274,102 274,103 S274,109 274,111 S275,114 275,115 S275,120 275,121 S275,125 275,125 S275,119 275,116 S275,103 275,101 S275,89.3 275,87.6 S276,84.7 276,83.2 S276,74.6 276,73.2 S276,68.7 276,68.8 S276,73.2 276,74.6 S276,82.2 276,83.2 S276,84.5 276,84.7 S277,85 277,84.7 S277,82.7 277,81.8 S277,76.9 277,76 S277,73.7 277,73.2 S277,70.6 277,70.3 S277,70.4 277,70.3 S278,68.3 278,68.8 S278,74.5 278,76 S278,83 278,84.7 S278,91.7 278,93.3 S278,99.1 278,101 S278,106 278,108 S279,112 279,113 S279,117 279,118 S279,121 279,121 S279,114 279,112 S279,98.6 279,96.2 S279,88.6 279,87.6 S279,86.3 280,86.1 S280,86.1 280,86.1 S280,86.6 280,86.1 S280,81.4 280,81.8 " fill="none"/></g>
</g>
<g id="plotPoints" clip-path="url(#plot_window)"><g stroke="rgb(0,0,255)" fill="rgb(255,255,255)"><circle cx="101" cy="270" r="1"/><circle cx="101" cy="292" r="1"/><circle cx="101" cy="305" r="1"/><circle cx="102" cy="325" r="1"/><circle cx="102" cy="334" r="1"/><circle cx="102" cy="312" r="1"/><circle cx="102" cy="301" r="1"/><circle cx="102" cy="298" r="1"/><circle cx="103" cy="299" r="1"/><circle cx="103" cy="296" r="1"/><circle cx="103" cy="304" r="1"/><circle cx="103" cy="304" r="1"/><circle cx="103" cy="324" r="1"/><circle cx="103" cy="328" r="1"/><circle cx="104" cy="332" r="1"/><circle cx="104" cy="322" r="1"/><circle cx="104" cy="329" r="1"/><circle cx="104" cy="322" r="1"/><circle cx="104" cy="302" r="1"/><circle cx="104" cy="247" r="1"/><circle cx="105" cy="236" r="1"/><circle cx="105" cy="227" r="1"/><circle cx="105" cy="272" r="1"/><circle cx="105" cy="281" r="1"/><circle cx="105" cy="312" r="1"/><circle cx="105" cy="325" r="1"/><circle cx="106" cy="335" r="1"/><circle cx="109" cy="315" r="1"/><circle cx="109" cy="309" r="1"/><circle cx="109" cy="324" r="1"/><circle cx="109" cy="328" r="1"/><circle cx="116" cy="335" r="1"/><circle cx="117" cy="322" r="1"/><circle cx="117" cy="340" r="1"/><circle cx="117" cy="335" r="1"/><circle cx="119" cy="321" r="1"/><circle cx="119" cy="317" r="1"/><circle cx="120" cy="327" r="1"/><circle cx="120" cy="324" r="1"/><circle cx="120" cy="309" r="1"/><circle cx="120" cy="301" r="1"/><circle cx="120" cy="243" r="1"/><circle cx="120" cy="211" r="1"/><circle cx="121" cy="247" r="1"/><circle cx="121" cy="257" r="1"/><circle cx="121" cy="295" r="1"/><circle cx="121" cy="299" r="1"/><circle cx="121" cy="304" r="1"/><circle cx="121" cy="306" r="1"/><circle cx="121" cy="314" r="1"/><circle cx="122" cy="311" r="1"/><circle cx="122" cy="317" r="1"/><circle cx="122" cy="319" r="1"/><circle cx="122" cy="322" r="1"/><circle cx="122" cy="329" r="1"/><circle cx="122" cy="332" r="1"/><circle cx="123" cy="332" r="1"/><circle cx="124" cy="338" r="1"/><circle cx="124" cy="325" r="1"/><circle cx="124" cy="322" r="1"/><circle cx="125" cy="318" r="1"/><circle cx="125" cy="325" r="1"/><circle cx="125" cy="328" r="1"/><circle cx="125" cy="335" r="1"/><circle cx="125" cy="337" r="1"/><circle cx="125" cy="335" r="1"/><circle cx="126" cy="335" r="1"/><circle cx="126" cy="337" r="1"/><circle cx="126" cy="340" r="1"/><circle cx="126" cy="338" r="1"/><circle cx="126" cy="340" r="1"/><circle cx="126" cy="338" r="1"/><circle cx="127" cy="340" r="1"/><circle cx="127" cy="340" r="1"/><circle cx="128" cy="338" r="1"/><circle cx="128" cy="338" r="1"/><circle cx="128" cy="337" r="1"/><circle cx="128" cy="331" r="1"/><circle cx="128" cy="311" r="1"/><circle cx="128" cy="295" r="1"/><circle cx="129" cy="275" r="1"/><circle cx="129" cy="286" r="1"/><circle cx="129" cy="302" r="1"/><circle cx="129" cy="331" r="1"/><circle cx="130" cy="338" r="1"/><circle cx="130" cy="338" r="1"/><circle cx="131" cy="298" r="1"/><circle cx="131" cy="309" r="1"/><circle cx="131" cy="321" r="1"/><circle cx="131" cy="338" r="1"/><circle cx="131" cy="338" r="1"/><circle cx="131" cy="318" r="1"/><circle cx="131" cy="319" r="1"/><circle cx="132" cy="325" r="1"/><circle cx="132" cy="321" r="1"/><circle cx="132" cy="278" r="1"/><circle cx="132" cy="247" r="1"/><circle cx="132" cy="273" r="1"/><circle cx="132" cy="283" r="1"/><circle cx="133" cy="282" r="1"/><circle cx="133" cy="309" r="1"/><circle cx="136" cy="299" r="1"/><circle cx="137" cy="337" r="1"/><circle cx="139" cy="340" r="1"/><circle cx="140" cy="338" r="1"/><circle cx="140" cy="334" r="1"/><circle cx="140" cy="328" r="1"/><circle cx="140" cy="319" r="1"/><circle cx="140" cy="314" r="1"/><circle cx="140" cy="308" r="1"/><circle cx="141" cy="308" r="1"/><circle cx="141" cy="315" r="1"/><circle cx="141" cy="318" r="1"/><circle cx="141" cy="318" r="1"/><circle cx="141" cy="321" r="1"/><circle cx="141" cy="321" r="1"/><circle cx="141" cy="318" r="1"/><circle cx="142" cy="319" r="1"/><circle cx="142" cy="321" r="1"/><circle cx="142" cy="317" r="1"/><circle cx="142" cy="318" r="1"/><circle cx="142" cy="317" r="1"/><circle cx="142" cy="317" r="1"/><circle cx="143" cy="318" r="1"/><circle cx="143" cy="317" r="1"/><circle cx="143" cy="318" r="1"/><circle cx="143" cy="317" r="1"/><circle cx="143" cy="315" r="1"/><circle cx="143" cy="317" r="1"/><circle cx="144" cy="314" r="1"/><circle cx="144" cy="298" r="1"/><circle cx="144" cy="292" r="1"/><circle cx="144" cy="289" r="1"/><circle cx="144" cy="286" r="1"/><circle cx="144" cy="283" r="1"/><circle cx="145" cy="282" r="1"/><circle cx="145" cy="301" r="1"/><circle cx="145" cy="314" r="1"/><circle cx="145" cy="308" r="1"/><circle cx="145" cy="309" r="1"/><circle cx="145" cy="308" r="1"/><circle cx="146" cy="312" r="1"/><circle cx="146" cy="311" r="1"/><circle cx="146" cy="312" r="1"/><circle cx="146" cy="311" r="1"/><circle cx="146" cy="309" r="1"/><circle cx="146" cy="312" r="1"/><circle cx="147" cy="315" r="1"/><circle cx="147" cy="312" r="1"/><circle cx="147" cy="315" r="1"/><circle cx="147" cy="314" r="1"/><circle cx="147" cy="315" r="1"/><circle cx="147" cy="317" r="1"/><circle cx="148" cy="312" r="1"/><circle cx="148" cy="295" r="1"/><circle cx="148" cy="279" r="1"/><circle cx="148" cy="289" r="1"/><circle cx="148" cy="296" r="1"/><circle cx="148" cy="306" r="1"/><circle cx="149" cy="318" r="1"/><circle cx="149" cy="327" r="1"/><circle cx="149" cy="329" r="1"/><circle cx="149" cy="329" r="1"/><circle cx="149" cy="332" r="1"/><circle cx="149" cy="334" r="1"/><circle cx="150" cy="334" r="1"/><circle cx="152" cy="331" r="1"/><circle cx="152" cy="298" r="1"/><circle cx="152" cy="286" r="1"/><circle cx="152" cy="288" r="1"/><circle cx="152" cy="285" r="1"/><circle cx="153" cy="281" r="1"/><circle cx="153" cy="282" r="1"/><circle cx="153" cy="273" r="1"/><circle cx="153" cy="266" r="1"/><circle cx="153" cy="263" r="1"/><circle cx="153" cy="262" r="1"/><circle cx="154" cy="256" r="1"/><circle cx="154" cy="252" r="1"/><circle cx="154" cy="250" r="1"/><circle cx="154" cy="249" r="1"/><circle cx="154" cy="245" r="1"/><circle cx="154" cy="243" r="1"/><circle cx="155" cy="246" r="1"/><circle cx="155" cy="245" r="1"/><circle cx="155" cy="247" r="1"/><circle cx="155" cy="247" r="1"/><circle cx="155" cy="242" r="1"/><circle cx="155" cy="240" r="1"/><circle cx="156" cy="245" r="1"/><circle cx="156" cy="239" r="1"/><circle cx="156" cy="239" r="1"/><circle cx="156" cy="234" r="1"/><circle cx="156" cy="227" r="1"/><circle cx="156" cy="220" r="1"/><circle cx="157" cy="216" r="1"/><circle cx="157" cy="211" r="1"/><circle cx="157" cy="213" r="1"/><circle cx="157" cy="214" r="1"/><circle cx="157" cy="211" r="1"/><circle cx="157" cy="211" r="1"/><circle cx="158" cy="209" r="1"/><circle cx="158" cy="206" r="1"/><circle cx="158" cy="206" r="1"/><circle cx="158" cy="204" r="1"/><circle cx="158" cy="204" r="1"/><circle cx="158" cy="211" r="1"/><circle cx="159" cy="216" r="1"/><circle cx="159" cy="217" r="1"/><circle cx="159" cy="221" r="1"/><circle cx="159" cy="229" r="1"/><circle cx="159" cy="226" r="1"/><circle cx="159" cy="224" r="1"/><circle cx="160" cy="226" r="1"/><circle cx="160" cy="224" r="1"/><circle cx="160" cy="221" r="1"/><circle cx="160" cy="221" r="1"/><circle cx="160" cy="221" r="1"/><circle cx="160" cy="233" r="1"/><circle cx="161" cy="234" r="1"/><circle cx="161" cy="243" r="1"/><circle cx="161" cy="242" r="1"/><circle cx="161" cy="249" r="1"/><circle cx="161" cy="250" r="1"/><circle cx="161" cy="247" r="1"/><circle cx="161" cy="249" r="1"/><circle cx="162" cy="247" r="1"/><circle cx="162" cy="249" r="1"/><circle cx="162" cy="250" r="1"/><circle cx="162" cy="252" r="1"/><circle cx="162" cy="256" r="1"/><circle cx="162" cy="259" r="1"/><circle cx="163" cy="262" r="1"/><circle cx="163" cy="266" r="1"/><circle cx="163" cy="268" r="1"/><circle cx="163" cy="268" r="1"/><circle cx="163" cy="262" r="1"/><circle cx="163" cy="256" r="1"/><circle cx="164" cy="252" r="1"/><circle cx="164" cy="253" r="1"/><circle cx="164" cy="237" r="1"/><circle cx="164" cy="252" r="1"/><circle cx="164" cy="259" r="1"/><circle cx="164" cy="268" r="1"/><circle cx="165" cy="278" r="1"/><circle cx="165" cy="285" r="1"/><circle cx="165" cy="293" r="1"/><circle cx="165" cy="286" r="1"/><circle cx="165" cy="283" r="1"/><circle cx="165" cy="282" r="1"/><circle cx="166" cy="283" r="1"/><circle cx="166" cy="296" r="1"/><circle cx="166" cy="304" r="1"/><circle cx="166" cy="299" r="1"/><circle cx="166" cy="293" r="1"/><circle cx="166" cy="295" r="1"/><circle cx="167" cy="292" r="1"/><circle cx="167" cy="292" r="1"/><circle cx="167" cy="291" r="1"/><circle cx="167" cy="291" r="1"/><circle cx="167" cy="288" r="1"/><circle cx="167" cy="283" r="1"/><circle cx="168" cy="269" r="1"/><circle cx="168" cy="259" r="1"/><circle cx="168" cy="263" r="1"/><circle cx="168" cy="263" r="1"/><circle cx="168" cy="268" r="1"/><circle cx="168" cy="269" r="1"/><circle cx="169" cy="265" r="1"/><circle cx="169" cy="268" r="1"/><circle cx="169" cy="276" r="1"/><circle cx="169" cy="275" r="1"/><circle cx="169" cy="272" r="1"/><circle cx="169" cy="266" r="1"/><circle cx="170" cy="260" r="1"/><circle cx="170" cy="256" r="1"/><circle cx="170" cy="250" r="1"/><circle cx="170" cy="246" r="1"/><circle cx="170" cy="240" r="1"/><circle cx="170" cy="233" r="1"/><circle cx="171" cy="232" r="1"/><circle cx="171" cy="230" r="1"/><circle cx="171" cy="227" r="1"/><circle cx="171" cy="224" r="1"/><circle cx="171" cy="224" r="1"/><circle cx="171" cy="226" r="1"/><circle cx="171" cy="221" r="1"/><circle cx="172" cy="221" r="1"/><circle cx="172" cy="224" r="1"/><circle cx="172" cy="224" r="1"/><circle cx="172" cy="230" r="1"/><circle cx="172" cy="223" r="1"/><circle cx="172" cy="224" r="1"/><circle cx="173" cy="232" r="1"/><circle cx="173" cy="237" r="1"/><circle cx="173" cy="237" r="1"/><circle cx="173" cy="236" r="1"/><circle cx="173" cy="234" r="1"/><circle cx="173" cy="234" r="1"/><circle cx="174" cy="234" r="1"/><circle cx="174" cy="237" r="1"/><circle cx="174" cy="242" r="1"/><circle cx="174" cy="252" r="1"/><circle cx="174" cy="253" r="1"/><circle cx="174" cy="246" r="1"/><circle cx="175" cy="245" r="1"/><circle cx="175" cy="239" r="1"/><circle cx="175" cy="243" r="1"/><circle cx="175" cy="239" r="1"/><circle cx="175" cy="232" r="1"/><circle cx="175" cy="220" r="1"/><circle cx="176" cy="219" r="1"/><circle cx="176" cy="211" r="1"/><circle cx="176" cy="219" r="1"/><circle cx="176" cy="233" r="1"/><circle cx="176" cy="234" r="1"/><circle cx="176" cy="237" r="1"/><circle cx="177" cy="226" r="1"/><circle cx="177" cy="223" r="1"/><circle cx="177" cy="229" r="1"/><circle cx="177" cy="232" r="1"/><circle cx="177" cy="219" r="1"/><circle cx="177" cy="221" r="1"/><circle cx="178" cy="224" r="1"/><circle cx="178" cy="232" r="1"/><circle cx="178" cy="232" r="1"/><circle cx="178" cy="226" r="1"/><circle cx="178" cy="219" r="1"/><circle cx="178" cy="224" r="1"/><circle cx="179" cy="245" r="1"/><circle cx="179" cy="253" r="1"/><circle cx="179" cy="252" r="1"/><circle cx="179" cy="255" r="1"/><circle cx="179" cy="243" r="1"/><circle cx="179" cy="211" r="1"/><circle cx="180" cy="234" r="1"/><circle cx="180" cy="224" r="1"/><circle cx="180" cy="245" r="1"/><circle cx="180" cy="242" r="1"/><circle cx="180" cy="236" r="1"/><circle cx="180" cy="239" r="1"/><circle cx="181" cy="247" r="1"/><circle cx="181" cy="246" r="1"/><circle cx="181" cy="245" r="1"/><circle cx="181" cy="243" r="1"/><circle cx="181" cy="245" r="1"/><circle cx="181" cy="252" r="1"/><circle cx="181" cy="263" r="1"/><circle cx="182" cy="269" r="1"/><circle cx="182" cy="272" r="1"/><circle cx="182" cy="295" r="1"/><circle cx="182" cy="293" r="1"/><circle cx="182" cy="295" r="1"/><circle cx="182" cy="289" r="1"/><circle cx="183" cy="298" r="1"/><circle cx="183" cy="298" r="1"/><circle cx="183" cy="275" r="1"/><circle cx="183" cy="245" r="1"/><circle cx="183" cy="245" r="1"/><circle cx="183" cy="262" r="1"/><circle cx="184" cy="260" r="1"/><circle cx="184" cy="255" r="1"/><circle cx="184" cy="272" r="1"/><circle cx="184" cy="272" r="1"/><circle cx="184" cy="262" r="1"/><circle cx="184" cy="263" r="1"/><circle cx="185" cy="265" r="1"/><circle cx="185" cy="266" r="1"/><circle cx="185" cy="269" r="1"/><circle cx="185" cy="282" r="1"/><circle cx="185" cy="272" r="1"/><circle cx="185" cy="279" r="1"/><circle cx="186" cy="285" r="1"/><circle cx="186" cy="282" r="1"/><circle cx="186" cy="279" r="1"/><circle cx="186" cy="283" r="1"/><circle cx="186" cy="288" r="1"/><circle cx="186" cy="282" r="1"/><circle cx="187" cy="275" r="1"/><circle cx="187" cy="268" r="1"/><circle cx="187" cy="269" r="1"/><circle cx="187" cy="275" r="1"/><circle cx="187" cy="291" r="1"/><circle cx="187" cy="286" r="1"/><circle cx="188" cy="291" r="1"/><circle cx="188" cy="295" r="1"/><circle cx="188" cy="308" r="1"/><circle cx="188" cy="305" r="1"/><circle cx="188" cy="315" r="1"/><circle cx="188" cy="309" r="1"/><circle cx="189" cy="321" r="1"/><circle cx="189" cy="317" r="1"/><circle cx="189" cy="299" r="1"/><circle cx="189" cy="312" r="1"/><circle cx="189" cy="304" r="1"/><circle cx="189" cy="292" r="1"/><circle cx="190" cy="275" r="1"/><circle cx="190" cy="266" r="1"/><circle cx="190" cy="268" r="1"/><circle cx="190" cy="276" r="1"/><circle cx="190" cy="285" r="1"/><circle cx="190" cy="279" r="1"/><circle cx="191" cy="282" r="1"/><circle cx="191" cy="282" r="1"/><circle cx="191" cy="278" r="1"/><circle cx="191" cy="293" r="1"/><circle cx="191" cy="242" r="1"/><circle cx="191" cy="243" r="1"/><circle cx="191" cy="255" r="1"/><circle cx="192" cy="259" r="1"/><circle cx="192" cy="263" r="1"/><circle cx="192" cy="293" r="1"/><circle cx="192" cy="288" r="1"/><circle cx="192" cy="285" r="1"/><circle cx="192" cy="285" r="1"/><circle cx="193" cy="281" r="1"/><circle cx="193" cy="282" r="1"/><circle cx="193" cy="286" r="1"/><circle cx="193" cy="285" r="1"/><circle cx="193" cy="285" r="1"/><circle cx="193" cy="288" r="1"/><circle cx="194" cy="292" r="1"/><circle cx="194" cy="299" r="1"/><circle cx="194" cy="304" r="1"/><circle cx="194" cy="314" r="1"/><circle cx="194" cy="325" r="1"/><circle cx="194" cy="332" r="1"/><circle cx="195" cy="328" r="1"/><circle cx="195" cy="296" r="1"/><circle cx="195" cy="262" r="1"/><circle cx="195" cy="273" r="1"/><circle cx="195" cy="253" r="1"/><circle cx="195" cy="263" r="1"/><circle cx="196" cy="270" r="1"/><circle cx="196" cy="276" r="1"/><circle cx="196" cy="279" r="1"/><circle cx="196" cy="279" r="1"/><circle cx="196" cy="285" r="1"/><circle cx="196" cy="291" r="1"/><circle cx="197" cy="296" r="1"/><circle cx="197" cy="291" r="1"/><circle cx="197" cy="276" r="1"/><circle cx="197" cy="265" r="1"/><circle cx="197" cy="263" r="1"/><circle cx="197" cy="257" r="1"/><circle cx="198" cy="252" r="1"/><circle cx="198" cy="243" r="1"/><circle cx="198" cy="240" r="1"/><circle cx="198" cy="224" r="1"/><circle cx="198" cy="217" r="1"/><circle cx="198" cy="224" r="1"/><circle cx="199" cy="239" r="1"/><circle cx="199" cy="237" r="1"/><circle cx="199" cy="237" r="1"/><circle cx="199" cy="224" r="1"/><circle cx="199" cy="221" r="1"/><circle cx="199" cy="233" r="1"/><circle cx="200" cy="232" r="1"/><circle cx="200" cy="247" r="1"/><circle cx="200" cy="266" r="1"/><circle cx="200" cy="266" r="1"/><circle cx="200" cy="281" r="1"/><circle cx="200" cy="283" r="1"/><circle cx="201" cy="276" r="1"/><circle cx="201" cy="281" r="1"/><circle cx="201" cy="285" r="1"/><circle cx="201" cy="295" r="1"/><circle cx="201" cy="302" r="1"/><circle cx="201" cy="312" r="1"/><circle cx="201" cy="315" r="1"/><circle cx="202" cy="308" r="1"/><circle cx="202" cy="309" r="1"/><circle cx="202" cy="304" r="1"/><circle cx="202" cy="306" r="1"/><circle cx="202" cy="305" r="1"/><circle cx="202" cy="304" r="1"/><circle cx="203" cy="315" r="1"/><circle cx="203" cy="299" r="1"/><circle cx="203" cy="252" r="1"/><circle cx="203" cy="243" r="1"/><circle cx="203" cy="257" r="1"/><circle cx="203" cy="266" r="1"/><circle cx="204" cy="281" r="1"/><circle cx="204" cy="281" r="1"/><circle cx="204" cy="275" r="1"/><circle cx="204" cy="276" r="1"/><circle cx="204" cy="270" r="1"/><circle cx="204" cy="275" r="1"/><circle cx="205" cy="304" r="1"/><circle cx="205" cy="308" r="1"/><circle cx="205" cy="314" r="1"/><circle cx="205" cy="312" r="1"/><circle cx="205" cy="317" r="1"/><circle cx="205" cy="338" r="1"/><circle cx="206" cy="335" r="1"/><circle cx="206" cy="331" r="1"/><circle cx="206" cy="329" r="1"/><circle cx="206" cy="335" r="1"/><circle cx="206" cy="327" r="1"/><circle cx="207" cy="334" r="1"/><circle cx="207" cy="308" r="1"/><circle cx="207" cy="257" r="1"/><circle cx="207" cy="253" r="1"/><circle cx="207" cy="236" r="1"/><circle cx="207" cy="239" r="1"/><circle cx="208" cy="255" r="1"/><circle cx="208" cy="275" r="1"/><circle cx="208" cy="289" r="1"/><circle cx="208" cy="299" r="1"/><circle cx="208" cy="302" r="1"/><circle cx="208" cy="306" r="1"/><circle cx="209" cy="295" r="1"/><circle cx="209" cy="288" r="1"/><circle cx="209" cy="278" r="1"/><circle cx="209" cy="289" r="1"/><circle cx="209" cy="296" r="1"/><circle cx="209" cy="291" r="1"/><circle cx="210" cy="268" r="1"/><circle cx="210" cy="262" r="1"/><circle cx="210" cy="252" r="1"/><circle cx="210" cy="239" r="1"/><circle cx="210" cy="242" r="1"/><circle cx="210" cy="247" r="1"/><circle cx="211" cy="252" r="1"/><circle cx="211" cy="217" r="1"/><circle cx="211" cy="219" r="1"/><circle cx="211" cy="230" r="1"/><circle cx="211" cy="226" r="1"/><circle cx="211" cy="209" r="1"/><circle cx="211" cy="229" r="1"/><circle cx="212" cy="246" r="1"/><circle cx="212" cy="268" r="1"/><circle cx="212" cy="269" r="1"/><circle cx="212" cy="270" r="1"/><circle cx="212" cy="281" r="1"/><circle cx="212" cy="268" r="1"/><circle cx="213" cy="281" r="1"/><circle cx="213" cy="288" r="1"/><circle cx="213" cy="291" r="1"/><circle cx="213" cy="295" r="1"/><circle cx="213" cy="301" r="1"/><circle cx="213" cy="305" r="1"/><circle cx="214" cy="302" r="1"/><circle cx="214" cy="306" r="1"/><circle cx="214" cy="296" r="1"/><circle cx="214" cy="291" r="1"/><circle cx="214" cy="291" r="1"/><circle cx="214" cy="282" r="1"/><circle cx="215" cy="236" r="1"/><circle cx="215" cy="221" r="1"/><circle cx="215" cy="230" r="1"/><circle cx="215" cy="237" r="1"/><circle cx="215" cy="239" r="1"/><circle cx="215" cy="250" r="1"/><circle cx="216" cy="256" r="1"/><circle cx="216" cy="259" r="1"/><circle cx="216" cy="262" r="1"/><circle cx="216" cy="262" r="1"/><circle cx="216" cy="262" r="1"/><circle cx="216" cy="259" r="1"/><circle cx="217" cy="263" r="1"/><circle cx="217" cy="263" r="1"/><circle cx="217" cy="263" r="1"/><circle cx="217" cy="273" r="1"/><circle cx="217" cy="285" r="1"/><circle cx="217" cy="292" r="1"/><circle cx="218" cy="301" r="1"/><circle cx="218" cy="302" r="1"/><circle cx="218" cy="305" r="1"/><circle cx="218" cy="305" r="1"/><circle cx="218" cy="298" r="1"/><circle cx="218" cy="285" r="1"/><circle cx="219" cy="275" r="1"/><circle cx="219" cy="266" r="1"/><circle cx="219" cy="260" r="1"/><circle cx="219" cy="257" r="1"/><circle cx="219" cy="253" r="1"/><circle cx="219" cy="256" r="1"/><circle cx="220" cy="257" r="1"/><circle cx="220" cy="260" r="1"/><circle cx="220" cy="253" r="1"/><circle cx="220" cy="252" r="1"/><circle cx="220" cy="252" r="1"/><circle cx="220" cy="252" r="1"/><circle cx="221" cy="253" r="1"/><circle cx="221" cy="253" r="1"/><circle cx="221" cy="253" r="1"/><circle cx="221" cy="255" r="1"/><circle cx="221" cy="257" r="1"/><circle cx="221" cy="257" r="1"/><circle cx="221" cy="265" r="1"/><circle cx="222" cy="273" r="1"/><circle cx="222" cy="275" r="1"/><circle cx="222" cy="275" r="1"/><circle cx="222" cy="285" r="1"/><circle cx="222" cy="278" r="1"/><circle cx="222" cy="273" r="1"/><circle cx="223" cy="263" r="1"/><circle cx="223" cy="232" r="1"/><circle cx="223" cy="242" r="1"/><circle cx="223" cy="240" r="1"/><circle cx="223" cy="252" r="1"/><circle cx="223" cy="262" r="1"/><circle cx="224" cy="265" r="1"/><circle cx="224" cy="270" r="1"/><circle cx="224" cy="282" r="1"/><circle cx="224" cy="286" r="1"/><circle cx="224" cy="299" r="1"/><circle cx="224" cy="305" r="1"/><circle cx="225" cy="311" r="1"/><circle cx="225" cy="315" r="1"/><circle cx="225" cy="306" r="1"/><circle cx="225" cy="305" r="1"/><circle cx="225" cy="296" r="1"/><circle cx="225" cy="260" r="1"/><circle cx="226" cy="253" r="1"/><circle cx="226" cy="247" r="1"/><circle cx="226" cy="246" r="1"/><circle cx="226" cy="246" r="1"/><circle cx="226" cy="245" r="1"/><circle cx="226" cy="239" r="1"/><circle cx="227" cy="233" r="1"/><circle cx="227" cy="229" r="1"/><circle cx="227" cy="223" r="1"/><circle cx="227" cy="243" r="1"/><circle cx="227" cy="259" r="1"/><circle cx="227" cy="285" r="1"/><circle cx="228" cy="299" r="1"/><circle cx="228" cy="312" r="1"/><circle cx="228" cy="312" r="1"/><circle cx="228" cy="288" r="1"/><circle cx="228" cy="285" r="1"/><circle cx="228" cy="278" r="1"/><circle cx="229" cy="283" r="1"/><circle cx="229" cy="286" r="1"/><circle cx="229" cy="273" r="1"/><circle cx="229" cy="273" r="1"/><circle cx="229" cy="279" r="1"/><circle cx="229" cy="288" r="1"/><circle cx="230" cy="282" r="1"/><circle cx="230" cy="276" r="1"/><circle cx="230" cy="276" r="1"/><circle cx="230" cy="270" r="1"/><circle cx="230" cy="279" r="1"/><circle cx="230" cy="281" r="1"/><circle cx="231" cy="276" r="1"/><circle cx="231" cy="270" r="1"/><circle cx="231" cy="257" r="1"/><circle cx="231" cy="249" r="1"/><circle cx="231" cy="249" r="1"/><circle cx="231" cy="245" r="1"/><circle cx="231" cy="240" r="1"/><circle cx="232" cy="246" r="1"/><circle cx="232" cy="246" r="1"/><circle cx="232" cy="247" r="1"/><circle cx="232" cy="243" r="1"/><circle cx="232" cy="246" r="1"/><circle cx="232" cy="262" r="1"/><circle cx="233" cy="269" r="1"/><circle cx="233" cy="276" r="1"/><circle cx="233" cy="273" r="1"/><circle cx="233" cy="263" r="1"/><circle cx="233" cy="257" r="1"/><circle cx="233" cy="253" r="1"/><circle cx="234" cy="260" r="1"/><circle cx="234" cy="253" r="1"/><circle cx="234" cy="257" r="1"/><circle cx="234" cy="250" r="1"/><circle cx="234" cy="239" r="1"/><circle cx="234" cy="239" r="1"/><circle cx="235" cy="226" r="1"/><circle cx="235" cy="206" r="1"/><circle cx="235" cy="217" r="1"/><circle cx="235" cy="223" r="1"/><circle cx="235" cy="243" r="1"/><circle cx="235" cy="245" r="1"/><circle cx="236" cy="278" r="1"/><circle cx="236" cy="270" r="1"/><circle cx="236" cy="302" r="1"/><circle cx="236" cy="305" r="1"/><circle cx="236" cy="305" r="1"/><circle cx="236" cy="308" r="1"/><circle cx="237" cy="315" r="1"/><circle cx="237" cy="311" r="1"/><circle cx="237" cy="311" r="1"/><circle cx="237" cy="314" r="1"/><circle cx="237" cy="311" r="1"/><circle cx="237" cy="311" r="1"/><circle cx="238" cy="312" r="1"/><circle cx="238" cy="311" r="1"/><circle cx="238" cy="311" r="1"/><circle cx="238" cy="312" r="1"/><circle cx="238" cy="306" r="1"/><circle cx="238" cy="269" r="1"/><circle cx="239" cy="299" r="1"/><circle cx="239" cy="292" r="1"/><circle cx="239" cy="288" r="1"/><circle cx="239" cy="296" r="1"/><circle cx="239" cy="304" r="1"/><circle cx="240" cy="234" r="1"/><circle cx="240" cy="236" r="1"/><circle cx="240" cy="240" r="1"/><circle cx="240" cy="240" r="1"/><circle cx="240" cy="236" r="1"/><circle cx="240" cy="224" r="1"/><circle cx="241" cy="196" r="1"/><circle cx="241" cy="203" r="1"/><circle cx="241" cy="200" r="1"/><circle cx="241" cy="207" r="1"/><circle cx="241" cy="216" r="1"/><circle cx="241" cy="233" r="1"/><circle cx="241" cy="236" r="1"/><circle cx="242" cy="230" r="1"/><circle cx="242" cy="232" r="1"/><circle cx="242" cy="234" r="1"/><circle cx="242" cy="233" r="1"/><circle cx="242" cy="234" r="1"/><circle cx="242" cy="234" r="1"/><circle cx="243" cy="236" r="1"/><circle cx="243" cy="237" r="1"/><circle cx="243" cy="242" r="1"/><circle cx="243" cy="247" r="1"/><circle cx="243" cy="243" r="1"/><circle cx="243" cy="239" r="1"/><circle cx="244" cy="240" r="1"/><circle cx="244" cy="243" r="1"/><circle cx="244" cy="237" r="1"/><circle cx="244" cy="233" r="1"/><circle cx="244" cy="220" r="1"/><circle cx="244" cy="221" r="1"/><circle cx="245" cy="226" r="1"/><circle cx="245" cy="229" r="1"/><circle cx="245" cy="229" r="1"/><circle cx="245" cy="230" r="1"/><circle cx="245" cy="239" r="1"/><circle cx="245" cy="242" r="1"/><circle cx="246" cy="237" r="1"/><circle cx="246" cy="229" r="1"/><circle cx="246" cy="220" r="1"/><circle cx="246" cy="219" r="1"/><circle cx="246" cy="219" r="1"/><circle cx="246" cy="220" r="1"/><circle cx="247" cy="220" r="1"/><circle cx="247" cy="219" r="1"/><circle cx="247" cy="221" r="1"/><circle cx="247" cy="221" r="1"/><circle cx="247" cy="223" r="1"/><circle cx="247" cy="224" r="1"/><circle cx="248" cy="220" r="1"/><circle cx="248" cy="214" r="1"/><circle cx="248" cy="213" r="1"/><circle cx="248" cy="207" r="1"/><circle cx="248" cy="211" r="1"/><circle cx="248" cy="210" r="1"/><circle cx="249" cy="201" r="1"/><circle cx="249" cy="206" r="1"/><circle cx="249" cy="193" r="1"/><circle cx="249" cy="213" r="1"/><circle cx="249" cy="224" r="1"/><circle cx="249" cy="224" r="1"/><circle cx="250" cy="230" r="1"/><circle cx="250" cy="234" r="1"/><circle cx="250" cy="239" r="1"/><circle cx="250" cy="236" r="1"/><circle cx="250" cy="236" r="1"/><circle cx="250" cy="236" r="1"/><circle cx="251" cy="236" r="1"/><circle cx="251" cy="239" r="1"/><circle cx="251" cy="240" r="1"/><circle cx="251" cy="243" r="1"/><circle cx="251" cy="246" r="1"/><circle cx="251" cy="245" r="1"/><circle cx="251" cy="246" r="1"/><circle cx="252" cy="240" r="1"/><circle cx="252" cy="236" r="1"/><circle cx="252" cy="230" r="1"/><circle cx="252" cy="227" r="1"/><circle cx="252" cy="230" r="1"/><circle cx="252" cy="229" r="1"/><circle cx="253" cy="229" r="1"/><circle cx="253" cy="230" r="1"/><circle cx="253" cy="233" r="1"/><circle cx="253" cy="237" r="1"/><circle cx="253" cy="239" r="1"/><circle cx="253" cy="239" r="1"/><circle cx="254" cy="240" r="1"/><circle cx="254" cy="245" r="1"/><circle cx="254" cy="245" r="1"/><circle cx="254" cy="247" r="1"/><circle cx="254" cy="247" r="1"/><circle cx="254" cy="243" r="1"/><circle cx="255" cy="245" r="1"/><circle cx="255" cy="246" r="1"/><circle cx="255" cy="250" r="1"/><circle cx="255" cy="252" r="1"/><circle cx="255" cy="255" r="1"/><circle cx="255" cy="257" r="1"/><circle cx="256" cy="262" r="1"/><circle cx="256" cy="260" r="1"/><circle cx="256" cy="250" r="1"/><circle cx="256" cy="232" r="1"/><circle cx="256" cy="198" r="1"/><circle cx="256" cy="219" r="1"/><circle cx="257" cy="194" r="1"/><circle cx="257" cy="233" r="1"/><circle cx="257" cy="240" r="1"/><circle cx="257" cy="246" r="1"/><circle cx="257" cy="250" r="1"/><circle cx="257" cy="256" r="1"/><circle cx="258" cy="265" r="1"/><circle cx="258" cy="260" r="1"/><circle cx="258" cy="282" r="1"/><circle cx="258" cy="282" r="1"/><circle cx="258" cy="282" r="1"/><circle cx="258" cy="275" r="1"/><circle cx="259" cy="278" r="1"/><circle cx="259" cy="273" r="1"/><circle cx="259" cy="285" r="1"/><circle cx="259" cy="286" r="1"/><circle cx="259" cy="282" r="1"/><circle cx="259" cy="259" r="1"/><circle cx="260" cy="243" r="1"/><circle cx="260" cy="233" r="1"/><circle cx="260" cy="224" r="1"/><circle cx="260" cy="223" r="1"/><circle cx="260" cy="234" r="1"/><circle cx="260" cy="246" r="1"/><circle cx="261" cy="247" r="1"/><circle cx="261" cy="246" r="1"/><circle cx="261" cy="242" r="1"/><circle cx="261" cy="240" r="1"/><circle cx="261" cy="236" r="1"/><circle cx="261" cy="230" r="1"/><circle cx="261" cy="232" r="1"/><circle cx="262" cy="232" r="1"/><circle cx="262" cy="234" r="1"/><circle cx="262" cy="237" r="1"/><circle cx="262" cy="237" r="1"/><circle cx="262" cy="246" r="1"/><circle cx="262" cy="249" r="1"/><circle cx="263" cy="255" r="1"/><circle cx="263" cy="256" r="1"/><circle cx="263" cy="257" r="1"/><circle cx="263" cy="256" r="1"/><circle cx="263" cy="262" r="1"/><circle cx="263" cy="247" r="1"/><circle cx="264" cy="239" r="1"/><circle cx="264" cy="236" r="1"/><circle cx="264" cy="232" r="1"/><circle cx="264" cy="246" r="1"/><circle cx="264" cy="256" r="1"/><circle cx="264" cy="259" r="1"/><circle cx="265" cy="265" r="1"/><circle cx="265" cy="257" r="1"/><circle cx="265" cy="260" r="1"/><circle cx="265" cy="257" r="1"/><circle cx="265" cy="233" r="1"/><circle cx="265" cy="281" r="1"/><circle cx="266" cy="295" r="1"/><circle cx="266" cy="292" r="1"/><circle cx="266" cy="309" r="1"/><circle cx="266" cy="315" r="1"/><circle cx="266" cy="309" r="1"/><circle cx="266" cy="315" r="1"/><circle cx="267" cy="321" r="1"/><circle cx="267" cy="329" r="1"/><circle cx="267" cy="331" r="1"/><circle cx="267" cy="337" r="1"/><circle cx="267" cy="334" r="1"/><circle cx="267" cy="306" r="1"/><circle cx="268" cy="269" r="1"/><circle cx="268" cy="263" r="1"/><circle cx="268" cy="247" r="1"/><circle cx="268" cy="312" r="1"/><circle cx="268" cy="256" r="1"/><circle cx="268" cy="247" r="1"/><circle cx="269" cy="265" r="1"/><circle cx="269" cy="295" r="1"/><circle cx="269" cy="309" r="1"/><circle cx="269" cy="332" r="1"/><circle cx="271" cy="312" r="1"/><circle cx="271" cy="322" r="1"/><circle cx="271" cy="315" r="1"/><circle cx="272" cy="268" r="1"/><circle cx="272" cy="224" r="1"/><circle cx="272" cy="259" r="1"/><circle cx="272" cy="263" r="1"/><circle cx="272" cy="263" r="1"/><circle cx="272" cy="250" r="1"/><circle cx="273" cy="273" r="1"/><circle cx="273" cy="295" r="1"/><circle cx="273" cy="318" r="1"/><circle cx="273" cy="329" r="1"/><circle cx="275" cy="334" r="1"/><circle cx="275" cy="291" r="1"/><circle cx="276" cy="229" r="1"/><circle cx="276" cy="223" r="1"/><circle cx="276" cy="240" r="1"/><circle cx="276" cy="196" r="1"/><circle cx="276" cy="190" r="1"/><circle cx="276" cy="221" r="1"/><circle cx="277" cy="242" r="1"/><circle cx="277" cy="250" r="1"/><circle cx="277" cy="253" r="1"/><circle cx="277" cy="265" r="1"/><circle cx="277" cy="268" r="1"/><circle cx="277" cy="262" r="1"/><circle cx="278" cy="255" r="1"/><circle cx="278" cy="256" r="1"/><circle cx="278" cy="268" r="1"/><circle cx="278" cy="281" r="1"/><circle cx="278" cy="285" r="1"/><circle cx="278" cy="269" r="1"/><circle cx="279" cy="270" r="1"/><circle cx="279" cy="262" r="1"/><circle cx="279" cy="260" r="1"/><circle cx="279" cy="250" r="1"/><circle cx="279" cy="233" r="1"/><circle cx="279" cy="217" r="1"/><circle cx="280" cy="207" r="1"/><circle cx="280" cy="210" r="1"/><circle cx="280" cy="232" r="1"/><circle cx="280" cy="240" r="1"/></g>
</g>
<g id="legendBackground" stroke="rgb(255,255,0)" fill="rgb(255,255,255)" stroke-width="1"><rect x="320" y="53" width="154" height="70"/><rect x="320" y="53" width="154" height="70"/></g>
<g id="legendPoints"><g stroke="rgb(255,0,0)" fill="rgb(255,255,255)" stroke-width="2"><line x1="334" y1="81" x2="348" y2="81"/></g>
<g stroke="rgb(0,0,255)" fill="rgb(255,255,255)" stroke-width="2"><circle cx="334" cy="109" r="1"/><line x1="355" y1="109" x2="369" y2="109"/></g>
</g>
<g id="legendText">
<text x="355" y="81" font-size="14" font-family="Verdana">Inside (&#x00B0;C)</text>
<text x="376" y="109" font-size="14" font-family="Verdana">Outside (&#x00B0;C)</text></g>
<g id="title">
<text x="250" y="36" text-anchor="middle" font-size="18" font-family="Verdana">Temperatures at Long: 2:45:16.2W, Lat:54:17:47.1N</text></g>
<g id="plotXValues"></g>
<g id="plotYValues"></g>
</svg>
