<?xml version="1.0" encoding="UTF-8" standalone="no"?>
<svg width="500" height ="400" version="1.1"
xmlns:svg ="http://www.w3.org/2000/svg"
xmlns:rdf="http://www.w3.org/1999/02/22-rdf-syntax-ns#"
xmlns:cc="http://web.resource.org/cc/"
xmlns:dc="http://purl.org/dc/elements/1.1/"
xmlns ="http://www.w3.org/2000/svg"
>
<!-- SVG plot written using Boost.Plot program (Creator Jacob Voytko) --> 
<!-- Use, modification and distribution of Boost.Plot subject to the --> 
<!-- Boost Software License, Version 1.0.--> 
<!-- (See accompanying file LICENSE_1_0.txt --> 
<!-- or copy at http://www.boost.org/LICENSE_1_0.txt) --> 

<clipPath id="plot_window"><rect x="57.2" y="54" width="416" height="286"/></clipPath>
<g id="imageBackground" stroke="rgb(255,255,0)" fill="rgb(255,255,255)" stroke-width="2"><rect x="0" y="0" width="500" height="400"/></g>
<g id="plotBackground" stroke="rgb(119,136,153)" fill="rgb(255,255,255)" stroke-width="2"><rect x="56.2" y="53" width="418" height="288"/></g>
<g id="yMinorGrid" stroke="rgb(200,220,255)" stroke-width="0.5"></g>
<g id="yMajorGrid" stroke="rgb(200,220,255)" stroke-width="1"></g>
<g id="xMinorGrid" stroke="rgb(200,220,255)" stroke-width="0.5"></g>
<g id="xMajorGrid" stroke="rgb(200,220,255)" stroke-width="1"></g>
<g id="yAxis" stroke="rgb(0,0,0)" stroke-width="1"><line x1="195" y1="53" x2="195" y2="346"/><line x1="56.2" y1="53" x2="56.2" y2="341"/></g>
<g id="xAxis" stroke="rgb(0,0,0)" stroke-width="1"><line x1="51.2" y1="197" x2="474" y2="197"/><line x1="51.2" y1="341" x2="474" y2="341"/></g>
<g id="yMinorTicks" stroke="rgb(0,0,0)" stroke-width="1"><path d="M54.2,191 L56.2,191 M54.2,185 L56.2,185 M54.2,180 L56.2,180 M54.2,174 L56.2,174 M54.2,162 L56.2,162 M54.2,157 L56.2,157 M54.2,151 L56.2,151 M54.2,145 L56.2,145 M54.2,134 L56.2,134 M54.2,128 L56.2,128 M54.2,122 L56.2,122 M54.2,116 L56.2,116 M54.2,105 L56.2,105 M54.2,99.1 L56.2,99.1 M54.2,93.3 L56.2,93.3 M54.2,87.6 L56.2,87.6 M54.2,76 L56.2,76 M54.2,70.3 L56.2,70.3 M54.2,64.5 L56.2,64.5 M54.2,58.8 L56.2,58.8 M54.2,197 L56.2,197 M54.2,203 L56.2,203 M54.2,209 L56.2,209 M54.2,214 L56.2,214 M54.2,220 L56.2,220 M54.2,226 L56.2,226 M54.2,232 L56.2,232 M54.2,237 L56.2,237 M54.2,243 L56.2,243 M54.2,249 L56.2,249 M54.2,255 L56.2,255 M54.2,255 L56.2,255 M54.2,260 L56.2,260 M54.2,266 L56.2,266 M54.2,272 L56.2,272 M54.2,278 L56.2,278 M54.2,283 L56.2,283 M54.2,289 L56.2,289 M54.2,295 L56.2,295 M54.2,301 L56.2,301 M54.2,306 L56.2,306 M54.2,312 L56.2,312 M54.2,318 L56.2,318 M54.2,324 L56.2,324 M54.2,329 L56.2,329 M54.2,335 L56.2,335 M54.2,341 L56.2,341 " fill="none"/></g>
<g id="xMinorTicks" stroke="rgb(0,0,0)" stroke-width="1"><path d="M207,341 L207,343 M218,341 L218,343 M229,341 L229,343 M240,341 L240,343 M262,341 L262,343 M273,341 L273,343 M285,341 L285,343 M296,341 L296,343 M318,341 L318,343 M329,341 L329,343 M340,341 L340,343 M351,341 L351,343 M374,341 L374,343 M385,341 L385,343 M396,341 L396,343 M407,341 L407,343 M429,341 L429,343 M441,341 L441,343 M452,341 L452,343 M463,341 L463,343 M184,341 L184,343 M173,341 L173,343 M162,341 L162,343 M151,341 L151,343 M129,341 L129,343 M117,341 L117,343 M106,341 L106,343 M95.2,341 L95.2,343 M72.9,341 L72.9,343 M61.8,341 L61.8,343 " fill="none"/></g>
<g id="yMajorTicks" stroke="rgb(0,0,0)" stroke-width="2"><path d="M51.2,197 L56.2,197 M51.2,168 L56.2,168 M51.2,139 L56.2,139 M51.2,111 L56.2,111 M51.2,81.8 L56.2,81.8 M51.2,53 L56.2,53 M51.2,197 L56.2,197 M51.2,226 L56.2,226 M51.2,255 L56.2,255 M51.2,283 L56.2,283 M51.2,312 L56.2,312 M51.2,341 L56.2,341 " fill="none"/></g>
<g id="xMajorTicks" stroke="rgb(0,0,0)" stroke-width="2"><path d="M195,341 L195,346 M251,341 L251,346 M307,341 L307,346 M363,341 L363,346 M418,341 L418,346 M474,341 L474,346 M195,341 L195,346 M140,341 L140,346 M84.1,341 L84.1,346 " fill="none"/></g>
<g id="xTicksValues">
<text x="195" y="362" text-anchor="middle" font-size="12" font-family="Lucida Sans Unicode">0</text>
<text x="251" y="362" text-anchor="middle" font-size="12" font-family="Lucida Sans Unicode">2</text>
<text x="307" y="362" text-anchor="middle" font-size="12" font-family="Lucida Sans Unicode">4</text>
<text x="363" y="362" text-anchor="middle" font-size="12" font-family="Lucida Sans Unicode">6</text>
<text x="418" y="362" text-anchor="middle" font-size="12" font-family="Lucida Sans Unicode">8</text>
<text x="474" y="362" text-anchor="middle" font-size="12" font-family="Lucida Sans Unicode">10</text>
<text x="195" y="362" text-anchor="middle" font-size="12" font-family="Lucida Sans Unicode">0</text>
<text x="140" y="362" text-anchor="middle" font-size="12" font-family="Lucida Sans Unicode">-2</text>
<text x="84.1" y="362" text-anchor="middle" font-size="12" font-family="Lucida Sans Unicode">-4</text></g>
<g id="yTicksValues">
<text x="45.2" y="199" text-anchor="end" font-size="12" font-family="Lucida Sans Unicode">0</text>
<text x="45.2" y="171" text-anchor="end" font-size="12" font-family="Lucida Sans Unicode">2</text>
<text x="45.2" y="142" text-anchor="end" font-size="12" font-family="Lucida Sans Unicode">4</text>
<text x="45.2" y="113" text-anchor="end" font-size="12" font-family="Lucida Sans Unicode">6</text>
<text x="45.2" y="84.2" text-anchor="end" font-size="12" font-family="Lucida Sans Unicode">8</text>
<text x="45.2" y="55.4" text-anchor="end" font-size="12" font-family="Lucida Sans Unicode">10</text>
<text x="45.2" y="199" text-anchor="end" font-size="12" font-family="Lucida Sans Unicode">0</text>
<text x="45.2" y="228" text-anchor="end" font-size="12" font-family="Lucida Sans Unicode">-2</text>
<text x="45.2" y="257" text-anchor="end" font-size="12" font-family="Lucida Sans Unicode">-4</text>
<text x="45.2" y="286" text-anchor="end" font-size="12" font-family="Lucida Sans Unicode">-6</text>
<text x="45.2" y="315" text-anchor="end" font-size="12" font-family="Lucida Sans Unicode">-8</text>
<text x="45.2" y="343" text-anchor="end" font-size="12" font-family="Lucida Sans Unicode">-10</text></g>
<g id="yLabel">
<text x="14.9" y="197" text-anchor="middle" transform = "rotate(-90 14.9 197 )" font-size="14" font-family="Lucida Sans Unicode"></text></g>
<g id="xLabel">
<text x="265" y="377" text-anchor="middle" font-size="14" font-family="Lucida Sans Unicode">length (m)</text></g>
<g id="plotPoints" clip-path="url(#plot_window)"><g stroke="rgb(0,0,0)" fill="rgb(255,255,255)"><circle cx="255" cy="162" r="2"/><circle cx="348" cy="119" r="2"/></g>
</g>
<g id="title">
<text x="250" y="36" text-anchor="middle" font-size="18" font-family="Lucida Sans Unicode">Default 2d Values Demo</text></g>
<g id="plotXValues" fill="rgb(255,0,0)"><g>
<text x="260" y="167" font-size="16" font-family="Times New Roman">2.12<tspan fill="rgb(0,0,0)" font-size="14" font-family="Times New Roman">&#x00A0;(0)</tspan><tspan fill="rgb(0,0,0)" font-size="16" font-family="Times New Roman"></tspan><tspan fill="rgb(0,0,0)" font-size="14" font-family="Times New Roman"></tspan><tspan font-size="14" font-family="Arial">2.4394</tspan><tspan fill="rgb(0,0,0)" font-size="12" font-family="Times New Roman">&#x00A0;(1)</tspan></text></g>
<g>
<text x="353" y="124" font-size="16" font-family="Times New Roman">5.47<tspan fill="rgb(0,0,0)" font-size="14" font-family="Times New Roman">&#x00A0;(0)</tspan><tspan fill="rgb(0,0,0)" font-size="16" font-family="Times New Roman"></tspan><tspan fill="rgb(0,0,0)" font-size="14" font-family="Times New Roman"></tspan><tspan font-size="14" font-family="Arial">5.3861</tspan><tspan fill="rgb(0,0,0)" font-size="12" font-family="Times New Roman">&#x00A0;(1)</tspan></text></g>
</g>
<g id="plotYValues" fill="rgb(0,0,255)"></g>
</svg>
