<?xml version="1.0" encoding="UTF-8" standalone="no"?>
<svg width="500" height ="200" version="1.1"
xmlns:svg ="http://www.w3.org/2000/svg"
xmlns:rdf="http://www.w3.org/1999/02/22-rdf-syntax-ns#"
xmlns:cc="http://web.resource.org/cc/"
xmlns:dc="http://purl.org/dc/elements/1.1/"
xmlns ="http://www.w3.org/2000/svg"
>
<!-- SVG plot written using Boost.Plot program (Creator Jacob Voytko) --> 
<!-- Use, modification and distribution of Boost.Plot subject to the --> 
<!-- Boost Software License, Version 1.0.--> 
<!-- (See accompanying file LICENSE_1_0.txt --> 
<!-- or copy at http://www.boost.org/LICENSE_1_0.txt) --> 

<!-- File demo_1d_autoscaling.svg --> 
<g id="imageBackground" stroke="rgb(255,255,0)" fill="rgb(255,255,255)" stroke-width="1"><rect x="0" y="0" width="500" height="200"/></g>
<g id="plotBackground" stroke="rgb(255,255,0)" fill="rgb(255,255,255)" stroke-width="1"><rect x="11" y="56" width="478" height="100"/></g>
<g id="xMinorGrid" stroke="rgb(200,220,255)" stroke-width="0.5"></g>
<g id="xMajorGrid" stroke="rgb(200,220,255)" stroke-width="1"></g>
<g id="xAxis" stroke="rgb(0,0,0)" stroke-width="1"><line x1="11" y1="56" x2="11" y2="156"/><line x1="11" y1="109" x2="489" y2="109"/></g>
<g id="xMinorTicks" stroke="rgb(0,0,0)" stroke-width="1"><path d="M17,109 L17,111 M23,109 L23,111 M28.9,109 L28.9,111 M34.9,109 L34.9,111 M46.9,109 L46.9,111 M52.8,109 L52.8,111 M58.8,109 L58.8,111 M64.8,109 L64.8,111 M76.7,109 L76.7,111 M82.7,109 L82.7,111 M88.7,109 L88.7,111 M94.7,109 L94.7,111 M107,109 L107,111 M113,109 L113,111 M119,109 L119,111 M125,109 L125,111 M136,109 L136,111 M142,109 L142,111 M148,109 L148,111 M154,109 L154,111 M166,109 L166,111 M172,109 L172,111 M178,109 L178,111 M184,109 L184,111 M196,109 L196,111 M202,109 L202,111 M208,109 L208,111 M214,109 L214,111 M226,109 L226,111 M232,109 L232,111 M238,109 L238,111 M244,109 L244,111 M256,109 L256,111 M262,109 L262,111 M268,109 L268,111 M274,109 L274,111 M286,109 L286,111 M292,109 L292,111 M298,109 L298,111 M304,109 L304,111 M316,109 L316,111 M322,109 L322,111 M328,109 L328,111 M334,109 L334,111 M346,109 L346,111 M352,109 L352,111 M358,109 L358,111 M364,109 L364,111 M375,109 L375,111 M381,109 L381,111 M387,109 L387,111 M393,109 L393,111 M405,109 L405,111 M411,109 L411,111 M417,109 L417,111 M423,109 L423,111 M435,109 L435,111 M441,109 L441,111 M447,109 L447,111 M453,109 L453,111 M465,109 L465,111 M471,109 L471,111 M477,109 L477,111 M483,109 L483,111 " fill="none"/></g>
<g id="xMajorTicks" stroke="rgb(0,0,0)" stroke-width="2"><path d="M11,109 L11,114 M40.9,109 L40.9,114 M70.8,109 L70.8,114 M101,109 L101,114 M131,109 L131,114 M160,109 L160,114 M190,109 L190,114 M220,109 L220,114 M250,109 L250,114 M280,109 L280,114 M310,109 L310,114 M340,109 L340,114 M370,109 L370,114 M399,109 L399,114 M429,109 L429,114 M459,109 L459,114 M489,109 L489,114 M11,109 L11,114 " fill="none"/></g>
<g id="plotLabels">
<text x="40.9" y="128" text-anchor="middle" font-size="12" font-family="Verdana">0.5</text>
<text x="70.8" y="128" text-anchor="middle" font-size="12" font-family="Verdana">1</text>
<text x="101" y="128" text-anchor="middle" font-size="12" font-family="Verdana">1.5</text>
<text x="131" y="128" text-anchor="middle" font-size="12" font-family="Verdana">2</text>
<text x="160" y="128" text-anchor="middle" font-size="12" font-family="Verdana">2.5</text>
<text x="190" y="128" text-anchor="middle" font-size="12" font-family="Verdana">3</text>
<text x="220" y="128" text-anchor="middle" font-size="12" font-family="Verdana">3.5</text>
<text x="250" y="128" text-anchor="middle" font-size="12" font-family="Verdana">4</text>
<text x="280" y="128" text-anchor="middle" font-size="12" font-family="Verdana">4.5</text>
<text x="310" y="128" text-anchor="middle" font-size="12" font-family="Verdana">5</text>
<text x="340" y="128" text-anchor="middle" font-size="12" font-family="Verdana">5.5</text>
<text x="370" y="128" text-anchor="middle" font-size="12" font-family="Verdana">6</text>
<text x="399" y="128" text-anchor="middle" font-size="12" font-family="Verdana">6.5</text>
<text x="429" y="128" text-anchor="middle" font-size="12" font-family="Verdana">7</text>
<text x="459" y="128" text-anchor="middle" font-size="12" font-family="Verdana">7.5</text>
<text x="489" y="128" text-anchor="middle" font-size="12" font-family="Verdana">8</text></g>
<g id="xLabel">
<text x="250" y="180" text-anchor="middle" font-size="14" font-family="Verdana"></text></g>
<g id="plotPoints"><g stroke="rgb(0,0,0)"><line x1="148" y1="111" x2="148" y2="101"/><line x1="214" y1="111" x2="214" y2="101"/><line x1="280" y1="111" x2="280" y2="101"/><line x1="346" y1="111" x2="346" y2="101"/><line x1="411" y1="111" x2="411" y2="101"/><line x1="477" y1="111" x2="477" y2="101"/></g>
</g>
<g id="title">
<text x="250" y="36" text-anchor="middle" font-size="18" font-family="Verdana"></text></g>
</svg>
