<?xml version="1.0" encoding="UTF-8" standalone="no"?>
<svg width="500" height ="200" version="1.1"
xmlns:svg ="http://www.w3.org/2000/svg"
xmlns:rdf="http://www.w3.org/1999/02/22-rdf-syntax-ns#"
xmlns:cc="http://web.resource.org/cc/"
xmlns:dc="http://purl.org/dc/elements/1.1/"
xmlns ="http://www.w3.org/2000/svg"
>
<!-- SVG plot written using Boost.Plot program (Creator Jacob Voytko) --> 
<!-- Use, modification and distribution of Boost.Plot subject to the --> 
<!-- Boost Software License, Version 1.0.--> 
<!-- (See accompanying file LICENSE_1_0.txt --> 
<!-- or copy at http://www.boost.org/LICENSE_1_0.txt) --> 

<!-- File ./demo_1d_vector.svg --> 
<g id="imageBackground" stroke="rgb(0,0,255)" fill="rgb(255,255,255)" stroke-width="1"><rect x="0" y="0" width="500" height="200"/></g>
<g id="plotBackground" stroke="rgb(250,250,210)" fill="rgb(255,255,255)" stroke-width="1"><rect x="11" y="56" width="344" height="128"/></g>
<g id="xMinorGrid" stroke="rgb(200,220,255)" stroke-width="0.5"></g>
<g id="xMajorGrid" stroke="rgb(200,220,255)" stroke-width="1"></g>
<g id="xAxis" stroke="rgb(0,0,0)" stroke-width="1"><line x1="39.7" y1="56" x2="39.7" y2="184"/><line x1="11" y1="123" x2="355" y2="123"/></g>
<g id="xMinorTicks" stroke="rgb(0,0,0)" stroke-width="1"><path d="M51.1,123 L51.1,125 M62.6,123 L62.6,125 M74.1,123 L74.1,125 M85.5,123 L85.5,125 M108,123 L108,125 M120,123 L120,125 M131,123 L131,125 M143,123 L143,125 M166,123 L166,125 M177,123 L177,125 M189,123 L189,125 M200,123 L200,125 M223,123 L223,125 M235,123 L235,125 M246,123 L246,125 M258,123 L258,125 M280,123 L280,125 M292,123 L292,125 M303,123 L303,125 M315,123 L315,125 M338,123 L338,125 M349,123 L349,125 M28.2,123 L28.2,125 M16.7,123 L16.7,125 " fill="none"/></g>
<g id="xMajorTicks" stroke="rgb(0,0,0)" stroke-width="2"><path d="M39.7,123 L39.7,128 M97,123 L97,128 M154,123 L154,128 M212,123 L212,128 M269,123 L269,128 M326,123 L326,128 M39.7,123 L39.7,128 " fill="none"/></g>
<g id="xTicksValues">
<text x="97" y="143" text-anchor="middle" font-size="12" font-family="Verdana">2</text>
<text x="154" y="143" text-anchor="middle" font-size="12" font-family="Verdana">4</text>
<text x="212" y="143" text-anchor="middle" font-size="12" font-family="Verdana">6</text>
<text x="269" y="143" text-anchor="middle" font-size="12" font-family="Verdana">8</text>
<text x="326" y="143" text-anchor="middle" font-size="12" font-family="Verdana">10</text></g>
<g id="xLabel">
<text x="183" y="208" text-anchor="middle" font-size="14" font-family="Verdana"></text></g>
<g id="plotPoints"><g stroke="rgb(255,0,0)" fill="rgb(0,128,0)"><circle cx="129" cy="120" r="5"/><circle cx="160" cy="120" r="5"/></g>
<g stroke="rgb(0,0,255)"><line x1="99.9" y1="125" x2="99.9" y2="115"/><line x1="263" y1="125" x2="263" y2="115"/></g>
</g>
<g id="legendBackground" stroke="rgb(255,255,0)" fill="rgb(255,255,255)" stroke-width="1"><rect x="367" y="56" width="122" height="70"/><rect x="367" y="56" width="122" height="70"/></g>
<g id="legendPoints"><g stroke="rgb(255,0,0)" fill="rgb(0,128,0)" stroke-width="2"><circle cx="381" cy="84" r="5"/><line x1="402" y1="84" x2="416" y2="84"/></g>
<g stroke="rgb(0,0,255)" stroke-width="2"><line x1="381" y1="117" x2="381" y2="107"/><line x1="402" y1="112" x2="416" y2="112"/></g>
</g>
<g id="legendText">
<text x="423" y="84" font-size="14" font-family="Verdana">Dan</text>
<text x="423" y="112" font-size="14" font-family="Verdana">Elaine</text></g>
<g id="title">
<text x="250" y="36" text-anchor="middle" font-size="18" font-family="Verdana">Race Times</text></g>
</svg>
