<?xml version="1.0" encoding="UTF-8" standalone="no"?>
<svg width="500" height ="400" version="1.1"
xmlns:svg ="http://www.w3.org/2000/svg"
xmlns:rdf="http://www.w3.org/1999/02/22-rdf-syntax-ns#"
xmlns:cc="http://web.resource.org/cc/"
xmlns:dc="http://purl.org/dc/elements/1.1/"
xmlns ="http://www.w3.org/2000/svg"
>
<!-- SVG plot written using Boost.Plot program (Creator Jacob Voytko) --> 
<!-- Use, modification and distribution of Boost.Plot subject to the --> 
<!-- Boost Software License, Version 1.0.--> 
<!-- (See accompanying file LICENSE_1_0.txt --> 
<!-- or copy at http://www.boost.org/LICENSE_1_0.txt) --> 

<clipPath id="plot_window"><rect x="48.8" y="54" width="424" height="286"/></clipPath>
<g id="imageBackground" stroke="rgb(255,255,0)" fill="rgb(255,255,255)" stroke-width="2"><rect x="0" y="0" width="500" height="400"/></g>
<g id="plotBackground" stroke="rgb(119,136,153)" fill="rgb(255,255,255)" stroke-width="2"><rect x="47.8" y="53" width="426" height="288"/></g>
<g id="yMinorGrid" stroke="rgb(200,220,255)" stroke-width="0.5"></g>
<g id="yMajorGrid" stroke="rgb(200,220,255)" stroke-width="1"></g>
<g id="xMinorGrid" stroke="rgb(200,220,255)" stroke-width="0.5"></g>
<g id="xMajorGrid" stroke="rgb(200,220,255)" stroke-width="1"></g>
<g id="yAxis" stroke="rgb(0,0,0)" stroke-width="1"><line x1="261" y1="53" x2="261" y2="346"/><line x1="47.8" y1="53" x2="47.8" y2="341"/></g>
<g id="xAxis" stroke="rgb(0,0,0)" stroke-width="1"><line x1="42.8" y1="197" x2="474" y2="197"/><line x1="42.8" y1="341" x2="474" y2="341"/></g>
<g id="yMinorTicks" stroke="rgb(0,0,0)" stroke-width="1"><path d="M45.8,185 L47.8,185 M45.8,174 L47.8,174 M45.8,162 L47.8,162 M45.8,151 L47.8,151 M45.8,128 L47.8,128 M45.8,116 L47.8,116 M45.8,105 L47.8,105 M45.8,93.3 L47.8,93.3 M45.8,70.3 L47.8,70.3 M45.8,58.8 L47.8,58.8 M45.8,197 L47.8,197 M45.8,209 L47.8,209 M45.8,220 L47.8,220 M45.8,232 L47.8,232 M45.8,243 L47.8,243 M45.8,255 L47.8,255 M45.8,266 L47.8,266 M45.8,278 L47.8,278 M45.8,289 L47.8,289 M45.8,301 L47.8,301 M45.8,312 L47.8,312 M45.8,312 L47.8,312 M45.8,324 L47.8,324 M45.8,335 L47.8,335 " fill="none"/></g>
<g id="xMinorTicks" stroke="rgb(0,0,0)" stroke-width="1"><path d="M278,341 L278,343 M295,341 L295,343 M312,341 L312,343 M329,341 L329,343 M363,341 L363,343 M380,341 L380,343 M397,341 L397,343 M414,341 L414,343 M448,341 L448,343 M465,341 L465,343 M244,341 L244,343 M227,341 L227,343 M210,341 L210,343 M193,341 L193,343 M159,341 L159,343 M142,341 L142,343 M125,341 L125,343 M107,341 L107,343 M73.4,341 L73.4,343 M56.3,341 L56.3,343 " fill="none"/></g>
<g id="yMajorTicks" stroke="rgb(0,0,0)" stroke-width="2"><path d="M42.8,197 L47.8,197 M42.8,139 L47.8,139 M42.8,81.8 L47.8,81.8 M42.8,197 L47.8,197 M42.8,255 L47.8,255 M42.8,312 L47.8,312 " fill="none"/></g>
<g id="xMajorTicks" stroke="rgb(0,0,0)" stroke-width="2"><path d="M261,341 L261,346 M346,341 L346,346 M431,341 L431,346 M261,341 L261,346 M176,341 L176,346 M90.4,341 L90.4,346 " fill="none"/></g>
<g id="xTicksValues">
<text x="261" y="362" text-anchor="middle" font-size="12" font-family="Lucida Sans Unicode">0</text>
<text x="346" y="362" text-anchor="middle" font-size="12" font-family="Lucida Sans Unicode">2</text>
<text x="431" y="362" text-anchor="middle" font-size="12" font-family="Lucida Sans Unicode">4</text>
<text x="261" y="362" text-anchor="middle" font-size="12" font-family="Lucida Sans Unicode">0</text>
<text x="176" y="362" text-anchor="middle" font-size="12" font-family="Lucida Sans Unicode">-2</text>
<text x="90.4" y="362" text-anchor="middle" font-size="12" font-family="Lucida Sans Unicode">-4</text></g>
<g id="yTicksValues">
<text x="36.8" y="199" text-anchor="end" font-size="12" font-family="Lucida Sans Unicode">0</text>
<text x="36.8" y="142" text-anchor="end" font-size="12" font-family="Lucida Sans Unicode">2</text>
<text x="36.8" y="84.2" text-anchor="end" font-size="12" font-family="Lucida Sans Unicode">4</text>
<text x="36.8" y="199" text-anchor="end" font-size="12" font-family="Lucida Sans Unicode">0</text>
<text x="36.8" y="257" text-anchor="end" font-size="12" font-family="Lucida Sans Unicode">-2</text>
<text x="36.8" y="315" text-anchor="end" font-size="12" font-family="Lucida Sans Unicode">-4</text></g>
<g id="yLabel">
<text x="14.9" y="197" text-anchor="middle" transform = "rotate(-90 14.9 197 )" font-size="14" font-family="Lucida Sans Unicode"></text></g>
<g id="xLabel">
<text x="261" y="377" text-anchor="middle" font-size="14" font-family="Lucida Sans Unicode">time (s)</text></g>
<g id="plotPoints" clip-path="url(#plot_window)"><g stroke="rgb(0,0,0)" fill="rgb(255,255,255)"><circle cx="272" cy="157" r="2"/><circle cx="308" cy="105" r="2"/><circle cx="444" cy="108" r="2"/></g>
</g>
<g id="limitPoints" stroke="rgb(0,0,255)" fill="rgb(255,192,203)"><polygon points=" 42.8,331 52.8,331 47.8,341"/><polygon points=" 42.8,129 52.8,129 47.8,139"/><polygon points=" 42.8,101 52.8,101 47.8,111"/><polygon points=" 213,331 223,331 218,341"/><polygon points=" 256,187 266,187 261,197"/><polygon points=" 256,187 266,187 261,197"/><polygon points=" 299,43 309,43 304,53"/><polygon points=" 384,187 394,187 389,197"/><polygon points=" 384,187 394,187 389,197"/><polygon points=" 469,129 479,129 474,139"/><polygon points=" 469,43 479,43 474,53"/></g>
<g id="title">
<text x="250" y="36" text-anchor="middle" font-size="18" font-family="Lucida Sans Unicode">Default 2D 'at limits' NaN and infinities Demo</text></g>
<g id="plotXValues"><g>
<text x="272" y="147" text-anchor="middle" font-size="12" font-family="Lucida Sans Unicode">0.25<tspan fill="rgb(0,0,0)" font-size="12" font-family="Lucida Sans Unicode"></tspan><tspan fill="rgb(0,0,0)" font-size="12" font-family="Lucida Sans Unicode"></tspan><tspan font-size="12" font-family="Lucida Sans Unicode">1.4</tspan></text></g>
<g>
<text x="308" y="94.8" text-anchor="middle" font-size="12" font-family="Lucida Sans Unicode">1.1<tspan fill="rgb(0,0,0)" font-size="12" font-family="Lucida Sans Unicode"></tspan><tspan fill="rgb(0,0,0)" font-size="12" font-family="Lucida Sans Unicode"></tspan><tspan font-size="12" font-family="Lucida Sans Unicode">3.2</tspan></text></g>
<g>
<text x="444" y="97.7" text-anchor="middle" font-size="12" font-family="Lucida Sans Unicode">4.3<tspan fill="rgb(0,0,0)" font-size="12" font-family="Lucida Sans Unicode"></tspan><tspan fill="rgb(0,0,0)" font-size="12" font-family="Lucida Sans Unicode"></tspan><tspan font-size="12" font-family="Lucida Sans Unicode">3.1</tspan></text></g>
</g>
<g id="plotYValues"></g>
</svg>
