<?xml version="1.0" encoding="UTF-8" standalone="no"?>
<svg width="500" height ="400" version="1.1"
xmlns:svg ="http://www.w3.org/2000/svg"
xmlns:rdf="http://www.w3.org/1999/02/22-rdf-syntax-ns#"
xmlns:cc="http://web.resource.org/cc/"
xmlns:dc="http://purl.org/dc/elements/1.1/"
xmlns ="http://www.w3.org/2000/svg"
>
<!-- SVG plot written using Boost.Plot program (Creator Jacob Voytko) --> 
<!-- Use, modification and distribution of Boost.Plot subject to the --> 
<!-- Boost Software License, Version 1.0.--> 
<!-- (See accompanying file LICENSE_1_0.txt --> 
<!-- or copy at http://www.boost.org/LICENSE_1_0.txt) --> 

<clipPath id="plot_window"><rect x="68.4" y="9" width="405" height="331"/></clipPath>
<g id="imageBackground" stroke="rgb(255,255,0)" fill="rgb(255,255,255)" stroke-width="2"><rect x="0" y="0" width="500" height="400"/></g>
<g id="plotBackground" stroke="rgb(119,136,153)" fill="rgb(255,255,255)" stroke-width="2"><rect x="67.4" y="8" width="407" height="333"/></g>
<g id="yMinorGrid" stroke="rgb(200,220,255)" stroke-width="0.5"></g>
<g id="yMajorGrid" stroke="rgb(200,220,255)" stroke-width="1"></g>
<g id="xMinorGrid" stroke="rgb(200,220,255)" stroke-width="0.5"></g>
<g id="xMajorGrid" stroke="rgb(200,220,255)" stroke-width="1"></g>
<g id="yAxis" stroke="rgb(0,0,0)" stroke-width="1"><line x1="67.4" y1="8" x2="67.4" y2="346"/><line x1="67.4" y1="8" x2="67.4" y2="341"/></g>
<g id="xAxis" stroke="rgb(0,0,0)" stroke-width="1"><line x1="62.4" y1="341" x2="474" y2="341"/><line x1="62.4" y1="341" x2="474" y2="341"/></g>
<g id="yMinorTicks" stroke="rgb(0,0,0)" stroke-width="1"><path d="M65.4,314 L67.4,314 M65.4,288 L67.4,288 M65.4,261 L67.4,261 M65.4,234 L67.4,234 M65.4,181 L67.4,181 M65.4,155 L67.4,155 M65.4,128 L67.4,128 M65.4,101 L67.4,101 M65.4,48 L67.4,48 M65.4,21.3 L67.4,21.3 M65.4,341 L67.4,341 " fill="none"/></g>
<g id="xMinorTicks" stroke="rgb(0,0,0)" stroke-width="1"><path d="M75.5,341 L75.5,343 M83.7,341 L83.7,343 M91.8,341 L91.8,343 M99.9,341 L99.9,343 M116,341 L116,343 M124,341 L124,343 M132,341 L132,343 M141,341 L141,343 M157,341 L157,343 M165,341 L165,343 M173,341 L173,343 M181,341 L181,343 M198,341 L198,343 M206,341 L206,343 M214,341 L214,343 M222,341 L222,343 M238,341 L238,343 M246,341 L246,343 M254,341 L254,343 M263,341 L263,343 M279,341 L279,343 M287,341 L287,343 M295,341 L295,343 M303,341 L303,343 M319,341 L319,343 M328,341 L328,343 M336,341 L336,343 M344,341 L344,343 M360,341 L360,343 M368,341 L368,343 M376,341 L376,343 M385,341 L385,343 M401,341 L401,343 M409,341 L409,343 M417,341 L417,343 M425,341 L425,343 M441,341 L441,343 M450,341 L450,343 M458,341 L458,343 M466,341 L466,343 " fill="none"/></g>
<g id="yMajorTicks" stroke="rgb(0,0,0)" stroke-width="2"><path d="M62.4,341 L67.4,341 M62.4,208 L67.4,208 M62.4,74.6 L67.4,74.6 M62.4,341 L67.4,341 " fill="none"/></g>
<g id="xMajorTicks" stroke="rgb(0,0,0)" stroke-width="2"><path d="M67.4,341 L67.4,346 M108,341 L108,346 M149,341 L149,346 M189,341 L189,346 M230,341 L230,346 M271,341 L271,346 M311,341 L311,346 M352,341 L352,346 M393,341 L393,346 M433,341 L433,346 M474,341 L474,346 M67.4,341 L67.4,346 " fill="none"/></g>
<g id="xTicksValues">
<text x="67.4" y="362" text-anchor="middle" font-size="12" font-family="Verdana">0</text>
<text x="108" y="362" text-anchor="middle" font-size="12" font-family="Verdana">2</text>
<text x="149" y="362" text-anchor="middle" font-size="12" font-family="Verdana">4</text>
<text x="189" y="362" text-anchor="middle" font-size="12" font-family="Verdana">6</text>
<text x="230" y="362" text-anchor="middle" font-size="12" font-family="Verdana">8</text>
<text x="271" y="362" text-anchor="middle" font-size="12" font-family="Verdana">10</text>
<text x="311" y="362" text-anchor="middle" font-size="12" font-family="Verdana">12</text>
<text x="352" y="362" text-anchor="middle" font-size="12" font-family="Verdana">14</text>
<text x="393" y="362" text-anchor="middle" font-size="12" font-family="Verdana">16</text>
<text x="433" y="362" text-anchor="middle" font-size="12" font-family="Verdana">18</text>
<text x="474" y="362" text-anchor="middle" font-size="12" font-family="Verdana">20</text>
<text x="67.4" y="362" text-anchor="middle" font-size="12" font-family="Verdana">0</text></g>
<g id="yTicksValues">
<text x="56.4" y="343" text-anchor="end" font-size="12" font-family="Verdana">0</text>
<text x="56.4" y="210" text-anchor="end" font-size="12" font-family="Verdana">2</text>
<text x="56.4" y="77" text-anchor="end" font-size="12" font-family="Verdana">4</text>
<text x="56.4" y="343" text-anchor="end" font-size="12" font-family="Verdana">0</text></g>
<g id="yLabel">
<text x="42.9" y="175" text-anchor="middle" transform = "rotate(-90 42.9 175 )" font-size="14" font-family="Verdana">Y axis label font default size 14</text></g>
<g id="xLabel">
<text x="271" y="377" text-anchor="middle" font-size="14" font-family="Verdana">X axis label font default size 14</text></g>
<g id="plotPoints" clip-path="url(#plot_window)"><g stroke="rgb(255,0,0)" fill="rgb(255,255,255)"><circle cx="87.7" cy="274" r="5"/><circle cx="108" cy="247" r="5"/><circle cx="128" cy="226" r="5"/><circle cx="149" cy="208" r="5"/><circle cx="169" cy="192" r="5"/><circle cx="189" cy="178" r="5"/><circle cx="210" cy="165" r="5"/><circle cx="230" cy="153" r="5"/><circle cx="250" cy="141" r="5"/><circle cx="271" cy="130" r="5"/><circle cx="291" cy="120" r="5"/><circle cx="311" cy="110" r="5"/><circle cx="332" cy="101" r="5"/><circle cx="352" cy="91.8" r="5"/><circle cx="372" cy="83.1" r="5"/><circle cx="393" cy="74.6" r="5"/><circle cx="413" cy="66.4" r="5"/><circle cx="433" cy="58.4" r="5"/><circle cx="454" cy="50.7" r="5"/></g>
</g>
<g id="title">
<text x="250" y="36" text-anchor="middle" font-size="18" font-family="Verdana"></text></g>
<g id="plotXValues"></g>
<g id="plotYValues"></g>
</svg>
