<?xml version="1.0" encoding="UTF-8" standalone="no"?>
<svg width="500" height ="200" version="1.1"
xmlns:svg ="http://www.w3.org/2000/svg"
xmlns:rdf="http://www.w3.org/1999/02/22-rdf-syntax-ns#"
xmlns:cc="http://web.resource.org/cc/"
xmlns:dc="http://purl.org/dc/elements/1.1/"
xmlns ="http://www.w3.org/2000/svg"
>
<!-- SVG plot written using Boost.Plot program (Creator Jacob Voytko) --> 
<!-- Use, modification and distribution of Boost.Plot subject to the --> 
<!-- Boost Software License, Version 1.0.--> 
<!-- (See accompanying file LICENSE_1_0.txt --> 
<!-- or copy at http://www.boost.org/LICENSE_1_0.txt) --> 

<!-- File demo_color.svg --> 
<g id="imageBackground" stroke="rgb(255,255,0)" fill="rgb(255,255,255)" stroke-width="1"><rect x="0" y="0" width="500" height="200"/></g>
<g id="plotBackground" stroke="rgb(250,250,210)" fill="rgb(255,255,255)" stroke-width="1"><rect x="11" y="11" width="365" height="145"/></g>
<g id="xMinorGrid" stroke="rgb(200,220,255)" stroke-width="0.5"></g>
<g id="xMajorGrid" stroke="rgb(200,220,255)" stroke-width="1"></g>
<g id="xAxis" stroke="rgb(0,0,255)" stroke-width="1"><line x1="11" y1="11" x2="11" y2="156"/><line x1="11" y1="86" x2="376" y2="86"/></g>
<g id="xMinorTicks" stroke="rgb(0,0,0)" stroke-width="1"><path d="M31.8,86 L31.8,88 M52.7,86 L52.7,88 M73.5,86 L73.5,88 M94.3,86 L94.3,88 M136,86 L136,88 M157,86 L157,88 M178,86 L178,88 M199,86 L199,88 M240,86 L240,88 M261,86 L261,88 M282,86 L282,88 M303,86 L303,88 M344,86 L344,88 M365,86 L365,88 " fill="none"/></g>
<g id="xMajorTicks" stroke="rgb(0,0,0)" stroke-width="2"><path d="M11,86 L11,91 M115,86 L115,91 M219,86 L219,91 M324,86 L324,91 M11,86 L11,91 " fill="none"/></g>
<g id="xTicksValues">
<text x="115" y="107" text-anchor="middle" font-size="12" font-family="Verdana">2</text>
<text x="219" y="107" text-anchor="middle" font-size="12" font-family="Verdana">4</text>
<text x="324" y="107" text-anchor="middle" font-size="12" font-family="Verdana">6</text></g>
<g id="xLabel" stroke="rgb(255,0,255)" fill="rgb(255,0,255)">
<text x="193" y="180" text-anchor="middle" font-size="14" font-family="Verdana">axis</text></g>
<g id="plotPoints"><g stroke="rgb(0,0,0)"><line x1="63.1" y1="88.5" x2="63.1" y2="78.5"/><line x1="115" y1="88.5" x2="115" y2="78.5"/><line x1="167" y1="88.5" x2="167" y2="78.5"/></g>
</g>
<g id="legendBackground" stroke="rgb(255,255,0)" fill="rgb(255,255,255)" stroke-width="1"><rect x="388" y="11" width="101" height="42"/><rect x="388" y="11" width="101" height="42"/></g>
<g id="legendPoints"><g stroke="rgb(0,0,0)" stroke-width="2"><line x1="402" y1="44" x2="402" y2="34"/></g>
</g>
<g id="legendText">
<text x="423" y="39" font-size="14" font-family="Verdana">My Data</text></g>
<g id="title">
<text x="250" y="36" text-anchor="middle" font-size="18" font-family="Verdana"></text></g>
</svg>
