<?xml version="1.0" encoding="UTF-8" standalone="no"?>
<svg width="700" height ="500" version="1.1"
xmlns:svg ="http://www.w3.org/2000/svg"
xmlns:rdf="http://www.w3.org/1999/02/22-rdf-syntax-ns#"
xmlns:cc="http://web.resource.org/cc/"
xmlns:dc="http://purl.org/dc/elements/1.1/"
xmlns ="http://www.w3.org/2000/svg"
>
<!-- SVG plot written using Boost.Plot program (Creator Jacob Voytko) --> 
<!-- Use, modification and distribution of Boost.Plot subject to the --> 
<!-- Boost Software License, Version 1.0.--> 
<!-- (See accompanying file LICENSE_1_0.txt --> 
<!-- or copy at http://www.boost.org/LICENSE_1_0.txt) --> 

<clipPath id="plot_window"><rect x="65" y="59" width="464" height="394"/></clipPath>
<g id="imageBackground" stroke="rgb(255,255,0)" fill="rgb(248,248,255)" stroke-width="2"><rect x="0" y="0" width="700" height="500"/></g>
<g id="plotBackground" stroke="rgb(0,128,0)" fill="rgb(255,255,255)" stroke-width="1"><rect x="64" y="58" width="466" height="396"/></g>
<g id="yMinorGrid" stroke="rgb(240,240,255)" stroke-width="1"><path d="M65,72.7 L529,72.7 M65,102 L529,102 M65,131 L529,131 M65,161 L529,161 M65,190 L529,190 M65,190 L529,190 M65,219 L529,219 M65,249 L529,249 M65,278 L529,278 M65,307 L529,307 M65,337 L529,337 M65,366 L529,366 M65,395 L529,395 M65,425 L529,425 M65,454 L529,454 M65,454 L529,454 " fill="none"/></g>
<g id="yMajorGrid" stroke="rgb(200,220,255)" stroke-width="2"><path d="M65,102 L529,102 M65,190 L529,190 M65,278 L529,278 M65,366 L529,366 M65,454 L529,454 " fill="none"/></g>
<g id="xMinorGrid" stroke="rgb(240,240,255)" stroke-width="0.5"><path d="M513,59 L513,453 M444,59 L444,453 M409,59 L409,453 M340,59 L340,453 M306,59 L306,453 M237,59 L237,453 M202,59 L202,453 M133,59 L133,453 M98.5,59 L98.5,453 " fill="none"/></g>
<g id="xMajorGrid" stroke="rgb(200,220,255)" stroke-width="1"><path d="M478,58 L478,454 M375,58 L375,454 M271,58 L271,454 M168,58 L168,454 M64,58 L64,454 " fill="none"/></g>
<g id="yAxis" stroke="rgb(0,0,0)" stroke-width="1"><line x1="530" y1="58" x2="530" y2="454"/></g>
<g id="xAxis" stroke="rgb(0,0,0)" stroke-width="1"><line x1="64" y1="58" x2="530" y2="58"/></g>
<g id="yMinorTicks" stroke="rgb(0,0,0)" stroke-width="1"><path d="M525,72.7 L530,72.7 M525,102 L530,102 M525,131 L530,131 M525,161 L530,161 M525,190 L530,190 M525,190 L530,190 M525,219 L530,219 M525,249 L530,249 M525,278 L530,278 M525,307 L530,307 M525,337 L530,337 M525,366 L530,366 M525,395 L530,395 M525,425 L530,425 M525,454 L530,454 M525,454 L530,454 " fill="none"/></g>
<g id="xMinorTicks" stroke="rgb(0,0,0)" stroke-width="1"><path d="M513,58 L513,63 M444,58 L444,63 M409,58 L409,63 M340,58 L340,63 M306,58 L306,63 M237,58 L237,63 M202,58 L202,63 M133,58 L133,63 M98.5,58 L98.5,63 " fill="none"/></g>
<g id="yMajorTicks" stroke="rgb(0,0,0)" stroke-width="2"><path d="M520,102 L530,102 M520,190 L530,190 M520,278 L530,278 M520,366 L530,366 M520,454 L530,454 " fill="none"/></g>
<g id="xMajorTicks" stroke="rgb(0,0,0)" stroke-width="2"><path d="M478,58 L478,68 M375,58 L375,68 M271,58 L271,68 M168,58 L168,68 M64,58 L64,68 " fill="none"/></g>
<g id="xTicksValues">
<text x="478" y="83.6" text-anchor="middle" font-size="12" font-family="Lucida Sans Unicode">-2.00</text>
<text x="375" y="83.6" text-anchor="middle" font-size="12" font-family="Lucida Sans Unicode">-4.00</text>
<text x="271" y="83.6" text-anchor="middle" font-size="12" font-family="Lucida Sans Unicode">-6.00</text>
<text x="168" y="83.6" text-anchor="middle" font-size="12" font-family="Lucida Sans Unicode">-8.00</text>
<text x="64" y="83.6" text-anchor="middle" font-size="12" font-family="Lucida Sans Unicode">-1.00e1</text></g>
<g id="yTicksValues">
<text x="514" y="104" text-anchor="end" font-size="12" font-family="Lucida Sans Unicode">-2.0</text>
<text x="514" y="192" text-anchor="end" font-size="12" font-family="Lucida Sans Unicode">-4.0</text>
<text x="514" y="280" text-anchor="end" font-size="12" font-family="Lucida Sans Unicode">-6.0</text>
<text x="514" y="368" text-anchor="end" font-size="12" font-family="Lucida Sans Unicode">-8.0</text>
<text x="514" y="456" text-anchor="end" font-size="12" font-family="Lucida Sans Unicode">-10.0</text></g>
<g id="yLabel">
<text x="19" y="256" text-anchor="middle" transform = "rotate(-90 19 256 )" font-size="14" font-family="Lucida Sans Unicode">Y-axis</text></g>
<g id="xLabel">
<text x="297" y="478" text-anchor="middle" font-size="14" font-family="Lucida Sans Unicode">X-axis</text></g>
<g id="plotLines" stroke-width="2"><g clip-path="url(#plot_window)" stroke="rgb(0,0,0)"><path d="M64,-4.3e+003 S105,-3.62e+003 116,-3.46e+003 S157,-2.85e+003 168,-2.71e+003 S209,-2.18e+003 219,-2.05e+003 S261,-1.59e+003 271,-1.48e+003 S313,-1.09e+003 323,-998 S364,-672 375,-602 S416,-347 427,-294 S468,-109 478,-74 S520,40.4 530,58 S572,102 582,102 S623,75.6 634,58 S675,-38.8 685,-74 S727,-241 737,-294 S779,-532 789,-602 S830,-910 841,-998 S882,-1.38e+003 893,-1.48e+003 S934,-1.93e+003 944,-2.05e+003 S986,-2.57e+003 996,-2.71e+003 S1.04e+003,-3.3e+003 1.05e+003,-3.46e+003 S1.1e+003,-4.38e+003 1.1e+003,-4.3e+003 " fill="none"/></g>
</g>
<g id="plotPoints" clip-path="url(#plot_window)"><g stroke="rgb(0,0,0)" fill="rgb(255,255,0)"><rect x="372" y="408" width="5" height="5"/><rect x="424" y="320" width="5" height="5"/><rect x="476" y="232" width="5" height="5"/></g>
</g>
<g id="limitPoints" stroke="rgb(119,136,153)" fill="rgb(250,235,215)"><polygon points=" 59,48 69,48 64,58"/><polygon points=" 111,48 121,48 116,58"/><polygon points=" 163,48 173,48 168,58"/><polygon points=" 214,48 224,48 219,58"/><polygon points=" 266,48 276,48 271,58"/><polygon points=" 318,48 328,48 323,58"/><polygon points=" 370,48 380,48 375,58"/><polygon points=" 422,48 432,48 427,58"/><polygon points=" 473,48 483,48 478,58"/><polygon points=" 525,48 535,48 530,58"/></g>
<g id="legendBackground" stroke="rgb(255,255,0)" fill="rgb(255,255,224)" stroke-width="1"><rect x="544" y="58" width="130" height="144"/><rect x="544" y="58" width="130" height="144"/></g>
<g id="legendPoints"><g stroke="rgb(0,0,0)" fill="rgb(255,0,0)" stroke-width="2"><circle cx="560" cy="122" r="2"/></g>
<g stroke="rgb(0,0,0)" fill="rgb(255,165,0)" stroke-width="2"><circle cx="560" cy="154" r="2"/></g>
<g stroke="rgb(0,0,0)" fill="rgb(255,255,0)" stroke-width="3"><rect x="558" y="184" width="5" height="5"/></g>
</g>
<g id="legendText">
<text x="609" y="90" text-anchor="middle" font-size="16" font-family="Lucida Sans Unicode">Unicode &#x3A9;&#x3A6;</text>
<text x="584" y="122" font-size="16" font-family="Lucida Sans Unicode">Sqrt(x)</text>
<text x="584" y="154" font-size="16" font-family="Lucida Sans Unicode">-2 + x^2</text>
<text x="584" y="186" font-size="16" font-family="Lucida Sans Unicode">-1 + 2x</text></g>
<g id="title" fill="rgb(255,0,0)">
<text x="350" y="40" text-anchor="middle" font-size="20" font-family="Lucida Sans Unicode">Plot of Mathematical Functions XYN</text></g>
<g id="plotXValues"></g>
<g id="plotYValues"></g>
</svg>
