<?xml version="1.0" encoding="UTF-8" standalone="no"?>
<svg width="700" height ="500" version="1.1"
xmlns:svg ="http://www.w3.org/2000/svg"
xmlns:rdf="http://www.w3.org/1999/02/22-rdf-syntax-ns#"
xmlns:cc="http://web.resource.org/cc/"
xmlns:dc="http://purl.org/dc/elements/1.1/"
xmlns ="http://www.w3.org/2000/svg"
>
<!-- SVG plot written using Boost.Plot program (Creator Jacob Voytko) --> 
<!-- Use, modification and distribution of Boost.Plot subject to the --> 
<!-- Boost Software License, Version 1.0.--> 
<!-- (See accompanying file LICENSE_1_0.txt --> 
<!-- or copy at http://www.boost.org/LICENSE_1_0.txt) --> 

<clipPath id="plot_window"><rect x="98.6" y="59" width="431" height="376"/></clipPath>
<g id="imageBackground" stroke="rgb(255,255,0)" fill="rgb(248,248,255)" stroke-width="2"><rect x="0" y="0" width="700" height="500"/></g>
<g id="plotBackground" stroke="rgb(0,128,0)" fill="rgb(255,255,255)" stroke-width="1"><rect x="97.6" y="58" width="433" height="378"/></g>
<g id="yMinorGrid" stroke="rgb(240,240,255)" stroke-width="1"><path d="M98.6,422 L529,422 M98.6,366 L529,366 M98.6,338 L529,338 M98.6,282 L529,282 M98.6,254 L529,254 M98.6,198 L529,198 M98.6,170 L529,170 M98.6,114 L529,114 M98.6,86 L529,86 " fill="none"/></g>
<g id="yMajorGrid" stroke="rgb(200,220,255)" stroke-width="2"><path d="M98.6,394 L529,394 M98.6,310 L529,310 M98.6,226 L529,226 M98.6,142 L529,142 M98.6,58 L529,58 " fill="none"/></g>
<g id="xMinorGrid" stroke="rgb(240,240,255)" stroke-width="0.5"><path d="M114,59 L114,435 M178,59 L178,435 M210,59 L210,435 M274,59 L274,435 M306,59 L306,435 M370,59 L370,435 M402,59 L402,435 M466,59 L466,435 M498,59 L498,435 " fill="none"/></g>
<g id="xMajorGrid" stroke="rgb(200,220,255)" stroke-width="1"><path d="M146,58 L146,436 M242,58 L242,436 M338,58 L338,436 M434,58 L434,436 M530,58 L530,436 " fill="none"/></g>
<g id="yAxis" stroke="rgb(0,0,0)" stroke-width="1"><line x1="97.6" y1="58" x2="97.6" y2="436"/></g>
<g id="xAxis" stroke="rgb(0,0,0)" stroke-width="1"><line x1="97.6" y1="436" x2="530" y2="436"/></g>
<g id="yMinorTicks" stroke="rgb(0,0,0)" stroke-width="1"><path d="M92.6,422 L97.6,422 M92.6,366 L97.6,366 M92.6,338 L97.6,338 M92.6,282 L97.6,282 M92.6,254 L97.6,254 M92.6,198 L97.6,198 M92.6,170 L97.6,170 M92.6,114 L97.6,114 M92.6,86 L97.6,86 " fill="none"/></g>
<g id="xMinorTicks" stroke="rgb(0,0,0)" stroke-width="1"><path d="M114,436 L114,441 M178,436 L178,441 M210,436 L210,441 M274,436 L274,441 M306,436 L306,441 M370,436 L370,441 M402,436 L402,441 M466,436 L466,441 M498,436 L498,441 " fill="none"/></g>
<g id="yMajorTicks" stroke="rgb(0,0,0)" stroke-width="2"><path d="M87.6,394 L97.6,394 M87.6,310 L97.6,310 M87.6,226 L97.6,226 M87.6,142 L97.6,142 M87.6,58 L97.6,58 " fill="none"/></g>
<g id="xMajorTicks" stroke="rgb(0,0,0)" stroke-width="2"><path d="M146,436 L146,446 M242,436 L242,446 M338,436 L338,446 M434,436 L434,446 M530,436 L530,446 " fill="none"/></g>
<g id="xTicksValues">
<text x="146" y="462" text-anchor="middle" font-size="12" font-family="Lucida Sans Unicode">2.00</text>
<text x="242" y="462" text-anchor="middle" font-size="12" font-family="Lucida Sans Unicode">4.00</text>
<text x="338" y="462" text-anchor="middle" font-size="12" font-family="Lucida Sans Unicode">6.00</text>
<text x="434" y="462" text-anchor="middle" font-size="12" font-family="Lucida Sans Unicode">8.00</text>
<text x="530" y="462" text-anchor="middle" font-size="12" font-family="Lucida Sans Unicode">1.00e1</text></g>
<g id="yTicksValues">
<text x="81.6" y="396" text-anchor="end" font-size="12" font-family="Lucida Sans Unicode">2.0</text>
<text x="81.6" y="312" text-anchor="end" font-size="12" font-family="Lucida Sans Unicode">4.0</text>
<text x="81.6" y="228" text-anchor="end" font-size="12" font-family="Lucida Sans Unicode">6.0</text>
<text x="81.6" y="144" text-anchor="end" font-size="12" font-family="Lucida Sans Unicode">8.0</text>
<text x="81.6" y="60.4" text-anchor="end" font-size="12" font-family="Lucida Sans Unicode">10.0</text></g>
<g id="yLabel">
<text x="47.4" y="247" text-anchor="middle" transform = "rotate(-90 47.4 247 )" font-size="14" font-family="Lucida Sans Unicode">Y-axis</text></g>
<g id="xLabel">
<text x="314" y="477" text-anchor="middle" font-size="14" font-family="Lucida Sans Unicode">X-axis</text></g>
<g id="plotLines" stroke-width="2"><g clip-path="url(#plot_window)" stroke="rgb(0,0,0)"><path d="M-431,-3.64e+003 S-393,-2.99e+003 -383,-2.84e+003 S-345,-2.26e+003 -335,-2.13e+003 S-296,-1.61e+003 -287,-1.5e+003 S-248,-1.05e+003 -239,-950 S-200,-572 -191,-488 S-152,-177 -143,-110 S-104,134 -94.6,184 S-56.2,360 -46.6,394 S-8.12,503 1.49,520 S39.9,562 49.5,562 S88,537 97.6,520 S136,428 146,394 S184,234 194,184 S232,-42.8 242,-110 S280,-404 290,-488 S328,-849 338,-950 S376,-1.38e+003 386,-1.5e+003 S424,-1.99e+003 434,-2.13e+003 S472,-2.69e+003 482,-2.84e+003 S530,-3.72e+003 530,-3.64e+003 " fill="none"/></g>
</g>
<g id="plotPoints" clip-path="url(#plot_window)"><g stroke="rgb(0,0,0)" fill="rgb(255,0,0)"><circle cx="146" cy="419" r="2"/><circle cx="194" cy="405" r="2"/><circle cx="242" cy="394" r="2"/><circle cx="290" cy="384" r="2"/><circle cx="338" cy="375" r="2"/><circle cx="386" cy="367" r="2"/><circle cx="434" cy="359" r="2"/><circle cx="482" cy="352" r="2"/></g>
<g stroke="rgb(0,0,0)" fill="rgb(255,165,0)"><circle cx="146" cy="394" r="2"/><circle cx="194" cy="184" r="2"/></g>
<g stroke="rgb(0,0,0)" fill="rgb(255,255,0)"><rect x="143" y="350" width="5" height="5"/><rect x="191" y="266" width="5" height="5"/><rect x="239" y="182" width="5" height="5"/><rect x="287" y="97.5" width="5" height="5"/></g>
</g>
<g id="limitPoints" stroke="rgb(119,136,153)" fill="rgb(250,235,215)"><polygon points=" 92.6,426 103,426 97.6,436"/><polygon points=" 92.6,426 103,426 97.6,436"/><polygon points=" 92.6,426 103,426 97.6,436"/><polygon points=" 92.6,426 103,426 97.6,436"/><polygon points=" 92.6,426 103,426 97.6,436"/><polygon points=" 92.6,426 103,426 97.6,436"/><polygon points=" 92.6,426 103,426 97.6,436"/><polygon points=" 92.6,426 103,426 97.6,436"/><polygon points=" 92.6,426 103,426 97.6,436"/><polygon points=" 92.6,426 103,426 97.6,436"/></g>
<g id="legendBackground" stroke="rgb(255,255,0)" fill="rgb(255,255,224)" stroke-width="1"><rect x="544" y="58" width="130" height="144"/><rect x="544" y="58" width="130" height="144"/></g>
<g id="legendPoints"><g stroke="rgb(0,0,0)" fill="rgb(255,0,0)" stroke-width="2"><circle cx="560" cy="122" r="2"/></g>
<g stroke="rgb(0,0,0)" fill="rgb(255,165,0)" stroke-width="2"><circle cx="560" cy="154" r="2"/></g>
<g stroke="rgb(0,0,0)" fill="rgb(255,255,0)" stroke-width="3"><rect x="558" y="184" width="5" height="5"/></g>
</g>
<g id="legendText">
<text x="609" y="90" text-anchor="middle" font-size="16" font-family="Lucida Sans Unicode">Unicode &#x3A9;&#x3A6;</text>
<text x="584" y="122" font-size="16" font-family="Lucida Sans Unicode">Sqrt(x)</text>
<text x="584" y="154" font-size="16" font-family="Lucida Sans Unicode">-2 + x^2</text>
<text x="584" y="186" font-size="16" font-family="Lucida Sans Unicode">-1 + 2x</text></g>
<g id="title" fill="rgb(255,0,0)">
<text x="350" y="40" text-anchor="middle" font-size="20" font-family="Lucida Sans Unicode">Plot of Mathematical Functions XYP</text></g>
<g id="plotXValues"></g>
<g id="plotYValues"></g>
</svg>
