<?xml version="1.0" encoding="UTF-8" standalone="no"?>
<svg width="500" height ="400" version="1.1"
xmlns:svg ="http://www.w3.org/2000/svg"
xmlns:rdf="http://www.w3.org/1999/02/22-rdf-syntax-ns#"
xmlns:cc="http://web.resource.org/cc/"
xmlns:dc="http://purl.org/dc/elements/1.1/"
xmlns ="http://www.w3.org/2000/svg"
>
<!-- SVG plot written using Boost.Plot program (Creator Jacob Voytko) --> 
<!-- Use, modification and distribution of Boost.Plot subject to the --> 
<!-- Boost Software License, Version 1.0.--> 
<!-- (See accompanying file LICENSE_1_0.txt --> 
<!-- or copy at http://www.boost.org/LICENSE_1_0.txt) --> 

<clipPath id="plot_window"><rect x="57.2" y="54" width="279" height="314"/></clipPath>
<g id="imageBackground" stroke="rgb(0,0,0)" fill="rgb(255,255,255)" stroke-width="2"><rect x="0" y="0" width="500" height="400"/></g>
<g id="plotBackground" stroke="rgb(119,136,153)" fill="rgb(255,255,255)" stroke-width="2"><rect x="56.2" y="53" width="281" height="316"/></g>
<g id="yMinorGrid" stroke="rgb(200,220,255)" stroke-width="0.5"></g>
<g id="yMajorGrid" stroke="rgb(200,220,255)" stroke-width="1"></g>
<g id="xMinorGrid" stroke="rgb(200,220,255)" stroke-width="0.5"></g>
<g id="xMajorGrid" stroke="rgb(200,220,255)" stroke-width="1"></g>
<g id="yAxis" stroke="rgb(0,0,0)" stroke-width="1"><line x1="79.6" y1="53" x2="79.6" y2="374"/><line x1="56.2" y1="53" x2="56.2" y2="369"/></g>
<g id="xAxis" stroke="rgb(0,0,0)" stroke-width="1"><line x1="51.2" y1="211" x2="337" y2="211"/><line x1="51.2" y1="369" x2="337" y2="369"/></g>
<g id="yMinorTicks" stroke="rgb(0,0,0)" stroke-width="1"><path d="M54.2,205 L56.2,205 M54.2,198 L56.2,198 M54.2,192 L56.2,192 M54.2,186 L56.2,186 M54.2,173 L56.2,173 M54.2,167 L56.2,167 M54.2,160 L56.2,160 M54.2,154 L56.2,154 M54.2,141 L56.2,141 M54.2,135 L56.2,135 M54.2,129 L56.2,129 M54.2,123 L56.2,123 M54.2,110 L56.2,110 M54.2,104 L56.2,104 M54.2,97.2 L56.2,97.2 M54.2,90.9 L56.2,90.9 M54.2,78.3 L56.2,78.3 M54.2,72 L56.2,72 M54.2,65.6 L56.2,65.6 M54.2,59.3 L56.2,59.3 M54.2,211 L56.2,211 M54.2,217 L56.2,217 M54.2,224 L56.2,224 M54.2,230 L56.2,230 M54.2,236 L56.2,236 M54.2,243 L56.2,243 M54.2,249 L56.2,249 M54.2,255 L56.2,255 M54.2,262 L56.2,262 M54.2,268 L56.2,268 M54.2,274 L56.2,274 M54.2,274 L56.2,274 M54.2,281 L56.2,281 M54.2,287 L56.2,287 M54.2,293 L56.2,293 M54.2,299 L56.2,299 M54.2,306 L56.2,306 M54.2,312 L56.2,312 M54.2,318 L56.2,318 M54.2,325 L56.2,325 M54.2,331 L56.2,331 M54.2,337 L56.2,337 M54.2,344 L56.2,344 M54.2,350 L56.2,350 M54.2,356 L56.2,356 M54.2,363 L56.2,363 M54.2,369 L56.2,369 " fill="none"/></g>
<g id="xMinorTicks" stroke="rgb(0,0,0)" stroke-width="1"><path d="M89,369 L89,371 M98.4,369 L98.4,371 M108,369 L108,371 M117,369 L117,371 M136,369 L136,371 M145,369 L145,371 M155,369 L155,371 M164,369 L164,371 M183,369 L183,371 M192,369 L192,371 M201,369 L201,371 M211,369 L211,371 M230,369 L230,371 M239,369 L239,371 M248,369 L248,371 M258,369 L258,371 M276,369 L276,371 M286,369 L286,371 M295,369 L295,371 M304,369 L304,371 M323,369 L323,371 M333,369 L333,371 M70.3,369 L70.3,371 M60.9,369 L60.9,371 " fill="none"/></g>
<g id="yMajorTicks" stroke="rgb(0,0,0)" stroke-width="2"><path d="M51.2,211 L56.2,211 M51.2,179 L56.2,179 M51.2,148 L56.2,148 M51.2,116 L56.2,116 M51.2,84.6 L56.2,84.6 M51.2,53 L56.2,53 M51.2,211 L56.2,211 M51.2,243 L56.2,243 M51.2,274 L56.2,274 M51.2,306 L56.2,306 M51.2,337 L56.2,337 M51.2,369 L56.2,369 " fill="none"/></g>
<g id="xMajorTicks" stroke="rgb(0,0,0)" stroke-width="2"><path d="M79.6,369 L79.6,374 M126,369 L126,374 M173,369 L173,374 M220,369 L220,374 M267,369 L267,374 M314,369 L314,374 M79.6,369 L79.6,374 " fill="none"/></g>
<g id="xTicksValues">
<text x="79.6" y="390" text-anchor="middle" font-size="12" font-family="Lucida Sans Unicode">0</text>
<text x="126" y="390" text-anchor="middle" font-size="12" font-family="Lucida Sans Unicode">2</text>
<text x="173" y="390" text-anchor="middle" font-size="12" font-family="Lucida Sans Unicode">4</text>
<text x="220" y="390" text-anchor="middle" font-size="12" font-family="Lucida Sans Unicode">6</text>
<text x="267" y="390" text-anchor="middle" font-size="12" font-family="Lucida Sans Unicode">8</text>
<text x="314" y="390" text-anchor="middle" font-size="12" font-family="Lucida Sans Unicode">10</text>
<text x="79.6" y="390" text-anchor="middle" font-size="12" font-family="Lucida Sans Unicode">0</text></g>
<g id="yTicksValues">
<text x="45.2" y="213" text-anchor="end" font-size="12" font-family="Lucida Sans Unicode">0</text>
<text x="45.2" y="182" text-anchor="end" font-size="12" font-family="Lucida Sans Unicode">2</text>
<text x="45.2" y="150" text-anchor="end" font-size="12" font-family="Lucida Sans Unicode">4</text>
<text x="45.2" y="119" text-anchor="end" font-size="12" font-family="Lucida Sans Unicode">6</text>
<text x="45.2" y="87" text-anchor="end" font-size="12" font-family="Lucida Sans Unicode">8</text>
<text x="45.2" y="55.4" text-anchor="end" font-size="12" font-family="Lucida Sans Unicode">10</text>
<text x="45.2" y="213" text-anchor="end" font-size="12" font-family="Lucida Sans Unicode">0</text>
<text x="45.2" y="245" text-anchor="end" font-size="12" font-family="Lucida Sans Unicode">-2</text>
<text x="45.2" y="277" text-anchor="end" font-size="12" font-family="Lucida Sans Unicode">-4</text>
<text x="45.2" y="308" text-anchor="end" font-size="12" font-family="Lucida Sans Unicode">-6</text>
<text x="45.2" y="340" text-anchor="end" font-size="12" font-family="Lucida Sans Unicode">-8</text>
<text x="45.2" y="371" text-anchor="end" font-size="12" font-family="Lucida Sans Unicode">-10</text></g>
<g id="yLabel">
<text x="14.9" y="211" text-anchor="middle" transform = "rotate(-90 14.9 211 )" font-size="14" font-family="Lucida Sans Unicode"></text></g>
<g id="xLabel">
<text x="197" y="405" text-anchor="middle" font-size="14" font-family="Lucida Sans Unicode"></text></g>
<g id="plotPoints" clip-path="url(#plot_window)"><g stroke="rgb(255,0,0)"><path d="M103,160 L103,211 M126,126 L126,211 M208,126 L208,211 M251,67.2 L251,211 M267,95.7 L267,211 M297,54.6 L297,211 " stroke-width="5" fill="none"/></g>
</g>
<g id="legendBackground" stroke="rgb(255,255,0)" fill="rgb(255,255,255)" stroke-width="1"><rect x="351" y="53" width="123" height="42"/><rect x="351" y="53" width="123" height="42"/></g>
<g id="legendPoints"><g stroke="rgb(0,0,0)" fill="rgb(0,0,255)" stroke-width="2"><line x1="365" y1="81" x2="379" y2="81"/></g>
</g>
<g id="legendText">
<text x="386" y="81" font-size="14" font-family="Lucida Sans Unicode">Series 1</text></g>
<g id="title">
<text x="250" y="36" text-anchor="middle" font-size="18" font-family="Lucida Sans Unicode">X Times</text></g>
<g id="plotXValues"></g>
<g id="plotYValues"></g>
</svg>
