<?xml version="1.0" encoding="UTF-8" standalone="no"?>
<svg width="700" height ="500" version="1.1"
xmlns:svg ="http://www.w3.org/2000/svg"
xmlns:rdf="http://www.w3.org/1999/02/22-rdf-syntax-ns#"
xmlns:cc="http://web.resource.org/cc/"
xmlns:dc="http://purl.org/dc/elements/1.1/"
xmlns ="http://www.w3.org/2000/svg"
>
<!-- SVG plot written using Boost.Plot program (Creator Jacob Voytko) --> 
<!-- Use, modification and distribution of Boost.Plot subject to the --> 
<!-- Boost Software License, Version 1.0.--> 
<!-- (See accompanying file LICENSE_1_0.txt --> 
<!-- or copy at http://www.boost.org/LICENSE_1_0.txt) --> 

<clipPath id="plot_window"><rect x="107" y="59" width="422" height="394"/></clipPath>
<g id="imageBackground" stroke="rgb(255,255,0)" fill="rgb(248,248,255)" stroke-width="2"><rect x="0" y="0" width="700" height="500"/></g>
<g id="plotBackground" stroke="rgb(0,128,0)" fill="rgb(255,255,255)" stroke-width="1"><rect x="106" y="58" width="424" height="396"/></g>
<g id="yMinorGrid" stroke="rgb(240,240,255)" stroke-width="1"><path d="M107,243 L529,243 M107,230 L529,230 M107,203 L529,203 M107,190 L529,190 M107,164 L529,164 M107,150 L529,150 M107,124 L529,124 M107,111 L529,111 M107,84.4 L529,84.4 M107,71.2 L529,71.2 M107,256 L529,256 M107,269 L529,269 M107,282 L529,282 M107,296 L529,296 M107,309 L529,309 M107,322 L529,322 M107,335 L529,335 M107,335 L529,335 M107,348 L529,348 M107,362 L529,362 M107,375 L529,375 M107,388 L529,388 M107,401 L529,401 M107,414 L529,414 M107,428 L529,428 M107,441 L529,441 M107,454 L529,454 M107,454 L529,454 " fill="none"/></g>
<g id="yMajorGrid" stroke="rgb(200,220,255)" stroke-width="2"><path d="M107,256 L529,256 M107,216 L529,216 M107,177 L529,177 M107,137 L529,137 M107,97.6 L529,97.6 M107,58 L529,58 M107,256 L529,256 M107,296 L529,296 M107,335 L529,335 M107,375 L529,375 M107,414 L529,414 M107,454 L529,454 " fill="none"/></g>
<g id="xMinorGrid" stroke="rgb(240,240,255)" stroke-width="0.5"><path d="M122,59 L122,453 M185,59 L185,453 M216,59 L216,453 M279,59 L279,453 M310,59 L310,453 M373,59 L373,453 M404,59 L404,453 M467,59 L467,453 M499,59 L499,453 " fill="none"/></g>
<g id="xMajorGrid" stroke="rgb(200,220,255)" stroke-width="1"><path d="M153,58 L153,454 M247,58 L247,454 M342,58 L342,454 M436,58 L436,454 M530,58 L530,454 " fill="none"/></g>
<g id="yAxis" stroke="rgb(0,0,0)" stroke-width="1"><line x1="106" y1="58" x2="106" y2="454"/></g>
<g id="xAxis" stroke="rgb(0,0,0)" stroke-width="1"><line x1="96" y1="256" x2="530" y2="256"/></g>
<g id="yMinorTicks" stroke="rgb(0,0,0)" stroke-width="1"><path d="M101,243 L106,243 M101,230 L106,230 M101,203 L106,203 M101,190 L106,190 M101,164 L106,164 M101,150 L106,150 M101,124 L106,124 M101,111 L106,111 M101,84.4 L106,84.4 M101,71.2 L106,71.2 M101,256 L106,256 M101,269 L106,269 M101,282 L106,282 M101,296 L106,296 M101,309 L106,309 M101,322 L106,322 M101,335 L106,335 M101,335 L106,335 M101,348 L106,348 M101,362 L106,362 M101,375 L106,375 M101,388 L106,388 M101,401 L106,401 M101,414 L106,414 M101,428 L106,428 M101,441 L106,441 M101,454 L106,454 M101,454 L106,454 " fill="none"/></g>
<g id="xMinorTicks" stroke="rgb(0,0,0)" stroke-width="1"><path d="M122,256 L122,261 M185,256 L185,261 M216,256 L216,261 M279,256 L279,261 M310,256 L310,261 M373,256 L373,261 M404,256 L404,261 M467,256 L467,261 M499,256 L499,261 " fill="none"/></g>
<g id="yMajorTicks" stroke="rgb(0,0,0)" stroke-width="2"><path d="M96,256 L106,256 M96,216 L106,216 M96,177 L106,177 M96,137 L106,137 M96,97.6 L106,97.6 M96,58 L106,58 M96,256 L106,256 M96,296 L106,296 M96,335 L106,335 M96,375 L106,375 M96,414 L106,414 M96,454 L106,454 " fill="none"/></g>
<g id="xMajorTicks" stroke="rgb(0,0,0)" stroke-width="2"><path d="M153,256 L153,266 M247,256 L247,266 M342,256 L342,266 M436,256 L436,266 M530,256 L530,266 " fill="none"/></g>
<g id="xTicksValues">
<text x="153" y="282" text-anchor="middle" font-size="12" font-family="Lucida Sans Unicode">2.00</text>
<text x="247" y="282" text-anchor="middle" font-size="12" font-family="Lucida Sans Unicode">4.00</text>
<text x="342" y="282" text-anchor="middle" font-size="12" font-family="Lucida Sans Unicode">6.00</text>
<text x="436" y="282" text-anchor="middle" font-size="12" font-family="Lucida Sans Unicode">8.00</text>
<text x="530" y="282" text-anchor="middle" font-size="12" font-family="Lucida Sans Unicode">1.00e1</text></g>
<g id="yTicksValues">
<text x="90" y="258" text-anchor="end" font-size="12" font-family="Lucida Sans Unicode">0.0</text>
<text x="90" y="219" text-anchor="end" font-size="12" font-family="Lucida Sans Unicode">2.0</text>
<text x="90" y="179" text-anchor="end" font-size="12" font-family="Lucida Sans Unicode">4.0</text>
<text x="90" y="140" text-anchor="end" font-size="12" font-family="Lucida Sans Unicode">6.0</text>
<text x="90" y="100" text-anchor="end" font-size="12" font-family="Lucida Sans Unicode">8.0</text>
<text x="90" y="60.4" text-anchor="end" font-size="12" font-family="Lucida Sans Unicode">10.0</text>
<text x="90" y="258" text-anchor="end" font-size="12" font-family="Lucida Sans Unicode">0.0</text>
<text x="90" y="298" text-anchor="end" font-size="12" font-family="Lucida Sans Unicode">-2.0</text>
<text x="90" y="338" text-anchor="end" font-size="12" font-family="Lucida Sans Unicode">-4.0</text>
<text x="90" y="377" text-anchor="end" font-size="12" font-family="Lucida Sans Unicode">-6.0</text>
<text x="90" y="417" text-anchor="end" font-size="12" font-family="Lucida Sans Unicode">-8.0</text>
<text x="90" y="456" text-anchor="end" font-size="12" font-family="Lucida Sans Unicode">-10.0</text></g>
<g id="yLabel">
<text x="47.4" y="256" text-anchor="middle" transform = "rotate(-90 47.4 256 )" font-size="14" font-family="Lucida Sans Unicode">Y-axis</text></g>
<g id="xLabel">
<text x="318" y="478" text-anchor="middle" font-size="14" font-family="Lucida Sans Unicode">X-axis</text></g>
<g id="plotLines" stroke-width="2"><g clip-path="url(#plot_window)" stroke="rgb(0,0,0)"><path d="M-412,-1.68e+003 S-375,-1.38e+003 -365,-1.31e+003 S-328,-1.03e+003 -318,-972 S-280,-730 -271,-675 S-233,-465 -224,-417 S-186,-239 -177,-199 S-139,-52.9 -130,-21.2 S-91.9,93.6 -82.5,117 S-44.8,201 -35.4,216 S2.33,268 11.8,276 S49.5,296 58.9,296 S96.6,284 106,276 S144,232 153,216 S191,141 200,117 S238,10.5 247,-21.2 S285,-160 294,-199 S332,-370 342,-417 S379,-619 389,-675 S426,-908 436,-972 S474,-1.24e+003 483,-1.31e+003 S530,-1.72e+003 530,-1.68e+003 " fill="none"/></g>
</g>
<g id="plotPoints" clip-path="url(#plot_window)"><g stroke="rgb(0,0,0)" fill="rgb(255,0,0)"><circle cx="153" cy="228" r="2"/><circle cx="200" cy="222" r="2"/><circle cx="247" cy="216" r="2"/><circle cx="294" cy="212" r="2"/><circle cx="342" cy="208" r="2"/><circle cx="389" cy="204" r="2"/><circle cx="436" cy="200" r="2"/><circle cx="483" cy="197" r="2"/></g>
<g stroke="rgb(0,0,0)" fill="rgb(255,165,0)"><circle cx="153" cy="216" r="2"/><circle cx="200" cy="117" r="2"/></g>
<g stroke="rgb(0,0,0)" fill="rgb(255,255,0)"><rect x="151" y="194" width="5" height="5"/><rect x="198" y="155" width="5" height="5"/><rect x="245" y="115" width="5" height="5"/><rect x="292" y="75.3" width="5" height="5"/></g>
</g>
<g id="limitPoints" stroke="rgb(119,136,153)" fill="rgb(250,235,215)"><polygon points=" 101,246 111,246 106,256"/><polygon points=" 101,246 111,246 106,256"/><polygon points=" 101,246 111,246 106,256"/><polygon points=" 101,246 111,246 106,256"/><polygon points=" 101,246 111,246 106,256"/><polygon points=" 101,246 111,246 106,256"/><polygon points=" 101,246 111,246 106,256"/><polygon points=" 101,246 111,246 106,256"/><polygon points=" 101,246 111,246 106,256"/><polygon points=" 101,246 111,246 106,256"/></g>
<g id="legendBackground" stroke="rgb(255,255,0)" fill="rgb(255,255,224)" stroke-width="1"><rect x="544" y="58" width="130" height="144"/><rect x="544" y="58" width="130" height="144"/></g>
<g id="legendPoints"><g stroke="rgb(0,0,0)" fill="rgb(255,0,0)" stroke-width="2"><circle cx="560" cy="122" r="2"/></g>
<g stroke="rgb(0,0,0)" fill="rgb(255,165,0)" stroke-width="2"><circle cx="560" cy="154" r="2"/></g>
<g stroke="rgb(0,0,0)" fill="rgb(255,255,0)" stroke-width="3"><rect x="558" y="184" width="5" height="5"/></g>
</g>
<g id="legendText">
<text x="609" y="90" text-anchor="middle" font-size="16" font-family="Lucida Sans Unicode">Unicode &#x3A9;&#x3A6;</text>
<text x="584" y="122" font-size="16" font-family="Lucida Sans Unicode">Sqrt(x)</text>
<text x="584" y="154" font-size="16" font-family="Lucida Sans Unicode">-2 + x^2</text>
<text x="584" y="186" font-size="16" font-family="Lucida Sans Unicode">-1 + 2x</text></g>
<g id="title" fill="rgb(255,0,0)">
<text x="350" y="40" text-anchor="middle" font-size="20" font-family="Lucida Sans Unicode">Plot of Mathematical Functions XP</text></g>
<g id="plotXValues"></g>
<g id="plotYValues"></g>
</svg>
