<?xml version="1.0" encoding="UTF-8" standalone="no"?>
<svg width="500" height ="400" version="1.1"
xmlns:svg ="http://www.w3.org/2000/svg"
xmlns:rdf="http://www.w3.org/1999/02/22-rdf-syntax-ns#"
xmlns:cc="http://web.resource.org/cc/"
xmlns:dc="http://purl.org/dc/elements/1.1/"
xmlns ="http://www.w3.org/2000/svg"
>
<!-- SVG plot written using Boost.Plot program (Creator Jacob Voytko) --> 
<!-- Use, modification and distribution of Boost.Plot subject to the --> 
<!-- Boost Software License, Version 1.0.--> 
<!-- (See accompanying file LICENSE_1_0.txt --> 
<!-- or copy at http://www.boost.org/LICENSE_1_0.txt) --> 

<clipPath id="plot_window"><rect x="57.2" y="54" width="279" height="314"/></clipPath>
<clipPath id="plot_window"><rect x="57.2" y="54" width="279" height="314"/></clipPath>
<g id="imageBackground" stroke="rgb(0,0,255)" fill="rgb(255,255,255)" stroke-width="2"><rect x="0" y="0" width="500" height="400"/></g>
<g id="plotBackground" stroke="rgb(119,136,153)" fill="rgb(255,255,255)" stroke-width="2"><rect x="56.2" y="53" width="281" height="316"/></g>
<g id="yMinorGrid" stroke="rgb(200,220,255)" stroke-width="0.5"></g>
<g id="yMajorGrid" stroke="rgb(200,220,255)" stroke-width="1"></g>
<g id="xMinorGrid" stroke="rgb(200,220,255)" stroke-width="0.5"></g>
<g id="xMajorGrid" stroke="rgb(200,220,255)" stroke-width="1"></g>
<g id="yAxis" stroke="rgb(0,0,0)" stroke-width="1"><line x1="197" y1="53" x2="197" y2="374"/><line x1="56.2" y1="53" x2="56.2" y2="369"/></g>
<g id="xAxis" stroke="rgb(0,0,0)" stroke-width="1"><line x1="51.2" y1="211" x2="337" y2="211"/><line x1="51.2" y1="369" x2="337" y2="369"/></g>
<g id="yMinorTicks" stroke="rgb(0,0,0)" stroke-width="1"><path d="M54.2,205 L56.2,205 M54.2,198 L56.2,198 M54.2,192 L56.2,192 M54.2,186 L56.2,186 M54.2,173 L56.2,173 M54.2,167 L56.2,167 M54.2,160 L56.2,160 M54.2,154 L56.2,154 M54.2,141 L56.2,141 M54.2,135 L56.2,135 M54.2,129 L56.2,129 M54.2,123 L56.2,123 M54.2,110 L56.2,110 M54.2,104 L56.2,104 M54.2,97.2 L56.2,97.2 M54.2,90.9 L56.2,90.9 M54.2,78.3 L56.2,78.3 M54.2,72 L56.2,72 M54.2,65.6 L56.2,65.6 M54.2,59.3 L56.2,59.3 M54.2,211 L56.2,211 M54.2,217 L56.2,217 M54.2,224 L56.2,224 M54.2,230 L56.2,230 M54.2,236 L56.2,236 M54.2,243 L56.2,243 M54.2,249 L56.2,249 M54.2,255 L56.2,255 M54.2,262 L56.2,262 M54.2,268 L56.2,268 M54.2,274 L56.2,274 M54.2,274 L56.2,274 M54.2,281 L56.2,281 M54.2,287 L56.2,287 M54.2,293 L56.2,293 M54.2,299 L56.2,299 M54.2,306 L56.2,306 M54.2,312 L56.2,312 M54.2,318 L56.2,318 M54.2,325 L56.2,325 M54.2,331 L56.2,331 M54.2,337 L56.2,337 M54.2,344 L56.2,344 M54.2,350 L56.2,350 M54.2,356 L56.2,356 M54.2,363 L56.2,363 M54.2,369 L56.2,369 " fill="none"/></g>
<g id="xMinorTicks" stroke="rgb(0,0,0)" stroke-width="1"><path d="M202,369 L202,371 M208,369 L208,371 M214,369 L214,371 M219,369 L219,371 M230,369 L230,371 M236,369 L236,371 M242,369 L242,371 M247,369 L247,371 M259,369 L259,371 M264,369 L264,371 M270,369 L270,371 M275,369 L275,371 M287,369 L287,371 M292,369 L292,371 M298,369 L298,371 M304,369 L304,371 M315,369 L315,371 M320,369 L320,371 M326,369 L326,371 M332,369 L332,371 M191,369 L191,371 M185,369 L185,371 M180,369 L180,371 M174,369 L174,371 M163,369 L163,371 M157,369 L157,371 M152,369 L152,371 M146,369 L146,371 M135,369 L135,371 M129,369 L129,371 M124,369 L124,371 M118,369 L118,371 M107,369 L107,371 M101,369 L101,371 M95.6,369 L95.6,371 M89.9,369 L89.9,371 M78.7,369 L78.7,371 M73.1,369 L73.1,371 M67.4,369 L67.4,371 M61.8,369 L61.8,371 " fill="none"/></g>
<g id="yMajorTicks" stroke="rgb(0,0,0)" stroke-width="2"><path d="M51.2,211 L56.2,211 M51.2,179 L56.2,179 M51.2,148 L56.2,148 M51.2,116 L56.2,116 M51.2,84.6 L56.2,84.6 M51.2,53 L56.2,53 M51.2,211 L56.2,211 M51.2,243 L56.2,243 M51.2,274 L56.2,274 M51.2,306 L56.2,306 M51.2,337 L56.2,337 M51.2,369 L56.2,369 " fill="none"/></g>
<g id="xMajorTicks" stroke="rgb(0,0,0)" stroke-width="2"><path d="M197,369 L197,374 M225,369 L225,374 M253,369 L253,374 M281,369 L281,374 M309,369 L309,374 M337,369 L337,374 M197,369 L197,374 M169,369 L169,374 M141,369 L141,374 M112,369 L112,374 M84.3,369 L84.3,374 M56.2,369 L56.2,374 " fill="none"/></g>
<g id="xTicksValues">
<text x="197" y="390" text-anchor="middle" font-size="12" font-family="Lucida Sans Unicode">0</text>
<text x="225" y="390" text-anchor="middle" font-size="12" font-family="Lucida Sans Unicode">2</text>
<text x="253" y="390" text-anchor="middle" font-size="12" font-family="Lucida Sans Unicode">4</text>
<text x="281" y="390" text-anchor="middle" font-size="12" font-family="Lucida Sans Unicode">6</text>
<text x="309" y="390" text-anchor="middle" font-size="12" font-family="Lucida Sans Unicode">8</text>
<text x="337" y="390" text-anchor="middle" font-size="12" font-family="Lucida Sans Unicode">10</text>
<text x="197" y="390" text-anchor="middle" font-size="12" font-family="Lucida Sans Unicode">0</text>
<text x="169" y="390" text-anchor="middle" font-size="12" font-family="Lucida Sans Unicode">-2</text>
<text x="141" y="390" text-anchor="middle" font-size="12" font-family="Lucida Sans Unicode">-4</text>
<text x="112" y="390" text-anchor="middle" font-size="12" font-family="Lucida Sans Unicode">-6</text>
<text x="84.3" y="390" text-anchor="middle" font-size="12" font-family="Lucida Sans Unicode">-8</text>
<text x="56.2" y="390" text-anchor="middle" font-size="12" font-family="Lucida Sans Unicode">-10</text></g>
<g id="yTicksValues">
<text x="45.2" y="213" text-anchor="end" font-size="12" font-family="Lucida Sans Unicode">0</text>
<text x="45.2" y="182" text-anchor="end" font-size="12" font-family="Lucida Sans Unicode">2</text>
<text x="45.2" y="150" text-anchor="end" font-size="12" font-family="Lucida Sans Unicode">4</text>
<text x="45.2" y="119" text-anchor="end" font-size="12" font-family="Lucida Sans Unicode">6</text>
<text x="45.2" y="87" text-anchor="end" font-size="12" font-family="Lucida Sans Unicode">8</text>
<text x="45.2" y="55.4" text-anchor="end" font-size="12" font-family="Lucida Sans Unicode">10</text>
<text x="45.2" y="213" text-anchor="end" font-size="12" font-family="Lucida Sans Unicode">0</text>
<text x="45.2" y="245" text-anchor="end" font-size="12" font-family="Lucida Sans Unicode">-2</text>
<text x="45.2" y="277" text-anchor="end" font-size="12" font-family="Lucida Sans Unicode">-4</text>
<text x="45.2" y="308" text-anchor="end" font-size="12" font-family="Lucida Sans Unicode">-6</text>
<text x="45.2" y="340" text-anchor="end" font-size="12" font-family="Lucida Sans Unicode">-8</text>
<text x="45.2" y="371" text-anchor="end" font-size="12" font-family="Lucida Sans Unicode">-10</text>
<text x="45.2" y="213" text-anchor="end" font-size="12" font-family="Lucida Sans Unicode">0</text>
<text x="45.2" y="182" text-anchor="end" font-size="12" font-family="Lucida Sans Unicode">2</text>
<text x="45.2" y="150" text-anchor="end" font-size="12" font-family="Lucida Sans Unicode">4</text>
<text x="45.2" y="119" text-anchor="end" font-size="12" font-family="Lucida Sans Unicode">6</text>
<text x="45.2" y="87" text-anchor="end" font-size="12" font-family="Lucida Sans Unicode">8</text>
<text x="45.2" y="55.4" text-anchor="end" font-size="12" font-family="Lucida Sans Unicode">10</text>
<text x="45.2" y="213" text-anchor="end" font-size="12" font-family="Lucida Sans Unicode">0</text>
<text x="45.2" y="245" text-anchor="end" font-size="12" font-family="Lucida Sans Unicode">-2</text>
<text x="45.2" y="277" text-anchor="end" font-size="12" font-family="Lucida Sans Unicode">-4</text>
<text x="45.2" y="308" text-anchor="end" font-size="12" font-family="Lucida Sans Unicode">-6</text>
<text x="45.2" y="340" text-anchor="end" font-size="12" font-family="Lucida Sans Unicode">-8</text>
<text x="45.2" y="371" text-anchor="end" font-size="12" font-family="Lucida Sans Unicode">-10</text></g>
<g id="yLabel">
<text x="14.9" y="211" text-anchor="middle" transform = "rotate(-90 14.9 211 )" font-size="14" font-family="Lucida Sans Unicode"></text></g>
<g id="xLabel">
<text x="197" y="405" text-anchor="middle" font-size="14" font-family="Lucida Sans Unicode"></text></g>
<g id="plotPoints" clip-path="url(#plot_window)"><g stroke="rgb(0,128,0)" fill="rgb(255,0,255)" stroke-width="2"><path d="M153,307 L197,307 M273,137 L197,137 " stroke-width="5" fill="none"/><path d="M153,302 L153,312 L197,312 L197,302 ZM273,132 L273,142 L197,142 L197,132 Z" fill="none"/></g>
</g>
<g id="legendBackground" stroke="rgb(255,255,0)" fill="rgb(255,255,255)" stroke-width="1"><rect x="351" y="53" width="123" height="70"/><rect x="351" y="53" width="123" height="70"/></g>
<g id="legendPoints"><g stroke="rgb(0,0,0)" fill="rgb(0,128,0)" stroke-width="2"><line x1="365" y1="81" x2="379" y2="81"/></g>
<g stroke="rgb(0,0,0)" fill="rgb(255,255,255)" stroke-width="2"><line x1="365" y1="109" x2="379" y2="109"/></g>
</g>
<g id="legendText">
<text x="386" y="81" font-size="14" font-family="Lucida Sans Unicode">Series 2</text>
<text x="386" y="109" font-size="14" font-family="Lucida Sans Unicode">Series 2</text></g>
<g id="title">
<text x="250" y="36" text-anchor="middle" font-size="18" font-family="Lucida Sans Unicode"></text></g>
<g id="plotXValues"></g>
<g id="plotYValues"></g>
</svg>
