<?xml version="1.0" encoding="UTF-8" standalone="no"?>
<svg width="500" height ="400" version="1.1"
xmlns:svg ="http://www.w3.org/2000/svg"
xmlns:rdf="http://www.w3.org/1999/02/22-rdf-syntax-ns#"
xmlns:cc="http://web.resource.org/cc/"
xmlns:dc="http://purl.org/dc/elements/1.1/"
xmlns ="http://www.w3.org/2000/svg"
>
<!-- SVG plot written using Boost.Plot program (Creator Jacob Voytko) --> 
<!-- Use, modification and distribution of Boost.Plot subject to the --> 
<!-- Boost Software License, Version 1.0.--> 
<!-- (See accompanying file LICENSE_1_0.txt --> 
<!-- or copy at http://www.boost.org/LICENSE_1_0.txt) --> 

<clipPath id="plot_window"><rect x="93.6" y="54" width="232" height="286"/></clipPath>
<g id="imageBackground" stroke="rgb(0,0,0)" fill="rgb(255,255,255)" stroke-width="2"><rect x="0" y="0" width="500" height="400"/></g>
<g id="plotBackground" stroke="rgb(119,136,153)" fill="rgb(255,255,255)" stroke-width="2"><rect x="92.6" y="53" width="234" height="288"/></g>
<g id="yMinorGrid" stroke="rgb(200,220,255)" stroke-width="0.5"></g>
<g id="yMajorGrid" stroke="rgb(200,220,255)" stroke-width="1"></g>
<g id="xMinorGrid" stroke="rgb(200,220,255)" stroke-width="0.5"></g>
<g id="xMajorGrid" stroke="rgb(200,220,255)" stroke-width="1"></g>
<g id="yAxis" stroke="rgb(0,0,0)" stroke-width="1"><line x1="92.6" y1="53" x2="92.6" y2="346"/><line x1="92.6" y1="53" x2="92.6" y2="341"/></g>
<g id="xAxis" stroke="rgb(0,0,0)" stroke-width="1"><line x1="87.6" y1="341" x2="327" y2="341"/><line x1="87.6" y1="341" x2="327" y2="341"/></g>
<g id="yMinorTicks" stroke="rgb(0,0,0)" stroke-width="1"><path d="M90.6,329 L92.6,329 M90.6,318 L92.6,318 M90.6,306 L92.6,306 M90.6,295 L92.6,295 M90.6,272 L92.6,272 M90.6,260 L92.6,260 M90.6,249 L92.6,249 M90.6,237 L92.6,237 M90.6,214 L92.6,214 M90.6,203 L92.6,203 M90.6,191 L92.6,191 M90.6,180 L92.6,180 M90.6,157 L92.6,157 M90.6,145 L92.6,145 M90.6,134 L92.6,134 M90.6,122 L92.6,122 M90.6,99.1 L92.6,99.1 M90.6,87.6 L92.6,87.6 M90.6,76 L92.6,76 M90.6,64.5 L92.6,64.5 M90.6,341 L92.6,341 " fill="none"/></g>
<g id="xMinorTicks" stroke="rgb(0,0,0)" stroke-width="1"><path d="M107,341 L107,343 M122,341 L122,343 M137,341 L137,343 M151,341 L151,343 M180,341 L180,343 M195,341 L195,343 M210,341 L210,343 M224,341 L224,343 M254,341 L254,343 M268,341 L268,343 M283,341 L283,343 M298,341 L298,343 M327,341 L327,343 " fill="none"/></g>
<g id="yMajorTicks" stroke="rgb(0,0,0)" stroke-width="2"><path d="M87.6,341 L92.6,341 M87.6,283 L92.6,283 M87.6,226 L92.6,226 M87.6,168 L92.6,168 M87.6,111 L92.6,111 M87.6,53 L92.6,53 M87.6,341 L92.6,341 " fill="none"/></g>
<g id="xMajorTicks" stroke="rgb(0,0,0)" stroke-width="2"><path d="M92.6,341 L92.6,346 M166,341 L166,346 M239,341 L239,346 M312,341 L312,346 M92.6,341 L92.6,346 " fill="none"/></g>
<g id="xTicksValues">
<text x="92.6" y="362" text-anchor="middle" font-size="12" font-family="Lucida Sans Unicode">0</text>
<text x="166" y="362" text-anchor="middle" font-size="12" font-family="Lucida Sans Unicode">50</text>
<text x="239" y="362" text-anchor="middle" font-size="12" font-family="Lucida Sans Unicode">100</text>
<text x="312" y="362" text-anchor="middle" font-size="12" font-family="Lucida Sans Unicode">150</text>
<text x="92.6" y="362" text-anchor="middle" font-size="12" font-family="Lucida Sans Unicode">0</text></g>
<g id="yTicksValues">
<text x="81.6" y="343" text-anchor="end" font-size="12" font-family="Lucida Sans Unicode">0</text>
<text x="81.6" y="286" text-anchor="end" font-size="12" font-family="Lucida Sans Unicode">1000</text>
<text x="81.6" y="228" text-anchor="end" font-size="12" font-family="Lucida Sans Unicode">2000</text>
<text x="81.6" y="171" text-anchor="end" font-size="12" font-family="Lucida Sans Unicode">3000</text>
<text x="81.6" y="113" text-anchor="end" font-size="12" font-family="Lucida Sans Unicode">4000</text>
<text x="81.6" y="55.4" text-anchor="end" font-size="12" font-family="Lucida Sans Unicode">5000</text>
<text x="81.6" y="343" text-anchor="end" font-size="12" font-family="Lucida Sans Unicode">0</text></g>
<g id="yLabel">
<text x="42.9" y="197" text-anchor="middle" transform = "rotate(-90 42.9 197 )" font-size="14" font-family="Lucida Sans Unicode">thousands of people per one minute interval</text></g>
<g id="xLabel">
<text x="210" y="377" text-anchor="middle" font-size="14" font-family="Lucida Sans Unicode">journey time (min)</text></g>
<g id="plotPoints" clip-path="url(#plot_window)"><g stroke="rgb(0,0,255)" fill="rgb(173,216,230)" stroke-width="2"><path d="M92.6,341 L92.6,318 L99.9,318 L99.9,341 ZM99.9,341 L99.9,283 L107,283 L107,341 ZM107,341 L107,226 L115,226 L115,341 ZM115,341 L115,214 L122,214 L122,341 ZM122,341 L122,203 L129,203 L129,341 ZM129,341 L129,191 L137,191 L137,341 ZM137,341 L137,168 L144,168 L144,341 ZM144,341 L144,157 L151,157 L151,341 ZM151,341 L151,134 L159,134 L159,341 ZM159,341 L159,295 L180,295 L180,341 ZM180,341 L180,320 L224,320 L224,341 ZM224,341 L224,331 L312,331 L312,341 Z" fill="rgb(173,216,230)"/></g>
</g>
<g id="legendBackground" stroke="rgb(255,255,0)" fill="rgb(255,255,255)" stroke-width="1"><rect x="341" y="53" width="133" height="42"/><rect x="341" y="53" width="133" height="42"/></g>
<g id="legendPoints"></g>
<g id="legendText">
<text x="355" y="81" font-size="14" font-family="Lucida Sans Unicode">2050 times? </text></g>
<g id="title">
<text x="250" y="36" text-anchor="middle" font-size="18" font-family="Lucida Sans Unicode">US 2000 Census Journey Times</text></g>
</svg>
