<?xml version="1.0" encoding="UTF-8" standalone="no"?>
<svg width="750" height ="400" version="1.1"
xmlns:svg ="http://www.w3.org/2000/svg"
xmlns:rdf="http://www.w3.org/1999/02/22-rdf-syntax-ns#"
xmlns:cc="http://web.resource.org/cc/"
xmlns:dc="http://purl.org/dc/elements/1.1/"
xmlns ="http://www.w3.org/2000/svg"
>
<!-- SVG plot written using Boost.Plot program (Creator Jacob Voytko) --> 
<!-- Use, modification and distribution of Boost.Plot subject to the --> 
<!-- Boost Software License, Version 1.0.--> 
<!-- (See accompanying file LICENSE_1_0.txt --> 
<!-- or copy at http://www.boost.org/LICENSE_1_0.txt) --> 

<clipPath id="plot_window"><rect x="85.2" y="59" width="473.6" height="281"/></clipPath>
<g id="imageBackground" stroke="rgb(119,136,153)" fill="rgb(255,255,255)" stroke-width="2"><rect x="0" y="0" width="750" height="400"/></g>
<g id="plotBackground" stroke="rgb(119,136,153)" fill="rgb(255,255,255)" stroke-width="2"><rect x="84.2" y="58" width="475.6" height="283"/></g>
<g id="yMinorGrid" stroke="rgb(200,220,255)" stroke-width="0.5"></g>
<g id="yMajorGrid" stroke="rgb(200,220,255)" stroke-width="1"></g>
<g id="xMinorGrid" stroke="rgb(200,220,255)" stroke-width="0.5"></g>
<g id="xMajorGrid" stroke="rgb(200,220,255)" stroke-width="1"></g>
<g id="yAxis" stroke="rgb(0,0,0)" stroke-width="1"><line x1="84.2" y1="58" x2="84.2" y2="346"/><line x1="84.2" y1="58" x2="84.2" y2="341"/></g>
<g id="xAxis" stroke="rgb(0,0,0)" stroke-width="1"><line x1="79.2" y1="341" x2="559.8" y2="341"/><line x1="79.2" y1="341" x2="559.8" y2="341"/></g>
<g id="yMinorTicks" stroke="rgb(0,0,0)" stroke-width="1"><path d="M82.2,335.5 L84.2,335.5 M82.2,330.1 L84.2,330.1 M82.2,324.6 L84.2,324.6 M82.2,319.1 L84.2,319.1 M82.2,308.2 L84.2,308.2 M82.2,302.8 L84.2,302.8 M82.2,297.3 L84.2,297.3 M82.2,291.8 L84.2,291.8 M82.2,280.9 L84.2,280.9 M82.2,275.4 L84.2,275.4 M82.2,270 L84.2,270 M82.2,264.5 L84.2,264.5 M82.2,253.6 L84.2,253.6 M82.2,248.1 L84.2,248.1 M82.2,242.6 L84.2,242.6 M82.2,237.2 L84.2,237.2 M82.2,226.3 L84.2,226.3 M82.2,220.8 L84.2,220.8 M82.2,215.3 L84.2,215.3 M82.2,209.9 L84.2,209.9 M82.2,198.9 L84.2,198.9 M82.2,193.5 L84.2,193.5 M82.2,188 L84.2,188 M82.2,182.5 L84.2,182.5 M82.2,171.6 L84.2,171.6 M82.2,166.1 L84.2,166.1 M82.2,160.7 L84.2,160.7 M82.2,155.2 L84.2,155.2 M82.2,144.3 L84.2,144.3 M82.2,138.8 L84.2,138.8 M82.2,133.4 L84.2,133.4 M82.2,127.9 L84.2,127.9 M82.2,117 L84.2,117 M82.2,111.5 L84.2,111.5 M82.2,106 L84.2,106 M82.2,100.6 L84.2,100.6 M82.2,89.65 L84.2,89.65 M82.2,84.19 L84.2,84.19 M82.2,78.72 L84.2,78.72 M82.2,73.26 L84.2,73.26 M82.2,62.33 L84.2,62.33 M82.2,341 L84.2,341 " fill="none"/></g>
<g id="xMinorTicks" stroke="rgb(0,0,0)" stroke-width="1"><path d="M94.29,341 L94.29,343 M104.4,341 L104.4,343 M114.5,341 L114.5,343 M124.6,341 L124.6,343 M144.7,341 L144.7,343 M154.8,341 L154.8,343 M164.9,341 L164.9,343 M175,341 L175,343 M195.2,341 L195.2,343 M205.3,341 L205.3,343 M215.4,341 L215.4,343 M225.4,341 L225.4,343 M245.6,341 L245.6,343 M255.7,341 L255.7,343 M265.8,341 L265.8,343 M275.9,341 L275.9,343 M296.1,341 L296.1,343 M306.2,341 L306.2,343 M316.2,341 L316.2,343 M326.3,341 L326.3,343 M346.5,341 L346.5,343 M356.6,341 L356.6,343 M366.7,341 L366.7,343 M376.8,341 L376.8,343 M397,341 L397,343 M407,341 L407,343 M417.1,341 L417.1,343 M427.2,341 L427.2,343 M447.4,341 L447.4,343 M457.5,341 L457.5,343 M467.6,341 L467.6,343 M477.7,341 L477.7,343 M497.8,341 L497.8,343 M507.9,341 L507.9,343 M518,341 L518,343 M528.1,341 L528.1,343 M548.3,341 L548.3,343 M558.4,341 L558.4,343 " fill="none"/></g>
<g id="yMajorTicks" stroke="rgb(0,0,0)" stroke-width="2"><path d="M79.2,341 L84.2,341 M79.2,313.7 L84.2,313.7 M79.2,286.4 L84.2,286.4 M79.2,259 L84.2,259 M79.2,231.7 L84.2,231.7 M79.2,204.4 L84.2,204.4 M79.2,177.1 L84.2,177.1 M79.2,149.8 L84.2,149.8 M79.2,122.4 L84.2,122.4 M79.2,95.12 L84.2,95.12 M79.2,67.8 L84.2,67.8 M79.2,341 L84.2,341 " fill="none"/></g>
<g id="xMajorTicks" stroke="rgb(0,0,0)" stroke-width="2"><path d="M84.2,341 L84.2,346 M134.6,341 L134.6,346 M185.1,341 L185.1,346 M235.5,341 L235.5,346 M286,341 L286,346 M336.4,341 L336.4,346 M386.9,341 L386.9,346 M437.3,341 L437.3,346 M487.8,341 L487.8,346 M538.2,341 L538.2,346 " fill="none"/></g>
<g id="xTicksValues">
<text x="84.2" y="361.6" text-anchor="middle" font-size="12" font-family="Verdana">0</text>
<text x="134.6" y="361.6" text-anchor="middle" font-size="12" font-family="Verdana">1</text>
<text x="185.1" y="361.6" text-anchor="middle" font-size="12" font-family="Verdana">2</text>
<text x="235.5" y="361.6" text-anchor="middle" font-size="12" font-family="Verdana">3</text>
<text x="286" y="361.6" text-anchor="middle" font-size="12" font-family="Verdana">4</text>
<text x="336.4" y="361.6" text-anchor="middle" font-size="12" font-family="Verdana">5</text>
<text x="386.9" y="361.6" text-anchor="middle" font-size="12" font-family="Verdana">6</text>
<text x="437.3" y="361.6" text-anchor="middle" font-size="12" font-family="Verdana">7</text>
<text x="487.8" y="361.6" text-anchor="middle" font-size="12" font-family="Verdana">8</text>
<text x="538.2" y="361.6" text-anchor="middle" font-size="12" font-family="Verdana">9</text></g>
<g id="yTicksValues">
<text x="73.2" y="343.4" text-anchor="end" font-size="12" font-family="Verdana">0</text>
<text x="73.2" y="316.1" text-anchor="end" font-size="12" font-family="Verdana">0.1</text>
<text x="73.2" y="288.8" text-anchor="end" font-size="12" font-family="Verdana">0.2</text>
<text x="73.2" y="261.4" text-anchor="end" font-size="12" font-family="Verdana">0.3</text>
<text x="73.2" y="234.1" text-anchor="end" font-size="12" font-family="Verdana">0.4</text>
<text x="73.2" y="206.8" text-anchor="end" font-size="12" font-family="Verdana">0.5</text>
<text x="73.2" y="179.5" text-anchor="end" font-size="12" font-family="Verdana">0.6</text>
<text x="73.2" y="152.2" text-anchor="end" font-size="12" font-family="Verdana">0.7</text>
<text x="73.2" y="124.8" text-anchor="end" font-size="12" font-family="Verdana">0.8</text>
<text x="73.2" y="97.52" text-anchor="end" font-size="12" font-family="Verdana">0.9</text>
<text x="73.2" y="70.2" text-anchor="end" font-size="12" font-family="Verdana">1</text>
<text x="73.2" y="343.4" text-anchor="end" font-size="12" font-family="Verdana">0</text></g>
<g id="yLabel">
<text x="42.9" y="199.5" text-anchor="middle" transform = "rotate(-90 42.9 199.5 )" font-size="14" font-family="Verdana">Probability</text></g>
<g id="xLabel">
<text x="322" y="376.7" text-anchor="middle" font-size="14" font-family="Verdana">Random Variable</text></g>
<g id="plotLines" stroke-width="2"><g clip-path="url(#plot_window)" stroke="rgb(0,0,139)" stroke-width="1"><path d="M84.2,67.8 L86.58,80.38 L88.96,92.38 L91.33,103.8 L93.71,114.7 L96.09,125.2 L98.47,135.1 L100.8,144.6 L103.2,153.6 L105.6,162.3 L108,170.5 L110.4,178.3 L112.7,185.8 L115.1,193 L117.5,199.8 L119.9,206.3 L122.2,212.5 L124.6,218.4 L127,224.1 L129.4,229.4 L131.8,234.6 L134.1,239.5 L136.5,244.1 L138.9,248.6 L141.3,252.9 L143.6,256.9 L146,260.8 L148.4,264.5 L150.8,268 L153.2,271.4 L155.5,274.6 L157.9,277.6 L160.3,280.5 L162.7,283.3 L165,286 L167.4,288.5 L169.8,290.9 L172.2,293.2 L174.6,295.4 L176.9,297.5 L179.3,299.5 L181.7,301.4 L184.1,303.3 L186.4,305 L188.8,306.7 L191.2,308.2 L193.6,309.8 L196,311.2 L198.3,312.6 L200.7,313.9 L203.1,315.1 L205.5,316.3 L207.8,317.5 L210.2,318.5 L212.6,319.6 L215,320.6 L217.4,321.5 L219.7,322.4 L222.1,323.3 L224.5,324.1 L226.9,324.8 L229.2,325.6 L231.6,326.3 L234,327 L236.4,327.6 L238.8,328.2 L241.1,328.8 L243.5,329.4 L245.9,329.9 L248.3,330.4 L250.6,330.9 L253,331.4 L255.4,331.8 L257.8,332.2 L260.2,332.7 L262.5,333 L264.9,333.4 L267.3,333.8 L269.7,334.1 L272,334.4 L274.4,334.7 L276.8,335 L279.2,335.3 L281.6,335.5 L283.9,335.8 L286.3,336 L288.7,336.3 L291.1,336.5 L293.4,336.7 L295.8,336.9 L298.2,337.1 L300.6,337.3 L303,337.4 L305.3,337.6 L307.7,337.7 L310.1,337.9 L312.5,338 L314.8,338.2 L317.2,338.3 L319.6,338.4 L322,338.5 L324.4,338.7 L326.7,338.8 L329.1,338.9 L331.5,339 L333.9,339.1 L336.2,339.2 L338.6,339.2 L341,339.3 L343.4,339.4 L345.8,339.5 L348.1,339.5 L350.5,339.6 L352.9,339.7 L355.3,339.7 L357.6,339.8 L360,339.8 L362.4,339.9 L364.8,340 L367.2,340 L369.5,340 L371.9,340.1 L374.3,340.1 L376.7,340.2 L379,340.2 L381.4,340.2 L383.8,340.3 L386.2,340.3 L388.6,340.3 L390.9,340.4 L393.3,340.4 L395.7,340.4 L398.1,340.5 L400.4,340.5 L402.8,340.5 L405.2,340.5 L407.6,340.6 L410,340.6 L412.3,340.6 L414.7,340.6 L417.1,340.6 L419.5,340.6 L421.8,340.7 L424.2,340.7 L426.6,340.7 L429,340.7 L431.4,340.7 L433.7,340.7 L436.1,340.7 L438.5,340.8 L440.9,340.8 L443.2,340.8 L445.6,340.8 L448,340.8 L450.4,340.8 L452.8,340.8 L455.1,340.8 L457.5,340.8 L459.9,340.8 L462.3,340.8 L464.6,340.9 L467,340.9 L469.4,340.9 L471.8,340.9 L474.2,340.9 L476.5,340.9 L478.9,340.9 L481.3,340.9 L483.7,340.9 L486,340.9 L488.4,340.9 L490.8,340.9 L493.2,340.9 L495.6,340.9 L497.9,340.9 L500.3,340.9 L502.7,340.9 L505.1,340.9 L507.4,340.9 L509.8,340.9 L512.2,340.9 L514.6,340.9 L517,340.9 L519.3,341 L521.7,341 L524.1,341 L526.5,341 L528.8,341 L531.2,341 L533.6,341 L536,341 L538.4,341 L540.7,341 L543.1,341 L545.5,341 L547.9,341 L550.2,341 L552.6,341 L555,341 L557.4,341 L559.8,341 " fill="none"/></g>
<g clip-path="url(#plot_window)" stroke="rgb(139,0,0)" stroke-width="1"><path d="M84.2,341 L86.58,328.7 L88.96,317.6 L91.33,307.5 L93.71,298.3 L96.09,290.1 L98.47,282.8 L100.8,276.2 L103.2,270.3 L105.6,265.2 L108,260.6 L110.4,256.7 L112.7,253.2 L115.1,250.3 L117.5,247.8 L119.9,245.7 L122.2,244.1 L124.6,242.8 L127,241.8 L129.4,241.1 L131.8,240.7 L134.1,240.5 L136.5,240.6 L138.9,240.8 L141.3,241.3 L143.6,241.9 L146,242.7 L148.4,243.6 L150.8,244.7 L153.2,245.8 L155.5,247.1 L157.9,248.4 L160.3,249.8 L162.7,251.3 L165,252.8 L167.4,254.4 L169.8,256 L172.2,257.7 L174.6,259.4 L176.9,261.1 L179.3,262.8 L181.7,264.6 L184.1,266.3 L186.4,268 L188.8,269.8 L191.2,271.5 L193.6,273.2 L196,275 L198.3,276.7 L200.7,278.3 L203.1,280 L205.5,281.7 L207.8,283.3 L210.2,284.9 L212.6,286.5 L215,288 L217.4,289.5 L219.7,291 L222.1,292.5 L224.5,293.9 L226.9,295.3 L229.2,296.7 L231.6,298 L234,299.4 L236.4,300.6 L238.8,301.9 L241.1,303.1 L243.5,304.3 L245.9,305.5 L248.3,306.6 L250.6,307.7 L253,308.8 L255.4,309.9 L257.8,310.9 L260.2,311.9 L262.5,312.8 L264.9,313.8 L267.3,314.7 L269.7,315.6 L272,316.4 L274.4,317.3 L276.8,318.1 L279.2,318.9 L281.6,319.6 L283.9,320.4 L286.3,321.1 L288.7,321.8 L291.1,322.4 L293.4,323.1 L295.8,323.7 L298.2,324.3 L300.6,324.9 L303,325.5 L305.3,326.1 L307.7,326.6 L310.1,327.1 L312.5,327.6 L314.8,328.1 L317.2,328.6 L319.6,329 L322,329.4 L324.4,329.9 L326.7,330.3 L329.1,330.7 L331.5,331 L333.9,331.4 L336.2,331.8 L338.6,332.1 L341,332.4 L343.4,332.8 L345.8,333.1 L348.1,333.4 L350.5,333.7 L352.9,333.9 L355.3,334.2 L357.6,334.4 L360,334.7 L362.4,334.9 L364.8,335.2 L367.2,335.4 L369.5,335.6 L371.9,335.8 L374.3,336 L376.7,336.2 L379,336.4 L381.4,336.6 L383.8,336.7 L386.2,336.9 L388.6,337 L390.9,337.2 L393.3,337.3 L395.7,337.5 L398.1,337.6 L400.4,337.8 L402.8,337.9 L405.2,338 L407.6,338.1 L410,338.2 L412.3,338.3 L414.7,338.4 L417.1,338.5 L419.5,338.6 L421.8,338.7 L424.2,338.8 L426.6,338.9 L429,339 L431.4,339.1 L433.7,339.1 L436.1,339.2 L438.5,339.3 L440.9,339.4 L443.2,339.4 L445.6,339.5 L448,339.5 L450.4,339.6 L452.8,339.7 L455.1,339.7 L457.5,339.8 L459.9,339.8 L462.3,339.9 L464.6,339.9 L467,340 L469.4,340 L471.8,340 L474.2,340.1 L476.5,340.1 L478.9,340.1 L481.3,340.2 L483.7,340.2 L486,340.2 L488.4,340.3 L490.8,340.3 L493.2,340.3 L495.6,340.4 L497.9,340.4 L500.3,340.4 L502.7,340.4 L505.1,340.5 L507.4,340.5 L509.8,340.5 L512.2,340.5 L514.6,340.5 L517,340.6 L519.3,340.6 L521.7,340.6 L524.1,340.6 L526.5,340.6 L528.8,340.6 L531.2,340.7 L533.6,340.7 L536,340.7 L538.4,340.7 L540.7,340.7 L543.1,340.7 L545.5,340.7 L547.9,340.7 L550.2,340.8 L552.6,340.8 L555,340.8 L557.4,340.8 L559.8,340.8 " fill="none"/></g>
<g clip-path="url(#plot_window)" stroke="rgb(0,100,0)" stroke-width="1"><path d="M84.2,341 L86.58,341 L88.96,341 L91.33,340.9 L93.71,340.7 L96.09,340.5 L98.47,340.2 L100.8,339.8 L103.2,339.3 L105.6,338.7 L108,338 L110.4,337.2 L112.7,336.3 L115.1,335.3 L117.5,334.2 L119.9,333.1 L122.2,331.8 L124.6,330.5 L127,329.1 L129.4,327.6 L131.8,326.1 L134.1,324.6 L136.5,323 L138.9,321.4 L141.3,319.7 L143.6,318.1 L146,316.4 L148.4,314.7 L150.8,313 L153.2,311.4 L155.5,309.7 L157.9,308 L160.3,306.4 L162.7,304.8 L165,303.3 L167.4,301.7 L169.8,300.2 L172.2,298.8 L174.6,297.4 L176.9,296 L179.3,294.7 L181.7,293.4 L184.1,292.2 L186.4,291 L188.8,289.9 L191.2,288.9 L193.6,287.9 L196,287 L198.3,286.1 L200.7,285.3 L203.1,284.5 L205.5,283.8 L207.8,283.2 L210.2,282.6 L212.6,282.1 L215,281.6 L217.4,281.2 L219.7,280.9 L222.1,280.6 L224.5,280.3 L226.9,280.1 L229.2,280 L231.6,279.9 L234,279.8 L236.4,279.8 L238.8,279.8 L241.1,279.9 L243.5,280 L245.9,280.2 L248.3,280.4 L250.6,280.6 L253,280.9 L255.4,281.2 L257.8,281.6 L260.2,281.9 L262.5,282.4 L264.9,282.8 L267.3,283.2 L269.7,283.7 L272,284.2 L274.4,284.8 L276.8,285.3 L279.2,285.9 L281.6,286.5 L283.9,287.1 L286.3,287.7 L288.7,288.4 L291.1,289 L293.4,289.7 L295.8,290.3 L298.2,291 L300.6,291.7 L303,292.4 L305.3,293.1 L307.7,293.8 L310.1,294.6 L312.5,295.3 L314.8,296 L317.2,296.8 L319.6,297.5 L322,298.2 L324.4,298.9 L326.7,299.7 L329.1,300.4 L331.5,301.1 L333.9,301.9 L336.2,302.6 L338.6,303.3 L341,304 L343.4,304.7 L345.8,305.5 L348.1,306.2 L350.5,306.9 L352.9,307.6 L355.3,308.2 L357.6,308.9 L360,309.6 L362.4,310.3 L364.8,310.9 L367.2,311.6 L369.5,312.2 L371.9,312.8 L374.3,313.5 L376.7,314.1 L379,314.7 L381.4,315.3 L383.8,315.9 L386.2,316.5 L388.6,317 L390.9,317.6 L393.3,318.1 L395.7,318.7 L398.1,319.2 L400.4,319.8 L402.8,320.3 L405.2,320.8 L407.6,321.3 L410,321.8 L412.3,322.2 L414.7,322.7 L417.1,323.2 L419.5,323.6 L421.8,324.1 L424.2,324.5 L426.6,324.9 L429,325.4 L431.4,325.8 L433.7,326.2 L436.1,326.6 L438.5,326.9 L440.9,327.3 L443.2,327.7 L445.6,328 L448,328.4 L450.4,328.7 L452.8,329.1 L455.1,329.4 L457.5,329.7 L459.9,330 L462.3,330.3 L464.6,330.6 L467,330.9 L469.4,331.2 L471.8,331.5 L474.2,331.8 L476.5,332 L478.9,332.3 L481.3,332.5 L483.7,332.8 L486,333 L488.4,333.2 L490.8,333.5 L493.2,333.7 L495.6,333.9 L497.9,334.1 L500.3,334.3 L502.7,334.5 L505.1,334.7 L507.4,334.9 L509.8,335.1 L512.2,335.3 L514.6,335.4 L517,335.6 L519.3,335.8 L521.7,335.9 L524.1,336.1 L526.5,336.2 L528.8,336.4 L531.2,336.5 L533.6,336.6 L536,336.8 L538.4,336.9 L540.7,337 L543.1,337.2 L545.5,337.3 L547.9,337.4 L550.2,337.5 L552.6,337.6 L555,337.7 L557.4,337.8 L559.8,337.9 " fill="none"/></g>
</g>
<g id="plotPoints" clip-path="url(#plot_window)"></g>
<g id="legendBackground" stroke="rgb(119,136,153)" fill="rgb(255,255,255)" stroke-width="1"><rect x="573.8" y="58" width="150.2" height="105"/><rect x="573.8" y="58" width="150.2" height="105"/></g>
<g id="legendPoints"><g stroke="rgb(0,0,139)" fill="rgb(255,255,255)" stroke-width="1"><line x1="588.8" y1="88" x2="603.8" y2="88"/></g>
<g stroke="rgb(139,0,0)" fill="rgb(255,255,255)" stroke-width="1"><line x1="588.8" y1="118" x2="603.8" y2="118"/></g>
<g stroke="rgb(0,100,0)" fill="rgb(255,255,255)" stroke-width="1"><line x1="588.8" y1="148" x2="603.8" y2="148"/></g>
</g>
<g id="legendText">
<text x="611.3" y="88" font-size="15" font-family="Verdana">shape = 0.5</text>
<text x="611.3" y="118" font-size="15" font-family="Verdana">shape = 1</text>
<text x="611.3" y="148" font-size="15" font-family="Verdana">shape = 3</text></g>
<g id="title">
<text x="375" y="40" text-anchor="middle" font-size="20" font-family="Verdana">Gamma Distribution PDF With Scale = 1</text></g>
<g id="plotXValues"></g>
<g id="plotYValues"></g>
</svg>
