<?xml version="1.0" encoding="UTF-8" standalone="no"?>
<svg width="500" height ="200" version="1.1"
xmlns:svg ="http://www.w3.org/2000/svg"
xmlns:rdf="http://www.w3.org/1999/02/22-rdf-syntax-ns#"
xmlns:cc="http://web.resource.org/cc/"
xmlns:dc="http://purl.org/dc/elements/1.1/"
xmlns ="http://www.w3.org/2000/svg"
>
<!-- SVG plot written using Boost.Plot program (Creator Jacob Voytko) --> 
<!-- Use, modification and distribution of Boost.Plot subject to the --> 
<!-- Boost Software License, Version 1.0.--> 
<!-- (See accompanying file LICENSE_1_0.txt --> 
<!-- or copy at http://www.boost.org/LICENSE_1_0.txt) --> 

<!-- SVG Plot Copyright Paul A. Bristow, Bob Zarr, NIST 2008-06-19 --> 
<meta name="copyright" content="Paul A. Bristow, Bob Zarr, NIST" />
<meta name="date" content="2008-06-19" />
<!-- NIST Heat_Flow Data --> 
<desc>NIST Heat_Flow Data</desc>
<title>NIST Heat_Flow Data</title>
<!-- File ./heat_flow_data.svg --> 
<metadata id = "id0">
<rdf:RDF>
<cc:Work rdf:about="./heat_flow_data.svg">
<dc:format>image/svg+xml</dc:format>
<dc:type rdf:resource="http://purl.org/dc/dcmitype/StillImage" />
<dc:title> NIST Heat_Flow Data</dc:title>
<dc:creator> <cc:Agent> <dc:title>Boost.Plot</dc:title> </cc:Agent></dc:creator>
<dc:author><cc:Agent><dc:title>Paul A. Bristow, Bob Zarr, NIST </dc:title> </cc:Agent> </dc:author>
<dc:rights><cc:Agent><dc:title>Paul A. Bristow, Bob Zarr, NIST</dc:title></cc:Agent></dc:rights>
<dc:date>2008-06-19</dc:date>
<dc:identifier>./heat_flow_data.svg</dc:identifier>
<dc:source>Boost.plot 0.5</dc:source>
<dc:relation></dc:relation>
<dc:publisher><cc:Agent><dc:title>Paul A. Bristow, Bob Zarr, NIST</dc:title></cc:Agent></dc:publisher>
<dc:language>en_US</dc:language>
<dc:description>NIST Heat_Flow Data</dc:description>
<dc:contributor><cc:Agent><dc:title>Paul A. Bristow, Bob Zarr, NIST</dc:title></cc:Agent></dc:contributor>
<dc:subject><rdf:Bag><rdf:li>Boost svg plot keyword</rdf:li></rdf:Bag></dc:subject>
<cc:license rdf:resource="http://creativecommons.org/licenses/" />
</cc:Work>
<cc:License rdf:about="http://creativecommons.org/licenses/">
<cc:permits rdf:resource="http://web.resource.org/cc/Reproduction"/>
<cc:permits rdf:resource="http://web.resource.org/cc/Distribution"/>
<cc:requires rdf:resource="http://web.resource.org/cc/Notice"/>
<cc:requires rdf:resource="http://web.resource.org/cc/Attribution"/>
<cc:permits rdf:resource="http://web.resource.org/cc/CommercialUse"/>
<cc:permits rdf:resource="http://web.resource.org/cc/DerivativeWorks"/>
</cc:License>
</rdf:RDF>
</metadata>
<g id="imageBackground" stroke="rgb(255,255,0)" fill="rgb(255,255,255)" stroke-width="1"><rect x="0" y="0" width="500" height="200"/></g>
<g id="plotBackground" stroke="rgb(250,250,210)" fill="rgb(255,255,255)" stroke-width="1"><rect x="11" y="56" width="478" height="100"/></g>
<g id="xMinorGrid" stroke="rgb(200,220,255)" stroke-width="0.5"></g>
<g id="xMajorGrid" stroke="rgb(200,220,255)" stroke-width="1"></g>
<g id="xAxis" stroke="rgb(0,0,0)" stroke-width="1"><line x1="11" y1="108.5" x2="489" y2="108.5"/></g>
<g id="xMinorTicks" stroke="rgb(0,0,0)" stroke-width="1"><path d="M24.6571,108.5 L24.6571,110.5 M38.3143,108.5 L38.3143,110.5 M51.9714,108.5 L51.9714,110.5 M65.6286,108.5 L65.6286,110.5 M92.9429,108.5 L92.9429,110.5 M106.6,108.5 L106.6,110.5 M120.257,108.5 L120.257,110.5 M133.914,108.5 L133.914,110.5 M161.229,108.5 L161.229,110.5 M174.886,108.5 L174.886,110.5 M188.543,108.5 L188.543,110.5 M202.2,108.5 L202.2,110.5 M229.514,108.5 L229.514,110.5 M243.171,108.5 L243.171,110.5 M256.829,108.5 L256.829,110.5 M270.486,108.5 L270.486,110.5 M297.8,108.5 L297.8,110.5 M311.457,108.5 L311.457,110.5 M325.114,108.5 L325.114,110.5 M338.771,108.5 L338.771,110.5 M366.086,108.5 L366.086,110.5 M379.743,108.5 L379.743,110.5 M393.4,108.5 L393.4,110.5 M407.057,108.5 L407.057,110.5 M434.371,108.5 L434.371,110.5 M448.029,108.5 L448.029,110.5 M461.686,108.5 L461.686,110.5 M475.343,108.5 L475.343,110.5 " fill="none"/></g>
<g id="xMajorTicks" stroke="rgb(0,0,0)" stroke-width="2"><path d="M11,108.5 L11,113.5 M79.2857,108.5 L79.2857,113.5 M147.571,108.5 L147.571,113.5 M215.857,108.5 L215.857,113.5 M284.143,108.5 L284.143,113.5 M352.429,108.5 L352.429,113.5 M420.714,108.5 L420.714,113.5 " fill="none"/></g>
<g id="xTicksValues">
<text x="11" y="129.1" text-anchor="middle" font-size="12" font-family="Verdana">9.18</text>
<text x="79.2857" y="129.1" text-anchor="middle" font-size="12" font-family="Verdana">9.2</text>
<text x="147.571" y="129.1" text-anchor="middle" font-size="12" font-family="Verdana">9.23</text>
<text x="215.857" y="129.1" text-anchor="middle" font-size="12" font-family="Verdana">9.25</text>
<text x="284.143" y="129.1" text-anchor="middle" font-size="12" font-family="Verdana">9.28</text>
<text x="352.429" y="129.1" text-anchor="middle" font-size="12" font-family="Verdana">9.3</text>
<text x="420.714" y="129.1" text-anchor="middle" font-size="12" font-family="Verdana">9.33</text></g>
<g id="xLabel">
<text x="250" y="179.8" text-anchor="middle" font-size="14" font-family="Verdana">heat flow</text></g>
<g id="plotPoints"><g stroke="rgb(0,0,0)"><line x1="96.6112" y1="111" x2="96.6112" y2="101"/><line x1="352.407" y1="111" x2="352.407" y2="101"/><line x1="292.05" y1="111" x2="292.05" y2="101"/><line x1="368.257" y1="111" x2="368.257" y2="101"/><line x1="285.102" y1="111" x2="285.102" y2="101"/><line x1="321.643" y1="111" x2="321.643" y2="101"/><line x1="317.573" y1="111" x2="317.573" y2="101"/><line x1="245.829" y1="111" x2="245.829" y2="101"/><line x1="360.926" y1="111" x2="360.926" y2="101"/><line x1="285.984" y1="111" x2="285.984" y2="101"/><line x1="277.481" y1="111" x2="277.481" y2="101"/><line x1="320.891" y1="111" x2="320.891" y2="101"/><line x1="231.35" y1="111" x2="231.35" y2="101"/><line x1="221.705" y1="111" x2="221.705" y2="101"/><line x1="346.064" y1="111" x2="346.064" y2="101"/><line x1="261.019" y1="111" x2="261.019" y2="101"/><line x1="234.128" y1="111" x2="234.128" y2="101"/><line x1="291.086" y1="111" x2="291.086" y2="101"/><line x1="210.954" y1="111" x2="210.954" y2="101"/><line x1="221.612" y1="111" x2="221.612" y2="101"/><line x1="287.817" y1="111" x2="287.817" y2="101"/><line x1="294.233" y1="111" x2="294.233" y2="101"/><line x1="262.685" y1="111" x2="262.685" y2="101"/><line x1="205.292" y1="111" x2="205.292" y2="101"/><line x1="184.388" y1="111" x2="184.388" y2="101"/><line x1="267.913" y1="111" x2="267.913" y2="101"/><line x1="211.047" y1="111" x2="211.047" y2="101"/><line x1="236.176" y1="111" x2="236.176" y2="101"/><line x1="266.337" y1="111" x2="266.337" y2="101"/><line x1="320.891" y1="111" x2="320.891" y2="101"/><line x1="238.943" y1="111" x2="238.943" y2="101"/><line x1="314.544" y1="111" x2="314.544" y2="101"/><line x1="219.897" y1="111" x2="219.897" y2="101"/><line x1="236.083" y1="111" x2="236.083" y2="101"/><line x1="265.96" y1="111" x2="265.96" y2="101"/><line x1="328.671" y1="111" x2="328.671" y2="101"/><line x1="132.439" y1="111" x2="132.439" y2="101"/><line x1="271.54" y1="111" x2="271.54" y2="101"/><line x1="130.658" y1="111" x2="130.658" y2="101"/><line x1="191.78" y1="111" x2="191.78" y2="101"/><line x1="270.456" y1="111" x2="270.456" y2="101"/><line x1="151.901" y1="111" x2="151.901" y2="101"/><line x1="239.227" y1="111" x2="239.227" y2="101"/><line x1="314.691" y1="111" x2="314.691" y2="101"/><line x1="407.24" y1="111" x2="407.24" y2="101"/><line x1="428.835" y1="111" x2="428.835" y2="101"/><line x1="251.265" y1="111" x2="251.265" y2="101"/><line x1="210.889" y1="111" x2="210.889" y2="101"/><line x1="184.839" y1="111" x2="184.839" y2="101"/><line x1="147.771" y1="111" x2="147.771" y2="101"/><line x1="136.312" y1="111" x2="136.312" y2="101"/><line x1="274.086" y1="111" x2="274.086" y2="101"/><line x1="221.517" y1="111" x2="221.517" y2="101"/><line x1="301.039" y1="111" x2="301.039" y2="101"/><line x1="272.19" y1="111" x2="272.19" y2="101"/><line x1="338.146" y1="111" x2="338.146" y2="101"/><line x1="357.403" y1="111" x2="357.403" y2="101"/><line x1="294.656" y1="111" x2="294.656" y2="101"/><line x1="179.475" y1="111" x2="179.475" y2="101"/><line x1="172.122" y1="111" x2="172.122" y2="101"/><line x1="201.345" y1="111" x2="201.345" y2="101"/><line x1="138.287" y1="111" x2="138.287" y2="101"/><line x1="99.2934" y1="111" x2="99.2934" y2="101"/><line x1="239.828" y1="111" x2="239.828" y2="101"/><line x1="286.077" y1="111" x2="286.077" y2="101"/><line x1="267.631" y1="111" x2="267.631" y2="101"/><line x1="235.712" y1="111" x2="235.712" y2="101"/><line x1="256.771" y1="111" x2="256.771" y2="101"/><line x1="340.137" y1="111" x2="340.137" y2="101"/><line x1="332.989" y1="111" x2="332.989" y2="101"/><line x1="254.611" y1="111" x2="254.611" y2="101"/><line x1="299.797" y1="111" x2="299.797" y2="101"/><line x1="263.209" y1="111" x2="263.209" y2="101"/><line x1="353.975" y1="111" x2="353.975" y2="101"/><line x1="224.295" y1="111" x2="224.295" y2="101"/><line x1="246.93" y1="111" x2="246.93" y2="101"/><line x1="184.197" y1="111" x2="184.197" y2="101"/><line x1="147.771" y1="111" x2="147.771" y2="101"/><line x1="176.322" y1="111" x2="176.322" y2="101"/><line x1="187.204" y1="111" x2="187.204" y2="101"/><line x1="255.427" y1="111" x2="255.427" y2="101"/><line x1="200.13" y1="111" x2="200.13" y2="101"/><line x1="291.086" y1="111" x2="291.086" y2="101"/><line x1="381.125" y1="111" x2="381.125" y2="101"/><line x1="247.525" y1="111" x2="247.525" y2="101"/><line x1="242.601" y1="111" x2="242.601" y2="101"/><line x1="224.295" y1="111" x2="224.295" y2="101"/><line x1="204.208" y1="111" x2="204.208" y2="101"/><line x1="308.884" y1="111" x2="308.884" y2="101"/><line x1="218.922" y1="111" x2="218.922" y2="101"/><line x1="285.194" y1="111" x2="285.194" y2="101"/><line x1="228.474" y1="111" x2="228.474" y2="101"/><line x1="296.505" y1="111" x2="296.505" y2="101"/><line x1="284.32" y1="111" x2="284.32" y2="101"/><line x1="248.503" y1="111" x2="248.503" y2="101"/><line x1="285.102" y1="111" x2="285.102" y2="101"/><line x1="222.503" y1="111" x2="222.503" y2="101"/><line x1="161.947" y1="111" x2="161.947" y2="101"/><line x1="229.924" y1="111" x2="229.924" y2="101"/><line x1="267.153" y1="111" x2="267.153" y2="101"/><line x1="326.177" y1="111" x2="326.177" y2="101"/><line x1="281.851" y1="111" x2="281.851" y2="101"/><line x1="231.445" y1="111" x2="231.445" y2="101"/><line x1="247.714" y1="111" x2="247.714" y2="101"/><line x1="217.1" y1="111" x2="217.1" y2="101"/><line x1="248.503" y1="111" x2="248.503" y2="101"/><line x1="254.209" y1="111" x2="254.209" y2="101"/><line x1="255.487" y1="111" x2="255.487" y2="101"/><line x1="194.317" y1="111" x2="194.317" y2="101"/><line x1="187.652" y1="111" x2="187.652" y2="101"/><line x1="138.156" y1="111" x2="138.156" y2="101"/><line x1="193.828" y1="111" x2="193.828" y2="101"/><line x1="120.981" y1="111" x2="120.981" y2="101"/><line x1="313.997" y1="111" x2="313.997" y2="101"/><line x1="274.744" y1="111" x2="274.744" y2="101"/><line x1="259.686" y1="111" x2="259.686" y2="101"/><line x1="312.274" y1="111" x2="312.274" y2="101"/><line x1="267.724" y1="111" x2="267.724" y2="101"/><line x1="264.987" y1="111" x2="264.987" y2="101"/><line x1="205.385" y1="111" x2="205.385" y2="101"/><line x1="164.79" y1="111" x2="164.79" y2="101"/><line x1="190.641" y1="111" x2="190.641" y2="101"/><line x1="244.554" y1="111" x2="244.554" y2="101"/><line x1="282.381" y1="111" x2="282.381" y2="101"/><line x1="331.604" y1="111" x2="331.604" y2="101"/><line x1="273.681" y1="111" x2="273.681" y2="101"/><line x1="262.341" y1="111" x2="262.341" y2="101"/><line x1="376.569" y1="111" x2="376.569" y2="101"/><line x1="254.515" y1="111" x2="254.515" y2="101"/><line x1="294.582" y1="111" x2="294.582" y2="101"/><line x1="230.181" y1="111" x2="230.181" y2="101"/><line x1="159.101" y1="111" x2="159.101" y2="101"/><line x1="224.483" y1="111" x2="224.483" y2="101"/><line x1="233.043" y1="111" x2="233.043" y2="101"/><line x1="250.279" y1="111" x2="250.279" y2="101"/><line x1="133.349" y1="111" x2="133.349" y2="101"/><line x1="238.943" y1="111" x2="238.943" y2="101"/><line x1="264.987" y1="111" x2="264.987" y2="101"/><line x1="264.987" y1="111" x2="264.987" y2="101"/><line x1="212.861" y1="111" x2="212.861" y2="101"/><line x1="175.304" y1="111" x2="175.304" y2="101"/><line x1="196.554" y1="111" x2="196.554" y2="101"/><line x1="225.289" y1="111" x2="225.289" y2="101"/><line x1="250.467" y1="111" x2="250.467" y2="101"/><line x1="195.47" y1="111" x2="195.47" y2="101"/><line x1="245.365" y1="111" x2="245.365" y2="101"/><line x1="242.693" y1="111" x2="242.693" y2="101"/><line x1="224.387" y1="111" x2="224.387" y2="101"/><line x1="190.736" y1="111" x2="190.736" y2="101"/><line x1="185.025" y1="111" x2="185.025" y2="101"/><line x1="253.212" y1="111" x2="253.212" y2="101"/><line x1="196.743" y1="111" x2="196.743" y2="101"/><line x1="207.188" y1="111" x2="207.188" y2="101"/><line x1="221.612" y1="111" x2="221.612" y2="101"/><line x1="247.714" y1="111" x2="247.714" y2="101"/><line x1="208.512" y1="111" x2="208.512" y2="101"/><line x1="368.967" y1="111" x2="368.967" y2="101"/><line x1="182.113" y1="111" x2="182.113" y2="101"/><line x1="212.954" y1="111" x2="212.954" y2="101"/><line x1="234.128" y1="111" x2="234.128" y2="101"/><line x1="258.951" y1="111" x2="258.951" y2="101"/><line x1="349.826" y1="111" x2="349.826" y2="101"/><line x1="201.692" y1="111" x2="201.692" y2="101"/><line x1="317.48" y1="111" x2="317.48" y2="101"/><line x1="353.975" y1="111" x2="353.975" y2="101"/><line x1="233.942" y1="111" x2="233.942" y2="101"/><line x1="274.086" y1="111" x2="274.086" y2="101"/><line x1="284.563" y1="111" x2="284.563" y2="101"/><line x1="302.809" y1="111" x2="302.809" y2="101"/><line x1="224.483" y1="111" x2="224.483" y2="101"/><line x1="267.82" y1="111" x2="267.82" y2="101"/><line x1="303.473" y1="111" x2="303.473" y2="101"/><line x1="290.991" y1="111" x2="290.991" y2="101"/><line x1="311.211" y1="111" x2="311.211" y2="101"/><line x1="188.106" y1="111" x2="188.106" y2="101"/><line x1="265.962" y1="111" x2="265.962" y2="101"/><line x1="209.788" y1="111" x2="209.788" y2="101"/><line x1="147.678" y1="111" x2="147.678" y2="101"/><line x1="163.277" y1="111" x2="163.277" y2="101"/><line x1="270.551" y1="111" x2="270.551" y2="101"/><line x1="257.088" y1="111" x2="257.088" y2="101"/><line x1="309.567" y1="111" x2="309.567" y2="101"/><line x1="299.704" y1="111" x2="299.704" y2="101"/><line x1="251.453" y1="111" x2="251.453" y2="101"/><line x1="330.17" y1="111" x2="330.17" y2="101"/><line x1="221.517" y1="111" x2="221.517" y2="101"/><line x1="199.553" y1="111" x2="199.553" y2="101"/><line x1="306.729" y1="111" x2="306.729" y2="101"/><line x1="70.6763" y1="111" x2="70.6763" y2="101"/><line x1="164.976" y1="111" x2="164.976" y2="101"/><line x1="169.322" y1="111" x2="169.322" y2="101"/><line x1="174.766" y1="111" x2="174.766" y2="101"/><line x1="125.026" y1="111" x2="125.026" y2="101"/><line x1="281.704" y1="111" x2="281.704" y2="101"/><line x1="280.8" y1="111" x2="280.8" y2="101"/></g>
</g>
<g id="title">
<text x="250" y="36" text-anchor="middle" font-size="18" font-family="Verdana">NIST Heat flow data</text></g>
</svg>
