<?xml version="1.0" standalone="no"?>
<!DOCTYPE svg PUBLIC "-//W3C//DTD SVG 1.1//EN" "http://www.w3.org/graphics/svg/1.1/dtd/svg11.dtd">
<svg width="500" height ="500" version="1.1" xmlns="http://www.w3.org/2000/svg">
<g 
stroke = "black"

>
<line x1="288.462" y1 ="500"  x2 ="288.462"  y2 ="0"/>
<line x1="0" y1 ="187.5"  x2 ="500"  y2 ="187.5"/>
<line x1="0" y1 ="184.375"  x2 ="0"  y2 ="190.625"/>
<line x1="19.2308" y1 ="184.375"  x2 ="19.2308"  y2 ="190.625"/>
<line x1="38.4615" y1 ="184.375"  x2 ="38.4615"  y2 ="190.625"/>
<line x1="57.6923" y1 ="184.375"  x2 ="57.6923"  y2 ="190.625"/>
<line x1="76.9231" y1 ="184.375"  x2 ="76.9231"  y2 ="190.625"/>
<line x1="96.1538" y1 ="184.375"  x2 ="96.1538"  y2 ="190.625"/>
<line x1="115.385" y1 ="184.375"  x2 ="115.385"  y2 ="190.625"/>
<line x1="134.615" y1 ="184.375"  x2 ="134.615"  y2 ="190.625"/>
<line x1="153.846" y1 ="184.375"  x2 ="153.846"  y2 ="190.625"/>
<line x1="173.077" y1 ="184.375"  x2 ="173.077"  y2 ="190.625"/>
<line x1="192.308" y1 ="184.375"  x2 ="192.308"  y2 ="190.625"/>
<line x1="211.538" y1 ="184.375"  x2 ="211.538"  y2 ="190.625"/>
<line x1="230.769" y1 ="184.375"  x2 ="230.769"  y2 ="190.625"/>
<line x1="250" y1 ="184.375"  x2 ="250"  y2 ="190.625"/>
<line x1="269.231" y1 ="184.375"  x2 ="269.231"  y2 ="190.625"/>
<line x1="288.462" y1 ="184.375"  x2 ="288.462"  y2 ="190.625"/>
<line x1="307.692" y1 ="184.375"  x2 ="307.692"  y2 ="190.625"/>
<line x1="326.923" y1 ="184.375"  x2 ="326.923"  y2 ="190.625"/>
<line x1="346.154" y1 ="184.375"  x2 ="346.154"  y2 ="190.625"/>
<line x1="365.385" y1 ="184.375"  x2 ="365.385"  y2 ="190.625"/>
<line x1="384.615" y1 ="184.375"  x2 ="384.615"  y2 ="190.625"/>
<line x1="403.846" y1 ="184.375"  x2 ="403.846"  y2 ="190.625"/>
<line x1="423.077" y1 ="184.375"  x2 ="423.077"  y2 ="190.625"/>
<line x1="442.308" y1 ="184.375"  x2 ="442.308"  y2 ="190.625"/>
<line x1="461.538" y1 ="184.375"  x2 ="461.538"  y2 ="190.625"/>
<line x1="480.769" y1 ="184.375"  x2 ="480.769"  y2 ="190.625"/>
<line x1="500" y1 ="184.375"  x2 ="500"  y2 ="190.625"/>
<line x1="292.308" y1 ="500"  x2 ="284.615"  y2 ="500"/>
<line x1="292.308" y1 ="484.375"  x2 ="284.615"  y2 ="484.375"/>
<line x1="292.308" y1 ="468.75"  x2 ="284.615"  y2 ="468.75"/>
<line x1="292.308" y1 ="453.125"  x2 ="284.615"  y2 ="453.125"/>
<line x1="292.308" y1 ="437.5"  x2 ="284.615"  y2 ="437.5"/>
<line x1="292.308" y1 ="421.875"  x2 ="284.615"  y2 ="421.875"/>
<line x1="292.308" y1 ="406.25"  x2 ="284.615"  y2 ="406.25"/>
<line x1="292.308" y1 ="390.625"  x2 ="284.615"  y2 ="390.625"/>
<line x1="292.308" y1 ="375"  x2 ="284.615"  y2 ="375"/>
<line x1="292.308" y1 ="359.375"  x2 ="284.615"  y2 ="359.375"/>
<line x1="292.308" y1 ="343.75"  x2 ="284.615"  y2 ="343.75"/>
<line x1="292.308" y1 ="328.125"  x2 ="284.615"  y2 ="328.125"/>
<line x1="292.308" y1 ="312.5"  x2 ="284.615"  y2 ="312.5"/>
<line x1="292.308" y1 ="296.875"  x2 ="284.615"  y2 ="296.875"/>
<line x1="292.308" y1 ="281.25"  x2 ="284.615"  y2 ="281.25"/>
<line x1="292.308" y1 ="265.625"  x2 ="284.615"  y2 ="265.625"/>
<line x1="292.308" y1 ="250"  x2 ="284.615"  y2 ="250"/>
<line x1="292.308" y1 ="234.375"  x2 ="284.615"  y2 ="234.375"/>
<line x1="292.308" y1 ="218.75"  x2 ="284.615"  y2 ="218.75"/>
<line x1="292.308" y1 ="203.125"  x2 ="284.615"  y2 ="203.125"/>
<line x1="292.308" y1 ="187.5"  x2 ="284.615"  y2 ="187.5"/>
<line x1="292.308" y1 ="171.875"  x2 ="284.615"  y2 ="171.875"/>
<line x1="292.308" y1 ="156.25"  x2 ="284.615"  y2 ="156.25"/>
<line x1="292.308" y1 ="140.625"  x2 ="284.615"  y2 ="140.625"/>
<line x1="292.308" y1 ="125"  x2 ="284.615"  y2 ="125"/>
<line x1="292.308" y1 ="109.375"  x2 ="284.615"  y2 ="109.375"/>
<line x1="292.308" y1 ="93.75"  x2 ="284.615"  y2 ="93.75"/>
<line x1="292.308" y1 ="78.125"  x2 ="284.615"  y2 ="78.125"/>
<line x1="292.308" y1 ="62.5"  x2 ="284.615"  y2 ="62.5"/>
<line x1="292.308" y1 ="46.875"  x2 ="284.615"  y2 ="46.875"/>
<line x1="292.308" y1 ="31.25"  x2 ="284.615"  y2 ="31.25"/>
<line x1="292.308" y1 ="15.625"  x2 ="284.615"  y2 ="15.625"/>
<line x1="292.308" y1 ="0"  x2 ="284.615"  y2 ="0"/>
<line x1="96.1538" y1 ="265.625"  x2 ="115.385"  y2 ="257.813"/>
<line x1="115.385" y1 ="257.813"  x2 ="134.615"  y2 ="250"/>
<line x1="134.615" y1 ="250"  x2 ="153.846"  y2 ="242.188"/>
<line x1="153.846" y1 ="242.188"  x2 ="173.077"  y2 ="234.375"/>
<line x1="173.077" y1 ="234.375"  x2 ="192.308"  y2 ="226.563"/>
<line x1="192.308" y1 ="226.563"  x2 ="211.538"  y2 ="218.75"/>
<line x1="211.538" y1 ="218.75"  x2 ="230.769"  y2 ="210.938"/>
<line x1="230.769" y1 ="210.938"  x2 ="250"  y2 ="203.125"/>
<line x1="250" y1 ="203.125"  x2 ="269.231"  y2 ="195.313"/>
<line x1="269.231" y1 ="195.313"  x2 ="288.462"  y2 ="187.5"/>
<line x1="288.462" y1 ="187.5"  x2 ="307.692"  y2 ="179.688"/>
<line x1="307.692" y1 ="179.688"  x2 ="326.923"  y2 ="171.875"/>
<line x1="326.923" y1 ="171.875"  x2 ="346.154"  y2 ="164.063"/>
<line x1="346.154" y1 ="164.063"  x2 ="365.385"  y2 ="156.25"/>
<line x1="365.385" y1 ="156.25"  x2 ="384.615"  y2 ="148.438"/>
<line x1="384.615" y1 ="148.438"  x2 ="403.846"  y2 ="140.625"/>
<line x1="403.846" y1 ="140.625"  x2 ="423.077"  y2 ="132.813"/>
<line x1="423.077" y1 ="132.813"  x2 ="442.308"  y2 ="125"/>
<line x1="442.308" y1 ="125"  x2 ="461.538"  y2 ="117.188"/>
<line x1="461.538" y1 ="117.188"  x2 ="480.769"  y2 ="109.375"/>
<circle cx="96.1538" cy ="265.625" r="5" fill="red"/>
<circle cx="115.385" cy ="257.813" r="5" fill="red"/>
<circle cx="134.615" cy ="250" r="5" fill="red"/>
<circle cx="153.846" cy ="242.188" r="5" fill="red"/>
<circle cx="173.077" cy ="234.375" r="5" fill="red"/>
<circle cx="192.308" cy ="226.563" r="5" fill="red"/>
<circle cx="211.538" cy ="218.75" r="5" fill="red"/>
<circle cx="230.769" cy ="210.938" r="5" fill="red"/>
<circle cx="250" cy ="203.125" r="5" fill="red"/>
<circle cx="269.231" cy ="195.313" r="5" fill="red"/>
<circle cx="288.462" cy ="187.5" r="5" fill="red"/>
<circle cx="307.692" cy ="179.688" r="5" fill="red"/>
<circle cx="326.923" cy ="171.875" r="5" fill="red"/>
<circle cx="346.154" cy ="164.063" r="5" fill="red"/>
<circle cx="365.385" cy ="156.25" r="5" fill="red"/>
<circle cx="384.615" cy ="148.438" r="5" fill="red"/>
<circle cx="403.846" cy ="140.625" r="5" fill="red"/>
<circle cx="423.077" cy ="132.813" r="5" fill="red"/>
<circle cx="442.308" cy ="125" r="5" fill="red"/>
<circle cx="461.538" cy ="117.188" r="5" fill="red"/>
<circle cx="480.769" cy ="109.375" r="5" fill="red"/>
<line x1="96.1538" y1 ="31.25"  x2 ="115.385"  y2 ="105.469"/>
<line x1="115.385" y1 ="105.469"  x2 ="134.615"  y2 ="171.875"/>
<line x1="134.615" y1 ="171.875"  x2 ="153.846"  y2 ="230.469"/>
<line x1="153.846" y1 ="230.469"  x2 ="173.077"  y2 ="281.25"/>
<line x1="173.077" y1 ="281.25"  x2 ="192.308"  y2 ="324.219"/>
<line x1="192.308" y1 ="324.219"  x2 ="211.538"  y2 ="359.375"/>
<line x1="211.538" y1 ="359.375"  x2 ="230.769"  y2 ="386.719"/>
<line x1="230.769" y1 ="386.719"  x2 ="250"  y2 ="406.25"/>
<line x1="250" y1 ="406.25"  x2 ="269.231"  y2 ="417.969"/>
<line x1="269.231" y1 ="417.969"  x2 ="288.462"  y2 ="421.875"/>
<line x1="288.462" y1 ="421.875"  x2 ="307.692"  y2 ="417.969"/>
<line x1="307.692" y1 ="417.969"  x2 ="326.923"  y2 ="406.25"/>
<line x1="326.923" y1 ="406.25"  x2 ="346.154"  y2 ="386.719"/>
<line x1="346.154" y1 ="386.719"  x2 ="365.385"  y2 ="359.375"/>
<line x1="365.385" y1 ="359.375"  x2 ="384.615"  y2 ="324.219"/>
<line x1="384.615" y1 ="324.219"  x2 ="403.846"  y2 ="281.25"/>
<line x1="403.846" y1 ="281.25"  x2 ="423.077"  y2 ="230.469"/>
<line x1="423.077" y1 ="230.469"  x2 ="442.308"  y2 ="171.875"/>
<line x1="442.308" y1 ="171.875"  x2 ="461.538"  y2 ="105.469"/>
<line x1="461.538" y1 ="105.469"  x2 ="480.769"  y2 ="31.25"/>
<circle cx="96.1538" cy ="31.25" r="5" fill="red"/>
<circle cx="115.385" cy ="105.469" r="5" fill="red"/>
<circle cx="134.615" cy ="171.875" r="5" fill="red"/>
<circle cx="153.846" cy ="230.469" r="5" fill="red"/>
<circle cx="173.077" cy ="281.25" r="5" fill="red"/>
<circle cx="192.308" cy ="324.219" r="5" fill="red"/>
<circle cx="211.538" cy ="359.375" r="5" fill="red"/>
<circle cx="230.769" cy ="386.719" r="5" fill="red"/>
<circle cx="250" cy ="406.25" r="5" fill="red"/>
<circle cx="269.231" cy ="417.969" r="5" fill="red"/>
<circle cx="288.462" cy ="421.875" r="5" fill="red"/>
<circle cx="307.692" cy ="417.969" r="5" fill="red"/>
<circle cx="326.923" cy ="406.25" r="5" fill="red"/>
<circle cx="346.154" cy ="386.719" r="5" fill="red"/>
<circle cx="365.385" cy ="359.375" r="5" fill="red"/>
<circle cx="384.615" cy ="324.219" r="5" fill="red"/>
<circle cx="403.846" cy ="281.25" r="5" fill="red"/>
<circle cx="423.077" cy ="230.469" r="5" fill="red"/>
<circle cx="442.308" cy ="171.875" r="5" fill="red"/>
<circle cx="461.538" cy ="105.469" r="5" fill="red"/>
<circle cx="480.769" cy ="31.25" r="5" fill="red"/>
</g>
</svg>
