<?xml version="1.0" encoding="UTF-8" standalone="no"?>
<svg width="500" height ="350" version="1.1"
xmlns:svg ="http://www.w3.org/2000/svg"
xmlns:rdf="http://www.w3.org/1999/02/22-rdf-syntax-ns#"
xmlns:cc="http://web.resource.org/cc/"
xmlns:dc="http://purl.org/dc/elements/1.1/"
xmlns ="http://www.w3.org/2000/svg"
>
<!-- SVG plot written using Boost.Plot program (Creator Jacob Voytko) --> 
<!-- Use, modification and distribution of Boost.Plot subject to the --> 
<!-- Boost Software License, Version 1.0.--> 
<!-- (See accompanying file LICENSE_1_0.txt --> 
<!-- or copy at http://www.boost.org/LICENSE_1_0.txt) --> 

<!-- File ./1d_full_layout.svg --> 
<g id="imageBackground" stroke="rgb(255,255,0)" fill="rgb(67,111,69)" stroke-width="1"><rect x="0" y="0" width="500" height="350"/></g>
<g id="plotBackground" stroke="rgb(255,255,0)" fill="rgb(136,188,126)" stroke-width="1"><rect x="11" y="83.5" width="362" height="214"/></g>
<g id="xMinorGrid" stroke="rgb(200,220,255)" stroke-width="0.5"></g>
<g id="xMajorGrid" stroke="rgb(200,220,255)" stroke-width="1"></g>
<g id="xAxis" stroke="rgb(0,0,0)" stroke-width="1"><line x1="94.6" y1="83.5" x2="94.6" y2="297"/><line x1="11" y1="197" x2="373" y2="197"/><line x1="11" y1="297" x2="373" y2="297"/></g>
<g id="xMinorTicks" stroke="rgb(0,0,0)" stroke-width="1"><path d="M108,297 L108,304 M122,297 L122,304 M136,297 L136,304 M164,297 L164,304 M178,297 L178,304 M192,297 L192,304 M220,297 L220,304 M234,297 L234,304 M248,297 L248,304 M276,297 L276,304 M290,297 L290,304 M303,297 L303,304 M331,297 L331,304 M345,297 L345,304 M359,297 L359,304 M80.6,297 L80.6,304 M66.7,297 L66.7,304 M52.8,297 L52.8,304 M24.9,297 L24.9,304 M11,297 L11,304 " fill="none"/></g>
<g id="xMajorTicks" stroke="rgb(0,0,0)" stroke-width="1"><path d="M94.6,297 L94.6,311 M150,297 L150,311 M206,297 L206,311 M262,297 L262,311 M317,297 L317,311 M373,297 L373,311 M94.6,297 L94.6,311 M38.9,297 L38.9,311 " fill="none"/></g>
<g id="plotLabels">
<text x="94.6" y="289" text-anchor="middle" font-size="12" font-family="Verdana">0</text>
<text x="150" y="289" text-anchor="middle" font-size="12" font-family="Verdana">2</text>
<text x="206" y="289" text-anchor="middle" font-size="12" font-family="Verdana">4</text>
<text x="262" y="289" text-anchor="middle" font-size="12" font-family="Verdana">6</text>
<text x="317" y="289" text-anchor="middle" font-size="12" font-family="Verdana">8</text>
<text x="373" y="289" text-anchor="middle" font-size="12" font-family="Verdana">10</text>
<text x="94.6" y="289" text-anchor="middle" font-size="12" font-family="Verdana">0</text>
<text x="38.9" y="289" text-anchor="middle" font-size="12" font-family="Verdana">-2</text></g>
<g id="xLabel">
<text x="192" y="335" text-anchor="middle" font-size="14" font-family="Verdana">Time in Months</text></g>
<g id="plotPoints"><g stroke="rgb(0,0,255)"><line x1="94.6" y1="195" x2="94.6" y2="185"/><line x1="122" y1="195" x2="122" y2="185"/><line x1="134" y1="195" x2="134" y2="185"/><line x1="143" y1="195" x2="143" y2="185"/><line x1="150" y1="195" x2="150" y2="185"/><line x1="157" y1="195" x2="157" y2="185"/><line x1="163" y1="195" x2="163" y2="185"/><line x1="168" y1="195" x2="168" y2="185"/><line x1="173" y1="195" x2="173" y2="185"/><line x1="178" y1="195" x2="178" y2="185"/></g>
<g stroke="rgb(255,165,0)"><line x1="290" y1="195" x2="290" y2="185"/><line x1="150" y1="195" x2="150" y2="185"/><line x1="66.7" y1="195" x2="66.7" y2="185"/><line x1="38.9" y1="195" x2="38.9" y2="185"/></g>
<g stroke="rgb(255,0,0)"><line x1="66.7" y1="195" x2="66.7" y2="185"/><line x1="122" y1="195" x2="122" y2="185"/><line x1="178" y1="195" x2="178" y2="185"/><line x1="234" y1="195" x2="234" y2="185"/><line x1="290" y1="195" x2="290" y2="185"/><line x1="345" y1="195" x2="345" y2="185"/></g>
</g>
<g id="legendBackground" stroke="rgb(102,102,84)" fill="rgb(207,202,167)" stroke-width="1"><rect x="385" y="83.5" width="104" height="135"/><rect x="385" y="83.5" width="104" height="135"/></g>
<g id="legendPoints"><g stroke="rgb(0,0,255)" stroke-width="2"><line x1="400" y1="149" x2="400" y2="139"/></g>
<g stroke="rgb(255,165,0)" stroke-width="2"><line x1="400" y1="179" x2="400" y2="169"/></g>
<g stroke="rgb(255,0,0)" stroke-width="2"><line x1="400" y1="209" x2="400" y2="199"/></g>
</g>
<g id="legendText">
<text x="437" y="114" text-anchor="middle" font-size="15" font-family="Verdana">Animals</text>
<text x="423" y="144" font-size="15" font-family="Verdana">Lions</text>
<text x="423" y="174" font-size="15" font-family="Verdana">Tigers</text>
<text x="423" y="204" font-size="15" font-family="Verdana">Bears</text></g>
<g id="title" fill="rgb(255,255,255)">
<text x="250" y="58" text-anchor="middle" font-size="29" font-family="Verdana">Animal Lives</text></g>
</svg>
