<?xml version="1.0" encoding="UTF-8" standalone="no"?>
<svg width="500" height ="200" version="1.1"
xmlns:svg ="http://www.w3.org/2000/svg"
xmlns:rdf="http://www.w3.org/1999/02/22-rdf-syntax-ns#"
xmlns:cc="http://web.resource.org/cc/"
xmlns:dc="http://purl.org/dc/elements/1.1/"
xmlns ="http://www.w3.org/2000/svg"
>
<!-- SVG plot written using Boost.Plot program (Creator Jacob Voytko) --> 
<!-- Use, modification and distribution of Boost.Plot subject to the --> 
<!-- Boost Software License, Version 1.0.--> 
<!-- (See accompanying file LICENSE_1_0.txt --> 
<!-- or copy at http://www.boost.org/LICENSE_1_0.txt) --> 

<!-- File ./1d_simple.svg --> 
<g id="imageBackground" stroke="rgb(0,0,255)" fill="rgb(255,255,255)" stroke-width="1"><rect x="0" y="0" width="500" height="200"/></g>
<g id="plotBackground" stroke="rgb(255,255,0)" fill="rgb(255,255,255)" stroke-width="1"><rect x="11" y="56" width="336" height="83.2"/></g>
<g id="xMinorGrid" stroke="rgb(200,220,255)" stroke-width="0.5"></g>
<g id="xMajorGrid" stroke="rgb(200,220,255)" stroke-width="1"></g>
<g id="xAxis" stroke="rgb(0,0,0)" stroke-width="1"><line x1="39" y1="56" x2="39" y2="139"/><line x1="11" y1="109" x2="347" y2="109"/><line x1="11" y1="139" x2="347" y2="139"/></g>
<g id="xMinorTicks" stroke="rgb(0,0,0)" stroke-width="1"><path d="M50.2,139 L50.2,141 M61.4,139 L61.4,141 M72.6,139 L72.6,141 M83.8,139 L83.8,141 M106,139 L106,141 M117,139 L117,141 M129,139 L129,141 M140,139 L140,141 M162,139 L162,141 M173,139 L173,141 M185,139 L185,141 M196,139 L196,141 M218,139 L218,141 M229,139 L229,141 M241,139 L241,141 M252,139 L252,141 M274,139 L274,141 M285,139 L285,141 M297,139 L297,141 M308,139 L308,141 M330,139 L330,141 M341,139 L341,141 M27.8,139 L27.8,141 M16.6,139 L16.6,141 " fill="none"/></g>
<g id="xMajorTicks" stroke="rgb(0,0,0)" stroke-width="2"><path d="M39,139 L39,144 M95,139 L95,144 M151,139 L151,144 M207,139 L207,144 M263,139 L263,144 M319,139 L319,144 M39,139 L39,144 " fill="none"/></g>
<g id="plotLabels">
<text x="39" y="159" text-anchor="middle" font-size="12" font-family="Verdana">0</text>
<text x="95" y="159" text-anchor="middle" font-size="12" font-family="Verdana">2</text>
<text x="151" y="159" text-anchor="middle" font-size="12" font-family="Verdana">4</text>
<text x="207" y="159" text-anchor="middle" font-size="12" font-family="Verdana">6</text>
<text x="263" y="159" text-anchor="middle" font-size="12" font-family="Verdana">8</text>
<text x="319" y="159" text-anchor="middle" font-size="12" font-family="Verdana">10</text>
<text x="39" y="159" text-anchor="middle" font-size="12" font-family="Verdana">0</text></g>
<g id="xLabel">
<text x="179" y="185" text-anchor="middle" font-size="14" font-family="Verdana"></text></g>
<g id="plotPoints"><g stroke="rgb(0,0,0)"><line x1="126" y1="108" x2="126" y2="87.6"/><line x1="157" y1="108" x2="157" y2="87.6"/></g>
<g stroke="rgb(0,0,0)"><line x1="97.8" y1="108" x2="97.8" y2="87.6"/><line x1="257" y1="108" x2="257" y2="87.6"/></g>
</g>
<g id="legendBackground" stroke="rgb(255,255,0)" fill="rgb(255,0,0)" stroke-width="1"><rect x="367" y="56" width="122" height="70"/><rect x="367" y="56" width="122" height="70"/></g>
<g id="legendPoints"><g stroke="rgb(0,0,0)" stroke-width="2"><line x1="381" y1="94" x2="381" y2="74"/><line x1="402" y1="84" x2="416" y2="84"/></g>
<g stroke="rgb(0,0,0)" stroke-width="2"><line x1="381" y1="122" x2="381" y2="102"/><line x1="402" y1="112" x2="416" y2="112"/></g>
</g>
<g id="legendText">
<text x="423" y="84" font-size="14" font-family="Verdana">Dan</text>
<text x="423" y="112" font-size="14" font-family="Verdana">Elaine</text></g>
<g id="title">
<text x="250" y="36" text-anchor="middle" font-size="18" font-family="Verdana">Race Times</text></g>
</svg>
