<?xml version="1.0" encoding="UTF-8" standalone="no"?>
<svg width="500" height ="200" version="1.1"
xmlns:svg ="http://www.w3.org/2000/svg"
xmlns:rdf="http://www.w3.org/1999/02/22-rdf-syntax-ns#"
xmlns:cc="http://web.resource.org/cc/"
xmlns:dc="http://purl.org/dc/elements/1.1/"
xmlns ="http://www.w3.org/2000/svg"
>
<!-- SVG plot written using Boost.Plot program (Creator Jacob Voytko) --> 
<!-- Use, modification and distribution of Boost.Plot subject to the --> 
<!-- Boost Software License, Version 1.0.--> 
<!-- (See accompanying file LICENSE_1_0.txt --> 
<!-- or copy at http://www.boost.org/LICENSE_1_0.txt) --> 

<!-- File auto_1d_plot.svg --> 
<g id="imageBackground" stroke="rgb(255,255,0)" fill="rgb(255,255,255)" stroke-width="1"><rect x="0" y="0" width="500" height="200"/></g>
<g id="plotBackground" stroke="rgb(255,255,0)" fill="rgb(255,255,255)" stroke-width="1"><rect x="11" y="56" width="478" height="83.2"/></g>
<g id="xMinorGrid" stroke="rgb(200,220,255)" stroke-width="0.5"></g>
<g id="xMajorGrid" stroke="rgb(200,220,255)" stroke-width="1"></g>
<g id="xAxis" stroke="rgb(0,0,0)" stroke-width="1"><line x1="11" y1="109" x2="489" y2="109"/><line x1="11" y1="139" x2="489" y2="139"/></g>
<g id="xMinorTicks" stroke="rgb(0,0,0)" stroke-width="1"><path d="M21.6,139 L21.6,141 M32.2,139 L32.2,141 M42.9,139 L42.9,141 M53.5,139 L53.5,141 M74.7,139 L74.7,141 M85.4,139 L85.4,141 M96,139 L96,141 M107,139 L107,141 M128,139 L128,141 M138,139 L138,141 M149,139 L149,141 M160,139 L160,141 M181,139 L181,141 M192,139 L192,141 M202,139 L202,141 M213,139 L213,141 M234,139 L234,141 M245,139 L245,141 M255,139 L255,141 M266,139 L266,141 M287,139 L287,141 M298,139 L298,141 M308,139 L308,141 M319,139 L319,141 M340,139 L340,141 M351,139 L351,141 M362,139 L362,141 M372,139 L372,141 M393,139 L393,141 M404,139 L404,141 M415,139 L415,141 M425,139 L425,141 M447,139 L447,141 M457,139 L457,141 M468,139 L468,141 M478,139 L478,141 " fill="none"/></g>
<g id="xMajorTicks" stroke="rgb(0,0,0)" stroke-width="2"><path d="M11,139 L11,144 M64.1,139 L64.1,144 M117,139 L117,144 M170,139 L170,144 M223,139 L223,144 M277,139 L277,144 M330,139 L330,144 M383,139 L383,144 M436,139 L436,144 M489,139 L489,144 " fill="none"/></g>
<g id="plotLabels">
<text x="11" y="159" text-anchor="middle" font-size="12" font-family="Verdana">1</text>
<text x="64.1" y="159" text-anchor="middle" font-size="12" font-family="Verdana">1.5</text>
<text x="117" y="159" text-anchor="middle" font-size="12" font-family="Verdana">2</text>
<text x="170" y="159" text-anchor="middle" font-size="12" font-family="Verdana">2.5</text>
<text x="223" y="159" text-anchor="middle" font-size="12" font-family="Verdana">3</text>
<text x="277" y="159" text-anchor="middle" font-size="12" font-family="Verdana">3.5</text>
<text x="330" y="159" text-anchor="middle" font-size="12" font-family="Verdana">4</text>
<text x="383" y="159" text-anchor="middle" font-size="12" font-family="Verdana">4.5</text>
<text x="436" y="159" text-anchor="middle" font-size="12" font-family="Verdana">5</text>
<text x="489" y="159" text-anchor="middle" font-size="12" font-family="Verdana">5.5</text></g>
<g id="xLabel">
<text x="250" y="185" text-anchor="middle" font-size="14" font-family="Verdana"></text></g>
<g id="plotPoints"><g stroke="rgb(0,0,0)"><line x1="21.6" y1="103" x2="21.6" y2="92.6"/><line x1="351" y1="103" x2="351" y2="92.6"/><line x1="255" y1="103" x2="255" y2="92.6"/><line x1="478" y1="103" x2="478" y2="92.6"/></g>
<g stroke="rgb(0,0,0)"><line x1="32.2" y1="103" x2="32.2" y2="92.6"/><line x1="149" y1="103" x2="149" y2="92.6"/><line x1="266" y1="103" x2="266" y2="92.6"/><line x1="383" y1="103" x2="383" y2="92.6"/></g>
<g stroke="rgb(0,0,0)"><line x1="32.2" y1="103" x2="32.2" y2="92.6"/><line x1="149" y1="103" x2="149" y2="92.6"/><line x1="266" y1="103" x2="266" y2="92.6"/><line x1="383" y1="103" x2="383" y2="92.6"/></g>
<g stroke="rgb(0,0,0)"><line x1="21.6" y1="103" x2="21.6" y2="92.6"/><line x1="351" y1="103" x2="351" y2="92.6"/><line x1="255" y1="103" x2="255" y2="92.6"/></g>
</g>
<g id="limitPoints" stroke="rgb(211,211,211)" fill="rgb(255,0,0)"><polygon points=" 484,87.6 494,87.6 489,97.6"/></g>
<g id="title">
<text x="250" y="36" text-anchor="middle" font-size="18" font-family="Verdana"></text></g>
</svg>
