<?xml version="1.0" encoding="UTF-8" standalone="no"?><!DOCTYPE svg PUBLIC "-//W3C//DTD SVG 1.1//EN" "http://www.w3.org/graphics/svg/1.1/dtd/svg11.dtd">
<svg width="600" height ="400" version="1.1" xmlns="http://www.w3.org/2000/svg"
 xmlns:xlink="http://www.w3.org/1999/xlink"
 xmlns:ev="http://www.w3.org/2001/xml-events">

<!-- SVG plot written using Boost.Plot program (Creator Jacob Voytko) --> 
<!-- Use, modification and distribution of Boost.Plot subject to the --> 
<!-- Boost Software License, Version 1.0.--> 
<!-- (See accompanying file LICENSE_1_0.txt --> 
<!-- or copy at http://www.boost.org/LICENSE_1_0.txt) --> 

<clipPath id="plot_window"><rect x="75" y="52" width="523" height="291"/></clipPath>
<g id="imageBackground" stroke="rgb(255,255,0)" fill="rgb(255,255,255)" stroke-width="1"><rect x="0" y="0" width="600" height="400"/></g>
<g id="plotBackground" stroke="rgb(255,255,0)" fill="rgb(255,255,255)" stroke-width="1"></g>
<g id="yMinorGrid" stroke="rgb(200,220,255)" stroke-width="0.5"></g>
<g id="yMajorGrid" stroke="rgb(200,220,255)" stroke-width="1"></g>
<g id="xMinorGrid" stroke="rgb(200,220,255)" stroke-width="0.5"></g>
<g id="xMajorGrid" stroke="rgb(200,220,255)" stroke-width="1"></g>
<g id="yAxis" stroke="rgb(0,0,0)" stroke-width="2"><line x1="337" y1="51" x2="337" y2="344"/></g>
<g id="xAxis" stroke="rgb(0,0,0)" stroke-width="2"><line x1="74" y1="198" x2="599" y2="198"/></g>
<g id="yMinorTicks" stroke="rgb(0,0,0)" stroke-width="1"><path d="M332,189 L337,189 M332,181 L337,181 M332,173 L337,173 M332,156 L337,156 M332,148 L337,148 M332,139 L337,139 M332,123 L337,123 M332,114 L337,114 M332,106 L337,106 M332,89.3 L337,89.3 M332,81 L337,81 M332,72.7 L337,72.7 M332,56 L337,56 M332,206 L337,206 M332,214 L337,214 M332,223 L337,223 M332,231 L337,231 M332,239 L337,239 M332,248 L337,248 M332,256 L337,256 M332,264 L337,264 M332,273 L337,273 M332,281 L337,281 M332,289 L337,289 M332,298 L337,298 M332,306 L337,306 M332,314 L337,314 M332,323 L337,323 M332,331 L337,331 M332,339 L337,339 "/></g>
<g id="xMinorTicks" stroke="rgb(0,0,0)" stroke-width="1"><path d="M351,198 L351,203 M366,198 L366,203 M381,198 L381,203 M411,198 L411,203 M426,198 L426,203 M441,198 L441,203 M471,198 L471,203 M486,198 L486,203 M501,198 L501,203 M530,198 L530,203 M545,198 L545,203 M560,198 L560,203 M590,198 L590,203 M322,198 L322,203 M307,198 L307,203 M292,198 L292,203 M262,198 L262,203 M247,198 L247,203 M232,198 L232,203 M202,198 L202,203 M187,198 L187,203 M172,198 L172,203 M143,198 L143,203 M128,198 L128,203 M113,198 L113,203 M82.9,198 L82.9,203 "/></g>
<g id="yMajorTicks" stroke="rgb(0,0,0)" stroke-width="2"><path d="M327,164 L337,164 M327,131 L337,131 M327,97.6 L337,97.6 M327,64.3 L337,64.3 M327,231 L337,231 M327,264 L337,264 M327,298 L337,298 M327,331 L337,331 "/></g>
<g id="xMajorTicks" stroke="rgb(0,0,0)" stroke-width="2"><path d="M396,198 L396,208 M456,198 L456,208 M515,198 L515,208 M575,198 L575,208 M277,198 L277,208 M217,198 L217,208 M158,198 L158,208 M97.9,198 L97.9,208 "/></g>
<g id="plotLabels" fill="rgb(0,0,0)"><text x="396" y="226" text-anchor="middle" font-family="Verdana" font-size="12">0.5</text><text x="456" y="226" text-anchor="middle" font-family="Verdana" font-size="12">1</text><text x="515" y="226" text-anchor="middle" font-family="Verdana" font-size="12">1.5</text><text x="575" y="226" text-anchor="middle" font-family="Verdana" font-size="12">2</text><text x="277" y="226" text-anchor="middle" font-family="Verdana" font-size="12">-0.5</text><text x="217" y="226" text-anchor="middle" font-family="Verdana" font-size="12">-1</text><text x="158" y="226" text-anchor="middle" font-family="Verdana" font-size="12">-1.5</text><text x="97.9" y="226" text-anchor="middle" font-family="Verdana" font-size="12">-2</text><text x="315" y="170" text-anchor="middle" font-family="Verdana" font-size="12">0.5</text><text x="315" y="137" text-anchor="middle" font-family="Verdana" font-size="12">1</text><text x="315" y="104" text-anchor="middle" font-family="Verdana" font-size="12">1.5</text><text x="315" y="70.3" text-anchor="middle" font-family="Verdana" font-size="12">2</text><text x="315" y="237" text-anchor="middle" font-family="Verdana" font-size="12">-0.5</text><text x="315" y="270" text-anchor="middle" font-family="Verdana" font-size="12">-1</text><text x="315" y="304" text-anchor="middle" font-family="Verdana" font-size="12">-1.5</text><text x="315" y="337" text-anchor="middle" font-family="Verdana" font-size="12">-2</text></g>
<g id="yLabel" fill="rgb(0,0,0)"><text x="21" y="198" text-anchor="middle" transform = "rotate(-90 21 198 )" font-family="Verdana" font-size="14">y</text></g>
<g id="xLabel" fill="rgb(0,0,0)"><text x="337" y="386" text-anchor="middle" font-family="Verdana" font-size="14">x</text></g>
<g id="plotLines" stroke-width="2"><g clip-path="url(#plot_window)" stroke="rgb(0,0,0)"><path d="M97.9,198 L110,156 L110,239 L122,140 L122,256 L134,127 L134,268 L146,118 L146,278 L158,109 L158,286 L169,102 L169,293 L181,96.3 L181,299 L193,91 L193,304 L205,86.3 L205,309 L217,82.2 L217,313 L229,78.6 L229,317 L241,75.5 L241,320 L253,72.8 L253,322 L265,70.5 L265,325 L277,68.6 L277,327 L289,67 L289,328 L301,65.8 L301,329 L313,65 L313,330 L325,64.5 L325,331 L336,64.3 L337,331 L348,64.5 L348,331 L360,65 L360,330 L372,65.8 L372,329 L384,67 L384,328 L396,68.6 L396,327 L408,70.5 L408,325 L420,72.8 L420,322 L432,75.5 L432,320 L444,78.6 L444,317 L456,82.2 L456,313 L468,86.3 L468,309 L480,91 L480,304 L492,96.3 L492,299 L504,102 L504,293 L515,109 L515,286 L527,118 L527,278 L539,127 L539,268 L551,140 L551,256 L563,156 L563,239 L575,198 " fill="none"/></g>
</g>
<g id="plotPoints" clip-path="url(#plot_window)"><g stroke="rgb(0,0,0)" fill="rgb(255,255,255)"></g>
</g>
<g id="limitPoints" stroke="rgb(119,136,153)" fill="rgb(250,235,215)"></g>
<g id="legendBackground"></g>
<g id="legendPoints"></g>
<g id="legendText" fill="rgb(0,0,0)"></g>
<g id="title" fill="rgb(0,0,0)"><text x="300" y="40" text-anchor="middle" font-family="Verdana" font-size="20">Circle</text></g>
</svg>
