<?xml version="1.0" encoding="UTF-8" standalone="no"?>
<svg
   xmlns:dc="http://purl.org/dc/elements/1.1/"
   xmlns:cc="http://web.resource.org/cc/"
   xmlns:rdf="http://www.w3.org/1999/02/22-rdf-syntax-ns#"
   xmlns:svg="http://www.w3.org/2000/svg"
   xmlns="http://www.w3.org/2000/svg"
   xmlns:sodipodi="http://sodipodi.sourceforge.net/DTD/sodipodi-0.dtd"
   xmlns:inkscape="http://www.inkscape.org/namespaces/inkscape"
   width="500"
   height="400"
   version="1.1"
   id="svg2"
   sodipodi:version="0.32"
   inkscape:version="0.44.1"
   sodipodi:docname="default_2d_plot_inkscape.svg"
   sodipodi:docbase="J:\Cpp\SVG\default_2d_plot">
  <metadata
     id="metadata188">
    <rdf:RDF>
      <cc:Work
         rdf:about="">
        <dc:format>image/svg+xml</dc:format>
        <dc:type
           rdf:resource="http://purl.org/dc/dcmitype/StillImage" />
      </cc:Work>
    </rdf:RDF>
  </metadata>
  <defs
     id="defs186" />
  <sodipodi:namedview
     inkscape:window-height="588"
     inkscape:window-width="909"
     inkscape:pageshadow="2"
     inkscape:pageopacity="0.0"
     guidetolerance="10.0"
     gridtolerance="10.0"
     objecttolerance="10.0"
     borderopacity="1.0"
     bordercolor="#666666"
     pagecolor="#ffffff"
     id="base"
     inkscape:zoom="0.91"
     inkscape:cx="250"
     inkscape:cy="200"
     inkscape:window-x="1416"
     inkscape:window-y="136"
     inkscape:current-layer="svg2" />
<!-- SVG plot written using Boost.Plot program (Creator Jacob Voytko) --><!-- Use, modification and distribution of Boost.Plot subject to the --><!-- Boost Software License, Version 1.0.--><!-- (See accompanying file LICENSE_1_0.txt --><!-- or copy at http://www.boost.org/LICENSE_1_0.txt) -->  <clipPath
     id="plot_window">
    <rect
       x="71.2"
       y="58"
       width="416"
       height="279"
       id="rect5" />
  </clipPath>
  <g
     id="imageBackground"
     stroke="rgb(255,255,0)"
     fill="rgb(255,255,255)"
     stroke-width="2">
    <rect
       x="0"
       y="0"
       width="500"
       height="400"
       id="rect8" />
  </g>
  <g
     id="plotBackground"
     stroke="rgb(119,136,153)"
     fill="rgb(255,255,255)"
     stroke-width="2">
    <rect
       x="70.2"
       y="57"
       width="418"
       height="281"
       id="rect11" />
  </g>
  <g
     id="yMinorGrid"
     stroke="rgb(200,220,255)"
     stroke-width="0.5" />
  <g
     id="yMajorGrid"
     stroke="rgb(200,220,255)"
     stroke-width="1" />
  <g
     id="xMinorGrid"
     stroke="rgb(200,220,255)"
     stroke-width="0.5" />
  <g
     id="xMajorGrid"
     stroke="rgb(200,220,255)"
     stroke-width="1" />
  <g
     id="yAxis"
     stroke="rgb(0,0,0)"
     stroke-width="1">
    <line
       x1="279"
       y1="57"
       x2="279"
       y2="343"
       id="line18" />
    <line
       x1="70.2"
       y1="57"
       x2="70.2"
       y2="338"
       id="line20" />
  </g>
  <g
     id="xAxis"
     stroke="rgb(0,0,0)"
     stroke-width="1">
    <line
       x1="65.2"
       y1="198"
       x2="488"
       y2="198"
       id="line23" />
    <line
       x1="65.2"
       y1="338"
       x2="488"
       y2="338"
       id="line25" />
  </g>
  <g
     id="yMinorTicks"
     stroke="rgb(0,0,0)"
     stroke-width="1">
    <path
       d="M68.2,192 L70.2,192 M68.2,186 L70.2,186 M68.2,181 L70.2,181 M68.2,175 L70.2,175 M68.2,164 L70.2,164 M68.2,158 L70.2,158 M68.2,153 L70.2,153 M68.2,147 L70.2,147 M68.2,136 L70.2,136 M68.2,130 L70.2,130 M68.2,124 L70.2,124 M68.2,119 L70.2,119 M68.2,108 L70.2,108 M68.2,102 L70.2,102 M68.2,96.4 L70.2,96.4 M68.2,90.7 L70.2,90.7 M68.2,79.5 L70.2,79.5 M68.2,73.9 L70.2,73.9 M68.2,68.2 L70.2,68.2 M68.2,62.6 L70.2,62.6 M68.2,198 L70.2,198 M68.2,203 L70.2,203 M68.2,209 L70.2,209 M68.2,214 L70.2,214 M68.2,220 L70.2,220 M68.2,226 L70.2,226 M68.2,231 L70.2,231 M68.2,237 L70.2,237 M68.2,243 L70.2,243 M68.2,248 L70.2,248 M68.2,254 L70.2,254 M68.2,254 L70.2,254 M68.2,259 L70.2,259 M68.2,265 L70.2,265 M68.2,271 L70.2,271 M68.2,276 L70.2,276 M68.2,282 L70.2,282 M68.2,288 L70.2,288 M68.2,293 L70.2,293 M68.2,299 L70.2,299 M68.2,304 L70.2,304 M68.2,310 L70.2,310 M68.2,316 L70.2,316 M68.2,321 L70.2,321 M68.2,327 L70.2,327 M68.2,333 L70.2,333 M68.2,338 L70.2,338 "
       id="path28" />
  </g>
  <g
     id="xMinorTicks"
     stroke="rgb(0,0,0)"
     stroke-width="1">
    <path
       d="M287,338 L287,340 M296,338 L296,340 M304,338 L304,340 M313,338 L313,340 M329,338 L329,340 M338,338 L338,340 M346,338 L346,340 M354,338 L354,340 M371,338 L371,340 M379,338 L379,340 M388,338 L388,340 M396,338 L396,340 M413,338 L413,340 M421,338 L421,340 M430,338 L430,340 M438,338 L438,340 M455,338 L455,340 M463,338 L463,340 M471,338 L471,340 M480,338 L480,340 M271,338 L271,340 M262,338 L262,340 M254,338 L254,340 M246,338 L246,340 M229,338 L229,340 M221,338 L221,340 M212,338 L212,340 M204,338 L204,340 M187,338 L187,340 M179,338 L179,340 M170,338 L170,340 M162,338 L162,340 M145,338 L145,340 M137,338 L137,340 M129,338 L129,340 M120,338 L120,340 M104,338 L104,340 M95.3,338 L95.3,340 M86.9,338 L86.9,340 M78.6,338 L78.6,340 "
       id="path31" />
  </g>
  <g
     id="yMajorTicks"
     stroke="rgb(0,0,0)"
     stroke-width="2">
    <path
       d="M65.2,198 L70.2,198 M65.2,169 L70.2,169 M65.2,141 L70.2,141 M65.2,113 L70.2,113 M65.2,85.1 L70.2,85.1 M65.2,57 L70.2,57 M65.2,198 L70.2,198 M65.2,226 L70.2,226 M65.2,254 L70.2,254 M65.2,282 L70.2,282 M65.2,310 L70.2,310 M65.2,338 L70.2,338 "
       id="path34" />
  </g>
  <g
     id="xMajorTicks"
     stroke="rgb(0,0,0)"
     stroke-width="2">
    <path
       d="M279,338 L279,343 M321,338 L321,343 M363,338 L363,343 M404,338 L404,343 M446,338 L446,343 M488,338 L488,343 M279,338 L279,343 M237,338 L237,343 M196,338 L196,343 M154,338 L154,343 M112,338 L112,343 M70.2,338 L70.2,343 "
       id="path37" />
  </g>
  <g
     id="plotLabels">
    <text
       x="279"
       y="358"
       text-anchor="middle"
       font-size="12"
       font-family="Verdana"
       id="text40">0</text>
    <text
       x="321"
       y="358"
       text-anchor="middle"
       font-size="12"
       font-family="Verdana"
       id="text42">2</text>
    <text
       x="363"
       y="358"
       text-anchor="middle"
       font-size="12"
       font-family="Verdana"
       id="text44">4</text>
    <text
       x="404"
       y="358"
       text-anchor="middle"
       font-size="12"
       font-family="Verdana"
       id="text46">6</text>
    <text
       x="446"
       y="358"
       text-anchor="middle"
       font-size="12"
       font-family="Verdana"
       id="text48">8</text>
    <text
       x="488"
       y="358"
       text-anchor="middle"
       font-size="12"
       font-family="Verdana"
       id="text50">10</text>
    <text
       x="279"
       y="358"
       text-anchor="middle"
       font-size="12"
       font-family="Verdana"
       id="text52">0</text>
    <text
       x="237"
       y="358"
       text-anchor="middle"
       font-size="12"
       font-family="Verdana"
       id="text54">-2</text>
    <text
       x="196"
       y="358"
       text-anchor="middle"
       font-size="12"
       font-family="Verdana"
       id="text56">-4</text>
    <text
       x="154"
       y="358"
       text-anchor="middle"
       font-size="12"
       font-family="Verdana"
       id="text58">-6</text>
    <text
       x="112"
       y="358"
       text-anchor="middle"
       font-size="12"
       font-family="Verdana"
       id="text60">-8</text>
    <text
       x="70.2"
       y="358"
       text-anchor="middle"
       font-size="12"
       font-family="Verdana"
       id="text62">-10</text>
    <text
       x="59.2"
       y="200"
       text-anchor="end"
       font-size="12"
       font-family="Verdana"
       id="text64">0</text>
    <text
       x="59.2"
       y="172"
       text-anchor="end"
       font-size="12"
       font-family="Verdana"
       id="text66">2</text>
    <text
       x="59.2"
       y="144"
       text-anchor="end"
       font-size="12"
       font-family="Verdana"
       id="text68">4</text>
    <text
       x="59.2"
       y="116"
       text-anchor="end"
       font-size="12"
       font-family="Verdana"
       id="text70">6</text>
    <text
       x="59.2"
       y="87.5"
       text-anchor="end"
       font-size="12"
       font-family="Verdana"
       id="text72">8</text>
    <text
       x="59.2"
       y="59.4"
       text-anchor="end"
       font-size="12"
       font-family="Verdana"
       id="text74">10</text>
    <text
       x="59.2"
       y="200"
       text-anchor="end"
       font-size="12"
       font-family="Verdana"
       id="text76">0</text>
    <text
       x="59.2"
       y="228"
       text-anchor="end"
       font-size="12"
       font-family="Verdana"
       id="text78">-2</text>
    <text
       x="59.2"
       y="256"
       text-anchor="end"
       font-size="12"
       font-family="Verdana"
       id="text80">-4</text>
    <text
       x="59.2"
       y="284"
       text-anchor="end"
       font-size="12"
       font-family="Verdana"
       id="text82">-6</text>
    <text
       x="59.2"
       y="312"
       text-anchor="end"
       font-size="12"
       font-family="Verdana"
       id="text84">-8</text>
    <text
       x="59.2"
       y="341"
       text-anchor="end"
       font-size="12"
       font-family="Verdana"
       id="text86">-10</text>
  </g>
  <g
     id="yLabel">
    <text
       x="30.2"
       y="198"
       text-anchor="middle"
       transform="rotate(-90 30.2 198 )"
       font-size="14"
       font-family="Verdana"
       id="text89" />
  </g>
  <g
     id="xLabel">
    <text
       x="279"
       y="384"
       text-anchor="middle"
       font-size="14"
       font-family="Verdana"
       id="text92" />
  </g>
  <g
     id="plotLines"
     stroke-width="2">
    <g
       clip-path="url(#plot_window)"
       stroke="rgb(0,0,0)"
       stroke-width="2"
       id="g95">
      <path
         d="M279,198 L300,184 L321,178 L342,173 L363,169 L384,166 L404,163 L425,160 L446,158 L467,155 L488,153 "
         fill="none"
         id="path97" />
    </g>
    <g
       clip-path="url(#plot_window)"
       stroke="rgb(0,0,0)"
       stroke-width="2"
       id="g99">
      <path
         d="M175,-126 L196,0.76 L216,99.2 L237,169 L258,212 L279,226 L300,212 L321,169 L342,99.2 L363,0.76 L384,-126 L404,-280 L425,-463 L446,-674 L467,-913 L488,-1.18e+003 "
         fill="none"
         id="path101" />
    </g>
    <g
       clip-path="url(#plot_window)"
       stroke="rgb(0,0,255)"
       id="g103">
      <path
         d="M175,352 S191,330 196,324 S212,302 216,296 S233,274 237,268 S254,245 258,240 S275,217 279,212 S296,189 300,184 S317,161 321,155 S338,133 342,127 S358,105 363,99.2 S379,76.7 384,71.1 S400,48.6 404,42.9 S421,20.4 425,14.8 S442,-7.68 446,-13.3 S463,-35.8 467,-41.4 S488,-72.4 488,-69.5 "
         fill="none"
         id="path105" />
    </g>
  </g>
  <g
     id="plotPoints"
     clip-path="url(#plot_window)">
    <g
       stroke="rgb(0,0,0)"
       fill="rgb(255,0,0)"
       id="g108">
      <circle
         cx="279"
         cy="198"
         r="5"
         id="circle110" />
      <circle
         cx="300"
         cy="184"
         r="5"
         id="circle112" />
      <circle
         cx="321"
         cy="178"
         r="5"
         id="circle114" />
      <circle
         cx="342"
         cy="173"
         r="5"
         id="circle116" />
      <circle
         cx="363"
         cy="169"
         r="5"
         id="circle118" />
      <circle
         cx="384"
         cy="166"
         r="5"
         id="circle120" />
      <circle
         cx="404"
         cy="163"
         r="5"
         id="circle122" />
      <circle
         cx="425"
         cy="160"
         r="5"
         id="circle124" />
      <circle
         cx="446"
         cy="158"
         r="5"
         id="circle126" />
      <circle
         cx="467"
         cy="155"
         r="5"
         id="circle128" />
    </g>
    <g
       stroke="rgb(0,0,0)"
       fill="rgb(255,165,0)"
       id="g130">
      <circle
         cx="216"
         cy="99.2"
         r="2"
         id="circle132" />
      <circle
         cx="237"
         cy="169"
         r="2"
         id="circle134" />
      <circle
         cx="258"
         cy="212"
         r="2"
         id="circle136" />
      <circle
         cx="279"
         cy="226"
         r="2"
         id="circle138" />
      <circle
         cx="300"
         cy="212"
         r="2"
         id="circle140" />
      <circle
         cx="321"
         cy="169"
         r="2"
         id="circle142" />
      <circle
         cx="342"
         cy="99.2"
         r="2"
         id="circle144" />
    </g>
    <g
       stroke="rgb(0,0,0)"
       fill="rgb(255,255,0)"
       id="g146">
      <rect
         x="191"
         y="319"
         width="10"
         height="10"
         id="rect148" />
      <rect
         x="211"
         y="291"
         width="10"
         height="10"
         id="rect150" />
      <rect
         x="232"
         y="263"
         width="10"
         height="10"
         id="rect152" />
      <rect
         x="253"
         y="235"
         width="10"
         height="10"
         id="rect154" />
      <rect
         x="274"
         y="207"
         width="10"
         height="10"
         id="rect156" />
      <rect
         x="295"
         y="179"
         width="10"
         height="10"
         id="rect158" />
      <rect
         x="316"
         y="150"
         width="10"
         height="10"
         id="rect160" />
      <rect
         x="337"
         y="122"
         width="10"
         height="10"
         id="rect162" />
      <rect
         x="358"
         y="94.2"
         width="10"
         height="10"
         id="rect164" />
      <rect
         x="379"
         y="66.1"
         width="10"
         height="10"
         id="rect166" />
    </g>
  </g>
  <g
     id="limitPoints"
     stroke="rgb(119,136,153)"
     fill="rgb(250,235,215)">
    <polygon
       points=" 170,188 180,188 175,198"
       fill="none"
       id="polygon169" />
    <polygon
       points=" 191,188 201,188 196,198"
       fill="none"
       id="polygon171" />
    <polygon
       points=" 211,188 221,188 216,198"
       fill="none"
       id="polygon173" />
    <polygon
       points=" 232,188 242,188 237,198"
       fill="none"
       id="polygon175" />
    <polygon
       points=" 253,188 263,188 258,198"
       fill="none"
       id="polygon177" />
  </g>
  <g
     id="legendBackground" />
  <g
     id="legendPoints" />
  <g
     id="legendText" />
  <g
     id="title">
    <text
       x="250"
       y="36"
       text-anchor="middle"
       font-size="18"
       font-family="Verdana"
       id="text183" />
  </g>
</svg>
