<?xml version="1.0" encoding="UTF-8" standalone="no"?>
<svg width="500" height ="200" version="1.1"
xmlns:svg ="http://www.w3.org/2000/svg"
xmlns:rdf="http://www.w3.org/1999/02/22-rdf-syntax-ns#"
xmlns:cc="http://web.resource.org/cc/"
xmlns:dc="http://purl.org/dc/elements/1.1/"
xmlns ="http://www.w3.org/2000/svg"
>
<!-- SVG plot written using Boost.Plot program (Creator Jacob Voytko) --> 
<!-- Use, modification and distribution of Boost.Plot subject to the --> 
<!-- Boost Software License, Version 1.0.--> 
<!-- (See accompanying file LICENSE_1_0.txt --> 
<!-- or copy at http://www.boost.org/LICENSE_1_0.txt) --> 

<!-- File default_1d_plot_2.svg --> 
<g id="imageBackground" stroke="rgb(255,255,0)" fill="rgb(255,255,255)" stroke-width="1"><rect x="0" y="0" width="500" height="200"/></g>
<g id="plotBackground" stroke="rgb(255,255,0)" fill="rgb(255,255,255)" stroke-width="1"><rect x="11" y="56" width="478" height="83.2"/></g>
<g id="xMinorGrid" stroke="rgb(200,220,255)" stroke-width="0.5"></g>
<g id="xMajorGrid" stroke="rgb(200,220,255)" stroke-width="1"></g>
<g id="xAxis" stroke="rgb(0,0,0)" stroke-width="1"><line x1="170" y1="56" x2="170" y2="139"/><line x1="11" y1="109" x2="489" y2="109"/><line x1="11" y1="139" x2="489" y2="139"/></g>
<g id="xMinorTicks" stroke="rgb(0,0,0)" stroke-width="1"><path d="M183,139 L183,141 M196,139 L196,141 M209,139 L209,141 M221,139 L221,141 M247,139 L247,141 M260,139 L260,141 M272,139 L272,141 M285,139 L285,141 M311,139 L311,141 M323,139 L323,141 M336,139 L336,141 M349,139 L349,141 M374,139 L374,141 M387,139 L387,141 M400,139 L400,141 M413,139 L413,141 M438,139 L438,141 M451,139 L451,141 M464,139 L464,141 M476,139 L476,141 M158,139 L158,141 M145,139 L145,141 M132,139 L132,141 M119,139 L119,141 M93.9,139 L93.9,141 M81.1,139 L81.1,141 M68.4,139 L68.4,141 M55.6,139 L55.6,141 M30.1,139 L30.1,141 M17.4,139 L17.4,141 " fill="none"/></g>
<g id="xMajorTicks" stroke="rgb(0,0,0)" stroke-width="2"><path d="M170,139 L170,144 M234,139 L234,144 M298,139 L298,144 M362,139 L362,144 M425,139 L425,144 M489,139 L489,144 M170,139 L170,144 M107,139 L107,144 M42.9,139 L42.9,144 " fill="none"/></g>
<g id="plotLabels">
<text x="170" y="159" text-anchor="middle" font-size="12" font-family="Verdana">0</text>
<text x="234" y="159" text-anchor="middle" font-size="12" font-family="Verdana">2</text>
<text x="298" y="159" text-anchor="middle" font-size="12" font-family="Verdana">4</text>
<text x="362" y="159" text-anchor="middle" font-size="12" font-family="Verdana">6</text>
<text x="425" y="159" text-anchor="middle" font-size="12" font-family="Verdana">8</text>
<text x="489" y="159" text-anchor="middle" font-size="12" font-family="Verdana">10</text>
<text x="170" y="159" text-anchor="middle" font-size="12" font-family="Verdana">0</text>
<text x="107" y="159" text-anchor="middle" font-size="12" font-family="Verdana">-2</text>
<text x="42.9" y="159" text-anchor="middle" font-size="12" font-family="Verdana">-4</text></g>
<g id="xLabel">
<text x="250" y="185" text-anchor="middle" font-size="14" font-family="Verdana">time (min)</text></g>
<g id="plotPoints"><g stroke="rgb(0,0,0)"><line x1="119" y1="103" x2="119" y2="92.6"/><line x1="205" y1="103" x2="205" y2="92.6"/><line x1="304" y1="103" x2="304" y2="92.6"/><line x1="275" y1="103" x2="275" y2="92.6"/><line x1="342" y1="103" x2="342" y2="92.6"/><line x1="377" y1="103" x2="377" y2="92.6"/></g>
</g>
<g id="title">
<text x="250" y="36" text-anchor="middle" font-size="18" font-family="Verdana">Default 1D Demo</text></g>
</svg>
