<?xml version="1.0" encoding="UTF-8" standalone="no"?>
<svg width="500" height ="200" version="1.1"
xmlns:svg ="http://www.w3.org/2000/svg"
xmlns:rdf="http://www.w3.org/1999/02/22-rdf-syntax-ns#"
xmlns:cc="http://web.resource.org/cc/"
xmlns:dc="http://purl.org/dc/elements/1.1/"
xmlns ="http://www.w3.org/2000/svg"
>
<!-- SVG plot written using Boost.Plot program (Creator Jacob Voytko) --> 
<!-- Use, modification and distribution of Boost.Plot subject to the --> 
<!-- Boost Software License, Version 1.0.--> 
<!-- (See accompanying file LICENSE_1_0.txt --> 
<!-- or copy at http://www.boost.org/LICENSE_1_0.txt) --> 

<!-- File ./demo_1d_x_external.svg --> 
<g id="imageBackground" stroke="rgb(0,0,0)" fill="rgb(255,255,255)" stroke-width="1"><rect x="0" y="0" width="500" height="200"/></g>
<g id="plotBackground" stroke="rgb(250,250,210)" fill="rgb(255,255,255)" stroke-width="1"><rect x="11" y="56" width="372" height="128"/></g>
<g id="xMinorGrid" stroke="rgb(211,211,211)" stroke-width="0.5"><path d="M58.4,57 L58.4,183 M71.9,57 L71.9,183 M85.5,57 L85.5,183 M99,57 L99,183 M126,57 L126,183 M140,57 L140,183 M153,57 L153,183 M167,57 L167,183 M194,57 L194,183 M207,57 L207,183 M221,57 L221,183 M234,57 L234,183 M262,57 L262,183 M275,57 L275,183 M289,57 L289,183 M302,57 L302,183 M329,57 L329,183 M343,57 L343,183 M356,57 L356,183 M370,57 L370,183 M31.3,57 L31.3,183 M17.8,57 L17.8,183 " fill="none"/></g>
<g id="xMajorGrid" stroke="rgb(255,192,203)" stroke-width="1"><path d="M44.9,56 L44.9,184 M113,56 L113,184 M180,56 L180,184 M248,56 L248,184 M316,56 L316,184 M383,56 L383,184 M44.9,56 L44.9,184 " fill="none"/></g>
<g id="xAxis" stroke="rgb(0,0,0)" stroke-width="1"><line x1="44.9" y1="56" x2="44.9" y2="184"/><line x1="11" y1="123" x2="383" y2="123"/><line x1="11" y1="56" x2="383" y2="56"/></g>
<g id="xMinorTicks" stroke="rgb(0,0,0)" stroke-width="1"><path d="M58.4,56 L58.4,58 M71.9,56 L71.9,58 M85.5,56 L85.5,58 M99,56 L99,58 M126,56 L126,58 M140,56 L140,58 M153,56 L153,58 M167,56 L167,58 M194,56 L194,58 M207,56 L207,58 M221,56 L221,58 M234,56 L234,58 M262,56 L262,58 M275,56 L275,58 M289,56 L289,58 M302,56 L302,58 M329,56 L329,58 M343,56 L343,58 M356,56 L356,58 M370,56 L370,58 M31.3,56 L31.3,58 M17.8,56 L17.8,58 " fill="none"/></g>
<g id="xMajorTicks" stroke="rgb(0,0,0)" stroke-width="2"><path d="M44.9,56 L44.9,61 M113,56 L113,61 M180,56 L180,61 M248,56 L248,61 M316,56 L316,61 M383,56 L383,61 M44.9,56 L44.9,61 " fill="none"/></g>
<g id="xTicksValues">
<text x="44.9" y="76.6" text-anchor="middle" font-size="12" font-family="Verdana">0</text>
<text x="113" y="76.6" text-anchor="middle" font-size="12" font-family="Verdana">2</text>
<text x="180" y="76.6" text-anchor="middle" font-size="12" font-family="Verdana">4</text>
<text x="248" y="76.6" text-anchor="middle" font-size="12" font-family="Verdana">6</text>
<text x="316" y="76.6" text-anchor="middle" font-size="12" font-family="Verdana">8</text>
<text x="383" y="76.6" text-anchor="middle" font-size="12" font-family="Verdana">10</text>
<text x="44.9" y="76.6" text-anchor="middle" font-size="12" font-family="Verdana">0</text></g>
<g id="xLabel">
<text x="197" y="208" text-anchor="middle" font-size="14" font-family="Verdana"></text></g>
<g id="plotPoints"><g stroke="rgb(0,0,255)"><line x1="150" y1="125" x2="150" y2="115"/><line x1="187" y1="125" x2="187" y2="115"/></g>
<g stroke="rgb(255,165,0)"><line x1="116" y1="125" x2="116" y2="115"/><line x1="309" y1="125" x2="309" y2="115"/></g>
</g>
<g id="legendBackground" stroke="rgb(255,255,0)" fill="rgb(255,255,255)" stroke-width="1"><rect x="395" y="56" width="93.5" height="70"/><rect x="395" y="56" width="93.5" height="70"/></g>
<g id="legendPoints"><g stroke="rgb(0,0,255)" stroke-width="2"><line x1="409" y1="89" x2="409" y2="79"/></g>
<g stroke="rgb(255,165,0)" stroke-width="2"><line x1="409" y1="117" x2="409" y2="107"/></g>
</g>
<g id="legendText">
<text x="430" y="84" font-size="14" font-family="Verdana">Dan</text>
<text x="430" y="112" font-size="14" font-family="Verdana">Elaine</text></g>
<g id="title">
<text x="250" y="36" text-anchor="middle" font-size="18" font-family="Verdana">Race Times</text></g>
</svg>
