<?xml version="1.0" encoding="UTF-8" standalone="no"?>
<svg width="500" height ="200" version="1.1"
xmlns:svg ="http://www.w3.org/2000/svg"
xmlns:rdf="http://www.w3.org/1999/02/22-rdf-syntax-ns#"
xmlns:cc="http://web.resource.org/cc/"
xmlns:dc="http://purl.org/dc/elements/1.1/"
xmlns ="http://www.w3.org/2000/svg"
>
<!-- SVG plot written using Boost.Plot program (Creator Jacob Voytko) --> 
<!-- Use, modification and distribution of Boost.Plot subject to the --> 
<!-- Boost Software License, Version 1.0.--> 
<!-- (See accompanying file LICENSE_1_0.txt --> 
<!-- or copy at http://www.boost.org/LICENSE_1_0.txt) --> 

<!-- File demo_color.svg --> 
<g id="imageBackground" stroke="rgb(255,255,0)" fill="rgb(255,255,255)" stroke-width="1"><rect x="0" y="0" width="500" height="200"/></g>
<g id="plotBackground" stroke="rgb(255,255,0)" fill="rgb(255,255,255)" stroke-width="1"><rect x="11" y="56" width="336" height="83.2"/></g>
<g id="xMinorGrid" stroke="rgb(200,220,255)" stroke-width="0.5"></g>
<g id="xMajorGrid" stroke="rgb(200,220,255)" stroke-width="1"></g>
<g id="xAxis" stroke="rgb(0,0,255)" stroke-width="1"><line x1="11" y1="56" x2="11" y2="139"/><line x1="11" y1="109" x2="347" y2="109"/><line x1="11" y1="139" x2="347" y2="139"/></g>
<g id="xMinorTicks" stroke="rgb(0,0,0)" stroke-width="1"><path d="M30.2,139 L30.2,141 M49.4,139 L49.4,141 M68.5,139 L68.5,141 M87.7,139 L87.7,141 M126,139 L126,141 M145,139 L145,141 M164,139 L164,141 M184,139 L184,141 M222,139 L222,141 M241,139 L241,141 M260,139 L260,141 M279,139 L279,141 M318,139 L318,141 M337,139 L337,141 " fill="none"/></g>
<g id="xMajorTicks" stroke="rgb(0,0,0)" stroke-width="2"><path d="M11,139 L11,144 M107,139 L107,144 M203,139 L203,144 M299,139 L299,144 M11,139 L11,144 " fill="none"/></g>
<g id="plotLabels">
<text x="11" y="159" text-anchor="middle" font-size="12" font-family="Verdana">0</text>
<text x="107" y="159" text-anchor="middle" font-size="12" font-family="Verdana">2</text>
<text x="203" y="159" text-anchor="middle" font-size="12" font-family="Verdana">4</text>
<text x="299" y="159" text-anchor="middle" font-size="12" font-family="Verdana">6</text>
<text x="11" y="159" text-anchor="middle" font-size="12" font-family="Verdana">0</text></g>
<g id="xLabel" stroke="rgb(255,0,255)" fill="rgb(255,0,255)">
<text x="179" y="185" text-anchor="middle" font-size="14" font-family="Verdana">axis</text></g>
<g id="plotPoints"><g stroke="rgb(0,0,0)"><line x1="58.9" y1="103" x2="58.9" y2="92.6"/><line x1="107" y1="103" x2="107" y2="92.6"/><line x1="155" y1="103" x2="155" y2="92.6"/></g>
</g>
<g id="legendBackground" stroke="rgb(255,255,0)" fill="rgb(255,255,255)" stroke-width="1"><rect x="367" y="56" width="122" height="42"/><rect x="367" y="56" width="122" height="42"/></g>
<g id="legendPoints"><g stroke="rgb(0,0,0)" stroke-width="2"><line x1="381" y1="89" x2="381" y2="79"/><line x1="402" y1="84" x2="416" y2="84"/></g>
</g>
<g id="legendText">
<text x="423" y="84" font-size="14" font-family="Verdana">My Data</text></g>
<g id="title">
<text x="250" y="36" text-anchor="middle" font-size="18" font-family="Verdana"></text></g>
</svg>
