<?xml version="1.0" encoding="UTF-8" standalone="no"?>
<svg width="500" height ="200" version="1.1"
xmlns:svg ="http://www.w3.org/2000/svg"
xmlns:rdf="http://www.w3.org/1999/02/22-rdf-syntax-ns#"
xmlns:cc="http://web.resource.org/cc/"
xmlns:dc="http://purl.org/dc/elements/1.1/"
xmlns ="http://www.w3.org/2000/svg"
>
<!-- SVG plot written using Boost.Plot program (Creator Jacob Voytko) --> 
<!-- Use, modification and distribution of Boost.Plot subject to the --> 
<!-- Boost Software License, Version 1.0.--> 
<!-- (See accompanying file LICENSE_1_0.txt --> 
<!-- or copy at http://www.boost.org/LICENSE_1_0.txt) --> 

<!-- File demo_colors.svg --> 
<g id="imageBackground" stroke="rgb(255,255,0)" fill="rgb(255,255,255)" stroke-width="1"><rect x="0" y="0" width="500" height="200"/></g>
<g id="plotBackground" stroke="rgb(255,255,0)" fill="rgb(255,255,255)" stroke-width="1"><rect x="11" y="56" width="296" height="83.2"/></g>
<g id="xMinorGrid" stroke="rgb(200,220,255)" stroke-width="0.5"></g>
<g id="xMajorGrid" stroke="rgb(200,220,255)" stroke-width="1"></g>
<g id="xAxis" stroke="rgb(0,0,255)" stroke-width="1"><line x1="11" y1="56" x2="11" y2="139"/><line x1="11" y1="109" x2="307" y2="109"/><line x1="11" y1="139" x2="307" y2="139"/></g>
<g id="xMinorTicks" stroke="rgb(0,0,0)" stroke-width="1"><path d="M27.9,139 L27.9,141 M44.9,139 L44.9,141 M61.8,139 L61.8,141 M78.8,139 L78.8,141 M113,139 L113,141 M130,139 L130,141 M147,139 L147,141 M163,139 L163,141 M197,139 L197,141 M214,139 L214,141 M231,139 L231,141 M248,139 L248,141 M282,139 L282,141 M299,139 L299,141 " fill="none"/></g>
<g id="xMajorTicks" stroke="rgb(0,0,0)" stroke-width="2"><path d="M11,139 L11,144 M95.7,139 L95.7,144 M180,139 L180,144 M265,139 L265,144 M11,139 L11,144 " fill="none"/></g>
<g id="plotLabels">
<text x="11" y="159" text-anchor="middle" font-size="12" font-family="Verdana">0</text>
<text x="95.7" y="159" text-anchor="middle" font-size="12" font-family="Verdana">2</text>
<text x="180" y="159" text-anchor="middle" font-size="12" font-family="Verdana">4</text>
<text x="265" y="159" text-anchor="middle" font-size="12" font-family="Verdana">6</text>
<text x="11" y="159" text-anchor="middle" font-size="12" font-family="Verdana">0</text></g>
<g id="xLabel" stroke="rgb(255,0,255)" fill="rgb(255,0,255)">
<text x="159" y="185" text-anchor="middle" font-size="14" font-family="Verdana">axis</text></g>
<g id="plotPoints"><g stroke="rgb(0,0,0)"><line x1="53.3" y1="103" x2="53.3" y2="92.6"/><line x1="95.7" y1="103" x2="95.7" y2="92.6"/><line x1="138" y1="103" x2="138" y2="92.6"/></g>
</g>
<g id="legendBackground" stroke="rgb(255,255,0)" fill="rgb(255,255,255)" stroke-width="1"><rect x="327" y="56" width="162" height="70"/><rect x="327" y="56" width="162" height="70"/></g>
<g id="legendPoints"><g stroke="rgb(0,0,0)" stroke-width="2"><line x1="341" y1="117" x2="341" y2="107"/><line x1="362" y1="112" x2="376" y2="112"/></g>
</g>
<g id="legendText">
<text x="408" y="84" text-anchor="middle" font-size="14" font-family="Verdana">Legend title</text>
<text x="383" y="112" font-size="14" font-family="Verdana">My Data</text></g>
<g id="title">
<text x="250" y="36" text-anchor="middle" font-size="18" font-family="Verdana">Demo SVG colors</text></g>
</svg>
