<?xml version="1.0" encoding="UTF-8" standalone="no"?>
<svg width="500" height ="350" version="1.1"
xmlns:svg ="http://www.w3.org/2000/svg"
xmlns:rdf="http://www.w3.org/1999/02/22-rdf-syntax-ns#"
xmlns:cc="http://web.resource.org/cc/"
xmlns:dc="http://purl.org/dc/elements/1.1/"
xmlns ="http://www.w3.org/2000/svg"
>
<!-- SVG plot written using Boost.Plot program (Creator Jacob Voytko) --> 
<!-- Use, modification and distribution of Boost.Plot subject to the --> 
<!-- Boost Software License, Version 1.0.--> 
<!-- (See accompanying file LICENSE_1_0.txt --> 
<!-- or copy at http://www.boost.org/LICENSE_1_0.txt) --> 

<!-- File demo_Hoaglin.svg --> 
<clipPath id="plot_window"><rect x="65.2" y="52" width="423" height="229"/></clipPath>
<g id="imageBackground" stroke="rgb(255,255,0)" fill="rgb(255,255,255)" stroke-width="2"><rect x="0" y="0" width="500" height="350"/></g>
<g id="plotBackground" stroke="rgb(255,255,0)" fill="rgb(255,255,255)" stroke-width="1"><rect x="70.2" y="57" width="418" height="224"/></g>
<g id="X-axis" stroke="rgb(0,0,0)" stroke-width="1"><line x1="70.2" y1="281" x2="488" y2="281"/></g>
<g id="Y-axis" stroke="rgb(0,0,0)" stroke-width="1"><line x1="70.2" y1="281" x2="70.2" y2="57"/></g>
<g id="xMajorTicks" stroke="rgb(0,0,0)" stroke-width="1"><path d="M130,281 L130,286 M190,281 L190,286 M249,281 L249,286 M309,281 L309,286 M369,281 L369,286 M428,281 L428,286 " fill="none"/></g>
<g id="yMajorTicks" stroke="rgb(0,0,0)" stroke-width="2"><path d="M65.2,265 L70.2,265 M65.2,233 L70.2,233 M65.2,201 L70.2,201 M65.2,169 L70.2,169 M65.2,137 L70.2,137 M65.2,105 L70.2,105 M65.2,73 L70.2,73 " fill="none"/></g>
<g id="yMinorTicks" stroke="rgb(0,0,0)" stroke-width="1"><path d="M68.2,278 L70.2,278 M68.2,272 L70.2,272 M68.2,259 L70.2,259 M68.2,252 L70.2,252 M68.2,246 L70.2,246 M68.2,240 L70.2,240 M68.2,227 L70.2,227 M68.2,220 L70.2,220 M68.2,214 L70.2,214 M68.2,208 L70.2,208 M68.2,195 L70.2,195 M68.2,188 L70.2,188 M68.2,182 L70.2,182 M68.2,176 L70.2,176 M68.2,163 L70.2,163 M68.2,156 L70.2,156 M68.2,150 L70.2,150 M68.2,143 L70.2,143 M68.2,131 L70.2,131 M68.2,124 L70.2,124 M68.2,118 L70.2,118 M68.2,111 L70.2,111 M68.2,98.6 L70.2,98.6 M68.2,92.2 L70.2,92.2 M68.2,85.8 L70.2,85.8 M68.2,79.4 L70.2,79.4 M68.2,66.6 L70.2,66.6 M68.2,60.2 L70.2,60.2 " fill="none"/></g>
<g id="YGrid" stroke="rgb(200,220,255)" stroke-width="1"></g>
<g id="yMinorGrid" stroke="rgb(200,220,255)" stroke-width="0.5"></g>
<g id="valueLabels" fill="rgb(0,0,0)">
<text x="130" y="306" text-anchor="middle" font-size="14" font-family="Verdana">default_8</text>
<text x="190" y="306" text-anchor="middle" font-size="14" font-family="Verdana">def #4</text>
<text x="249" y="306" text-anchor="middle" font-size="14" font-family="Verdana">def #5</text>
<text x="309" y="306" text-anchor="middle" font-size="14" font-family="Verdana">def #6</text>
<text x="369" y="306" text-anchor="middle" font-size="14" font-family="Verdana">def #7</text>
<text x="428" y="306" text-anchor="middle" font-size="14" font-family="Verdana">def #8</text>
<text x="59.2" y="268" text-anchor="end" font-size="12" font-family="Verdana">50</text>
<text x="59.2" y="236" text-anchor="end" font-size="12" font-family="Verdana">60</text>
<text x="59.2" y="204" text-anchor="end" font-size="12" font-family="Verdana">70</text>
<text x="59.2" y="172" text-anchor="end" font-size="12" font-family="Verdana">80</text>
<text x="59.2" y="139" text-anchor="end" font-size="12" font-family="Verdana">90</text>
<text x="59.2" y="107" text-anchor="end" font-size="12" font-family="Verdana">100</text>
<text x="59.2" y="75.4" text-anchor="end" font-size="12" font-family="Verdana">110</text></g>
<g id="yLabel" fill="rgb(0,0,0)">
<text x="30.2" y="169" text-anchor="middle" transform = "rotate(-90 30.2 169 )" font-size="14" font-family="Verdana">Value</text></g>
<g id="xLabel" fill="rgb(0,0,0)">
<text x="279" y="327" text-anchor="middle" font-size="14" font-family="Verdana">Boxplot</text></g>
<g id="boxAxis" stroke="rgb(0,0,0)"><g clip-path="url(#plot_window)" stroke="rgb(0,0,0)" stroke-width="1"><line x1="130" y1="256" x2="130" y2="105"/></g>
<g clip-path="url(#plot_window)" stroke="rgb(0,0,0)" stroke-width="1"><line x1="190" y1="256" x2="190" y2="105"/></g>
<g clip-path="url(#plot_window)" stroke="rgb(0,0,0)" stroke-width="1"><line x1="249" y1="256" x2="249" y2="105"/></g>
<g clip-path="url(#plot_window)" stroke="rgb(0,0,0)" stroke-width="1"><line x1="309" y1="256" x2="309" y2="105"/></g>
<g clip-path="url(#plot_window)" stroke="rgb(0,0,0)" stroke-width="1"><line x1="369" y1="185" x2="369" y2="105"/></g>
<g clip-path="url(#plot_window)" stroke="rgb(0,0,0)" stroke-width="1"><line x1="428" y1="256" x2="428" y2="105"/></g>
</g>
<g id="Median" stroke="rgb(255,0,0)" stroke-width="2"><g clip-path="url(#plot_window)" stroke="rgb(0,128,0)" fill="rgb(240,255,255)" stroke-width="1"><rect x="115" y="124" width="30" height="57.7"/></g>
<g clip-path="url(#plot_window)" stroke="rgb(0,0,255)" stroke-width="1"><line x1="115" y1="153" x2="144" y2="153"/></g>
<g clip-path="url(#plot_window)" stroke="rgb(0,128,0)" fill="rgb(240,255,255)" stroke-width="1"><rect x="175" y="135" width="30" height="64.9"/></g>
<g clip-path="url(#plot_window)" stroke="rgb(0,0,255)" stroke-width="1"><line x1="175" y1="153" x2="204" y2="153"/></g>
<g clip-path="url(#plot_window)" stroke="rgb(0,128,0)" fill="rgb(240,255,255)" stroke-width="1"><rect x="234" y="126" width="30" height="54.4"/></g>
<g clip-path="url(#plot_window)" stroke="rgb(0,0,255)" stroke-width="1"><line x1="235" y1="153" x2="264" y2="153"/></g>
<g clip-path="url(#plot_window)" stroke="rgb(0,128,0)" fill="rgb(240,255,255)" stroke-width="1"><rect x="294" y="121" width="30" height="64.1"/></g>
<g clip-path="url(#plot_window)" stroke="rgb(0,0,255)" stroke-width="1"><line x1="294" y1="153" x2="323" y2="153"/></g>
<g clip-path="url(#plot_window)" stroke="rgb(0,128,0)" fill="rgb(240,255,255)" stroke-width="1"><rect x="354" y="131" width="30" height="44.8"/></g>
<g clip-path="url(#plot_window)" stroke="rgb(0,0,255)" stroke-width="1"><line x1="354" y1="153" x2="383" y2="153"/></g>
<g clip-path="url(#plot_window)" stroke="rgb(0,128,0)" fill="rgb(240,255,255)" stroke-width="1"><rect x="413" y="124" width="30" height="57.7"/></g>
<g clip-path="url(#plot_window)" stroke="rgb(0,0,255)" stroke-width="1"><line x1="414" y1="153" x2="443" y2="153"/></g>
</g>
<g id="whisker" stroke="rgb(0,0,0)"><g clip-path="url(#plot_window)"><g stroke="rgb(255,0,255)" fill="rgb(0,0,0)" stroke-width="1"><line x1="115" y1="256" x2="145" y2="256"/></g>
<g stroke="rgb(0,255,255)" fill="rgb(0,0,0)" stroke-width="1"><line x1="115" y1="105" x2="145" y2="105"/></g>
</g>
<g clip-path="url(#plot_window)"><g stroke="rgb(255,0,255)" fill="rgb(0,0,0)" stroke-width="1"><line x1="188" y1="256" x2="192" y2="256"/></g>
<g stroke="rgb(0,255,255)" fill="rgb(0,0,0)" stroke-width="1"><line x1="188" y1="105" x2="192" y2="105"/></g>
</g>
<g clip-path="url(#plot_window)"><g stroke="rgb(255,0,255)" fill="rgb(0,0,0)" stroke-width="1"><line x1="247" y1="256" x2="252" y2="256"/></g>
<g stroke="rgb(0,255,255)" fill="rgb(0,0,0)" stroke-width="1"><line x1="247" y1="105" x2="252" y2="105"/></g>
</g>
<g clip-path="url(#plot_window)"><g stroke="rgb(255,0,255)" fill="rgb(0,0,0)" stroke-width="1"><line x1="306" y1="256" x2="312" y2="256"/></g>
<g stroke="rgb(0,255,255)" fill="rgb(0,0,0)" stroke-width="1"><line x1="306" y1="105" x2="312" y2="105"/></g>
</g>
<g clip-path="url(#plot_window)"><g stroke="rgb(255,0,255)" fill="rgb(0,0,0)" stroke-width="1"><line x1="365" y1="185" x2="372" y2="185"/></g>
<g stroke="rgb(0,255,255)" fill="rgb(0,0,0)" stroke-width="1"><line x1="365" y1="105" x2="372" y2="105"/></g>
</g>
<g clip-path="url(#plot_window)"><g stroke="rgb(255,0,255)" fill="rgb(0,0,0)" stroke-width="1"><line x1="424" y1="256" x2="432" y2="256"/></g>
<g stroke="rgb(0,255,255)" fill="rgb(0,0,0)" stroke-width="1"><line x1="424" y1="105" x2="432" y2="105"/></g>
</g>
</g>
<g id="mild_outliers" stroke="rgb(255,192,203)" fill="rgb(0,0,0)"><g clip-path="url(#plot_window)" stroke="rgb(165,42,42)"><circle cx="369" cy="256" r="2"/><circle cx="369" cy="246" r="2"/></g>
</g>
<g id="extreme_outliers" stroke="rgb(128,0,128)" fill="rgb(255,255,255)"></g>
<g id="Data Values" fill="rgb(0,0,0)"><g clip-path="url(#plot_window)">
<text x="150" y="156" font-size="10" font-family="Verdana">85</text></g>
<g clip-path="url(#plot_window)">
<text x="210" y="156" font-size="10" font-family="Verdana">85</text></g>
<g clip-path="url(#plot_window)">
<text x="269" y="156" font-size="10" font-family="Verdana">85</text></g>
<g clip-path="url(#plot_window)">
<text x="329" y="156" font-size="10" font-family="Verdana">85</text></g>
<g clip-path="url(#plot_window)">
<text x="389" y="156" font-size="10" font-family="Verdana">85</text></g>
<g>
<text x="374" y="259" font-size="10" font-family="Verdana">53</text></g>
<g>
<text x="374" y="249" font-size="10" font-family="Verdana">56</text></g>
<g clip-path="url(#plot_window)">
<text x="448" y="156" font-size="10" font-family="Verdana">85</text></g>
</g>
<g id="title" fill="rgb(0,0,0)">
<text x="250" y="36" text-anchor="middle" font-size="18" font-family="Verdana">Hoaglin Example Data</text></g>
</svg>
