<?xml version="1.0" encoding="UTF-8" standalone="no"?>
<svg width="500" height ="400" version="1.1"
xmlns:svg ="http://www.w3.org/2000/svg"
xmlns:rdf="http://www.w3.org/1999/02/22-rdf-syntax-ns#"
xmlns:cc="http://web.resource.org/cc/"
xmlns:dc="http://purl.org/dc/elements/1.1/"
xmlns ="http://www.w3.org/2000/svg"
>
<!-- SVG plot written using Boost.Plot program (Creator Jacob Voytko) --> 
<!-- Use, modification and distribution of Boost.Plot subject to the --> 
<!-- Boost Software License, Version 1.0.--> 
<!-- (See accompanying file LICENSE_1_0.txt --> 
<!-- or copy at http://www.boost.org/LICENSE_1_0.txt) --> 

<clipPath id="plot_window"><rect x="50.4" y="9" width="441" height="331"/></clipPath>
<g id="imageBackground" stroke="rgb(255,255,0)" fill="rgb(255,255,255)" stroke-width="2"><rect x="0" y="0" width="500" height="400"/></g>
<g id="plotBackground" stroke="rgb(119,136,153)" fill="rgb(255,255,255)" stroke-width="2"><rect x="49.4" y="8" width="443" height="333"/></g>
<g id="yMinorGrid" stroke="rgb(200,220,255)" stroke-width="0.5"></g>
<g id="yMajorGrid" stroke="rgb(200,220,255)" stroke-width="1"></g>
<g id="xMinorGrid" stroke="rgb(200,220,255)" stroke-width="0.5"></g>
<g id="xMajorGrid" stroke="rgb(200,220,255)" stroke-width="1"></g>
<g id="yAxis" stroke="rgb(0,0,0)" stroke-width="1"><line x1="49.4" y1="8" x2="49.4" y2="346"/><line x1="49.4" y1="8" x2="49.4" y2="341"/></g>
<g id="xAxis" stroke="rgb(0,0,0)" stroke-width="1"><line x1="44.4" y1="341" x2="492" y2="341"/><line x1="44.4" y1="341" x2="492" y2="341"/></g>
<g id="yMinorTicks" stroke="rgb(0,0,0)" stroke-width="1"><path d="M47.4,314 L49.4,314 M47.4,288 L49.4,288 M47.4,261 L49.4,261 M47.4,234 L49.4,234 M47.4,181 L49.4,181 M47.4,155 L49.4,155 M47.4,128 L49.4,128 M47.4,101 L49.4,101 M47.4,48 L49.4,48 M47.4,21.3 L49.4,21.3 M47.4,341 L49.4,341 " fill="none"/></g>
<g id="xMinorTicks" stroke="rgb(0,0,0)" stroke-width="1"><path d="M58.3,341 L58.3,343 M67.1,341 L67.1,343 M76,341 L76,343 M84.8,341 L84.8,343 M103,341 L103,343 M111,341 L111,343 M120,341 L120,343 M129,341 L129,343 M147,341 L147,343 M156,341 L156,343 M164,341 L164,343 M173,341 L173,343 M191,341 L191,343 M200,341 L200,343 M209,341 L209,343 M218,341 L218,343 M235,341 L235,343 M244,341 L244,343 M253,341 L253,343 M262,341 L262,343 M280,341 L280,343 M288,341 L288,343 M297,341 L297,343 M306,341 L306,343 M324,341 L324,343 M333,341 L333,343 M342,341 L342,343 M350,341 L350,343 M368,341 L368,343 M377,341 L377,343 M386,341 L386,343 M395,341 L395,343 M412,341 L412,343 M421,341 L421,343 M430,341 L430,343 M439,341 L439,343 M457,341 L457,343 M465,341 L465,343 M474,341 L474,343 M483,341 L483,343 " fill="none"/></g>
<g id="yMajorTicks" stroke="rgb(0,0,0)" stroke-width="2"><path d="M44.4,341 L49.4,341 M44.4,208 L49.4,208 M44.4,74.6 L49.4,74.6 M44.4,341 L49.4,341 " fill="none"/></g>
<g id="xMajorTicks" stroke="rgb(0,0,0)" stroke-width="2"><path d="M49.4,341 L49.4,346 M93.7,341 L93.7,346 M138,341 L138,346 M182,341 L182,346 M226,341 L226,346 M271,341 L271,346 M315,341 L315,346 M359,341 L359,346 M403,341 L403,346 M448,341 L448,346 M492,341 L492,346 M49.4,341 L49.4,346 " fill="none"/></g>
<g id="xTicksValues">
<text x="49.4" y="362" text-anchor="middle" font-size="12" font-family="Verdana">0</text>
<text x="93.7" y="362" text-anchor="middle" font-size="12" font-family="Verdana">2</text>
<text x="138" y="362" text-anchor="middle" font-size="12" font-family="Verdana">4</text>
<text x="182" y="362" text-anchor="middle" font-size="12" font-family="Verdana">6</text>
<text x="226" y="362" text-anchor="middle" font-size="12" font-family="Verdana">8</text>
<text x="271" y="362" text-anchor="middle" font-size="12" font-family="Verdana">10</text>
<text x="315" y="362" text-anchor="middle" font-size="12" font-family="Verdana">12</text>
<text x="359" y="362" text-anchor="middle" font-size="12" font-family="Verdana">14</text>
<text x="403" y="362" text-anchor="middle" font-size="12" font-family="Verdana">16</text>
<text x="448" y="362" text-anchor="middle" font-size="12" font-family="Verdana">18</text>
<text x="492" y="362" text-anchor="middle" font-size="12" font-family="Verdana">20</text>
<text x="49.4" y="362" text-anchor="middle" font-size="12" font-family="Verdana">0</text></g>
<g id="yTicksValues">
<text x="38.4" y="343" text-anchor="end" font-size="12" font-family="Verdana">0</text>
<text x="38.4" y="210" text-anchor="end" font-size="12" font-family="Verdana">2</text>
<text x="38.4" y="77" text-anchor="end" font-size="12" font-family="Verdana">4</text>
<text x="38.4" y="343" text-anchor="end" font-size="12" font-family="Verdana">0</text></g>
<g id="yLabel">
<text x="24.9" y="175" text-anchor="middle" transform = "rotate(-90 24.9 175 )" font-size="14" font-family="Verdana">Y axis label font default size 14</text></g>
<g id="xLabel">
<text x="271" y="377" text-anchor="middle" font-size="14" font-family="Verdana">X axis label font default size 14</text></g>
<g id="plotPoints" clip-path="url(#plot_window)"><g stroke="rgb(255,0,0)" fill="rgb(255,255,255)"><circle cx="71.5" cy="274" r="5"/><circle cx="93.7" cy="247" r="5"/><circle cx="116" cy="226" r="5"/><circle cx="138" cy="208" r="5"/><circle cx="160" cy="192" r="5"/><circle cx="182" cy="178" r="5"/><circle cx="204" cy="165" r="5"/><circle cx="226" cy="153" r="5"/><circle cx="249" cy="141" r="5"/><circle cx="271" cy="130" r="5"/><circle cx="293" cy="120" r="5"/><circle cx="315" cy="110" r="5"/><circle cx="337" cy="101" r="5"/><circle cx="359" cy="91.8" r="5"/><circle cx="381" cy="83.1" r="5"/><circle cx="403" cy="74.6" r="5"/><circle cx="426" cy="66.4" r="5"/><circle cx="448" cy="58.4" r="5"/><circle cx="470" cy="50.7" r="5"/></g>
</g>
<g id="title">
<text x="250" y="36" text-anchor="middle" font-size="18" font-family="Verdana"></text></g>
<g id="plotXValues"></g>
<g id="plotYValues"></g>
</svg>
