<?xml version="1.0" encoding="UTF-8" standalone="no"?>
<svg width="500" height ="400" version="1.1"
xmlns:svg ="http://www.w3.org/2000/svg"
xmlns:rdf="http://www.w3.org/1999/02/22-rdf-syntax-ns#"
xmlns:cc="http://web.resource.org/cc/"
xmlns:dc="http://purl.org/dc/elements/1.1/"
xmlns ="http://www.w3.org/2000/svg"
>
<!-- SVG plot written using Boost.Plot program (Creator Jacob Voytko) --> 
<!-- Use, modification and distribution of Boost.Plot subject to the --> 
<!-- Boost Software License, Version 1.0.--> 
<!-- (See accompanying file LICENSE_1_0.txt --> 
<!-- or copy at http://www.boost.org/LICENSE_1_0.txt) --> 

<clipPath id="plot_window"><rect x="71.2" y="58" width="279" height="279"/></clipPath>
<g id="imageBackground" stroke="rgb(0,0,255)" fill="rgb(255,255,255)" stroke-width="2"><rect x="0" y="0" width="500" height="400"/></g>
<g id="plotBackground" stroke="rgb(119,136,153)" fill="rgb(255,255,255)" stroke-width="2"><rect x="70.2" y="57" width="281" height="281"/></g>
<g id="yMinorGrid" stroke="rgb(200,220,255)" stroke-width="0.5"></g>
<g id="yMajorGrid" stroke="rgb(200,220,255)" stroke-width="1"></g>
<g id="xMinorGrid" stroke="rgb(200,220,255)" stroke-width="0.5"></g>
<g id="xMajorGrid" stroke="rgb(200,220,255)" stroke-width="1"></g>
<g id="yAxis" stroke="rgb(0,0,0)" stroke-width="1"><line x1="211" y1="57" x2="211" y2="343"/><line x1="70.2" y1="57" x2="70.2" y2="338"/></g>
<g id="xAxis" stroke="rgb(0,0,0)" stroke-width="1"><line x1="65.2" y1="198" x2="351" y2="198"/><line x1="65.2" y1="338" x2="351" y2="338"/></g>
<g id="yMinorTicks" stroke="rgb(0,0,0)" stroke-width="1"><path d="M68.2,192 L70.2,192 M68.2,186 L70.2,186 M68.2,181 L70.2,181 M68.2,175 L70.2,175 M68.2,164 L70.2,164 M68.2,158 L70.2,158 M68.2,153 L70.2,153 M68.2,147 L70.2,147 M68.2,136 L70.2,136 M68.2,130 L70.2,130 M68.2,124 L70.2,124 M68.2,119 L70.2,119 M68.2,108 L70.2,108 M68.2,102 L70.2,102 M68.2,96.4 L70.2,96.4 M68.2,90.7 L70.2,90.7 M68.2,79.5 L70.2,79.5 M68.2,73.9 L70.2,73.9 M68.2,68.2 L70.2,68.2 M68.2,62.6 L70.2,62.6 M68.2,198 L70.2,198 M68.2,203 L70.2,203 M68.2,209 L70.2,209 M68.2,214 L70.2,214 M68.2,220 L70.2,220 M68.2,226 L70.2,226 M68.2,231 L70.2,231 M68.2,237 L70.2,237 M68.2,243 L70.2,243 M68.2,248 L70.2,248 M68.2,254 L70.2,254 M68.2,254 L70.2,254 M68.2,259 L70.2,259 M68.2,265 L70.2,265 M68.2,271 L70.2,271 M68.2,276 L70.2,276 M68.2,282 L70.2,282 M68.2,288 L70.2,288 M68.2,293 L70.2,293 M68.2,299 L70.2,299 M68.2,304 L70.2,304 M68.2,310 L70.2,310 M68.2,316 L70.2,316 M68.2,321 L70.2,321 M68.2,327 L70.2,327 M68.2,333 L70.2,333 M68.2,338 L70.2,338 " fill="none"/></g>
<g id="xMinorTicks" stroke="rgb(0,0,0)" stroke-width="1"><path d="M216,338 L216,340 M222,338 L222,340 M228,338 L228,340 M233,338 L233,340 M244,338 L244,340 M250,338 L250,340 M256,338 L256,340 M261,338 L261,340 M273,338 L273,340 M278,338 L278,340 M284,338 L284,340 M289,338 L289,340 M301,338 L301,340 M306,338 L306,340 M312,338 L312,340 M318,338 L318,340 M329,338 L329,340 M334,338 L334,340 M340,338 L340,340 M346,338 L346,340 M205,338 L205,340 M199,338 L199,340 M194,338 L194,340 M188,338 L188,340 M177,338 L177,340 M171,338 L171,340 M166,338 L166,340 M160,338 L160,340 M149,338 L149,340 M143,338 L143,340 M138,338 L138,340 M132,338 L132,340 M121,338 L121,340 M115,338 L115,340 M110,338 L110,340 M104,338 L104,340 M92.7,338 L92.7,340 M87.1,338 L87.1,340 M81.4,338 L81.4,340 M75.8,338 L75.8,340 " fill="none"/></g>
<g id="yMajorTicks" stroke="rgb(0,0,0)" stroke-width="2"><path d="M65.2,198 L70.2,198 M65.2,169 L70.2,169 M65.2,141 L70.2,141 M65.2,113 L70.2,113 M65.2,85.1 L70.2,85.1 M65.2,57 L70.2,57 M65.2,198 L70.2,198 M65.2,226 L70.2,226 M65.2,254 L70.2,254 M65.2,282 L70.2,282 M65.2,310 L70.2,310 M65.2,338 L70.2,338 " fill="none"/></g>
<g id="xMajorTicks" stroke="rgb(0,0,0)" stroke-width="2"><path d="M211,338 L211,343 M239,338 L239,343 M267,338 L267,343 M295,338 L295,343 M323,338 L323,343 M351,338 L351,343 M211,338 L211,343 M183,338 L183,343 M155,338 L155,343 M126,338 L126,343 M98.3,338 L98.3,343 M70.2,338 L70.2,343 " fill="none"/></g>
<g id="plotLabels">
<text x="211" y="358" text-anchor="middle" font-size="12" font-family="Verdana">0</text>
<text x="239" y="358" text-anchor="middle" font-size="12" font-family="Verdana">2</text>
<text x="267" y="358" text-anchor="middle" font-size="12" font-family="Verdana">4</text>
<text x="295" y="358" text-anchor="middle" font-size="12" font-family="Verdana">6</text>
<text x="323" y="358" text-anchor="middle" font-size="12" font-family="Verdana">8</text>
<text x="351" y="358" text-anchor="middle" font-size="12" font-family="Verdana">10</text>
<text x="211" y="358" text-anchor="middle" font-size="12" font-family="Verdana">0</text>
<text x="183" y="358" text-anchor="middle" font-size="12" font-family="Verdana">-2</text>
<text x="155" y="358" text-anchor="middle" font-size="12" font-family="Verdana">-4</text>
<text x="126" y="358" text-anchor="middle" font-size="12" font-family="Verdana">-6</text>
<text x="98.3" y="358" text-anchor="middle" font-size="12" font-family="Verdana">-8</text>
<text x="70.2" y="358" text-anchor="middle" font-size="12" font-family="Verdana">-10</text>
<text x="59.2" y="200" text-anchor="end" font-size="12" font-family="Verdana">0</text>
<text x="59.2" y="172" text-anchor="end" font-size="12" font-family="Verdana">2</text>
<text x="59.2" y="144" text-anchor="end" font-size="12" font-family="Verdana">4</text>
<text x="59.2" y="116" text-anchor="end" font-size="12" font-family="Verdana">6</text>
<text x="59.2" y="87.5" text-anchor="end" font-size="12" font-family="Verdana">8</text>
<text x="59.2" y="59.4" text-anchor="end" font-size="12" font-family="Verdana">10</text>
<text x="59.2" y="200" text-anchor="end" font-size="12" font-family="Verdana">0</text>
<text x="59.2" y="228" text-anchor="end" font-size="12" font-family="Verdana">-2</text>
<text x="59.2" y="256" text-anchor="end" font-size="12" font-family="Verdana">-4</text>
<text x="59.2" y="284" text-anchor="end" font-size="12" font-family="Verdana">-6</text>
<text x="59.2" y="312" text-anchor="end" font-size="12" font-family="Verdana">-8</text>
<text x="59.2" y="341" text-anchor="end" font-size="12" font-family="Verdana">-10</text></g>
<g id="yLabel">
<text x="30.2" y="198" text-anchor="middle" transform = "rotate(-90 30.2 198 )" font-size="14" font-family="Verdana"></text></g>
<g id="xLabel">
<text x="211" y="384" text-anchor="middle" font-size="14" font-family="Verdana"></text></g>
<g id="plotPoints" clip-path="url(#plot_window)"><g stroke="rgb(0,255,255)"><path d="M167,283 L211,283 M287,132 L211,132 " stroke-width="5" fill="none"/></g>
</g>
<g id="legendBackground" stroke="rgb(255,255,0)" fill="rgb(255,255,255)" stroke-width="1"><rect x="365" y="57" width="123" height="42"/><rect x="365" y="57" width="123" height="42"/></g>
<g id="legendPoints"><g stroke="rgb(0,0,0)" fill="rgb(0,128,0)" stroke-width="2"><line x1="379" y1="85" x2="393" y2="85"/></g>
</g>
<g id="legendText">
<text x="400" y="85" font-size="14" font-family="Verdana">Series 2</text></g>
<g id="title">
<text x="250" y="36" text-anchor="middle" font-size="18" font-family="Verdana">Y Times</text></g>
<g id="plotXValues"></g>
<g id="plotYValues"></g>
</svg>
