<?xml version="1.0" encoding="UTF-8" standalone="no"?>
<svg width="700" height ="500" version="1.1"
xmlns:svg ="http://www.w3.org/2000/svg"
xmlns:rdf="http://www.w3.org/1999/02/22-rdf-syntax-ns#"
xmlns:cc="http://web.resource.org/cc/"
xmlns:dc="http://purl.org/dc/elements/1.1/"
xmlns ="http://www.w3.org/2000/svg"
>
<!-- SVG plot written using Boost.Plot program (Creator Jacob Voytko) --> 
<!-- Use, modification and distribution of Boost.Plot subject to the --> 
<!-- Boost Software License, Version 1.0.--> 
<!-- (See accompanying file LICENSE_1_0.txt --> 
<!-- or copy at http://www.boost.org/LICENSE_1_0.txt) --> 

<clipPath id="plot_window"><rect x="51" y="63" width="461" height="386"/></clipPath>
<g id="imageBackground" stroke="rgb(255,255,0)" fill="rgb(248,248,255)" stroke-width="2"><rect x="0" y="0" width="700" height="500"/></g>
<g id="plotBackground" stroke="rgb(0,128,0)" fill="rgb(255,255,255)" stroke-width="1"><rect x="50" y="62" width="463" height="388"/></g>
<g id="yMinorGrid" stroke="rgb(240,240,255)" stroke-width="1"><path d="M51,243 L512,243 M51,230 L512,230 M51,204 L512,204 M51,191 L512,191 M51,165 L512,165 M51,153 L512,153 M51,127 L512,127 M51,114 L512,114 M51,87.9 L512,87.9 M51,74.9 L512,74.9 M51,256 L512,256 M51,269 L512,269 M51,282 L512,282 M51,295 L512,295 M51,308 L512,308 M51,321 L512,321 M51,334 L512,334 M51,334 L512,334 M51,347 L512,347 M51,359 L512,359 M51,372 L512,372 M51,385 L512,385 M51,398 L512,398 M51,411 L512,411 M51,424 L512,424 M51,437 L512,437 M51,450 L512,450 M51,450 L512,450 " fill="none"/></g>
<g id="yMajorGrid" stroke="rgb(200,220,255)" stroke-width="2"><path d="M51,256 L512,256 M51,217 L512,217 M51,178 L512,178 M51,140 L512,140 M51,101 L512,101 M51,62 L512,62 M51,256 L512,256 M51,295 L512,295 M51,334 L512,334 M51,372 L512,372 M51,411 L512,411 M51,450 L512,450 " fill="none"/></g>
<g id="xMinorGrid" stroke="rgb(240,240,255)" stroke-width="0.5"><path d="M495,63 L495,449 M427,63 L427,449 M393,63 L393,449 M324,63 L324,449 M290,63 L290,449 M221,63 L221,449 M187,63 L187,449 M119,63 L119,449 M84.3,63 L84.3,449 " fill="none"/></g>
<g id="xMajorGrid" stroke="rgb(200,220,255)" stroke-width="1"><path d="M461,62 L461,450 M358,62 L358,450 M256,62 L256,450 M153,62 L153,450 M50,62 L50,450 " fill="none"/></g>
<g id="yAxis" stroke="rgb(0,0,0)" stroke-width="1"><line x1="513" y1="62" x2="513" y2="450"/></g>
<g id="xAxis" stroke="rgb(0,0,0)" stroke-width="1"><line x1="50" y1="256" x2="513" y2="256"/></g>
<g id="yMinorTicks" stroke="rgb(0,0,0)" stroke-width="1"><path d="M508,243 L513,243 M508,230 L513,230 M508,204 L513,204 M508,191 L513,191 M508,165 L513,165 M508,153 L513,153 M508,127 L513,127 M508,114 L513,114 M508,87.9 L513,87.9 M508,74.9 L513,74.9 M508,256 L513,256 M508,269 L513,269 M508,282 L513,282 M508,295 L513,295 M508,308 L513,308 M508,321 L513,321 M508,334 L513,334 M508,334 L513,334 M508,347 L513,347 M508,359 L513,359 M508,372 L513,372 M508,385 L513,385 M508,398 L513,398 M508,411 L513,411 M508,424 L513,424 M508,437 L513,437 M508,450 L513,450 M508,450 L513,450 " fill="none"/></g>
<g id="xMinorTicks" stroke="rgb(0,0,0)" stroke-width="1"><path d="M495,256 L495,261 M427,256 L427,261 M393,256 L393,261 M324,256 L324,261 M290,256 L290,261 M221,256 L221,261 M187,256 L187,261 M119,256 L119,261 M84.3,256 L84.3,261 " fill="none"/></g>
<g id="yMajorTicks" stroke="rgb(0,0,0)" stroke-width="2"><path d="M503,256 L513,256 M503,217 L513,217 M503,178 L513,178 M503,140 L513,140 M503,101 L513,101 M503,62 L513,62 M503,256 L513,256 M503,295 L513,295 M503,334 L513,334 M503,372 L513,372 M503,411 L513,411 M503,450 L513,450 " fill="none"/></g>
<g id="xMajorTicks" stroke="rgb(0,0,0)" stroke-width="2"><path d="M461,256 L461,266 M358,256 L358,266 M256,256 L256,266 M153,256 L153,266 M50,256 L50,266 " fill="none"/></g>
<g id="plotLabels">
<text x="461" y="283" text-anchor="middle" font-size="14" font-family="Verdana">-2.00</text>
<text x="358" y="283" text-anchor="middle" font-size="14" font-family="Verdana">-4.00</text>
<text x="256" y="283" text-anchor="middle" font-size="14" font-family="Verdana">-6.00</text>
<text x="153" y="283" text-anchor="middle" font-size="14" font-family="Verdana">-8.00</text>
<text x="50" y="283" text-anchor="middle" font-size="14" font-family="Verdana">-1.00e1</text>
<text x="497" y="258" text-anchor="end" font-size="12" font-family="Verdana">0.0</text>
<text x="497" y="220" text-anchor="end" font-size="12" font-family="Verdana">2.0</text>
<text x="497" y="181" text-anchor="end" font-size="12" font-family="Verdana">4.0</text>
<text x="497" y="142" text-anchor="end" font-size="12" font-family="Verdana">6.0</text>
<text x="497" y="103" text-anchor="end" font-size="12" font-family="Verdana">8.0</text>
<text x="497" y="64.4" text-anchor="end" font-size="12" font-family="Verdana">10.0</text>
<text x="497" y="258" text-anchor="end" font-size="12" font-family="Verdana">0.0</text>
<text x="497" y="297" text-anchor="end" font-size="12" font-family="Verdana">-2.0</text>
<text x="497" y="336" text-anchor="end" font-size="12" font-family="Verdana">-4.0</text>
<text x="497" y="375" text-anchor="end" font-size="12" font-family="Verdana">-6.0</text>
<text x="497" y="414" text-anchor="end" font-size="12" font-family="Verdana">-8.0</text>
<text x="497" y="452" text-anchor="end" font-size="12" font-family="Verdana">-10.0</text></g>
<g id="yLabel">
<text x="40.2" y="256" text-anchor="middle" transform = "rotate(-90 40.2 256 )" font-size="14" font-family="Verdana">Y-axis</text></g>
<g id="xLabel">
<text x="281" y="478" text-anchor="middle" font-size="14" font-family="Verdana">X-axis</text></g>
<g id="plotLines" stroke-width="2"><g clip-path="url(#plot_window)" stroke="rgb(0,0,0)" stroke-width="2"><path d="M564,256 L615,237 L667,229 L718,222 L770,217 L821,213 L872,208 L924,205 L975,201 L1.03e+003,198 L1.08e+003,195 " fill="none"/></g>
<g clip-path="url(#plot_window)" stroke="rgb(0,0,0)"><path d="M50,-1.65e+003 S91.1,-1.35e+003 101,-1.28e+003 S143,-1.01e+003 153,-947 S194,-710 204,-656 S245,-450 256,-404 S297,-229 307,-190 S348,-46.6 358,-15.6 S400,96.9 410,120 S451,202 461,217 S502,268 513,275 S554,295 564,295 S605,283 615,275 S657,233 667,217 S708,143 718,120 S759,15.4 770,-15.6 S811,-151 821,-190 S862,-357 872,-404 S914,-601 924,-656 S965,-885 975,-947 S1.02e+003,-1.21e+003 1.03e+003,-1.28e+003 S1.08e+003,-1.68e+003 1.08e+003,-1.65e+003 " fill="none"/></g>
<g clip-path="url(#plot_window)" stroke="rgb(0,0,255)" stroke-width="3"><path d="M50,663 L101,625 L153,586 L204,547 L256,508 L307,469 L358,431 L410,392 L461,353 L513,314 L564,275 L615,237 L667,198 L718,159 L770,120 L821,81.4 L872,42.6 L924,3.8 L975,-35 L1.03e+003,-73.8 L1.08e+003,-113 " fill="none"/></g>
</g>
<g id="plotPoints" clip-path="url(#plot_window)"><g stroke="rgb(0,0,0)" fill="rgb(255,165,0)"><circle cx="410" cy="120" r="2"/><circle cx="461" cy="217" r="2"/></g>
<g stroke="rgb(0,0,0)" fill="rgb(255,255,0)"><rect x="353" y="426" width="10" height="10"/><rect x="405" y="387" width="10" height="10"/><rect x="456" y="348" width="10" height="10"/></g>
</g>
<g id="limitPoints" stroke="rgb(119,136,153)" fill="rgb(250,235,215)"><polygon points=" 96.4,246 106,246 101,256" fill = "none"/><polygon points=" 148,246 158,246 153,256" fill = "none"/><polygon points=" 199,246 209,246 204,256" fill = "none"/><polygon points=" 251,246 261,246 256,256" fill = "none"/><polygon points=" 302,246 312,246 307,256" fill = "none"/><polygon points=" 353,246 363,246 358,256" fill = "none"/><polygon points=" 405,246 415,246 410,256" fill = "none"/><polygon points=" 456,246 466,246 461,256" fill = "none"/></g>
<g id="legendBackground" stroke="rgb(255,255,0)" fill="rgb(255,255,224)" stroke-width="1"><rect x="527" y="62" width="161" height="144"/><rect x="527" y="62" width="161" height="144"/></g>
<g id="legendPoints"><g stroke="rgb(0,0,0)" fill="rgb(255,0,0)" stroke-width="2"><circle cx="543" cy="126" r="5"/><line x1="567" y1="126" x2="583" y2="126"/></g>
<g stroke="rgb(0,0,0)" fill="rgb(255,165,0)" stroke-width="2"><circle cx="543" cy="158" r="2"/><line x1="567" y1="158" x2="583" y2="158"/></g>
<g stroke="rgb(0,0,255)" fill="rgb(255,255,0)" stroke-width="3"><rect x="538" y="185" width="10" height="10"/><line x1="567" y1="190" x2="583" y2="190"/></g>
</g>
<g id="legendText">
<text x="607" y="94" text-anchor="middle" font-size="16" font-family="Verdana">Unicode &#x3A9;&#x3A6;</text>
<text x="591" y="126" font-size="16" font-family="Verdana">Sqrt(x)</text>
<text x="591" y="158" font-size="16" font-family="Verdana">-2 + x^2</text>
<text x="591" y="190" font-size="16" font-family="Verdana">-1 + 2x</text></g>
<g id="title" fill="rgb(255,0,0)">
<text x="350" y="40" text-anchor="middle" font-size="20" font-family="Verdana">Plot of Mathematical Functions</text></g>
<g id="plotXValues"></g>
<g id="plotYValues"></g>
</svg>
