<?xml version="1.0" encoding="UTF-8" standalone="no"?>
<svg width="700" height ="500" version="1.1"
xmlns:svg ="http://www.w3.org/2000/svg"
xmlns:rdf="http://www.w3.org/1999/02/22-rdf-syntax-ns#"
xmlns:cc="http://web.resource.org/cc/"
xmlns:dc="http://purl.org/dc/elements/1.1/"
xmlns ="http://www.w3.org/2000/svg"
>
<!-- SVG plot written using Boost.Plot program (Creator Jacob Voytko) --> 
<!-- Use, modification and distribution of Boost.Plot subject to the --> 
<!-- Boost Software License, Version 1.0.--> 
<!-- (See accompanying file LICENSE_1_0.txt --> 
<!-- or copy at http://www.boost.org/LICENSE_1_0.txt) --> 

<clipPath id="plot_window"><rect x="93" y="63" width="419" height="386"/></clipPath>
<g id="imageBackground" stroke="rgb(255,255,0)" fill="rgb(248,248,255)" stroke-width="2"><rect x="0" y="0" width="700" height="500"/></g>
<g id="plotBackground" stroke="rgb(0,128,0)" fill="rgb(255,255,255)" stroke-width="1"><rect x="92" y="62" width="421" height="388"/></g>
<g id="yMinorGrid" stroke="rgb(240,240,255)" stroke-width="1"><path d="M93,243 L512,243 M93,230 L512,230 M93,204 L512,204 M93,191 L512,191 M93,165 L512,165 M93,153 L512,153 M93,127 L512,127 M93,114 L512,114 M93,87.9 L512,87.9 M93,74.9 L512,74.9 M93,256 L512,256 M93,269 L512,269 M93,282 L512,282 M93,295 L512,295 M93,308 L512,308 M93,321 L512,321 M93,334 L512,334 M93,334 L512,334 M93,347 L512,347 M93,359 L512,359 M93,372 L512,372 M93,385 L512,385 M93,398 L512,398 M93,411 L512,411 M93,424 L512,424 M93,437 L512,437 M93,450 L512,450 M93,450 L512,450 " fill="none"/></g>
<g id="yMajorGrid" stroke="rgb(200,220,255)" stroke-width="2"><path d="M93,256 L512,256 M93,217 L512,217 M93,178 L512,178 M93,140 L512,140 M93,101 L512,101 M93,62 L512,62 M93,256 L512,256 M93,295 L512,295 M93,334 L512,334 M93,372 L512,372 M93,411 L512,411 M93,450 L512,450 " fill="none"/></g>
<g id="xMinorGrid" stroke="rgb(240,240,255)" stroke-width="0.5"><path d="M108,63 L108,449 M170,63 L170,449 M201,63 L201,449 M263,63 L263,449 M295,63 L295,449 M357,63 L357,449 M388,63 L388,449 M450,63 L450,449 M481,63 L481,449 " fill="none"/></g>
<g id="xMajorGrid" stroke="rgb(200,220,255)" stroke-width="1"><path d="M139,62 L139,450 M232,62 L232,450 M326,62 L326,450 M419,62 L419,450 M513,62 L513,450 " fill="none"/></g>
<g id="yAxis" stroke="rgb(0,0,0)" stroke-width="1"><line x1="92" y1="62" x2="92" y2="450"/></g>
<g id="xAxis" stroke="rgb(0,0,0)" stroke-width="1"><line x1="82" y1="256" x2="513" y2="256"/></g>
<g id="yMinorTicks" stroke="rgb(0,0,0)" stroke-width="1"><path d="M87,243 L92,243 M87,230 L92,230 M87,204 L92,204 M87,191 L92,191 M87,165 L92,165 M87,153 L92,153 M87,127 L92,127 M87,114 L92,114 M87,87.9 L92,87.9 M87,74.9 L92,74.9 M87,256 L92,256 M87,269 L92,269 M87,282 L92,282 M87,295 L92,295 M87,308 L92,308 M87,321 L92,321 M87,334 L92,334 M87,334 L92,334 M87,347 L92,347 M87,359 L92,359 M87,372 L92,372 M87,385 L92,385 M87,398 L92,398 M87,411 L92,411 M87,424 L92,424 M87,437 L92,437 M87,450 L92,450 M87,450 L92,450 " fill="none"/></g>
<g id="xMinorTicks" stroke="rgb(0,0,0)" stroke-width="1"><path d="M108,256 L108,261 M170,256 L170,261 M201,256 L201,261 M263,256 L263,261 M295,256 L295,261 M357,256 L357,261 M388,256 L388,261 M450,256 L450,261 M481,256 L481,261 " fill="none"/></g>
<g id="yMajorTicks" stroke="rgb(0,0,0)" stroke-width="2"><path d="M82,256 L92,256 M82,217 L92,217 M82,178 L92,178 M82,140 L92,140 M82,101 L92,101 M82,62 L92,62 M82,256 L92,256 M82,295 L92,295 M82,334 L92,334 M82,372 L92,372 M82,411 L92,411 M82,450 L92,450 " fill="none"/></g>
<g id="xMajorTicks" stroke="rgb(0,0,0)" stroke-width="2"><path d="M139,256 L139,266 M232,256 L232,266 M326,256 L326,266 M419,256 L419,266 M513,256 L513,266 " fill="none"/></g>
<g id="plotLabels">
<text x="139" y="283" text-anchor="middle" font-size="14" font-family="Verdana">2.00</text>
<text x="232" y="283" text-anchor="middle" font-size="14" font-family="Verdana">4.00</text>
<text x="326" y="283" text-anchor="middle" font-size="14" font-family="Verdana">6.00</text>
<text x="419" y="283" text-anchor="middle" font-size="14" font-family="Verdana">8.00</text>
<text x="513" y="283" text-anchor="middle" font-size="14" font-family="Verdana">1.00e1</text>
<text x="76" y="258" text-anchor="end" font-size="12" font-family="Verdana">0.0</text>
<text x="76" y="220" text-anchor="end" font-size="12" font-family="Verdana">2.0</text>
<text x="76" y="181" text-anchor="end" font-size="12" font-family="Verdana">4.0</text>
<text x="76" y="142" text-anchor="end" font-size="12" font-family="Verdana">6.0</text>
<text x="76" y="103" text-anchor="end" font-size="12" font-family="Verdana">8.0</text>
<text x="76" y="64.4" text-anchor="end" font-size="12" font-family="Verdana">10.0</text>
<text x="76" y="258" text-anchor="end" font-size="12" font-family="Verdana">0.0</text>
<text x="76" y="297" text-anchor="end" font-size="12" font-family="Verdana">-2.0</text>
<text x="76" y="336" text-anchor="end" font-size="12" font-family="Verdana">-4.0</text>
<text x="76" y="375" text-anchor="end" font-size="12" font-family="Verdana">-6.0</text>
<text x="76" y="414" text-anchor="end" font-size="12" font-family="Verdana">-8.0</text>
<text x="76" y="452" text-anchor="end" font-size="12" font-family="Verdana">-10.0</text></g>
<g id="yLabel">
<text x="30.2" y="256" text-anchor="middle" transform = "rotate(-90 30.2 256 )" font-size="14" font-family="Verdana">Y-axis</text></g>
<g id="xLabel">
<text x="302" y="478" text-anchor="middle" font-size="14" font-family="Verdana">X-axis</text></g>
<g id="plotLines" stroke-width="2"><g clip-path="url(#plot_window)" stroke="rgb(0,0,0)" stroke-width="2"><path d="M45.3,256 L92,237 L139,229 L185,222 L232,217 L279,213 L326,208 L372,205 L419,201 L466,198 L513,195 " fill="none"/></g>
<g clip-path="url(#plot_window)" stroke="rgb(0,0,0)"><path d="M-422,-1.65e+003 S-385,-1.35e+003 -375,-1.28e+003 S-338,-1.01e+003 -329,-947 S-291,-710 -282,-656 S-244,-450 -235,-404 S-198,-229 -188,-190 S-151,-46.6 -142,-15.6 S-104,96.9 -94.9,120 S-57.5,202 -48.2,217 S-10.8,268 -1.47,275 S35.9,295 45.3,295 S82.7,283 92,275 S129,233 139,217 S176,143 185,120 S223,15.4 232,-15.6 S270,-151 279,-190 S316,-357 326,-404 S363,-601 372,-656 S410,-885 419,-947 S457,-1.21e+003 466,-1.28e+003 S513,-1.68e+003 513,-1.65e+003 " fill="none"/></g>
<g clip-path="url(#plot_window)" stroke="rgb(0,0,255)" stroke-width="3"><path d="M-422,663 L-375,625 L-329,586 L-282,547 L-235,508 L-188,469 L-142,431 L-94.9,392 L-48.2,353 L-1.47,314 L45.3,275 L92,237 L139,198 L185,159 L232,120 L279,81.4 L326,42.6 L372,3.8 L419,-35 L466,-73.8 L513,-113 " fill="none"/></g>
</g>
<g id="plotPoints" clip-path="url(#plot_window)"><g stroke="rgb(0,0,0)" fill="rgb(255,0,0)"><circle cx="139" cy="229" r="5"/><circle cx="185" cy="222" r="5"/><circle cx="232" cy="217" r="5"/><circle cx="279" cy="213" r="5"/><circle cx="326" cy="208" r="5"/><circle cx="372" cy="205" r="5"/><circle cx="419" cy="201" r="5"/><circle cx="466" cy="198" r="5"/></g>
<g stroke="rgb(0,0,0)" fill="rgb(255,165,0)"><circle cx="139" cy="217" r="2"/><circle cx="185" cy="120" r="2"/></g>
<g stroke="rgb(0,0,0)" fill="rgb(255,255,0)"><rect x="134" y="193" width="10" height="10"/><rect x="180" y="154" width="10" height="10"/><rect x="227" y="115" width="10" height="10"/><rect x="274" y="76.4" width="10" height="10"/></g>
</g>
<g id="legendBackground" stroke="rgb(255,255,0)" fill="rgb(255,255,224)" stroke-width="1"><rect x="527" y="62" width="161" height="144"/><rect x="527" y="62" width="161" height="144"/></g>
<g id="legendPoints"><g stroke="rgb(0,0,0)" fill="rgb(255,0,0)" stroke-width="2"><circle cx="543" cy="126" r="5"/><line x1="567" y1="126" x2="583" y2="126"/></g>
<g stroke="rgb(0,0,0)" fill="rgb(255,165,0)" stroke-width="2"><circle cx="543" cy="158" r="2"/><line x1="567" y1="158" x2="583" y2="158"/></g>
<g stroke="rgb(0,0,255)" fill="rgb(255,255,0)" stroke-width="3"><rect x="538" y="185" width="10" height="10"/><line x1="567" y1="190" x2="583" y2="190"/></g>
</g>
<g id="legendText">
<text x="607" y="94" text-anchor="middle" font-size="16" font-family="Verdana">Unicode &#x3A9;&#x3A6;</text>
<text x="591" y="126" font-size="16" font-family="Verdana">Sqrt(x)</text>
<text x="591" y="158" font-size="16" font-family="Verdana">-2 + x^2</text>
<text x="591" y="190" font-size="16" font-family="Verdana">-1 + 2x</text></g>
<g id="title" fill="rgb(255,0,0)">
<text x="350" y="40" text-anchor="middle" font-size="20" font-family="Verdana">Plot of Mathematical Functions</text></g>
<g id="plotXValues"></g>
<g id="plotYValues"></g>
</svg>
