<?xml version="1.0" encoding="UTF-8" standalone="no"?>
<svg width="400" height ="300" version="1.1"
xmlns:svg ="http://www.w3.org/2000/svg"
xmlns:rdf="http://www.w3.org/1999/02/22-rdf-syntax-ns#"
xmlns:cc="http://web.resource.org/cc/"
xmlns:dc="http://purl.org/dc/elements/1.1/"
xmlns ="http://www.w3.org/2000/svg"
>
<!-- SVG plot written using Boost.Plot program (Creator Jacob Voytko) --> 
<!-- Use, modification and distribution of Boost.Plot subject to the --> 
<!-- Boost Software License, Version 1.0.--> 
<!-- (See accompanying file LICENSE_1_0.txt --> 
<!-- or copy at http://www.boost.org/LICENSE_1_0.txt) --> 

<clipPath id="plot_window"><rect x="71.2" y="58" width="316" height="179"/></clipPath>
<g id="imageBackground" stroke="rgb(255,255,0)" fill="rgb(255,255,255)" stroke-width="2"><rect x="0" y="0" width="400" height="300"/></g>
<g id="plotBackground" stroke="rgb(119,136,153)" fill="rgb(255,255,255)" stroke-width="2"><rect x="70.2" y="57" width="318" height="181"/></g>
<g id="yMinorGrid" stroke="rgb(200,220,255)" stroke-width="0.5"></g>
<g id="yMajorGrid" stroke="rgb(200,220,255)" stroke-width="1"></g>
<g id="xMinorGrid" stroke="rgb(200,220,255)" stroke-width="0.5"></g>
<g id="xMajorGrid" stroke="rgb(200,220,255)" stroke-width="1"></g>
<g id="yAxis" stroke="rgb(0,0,0)" stroke-width="1"><line x1="229" y1="57" x2="229" y2="243"/><line x1="70.2" y1="57" x2="70.2" y2="238"/></g>
<g id="xAxis" stroke="rgb(0,0,0)" stroke-width="1"><line x1="65.2" y1="148" x2="388" y2="148"/><line x1="65.2" y1="238" x2="388" y2="238"/></g>
<g id="yMinorTicks" stroke="rgb(0,0,0)" stroke-width="1"><path d="M68.2,144 L70.2,144 M68.2,140 L70.2,140 M68.2,137 L70.2,137 M68.2,133 L70.2,133 M68.2,126 L70.2,126 M68.2,122 L70.2,122 M68.2,119 L70.2,119 M68.2,115 L70.2,115 M68.2,108 L70.2,108 M68.2,104 L70.2,104 M68.2,100 L70.2,100 M68.2,96.9 L70.2,96.9 M68.2,89.6 L70.2,89.6 M68.2,86 L70.2,86 M68.2,82.4 L70.2,82.4 M68.2,78.7 L70.2,78.7 M68.2,71.5 L70.2,71.5 M68.2,67.9 L70.2,67.9 M68.2,64.2 L70.2,64.2 M68.2,60.6 L70.2,60.6 M68.2,148 L70.2,148 M68.2,151 L70.2,151 M68.2,155 L70.2,155 M68.2,158 L70.2,158 M68.2,162 L70.2,162 M68.2,166 L70.2,166 M68.2,169 L70.2,169 M68.2,173 L70.2,173 M68.2,177 L70.2,177 M68.2,180 L70.2,180 M68.2,184 L70.2,184 M68.2,184 L70.2,184 M68.2,187 L70.2,187 M68.2,191 L70.2,191 M68.2,195 L70.2,195 M68.2,198 L70.2,198 M68.2,202 L70.2,202 M68.2,206 L70.2,206 M68.2,209 L70.2,209 M68.2,213 L70.2,213 M68.2,216 L70.2,216 M68.2,220 L70.2,220 M68.2,224 L70.2,224 M68.2,227 L70.2,227 M68.2,231 L70.2,231 M68.2,235 L70.2,235 M68.2,238 L70.2,238 " fill="none"/></g>
<g id="xMinorTicks" stroke="rgb(0,0,0)" stroke-width="1"><path d="M235,238 L235,240 M242,238 L242,240 M248,238 L248,240 M255,238 L255,240 M267,238 L267,240 M274,238 L274,240 M280,238 L280,240 M286,238 L286,240 M299,238 L299,240 M305,238 L305,240 M312,238 L312,240 M318,238 L318,240 M331,238 L331,240 M337,238 L337,240 M344,238 L344,240 M350,238 L350,240 M363,238 L363,240 M369,238 L369,240 M375,238 L375,240 M382,238 L382,240 M223,238 L223,240 M216,238 L216,240 M210,238 L210,240 M204,238 L204,240 M191,238 L191,240 M185,238 L185,240 M178,238 L178,240 M172,238 L172,240 M159,238 L159,240 M153,238 L153,240 M146,238 L146,240 M140,238 L140,240 M127,238 L127,240 M121,238 L121,240 M115,238 L115,240 M108,238 L108,240 M95.6,238 L95.6,240 M89.3,238 L89.3,240 M82.9,238 L82.9,240 M76.6,238 L76.6,240 " fill="none"/></g>
<g id="yMajorTicks" stroke="rgb(0,0,0)" stroke-width="2"><path d="M65.2,148 L70.2,148 M65.2,129 L70.2,129 M65.2,111 L70.2,111 M65.2,93.2 L70.2,93.2 M65.2,75.1 L70.2,75.1 M65.2,57 L70.2,57 M65.2,148 L70.2,148 M65.2,166 L70.2,166 M65.2,184 L70.2,184 M65.2,202 L70.2,202 M65.2,220 L70.2,220 M65.2,238 L70.2,238 " fill="none"/></g>
<g id="xMajorTicks" stroke="rgb(0,0,0)" stroke-width="2"><path d="M229,238 L229,243 M261,238 L261,243 M293,238 L293,243 M324,238 L324,243 M356,238 L356,243 M388,238 L388,243 M229,238 L229,243 M197,238 L197,243 M166,238 L166,243 M134,238 L134,243 M102,238 L102,243 M70.2,238 L70.2,243 " fill="none"/></g>
<g id="plotLabels">
<text x="229" y="258" text-anchor="middle" font-size="12" font-family="Verdana">0</text>
<text x="261" y="258" text-anchor="middle" font-size="12" font-family="Verdana">2</text>
<text x="293" y="258" text-anchor="middle" font-size="12" font-family="Verdana">4</text>
<text x="324" y="258" text-anchor="middle" font-size="12" font-family="Verdana">6</text>
<text x="356" y="258" text-anchor="middle" font-size="12" font-family="Verdana">8</text>
<text x="388" y="258" text-anchor="middle" font-size="12" font-family="Verdana">10</text>
<text x="229" y="258" text-anchor="middle" font-size="12" font-family="Verdana">0</text>
<text x="197" y="258" text-anchor="middle" font-size="12" font-family="Verdana">-2</text>
<text x="166" y="258" text-anchor="middle" font-size="12" font-family="Verdana">-4</text>
<text x="134" y="258" text-anchor="middle" font-size="12" font-family="Verdana">-6</text>
<text x="102" y="258" text-anchor="middle" font-size="12" font-family="Verdana">-8</text>
<text x="70.2" y="258" text-anchor="middle" font-size="12" font-family="Verdana">-10</text>
<text x="59.2" y="150" text-anchor="end" font-size="12" font-family="Verdana">0</text>
<text x="59.2" y="132" text-anchor="end" font-size="12" font-family="Verdana">2</text>
<text x="59.2" y="114" text-anchor="end" font-size="12" font-family="Verdana">4</text>
<text x="59.2" y="95.6" text-anchor="end" font-size="12" font-family="Verdana">6</text>
<text x="59.2" y="77.5" text-anchor="end" font-size="12" font-family="Verdana">8</text>
<text x="59.2" y="59.4" text-anchor="end" font-size="12" font-family="Verdana">10</text>
<text x="59.2" y="150" text-anchor="end" font-size="12" font-family="Verdana">0</text>
<text x="59.2" y="168" text-anchor="end" font-size="12" font-family="Verdana">-2</text>
<text x="59.2" y="186" text-anchor="end" font-size="12" font-family="Verdana">-4</text>
<text x="59.2" y="204" text-anchor="end" font-size="12" font-family="Verdana">-6</text>
<text x="59.2" y="222" text-anchor="end" font-size="12" font-family="Verdana">-8</text>
<text x="59.2" y="241" text-anchor="end" font-size="12" font-family="Verdana">-10</text></g>
<g id="yLabel">
<text x="30.2" y="148" text-anchor="middle" transform = "rotate(-90 30.2 148 )" font-size="14" font-family="Verdana"></text></g>
<g id="xLabel">
<text x="229" y="284" text-anchor="middle" font-size="14" font-family="Verdana"></text></g>
<g id="plotPoints" clip-path="url(#plot_window)"><g stroke="rgb(0,0,0)" fill="rgb(255,0,0)"><circle cx="233" cy="135" r="5"/><circle cx="247" cy="119" r="5"/><circle cx="297" cy="120" r="5"/></g>
</g>
<g id="title">
<text x="200" y="36" text-anchor="middle" font-size="18" font-family="Verdana"></text></g>
<g id="plotXValues"></g>
<g id="plotYValues"></g>
<g fill="rgb(0,0,0)">
<text x="150" y="200" text-anchor="middle" font-size="12">My 1st Note</text></g>
<g fill="rgb(0,0,0)">
<text x="40" y="10" text-anchor="middle" font-size="12">top left (0, 0)</text></g>
<g fill="rgb(0,0,0)">
<text x="390" y="290" text-anchor="middle" font-size="12">bottom right(380, 280)</text></g>
<g fill="rgb(0,0,0)">
<text x="150" y="100" text-anchor="middle" font-size="12">Greek Unicode &#x3A9;&#x3A6;&#x221A;&#x00a0;&#x221E;&#x3B6; &#x00B1;</text></g>
<g fill="rgb(0,0,0)">
<text x="350" y="70" text-anchor="end" transform = "rotate(-30 350 70 )" font-size="16" font-family="verdana" font-style="italic" font-weight="bold">My 2nd Note</text></g>
<g fill="rgb(255,0,0)">
<text x="350" y="170" transform = "rotate(180 350 170 )" font-size="16" font-family="arial" font-style="italic" font-weight="bold">Red Note</text></g>
<g fill="rgb(0,0,255)">
<text x="300" y="210" text-anchor="middle" transform = "rotate(-60 300 210 )" font-size="12">Blue Note</text></g>
</svg>
