<?xml version="1.0" encoding="UTF-8" standalone="no"?>
<svg width="700" height ="500" version="1.1"
xmlns:svg ="http://www.w3.org/2000/svg"
xmlns:rdf="http://www.w3.org/1999/02/22-rdf-syntax-ns#"
xmlns:cc="http://web.resource.org/cc/"
xmlns:dc="http://purl.org/dc/elements/1.1/"
xmlns ="http://www.w3.org/2000/svg"
>
<!-- SVG plot written using Boost.Plot program (Creator Jacob Voytko) --> 
<!-- Use, modification and distribution of Boost.Plot subject to the --> 
<!-- Boost Software License, Version 1.0.--> 
<!-- (See accompanying file LICENSE_1_0.txt --> 
<!-- or copy at http://www.boost.org/LICENSE_1_0.txt) --> 

<clipPath id="plot_window"><rect x="51" y="63" width="461" height="386"/></clipPath>
<g id="imageBackground" stroke="rgb(255,255,0)" fill="rgb(248,248,255)" stroke-width="2"><rect x="0" y="0" width="700" height="500"/></g>
<g id="plotBackground" stroke="rgb(0,128,0)" fill="rgb(255,255,255)" stroke-width="1"><rect x="50" y="62" width="463" height="388"/></g>
<g id="yMinorGrid" stroke="rgb(240,240,255)" stroke-width="1"><path d="M51,243 L512,243 M51,230 L512,230 M51,204 L512,204 M51,191 L512,191 M51,165 L512,165 M51,153 L512,153 M51,127 L512,127 M51,114 L512,114 M51,87.9 L512,87.9 M51,74.9 L512,74.9 M51,269 L512,269 M51,282 L512,282 M51,295 L512,295 M51,308 L512,308 M51,321 L512,321 M51,334 L512,334 M51,334 L512,334 M51,347 L512,347 M51,359 L512,359 M51,372 L512,372 M51,385 L512,385 M51,398 L512,398 M51,411 L512,411 M51,424 L512,424 M51,437 L512,437 M51,450 L512,450 M51,450 L512,450 " fill="none"/></g>
<g id="yMajorGrid" stroke="rgb(200,220,255)" stroke-width="2"><path d="M51,217 L512,217 M51,178 L512,178 M51,140 L512,140 M51,101 L512,101 M51,62 L512,62 M51,295 L512,295 M51,334 L512,334 M51,372 L512,372 M51,411 L512,411 M51,450 L512,450 " fill="none"/></g>
<g id="xMinorGrid" stroke="rgb(240,240,255)" stroke-width="0.5"><path d="M297,63 L297,449 M312,63 L312,449 M343,63 L343,449 M358,63 L358,449 M389,63 L389,449 M405,63 L405,449 M436,63 L436,449 M451,63 L451,449 M482,63 L482,449 M497,63 L497,449 M266,63 L266,449 M250,63 L250,449 M220,63 L220,449 M204,63 L204,449 M173,63 L173,449 M158,63 L158,449 M127,63 L127,449 M112,63 L112,449 M80.8,63 L80.8,449 M65.4,63 L65.4,449 " fill="none"/></g>
<g id="xMajorGrid" stroke="rgb(200,220,255)" stroke-width="1"><path d="M328,62 L328,450 M374,62 L374,450 M420,62 L420,450 M466,62 L466,450 M513,62 L513,450 M235,62 L235,450 M189,62 L189,450 M143,62 L143,450 M96.3,62 L96.3,450 M50,62 L50,450 " fill="none"/></g>
<g id="yAxis" stroke="rgb(0,0,0)" stroke-width="1"><line x1="281" y1="62" x2="281" y2="450"/><line x1="513" y1="62" x2="513" y2="450"/></g>
<g id="xAxis" stroke="rgb(0,0,0)" stroke-width="1"><line x1="50" y1="256" x2="513" y2="256"/></g>
<g id="yMinorTicks" stroke="rgb(0,0,0)" stroke-width="1"><path d="M276,243 L281,243 M276,230 L281,230 M276,204 L281,204 M276,191 L281,191 M276,165 L281,165 M276,153 L281,153 M276,127 L281,127 M276,114 L281,114 M276,87.9 L281,87.9 M276,74.9 L281,74.9 M276,269 L281,269 M276,282 L281,282 M276,295 L281,295 M276,308 L281,308 M276,321 L281,321 M276,334 L281,334 M276,334 L281,334 M276,347 L281,347 M276,359 L281,359 M276,372 L281,372 M276,385 L281,385 M276,398 L281,398 M276,411 L281,411 M276,424 L281,424 M276,437 L281,437 M276,450 L281,450 M276,450 L281,450 " fill="none"/></g>
<g id="xMinorTicks" stroke="rgb(0,0,0)" stroke-width="1"><path d="M297,256 L297,261 M312,256 L312,261 M343,256 L343,261 M358,256 L358,261 M389,256 L389,261 M405,256 L405,261 M436,256 L436,261 M451,256 L451,261 M482,256 L482,261 M497,256 L497,261 M266,256 L266,261 M250,256 L250,261 M220,256 L220,261 M204,256 L204,261 M173,256 L173,261 M158,256 L158,261 M127,256 L127,261 M112,256 L112,261 M80.8,256 L80.8,261 M65.4,256 L65.4,261 " fill="none"/></g>
<g id="yMajorTicks" stroke="rgb(0,0,0)" stroke-width="2"><path d="M271,217 L281,217 M271,178 L281,178 M271,140 L281,140 M271,101 L281,101 M271,62 L281,62 M271,295 L281,295 M271,334 L281,334 M271,372 L281,372 M271,411 L281,411 M271,450 L281,450 " fill="none"/></g>
<g id="xMajorTicks" stroke="rgb(0,0,0)" stroke-width="2"><path d="M328,256 L328,266 M374,256 L374,266 M420,256 L420,266 M466,256 L466,266 M513,256 L513,266 M235,256 L235,266 M189,256 L189,266 M143,256 L143,266 M96.3,256 L96.3,266 M50,256 L50,266 " fill="none"/></g>
<g id="plotLabels">
<text x="328" y="283" text-anchor="middle" font-size="14" font-family="Verdana">2.00</text>
<text x="374" y="283" text-anchor="middle" font-size="14" font-family="Verdana">4.00</text>
<text x="420" y="283" text-anchor="middle" font-size="14" font-family="Verdana">6.00</text>
<text x="466" y="283" text-anchor="middle" font-size="14" font-family="Verdana">8.00</text>
<text x="513" y="283" text-anchor="middle" font-size="14" font-family="Verdana">1.00e1</text>
<text x="235" y="283" text-anchor="middle" font-size="14" font-family="Verdana">-2.00</text>
<text x="189" y="283" text-anchor="middle" font-size="14" font-family="Verdana">-4.00</text>
<text x="143" y="283" text-anchor="middle" font-size="14" font-family="Verdana">-6.00</text>
<text x="96.3" y="283" text-anchor="middle" font-size="14" font-family="Verdana">-8.00</text>
<text x="50" y="283" text-anchor="middle" font-size="14" font-family="Verdana">-1.00e1</text>
<text x="265" y="220" text-anchor="end" font-size="12" font-family="Verdana">2.0</text>
<text x="265" y="181" text-anchor="end" font-size="12" font-family="Verdana">4.0</text>
<text x="265" y="142" text-anchor="end" font-size="12" font-family="Verdana">6.0</text>
<text x="265" y="103" text-anchor="end" font-size="12" font-family="Verdana">8.0</text>
<text x="265" y="64.4" text-anchor="end" font-size="12" font-family="Verdana">10.0</text>
<text x="265" y="297" text-anchor="end" font-size="12" font-family="Verdana">-2.0</text>
<text x="265" y="336" text-anchor="end" font-size="12" font-family="Verdana">-4.0</text>
<text x="265" y="375" text-anchor="end" font-size="12" font-family="Verdana">-6.0</text>
<text x="265" y="414" text-anchor="end" font-size="12" font-family="Verdana">-8.0</text>
<text x="265" y="452" text-anchor="end" font-size="12" font-family="Verdana">-10.0</text></g>
<g id="yLabel">
<text x="40.2" y="256" text-anchor="middle" transform = "rotate(-90 40.2 256 )" font-size="14" font-family="Verdana">Y-axis &#x221E;&#x221A;</text></g>
<g id="xLabel">
<text x="281" y="478" text-anchor="middle" font-size="14" font-family="Verdana">X-axis &#x00B1;&#x3A9;</text></g>
<g id="plotLines" stroke-width="2"><g clip-path="url(#plot_window)" stroke="rgb(0,0,0)" stroke-width="2"><path d="M281,256 L304,237 L328,229 L351,222 L374,217 L397,213 L420,208 L443,205 L466,201 L489,198 L513,195 " fill="none"/></g>
<g clip-path="url(#plot_window)" stroke="rgb(0,0,0)"><path d="M50,-1.65e+003 S68.5,-1.35e+003 73.1,-1.28e+003 S91.6,-1.01e+003 96.3,-947 S115,-710 119,-656 S138,-450 143,-404 S161,-229 166,-190 S184,-46.6 189,-15.6 S207,96.9 212,120 S230,202 235,217 S254,268 258,275 S277,295 281,295 S300,283 304,275 S323,233 328,217 S346,143 351,120 S369,15.4 374,-15.6 S392,-151 397,-190 S415,-357 420,-404 S439,-601 443,-656 S462,-885 466,-947 S485,-1.21e+003 489,-1.28e+003 S513,-1.68e+003 513,-1.65e+003 " fill="none"/></g>
<g clip-path="url(#plot_window)" stroke="rgb(0,0,255)" stroke-width="3"><path d="M50,663 L73.1,625 L96.3,586 L119,547 L143,508 L166,469 L189,431 L212,392 L235,353 L258,314 L281,275 L304,237 L328,198 L351,159 L374,120 L397,81.4 L420,42.6 L443,3.8 L466,-35 L489,-73.8 L513,-113 " fill="none"/></g>
</g>
<g id="plotPoints" clip-path="url(#plot_window)"><g stroke="rgb(0,0,0)" fill="rgb(255,0,0)"><circle cx="281" cy="256" r="5"/><circle cx="304" cy="237" r="5"/><circle cx="328" cy="229" r="5"/><circle cx="351" cy="222" r="5"/><circle cx="374" cy="217" r="5"/><circle cx="397" cy="213" r="5"/><circle cx="420" cy="208" r="5"/><circle cx="443" cy="205" r="5"/><circle cx="466" cy="201" r="5"/><circle cx="489" cy="198" r="5"/></g>
<g stroke="rgb(0,0,0)" fill="rgb(255,165,0)"><circle cx="212" cy="120" r="2"/><circle cx="235" cy="217" r="2"/><circle cx="258" cy="275" r="2"/><circle cx="281" cy="295" r="2"/><circle cx="304" cy="275" r="2"/><circle cx="328" cy="217" r="2"/><circle cx="351" cy="120" r="2"/></g>
<g stroke="rgb(0,0,0)" fill="rgb(255,255,0)"><rect x="184" y="426" width="10" height="10"/><rect x="207" y="387" width="10" height="10"/><rect x="230" y="348" width="10" height="10"/><rect x="253" y="309" width="10" height="10"/><rect x="276" y="270" width="10" height="10"/><rect x="299" y="232" width="10" height="10"/><rect x="323" y="193" width="10" height="10"/><rect x="346" y="154" width="10" height="10"/><rect x="369" y="115" width="10" height="10"/><rect x="392" y="76.4" width="10" height="10"/></g>
</g>
<g id="limitPoints" stroke="rgb(119,136,153)" fill="rgb(250,235,215)"><polygon points=" 68.1,246 78.1,246 73.1,256" fill = "none"/><polygon points=" 91.3,246 101,246 96.3,256" fill = "none"/><polygon points=" 114,246 124,246 119,256" fill = "none"/><polygon points=" 138,246 148,246 143,256" fill = "none"/><polygon points=" 161,246 171,246 166,256" fill = "none"/><polygon points=" 184,246 194,246 189,256" fill = "none"/><polygon points=" 207,246 217,246 212,256" fill = "none"/><polygon points=" 230,246 240,246 235,256" fill = "none"/><polygon points=" 253,246 263,246 258,256" fill = "none"/></g>
<g id="legendBackground" stroke="rgb(255,255,0)" fill="rgb(255,255,224)" stroke-width="1"><rect x="527" y="62" width="161" height="144"/><rect x="527" y="62" width="161" height="144"/></g>
<g id="legendPoints"><g stroke="rgb(0,0,0)" fill="rgb(255,0,0)" stroke-width="2"><circle cx="543" cy="126" r="5"/><line x1="567" y1="126" x2="583" y2="126"/></g>
<g stroke="rgb(0,0,0)" fill="rgb(255,165,0)" stroke-width="2"><circle cx="543" cy="158" r="2"/><line x1="567" y1="158" x2="583" y2="158"/></g>
<g stroke="rgb(0,0,255)" fill="rgb(255,255,0)" stroke-width="3"><rect x="538" y="185" width="10" height="10"/><line x1="567" y1="190" x2="583" y2="190"/></g>
</g>
<g id="legendText">
<text x="607" y="94" text-anchor="middle" font-size="16" font-family="Verdana">Unicode &#x3A9;&#x3A6;</text>
<text x="591" y="126" font-size="16" font-family="Verdana">Sqrt(x)</text>
<text x="591" y="158" font-size="16" font-family="Verdana">-2 + x^2</text>
<text x="591" y="190" font-size="16" font-family="Verdana">-1 + 2x</text></g>
<g id="title" fill="rgb(255,0,0)">
<text x="350" y="40" text-anchor="middle" font-size="20" font-family="Verdana">Title with Unicode <sup>-&#945; </sup> &#x3A9; &#x3A6; &#x221A; &#x221E; &#x3B6; &#x00B1;</text></g>
<g id="plotXValues"></g>
<g id="plotYValues"></g>
</svg>
