<?xml version="1.0" encoding="UTF-8" standalone="no"?>
<svg width="500" height ="400" version="1.1"
xmlns:svg ="http://www.w3.org/2000/svg"
xmlns:rdf="http://www.w3.org/1999/02/22-rdf-syntax-ns#"
xmlns:cc="http://web.resource.org/cc/"
xmlns:dc="http://purl.org/dc/elements/1.1/"
xmlns ="http://www.w3.org/2000/svg"
>
<!-- SVG plot written using Boost.Plot program (Creator Jacob Voytko) --> 
<!-- Use, modification and distribution of Boost.Plot subject to the --> 
<!-- Boost Software License, Version 1.0.--> 
<!-- (See accompanying file LICENSE_1_0.txt --> 
<!-- or copy at http://www.boost.org/LICENSE_1_0.txt) --> 

<clipPath id="plot_window"><rect x="71.2" y="58" width="416" height="279"/></clipPath>
<g id="imageBackground" stroke="rgb(255,255,0)" fill="rgb(255,255,255)" stroke-width="2"><rect x="0" y="0" width="500" height="400"/></g>
<g id="plotBackground" stroke="rgb(119,136,153)" fill="rgb(255,255,255)" stroke-width="2"><rect x="70.2" y="57" width="418" height="281"/></g>
<g id="yMinorGrid" stroke="rgb(200,220,255)" stroke-width="0.5"></g>
<g id="yMajorGrid" stroke="rgb(200,220,255)" stroke-width="1"></g>
<g id="xMinorGrid" stroke="rgb(200,220,255)" stroke-width="0.5"></g>
<g id="xMajorGrid" stroke="rgb(200,220,255)" stroke-width="1"></g>
<g id="yAxis" stroke="rgb(0,0,0)" stroke-width="1"><line x1="209" y1="57" x2="209" y2="343"/><line x1="70.2" y1="57" x2="70.2" y2="338"/></g>
<g id="xAxis" stroke="rgb(0,0,0)" stroke-width="1"><line x1="65.2" y1="198" x2="488" y2="198"/><line x1="65.2" y1="338" x2="488" y2="338"/></g>
<g id="yMinorTicks" stroke="rgb(0,0,0)" stroke-width="1"><path d="M68.2,192 L70.2,192 M68.2,186 L70.2,186 M68.2,181 L70.2,181 M68.2,175 L70.2,175 M68.2,164 L70.2,164 M68.2,158 L70.2,158 M68.2,153 L70.2,153 M68.2,147 L70.2,147 M68.2,136 L70.2,136 M68.2,130 L70.2,130 M68.2,124 L70.2,124 M68.2,119 L70.2,119 M68.2,108 L70.2,108 M68.2,102 L70.2,102 M68.2,96.4 L70.2,96.4 M68.2,90.7 L70.2,90.7 M68.2,79.5 L70.2,79.5 M68.2,73.9 L70.2,73.9 M68.2,68.2 L70.2,68.2 M68.2,62.6 L70.2,62.6 M68.2,198 L70.2,198 M68.2,203 L70.2,203 M68.2,209 L70.2,209 M68.2,214 L70.2,214 M68.2,220 L70.2,220 M68.2,226 L70.2,226 M68.2,231 L70.2,231 M68.2,237 L70.2,237 M68.2,243 L70.2,243 M68.2,248 L70.2,248 M68.2,254 L70.2,254 M68.2,254 L70.2,254 M68.2,259 L70.2,259 M68.2,265 L70.2,265 M68.2,271 L70.2,271 M68.2,276 L70.2,276 M68.2,282 L70.2,282 M68.2,288 L70.2,288 M68.2,293 L70.2,293 M68.2,299 L70.2,299 M68.2,304 L70.2,304 M68.2,310 L70.2,310 M68.2,316 L70.2,316 M68.2,321 L70.2,321 M68.2,327 L70.2,327 M68.2,333 L70.2,333 M68.2,338 L70.2,338 " fill="none"/></g>
<g id="xMinorTicks" stroke="rgb(0,0,0)" stroke-width="1"><path d="M221,338 L221,340 M232,338 L232,340 M243,338 L243,340 M254,338 L254,340 M276,338 L276,340 M287,338 L287,340 M299,338 L299,340 M310,338 L310,340 M332,338 L332,340 M343,338 L343,340 M354,338 L354,340 M365,338 L365,340 M388,338 L388,340 M399,338 L399,340 M410,338 L410,340 M421,338 L421,340 M443,338 L443,340 M455,338 L455,340 M466,338 L466,340 M477,338 L477,340 M198,338 L198,340 M187,338 L187,340 M176,338 L176,340 M165,338 L165,340 M143,338 L143,340 M131,338 L131,340 M120,338 L120,340 M109,338 L109,340 M86.9,338 L86.9,340 M75.8,338 L75.8,340 " fill="none"/></g>
<g id="yMajorTicks" stroke="rgb(0,0,0)" stroke-width="2"><path d="M65.2,198 L70.2,198 M65.2,169 L70.2,169 M65.2,141 L70.2,141 M65.2,113 L70.2,113 M65.2,85.1 L70.2,85.1 M65.2,57 L70.2,57 M65.2,198 L70.2,198 M65.2,226 L70.2,226 M65.2,254 L70.2,254 M65.2,282 L70.2,282 M65.2,310 L70.2,310 M65.2,338 L70.2,338 " fill="none"/></g>
<g id="xMajorTicks" stroke="rgb(0,0,0)" stroke-width="2"><path d="M209,338 L209,343 M265,338 L265,343 M321,338 L321,343 M377,338 L377,343 M432,338 L432,343 M488,338 L488,343 M209,338 L209,343 M154,338 L154,343 M98.1,338 L98.1,343 " fill="none"/></g>
<g id="plotLabels">
<text x="209" y="358" text-anchor="middle" font-size="12" font-family="Verdana">0</text>
<text x="265" y="358" text-anchor="middle" font-size="12" font-family="Verdana">2</text>
<text x="321" y="358" text-anchor="middle" font-size="12" font-family="Verdana">4</text>
<text x="377" y="358" text-anchor="middle" font-size="12" font-family="Verdana">6</text>
<text x="432" y="358" text-anchor="middle" font-size="12" font-family="Verdana">8</text>
<text x="488" y="358" text-anchor="middle" font-size="12" font-family="Verdana">10</text>
<text x="209" y="358" text-anchor="middle" font-size="12" font-family="Verdana">0</text>
<text x="154" y="358" text-anchor="middle" font-size="12" font-family="Verdana">-2</text>
<text x="98.1" y="358" text-anchor="middle" font-size="12" font-family="Verdana">-4</text>
<text x="59.2" y="200" text-anchor="end" font-size="12" font-family="Verdana">0</text>
<text x="59.2" y="172" text-anchor="end" font-size="12" font-family="Verdana">2</text>
<text x="59.2" y="144" text-anchor="end" font-size="12" font-family="Verdana">4</text>
<text x="59.2" y="116" text-anchor="end" font-size="12" font-family="Verdana">6</text>
<text x="59.2" y="87.5" text-anchor="end" font-size="12" font-family="Verdana">8</text>
<text x="59.2" y="59.4" text-anchor="end" font-size="12" font-family="Verdana">10</text>
<text x="59.2" y="200" text-anchor="end" font-size="12" font-family="Verdana">0</text>
<text x="59.2" y="228" text-anchor="end" font-size="12" font-family="Verdana">-2</text>
<text x="59.2" y="256" text-anchor="end" font-size="12" font-family="Verdana">-4</text>
<text x="59.2" y="284" text-anchor="end" font-size="12" font-family="Verdana">-6</text>
<text x="59.2" y="312" text-anchor="end" font-size="12" font-family="Verdana">-8</text>
<text x="59.2" y="341" text-anchor="end" font-size="12" font-family="Verdana">-10</text></g>
<g id="yLabel">
<text x="30.2" y="198" text-anchor="middle" transform = "rotate(-90 30.2 198 )" font-size="14" font-family="Verdana"></text></g>
<g id="xLabel">
<text x="279" y="384" text-anchor="middle" font-size="14" font-family="Verdana">length (m)</text></g>
<g id="plotPoints" clip-path="url(#plot_window)"><g stroke="rgb(0,0,0)" fill="rgb(255,255,255)"><circle cx="269" cy="163" r="2"/><circle cx="362" cy="122" r="2"/></g>
</g>
<g id="title">
<text x="250" y="36" text-anchor="middle" font-size="18" font-family="Verdana">Default 2d Values Demo</text></g>
<g id="plotXValues" fill="rgb(255,0,0)"><g>
<text x="274" y="168" font-size="16" font-family="Times New Roman">[2.12<tspan fill="rgb(0,139,139)" font-size="16" font-family="Times New Roman">&#x00A0;&#x00B1;</tspan><tspan fill="rgb(0,139,139)" font-size="11" font-family="Times New Roman" font-weight="bold">0.012</tspan><tspan fill="rgb(165,42,42)" font-size="11" font-family="Times New Roman">&#x00A0;(23)</tspan><tspan fill="rgb(165,42,42)" font-size="11" font-family="Times New Roman">,&#x00A0;</tspan><tspan font-size="14" font-family="Arial">2.4394</tspan><tspan fill="rgb(0,128,0)" font-size="11" font-family="arial">&#x00A0;&#x00B1;</tspan><tspan fill="rgb(0,128,0)" font-size="11" font-family="Times New Roman">&#x00A0;0.0032</tspan><tspan fill="rgb(0,255,0)" font-size="11" font-family="Times New Roman">&#x00A0;(6)</tspan><tspan fill="rgb(0,0,0)" font-size="14" font-family="Times New Roman">]</tspan></text></g>
<g>
<text x="367" y="127" font-size="16" font-family="Times New Roman">[5.47<tspan fill="rgb(0,139,139)" font-size="16" font-family="Times New Roman">&#x00A0;&#x00B1;</tspan><tspan fill="rgb(0,139,139)" font-size="11" font-family="Times New Roman" font-weight="bold">0.012</tspan><tspan fill="rgb(165,42,42)" font-size="11" font-family="Times New Roman">&#x00A0;(23)</tspan><tspan fill="rgb(165,42,42)" font-size="11" font-family="Times New Roman">,&#x00A0;</tspan><tspan font-size="14" font-family="Arial">5.3861</tspan><tspan fill="rgb(0,128,0)" font-size="11" font-family="arial">&#x00A0;&#x00B1;</tspan><tspan fill="rgb(0,128,0)" font-size="11" font-family="Times New Roman">&#x00A0;0.0032</tspan><tspan fill="rgb(0,255,0)" font-size="11" font-family="Times New Roman">&#x00A0;(6)</tspan><tspan fill="rgb(0,0,0)" font-size="14" font-family="Times New Roman">]</tspan></text></g>
</g>
<g id="plotYValues" fill="rgb(0,0,255)"></g>
</svg>
