<?xml version="1.0" encoding="UTF-8" standalone="no"?><!DOCTYPE svg PUBLIC "-//W3C//DTD SVG 1.1//EN" "http://www.w3.org/graphics/svg/1.1/dtd/svg11.dtd">
<svg width="600" height ="400" version="1.1" xmlns="http://www.w3.org/2000/svg"
 xmlns:xlink="http://www.w3.org/1999/xlink"
 xmlns:ev="http://www.w3.org/2001/xml-events">

<!-- SVG plot written using Boost.Plot program (Creator Jacob Voytko) --> 
<!-- Use, modification and distribution of Boost.Plot subject to the --> 
<!-- Boost Software License, Version 1.0.--> 
<!-- (See accompanying file LICENSE_1_0.txt --> 
<!-- or copy at http://www.boost.org/LICENSE_1_0.txt) --> 

<!-- SVG Plot Copyright John Maddock 2008 --> 
<meta name="copyright" content="John Maddock" />
<meta name="date" content="2008" />
<!-- Use, modification and distribution of this Scalable Vector Graphic file -->
<!-- are subject to the Boost Software License, Version 1.0. -->
<!-- (See accompanying file LICENSE_1_0.txt or copy at http://www.boost.org/LICENSE_1_0.txt) -->

<clipPath id="plot_window"><rect x="68.4" y="53" width="518.6" height="284.2"/></clipPath>
<g id="imageBackground" stroke="rgb(255,255,0)" fill="rgb(255,255,255)" stroke-width="2"><rect x="0" y="0" width="600" height="400"/></g>
<g id="plotBackground" stroke="rgb(255,250,240)" fill="rgb(255,255,255)" stroke-width="2"><rect x="67.4" y="52" width="520.6" height="286.2"/></g>
<g id="yMinorGrid" stroke="rgb(200,220,255)" stroke-width="0.5"></g>
<g id="yMajorGrid" stroke="rgb(200,220,255)" stroke-width="1"></g>
<g id="xMinorGrid" stroke="rgb(200,220,255)" stroke-width="0.5"></g>
<g id="xMajorGrid" stroke="rgb(200,220,255)" stroke-width="1"></g>
<g id="yAxis" stroke="rgb(0,0,0)" stroke-width="1"><line x1="218.3" y1="52" x2="218.3" y2="343.2"/><line x1="67.4" y1="52" x2="67.4" y2="338.2"/></g>
<g id="xAxis" stroke="rgb(0,0,0)" stroke-width="1"><line x1="62.4" y1="192.8" x2="588" y2="192.8"/><line x1="62.4" y1="338.2" x2="588" y2="338.2"/></g>
<g id="yMinorTicks" stroke="rgb(0,0,0)" stroke-width="1"><path d="M65.4,175.3 L67.4,175.3 M65.4,157.8 L67.4,157.8 M65.4,140.3 L67.4,140.3 M65.4,105.3 L67.4,105.3 M65.4,87.83 L67.4,87.83 M65.4,70.34 L67.4,70.34 M65.4,192.8 L67.4,192.8 M65.4,210.3 L67.4,210.3 M65.4,227.8 L67.4,227.8 M65.4,245.2 L67.4,245.2 M65.4,262.7 L67.4,262.7 M65.4,280.2 L67.4,280.2 M65.4,297.7 L67.4,297.7 M65.4,315.2 L67.4,315.2 M65.4,332.7 L67.4,332.7 "/></g>
<g id="xMinorTicks" stroke="rgb(0,0,0)" stroke-width="1"><path d="M263.2,338.2 L263.2,340.2 M308.2,338.2 L308.2,340.2 M353.2,338.2 L353.2,340.2 M443.1,338.2 L443.1,340.2 M488.1,338.2 L488.1,340.2 M533,338.2 L533,340.2 M173.3,338.2 L173.3,340.2 M128.3,338.2 L128.3,340.2 M83.35,338.2 L83.35,340.2 "/></g>
<g id="yMajorTicks" stroke="rgb(0,0,0)" stroke-width="2"><path d="M62.4,192.8 L67.4,192.8 M62.4,122.8 L67.4,122.8 M62.4,52.85 L67.4,52.85 M62.4,192.8 L67.4,192.8 M62.4,262.7 L67.4,262.7 M62.4,332.7 L67.4,332.7 "/></g>
<g id="xMajorTicks" stroke="rgb(0,0,0)" stroke-width="2"><path d="M218.3,338.2 L218.3,343.2 M398.1,338.2 L398.1,343.2 M578,338.2 L578,343.2 M218.3,338.2 L218.3,343.2 "/></g>
<g id="plotLabels" fill="rgb(0,0,0)">
<text x="218.3" y="361.2" text-anchor="middle" font-size="12" font-family="Verdana">0</text>
<text x="398.1" y="361.2" text-anchor="middle" font-size="12" font-family="Verdana">5</text>
<text x="578" y="361.2" text-anchor="middle" font-size="12" font-family="Verdana">10</text>
<text x="218.3" y="361.2" text-anchor="middle" font-size="12" font-family="Verdana">0</text>
<text x="57.4" y="196.4" text-anchor="end" font-size="12" font-family="Verdana">0</text>
<text x="57.4" y="126.4" text-anchor="end" font-size="12" font-family="Verdana">5</text>
<text x="57.4" y="56.45" text-anchor="end" font-size="12" font-family="Verdana">10</text>
<text x="57.4" y="196.4" text-anchor="end" font-size="12" font-family="Verdana">0</text>
<text x="57.4" y="266.3" text-anchor="end" font-size="12" font-family="Verdana">-5</text>
<text x="57.4" y="336.3" text-anchor="end" font-size="12" font-family="Verdana">-10</text></g>
<g id="yLabel" fill="rgb(0,0,0)">
<text x="26" y="195.1" text-anchor="middle" transform = "rotate(-90 26 195.1 )" font-size="14" font-family="Verdana">digamma(z)</text></g>
<g id="xLabel" fill="rgb(0,0,0)">
<text x="327.7" y="381" text-anchor="middle" font-size="14" font-family="Verdana">z</text></g>
<g id="plotLines" stroke-width="2"><g clip-path="url(#plot_window)" stroke="rgb(0,0,139)"><path d="M222,332.7 L223.8,288.6 L225.6,265.6 L227.3,251.3 L229.1,241.4 L230.9,234.1 L232.7,228.5 L234.5,224 L236.2,220.2 L238,217.1 L239.8,214.4 L241.6,212 L243.4,209.9 L245.1,208.1 L246.9,206.4 L248.7,204.8 L250.5,203.4 L252.3,202.2 L254,201 L255.8,199.9 L257.6,198.8 L259.4,197.9 L261.2,196.9 L262.9,196.1 L264.7,195.3 L266.5,194.5 L268.3,193.8 L270.1,193.1 L271.8,192.4 L273.6,191.8 L275.4,191.1 L277.2,190.6 L279,190 L280.7,189.4 L282.5,188.9 L284.3,188.4 L286.1,187.9 L287.9,187.5 L289.6,187 L291.4,186.6 L293.2,186.1 L295,185.7 L296.8,185.3 L298.5,184.9 L300.3,184.5 L302.1,184.1 L303.9,183.8 L305.7,183.4 L307.4,183.1 L309.2,182.7 L311,182.4 L312.8,182.1 L314.6,181.8 L316.3,181.5 L318.1,181.2 L319.9,180.9 L321.7,180.6 L323.5,180.3 L325.2,180 L327,179.7 L328.8,179.5 L330.6,179.2 L332.4,178.9 L334.1,178.7 L335.9,178.4 L337.7,178.2 L339.5,178 L341.3,177.7 L343,177.5 L344.8,177.3 L346.6,177 L348.4,176.8 L350.2,176.6 L351.9,176.4 L353.7,176.2 L355.5,176 L357.3,175.7 L359.1,175.5 L360.8,175.3 L362.6,175.1 L364.4,175 L366.2,174.8 L368,174.6 L369.7,174.4 L371.5,174.2 L373.3,174 L375.1,173.8 L376.9,173.7 L378.6,173.5 L380.4,173.3 L382.2,173.1 L384,173 L385.8,172.8 L387.5,172.6 L389.3,172.5 L391.1,172.3 L392.9,172.2 L394.7,172 L396.4,171.8 L398.2,171.7 L400,171.5 L401.8,171.4 L403.6,171.2 L405.3,171.1 L407.1,170.9 L408.9,170.8 L410.7,170.7 L412.5,170.5 L414.2,170.4 L416,170.2 L417.8,170.1 L419.6,170 L421.4,169.8 L423.1,169.7 L424.9,169.6 L426.7,169.4 L428.5,169.3 L430.3,169.2 L432,169 L433.8,168.9 L435.6,168.8 L437.4,168.7 L439.2,168.5 L440.9,168.4 L442.7,168.3 L444.5,168.2 L446.3,168.1 L448.1,168 L449.8,167.8 L451.6,167.7 L453.4,167.6 L455.2,167.5 L457,167.4 L458.7,167.3 L460.5,167.2 L462.3,167 L464.1,166.9 L465.9,166.8 L467.6,166.7 L469.4,166.6 L471.2,166.5 L473,166.4 L474.8,166.3 L476.5,166.2 L478.3,166.1 L480.1,166 L481.9,165.9 L483.7,165.8 L485.4,165.7 L487.2,165.6 L489,165.5 L490.8,165.4 L492.6,165.3 L494.3,165.2 L496.1,165.1 L497.9,165 L499.7,164.9 L501.5,164.8 L503.2,164.7 L505,164.6 L506.8,164.5 L508.6,164.4 L510.4,164.3 L512.1,164.3 L513.9,164.2 L515.7,164.1 L517.5,164 L519.3,163.9 L521,163.8 L522.8,163.7 L524.6,163.6 L526.4,163.6 L528.2,163.5 L529.9,163.4 L531.7,163.3 L533.5,163.2 L535.3,163.1 L537.1,163.1 L538.8,163 L540.6,162.9 L542.4,162.8 L544.2,162.7 L545.9,162.6 L547.7,162.6 L549.5,162.5 L551.3,162.4 L553.1,162.3 L554.8,162.2 L556.6,162.2 L558.4,162.1 L560.2,162 L562,161.9 L563.7,161.9 L565.5,161.8 L567.3,161.7 L569.1,161.6 L570.9,161.6 L572.6,161.5 L574.4,161.4 L576.2,161.3 " fill="none"/></g>
<g clip-path="url(#plot_window)" stroke="rgb(0,0,139)"><path d="M185.6,332.7 L185.8,326.3 L185.9,320.5 L186.1,315 L186.2,310 L186.4,305.3 L186.5,300.9 L186.7,296.8 L186.8,293 L187,289.4 L187.1,286 L187.3,282.8 L187.4,279.7 L187.5,276.9 L187.7,274.1 L187.8,271.5 L188,269.1 L188.1,266.7 L188.3,264.5 L188.4,262.3 L188.6,260.2 L188.7,258.3 L188.9,256.4 L189,254.6 L189.2,252.8 L189.3,251.1 L189.5,249.5 L189.6,247.9 L189.7,246.4 L189.9,245 L190,243.6 L190.2,242.2 L190.3,240.9 L190.5,239.6 L190.6,238.4 L190.8,237.2 L190.9,236 L191.1,234.9 L191.2,233.7 L191.4,232.7 L191.5,231.6 L191.6,230.6 L191.8,229.6 L191.9,228.6 L192.1,227.7 L192.2,226.7 L192.4,225.8 L192.5,224.9 L192.7,224.1 L192.8,223.2 L193,222.4 L193.1,221.6 L193.3,220.8 L193.4,220 L193.5,219.2 L193.7,218.5 L193.8,217.7 L194,217 L194.1,216.3 L194.3,215.6 L194.4,214.9 L194.6,214.2 L194.7,213.5 L194.9,212.8 L195,212.2 L195.2,211.5 L195.3,210.9 L195.4,210.3 L195.6,209.6 L195.7,209 L195.9,208.4 L196,207.8 L196.2,207.2 L196.3,206.6 L196.5,206.1 L196.6,205.5 L196.8,204.9 L196.9,204.3 L197.1,203.8 L197.2,203.2 L197.3,202.7 L197.5,202.1 L197.6,201.6 L197.8,201 L197.9,200.5 L198.1,200 L198.2,199.4 L198.4,198.9 L198.5,198.4 L198.7,197.9 L198.8,197.3 L199,196.8 L199.1,196.3 L199.3,195.8 L199.4,195.3 L199.5,194.8 L199.7,194.3 L199.8,193.8 L200,193.2 L200.1,192.7 L200.3,192.2 L200.4,191.7 L200.6,191.2 L200.7,190.7 L200.9,190.2 L201,189.7 L201.2,189.2 L201.3,188.7 L201.4,188.1 L201.6,187.6 L201.7,187.1 L201.9,186.6 L202,186.1 L202.2,185.6 L202.3,185 L202.5,184.5 L202.6,184 L202.8,183.5 L202.9,182.9 L203.1,182.4 L203.2,181.8 L203.3,181.3 L203.5,180.8 L203.6,180.2 L203.8,179.6 L203.9,179.1 L204.1,178.5 L204.2,177.9 L204.4,177.4 L204.5,176.8 L204.7,176.2 L204.8,175.6 L205,175 L205.1,174.4 L205.2,173.8 L205.4,173.1 L205.5,172.5 L205.7,171.9 L205.8,171.2 L206,170.5 L206.1,169.9 L206.3,169.2 L206.4,168.5 L206.6,167.8 L206.7,167.1 L206.9,166.3 L207,165.6 L207.1,164.8 L207.3,164.1 L207.4,163.3 L207.6,162.5 L207.7,161.7 L207.9,160.8 L208,160 L208.2,159.1 L208.3,158.2 L208.5,157.3 L208.6,156.4 L208.8,155.4 L208.9,154.5 L209.1,153.5 L209.2,152.4 L209.3,151.4 L209.5,150.3 L209.6,149.2 L209.8,148 L209.9,146.8 L210.1,145.6 L210.2,144.4 L210.4,143.1 L210.5,141.7 L210.7,140.3 L210.8,138.9 L211,137.4 L211.1,135.9 L211.2,134.3 L211.4,132.6 L211.5,130.9 L211.7,129.1 L211.8,127.2 L212,125.2 L212.1,123.2 L212.3,121.1 L212.4,118.8 L212.6,116.5 L212.7,114.1 L212.9,111.5 L213,108.8 L213.1,105.9 L213.3,102.9 L213.4,99.66 L213.6,96.27 L213.7,92.66 L213.9,88.82 L214,84.72 L214.2,80.34 L214.3,75.64 L214.5,70.59 L214.6,65.14 L214.8,59.25 " fill="none"/></g>
<g clip-path="url(#plot_window)" stroke="rgb(0,0,139)"><path d="M149.5,332.7 L149.7,325.8 L149.8,319.4 L150,313.5 L150.1,308.1 L150.2,303 L150.4,298.3 L150.5,293.9 L150.7,289.8 L150.8,285.9 L151,282.3 L151.1,278.9 L151.3,275.6 L151.4,272.6 L151.6,269.7 L151.7,266.9 L151.8,264.3 L152,261.8 L152.1,259.4 L152.3,257.2 L152.4,255 L152.6,252.9 L152.7,250.9 L152.9,249 L153,247.2 L153.2,245.4 L153.3,243.7 L153.4,242.1 L153.6,240.5 L153.7,238.9 L153.9,237.5 L154,236 L154.2,234.6 L154.3,233.3 L154.5,232 L154.6,230.7 L154.8,229.5 L154.9,228.3 L155,227.2 L155.2,226 L155.3,224.9 L155.5,223.9 L155.6,222.8 L155.8,221.8 L155.9,220.8 L156.1,219.8 L156.2,218.9 L156.4,218 L156.5,217.1 L156.6,216.2 L156.8,215.3 L156.9,214.4 L157.1,213.6 L157.2,212.8 L157.4,212 L157.5,211.2 L157.7,210.4 L157.8,209.6 L158,208.9 L158.1,208.2 L158.3,207.4 L158.4,206.7 L158.5,206 L158.7,205.3 L158.8,204.6 L159,203.9 L159.1,203.3 L159.3,202.6 L159.4,202 L159.6,201.3 L159.7,200.7 L159.9,200.1 L160,199.4 L160.1,198.8 L160.3,198.2 L160.4,197.6 L160.6,197 L160.7,196.4 L160.9,195.8 L161,195.2 L161.2,194.7 L161.3,194.1 L161.5,193.5 L161.6,193 L161.7,192.4 L161.9,191.8 L162,191.3 L162.2,190.7 L162.3,190.2 L162.5,189.6 L162.6,189.1 L162.8,188.5 L162.9,188 L163.1,187.5 L163.2,186.9 L163.3,186.4 L163.5,185.9 L163.6,185.3 L163.8,184.8 L163.9,184.3 L164.1,183.7 L164.2,183.2 L164.4,182.7 L164.5,182.1 L164.7,181.6 L164.8,181.1 L164.9,180.5 L165.1,180 L165.2,179.5 L165.4,178.9 L165.5,178.4 L165.7,177.9 L165.8,177.3 L166,176.8 L166.1,176.2 L166.3,175.7 L166.4,175.1 L166.5,174.6 L166.7,174 L166.8,173.5 L167,172.9 L167.1,172.4 L167.3,171.8 L167.4,171.2 L167.6,170.6 L167.7,170.1 L167.9,169.5 L168,168.9 L168.1,168.3 L168.3,167.7 L168.4,167.1 L168.6,166.5 L168.7,165.9 L168.9,165.2 L169,164.6 L169.2,164 L169.3,163.3 L169.5,162.7 L169.6,162 L169.7,161.3 L169.9,160.6 L170,159.9 L170.2,159.2 L170.3,158.5 L170.5,157.8 L170.6,157.1 L170.8,156.3 L170.9,155.6 L171.1,154.8 L171.2,154 L171.3,153.2 L171.5,152.4 L171.6,151.6 L171.8,150.7 L171.9,149.8 L172.1,149 L172.2,148.1 L172.4,147.1 L172.5,146.2 L172.7,145.2 L172.8,144.2 L172.9,143.2 L173.1,142.2 L173.2,141.1 L173.4,140 L173.5,138.9 L173.7,137.8 L173.8,136.6 L174,135.4 L174.1,134.1 L174.3,132.8 L174.4,131.5 L174.5,130.1 L174.7,128.7 L174.8,127.2 L175,125.7 L175.1,124.1 L175.3,122.5 L175.4,120.8 L175.6,119 L175.7,117.2 L175.9,115.3 L176,113.3 L176.2,111.2 L176.3,109.1 L176.4,106.8 L176.6,104.4 L176.7,101.9 L176.9,99.34 L177,96.59 L177.2,93.7 L177.3,90.65 L177.5,87.43 L177.6,84.01 L177.8,80.39 L177.9,76.53 L178,72.43 L178.2,68.04 L178.3,63.34 L178.5,58.29 " fill="none"/></g>
<g clip-path="url(#plot_window)" stroke="rgb(0,0,139)"><path d="M113.5,332.7 L113.6,325.4 L113.7,318.7 L113.9,312.5 L114,306.8 L114.2,301.5 L114.3,296.5 L114.5,291.9 L114.6,287.6 L114.8,283.6 L114.9,279.8 L115,276.3 L115.2,272.9 L115.3,269.7 L115.5,266.7 L115.6,263.9 L115.8,261.2 L115.9,258.6 L116.1,256.2 L116.2,253.8 L116.4,251.6 L116.5,249.4 L116.6,247.4 L116.8,245.4 L116.9,243.5 L117.1,241.7 L117.2,239.9 L117.4,238.2 L117.5,236.6 L117.7,235 L117.8,233.5 L117.9,232.1 L118.1,230.6 L118.2,229.3 L118.4,227.9 L118.5,226.6 L118.7,225.4 L118.8,224.2 L119,223 L119.1,221.8 L119.3,220.7 L119.4,219.6 L119.5,218.5 L119.7,217.5 L119.8,216.5 L120,215.5 L120.1,214.5 L120.3,213.6 L120.4,212.6 L120.6,211.7 L120.7,210.8 L120.9,210 L121,209.1 L121.1,208.3 L121.3,207.4 L121.4,206.6 L121.6,205.8 L121.7,205.1 L121.9,204.3 L122,203.5 L122.2,202.8 L122.3,202.1 L122.4,201.3 L122.6,200.6 L122.7,199.9 L122.9,199.2 L123,198.5 L123.2,197.9 L123.3,197.2 L123.5,196.6 L123.6,195.9 L123.8,195.3 L123.9,194.6 L124,194 L124.2,193.4 L124.3,192.8 L124.5,192.2 L124.6,191.6 L124.8,191 L124.9,190.4 L125.1,189.8 L125.2,189.2 L125.3,188.6 L125.5,188 L125.6,187.5 L125.8,186.9 L125.9,186.3 L126.1,185.8 L126.2,185.2 L126.4,184.6 L126.5,184.1 L126.7,183.5 L126.8,183 L126.9,182.4 L127.1,181.9 L127.2,181.4 L127.4,180.8 L127.5,180.3 L127.7,179.7 L127.8,179.2 L128,178.7 L128.1,178.1 L128.3,177.6 L128.4,177 L128.5,176.5 L128.7,176 L128.8,175.4 L129,174.9 L129.1,174.3 L129.3,173.8 L129.4,173.3 L129.6,172.7 L129.7,172.2 L129.8,171.6 L130,171.1 L130.1,170.5 L130.3,170 L130.4,169.4 L130.6,168.9 L130.7,168.3 L130.9,167.7 L131,167.2 L131.2,166.6 L131.3,166 L131.4,165.4 L131.6,164.8 L131.7,164.3 L131.9,163.7 L132,163.1 L132.2,162.5 L132.3,161.9 L132.5,161.2 L132.6,160.6 L132.7,160 L132.9,159.4 L133,158.7 L133.2,158.1 L133.3,157.4 L133.5,156.8 L133.6,156.1 L133.8,155.4 L133.9,154.7 L134.1,154 L134.2,153.3 L134.3,152.6 L134.5,151.8 L134.6,151.1 L134.8,150.4 L134.9,149.6 L135.1,148.8 L135.2,148 L135.4,147.2 L135.5,146.4 L135.7,145.5 L135.8,144.7 L135.9,143.8 L136.1,142.9 L136.2,142 L136.4,141.1 L136.5,140.1 L136.7,139.2 L136.8,138.2 L137,137.2 L137.1,136.1 L137.2,135 L137.4,134 L137.5,132.8 L137.7,131.7 L137.8,130.5 L138,129.3 L138.1,128 L138.3,126.7 L138.4,125.4 L138.6,124 L138.7,122.6 L138.8,121.1 L139,119.6 L139.1,118 L139.3,116.4 L139.4,114.7 L139.6,112.9 L139.7,111.1 L139.9,109.2 L140,107.2 L140.1,105.2 L140.3,103 L140.4,100.8 L140.6,98.42 L140.7,95.95 L140.9,93.36 L141,90.64 L141.2,87.78 L141.3,84.76 L141.5,81.57 L141.6,78.19 L141.7,74.61 L141.9,70.81 L142,66.76 L142.2,62.44 L142.3,57.81 " fill="none"/></g>
<g clip-path="url(#plot_window)" stroke="rgb(0,0,139)"><path d="M77.41,332.7 L77.56,325.1 L77.7,318.1 L77.85,311.7 L77.99,305.8 L78.14,300.3 L78.28,295.2 L78.42,290.5 L78.57,286 L78.71,281.9 L78.86,278 L79,274.4 L79.15,270.9 L79.29,267.6 L79.44,264.6 L79.58,261.6 L79.73,258.9 L79.87,256.2 L80.02,253.7 L80.16,251.3 L80.31,249 L80.45,246.8 L80.6,244.7 L80.74,242.7 L80.89,240.8 L81.03,238.9 L81.18,237.2 L81.32,235.4 L81.47,233.8 L81.61,232.2 L81.75,230.6 L81.9,229.1 L82.04,227.7 L82.19,226.3 L82.33,224.9 L82.48,223.6 L82.62,222.3 L82.77,221.1 L82.91,219.9 L83.06,218.7 L83.2,217.6 L83.35,216.5 L83.49,215.4 L83.64,214.3 L83.78,213.3 L83.93,212.3 L84.07,211.3 L84.22,210.3 L84.36,209.4 L84.51,208.5 L84.65,207.6 L84.79,206.7 L84.94,205.8 L85.08,205 L85.23,204.1 L85.37,203.3 L85.52,202.5 L85.66,201.7 L85.81,200.9 L85.95,200.2 L86.1,199.4 L86.24,198.7 L86.39,197.9 L86.53,197.2 L86.68,196.5 L86.82,195.8 L86.97,195.1 L87.11,194.4 L87.26,193.8 L87.4,193.1 L87.55,192.5 L87.69,191.8 L87.84,191.2 L87.98,190.5 L88.12,189.9 L88.27,189.3 L88.41,188.7 L88.56,188.1 L88.7,187.4 L88.85,186.8 L88.99,186.3 L89.14,185.7 L89.28,185.1 L89.43,184.5 L89.57,183.9 L89.72,183.3 L89.86,182.8 L90.01,182.2 L90.15,181.6 L90.3,181.1 L90.44,180.5 L90.59,180 L90.73,179.4 L90.88,178.9 L91.02,178.3 L91.16,177.8 L91.31,177.2 L91.45,176.7 L91.6,176.1 L91.74,175.6 L91.89,175 L92.03,174.5 L92.18,174 L92.32,173.4 L92.47,172.9 L92.61,172.3 L92.76,171.8 L92.9,171.2 L93.05,170.7 L93.19,170.2 L93.34,169.6 L93.48,169.1 L93.63,168.5 L93.77,168 L93.92,167.4 L94.06,166.9 L94.21,166.3 L94.35,165.7 L94.49,165.2 L94.64,164.6 L94.78,164.1 L94.93,163.5 L95.07,162.9 L95.22,162.3 L95.36,161.8 L95.51,161.2 L95.65,160.6 L95.8,160 L95.94,159.4 L96.09,158.8 L96.23,158.2 L96.38,157.6 L96.52,157 L96.67,156.3 L96.81,155.7 L96.96,155.1 L97.1,154.4 L97.25,153.8 L97.39,153.1 L97.53,152.4 L97.68,151.7 L97.82,151.1 L97.97,150.4 L98.11,149.7 L98.26,148.9 L98.4,148.2 L98.55,147.5 L98.69,146.7 L98.84,146 L98.98,145.2 L99.13,144.4 L99.27,143.6 L99.42,142.8 L99.56,142 L99.71,141.1 L99.85,140.3 L100,139.4 L100.1,138.5 L100.3,137.6 L100.4,136.6 L100.6,135.7 L100.7,134.7 L100.9,133.7 L101,132.7 L101.2,131.6 L101.3,130.6 L101.4,129.5 L101.6,128.3 L101.7,127.2 L101.9,126 L102,124.7 L102.2,123.5 L102.3,122.2 L102.5,120.8 L102.6,119.4 L102.7,118 L102.9,116.5 L103,115 L103.2,113.4 L103.3,111.8 L103.5,110.1 L103.6,108.3 L103.8,106.5 L103.9,104.5 L104,102.6 L104.2,100.5 L104.3,98.32 L104.5,96.06 L104.6,93.69 L104.8,91.21 L104.9,88.61 L105.1,85.87 L105.2,82.99 L105.4,79.95 L105.5,76.74 L105.6,73.35 L105.8,69.75 L105.9,65.92 L106.1,61.85 L106.2,57.5 " fill="none"/></g>
</g>
<g id="plotPoints" clip-path="url(#plot_window)"><g stroke="rgb(0,0,0)" fill="rgb(0,0,0)"></g>
<g stroke="rgb(0,0,0)" fill="rgb(0,0,0)"></g>
<g stroke="rgb(0,0,0)" fill="rgb(0,0,0)"></g>
<g stroke="rgb(0,0,0)" fill="rgb(0,0,0)"></g>
<g stroke="rgb(0,0,0)" fill="rgb(0,0,0)"></g>
</g>
<g id="limitPoints" stroke="rgb(119,136,153)" fill="rgb(250,235,215)"></g>
<g id="legendBackground"></g>
<g id="legendPoints"></g>
<g id="legendText" fill="rgb(0,0,0)"></g>
<g id="title" fill="rgb(0,0,0)">
<text x="300" y="32" text-anchor="middle" font-size="16" font-family="Verdana">digamma</text></g>
</svg>
