<?xml version="1.0" encoding="UTF-8" standalone="no"?>
<svg
   xmlns:dc="http://purl.org/dc/elements/1.1/"
   xmlns:cc="http://creativecommons.org/ns#"
   xmlns:rdf="http://www.w3.org/1999/02/22-rdf-syntax-ns#"
   xmlns:svg="http://www.w3.org/2000/svg"
   xmlns="http://www.w3.org/2000/svg"
   xmlns:sodipodi="http://sodipodi.sourceforge.net/DTD/sodipodi-0.dtd"
   xmlns:inkscape="http://www.inkscape.org/namespaces/inkscape"
   width="400"
   height="300"
   version="1.1"
   id="svg161"
   sodipodi:docname="diode_IV_plot.svg"
   inkscape:export-filename="I:\modular-boost\libs\svg_plot\doc\images\diode_IV_plot.png"
   inkscape:export-xdpi="100"
   inkscape:export-ydpi="100"
   inkscape:version="0.92.1 r15371">
  <metadata
     id="metadata167">
    <rdf:RDF>
      <cc:Work
         rdf:about="">
        <dc:format>image/svg+xml</dc:format>
        <dc:type
           rdf:resource="http://purl.org/dc/dcmitype/StillImage" />
      </cc:Work>
    </rdf:RDF>
  </metadata>
  <defs
     id="defs165" />
  <sodipodi:namedview
     pagecolor="#ffffff"
     bordercolor="#666666"
     borderopacity="1"
     objecttolerance="10"
     gridtolerance="10"
     guidetolerance="10"
     inkscape:pageopacity="0"
     inkscape:pageshadow="2"
     inkscape:window-width="1149"
     inkscape:window-height="818"
     id="namedview163"
     showgrid="false"
     inkscape:zoom="0.78666667"
     inkscape:cx="-282.41525"
     inkscape:cy="150"
     inkscape:window-x="2506"
     inkscape:window-y="124"
     inkscape:window-maximized="0"
     inkscape:current-layer="svg161" />
  <!-- SVG plot written using Boost.Plot program (Creator Jacob Voytko) -->
  <!-- Use, modification and distribution of Boost.Plot subject to the -->
  <!-- Boost Software License, Version 1.0.-->
  <!-- (See accompanying file LICENSE_1_0.txt -->
  <!-- or copy at http://www.boost.org/LICENSE_1_0.txt) -->
  <!-- SVG Plot Copyright Paul A. Bristow 2016 -->
  <meta
     name="copyright"
     content="Paul A. Bristow" />
  <meta
     name="date"
     content="2016" />
  <clipPath
     id="plot_window">
    <rect
       x="61.7"
       y="48.5"
       width="193.6"
       height="197"
       id="rect2" />
  </clipPath>
  <g
     id="imageBackground"
     stroke="rgb(255,255,0)"
     fill="rgb(255,255,255)"
     stroke-width="2">
    <rect
       x="0"
       y="0"
       width="400"
       height="300"
       id="rect5" />
  </g>
  <g
     id="plotBackground"
     stroke="rgb(119,136,153)"
     fill="rgb(255,255,255)"
     stroke-width="2">
    <rect
       x="60.7"
       y="47.5"
       width="195.6"
       height="199"
       id="rect8" />
  </g>
  <g
     id="yMinorGrid"
     stroke="rgb(200,220,255)"
     stroke-width="0.5" />
  <g
     id="yMajorGrid"
     stroke="rgb(200,220,255)"
     stroke-width="1">
    <path
       d="M62.7,80.67 L254.3,80.67 M62.7,47.5 L254.3,47.5 M62.7,80.67 L254.3,80.67 M62.7,113.8 L254.3,113.8 M62.7,147 L254.3,147 M62.7,180.2 L254.3,180.2 M62.7,213.3 L254.3,213.3 M62.7,246.5 L254.3,246.5 "
       fill="none"
       id="path12" />
  </g>
  <g
     id="xMinorGrid"
     stroke="rgb(200,220,255)"
     stroke-width="0.5" />
  <g
     id="xMajorGrid"
     stroke="rgb(200,220,255)"
     stroke-width="1">
    <path
       d="M73.74,47.5 L73.74,246.5 M99.82,47.5 L99.82,246.5 M125.9,47.5 L125.9,246.5 M152,47.5 L152,246.5 M178,47.5 L178,246.5 M204.1,47.5 L204.1,246.5 M230.2,47.5 L230.2,246.5 M256.3,47.5 L256.3,246.5 "
       fill="none"
       id="path16" />
  </g>
  <g
     id="yAxis"
     stroke="rgb(0,0,0)"
     stroke-width="1">
    <line
       x1="60.7"
       y1="47.5"
       x2="60.7"
       y2="246.5"
       id="line19" />
  </g>
  <g
     id="xAxis"
     stroke="rgb(0,0,0)"
     stroke-width="1">
    <line
       x1="55.7"
       y1="80.67"
       x2="256.3"
       y2="80.67"
       id="line22" />
    <line
       x1="55.7"
       y1="246.5"
       x2="256.3"
       y2="246.5"
       id="line24" />
  </g>
  <g
     id="yMinorTicks"
     stroke="rgb(0,0,0)"
     stroke-width="1">
    <path
       d="M58.7,74.03 L60.7,74.03 M58.7,67.4 L60.7,67.4 M58.7,60.77 L60.7,60.77 M58.7,54.13 L60.7,54.13 M58.7,80.67 L60.7,80.67 M58.7,87.3 L60.7,87.3 M58.7,93.93 L60.7,93.93 M58.7,100.6 L60.7,100.6 M58.7,107.2 L60.7,107.2 M58.7,113.8 L60.7,113.8 M58.7,120.5 L60.7,120.5 M58.7,127.1 L60.7,127.1 M58.7,133.7 L60.7,133.7 M58.7,140.4 L60.7,140.4 M58.7,147 L60.7,147 M58.7,147 L60.7,147 M58.7,153.6 L60.7,153.6 M58.7,160.3 L60.7,160.3 M58.7,166.9 L60.7,166.9 M58.7,173.5 L60.7,173.5 M58.7,180.2 L60.7,180.2 M58.7,186.8 L60.7,186.8 M58.7,193.4 L60.7,193.4 M58.7,200.1 L60.7,200.1 M58.7,206.7 L60.7,206.7 M58.7,213.3 L60.7,213.3 M58.7,220 L60.7,220 M58.7,226.6 L60.7,226.6 M58.7,233.2 L60.7,233.2 M58.7,239.9 L60.7,239.9 M58.7,246.5 L60.7,246.5 "
       fill="none"
       id="path27" />
  </g>
  <g
     id="xMinorTicks"
     stroke="rgb(0,0,0)"
     stroke-width="1">
    <path
       d="M63.31,246.5 L63.31,248.5 M68.52,246.5 L68.52,248.5 M78.95,246.5 L78.95,248.5 M84.17,246.5 L84.17,248.5 M89.39,246.5 L89.39,248.5 M94.6,246.5 L94.6,248.5 M105,246.5 L105,248.5 M110.2,246.5 L110.2,248.5 M115.5,246.5 L115.5,248.5 M120.7,246.5 L120.7,248.5 M131.1,246.5 L131.1,248.5 M136.3,246.5 L136.3,248.5 M141.5,246.5 L141.5,248.5 M146.8,246.5 L146.8,248.5 M157.2,246.5 L157.2,248.5 M162.4,246.5 L162.4,248.5 M167.6,246.5 L167.6,248.5 M172.8,246.5 L172.8,248.5 M183.3,246.5 L183.3,248.5 M188.5,246.5 L188.5,248.5 M193.7,246.5 L193.7,248.5 M198.9,246.5 L198.9,248.5 M209.3,246.5 L209.3,248.5 M214.6,246.5 L214.6,248.5 M219.8,246.5 L219.8,248.5 M225,246.5 L225,248.5 M235.4,246.5 L235.4,248.5 M240.6,246.5 L240.6,248.5 M245.8,246.5 L245.8,248.5 M251.1,246.5 L251.1,248.5 "
       fill="none"
       id="path30" />
  </g>
  <g
     id="yMajorTicks"
     stroke="rgb(0,0,0)"
     stroke-width="2">
    <path
       d="M55.7,80.67 L60.7,80.67 M55.7,47.5 L60.7,47.5 M55.7,80.67 L60.7,80.67 M55.7,113.8 L60.7,113.8 M55.7,147 L60.7,147 M55.7,180.2 L60.7,180.2 M55.7,213.3 L60.7,213.3 M55.7,246.5 L60.7,246.5 "
       fill="none"
       id="path33" />
  </g>
  <g
     id="xMajorTicks"
     stroke="rgb(0,0,0)"
     stroke-width="2">
    <path
       d="M73.74,246.5 L73.74,251.5 M99.82,246.5 L99.82,251.5 M125.9,246.5 L125.9,251.5 M152,246.5 L152,251.5 M178,246.5 L178,251.5 M204.1,246.5 L204.1,251.5 M230.2,246.5 L230.2,251.5 M256.3,246.5 L256.3,251.5 "
       fill="none"
       id="path36" />
  </g>
  <g
     id="xTicksValues">
    <text
       x="73.74"
       y="267.1"
       text-anchor="middle"
       font-size="12"
       font-family="Lucida Sans Unicode"
       id="text39">0.3</text>
    <text
       x="99.82"
       y="267.1"
       text-anchor="middle"
       font-size="12"
       font-family="Lucida Sans Unicode"
       id="text41">0.4</text>
    <text
       x="125.9"
       y="267.1"
       text-anchor="middle"
       font-size="12"
       font-family="Lucida Sans Unicode"
       id="text43">0.5</text>
    <text
       x="152"
       y="267.1"
       text-anchor="middle"
       font-size="12"
       font-family="Lucida Sans Unicode"
       id="text45">0.6</text>
    <text
       x="178"
       y="267.1"
       text-anchor="middle"
       font-size="12"
       font-family="Lucida Sans Unicode"
       id="text47">0.7</text>
    <text
       x="204.1"
       y="267.1"
       text-anchor="middle"
       font-size="12"
       font-family="Lucida Sans Unicode"
       id="text49">0.8</text>
    <text
       x="230.2"
       y="267.1"
       text-anchor="middle"
       font-size="12"
       font-family="Lucida Sans Unicode"
       id="text51">0.9</text>
    <text
       x="256.3"
       y="267.1"
       text-anchor="middle"
       font-size="12"
       font-family="Lucida Sans Unicode"
       id="text53">1</text>
  </g>
  <g
     id="yTicksValues">
    <text
       x="49.7"
       y="83.07"
       text-anchor="end"
       font-size="12"
       font-family="Lucida Sans Unicode"
       id="text56">0</text>
    <text
       x="49.7"
       y="49.9"
       text-anchor="end"
       font-size="12"
       font-family="Lucida Sans Unicode"
       id="text58">4</text>
    <text
       x="49.7"
       y="83.07"
       text-anchor="end"
       font-size="12"
       font-family="Lucida Sans Unicode"
       id="text60">0</text>
    <text
       x="49.7"
       y="116.2"
       text-anchor="end"
       font-size="12"
       font-family="Lucida Sans Unicode"
       id="text62">-4</text>
    <text
       x="49.7"
       y="149.4"
       text-anchor="end"
       font-size="12"
       font-family="Lucida Sans Unicode"
       id="text64">-8</text>
    <text
       x="49.7"
       y="182.6"
       text-anchor="end"
       font-size="12"
       font-family="Lucida Sans Unicode"
       id="text66">-12</text>
    <text
       x="49.7"
       y="215.7"
       text-anchor="end"
       font-size="12"
       font-family="Lucida Sans Unicode"
       id="text68">-16</text>
    <text
       x="49.7"
       y="248.9"
       text-anchor="end"
       font-size="12"
       font-family="Lucida Sans Unicode"
       id="text70">-20</text>
  </g>
  <g
     id="yLabel">
    <text
       x="19.4"
       y="147"
       text-anchor="middle"
       transform="rotate(-90 19.4 147 )"
       font-size="14"
       font-family="Lucida Sans Unicode"
       id="text73">log(current) (A)</text>
  </g>
  <g
     id="xLabel">
    <text
       x="158.5"
       y="282.2"
       text-anchor="middle"
       font-size="14"
       font-family="Lucida Sans Unicode"
       id="text76">voltage (V)</text>
  </g>
  <g
     id="plotLines"
     stroke-width="2">
    <g
       clip-path="url(#plot_window)"
       stroke="rgb(0,0,0)"
       stroke-width="0.5"
       id="g81">
      <path
         d="M73.74,243.6 L73.74,243.6 L99.82,211.3 L125.9,179 L152,146.8 L178,114.5 L204.1,80.83 L230.2,50.82 "
         fill="none"
         id="path79" />
    </g>
    <g
       clip-path="url(#plot_window)"
       stroke="rgb(0,0,255)"
       stroke-width="1"
       id="g85">
      <path
         d="M73.74,243.6 L73.74,243.6 L76.35,240.4 L78.95,237.1 L81.56,233.9 L84.17,230.7 L86.78,227.5 L89.39,224.2 L91.99,221 L94.6,217.8 L97.21,214.5 L99.82,211.3 L102.4,208.1 L105,204.9 L107.6,201.6 L110.2,198.4 L112.9,195.2 L115.5,192 L118.1,188.7 L120.7,185.5 L123.3,182.3 L125.9,179.1 L128.5,175.8 L131.1,172.6 L133.7,169.4 L136.3,166.2 L138.9,163 L141.5,159.8 L144.1,156.6 L146.8,153.4 L149.4,150.2 L152,147 L154.6,143.9 L157.2,140.9 L159.8,137.9 L162.4,135 L165,132.2 L167.6,129.5 L170.2,127 L172.8,124.7 L175.4,122.5 L178,120.6 L180.7,118.8 L183.3,117.2 L185.9,115.7 L188.5,114.4 L191.1,113.2 L193.7,112 L196.3,111 L198.9,110.1 L201.5,109.2 L204.1,108.4 L206.7,107.7 L209.3,107 L211.9,106.3 L214.6,105.7 L217.2,105.1 L219.8,104.6 L222.4,104 L225,103.5 L227.6,103.1 L230.2,102.6 L232.8,102.2 L235.4,101.8 L238,101.4 L240.6,101 L243.2,100.6 L245.8,100.3 L248.5,99.95 L251.1,99.62 L253.7,99.31 "
         fill="none"
         id="path83" />
    </g>
    <g
       clip-path="url(#plot_window)"
       stroke="rgb(128,0,128)"
       stroke-width="1"
       id="g89">
      <path
         d="M73.74,243.6 L73.74,243.6 L76.35,240.4 L78.95,237.1 L81.56,233.9 L84.17,230.7 L86.78,227.5 L89.39,224.2 L91.99,221 L94.6,217.8 L97.21,214.5 L99.82,211.3 L102.4,208.1 L105,204.9 L107.6,201.6 L110.2,198.4 L112.9,195.2 L115.5,192 L118.1,188.7 L120.7,185.5 L123.3,182.3 L125.9,179.1 L128.5,175.9 L131.1,172.7 L133.7,169.5 L136.3,166.3 L138.9,163.1 L141.5,159.9 L144.1,156.8 L146.8,153.7 L149.4,150.7 L152,147.8 L154.6,145 L157.2,142.3 L159.8,139.8 L162.4,137.4 L165,135.3 L167.6,133.3 L170.2,131.5 L172.8,129.8 L175.4,128.3 L178,127 L180.7,125.8 L183.3,124.6 L185.9,123.6 L188.5,122.7 L191.1,121.8 L193.7,121 L196.3,120.2 L198.9,119.5 L201.5,118.8 L204.1,118.2 L206.7,117.6 L209.3,117.1 L211.9,116.5 L214.6,116 L217.2,115.6 L219.8,115.1 L222.4,114.7 L225,114.3 L227.6,113.9 L230.2,113.5 L232.8,113.1 L235.4,112.8 L238,112.4 L240.6,112.1 L243.2,111.8 L245.8,111.5 L248.5,111.2 L251.1,110.9 L253.7,110.6 "
         fill="none"
         id="path87" />
    </g>
    <g
       clip-path="url(#plot_window)"
       stroke="rgb(0,128,0)"
       stroke-width="1"
       id="g93">
      <path
         d="M73.74,243.6 L73.74,243.6 L76.35,240.4 L78.95,237.1 L81.56,233.9 L84.17,230.7 L86.78,227.5 L89.39,224.2 L91.99,221 L94.6,217.8 L97.21,214.5 L99.82,211.3 L102.4,208.1 L105,204.9 L107.6,201.6 L110.2,198.4 L112.9,195.2 L115.5,192 L118.1,188.8 L120.7,185.6 L123.3,182.4 L125.9,179.2 L128.5,176 L131.1,172.9 L133.7,169.7 L136.3,166.7 L138.9,163.7 L141.5,160.8 L144.1,158 L146.8,155.3 L149.4,152.8 L152,150.5 L154.6,148.3 L157.2,146.4 L159.8,144.6 L162.4,142.9 L165,141.5 L167.6,140.1 L170.2,138.9 L172.8,137.8 L175.4,136.8 L178,135.8 L180.7,135 L183.3,134.2 L185.9,133.4 L188.5,132.7 L191.1,132.1 L193.7,131.4 L196.3,130.9 L198.9,130.3 L201.5,129.8 L204.1,129.3 L206.7,128.8 L209.3,128.4 L211.9,127.9 L214.6,127.5 L217.2,127.1 L219.8,126.8 L222.4,126.4 L225,126 L227.6,125.7 L230.2,125.4 L232.8,125.1 L235.4,124.8 L238,124.5 L240.6,124.2 L243.2,123.9 L245.8,123.6 L248.5,123.4 L251.1,123.1 L253.7,122.9 "
         fill="none"
         id="path91" />
    </g>
    <g
       clip-path="url(#plot_window)"
       stroke="rgb(255,0,0)"
       stroke-width="1"
       id="g97">
      <path
         d="M73.74,243.6 L73.74,243.6 L76.35,240.4 L78.95,237.1 L81.56,233.9 L84.17,230.7 L86.78,227.5 L89.39,224.2 L91.99,221 L94.6,217.8 L97.21,214.6 L99.82,211.3 L102.4,208.1 L105,204.9 L107.6,201.7 L110.2,198.5 L112.9,195.3 L115.5,192.1 L118.1,188.9 L120.7,185.8 L123.3,182.7 L125.9,179.6 L128.5,176.6 L131.1,173.7 L133.7,170.9 L136.3,168.2 L138.9,165.7 L141.5,163.4 L144.1,161.3 L146.8,159.3 L149.4,157.6 L152,156 L154.6,154.5 L157.2,153.2 L159.8,152 L162.4,150.9 L165,149.8 L167.6,148.9 L170.2,148 L172.8,147.2 L175.4,146.5 L178,145.8 L180.7,145.1 L183.3,144.5 L185.9,143.9 L188.5,143.4 L191.1,142.9 L193.7,142.4 L196.3,141.9 L198.9,141.4 L201.5,141 L204.1,140.6 L206.7,140.2 L209.3,139.8 L211.9,139.5 L214.6,139.1 L217.2,138.8 L219.8,138.5 L222.4,138.1 L225,137.8 L227.6,137.6 L230.2,137.3 L232.8,137 L235.4,136.7 L238,136.5 L240.6,136.2 L243.2,136 L245.8,135.7 L248.5,135.5 L251.1,135.3 L253.7,135 "
         fill="none"
         id="path95" />
    </g>
  </g>
  <g
     id="plotPoints"
     clip-path="url(#plot_window)">
    <g
       stroke="rgb(0,0,0)"
       fill="rgb(211,211,211)"
       id="g114">
      <rect
         x="72.24"
         y="242.1"
         width="3"
         height="3"
         id="rect100" />
      <rect
         x="98.32"
         y="209.8"
         width="3"
         height="3"
         id="rect102" />
      <rect
         x="124.4"
         y="177.5"
         width="3"
         height="3"
         id="rect104" />
      <rect
         x="150.5"
         y="145.3"
         width="3"
         height="3"
         id="rect106" />
      <rect
         x="176.5"
         y="113"
         width="3"
         height="3"
         id="rect108" />
      <rect
         x="202.6"
         y="79.33"
         width="3"
         height="3"
         id="rect110" />
      <rect
         x="228.7"
         y="49.32"
         width="3"
         height="3"
         id="rect112" />
    </g>
  </g>
  <g
     id="legendBackground"
     stroke="rgb(255,255,0)"
     fill="rgb(255,255,255)"
     stroke-width="1">
    <rect
       x="270.3"
       y="47.5"
       width="127.2"
       height="154"
       id="rect117" />
    <rect
       x="270.3"
       y="47.5"
       width="127.2"
       height="154"
       id="rect119" />
  </g>
  <g
     id="legendPoints">
    <g
       stroke="rgb(0,0,0)"
       fill="rgb(211,211,211)"
       stroke-width="0.5"
       id="g126">
      <rect
         x="282.8"
         y="74"
         width="3"
         height="3"
         id="rect122" />
      <line
         x1="305.3"
         y1="75.5"
         x2="319.3"
         y2="75.5"
         id="line124" />
    </g>
    <g
       stroke="rgb(0,0,255)"
       fill="rgb(255,255,255)"
       stroke-width="1"
       id="g130">
      <line
         x1="284.3"
         y1="103.5"
         x2="298.3"
         y2="103.5"
         id="line128" />
    </g>
    <g
       stroke="rgb(128,0,128)"
       fill="rgb(255,255,255)"
       stroke-width="1"
       id="g134">
      <line
         x1="284.3"
         y1="131.5"
         x2="298.3"
         y2="131.5"
         id="line132" />
    </g>
    <g
       stroke="rgb(0,128,0)"
       fill="rgb(255,255,255)"
       stroke-width="1"
       id="g138">
      <line
         x1="284.3"
         y1="159.5"
         x2="298.3"
         y2="159.5"
         id="line136" />
    </g>
    <g
       stroke="rgb(255,0,0)"
       fill="rgb(255,255,255)"
       stroke-width="1"
       id="g142">
      <line
         x1="284.3"
         y1="187.5"
         x2="298.3"
         y2="187.5"
         id="line140" />
    </g>
  </g>
  <g
     id="legendText">
    <text
       x="326.3"
       y="75.5"
       font-size="14"
       font-family="Lucida Sans Unicode"
       id="text145">Rs=0 Ω</text>
    <text
       x="305.3"
       y="103.5"
       font-size="14"
       font-family="Lucida Sans Unicode"
       id="text147">Rs=2 Ω</text>
    <text
       x="305.3"
       y="131.5"
       font-size="14"
       font-family="Lucida Sans Unicode"
       id="text149">Rs=10 Ω</text>
    <text
       x="305.3"
       y="159.5"
       font-size="14"
       font-family="Lucida Sans Unicode"
       id="text151">Rs=51 Ω</text>
    <text
       x="305.3"
       y="187.5"
       font-size="14"
       font-family="Lucida Sans Unicode"
       id="text153">Rs=249 Ω</text>
  </g>
  <g
     id="title">
    <text
       x="200"
       y="36"
       text-anchor="middle"
       font-size="18"
       font-family="Lucida Sans Unicode"
       id="text156">Diode current versus voltage</text>
  </g>
  <g
     id="plotXValues" />
  <g
     id="plotYValues" />
</svg>
