<?xml version="1.0" encoding="UTF-8" standalone="no"?><!DOCTYPE svg PUBLIC "-//W3C//DTD SVG 1.1//EN" "http://www.w3.org/graphics/svg/1.1/dtd/svg11.dtd">
<svg width="800" height ="600" version="1.1" xmlns="http://www.w3.org/2000/svg"
 xmlns:xlink="http://www.w3.org/1999/xlink"
 xmlns:ev="http://www.w3.org/2001/xml-events">

<!-- SVG plot written using Boost.Plot program (Creator Jacob Voytko) --> 
<!-- Use, modification and distribution of Boost.Plot subject to the --> 
<!-- Boost Software License, Version 1.0.--> 
<!-- (See accompanying file LICENSE_1_0.txt --> 
<!-- or copy at http://www.boost.org/LICENSE_1_0.txt) --> 

<clipPath id="plot_window"><rect x="43" y="62" width="745" height="495"/></clipPath>
<g id="imageBackground" stroke="rgb(250,240,230)" fill="rgb(255,255,255)" stroke-width="0.5"><rect x="0" y="0" width="800" height="600"/></g>
<g id="plotBackground" stroke="rgb(255,255,224)" fill="rgb(255,255,255)" stroke-width="1"><rect x="42" y="61" width="747" height="497"/></g>
<g id="yMinorGrid" stroke="rgb(200,220,255)" stroke-width="0.5"></g>
<g id="yMajorGrid" stroke="rgb(200,220,255)" stroke-width="1"></g>
<g id="xMinorGrid" stroke="rgb(200,220,255)" stroke-width="0.5"></g>
<g id="xMajorGrid" stroke="rgb(200,220,255)" stroke-width="1"></g>
<g id="yAxis" stroke="rgb(0,0,0)" stroke-width="1"><line x1="104.3" y1="61" x2="104.3" y2="568"/></g>
<g id="xAxis" stroke="rgb(0,0,0)" stroke-width="1"><line x1="32" y1="516.6" x2="789" y2="516.6"/></g>
<g id="yMinorTicks" stroke="rgb(0,0,0)" stroke-width="1"><path d="M99.25,499 L104.3,499 M99.25,481.4 L104.3,481.4 M99.25,463.8 L104.3,463.8 M99.25,446.2 L104.3,446.2 M99.25,411 L104.3,411 M99.25,393.5 L104.3,393.5 M99.25,375.9 L104.3,375.9 M99.25,358.3 L104.3,358.3 M99.25,323.1 L104.3,323.1 M99.25,305.5 L104.3,305.5 M99.25,287.9 L104.3,287.9 M99.25,270.3 L104.3,270.3 M99.25,235.1 L104.3,235.1 M99.25,217.6 L104.3,217.6 M99.25,200 L104.3,200 M99.25,182.4 L104.3,182.4 M99.25,147.2 L104.3,147.2 M99.25,129.6 L104.3,129.6 M99.25,112 L104.3,112 M99.25,94.43 L104.3,94.43 M99.25,534.2 L104.3,534.2 M99.25,551.8 L104.3,551.8 "/></g>
<g id="xMinorTicks" stroke="rgb(0,0,0)" stroke-width="1"><path d="M125.1,516.6 L125.1,521.6 M145.9,516.6 L145.9,521.6 M166.7,516.6 L166.7,521.6 M187.5,516.6 L187.5,521.6 M229.1,516.6 L229.1,521.6 M249.9,516.6 L249.9,521.6 M270.7,516.6 L270.7,521.6 M291.5,516.6 L291.5,521.6 M333.1,516.6 L333.1,521.6 M353.9,516.6 L353.9,521.6 M374.7,516.6 L374.7,521.6 M395.5,516.6 L395.5,521.6 M437.1,516.6 L437.1,521.6 M457.9,516.6 L457.9,521.6 M478.7,516.6 L478.7,521.6 M499.5,516.6 L499.5,521.6 M541.2,516.6 L541.2,521.6 M562,516.6 L562,521.6 M582.8,516.6 L582.8,521.6 M603.6,516.6 L603.6,521.6 M645.2,516.6 L645.2,521.6 M666,516.6 L666,521.6 M686.8,516.6 L686.8,521.6 M707.6,516.6 L707.6,521.6 M749.2,516.6 L749.2,521.6 M770,516.6 L770,521.6 M83.44,516.6 L83.44,521.6 M62.64,516.6 L62.64,521.6 "/></g>
<g id="yMajorTicks" stroke="rgb(0,0,0)" stroke-width="2"><path d="M94.25,428.6 L104.3,428.6 M94.25,340.7 L104.3,340.7 M94.25,252.7 L104.3,252.7 M94.25,164.8 L104.3,164.8 M94.25,76.84 L104.3,76.84 "/></g>
<g id="xMajorTicks" stroke="rgb(0,0,0)" stroke-width="2"><path d="M208.3,516.6 L208.3,526.6 M312.3,516.6 L312.3,526.6 M416.3,516.6 L416.3,526.6 M520.4,516.6 L520.4,526.6 M624.4,516.6 L624.4,526.6 M728.4,516.6 L728.4,526.6 "/></g>
<g id="plotLabels" fill="rgb(0,0,0)"><text x="208.3" y="544.6" text-anchor="middle" font-family="Verdana" font-size="12">1</text><text x="312.3" y="544.6" text-anchor="middle" font-family="Verdana" font-size="12">2</text><text x="416.3" y="544.6" text-anchor="middle" font-family="Verdana" font-size="12">3</text><text x="520.4" y="544.6" text-anchor="middle" font-family="Verdana" font-size="12">4</text><text x="624.4" y="544.6" text-anchor="middle" font-family="Verdana" font-size="12">5</text><text x="728.4" y="544.6" text-anchor="middle" font-family="Verdana" font-size="12">6</text><text x="82.25" y="434.6" text-anchor="middle" font-family="Verdana" font-size="12">1</text><text x="82.25" y="346.7" text-anchor="middle" font-family="Verdana" font-size="12">2</text><text x="82.25" y="258.7" text-anchor="middle" font-family="Verdana" font-size="12">3</text><text x="82.25" y="170.8" text-anchor="middle" font-family="Verdana" font-size="12">4</text><text x="82.25" y="82.84" text-anchor="middle" font-family="Verdana" font-size="12">5</text></g>
<g id="yLabel" fill="rgb(0,0,0)"><text x="21" y="309.5" text-anchor="middle" transform = "rotate(-90 21 309.5 )" font-family="Verdana" font-size="14">Probability</text></g>
<g id="xLabel" fill="rgb(0,0,0)"><text x="415.5" y="586" text-anchor="middle" font-family="Verdana" font-size="14">Random Variable</text></g>
<g id="plotLines" stroke-width="2"><g clip-path="url(#plot_window)" stroke="rgb(0,0,139)"><path d="M104.3,472.6 S114.2,474.7 116.7,475.2 S126.7,477.1 129.2,477.6 S139.1,479.4 141.6,479.8 S151.6,481.6 154.1,482 S164,483.6 166.5,484 S176.5,485.5 179,485.9 S188.9,487.3 191.4,487.7 S201.4,489 203.9,489.3 S213.8,490.6 216.3,490.9 S226.3,492.1 228.8,492.4 S238.7,493.5 241.2,493.8 S251.2,494.9 253.7,495.1 S263.6,496.1 266.1,496.4 S276.1,497.3 278.6,497.6 S288.5,498.4 291,498.7 S301,499.5 303.5,499.7 S313.4,500.5 315.9,500.7 S325.9,501.4 328.4,501.6 S338.3,502.3 340.8,502.5 S350.8,503.1 353.3,503.3 S363.2,503.9 365.7,504.1 S375.7,504.7 378.2,504.8 S388.1,505.3 390.6,505.5 S400.6,506 403.1,506.1 S413,506.6 415.5,506.7 S425.5,507.2 427.9,507.3 S437.9,507.7 440.4,507.8 S450.4,508.3 452.8,508.4 S462.8,508.7 465.3,508.8 S475.3,509.2 477.7,509.3 S487.7,509.6 490.2,509.7 S500.2,510 502.6,510.1 S512.6,510.4 515.1,510.5 S525.1,510.8 527.5,510.8 S537.5,511.1 540,511.2 S550,511.4 552.4,511.5 S562.4,511.7 564.9,511.8 S574.9,512 577.4,512.1 S587.3,512.3 589.8,512.3 S599.8,512.5 602.3,512.6 S612.2,512.8 614.7,512.8 S624.7,513 627.2,513 S637.1,513.2 639.6,513.2 S649.6,513.4 652.1,513.4 S662,513.6 664.5,513.6 S674.5,513.7 677,513.8 S686.9,513.9 689.4,513.9 S699.4,514.1 701.9,514.1 S714.3,514.3 714.3,514.2 " fill="none"/></g>
<g clip-path="url(#plot_window)" stroke="rgb(139,0,0)"><path d="M104.3,428.6 S114.2,436.7 116.7,438.6 S126.7,445.7 129.2,447.4 S139.1,453.7 141.6,455.2 S151.6,460.8 154.1,462.1 S164,467.1 166.5,468.2 S176.5,472.7 179,473.7 S188.9,477.6 191.4,478.5 S201.4,482 203.9,482.8 S213.8,485.9 216.3,486.6 S226.3,489.4 228.8,490 S238.7,492.4 241.2,493 S251.2,495.2 253.7,495.7 S263.6,497.6 266.1,498 S276.1,499.7 278.6,500.1 S288.5,501.6 291,502 S301,503.3 303.5,503.6 S313.4,504.8 315.9,505.1 S325.9,506.1 328.4,506.4 S338.3,507.3 340.8,507.5 S350.8,508.4 353.3,508.6 S363.2,509.3 365.7,509.5 S375.7,510.1 378.2,510.3 S388.1,510.8 390.6,511 S400.6,511.5 403.1,511.6 S413,512.1 415.5,512.2 S425.5,512.6 427.9,512.7 S437.9,513 440.4,513.1 S450.4,513.4 452.8,513.5 S462.8,513.8 465.3,513.8 S475.3,514.1 477.7,514.2 S487.7,514.4 490.2,514.4 S500.2,514.6 502.6,514.7 S512.6,514.8 515.1,514.9 S525.1,515 527.5,515.1 S537.5,515.2 540,515.2 S550,515.4 552.4,515.4 S562.4,515.5 564.9,515.5 S574.9,515.6 577.4,515.7 S587.3,515.7 589.8,515.8 S599.8,515.8 602.3,515.9 S612.2,515.9 614.7,515.9 S624.7,516 627.2,516 S637.1,516.1 639.6,516.1 S649.6,516.1 652.1,516.1 S662,516.2 664.5,516.2 S674.5,516.2 677,516.2 S686.9,516.3 689.4,516.3 S699.4,516.3 701.9,516.3 S714.3,516.3 714.3,516.3 " fill="none"/></g>
<g clip-path="url(#plot_window)" stroke="rgb(0,100,0)"><path d="M104.3,76.84 S114.2,244.2 116.7,274.9 S126.7,366.8 129.2,383.7 S139.1,434.3 141.6,443.5 S151.6,471.3 154.1,476.4 S164,491.7 166.5,494.5 S176.5,502.9 179,504.5 S188.9,509.1 191.4,509.9 S201.4,512.5 203.9,512.9 S213.8,514.3 216.3,514.6 S226.3,515.3 228.8,515.5 S238.7,515.9 241.2,516 S251.2,516.2 253.7,516.2 S263.6,516.4 266.1,516.4 S276.1,516.5 278.6,516.5 S288.5,516.5 291,516.5 S301,516.5 303.5,516.6 S313.4,516.6 315.9,516.6 S325.9,516.6 328.4,516.6 S338.3,516.6 340.8,516.6 S350.8,516.6 353.3,516.6 S363.2,516.6 365.7,516.6 S375.7,516.6 378.2,516.6 S388.1,516.6 390.6,516.6 S400.6,516.6 403.1,516.6 S413,516.6 415.5,516.6 S425.5,516.6 427.9,516.6 S437.9,516.6 440.4,516.6 S450.4,516.6 452.8,516.6 S462.8,516.6 465.3,516.6 S475.3,516.6 477.7,516.6 S487.7,516.6 490.2,516.6 S500.2,516.6 502.6,516.6 S512.6,516.6 515.1,516.6 S525.1,516.6 527.5,516.6 S537.5,516.6 540,516.6 S550,516.6 552.4,516.6 S562.4,516.6 564.9,516.6 S574.9,516.6 577.4,516.6 S587.3,516.6 589.8,516.6 S599.8,516.6 602.3,516.6 S612.2,516.6 614.7,516.6 S624.7,516.6 627.2,516.6 S637.1,516.6 639.6,516.6 S649.6,516.6 652.1,516.6 S662,516.6 664.5,516.6 S674.5,516.6 677,516.6 S686.9,516.6 689.4,516.6 S699.4,516.6 701.9,516.6 S714.3,516.6 714.3,516.6 " fill="none"/></g>
</g>
<g id="plotPoints" clip-path="url(#plot_window)"><g stroke="rgb(0,0,0)" fill="rgb(255,255,255)"></g>
<g stroke="rgb(0,0,0)" fill="rgb(255,255,255)"></g>
<g stroke="rgb(0,0,0)" fill="rgb(255,255,255)"></g>
</g>
<g id="limitPoints" stroke="rgb(119,136,153)" fill="rgb(250,235,215)"></g>
<g id="legendBackground" stroke="rgb(0,0,0)" fill="rgb(255,255,255)"><rect x="500" y="150" width="145.5" height="105"/><rect x="500" y="150" width="145.5" height="105"/></g>
<g id="legendPoints"><g stroke="rgb(0,0,139)" stroke-width="2"><line x1="507.5" y1="172.5" x2="530" y2="172.5"/></g>
<g stroke="rgb(139,0,0)" stroke-width="2"><line x1="507.5" y1="202.5" x2="530" y2="202.5"/></g>
<g stroke="rgb(0,100,0)" stroke-width="2"><line x1="507.5" y1="232.5" x2="530" y2="232.5"/></g>
</g>
<g id="legendText" fill="rgb(0,0,0)"><text x="537.5" y="172.5" text-anchor="start" font-family="Verdana" font-size="15">shape = 0.5</text><text x="537.5" y="202.5" text-anchor="start" font-family="Verdana" font-size="15">shape = 1</text><text x="537.5" y="232.5" text-anchor="start" font-family="Verdana" font-size="15">shape = 5</text></g>
<g id="title" fill="rgb(0,0,0)"><text x="400" y="40.67" text-anchor="middle" font-family="Verdana" font-size="20">Exponential - Probability Distribution Function (PDF)</text></g>
</svg>
