<?xml version="1.0" encoding="UTF-8" standalone="no"?><!DOCTYPE svg PUBLIC "-//W3C//DTD SVG 1.1//EN" "http://www.w3.org/graphics/svg/1.1/dtd/svg11.dtd">
<svg width="800" height ="600" version="1.1" xmlns="http://www.w3.org/2000/svg"
 xmlns:xlink="http://www.w3.org/1999/xlink"
 xmlns:ev="http://www.w3.org/2001/xml-events">

<!-- SVG plot written using Boost.Plot program (Creator Jacob Voytko) --> 
<!-- Use, modification and distribution of Boost.Plot subject to the --> 
<!-- Boost Software License, Version 1.0.--> 
<!-- (See accompanying file LICENSE_1_0.txt --> 
<!-- or copy at http://www.boost.org/LICENSE_1_0.txt) --> 

<clipPath id="plot_window"><rect x="43" y="62" width="745" height="495"/></clipPath>
<g id="imageBackground" stroke="rgb(250,240,230)" fill="rgb(255,255,255)" stroke-width="0.5"><rect x="0" y="0" width="800" height="600"/></g>
<g id="plotBackground" stroke="rgb(255,255,224)" fill="rgb(255,255,255)" stroke-width="1"><rect x="42" y="61" width="747" height="497"/></g>
<g id="yMinorGrid" stroke="rgb(200,220,255)" stroke-width="0.5"></g>
<g id="yMajorGrid" stroke="rgb(200,220,255)" stroke-width="1"></g>
<g id="xMinorGrid" stroke="rgb(200,220,255)" stroke-width="0.5"></g>
<g id="xMajorGrid" stroke="rgb(200,220,255)" stroke-width="1"></g>
<g id="yAxis" stroke="rgb(0,0,0)" stroke-width="1"><line x1="104.3" y1="61" x2="104.3" y2="568"/></g>
<g id="xAxis" stroke="rgb(0,0,0)" stroke-width="1"><line x1="32" y1="516.6" x2="789" y2="516.6"/></g>
<g id="yMinorTicks" stroke="rgb(0,0,0)" stroke-width="1"><path d="M99.25,505.3 L104.3,505.3 M99.25,494.1 L104.3,494.1 M99.25,482.8 L104.3,482.8 M99.25,471.6 L104.3,471.6 M99.25,449 L104.3,449 M99.25,437.8 L104.3,437.8 M99.25,426.5 L104.3,426.5 M99.25,415.3 L104.3,415.3 M99.25,392.7 L104.3,392.7 M99.25,381.5 L104.3,381.5 M99.25,370.2 L104.3,370.2 M99.25,359 L104.3,359 M99.25,336.5 L104.3,336.5 M99.25,325.2 L104.3,325.2 M99.25,313.9 L104.3,313.9 M99.25,302.7 L104.3,302.7 M99.25,280.2 L104.3,280.2 M99.25,268.9 L104.3,268.9 M99.25,257.6 L104.3,257.6 M99.25,246.4 L104.3,246.4 M99.25,223.9 L104.3,223.9 M99.25,212.6 L104.3,212.6 M99.25,201.4 L104.3,201.4 M99.25,190.1 L104.3,190.1 M99.25,167.6 L104.3,167.6 M99.25,156.3 L104.3,156.3 M99.25,145.1 L104.3,145.1 M99.25,133.8 L104.3,133.8 M99.25,111.3 L104.3,111.3 M99.25,100 L104.3,100 M99.25,88.77 L104.3,88.77 M99.25,77.51 L104.3,77.51 M99.25,527.8 L104.3,527.8 M99.25,539.1 L104.3,539.1 M99.25,550.4 L104.3,550.4 "/></g>
<g id="xMinorTicks" stroke="rgb(0,0,0)" stroke-width="1"><path d="M115.1,516.6 L115.1,521.6 M125.9,516.6 L125.9,521.6 M136.8,516.6 L136.8,521.6 M147.6,516.6 L147.6,521.6 M169.3,516.6 L169.3,521.6 M180.1,516.6 L180.1,521.6 M191,516.6 L191,521.6 M201.8,516.6 L201.8,521.6 M223.5,516.6 L223.5,521.6 M234.3,516.6 L234.3,521.6 M245.2,516.6 L245.2,521.6 M256,516.6 L256,521.6 M277.7,516.6 L277.7,521.6 M288.5,516.6 L288.5,521.6 M299.4,516.6 L299.4,521.6 M310.2,516.6 L310.2,521.6 M331.9,516.6 L331.9,521.6 M342.7,516.6 L342.7,521.6 M353.5,516.6 L353.5,521.6 M364.4,516.6 L364.4,521.6 M386.1,516.6 L386.1,521.6 M396.9,516.6 L396.9,521.6 M407.7,516.6 L407.7,521.6 M418.6,516.6 L418.6,521.6 M440.3,516.6 L440.3,521.6 M451.1,516.6 L451.1,521.6 M461.9,516.6 L461.9,521.6 M472.8,516.6 L472.8,521.6 M494.5,516.6 L494.5,521.6 M505.3,516.6 L505.3,521.6 M516.1,516.6 L516.1,521.6 M527,516.6 L527,521.6 M548.7,516.6 L548.7,521.6 M559.5,516.6 L559.5,521.6 M570.3,516.6 L570.3,521.6 M581.2,516.6 L581.2,521.6 M602.8,516.6 L602.8,521.6 M613.7,516.6 L613.7,521.6 M624.5,516.6 L624.5,521.6 M635.4,516.6 L635.4,521.6 M657,516.6 L657,521.6 M667.9,516.6 L667.9,521.6 M678.7,516.6 L678.7,521.6 M689.6,516.6 L689.6,521.6 M711.2,516.6 L711.2,521.6 M722.1,516.6 L722.1,521.6 M732.9,516.6 L732.9,521.6 M743.8,516.6 L743.8,521.6 M765.4,516.6 L765.4,521.6 M776.3,516.6 L776.3,521.6 M787.1,516.6 L787.1,521.6 M93.41,516.6 L93.41,521.6 M82.57,516.6 L82.57,521.6 M71.73,516.6 L71.73,521.6 M60.89,516.6 L60.89,521.6 "/></g>
<g id="yMajorTicks" stroke="rgb(0,0,0)" stroke-width="2"><path d="M94.25,460.3 L104.3,460.3 M94.25,404 L104.3,404 M94.25,347.7 L104.3,347.7 M94.25,291.4 L104.3,291.4 M94.25,235.1 L104.3,235.1 M94.25,178.8 L104.3,178.8 M94.25,122.5 L104.3,122.5 M94.25,66.25 L104.3,66.25 "/></g>
<g id="xMajorTicks" stroke="rgb(0,0,0)" stroke-width="2"><path d="M158.4,516.6 L158.4,526.6 M212.6,516.6 L212.6,526.6 M266.8,516.6 L266.8,526.6 M321,516.6 L321,526.6 M375.2,516.6 L375.2,526.6 M429.4,516.6 L429.4,526.6 M483.6,516.6 L483.6,526.6 M537.8,516.6 L537.8,526.6 M592,516.6 L592,526.6 M646.2,516.6 L646.2,526.6 M700.4,516.6 L700.4,526.6 M754.6,516.6 L754.6,526.6 M50.05,516.6 L50.05,526.6 "/></g>
<g id="plotLabels" fill="rgb(0,0,0)"><text x="158.4" y="544.6" text-anchor="middle" font-family="Verdana" font-size="12">1</text><text x="212.6" y="544.6" text-anchor="middle" font-family="Verdana" font-size="12">2</text><text x="266.8" y="544.6" text-anchor="middle" font-family="Verdana" font-size="12">3</text><text x="321" y="544.6" text-anchor="middle" font-family="Verdana" font-size="12">4</text><text x="375.2" y="544.6" text-anchor="middle" font-family="Verdana" font-size="12">5</text><text x="429.4" y="544.6" text-anchor="middle" font-family="Verdana" font-size="12">6</text><text x="483.6" y="544.6" text-anchor="middle" font-family="Verdana" font-size="12">7</text><text x="537.8" y="544.6" text-anchor="middle" font-family="Verdana" font-size="12">8</text><text x="592" y="544.6" text-anchor="middle" font-family="Verdana" font-size="12">9</text><text x="646.2" y="544.6" text-anchor="middle" font-family="Verdana" font-size="12">10</text><text x="700.4" y="544.6" text-anchor="middle" font-family="Verdana" font-size="12">11</text><text x="754.6" y="544.6" text-anchor="middle" font-family="Verdana" font-size="12">12</text><text x="50.05" y="544.6" text-anchor="middle" font-family="Verdana" font-size="12">-1</text><text x="82.25" y="466.3" text-anchor="middle" font-family="Verdana" font-size="12">0.1</text><text x="82.25" y="410" text-anchor="middle" font-family="Verdana" font-size="12">0.2</text><text x="82.25" y="353.7" text-anchor="middle" font-family="Verdana" font-size="12">0.3</text><text x="82.25" y="297.4" text-anchor="middle" font-family="Verdana" font-size="12">0.4</text><text x="82.25" y="241.1" text-anchor="middle" font-family="Verdana" font-size="12">0.5</text><text x="82.25" y="184.8" text-anchor="middle" font-family="Verdana" font-size="12">0.6</text><text x="82.25" y="128.5" text-anchor="middle" font-family="Verdana" font-size="12">0.7</text><text x="82.25" y="72.25" text-anchor="middle" font-family="Verdana" font-size="12">0.8</text></g>
<g id="yLabel" fill="rgb(0,0,0)"><text x="21" y="309.5" text-anchor="middle" transform = "rotate(-90 21 309.5 )" font-family="Verdana" font-size="14">Probability</text></g>
<g id="xLabel" fill="rgb(0,0,0)"><text x="415.5" y="586" text-anchor="middle" font-family="Verdana" font-size="14">Random Variable</text></g>
<g id="plotLines" stroke-width="2"><g clip-path="url(#plot_window)" stroke="rgb(0,0,139)"><path d="M104.3,516.6 S114.2,231.1 116.7,189.9 S126.7,110.3 129.2,103.9 S139.1,117.2 141.6,125.5 S151.6,174.2 154.1,187.3 S164,243.3 166.5,256.6 S176.5,308 178.9,319.5 S188.9,362.1 191.4,371.4 S201.4,404.7 203.8,411.7 S213.8,436.8 216.3,442.1 S226.3,460.5 228.8,464.3 S238.7,477.5 241.2,480.3 S251.2,489.6 253.7,491.6 S263.6,498.1 266.1,499.5 S276.1,504 278.6,504.9 S288.5,508.1 291,508.7 S301,510.8 303.5,511.3 S313.4,512.7 315.9,513 S325.9,514 328.4,514.2 S338.3,514.9 340.8,515 S350.8,515.4 353.3,515.5 S363.2,515.8 365.7,515.9 S375.7,516.1 378.2,516.1 S388.1,516.3 390.6,516.3 S400.6,516.4 403,516.4 S413,516.4 415.5,516.5 S425.5,516.5 427.9,516.5 S437.9,516.5 440.4,516.5 S450.4,516.5 452.8,516.5 S462.8,516.6 465.3,516.6 S475.3,516.6 477.7,516.6 S487.7,516.6 490.2,516.6 S500.2,516.6 502.6,516.6 S512.6,516.6 515.1,516.6 S525.1,516.6 527.5,516.6 S537.5,516.6 540,516.6 S550,516.6 552.4,516.6 S562.4,516.6 564.9,516.6 S574.9,516.6 577.3,516.6 S587.3,516.6 589.8,516.6 S599.8,516.6 602.3,516.6 S612.2,516.6 614.7,516.6 S624.7,516.6 627.2,516.6 S637.1,516.6 639.6,516.6 S649.6,516.6 652.1,516.6 S662,516.6 664.5,516.6 S674.5,516.6 677,516.6 S686.9,516.6 689.4,516.6 S699.4,516.6 701.9,516.6 S714.3,516.6 714.3,516.6 " fill="none"/></g>
<g clip-path="url(#plot_window)" stroke="rgb(139,0,0)"><path d="M104.3,516.6 S114.2,430.1 116.7,413.8 S126.7,362.4 129.2,353.2 S139.1,326.1 141.6,321.8 S151.6,311.2 154.1,310.2 S164,310.5 166.5,311.6 S176.5,318.7 178.9,321.1 S188.9,332.2 191.4,335.3 S201.4,348.5 203.8,351.9 S213.8,365.9 216.3,369.4 S226.3,383.2 228.8,386.6 S238.7,399.8 241.2,402.9 S251.2,415.2 253.7,418 S263.6,429.1 266.1,431.7 S276.1,441.7 278.6,444 S288.5,452.7 291,454.8 S301,462.4 303.5,464.2 S313.4,470.8 315.9,472.3 S325.9,478 328.4,479.3 S338.3,484.2 340.8,485.3 S350.8,489.5 353.3,490.4 S363.2,494 365.7,494.8 S375.7,497.7 378.2,498.4 S388.1,500.9 390.6,501.5 S400.6,503.6 403,504.1 S413,505.8 415.5,506.2 S425.5,507.7 427.9,508 S437.9,509.2 440.4,509.5 S450.4,510.5 452.8,510.8 S462.8,511.6 465.3,511.8 S475.3,512.5 477.7,512.6 S487.7,513.2 490.2,513.3 S500.2,513.8 502.6,513.9 S512.6,514.3 515.1,514.4 S525.1,514.7 527.5,514.8 S537.5,515.1 540,515.1 S550,515.3 552.4,515.4 S562.4,515.6 564.9,515.6 S574.9,515.8 577.3,515.8 S587.3,515.9 589.8,515.9 S599.8,516 602.3,516.1 S612.2,516.1 614.7,516.2 S624.7,516.2 627.2,516.2 S637.1,516.3 639.6,516.3 S649.6,516.3 652.1,516.4 S662,516.4 664.5,516.4 S674.5,516.4 677,516.4 S686.9,516.5 689.4,516.5 S699.4,516.5 701.9,516.5 S714.3,516.5 714.3,516.5 " fill="none"/></g>
<g clip-path="url(#plot_window)" stroke="rgb(0,100,0)"><path d="M104.3,516.6 S114.2,492.9 116.7,487.8 S126.7,469.2 129.2,465.2 S139.1,450.9 141.6,447.9 S151.6,437.1 154.1,434.9 S164,427.1 166.5,425.6 S176.5,420.2 178.9,419.2 S188.9,415.9 191.4,415.3 S201.4,413.6 203.8,413.4 S213.8,413 216.3,413.1 S226.3,413.8 228.8,414.1 S238.7,415.6 241.2,416.1 S251.2,418.2 253.7,418.8 S263.6,421.5 266.1,422.2 S276.1,425.2 278.6,425.9 S288.5,429.2 291,430 S301,433.4 303.5,434.3 S313.4,437.7 315.9,438.6 S325.9,442.1 328.4,443 S338.3,446.5 340.8,447.3 S350.8,450.7 353.3,451.6 S363.2,454.9 365.7,455.7 S375.7,459 378.2,459.8 S388.1,462.9 390.6,463.6 S400.6,466.6 403,467.3 S413,470.1 415.5,470.8 S425.5,473.5 427.9,474.2 S437.9,476.7 440.4,477.3 S450.4,479.7 452.8,480.3 S462.8,482.5 465.3,483.1 S475.3,485.2 477.7,485.7 S487.7,487.6 490.2,488.1 S500.2,489.9 502.6,490.4 S512.6,492.1 515.1,492.5 S525.1,494.1 527.5,494.5 S537.5,495.9 540,496.3 S550,497.6 552.4,498 S562.4,499.2 564.9,499.5 S574.9,500.7 577.3,501 S587.3,502 589.8,502.3 S599.8,503.3 602.3,503.5 S612.2,504.4 614.7,504.6 S624.7,505.5 627.2,505.7 S637.1,506.4 639.6,506.6 S649.6,507.3 652.1,507.5 S662,508.1 664.5,508.3 S674.5,508.9 677,509 S686.9,509.6 689.4,509.7 S699.4,510.2 701.9,510.3 S714.3,510.9 714.3,510.9 " fill="none"/></g>
</g>
<g id="plotPoints" clip-path="url(#plot_window)"><g stroke="rgb(0,0,0)" fill="rgb(255,255,255)"></g>
<g stroke="rgb(0,0,0)" fill="rgb(255,255,255)"></g>
<g stroke="rgb(0,0,0)" fill="rgb(255,255,255)"></g>
</g>
<g id="limitPoints" stroke="rgb(119,136,153)" fill="rgb(250,235,215)"></g>
<g id="legendBackground" stroke="rgb(0,0,0)" fill="rgb(255,255,255)"><rect x="500" y="150" width="145.5" height="105"/><rect x="500" y="150" width="145.5" height="105"/></g>
<g id="legendPoints"><g stroke="rgb(0,0,139)" stroke-width="2"><line x1="507.5" y1="172.5" x2="530" y2="172.5"/></g>
<g stroke="rgb(139,0,0)" stroke-width="2"><line x1="507.5" y1="202.5" x2="530" y2="202.5"/></g>
<g stroke="rgb(0,100,0)" stroke-width="2"><line x1="507.5" y1="232.5" x2="530" y2="232.5"/></g>
</g>
<g id="legendText" fill="rgb(0,0,0)"><text x="537.5" y="172.5" text-anchor="start" font-family="Verdana" font-size="15">scale = 0.5</text><text x="537.5" y="202.5" text-anchor="start" font-family="Verdana" font-size="15">scale = 1</text><text x="537.5" y="232.5" text-anchor="start" font-family="Verdana" font-size="15">scale = 2</text></g>
<g id="title" fill="rgb(0,0,0)"><text x="400" y="40.67" text-anchor="middle" font-family="Verdana" font-size="20">Gamma Distribution PDF With Shape = 2, scale 0.5 to 2</text></g>
</svg>
