<?xml version="1.0" encoding="UTF-8" standalone="no"?>
<svg width="750" height ="400" version="1.1"
xmlns:svg ="http://www.w3.org/2000/svg"
xmlns:rdf="http://www.w3.org/1999/02/22-rdf-syntax-ns#"
xmlns:cc="http://web.resource.org/cc/"
xmlns:dc="http://purl.org/dc/elements/1.1/"
xmlns ="http://www.w3.org/2000/svg"
>
<!-- SVG plot written using Boost.Plot program (Creator Jacob Voytko) --> 
<!-- Use, modification and distribution of Boost.Plot subject to the --> 
<!-- Boost Software License, Version 1.0.--> 
<!-- (See accompanying file LICENSE_1_0.txt --> 
<!-- or copy at http://www.boost.org/LICENSE_1_0.txt) --> 

<clipPath id="plot_window"><rect x="79.6" y="63" width="438.3" height="274.2"/></clipPath>
<g id="imageBackground" stroke="rgb(119,136,153)" fill="rgb(255,255,255)" stroke-width="2"><rect x="0" y="0" width="750" height="400"/></g>
<g id="plotBackground" stroke="rgb(119,136,153)" fill="rgb(255,255,255)" stroke-width="2"><rect x="78.6" y="62" width="440.3" height="276.2"/></g>
<g id="yMinorGrid" stroke="rgb(200,220,255)" stroke-width="0.5"></g>
<g id="yMajorGrid" stroke="rgb(200,220,255)" stroke-width="1"></g>
<g id="xMinorGrid" stroke="rgb(200,220,255)" stroke-width="0.5"></g>
<g id="xMajorGrid" stroke="rgb(200,220,255)" stroke-width="1"></g>
<g id="yAxis" stroke="rgb(0,0,0)" stroke-width="1"><line x1="82.92" y1="62" x2="82.92" y2="343.2"/><line x1="78.6" y1="62" x2="78.6" y2="338.2"/></g>
<g id="xAxis" stroke="rgb(0,0,0)" stroke-width="1"><line x1="73.6" y1="338.2" x2="518.9" y2="338.2"/><line x1="73.6" y1="338.2" x2="518.9" y2="338.2"/></g>
<g id="yMinorTicks" stroke="rgb(0,0,0)" stroke-width="1"><path d="M76.6,325.3 L78.6,325.3 M76.6,312.4 L78.6,312.4 M76.6,299.5 L78.6,299.5 M76.6,286.7 L78.6,286.7 M76.6,260.9 L78.6,260.9 M76.6,248 L78.6,248 M76.6,235.1 L78.6,235.1 M76.6,222.2 L78.6,222.2 M76.6,196.5 L78.6,196.5 M76.6,183.6 L78.6,183.6 M76.6,170.7 L78.6,170.7 M76.6,157.8 L78.6,157.8 M76.6,132.1 L78.6,132.1 M76.6,119.2 L78.6,119.2 M76.6,106.3 L78.6,106.3 M76.6,93.41 L78.6,93.41 M76.6,67.64 L78.6,67.64 M76.6,338.2 L78.6,338.2 " fill="none"/></g>
<g id="xMinorTicks" stroke="rgb(0,0,0)" stroke-width="1"></g>
<g id="yMajorTicks" stroke="rgb(0,0,0)" stroke-width="2"><path d="M73.6,338.2 L78.6,338.2 M73.6,273.8 L78.6,273.8 M73.6,209.4 L78.6,209.4 M73.6,144.9 L78.6,144.9 M73.6,80.53 L78.6,80.53 M73.6,338.2 L78.6,338.2 " fill="none"/></g>
<g id="xMajorTicks" stroke="rgb(0,0,0)" stroke-width="2"><path d="M82.92,338.2 L82.92,343.2 M169.2,338.2 L169.2,343.2 M255.6,338.2 L255.6,343.2 M341.9,338.2 L341.9,343.2 M428.2,338.2 L428.2,343.2 M514.6,338.2 L514.6,343.2 M82.92,338.2 L82.92,343.2 " fill="none"/></g>
<g id="plotLabels">
<text x="82.92" y="357.6" text-anchor="middle" font-size="12" font-family="Verdana">0</text>
<text x="169.2" y="357.6" text-anchor="middle" font-size="12" font-family="Verdana">10</text>
<text x="255.6" y="357.6" text-anchor="middle" font-size="12" font-family="Verdana">20</text>
<text x="341.9" y="357.6" text-anchor="middle" font-size="12" font-family="Verdana">30</text>
<text x="428.2" y="357.6" text-anchor="middle" font-size="12" font-family="Verdana">40</text>
<text x="514.6" y="357.6" text-anchor="middle" font-size="12" font-family="Verdana">50</text>
<text x="82.92" y="357.6" text-anchor="middle" font-size="12" font-family="Verdana">0</text>
<text x="67.6" y="340.6" text-anchor="end" font-size="12" font-family="Verdana">0</text>
<text x="67.6" y="276.2" text-anchor="end" font-size="12" font-family="Verdana">0.05</text>
<text x="67.6" y="211.8" text-anchor="end" font-size="12" font-family="Verdana">0.1</text>
<text x="67.6" y="147.3" text-anchor="end" font-size="12" font-family="Verdana">0.15</text>
<text x="67.6" y="82.93" text-anchor="end" font-size="12" font-family="Verdana">0.2</text>
<text x="67.6" y="340.6" text-anchor="end" font-size="12" font-family="Verdana">0</text></g>
<g id="yLabel">
<text x="30.2" y="200.1" text-anchor="middle" transform = "rotate(-90 30.2 200.1 )" font-size="14" font-family="Verdana">Probability</text></g>
<g id="xLabel">
<text x="298.7" y="384" text-anchor="middle" font-size="14" font-family="Verdana">Random Variable</text></g>
<g id="plotLines" stroke-width="2"><g clip-path="url(#plot_window)" stroke="rgb(0,0,139)" fill="rgb(0,0,139)" stroke-width="1"><path d="M79.68,338.2 L79.68,338.2 L79.68,333.2 L80.97,333.2 L80.97,338.2 L88.31,338.2 L88.31,307.3 L89.61,307.3 L89.61,338.2 L96.94,338.2 L96.95,246 L98.24,246 L98.24,338.2 L105.6,338.2 L105.6,162.4 L106.9,162.4 L106.9,338.2 L114.2,338.2 L114.2,97.91 L115.5,97.91 L115.5,338.2 L122.8,338.2 L122.8,87.11 L124.1,87.11 L124.1,338.2 L131.5,338.2 L131.5,129.5 L132.8,129.5 L132.8,338.2 L140.1,338.2 L140.1,196.4 L141.4,196.4 L141.4,338.2 L148.7,338.2 L148.7,257.9 L150,257.9 L150,338.2 L157.4,338.2 L157.4,299.7 L158.7,299.7 L158.7,338.2 L166,338.2 L166,322.4 L167.3,322.4 L167.3,338.2 L174.6,338.2 L174.6,332.6 L175.9,332.6 L175.9,338.2 L183.3,338.2 L183.3,336.5 L184.6,336.5 L184.6,338.2 L191.9,338.2 L191.9,337.7 L193.2,337.7 L193.2,338.2 L200.5,338.2 L200.5,338.1 L201.8,338.1 L201.8,338.2 L209.2,338.2 L209.2,338.2 L210.5,338.2 L210.5,338.2 L217.8,338.2 L217.8,338.2 L219.1,338.2 L219.1,338.2 L226.4,338.2 L226.4,338.2 L227.7,338.2 L227.7,338.2 L235.1,338.2 L235.1,338.2 L236.4,338.2 L236.4,338.2 L243.7,338.2 L243.7,338.2 L245,338.2 L245,338.2 L252.3,338.2 L252.3,338.2 L253.6,338.2 L253.6,338.2 L261,338.2 L261,338.2 L262.3,338.2 L262.3,338.2 L269.6,338.2 L269.6,338.2 L270.9,338.2 L270.9,338.2 L278.2,338.2 L278.2,338.2 L279.5,338.2 L279.5,338.2 L286.9,338.2 L286.9,338.2 L288.2,338.2 L288.2,338.2 L295.5,338.2 L295.5,338.2 L296.8,338.2 L296.8,338.2 L304.1,338.2 L304.1,338.2 L305.4,338.2 L305.4,338.2 L312.8,338.2 L312.8,338.2 L314.1,338.2 L314.1,338.2 L321.4,338.2 L321.4,338.2 L322.7,338.2 L322.7,338.2 L330,338.2 L330,338.2 L331.3,338.2 L331.3,338.2 L338.7,338.2 L338.7,338.2 L340,338.2 L340,338.2 L347.3,338.2 L347.3,338.2 L348.6,338.2 L348.6,338.2 L355.9,338.2 L355.9,338.2 L357.2,338.2 L357.2,338.2 L364.6,338.2 L364.6,338.2 L365.9,338.2 L365.9,338.2 L373.2,338.2 L373.2,338.2 L374.5,338.2 L374.5,338.2 L381.8,338.2 L381.8,338.2 L383.1,338.2 L383.1,338.2 L390.5,338.2 L390.5,338.2 L391.8,338.2 L391.8,338.2 L399.1,338.2 L399.1,338.2 L400.4,338.2 L400.4,338.2 L407.7,338.2 L407.7,338.2 L409,338.2 L409,338.2 L416.4,338.2 L416.4,338.2 L417.7,338.2 L417.7,338.2 L425,338.2 L425,338.2 L426.3,338.2 L426.3,338.2 L433.6,338.2 L433.6,338.2 L434.9,338.2 L434.9,338.2 L442.3,338.2 L442.3,338.2 L443.6,338.2 L443.6,338.2 L450.9,338.2 L450.9,338.2 L452.2,338.2 L452.2,338.2 L459.5,338.2 L459.5,338.2 L460.8,338.2 L460.8,338.2 L468.2,338.2 L468.2,338.2 L469.5,338.2 L469.5,338.2 L476.8,338.2 L476.8,338.2 L478.1,338.2 L478.1,338.2 L485.4,338.2 L485.4,338.2 L486.7,338.2 L486.7,338.2 L494.1,338.2 L494.1,338.2 L495.4,338.2 L495.4,338.2 L502.7,338.2 L502.7,338.2 L504,338.2 L504,338.2 L511.3,338.2 L511.3,338.2 L512.6,338.2 L512.6,338.2 L512.6,338.2 Z" fill="rgb(0,0,139)"/></g>
<g clip-path="url(#plot_window)" stroke="rgb(139,0,0)" fill="rgb(139,0,0)" stroke-width="1"><path d="M80.97,338.2 L80.97,338.2 L80.97,338.2 L82.27,338.2 L82.27,338.2 L89.61,338.2 L89.61,338.1 L90.9,338.1 L90.9,338.2 L98.24,338.2 L98.24,337.3 L99.53,337.3 L99.53,338.2 L106.9,338.2 L106.9,334.1 L108.2,334.1 L108.2,338.2 L115.5,338.2 L115.5,324.9 L116.8,324.9 L116.8,338.2 L124.1,338.2 L124.1,305.1 L125.4,305.1 L125.4,338.2 L132.8,338.2 L132.8,271.9 L134.1,271.9 L134.1,338.2 L141.4,338.2 L141.4,228.5 L142.7,228.5 L142.7,338.2 L150,338.2 L150,185 L151.3,185 L151.3,338.2 L158.7,338.2 L158.7,155 L160,155 L160,338.2 L167.3,338.2 L167.3,148.3 L168.6,148.3 L168.6,338.2 L175.9,338.2 L175.9,166.1 L177.2,166.1 L177.2,338.2 L184.6,338.2 L184.6,200.7 L185.9,200.7 L185.9,338.2 L193.2,338.2 L193.2,240.7 L194.5,240.7 L194.5,338.2 L201.8,338.2 L201.8,276.6 L203.1,276.6 L203.1,338.2 L210.5,338.2 L210.5,303.4 L211.8,303.4 L211.8,338.2 L219.1,338.2 L219.1,320.5 L220.4,320.5 L220.4,338.2 L227.7,338.2 L227.7,330.1 L229,330.1 L229,338.2 L236.4,338.2 L236.4,334.9 L237.7,334.9 L237.7,338.2 L245,338.2 L245,336.9 L246.3,336.9 L246.3,338.2 L253.6,338.2 L253.6,337.8 L254.9,337.8 L254.9,338.2 L262.3,338.2 L262.3,338.1 L263.6,338.1 L263.6,338.2 L270.9,338.2 L270.9,338.2 L272.2,338.2 L272.2,338.2 L279.5,338.2 L279.5,338.2 L280.8,338.2 L280.8,338.2 L288.2,338.2 L288.2,338.2 L289.5,338.2 L289.5,338.2 L296.8,338.2 L296.8,338.2 L298.1,338.2 L298.1,338.2 L305.4,338.2 L305.4,338.2 L306.7,338.2 L306.7,338.2 L314.1,338.2 L314.1,338.2 L315.4,338.2 L315.4,338.2 L322.7,338.2 L322.7,338.2 L324,338.2 L324,338.2 L331.3,338.2 L331.3,338.2 L332.6,338.2 L332.6,338.2 L340,338.2 L340,338.2 L341.3,338.2 L341.3,338.2 L348.6,338.2 L348.6,338.2 L349.9,338.2 L349.9,338.2 L357.2,338.2 L357.2,338.2 L358.5,338.2 L358.5,338.2 L365.9,338.2 L365.9,338.2 L367.2,338.2 L367.2,338.2 L374.5,338.2 L374.5,338.2 L375.8,338.2 L375.8,338.2 L383.1,338.2 L383.1,338.2 L384.4,338.2 L384.4,338.2 L391.8,338.2 L391.8,338.2 L393.1,338.2 L393.1,338.2 L400.4,338.2 L400.4,338.2 L401.7,338.2 L401.7,338.2 L409,338.2 L409,338.2 L410.3,338.2 L410.3,338.2 L417.7,338.2 L417.7,338.2 L419,338.2 L419,338.2 L426.3,338.2 L426.3,338.2 L427.6,338.2 L427.6,338.2 L434.9,338.2 L434.9,338.2 L436.2,338.2 L436.2,338.2 L443.6,338.2 L443.6,338.2 L444.9,338.2 L444.9,338.2 L452.2,338.2 L452.2,338.2 L453.5,338.2 L453.5,338.2 L460.8,338.2 L460.8,338.2 L462.1,338.2 L462.1,338.2 L469.5,338.2 L469.5,338.2 L470.8,338.2 L470.8,338.2 L478.1,338.2 L478.1,338.2 L479.4,338.2 L479.4,338.2 L486.7,338.2 L486.7,338.2 L488,338.2 L488,338.2 L495.4,338.2 L495.4,338.2 L496.7,338.2 L496.7,338.2 L504,338.2 L504,338.2 L505.3,338.2 L505.3,338.2 L512.6,338.2 L512.6,338.2 L513.9,338.2 L513.9,338.2 L513.9,338.2 Z" fill="rgb(139,0,0)"/></g>
<g clip-path="url(#plot_window)" stroke="rgb(0,100,0)" fill="rgb(0,100,0)" stroke-width="1"><path d="M82.27,338.2 L82.27,338.2 L82.27,338.2 L83.56,338.2 L83.56,338.2 L90.9,338.2 L90.9,338.2 L92.2,338.2 L92.2,338.2 L99.53,338.2 L99.53,338.2 L100.8,338.2 L100.8,338.2 L108.2,338.2 L108.2,338.2 L109.5,338.2 L109.5,338.2 L116.8,338.2 L116.8,338.2 L118.1,338.2 L118.1,338.2 L125.4,338.2 L125.4,338.2 L126.7,338.2 L126.7,338.2 L134.1,338.2 L134.1,338.2 L135.4,338.2 L135.4,338.2 L142.7,338.2 L142.7,338.2 L144,338.2 L144,338.2 L151.3,338.2 L151.3,338.2 L152.6,338.2 L152.6,338.2 L160,338.2 L160,338.2 L161.3,338.2 L161.3,338.2 L168.6,338.2 L168.6,338.2 L169.9,338.2 L169.9,338.2 L177.2,338.2 L177.2,338.2 L178.5,338.2 L178.5,338.2 L185.9,338.2 L185.9,338.1 L187.2,338.1 L187.2,338.2 L194.5,338.2 L194.5,338 L195.8,338 L195.8,338.2 L203.1,338.2 L203.1,337.5 L204.4,337.5 L204.4,338.2 L211.8,338.2 L211.8,336.5 L213.1,336.5 L213.1,338.2 L220.4,338.2 L220.4,334.1 L221.7,334.1 L221.7,338.2 L229,338.2 L229,329.3 L230.3,329.3 L230.3,338.2 L237.7,338.2 L237.7,320.7 L239,320.7 L239,338.2 L246.3,338.2 L246.3,306.9 L247.6,306.9 L247.6,338.2 L254.9,338.2 L254.9,287.3 L256.2,287.3 L256.2,338.2 L263.6,338.2 L263.6,262.6 L264.9,262.6 L264.9,338.2 L272.2,338.2 L272.2,235.3 L273.5,235.3 L273.5,338.2 L280.8,338.2 L280.8,210.2 L282.1,210.2 L282.1,338.2 L289.5,338.2 L289.5,192.2 L290.8,192.2 L290.8,338.2 L298.1,338.2 L298.1,185.7 L299.4,185.7 L299.4,338.2 L306.7,338.2 L306.7,192.2 L308,192.2 L308,338.2 L315.4,338.2 L315.4,210.2 L316.7,210.2 L316.7,338.2 L324,338.2 L324,235.3 L325.3,235.3 L325.3,338.2 L332.6,338.2 L332.6,262.6 L333.9,262.6 L333.9,338.2 L341.3,338.2 L341.3,287.3 L342.6,287.3 L342.6,338.2 L349.9,338.2 L349.9,306.9 L351.2,306.9 L351.2,338.2 L358.5,338.2 L358.5,320.7 L359.8,320.7 L359.8,338.2 L367.2,338.2 L367.2,329.3 L368.5,329.3 L368.5,338.2 L375.8,338.2 L375.8,334.1 L377.1,334.1 L377.1,338.2 L384.4,338.2 L384.4,336.5 L385.7,336.5 L385.7,338.2 L393.1,338.2 L393.1,337.5 L394.3,337.5 L394.3,338.2 L401.7,338.2 L401.7,338 L403,338 L403,338.2 L410.3,338.2 L410.3,338.1 L411.6,338.1 L411.6,338.2 L419,338.2 L419,338.2 L420.2,338.2 L420.2,338.2 L427.6,338.2 L427.6,338.2 L428.9,338.2 L428.9,338.2 L436.2,338.2 L436.2,338.2 L437.5,338.2 L437.5,338.2 L444.9,338.2 L444.9,338.2 L446.1,338.2 L446.1,338.2 L453.5,338.2 L453.5,338.2 L454.8,338.2 L454.8,338.2 L462.1,338.2 L462.1,338.2 L463.4,338.2 L463.4,338.2 L470.8,338.2 L470.8,338.2 L472,338.2 L472,338.2 L479.4,338.2 L479.4,338.2 L480.7,338.2 L480.7,338.2 L488,338.2 L488,338.2 L489.3,338.2 L489.3,338.2 L496.7,338.2 L496.7,338.2 L497.9,338.2 L497.9,338.2 L505.3,338.2 L505.3,338.2 L506.6,338.2 L506.6,338.2 L513.9,338.2 L513.9,338.2 L515.2,338.2 L515.2,338.2 L515.2,338.2 Z" fill="rgb(0,100,0)"/></g>
<g clip-path="url(#plot_window)" stroke="rgb(255,140,0)" fill="rgb(255,140,0)" stroke-width="1"><path d="M83.56,338.2 L83.56,338.2 L83.56,338.2 L84.86,338.2 L84.86,338.2 L92.2,338.2 L92.2,338.2 L93.49,338.2 L93.49,338.2 L100.8,338.2 L100.8,338.2 L102.1,338.2 L102.1,338.2 L109.5,338.2 L109.5,338.2 L110.8,338.2 L110.8,338.2 L118.1,338.2 L118.1,338.2 L119.4,338.2 L119.4,338.2 L126.7,338.2 L126.7,338.2 L128,338.2 L128,338.2 L135.4,338.2 L135.4,338.2 L136.7,338.2 L136.7,338.2 L144,338.2 L144,338.2 L145.3,338.2 L145.3,338.2 L152.6,338.2 L152.6,338.2 L153.9,338.2 L153.9,338.2 L161.3,338.2 L161.3,338.2 L162.6,338.2 L162.6,338.2 L169.9,338.2 L169.9,338.2 L171.2,338.2 L171.2,338.2 L178.5,338.2 L178.5,338.2 L179.8,338.2 L179.8,338.2 L187.2,338.2 L187.2,338.2 L188.5,338.2 L188.5,338.2 L195.8,338.2 L195.8,338.2 L197.1,338.2 L197.1,338.2 L204.4,338.2 L204.4,338.2 L205.7,338.2 L205.7,338.2 L213.1,338.2 L213.1,338.2 L214.4,338.2 L214.4,338.2 L221.7,338.2 L221.7,338.2 L223,338.2 L223,338.2 L230.3,338.2 L230.3,338.2 L231.6,338.2 L231.6,338.2 L239,338.2 L239,338.2 L240.3,338.2 L240.3,338.2 L247.6,338.2 L247.6,338.2 L248.9,338.2 L248.9,338.2 L256.2,338.2 L256.2,338.2 L257.5,338.2 L257.5,338.2 L264.9,338.2 L264.9,338.2 L266.2,338.2 L266.2,338.2 L273.5,338.2 L273.5,338.2 L274.8,338.2 L274.8,338.2 L282.1,338.2 L282.1,338.2 L283.4,338.2 L283.4,338.2 L290.8,338.2 L290.8,338.2 L292,338.2 L292,338.2 L299.4,338.2 L299.4,338.2 L300.7,338.2 L300.7,338.2 L308,338.2 L308,338.2 L309.3,338.2 L309.3,338.2 L316.7,338.2 L316.7,338.2 L317.9,338.2 L317.9,338.2 L325.3,338.2 L325.3,338.2 L326.6,338.2 L326.6,338.2 L333.9,338.2 L333.9,338.1 L335.2,338.1 L335.2,338.2 L342.6,338.2 L342.6,337.8 L343.8,337.8 L343.8,338.2 L351.2,338.2 L351.2,336.9 L352.5,336.9 L352.5,338.2 L359.8,338.2 L359.8,334.9 L361.1,334.9 L361.1,338.2 L368.5,338.2 L368.5,330.1 L369.7,330.1 L369.7,338.2 L377.1,338.2 L377.1,320.5 L378.4,320.5 L378.4,338.2 L385.7,338.2 L385.7,303.4 L387,303.4 L387,338.2 L394.3,338.2 L394.3,276.6 L395.6,276.6 L395.6,338.2 L403,338.2 L403,240.7 L404.3,240.7 L404.3,338.2 L411.6,338.2 L411.6,200.7 L412.9,200.7 L412.9,338.2 L420.2,338.2 L420.2,166.1 L421.5,166.1 L421.5,338.2 L428.9,338.2 L428.9,148.3 L430.2,148.3 L430.2,338.2 L437.5,338.2 L437.5,155 L438.8,155 L438.8,338.2 L446.1,338.2 L446.1,185 L447.4,185 L447.4,338.2 L454.8,338.2 L454.8,228.5 L456.1,228.5 L456.1,338.2 L463.4,338.2 L463.4,271.9 L464.7,271.9 L464.7,338.2 L472,338.2 L472,305.1 L473.3,305.1 L473.3,338.2 L480.7,338.2 L480.7,324.9 L482,324.9 L482,338.2 L489.3,338.2 L489.3,334.1 L490.6,334.1 L490.6,338.2 L497.9,338.2 L497.9,337.3 L499.2,337.3 L499.2,338.2 L506.6,338.2 L506.6,338.1 L507.9,338.1 L507.9,338.2 L515.2,338.2 L515.2,338.2 L516.5,338.2 L516.5,338.2 L516.5,338.2 Z" fill="rgb(255,140,0)"/></g>
<g clip-path="url(#plot_window)" stroke="rgb(127,255,0)" fill="rgb(127,255,0)" stroke-width="1"><path d="M84.86,338.2 L84.86,338.2 L84.86,338.2 L86.15,338.2 L86.15,338.2 L93.49,338.2 L93.49,338.2 L94.79,338.2 L94.79,338.2 L102.1,338.2 L102.1,338.2 L103.4,338.2 L103.4,338.2 L110.8,338.2 L110.8,338.2 L112.1,338.2 L112.1,338.2 L119.4,338.2 L119.4,338.2 L120.7,338.2 L120.7,338.2 L128,338.2 L128,338.2 L129.3,338.2 L129.3,338.2 L136.7,338.2 L136.7,338.2 L138,338.2 L138,338.2 L145.3,338.2 L145.3,338.2 L146.6,338.2 L146.6,338.2 L153.9,338.2 L153.9,338.2 L155.2,338.2 L155.2,338.2 L162.6,338.2 L162.6,338.2 L163.9,338.2 L163.9,338.2 L171.2,338.2 L171.2,338.2 L172.5,338.2 L172.5,338.2 L179.8,338.2 L179.8,338.2 L181.1,338.2 L181.1,338.2 L188.5,338.2 L188.5,338.2 L189.7,338.2 L189.7,338.2 L197.1,338.2 L197.1,338.2 L198.4,338.2 L198.4,338.2 L205.7,338.2 L205.7,338.2 L207,338.2 L207,338.2 L214.4,338.2 L214.4,338.2 L215.6,338.2 L215.6,338.2 L223,338.2 L223,338.2 L224.3,338.2 L224.3,338.2 L231.6,338.2 L231.6,338.2 L232.9,338.2 L232.9,338.2 L240.3,338.2 L240.3,338.2 L241.5,338.2 L241.5,338.2 L248.9,338.2 L248.9,338.2 L250.2,338.2 L250.2,338.2 L257.5,338.2 L257.5,338.2 L258.8,338.2 L258.8,338.2 L266.2,338.2 L266.2,338.2 L267.4,338.2 L267.4,338.2 L274.8,338.2 L274.8,338.2 L276.1,338.2 L276.1,338.2 L283.4,338.2 L283.4,338.2 L284.7,338.2 L284.7,338.2 L292,338.2 L292,338.2 L293.3,338.2 L293.3,338.2 L300.7,338.2 L300.7,338.2 L302,338.2 L302,338.2 L309.3,338.2 L309.3,338.2 L310.6,338.2 L310.6,338.2 L317.9,338.2 L317.9,338.2 L319.2,338.2 L319.2,338.2 L326.6,338.2 L326.6,338.2 L327.9,338.2 L327.9,338.2 L335.2,338.2 L335.2,338.2 L336.5,338.2 L336.5,338.2 L343.8,338.2 L343.8,338.2 L345.1,338.2 L345.1,338.2 L352.5,338.2 L352.5,338.2 L353.8,338.2 L353.8,338.2 L361.1,338.2 L361.1,338.2 L362.4,338.2 L362.4,338.2 L369.7,338.2 L369.7,338.2 L371,338.2 L371,338.2 L378.4,338.2 L378.4,338.2 L379.7,338.2 L379.7,338.2 L387,338.2 L387,338.2 L388.3,338.2 L388.3,338.2 L395.6,338.2 L395.6,338.1 L396.9,338.1 L396.9,338.2 L404.3,338.2 L404.3,337.7 L405.6,337.7 L405.6,338.2 L412.9,338.2 L412.9,336.5 L414.2,336.5 L414.2,338.2 L421.5,338.2 L421.5,332.6 L422.8,332.6 L422.8,338.2 L430.2,338.2 L430.2,322.4 L431.5,322.4 L431.5,338.2 L438.8,338.2 L438.8,299.7 L440.1,299.7 L440.1,338.2 L447.4,338.2 L447.4,257.9 L448.7,257.9 L448.7,338.2 L456.1,338.2 L456.1,196.4 L457.4,196.4 L457.4,338.2 L464.7,338.2 L464.7,129.5 L466,129.5 L466,338.2 L473.3,338.2 L473.3,87.11 L474.6,87.11 L474.6,338.2 L482,338.2 L482,97.91 L483.3,97.91 L483.3,338.2 L490.6,338.2 L490.6,162.4 L491.9,162.4 L491.9,338.2 L499.2,338.2 L499.2,246 L500.5,246 L500.5,338.2 L507.9,338.2 L507.9,307.3 L509.2,307.3 L509.2,338.2 L516.5,338.2 L516.5,333.2 L517.8,333.2 L517.8,338.2 L517.8,338.2 Z" fill="rgb(127,255,0)"/></g>
</g>
<g id="plotPoints" clip-path="url(#plot_window)"></g>
<g id="legendBackground" stroke="rgb(119,136,153)" fill="rgb(255,255,255)" stroke-width="1"><rect x="532.9" y="62" width="205.1" height="165"/><rect x="532.9" y="62" width="205.1" height="165"/></g>
<g id="legendPoints"><g stroke="rgb(0,0,139)" fill="rgb(255,255,255)" stroke-width="1"><line x1="547.9" y1="92" x2="562.9" y2="92"/></g>
<g stroke="rgb(139,0,0)" fill="rgb(255,255,255)" stroke-width="1"><line x1="547.9" y1="122" x2="562.9" y2="122"/></g>
<g stroke="rgb(0,100,0)" fill="rgb(255,255,255)" stroke-width="1"><line x1="547.9" y1="152" x2="562.9" y2="152"/></g>
<g stroke="rgb(255,140,0)" fill="rgb(255,255,255)" stroke-width="1"><line x1="547.9" y1="182" x2="562.9" y2="182"/></g>
<g stroke="rgb(127,255,0)" fill="rgb(255,255,255)" stroke-width="1"><line x1="547.9" y1="212" x2="562.9" y2="212"/></g>
</g>
<g id="legendText">
<text x="570.4" y="92" font-size="15" font-family="Verdana">N=500, r=50, n=50</text>
<text x="570.4" y="122" font-size="15" font-family="Verdana">N=500, r=50, n=100</text>
<text x="570.4" y="152" font-size="15" font-family="Verdana">N=500, r=50, n=250</text>
<text x="570.4" y="182" font-size="15" font-family="Verdana">N=500, r=50, n=400</text>
<text x="570.4" y="212" font-size="15" font-family="Verdana">N=500, r=50, n=450</text></g>
<g id="title">
<text x="375" y="40" text-anchor="middle" font-size="20" font-family="Verdana">Hypergeometric Distribution PDF</text></g>
<g id="plotXValues"></g>
<g id="plotYValues"></g>
</svg>
