<?xml version="1.0" encoding="UTF-8" standalone="no"?>
<svg width="750" height ="400" version="1.1"
xmlns:svg ="http://www.w3.org/2000/svg"
xmlns:rdf="http://www.w3.org/1999/02/22-rdf-syntax-ns#"
xmlns:cc="http://web.resource.org/cc/"
xmlns:dc="http://purl.org/dc/elements/1.1/"
xmlns ="http://www.w3.org/2000/svg"
>
<!-- SVG plot written using Boost.Plot program (Creator Jacob Voytko) --> 
<!-- Use, modification and distribution of Boost.Plot subject to the --> 
<!-- Boost Software License, Version 1.0.--> 
<!-- (See accompanying file LICENSE_1_0.txt --> 
<!-- or copy at http://www.boost.org/LICENSE_1_0.txt) --> 

<clipPath id="plot_window"><rect x="71.2" y="63" width="478" height="274.2"/></clipPath>
<g id="imageBackground" stroke="rgb(119,136,153)" fill="rgb(255,255,255)" stroke-width="2"><rect x="0" y="0" width="750" height="400"/></g>
<g id="plotBackground" stroke="rgb(119,136,153)" fill="rgb(255,255,255)" stroke-width="2"><rect x="70.2" y="62" width="480" height="276.2"/></g>
<g id="yMinorGrid" stroke="rgb(200,220,255)" stroke-width="0.5"></g>
<g id="yMajorGrid" stroke="rgb(200,220,255)" stroke-width="1"></g>
<g id="xMinorGrid" stroke="rgb(200,220,255)" stroke-width="0.5"></g>
<g id="xMajorGrid" stroke="rgb(200,220,255)" stroke-width="1"></g>
<g id="yAxis" stroke="rgb(0,0,0)" stroke-width="1"><line x1="310.4" y1="62" x2="310.4" y2="343.2"/><line x1="70.2" y1="62" x2="70.2" y2="338.2"/></g>
<g id="xAxis" stroke="rgb(0,0,0)" stroke-width="1"><line x1="65.2" y1="338.2" x2="550.2" y2="338.2"/><line x1="65.2" y1="338.2" x2="550.2" y2="338.2"/></g>
<g id="yMinorTicks" stroke="rgb(0,0,0)" stroke-width="1"><path d="M68.2,333.2 L70.2,333.2 M68.2,328.2 L70.2,328.2 M68.2,323.1 L70.2,323.1 M68.2,318.1 L70.2,318.1 M68.2,308.1 L70.2,308.1 M68.2,303 L70.2,303 M68.2,298 L70.2,298 M68.2,293 L70.2,293 M68.2,283 L70.2,283 M68.2,277.9 L70.2,277.9 M68.2,272.9 L70.2,272.9 M68.2,267.9 L70.2,267.9 M68.2,257.9 L70.2,257.9 M68.2,252.8 L70.2,252.8 M68.2,247.8 L70.2,247.8 M68.2,242.8 L70.2,242.8 M68.2,232.7 L70.2,232.7 M68.2,227.7 L70.2,227.7 M68.2,222.7 L70.2,222.7 M68.2,217.7 L70.2,217.7 M68.2,207.6 L70.2,207.6 M68.2,202.6 L70.2,202.6 M68.2,197.6 L70.2,197.6 M68.2,192.6 L70.2,192.6 M68.2,182.5 L70.2,182.5 M68.2,177.5 L70.2,177.5 M68.2,172.5 L70.2,172.5 M68.2,167.5 L70.2,167.5 M68.2,157.4 L70.2,157.4 M68.2,152.4 L70.2,152.4 M68.2,147.4 L70.2,147.4 M68.2,142.3 L70.2,142.3 M68.2,132.3 L70.2,132.3 M68.2,127.3 L70.2,127.3 M68.2,122.3 L70.2,122.3 M68.2,117.2 L70.2,117.2 M68.2,107.2 L70.2,107.2 M68.2,102.2 L70.2,102.2 M68.2,97.15 L70.2,97.15 M68.2,92.13 L70.2,92.13 M68.2,82.09 L70.2,82.09 M68.2,77.07 L70.2,77.07 M68.2,72.04 L70.2,72.04 M68.2,67.02 L70.2,67.02 M68.2,338.2 L70.2,338.2 " fill="none"/></g>
<g id="xMinorTicks" stroke="rgb(0,0,0)" stroke-width="1"><path d="M350.5,338.2 L350.5,340.2 M390.5,338.2 L390.5,340.2 M430.6,338.2 L430.6,340.2 M470.7,338.2 L470.7,340.2 M270.3,338.2 L270.3,340.2 M230.2,338.2 L230.2,340.2 M190.1,338.2 L190.1,340.2 M150,338.2 L150,340.2 " fill="none"/></g>
<g id="yMajorTicks" stroke="rgb(0,0,0)" stroke-width="2"><path d="M65.2,338.2 L70.2,338.2 M65.2,313.1 L70.2,313.1 M65.2,288 L70.2,288 M65.2,262.9 L70.2,262.9 M65.2,237.8 L70.2,237.8 M65.2,212.7 L70.2,212.7 M65.2,187.5 L70.2,187.5 M65.2,162.4 L70.2,162.4 M65.2,137.3 L70.2,137.3 M65.2,112.2 L70.2,112.2 M65.2,87.11 L70.2,87.11 M65.2,62 L70.2,62 M65.2,338.2 L70.2,338.2 " fill="none"/></g>
<g id="xMajorTicks" stroke="rgb(0,0,0)" stroke-width="2"><path d="M310.4,338.2 L310.4,343.2 M510.8,338.2 L510.8,343.2 M310.4,338.2 L310.4,343.2 M109.9,338.2 L109.9,343.2 " fill="none"/></g>
<g id="plotLabels">
<text x="310.4" y="357.6" text-anchor="middle" font-size="12" font-family="Verdana">0</text>
<text x="510.8" y="357.6" text-anchor="middle" font-size="12" font-family="Verdana">5</text>
<text x="310.4" y="357.6" text-anchor="middle" font-size="12" font-family="Verdana">0</text>
<text x="109.9" y="357.6" text-anchor="middle" font-size="12" font-family="Verdana">-5</text>
<text x="59.2" y="340.6" text-anchor="end" font-size="12" font-family="Verdana">0</text>
<text x="59.2" y="315.5" text-anchor="end" font-size="12" font-family="Verdana">0.1</text>
<text x="59.2" y="290.4" text-anchor="end" font-size="12" font-family="Verdana">0.2</text>
<text x="59.2" y="265.3" text-anchor="end" font-size="12" font-family="Verdana">0.3</text>
<text x="59.2" y="240.2" text-anchor="end" font-size="12" font-family="Verdana">0.4</text>
<text x="59.2" y="215.1" text-anchor="end" font-size="12" font-family="Verdana">0.5</text>
<text x="59.2" y="189.9" text-anchor="end" font-size="12" font-family="Verdana">0.6</text>
<text x="59.2" y="164.8" text-anchor="end" font-size="12" font-family="Verdana">0.7</text>
<text x="59.2" y="139.7" text-anchor="end" font-size="12" font-family="Verdana">0.8</text>
<text x="59.2" y="114.6" text-anchor="end" font-size="12" font-family="Verdana">0.9</text>
<text x="59.2" y="89.51" text-anchor="end" font-size="12" font-family="Verdana">1</text>
<text x="59.2" y="64.4" text-anchor="end" font-size="12" font-family="Verdana">1.1</text>
<text x="59.2" y="340.6" text-anchor="end" font-size="12" font-family="Verdana">0</text></g>
<g id="yLabel">
<text x="30.2" y="200.1" text-anchor="middle" transform = "rotate(-90 30.2 200.1 )" font-size="14" font-family="Verdana">Probability</text></g>
<g id="xLabel">
<text x="310.2" y="384" text-anchor="middle" font-size="14" font-family="Verdana">Random Variable</text></g>
<g id="plotLines" stroke-width="2"><g clip-path="url(#plot_window)" stroke="rgb(0,0,139)" stroke-width="1"><path d="M70.2,337.9 L72.6,337.9 L75,337.8 L77.4,337.8 L79.8,337.8 L82.2,337.8 L84.6,337.8 L87,337.7 L89.4,337.7 L91.8,337.7 L94.2,337.6 L96.6,337.6 L99,337.6 L101.4,337.5 L103.8,337.5 L106.2,337.4 L108.6,337.4 L111,337.3 L113.4,337.3 L115.8,337.2 L118.2,337.2 L120.6,337.1 L123,337 L125.4,337 L127.8,336.9 L130.2,336.8 L132.6,336.7 L135,336.6 L137.4,336.5 L139.8,336.4 L142.2,336.3 L144.6,336.2 L147,336.1 L149.4,335.9 L151.8,335.8 L154.2,335.6 L156.6,335.5 L159,335.3 L161.4,335.1 L163.8,335 L166.2,334.8 L168.6,334.5 L171,334.3 L173.4,334.1 L175.8,333.8 L178.2,333.6 L180.6,333.3 L183,333 L185.4,332.6 L187.8,332.3 L190.2,331.9 L192.6,331.5 L195,331.1 L197.4,330.7 L199.8,330.2 L202.2,329.7 L204.6,329.2 L207,328.7 L209.4,328.1 L211.8,327.5 L214.2,326.8 L216.6,326.1 L219,325.3 L221.4,324.6 L223.8,323.7 L226.2,322.8 L228.6,321.9 L231,320.9 L233.4,319.8 L235.8,318.7 L238.2,317.4 L240.6,316.2 L243,314.8 L245.4,313.4 L247.8,311.8 L250.2,310.2 L252.6,308.5 L255,306.6 L257.4,304.7 L259.8,302.6 L262.2,300.4 L264.6,298.1 L267,295.6 L269.4,293 L271.8,290.2 L274.2,287.3 L276.6,284.1 L279,280.8 L281.4,277.2 L283.8,273.5 L286.2,269.5 L288.6,265.2 L291,260.7 L293.4,255.9 L295.8,250.9 L298.2,245.5 L300.6,239.8 L303,233.7 L305.4,227.2 L307.8,220.4 L310.2,213.1 L312.6,219.5 L315,226.4 L317.4,232.9 L319.8,239 L322.2,244.8 L324.6,250.2 L327,255.3 L329.4,260.2 L331.8,264.7 L334.2,269 L336.6,273 L339,276.8 L341.4,280.3 L343.8,283.7 L346.2,286.9 L348.6,289.9 L351,292.7 L353.4,295.3 L355.8,297.8 L358.2,300.2 L360.6,302.4 L363,304.4 L365.4,306.4 L367.8,308.3 L370.2,310 L372.6,311.6 L375,313.2 L377.4,314.6 L379.8,316 L382.2,317.3 L384.6,318.5 L387,319.7 L389.4,320.7 L391.8,321.7 L394.2,322.7 L396.6,323.6 L399,324.5 L401.4,325.3 L403.8,326 L406.2,326.7 L408.6,327.4 L411,328 L413.4,328.6 L415.8,329.2 L418.2,329.7 L420.6,330.2 L423,330.6 L425.4,331.1 L427.8,331.5 L430.2,331.9 L432.6,332.3 L435,332.6 L437.4,332.9 L439.8,333.2 L442.2,333.5 L444.6,333.8 L447,334 L449.4,334.3 L451.8,334.5 L454.2,334.7 L456.6,334.9 L459,335.1 L461.4,335.3 L463.8,335.5 L466.2,335.6 L468.6,335.8 L471,335.9 L473.4,336.1 L475.8,336.2 L478.2,336.3 L480.6,336.4 L483,336.5 L485.4,336.6 L487.8,336.7 L490.2,336.8 L492.6,336.9 L495,336.9 L497.4,337 L499.8,337.1 L502.2,337.2 L504.6,337.2 L507,337.3 L509.4,337.3 L511.8,337.4 L514.2,337.4 L516.6,337.5 L519,337.5 L521.4,337.6 L523.8,337.6 L526.2,337.6 L528.6,337.7 L531,337.7 L533.4,337.7 L535.8,337.7 L538.2,337.8 L540.6,337.8 L543,337.8 L545.4,337.8 L547.8,337.9 L550.2,337.9 " fill="none"/></g>
<g clip-path="url(#plot_window)" stroke="rgb(139,0,0)" stroke-width="1"><path d="M70.2,338.2 L72.6,338.2 L75,338.2 L77.4,338.2 L79.8,338.2 L82.2,338.2 L84.6,338.2 L87,338.2 L89.4,338.2 L91.8,338.2 L94.2,338.2 L96.6,338.2 L99,338.2 L101.4,338.2 L103.8,338.2 L106.2,338.2 L108.6,338.2 L111,338.2 L113.4,338.2 L115.8,338.2 L118.2,338.2 L120.6,338.2 L123,338.2 L125.4,338.2 L127.8,338.2 L130.2,338.2 L132.6,338.2 L135,338.2 L137.4,338.2 L139.8,338.1 L142.2,338.1 L144.6,338.1 L147,338.1 L149.4,338.1 L151.8,338.1 L154.2,338.1 L156.6,338.1 L159,338.1 L161.4,338.1 L163.8,338 L166.2,338 L168.6,338 L171,338 L173.4,337.9 L175.8,337.9 L178.2,337.9 L180.6,337.8 L183,337.8 L185.4,337.7 L187.8,337.6 L190.2,337.6 L192.6,337.5 L195,337.4 L197.4,337.3 L199.8,337.2 L202.2,337.1 L204.6,336.9 L207,336.8 L209.4,336.6 L211.8,336.4 L214.2,336.1 L216.6,335.9 L219,335.6 L221.4,335.2 L223.8,334.9 L226.2,334.4 L228.6,334 L231,333.4 L233.4,332.8 L235.8,332.1 L238.2,331.3 L240.6,330.5 L243,329.5 L245.4,328.4 L247.8,327.1 L250.2,325.7 L252.6,324.1 L255,322.3 L257.4,320.3 L259.8,318 L262.2,315.5 L264.6,312.6 L267,309.3 L269.4,305.7 L271.8,301.5 L274.2,296.8 L276.6,291.6 L279,285.7 L281.4,279 L283.8,271.4 L286.2,262.9 L288.6,253.4 L291,242.6 L293.4,230.4 L295.8,216.7 L298.2,201.2 L300.6,183.8 L303,164.2 L305.4,142 L307.8,117.1 L310.2,88.95 L312.6,113.8 L315,139.1 L317.4,161.6 L319.8,181.5 L322.2,199.2 L324.6,214.9 L327,228.8 L329.4,241.2 L331.8,252.1 L334.2,261.8 L336.6,270.4 L339,278.1 L341.4,284.9 L343.8,290.9 L346.2,296.2 L348.6,301 L351,305.2 L353.4,308.9 L355.8,312.2 L358.2,315.1 L360.6,317.7 L363,320.1 L365.4,322.1 L367.8,323.9 L370.2,325.5 L372.6,327 L375,328.2 L377.4,329.4 L379.8,330.4 L382.2,331.2 L384.6,332 L387,332.7 L389.4,333.3 L391.8,333.9 L394.2,334.4 L396.6,334.8 L399,335.2 L401.4,335.5 L403.8,335.8 L406.2,336.1 L408.6,336.3 L411,336.5 L413.4,336.7 L415.8,336.9 L418.2,337 L420.6,337.2 L423,337.3 L425.4,337.4 L427.8,337.5 L430.2,337.6 L432.6,337.6 L435,337.7 L437.4,337.8 L439.8,337.8 L442.2,337.9 L444.6,337.9 L447,337.9 L449.4,338 L451.8,338 L454.2,338 L456.6,338 L459,338 L461.4,338.1 L463.8,338.1 L466.2,338.1 L468.6,338.1 L471,338.1 L473.4,338.1 L475.8,338.1 L478.2,338.1 L480.6,338.1 L483,338.2 L485.4,338.2 L487.8,338.2 L490.2,338.2 L492.6,338.2 L495,338.2 L497.4,338.2 L499.8,338.2 L502.2,338.2 L504.6,338.2 L507,338.2 L509.4,338.2 L511.8,338.2 L514.2,338.2 L516.6,338.2 L519,338.2 L521.4,338.2 L523.8,338.2 L526.2,338.2 L528.6,338.2 L531,338.2 L533.4,338.2 L535.8,338.2 L538.2,338.2 L540.6,338.2 L543,338.2 L545.4,338.2 L547.8,338.2 L550.2,338.2 " fill="none"/></g>
<g clip-path="url(#plot_window)" stroke="rgb(0,100,0)" stroke-width="1"><path d="M70.2,335.1 L72.6,335 L75,334.9 L77.4,334.8 L79.8,334.7 L82.2,334.6 L84.6,334.4 L87,334.3 L89.4,334.2 L91.8,334.1 L94.2,334 L96.6,333.8 L99,333.7 L101.4,333.6 L103.8,333.4 L106.2,333.3 L108.6,333.1 L111,333 L113.4,332.8 L115.8,332.7 L118.2,332.5 L120.6,332.3 L123,332.1 L125.4,332 L127.8,331.8 L130.2,331.6 L132.6,331.4 L135,331.2 L137.4,330.9 L139.8,330.7 L142.2,330.5 L144.6,330.3 L147,330 L149.4,329.8 L151.8,329.5 L154.2,329.3 L156.6,329 L159,328.7 L161.4,328.4 L163.8,328.1 L166.2,327.8 L168.6,327.5 L171,327.2 L173.4,326.8 L175.8,326.5 L178.2,326.1 L180.6,325.8 L183,325.4 L185.4,325 L187.8,324.6 L190.2,324.2 L192.6,323.8 L195,323.3 L197.4,322.9 L199.8,322.4 L202.2,321.9 L204.6,321.4 L207,320.9 L209.4,320.4 L211.8,319.8 L214.2,319.3 L216.6,318.7 L219,318.1 L221.4,317.5 L223.8,316.9 L226.2,316.2 L228.6,315.6 L231,314.9 L233.4,314.2 L235.8,313.4 L238.2,312.7 L240.6,311.9 L243,311.1 L245.4,310.3 L247.8,309.4 L250.2,308.6 L252.6,307.7 L255,306.7 L257.4,305.8 L259.8,304.8 L262.2,303.8 L264.6,302.7 L267,301.6 L269.4,300.5 L271.8,299.4 L274.2,298.2 L276.6,297 L279,295.7 L281.4,294.5 L283.8,293.1 L286.2,291.8 L288.6,290.3 L291,288.9 L293.4,287.4 L295.8,285.8 L298.2,284.3 L300.6,282.6 L303,280.9 L305.4,279.2 L307.8,277.4 L310.2,275.5 L312.6,277.2 L315,279 L317.4,280.7 L319.8,282.4 L322.2,284.1 L324.6,285.7 L327,287.2 L329.4,288.7 L331.8,290.2 L334.2,291.6 L336.6,293 L339,294.3 L341.4,295.6 L343.8,296.8 L346.2,298.1 L348.6,299.2 L351,300.4 L353.4,301.5 L355.8,302.6 L358.2,303.6 L360.6,304.7 L363,305.7 L365.4,306.6 L367.8,307.5 L370.2,308.4 L372.6,309.3 L375,310.2 L377.4,311 L379.8,311.8 L382.2,312.6 L384.6,313.3 L387,314.1 L389.4,314.8 L391.8,315.5 L394.2,316.1 L396.6,316.8 L399,317.4 L401.4,318 L403.8,318.6 L406.2,319.2 L408.6,319.8 L411,320.3 L413.4,320.8 L415.8,321.4 L418.2,321.9 L420.6,322.3 L423,322.8 L425.4,323.3 L427.8,323.7 L430.2,324.1 L432.6,324.5 L435,324.9 L437.4,325.3 L439.8,325.7 L442.2,326.1 L444.6,326.4 L447,326.8 L449.4,327.1 L451.8,327.4 L454.2,327.8 L456.6,328.1 L459,328.4 L461.4,328.7 L463.8,328.9 L466.2,329.2 L468.6,329.5 L471,329.7 L473.4,330 L475.8,330.2 L478.2,330.5 L480.6,330.7 L483,330.9 L485.4,331.1 L487.8,331.3 L490.2,331.5 L492.6,331.7 L495,331.9 L497.4,332.1 L499.8,332.3 L502.2,332.5 L504.6,332.6 L507,332.8 L509.4,333 L511.8,333.1 L514.2,333.3 L516.6,333.4 L519,333.6 L521.4,333.7 L523.8,333.8 L526.2,334 L528.6,334.1 L531,334.2 L533.4,334.3 L535.8,334.4 L538.2,334.5 L540.6,334.6 L543,334.8 L545.4,334.9 L547.8,335 L550.2,335 " fill="none"/></g>
<g clip-path="url(#plot_window)" stroke="rgb(255,140,0)" stroke-width="1"><path d="M70.2,337.3 L72.6,337.3 L75,337.2 L77.4,337.2 L79.8,337.1 L82.2,337 L84.6,337 L87,336.9 L89.4,336.8 L91.8,336.7 L94.2,336.6 L96.6,336.6 L99,336.4 L101.4,336.3 L103.8,336.2 L106.2,336.1 L108.6,336 L111,335.8 L113.4,335.7 L115.8,335.5 L118.2,335.4 L120.6,335.2 L123,335 L125.4,334.8 L127.8,334.6 L130.2,334.4 L132.6,334.2 L135,333.9 L137.4,333.6 L139.8,333.4 L142.2,333.1 L144.6,332.7 L147,332.4 L149.4,332 L151.8,331.7 L154.2,331.3 L156.6,330.8 L159,330.4 L161.4,329.9 L163.8,329.4 L166.2,328.8 L168.6,328.3 L171,327.7 L173.4,327 L175.8,326.3 L178.2,325.6 L180.6,324.8 L183,324 L185.4,323.1 L187.8,322.2 L190.2,321.2 L192.6,320.1 L195,319 L197.4,317.8 L199.8,316.6 L202.2,315.2 L204.6,313.8 L207,312.3 L209.4,310.7 L211.8,309 L214.2,307.2 L216.6,305.3 L219,303.3 L221.4,301.1 L223.8,298.8 L226.2,296.4 L228.6,293.8 L231,291.1 L233.4,288.2 L235.8,285.1 L238.2,281.8 L240.6,278.3 L243,274.6 L245.4,270.7 L247.8,266.5 L250.2,262.1 L252.6,257.4 L255,252.4 L257.4,247.1 L259.8,241.5 L262.2,235.5 L264.6,229.2 L267,222.5 L269.4,215.3 L271.8,217.4 L274.2,224.4 L276.6,231 L279,237.2 L281.4,243.1 L283.8,248.6 L286.2,253.8 L288.6,258.7 L291,263.4 L293.4,267.7 L295.8,271.8 L298.2,275.7 L300.6,279.3 L303,282.7 L305.4,285.9 L307.8,289 L310.2,291.8 L312.6,294.5 L315,297.1 L317.4,299.5 L319.8,301.7 L322.2,303.8 L324.6,305.8 L327,307.7 L329.4,309.5 L331.8,311.2 L334.2,312.7 L336.6,314.2 L339,315.6 L341.4,316.9 L343.8,318.2 L346.2,319.3 L348.6,320.4 L351,321.4 L353.4,322.4 L355.8,323.3 L358.2,324.2 L360.6,325 L363,325.8 L365.4,326.5 L367.8,327.2 L370.2,327.8 L372.6,328.4 L375,329 L377.4,329.5 L379.8,330 L382.2,330.5 L384.6,331 L387,331.4 L389.4,331.8 L391.8,332.1 L394.2,332.5 L396.6,332.8 L399,333.1 L401.4,333.4 L403.8,333.7 L406.2,334 L408.6,334.2 L411,334.5 L413.4,334.7 L415.8,334.9 L418.2,335.1 L420.6,335.2 L423,335.4 L425.4,335.6 L427.8,335.7 L430.2,335.9 L432.6,336 L435,336.1 L437.4,336.3 L439.8,336.4 L442.2,336.5 L444.6,336.6 L447,336.7 L449.4,336.8 L451.8,336.8 L454.2,336.9 L456.6,337 L459,337.1 L461.4,337.1 L463.8,337.2 L466.2,337.3 L468.6,337.3 L471,337.4 L473.4,337.4 L475.8,337.5 L478.2,337.5 L480.6,337.5 L483,337.6 L485.4,337.6 L487.8,337.6 L490.2,337.7 L492.6,337.7 L495,337.7 L497.4,337.8 L499.8,337.8 L502.2,337.8 L504.6,337.8 L507,337.9 L509.4,337.9 L511.8,337.9 L514.2,337.9 L516.6,337.9 L519,337.9 L521.4,338 L523.8,338 L526.2,338 L528.6,338 L531,338 L533.4,338 L535.8,338 L538.2,338 L540.6,338.1 L543,338.1 L545.4,338.1 L547.8,338.1 L550.2,338.1 " fill="none"/></g>
<g clip-path="url(#plot_window)" stroke="rgb(127,255,0)" stroke-width="1"><path d="M70.2,338.1 L72.6,338.1 L75,338.1 L77.4,338.1 L79.8,338.1 L82.2,338 L84.6,338 L87,338 L89.4,338 L91.8,338 L94.2,338 L96.6,338 L99,338 L101.4,337.9 L103.8,337.9 L106.2,337.9 L108.6,337.9 L111,337.9 L113.4,337.9 L115.8,337.8 L118.2,337.8 L120.6,337.8 L123,337.8 L125.4,337.7 L127.8,337.7 L130.2,337.7 L132.6,337.7 L135,337.6 L137.4,337.6 L139.8,337.5 L142.2,337.5 L144.6,337.5 L147,337.4 L149.4,337.4 L151.8,337.3 L154.2,337.3 L156.6,337.2 L159,337.1 L161.4,337.1 L163.8,337 L166.2,336.9 L168.6,336.9 L171,336.8 L173.4,336.7 L175.8,336.6 L178.2,336.5 L180.6,336.4 L183,336.3 L185.4,336.2 L187.8,336 L190.2,335.9 L192.6,335.8 L195,335.6 L197.4,335.4 L199.8,335.3 L202.2,335.1 L204.6,334.9 L207,334.7 L209.4,334.5 L211.8,334.2 L214.2,334 L216.6,333.7 L219,333.5 L221.4,333.2 L223.8,332.9 L226.2,332.5 L228.6,332.2 L231,331.8 L233.4,331.4 L235.8,331 L238.2,330.6 L240.6,330.1 L243,329.6 L245.4,329.1 L247.8,328.5 L250.2,327.9 L252.6,327.3 L255,326.6 L257.4,325.9 L259.8,325.1 L262.2,324.3 L264.6,323.4 L267,322.5 L269.4,321.6 L271.8,320.5 L274.2,319.5 L276.6,318.3 L279,317.1 L281.4,315.8 L283.8,314.4 L286.2,312.9 L288.6,311.4 L291,309.7 L293.4,307.9 L295.8,306.1 L298.2,304.1 L300.6,302 L303,299.8 L305.4,297.4 L307.8,294.9 L310.2,292.2 L312.6,289.3 L315,286.3 L317.4,283.1 L319.8,279.7 L322.2,276.1 L324.6,272.3 L327,268.2 L329.4,263.9 L331.8,259.3 L334.2,254.5 L336.6,249.3 L339,243.8 L341.4,238 L343.8,231.8 L346.2,225.2 L348.6,218.3 L351,214.4 L353.4,221.6 L355.8,228.4 L358.2,234.8 L360.6,240.8 L363,246.5 L365.4,251.8 L367.8,256.8 L370.2,261.5 L372.6,266 L375,270.2 L377.4,274.1 L379.8,277.9 L382.2,281.4 L384.6,284.7 L387,287.8 L389.4,290.7 L391.8,293.5 L394.2,296.1 L396.6,298.5 L399,300.8 L401.4,303 L403.8,305 L406.2,307 L408.6,308.8 L411,310.5 L413.4,312.1 L415.8,313.6 L418.2,315.1 L420.6,316.4 L423,317.7 L425.4,318.9 L427.8,320 L430.2,321 L432.6,322 L435,323 L437.4,323.9 L439.8,324.7 L442.2,325.5 L444.6,326.2 L447,326.9 L449.4,327.6 L451.8,328.2 L454.2,328.8 L456.6,329.3 L459,329.8 L461.4,330.3 L463.8,330.8 L466.2,331.2 L468.6,331.6 L471,332 L473.4,332.4 L475.8,332.7 L478.2,333 L480.6,333.3 L483,333.6 L485.4,333.9 L487.8,334.1 L490.2,334.4 L492.6,334.6 L495,334.8 L497.4,335 L499.8,335.2 L502.2,335.4 L504.6,335.5 L507,335.7 L509.4,335.8 L511.8,336 L514.2,336.1 L516.6,336.2 L519,336.3 L521.4,336.4 L523.8,336.5 L526.2,336.6 L528.6,336.7 L531,336.8 L533.4,336.9 L535.8,337 L538.2,337 L540.6,337.1 L543,337.2 L545.4,337.2 L547.8,337.3 L550.2,337.3 " fill="none"/></g>
</g>
<g id="plotPoints" clip-path="url(#plot_window)"></g>
<g id="legendBackground" stroke="rgb(119,136,153)" fill="rgb(255,255,255)" stroke-width="1"><rect x="564.2" y="62" width="173.8" height="165"/><rect x="564.2" y="62" width="173.8" height="165"/></g>
<g id="legendPoints"><g stroke="rgb(0,0,139)" fill="rgb(255,255,255)" stroke-width="1"><line x1="579.2" y1="92" x2="594.2" y2="92"/></g>
<g stroke="rgb(139,0,0)" fill="rgb(255,255,255)" stroke-width="1"><line x1="579.2" y1="122" x2="594.2" y2="122"/></g>
<g stroke="rgb(0,100,0)" fill="rgb(255,255,255)" stroke-width="1"><line x1="579.2" y1="152" x2="594.2" y2="152"/></g>
<g stroke="rgb(255,140,0)" fill="rgb(255,255,255)" stroke-width="1"><line x1="579.2" y1="182" x2="594.2" y2="182"/></g>
<g stroke="rgb(127,255,0)" fill="rgb(255,255,255)" stroke-width="1"><line x1="579.2" y1="212" x2="594.2" y2="212"/></g>
</g>
<g id="legendText">
<text x="601.7" y="92" font-size="15" font-family="Verdana">&#x3BC; = 0, &#x3C3; = 1</text>
<text x="601.7" y="122" font-size="15" font-family="Verdana">&#x3BC; = 0, &#x3C3; = 0.5</text>
<text x="601.7" y="152" font-size="15" font-family="Verdana">&#x3BC; = 0, &#x3C3; = 2</text>
<text x="601.7" y="182" font-size="15" font-family="Verdana">&#x3BC; = -1, &#x3C3; = 1</text>
<text x="601.7" y="212" font-size="15" font-family="Verdana">&#x3BC; = 1, &#x3C3; = 1</text></g>
<g id="title">
<text x="375" y="40" text-anchor="middle" font-size="20" font-family="Verdana">Laplace Distribution PDF</text></g>
<g id="plotXValues"></g>
<g id="plotYValues"></g>
</svg>
