<?xml version="1.0" encoding="UTF-8" standalone="no"?><!DOCTYPE svg PUBLIC "-//W3C//DTD SVG 1.1//EN" "http://www.w3.org/graphics/svg/1.1/dtd/svg11.dtd">
<svg width="600" height ="400" version="1.1" xmlns="http://www.w3.org/2000/svg"
 xmlns:xlink="http://www.w3.org/1999/xlink"
 xmlns:ev="http://www.w3.org/2001/xml-events">

<!-- SVG plot written using Boost.Plot program (Creator Jacob Voytko) --> 
<!-- Use, modification and distribution of Boost.Plot subject to the --> 
<!-- Boost Software License, Version 1.0.--> 
<!-- (See accompanying file LICENSE_1_0.txt --> 
<!-- or copy at http://www.boost.org/LICENSE_1_0.txt) --> 

<!-- SVG Plot Copyright John Maddock 2008 --> 
<meta name="copyright" content="John Maddock" />
<meta name="date" content="2008" />
<!-- Use, modification and distribution of this Scalable Vector Graphic file -->
<!-- are subject to the Boost Software License, Version 1.0. -->
<!-- (See accompanying file LICENSE_1_0.txt or copy at http://www.boost.org/LICENSE_1_0.txt) -->

<clipPath id="plot_window"><rect x="68.4" y="53" width="518.6" height="284.2"/></clipPath>
<g id="imageBackground" stroke="rgb(255,255,0)" fill="rgb(255,255,255)" stroke-width="2"><rect x="0" y="0" width="600" height="400"/></g>
<g id="plotBackground" stroke="rgb(255,250,240)" fill="rgb(255,255,255)" stroke-width="2"><rect x="67.4" y="52" width="520.6" height="286.2"/></g>
<g id="yMinorGrid" stroke="rgb(200,220,255)" stroke-width="0.5"></g>
<g id="yMajorGrid" stroke="rgb(200,220,255)" stroke-width="1"></g>
<g id="xMinorGrid" stroke="rgb(200,220,255)" stroke-width="0.5"></g>
<g id="xMajorGrid" stroke="rgb(200,220,255)" stroke-width="1"></g>
<g id="yAxis" stroke="rgb(0,0,0)" stroke-width="1"><line x1="244.3" y1="52" x2="244.3" y2="343.2"/><line x1="67.4" y1="52" x2="67.4" y2="338.2"/></g>
<g id="xAxis" stroke="rgb(0,0,0)" stroke-width="1"><line x1="62.4" y1="281.3" x2="588" y2="281.3"/><line x1="62.4" y1="338.2" x2="588" y2="338.2"/></g>
<g id="yMinorTicks" stroke="rgb(0,0,0)" stroke-width="1"><path d="M65.4,259.4 L67.4,259.4 M65.4,237.6 L67.4,237.6 M65.4,215.7 L67.4,215.7 M65.4,172 L67.4,172 M65.4,150.2 L67.4,150.2 M65.4,128.3 L67.4,128.3 M65.4,84.63 L67.4,84.63 M65.4,62.78 L67.4,62.78 M65.4,281.3 L67.4,281.3 M65.4,303.1 L67.4,303.1 M65.4,325 L67.4,325 "/></g>
<g id="xMinorTicks" stroke="rgb(0,0,0)" stroke-width="1"><path d="M286,338.2 L286,340.2 M327.7,338.2 L327.7,340.2 M369.4,338.2 L369.4,340.2 M452.8,338.2 L452.8,340.2 M494.6,338.2 L494.6,340.2 M536.3,338.2 L536.3,340.2 M202.6,338.2 L202.6,340.2 M160.8,338.2 L160.8,340.2 M119.1,338.2 L119.1,340.2 "/></g>
<g id="yMajorTicks" stroke="rgb(0,0,0)" stroke-width="2"><path d="M62.4,281.3 L67.4,281.3 M62.4,193.9 L67.4,193.9 M62.4,106.5 L67.4,106.5 M62.4,281.3 L67.4,281.3 "/></g>
<g id="xMajorTicks" stroke="rgb(0,0,0)" stroke-width="2"><path d="M244.3,338.2 L244.3,343.2 M411.1,338.2 L411.1,343.2 M578,338.2 L578,343.2 M244.3,338.2 L244.3,343.2 M77.41,338.2 L77.41,343.2 "/></g>
<g id="plotLabels" fill="rgb(0,0,0)">
<text x="244.3" y="361.2" text-anchor="middle" font-size="12" font-family="Verdana">0</text>
<text x="411.1" y="361.2" text-anchor="middle" font-size="12" font-family="Verdana">5</text>
<text x="578" y="361.2" text-anchor="middle" font-size="12" font-family="Verdana">10</text>
<text x="244.3" y="361.2" text-anchor="middle" font-size="12" font-family="Verdana">0</text>
<text x="77.41" y="361.2" text-anchor="middle" font-size="12" font-family="Verdana">-5</text>
<text x="57.4" y="284.9" text-anchor="end" font-size="12" font-family="Verdana">0</text>
<text x="57.4" y="197.5" text-anchor="end" font-size="12" font-family="Verdana">5</text>
<text x="57.4" y="110.1" text-anchor="end" font-size="12" font-family="Verdana">10</text>
<text x="57.4" y="284.9" text-anchor="end" font-size="12" font-family="Verdana">0</text></g>
<g id="yLabel" fill="rgb(0,0,0)">
<text x="26" y="195.1" text-anchor="middle" transform = "rotate(-90 26 195.1 )" font-size="14" font-family="Verdana">lgamma(z)</text></g>
<g id="xLabel" fill="rgb(0,0,0)">
<text x="327.7" y="381" text-anchor="middle" font-size="14" font-family="Verdana">z</text></g>
<g id="plotLines" stroke-width="2"><g clip-path="url(#plot_window)" stroke="rgb(0,0,139)"><path d="M244.3,57.5 L245.9,229.4 L247.6,241.9 L249.3,249.3 L250.9,254.6 L252.6,258.8 L254.3,262.1 L256,264.9 L257.6,267.4 L259.3,269.4 L261,271.3 L262.6,272.9 L264.3,274.3 L266,275.6 L267.6,276.7 L269.3,277.7 L271,278.6 L272.6,279.4 L274.3,280.1 L276,280.7 L277.6,281.3 L279.3,281.7 L281,282.1 L282.6,282.5 L284.3,282.8 L286,283 L287.7,283.2 L289.3,283.3 L291,283.4 L292.7,283.4 L294.3,283.4 L296,283.3 L297.7,283.2 L299.3,283.1 L301,283 L302.7,282.8 L304.3,282.5 L306,282.3 L307.7,282 L309.3,281.6 L311,281.3 L312.7,280.9 L314.4,280.5 L316,280 L317.7,279.6 L319.4,279.1 L321,278.6 L322.7,278 L324.4,277.5 L326,276.9 L327.7,276.3 L329.4,275.7 L331,275 L332.7,274.4 L334.4,273.7 L336,273 L337.7,272.2 L339.4,271.5 L341,270.7 L342.7,270 L344.4,269.2 L346.1,268.3 L347.7,267.5 L349.4,266.7 L351.1,265.8 L352.7,264.9 L354.4,264 L356.1,263.1 L357.7,262.2 L359.4,261.2 L361.1,260.3 L362.7,259.3 L364.4,258.3 L366.1,257.3 L367.7,256.3 L369.4,255.3 L371.1,254.2 L372.8,253.2 L374.4,252.1 L376.1,251 L377.8,250 L379.4,248.9 L381.1,247.7 L382.8,246.6 L384.4,245.5 L386.1,244.3 L387.8,243.2 L389.4,242 L391.1,240.8 L392.8,239.6 L394.4,238.4 L396.1,237.2 L397.8,235.9 L399.4,234.7 L401.1,233.4 L402.8,232.2 L404.5,230.9 L406.1,229.6 L407.8,228.3 L409.5,227 L411.1,225.7 L412.8,224.4 L414.5,223.1 L416.1,221.7 L417.8,220.4 L419.5,219 L421.1,217.7 L422.8,216.3 L424.5,214.9 L426.1,213.5 L427.8,212.1 L429.5,210.7 L431.2,209.3 L432.8,207.8 L434.5,206.4 L436.2,204.9 L437.8,203.5 L439.5,202 L441.2,200.6 L442.8,199.1 L444.5,197.6 L446.2,196.1 L447.8,194.6 L449.5,193.1 L451.2,191.6 L452.8,190 L454.5,188.5 L456.2,187 L457.9,185.4 L459.5,183.9 L461.2,182.3 L462.9,180.7 L464.5,179.1 L466.2,177.6 L467.9,176 L469.5,174.4 L471.2,172.8 L472.9,171.2 L474.5,169.5 L476.2,167.9 L477.9,166.3 L479.5,164.6 L481.2,163 L482.9,161.3 L484.5,159.7 L486.2,158 L487.9,156.3 L489.6,154.7 L491.2,153 L492.9,151.3 L494.6,149.6 L496.2,147.9 L497.9,146.2 L499.6,144.4 L501.2,142.7 L502.9,141 L504.6,139.3 L506.2,137.5 L507.9,135.8 L509.6,134 L511.2,132.3 L512.9,130.5 L514.6,128.7 L516.3,126.9 L517.9,125.2 L519.6,123.4 L521.3,121.6 L522.9,119.8 L524.6,118 L526.3,116.2 L527.9,114.4 L529.6,112.5 L531.3,110.7 L532.9,108.9 L534.6,107 L536.3,105.2 L537.9,103.4 L539.6,101.5 L541.3,99.64 L542.9,97.78 L544.6,95.91 L546.3,94.04 L548,92.16 L549.6,90.28 L551.3,88.39 L553,86.49 L554.6,84.59 L556.3,82.69 L558,80.78 L559.6,78.87 L561.3,76.95 L563,75.03 L564.6,73.1 L566.3,71.17 L568,69.23 L569.6,67.29 L571.3,65.34 L573,63.39 L574.7,61.43 L576.3,59.47 L578,57.5 " fill="none"/></g>
<g clip-path="url(#plot_window)" stroke="rgb(0,0,139)"><path d="M210.9,57.5 L211.1,188.6 L211.2,200.7 L211.4,207.8 L211.6,212.7 L211.7,216.6 L211.9,219.7 L212.1,222.4 L212.2,224.7 L212.4,226.7 L212.6,228.5 L212.7,230.1 L212.9,231.6 L213.1,232.9 L213.2,234.2 L213.4,235.3 L213.6,236.4 L213.7,237.4 L213.9,238.3 L214.1,239.2 L214.2,240.1 L214.4,240.9 L214.6,241.6 L214.7,242.3 L214.9,243 L215.1,243.6 L215.2,244.3 L215.4,244.9 L215.6,245.4 L215.7,246 L215.9,246.5 L216.1,247 L216.2,247.5 L216.4,247.9 L216.6,248.4 L216.7,248.8 L216.9,249.2 L217.1,249.6 L217.2,250 L217.4,250.4 L217.6,250.7 L217.7,251.1 L217.9,251.4 L218.1,251.7 L218.2,252.1 L218.4,252.4 L218.6,252.7 L218.7,252.9 L218.9,253.2 L219.1,253.5 L219.2,253.7 L219.4,254 L219.6,254.2 L219.7,254.5 L219.9,254.7 L220.1,254.9 L220.2,255.1 L220.4,255.3 L220.6,255.5 L220.7,255.7 L220.9,255.9 L221.1,256.1 L221.2,256.2 L221.4,256.4 L221.6,256.6 L221.7,256.7 L221.9,256.9 L222.1,257 L222.2,257.2 L222.4,257.3 L222.6,257.4 L222.7,257.5 L222.9,257.7 L223.1,257.8 L223.2,257.9 L223.4,258 L223.6,258.1 L223.7,258.2 L223.9,258.3 L224.1,258.3 L224.2,258.4 L224.4,258.5 L224.6,258.6 L224.7,258.6 L224.9,258.7 L225.1,258.8 L225.2,258.8 L225.4,258.9 L225.6,258.9 L225.7,259 L225.9,259 L226.1,259 L226.2,259.1 L226.4,259.1 L226.6,259.1 L226.8,259.1 L226.9,259.1 L227.1,259.1 L227.3,259.2 L227.4,259.2 L227.6,259.2 L227.8,259.2 L227.9,259.1 L228.1,259.1 L228.3,259.1 L228.4,259.1 L228.6,259.1 L228.8,259 L228.9,259 L229.1,259 L229.3,258.9 L229.4,258.9 L229.6,258.8 L229.8,258.8 L229.9,258.7 L230.1,258.7 L230.3,258.6 L230.4,258.5 L230.6,258.5 L230.8,258.4 L230.9,258.3 L231.1,258.2 L231.3,258.1 L231.4,258 L231.6,257.9 L231.8,257.8 L231.9,257.7 L232.1,257.6 L232.3,257.5 L232.4,257.4 L232.6,257.2 L232.8,257.1 L232.9,257 L233.1,256.8 L233.3,256.7 L233.4,256.5 L233.6,256.4 L233.8,256.2 L233.9,256 L234.1,255.9 L234.3,255.7 L234.4,255.5 L234.6,255.3 L234.8,255.1 L234.9,254.9 L235.1,254.7 L235.3,254.4 L235.4,254.2 L235.6,254 L235.8,253.7 L235.9,253.5 L236.1,253.2 L236.3,253 L236.4,252.7 L236.6,252.4 L236.8,252.1 L236.9,251.8 L237.1,251.5 L237.3,251.2 L237.4,250.8 L237.6,250.5 L237.8,250.1 L237.9,249.8 L238.1,249.4 L238.3,249 L238.4,248.6 L238.6,248.1 L238.8,247.7 L238.9,247.2 L239.1,246.8 L239.3,246.3 L239.4,245.7 L239.6,245.2 L239.8,244.6 L239.9,244 L240.1,243.4 L240.3,242.8 L240.4,242.1 L240.6,241.4 L240.8,240.7 L240.9,239.9 L241.1,239 L241.3,238.2 L241.4,237.2 L241.6,236.2 L241.8,235.2 L241.9,234 L242.1,232.8 L242.3,231.4 L242.4,230 L242.6,228.4 L242.8,226.6 L242.9,224.6 L243.1,222.3 L243.3,219.7 L243.4,216.5 L243.6,212.7 L243.8,207.7 L243.9,200.7 L244.1,188.6 " fill="none"/></g>
<g clip-path="url(#plot_window)" stroke="rgb(0,0,139)"><path d="M177.5,57.5 L177.7,200.7 L177.9,212.7 L178,219.7 L178.2,224.7 L178.4,228.5 L178.5,231.6 L178.7,234.2 L178.9,236.4 L179,238.4 L179.2,240.2 L179.4,241.7 L179.5,243.2 L179.7,244.5 L179.9,245.7 L180,246.8 L180.2,247.8 L180.4,248.8 L180.5,249.6 L180.7,250.5 L180.9,251.3 L181,252 L181.2,252.7 L181.4,253.4 L181.5,254 L181.7,254.6 L181.9,255.2 L182,255.7 L182.2,256.3 L182.4,256.8 L182.5,257.2 L182.7,257.7 L182.9,258.1 L183,258.5 L183.2,258.9 L183.4,259.3 L183.5,259.7 L183.7,260 L183.9,260.4 L184,260.7 L184.2,261 L184.4,261.3 L184.5,261.6 L184.7,261.9 L184.9,262.1 L185,262.4 L185.2,262.6 L185.4,262.9 L185.5,263.1 L185.7,263.3 L185.9,263.5 L186,263.7 L186.2,263.9 L186.4,264.1 L186.5,264.3 L186.7,264.4 L186.9,264.6 L187,264.7 L187.2,264.9 L187.4,265 L187.5,265.2 L187.7,265.3 L187.9,265.4 L188,265.5 L188.2,265.6 L188.4,265.7 L188.5,265.8 L188.7,265.9 L188.9,266 L189,266.1 L189.2,266.2 L189.4,266.2 L189.5,266.3 L189.7,266.4 L189.9,266.4 L190,266.5 L190.2,266.5 L190.4,266.5 L190.5,266.6 L190.7,266.6 L190.9,266.6 L191,266.7 L191.2,266.7 L191.4,266.7 L191.5,266.7 L191.7,266.7 L191.9,266.7 L192,266.7 L192.2,266.7 L192.4,266.7 L192.5,266.7 L192.7,266.6 L192.9,266.6 L193,266.6 L193.2,266.5 L193.4,266.5 L193.5,266.5 L193.7,266.4 L193.9,266.4 L194,266.3 L194.2,266.2 L194.4,266.2 L194.5,266.1 L194.7,266 L194.9,266 L195,265.9 L195.2,265.8 L195.4,265.7 L195.5,265.6 L195.7,265.5 L195.9,265.4 L196,265.3 L196.2,265.2 L196.4,265.1 L196.5,265 L196.7,264.9 L196.9,264.7 L197,264.6 L197.2,264.5 L197.4,264.3 L197.5,264.2 L197.7,264 L197.9,263.9 L198.1,263.7 L198.2,263.6 L198.4,263.4 L198.6,263.2 L198.7,263 L198.9,262.9 L199.1,262.7 L199.2,262.5 L199.4,262.3 L199.6,262.1 L199.7,261.9 L199.9,261.7 L200.1,261.4 L200.2,261.2 L200.4,261 L200.6,260.7 L200.7,260.5 L200.9,260.3 L201.1,260 L201.2,259.7 L201.4,259.5 L201.6,259.2 L201.7,258.9 L201.9,258.6 L202.1,258.3 L202.2,258 L202.4,257.7 L202.6,257.4 L202.7,257.1 L202.9,256.7 L203.1,256.4 L203.2,256 L203.4,255.7 L203.6,255.3 L203.7,254.9 L203.9,254.5 L204.1,254.1 L204.2,253.7 L204.4,253.2 L204.6,252.8 L204.7,252.3 L204.9,251.9 L205.1,251.4 L205.2,250.9 L205.4,250.4 L205.6,249.8 L205.7,249.3 L205.9,248.7 L206.1,248.1 L206.2,247.5 L206.4,246.8 L206.6,246.2 L206.7,245.5 L206.9,244.8 L207.1,244 L207.2,243.2 L207.4,242.4 L207.6,241.5 L207.7,240.6 L207.9,239.7 L208.1,238.6 L208.2,237.6 L208.4,236.4 L208.6,235.2 L208.7,233.9 L208.9,232.5 L209.1,230.9 L209.2,229.2 L209.4,227.4 L209.6,225.3 L209.7,222.9 L209.9,220.2 L210.1,217 L210.2,213 L210.4,208 L210.6,200.9 L210.7,188.7 " fill="none"/></g>
<g clip-path="url(#plot_window)" stroke="rgb(0,0,139)"><path d="M144.2,57.5 L144.3,219.9 L144.5,231.9 L144.7,238.9 L144.8,243.8 L145,247.6 L145.2,250.6 L145.3,253.2 L145.5,255.4 L145.7,257.3 L145.8,259.1 L146,260.6 L146.2,262 L146.3,263.3 L146.5,264.4 L146.7,265.5 L146.8,266.5 L147,267.5 L147.2,268.3 L147.3,269.1 L147.5,269.9 L147.7,270.6 L147.8,271.3 L148,271.9 L148.2,272.5 L148.3,273.1 L148.5,273.6 L148.7,274.1 L148.8,274.6 L149,275.1 L149.2,275.5 L149.3,276 L149.5,276.4 L149.7,276.8 L149.8,277.1 L150,277.5 L150.2,277.8 L150.3,278.1 L150.5,278.4 L150.7,278.7 L150.8,279 L151,279.3 L151.2,279.5 L151.3,279.8 L151.5,280 L151.7,280.2 L151.8,280.4 L152,280.6 L152.2,280.8 L152.3,281 L152.5,281.2 L152.7,281.4 L152.8,281.5 L153,281.7 L153.2,281.8 L153.3,282 L153.5,282.1 L153.7,282.2 L153.8,282.3 L154,282.4 L154.2,282.5 L154.3,282.6 L154.5,282.7 L154.7,282.8 L154.8,282.9 L155,282.9 L155.2,283 L155.3,283.1 L155.5,283.1 L155.7,283.2 L155.8,283.2 L156,283.2 L156.2,283.3 L156.3,283.3 L156.5,283.3 L156.7,283.3 L156.8,283.3 L157,283.3 L157.2,283.4 L157.3,283.3 L157.5,283.3 L157.7,283.3 L157.8,283.3 L158,283.3 L158.2,283.3 L158.3,283.2 L158.5,283.2 L158.7,283.2 L158.8,283.1 L159,283.1 L159.2,283 L159.3,283 L159.5,282.9 L159.7,282.8 L159.8,282.8 L160,282.7 L160.2,282.6 L160.3,282.5 L160.5,282.4 L160.7,282.4 L160.8,282.3 L161,282.2 L161.2,282.1 L161.3,282 L161.5,281.8 L161.7,281.7 L161.8,281.6 L162,281.5 L162.2,281.4 L162.3,281.2 L162.5,281.1 L162.7,280.9 L162.8,280.8 L163,280.7 L163.2,280.5 L163.3,280.3 L163.5,280.2 L163.7,280 L163.8,279.8 L164,279.7 L164.2,279.5 L164.3,279.3 L164.5,279.1 L164.7,278.9 L164.8,278.7 L165,278.5 L165.2,278.3 L165.3,278.1 L165.5,277.9 L165.7,277.6 L165.8,277.4 L166,277.2 L166.2,276.9 L166.3,276.7 L166.5,276.4 L166.7,276.2 L166.8,275.9 L167,275.7 L167.2,275.4 L167.3,275.1 L167.5,274.8 L167.7,274.5 L167.8,274.2 L168,273.9 L168.2,273.6 L168.3,273.3 L168.5,273 L168.7,272.6 L168.9,272.3 L169,271.9 L169.2,271.6 L169.4,271.2 L169.5,270.8 L169.7,270.4 L169.9,270 L170,269.6 L170.2,269.2 L170.4,268.8 L170.5,268.4 L170.7,267.9 L170.9,267.5 L171,267 L171.2,266.5 L171.4,266 L171.5,265.5 L171.7,265 L171.9,264.4 L172,263.9 L172.2,263.3 L172.4,262.7 L172.5,262.1 L172.7,261.4 L172.9,260.8 L173,260.1 L173.2,259.4 L173.4,258.7 L173.5,257.9 L173.7,257.1 L173.9,256.3 L174,255.4 L174.2,254.5 L174.4,253.6 L174.5,252.5 L174.7,251.5 L174.9,250.4 L175,249.2 L175.2,247.9 L175.4,246.6 L175.5,245.1 L175.7,243.5 L175.9,241.8 L176,239.9 L176.2,237.7 L176.4,235.3 L176.5,232.6 L176.7,229.3 L176.9,225.3 L177,220.2 L177.2,213.1 L177.4,200.9 " fill="none"/></g>
<g clip-path="url(#plot_window)" stroke="rgb(0,0,139)"><path d="M110.8,57.5 L111,244.1 L111.1,256.1 L111.3,263 L111.5,267.9 L111.6,271.7 L111.8,274.7 L112,277.3 L112.1,279.5 L112.3,281.4 L112.5,283.1 L112.6,284.6 L112.8,286 L113,287.2 L113.1,288.4 L113.3,289.4 L113.5,290.4 L113.6,291.3 L113.8,292.2 L114,292.9 L114.1,293.7 L114.3,294.4 L114.5,295 L114.6,295.6 L114.8,296.2 L115,296.8 L115.1,297.3 L115.3,297.8 L115.5,298.2 L115.6,298.7 L115.8,299.1 L116,299.5 L116.1,299.9 L116.3,300.3 L116.5,300.6 L116.6,300.9 L116.8,301.2 L117,301.5 L117.1,301.8 L117.3,302.1 L117.5,302.3 L117.6,302.6 L117.8,302.8 L118,303 L118.1,303.3 L118.3,303.5 L118.5,303.6 L118.6,303.8 L118.8,304 L119,304.2 L119.1,304.3 L119.3,304.4 L119.5,304.6 L119.6,304.7 L119.8,304.8 L120,304.9 L120.1,305 L120.3,305.1 L120.5,305.2 L120.6,305.3 L120.8,305.4 L121,305.5 L121.1,305.5 L121.3,305.6 L121.5,305.6 L121.6,305.7 L121.8,305.7 L122,305.8 L122.1,305.8 L122.3,305.8 L122.5,305.8 L122.6,305.8 L122.8,305.9 L123,305.9 L123.1,305.9 L123.3,305.8 L123.5,305.8 L123.6,305.8 L123.8,305.8 L124,305.8 L124.1,305.7 L124.3,305.7 L124.5,305.7 L124.6,305.6 L124.8,305.6 L125,305.5 L125.1,305.4 L125.3,305.4 L125.5,305.3 L125.6,305.2 L125.8,305.2 L126,305.1 L126.1,305 L126.3,304.9 L126.5,304.8 L126.6,304.7 L126.8,304.6 L127,304.5 L127.1,304.4 L127.3,304.3 L127.5,304.2 L127.6,304 L127.8,303.9 L128,303.8 L128.1,303.6 L128.3,303.5 L128.5,303.4 L128.6,303.2 L128.8,303.1 L129,302.9 L129.1,302.7 L129.3,302.6 L129.5,302.4 L129.6,302.2 L129.8,302 L130,301.9 L130.1,301.7 L130.3,301.5 L130.5,301.3 L130.6,301.1 L130.8,300.9 L131,300.7 L131.1,300.4 L131.3,300.2 L131.5,300 L131.6,299.8 L131.8,299.5 L132,299.3 L132.1,299.1 L132.3,298.8 L132.5,298.5 L132.6,298.3 L132.8,298 L133,297.8 L133.1,297.5 L133.3,297.2 L133.5,296.9 L133.6,296.6 L133.8,296.3 L134,296 L134.1,295.7 L134.3,295.4 L134.5,295 L134.6,294.7 L134.8,294.4 L135,294 L135.1,293.7 L135.3,293.3 L135.5,292.9 L135.6,292.6 L135.8,292.2 L136,291.8 L136.1,291.4 L136.3,291 L136.5,290.5 L136.6,290.1 L136.8,289.7 L137,289.2 L137.1,288.7 L137.3,288.3 L137.5,287.8 L137.6,287.3 L137.8,286.8 L138,286.3 L138.1,285.7 L138.3,285.2 L138.5,284.6 L138.6,284 L138.8,283.4 L139,282.8 L139.1,282.1 L139.3,281.5 L139.5,280.8 L139.6,280.1 L139.8,279.3 L140,278.6 L140.2,277.8 L140.3,277 L140.5,276.1 L140.7,275.2 L140.8,274.3 L141,273.3 L141.2,272.3 L141.3,271.2 L141.5,270 L141.7,268.8 L141.8,267.5 L142,266.1 L142.2,264.6 L142.3,263 L142.5,261.3 L142.7,259.3 L142.8,257.2 L143,254.7 L143.2,251.9 L143.3,248.6 L143.5,244.6 L143.7,239.5 L143.8,232.3 L144,220.1 " fill="none"/></g>
<g clip-path="url(#plot_window)" stroke="rgb(0,0,139)"><path d="M77.41,57.5 L77.58,272.2 L77.75,284.2 L77.91,291.1 L78.08,296 L78.25,299.7 L78.41,302.7 L78.58,305.3 L78.75,307.5 L78.91,309.4 L79.08,311 L79.25,312.5 L79.41,313.9 L79.58,315.1 L79.75,316.3 L79.91,317.3 L80.08,318.3 L80.25,319.1 L80.41,320 L80.58,320.7 L80.75,321.5 L80.92,322.1 L81.08,322.8 L81.25,323.4 L81.42,323.9 L81.58,324.5 L81.75,325 L81.92,325.4 L82.08,325.9 L82.25,326.3 L82.42,326.7 L82.58,327.1 L82.75,327.5 L82.92,327.8 L83.08,328.1 L83.25,328.4 L83.42,328.7 L83.59,329 L83.75,329.3 L83.92,329.5 L84.09,329.8 L84.25,330 L84.42,330.2 L84.59,330.4 L84.75,330.6 L84.92,330.8 L85.09,330.9 L85.25,331.1 L85.42,331.3 L85.59,331.4 L85.75,331.5 L85.92,331.7 L86.09,331.8 L86.26,331.9 L86.42,332 L86.59,332.1 L86.76,332.2 L86.92,332.3 L87.09,332.3 L87.26,332.4 L87.42,332.4 L87.59,332.5 L87.76,332.5 L87.92,332.6 L88.09,332.6 L88.26,332.6 L88.42,332.7 L88.59,332.7 L88.76,332.7 L88.92,332.7 L89.09,332.7 L89.26,332.7 L89.43,332.7 L89.59,332.7 L89.76,332.6 L89.93,332.6 L90.09,332.6 L90.26,332.5 L90.43,332.5 L90.59,332.5 L90.76,332.4 L90.93,332.4 L91.09,332.3 L91.26,332.2 L91.43,332.2 L91.59,332.1 L91.76,332 L91.93,331.9 L92.1,331.8 L92.26,331.7 L92.43,331.6 L92.6,331.5 L92.76,331.4 L92.93,331.3 L93.1,331.2 L93.26,331.1 L93.43,331 L93.6,330.9 L93.76,330.7 L93.93,330.6 L94.1,330.4 L94.26,330.3 L94.43,330.2 L94.6,330 L94.76,329.9 L94.93,329.7 L95.1,329.5 L95.27,329.4 L95.43,329.2 L95.6,329 L95.77,328.8 L95.93,328.6 L96.1,328.5 L96.27,328.3 L96.43,328.1 L96.6,327.9 L96.77,327.6 L96.93,327.4 L97.1,327.2 L97.27,327 L97.43,326.8 L97.6,326.5 L97.77,326.3 L97.94,326.1 L98.1,325.8 L98.27,325.6 L98.44,325.3 L98.6,325.1 L98.77,324.8 L98.94,324.5 L99.1,324.2 L99.27,324 L99.44,323.7 L99.6,323.4 L99.77,323.1 L99.94,322.8 L100.1,322.5 L100.3,322.2 L100.4,321.8 L100.6,321.5 L100.8,321.2 L100.9,320.8 L101.1,320.5 L101.3,320.1 L101.4,319.8 L101.6,319.4 L101.8,319 L101.9,318.7 L102.1,318.3 L102.3,317.9 L102.4,317.5 L102.6,317 L102.8,316.6 L102.9,316.2 L103.1,315.7 L103.3,315.3 L103.4,314.8 L103.6,314.4 L103.8,313.9 L103.9,313.4 L104.1,312.9 L104.3,312.4 L104.4,311.8 L104.6,311.3 L104.8,310.7 L104.9,310.1 L105.1,309.5 L105.3,308.9 L105.4,308.3 L105.6,307.7 L105.8,307 L105.9,306.3 L106.1,305.6 L106.3,304.9 L106.4,304.1 L106.6,303.4 L106.8,302.5 L106.9,301.7 L107.1,300.8 L107.3,299.9 L107.4,298.9 L107.6,297.9 L107.8,296.9 L107.9,295.8 L108.1,294.6 L108.3,293.4 L108.4,292.1 L108.6,290.6 L108.8,289.1 L108.9,287.5 L109.1,285.7 L109.3,283.8 L109.4,281.6 L109.6,279.1 L109.8,276.3 L109.9,273 L110.1,269 L110.3,263.8 L110.4,256.6 L110.6,244.3 " fill="none"/></g>
</g>
<g id="plotPoints" clip-path="url(#plot_window)"><g stroke="rgb(0,0,0)" fill="rgb(0,0,0)"></g>
<g stroke="rgb(0,0,0)" fill="rgb(0,0,0)"></g>
<g stroke="rgb(0,0,0)" fill="rgb(0,0,0)"></g>
<g stroke="rgb(0,0,0)" fill="rgb(0,0,0)"></g>
<g stroke="rgb(0,0,0)" fill="rgb(0,0,0)"></g>
<g stroke="rgb(0,0,0)" fill="rgb(0,0,0)"></g>
</g>
<g id="limitPoints" stroke="rgb(119,136,153)" fill="rgb(250,235,215)"></g>
<g id="legendBackground"></g>
<g id="legendPoints"></g>
<g id="legendText" fill="rgb(0,0,0)"></g>
<g id="title" fill="rgb(0,0,0)">
<text x="300" y="32" text-anchor="middle" font-size="16" font-family="Verdana">lgamma</text></g>
</svg>
