<?xml version="1.0" encoding="UTF-8" standalone="no"?><!DOCTYPE svg PUBLIC "-//W3C//DTD SVG 1.1//EN" "http://www.w3.org/graphics/svg/1.1/dtd/svg11.dtd">
<svg width="800" height ="600" version="1.1" xmlns="http://www.w3.org/2000/svg"
 xmlns:xlink="http://www.w3.org/1999/xlink"
 xmlns:ev="http://www.w3.org/2001/xml-events">

<!-- SVG plot written using Boost.Plot program (Creator Jacob Voytko) --> 
<!-- Use, modification and distribution of Boost.Plot subject to the --> 
<!-- Boost Software License, Version 1.0.--> 
<!-- (See accompanying file LICENSE_1_0.txt --> 
<!-- or copy at http://www.boost.org/LICENSE_1_0.txt) --> 

<clipPath id="plot_window"><rect x="43" y="62" width="745" height="495"/></clipPath>
<g id="imageBackground" stroke="rgb(250,240,230)" fill="rgb(255,255,255)" stroke-width="0.5"><rect x="0" y="0" width="800" height="600"/></g>
<g id="plotBackground" stroke="rgb(255,255,224)" fill="rgb(255,255,255)" stroke-width="1"><rect x="42" y="61" width="747" height="497"/></g>
<g id="yMinorGrid" stroke="rgb(200,220,255)" stroke-width="0.5"></g>
<g id="yMajorGrid" stroke="rgb(200,220,255)" stroke-width="1"></g>
<g id="xMinorGrid" stroke="rgb(200,220,255)" stroke-width="0.5"></g>
<g id="xMajorGrid" stroke="rgb(200,220,255)" stroke-width="1"></g>
<g id="yAxis" stroke="rgb(0,0,0)" stroke-width="1"><line x1="415.5" y1="61" x2="415.5" y2="568"/></g>
<g id="xAxis" stroke="rgb(0,0,0)" stroke-width="1"><line x1="32" y1="516.6" x2="789" y2="516.6"/></g>
<g id="yMinorTicks" stroke="rgb(0,0,0)" stroke-width="1"><path d="M410.5,506.2 L415.5,506.2 M410.5,495.8 L415.5,495.8 M410.5,485.4 L415.5,485.4 M410.5,475.1 L415.5,475.1 M410.5,454.3 L415.5,454.3 M410.5,443.9 L415.5,443.9 M410.5,433.5 L415.5,433.5 M410.5,423.1 L415.5,423.1 M410.5,402.4 L415.5,402.4 M410.5,392 L415.5,392 M410.5,381.6 L415.5,381.6 M410.5,371.2 L415.5,371.2 M410.5,350.5 L415.5,350.5 M410.5,340.1 L415.5,340.1 M410.5,329.7 L415.5,329.7 M410.5,319.3 L415.5,319.3 M410.5,298.6 L415.5,298.6 M410.5,288.2 L415.5,288.2 M410.5,277.8 L415.5,277.8 M410.5,267.4 L415.5,267.4 M410.5,246.7 L415.5,246.7 M410.5,236.3 L415.5,236.3 M410.5,225.9 L415.5,225.9 M410.5,215.5 L415.5,215.5 M410.5,194.8 L415.5,194.8 M410.5,184.4 L415.5,184.4 M410.5,174 L415.5,174 M410.5,163.6 L415.5,163.6 M410.5,142.8 L415.5,142.8 M410.5,132.5 L415.5,132.5 M410.5,122.1 L415.5,122.1 M410.5,111.7 L415.5,111.7 M410.5,90.94 L415.5,90.94 M410.5,80.56 L415.5,80.56 M410.5,70.17 L415.5,70.17 M410.5,527 L415.5,527 M410.5,537.3 L415.5,537.3 M410.5,547.7 L415.5,547.7 "/></g>
<g id="xMinorTicks" stroke="rgb(0,0,0)" stroke-width="1"><path d="M428.2,516.6 L428.2,521.6 M440.9,516.6 L440.9,521.6 M453.7,516.6 L453.7,521.6 M466.4,516.6 L466.4,521.6 M491.8,516.6 L491.8,521.6 M504.5,516.6 L504.5,521.6 M517.2,516.6 L517.2,521.6 M529.9,516.6 L529.9,521.6 M555.4,516.6 L555.4,521.6 M568.1,516.6 L568.1,521.6 M580.8,516.6 L580.8,521.6 M593.5,516.6 L593.5,521.6 M619,516.6 L619,521.6 M631.7,516.6 L631.7,521.6 M644.4,516.6 L644.4,521.6 M657.1,516.6 L657.1,521.6 M682.5,516.6 L682.5,521.6 M695.2,516.6 L695.2,521.6 M708,516.6 L708,521.6 M720.7,516.6 L720.7,521.6 M746.1,516.6 L746.1,521.6 M758.8,516.6 L758.8,521.6 M771.5,516.6 L771.5,521.6 M784.3,516.6 L784.3,521.6 M402.8,516.6 L402.8,521.6 M390.1,516.6 L390.1,521.6 M377.4,516.6 L377.4,521.6 M364.6,516.6 L364.6,521.6 M339.2,516.6 L339.2,521.6 M326.5,516.6 L326.5,521.6 M313.8,516.6 L313.8,521.6 M301.1,516.6 L301.1,521.6 M275.6,516.6 L275.6,521.6 M262.9,516.6 L262.9,521.6 M250.2,516.6 L250.2,521.6 M237.5,516.6 L237.5,521.6 M212.1,516.6 L212.1,521.6 M199.3,516.6 L199.3,521.6 M186.6,516.6 L186.6,521.6 M173.9,516.6 L173.9,521.6 M148.5,516.6 L148.5,521.6 M135.8,516.6 L135.8,521.6 M123,516.6 L123,521.6 M110.3,516.6 L110.3,521.6 M84.9,516.6 L84.9,521.6 M72.18,516.6 L72.18,521.6 M59.46,516.6 L59.46,521.6 M46.75,516.6 L46.75,521.6 "/></g>
<g id="yMajorTicks" stroke="rgb(0,0,0)" stroke-width="2"><path d="M405.5,464.7 L415.5,464.7 M405.5,412.8 L415.5,412.8 M405.5,360.9 L415.5,360.9 M405.5,309 L415.5,309 M405.5,257 L415.5,257 M405.5,205.1 L415.5,205.1 M405.5,153.2 L415.5,153.2 M405.5,101.3 L415.5,101.3 "/></g>
<g id="xMajorTicks" stroke="rgb(0,0,0)" stroke-width="2"><path d="M479.1,516.6 L479.1,526.6 M542.7,516.6 L542.7,526.6 M606.2,516.6 L606.2,526.6 M669.8,516.6 L669.8,526.6 M733.4,516.6 L733.4,526.6 M351.9,516.6 L351.9,526.6 M288.3,516.6 L288.3,526.6 M224.8,516.6 L224.8,526.6 M161.2,516.6 L161.2,526.6 M97.61,516.6 L97.61,526.6 "/></g>
<g id="plotLabels" fill="rgb(0,0,0)"><text x="479.1" y="544.6" text-anchor="middle" font-family="Verdana" font-size="12">1</text><text x="542.7" y="544.6" text-anchor="middle" font-family="Verdana" font-size="12">2</text><text x="606.2" y="544.6" text-anchor="middle" font-family="Verdana" font-size="12">3</text><text x="669.8" y="544.6" text-anchor="middle" font-family="Verdana" font-size="12">4</text><text x="733.4" y="544.6" text-anchor="middle" font-family="Verdana" font-size="12">5</text><text x="351.9" y="544.6" text-anchor="middle" font-family="Verdana" font-size="12">-1</text><text x="288.3" y="544.6" text-anchor="middle" font-family="Verdana" font-size="12">-2</text><text x="224.8" y="544.6" text-anchor="middle" font-family="Verdana" font-size="12">-3</text><text x="161.2" y="544.6" text-anchor="middle" font-family="Verdana" font-size="12">-4</text><text x="97.61" y="544.6" text-anchor="middle" font-family="Verdana" font-size="12">-5</text><text x="393.5" y="470.7" text-anchor="middle" font-family="Verdana" font-size="12">0.1</text><text x="393.5" y="418.8" text-anchor="middle" font-family="Verdana" font-size="12">0.2</text><text x="393.5" y="366.9" text-anchor="middle" font-family="Verdana" font-size="12">0.3</text><text x="393.5" y="315" text-anchor="middle" font-family="Verdana" font-size="12">0.4</text><text x="393.5" y="263" text-anchor="middle" font-family="Verdana" font-size="12">0.5</text><text x="393.5" y="211.1" text-anchor="middle" font-family="Verdana" font-size="12">0.6</text><text x="393.5" y="159.2" text-anchor="middle" font-family="Verdana" font-size="12">0.7</text><text x="393.5" y="107.3" text-anchor="middle" font-family="Verdana" font-size="12">0.8</text></g>
<g id="yLabel" fill="rgb(0,0,0)"><text x="21" y="309.5" text-anchor="middle" transform = "rotate(-90 21 309.5 )" font-family="Verdana" font-size="14">Probability</text></g>
<g id="xLabel" fill="rgb(0,0,0)"><text x="415.5" y="586" text-anchor="middle" font-family="Verdana" font-size="14">Random Variable</text></g>
<g id="plotLines" stroke-width="2"><g clip-path="url(#plot_window)" stroke="rgb(0,0,139)"><path d="M104.3,516.6 S114.2,516.6 116.7,516.6 S126.7,516.6 129.2,516.6 S139.1,516.6 141.6,516.6 S151.6,516.5 154.1,516.5 S164,516.5 166.5,516.5 S176.5,516.4 179,516.4 S188.9,516.2 191.4,516.2 S201.4,515.9 203.9,515.8 S213.8,515.3 216.3,515.1 S226.3,514.1 228.8,513.8 S238.7,512.3 241.2,511.8 S251.2,509.3 253.7,508.5 S263.6,504.7 266.1,503.5 S276.1,498 278.6,496.2 S288.5,488.5 291,486.1 S301,475.8 303.4,472.8 S313.4,459.6 315.9,455.9 S325.9,440 328.3,435.7 S338.3,417.5 340.8,412.7 S350.8,393.2 353.3,388.4 S363.2,368.8 365.7,364.2 S375.7,346.3 378.1,342.3 S388.1,327.7 390.6,324.8 S400.6,315 403,313.4 S413,309.5 415.5,309.5 S425.5,311.9 427.9,313.4 S437.9,321.9 440.4,324.8 S450.4,338.4 452.8,342.3 S462.8,359.6 465.3,364.2 S475.3,383.5 477.8,388.3 S487.7,408 490.2,412.7 S500.2,431.3 502.6,435.6 S512.6,452.2 515.1,455.9 S525.1,469.7 527.5,472.8 S537.5,483.8 540,486.1 S550,494.5 552.4,496.2 S562.4,502.3 564.9,503.5 S574.9,507.6 577.3,508.5 S587.3,511.2 589.8,511.8 S599.8,513.5 602.3,513.8 S612.2,514.9 614.7,515.1 S624.7,515.7 627.1,515.8 S637.1,516.1 639.6,516.2 S649.6,516.3 652,516.4 S662,516.5 664.5,516.5 S674.5,516.5 676.9,516.5 S686.9,516.6 689.4,516.6 S699.4,516.6 701.8,516.6 S714.3,516.6 714.3,516.6 " fill="none"/></g>
<g clip-path="url(#plot_window)" stroke="rgb(139,0,0)"><path d="M104.3,516.6 S114.2,516.6 116.7,516.6 S126.7,516.6 129.2,516.6 S139.1,516.6 141.6,516.6 S151.6,516.6 154.1,516.6 S164,516.6 166.5,516.6 S176.5,516.6 179,516.6 S188.9,516.6 191.4,516.6 S201.4,516.6 203.9,516.6 S213.8,516.6 216.3,516.6 S226.3,516.6 228.8,516.6 S238.7,516.6 241.2,516.6 S251.2,516.6 253.7,516.6 S263.6,516.6 266.1,516.6 S276.1,516.6 278.6,516.5 S288.5,516.5 291,516.4 S301,516 303.4,515.8 S313.4,514.4 315.9,513.5 S325.9,509.2 328.3,506.9 S338.3,495.5 340.8,490.4 S350.8,465.2 353.3,455.7 S363.2,409.9 365.7,395.2 S375.7,327.3 378.1,308.9 S388.1,229.4 390.6,211.9 S400.6,144 403,133 S413,102.4 415.5,102.4 S425.5,122 427.9,133 S437.9,194.2 440.4,211.8 S450.4,290.5 452.8,308.9 S462.8,380.5 465.3,395.1 S475.3,446.2 477.8,455.7 S487.7,485.3 490.2,490.4 S500.2,504.6 502.6,506.9 S512.6,512.6 515.1,513.5 S525.1,515.5 527.5,515.8 S537.5,516.3 540,516.4 S550,516.5 552.4,516.5 S562.4,516.6 564.9,516.6 S574.9,516.6 577.3,516.6 S587.3,516.6 589.8,516.6 S599.8,516.6 602.3,516.6 S612.2,516.6 614.7,516.6 S624.7,516.6 627.1,516.6 S637.1,516.6 639.6,516.6 S649.6,516.6 652,516.6 S662,516.6 664.5,516.6 S674.5,516.6 676.9,516.6 S686.9,516.6 689.4,516.6 S699.4,516.6 701.8,516.6 S714.3,516.6 714.3,516.6 " fill="none"/></g>
<g clip-path="url(#plot_window)" stroke="rgb(0,100,0)"><path d="M104.3,511.4 S114.2,510.3 116.7,510 S126.7,508.7 129.2,508.4 S139.1,506.8 141.6,506.4 S151.6,504.6 154.1,504.1 S164,501.9 166.5,501.4 S176.5,498.9 179,498.2 S188.9,495.4 191.4,494.7 S201.4,491.5 203.9,490.7 S213.8,487.2 216.3,486.2 S226.3,482.4 228.8,481.4 S238.7,477.2 241.2,476.1 S251.2,471.7 253.7,470.5 S263.6,465.9 266.1,464.7 S276.1,459.8 278.6,458.6 S288.5,453.7 291,452.5 S301,447.6 303.4,446.4 S313.4,441.6 315.9,440.4 S325.9,435.8 328.3,434.7 S338.3,430.5 340.8,429.5 S350.8,425.6 353.3,424.7 S363.2,421.4 365.7,420.7 S375.7,418 378.1,417.4 S388.1,415.4 390.6,415 S400.6,413.7 403,413.5 S413,413 415.5,413 S425.5,413.3 427.9,413.5 S437.9,414.6 440.4,415 S450.4,416.8 452.8,417.4 S462.8,420 465.3,420.7 S475.3,423.9 477.8,424.7 S487.7,428.5 490.2,429.5 S500.2,433.6 502.6,434.7 S512.6,439.2 515.1,440.4 S525.1,445.1 527.5,446.4 S537.5,451.2 540,452.5 S550,457.4 552.4,458.6 S562.4,463.5 564.9,464.7 S574.9,469.4 577.3,470.5 S587.3,475 589.8,476.1 S599.8,480.4 602.3,481.4 S612.2,485.3 614.7,486.2 S624.7,489.8 627.1,490.7 S637.1,493.9 639.6,494.7 S649.6,497.6 652,498.2 S662,500.8 664.5,501.4 S674.5,503.6 676.9,504.1 S686.9,506 689.4,506.4 S699.4,508 701.8,508.4 S714.3,510.2 714.3,510 " fill="none"/></g>
<g clip-path="url(#plot_window)" stroke="rgb(255,140,0)"><path d="M104.3,516.5 S114.2,516.4 116.7,516.4 S126.7,516.2 129.2,516.1 S139.1,515.8 141.6,515.7 S151.6,515.2 154.1,515 S164,514 166.5,513.6 S176.5,512 179,511.5 S188.9,508.9 191.4,508 S201.4,504.1 203.9,502.8 S213.8,497.1 216.3,495.3 S226.3,487.3 228.8,484.9 S238.7,474.2 241.2,471.1 S251.2,457.7 253.7,453.9 S263.6,437.7 266.1,433.3 S276.1,414.9 278.6,410.2 S288.5,390.6 291,385.7 S301,366.3 303.4,361.7 S313.4,344.1 315.9,340.2 S325.9,326 328.3,323.3 S338.3,314 340.8,312.6 S350.8,309.4 353.3,309.5 S363.2,312.6 365.7,314.3 S375.7,323.4 378.1,326.4 S388.1,340.4 390.6,344.5 S400.6,362.1 403,366.7 S413,386.1 415.5,391 S425.5,410.6 427.9,415.3 S437.9,433.7 440.4,437.9 S450.4,454.2 452.8,457.8 S462.8,471.4 465.3,474.4 S475.3,485.1 477.8,487.4 S487.7,495.5 490.2,497.1 S500.2,502.9 502.6,504.1 S512.6,508.1 515.1,508.9 S525.1,511.5 527.5,512 S537.5,513.7 540,514 S550,515 552.4,515.2 S562.4,515.7 564.9,515.8 S574.9,516.1 577.3,516.2 S587.3,516.4 589.8,516.4 S599.8,516.5 602.3,516.5 S612.2,516.5 614.7,516.5 S624.7,516.6 627.1,516.6 S637.1,516.6 639.6,516.6 S649.6,516.6 652,516.6 S662,516.6 664.5,516.6 S674.5,516.6 676.9,516.6 S686.9,516.6 689.4,516.6 S699.4,516.6 701.8,516.6 S714.3,516.6 714.3,516.6 " fill="none"/></g>
<g clip-path="url(#plot_window)" stroke="rgb(127,255,0)"><path d="M104.3,516.6 S114.2,516.6 116.7,516.6 S126.7,516.6 129.2,516.6 S139.1,516.6 141.6,516.6 S151.6,516.6 154.1,516.6 S164,516.6 166.5,516.6 S176.5,516.6 179,516.6 S188.9,516.6 191.4,516.6 S201.4,516.6 203.9,516.6 S213.8,516.6 216.3,516.5 S226.3,516.5 228.8,516.5 S238.7,516.4 241.2,516.4 S251.2,516.3 253.7,516.2 S263.6,515.9 266.1,515.8 S276.1,515.3 278.6,515.2 S288.5,514.3 291,514 S301,512.5 303.4,512 S313.4,509.7 315.9,508.9 S325.9,505.3 328.3,504.1 S338.3,498.8 340.8,497.1 S350.8,489.6 353.3,487.4 S363.2,477.3 365.7,474.4 S375.7,461.5 378.1,457.8 S388.1,442.2 390.6,438 S400.6,420 403,415.3 S413,395.8 415.5,391 S425.5,371.4 427.9,366.7 S437.9,348.5 440.4,344.5 S450.4,329.4 452.8,326.4 S462.8,316 465.3,314.3 S475.3,309.7 477.8,309.5 S487.7,311.3 490.2,312.6 S500.2,320.5 502.6,323.2 S512.6,336.4 515.1,340.2 S525.1,357.2 527.5,361.7 S537.5,380.9 540,385.7 S550,405.4 552.4,410.2 S562.4,428.9 564.9,433.3 S574.9,450.1 577.3,453.9 S587.3,468 589.8,471.1 S599.8,482.5 602.3,484.9 S612.2,493.5 614.7,495.3 S624.7,501.6 627.1,502.8 S637.1,507.2 639.6,508 S649.6,510.9 652,511.5 S662,513.3 664.5,513.6 S674.5,514.7 676.9,515 S686.9,515.6 689.4,515.7 S699.4,516.1 701.8,516.1 S714.3,516.4 714.3,516.4 " fill="none"/></g>
</g>
<g id="plotPoints" clip-path="url(#plot_window)"><g stroke="rgb(0,0,0)" fill="rgb(255,255,255)"></g>
<g stroke="rgb(0,0,0)" fill="rgb(255,255,255)"></g>
<g stroke="rgb(0,0,0)" fill="rgb(255,255,255)"></g>
<g stroke="rgb(0,0,0)" fill="rgb(255,255,255)"></g>
<g stroke="rgb(0,0,0)" fill="rgb(255,255,255)"></g>
</g>
<g id="limitPoints" stroke="rgb(119,136,153)" fill="rgb(250,235,215)"></g>
<g id="legendBackground" stroke="rgb(0,0,0)" fill="rgb(255,255,255)"><rect x="500" y="150" width="219" height="165"/><rect x="500" y="150" width="219" height="165"/></g>
<g id="legendPoints"><g stroke="rgb(0,0,139)" stroke-width="2"><line x1="507.5" y1="172.5" x2="530" y2="172.5"/></g>
<g stroke="rgb(139,0,0)" stroke-width="2"><line x1="507.5" y1="202.5" x2="530" y2="202.5"/></g>
<g stroke="rgb(0,100,0)" stroke-width="2"><line x1="507.5" y1="232.5" x2="530" y2="232.5"/></g>
<g stroke="rgb(255,140,0)" stroke-width="2"><line x1="507.5" y1="262.5" x2="530" y2="262.5"/></g>
<g stroke="rgb(127,255,0)" stroke-width="2"><line x1="507.5" y1="292.5" x2="530" y2="292.5"/></g>
</g>
<g id="legendText" fill="rgb(0,0,0)"><text x="537.5" y="172.5" text-anchor="start" font-family="Verdana" font-size="15">Mean = 0, SD = 1</text><text x="537.5" y="202.5" text-anchor="start" font-family="Verdana" font-size="15">Mean = 0, SD = 0.5</text><text x="537.5" y="232.5" text-anchor="start" font-family="Verdana" font-size="15">Mean = 0, SD = 2</text><text x="537.5" y="262.5" text-anchor="start" font-family="Verdana" font-size="15">Mean = -1, SD = 1</text><text x="537.5" y="292.5" text-anchor="start" font-family="Verdana" font-size="15">Mean = 1, SD = 1</text></g>
<g id="title" fill="rgb(0,0,0)"><text x="400" y="40.67" text-anchor="middle" font-family="Verdana" font-size="20">Normal - Probability Distribution Function (PDF)</text></g>
</svg>
