<?xml version="1.0" encoding="UTF-8" standalone="no"?><!DOCTYPE svg PUBLIC "-//W3C//DTD SVG 1.1//EN" "http://www.w3.org/graphics/svg/1.1/dtd/svg11.dtd">
<svg width="800" height ="600" version="1.1" xmlns="http://www.w3.org/2000/svg"
 xmlns:xlink="http://www.w3.org/1999/xlink"
 xmlns:ev="http://www.w3.org/2001/xml-events">

<!-- SVG plot written using Boost.Plot program (Creator Jacob Voytko) --> 
<!-- Use, modification and distribution of Boost.Plot subject to the --> 
<!-- Boost Software License, Version 1.0.--> 
<!-- (See accompanying file LICENSE_1_0.txt --> 
<!-- or copy at http://www.boost.org/LICENSE_1_0.txt) --> 

<clipPath id="plot_window"><rect x="43" y="62" width="745" height="495"/></clipPath>
<g id="imageBackground" stroke="rgb(250,240,230)" fill="rgb(255,255,255)" stroke-width="0.5"><rect x="0" y="0" width="800" height="600"/></g>
<g id="plotBackground" stroke="rgb(255,255,224)" fill="rgb(255,255,255)" stroke-width="1"><rect x="42" y="61" width="747" height="497"/></g>
<g id="yMinorGrid" stroke="rgb(200,220,255)" stroke-width="0.5"></g>
<g id="yMajorGrid" stroke="rgb(200,220,255)" stroke-width="1"></g>
<g id="xMinorGrid" stroke="rgb(200,220,255)" stroke-width="0.5"></g>
<g id="xMajorGrid" stroke="rgb(200,220,255)" stroke-width="1"></g>
<g id="yAxis" stroke="rgb(0,0,0)" stroke-width="1"><line x1="104.3" y1="61" x2="104.3" y2="568"/></g>
<g id="xAxis" stroke="rgb(0,0,0)" stroke-width="1"><line x1="32" y1="516.6" x2="789" y2="516.6"/></g>
<g id="yMinorTicks" stroke="rgb(0,0,0)" stroke-width="1"><path d="M99.25,499 L104.3,499 M99.25,481.4 L104.3,481.4 M99.25,463.8 L104.3,463.8 M99.25,446.2 L104.3,446.2 M99.25,411 L104.3,411 M99.25,393.5 L104.3,393.5 M99.25,375.9 L104.3,375.9 M99.25,358.3 L104.3,358.3 M99.25,323.1 L104.3,323.1 M99.25,305.5 L104.3,305.5 M99.25,287.9 L104.3,287.9 M99.25,270.3 L104.3,270.3 M99.25,235.1 L104.3,235.1 M99.25,217.6 L104.3,217.6 M99.25,200 L104.3,200 M99.25,182.4 L104.3,182.4 M99.25,147.2 L104.3,147.2 M99.25,129.6 L104.3,129.6 M99.25,112 L104.3,112 M99.25,94.43 L104.3,94.43 M99.25,534.2 L104.3,534.2 M99.25,551.8 L104.3,551.8 "/></g>
<g id="xMinorTicks" stroke="rgb(0,0,0)" stroke-width="1"><path d="M112.6,516.6 L112.6,521.6 M120.9,516.6 L120.9,521.6 M129.2,516.6 L129.2,521.6 M137.5,516.6 L137.5,521.6 M154.2,516.6 L154.2,521.6 M162.5,516.6 L162.5,521.6 M170.8,516.6 L170.8,521.6 M179.1,516.6 L179.1,521.6 M195.8,516.6 L195.8,521.6 M204.1,516.6 L204.1,521.6 M212.4,516.6 L212.4,521.6 M220.7,516.6 L220.7,521.6 M237.3,516.6 L237.3,521.6 M245.7,516.6 L245.7,521.6 M254,516.6 L254,521.6 M262.3,516.6 L262.3,521.6 M278.9,516.6 L278.9,521.6 M287.3,516.6 L287.3,521.6 M295.6,516.6 L295.6,521.6 M303.9,516.6 L303.9,521.6 M320.5,516.6 L320.5,521.6 M328.8,516.6 L328.8,521.6 M337.2,516.6 L337.2,521.6 M345.5,516.6 L345.5,521.6 M362.1,516.6 L362.1,521.6 M370.4,516.6 L370.4,521.6 M378.8,516.6 L378.8,521.6 M387.1,516.6 L387.1,521.6 M403.7,516.6 L403.7,521.6 M412,516.6 L412,521.6 M420.3,516.6 L420.3,521.6 M428.7,516.6 L428.7,521.6 M445.3,516.6 L445.3,521.6 M453.6,516.6 L453.6,521.6 M461.9,516.6 L461.9,521.6 M470.3,516.6 L470.3,521.6 M486.9,516.6 L486.9,521.6 M495.2,516.6 L495.2,521.6 M503.5,516.6 L503.5,521.6 M511.8,516.6 L511.8,521.6 M528.5,516.6 L528.5,521.6 M536.8,516.6 L536.8,521.6 M545.1,516.6 L545.1,521.6 M553.4,516.6 L553.4,521.6 M570.1,516.6 L570.1,521.6 M578.4,516.6 L578.4,521.6 M586.7,516.6 L586.7,521.6 M595,516.6 L595,521.6 M611.7,516.6 L611.7,521.6 M620,516.6 L620,521.6 M628.3,516.6 L628.3,521.6 M636.6,516.6 L636.6,521.6 M653.3,516.6 L653.3,521.6 M661.6,516.6 L661.6,521.6 M669.9,516.6 L669.9,521.6 M678.2,516.6 L678.2,521.6 M694.8,516.6 L694.8,521.6 M703.2,516.6 L703.2,521.6 M711.5,516.6 L711.5,521.6 M719.8,516.6 L719.8,521.6 M736.4,516.6 L736.4,521.6 M744.8,516.6 L744.8,521.6 M753.1,516.6 L753.1,521.6 M761.4,516.6 L761.4,521.6 M778,516.6 L778,521.6 M786.3,516.6 L786.3,521.6 M95.93,516.6 L95.93,521.6 M87.61,516.6 L87.61,521.6 M79.3,516.6 L79.3,521.6 M70.98,516.6 L70.98,521.6 M54.34,516.6 L54.34,521.6 M46.02,516.6 L46.02,521.6 "/></g>
<g id="yMajorTicks" stroke="rgb(0,0,0)" stroke-width="2"><path d="M94.25,428.6 L104.3,428.6 M94.25,340.7 L104.3,340.7 M94.25,252.7 L104.3,252.7 M94.25,164.8 L104.3,164.8 M94.25,76.84 L104.3,76.84 "/></g>
<g id="xMajorTicks" stroke="rgb(0,0,0)" stroke-width="2"><path d="M145.8,516.6 L145.8,526.6 M187.4,516.6 L187.4,526.6 M229,516.6 L229,526.6 M270.6,516.6 L270.6,526.6 M312.2,516.6 L312.2,526.6 M353.8,516.6 L353.8,526.6 M395.4,516.6 L395.4,526.6 M437,516.6 L437,526.6 M478.6,516.6 L478.6,526.6 M520.2,516.6 L520.2,526.6 M561.8,516.6 L561.8,526.6 M603.3,516.6 L603.3,526.6 M644.9,516.6 L644.9,526.6 M686.5,516.6 L686.5,526.6 M728.1,516.6 L728.1,526.6 M769.7,516.6 L769.7,526.6 M62.66,516.6 L62.66,526.6 "/></g>
<g id="plotLabels" fill="rgb(0,0,0)"><text x="145.8" y="544.6" text-anchor="middle" font-family="Verdana" font-size="12">1</text><text x="187.4" y="544.6" text-anchor="middle" font-family="Verdana" font-size="12">2</text><text x="229" y="544.6" text-anchor="middle" font-family="Verdana" font-size="12">3</text><text x="270.6" y="544.6" text-anchor="middle" font-family="Verdana" font-size="12">4</text><text x="312.2" y="544.6" text-anchor="middle" font-family="Verdana" font-size="12">5</text><text x="353.8" y="544.6" text-anchor="middle" font-family="Verdana" font-size="12">6</text><text x="395.4" y="544.6" text-anchor="middle" font-family="Verdana" font-size="12">7</text><text x="437" y="544.6" text-anchor="middle" font-family="Verdana" font-size="12">8</text><text x="478.6" y="544.6" text-anchor="middle" font-family="Verdana" font-size="12">9</text><text x="520.2" y="544.6" text-anchor="middle" font-family="Verdana" font-size="12">10</text><text x="561.8" y="544.6" text-anchor="middle" font-family="Verdana" font-size="12">11</text><text x="603.3" y="544.6" text-anchor="middle" font-family="Verdana" font-size="12">12</text><text x="644.9" y="544.6" text-anchor="middle" font-family="Verdana" font-size="12">13</text><text x="686.5" y="544.6" text-anchor="middle" font-family="Verdana" font-size="12">14</text><text x="728.1" y="544.6" text-anchor="middle" font-family="Verdana" font-size="12">15</text><text x="769.7" y="544.6" text-anchor="middle" font-family="Verdana" font-size="12">16</text><text x="62.66" y="544.6" text-anchor="middle" font-family="Verdana" font-size="12">-1</text><text x="82.25" y="434.6" text-anchor="middle" font-family="Verdana" font-size="12">1</text><text x="82.25" y="346.7" text-anchor="middle" font-family="Verdana" font-size="12">2</text><text x="82.25" y="258.7" text-anchor="middle" font-family="Verdana" font-size="12">3</text><text x="82.25" y="170.8" text-anchor="middle" font-family="Verdana" font-size="12">4</text><text x="82.25" y="82.84" text-anchor="middle" font-family="Verdana" font-size="12">5</text></g>
<g id="yLabel" fill="rgb(0,0,0)"><text x="21" y="309.5" text-anchor="middle" transform = "rotate(-90 21 309.5 )" font-family="Verdana" font-size="14">Probability</text></g>
<g id="xLabel" fill="rgb(0,0,0)"><text x="415.5" y="586" text-anchor="middle" font-family="Verdana" font-size="14">Random Variable</text></g>
<g id="plotLines" stroke-width="2"><g clip-path="url(#plot_window)" stroke="rgb(0,0,139)"><path d="M104.3,76.84 S114.2,376.4 116.7,418.1 S126.7,485.2 129.2,494.5 S139.1,509.6 141.6,511.6 S151.6,515 154,515.5 S164,516.2 166.5,516.3 S176.5,516.5 178.9,516.5 S188.9,516.6 191.4,516.6 S201.4,516.6 203.8,516.6 S213.8,516.6 216.3,516.6 S226.3,516.6 228.8,516.6 S238.7,516.6 241.2,516.6 S251.2,516.6 253.6,516.6 S263.6,516.6 266.1,516.6 S276.1,516.6 278.5,516.6 S288.5,516.6 291,516.6 S301,516.6 303.4,516.6 S313.4,516.6 315.9,516.6 S325.9,516.6 328.3,516.6 S338.3,516.6 340.8,516.6 S350.8,516.6 353.3,516.6 S363.2,516.6 365.7,516.6 S375.7,516.6 378.1,516.6 S388.1,516.6 390.6,516.6 S400.6,516.6 403,516.6 S413,516.6 415.5,516.6 S425.5,516.6 427.9,516.6 S437.9,516.6 440.4,516.6 S450.4,516.6 452.8,516.6 S462.8,516.6 465.3,516.6 S475.3,516.6 477.7,516.6 S487.7,516.6 490.2,516.6 S500.2,516.6 502.6,516.6 S512.6,516.6 515.1,516.6 S525.1,516.6 527.5,516.6 S537.5,516.6 540,516.6 S550,516.6 552.4,516.6 S562.4,516.6 564.9,516.6 S574.9,516.6 577.3,516.6 S587.3,516.6 589.8,516.6 S599.8,516.6 602.2,516.6 S612.2,516.6 614.7,516.6 S624.7,516.6 627.1,516.6 S637.1,516.6 639.6,516.6 S649.6,516.6 652,516.6 S662,516.6 664.5,516.6 S674.5,516.6 676.9,516.6 S686.9,516.6 689.4,516.6 S699.4,516.6 701.8,516.6 S711.8,516.6 714.3,516.6 S726.7,516.6 726.7,516.6 " fill="none"/></g>
<g clip-path="url(#plot_window)" stroke="rgb(139,0,0)"><path d="M104.3,428.6 S114.2,447.4 116.7,451.4 S126.7,465.3 129.2,468.3 S139.1,478.6 141.6,480.8 S151.6,488.4 154,490 S164,495.7 166.5,496.9 S176.5,501.1 178.9,502 S188.9,505.1 191.4,505.8 S201.4,508.1 203.8,508.6 S213.8,510.3 216.3,510.6 S226.3,511.9 228.8,512.2 S238.7,513.1 241.2,513.3 S251.2,514 253.6,514.2 S263.6,514.7 266.1,514.8 S276.1,515.2 278.5,515.3 S288.5,515.5 291,515.6 S301,515.8 303.4,515.9 S313.4,516 315.9,516 S325.9,516.2 328.3,516.2 S338.3,516.3 340.8,516.3 S350.8,516.3 353.3,516.4 S363.2,516.4 365.7,516.4 S375.7,516.5 378.1,516.5 S388.1,516.5 390.6,516.5 S400.6,516.5 403,516.5 S413,516.5 415.5,516.5 S425.5,516.5 427.9,516.5 S437.9,516.6 440.4,516.6 S450.4,516.6 452.8,516.6 S462.8,516.6 465.3,516.6 S475.3,516.6 477.7,516.6 S487.7,516.6 490.2,516.6 S500.2,516.6 502.6,516.6 S512.6,516.6 515.1,516.6 S525.1,516.6 527.5,516.6 S537.5,516.6 540,516.6 S550,516.6 552.4,516.6 S562.4,516.6 564.9,516.6 S574.9,516.6 577.3,516.6 S587.3,516.6 589.8,516.6 S599.8,516.6 602.2,516.6 S612.2,516.6 614.7,516.6 S624.7,516.6 627.1,516.6 S637.1,516.6 639.6,516.6 S649.6,516.6 652,516.6 S662,516.6 664.5,516.6 S674.5,516.6 676.9,516.6 S686.9,516.6 689.4,516.6 S699.4,516.6 701.8,516.6 S711.8,516.6 714.3,516.6 S726.7,516.6 726.7,516.6 " fill="none"/></g>
<g clip-path="url(#plot_window)" stroke="rgb(0,100,0)"><path d="M104.3,499 S114.2,499.8 116.7,500 S126.7,500.8 129.2,501 S139.1,501.7 141.6,501.9 S151.6,502.6 154,502.7 S164,503.4 166.5,503.5 S176.5,504.2 178.9,504.3 S188.9,504.9 191.4,505 S201.4,505.6 203.8,505.7 S213.8,506.2 216.3,506.3 S226.3,506.8 228.8,506.9 S238.7,507.4 241.2,507.5 S251.2,507.9 253.6,508 S263.6,508.4 266.1,508.5 S276.1,508.9 278.5,509 S288.5,509.3 291,509.4 S301,509.8 303.4,509.8 S313.4,510.2 315.9,510.2 S325.9,510.5 328.3,510.6 S338.3,510.9 340.8,510.9 S350.8,511.2 353.3,511.3 S363.2,511.5 365.7,511.6 S375.7,511.8 378.1,511.9 S388.1,512.1 390.6,512.1 S400.6,512.4 403,512.4 S413,512.6 415.5,512.6 S425.5,512.8 427.9,512.9 S437.9,513 440.4,513.1 S450.4,513.3 452.8,513.3 S462.8,513.4 465.3,513.5 S475.3,513.6 477.7,513.7 S487.7,513.8 490.2,513.8 S500.2,514 502.6,514 S512.6,514.1 515.1,514.1 S525.1,514.3 527.5,514.3 S537.5,514.4 540,514.4 S550,514.5 552.4,514.5 S562.4,514.6 564.9,514.7 S574.9,514.8 577.3,514.8 S587.3,514.9 589.8,514.9 S599.8,515 602.2,515 S612.2,515.1 614.7,515.1 S624.7,515.1 627.1,515.2 S637.1,515.2 639.6,515.2 S649.6,515.3 652,515.3 S662,515.4 664.5,515.4 S674.5,515.4 676.9,515.5 S686.9,515.5 689.4,515.5 S699.4,515.6 701.8,515.6 S711.8,515.6 714.3,515.6 S726.7,515.7 726.7,515.7 " fill="none"/></g>
</g>
<g id="plotPoints" clip-path="url(#plot_window)"><g stroke="rgb(0,0,0)" fill="rgb(255,255,255)"></g>
<g stroke="rgb(0,0,0)" fill="rgb(255,255,255)"></g>
<g stroke="rgb(0,0,0)" fill="rgb(255,255,255)"></g>
</g>
<g id="limitPoints" stroke="rgb(119,136,153)" fill="rgb(250,235,215)"></g>
<g id="legendBackground" stroke="rgb(0,0,0)" fill="rgb(255,255,255)"><rect x="500" y="150" width="145.5" height="105"/><rect x="500" y="150" width="145.5" height="105"/></g>
<g id="legendPoints"><g stroke="rgb(0,0,139)" stroke-width="2"><line x1="507.5" y1="172.5" x2="530" y2="172.5"/></g>
<g stroke="rgb(139,0,0)" stroke-width="2"><line x1="507.5" y1="202.5" x2="530" y2="202.5"/></g>
<g stroke="rgb(0,100,0)" stroke-width="2"><line x1="507.5" y1="232.5" x2="530" y2="232.5"/></g>
</g>
<g id="legendText" fill="rgb(0,0,0)"><text x="537.5" y="172.5" text-anchor="start" font-family="Verdana" font-size="15">shape = 0.2</text><text x="537.5" y="202.5" text-anchor="start" font-family="Verdana" font-size="15">shape = 1</text><text x="537.5" y="232.5" text-anchor="start" font-family="Verdana" font-size="15">shape = 5</text></g>
<g id="title" fill="rgb(0,0,0)"><text x="400" y="40.67" text-anchor="middle" font-family="Verdana" font-size="20">Weibull - Probability Distribution Function (PDF) Scale = 1</text></g>
</svg>
