<?xml version="1.0" encoding="UTF-8" standalone="no"?><!DOCTYPE svg PUBLIC "-//W3C//DTD SVG 1.1//EN" "http://www.w3.org/graphics/svg/1.1/dtd/svg11.dtd">
<svg width="600" height ="400" version="1.1" xmlns="http://www.w3.org/2000/svg"
 xmlns:xlink="http://www.w3.org/1999/xlink"
 xmlns:ev="http://www.w3.org/2001/xml-events">

<!-- SVG plot written using Boost.Plot program (Creator Jacob Voytko) --> 
<!-- Use, modification and distribution of Boost.Plot subject to the --> 
<!-- Boost Software License, Version 1.0.--> 
<!-- (See accompanying file LICENSE_1_0.txt --> 
<!-- or copy at http://www.boost.org/LICENSE_1_0.txt) --> 

<clipPath id="plot_window"><rect x="75" y="52" width="493" height="291"/></clipPath>
<g id="imageBackground" stroke="rgb(255,255,0)" fill="rgb(248,248,255)" stroke-width="1"><rect x="0" y="0" width="600" height="400"/></g>
<g id="plotBackground" stroke="rgb(255,255,0)" fill="rgb(255,255,255)" stroke-width="1"></g>
<g id="yMinorGrid" stroke="rgb(200,220,255)" stroke-width="0.5"></g>
<g id="yMajorGrid" stroke="rgb(200,220,255)" stroke-width="1"></g>
<g id="xMinorGrid" stroke="rgb(200,220,255)" stroke-width="0.5"></g>
<g id="xMajorGrid" stroke="rgb(200,220,255)" stroke-width="1"></g>
<g id="yAxis" stroke="rgb(0,0,0)" stroke-width="2"><line x1="74" y1="51" x2="74" y2="354"/></g>
<g id="xAxis" stroke="rgb(0,0,0)" stroke-width="2"><line x1="74" y1="341" x2="569" y2="341"/></g>
<g id="yMinorTicks" stroke="rgb(0,0,0)" stroke-width="1"><path d="M69,334 L74,334 M69,327 L74,327 M69,320 L74,320 M69,306 L74,306 M69,299 L74,299 M69,292 L74,292 M69,278 L74,278 M69,271 L74,271 M69,264 L74,264 M69,249 L74,249 M69,242 L74,242 M69,235 L74,235 M69,221 L74,221 M69,214 L74,214 M69,207 L74,207 M69,193 L74,193 M69,186 L74,186 M69,179 L74,179 M69,164 L74,164 M69,157 L74,157 M69,150 L74,150 M69,136 L74,136 M69,129 L74,129 M69,122 L74,122 M69,108 L74,108 M69,101 L74,101 M69,93.7 L74,93.7 M69,79.5 L74,79.5 M69,72.4 L74,72.4 M69,65.4 L74,65.4 M69,51.2 L74,51.2 M69,341 L74,341 "/></g>
<g id="xMinorTicks" stroke="rgb(0,0,0)" stroke-width="1"><path d="M89.5,341 L89.5,346 M121,341 L121,346 M152,341 L152,346 M215,341 L215,346 M246,341 L246,346 M278,341 L278,346 M340,341 L340,346 M372,341 L372,346 M403,341 L403,346 M465,341 L465,346 M497,341 L497,346 M528,341 L528,346 "/></g>
<g id="yMajorTicks" stroke="rgb(0,0,0)" stroke-width="2"><path d="M64,341 L74,341 M64,313 L74,313 M64,285 L74,285 M64,256 L74,256 M64,228 L74,228 M64,200 L74,200 M64,172 L74,172 M64,143 L74,143 M64,115 L74,115 M64,86.6 L74,86.6 M64,58.3 L74,58.3 M64,341 L74,341 "/></g>
<g id="xMajorTicks" stroke="rgb(0,0,0)" stroke-width="2"><path d="M184,341 L184,351 M309,341 L309,351 M434,341 L434,351 M559,341 L559,351 "/></g>
<g id="plotLabels" fill="rgb(0,0,0)"><text x="184" y="369" text-anchor="middle" font-family="Verdana" font-size="12">5</text><text x="309" y="369" text-anchor="middle" font-family="Verdana" font-size="12">10</text><text x="434" y="369" text-anchor="middle" font-family="Verdana" font-size="12">15</text><text x="559" y="369" text-anchor="middle" font-family="Verdana" font-size="12">20</text><text x="52" y="347" text-anchor="end" font-size="12">0</text><text x="52" y="319" text-anchor="end" font-size="12">10</text><text x="52" y="291" text-anchor="end" font-size="12">20</text><text x="52" y="262" text-anchor="end" font-size="12">30</text><text x="52" y="234" text-anchor="end" font-size="12">40</text><text x="52" y="206" text-anchor="end" font-size="12">50</text><text x="52" y="178" text-anchor="end" font-size="12">60</text><text x="52" y="149" text-anchor="end" font-size="12">70</text><text x="52" y="121" text-anchor="end" font-size="12">80</text><text x="52" y="92.6" text-anchor="end" font-size="12">90</text><text x="52" y="64.3" text-anchor="end" font-size="12">100</text><text x="52" y="347" text-anchor="end" font-size="12">0</text></g>
<g id="yLabel" fill="rgb(0,0,0)"><text x="21" y="198" text-anchor="middle" transform = "rotate(-90 21 198 )" font-family="Verdana" font-size="14">zeta(z)</text></g>
<g id="xLabel" fill="rgb(0,0,0)"><text x="322" y="386" text-anchor="middle" font-family="Verdana" font-size="14">z</text></g>
<g id="plotLines" stroke-width="2"><g clip-path="url(#plot_window)" stroke="rgb(0,0,139)"><path d="M83.5,56.6 L85.9,313 L88.3,326 L90.7,330 L93,332 L95.4,334 L97.8,335 L100,335 L103,336 L105,336 L107,337 L110,337 L112,337 L114,337 L117,337 L119,338 L122,338 L124,338 L126,338 L129,338 L131,338 L133,338 L136,338 L138,338 L141,338 L143,338 L145,338 L148,338 L150,338 L153,338 L155,338 L157,338 L160,338 L162,338 L164,338 L167,338 L169,338 L172,338 L174,338 L176,338 L179,338 L181,338 L183,338 L186,338 L188,338 L191,338 L193,338 L195,338 L198,338 L200,338 L203,339 L205,339 L207,339 L210,339 L212,339 L214,339 L217,339 L219,339 L222,339 L224,339 L226,339 L229,339 L231,339 L233,339 L236,339 L238,339 L241,339 L243,339 L245,339 L248,339 L250,339 L252,339 L255,339 L257,339 L260,339 L262,339 L264,339 L267,339 L269,339 L272,339 L274,339 L276,339 L279,339 L281,339 L283,339 L286,339 L288,339 L291,339 L293,339 L295,339 L298,339 L300,339 L302,339 L305,339 L307,339 L310,339 L312,339 L314,339 L317,339 L319,339 L322,339 L324,339 L326,339 L329,339 L331,339 L333,339 L336,339 L338,339 L341,339 L343,339 L345,339 L348,339 L350,339 L352,339 L355,339 L357,339 L360,339 L362,339 L364,339 L367,339 L369,339 L371,339 L374,339 L376,339 L379,339 L381,339 L383,339 L386,339 L388,339 L391,339 L393,339 L395,339 L398,339 L400,339 L402,339 L405,339 L407,339 L410,339 L412,339 L414,339 L417,339 L419,339 L421,339 L424,339 L426,339 L429,339 L431,339 L433,339 L436,339 L438,339 L440,339 L443,339 L445,339 L448,339 L450,339 L452,339 L455,339 L457,339 L460,339 L462,339 L464,339 L467,339 L469,339 L471,339 L474,339 L476,339 L479,339 L481,339 L483,339 L486,339 L488,339 L490,339 L493,339 L495,339 L498,339 L500,339 L502,339 L505,339 L507,339 L510,339 L512,339 L514,339 L517,339 L519,339 L521,339 L524,339 L526,339 L529,339 L531,339 L533,339 L536,339 L538,339 L540,339 L543,339 L545,339 L548,339 L550,339 L552,339 L555,339 L557,339 " fill="none"/></g>
</g>
<g id="plotPoints" clip-path="url(#plot_window)"><g stroke="rgb(0,0,0)" fill="rgb(255,255,255)"></g>
</g>
<g id="limitPoints" stroke="rgb(119,136,153)" fill="rgb(250,235,215)"></g>
<g id="legendBackground" stroke="rgb(0,0,0)" fill="rgb(255,255,255)"><rect x="609" y="91" width="30" height="45"/><rect x="609" y="91" width="30" height="45"/></g>
<g id="legendPoints"><g stroke="rgb(0,0,139)" stroke-width="2"><line x1="617" y1="121" x2="639" y2="121"/></g>
</g>
<g id="legendText" fill="rgb(0,0,0)"><text x="647" y="121" text-anchor="start" font-family="Verdana" font-size="15"></text></g>
<g id="title" fill="rgb(0,0,0)"><text x="300" y="40" text-anchor="middle" font-family="Verdana" font-size="20">Zeta Function Over [-20,20]</text></g>
</svg>
