<?xml version="1.0" encoding="UTF-8" standalone="no"?><!DOCTYPE svg PUBLIC "-//W3C//DTD SVG 1.1//EN" "http://www.w3.org/graphics/svg/1.1/dtd/svg11.dtd">
<svg width="600" height ="400" version="1.1" xmlns="http://www.w3.org/2000/svg"
 xmlns:xlink="http://www.w3.org/1999/xlink"
 xmlns:ev="http://www.w3.org/2001/xml-events">

<!-- SVG plot written using Boost.Plot program (Creator Jacob Voytko) --> 
<!-- Use, modification and distribution of Boost.Plot subject to the --> 
<!-- Boost Software License, Version 1.0.--> 
<!-- (See accompanying file LICENSE_1_0.txt --> 
<!-- or copy at http://www.boost.org/LICENSE_1_0.txt) --> 

<clipPath id="plot_window"><rect x="75" y="52" width="493" height="291"/></clipPath>
<g id="imageBackground" stroke="rgb(255,255,0)" fill="rgb(248,248,255)" stroke-width="1"><rect x="0" y="0" width="600" height="400"/></g>
<g id="plotBackground" stroke="rgb(255,255,0)" fill="rgb(255,255,255)" stroke-width="1"></g>
<g id="yMinorGrid" stroke="rgb(200,220,255)" stroke-width="0.5"></g>
<g id="yMajorGrid" stroke="rgb(200,220,255)" stroke-width="1"></g>
<g id="xMinorGrid" stroke="rgb(200,220,255)" stroke-width="0.5"></g>
<g id="xMajorGrid" stroke="rgb(200,220,255)" stroke-width="1"></g>
<g id="yAxis" stroke="rgb(0,0,0)" stroke-width="2"><line x1="559" y1="51" x2="559" y2="344"/></g>
<g id="xAxis" stroke="rgb(0,0,0)" stroke-width="2"><line x1="74" y1="70.5" x2="569" y2="70.5"/></g>
<g id="yMinorTicks" stroke="rgb(0,0,0)" stroke-width="1"><path d="M554,55.2 L559,55.2 M554,85.7 L559,85.7 M554,101 L559,101 M554,116 L559,116 M554,131 L559,131 M554,147 L559,147 M554,162 L559,162 M554,177 L559,177 M554,192 L559,192 M554,192 L559,192 M554,207 L559,207 M554,223 L559,223 M554,238 L559,238 M554,253 L559,253 M554,268 L559,268 M554,284 L559,284 M554,299 L559,299 M554,314 L559,314 M554,329 L559,329 "/></g>
<g id="xMinorTicks" stroke="rgb(0,0,0)" stroke-width="1"><path d="M517,70.5 L517,75.5 M474,70.5 L474,75.5 M432,70.5 L432,75.5 M347,70.5 L347,75.5 M305,70.5 L305,75.5 M262,70.5 L262,75.5 M177,70.5 L177,75.5 M135,70.5 L135,75.5 M92,70.5 L92,75.5 "/></g>
<g id="yMajorTicks" stroke="rgb(0,0,0)" stroke-width="2"><path d="M549,131 L559,131 M549,192 L559,192 M549,253 L559,253 M549,314 L559,314 "/></g>
<g id="xMajorTicks" stroke="rgb(0,0,0)" stroke-width="2"><path d="M389,70.5 L389,80.5 M220,70.5 L220,80.5 "/></g>
<g id="plotLabels" fill="rgb(0,0,0)"><text x="389" y="98.5" text-anchor="middle" font-family="Verdana" font-size="12">-5</text><text x="220" y="98.5" text-anchor="middle" font-family="Verdana" font-size="12">-10</text><text x="537" y="137" text-anchor="middle" font-family="Verdana" font-size="12">-0.1</text><text x="537" y="198" text-anchor="middle" font-family="Verdana" font-size="12">-0.2</text><text x="537" y="259" text-anchor="middle" font-family="Verdana" font-size="12">-0.3</text><text x="537" y="320" text-anchor="middle" font-family="Verdana" font-size="12">-0.4</text></g>
<g id="yLabel" fill="rgb(0,0,0)"><text x="21" y="198" text-anchor="middle" transform = "rotate(-90 21 198 )" font-family="Verdana" font-size="14">zeta(z)</text></g>
<g id="xLabel" fill="rgb(0,0,0)"><text x="322" y="386" text-anchor="middle" font-family="Verdana" font-size="14">z</text></g>
<g id="plotLines" stroke-width="2"><g clip-path="url(#plot_window)" stroke="rgb(0,0,139)"><path d="M83.5,70.5 L85.9,82.2 L88.3,92.4 L90.7,101 L93,109 L95.4,115 L97.8,120 L100,123 L103,126 L105,127 L107,128 L110,127 L112,126 L114,124 L117,122 L119,119 L122,116 L124,112 L126,109 L129,105 L131,101 L133,96.9 L136,92.9 L138,89 L141,85.3 L143,81.6 L145,78.2 L148,75 L150,72 L153,69.3 L155,66.9 L157,64.7 L160,62.8 L162,61.2 L164,59.8 L167,58.7 L169,57.8 L172,57.2 L174,56.8 L176,56.6 L179,56.7 L181,56.8 L183,57.2 L186,57.7 L188,58.3 L191,59 L193,59.9 L195,60.7 L198,61.7 L200,62.7 L203,63.7 L205,64.7 L207,65.7 L210,66.7 L212,67.7 L214,68.6 L217,69.5 L219,70.3 L222,71.1 L224,71.9 L226,72.5 L229,73.1 L231,73.6 L233,74.1 L236,74.4 L238,74.7 L241,75 L243,75.1 L245,75.2 L248,75.2 L250,75.2 L252,75.1 L255,75 L257,74.8 L260,74.6 L262,74.3 L264,74 L267,73.7 L269,73.4 L272,73 L274,72.6 L276,72.2 L279,71.9 L281,71.5 L283,71.1 L286,70.7 L288,70.4 L291,70 L293,69.7 L295,69.4 L298,69.1 L300,68.9 L302,68.6 L305,68.4 L307,68.3 L310,68.1 L312,68 L314,68 L317,67.9 L319,67.9 L322,67.9 L324,68 L326,68 L329,68.1 L331,68.3 L333,68.4 L336,68.6 L338,68.8 L341,69 L343,69.2 L345,69.4 L348,69.6 L350,69.9 L352,70.1 L355,70.4 L357,70.6 L360,70.9 L362,71.1 L364,71.4 L367,71.6 L369,71.8 L371,72 L374,72.2 L376,72.4 L379,72.5 L381,72.6 L383,72.7 L386,72.8 L388,72.9 L391,72.9 L393,72.9 L395,72.9 L398,72.8 L400,72.7 L402,72.6 L405,72.5 L407,72.3 L410,72.1 L412,71.9 L414,71.6 L417,71.4 L419,71.1 L421,70.7 L424,70.4 L426,70.1 L429,69.7 L431,69.3 L433,68.9 L436,68.5 L438,68.2 L440,67.8 L443,67.4 L445,67 L448,66.6 L450,66.3 L452,66 L455,65.7 L457,65.4 L460,65.2 L462,65 L464,64.9 L467,64.9 L469,64.9 L471,65 L474,65.2 L476,65.5 L479,65.9 L481,66.4 L483,67.1 L486,67.9 L488,68.8 L490,69.9 L493,71.2 L495,72.8 L498,74.5 L500,76.5 L502,78.8 L505,81.3 L507,84.2 L510,87.4 L512,91 L514,95.1 L517,99.6 L519,105 L521,110 L524,116 L526,123 L529,131 L531,139 L533,149 L536,160 L538,171 L540,184 L543,199 L545,216 L548,235 L550,256 L552,280 L555,307 L557,339 " fill="none"/></g>
</g>
<g id="plotPoints" clip-path="url(#plot_window)"><g stroke="rgb(0,0,0)" fill="rgb(255,255,255)"></g>
</g>
<g id="limitPoints" stroke="rgb(119,136,153)" fill="rgb(250,235,215)"></g>
<g id="legendBackground" stroke="rgb(0,0,0)" fill="rgb(255,255,255)"><rect x="609" y="91" width="30" height="45"/><rect x="609" y="91" width="30" height="45"/></g>
<g id="legendPoints"><g stroke="rgb(0,0,139)" stroke-width="2"><line x1="617" y1="121" x2="639" y2="121"/></g>
</g>
<g id="legendText" fill="rgb(0,0,0)"><text x="647" y="121" text-anchor="start" font-family="Verdana" font-size="15"></text></g>
<g id="title" fill="rgb(0,0,0)"><text x="300" y="40" text-anchor="middle" font-family="Verdana" font-size="20">Zeta Function Over [-14,0.5]</text></g>
</svg>
